<svg xmlns="http://www.w3.org/2000/svg" viewBox="0 0 24 24" comment="discasset/1.2">
    
    <path fill="B9BBBE" className="undefined" d="M22.7369 12C22.7369 17.9299 17.9299 22.7368 12 22.7368C6.07013 22.7368 1.26318 17.9299 1.26318 12C1.26318 6.07008 6.07013 1.26313 12 1.26313C17.9299 1.26313 22.7369 6.07008 22.7369 12Z"/>
    <path fill="B9BBBE" className="undefined" d="M12.0001 13.8948C9.71189 13.8948 8.19358 13.6283 6.31589 13.2632C5.88705 13.1805 5.05273 13.2632 5.05273 14.5264C5.05273 17.0527 7.95484 20.2106 12.0001 20.2106C16.0447 20.2106 18.9475 17.0527 18.9475 14.5264C18.9475 13.2632 18.1132 13.1798 17.6843 13.2632C15.8066 13.6283 14.2883 13.8948 12.0001 13.8948Z"/>
    <path fill="B9BBBE" className="undefined" d="M6.94727 8.84209C6.94727 8.84209 6.94727 7.57893 8.21042 7.57893C9.47358 7.57893 9.47358 8.84209 9.47358 8.84209V10.1053C9.47358 10.1053 9.47358 11.3684 8.21042 11.3684C6.94727 11.3684 6.94727 10.1053 6.94727 10.1053V8.84209Z"/>
    <path fill="B9BBBE" className="undefined" d="M14.5264 8.84209C14.5264 8.84209 14.5264 7.57893 15.7895 7.57893C17.0527 7.57893 17.0527 8.84209 17.0527 8.84209V10.1053C17.0527 10.1053 17.0527 11.3684 15.7895 11.3684C14.5264 11.3684 14.5264 10.1053 14.5264 10.1053V8.84209Z"/>
    <path fill="B9BBBE" className="undefined" d="M6.31592 14.5263C6.31592 14.5263 8.21065 15.1579 12.0001 15.1579C15.7896 15.1579 17.6843 14.5263 17.6843 14.5263C17.6843 14.5263 16.4212 17.0526 12.0001 17.0526C7.57908 17.0526 6.31592 14.5263 6.31592 14.5263Z"/>
</svg>