<svg xmlns="http://www.w3.org/2000/svg" viewBox="0 0 32 32" comment="discasset/1.2">
    
    <path className="undefined" d="M10.5 24c0-3.682 2.318-6 6-6s6 2.318 6 6h-12zM16.5 16a4 4 0 100-8 4 4 0 000 8zM29.166 15.334H28.5a.334.334 0 00-.334.333v.667c0 .183.15.333.334.333h.666c.184 0 .334-.15.334-.333v-.667a.334.334 0 00-.334-.333zM26.5 15h-1.333a.334.334 0 00-.334.333v1.334c0 .183.15.333.334.333H26.5c.183 0 .334-.15.334-.333v-1.334A.334.334 0 0026.5 15zM31.167 16.333a.333.333 0 100-.667.333.333 0 000 .667zM29.166 11.334H28.5a.334.334 0 00-.334.333v.667c0 .183.15.333.334.333h.666c.184 0 .334-.15.334-.333v-.667a.334.334 0 00-.334-.333zM26.5 11h-1.333a.334.334 0 00-.334.333v1.334c0 .183.15.333.334.333H26.5c.183 0 .334-.15.334-.333v-1.334A.334.334 0 0026.5 11zM31.167 12.333a.333.333 0 100-.667.333.333 0 000 .667zM29.166 7.334H28.5a.335.335 0 00-.334.333v.667c0 .183.15.333.334.333h.666c.184 0 .334-.15.334-.333v-.667a.335.335 0 00-.334-.333zM26.5 7h-1.333a.335.335 0 00-.334.333v1.334c0 .183.15.333.334.333H26.5c.183 0 .334-.15.334-.333V7.333A.335.335 0 0026.5 7zM31.167 8.333a.333.333 0 100-.667.333.333 0 000 .667zM29.166 23.334H28.5a.334.334 0 00-.334.333v.667c0 .183.15.333.334.333h.666c.184 0 .334-.15.334-.333v-.667a.334.334 0 00-.334-.333zM26.5 23h-1.333a.334.334 0 00-.334.333v1.334c0 .183.15.333.334.333H26.5c.183 0 .334-.15.334-.333v-1.334A.334.334 0 0026.5 23zM31.167 24.333a.333.333 0 100-.667.333.333 0 000 .667zM29.166 19.334H28.5a.334.334 0 00-.334.333v.667c0 .183.15.333.334.333h.666c.184 0 .334-.15.334-.333v-.667a.334.334 0 00-.334-.333zM26.5 19h-1.333a.334.334 0 00-.334.333v1.334c0 .183.15.333.334.333H26.5c.183 0 .334-.15.334-.333v-1.334A.334.334 0 0026.5 19zM31.167 20.333a.333.333 0 100-.667.333.333 0 000 .667zM4.5 15.334h-.667a.334.334 0 00-.333.333v.667c0 .183.15.333.333.333H4.5c.183 0 .333-.15.333-.333v-.667a.334.334 0 00-.333-.333zM7.833 15H6.5a.335.335 0 00-.333.333v1.334c0 .183.15.333.333.333h1.333c.184 0 .333-.15.333-.333v-1.334A.334.334 0 007.833 15zM1.833 16.333a.333.333 0 100-.667.333.333 0 000 .667zM4.5 11.334h-.667a.334.334 0 00-.333.333v.667c0 .183.15.333.333.333H4.5c.183 0 .333-.15.333-.333v-.667a.334.334 0 00-.333-.333zM7.833 11H6.5a.335.335 0 00-.333.333v1.334c0 .183.15.333.333.333h1.333c.184 0 .333-.15.333-.333v-1.334A.334.334 0 007.833 11zM1.833 12.333a.333.333 0 100-.667.333.333 0 000 .667zM4.5 7.334h-.667a.335.335 0 00-.333.333v.667c0 .183.15.333.333.333H4.5c.183 0 .333-.15.333-.333v-.667a.335.335 0 00-.333-.333zM7.833 7H6.5a.335.335 0 00-.333.333v1.334c0 .183.15.333.333.333h1.333c.184 0 .333-.15.333-.333V7.333A.335.335 0 007.833 7zM1.833 8.333a.333.333 0 100-.667.333.333 0 000 .667zM4.5 23.334h-.667a.334.334 0 00-.333.333v.667c0 .183.15.333.333.333H4.5c.183 0 .333-.15.333-.333v-.667a.334.334 0 00-.333-.333zM7.833 23H6.5a.335.335 0 00-.333.333v1.334c0 .183.15.333.333.333h1.333c.184 0 .333-.15.333-.333v-1.334A.334.334 0 007.833 23zM1.833 24.333a.333.333 0 100-.667.333.333 0 000 .667zM4.5 19.334h-.667a.334.334 0 00-.333.333v.667c0 .183.15.333.333.333H4.5c.183 0 .333-.15.333-.333v-.667a.334.334 0 00-.333-.333zM7.833 19H6.5a.335.335 0 00-.333.333v1.334c0 .183.15.333.333.333h1.333c.184 0 .333-.15.333-.333v-1.334A.334.334 0 007.833 19zM1.833 20.333a.333.333 0 100-.667.333.333 0 000 .667z" fill="B9BBBE"/>
</svg>