<svg xmlns="http://www.w3.org/2000/svg" viewBox="0 0 24 24" comment="discasset/1.2">
    
    <g>
        <path d="M17.5053 1.76605C17.5053 1.76605 26.7154 8.05195 23.2155 16.8783C19.7157 25.7047 12.7544 23.2563 15.3562 20.6775C17.9581 18.0986 12.2862 16.3487 8.65588 13.0024L17.4976 1.76605" fill="B9BBBE" undefined="0.6"/>
        <path d="M16.945 10.4082C15.0032 12.8796 12.2632 14.1153 10.1449 13.6701L2.75381 23.0875C2.62942 23.2463 2.47493 23.3791 2.29918 23.4782C2.12343 23.5774 1.92987 23.6408 1.72956 23.6651C1.52925 23.6893 1.32613 23.6738 1.13181 23.6195C0.937493 23.5652 0.755794 23.473 0.597107 23.3484C0.436561 23.2245 0.302154 23.0701 0.201652 22.8939C0.101149 22.7178 0.0365434 22.5235 0.011566 22.3222C-0.0134115 22.121 0.00173486 21.9168 0.0561299 21.7214C0.110525 21.5261 0.203091 21.3434 0.328479 21.184L7.68121 11.7821C6.70648 9.83259 7.24373 6.84698 9.21623 4.35258C11.6646 1.25185 15.3563 0.0929071 17.4977 1.76608C19.639 3.43925 19.378 7.30749 16.945 10.4082Z" fill="B9BBBE"/>
    </g>
    <defs/>
</svg>