<svg xmlns="http://www.w3.org/2000/svg" viewBox="0 0 19 20" comment="discasset/1.2">
    
    <path fill="B9BBBE" className="undefined" d="M17.0892 12.7442L7.9225 3.57754C7.76583 3.42171 7.555 3.33337 7.33333 3.33337H1.5C1.03916 3.33337 0.666664 3.70587 0.666664 4.16671V10C0.666664 10.2217 0.754164 10.4325 0.910831 10.5892L10.0775 19.7559C10.24 19.9184 10.4533 20 10.6667 20C10.88 20 11.0933 19.9184 11.2558 19.7559L17.0892 13.9225C17.415 13.5967 17.415 13.07 17.0892 12.7442ZM4.83333 9.16671C3.91166 9.16671 3.16666 8.42004 3.16666 7.50004C3.16666 6.57837 3.91166 5.83337 4.83333 5.83337C5.75333 5.83337 6.5 6.57837 6.5 7.50004C6.5 8.42004 5.75333 9.16671 4.83333 9.16671Z"/>
    <path fill="B9BBBE" className="undefined" d="M17.5775 10.5892L8.655 1.66667H3.16666V0H9C9.22166 0 9.4325 0.0875 9.58916 0.244167L18.7558 9.41083L17.5775 10.5892Z"/>
</svg>