<svg xmlns="http://www.w3.org/2000/svg" viewBox="0 0 24 24" comment="discasset/1.2">
    
    <g>
        <path d="M16.001 20.5H4.00098C2.89798 20.5 2.00098 19.602 2.00098 18.5V8.5H4.00098V18.5H16.001V20.5Z" fill="B9BBBE"/>
        <path d="M21.001 3.5H8.00098C6.89798 3.5 6.00098 4.396 6.00098 5.5V14.5C6.00098 15.602 6.89798 16.5 8.00098 16.5H21.001C22.104 16.5 23.001 15.602 23.001 14.5V5.5C23.001 4.396 22.104 3.5 21.001 3.5ZM9.00098 13.5C9.00098 11.659 10.16 10.5 12.001 10.5C10.896 10.5 10.001 9.604 10.001 8.5C10.001 7.396 10.896 6.5 12.001 6.5C13.106 6.5 14.001 7.396 14.001 8.5C14.001 9.604 13.105 10.5 12.001 10.5C13.842 10.5 15.001 11.659 15.001 13.5H9.00098ZM20.001 13.5H16.001V11.5H20.001V13.5ZM20.001 9.5H16.001V7.5H20.001V9.5Z" fill="B9BBBE"/>
    </g>
    <defs/>
</svg>