<svg xmlns="http://www.w3.org/2000/svg" viewBox="0 0 20 20" comment="discasset/1.2">
    
    <g>
        <path className="undefined" fill="B9BBBE" d="M10 0C4.4764 0 0 4.4764 0 10C0 15.5236 4.4764 20 10 20C15.5236 20 20 15.5236 20 10C20 4.4764 15.5236 0 10 0ZM10 3.6C10.4422 3.6 10.8 3.95781 10.8 4.4V9.5376L14.5625 11.7126C14.9453 11.9329 15.0703 12.4173 14.85 12.8001C14.6297 13.183 14.1453 13.3079 13.7625 13.0876L9.68726 10.7376C9.65601 10.7251 9.62788 10.7048 9.59976 10.6876C9.3607 10.5486 9.19976 10.2954 9.19976 10.0001V4.4001C9.19976 3.9579 9.55781 3.6 10 3.6Z"/>
    </g>
</svg>