<svg xmlns="http://www.w3.org/2000/svg" viewBox="0 0 24 24" comment="discasset/1.2">
    
    <path className="undefined" fill="B9BBBE" fillRule="evenodd" clipRule="evenodd" d="M5.66493 5H18.3351C19.9079 5 21.2137 6.21463 21.3273 7.78329L21.9932 16.9774C22.0684 18.0165 21.2871 18.9198 20.248 18.9951C20.2027 18.9984 20.1572 19 20.1117 19C18.9191 19 17.8786 18.1904 17.5855 17.0342L17.0699 15H6.93021L6.41455 17.0342C6.12148 18.1904 5.081 19 3.88832 19C2.84651 19 2.00195 18.1554 2.00195 17.1136C2.00195 17.0682 2.0036 17.0227 2.00688 16.9774L2.67277 7.78329C2.78638 6.21463 4.09216 5 5.66493 5ZM14.5001 10C15.3285 10 16.0001 9.32843 16.0001 8.5C16.0001 7.67157 15.3285 7 14.5001 7C13.6716 7 13.0001 7.67157 13.0001 8.5C13.0001 9.32843 13.6716 10 14.5001 10ZM18.5001 13C19.3285 13 20.0001 12.3284 20.0001 11.5C20.0001 10.6716 19.3285 10 18.5001 10C17.6716 10 17.0001 10.6716 17.0001 11.5C17.0001 12.3284 17.6716 13 18.5001 13ZM6.00007 9H4.00008V11H6.00007V13H8.00007V11H10.0001V9H8.00007V7H6.00007V9Z" undefined="undefined"/>
</svg>