<svg xmlns="http://www.w3.org/2000/svg" viewBox="0 0 120 80" comment="discasset/1.2">
    
    <circle cx="60" cy="40" r="32" fill="B9BBBE"/>
    <path d="M75.0832 29.8546L75.0835 29.8548C75.1362 29.884 75.1683 29.9391 75.1683 29.9983C75.1683 30.5369 75.1197 37.4409 73.0784 44.1629C71.005 50.9907 67.1615 56.8317 60.0016 56.8317C52.8418 56.8317 48.9982 50.9907 46.9248 44.1629C44.8836 37.4409 44.835 30.5369 44.835 29.9983C44.835 29.9391 44.8671 29.884 44.9197 29.8548L44.9201 29.8546L59.919 21.5218C59.9191 21.5218 59.9193 21.5217 59.9194 21.5216C59.9718 21.4928 60.0316 21.4928 60.0839 21.5217C60.084 21.5217 60.0842 21.5218 60.0843 21.5218L75.0832 29.8546ZM52.2516 46.6667V48.1667H53.7516H66.2516H67.7516V46.6667C67.7516 44.43 67.0409 42.4584 65.6254 41.0429C64.7687 40.1861 63.7082 39.5876 62.5086 39.2485C64.3809 38.3237 65.6683 36.3949 65.6683 34.165C65.6683 31.0349 63.1317 28.4983 60.0016 28.4983C56.8715 28.4983 54.335 31.0349 54.335 34.165C54.335 36.3949 55.6224 38.3237 57.4947 39.2485C56.295 39.5876 55.2346 40.1861 54.3778 41.0429C52.9623 42.4584 52.2516 44.43 52.2516 46.6667Z" fill="B9BBBE" stroke="undefined" undefined="3"/>
</svg>