<svg xmlns="http://www.w3.org/2000/svg" viewBox="0 0 16 16" comment="discasset/1.2">
    
    <path d="M11.7791 8.47509L9.24568 7.08859C9.10351 7.00927 8.98757 6.89018 8.91209 6.74591L7.52592 4.22089C7.49677 4.16776 7.45388 4.12344 7.40174 4.09257C7.3496 4.0617 7.29012 4.04541 7.22953 4.04541C7.16893 4.04541 7.10946 4.0617 7.05731 4.09257C7.00517 4.12344 6.96228 4.16776 6.93313 4.22089L5.5447 6.74591C5.46783 6.88684 5.35203 7.00268 5.21112 7.07957L2.67544 8.47509C2.62232 8.50425 2.57801 8.54715 2.54715 8.5993C2.51628 8.65146 2.5 8.71095 2.5 8.77156C2.5 8.83216 2.51628 8.89165 2.54715 8.94381C2.57801 8.99596 2.62232 9.03886 2.67544 9.06802L5.21112 10.4545C5.35187 10.5316 5.46763 10.6474 5.5447 10.7882L6.93088 13.3245C6.96003 13.3776 7.00292 13.4219 7.05506 13.4528C7.1072 13.4837 7.16668 13.5 7.22727 13.5C7.28786 13.5 7.34734 13.4837 7.39948 13.4528C7.45163 13.4219 7.49452 13.3776 7.52367 13.3245L8.90984 10.7882C8.98682 10.6473 9.10259 10.5315 9.24342 10.4545L11.7791 9.06802C11.8322 9.03886 11.8765 8.99596 11.9074 8.94381C11.9383 8.89165 11.9545 8.83216 11.9545 8.77156C11.9545 8.71095 11.9383 8.65146 11.9074 8.5993C11.8765 8.54715 11.8322 8.50425 11.7791 8.47509Z" fill="B9BBBE"/>
    <path d="M15.3186 2.57078L14.1492 1.92939C14.1147 1.90911 14.0863 1.87988 14.067 1.84477L13.4267 0.673342C13.398 0.620858 13.3557 0.577078 13.3042 0.546584C13.2528 0.516089 13.1941 0.5 13.1344 0.5C13.0746 0.5 13.0159 0.516089 12.9645 0.546584C12.9131 0.577078 12.8708 0.620858 12.842 0.673342L12.1996 1.84699C12.1796 1.88239 12.1504 1.91166 12.1151 1.93162L10.9457 2.57301C10.8933 2.60181 10.8496 2.64419 10.8192 2.69571C10.7888 2.74723 10.7727 2.80599 10.7727 2.86586C10.7727 2.92573 10.7888 2.9845 10.8192 3.03602C10.8496 3.08754 10.8933 3.12992 10.9457 3.15872L12.1173 3.80011C12.152 3.81912 12.1806 3.84772 12.1996 3.88251L12.8398 5.05393C12.8686 5.10641 12.9109 5.15019 12.9623 5.18069C13.0137 5.21118 13.0724 5.22727 13.1322 5.22727C13.1919 5.22727 13.2506 5.21118 13.302 5.18069C13.3534 5.15019 13.3957 5.10641 13.4245 5.05393L14.0647 3.88251C14.0841 3.84666 14.1134 3.81725 14.1492 3.79788L15.3186 3.1654C15.3732 3.13737 15.419 3.09478 15.451 3.04232C15.483 2.98986 15.5 2.92957 15.5 2.86809C15.5 2.80661 15.483 2.74632 15.451 2.69386C15.419 2.6414 15.3732 2.59881 15.3186 2.57078Z" fill="B9BBBE"/>
</svg>