<svg xmlns="http://www.w3.org/2000/svg" viewBox="0 0 16 16" comment="discasset/1.2">
    
    <path d="M11.4204 9.81568L8.30237 8.10922C8.12739 8.0116 7.9847 7.86502 7.89181 7.68746L6.18575 4.57974C6.14987 4.51435 6.09708 4.4598 6.03291 4.42181C5.96873 4.38381 5.89553 4.36377 5.82095 4.36377C5.74638 4.36377 5.67318 4.38381 5.609 4.42181C5.54483 4.4598 5.49204 4.51435 5.45616 4.57974L3.74733 7.68746C3.65271 7.86092 3.51019 8.00348 3.33676 8.09812L0.215921 9.81568C0.150545 9.85157 0.0960116 9.90437 0.0580264 9.96856C0.0200411 10.0328 0 10.106 0 10.1806C0 10.2552 0.0200411 10.3284 0.0580264 10.3926C0.0960116 10.4568 0.150545 10.5096 0.215921 10.5454L3.33676 12.2519C3.51 12.3468 3.65246 12.4893 3.74733 12.6626L5.45339 15.7842C5.48927 15.8496 5.54205 15.9041 5.60623 15.9421C5.6704 15.9801 5.74361 16.0001 5.81818 16.0001C5.89276 16.0001 5.96596 15.9801 6.03013 15.9421C6.09431 15.9041 6.1471 15.8496 6.18297 15.7842L7.88903 12.6626C7.98377 12.4892 8.12627 12.3467 8.2996 12.2519L11.4204 10.5454C11.4858 10.5096 11.5404 10.4568 11.5783 10.3926C11.6163 10.3284 11.6364 10.2552 11.6364 10.1806C11.6364 10.106 11.6163 10.0328 11.5783 9.96856C11.5404 9.90437 11.4858 9.85157 11.4204 9.81568Z" fill="B9BBBE"/>
    <path d="M15.7767 2.54865L14.3375 1.75925C14.295 1.7343 14.26 1.69831 14.2362 1.6551L13.4482 0.213344C13.4128 0.148748 13.3608 0.0948657 13.2975 0.0573338C13.2342 0.0198019 13.162 0 13.0884 0C13.0149 0 12.9427 0.0198019 12.8794 0.0573338C12.8161 0.0948657 12.764 0.148748 12.7286 0.213344L11.9379 1.65784C11.9134 1.70141 11.8774 1.73743 11.8339 1.76199L10.3947 2.55139C10.3302 2.58684 10.2765 2.639 10.239 2.70241C10.2015 2.76582 10.1818 2.83815 10.1818 2.91183C10.1818 2.98552 10.2015 3.05785 10.239 3.12125C10.2765 3.18466 10.3302 3.23682 10.3947 3.27227L11.8367 4.06167C11.8794 4.08507 11.9145 4.12027 11.9379 4.16309L12.7259 5.60484C12.7613 5.66943 12.8133 5.72332 12.8766 5.76085C12.9399 5.79838 13.0121 5.81818 13.0857 5.81818C13.1592 5.81818 13.2315 5.79838 13.2947 5.76085C13.358 5.72332 13.4101 5.66943 13.4455 5.60484L14.2335 4.16309C14.2573 4.11897 14.2934 4.08277 14.3375 4.05893L15.7767 3.28049C15.8439 3.24599 15.9003 3.19357 15.9397 3.12901C15.9791 3.06445 15.9999 2.99024 15.9999 2.91457C15.9999 2.8389 15.9791 2.7647 15.9397 2.70014C15.9003 2.63557 15.8439 2.58316 15.7767 2.54865Z" fill="B9BBBE"/>
</svg>