<svg xmlns="http://www.w3.org/2000/svg" viewBox="0 0 24 24" comment="discasset/1.2">
    
    <rect className="undefined" x="2.10049" y="20.4853" width="26" height="2" transform="rotate(-45 2.10049 20.4853)" fill="B9BBBE"/>
    <path fillRule="evenodd" clipRule="evenodd" d="M14.169 5.60117L12.5325 4.12835C12.3424 3.95722 12.0537 3.95722 11.8635 4.12835L3.16652 11.9557C2.82591 12.2622 3.04276 12.8273 3.50101 12.8273H5.19803V14.5721L14.169 5.60117ZM5.19803 17.4005L15.6576 6.94095L17.1384 8.27369L10.5848 14.8273H10.198V15.2141L5.25403 20.1581C5.21775 20.0546 5.19803 19.9432 5.19803 19.8273V17.4005ZM7.41324 20.8273H9.19803C9.75031 20.8273 10.198 20.3796 10.198 19.8273V18.0425L7.41324 20.8273ZM13.4132 14.8273H14.198V19.8273C14.198 20.3796 14.6457 20.8273 15.198 20.8273H18.198C18.7503 20.8273 19.198 20.3796 19.198 19.8273V12.8273H20.895C21.3533 12.8273 21.5701 12.2622 21.2295 11.9557L18.6271 9.61347L13.4132 14.8273Z" fill="B9BBBE"/>
</svg>