<svg xmlns="http://www.w3.org/2000/svg" viewBox="0 0 24 24" comment="discasset/1.2">
    
    <path d="M11.525 15.019L12.257 9.893L13.742 10.105L13.037 15.041C15.661 15.218 18.146 16.065 20.326 17.526C21.382 15.943 22 14.043 22 12C22 6.486 17.514 2 12 2C6.486 2 2 6.486 2 12C2 14.042 2.618 15.942 3.673 17.526C6.008 15.96 8.693 15.106 11.525 15.019ZM18 11C18.552 11 19 11.447 19 12C19 12.553 18.552 13 18 13C17.448 13 17 12.553 17 12C17 11.447 17.448 11 18 11ZM16 7C16.552 7 17 7.447 17 8C17 8.553 16.552 9 16 9C15.448 9 15 8.553 15 8C15 7.447 15.448 7 16 7ZM12 5C12.552 5 13 5.447 13 6C13 6.553 12.552 7 12 7C11.448 7 11 6.553 11 6C11 5.447 11.448 5 12 5ZM8 7C8.552 7 9 7.447 9 8C9 8.553 8.552 9 8 9C7.448 9 7 8.553 7 8C7 7.447 7.448 7 8 7ZM6 11C6.552 11 7 11.447 7 12C7 12.553 6.552 13 6 13C5.448 13 5 12.553 5 12C5 11.447 5.448 11 6 11Z" fill="B9BBBE"/>
    <path d="M11.9998 17C9.4598 17 7.0448 17.718 4.9458 19.081C6.7558 20.885 9.2498 22 11.9998 22C14.7508 22 17.2448 20.883 19.0548 19.08C16.9558 17.717 14.5388 17 11.9998 17Z" fill="B9BBBE"/>
</svg>