<svg xmlns="http://www.w3.org/2000/svg" viewBox="0 0 24 24" comment="discasset/1.2">
    
    <path fillRule="evenodd" clipRule="evenodd" fill="B9BBBE" d="M15 12.54V14.44C16.828 14.807 18 15.368 18 16C18 17.106 14.419 18 10 18C5.581 18 2 17.106 2 16C2 15.368 3.173 14.807 5 14.44V12.54C2.014 13.231 0 14.52 0 16C0 18.21 4.477 20 10 20C15.523 20 20 18.21 20 16C20 14.52 17.986 13.231 15 12.54Z"/>
    <path fillRule="evenodd" clipRule="evenodd" fill="B9BBBE" d="M16 6C16 2.687 13.314 0 10 0C6.686 0 4 2.687 4 6C4 10 10 17 10 17C10 17 16 10 16 6ZM8 6C8 4.896 8.896 4 10 4C11.104 4 12 4.896 12 6C12 7.104 11.104 8 10 8C8.896 8 8 7.104 8 6Z"/>
</svg>