<svg xmlns="http://www.w3.org/2000/svg" viewBox="0 0 24 24" comment="discasset/1.2">
    
    <path className="undefined" fill="B9BBBE" undefined="evenodd" d="M2.8202 18C2.60803 18.0006 2.39797 17.9657 2.20295 17.8976C2.00793 17.8295 1.83207 17.7296 1.6862 17.604C1.53212 17.4852 1.40952 17.3419 1.32594 17.183C1.24236 17.0241 1.19957 16.8529 1.2002 16.6801V6.12014C1.19957 5.94726 1.24236 5.7761 1.32594 5.6172C1.40952 5.45829 1.53212 5.315 1.6862 5.19615C1.83207 5.0706 2.00793 4.9707 2.20295 4.9026C2.39797 4.8345 2.60803 4.79964 2.8202 4.80015L9.9499 4.80005H14.1889L21.1802 4.80015C21.6064 4.80906 22.0121 4.95099 22.3136 5.19663C22.6151 5.44227 22.7893 5.77287 22.8002 6.12014V16.6801C22.7893 17.0273 22.6151 17.3579 22.3136 17.6036C22.0121 17.8492 21.6064 17.9911 21.1802 18H2.8202ZM8.5 9.49976C8.5 10.3266 7.82725 10.9998 7 10.9998C6.17312 10.9998 5.5 10.3266 5.5 9.49976C5.5 8.67288 6.17275 7.99976 7 7.99976C7.82725 7.99976 8.5 8.67288 8.5 9.49976ZM7 11.9998C5.23375 11.9998 4 13.057 4 14.5712V14.9998H10V14.5712C10 13.057 8.76662 11.9998 7 11.9998ZM20 8.99976H14V9.99976H20V8.99976ZM14 10.9998H20V11.9998H14V10.9998ZM19 12.9998H14V13.9998H19V12.9998Z"/>
</svg>