<svg xmlns="http://www.w3.org/2000/svg" viewBox="0 0 24 24" comment="discasset/1.2">
    
    <path className="undefined" fill="B9BBBE" d="M18.8571 9.54956H8.57143V6.46015C8.57143 4.86218 9.71429 3.47727 11.3143 3.15768C13.4857 2.83808 15.4286 4.32952 15.4286 6.35362C15.4286 6.99281 16 7.41893 16.5714 7.41893C17.1429 7.41893 17.7143 6.99281 17.7143 6.35362C17.7143 3.26421 14.8571 0.707455 11.4286 1.02705C8.45714 1.34664 6.28571 3.79687 6.28571 6.56668V9.54956H5.14286C4.57143 9.54956 4 9.97569 4 10.6149V21.268C4 21.8007 4.57143 22.3333 5.14286 22.3333H18.8571C19.5429 22.3333 20 21.8007 20 21.268V10.6149C20 9.97569 19.5429 9.54956 18.8571 9.54956ZM13.1429 16.6872V18.0721C13.1429 18.7113 12.6857 19.1374 12 19.1374C11.3143 19.1374 10.8571 18.7113 10.8571 18.0721V16.6872C10.1714 16.261 9.71429 15.6219 9.71429 14.8761C9.71429 13.4912 11.0857 12.5324 12.5714 12.852C13.3714 13.0651 14.0571 13.7043 14.2857 14.45C14.5143 15.4088 13.9429 16.261 13.1429 16.6872Z" undefined="undefined"/>
</svg>