<svg xmlns="http://www.w3.org/2000/svg" viewBox="0 0 24 24" comment="discasset/1.2">
    
    <g>
        <path d="M18.8648 1.13516L21.0013 3.27074H16V4.72926H21.0013L18.8648 6.86484L20 8L24 4L20 0L18.8648 1.13516Z" fill="B9BBBE"/>
        <path d="M12 2C12.4342 2 12.8466 2.0917 13.2188 2.25683C13.0759 2.81411 13 3.39819 13 4C13 5.90397 13.7601 7.6304 14.9935 8.89235L14.99 11C14.99 12.66 13.66 14 12 14C10.34 14 9 12.66 9 11V5C9 3.34 10.34 2 12 2Z" fill="B9BBBE"/>
        <path d="M12 16.1C14.76 16.1 17.3 14 17.3 11H19C19 14.42 16.28 17.24 13 17.72V22H11V17.72C7.72 17.23 5 14.41 5 11H6.7C6.7 14 9.24 16.1 12 16.1Z" fill="B9BBBE"/>
    </g>
    <defs/>
</svg>