<svg xmlns="http://www.w3.org/2000/svg" viewBox="0 0 130 50" comment="discasset/1.2">
    
    <g>
        <path d="M118.39 0.114219H102.187C101.986 0.113407 101.792 0.185131 101.64 0.316178C101.488 0.447224 101.389 0.628764 101.36 0.827351L100.572 6.21201C100.555 6.3305 100.563 6.45126 100.597 6.56612C100.631 6.68097 100.689 6.78722 100.767 6.87765C100.846 6.96809 100.943 7.04059 101.052 7.09025C101.161 7.1399 101.279 7.16555 101.399 7.16544H104.357C104.426 7.16572 104.493 7.1829 104.554 7.21547C104.614 7.24804 104.666 7.29499 104.704 7.35219C104.742 7.40938 104.765 7.47506 104.772 7.54343C104.779 7.61179 104.768 7.68075 104.742 7.74421C104.359 8.64598 104.094 9.59347 103.954 10.5632L102.448 20.9707C101.458 27.947 107.264 31.4197 113.587 31.4197C120.209 31.4197 126.702 27.9367 127.692 20.9707L129.198 10.5632C130.167 3.72897 124.565 0.248577 118.39 0.114219ZM121.49 10.558L119.994 20.7485C119.651 23.1566 116.94 24.2754 114.447 24.2754C112.122 24.2754 109.845 23.1566 110.145 20.963L111.651 10.5554C111.995 8.27648 114.705 7.11635 117.199 7.11635C119.692 7.11635 121.85 8.27906 121.498 10.558H121.49Z" fill="B9BBBE"/>
        <path d="M28.5094 0.114355H22.4556C22.2502 0.115169 22.0521 0.190548 21.8981 0.326474C21.7441 0.462399 21.6447 0.64962 21.6184 0.853325L19.7606 14.1005C19.7593 14.1125 19.7593 14.1247 19.7606 14.1367L19.8433 19.2578C19.8444 19.309 19.8281 19.3591 19.7971 19.3999C19.7662 19.4407 19.7224 19.4698 19.6728 19.4826L17.9313 13.3047V13.2763L12.5234 0.628533C12.4591 0.475901 12.3513 0.345543 12.2135 0.253666C12.0757 0.161789 11.9139 0.112445 11.7482 0.111771H5.62978C5.42562 0.11461 5.2294 0.191282 5.07741 0.327605C4.92541 0.463928 4.82792 0.650681 4.80296 0.853325L0.712787 30.0168C0.696197 30.1366 0.705431 30.2585 0.739868 30.3744C0.774306 30.4903 0.833149 30.5975 0.912447 30.6888C0.991745 30.7801 1.08966 30.8534 1.19962 30.9037C1.30957 30.954 1.42902 30.9802 1.54994 30.9806H7.64515C7.84938 30.98 8.04653 30.9057 8.20035 30.7714C8.35416 30.637 8.45429 30.4516 8.48231 30.2493L10.0791 18.6609C10.0804 18.6489 10.0804 18.6368 10.0791 18.6248L9.99125 12.6691L10.167 12.6278L11.9937 18.8031C11.9923 18.8116 11.9923 18.8203 11.9937 18.8289L17.0425 30.4716C17.1065 30.6244 17.2142 30.7549 17.3521 30.8468C17.49 30.9388 17.6519 30.988 17.8176 30.9883H24.4399C24.6438 30.9878 24.8406 30.9139 24.9944 30.7801C25.1481 30.6463 25.2485 30.4615 25.2771 30.2597L29.3492 1.07812C29.3662 0.958053 29.3572 0.835722 29.3228 0.719439C29.2884 0.603156 29.2293 0.495644 29.1497 0.404212C29.07 0.312779 28.9716 0.239567 28.8611 0.189552C28.7506 0.139537 28.6307 0.113891 28.5094 0.114355Z" fill="B9BBBE"/>
        <path d="M41.7282 0.114212H35.633C35.4274 0.114476 35.229 0.189661 35.0749 0.325688C34.9208 0.461716 34.8216 0.649255 34.7958 0.853182L30.716 30.0167C30.6994 30.1364 30.7086 30.2584 30.7431 30.3743C30.7775 30.4902 30.8364 30.5974 30.9157 30.6887C30.9949 30.78 31.0929 30.8532 31.2028 30.9036C31.3128 30.9539 31.4322 30.9801 31.5531 30.9804H37.6484C37.8525 30.98 38.0497 30.9062 38.2039 30.7724C38.358 30.6386 38.4589 30.4538 38.4881 30.2518L42.5653 1.07797C42.5824 0.958126 42.5735 0.836017 42.5392 0.719917C42.5049 0.603817 42.4461 0.496436 42.3667 0.405047C42.2873 0.313658 42.1892 0.240395 42.0791 0.190217C41.9689 0.14004 41.8492 0.114119 41.7282 0.114212Z" fill="B9BBBE"/>
        <path d="M70.3387 0.114279H47.534C47.3312 0.114654 47.1354 0.187941 46.9821 0.320762C46.8289 0.453583 46.7286 0.637078 46.6994 0.837747L45.901 6.27925C45.8836 6.3993 45.8922 6.52169 45.9263 6.6381C45.9604 6.75452 46.0192 6.86223 46.0986 6.95392C46.178 7.0456 46.2762 7.11911 46.3866 7.16944C46.497 7.21977 46.6169 7.24574 46.7382 7.2456H53.1202C53.241 7.24556 53.3604 7.27142 53.4704 7.32144C53.5803 7.37147 53.6783 7.44449 53.7576 7.53559C53.837 7.62668 53.8959 7.73373 53.9303 7.84951C53.9648 7.9653 53.974 8.08712 53.9574 8.20677L50.955 30.0116C50.9384 30.1312 50.9476 30.253 50.982 30.3688C51.0165 30.4846 51.0754 30.5917 51.1547 30.6827C51.2341 30.7738 51.332 30.8469 51.442 30.8969C51.5519 30.9469 51.6713 30.9728 51.7921 30.9727H57.9674C58.1717 30.9722 58.3688 30.8979 58.5226 30.7635C58.6765 30.6292 58.7766 30.4438 58.8046 30.2415L61.869 7.97682C61.8959 7.77451 61.9954 7.58886 62.1489 7.45437C62.3024 7.31988 62.4995 7.24569 62.7036 7.2456H69.5533C69.7558 7.24585 69.9516 7.17312 70.1049 7.04072C70.2582 6.90833 70.3586 6.72513 70.3878 6.52471L71.1862 1.07546C71.203 0.954936 71.1935 0.832219 71.1584 0.715698C71.1234 0.599178 71.0636 0.491604 70.9831 0.400335C70.9026 0.309066 70.8034 0.236257 70.6922 0.186886C70.581 0.137515 70.4604 0.112748 70.3387 0.114279Z" fill="B9BBBE"/>
        <path d="M87.7588 0.114212H76.1575C75.9519 0.114476 75.7535 0.189661 75.5994 0.325688C75.4453 0.461715 75.3461 0.649255 75.3203 0.853182L71.2405 30.0167C71.2239 30.1364 71.2331 30.2584 71.2676 30.3743C71.302 30.4902 71.3609 30.5974 71.4402 30.6887C71.5195 30.78 71.6174 30.8532 71.7273 30.9036C71.8373 30.9539 71.9567 30.9801 72.0777 30.9804H78.2607C78.4649 30.9799 78.6621 30.9056 78.8159 30.7712C78.9697 30.6369 79.0698 30.4515 79.0979 30.2492L80.2968 21.5366C80.311 21.4354 80.3611 21.3427 80.4379 21.2754C80.5147 21.2081 80.6132 21.1705 80.7153 21.1697H81.5111C81.5823 21.1699 81.6522 21.1879 81.7146 21.2222C81.7769 21.2566 81.8295 21.306 81.8677 21.3661L87.7717 30.5903C87.848 30.7096 87.953 30.8079 88.0771 30.8761C88.2013 30.9443 88.3406 30.9802 88.4823 30.9804H96.1174C96.2722 30.9806 96.4241 30.9383 96.5565 30.8581C96.6888 30.7779 96.7966 30.6628 96.8681 30.5255C96.9395 30.3882 96.9719 30.2339 96.9616 30.0795C96.9514 29.9251 96.8989 29.7764 96.8099 29.6498L90.6087 20.795C90.5738 20.745 90.5501 20.6879 90.5392 20.6278C90.5283 20.5678 90.5306 20.506 90.5458 20.4469C90.561 20.3877 90.5888 20.3326 90.6274 20.2852C90.6659 20.2378 90.7142 20.1993 90.7689 20.1723C94.7248 18.2396 97.0218 16.2579 97.7788 10.7518C98.6573 3.51451 94.1227 0.114212 87.7588 0.114212ZM89.8956 10.8835C89.676 12.6689 88.2833 14.4569 85.883 14.4569H82.2811C82.1601 14.457 82.0404 14.4311 81.9302 14.3809C81.8201 14.3308 81.722 14.2575 81.6426 14.1661C81.5632 14.0747 81.5044 13.9673 81.4701 13.8512C81.4359 13.7351 81.4269 13.613 81.444 13.4932L82.2062 8.12144C82.2348 7.91986 82.3353 7.73541 82.4891 7.60201C82.6429 7.46861 82.8397 7.39523 83.0433 7.39539H86.8855C89.198 7.39539 90.1126 9.00769 89.8956 10.8835Z" fill="B9BBBE"/>
        <path d="M9.69666 42.2382C9.65701 42.2686 9.62488 42.3077 9.60277 42.3525C9.58066 42.3973 9.56916 42.4466 9.56916 42.4966C9.56916 42.5465 9.58066 42.5958 9.60277 42.6406C9.62488 42.6854 9.65701 42.7245 9.69666 42.7549C10.8645 43.6464 10.8232 45.0261 10.5545 45.8788C9.96021 47.8709 8.45901 49.0775 5.71501 49.0775H1.03314C0.986189 49.0772 0.939842 49.0669 0.897184 49.0473C0.854525 49.0277 0.816534 48.9992 0.785736 48.9637C0.754938 48.9283 0.732039 48.8867 0.718564 48.8417C0.705088 48.7967 0.701345 48.7494 0.707582 48.7029L2.34572 36.9853C2.35693 36.907 2.39604 36.8354 2.45586 36.7836C2.51568 36.7319 2.59218 36.7035 2.67128 36.7037H7.34798C9.70958 36.7037 11.2469 38.1196 10.8439 40.4786C10.6793 41.1813 10.2733 41.804 9.69666 42.2382ZM6.00439 46.3283C7.89058 46.3283 8.2058 43.7936 6.35321 43.7936H4.82101C4.74168 43.7941 4.66515 43.823 4.60539 43.8752C4.54562 43.9274 4.5066 43.9993 4.49545 44.0778L4.23707 45.9537C4.23083 46.0002 4.23457 46.0476 4.24805 46.0925C4.26152 46.1375 4.28442 46.1791 4.31522 46.2146C4.34602 46.25 4.38401 46.2785 4.42667 46.2981C4.46933 46.3177 4.51567 46.328 4.56263 46.3283H6.00439ZM6.66843 41.538C8.18771 41.538 8.55462 39.3366 6.98107 39.3366H5.44887C5.36993 39.3369 5.29371 39.3655 5.234 39.4172C5.17429 39.4688 5.13503 39.5401 5.12331 39.6182L4.90369 41.1685C4.89702 41.2151 4.90045 41.2626 4.91376 41.3077C4.92707 41.3529 4.94995 41.3947 4.98083 41.4302C5.01171 41.4658 5.04988 41.4942 5.09275 41.5137C5.13561 41.5332 5.18217 41.5432 5.22925 41.5431L6.66843 41.538Z" fill="B9BBBE"/>
        <path d="M21.745 49.0825H19.0682C18.993 49.0826 18.92 49.057 18.8613 49.0101C18.8026 48.9631 18.7616 48.8975 18.7452 48.8242L18.3757 46.8786C18.3597 46.805 18.3189 46.7391 18.2601 46.6921C18.2012 46.645 18.128 46.6196 18.0527 46.6202H15.2364C15.1728 46.6203 15.1106 46.639 15.0573 46.6738C15.0041 46.7087 14.9622 46.7583 14.9367 46.8165L14.0065 48.9068C13.9812 48.9653 13.9393 49.0151 13.8861 49.05C13.8328 49.0849 13.7704 49.1034 13.7068 49.1032H11.0919C11.0362 49.1032 10.9814 49.089 10.9326 49.062C10.8839 49.0349 10.8429 48.9959 10.8134 48.9486C10.7839 48.9013 10.767 48.8472 10.7642 48.7915C10.7614 48.7359 10.7728 48.6804 10.7974 48.6304L16.5231 36.9128C16.5497 36.8574 16.5915 36.8106 16.6437 36.7781C16.6958 36.7457 16.7562 36.7287 16.8177 36.7293H19.1974C19.2723 36.7289 19.3452 36.7544 19.4036 36.8015C19.4619 36.8486 19.5023 36.9143 19.5177 36.9877L22.0654 48.7053C22.0724 48.7517 22.0694 48.799 22.0566 48.8441C22.0438 48.8892 22.0214 48.9311 21.991 48.9668C21.9607 49.0026 21.923 49.0314 21.8806 49.0514C21.8381 49.0713 21.7919 49.082 21.745 49.0825ZM17.6109 43.8219C17.6567 43.8218 17.7021 43.8121 17.7439 43.7933C17.7858 43.7746 17.8233 43.7474 17.8539 43.7133C17.8846 43.6792 17.9078 43.6391 17.922 43.5955C17.9362 43.5519 17.9412 43.5058 17.9365 43.4602L17.6057 40.2046H17.4843L16.288 43.3775C16.2691 43.4272 16.2627 43.4808 16.2691 43.5335C16.2756 43.5863 16.2947 43.6367 16.325 43.6805C16.3552 43.7242 16.3957 43.7599 16.4428 43.7845C16.4899 43.8092 16.5423 43.822 16.5955 43.8219H17.6109Z" fill="B9BBBE"/>
        <path d="M24.6776 45.3773C24.7424 45.3238 24.8254 45.2974 24.9092 45.3037C24.9929 45.3099 25.0711 45.3484 25.1272 45.4109C25.4285 45.7146 25.7878 45.9545 26.1838 46.1165C26.5797 46.2786 27.0042 46.3593 27.432 46.354C28.2691 46.354 29.0055 46.0568 29.1269 45.4109C29.2665 44.6357 28.1838 44.3102 27.1865 44.1707C25.246 43.8554 23.4994 42.3 23.9361 39.959C24.4089 37.4243 26.6439 36.5329 28.9176 36.5329C30.3232 36.5329 31.6384 36.8998 32.6745 38.2227C32.7028 38.2581 32.7235 38.2989 32.7353 38.3427C32.7471 38.3864 32.7499 38.432 32.7433 38.4769C32.7368 38.5217 32.7211 38.5647 32.6973 38.6032C32.6734 38.6417 32.6419 38.6749 32.6047 38.7007L30.84 39.9229C30.7792 39.9653 30.7059 39.9861 30.6319 39.9819C30.5578 39.9777 30.4873 39.9487 30.4318 39.8996C29.9062 39.4517 29.2412 39.2006 28.5507 39.1891C27.7756 39.1736 27.0986 39.4681 27.0289 40.0986C26.941 40.8143 27.5715 41.1321 28.5146 41.3388C30.6643 41.7419 32.7624 42.5635 32.1862 45.6383C31.7314 48.0515 29.6334 49.2556 26.9591 49.2556C25.5639 49.2556 23.8585 48.5941 22.8767 47.2816C22.825 47.2137 22.8015 47.1285 22.8112 47.0438C22.8208 46.9591 22.8628 46.8813 22.9284 46.8268L24.6776 45.3773Z" fill="B9BBBE"/>
        <path d="M36.235 49.0824H33.7675C33.7206 49.0822 33.6743 49.0719 33.6318 49.0522C33.5892 49.0326 33.5514 49.004 33.5208 48.9685C33.4902 48.9331 33.4675 48.8914 33.4544 48.8464C33.4412 48.8014 33.4378 48.7542 33.4445 48.7078L35.0826 36.9902C35.0933 36.9117 35.1323 36.8397 35.1922 36.7879C35.2521 36.736 35.3289 36.7078 35.4082 36.7086H37.8757C37.9225 36.7084 37.9687 36.7184 38.0112 36.7378C38.0538 36.7571 38.0917 36.7854 38.1223 36.8207C38.153 36.856 38.1756 36.8975 38.1888 36.9423C38.202 36.9872 38.2054 37.0344 38.1987 37.0806L36.5606 48.7982C36.5504 48.8772 36.5117 48.9497 36.4517 49.0021C36.3917 49.0545 36.3146 49.0831 36.235 49.0824Z" fill="B9BBBE"/>
        <path d="M47.8777 46.3049C47.9214 46.3267 47.9598 46.358 47.9901 46.3965C48.0203 46.4349 48.0416 46.4796 48.0525 46.5273C48.0634 46.575 48.0635 46.6245 48.053 46.6723C48.0424 46.7201 48.0213 46.7649 47.9914 46.8036C46.5238 48.7078 44.8443 49.2556 43.3715 49.2556C40.9401 49.2556 38.7051 47.8397 39.0875 45.0259L39.6818 40.7626C40.0668 37.9669 42.723 36.5329 45.206 36.5329C46.6504 36.5329 48.3066 37.1169 49.0456 39.065C49.0778 39.147 49.0764 39.2383 49.0415 39.3192C49.0067 39.4 48.9412 39.4638 48.8595 39.4965L46.7356 40.3079C46.6641 40.3346 46.5855 40.3356 46.5133 40.3106C46.4411 40.2856 46.38 40.2362 46.3403 40.1709C46.0018 39.6542 45.3585 39.4164 44.7151 39.4164C43.8237 39.4345 42.9348 39.9332 42.8108 40.7626L42.2165 45.0362C42.0951 45.8424 42.8625 46.3488 43.7384 46.3488C44.0859 46.3539 44.4296 46.2764 44.7414 46.1228C45.0531 45.9692 45.3239 45.7438 45.5316 45.4651C45.5764 45.4017 45.6423 45.3563 45.7176 45.3369C45.7928 45.3175 45.8725 45.3254 45.9424 45.3592L47.8777 46.3049Z" fill="B9BBBE"/>
    </g>
</svg>