<svg xmlns="http://www.w3.org/2000/svg" viewBox="0 0 130 71" comment="discasset/1.2">
    
    <g>
        <path d="M117.685 21.7402H101.482C101.281 21.7394 101.087 21.8111 100.935 21.9421C100.783 22.0732 100.684 22.2547 100.655 22.4533L99.8669 27.838C99.8498 27.9565 99.8585 28.0772 99.8922 28.1921C99.926 28.3069 99.984 28.4132 100.062 28.5036C100.141 28.594 100.238 28.6666 100.347 28.7162C100.456 28.7659 100.574 28.7915 100.694 28.7914H103.652C103.721 28.7917 103.788 28.8089 103.849 28.8414C103.909 28.874 103.961 28.921 103.999 28.9781C104.037 29.0353 104.06 29.101 104.067 29.1694C104.074 29.2378 104.063 29.3067 104.037 29.3702C103.654 30.2719 103.389 31.2194 103.249 32.1891L101.743 42.5967C100.753 49.573 106.559 53.0456 112.882 53.0456C119.504 53.0456 125.997 49.5627 126.987 42.5967L128.493 32.1891C129.462 25.3549 123.86 21.8745 117.685 21.7402ZM120.785 32.1839L119.289 42.3745C118.946 44.7826 116.235 45.9014 113.742 45.9014C111.417 45.9014 109.14 44.7826 109.44 42.589L110.946 32.1814C111.29 29.9024 114 28.7423 116.494 28.7423C118.987 28.7423 121.145 29.905 120.793 32.1839H120.785Z" fill="B9BBBE"/>
        <path d="M27.8044 21.7403H21.7505C21.5451 21.7411 21.347 21.8165 21.193 21.9524C21.0391 22.0884 20.9397 22.2756 20.9134 22.4793L19.0556 35.7265C19.0543 35.7385 19.0543 35.7506 19.0556 35.7627L19.1383 40.8838C19.1393 40.935 19.1231 40.985 19.0921 41.0258C19.0612 41.0666 19.0174 41.0958 18.9678 41.1086L17.2263 34.9307V34.9023L11.8184 22.2545C11.754 22.1019 11.6463 21.9715 11.5084 21.8796C11.3706 21.7878 11.2089 21.7384 11.0432 21.7377H4.92476C4.7206 21.7406 4.52438 21.8172 4.37238 21.9536C4.22038 22.0899 4.12289 22.2766 4.09794 22.4793L0.00776256 51.6428C-0.00882772 51.7625 0.000406002 51.8845 0.0348435 52.0004C0.069281 52.1163 0.128125 52.2235 0.207422 52.3148C0.28672 52.4061 0.384635 52.4794 0.494591 52.5297C0.604546 52.58 0.723996 52.6062 0.844917 52.6065H6.94013C7.14435 52.606 7.34151 52.5317 7.49532 52.3973C7.64914 52.263 7.74926 52.0776 7.77728 51.8753L9.37408 40.2869C9.37536 40.2749 9.37536 40.2628 9.37408 40.2507L9.28623 34.2951L9.46193 34.2537L11.2887 40.429C11.2872 40.4376 11.2872 40.4463 11.2887 40.4549L16.3375 52.0975C16.4015 52.2503 16.5092 52.3809 16.6471 52.4728C16.785 52.5647 16.9469 52.6139 17.1126 52.6143H23.7349C23.9387 52.6138 24.1356 52.5399 24.2893 52.4061C24.4431 52.2722 24.5435 52.0875 24.5721 51.8856L28.6441 22.7041C28.6612 22.584 28.6522 22.4617 28.6178 22.3454C28.5834 22.2291 28.5243 22.1216 28.4447 22.0302C28.365 21.9387 28.2666 21.8655 28.1561 21.8155C28.0456 21.7655 27.9257 21.7399 27.8044 21.7403Z" fill="B9BBBE"/>
        <path d="M41.0232 21.7402H34.928C34.7224 21.7404 34.524 21.8156 34.3699 21.9516C34.2158 22.0877 34.1166 22.2752 34.0908 22.4791L30.011 51.6426C29.9944 51.7624 30.0036 51.8843 30.038 52.0002C30.0725 52.1162 30.1313 52.2234 30.2106 52.3147C30.2899 52.4059 30.3878 52.4792 30.4978 52.5295C30.6078 52.5798 30.7272 52.606 30.8481 52.6064H36.9433C37.1475 52.606 37.3446 52.5322 37.4988 52.3984C37.653 52.2646 37.7539 52.0798 37.7831 51.8777L41.8603 22.7039C41.8774 22.5841 41.8684 22.462 41.8342 22.3459C41.7999 22.2298 41.7411 22.1224 41.6617 22.031C41.5823 21.9396 41.4842 21.8664 41.374 21.8162C41.2639 21.766 41.1442 21.7401 41.0232 21.7402Z" fill="B9BBBE"/>
        <path d="M69.6337 21.7402H46.829C46.6262 21.7406 46.4303 21.8139 46.2771 21.9467C46.1239 22.0795 46.0236 22.263 45.9944 22.4637L45.196 27.9052C45.1786 28.0253 45.1872 28.1476 45.2213 28.2641C45.2554 28.3805 45.3141 28.4882 45.3936 28.5799C45.473 28.6716 45.5712 28.7451 45.6816 28.7954C45.792 28.8457 45.9119 28.8717 46.0332 28.8716H52.4152C52.536 28.8715 52.6554 28.8974 52.7654 28.9474C52.8753 28.9974 52.9733 29.0705 53.0526 29.1615C53.132 29.2526 53.1908 29.3597 53.2253 29.4755C53.2597 29.5913 53.269 29.7131 53.2523 29.8327L50.25 51.6375C50.2333 51.7572 50.2426 51.879 50.277 51.9948C50.3115 52.1106 50.3704 52.2176 50.4497 52.3087C50.529 52.3998 50.627 52.4728 50.737 52.5229C50.8469 52.5729 50.9663 52.5987 51.0871 52.5987H57.2624C57.4666 52.5981 57.6638 52.5238 57.8176 52.3895C57.9714 52.2551 58.0716 52.0698 58.0996 51.8675L61.164 29.6028C61.1909 29.4005 61.2903 29.2148 61.4438 29.0803C61.5974 28.9458 61.7945 28.8717 61.9985 28.8716H68.8482C69.0508 28.8718 69.2466 28.7991 69.3999 28.6667C69.5532 28.5343 69.6536 28.3511 69.6828 28.1507L70.4812 22.7014C70.498 22.5809 70.4885 22.4582 70.4534 22.3417C70.4184 22.2251 70.3586 22.1176 70.2781 22.0263C70.1976 21.935 70.0984 21.8622 69.9872 21.8128C69.8759 21.7635 69.7554 21.7387 69.6337 21.7402Z" fill="B9BBBE"/>
        <path d="M87.0538 21.7402H75.4525C75.2469 21.7404 75.0485 21.8156 74.8944 21.9516C74.7403 22.0877 74.6411 22.2752 74.6153 22.4791L70.5355 51.6426C70.5189 51.7624 70.5281 51.8843 70.5626 52.0002C70.597 52.1162 70.6558 52.2234 70.7351 52.3147C70.8144 52.4059 70.9124 52.4792 71.0223 52.5295C71.1323 52.5798 71.2517 52.606 71.3726 52.6064H77.5557C77.7599 52.6058 77.9571 52.5315 78.1109 52.3972C78.2647 52.2628 78.3648 52.0775 78.3929 51.8752L79.5917 43.1625C79.606 43.0614 79.6561 42.9687 79.7329 42.9014C79.8097 42.834 79.9082 42.7965 80.0103 42.7956H80.8061C80.8773 42.7958 80.9472 42.8139 81.0095 42.8482C81.0719 42.8825 81.1245 42.932 81.1627 42.992L87.0667 52.2162C87.1429 52.3356 87.248 52.4339 87.3721 52.5021C87.4963 52.5703 87.6356 52.6061 87.7772 52.6064H95.4124C95.5672 52.6066 95.7191 52.5643 95.8514 52.4841C95.9838 52.4038 96.0916 52.2888 96.1631 52.1515C96.2345 52.0142 96.2669 51.8599 96.2566 51.7055C96.2464 51.551 96.1939 51.4024 96.1049 51.2757L89.9037 42.421C89.8688 42.3709 89.845 42.3139 89.8342 42.2538C89.8233 42.1937 89.8256 42.132 89.8408 42.0728C89.856 42.0137 89.8838 41.9586 89.9223 41.9112C89.9608 41.8638 90.0091 41.8253 90.0639 41.7983C94.0197 39.8656 96.3167 37.8838 97.0738 32.3777C97.9523 25.1405 93.4177 21.7402 87.0538 21.7402ZM89.1906 32.5095C88.971 34.2949 87.5783 36.0829 85.1779 36.0829H81.5761C81.455 36.083 81.3354 36.0571 81.2252 36.0069C81.1151 35.9567 81.017 35.8835 80.9376 35.7921C80.8582 35.7007 80.7994 35.5933 80.7651 35.4772C80.7308 35.3611 80.7219 35.239 80.7389 35.1191L81.5012 29.7474C81.5298 29.5458 81.6303 29.3614 81.7841 29.228C81.9379 29.0946 82.1347 29.0212 82.3383 29.0214H86.1805C88.493 29.0214 89.4076 30.6336 89.1906 32.5095Z" fill="B9BBBE"/>
        <path d="M27.5693 3.26091H31.9617C32.885 3.23457 33.8033 3.40363 34.6567 3.757C35.333 4.04106 35.907 4.52406 36.3025 5.14192C36.6746 5.7512 36.8655 6.45383 36.8529 7.16763C36.8602 7.88519 36.662 8.58986 36.2819 9.1985C35.8572 9.84053 35.2509 10.3415 34.5404 10.6377C33.6228 11.0147 32.6352 11.1909 31.6439 11.1544H27.5693V3.26091ZM31.6129 9.15716C32.2112 9.19723 32.8017 9.00469 33.2614 8.61973C33.456 8.43102 33.6081 8.20294 33.7074 7.95074C33.8068 7.69853 33.8512 7.42802 33.8376 7.15729C33.8495 6.90546 33.8098 6.65385 33.7209 6.41792C33.6321 6.18198 33.4959 5.9667 33.3208 5.78529C32.9763 5.44078 32.4596 5.26853 31.7705 5.26853H30.3934V9.14424L31.6129 9.15716Z" fill="B9BBBE"/>
        <path d="M43.4623 11.1544C42.8841 11.0084 42.3311 10.7768 41.8216 10.4671V8.59121C42.2654 8.91689 42.7656 9.15778 43.2969 9.30176C43.8833 9.48066 44.4925 9.57378 45.1056 9.57823C45.3169 9.5913 45.5283 9.55504 45.7231 9.47229C45.8626 9.40253 45.9324 9.3121 45.9324 9.21391C45.9335 9.16171 45.9241 9.10983 45.9045 9.06141C45.885 9.01299 45.8558 8.96906 45.8187 8.93228C45.6893 8.83342 45.5376 8.76777 45.3769 8.74108L44.023 8.43619C43.2444 8.26393 42.6932 8.0133 42.3693 7.6843C42.2059 7.51943 42.0784 7.32252 41.9948 7.10596C41.9112 6.8894 41.8733 6.65789 41.8836 6.42598C41.8778 6.00491 42.031 5.59713 42.3125 5.28394C42.6464 4.93038 43.0681 4.67181 43.5346 4.53463C44.1331 4.34823 44.758 4.26095 45.3846 4.27625C45.9713 4.2696 46.5565 4.33732 47.1261 4.47779C47.5854 4.58619 48.0266 4.76024 48.4361 4.99455V6.76963C48.0517 6.54756 47.6388 6.37892 47.2088 6.26837C46.7429 6.14311 46.2624 6.08055 45.78 6.08233C45.0746 6.08233 44.7206 6.20119 44.7206 6.44407C44.7166 6.49854 44.7299 6.55289 44.7587 6.59931C44.7875 6.64573 44.8302 6.68184 44.8808 6.70245C45.0744 6.78544 45.2775 6.84445 45.4854 6.87815L46.6145 7.07968C47.2099 7.15059 47.7746 7.38289 48.2475 7.75148C48.435 7.93415 48.5807 8.15537 48.6744 8.39983C48.768 8.6443 48.8075 8.90618 48.7901 9.1674C48.7953 9.49431 48.7151 9.8169 48.5574 10.1033C48.3997 10.3897 48.17 10.63 47.8909 10.8004C47.2967 11.1983 46.4475 11.3972 45.3433 11.3972C44.7085 11.3969 44.0764 11.3153 43.4623 11.1544Z" fill="B9BBBE"/>
        <path d="M51.4592 10.9166C50.8547 10.639 50.3452 10.1897 49.9942 9.62467C49.6683 9.07079 49.5011 8.4379 49.511 7.79533C49.5046 7.15513 49.6841 6.52682 50.0278 5.98666C50.3903 5.42989 50.9089 4.99224 51.5186 4.72834C52.2584 4.40509 53.0602 4.2481 53.8673 4.26843C54.8534 4.23088 55.8295 4.47848 56.6785 4.98156V7.04861C56.3955 6.85714 56.0855 6.70909 55.7587 6.60936C55.3937 6.49309 55.0126 6.43553 54.6295 6.43883C54.0561 6.40636 53.4855 6.54004 52.9862 6.82382C52.8088 6.9235 52.6608 7.0683 52.5573 7.24356C52.4539 7.41882 52.3985 7.61832 52.397 7.82184C52.3954 8.02536 52.4476 8.22569 52.5484 8.40252C52.6491 8.57936 52.7948 8.72644 52.9707 8.82885C53.4781 9.11864 54.0593 9.25339 54.6424 9.21642C55.0176 9.21388 55.3903 9.15554 55.7483 9.04331C56.0773 8.94829 56.3932 8.8129 56.6888 8.64023V10.6427C55.8174 11.1547 54.821 11.415 53.8105 11.3946C53.0004 11.4184 52.1957 11.2548 51.4592 10.9166Z" fill="B9BBBE"/>
        <path d="M59.4845 10.9166C58.8733 10.6378 58.3549 10.1894 57.9911 9.62467C57.6476 9.07201 57.4684 8.43308 57.4743 7.78242C57.4653 7.14187 57.645 6.51285 57.9911 5.97375C58.3575 5.42428 58.8728 4.99051 59.4768 4.72318C60.9623 4.12116 62.624 4.12116 64.1095 4.72318C64.7126 4.9859 65.2274 5.4164 65.5926 5.96341C65.9365 6.50351 66.116 7.13186 66.1094 7.77208C66.1218 8.43206 65.9395 9.08105 65.5852 9.638C65.2309 10.195 64.7203 10.6352 64.1173 10.9037C63.3875 11.2169 62.6016 11.3784 61.8074 11.3784C61.0132 11.3784 60.2273 11.2169 59.4974 10.9037L59.4845 10.9166ZM62.9158 8.91413C63.0556 8.77027 63.1644 8.5993 63.2355 8.41176C63.3066 8.22423 63.3385 8.02411 63.3292 7.82376C63.3396 7.62485 63.3081 7.42598 63.2369 7.23996C63.1657 7.05394 63.0563 6.8849 62.9158 6.74372C62.7636 6.6054 62.5854 6.49876 62.3915 6.43C62.1977 6.36124 61.9921 6.33175 61.7867 6.34323C61.3721 6.32177 60.966 6.46582 60.6576 6.74372C60.5179 6.88541 60.4093 7.05459 60.3386 7.24053C60.2678 7.42647 60.2366 7.62508 60.2467 7.82376C60.2376 8.02387 60.2693 8.22376 60.3399 8.41122C60.4106 8.59868 60.5186 8.76979 60.6576 8.91413C60.8084 9.05515 60.9861 9.16424 61.1802 9.23484C61.3742 9.30544 61.5805 9.33609 61.7867 9.32495C61.993 9.33699 62.1995 9.30676 62.3937 9.23612C62.5878 9.16547 62.7655 9.0559 62.9158 8.91413Z" fill="B9BBBE"/>
        <path d="M72.8867 4.67944V7.12372C72.5492 6.92262 72.1605 6.82388 71.7679 6.8395C71.5101 6.8239 71.2519 6.8651 71.0117 6.9602C70.7715 7.0553 70.5551 7.20197 70.3778 7.38986C70.0557 7.75503 69.8947 8.32089 69.8947 9.08742V11.1545H67.1274V4.558H69.8378V6.65605C69.9225 6.03465 70.1743 5.44791 70.5665 4.95849C70.729 4.77855 70.9287 4.63612 71.1518 4.54109C71.3749 4.44605 71.616 4.40069 71.8584 4.40814C72.22 4.39849 72.5769 4.49264 72.8867 4.67944Z" fill="B9BBBE"/>
        <path d="M82.0799 3.03333V11.1672H79.3127V9.68147C79.106 10.2084 78.7344 10.6544 78.2533 10.9527C77.7181 11.2577 77.1094 11.4096 76.4937 11.392C75.9144 11.4056 75.3441 11.2464 74.8556 10.9346C74.3826 10.6272 74.0057 10.1929 73.7678 9.68147C73.5083 9.1144 73.3794 8.49632 73.3906 7.8728C73.3722 7.22782 73.5096 6.58792 73.7911 6.00729C74.0488 5.47549 74.452 5.02758 74.9538 4.71539C75.47 4.40315 76.0635 4.24201 76.6668 4.2503C77.9829 4.2503 78.8674 4.82305 79.3204 5.96853V3.03333H82.0799ZM78.907 8.87532C79.0479 8.73613 79.1584 8.56916 79.2313 8.38501C79.3042 8.20086 79.3381 8.00356 79.3307 7.80562C79.3377 7.61312 79.3035 7.42135 79.2304 7.24313C79.1574 7.0649 79.0471 6.90431 78.907 6.7721C78.5903 6.51399 78.1942 6.37304 77.7856 6.37304C77.377 6.37304 76.981 6.51399 76.6643 6.7721C76.5268 6.90605 76.4186 7.06707 76.3466 7.24496C76.2745 7.42286 76.2402 7.61377 76.2457 7.80562C76.2391 8.00116 76.2733 8.19592 76.3463 8.37744C76.4193 8.55897 76.5293 8.72327 76.6694 8.85982C76.8179 8.99772 76.9925 9.10463 77.1828 9.17428C77.3731 9.24394 77.5754 9.27494 77.7779 9.26548C77.9825 9.27835 78.1877 9.2505 78.3815 9.18353C78.5753 9.11656 78.7539 9.0118 78.907 8.87532Z" fill="B9BBBE"/>
        <path d="M17.3786 1.29191C16.0285 0.678414 14.6039 0.244097 13.1412 0C12.9397 0.357272 12.7586 0.725619 12.5986 1.10329C11.0416 0.868142 9.45817 0.868142 7.90121 1.10329C7.7429 0.725734 7.56347 0.357389 7.36377 0C5.90157 0.24956 4.47801 0.688178 3.12891 1.30482C0.449495 5.26839 -0.276555 9.13377 0.0877619 12.9423C1.6559 14.1023 3.41175 14.9842 5.27864 15.5494C5.69771 14.9833 6.06932 14.3835 6.38968 13.7562C5.78264 13.5283 5.19651 13.2482 4.63785 12.9191C4.78513 12.8105 4.92982 12.702 5.06677 12.5961C6.6904 13.3592 8.46234 13.7548 10.2564 13.7548C12.0504 13.7548 13.8223 13.3592 15.4459 12.5961C15.588 12.7098 15.7302 12.8183 15.8748 12.9191C15.3162 13.2481 14.73 13.5282 14.123 13.7562C14.4421 14.3834 14.8138 14.9824 15.2341 15.5468C17.1019 14.9844 18.8587 14.1042 20.4275 12.9449C20.8539 8.52658 19.7015 4.69737 17.3786 1.29191ZM6.8496 10.5936C5.83674 10.5936 5.00217 9.67637 5.00217 8.54725C5.00217 7.41812 5.80832 6.4802 6.84701 6.4802C7.8857 6.4802 8.71252 7.40779 8.69444 8.54725C8.67635 9.68671 7.88054 10.5936 6.8496 10.5936ZM13.6579 10.5936C12.6451 10.5936 11.8105 9.67637 11.8105 8.54725C11.8105 7.41812 12.6192 6.4802 13.6579 6.4802C14.6966 6.4802 15.5209 7.40779 15.5028 8.54725C15.4847 9.68671 14.6915 10.5936 13.6579 10.5936Z" fill="B9BBBE"/>
        <path d="M39.199 5.26317C39.961 5.26317 40.5788 4.7079 40.5788 4.02294C40.5788 3.33798 39.961 2.78271 39.199 2.78271C38.437 2.78271 37.8193 3.33798 37.8193 4.02294C37.8193 4.7079 38.437 5.26317 39.199 5.26317Z" fill="B9BBBE"/>
        <path d="M37.8167 6.11597C38.2538 6.30009 38.7234 6.39494 39.1977 6.39494C39.6721 6.39494 40.1416 6.30009 40.5788 6.11597V11.2009H37.8167V6.11597Z" fill="B9BBBE"/>
        <path d="M8.99166 63.8642C8.952 63.8946 8.91988 63.9337 8.89777 63.9785C8.87566 64.0233 8.86416 64.0726 8.86416 64.1226C8.86416 64.1725 8.87566 64.2218 8.89777 64.2666C8.91988 64.3114 8.952 64.3505 8.99166 64.3809C10.1595 65.2724 10.1182 66.6521 9.84948 67.5048C9.25521 69.4969 7.75401 70.7035 5.01001 70.7035H0.32814C0.281187 70.7032 0.23484 70.6929 0.192182 70.6733C0.149524 70.6537 0.111532 70.6252 0.0807337 70.5897C0.0499357 70.5543 0.0270374 70.5127 0.0135619 70.4677C8.64686e-05 70.4227 -0.0036572 70.3754 0.00257994 70.3289L1.64072 58.6113C1.65193 58.533 1.69104 58.4614 1.75086 58.4096C1.81068 58.3579 1.88718 58.3295 1.96628 58.3297H6.64297C9.00458 58.3297 10.5419 59.7456 10.1389 62.1046C9.97426 62.8073 9.56827 63.43 8.99166 63.8642ZM5.29939 67.9543C7.18557 67.9543 7.5008 65.4196 5.64821 65.4196H4.11601C4.03667 65.4201 3.96015 65.449 3.90038 65.5012C3.84062 65.5534 3.8016 65.6253 3.79045 65.7038L3.53207 67.5797C3.52583 67.6262 3.52957 67.6736 3.54305 67.7185C3.55652 67.7635 3.57942 67.8051 3.61022 67.8406C3.64102 67.876 3.67901 67.9045 3.72167 67.9241C3.76433 67.9437 3.81067 67.954 3.85763 67.9543H5.29939ZM5.96343 63.164C7.48271 63.164 7.84961 60.9626 6.27607 60.9626H4.74387C4.66492 60.9629 4.58871 60.9915 4.529 61.0432C4.46929 61.0948 4.43003 61.1661 4.41831 61.2442L4.19869 62.7945C4.19202 62.8411 4.19545 62.8886 4.20876 62.9337C4.22207 62.9789 4.24494 63.0207 4.27583 63.0562C4.30671 63.0918 4.34488 63.1202 4.38775 63.1397C4.43061 63.1592 4.47717 63.1692 4.52425 63.1691L5.96343 63.164Z" fill="B9BBBE"/>
        <path d="M21.04 70.7085H18.3632C18.288 70.7086 18.215 70.683 18.1563 70.636C18.0976 70.5891 18.0566 70.5235 18.0402 70.4501L17.6707 68.5045C17.6547 68.4309 17.6138 68.3651 17.555 68.318C17.4962 68.271 17.423 68.2456 17.3477 68.2461H14.5314C14.4677 68.2463 14.4055 68.2649 14.3523 68.2998C14.2991 68.3347 14.2572 68.3842 14.2316 68.4425L13.3015 70.5328C13.2762 70.5913 13.2343 70.641 13.1811 70.6759C13.1278 70.7108 13.0654 70.7293 13.0017 70.7292H10.3869C10.3312 70.7292 10.2764 70.715 10.2276 70.6879C10.1789 70.6609 10.1378 70.6218 10.1084 70.5745C10.0789 70.5272 10.062 70.4732 10.0592 70.4175C10.0564 70.3618 10.0678 70.3064 10.0924 70.2563L15.8181 58.5388C15.8447 58.4833 15.8865 58.4366 15.9386 58.4041C15.9908 58.3716 16.0512 58.3547 16.1127 58.3553H18.4923C18.5673 58.3549 18.6402 58.3804 18.6986 58.4274C18.7569 58.4745 18.7973 58.5403 18.8127 58.6137L21.3604 70.3313C21.3674 70.3776 21.3644 70.425 21.3516 70.4701C21.3387 70.5152 21.3164 70.5571 21.286 70.5928C21.2557 70.6286 21.218 70.6574 21.1756 70.6773C21.1331 70.6973 21.0869 70.7079 21.04 70.7085ZM16.9059 65.4479C16.9517 65.4477 16.9971 65.438 17.0389 65.4193C17.0808 65.4006 17.1183 65.3733 17.1489 65.3392C17.1796 65.3052 17.2028 65.265 17.217 65.2214C17.2312 65.1778 17.2361 65.1317 17.2314 65.0861L16.9007 61.8305H16.7793L15.583 65.0034C15.5641 65.0532 15.5577 65.1067 15.5641 65.1595C15.5706 65.2123 15.5897 65.2627 15.62 65.3064C15.6502 65.3501 15.6907 65.3859 15.7378 65.4105C15.7849 65.4351 15.8373 65.448 15.8904 65.4479H16.9059Z" fill="B9BBBE"/>
        <path d="M23.9726 67.0033C24.0374 66.9498 24.1204 66.9234 24.2041 66.9296C24.2879 66.9359 24.3661 66.9743 24.4222 67.0369C24.7235 67.3405 25.0828 67.5805 25.4788 67.7425C25.8747 67.9045 26.2992 67.9853 26.7269 67.9799C27.5641 67.9799 28.3005 67.6828 28.4219 67.0369C28.5614 66.2617 27.4788 65.9361 26.4815 65.7966C24.541 65.4814 22.7944 63.9259 23.231 61.585C23.7039 59.0503 25.9389 58.1589 28.2126 58.1589C29.6182 58.1589 30.9334 58.5258 31.9695 59.8487C31.9978 59.8841 32.0184 59.9249 32.0303 59.9686C32.0421 60.0123 32.0449 60.058 32.0383 60.1028C32.0318 60.1476 32.0161 60.1906 31.9923 60.2291C31.9684 60.2677 31.9369 60.3009 31.8997 60.3267L30.135 61.5488C30.0742 61.5913 30.0009 61.6121 29.9268 61.6079C29.8528 61.6036 29.7823 61.5747 29.7267 61.5256C29.2011 61.0777 28.5362 60.8265 27.8457 60.815C27.0706 60.7995 26.3936 61.0941 26.3239 61.7245C26.236 62.4402 26.8665 62.7581 27.8096 62.9648C29.9593 63.3678 32.0573 64.1895 31.4811 67.2642C31.0264 69.6775 28.9283 70.8816 26.2541 70.8816C24.8588 70.8816 23.1535 70.2201 22.1717 68.9075C22.12 68.8397 22.0965 68.7545 22.1062 68.6698C22.1158 68.585 22.1578 68.5073 22.2234 68.4528L23.9726 67.0033Z" fill="B9BBBE"/>
        <path d="M35.53 70.7084H33.0624C33.0156 70.7082 32.9693 70.6979 32.9268 70.6782C32.8842 70.6586 32.8464 70.63 32.8157 70.5945C32.7851 70.559 32.7625 70.5174 32.7493 70.4724C32.7362 70.4274 32.7328 70.3802 32.7395 70.3338L34.3776 58.6162C34.3883 58.5377 34.4272 58.4657 34.4872 58.4139C34.5471 58.362 34.6239 58.3338 34.7032 58.3345H37.1707C37.2174 58.3344 37.2637 58.3444 37.3062 58.3638C37.3488 58.3831 37.3867 58.4114 37.4173 58.4467C37.4479 58.482 37.4706 58.5235 37.4838 58.5683C37.497 58.6132 37.5003 58.6603 37.4937 58.7066L35.8555 70.4242C35.8454 70.5032 35.8067 70.5757 35.7467 70.6281C35.6867 70.6805 35.6096 70.7091 35.53 70.7084Z" fill="B9BBBE"/>
        <path d="M47.1726 67.9308C47.2164 67.9527 47.2548 67.984 47.285 68.0224C47.3153 68.0609 47.3366 68.1056 47.3475 68.1533C47.3583 68.201 47.3585 68.2505 47.3479 68.2983C47.3374 68.346 47.3163 68.3909 47.2863 68.4295C45.8187 70.3338 44.1392 70.8816 42.6665 70.8816C40.2351 70.8816 38.0001 69.4656 38.3825 66.6519L38.9768 62.3886C39.3618 59.5929 42.0179 58.1589 44.501 58.1589C45.9453 58.1589 47.6016 58.7428 48.3405 60.691C48.3728 60.7729 48.3713 60.8643 48.3365 60.9451C48.3016 61.026 48.2362 61.0897 48.1545 61.1225L46.0306 61.9338C45.9591 61.9606 45.8804 61.9615 45.8083 61.9365C45.7361 61.9115 45.6749 61.8621 45.6353 61.7969C45.2968 61.2801 44.6534 61.0424 44.0101 61.0424C43.1186 61.0605 42.2298 61.5592 42.1058 62.3886L41.5115 66.6622C41.3901 67.4683 42.1575 67.9748 43.0334 67.9748C43.3809 67.9799 43.7246 67.9024 44.0363 67.7488C44.3481 67.5952 44.6189 67.3698 44.8265 67.0911C44.8714 67.0277 44.9373 66.9822 45.0125 66.9628C45.0878 66.9434 45.1674 66.9513 45.2374 66.9852L47.1726 67.9308Z" fill="B9BBBE"/>
    </g>
</svg>