<svg xmlns="http://www.w3.org/2000/svg" viewBox="0 0 24 24" comment="discasset/1.2">
    
    <path fill="B9BBBE" className="undefined" fillRule="evenodd" clipRule="evenodd" d="M21 2H3C1.897 2 1 2.898 1 4V6H23V4C23 2.898 22.103 2 21 2ZM13 12H15V14H13V12ZM11 12H13V10H15V12H17V14H15V16H13V14H11V12ZM9 12H11V10H9V12ZM9 14V12H7V10H5V12H7V14H5V16H7V18H9V16H11V18H13V16H11V14H9ZM9 14V16H7V14H9ZM17 16V14H19V16H17ZM17 16H15V18H17V16ZM17 12H19V10H17V12ZM3 22C1.897 22 1 21.103 1 20V7H23V20C23 21.103 22.103 22 21 22H3Z"/>
</svg>