<svg xmlns="http://www.w3.org/2000/svg" viewBox="0 0 24 24" comment="discasset/1.2">
    
    <path className="undefined" fill="B9BBBE" d="M20.9831 5.69739L18.1921 20.4327C18.1749 20.5229 18.14 20.6087 18.0893 20.6854C18.0387 20.7621 17.9733 20.8281 17.8969 20.8797C17.8205 20.9312 17.7346 20.9672 17.6442 20.9857C17.5537 21.0042 17.4605 21.0048 17.3699 20.9874L15.3558 20.6126C15.999 20.3579 16.5344 19.8912 16.8723 19.2907C17.2101 18.6902 17.3299 17.9926 17.2115 17.3148L15.2577 6.21455C15.1662 5.73498 14.9086 5.30234 14.5298 4.9916C14.1509 4.68086 13.6746 4.51161 13.1833 4.51316C13.0654 4.50173 12.9467 4.50173 12.8288 4.51316L10 5.00034L10.2414 3.70369C10.2596 3.59341 10.2997 3.48785 10.3595 3.3932C10.4193 3.29855 10.4975 3.21671 10.5896 3.15249C10.6816 3.08826 10.7856 3.04294 10.8955 3.01919C11.0054 2.99543 11.119 2.99372 11.2296 3.01415L20.2816 4.70054C20.3948 4.71757 20.5034 4.75728 20.6006 4.81727C20.6979 4.87725 20.7819 4.95626 20.8475 5.04949C20.9131 5.14272 20.959 5.24822 20.9823 5.3596C21.0056 5.47097 21.0059 5.5859 20.9831 5.69739Z"/>
    <path className="undefined" fill="B9BBBE" undefined="evenodd" d="M14.5863 19.5074L6.01841 20.9836C5.91748 21.0049 5.81318 21.0055 5.71202 20.9853C5.61085 20.9652 5.515 20.9248 5.43044 20.8666C5.34588 20.8084 5.27443 20.7337 5.22056 20.6472C5.16668 20.5606 5.13154 20.4641 5.11731 20.3636L3.01476 8.51689C2.99433 8.41712 2.99512 8.31427 3.01707 8.21481C3.03902 8.11535 3.08165 8.02143 3.1423 7.93894C3.20294 7.85646 3.28029 7.78719 3.36947 7.73549C3.45866 7.68379 3.55776 7.65078 3.66054 7.63854L13.1446 6.01469C13.2455 5.99459 13.3496 5.99512 13.4503 6.01625C13.551 6.03737 13.6463 6.07864 13.7301 6.13749C13.8139 6.19633 13.8845 6.27149 13.9375 6.3583C13.9905 6.44511 14.0248 6.5417 14.0382 6.64208L15.9755 17.5735C16.0518 18.011 15.9483 18.4603 15.6879 18.8229C15.4274 19.1855 15.0312 19.4316 14.5863 19.5074ZM13.9347 16.8675L6.61124 18.1404C6.50126 18.1595 6.4276 18.2642 6.44672 18.3741L6.57619 19.119C6.5953 19.229 6.69995 19.3027 6.80993 19.2836L14.1334 18.0107C14.2434 17.9916 14.317 17.8869 14.2979 17.7769L14.1685 17.032C14.1493 16.9221 14.0447 16.8484 13.9347 16.8675ZM7.08982 9.96301C7.59159 9.48655 8.22337 9.16951 8.9053 9.05195C9.35881 8.97286 9.82347 8.98417 10.2726 9.08524C10.7217 9.1863 11.1464 9.37513 11.5223 9.64087C11.8982 9.9066 12.2178 10.244 12.4628 10.6337C12.7079 11.0233 12.8734 11.4576 12.9501 11.9114C13.0665 12.5935 12.9782 13.2947 12.6962 13.9265C12.4142 14.5584 11.9513 15.0925 11.3658 15.4613C10.7803 15.8301 10.0986 16.0172 9.40689 15.9988C8.71514 15.9804 8.04437 15.7573 7.47934 15.3579C6.91432 14.9584 6.48041 14.4005 6.23243 13.7545C5.98446 13.1086 5.93356 12.4037 6.08617 11.7288C6.23878 11.0539 6.58804 10.4395 7.08982 9.96301ZM7.75161 14.7052C8.28346 15.1316 8.95298 15.3487 9.6339 15.3156L9.51815 14.6348C9.34234 14.6625 9.16265 14.6203 9.01757 14.5173C8.87248 14.4142 8.77352 14.2584 8.74188 14.0833L8.6806 13.7361L6.74675 12.3744C6.7198 12.5823 6.7198 12.7928 6.74675 13.0008C6.86233 13.6725 7.21976 14.2788 7.75161 14.7052ZM11.557 13.7116C11.6786 13.7773 11.7774 13.8784 11.8401 14.0016C12.0805 13.6273 12.2282 13.201 12.2709 12.7583C12.3136 12.3155 12.2501 11.8689 12.0856 11.4555C11.9212 11.0422 11.6606 10.674 11.3254 10.3815C10.9902 10.089 10.5901 9.88062 10.1582 9.77363V9.91661C10.1768 10.0071 10.1768 10.1005 10.1581 10.191C10.1395 10.2815 10.1026 10.3673 10.0497 10.4431C9.99685 10.5189 9.92909 10.5831 9.85057 10.6319C9.77206 10.6807 9.68444 10.713 9.59305 10.7268L8.91211 10.8493L9.03468 11.5302C9.04248 11.5753 9.04125 11.6216 9.03107 11.6663C9.0209 11.711 9.00197 11.7532 8.97538 11.7906C8.94879 11.8279 8.91507 11.8596 8.87616 11.8839C8.83726 11.9081 8.79393 11.9244 8.74869 11.9319L8.06776 12.0544L8.18352 12.7352L10.2263 12.3744C10.3184 12.3585 10.413 12.3797 10.4895 12.4333C10.566 12.4868 10.6183 12.5684 10.6349 12.6604L10.8119 13.6952L11.1592 13.6339C11.2966 13.6189 11.4353 13.646 11.557 13.7116Z"/>
</svg>