<svg xmlns="http://www.w3.org/2000/svg" viewBox="0 0 28 28" comment="discasset/1.2">
    
    <path d="M17.7733 19.6533L13.0534 14.9466C12.9299 14.822 12.832 14.6743 12.7657 14.5119C12.6993 14.3494 12.6657 14.1755 12.6667 14V6H15.3334V13.4533L19.6534 17.7733L17.7733 19.6533Z" fill="B9BBBE"/>
    <path d="M18.4134 3.33341L24.6667 9.58675V18.4135L18.4134 24.6667H9.58661L3.33335 18.4135V9.58675L9.58661 3.33341H18.4134ZM18.9733 0.666748H9.02671C8.67369 0.671659 8.33561 0.80974 8.0801 1.05339L1.05341 8.08008C0.809761 8.33559 0.671598 8.67375 0.666687 9.02677V18.9734C0.671598 19.3264 0.809761 19.6645 1.05341 19.92L8.0801 26.9467C8.33561 27.1903 8.67369 27.3285 9.02671 27.3334H18.9733C19.3264 27.3285 19.6644 27.1903 19.9199 26.9467L26.9466 19.92C27.1903 19.6645 27.3284 19.3264 27.3334 18.9734V9.02677C27.3284 8.67375 27.1903 8.33559 26.9466 8.08008L19.9199 1.05339C19.6644 0.80974 19.3264 0.671659 18.9733 0.666748Z" fill="B9BBBE"/>
</svg>