<svg xmlns="http://www.w3.org/2000/svg" viewBox="0 0 14 14" comment="discasset/1.2">
    
    <path d="M6.97.03 5.893 4.024l.7 1.254-.175.73-.7-.234-.759-1.225L.962 3.47c-.029 0-.058.03-.029.06L3.88 6.445l1.43.03.553.495-.554.496-1.429.029-2.946 2.917c-.029.029 0 .058.03.058l3.995-1.08.759-1.224.7-.234.145.73-.7 1.254 1.08 3.996c0 .029.058.029.058 0l1.08-3.996-.7-1.254.145-.73.7.234.758 1.225 3.996 1.079c.03 0 .058-.03.03-.058l-2.947-2.917-1.429-.03L8.137 7l.555-.496 1.429-.029 2.946-2.917c.029-.029 0-.058-.03-.058L9.042 4.58l-.759 1.224-.7.204-.146-.729.7-1.254L7.03.03c0-.029-.058-.029-.058 0Z" fill="B9BBBE" className="undefined"/>
</svg>