<svg xmlns="http://www.w3.org/2000/svg" viewBox="0 0 40 40" comment="discasset/1.2">
    
    <path fillRule="evenodd" clipRule="evenodd" d="M37.581 26.6667L40 29.0857L35.7524 33.3333L40 37.581L37.581 40L33.3334 35.7524L29.0857 40L26.6667 37.581L30.9143 33.3333L26.6667 29.0857L29.0857 26.6667L33.3334 30.9143L37.581 26.6667Z" fill="B9BBBE"/>
    <path fillRule="evenodd" clipRule="evenodd" d="M23.3294 21.5042C22.1286 22.3692 21.1773 23.5589 20.6041 24.9448C20.4081 24.981 20.2062 25 20 25C18.1667 25 16.6667 23.5 16.6667 21.6667C16.6667 19.8333 18.1667 18.3333 20 18.3333C21.7789 18.3333 23.244 19.7456 23.3294 21.5042ZM28.1664 20C27.3936 16.1977 24.0293 13.3333 20 13.3333C15.4 13.3333 11.6667 17.0667 11.6667 21.6667C11.6667 23.1833 12.1 24.5833 12.8167 25.8167L10.6334 27.0833C9.70002 25.4833 9.16669 23.6333 9.16669 21.6667C9.16669 15.7 14.0334 10.8333 20 10.8333C25.4001 10.8333 29.8992 14.8197 30.7049 20H28.1664ZM35.7468 20C34.915 12.0346 28.1871 5.83333 20 5.83333C11.25 5.83333 4.16669 12.9167 4.16669 21.6667C4.16669 24.55 4.95002 27.25 6.28335 29.5667L4.13335 30.8167C2.58335 28.1333 1.66669 25 1.66669 21.6667C1.66669 11.55 9.88335 3.33333 20 3.33333C29.5549 3.33333 37.415 10.6628 38.2584 20H35.7468ZM20.0154 27.5C20.0052 27.6654 20 27.8321 20 28V33.3333H14.1667V32.5C14.1667 29.6667 16.5667 27.5 20 27.5C20.0051 27.5 20.0103 27.5 20.0154 27.5Z" fill="B9BBBE"/>
</svg>