<svg xmlns="http://www.w3.org/2000/svg" viewBox="0 0 18 18" comment="discasset/1.2">
    <g>
        <path d="M9,3 L9,0.75 L6,3.75 L9,6.75 L9,4.5 C11.4825,4.5 13.5,6.5175 13.5,9 C13.5,9.7575 13.3125,10.4775 12.975,11.1 L14.07,12.195 C14.655,11.2725 15,10.1775 15,9 C15,5.685 12.315,3 9,3 Z M9,13.5 C6.5175,13.5 4.5,11.4825 4.5,9 C4.5,8.2425 4.6875,7.5225 5.025,6.9 L3.93,5.805 C3.345,6.7275 3,7.8225 3,9 C3,12.315 5.685,15 9,15 L9,17.25 L12,14.25 L9,11.25 L9,13.5 Z" fill="B9BBBE" className="undefined" fillRule="nonzero"/>
    </g>
</svg>