<svg xmlns="http://www.w3.org/2000/svg" viewBox="0 0 30 20" comment="discasset/1.2">
    <path className="undefined" d="M0 12h30v4a4 4 0 01-4 4H4a4 4 0 01-4-4v-4z" fill="B9BBBE"/>
    <rect className="undefined" width="30" height="16" rx="4" fill="B9BBBE"/>
    <path className="undefined" d="M11.1 5.5L11 3.7H4.3v1.8h2.3V12h2.1V5.5h2.4zm5.4 6.6l2.1-.4-2.9-8h-2.2l-3 8.3h2l.6-1.7h2.8l.6 1.8zm-2-6.3l1 2.9h-2l1-2.9zm11 3.8c0-1.1-.6-1.7-1.5-2 .6-.3 1.2-.8 1.2-1.7 0-1.4-1-2.2-2.8-2.2h-2.9V12h2.8c2 0 3.2-.8 3.2-2.4zm-2.2-3.5c0 .6-.4 1-1.1 1h-.7V5.2h.7c.8 0 1.1.3 1.1.9zm.2 3.4c0 .7-.4 1-1.3 1h-.7V8.4h.7c.9 0 1.3.4 1.3 1z" fill="B9BBBE"/>
</svg>