<svg xmlns="http://www.w3.org/2000/svg" viewBox="0 0 20 20" comment="discasset/1.2">
    
    <path className="undefined" fill="B9BBBE" undefined="evenodd" d="M17.2443 7.34033C17.2514 7.34775 17.2584 7.35518 17.2655 7.36264C18.4194 8.58146 19.0625 10.1961 19.0625 11.8745V17.0308C19.0625 17.4037 18.9144 17.7614 18.6506 18.0251C18.3869 18.2888 18.0292 18.437 17.6563 18.437H12.5C11.1428 18.437 9.81898 18.0163 8.71072 17.233C7.7871 16.5801 7.05103 15.702 6.56929 14.687H2.34375C1.97079 14.687 1.61311 14.5389 1.34938 14.2751C1.08566 14.0114 0.9375 13.6537 0.9375 13.2808V8.1245C0.9375 6.38402 1.6289 4.71482 2.85961 3.48412C4.09032 2.25341 5.75951 1.56201 7.49999 1.56201C8.7002 1.56201 9.86652 1.89079 10.8785 2.49848C10.486 2.98772 10.206 3.57121 10.0781 4.20962C9.31841 3.70938 8.42324 3.43701 7.49999 3.43701C6.25679 3.43701 5.06451 3.93087 4.18544 4.80994C3.30636 5.68902 2.8125 6.8813 2.8125 8.1245V12.812H7.18764H7.20268H7.50001C8.74321 12.812 9.93549 12.3182 10.8146 11.4391C11.5912 10.6624 12.0672 9.64126 12.1676 8.55652C12.7165 8.83995 13.3396 9 14 9C14.0013 9 14.0026 9 14.0039 9C13.8131 10.4172 13.1629 11.7424 12.1404 12.7649C11.1896 13.7157 9.97697 14.3447 8.672 14.5815C8.97763 15.0134 9.35592 15.3929 9.79299 15.7019C10.5847 16.2615 11.5305 16.562 12.5 16.562H17.1875V11.8745C17.1875 10.6756 16.7281 9.52231 15.9039 8.65171C15.8758 8.62198 15.8472 8.59265 15.8184 8.56374C16.3853 8.27387 16.874 7.8527 17.2443 7.34033Z"/>
    <path className="undefined" fill="B9BBBE" undefined="evenodd" d="M16.7004 5.44868C16.8489 5.30849 17 5.16588 17 4.99966C17 4.83742 16.8527 4.70216 16.7052 4.5668C16.5834 4.455 16.4615 4.34313 16.4225 4.21591C16.3841 4.09076 16.4141 3.9307 16.4439 3.7711C16.4811 3.57204 16.5182 3.3737 16.4225 3.24466C16.3273 3.11629 16.1268 3.08966 15.9273 3.06316C15.7654 3.04166 15.6041 3.02024 15.5 2.94466C15.3963 2.86943 15.3247 2.72041 15.2533 2.5717C15.1645 2.38685 15.0759 2.20248 14.9262 2.16091C14.7806 2.12046 14.6099 2.21094 14.4364 2.30287C14.2883 2.38137 14.1382 2.46091 14 2.46091C13.8652 2.46091 13.7214 2.38145 13.5783 2.30242C13.4029 2.20553 13.2287 2.10928 13.0738 2.16091C12.9172 2.2131 12.8304 2.39423 12.7434 2.57565C12.6741 2.72016 12.6048 2.86485 12.5 2.94466C12.3905 3.02806 12.2183 3.05108 12.0486 3.07378C11.8519 3.10007 11.6586 3.12592 11.57 3.24466C11.4794 3.36619 11.5155 3.56693 11.5515 3.76731C11.581 3.93173 11.6106 4.09591 11.57 4.21591C11.5305 4.33278 11.4159 4.44098 11.2996 4.55065C11.1511 4.69084 11 4.83345 11 4.99966C11 5.16191 11.1473 5.29716 11.2948 5.43253C11.4166 5.54432 11.5385 5.6562 11.5775 5.78341C11.6159 5.90857 11.5859 6.06863 11.5561 6.22823C11.5189 6.42728 11.4818 6.62563 11.5775 6.75466C11.6727 6.88304 11.8732 6.90967 12.0727 6.93617C12.2346 6.95767 12.3959 6.97909 12.5 7.05466C12.6035 7.1298 12.6758 7.27855 12.748 7.42708C12.838 7.61212 12.9277 7.79681 13.0775 7.83841C13.2231 7.87887 13.3939 7.78839 13.5674 7.69645C13.7155 7.61796 13.8656 7.53841 14.0038 7.53841C14.1385 7.53841 14.2824 7.61787 14.4254 7.6969C14.6008 7.7938 14.7751 7.89005 14.93 7.83841C15.0863 7.78632 15.1754 7.60222 15.2636 7.41996C15.3342 7.27421 15.4042 7.12964 15.5075 7.05466C15.6129 6.97819 15.7783 6.95486 15.9431 6.93161C16.1419 6.90357 16.3398 6.87565 16.43 6.75466C16.5206 6.63313 16.4845 6.4324 16.4485 6.23202C16.419 6.0676 16.3894 5.90341 16.43 5.78341C16.4695 5.66655 16.5841 5.55835 16.7004 5.44868ZM12.5 5.37464L13.775 6.33839L15.4775 4.03589L14.9675 3.66089L13.625 5.44589L12.875 4.87214L12.5 5.37464Z"/>
</svg>