<svg xmlns="http://www.w3.org/2000/svg" viewBox="0 0 24 24" comment="discasset/1.2">
    
    <path className="undefined" fill="B9BBBE" undefined="evenodd" d="M4.85 8.26427L15.84 5.84424V10.5598C15.84 11.6202 16.6996 12.4798 17.76 12.4798H21V19.0586H19.1V17.9301L12.7065 16.524L10.36 19.6233C10.1776 19.8633 9.89545 19.9998 9.6 19.9998C9.524 19.9998 9.4461 19.9904 9.3701 19.9725L5.5701 19.0313C5.1464 18.925 4.85 18.5494 4.85 18.1174V8.26427ZM9.2181 17.9941L6.75 17.3824V15.2111L10.6706 16.0751L9.2181 17.9941Z"/>
    <path className="undefined" fill="B9BBBE" d="M3.9 8.2598H2V15.2939H3.9V8.2598Z"/>
    <path className="undefined" fill="B9BBBE" undefined="evenodd" d="M22.7004 8.44868C22.8489 8.30849 23 8.16588 23 7.99966C23 7.83742 22.8527 7.70216 22.7052 7.5668C22.5834 7.455 22.4615 7.34313 22.4225 7.21591C22.3841 7.09076 22.4141 6.9307 22.4439 6.7711C22.4811 6.57204 22.5182 6.3737 22.4225 6.24466C22.3273 6.11629 22.1268 6.08966 21.9273 6.06316C21.7654 6.04166 21.6041 6.02024 21.5 5.94466C21.3963 5.86943 21.3247 5.72041 21.2533 5.5717C21.1645 5.38685 21.0759 5.20248 20.9262 5.16091C20.7806 5.12046 20.6099 5.21094 20.4364 5.30287C20.2883 5.38137 20.1382 5.46091 20 5.46091C19.8652 5.46091 19.7214 5.38145 19.5783 5.30242C19.4029 5.20553 19.2287 5.10928 19.0738 5.16091C18.9172 5.2131 18.8304 5.39423 18.7434 5.57565C18.6741 5.72016 18.6048 5.86485 18.5 5.94466C18.3905 6.02806 18.2183 6.05108 18.0486 6.07378C17.8519 6.10007 17.6586 6.12592 17.57 6.24466C17.4794 6.36619 17.5155 6.56693 17.5515 6.76731C17.581 6.93173 17.6106 7.09591 17.57 7.21591C17.5305 7.33278 17.4159 7.44098 17.2996 7.55065C17.1511 7.69084 17 7.83345 17 7.99966C17 8.16191 17.1473 8.29716 17.2948 8.43253C17.4166 8.54432 17.5385 8.6562 17.5775 8.78341C17.6159 8.90857 17.5859 9.06863 17.5561 9.22823C17.5189 9.42728 17.4818 9.62563 17.5775 9.75466C17.6727 9.88304 17.8732 9.90967 18.0727 9.93617C18.2346 9.95767 18.3959 9.97909 18.5 10.0547C18.6035 10.1298 18.6758 10.2786 18.748 10.4271C18.838 10.6121 18.9277 10.7968 19.0775 10.8384C19.2231 10.8789 19.3939 10.7884 19.5674 10.6965C19.7155 10.618 19.8656 10.5384 20.0038 10.5384C20.1385 10.5384 20.2824 10.6179 20.4254 10.6969C20.6008 10.7938 20.7751 10.89 20.93 10.8384C21.0863 10.7863 21.1754 10.6022 21.2636 10.42C21.3342 10.2742 21.4042 10.1296 21.5075 10.0547C21.6129 9.97819 21.7783 9.95486 21.9431 9.93161C22.1419 9.90357 22.3398 9.87565 22.43 9.75466C22.5206 9.63313 22.4845 9.4324 22.4485 9.23202C22.419 9.0676 22.3894 8.90341 22.43 8.78341C22.4695 8.66655 22.5841 8.55835 22.7004 8.44868ZM18.5 8.37464L19.775 9.33839L21.4775 7.03589L20.9675 6.66089L19.625 8.44589L18.875 7.87214L18.5 8.37464Z"/>
</svg>