<svg xmlns="http://www.w3.org/2000/svg" viewBox="0 0 20 20" comment="discasset/1.2">
    
    <path className="undefined" fill="B9BBBE" undefined="evenodd" d="M12.4998 10.0002C12.4998 10.0007 12.4998 10.0013 12.4998 10.0018C12.4998 10.461 12.1257 10.8351 11.6665 10.8351V12.5018C13.0448 12.5018 14.1665 11.381 14.1665 10.0018C14.1665 10.0013 14.1665 10.0007 14.1665 10.0002H12.4998ZM15.8332 10.0002C15.8332 10.0007 15.8332 10.0013 15.8332 10.0018C15.8332 12.2993 13.964 14.1685 11.6665 14.1685V15.8351C14.8832 15.8351 17.4998 13.2193 17.4998 10.0018C17.4998 10.0013 17.4998 10.0007 17.4998 10.0002H15.8332ZM8.57734 2.74688C8.81567 2.50855 9.174 2.43772 9.48567 2.56605C9.79734 2.69355 9.99984 2.99938 9.99984 3.33522V16.6686C9.99984 17.0061 9.79734 17.3102 9.48567 17.4394C9.174 17.5686 8.81567 17.4969 8.57734 17.2585L4.99984 13.3352H2.49984C2.0415 13.3352 1.6665 12.9602 1.6665 12.5019V7.50188C1.6665 7.04438 2.0415 6.66855 2.49984 6.66855H4.99984L8.57734 2.74688Z"/>
    <path className="undefined" fill="B9BBBE" undefined="evenodd" d="M17.7004 6.44868C17.8489 6.30849 18 6.16588 18 5.99966C18 5.83742 17.8527 5.70216 17.7052 5.5668C17.5834 5.455 17.4615 5.34313 17.4225 5.21591C17.3841 5.09076 17.4141 4.9307 17.4439 4.7711C17.4811 4.57204 17.5182 4.3737 17.4225 4.24466C17.3273 4.11629 17.1268 4.08966 16.9273 4.06316C16.7654 4.04166 16.6041 4.02024 16.5 3.94466C16.3963 3.86943 16.3247 3.72041 16.2533 3.5717C16.1645 3.38685 16.0759 3.20248 15.9262 3.16091C15.7806 3.12046 15.6099 3.21094 15.4364 3.30287C15.2883 3.38137 15.1382 3.46091 15 3.46091C14.8652 3.46091 14.7214 3.38145 14.5783 3.30242C14.4029 3.20553 14.2287 3.10928 14.0738 3.16091C13.9172 3.2131 13.8304 3.39423 13.7434 3.57565C13.6741 3.72016 13.6048 3.86485 13.5 3.94466C13.3905 4.02806 13.2183 4.05108 13.0486 4.07378C12.8519 4.10007 12.6586 4.12592 12.57 4.24466C12.4794 4.36619 12.5155 4.56693 12.5515 4.76731C12.581 4.93173 12.6106 5.09591 12.57 5.21591C12.5305 5.33278 12.4159 5.44098 12.2996 5.55065C12.1511 5.69084 12 5.83345 12 5.99966C12 6.16191 12.1473 6.29716 12.2948 6.43253C12.4166 6.54432 12.5385 6.6562 12.5775 6.78341C12.6159 6.90857 12.5859 7.06863 12.5561 7.22823C12.5189 7.42728 12.4818 7.62563 12.5775 7.75466C12.6727 7.88304 12.8732 7.90967 13.0727 7.93617C13.2346 7.95767 13.3959 7.97909 13.5 8.05466C13.6035 8.1298 13.6758 8.27855 13.748 8.42708C13.838 8.61212 13.9277 8.79681 14.0775 8.83841C14.2231 8.87887 14.3939 8.78839 14.5674 8.69645C14.7155 8.61796 14.8656 8.53841 15.0038 8.53841C15.1385 8.53841 15.2824 8.61787 15.4254 8.6969C15.6008 8.7938 15.7751 8.89005 15.93 8.83841C16.0863 8.78632 16.1754 8.60222 16.2636 8.41996C16.3342 8.27421 16.4042 8.12964 16.5075 8.05466C16.6129 7.97819 16.7783 7.95486 16.9431 7.93161C17.1419 7.90357 17.3398 7.87565 17.43 7.75466C17.5206 7.63313 17.4845 7.4324 17.4485 7.23202C17.419 7.0676 17.3894 6.90341 17.43 6.78341C17.4695 6.66655 17.5841 6.55835 17.7004 6.44868ZM13.5 6.37464L14.775 7.33839L16.4775 5.03589L15.9675 4.66089L14.625 6.44589L13.875 5.87214L13.5 6.37464Z"/>
</svg>