<svg xmlns="http://www.w3.org/2000/svg" viewBox="0 0 24 24" comment="discasset/1.2">
    
    <path d="M16.8025 6.81104L19.6313 3.98304L21.0453 5.39744L18.2165 8.22544L16.8025 6.81104Z" fill="B9BBBE"/>
    <path d="M18.2871 12.3481L18.8047 10.4163L22.6683 11.4515L22.1507 13.3833L18.2871 12.3481Z" fill="B9BBBE"/>
    <path d="M15.7866 18.3324L14.7517 14.4698L16.6835 13.9522L17.7184 17.8148L15.7866 18.3324Z" fill="B9BBBE"/>
    <path d="M13.5767 2.36145L14.6112 6.22448L12.6792 6.74188L11.6447 2.87885L13.5767 2.36145Z" fill="B9BBBE"/>
    <path d="M7.21265 7.30957L11.0766 8.34357L10.5599 10.2746L6.69591 9.2406L7.21265 7.30957Z" fill="B9BBBE"/>
    <path d="M3.00049 19.8782L14.3134 8.56528L16.4347 10.6866L5.12179 21.9995L3.00049 19.8782Z" fill="B9BBBE"/>
</svg>