<svg xmlns="http://www.w3.org/2000/svg" viewBox="0 0 18 22" comment="discasset/1.2">
    
    <path d="M7.302 16.758C7.798 17.064 8.376 17.25 9 17.25C10.792 17.25 12.25 15.792 12.25 14C12.25 13.376 12.064 12.798 11.758 12.303L7.302 16.758Z" fill="B9BBBE"/>
    <path d="M10.698 11.242C10.202 10.936 9.624 10.75 9 10.75C7.208 10.75 5.75 12.208 5.75 14C5.75 14.623 5.936 15.202 6.242 15.698L10.698 11.242Z" fill="B9BBBE"/>
    <path d="M13.414 0H2C0.897 0 0 0.898 0 2V20C0 21.103 0.897 22 2 22H16C17.103 22 18 21.103 18 20V4.586L13.414 0ZM9 18.75C6.381 18.75 4.25 16.619 4.25 14C4.25 11.381 6.381 9.25 9 9.25C11.619 9.25 13.75 11.381 13.75 14C13.75 16.619 11.619 18.75 9 18.75ZM12 6V1L17 6H12Z" fill="B9BBBE"/>
</svg>