<svg xmlns="http://www.w3.org/2000/svg" viewBox="0 0 30 30" comment="discasset/1.2">
    
    <g>
        <circle cx="15" cy="15" r="15" fill="B9BBBE" className="undefined"/>
        <path fill="B9BBBE" className="undefined" d="M20.4565217,18.1304348 C20.4565217,21.0869565 18.326087,22.5 14.8043478,22.5 L10.5,22.5 L10.5,7.5 L14.8695652,7.5 C18.2391304,7.5 19.8478261,9.02173913 19.8478261,11.3913043 C19.8478261,12.9565217 18.9782609,13.9782609 17.673913,14.5217391 C19.3478261,15.0434783 20.4565217,16.1304348 20.4565217,18.1304348 Z M17.173913,11.6304348 C17.173913,10.4347826 16.4565217,9.69565217 14.7173913,9.69565217 L13.2608696,9.69565217 L13.2608696,13.673913 L14.5869565,13.673913 C16.2826087,13.673913 17.173913,12.9130435 17.173913,11.6304348 Z M17.6956522,18.0434783 C17.6956522,16.5217391 16.673913,15.7173913 14.7608696,15.7173913 L13.2608696,15.7173913 L13.2608696,20.3043478 L14.8043478,20.3043478 C16.6304348,20.3043478 17.6956522,19.5434783 17.6956522,18.0434783 Z"/>
    </g>
</svg>