<svg xmlns="http://www.w3.org/2000/svg" viewBox="0 0 24 24">
    <path d="M16 0.999004V10.263C12.551 11.152 10 14.274 10 18C10 18.283 10.016 18.562 10.044 18.838L8.554 19.832C8.218 20.056 7.781 20.056 7.445 19.832L4.927 18.154L1.447 19.894C1.307 19.965 1.152 20 1 20C0.817 20 0.635 19.949 0.475 19.851C0.18 19.667 0 19.347 0 18.999V0.999004C0 0.653004 0.18 0.331004 0.475 0.150004C0.77 -0.0329958 1.138 -0.0489958 1.448 0.104004L4.928 1.847L7.446 0.168004C7.782 -0.0549958 8.219 -0.0549958 8.555 0.168004L11.072 1.846L14.552 0.103004C14.862 -0.0499958 15.23 -0.0339958 15.525 0.149004C15.82 0.331004 16 0.653004 16 0.999004ZM7 15H9V13.95C10.14 13.717 11 12.708 11 11.5C11 10.122 9.879 9 8.5 9H7.5C7.225 9 7 8.776 7 8.5C7 8.224 7.225 7.999 7.5 7.999H11V5.999H9V4.999H7V6.05C5.86 6.283 5 7.292 5 8.5C5 9.878 6.121 11 7.5 11H8.5C8.775 11 9 11.224 9 11.5C9 11.776 8.775 12 8.5 12H5V14H7V15ZM22.9 17H24.002V19H22.9C22.77 19.637 22.516 20.228 22.168 20.753L22.952 21.536L21.539 22.949L20.755 22.166C20.23 22.515 19.639 22.77 19.002 22.899V24.001H17.002V22.899C16.365 22.77 15.773 22.515 15.248 22.167L14.466 22.952L13.051 21.54L13.834 20.755C13.487 20.229 13.233 19.639 13.102 19H12V17H13.102C13.232 16.365 13.486 15.772 13.834 15.248L13.051 14.465L14.465 13.05L15.248 13.833C15.773 13.487 16.363 13.231 17.001 13.102V12H19.001V13.102C19.638 13.231 20.228 13.487 20.752 13.832L21.537 13.049L22.951 14.463L22.167 15.247C22.515 15.771 22.769 16.363 22.9 17ZM16 18C16 19.104 16.895 20 18 20C19.104 20 20 19.104 20 18C20 16.896 19.104 16 18 16C16.895 16 16 16.896 16 18Z" fill="B9BBBE" style="fill:#B9BBBE"/>
</svg>