<svg xmlns="http://www.w3.org/2000/svg" viewBox="0 0 24 24">
    <path d="M8.82953 16.2C8.82953 17.8572 7.48553 19.2 5.82953 19.2C4.17233 19.2 2.82953 17.8572 2.82953 16.2C2.82953 14.5428 4.17233 13.2 5.82953 13.2C7.48553 13.2 8.82953 14.5428 8.82953 16.2Z" fill="B9BBBE" style="fill:#B9BBBE"/>
    <path d="M11.6604 24C11.1252 21.9336 9.264 20.4 7.0308 20.4H4.6308C2.3964 20.4 0.5352 21.9336 0 24H11.6604Z" fill="B9BBBE" style="fill:#B9BBBE"/>
    <path d="M21.1705 16.2C21.1705 17.8572 19.8265 19.2 18.1705 19.2C16.5133 19.2 15.1705 17.8572 15.1705 16.2C15.1705 14.5428 16.5133 13.2 18.1705 13.2C19.8253 13.2 21.1705 14.5428 21.1705 16.2Z" fill="B9BBBE" style="fill:#B9BBBE"/>
    <path d="M24 24C23.4648 21.9336 21.6036 20.4 19.3704 20.4H16.9704C14.736 20.4 12.8748 21.9336 12.3396 24H24Z" fill="B9BBBE" style="fill:#B9BBBE"/>
    <path d="M15 3C15 4.6572 13.656 6 12 6C10.3428 6 9 4.6572 9 3C9 1.3428 10.3428 0 12 0C13.656 0 15 1.3428 15 3Z" fill="B9BBBE" style="fill:#B9BBBE"/>
    <path d="M17.8296 10.8C17.2944 8.7336 15.4332 7.2 13.2 7.2H10.8C8.56559 7.2 6.70439 8.7336 6.16919 10.8H17.8296Z" fill="B9BBBE" style="fill:#B9BBBE"/>
</svg>