<svg xmlns="http://www.w3.org/2000/svg" viewBox="0 0 24 24">
    <path d="M10.8944 13.4543L13.0154 15.5753L14.4294 14.1613L15.8444 15.5753L14.4294 16.9903L15.8434 18.4043L17.2584 16.9893L18.6724 18.4043L17.2584 19.8193L18.6724 21.2333L21.5024 18.4053L13.7234 10.6273L14.4304 9.92031C15.2124 9.13931 15.2124 7.87231 14.4304 7.09231L10.8954 3.55631C10.1144 2.77631 8.84844 2.77631 8.06744 3.55731L3.82544 7.79931C3.04444 8.58031 3.04444 9.84631 3.82544 10.6273L7.36044 14.1623C8.14144 14.9443 9.40744 14.9443 10.1884 14.1623L10.8944 13.4543ZM7.71344 9.56531C7.12744 8.97931 7.12744 8.03031 7.71344 7.44431C8.29944 6.85831 9.24844 6.85831 9.83444 7.44431C10.4214 8.03031 10.4214 8.97931 9.83444 9.56531C9.24844 10.1513 8.29944 10.1513 7.71344 9.56531Z" fill="B9BBBE" style="fill:#B9BBBE"/>
</svg>