<svg xmlns="http://www.w3.org/2000/svg" viewBox="0 0 24 24">
    <path d="M8 11C8.55228 11 9 10.5523 9 10C9 9.44772 8.55228 9 8 9C7.44772 9 7 9.44772 7 10C7 10.5523 7.44772 11 8 11Z" fill="B9BBBE" style="fill:#B9BBBE"/>
    <path d="M18 17V15H16.721L14.95 9.684C14.813 9.275 14.431 9 14 9C13.569 9 13.187 9.275 13.051 9.684L11.697 13.744L10.832 12.445C10.461 11.889 9.539 11.889 9.168 12.445L7.465 15H6V17H18Z" fill="B9BBBE" style="fill:#B9BBBE"/>
    <path d="M22 7V4C22 3.448 21.553 3 21 3H3C2.447 3 2 3.448 2 4V7C2 7.552 2.447 8 3 8V18H2V20H11V22H13V20H22V18H21V8C21.553 8 22 7.552 22 7ZM4 5H20V6H4V5ZM19 18H5V8H19V18Z" fill="B9BBBE" style="fill:#B9BBBE"/>
</svg>