<svg xmlns="http://www.w3.org/2000/svg" viewBox="0 0 24 24">
    <g fill="B9BBBE" fillRule="evenodd" style="fill:#B9BBBE">
        <path className="0" fill="B9BBBE" d="M6.2,2.44 L18.1,14.34 L20.22,12.22 L21.63,13.63 L19.16,16.1 L22.34,19.28 C22.73,19.67 22.73,20.3 22.34,20.69 L21.63,21.4 C21.24,21.79 20.61,21.79 20.22,21.4 L17,18.23 L14.56,20.7 L13.15,19.29 L15.27,17.17 L3.37,5.27 L3.37,2.44 L6.2,2.44 Z M15.89,10 L20.63,5.26 L20.63,2.44 L17.8,2.44 L13.06,7.18 L15.89,10 Z M10.94,15 L8.11,12.13 L5.9,14.34 L3.78,12.22 L2.37,13.63 L4.84,16.1 L1.66,19.29 C1.27,19.68 1.27,20.31 1.66,20.7 L2.37,21.41 C2.76,21.8 3.39,21.8 3.78,21.41 L7,18.23 L9.44,20.7 L10.85,19.29 L8.73,17.17 L10.94,15 Z" style="fill:#B9BBBE"/>
    </g>
</svg>