<svg width="40" height="40" viewBox="0 0 40 40" fill="none" xmlns="http://www.w3.org/2000/svg">
<path d="M21.3952 36.1871L35.7409 21.8413L28.7638 14.8641L14.418 29.2099L21.3952 36.1871Z" fill="#FFD836"/>
<path d="M31.8833 17.9727L28.2968 21.5591L18.5671 11.8293C18.093 11.3552 17.8266 10.7122 17.8266 10.0417C17.8266 9.37128 18.093 8.72827 18.5671 8.25418C19.0411 7.78009 19.6841 7.51374 20.3546 7.51374C21.0251 7.51374 21.6681 7.78009 22.1422 8.25418L31.872 17.984L31.8833 17.9727Z" fill="#FFD836"/>
<path d="M25.8225 19.0801L22.2361 22.6665L12.5063 12.9367C12.0322 12.4626 11.7659 11.8196 11.7659 11.1492C11.7659 10.4787 12.0322 9.8357 12.5063 9.36161C12.9804 8.88751 13.6234 8.62117 14.2939 8.62117C14.9643 8.62117 15.6073 8.88751 16.0814 9.3616L25.8112 19.0914L25.8225 19.0801Z" fill="#FFD836"/>
<path d="M23.0732 23.4878L19.4868 27.0742L9.75698 17.3445C9.28288 16.8704 9.01654 16.2274 9.01654 15.5569C9.01654 14.8864 9.28288 14.2434 9.75698 13.7693C10.2311 13.2952 10.8741 13.0289 11.5445 13.0289C12.215 13.0289 12.858 13.2952 13.3321 13.7693L23.0619 23.4991L23.0732 23.4878Z" fill="#FFD836"/>
<path d="M22.6711 30.271L19.0846 33.8574L9.35481 24.1277C8.88072 23.6536 8.61438 23.0106 8.61438 22.3401C8.61438 21.6696 8.88072 21.0266 9.35481 20.5525C9.82891 20.0784 10.4719 19.8121 11.1424 19.8121C11.8128 19.8121 12.4559 20.0784 12.9299 20.5525L22.6597 30.2823L22.6711 30.271Z" fill="#FFD836"/>
<path d="M36.112 10.9121C36.9395 10.9121 37.733 11.2408 38.3182 11.8259C38.9033 12.411 39.232 13.2046 39.232 14.0321V23.2161H32.992V14.0321C32.992 13.2046 33.3207 12.411 33.9058 11.8259C34.4909 11.2408 35.2845 10.9121 36.112 10.9121Z" fill="#FFD836"/>
<path d="M39.248 23.216V28.8C39.2484 30.1714 38.9771 31.5293 38.4498 32.7953C37.9226 34.0613 37.1497 35.2103 36.176 36.176C35.207 37.1469 34.0561 37.9172 32.789 38.4428C31.522 38.9684 30.1637 39.2389 28.792 39.2389C27.4203 39.2389 26.062 38.9684 24.795 38.4428C23.5279 37.9172 22.377 37.1469 21.408 36.176L21.312 36.08L36.704 20.688L39.248 23.216Z" fill="#FFD836"/>
<path d="M32.928 22.4001V30.7841C32.9238 31.4391 32.6606 32.0658 32.196 32.5274C31.7313 32.989 31.103 33.2481 30.448 33.2481H22.128C21.9533 33.2535 21.781 33.2058 21.6339 33.1113C21.4869 33.0168 21.372 32.8799 21.3044 32.7187C21.2368 32.5574 21.2197 32.3795 21.2553 32.2084C21.2909 32.0372 21.3777 31.8809 21.504 31.7601L31.424 21.7761C31.5471 21.6523 31.7042 21.568 31.8754 21.5337C32.0465 21.4995 32.224 21.5169 32.3852 21.5838C32.5465 21.6507 32.6842 21.764 32.7808 21.9094C32.8774 22.0547 32.9287 22.2255 32.928 22.4001Z" fill="#FFB713"/>
<path d="M15.5374 22.607C15.3937 22.4633 15.1607 22.4633 15.017 22.607C14.8733 22.7507 14.8733 22.9837 15.017 23.1274L18.7335 26.844C18.8773 26.9877 19.1103 26.9877 19.254 26.844C19.3977 26.7002 19.3977 26.4672 19.254 26.3235L15.5374 22.607Z" fill="#FFB713"/>
<path d="M20.9125 13.6402C20.7688 13.4965 20.5358 13.4965 20.3921 13.6402C20.2484 13.7839 20.2484 14.0169 20.3921 14.1606L25.9052 19.6738C26.049 19.8175 26.282 19.8175 26.4257 19.6738C26.5694 19.5301 26.5694 19.2971 26.4257 19.1533L20.9125 13.6402Z" fill="#FFB713"/>
<path d="M15.8563 15.7652C15.7125 15.6215 15.4795 15.6215 15.3358 15.7652C15.1921 15.9089 15.1921 16.1419 15.3358 16.2856L22.3141 23.2639C22.4578 23.4076 22.6908 23.4076 22.8346 23.2639C22.9783 23.1202 22.9783 22.8872 22.8346 22.7435L15.8563 15.7652Z" fill="#FFB713"/>
<path d="M27.232 10.2879C26.935 10.2879 26.6501 10.1699 26.44 9.95982C26.23 9.74978 26.112 9.4649 26.112 9.16786C26.112 8.69683 25.9249 8.2451 25.5918 7.91204C25.2588 7.57897 24.807 7.39186 24.336 7.39186C24.039 7.39186 23.7541 7.27386 23.544 7.06382C23.334 6.85377 23.216 6.5689 23.216 6.27186C23.216 5.97481 23.334 5.68994 23.544 5.4799C23.7541 5.26985 24.039 5.15186 24.336 5.15186C25.3998 5.15607 26.4189 5.58053 27.1711 6.33277C27.9233 7.085 28.3478 8.10404 28.352 9.16786C28.352 9.4649 28.234 9.74978 28.024 9.95982C27.8139 10.1699 27.529 10.2879 27.232 10.2879Z" fill="#7BA2FF"/>
<path d="M31.648 10.2878C31.351 10.2878 31.0661 10.1698 30.856 9.9598C30.646 9.74976 30.528 9.46488 30.528 9.16784C30.528 7.52562 29.8756 5.95066 28.7144 4.78943C27.5532 3.62821 25.9782 2.97584 24.336 2.97584C24.039 2.97584 23.7541 2.85784 23.544 2.6478C23.334 2.43776 23.216 2.15288 23.216 1.85584C23.216 1.5588 23.334 1.27392 23.544 1.06388C23.7541 0.85384 24.039 0.73584 24.336 0.73584C26.5723 0.73584 28.717 1.62421 30.2983 3.20552C31.8796 4.78682 32.768 6.93154 32.768 9.16784C32.768 9.46488 32.65 9.74976 32.44 9.9598C32.2299 10.1698 31.945 10.2878 31.648 10.2878Z" fill="#7BA2FF"/>
<path d="M8.73599 28.7679C7.67513 28.7679 6.65771 28.3465 5.90757 27.5964C5.15742 26.8462 4.73599 25.8288 4.73599 24.7679C4.73599 24.4709 4.85399 24.186 5.06403 23.976C5.27407 23.7659 5.55895 23.6479 5.85599 23.6479C6.15304 23.6479 6.43791 23.7659 6.64795 23.976C6.85799 24.186 6.97599 24.4709 6.97599 24.7679C6.97599 25.2347 7.16142 25.6824 7.49149 26.0125C7.82155 26.3425 8.26921 26.5279 8.73599 26.5279C9.03304 26.5279 9.31791 26.6459 9.52795 26.856C9.73799 27.066 9.85599 27.3509 9.85599 27.6479C9.85599 27.945 9.73799 28.2299 9.52795 28.4399C9.31791 28.6499 9.03304 28.7679 8.73599 28.7679Z" fill="#7BA2FF"/>
<path d="M8.73599 33.1999C6.50246 33.1957 4.36186 32.3055 2.78401 30.7246C1.20616 29.1438 0.319988 27.0015 0.319992 24.7679C0.319992 24.4709 0.437992 24.186 0.648032 23.976C0.858073 23.7659 1.14295 23.6479 1.43999 23.6479C1.73703 23.6479 2.02191 23.7659 2.23195 23.976C2.44199 24.186 2.55999 24.4709 2.55999 24.7679C2.55999 26.4074 3.21016 27.9799 4.36793 29.1407C5.52569 30.3015 7.09655 30.9557 8.73599 30.9599C9.03303 30.9599 9.31791 31.0779 9.52795 31.288C9.73799 31.498 9.85599 31.7829 9.85599 32.0799C9.85599 32.377 9.73799 32.6619 9.52795 32.8719C9.31791 33.0819 9.03303 33.1999 8.73599 33.1999Z" fill="#7BA2FF"/>
</svg>
