<svg width="279" height="158" viewBox="0 0 279 158" fill="none" xmlns="http://www.w3.org/2000/svg">
<g filter="url(#filter0_d)">
<path d="M1 0H275C277.209 0 279 1.79086 279 4V154C279 156.209 277.209 158 275 158H1V0Z" fill="url(#paint0_linear)"/>
<path d="M88.1202 29.1151H78.3858C78.1373 29.1151 77.92 29.3022 77.8889 29.5518L77.4232 32.7954C77.3766 33.0917 77.6095 33.3724 77.92 33.3724H79.7054C79.8917 33.3724 80.0004 33.5596 79.9383 33.7155C79.7209 34.2301 79.5502 34.8071 79.4725 35.4153L78.5721 41.6999C77.9821 45.9104 81.4598 48.0001 85.2635 48.0001C89.238 48.0001 93.1504 45.8948 93.7403 41.6999L94.6408 35.4153C95.1997 31.2983 91.8307 29.2087 88.1202 29.1151ZM89.9832 35.4309L89.0827 41.5752C88.8809 43.0254 87.2507 43.696 85.7448 43.696C84.3475 43.696 82.9813 43.0254 83.1676 41.6999L84.068 35.4153C84.2699 34.043 85.9 33.3412 87.406 33.3412C88.912 33.3412 90.2006 34.043 89.9832 35.4309Z" fill="white"/>
<path d="M34.1073 29.1152H30.4744C30.226 29.1152 30.0086 29.3023 29.9776 29.5518L28.8598 37.5518V37.5674L28.9063 40.6551C28.9063 40.7175 28.8598 40.7799 28.7977 40.7955L27.7575 37.0684V37.0528L24.5127 29.4271C24.435 29.2399 24.2487 29.1152 24.0469 29.1152H20.3674C20.119 29.1152 19.9016 29.3023 19.8706 29.5518L17.4176 47.1737C17.371 47.4855 17.6194 47.7507 17.9144 47.7507H21.5784C21.8268 47.7507 22.0441 47.5635 22.0752 47.314L23.0378 40.3121V40.2965L22.9912 36.7097L23.0999 36.6785L24.2022 40.4056V40.4212L27.2296 47.4544C27.3072 47.6415 27.4935 47.7662 27.6954 47.7662H31.6699C31.9183 47.7662 32.1356 47.5791 32.1667 47.3296L34.6197 29.7078C34.6663 29.3959 34.4179 29.1152 34.1073 29.1152Z" fill="white"/>
<path d="M42.0563 29.1151H38.3924C38.1439 29.1151 37.9266 29.3022 37.8955 29.5518L35.4425 47.158C35.396 47.4699 35.6444 47.735 35.9393 47.735H39.6033C39.8517 47.735 40.0691 47.5479 40.1001 47.2984L42.5532 29.6921C42.5997 29.3958 42.3668 29.1151 42.0563 29.1151Z" fill="white"/>
<path d="M59.2429 29.1151H45.534C45.2856 29.1151 45.0682 29.3022 45.0372 29.5518L44.5559 32.8422C44.5093 33.1541 44.7422 33.4192 45.0527 33.4192H48.8874C49.198 33.4192 49.4308 33.6843 49.3843 33.9962L47.5833 47.158C47.5367 47.4699 47.7851 47.735 48.0801 47.735H51.7907C52.0391 47.735 52.2565 47.5479 52.2875 47.2984L54.135 33.8559C54.1661 33.6063 54.3834 33.4192 54.6318 33.4192H58.7461C58.9945 33.4192 59.2118 33.2321 59.2429 32.9826L59.7242 29.6921C59.8018 29.3958 59.5534 29.1151 59.2429 29.1151Z" fill="white"/>
<path d="M69.7226 29.1151H62.7517C62.5033 29.1151 62.2859 29.3022 62.2549 29.5518L59.8018 47.158C59.7553 47.4699 60.0037 47.735 60.2987 47.735H64.0092C64.2576 47.735 64.475 47.5479 64.506 47.2984L65.2202 42.043C65.2357 41.9182 65.3444 41.8247 65.4686 41.8247H65.9499C66.043 41.8247 66.1207 41.8714 66.1673 41.9494L69.707 47.5167C69.8002 47.657 69.9554 47.7506 70.1417 47.7506H74.7373C75.1409 47.7506 75.3893 47.2828 75.1564 46.9553L71.4304 41.6063C71.3372 41.4816 71.3838 41.2945 71.5235 41.2321C73.8989 40.0625 75.2806 38.8773 75.7309 35.5401C76.2587 31.1736 73.5418 29.1151 69.7226 29.1151ZM70.9956 35.618C70.8714 36.6941 70.0331 37.7701 68.5892 37.7701H66.4312C66.1207 37.7701 65.8878 37.4894 65.9344 37.1931L66.4001 33.9494C66.4312 33.6999 66.6485 33.5128 66.8969 33.5128H69.2102C70.5765 33.5128 71.1354 34.4952 70.9956 35.618Z" fill="white"/>
<path d="M33.9677 17.9648H36.607C37.2435 17.9648 37.7869 18.0583 38.2216 18.2611C38.6253 18.4326 38.9668 18.7289 39.2152 19.1032C39.4326 19.4775 39.5568 19.8985 39.5413 20.3196C39.5413 20.7562 39.4326 21.1773 39.1997 21.5515C38.9513 21.9414 38.5787 22.2377 38.1595 22.4248C37.6937 22.6431 37.1038 22.7523 36.4207 22.7523H33.9677V17.9648ZM36.4051 21.5203C36.8398 21.5203 37.1659 21.4112 37.3988 21.1929C37.6316 20.9589 37.7558 20.647 37.7403 20.304C37.7558 19.9921 37.6472 19.6958 37.4298 19.4775C37.228 19.2747 36.9175 19.1656 36.4983 19.1656H35.6754V21.5047H36.4051V21.5203Z" fill="white"/>
<path d="M43.5157 22.7369C43.1742 22.6433 42.8326 22.5029 42.5221 22.3158V21.1774C42.786 21.3801 43.0965 21.5205 43.407 21.5985C43.7641 21.7076 44.1212 21.7544 44.4938 21.77C44.618 21.77 44.7422 21.7544 44.8664 21.7076C44.9441 21.6608 44.9906 21.614 44.9906 21.5517C44.9906 21.4893 44.9751 21.4269 44.9285 21.3801C44.8509 21.3178 44.7577 21.2866 44.6646 21.271L43.8573 21.0838C43.3915 20.9747 43.0655 20.8187 42.8637 20.6316C42.6618 20.4289 42.5531 20.1482 42.5687 19.8675C42.5687 19.6179 42.6618 19.3684 42.8326 19.1813C43.0344 18.963 43.2828 18.807 43.5623 18.7291C43.9194 18.6199 44.292 18.5575 44.6801 18.5731C45.0372 18.5731 45.3788 18.6043 45.7203 18.6979C45.9998 18.7602 46.2637 18.8694 46.5121 19.0098V20.0858C46.2792 19.9454 46.0308 19.8519 45.7824 19.7895C45.503 19.7115 45.208 19.6803 44.9285 19.6803C44.5093 19.6803 44.292 19.7583 44.292 19.8986C44.292 19.961 44.323 20.0234 44.3851 20.0546C44.4938 20.1014 44.618 20.1326 44.7422 20.1638L45.4253 20.2885C45.8601 20.3665 46.2016 20.5068 46.419 20.694C46.6363 20.8811 46.745 21.1774 46.745 21.5517C46.745 21.9571 46.5432 22.3314 46.2016 22.5341C45.8445 22.768 45.3322 22.8928 44.6646 22.8928C44.2765 22.8772 43.8883 22.8304 43.5157 22.7369Z" fill="white"/>
<path d="M48.3286 22.5966C47.9715 22.425 47.661 22.1599 47.4437 21.8169C47.2418 21.4894 47.1487 21.0995 47.1487 20.7096C47.1487 20.3198 47.2418 19.9455 47.4592 19.618C47.6765 19.2749 47.9871 19.0254 48.3597 18.8539C48.8099 18.6668 49.2912 18.5576 49.7725 18.5732C50.4556 18.5732 51.0145 18.7135 51.4647 19.0098V20.2574C51.294 20.1482 51.1077 20.0547 50.9058 19.9923C50.6885 19.9299 50.4556 19.8831 50.2227 19.8831C49.8035 19.8831 49.4775 19.9611 49.2291 20.117C48.8875 20.3042 48.7788 20.7252 48.9651 21.0683C49.0273 21.1775 49.1204 21.271 49.2291 21.3334C49.462 21.4894 49.788 21.5673 50.2382 21.5673C50.4711 21.5673 50.6885 21.5362 50.9058 21.4738C51.1077 21.4114 51.294 21.3334 51.4647 21.2243V22.425C50.9369 22.7369 50.3469 22.8929 49.7414 22.8773C49.2601 22.8929 48.7633 22.7993 48.3286 22.5966Z" fill="white"/>
<path d="M53.157 22.5966C52.7844 22.425 52.4739 22.1599 52.2566 21.8168C52.0547 21.4894 51.946 21.0995 51.946 20.7096C51.946 20.3198 52.0392 19.9455 52.2566 19.618C52.4739 19.2905 52.7844 19.0254 53.157 18.8695C54.042 18.5108 55.0511 18.5108 55.9361 18.8695C56.2931 19.0254 56.6037 19.2905 56.821 19.618C57.0228 19.9455 57.1315 20.3354 57.1315 20.7096C57.1315 21.0995 57.0228 21.4894 56.821 21.8168C56.6037 22.1599 56.2931 22.425 55.9361 22.5966C55.0356 22.9708 54.042 22.9708 53.157 22.5966ZM55.2064 21.3802C55.3772 21.2087 55.4703 20.9591 55.4548 20.7252C55.4703 20.4757 55.3772 20.2418 55.2064 20.0702C55.0201 19.8987 54.7717 19.8207 54.5233 19.8207C54.2748 19.8051 54.0264 19.8987 53.8401 20.0702C53.6694 20.2418 53.5762 20.4757 53.5917 20.7252C53.5762 20.9747 53.6694 21.2087 53.8401 21.3802C54.0264 21.5517 54.2748 21.6453 54.5233 21.6297C54.7872 21.6453 55.0356 21.5517 55.2064 21.3802Z" fill="white"/>
<path d="M61.1992 18.8226V20.3041C60.9973 20.1794 60.7645 20.117 60.5316 20.1326C60.1745 20.1326 59.895 20.2417 59.6932 20.4601C59.5069 20.6784 59.3982 21.0215 59.3982 21.4893V22.7369H57.737V18.7447H59.3672V20.0078C59.4603 19.54 59.6 19.1969 59.8019 18.9786C60.0037 18.7602 60.2832 18.6355 60.5781 18.6511C60.7955 18.6511 61.0129 18.7135 61.1992 18.8226Z" fill="white"/>
<path d="M66.7261 17.8245V22.7367H65.0649V21.8479C64.9407 22.1597 64.7078 22.4404 64.4284 22.612C64.1024 22.7991 63.7453 22.8927 63.3727 22.8771C63.0311 22.8927 62.6895 22.7835 62.3946 22.5964C62.1151 22.4093 61.8822 22.1442 61.7425 21.8323C61.5872 21.4892 61.5096 21.1149 61.5096 20.7406C61.4941 20.3508 61.5872 19.9609 61.7425 19.6178C61.8978 19.2903 62.1462 19.0252 62.4411 18.8381C62.7516 18.651 63.1087 18.5574 63.4658 18.5574C64.2576 18.5574 64.7855 18.9005 65.0649 19.5866V17.8245H66.7261ZM64.8165 21.3488C64.9873 21.1773 65.0805 20.9434 65.0649 20.7095C65.0649 20.4755 64.9718 20.2416 64.8165 20.0857C64.4284 19.7582 63.8695 19.7582 63.4658 20.0857C63.295 20.2572 63.2019 20.4755 63.2174 20.7095C63.2019 20.9434 63.295 21.1773 63.4658 21.3488C63.6521 21.5204 63.885 21.5983 64.1334 21.5983C64.3973 21.6139 64.6302 21.5204 64.8165 21.3488Z" fill="white"/>
<path d="M27.8509 16.7797C27.0436 16.4211 26.1897 16.1559 25.3047 16C25.1805 16.2183 25.0718 16.4366 24.9787 16.6706C24.0472 16.5302 23.0846 16.5302 22.1531 16.6706C22.0599 16.4366 21.9512 16.2183 21.827 16C20.9576 16.1559 20.1037 16.4211 19.2809 16.7953C17.6818 19.1813 17.247 21.5049 17.4644 23.8129C18.4115 24.5146 19.4672 25.0448 20.585 25.3879C20.8334 25.0448 21.0663 24.6862 21.2526 24.3119C20.8955 24.1715 20.5384 24 20.1969 23.8129C20.29 23.7505 20.3676 23.6881 20.4608 23.6257C22.4325 24.5614 24.7148 24.5614 26.702 23.6257C26.7796 23.6881 26.8728 23.7661 26.9659 23.8129C26.6244 24.0156 26.2828 24.1871 25.9102 24.3119C26.0965 24.6862 26.3294 25.0448 26.5778 25.3879C27.6956 25.0448 28.7514 24.5146 29.6984 23.8129C29.9468 21.1462 29.2482 18.8382 27.8509 16.7797ZM21.5165 22.3938C20.911 22.3938 20.3987 21.8324 20.3987 21.1618C20.3987 20.4912 20.88 19.9142 21.501 19.9142C22.122 19.9142 22.6188 20.4756 22.6188 21.1618C22.6188 21.848 22.1375 22.3938 21.5165 22.3938ZM25.6152 22.3938C25.0097 22.3938 24.5129 21.8324 24.5129 21.1618C24.5129 20.4912 24.9942 19.9142 25.6152 19.9142C26.2362 19.9142 26.7331 20.4756 26.7175 21.1618C26.7175 21.848 26.2362 22.3938 25.6152 22.3938Z" fill="white"/>
<path d="M40.9541 19.1812C41.4085 19.1812 41.7769 18.846 41.7769 18.4326C41.7769 18.0192 41.4085 17.6841 40.9541 17.6841C40.4996 17.6841 40.1312 18.0192 40.1312 18.4326C40.1312 18.846 40.4996 19.1812 40.9541 19.1812Z" fill="white"/>
<path d="M40.1312 19.6959C40.6591 19.9142 41.2646 19.9142 41.7924 19.6959V22.768H40.1312V19.6959Z" fill="white"/>
</g>
<path d="M39.25 124.31C42.6913 123.134 46.371 122.831 49.9581 123.43C53.5453 124.029 56.9273 125.51 59.8 127.74H6.71002C6.71002 127.74 30.85 115.36 39.25 124.31Z" fill="white" fill-opacity="0.3"/>
<path d="M252.48 127C260.73 123.57 267.96 130.55 267.96 130.55H234.78C234.78 130.55 244.56 119.63 252.48 127Z" fill="white" fill-opacity="0.3"/>
<path d="M268 22.88C267.85 15.54 260.51 9.64001 251.47 9.64001C244.47 9.64001 238.52 13.16 236.1 18.15C234.872 17.9325 233.627 17.8221 232.38 17.82C227.476 17.7332 222.728 19.5463 219.13 22.88H268Z" fill="white" fill-opacity="0.6"/>
<path d="M99.4 134.72C91.15 134.72 83.87 137.51 79.49 141.72C72.7702 139.699 65.7872 138.688 58.77 138.72C46.26 138.72 34.77 141.81 26.02 146.93H122.87C120.15 139.91 110.68 134.72 99.4 134.72Z" fill="white" fill-opacity="0.6"/>
<path d="M143.7 124.63C143.018 126.417 141.768 127.93 140.142 128.937C138.515 129.943 136.603 130.387 134.7 130.2L119.64 128.68L128.51 116.41C129.642 114.864 131.251 113.734 133.088 113.192C134.926 112.65 136.89 112.726 138.68 113.41C140.829 114.238 142.563 115.883 143.503 117.985C144.444 120.087 144.514 122.476 143.7 124.63Z" fill="#FF8C19"/>
<path d="M143.45 121.8C143.066 122.814 142.357 123.672 141.435 124.241C140.513 124.811 139.428 125.06 138.35 124.95L129.83 124.09L134.83 117.16C135.466 116.28 136.374 115.635 137.413 115.324C138.453 115.013 139.566 115.054 140.58 115.44C141.186 115.669 141.742 116.015 142.214 116.458C142.687 116.902 143.067 117.434 143.334 118.025C143.6 118.616 143.748 119.253 143.768 119.901C143.788 120.549 143.68 121.194 143.45 121.8Z" fill="#ED5F00"/>
<path d="M138.72 106.16C137.694 107.155 136.368 107.782 134.948 107.945C133.528 108.108 132.095 107.797 130.87 107.06L121 101.24L130.73 95.77C131.99 95.0791 133.441 94.8194 134.862 95.0307C136.283 95.242 137.596 95.9125 138.6 96.94C139.213 97.5375 139.703 98.2499 140.041 99.0367C140.379 99.8234 140.558 100.669 140.57 101.525C140.581 102.381 140.423 103.231 140.106 104.027C139.788 104.822 139.318 105.547 138.72 106.16Z" fill="#FF8C19"/>
<path d="M139.39 104.16C138.811 104.725 138.062 105.083 137.259 105.177C136.455 105.271 135.644 105.096 134.95 104.68L129.37 101.39L134.87 98.29C135.584 97.9019 136.404 97.7574 137.207 97.8783C138.011 97.9992 138.752 98.379 139.32 98.96C139.667 99.2963 139.944 99.6979 140.135 100.142C140.327 100.585 140.428 101.062 140.435 101.545C140.441 102.029 140.353 102.508 140.173 102.957C139.994 103.406 139.728 103.814 139.39 104.16Z" fill="#ED5F00"/>
<path d="M211.39 100.91L211.62 101.11C217.77 106.33 224.12 110.11 235.13 111.72C236.37 111.844 237.61 111.485 238.592 110.717C239.574 109.95 240.223 108.833 240.402 107.6C240.581 106.366 240.277 105.111 239.554 104.096C238.831 103.081 237.744 102.384 236.52 102.15C227.72 100.88 223.03 98.1 217.88 93.74C216.92 92.9433 215.689 92.5482 214.445 92.637C213.2 92.7258 212.038 93.2917 211.201 94.2167C210.364 95.1417 209.916 96.3542 209.951 97.6013C209.987 98.8484 210.502 100.034 211.39 100.91Z" fill="url(#paint1_linear)"/>
<path fill-rule="evenodd" clip-rule="evenodd" d="M189.37 61.16L142.59 30.32L147.18 49.13C148.069 52.8203 150.324 56.0365 153.49 58.13L190.73 82.68L193.06 79.14L189.37 61.16Z" fill="#DAE2ED"/>
<path fill-rule="evenodd" clip-rule="evenodd" d="M201.56 62.23L139.38 21.23C139.292 21.1746 139.189 21.1464 139.085 21.149C138.981 21.1516 138.88 21.1849 138.794 21.2447C138.709 21.3044 138.643 21.388 138.605 21.485C138.567 21.582 138.558 21.6881 138.58 21.79L139.92 27.67C140.061 28.3328 140.447 28.9182 141 29.31L142.55 30.31L189.33 61.15L193.02 79.09L190.69 82.63L189 85.28L204.67 95.61L208.74 89.43L203.85 65.58C203.559 64.2046 202.736 63.0002 201.56 62.23Z" fill="#ECEFF6"/>
<path fill-rule="evenodd" clip-rule="evenodd" d="M193.06 79.1L189.37 61.16L142.59 30.32L143.51 34.1L187 62.79L190.43 79.45L189.04 81.54L190.7 82.64L193.06 79.1Z" fill="#C5CEDD"/>
<path fill-rule="evenodd" clip-rule="evenodd" d="M212.5 82.3C213.876 88.8188 213.289 95.5993 210.812 101.784C208.335 107.969 204.08 113.281 198.585 117.048C193.089 120.815 186.6 122.868 179.938 122.947C173.276 123.027 166.74 121.129 161.157 117.494C155.573 113.859 151.192 108.651 148.569 102.526C145.945 96.4023 145.196 89.6377 146.417 83.0879C147.637 76.5382 150.772 70.4973 155.426 65.7292C160.079 60.9611 166.042 57.6797 172.56 56.3C176.89 55.3835 181.358 55.3291 185.708 56.1398C190.059 56.9506 194.208 58.6106 197.917 61.0251C201.626 63.4396 204.823 66.5613 207.325 70.2117C209.827 73.8621 211.586 77.9698 212.5 82.3Z" fill="#4F5D7F"/>
<path fill-rule="evenodd" clip-rule="evenodd" d="M201 84.74C201.896 88.9734 201.518 93.3775 199.912 97.3959C198.307 101.414 195.547 104.867 191.98 107.317C188.413 109.767 184.2 111.105 179.874 111.163C175.547 111.22 171.3 109.993 167.67 107.638C164.04 105.282 161.189 101.904 159.478 97.9293C157.768 93.9546 157.273 89.562 158.057 85.3065C158.842 81.0509 160.87 77.1233 163.885 74.0199C166.901 70.9164 170.769 68.7763 175 67.87C177.815 67.2684 180.721 67.2276 183.552 67.7501C186.383 68.2725 189.083 69.3479 191.497 70.9148C193.912 72.4816 195.994 74.5091 197.625 76.8814C199.256 79.2537 200.402 81.9241 201 84.74Z" fill="#7687B2"/>
<path fill-rule="evenodd" clip-rule="evenodd" d="M207.59 68.59C206.45 73.59 190.34 82.68 180.09 87.41C172.09 85.57 152.52 80.04 148.96 74.41C148.781 74.1806 148.652 73.9161 148.581 73.6335C148.51 73.351 148.5 73.0568 148.55 72.77C148.602 72.5678 148.679 72.373 148.78 72.19C151.184 67.7488 154.525 63.8828 158.57 60.8595C162.616 57.8363 167.27 55.7278 172.21 54.68C184.8 52.01 197.91 56.74 207.27 67.31C207.435 67.4742 207.551 67.6801 207.608 67.9056C207.664 68.1311 207.658 68.3677 207.59 68.59Z" fill="#FF7F14"/>
<path fill-rule="evenodd" clip-rule="evenodd" d="M180.27 89.17C180.27 89.17 153.27 62.84 157.37 59.68C161.642 56.4013 166.593 54.119 171.86 53C186.05 50 199.53 56 208.54 66.16C214.92 73.41 180.27 89.17 180.27 89.17Z" fill="#FF903E"/>
<path fill-rule="evenodd" clip-rule="evenodd" d="M197.66 85.44C198.417 89.0216 198.095 92.7471 196.736 96.1461C195.377 99.545 193.04 102.465 190.023 104.537C187.005 106.609 183.441 107.74 179.78 107.787C176.12 107.835 172.527 106.796 169.457 104.803C166.386 102.81 163.975 99.952 162.528 96.5894C161.081 93.2268 160.663 89.5109 161.327 85.9109C161.991 82.3109 163.707 78.9883 166.258 76.3629C168.809 73.7375 172.081 71.9269 175.66 71.16C178.042 70.6495 180.502 70.6142 182.898 71.056C185.294 71.4977 187.58 72.408 189.623 73.7345C191.667 75.0611 193.429 76.7779 194.808 78.7865C196.187 80.7951 197.156 83.0562 197.66 85.44Z" fill="#EBEFF7"/>
<path fill-rule="evenodd" clip-rule="evenodd" d="M194.78 86.05C195.419 89.0621 195.15 92.1959 194.008 95.0553C192.865 97.9146 190.901 100.371 188.363 102.114C185.825 103.857 182.827 104.809 179.748 104.848C176.669 104.888 173.648 104.013 171.066 102.336C168.484 100.658 166.457 98.2529 165.242 95.4237C164.027 92.5945 163.678 89.4686 164.239 86.4412C164.801 83.4137 166.247 80.6206 168.396 78.415C170.544 76.2095 173.298 74.6904 176.31 74.05C180.35 73.1935 184.566 73.9764 188.029 76.2266C191.493 78.4768 193.921 82.0101 194.78 86.05Z" fill="#DAE2ED"/>
<path fill-rule="evenodd" clip-rule="evenodd" d="M172 80.7L181.4 77.77C181.682 77.6811 181.982 77.6686 182.27 77.7336C182.558 77.7986 182.824 77.9388 183.04 78.14L190.28 84.81C190.496 85.0117 190.656 85.2663 190.744 85.5487C190.831 85.831 190.844 86.1313 190.78 86.42L188.64 96C188.575 96.2873 188.436 96.5525 188.236 96.7685C188.035 96.9845 187.782 97.1437 187.5 97.23L178.1 100.16C177.818 100.249 177.518 100.261 177.23 100.196C176.942 100.131 176.676 99.9912 176.46 99.79L169.22 93.11C169.004 92.9104 168.844 92.6576 168.756 92.3768C168.668 92.096 168.656 91.7971 168.72 91.51L170.89 81.9C170.955 81.6208 171.091 81.3633 171.286 81.1529C171.481 80.9425 171.727 80.7864 172 80.7Z" fill="#C5CEDD"/>
<path fill-rule="evenodd" clip-rule="evenodd" d="M184.82 88.16C185.042 89.2049 184.949 90.2922 184.553 91.2843C184.158 92.2765 183.476 93.1289 182.596 93.7338C181.715 94.3387 180.675 94.6689 179.607 94.6825C178.539 94.6962 177.491 94.3927 176.595 93.8106C175.699 93.2284 174.997 92.3936 174.575 91.4119C174.154 90.4302 174.034 89.3457 174.229 88.2954C174.424 87.2452 174.927 86.2765 175.673 85.5119C176.419 84.7473 177.375 84.2212 178.42 84C179.113 83.8519 179.829 83.8421 180.527 83.9711C181.224 84.1001 181.889 84.3655 182.483 84.7519C183.078 85.1383 183.59 85.6383 183.991 86.2231C184.392 86.8079 184.674 87.4661 184.82 88.16Z" fill="#B7C2CE"/>
<path fill-rule="evenodd" clip-rule="evenodd" d="M231.55 115.67L207.38 109.92C207.275 109.865 207.192 109.777 207.143 109.67C207.094 109.562 207.082 109.441 207.11 109.326C207.137 109.211 207.202 109.109 207.295 109.035C207.387 108.962 207.502 108.921 207.62 108.92L231.79 114.68C231.928 114.71 232.072 114.685 232.191 114.61C232.311 114.536 232.397 114.417 232.43 114.28L233.35 110.42C233.349 110.339 233.367 110.26 233.402 110.187C233.436 110.114 233.487 110.051 233.55 110C233.613 109.95 233.687 109.915 233.765 109.898C233.844 109.88 233.925 109.881 234.004 109.9C234.082 109.919 234.155 109.955 234.217 110.006C234.279 110.057 234.329 110.122 234.362 110.195C234.396 110.269 234.412 110.349 234.41 110.429C234.408 110.51 234.387 110.589 234.35 110.66L233.43 114.53C233.326 114.927 233.072 115.268 232.721 115.481C232.37 115.693 231.95 115.761 231.55 115.67Z" fill="#E4E9F7"/>
<path fill-rule="evenodd" clip-rule="evenodd" d="M235.11 113.26L231.51 112.41C231.375 112.375 231.259 112.288 231.186 112.169C231.113 112.049 231.09 111.906 231.12 111.77L233.75 100.71C233.783 100.573 233.869 100.456 233.989 100.382C234.109 100.309 234.253 100.287 234.39 100.32L237.99 101.18C238.057 101.195 238.121 101.224 238.177 101.264C238.233 101.304 238.281 101.355 238.317 101.413C238.353 101.472 238.377 101.537 238.388 101.605C238.399 101.673 238.396 101.743 238.38 101.81L235.75 112.87C235.715 113.005 235.628 113.121 235.509 113.194C235.389 113.267 235.246 113.29 235.11 113.26Z" fill="black"/>
<path fill-rule="evenodd" clip-rule="evenodd" d="M213.93 107.85L210.33 106.99C210.193 106.957 210.076 106.871 210.002 106.751C209.929 106.631 209.907 106.487 209.94 106.35L212.57 95.35C212.585 95.2817 212.614 95.2172 212.655 95.1603C212.695 95.1033 212.747 95.0552 212.807 95.0188C212.867 94.9824 212.933 94.9584 213.002 94.9483C213.072 94.9382 213.142 94.9422 213.21 94.96L216.81 95.81C216.945 95.8455 217.061 95.932 217.134 96.0513C217.207 96.1707 217.23 96.3136 217.2 96.45L214.57 107.51C214.526 107.637 214.436 107.743 214.317 107.806C214.198 107.87 214.06 107.885 213.93 107.85Z" fill="black"/>
<path d="M212.69 105.09L211.76 108.96C211.696 109.233 211.526 109.469 211.288 109.617C211.05 109.765 210.763 109.813 210.49 109.75L186.32 104" stroke="#2F3849" stroke-width="12.02"/>
<path d="M199.33 145.05C200.004 145.332 200.727 145.478 201.458 145.48C202.189 145.481 202.913 145.339 203.588 145.06C204.264 144.781 204.877 144.372 205.394 143.855C205.911 143.339 206.321 142.725 206.6 142.05L213.72 125.05C214.284 123.688 214.285 122.158 213.722 120.795C213.16 119.432 212.08 118.348 210.72 117.78C209.359 117.217 207.831 117.216 206.47 117.778C205.108 118.341 204.026 119.42 203.46 120.78C201.46 125.63 198.39 132.9 196.35 137.78C196.068 138.453 195.922 139.176 195.921 139.906C195.919 140.636 196.062 141.359 196.341 142.034C196.62 142.708 197.029 143.321 197.545 143.837C198.062 144.353 198.675 144.762 199.35 145.04L199.33 145.05Z" fill="#578BFA"/>
<path d="M177.18 138.8L192.97 125.8C195.41 123.8 196.43 120.28 195.15 117.64C193.6 114.44 189.67 113.84 186.81 116.2L170.86 129.32C169.584 130.324 168.714 131.756 168.411 133.351C168.108 134.947 168.392 136.598 169.21 138C171 140.63 174.52 141 177.18 138.8Z" fill="#578BFA"/>
<path d="M192.47 82.42L226.53 91L226.6 113.88C226.616 116.979 225.584 119.992 223.67 122.43C222.156 124.363 220.152 125.855 217.865 126.751C215.579 127.646 213.094 127.912 210.67 127.52L189.62 124.17C187.09 123.769 184.747 122.591 182.916 120.799C181.085 119.008 179.856 116.691 179.4 114.17C178.93 111.551 179.319 108.85 180.51 106.47L192.47 82.42Z" fill="url(#paint2_linear)"/>
<path d="M226.54 95.77L226.53 85.9L220.95 86.2L184.97 90.05L226.54 95.77Z" fill="url(#paint3_linear)"/>
<path d="M168.17 113L174.99 116.56C175.114 116.624 175.218 116.721 175.29 116.84C175.362 116.959 175.401 117.096 175.401 117.235C175.401 117.374 175.362 117.511 175.29 117.63C175.218 117.749 175.114 117.846 174.99 117.91L168.21 121.56C167.518 121.931 166.746 122.128 165.961 122.135C165.176 122.141 164.4 121.957 163.702 121.598C163.004 121.239 162.403 120.716 161.951 120.074C161.5 119.431 161.211 118.689 161.11 117.91C160.998 117.031 161.129 116.137 161.489 115.327C161.849 114.517 162.424 113.821 163.152 113.315C163.88 112.809 164.732 112.512 165.617 112.457C166.502 112.401 167.385 112.589 168.17 113Z" fill="#578BFA"/>
<path fill-rule="evenodd" clip-rule="evenodd" d="M210.37 110.26L186.2 104.51C186.063 104.477 185.946 104.391 185.872 104.271C185.799 104.151 185.777 104.007 185.81 103.87C185.825 103.803 185.854 103.739 185.894 103.683C185.934 103.627 185.985 103.579 186.043 103.543C186.102 103.507 186.167 103.483 186.235 103.472C186.303 103.461 186.373 103.464 186.44 103.48L210.61 109.23C210.747 109.263 210.891 109.241 211.011 109.168C211.131 109.094 211.217 108.977 211.25 108.84L212.17 104.97C212.171 104.89 212.19 104.811 212.225 104.739C212.261 104.668 212.312 104.605 212.376 104.556C212.439 104.507 212.513 104.473 212.591 104.456C212.67 104.44 212.751 104.442 212.829 104.461C212.906 104.48 212.979 104.517 213.04 104.569C213.101 104.62 213.15 104.685 213.183 104.758C213.216 104.831 213.232 104.91 213.23 104.99C213.227 105.07 213.207 105.149 213.17 105.22L212.25 109.09C212.15 109.491 211.898 109.838 211.547 110.056C211.196 110.274 210.774 110.348 210.37 110.26Z" fill="#E4E9F7"/>
<path fill-rule="evenodd" clip-rule="evenodd" d="M213.93 107.85L210.33 106.99C210.193 106.957 210.076 106.871 210.002 106.751C209.929 106.631 209.907 106.487 209.94 106.35L212.57 95.35C212.585 95.2817 212.614 95.2172 212.655 95.1603C212.695 95.1033 212.747 95.0552 212.807 95.0188C212.867 94.9824 212.933 94.9584 213.002 94.9483C213.072 94.9382 213.142 94.9422 213.21 94.96L216.81 95.81C216.945 95.8455 217.061 95.932 217.134 96.0513C217.207 96.1707 217.23 96.3136 217.2 96.45L214.57 107.51C214.526 107.637 214.436 107.743 214.317 107.806C214.198 107.87 214.06 107.885 213.93 107.85Z" fill="black"/>
<path d="M186.36 99.28L186.61 99.44C193.29 103.54 199.95 106.25 210.77 106.14C211.981 106.073 213.119 105.541 213.948 104.656C214.776 103.771 215.232 102.6 215.219 101.387C215.206 100.175 214.726 99.0137 213.878 98.1462C213.031 97.2787 211.882 96.7715 210.67 96.73C202.04 96.82 197.11 94.85 191.52 91.43C190.479 90.7978 189.234 90.5941 188.046 90.8619C186.859 91.1296 185.821 91.8478 185.152 92.8652C184.484 93.8826 184.236 95.1199 184.461 96.3164C184.686 97.513 185.367 98.5754 186.36 99.28Z" fill="#6494FA"/>
<path fill-rule="evenodd" clip-rule="evenodd" d="M194.07 91.79L221.75 91.91C224.125 91.9101 226.404 90.9715 228.089 89.2988C229.775 87.626 230.732 85.3548 230.75 82.98L230.82 66.37C230.82 63.9951 229.881 61.7165 228.209 60.0307C226.536 58.3448 224.265 57.3885 221.89 57.37L194.21 57.25C191.835 57.2499 189.557 58.1885 187.871 59.8612C186.185 61.534 185.228 63.8052 185.21 66.18L185.14 82.79C185.14 85.1649 186.079 87.4435 187.751 89.1293C189.424 90.8152 191.695 91.7715 194.07 91.79Z" fill="#80A7FF"/>
<path fill-rule="evenodd" clip-rule="evenodd" d="M199.9 91.82L227.57 91.94C229.947 91.9401 232.227 91.0001 233.913 89.3252C235.599 87.6504 236.554 85.3766 236.57 83L236.64 66.4C236.64 64.0252 235.701 61.7465 234.029 60.0607C232.356 58.3749 230.085 57.4185 227.71 57.4L200.03 57.27C197.653 57.27 195.373 58.2099 193.687 59.8848C192.001 61.5597 191.046 63.8335 191.03 66.21L191 82.8C190.995 85.1732 191.927 87.4525 193.594 89.1418C195.26 90.8311 197.527 91.7937 199.9 91.82Z" fill="#9CB8FF"/>
<path fill-rule="evenodd" clip-rule="evenodd" d="M187.84 80.74H194.44L194.51 64.59H187.91C186.319 64.59 184.793 65.2221 183.667 66.3473C182.542 67.4725 181.91 68.9987 181.91 70.59V74.78C181.92 76.3523 182.548 77.8577 183.657 78.9723C184.766 80.0869 186.268 80.7217 187.84 80.74Z" fill="#9CB8FF"/>
<path fill-rule="evenodd" clip-rule="evenodd" d="M194.46 77.18V68.18C194.46 68.0209 194.397 67.8683 194.284 67.7558C194.172 67.6432 194.019 67.58 193.86 67.58H187.86C187.064 67.58 186.301 67.8961 185.739 68.4587C185.176 69.0213 184.86 69.7844 184.86 70.58V74.77C184.86 75.5657 185.176 76.3287 185.739 76.8913C186.301 77.4539 187.064 77.77 187.86 77.77H193.86C194.017 77.77 194.169 77.7082 194.281 77.5978C194.393 77.4875 194.457 77.3374 194.46 77.18Z" fill="#80A7FF"/>
<path fill-rule="evenodd" clip-rule="evenodd" d="M204.87 75.58C205.466 75.5919 206.052 75.4261 206.553 75.1038C207.054 74.7815 207.448 74.3172 207.684 73.7702C207.92 73.2232 207.988 72.6182 207.879 72.0323C207.771 71.4465 207.49 70.9064 207.073 70.4808C206.656 70.0552 206.121 69.7635 205.538 69.6428C204.954 69.5221 204.348 69.5779 203.796 69.8031C203.245 70.0282 202.772 70.4126 202.44 70.9072C202.108 71.4018 201.93 71.9841 201.93 72.58C201.93 73.3653 202.238 74.1194 202.787 74.6804C203.337 75.2413 204.085 75.5643 204.87 75.58Z" fill="black"/>
<path fill-rule="evenodd" clip-rule="evenodd" d="M226.06 83.1H231.45C233.827 83.1 236.107 82.1601 237.793 80.4852C239.479 78.8103 240.434 76.5365 240.45 74.16V69.97C240.45 69.0204 240.075 68.1092 239.406 67.435C238.738 66.7607 237.83 66.3779 236.88 66.37L220.72 66.3C219.77 66.3 218.859 66.6751 218.185 67.3438C217.511 68.0124 217.128 68.9204 217.12 69.87V74.06C217.109 76.4435 218.045 78.7339 219.721 80.4286C221.397 82.1234 223.677 83.0841 226.06 83.1Z" fill="#CBDAF7"/>
<path fill-rule="evenodd" clip-rule="evenodd" d="M228.51 76.34H224.62C224.222 76.34 223.841 76.498 223.559 76.7793C223.278 77.0606 223.12 77.4421 223.12 77.84C223.12 78.2378 223.278 78.6193 223.559 78.9006C223.841 79.1819 224.222 79.34 224.62 79.34H228.5C228.898 79.34 229.279 79.1819 229.561 78.9006C229.842 78.6193 230 78.2378 230 77.84C230 77.4421 229.842 77.0606 229.561 76.7793C229.279 76.498 228.898 76.34 228.5 76.34H228.51ZM235.51 76.34H234C233.602 76.34 233.221 76.498 232.939 76.7793C232.658 77.0606 232.5 77.4421 232.5 77.84C232.5 78.2378 232.658 78.6193 232.939 78.9006C233.221 79.1819 233.602 79.34 234 79.34H235.49C235.888 79.34 236.269 79.1819 236.551 78.9006C236.832 78.6193 236.99 78.2378 236.99 77.84C236.99 77.4421 236.832 77.0606 236.551 76.7793C236.269 76.498 235.888 76.34 235.49 76.34H235.51Z" fill="#9CB8FF"/>
<path fill-rule="evenodd" clip-rule="evenodd" d="M238.52 61.05C240.993 65.276 242.232 70.1107 242.095 75.0052C241.959 79.8996 240.454 84.6579 237.75 88.74L232.48 91.74L198.64 90.14L190.46 79.14L198.78 57.21L227.72 57.36L238.52 61.05Z" fill="#4871E5" fill-opacity="0.4"/>
<path fill-rule="evenodd" clip-rule="evenodd" d="M211.58 48.82C191.86 48.74 180.91 62 180.87 73C180.83 84 193.74 85 196.81 77.29L203.27 60.43L231.42 64.21L238.52 61.04C235.9 56.74 226.2 48.89 211.58 48.82Z" fill="#C9DCFF"/>
<path fill-rule="evenodd" clip-rule="evenodd" d="M194.68 79.19L212.47 88.63L237.75 88.74L235.27 92.83L192.77 92.65L190.54 84.5L194.68 79.19Z" fill="#C9DCFF"/>
<path fill-rule="evenodd" clip-rule="evenodd" d="M190.62 66.26L185.32 67.91L183 58.54C182.878 58.0075 182.962 57.4487 183.234 56.9752C183.506 56.5016 183.947 56.1481 184.468 55.9853C184.99 55.8224 185.553 55.8622 186.047 56.0966C186.54 56.3311 186.927 56.7429 187.13 57.25L190.62 66.26Z" fill="#DAE2ED"/>
<path fill-rule="evenodd" clip-rule="evenodd" d="M183.85 61.87L185.32 67.87L190.62 66.22L188.39 60.41C186.88 60.93 185.37 61.41 183.85 61.87Z" fill="#B7C2CE"/>
<path fill-rule="evenodd" clip-rule="evenodd" d="M185.51 105.69L164.38 105.51L164.45 97.51L185.58 97.68L185.51 105.69Z" fill="#B7C2CE"/>
<path fill-rule="evenodd" clip-rule="evenodd" d="M167.43 107.64L140.21 110.26C139.953 110.284 139.695 110.245 139.456 110.148C139.218 110.05 139.006 109.897 138.84 109.7C137.97 108.7 136.5 106.17 136.54 101.29C136.58 96.41 138.09 93.94 138.98 92.91C139.147 92.716 139.36 92.5661 139.599 92.4737C139.838 92.3812 140.096 92.3491 140.35 92.38L167.53 95.38C167.79 95.4096 168.03 95.5342 168.203 95.7299C168.377 95.9256 168.472 96.1785 168.47 96.44L168.38 106.56C168.391 106.694 168.375 106.828 168.332 106.956C168.29 107.083 168.223 107.201 168.134 107.302C168.045 107.402 167.937 107.484 167.816 107.542C167.696 107.601 167.564 107.634 167.43 107.64Z" fill="#C5CEDD"/>
<path fill-rule="evenodd" clip-rule="evenodd" d="M162.17 98.8C162.168 99.0492 162.092 99.2922 161.952 99.4983C161.812 99.7044 161.614 99.8643 161.383 99.9578C161.152 100.051 160.898 100.074 160.654 100.024C160.41 99.9732 160.187 99.8514 160.012 99.6738C159.837 99.4962 159.719 99.2707 159.672 99.0259C159.626 98.7812 159.653 98.528 159.75 98.2986C159.847 98.0691 160.01 97.8736 160.218 97.7368C160.427 97.6 160.671 97.528 160.92 97.53C161.085 97.5313 161.249 97.5652 161.401 97.6297C161.554 97.6942 161.692 97.7881 161.808 97.9061C161.924 98.024 162.016 98.1637 162.078 98.317C162.14 98.4704 162.171 98.6345 162.17 98.8ZM156.17 98.23C156.176 98.4808 156.107 98.7277 155.972 98.939C155.837 99.1504 155.641 99.3165 155.411 99.4162C155.181 99.5159 154.926 99.5446 154.679 99.4986C154.433 99.4526 154.205 99.334 154.027 99.158C153.848 98.9821 153.726 98.7567 153.676 98.5109C153.626 98.265 153.65 98.0098 153.746 97.778C153.842 97.5462 154.005 97.3483 154.214 97.2097C154.423 97.0711 154.669 96.9981 154.92 97C155.247 97.0025 155.561 97.1323 155.794 97.3618C156.027 97.5914 156.162 97.9028 156.17 98.23Z" fill="#B7C2CE"/>
<path fill-rule="evenodd" clip-rule="evenodd" d="M185.55 104.32L166.43 113L163.12 105.7L182.24 97L185.55 104.32Z" fill="#D0D9EA"/>
<path fill-rule="evenodd" clip-rule="evenodd" d="M170.09 113.63L146.49 127.44C146.27 127.573 146.021 127.65 145.764 127.662C145.507 127.674 145.251 127.622 145.02 127.51C143.79 126.93 141.41 125.29 139.39 120.84C137.37 116.39 137.71 113.52 138.08 112.22C138.149 111.976 138.275 111.752 138.45 111.567C138.624 111.382 138.84 111.243 139.08 111.16L165 102.5C165.249 102.415 165.52 102.427 165.761 102.532C166.002 102.638 166.194 102.83 166.3 103.07L170.48 112.28C170.591 112.514 170.613 112.78 170.541 113.029C170.469 113.278 170.309 113.491 170.09 113.63Z" fill="#EBEFF7"/>
<path fill-rule="evenodd" clip-rule="evenodd" d="M161.61 107.82C161.714 108.049 161.748 108.303 161.708 108.551C161.667 108.799 161.554 109.03 161.383 109.213C161.211 109.397 160.989 109.526 160.745 109.583C160.5 109.64 160.244 109.624 160.008 109.536C159.773 109.448 159.569 109.292 159.423 109.087C159.276 108.883 159.193 108.64 159.185 108.389C159.177 108.138 159.243 107.89 159.376 107.676C159.508 107.463 159.701 107.294 159.93 107.19C160.236 107.051 160.585 107.039 160.9 107.158C161.215 107.276 161.471 107.514 161.61 107.82ZM156.06 110.53C156.162 110.757 156.195 111.009 156.154 111.255C156.113 111.501 156 111.728 155.829 111.91C155.659 112.091 155.438 112.218 155.196 112.275C154.953 112.331 154.699 112.314 154.466 112.226C154.233 112.138 154.032 111.983 153.887 111.781C153.742 111.578 153.66 111.337 153.652 111.088C153.644 110.84 153.709 110.594 153.841 110.382C153.972 110.171 154.163 110.003 154.39 109.9C154.541 109.831 154.704 109.793 154.87 109.788C155.035 109.782 155.201 109.81 155.356 109.868C155.511 109.927 155.653 110.015 155.774 110.129C155.895 110.242 155.992 110.379 156.06 110.53Z" fill="#B7C2CE"/>
<path fill-rule="evenodd" clip-rule="evenodd" d="M198.48 76.31C197.7 82.39 192.92 86.8 187.8 86.14C182.68 85.48 179.15 80.03 179.93 73.94C180.71 67.85 185.49 63.46 190.61 64.11C195.73 64.76 199.26 70.23 198.48 76.31Z" fill="#DAE2ED"/>
<path fill-rule="evenodd" clip-rule="evenodd" d="M194.63 76C194.07 80.33 190.68 83.45 187.04 83C183.4 82.55 180.89 78.65 181.45 74.33C182.01 70.01 185.45 66.88 189.03 67.33C192.61 67.78 195.18 71.64 194.63 76Z" fill="#B7C2CE"/>
<path fill-rule="evenodd" clip-rule="evenodd" d="M192.53 75.72C192.13 78.82 189.7 81.06 187.09 80.72C184.48 80.38 182.69 77.61 183.09 74.51C183.49 71.41 185.92 69.18 188.52 69.51C191.12 69.84 192.92 72.63 192.53 75.72Z" fill="#FF903E"/>
<path fill-rule="evenodd" clip-rule="evenodd" d="M186.74 78L186.13 77.75C186.049 77.7168 185.985 77.6529 185.951 77.5722C185.917 77.4916 185.917 77.4009 185.95 77.32L188.08 72.17C188.113 72.0892 188.177 72.0249 188.258 71.9911C188.338 71.9574 188.429 71.957 188.51 71.99L189.12 72.24C189.199 72.2753 189.262 72.3394 189.295 72.4193C189.329 72.4992 189.33 72.5889 189.3 72.67L187.16 77.82C187.145 77.8597 187.121 77.8959 187.092 77.9265C187.062 77.9571 187.027 77.9815 186.988 77.9982C186.949 78.015 186.907 78.0238 186.864 78.0241C186.822 78.0244 186.779 78.0162 186.74 78Z" fill="#FF7F14"/>
<path fill-rule="evenodd" clip-rule="evenodd" d="M184.69 109.37L178.05 107.78L183.32 85.67L192.53 87.86L187.88 107.41C187.714 108.091 187.286 108.679 186.688 109.046C186.091 109.413 185.373 109.53 184.69 109.37Z" fill="black"/>
<path fill-rule="evenodd" clip-rule="evenodd" d="M167.26 55.9L120.47 25.06L125.07 43.87C125.959 47.5603 128.214 50.7765 131.38 52.87L168.62 77.41L170.94 73.88L167.26 55.9Z" fill="#DAE2ED"/>
<path fill-rule="evenodd" clip-rule="evenodd" d="M179.44 57L117.27 16C117.182 15.9413 117.078 15.9104 116.972 15.9113C116.866 15.9123 116.762 15.9451 116.675 16.0054C116.588 16.0657 116.521 16.1508 116.482 16.2496C116.444 16.3485 116.436 16.4566 116.46 16.56L117.81 22.45C117.974 23.0897 118.374 23.6436 118.93 24L120.47 25L167.26 55.9L170.94 73.84L168.62 77.37L166.87 80L182.54 90.33L186.61 84.15L181.71 60.3C181.418 58.9436 180.602 57.7576 179.44 57Z" fill="#ECEFF6"/>
<path fill-rule="evenodd" clip-rule="evenodd" d="M170.94 73.84L167.26 55.9L120.47 25.06L121.4 28.83L164.92 57.52L168.34 74.18L167 76.28L168.66 77.37L170.94 73.84Z" fill="#C5CEDD"/>
<path fill-rule="evenodd" clip-rule="evenodd" d="M120.61 22.93C120.437 22.8153 120.302 22.652 120.222 22.4607C120.142 22.2694 120.121 22.0587 120.16 21.8552C120.2 21.6517 120.299 21.4644 120.445 21.317C120.59 21.1696 120.777 21.0687 120.98 21.027C121.183 20.9853 121.394 21.0046 121.586 21.0825C121.778 21.1605 121.943 21.2936 122.059 21.465C122.176 21.6365 122.239 21.8386 122.241 22.0459C122.243 22.2532 122.183 22.4565 122.07 22.63C121.994 22.746 121.896 22.8458 121.782 22.9237C121.667 23.0016 121.538 23.0561 121.402 23.084C121.267 23.1119 121.127 23.1126 120.991 23.0862C120.855 23.0598 120.725 23.0067 120.61 22.93ZM124.36 25.41C124.185 25.2953 124.047 25.1312 123.965 24.9385C123.883 24.7458 123.86 24.5331 123.899 24.3272C123.938 24.1214 124.036 23.9316 124.183 23.7819C124.329 23.6322 124.517 23.5292 124.722 23.486C124.927 23.4428 125.14 23.4613 125.334 23.5391C125.529 23.6169 125.696 23.7506 125.815 23.9233C125.933 24.0959 125.998 24.2999 126.001 24.5093C126.003 24.7187 125.944 24.9243 125.83 25.1C125.754 25.2171 125.656 25.3181 125.541 25.3971C125.426 25.4761 125.296 25.5316 125.159 25.5604C125.023 25.5892 124.882 25.5907 124.745 25.5649C124.608 25.5391 124.477 25.4865 124.36 25.41ZM177.77 60.61C177.594 60.4954 177.456 60.3309 177.373 60.1376C177.291 59.9443 177.268 59.7309 177.307 59.5244C177.346 59.3179 177.446 59.1277 177.593 58.9779C177.74 58.8282 177.929 58.7257 178.135 58.6833C178.341 58.641 178.555 58.6609 178.749 58.7404C178.944 58.8198 179.11 58.9554 179.228 59.1297C179.345 59.304 179.408 59.5093 179.408 59.7195C179.409 59.9297 179.347 60.1352 179.23 60.31C179.075 60.5421 178.835 60.7038 178.562 60.76C178.288 60.8161 178.004 60.7622 177.77 60.61Z" fill="#DAE2ED"/>
<path fill-rule="evenodd" clip-rule="evenodd" d="M187.58 91.71L176.93 89.17C176.503 89.0654 176.133 88.7973 175.901 88.4233C175.669 88.0494 175.594 87.5993 175.69 87.17L177.05 81.44C177.152 81.0107 177.42 80.6389 177.794 80.405C178.168 80.1711 178.619 80.0939 179.05 80.19L189.7 82.73C190.129 82.8323 190.501 83.0995 190.735 83.4738C190.969 83.848 191.046 84.2992 190.95 84.73L189.58 90.47C189.473 90.8961 189.205 91.2638 188.831 91.4953C188.458 91.7267 188.009 91.8037 187.58 91.71Z" fill="#FF5C5C"/>
<path fill-rule="evenodd" clip-rule="evenodd" d="M190.77 95.5L182.4 93.5C181.309 93.2412 180.365 92.5596 179.776 91.6051C179.187 90.6506 179.002 89.5013 179.26 88.41L180.81 81.89C180.939 81.3495 181.174 80.8398 181.5 80.39C181.826 79.9401 182.238 79.559 182.711 79.2683C183.185 78.9776 183.711 78.7831 184.26 78.6959C184.809 78.6087 185.37 78.6305 185.91 78.76L194.29 80.76C194.698 80.8596 195.049 81.1162 195.268 81.474C195.488 81.8318 195.556 82.2617 195.46 82.67L192.68 94.33C192.58 94.7376 192.324 95.0892 191.966 95.3084C191.608 95.5276 191.178 95.5964 190.77 95.5Z" fill="#BEC7D6"/>
<path fill-rule="evenodd" clip-rule="evenodd" d="M221 47.24L220.52 50.45C223.176 52.5931 225.504 55.1131 227.43 57.93L230.37 51.24C228 49.55 224.79 48.53 221 47.24Z" fill="#FF7F14"/>
<path fill-rule="evenodd" clip-rule="evenodd" d="M227.41 57.93L230.35 51.24L232.84 58L227.41 57.93Z" fill="#FF903E"/>
<path d="M110.29 89.76C109.687 89.3683 109.17 88.8579 108.77 88.26C108.377 87.6563 108.12 86.9735 108.02 86.26L107.65 83.81C107.64 83.7529 107.612 83.7005 107.57 83.66C107.525 83.6218 107.469 83.6006 107.41 83.6C107.348 83.5999 107.288 83.6211 107.24 83.66C107.198 83.7005 107.17 83.7529 107.16 83.81L106.8 86.26C106.695 86.9723 106.439 87.6541 106.05 88.26C105.657 88.8599 105.142 89.3708 104.54 89.76L104.22 89.97C104.184 89.9899 104.156 90.0217 104.14 90.06C104.13 90.096 104.13 90.134 104.14 90.17C104.128 90.2091 104.128 90.2508 104.14 90.29C104.156 90.3283 104.184 90.36 104.22 90.38L104.54 90.59C105.149 90.9787 105.666 91.4946 106.056 92.1023C106.446 92.7099 106.7 93.3949 106.8 94.11L107.16 96.55C107.167 96.6081 107.196 96.6614 107.24 96.7C107.288 96.7389 107.348 96.76 107.41 96.76C107.469 96.7604 107.526 96.7393 107.57 96.7006C107.614 96.6619 107.643 96.6083 107.65 96.55L108 94.1C108.1 93.3879 108.352 92.7057 108.74 92.1C109.132 91.4927 109.65 90.9776 110.26 90.59L110.57 90.38C110.609 90.3606 110.641 90.329 110.66 90.29C110.676 90.2515 110.676 90.2085 110.66 90.17C110.667 90.1526 110.671 90.1339 110.671 90.115C110.671 90.0961 110.667 90.0774 110.66 90.06C110.641 90.021 110.609 89.9894 110.57 89.97L110.29 89.76Z" fill="#5865F2"/>
<path d="M251.1 43.16C250.355 42.6869 249.721 42.0594 249.24 41.32C248.76 40.5869 248.446 39.7575 248.32 38.89L247.87 35.89C247.86 35.8198 247.824 35.7558 247.77 35.71C247.716 35.6586 247.644 35.63 247.57 35.63C247.496 35.63 247.424 35.6586 247.37 35.71C247.316 35.7558 247.28 35.8198 247.27 35.89L246.83 38.89C246.705 39.7575 246.39 40.5869 245.91 41.32C245.431 42.0541 244.804 42.6807 244.07 43.16L243.68 43.41C243.637 43.4366 243.602 43.4747 243.58 43.52C243.565 43.5655 243.565 43.6145 243.58 43.66C243.566 43.7091 243.566 43.7609 243.58 43.81C243.603 43.8526 243.637 43.8875 243.68 43.91L244.07 44.17C244.81 44.6413 245.441 45.2652 245.92 46C246.391 46.7443 246.701 47.5789 246.83 48.45L247.27 51.45C247.283 51.5194 247.318 51.5827 247.37 51.63C247.427 51.6754 247.497 51.7002 247.57 51.7002C247.643 51.7002 247.713 51.6754 247.77 51.63C247.822 51.5827 247.857 51.5194 247.87 51.45L248.32 48.45C248.446 47.5761 248.757 46.7393 249.233 45.9959C249.709 45.2524 250.339 44.6196 251.08 44.14L251.47 43.89C251.511 43.8607 251.545 43.8232 251.57 43.78C251.59 43.736 251.6 43.6883 251.6 43.64C251.6 43.5917 251.59 43.544 251.57 43.5C251.545 43.4568 251.511 43.4193 251.47 43.39L251.1 43.16Z" fill="#FFA8EE"/>
<path d="M260.66 67C260.299 66.7722 259.992 66.4685 259.76 66.11C259.528 65.7531 259.375 65.3508 259.31 64.93L259.09 63.48C259.096 63.4659 259.1 63.4505 259.1 63.435C259.1 63.4195 259.096 63.4042 259.09 63.39C259.061 63.3808 259.029 63.3808 259 63.39C258.967 63.3806 258.933 63.3806 258.9 63.39C258.875 63.4148 258.858 63.446 258.85 63.48L258.59 65C258.521 65.4198 258.368 65.8212 258.14 66.18C257.912 66.5381 257.608 66.8418 257.25 67.07L257.06 67.19C257.06 67.19 257.06 67.19 257.01 67.19C257.007 67.2132 257.007 67.2368 257.01 67.26C257.004 67.283 257.004 67.3071 257.01 67.33C257.01 67.33 257.01 67.33 257.06 67.39L257.25 67.51C257.608 67.7418 257.912 68.049 258.14 68.41C258.378 68.7674 258.532 69.1743 258.59 69.6L258.8 71.05C258.811 71.08 258.828 71.1073 258.85 71.13C258.866 71.1366 258.883 71.14 258.9 71.14C258.917 71.14 258.934 71.1366 258.95 71.13C258.964 71.1364 258.979 71.1396 258.995 71.1396C259.01 71.1396 259.026 71.1364 259.04 71.13C259.046 71.1174 259.048 71.1038 259.048 71.09C259.048 71.0762 259.046 71.0626 259.04 71.05L259.26 69.59C259.32 69.1665 259.47 68.7608 259.7 68.4C259.932 68.0391 260.239 67.7322 260.6 67.5L260.79 67.38C260.79 67.38 260.79 67.38 260.84 67.38C260.845 67.3569 260.845 67.3331 260.84 67.31C260.846 67.287 260.846 67.263 260.84 67.24C260.84 67.24 260.84 67.24 260.79 67.24L260.66 67Z" fill="#FFF29A"/>
<defs>
<filter id="filter0_d" x="0" y="0" width="280" height="160" filterUnits="userSpaceOnUse" color-interpolation-filters="sRGB">
<feFlood flood-opacity="0" result="BackgroundImageFix"/>
<feColorMatrix in="SourceAlpha" type="matrix" values="0 0 0 0 0 0 0 0 0 0 0 0 0 0 0 0 0 0 127 0" result="hardAlpha"/>
<feOffset dy="1"/>
<feGaussianBlur stdDeviation="0.5"/>
<feColorMatrix type="matrix" values="0 0 0 0 0 0 0 0 0 0 0 0 0 0 0 0 0 0 0.2 0"/>
<feBlend mode="normal" in2="BackgroundImageFix" result="effect1_dropShadow"/>
<feBlend mode="normal" in="SourceGraphic" in2="effect1_dropShadow" result="shape"/>
</filter>
<linearGradient id="paint0_linear" x1="1.00001" y1="158" x2="136.748" y2="-80.8481" gradientUnits="userSpaceOnUse">
<stop stop-color="#B473F5"/>
<stop offset="1" stop-color="#E292AA"/>
</linearGradient>
<linearGradient id="paint1_linear" x1="223.02" y1="99.36" x2="231.6" y2="110.02" gradientUnits="userSpaceOnUse">
<stop stop-color="#3264F0"/>
<stop offset="1" stop-color="#578BFA"/>
</linearGradient>
<linearGradient id="paint2_linear" x1="197.43" y1="73.71" x2="205.74" y2="116.96" gradientUnits="userSpaceOnUse">
<stop stop-color="#2452D4"/>
<stop offset="1" stop-color="#578BFA"/>
</linearGradient>
<linearGradient id="paint3_linear" x1="205.76" y1="95.37" x2="205.76" y2="83.5" gradientUnits="userSpaceOnUse">
<stop offset="0.01" stop-color="#2951F0"/>
<stop offset="1" stop-color="#2951F0" stop-opacity="0"/>
</linearGradient>
</defs>
</svg>
