<svg width="24" height="24" fill="none" xmlns="http://www.w3.org/2000/svg">
  <circle cx="15" cy="12" r="6" fill="#fff"/>
  <path fill-rule="evenodd" clip-rule="evenodd" d="M2.208 10.124a.78.78 0 0 0 .782-.766.78.78 0 0 0-.782-.766h-.426A.781.781 0 0 0 1 9.358a.78.78 0 0 0 .782.766h.426Zm16.13 9.264c4.05-1.81 5.756-6.408 3.909-10.24-1.28-2.716-3.98-4.318-6.822-4.457h-8.03c-.71 0-1.208.557-1.208 1.184 0 .697.569 1.184 1.208 1.184h2.061a.78.78 0 0 1 .782.766.781.781 0 0 1-.782.767H4.411a.781.781 0 0 0-.782.766.78.78 0 0 0 .782.766h3.624c.426 0 .782.348.782.766a.78.78 0 0 1-.782.766H5.76a.78.78 0 0 0-.782.767c0 .418.356.766.782.766h1.563c.071.836.285 1.672.64 2.438 1.776 3.831 6.466 5.503 10.374 3.761ZM11.066 14.2c-1.032-2.203-.047-4.808 2.2-5.82 2.247-1.01 4.905-.045 5.937 2.157 1.032 2.203.047 4.808-2.2 5.82-2.247 1.011-4.905.045-5.937-2.157Z" fill="#4F5D7F"/>
  <path d="m16.814 9.867 1.421 2.368c.072.14.072.209 0 .348l-1.42 2.368c-.072.14-.214.14-.285.14h-2.771c-.142 0-.213-.07-.284-.14l-1.422-2.368c-.07-.14-.07-.209 0-.348l1.421-2.368c.072-.14.214-.14.285-.14h2.771c.142-.07.213 0 .284.14Z" fill="#C5CEDD"/>
</svg>
