<svg xmlns="http://www.w3.org/2000/svg" xmlns:xlink="http://www.w3.org/1999/xlink" viewBox="0 0 876.6 554.88"><defs><style>.cls-1{fill:#202225;}.cls-2{fill:#363940;}.cls-3{fill:#2e3137;}.cls-4,.cls-5{fill:#fff;}.cls-5,.cls-7{fill-rule:evenodd;}.cls-6{fill:#e7366b;}.cls-10,.cls-7{fill:#b9bbbe;}.cls-8{fill:#4f545c;}.cls-9{fill:#dcddde;}.cls-11{fill:#72767d;}.cls-12{fill:#40444c;}.cls-13{fill:#795eea;}.cls-14{fill:#eb459f;}.cls-15{fill:#ff63af;}.cls-16{fill:#ffab18;}.cls-17{fill:#242145;}.cls-18{fill:#ff78b9;}.cls-19{fill:url(#linear-gradient);}.cls-20{fill:url(#linear-gradient-2);}.cls-21{fill:#ffc619;}.cls-22{fill:#8cd9ff;}.cls-23{fill:url(#linear-gradient-3);}.cls-24{fill:url(#linear-gradient-4);}.cls-25{fill:#606dff;}.cls-26{fill:#e89300;}.cls-27{fill:#ffe75c;}</style><linearGradient id="linear-gradient" x1="332.08" y1="99.9" x2="245.08" y2="260.42" gradientUnits="userSpaceOnUse"><stop offset="0" stop-color="#ffe75c"/><stop offset="1" stop-color="#ffc619"/></linearGradient><linearGradient id="linear-gradient-2" x1="362.02" y1="125.5" x2="269.13" y2="296.89" xlink:href="#linear-gradient"/><linearGradient id="linear-gradient-3" x1="283.8" y1="449.18" x2="259.99" y2="272.14" gradientUnits="userSpaceOnUse"><stop offset="0" stop-color="#fff"/><stop offset="1" stop-color="#8bd8ff"/></linearGradient><linearGradient id="linear-gradient-4" x1="290.51" y1="426.42" x2="299.05" y2="367.86" gradientUnits="userSpaceOnUse"><stop offset="0" stop-color="#5765f1"/><stop offset="1" stop-color="#2536d3"/></linearGradient></defs><g id="design"><path class="cls-1" d="M876.61,24.19V530.68a24.19,24.19,0,0,1-24.2,24.19H24.2A24.2,24.2,0,0,1,0,530.68V24.19A24.2,24.2,0,0,1,24.2,0H852.41A24.19,24.19,0,0,1,876.61,24.19Z"/><path class="cls-2" d="M876.61,24.19V530.68a24.19,24.19,0,0,1-24.2,24.19h-293V0h293A24.19,24.19,0,0,1,876.61,24.19Z"/></g><g id="chara"><circle class="cls-3" cx="321.77" cy="490.77" r="35.43"/><circle class="cls-4" cx="153.47" cy="490.77" r="35.43"/><path class="cls-1" d="M168.15,485.08a1.48,1.48,0,0,0-1.44-.06l-3.77,1.88v-3.52a3,3,0,0,0-2.95-2.95H142.27a3,3,0,0,0-3,2.95v14.77a3,3,0,0,0,3,3H160a3,3,0,0,0,2.95-3v-3.52l3.77,1.88a1.4,1.4,0,0,0,.66.16,1.46,1.46,0,0,0,.78-.22,1.49,1.49,0,0,0,.7-1.26v-8.85A1.49,1.49,0,0,0,168.15,485.08Z"/><circle class="cls-3" cx="237.62" cy="490.77" r="35.43"/><path class="cls-5" d="M222.86,481.17a3,3,0,0,1,2.95-2.95h23.62a3,3,0,0,1,2.95,2.95v16.24a3,3,0,0,1-2.95,2.95H239.1v2.95H245v3H230.24v-3h5.9v-2.95H225.81a3,3,0,0,1-2.95-2.95Zm16.53,14.52v-4c-4.92,0-8.16,1.57-10.63,5,1-4.93,3.74-9.84,10.63-10.83v-3.93l7.09,6.88Z"/><circle class="cls-6" cx="405.91" cy="490.77" r="35.43"/><path class="cls-5" d="M419.37,474.7l2.61,2.61-4.6,4.6,4.6,4.6-2.61,2.61-4.6-4.6-4.6,4.6-2.61-2.61,4.6-4.6-4.6-4.6,2.61-2.61,4.6,4.6Zm-4.6,30.83h-7.38a16.24,16.24,0,0,1-16.24-16.24v-7.38a1.48,1.48,0,0,1,1.48-1.48h5.9a1.48,1.48,0,0,1,1.48,1.48v5.9a1.48,1.48,0,0,1-1.48,1.48h-1.47a10.2,10.2,0,0,0,10.33,10.33v-1.47a1.48,1.48,0,0,1,1.48-1.48h5.9a1.48,1.48,0,0,1,1.48,1.48v5.9A1.48,1.48,0,0,1,414.77,505.53Z"/><path class="cls-7" d="M53.32,30.6a2.5,2.5,0,0,0-2.64.5L40.29,42H33a2.37,2.37,0,0,0-2.42,2.31V58.16A2.37,2.37,0,0,0,33,60.47h7.27L50.68,71.35a2.5,2.5,0,0,0,2.64.5,2.32,2.32,0,0,0,1.49-2.14v-37A2.31,2.31,0,0,0,53.32,30.6Zm6.33,4.45v4.62c6.68,0,12.11,5.18,12.11,11.55S66.33,62.78,59.65,62.78V67.4C69,67.4,76.6,60.15,76.6,51.22S69,35.05,59.65,35.05Zm0,9.24a6.94,6.94,0,1,1,0,13.87V53.53a2.31,2.31,0,1,0,0-4.62Z"/><circle class="cls-8" cx="649.06" cy="95.15" r="64.37"/><path class="cls-4" d="M625.91,68.78a5.9,5.9,0,0,0-5.9,5.9v35.45a5.9,5.9,0,0,0,5.9,5.9h8.86v11.82L646.59,116h26.58a5.91,5.91,0,0,0,5.91-5.9V74.68a5.91,5.91,0,0,0-5.91-5.9Z"/><rect class="cls-9" x="660.57" y="184" width="139.16" height="32.77" rx="6.62"/><circle class="cls-8" cx="616.18" cy="208.41" r="25.81"/><rect class="cls-1" x="660.57" y="250.71" width="185.06" height="64.91" rx="6.62"/><path class="cls-9" d="M709,275.3a6.05,6.05,0,0,1,6.05-6.05H821.31a6.05,6.05,0,0,1,6.05,6.05V291a6.05,6.05,0,0,1-6.05,6.05H715.09A6.05,6.05,0,0,1,709,291Z"/><path class="cls-10" d="M685.37,296.62c-3.79,0-6.53-3-6.53-7.17V278.37c0-5.2,3.65-9.12,8.49-9.12s8.49,3.92,8.49,9.12v9.13h-2.61v-9.13c0-3.77-2.48-6.51-5.88-6.51s-5.88,2.74-5.88,6.51v11.08c0,2.27,1.21,4.56,3.92,4.56s3.92-2.29,3.92-4.56v-9.77c0-.79-.19-2.61-2-2.61s-2,1.82-2,2.61v9.12h-2.61v-9.12c0-3.12,1.83-5.22,4.57-5.22s4.57,2.1,4.57,5.22v9.77C691.9,293.6,689.15,296.62,685.37,296.62Z"/><circle class="cls-8" cx="616.18" cy="274.92" r="25.81"/><rect class="cls-11" x="660.57" y="331.9" width="185.06" height="125.68" rx="6.62"/><circle class="cls-8" cx="753.1" cy="394.74" r="40"/><path class="cls-10" d="M740.32,374.75v40l33.33-20Z"/><circle class="cls-8" cx="616.18" cy="356.31" r="25.81"/><path class="cls-12" d="M585.5,492.05a11.61,11.61,0,0,1,11.81-11.38H838.68a11.61,11.61,0,0,1,11.82,11.38v22.77a11.61,11.61,0,0,1-11.82,11.38H597.31a11.61,11.61,0,0,1-11.81-11.38Z"/><path class="cls-10" d="M618.07,489.71a13.73,13.73,0,1,0,13.72,13.73A13.75,13.75,0,0,0,618.07,489.71Zm6.86,15.1h-5.49v5.49h-2.75v-5.49H611.2v-2.75h5.49v-5.49h2.75v5.49h5.49Z"/><rect class="cls-13" x="52.72" y="129.46" width="453.94" height="295.96" rx="32.78"/><path class="cls-14" d="M357.48,242.69s61-4.87,110-78.79L485,183.67s-70.77,114.9-139.83,112.6Z"/><path class="cls-14" d="M199.56,245.58s-63,6.64-68.06,46.14,41.21,6.8,41.21,6.8l21.6-21.92Z"/><path class="cls-15" d="M219,102.89c-47.18,9.55-35.23,43.69-21.75,65.69-4.17-4.12-8.55-8-13.06-11.71q-3.48-2.85-7.07-5.58l-3.63-2.71c-1.26-.9-2.41-1.74-3.86-2.7l-.47-.31a12.35,12.35,0,0,0-3.36-1.52,12.19,12.19,0,0,0-6.58,23.47c2.35.66,5.09,1.6,7.63,2.49s5.17,1.89,7.74,2.9c5.11,2.05,10.18,4.27,15.06,6.78,1.75.89,3.47,1.84,5.17,2.81-17-4.2-40.71-5.6-38,20.19,4.17,39.85,40.57,41.74,61.42,35.29,0,0,53.85-36.43,59.54-65.64C277.78,172.34,290.29,88.47,219,102.89Z"/><ellipse class="cls-4" cx="243.11" cy="175.21" rx="23.57" ry="30.07" transform="translate(-41.99 82.93) rotate(-17.84)"/><path class="cls-16" d="M269.22,173.57a32.65,32.65,0,0,0-1.35-6.33,37,37,0,0,0-14-19.39c-6.61-4.47-14-5.74-20.67-3.58s-11.94,7.48-14.7,15a36.89,36.89,0,0,0-.09,24c3.48,10.81,13.57,21,24.3,23.34h0a21.48,21.48,0,0,0,4.63.52,18.78,18.78,0,0,0,5.77-.9,19.47,19.47,0,0,0,6.93-4h0l0,0a23.79,23.79,0,0,0,3.73-4.31l0-.05a36,36,0,0,0,5.65-19.81A36.77,36.77,0,0,0,269.22,173.57ZM247.05,202.1h0c-8.88-.32-20.08-8.07-24-20.41a32,32,0,0,1,0-20.77c2.24-6.06,6.37-10.33,11.64-12a16.35,16.35,0,0,1,5-.79,20.44,20.44,0,0,1,11.41,3.76,29.26,29.26,0,0,1,7.28,7.16,34.72,34.72,0,0,1,4.85,9.7,30.78,30.78,0,0,1,1.39,11.64c-.72,10.25-6.37,19-13,21.15A13.21,13.21,0,0,1,247.05,202.1Z"/><path d="M233.31,164.22a20.44,20.44,0,0,1,3.93-1,23.39,23.39,0,0,1,3.92-.33,18,18,0,0,1,7.73,1.68,16.72,16.72,0,0,1,6.12,4.82l.63.73.51.8,1,1.6c.59,1.1,1.07,2.25,1.59,3.36a1.37,1.37,0,0,1-.65,1.83,1.38,1.38,0,0,1-1.76-.53l-.11-.19c-.57-1-1.08-2-1.69-2.86l-1-1.29-.49-.65-.58-.55a13.15,13.15,0,0,0-5.14-3.39,14,14,0,0,0-6-.75,18.68,18.68,0,0,0-3.06.54,15,15,0,0,0-2.8,1l-.1.05a2.62,2.62,0,0,1-2.27-4.73Z"/><ellipse class="cls-4" cx="360.43" cy="143.83" rx="20.27" ry="30.07" transform="translate(-22.77 82.57) rotate(-12.67)"/><path class="cls-16" d="M382.57,138.85c-3.93-17.48-17.05-29.47-29.27-26.73a17,17,0,0,0-8.45,4.84,20.85,20.85,0,0,0-2.3,2.78,18.5,18.5,0,0,0-1.11,1.75c-.35.59-.68,1.21-1,1.85-3.29,6.85-4.29,16-2.16,25.47a40.93,40.93,0,0,0,4.42,11.4,37.08,37.08,0,0,0,5.66,7.51c.44.47.91.93,1.39,1.36a.75.75,0,0,0,.16.15,1.29,1.29,0,0,0,.17.16c.35.31.7.62,1.06.9a26.67,26.67,0,0,0,6,3.83,17.82,17.82,0,0,0,7.4,1.74,13.41,13.41,0,0,0,3-.33c3.69-.83,7.09-3.3,9.82-7a29.5,29.5,0,0,0,3.34-6,37.36,37.36,0,0,0,2.81-12.66A40.91,40.91,0,0,0,382.57,138.85Zm-6.33,21.77c-2,4.78-5,8.27-8.24,9.66l-.05,0a8.09,8.09,0,0,1-1.46.49c-.21.05-.43.09-.65.12h0c-3.69.52-8.29-1.37-12.49-5.14-.18-.16-.36-.32-.53-.49l-.15-.15c-.45-.42-.89-.87-1.31-1.34s-1-1.15-1.5-1.75a32,32,0,0,1-2.64-3.85A36,36,0,0,1,343,147.74c-1.71-7.59-1.22-14.91.94-20.55.29-.74.6-1.45.94-2.13a18.37,18.37,0,0,1,1.08-1.9,17,17,0,0,1,1.91-2.47,12.61,12.61,0,0,1,6.47-3.83,11.76,11.76,0,0,1,2.57-.28c4.42,0,8.88,2.45,12.62,6.59a37.3,37.3,0,0,1,8.27,16.75,35.59,35.59,0,0,1,.8,10A32.45,32.45,0,0,1,376.24,160.62Z"/><path d="M365,135.88a13.62,13.62,0,0,0-3.73,1.27,11.87,11.87,0,0,0-3.24,2.4,9.34,9.34,0,0,0-2.1,3.44,13.36,13.36,0,0,0-.75,4.19v.14a1.38,1.38,0,0,1-2.75,0,16.49,16.49,0,0,1,.26-5.27,13,13,0,0,1,2.24-5,16,16,0,0,1,3.94-3.84,18.17,18.17,0,0,1,5-2.45,2.63,2.63,0,0,1,1.54,5,2.33,2.33,0,0,1-.36.08Z"/><path class="cls-17" d="M297,312.27l32.63,46.91c49.56-15.63,84.74-58.86,84.74-58.86L357,407.19l27.7,14.86,71.82-133.87c15.92-29.68-17.44-61.44-46.29-44.07Z"/><path class="cls-18" d="M471.87,374.54l0,0-83,50.86H348.21a19.62,19.62,0,0,1,.83-3.5l16.8-31.32,12.09-22.54,0,0a32.33,32.33,0,0,0,26.75-1l12.88-6.42.08,0-15.64,32c34.85-18.65,53.43-21.06,62.46-20.25h.1l1,.11.74.1.19,0,.75.14h0l.71.16.67.17c.42.11.79.23,1.12.35l.35.13.12.05.4.17a8.14,8.14,0,0,1,.86.44l.16.1A1.77,1.77,0,0,1,471.87,374.54Z"/><path class="cls-14" d="M471.87,374.54l0,0-83,50.86H348.21a19.62,19.62,0,0,1,.83-3.5,9.12,9.12,0,0,1,7.35-4.78A92.76,92.76,0,0,0,371,414.68h0a187.43,187.43,0,0,0,21.2-6.59h0c6-2.25,12.11-4.85,18-7.73,24.92-12.17,46.9-28.46,54.31-27.92h.1l1,.11.74.1.19,0,.75.14h0l.71.16.67.17c.42.12.79.24,1.12.35l.35.13.12.05.4.17a8.14,8.14,0,0,1,.86.44l.16.1A1.77,1.77,0,0,1,471.87,374.54Z"/><path d="M424,418.34c-4.2,2.56-8.48,4.93-12.74,7.08H359.59a80.76,80.76,0,0,1,12.57-5.12q2.76-.93,5.76-1.89c3.36-1.09,6.92-2.23,10.57-3.46a161.11,161.11,0,0,0,25.1-10.46c29.46-15.92,52.92-32.59,58.25-29.93a1.72,1.72,0,0,1,.77.69C475.89,380.62,454.11,399.91,424,418.34Z"/><path class="cls-19" d="M186.42,294.46s-13-37.37,32.33-68.53a171.23,171.23,0,0,0,32.76-28.73A211.06,211.06,0,0,0,285.13,144c22.35-51,73.76-46.93,71.52,14.9C356.65,158.87,268,303.4,186.42,294.46Z"/><path d="M349.7,169.2c4.21-10.69,3.19-24.95-1.21-37.8-1.08-3.13-7.14-15.33-20.52-13.85-8.24.91-15.79,5.37-21.25,11.62s-9.18,13.78-13,21.15c-4.63,8.94-13,31.93-18.55,41.86-23.05,41.2-28.14,48.44-56.67,65.77C218.52,258,331.78,214.74,349.7,169.2Z"/><path class="cls-16" d="M354,148.57a67.79,67.79,0,0,0-1-7.79c-.17-.91-.36-1.81-.56-2.7-.61-2.62-1.32-5.1-2.21-7.73a26.32,26.32,0,0,0-4.24-7.19.21.21,0,0,0,0-.06c-.51-.61-1.05-1.2-1.62-1.76a18,18,0,0,0-1.78-1.6,19.37,19.37,0,0,0-11.47-4.42c-11.52-.21-21.81,6.39-28.3,15a93.94,93.94,0,0,0-8.42,13.55c-1.23,2.35-2.42,4.53-3.63,7s-2.21,4.8-3.26,7.19c-4.13,9.57-7.94,19.24-12.32,28.47-2.15,4.48-4.87,9-7.38,13.5s-5.13,9-7.8,13.39c-5.32,8.81-11,17.34-18.11,24.41-1.69,1.7-3.47,3.33-5.3,4.9s-3.61,3-5.49,4.47c-3.76,2.93-7.67,5.73-11.58,8.59l-1.57,1.14h0l-7.14,5.28,8.17-3.17c2.66-1,5.3-2.08,7.93-3.17q7.86-3.19,15.6-6.66,6.83-3,13.59-6.24c12.17-5.8,24.16-12,35.82-18.81,3.23-1.9,6.44-3.84,9.62-5.85a232.44,232.44,0,0,0,23.88-17c1.15-.95,2.29-1.91,3.42-2.91l0,0h0a118,118,0,0,0,11.33-11.15,78.9,78.9,0,0,0,5.68-7.28,52.61,52.61,0,0,0,5.31-9.66c.07-.15.13-.3.19-.45.26-.65.49-1.31.7-2,.29-.85.54-1.72.76-2.59.06-.21.11-.41.16-.62v0a47.85,47.85,0,0,0,1.22-9.2c0-.49,0-1,0-1.48C354.24,152.16,354.18,150.36,354,148.57ZM225.23,255.74c-2,1.11-4,2.18-6.09,3.21l-.51-1v0l-.51-1c1-.38,1.92-.76,2.87-1.16,1.16-.46,2.32-.93,3.48-1.42h0q5.35-2.21,10.64-4.54c1-.71,2.07-1.45,3.09-2.21h0a79,79,0,0,0,7.21-6c.94-.95,1.93-1.86,2.83-2.84l2.27-2.5h0l.42-.47c1.69-2.06,3.36-4.15,4.88-6.31,3.09-4.3,5.94-8.73,8.62-13.21s5.29-9,7.87-13.52l3.83-6.79c1.26-2.22,2.58-4.65,3.71-7C284.35,179.25,288,169.54,292,160c1-2.37,2-4.73,3.1-7s2.32-4.61,3.48-6.87a91.38,91.38,0,0,1,7.84-13,35.74,35.74,0,0,1,10.77-9.78,30,30,0,0,1,6.66-2.83,23.34,23.34,0,0,1,7-1,15.36,15.36,0,0,1,9.56,3.76,17.54,17.54,0,0,1,1.82,1.74c.18.21.37.42.55.64.4.47.78,1,1.15,1.47a22.41,22.41,0,0,1,2.54,4.57c.79,2.29,1.56,4.78,2.14,7.21a64.34,64.34,0,0,1,1.87,15q0,1.45-.09,2.91a42.7,42.7,0,0,1-.59,5.19c-.18,1-.4,2-.65,3h0c-.24.9-.51,1.79-.82,2.67-.09.28-.2.56-.3.84A58.92,58.92,0,0,1,337.62,185l-.59.66h0a126.12,126.12,0,0,1-13.69,13.15c-4.07,3.38-8.29,6.59-12.62,9.66-6.57,4.66-13.39,9-20.32,13.14-11.52,6.84-23.4,13.1-35.47,19q-7.68,3.71-15.47,7.21c-1.44.65-2.89,1.3-4.34,1.93-2.2,1.5-4.46,2.91-6.75,4.24C227.32,254.58,226.28,255.17,225.23,255.74Z"/><path class="cls-20" d="M198.85,282.16s.64-6.3,6.14-15.85c6.39-11.09,17-18.95,29.22-22.79,28-8.8,40.49-30,72.81-59.38s71.87-38.89,86.51-32.35c7.87,3.52,11.27,22.59-12.52,47.61-19,20-19.58,52.2-25.63,80.18-5.61,25.95-24.83,52.27-47.9,52.87H205Z"/><path class="cls-21" d="M304.37,215.23c-48.1,52.71-85.71,64.61-105.37,68.16l.48,3.84,122.66,25.51,24.21-9.37a86.78,86.78,0,0,0,9-23.79c6.05-28,6.62-60.18,25.63-80.18,10.22-10.74,15.41-20.38,17.4-28.17C384.35,164.86,351.15,164,304.37,215.23Z"/><path class="cls-14" d="M156.3,266.41h55.8a0,0,0,0,1,0,0V294.6a0,0,0,0,1,0,0H156.3a13.43,13.43,0,0,1-13.43-13.43v-1.32a13.43,13.43,0,0,1,13.43-13.43Z" transform="translate(-86.44 79.18) rotate(-20.34)"/><path class="cls-17" d="M140.24,369.58l77.39-34.41L203,261.1C160.69,283.78,140.24,369.58,140.24,369.58Z"/><path class="cls-14" d="M317.24,288c-16.45,4.12-33.68-.59-46.72-11.43-17.3-14.4-43.82-9.74-43.82-9.74l10.14,65.61h70.64c23.07-.6,42.29-26.92,47.9-52.87,1.77-8.14,3.06-16.65,4.49-25.1C346.92,275.34,331.25,284.49,317.24,288Z"/><polygon class="cls-22" points="185.02 349.66 220.43 425.42 125.15 425.42 118.03 392.03 141.18 365.91 174.86 327.92 185.02 349.66"/><polygon class="cls-23" points="373.25 425.42 195.6 425.42 179.96 351.92 174.86 327.92 352.51 327.92 356.67 347.47 365.84 390.6 365.85 390.66 365.85 390.67 370.96 414.67 370.96 414.68 372.16 420.3 373.25 425.42"/><path class="cls-24" d="M344.12,425.42H245.39a59.37,59.37,0,0,1-3.72-12.89c-3.42-20.39,5-38,20.11-46.67a44.13,44.13,0,0,1,22.06-5.63c28.12,0,54.85,23.41,59.68,52.3A52.36,52.36,0,0,1,344.12,425.42Z"/><polygon class="cls-25" points="279.04 425.42 270.07 425.42 275.55 422.55 279.04 425.42"/><path d="M325.81,414.08c-3.34-20-21.92-36.22-41.41-36.22A30.11,30.11,0,0,0,262.22,387c-.4.41-.8.85-1.18,1.3-6,7.08-8.35,16.55-6.66,26.67a41.43,41.43,0,0,0,3.26,10.48h5.84c-.44-.8-.84-1.62-1.21-2.46a36,36,0,0,1-2.72-8.88,28.18,28.18,0,0,1,2.75-18.44,24.47,24.47,0,0,1,2.74-4,24.8,24.8,0,0,1,19.36-8.56c17.05,0,33.31,14.28,36.25,31.84a31,31,0,0,1,0,10.48H326A36.08,36.08,0,0,0,325.81,414.08Z"/><path class="cls-4" d="M316.84,425.42H265.78a33.47,33.47,0,0,1-3.47-8.38c-.23-.89-.43-1.8-.58-2.72a27.27,27.27,0,0,1,.6-12.12c2.81-9.66,11.26-16.35,22.35-16.35,15.31,0,29.86,12.74,32.49,28.47A27.39,27.39,0,0,1,316.84,425.42Z"/><ellipse cx="294.75" cy="408.91" rx="13.92" ry="16.53" transform="translate(-199.61 310.48) rotate(-42.95)"/><path class="cls-16" d="M287.08,265a2.62,2.62,0,0,1-.44-5.2c.6-.1,14.39-2.72,15.44-18.55l.16-2.44h2.45c.86,0,8.69-.43,10.35-10.28a2.62,2.62,0,0,1,5.17.88c-1.65,9.76-8.36,13.46-13.12,14.39-2.46,18.08-19.39,21.14-19.57,21.17A3.25,3.25,0,0,1,287.08,265Z"/><path class="cls-17" d="M262.31,417c0,1.95,0,3.92,0,5.92,0,.81,0,1.63,0,2.46h-39l-10.85-87.95-.62-5-.56-4.53v0l-3-24.49L207,293.64l-.61-5L206,285l-.3-2.47h0l-.06-.49-1.7-13.75L203,261.1c1.15-.66,2.32-1.26,3.51-1.81a41.13,41.13,0,0,1,5.18-2,36.35,36.35,0,0,1,7.77-1.52c.49-.05,1-.09,1.49-.11s.84,0,1.27,0c.64,0,1.3,0,2,0h0l1,.06c.54,0,1.09.08,1.64.14a41.66,41.66,0,0,1,8.22,1.77,19.36,19.36,0,0,1,10.36,7.53c.37.5.73,1,1.09,1.6a40.35,40.35,0,0,1,3.11,6h0c.31.72.61,1.48.92,2.27,2.2,5.8,4.21,13.56,5.92,24,1.29,7.94,2.42,17.45,3.33,28.84.12,1.48.23,3,.34,4.53.7,9.77,1.25,20.85,1.62,33.41q.3,9.93.44,21.11c0,2.83.06,5.71.08,8.67q0,3.23,0,6.56Q262.36,409.37,262.31,417Z"/><path class="cls-16" d="M327.33,242.25a2.62,2.62,0,0,1-.06-5.23,14.3,14.3,0,0,0,9.41-4.48c2.85-3.27,3.93-8.16,3.22-14.52l-.28-2.57,2.56-.32c.34,0,8.38-1.2,9.2-8.64l.25-2.19,2.2-.14c.33,0,8.53-.67,11.17-7.68a2.62,2.62,0,1,1,4.9,1.85c-2.9,7.69-10.09,10-13.67,10.76-1.58,6.34-6.87,9.5-10.93,10.7.36,6.82-1.22,12.27-4.72,16.25a19.35,19.35,0,0,1-13.2,6.21Z"/><path class="cls-16" d="M323.12,276.4a2.63,2.63,0,0,1-1.09-5h0c.09,0,9.14-4.3,9.11-12.08v-2.18l2.15-.4c.31-.06,7.84-1.63,9.3-9.27a2.62,2.62,0,0,1,5.15,1,16.89,16.89,0,0,1-11.48,12.86C335,271.14,324.67,276,324.2,276.16A2.61,2.61,0,0,1,323.12,276.4Z"/><path class="cls-4" d="M340.86,275.55c-8.38-3.55-7.5,9.34-25.32,12.63-13.49,1.3-24-10.94-30.45-8.62C272,284.23,285,313,285,313s16.47-21.39,29.53-22.2,18.65,14.57,18.65,14.57S347.21,278.25,340.86,275.55Z"/><path d="M159.91,277.47a2.62,2.62,0,0,1-1.15-5l24.87-12.07a2.62,2.62,0,1,1,2.29,4.71l-24.87,12.07A2.6,2.6,0,0,1,159.91,277.47Z"/><path class="cls-21" d="M476.17,115.11l17,15.58a19.8,19.8,0,0,0,19,4.38l46.67-13.85a14.06,14.06,0,0,1,12.57,2.33h0a4.55,4.55,0,0,1-1,7.79l-45.05,18.9-25.23,12.3L485,183.67,467.51,163.9l7.39-12.05a16.5,16.5,0,0,0-1-18.7l-7.2-9.34a6.45,6.45,0,0,1-1.11-5.63h0A6.45,6.45,0,0,1,476.17,115.11Z"/><path class="cls-16" d="M531.31,157.62c3.59-6.13-.49-14.18-7.12-14.06-8.71.15-19,.37-25,.64a8,8,0,0,0-6.87,4.92l-4.93,11.06a9.38,9.38,0,0,0,2.3,10.86c2.87,2.44,6.63,5.55,10.27,8.53a13.56,13.56,0,0,0,18.74-1.29,6.26,6.26,0,0,1,3.47-2c2.28-.33,5.2-3,7.3-7.06s2.83-8.46,1.8-10.73a.92.92,0,0,1,0-.87Z"/><path class="cls-26" d="M508,151.69l-14.59-4.35a9,9,0,0,0-1.07,1.78l-1.32,3,15.48,4.61a2.43,2.43,0,0,0,.75.11,2.62,2.62,0,0,0,.75-5.13Z"/><path class="cls-26" d="M502.82,161.55l-14.14-4.22-1.27,2.85a9.65,9.65,0,0,0-.62,2l14.53,4.34a2.78,2.78,0,0,0,.75.11,2.62,2.62,0,0,0,.75-5.13Z"/><path class="cls-16" d="M247.88,257.13c-.15-.85-2.85-9.51-11.17-9.75a15,15,0,0,0-4.6.49,15.71,15.71,0,0,0-11.29-2.24c-5.71.85-10.19,4.11-11.49,7.92a9.77,9.77,0,0,0-7.19,1.44c-4.14,2.67-5.65,7.7-3.57,11.48,1.33,3.69,4.62,7.82,5.8,11.58,3.52,11.1,3,16.89,8.14,19.17,2.57,1.14,7.27,1.23,12.26.75a77,77,0,0,0,14-2.65c7.5-2.26,10-6.12,10.72-18.1A78.2,78.2,0,0,0,247.88,257.13Z"/><path class="cls-26" d="M221.34,298.21c1.11,0,2.26-.12,3.43-.24.61-.05,1.22-.12,1.83-.19.67-14.08-3.48-22.8-3.69-23.22a2.62,2.62,0,1,0-4.7,2.31C218.25,277,222.12,285,221.34,298.21Z"/><path class="cls-26" d="M238.81,295.32a18.63,18.63,0,0,0,4.09-1.71,57.74,57.74,0,0,0-1.9-20,2.62,2.62,0,0,0-5,1.61,54.94,54.94,0,0,1,1.44,20.45Z"/><path d="M415.38,299.81a2.61,2.61,0,0,1-2.33-3.8l7.8-15.36a2.62,2.62,0,1,1,4.67,2.37l-7.8,15.36A2.61,2.61,0,0,1,415.38,299.81Z"/><path d="M208.31,303.72a2.62,2.62,0,1,0-5.2.64L206,327.9h5.28Z"/><path class="cls-27" d="M690.75,59.29l-9.93-3.48a2.6,2.6,0,0,1,0-4.91l9.93-3.48a2.58,2.58,0,0,0,1.6-1.59l3.48-9.94a2.59,2.59,0,0,1,4.9,0l3.48,9.94a2.59,2.59,0,0,0,1.59,1.59l9.94,3.48a2.6,2.6,0,0,1,0,4.91l-9.94,3.48a2.59,2.59,0,0,0-1.59,1.59l-3.48,9.94a2.59,2.59,0,0,1-4.9,0l-3.48-9.94A2.58,2.58,0,0,0,690.75,59.29Z"/><path class="cls-11" d="M493,32a4.16,4.16,0,0,0-4.16,4.16v25A4.16,4.16,0,0,0,493,65.26h6.24v8.32l8.32-8.32h18.72a4.17,4.17,0,0,0,4.16-4.16v-25A4.16,4.16,0,0,0,526.26,32Z"/><path class="cls-4" d="M321.77,493.73a4.43,4.43,0,0,0,4.42-4.44l0-8.88a4.44,4.44,0,0,0-8.88,0v8.88A4.44,4.44,0,0,0,321.77,493.73Z"/><path class="cls-4" d="M329.61,489.29a7.85,7.85,0,0,1-15.69,0h-2.51a10.33,10.33,0,0,0,8.88,9.94v6.34h3v-6.34a10.31,10.31,0,0,0,8.88-9.94Z"/></g></svg>