<svg width="410" height="260" fill="none" xmlns="http://www.w3.org/2000/svg"><g mask="url(#mask0_614_14674)"><path d="M421 266.041v-13.917a30.884 30.884 0 0 0-9.033-21.822 30.81 30.81 0 0 0-21.804-9.031H378.22a12.08 12.08 0 0 1-8.525-3.538L333.9 181.8a84.76 84.76 0 0 0-59.999-24.867h-28.14a31.39 31.39 0 0 1-22.16-9.188L220 144.073a58.123 58.123 0 0 0-41.121-17.053H21.512a65.608 65.608 0 0 0-46.397 19.232l-24.137 24.213h-23.081a32.458 32.458 0 0 0-22.966 9.523 32.528 32.528 0 0 0-9.512 22.99 4.235 4.235 0 0 1-1.243 2.994 4.214 4.214 0 0 1-2.995 1.231h-131.588a50.739 50.739 0 0 0-37.738 16.768L-316 266.041h737z" fill="#002473" opacity=".15"/><path opacity=".8" d="M230.199 224.422h-39.491V258h39.491v-33.578z" fill="#3E70DD"/><path d="M239.465 208.198h-26.151L209.075 258h34.63l-4.24-49.802z" fill="#85A5FF"/><path d="M240.812 237.132h-58.313V258h58.313v-20.868z" fill="#7196FF"/><path d="M240.46 237.142 238.688 258h-1.524l1.793-20.858h1.503z" fill="#3E70DD"/><path d="M168.455 230.321h13.806L184.624 258h-18.533l2.364-27.679z" fill="#7196FF"/><path d="M166.091 231.399h18.533v-3.482h-18.533v3.482z" fill="#7196FF"/><path d="M166.091 227.916h18.533v-3.483h-18.533v3.483z" fill="#3E70DD"/><path d="M180.457 228.58h4.167v-4.157h-4.167v4.157zm-8.095 0h6.178v-4.157h-6.178v4.157zm-6.271 0h4.799v-4.157h-4.799v4.157z" fill="#7196FF"/><path d="M247.954 238.427a1.52 1.52 0 0 1 1.107.428 1.51 1.51 0 0 1 .458 1.096v2.415h-3.11v-2.415a1.514 1.514 0 0 1 1.545-1.524zm-72.596.001a1.513 1.513 0 0 1 1.513 1.513v2.415h-3.016v-2.405a1.513 1.513 0 0 1 1.513-1.513l-.01-.01z" fill="#3E70DD"/><path d="M254.857 230.321h-13.806L238.688 258h18.532l-2.363-27.679z" fill="#7196FF"/><path d="M257.22 227.906h-18.532v3.482h18.532v-3.482z" fill="#7196FF"/><path d="M257.22 224.422h-18.532v3.483h18.532v-3.483z" fill="#3E70DD"/><path d="M244.865 224.422h-6.177v4.157h6.177v-4.157zm8.095 0h-6.177v4.157h6.177v-4.157zm4.27 0h-2.798v4.157h2.798v-4.157zm-41.159-16.234h20.648v-17.654h-20.648v17.654z" fill="#7196FF"/><path d="M182.851 237.142 184.624 258h1.523l-1.793-20.858h-1.503z" fill="#3E70DD"/><path d="M243.051 202.342h-33.323v5.845h33.323v-5.845z" fill="#85A5FF"/><path d="M243.051 198.858h-33.323v3.483h33.323v-3.483z" fill="#7196FF"/><path d="M228.063 198.858h-12.002v4.157h12.002v-4.157zm10.604 0h-7.452v4.157h7.452v-4.157zm4.395 0h-2.799v4.157h2.799v-4.157zm-33.324 4.157h3.763v-4.156h-3.763v4.156z" fill="#85A5FF"/><path d="m226.395 182.282-7.235 8.263h14.459l-7.224-8.263zm21.559 56.145a1.52 1.52 0 0 1 1.107.428 1.51 1.51 0 0 1 .458 1.096v2.415h-3.11v-2.415a1.514 1.514 0 0 1 1.545-1.524z" fill="#3E70DD"/><path d="M211.656 244.171a5.324 5.324 0 0 1 5.327 5.328V258h-10.655v-8.49a5.342 5.342 0 0 1 1.557-3.775 5.34 5.34 0 0 1 3.771-1.564zm15.298-69.933h-1.14v8.698h1.14v-8.698z" fill="#85A5FF"/><path d="M226.395 174.611a.912.912 0 1 0 0-1.824.912.912 0 0 0 0 1.824z" fill="#85A5FF"/><path d="M236.334 175.077h-9.37v7.05h9.37v-7.05z" fill="#7196FF"/><path d="M242.035 176.954h-9.37v7.049h9.37v-7.049z" fill="#7196FF"/><path d="M232.665 182.116h3.659l-3.659 1.887v-1.887z" fill="#3E70DD"/><path d="M270 246.317a3.95 3.95 0 1 0-7.898 0v3.441a3.95 3.95 0 1 0 7.898 0v-3.441z" fill="#3E70DD" opacity=".2"/><path d="M266.559 245.985h-1.005V258h1.005v-12.015zm7.401 4.623a3.95 3.95 0 0 1 3.949 3.95V258h-7.898v-3.432a3.95 3.95 0 0 1 3.949-3.96z" fill="#3E70DD" opacity=".2"/><path d="M187.557 195.676a1.451 1.451 0 0 0 0 2.902h1.451a1.45 1.45 0 1 0 0-2.902h-1.451zm-11.608 0a1.452 1.452 0 1 0 0 2.902h1.451a1.45 1.45 0 1 0 0-2.902h-1.451zm5.068-3.628a1.451 1.451 0 0 0 2.902 0v-1.451a1.45 1.45 0 1 0-2.902 0v1.451zm0 11.61a1.45 1.45 0 1 0 2.902 0v-1.451a1.45 1.45 0 1 0-2.902 0v1.451z" fill="#3E70DD" opacity=".4"/><path d="M95.503 242.643H54.548v15.435h40.955v-15.435z" fill="#7196FF"/><path d="M110.342 246.184c0-2.283-1.861-4.134-4.155-4.134-2.295 0-4.155 1.851-4.155 4.134v3.603c0 2.284 1.86 4.135 4.155 4.135 2.294 0 4.155-1.851 4.155-4.135v-3.603z" fill="#3E70DD" opacity=".2"/><path d="M106.78 245.611h-1.187v12.467h1.187v-12.467zm-85.47.573c0-2.283-1.86-4.134-4.155-4.134S13 243.901 13 246.184v3.603c0 2.284 1.86 4.135 4.155 4.135 2.294 0 4.155-1.851 4.155-4.135v-3.603z" fill="#3E70DD" opacity=".2"/><path d="M17.748 245.611h-1.187v12.467h1.187v-12.467zm100.607 4.75c1.023 0 2.004.434 2.728 1.207a4.277 4.277 0 0 1 1.13 2.916v3.594h-7.716v-3.583a4.36 4.36 0 0 1 .29-1.581c.194-.502.478-.958.836-1.342a3.842 3.842 0 0 1 1.253-.896 3.642 3.642 0 0 1 1.479-.315z" fill="#3E70DD" opacity=".2"/><path d="m86.6 233.739-8.903 8.904h17.806l-8.903-8.904z" fill="#7196FF"/><path d="m63.443 233.739-8.895 8.904h23.157l8.895-8.904H63.443z" fill="#3E70DD" opacity=".2"/><path d="M86.6 246.799c.787 0 1.542.32 2.098.89.557.57.87 1.344.87 2.15v8.239h-5.936v-8.239c0-.806.313-1.58.87-2.15a2.933 2.933 0 0 1 2.098-.89z" fill="#85A5FF"/><path d="M47.908 220.678h-4.525l-2.486 37.4h9.497l-2.486-37.4z" fill="#7196FF"/><path d="m46.239 226.398-1.616-1.564-12.036 9.8 3.37 3.26 10.282-11.496z" fill="#85A5FF"/><path d="m46.669 227.209-1.618-1.635 10.279-12.019 3.373 3.408-12.034 10.246z" fill="#85A5FF"/><path d="m45.198 226.021 1.634-1.607-10.244-12.046-3.407 3.373 12.017 10.28zm-.74 1.024 1.633-1.617 12.019 10.28-3.405 3.373-10.247-12.036z" fill="#85A5FF"/><path d="M71.761 248.58c.473 0 .925.168 1.26.469.333.3.521.707.521 1.131v2.555h-3.561v-2.555c0-.21.046-.418.135-.612.09-.194.22-.371.386-.519a1.8 1.8 0 0 1 .578-.347c.216-.081.448-.122.681-.122zm-9.2 0c.394 0 .771.168 1.05.469.278.3.434.707.434 1.131v2.555h-2.968v-2.555c0-.424.157-.831.435-1.131a1.428 1.428 0 0 1 1.05-.469z" fill="#3E70DD"/><path d="M123.671 232.179a1.439 1.439 0 1 0 0 2.877h1.449a1.438 1.438 0 1 0 0-2.877h-1.449zm-11.53 0a1.439 1.439 0 1 0 0 2.877h1.449a1.438 1.438 0 1 0 0-2.877h-1.449zm5.046-3.608a1.438 1.438 0 1 0 2.877 0v-1.449a1.439 1.439 0 1 0-2.877 0v1.449zm0 11.532a1.438 1.438 0 0 0 2.877 0v-1.45a1.438 1.438 0 0 0-2.877 0v1.45z" fill="#3E70DD" opacity=".2"/><path d="M312.465 95.176v67.236l26.947 26.986 27.063-26.986V95.176l-27.063-27.101-26.947 27.101z" fill="#F2F3F4"/><path d="M418.181 88.026 492.69 74.88l-23.032 30.446c-4.492 5.997-11.056 9.918-18.426 11.302l-52.398 9.226-1.497-8.188 20.844-29.639z" fill="#DAE2ED"/><path d="m395.38 80.414 110.208-19.49c.921-.115 1.612.923 1.036 1.615L499.6 72.11c-.806 1.038-1.958 1.845-3.34 2.076l-3.57.576-74.509 13.147-20.613 29.524 1.497 8.188 1.036 6.113-23.262 33.329-13.013-26.871-2.534-14.301 27.524-39.326c1.382-2.076 3.8-3.575 6.564-4.152z" fill="#ECEFF6"/><path d="m397.453 117.55 20.729-29.524L492.69 74.88l-4.606 6.112-67.023 11.879-19.117 27.332.806 4.959-3.8.692-1.497-8.303z" fill="#C5CEDD"/><path d="M404.132 97.482a3.457 3.457 0 0 0 3.455-3.46c0-1.91-1.547-3.46-3.455-3.46a3.457 3.457 0 0 0-3.455 3.46 3.458 3.458 0 0 0 3.455 3.46zm-6.564 9.342a3.458 3.458 0 0 0 3.455-3.46c0-1.91-1.547-3.46-3.455-3.46a3.458 3.458 0 0 0-3.455 3.46 3.458 3.458 0 0 0 3.455 3.46zM260.757 88.026 186.249 74.88l23.032 30.446c4.491 5.997 11.055 9.918 18.425 11.302l52.398 9.226 1.497-8.188-20.844-29.639z" fill="#DAE2ED"/><path d="M283.559 80.414 173.351 61.04c-.922-.115-1.612.923-1.037 1.615l7.025 9.572c.806 1.038 1.958 1.845 3.34 2.076l3.57.576 74.508 13.148 20.614 29.523-1.497 8.189-1.037 6.112L302.1 165.18l13.013-26.871 2.533-14.3-27.523-39.327c-1.382-2.19-3.8-3.69-6.564-4.267z" fill="#ECEFF6"/><path d="m281.371 117.55-20.614-29.524-74.508-13.147 4.606 6.112 66.908 11.879 19.232 27.332-.921 4.959 3.915.692 1.382-8.303z" fill="#C5CEDD"/><path d="M187.285 72.803a3.457 3.457 0 0 0 3.455-3.46c0-1.91-1.547-3.46-3.455-3.46a3.457 3.457 0 0 0-3.455 3.46 3.458 3.458 0 0 0 3.455 3.46zm87.522 24.68a3.457 3.457 0 0 0 3.455-3.46 3.458 3.458 0 0 0-3.455-3.46 3.457 3.457 0 0 0-3.455 3.46c0 1.91 1.547 3.46 3.455 3.46zm6.564 9.341a3.457 3.457 0 0 0 3.455-3.459 3.458 3.458 0 0 0-3.455-3.46 3.457 3.457 0 0 0-3.454 3.46 3.456 3.456 0 0 0 3.454 3.459z" fill="#DAE2ED"/><path d="M324.787 104.287v49.014l14.625 14.646 14.741-14.646v-49.014l-14.741-14.762-14.625 14.762z" fill="#F47FFF"/><path d="M361.408 101.173v55.126l-21.996 22.028-21.995-22.028v-55.126l21.995-22.027V48.008l-43.991 44.054v73.348l43.991 44.055 43.991-44.055V92.063l-21.995 9.11z" fill="#F47FFF"/><path d="m361.408 101.173 21.995-9.11-43.991-44.055v31.138l21.996 22.027z" fill="#FFC0FF"/><path d="m306.007 65.603-5.141 6.08c-1.209 1.364.038 3.528 1.822 3.162l7.828-1.42a2.01 2.01 0 0 1 1.704.456l6.069 5.144c1.362 1.21 3.524-.04 3.159-1.827l-1.413-7.836a2.02 2.02 0 0 1 .457-1.707l4.976-5.984c1.208-1.364-.039-3.528-1.823-3.162l-7.828 1.42a2.01 2.01 0 0 1-1.704-.456l-6.069-5.145c-1.362-1.21-3.523.041-3.159 1.827l1.413 7.837c.253.63.112 1.156-.291 1.61z" fill="#FFCFF9"/></g></svg>