<svg width="17" height="18" viewBox="0 0 17 18" fill="none" xmlns="http://www.w3.org/2000/svg">
<g clip-path="url(#clip0_1151_34802)">
<path fill-rule="evenodd" clip-rule="evenodd" d="M9.50158 0L12.75 3.4395V9.0615C11.3687 9.27075 10.1724 10.0785 9.40383 11.2343L8.5 9L5.66667 12.75L4.25 11.25L2.125 14.25H8.5V14.2507C8.5 15.057 8.67708 15.8175 8.98308 16.5H1.41667C0.635375 16.5 0 15.8273 0 15V1.5C0 0.6735 0.635375 0 1.41667 0H9.50158ZM2.125 7.875C2.125 8.9115 2.91692 9.75 3.89583 9.75C4.87262 9.75 5.66667 8.9115 5.66667 7.875C5.66667 6.83925 4.87262 6 3.89583 6C2.91692 6 2.125 6.83925 2.125 7.875ZM8.5 0.75V4.5H12.0417L8.5 0.75ZM10.1242 14.4697L13.4583 10.9395L16.7924 14.4697L15.7909 15.5295L14.1666 13.8105V18.0007H12.75V13.8105L11.1258 15.5295L10.1242 14.4697Z" fill="white"/>
</g>
<defs>
<clipPath id="clip0_1151_34802">
<rect width="17" height="18" fill="white"/>
</clipPath>
</defs>
</svg>
