<svg width="167" height="149" viewBox="0 0 167 149" fill="none" xmlns="http://www.w3.org/2000/svg">
<path d="M116.882 96.8096C117.455 102.566 119.849 109.036 119.849 109.036L135.603 112.296L130.051 96.5039L116.882 96.8096Z" fill="#3333D3"/>
<path d="M131.679 62.7037C131.679 62.7037 104.03 62.9712 94.1731 61.5448L83.437 62.3853C83.4243 67.5305 89.0152 75.5285 103.738 76.3054C102.846 79.3492 102.464 84.3542 102.464 84.3542C95.6886 83.4628 92.2628 83.7557 90.5944 85.8188C88.5312 88.366 89.0279 91.8046 89.0279 99.6497L103.05 103.177L102.655 97.1026C102.655 97.1026 116.244 99.3058 125.605 98.0832C130.571 97.421 134.774 95.205 136.455 90.4291C140.378 79.311 131.679 62.7037 131.679 62.7037Z" fill="#698EFD"/>
<path d="M151.089 95.1796C153.229 96.4659 154.082 99.2295 152.821 101.713C151.56 104.196 148.771 105.241 146.53 104.184C143.664 102.821 139.13 97.1536 140.009 95.4216C140.888 93.6895 148.351 93.5367 151.089 95.1796Z" fill="#698EFD"/>
<path d="M114.754 66.8683C122.612 66.1678 128.763 61.9906 128.763 61.9906L100.49 60.8826C100.49 60.8826 102.783 64.1684 105.852 65.6329C108.412 66.8683 110.755 67.2122 114.754 66.8683Z" fill="#3333D3"/>
<path d="M38.1129 142.479C38.5968 141.422 41.0166 138.761 47.4735 136.086C50.5046 134.825 52.0456 133.17 51.3834 131.565C50.6065 129.68 46.8622 128.534 42.2901 133.488C38.5331 137.563 36.7884 140.365 34.5724 139.728C31.9361 138.977 32.4328 134.418 32.0889 129.374C31.7196 123.796 28.9687 122.446 27.0202 123.249C25.0716 124.051 24.9443 126.815 27.6952 131.985C31.1083 138.391 29.2234 140.161 27.8607 140.314C26.498 140.467 24.9443 137.067 20.092 132.8C17.2774 130.33 13.8898 130.1 12.7436 131.743C11.8521 133.017 12.5525 134.914 15.7746 136.43C19.5189 138.2 24.9061 140.785 24.7914 143.766C24.7405 145.217 23.4033 146.096 21.8113 145.128C19.9137 143.969 17.3793 142.721 15.5581 142.951C12.9346 143.269 12.6289 145.689 14.0935 147.115C15.5581 148.541 19.1368 149 23.3141 149H42.0227C48.3141 149 50.9758 147.383 50.5301 144.963C50.1607 142.951 47.9957 142.314 44.4297 144.135C42.4684 145.141 40.3416 145.408 39.4119 145.065C37.8454 144.479 37.6417 143.536 38.1129 142.479Z" fill="#89D7FD"/>
<path d="M76.8912 32.2401C81.6671 37.3089 86.15 42.696 86.15 42.696L85.2713 45.8035C85.2713 45.8035 80.177 39.7286 75.6559 33.6028C75.0828 32.8259 74.9172 32.4566 75.2993 31.9727C75.6814 31.4887 76.1016 31.3996 76.8912 32.2401Z" fill="#FDBF69"/>
<path d="M89.169 26.7765C87.4497 29.5146 85.6667 32.6858 85.6667 32.6858L86.1252 38.3022C86.0743 37.0668 89.9204 29.1708 91.1303 26.8019C91.6525 25.7831 91.6525 25.3246 91.3723 25.0954C91.0921 24.8661 90.4935 24.6878 89.169 26.7765Z" fill="#FDBF69"/>
<path d="M92.3269 9.73638C79.0564 34.9911 91.0533 65.2254 108.59 83.3481C109.8 84.5962 110.501 85.2457 109.1 86.3792C108.297 87.016 107.431 87.3853 106.489 86.3919C87.5765 66.5117 75.1848 34.1505 90.9515 9.08686C91.0598 8.92585 91.2197 8.80656 91.4049 8.74868C91.5902 8.6908 91.7896 8.69778 91.9703 8.76847C92.3269 8.89583 92.6198 9.21422 92.3269 9.73638Z" fill="#FDBF69"/>
<path d="M89.7415 10.3477C90.5017 10.2921 91.2619 10.4556 91.932 10.8189C92.6197 11.1755 92.4287 11.8122 91.8429 13.1622C91.257 14.5122 91.0151 14.7414 89.8052 14.6778C89.1429 14.6395 88.3661 14.4995 87.7675 13.99C87.1689 13.4806 87.4873 12.7674 87.984 11.8122C88.2769 11.2391 88.8755 10.4113 89.7415 10.3477Z" fill="white"/>
<path d="M88.1367 14.2447C88.1367 14.2447 88.2641 13.9645 88.3023 13.9008C88.3405 13.8371 88.4678 13.7098 88.748 13.7353C89.1813 13.7821 89.6035 13.9027 89.9961 14.0919C90.1871 14.2065 90.1999 14.3466 90.1617 14.4484C90.1235 14.5503 90.0725 14.6777 90.0725 14.6777L89.9961 14.856L88.3532 14.9324L88.1367 14.2447Z" fill="#FDBF69"/>
<path d="M93.9571 64.8049C95.4727 58.9593 92.9765 55.5207 90.2129 54.9348C86.736 54.2216 83.0427 56.8834 83.4375 62.3852C83.9597 69.81 91.3463 69.9628 91.3463 69.9628C91.3463 69.9628 93.2439 67.5685 93.9571 64.8049Z" fill="#698EFD"/>
<path d="M128.61 71.211C118.282 69.1988 111.481 67.4795 105.075 68.855C101.114 69.6955 95.5485 72.9686 96.5292 77.3369C97.1532 80.126 100.235 81.6542 102.833 81.0175C103.992 80.7373 104.782 80.3552 105.546 80.0113C110.933 81.2849 120.217 82.2655 124.522 80.8646C128.827 79.4637 128.61 71.211 128.61 71.211Z" fill="url(#paint0_linear_808_29719)"/>
<path d="M123.784 81.5524C122.548 81.9981 120.969 82.1637 119.237 82.1637C116.346 82.1637 113.048 81.7052 110.169 81.2977C109.189 81.1576 108.246 81.0302 107.444 80.9411C107.099 80.8953 106.747 80.9214 106.412 81.0175L105.534 80.0114C106.081 79.7057 106.82 79.5784 107.597 79.6675L110.348 80.0368C114.576 80.6354 120.358 81.4377 123.351 80.3552C126.815 79.0944 128.432 75.6431 128.165 70.1285C128.161 70.0449 128.175 69.9614 128.203 69.8828C128.232 69.8043 128.276 69.7322 128.333 69.6707C128.39 69.6092 128.458 69.5594 128.534 69.5244C128.61 69.4893 128.693 69.4696 128.776 69.4663C128.859 69.4611 128.942 69.4726 129.021 69.5001C129.099 69.5275 129.172 69.5704 129.233 69.6262C129.295 69.6819 129.345 69.7495 129.38 69.8248C129.415 69.9001 129.435 69.9818 129.438 70.0649C129.731 76.127 127.783 80.0878 123.784 81.5524Z" fill="#3333D3"/>
<path d="M111.966 25.9743L112.233 21.1985C113.927 20.6254 120.982 20.3452 124.587 21.9881C128.968 23.9748 131.464 27.0696 131.477 29.4257V31.094L111.966 25.9743Z" fill="#FDBF69"/>
<path d="M138.329 57.5204C138.252 57.8133 138.176 58.0807 138.087 58.3355C136.571 63.2514 134.101 63.5061 129.529 63.5061C119.888 63.5061 113.444 63.4297 103.828 63.4297C99.0651 63.4297 96.6453 61.4939 94.06 55.3171C92.6209 51.8785 90.9398 47.5102 92.1624 41.5881C93.2322 36.4048 96.276 32.0237 99.1542 29.6039C102.032 27.1842 109.916 25.1847 115.66 25.1847C119.353 25.1847 126.039 25.4776 134.101 30.1516C136.673 31.6416 138.52 33.3355 139.169 36.6849C139.168 36.7111 139.172 36.7372 139.182 36.7613C140.341 42.849 139.934 51.4073 138.329 57.5204Z" fill="white"/>
<path d="M114.283 27.9482C114.538 27.9482 114.92 28.1774 116.792 26.9039C118.664 25.6303 120.256 25.3629 121.721 25.4647V24.2039L113.634 23.7582L114.283 27.9482Z" fill="#FDBF69"/>
<path d="M138.328 57.5203C138.252 57.8132 138.176 58.0806 138.086 58.3353C136.444 57.1255 135.45 52.3878 135.896 45.154C136.214 39.7414 137.182 36.9523 139.182 36.7612C140.341 42.8488 139.933 51.4072 138.328 57.5203Z" fill="#C7CCD1"/>
<path d="M112.424 21.1475C111.1 21.1475 109.597 27.4134 110.119 27.8082C110.641 28.203 110.998 27.719 112.424 27.719C113.851 27.719 114.284 28.152 114.742 27.8082C115.201 27.4643 113.749 21.1475 112.424 21.1475Z" fill="#FD8A1A"/>
<path d="M131.069 44.135C130.865 45.8034 130.114 47.892 127.987 51.3943C125.86 54.8966 124.459 55.5079 122.663 55.5079H102.719C101.166 55.5079 99.1661 54.8711 97.1412 49.2929C96.4025 47.2298 95.9822 45.4468 96.0586 43.7529C96.1351 42.0591 96.9119 38.646 98.593 36.0479C101.089 32.1763 103.764 31.2593 104.884 31.5904C106.222 31.9852 106.655 33.3225 107.865 35.08C108.068 35.3602 108.272 35.6404 108.514 35.9333C109.469 37.1304 110.552 37.054 111.914 36.0352C112.297 35.7422 112.691 35.4111 113.086 35.08C114.984 33.488 116.996 31.6414 119.619 31.6286C121.11 31.6159 123.988 31.756 127.541 36.6592C130.521 40.7728 131.285 42.2883 131.069 44.135Z" fill="#698EFD"/>
<path d="M139.274 36.2394L141.414 26.7004C141.479 26.4444 141.639 26.2225 141.861 26.0795C142.083 25.9365 142.351 25.883 142.611 25.9299C142.871 25.9767 143.104 26.1204 143.262 26.3319C143.42 26.5434 143.493 26.8071 143.464 27.0698L142.114 36.7616L139.274 36.2394Z" fill="#C7CCD1"/>
<path d="M146.075 23.7841H136.689V40.5428H146.075V23.7841Z" fill="white"/>
<path d="M140.177 29.5275C140.432 28.203 143.998 27.9356 143.501 31.5016L142.865 38.3788L138.076 37.6783L140.177 29.5275Z" fill="#C7CCD1"/>
<path d="M139.796 34.9657C137.643 34.9657 135.899 39.525 135.899 45.1542C135.899 50.7833 137.643 55.3426 139.796 55.3426C142.317 55.3426 144.189 51.6239 144.189 45.1542C144.189 38.6845 142.317 34.9657 139.796 34.9657Z" fill="#E3E5E8"/>
<path d="M145.119 45.2433C145.068 50.7578 144.457 52.7446 143.425 52.9229C142.936 52.9982 142.436 52.9455 141.974 52.7701C141.171 52.4007 140.598 49.1532 140.598 45.1542C140.598 41.1552 141.159 38.5444 141.821 37.9713C142.114 37.7293 142.814 37.6657 143.425 37.9331C144.342 38.3406 145.17 39.4996 145.119 45.2433Z" fill="#FDBF69"/>
<path d="M145.119 45.2433C145.106 46.5678 145.055 47.6885 144.991 48.631C143.845 47.1282 143.043 46.3258 142.89 45.8291C142.635 45.0523 142.852 43.8679 142.953 42.6707C143.055 41.4736 143.501 41.8047 145.119 44.1862V45.2433Z" fill="#FD8A1A"/>
<path d="M122.752 51.9038C121.962 51.8529 121.122 50.8977 120.549 49.8789C120.289 49.4162 120.083 48.9246 119.938 48.4143C119.772 47.7902 120.065 47.5992 120.256 47.4591C121.096 46.8478 124 46.1346 124.382 46.7459C124.525 46.9959 124.612 47.274 124.637 47.561C124.828 49.1529 124.204 51.993 122.752 51.9038Z" fill="#E9459D"/>
<path d="M122.752 51.904C121.962 51.8531 121.122 50.8979 120.549 49.879C120.956 49.3187 121.58 48.6437 122.395 48.2361C123.1 47.8879 123.857 47.6598 124.637 47.5612C124.828 49.1531 124.204 51.9931 122.752 51.904Z" fill="#FDABD5"/>
<path d="M100.299 41.2567C101.129 41.2567 101.802 40.5839 101.802 39.7539C101.802 38.9239 101.129 38.2511 100.299 38.2511C99.4691 38.2511 98.7963 38.9239 98.7963 39.7539C98.7963 40.5839 99.4691 41.2567 100.299 41.2567Z" fill="black"/>
<path d="M122.051 41.2567C122.881 41.2567 123.554 40.5839 123.554 39.7539C123.554 38.9239 122.881 38.2511 122.051 38.2511C121.221 38.2511 120.549 38.9239 120.549 39.7539C120.549 40.5839 121.221 41.2567 122.051 41.2567Z" fill="black"/>
<path d="M119.123 37.8054V43.0015C119.123 44.1263 118.676 45.205 117.881 46.0003C117.086 46.7957 116.007 47.2425 114.882 47.2425H108.247C106.913 47.2425 105.633 46.7125 104.69 45.7691C103.746 44.8257 103.216 43.5461 103.216 42.2119V37.8054C103.216 37.4464 103.287 37.091 103.425 36.7595C103.563 36.428 103.765 36.127 104.019 35.8737C104.274 35.6205 104.576 35.42 104.908 35.2838C105.24 35.1476 105.596 35.0783 105.955 35.08H107.865C108.069 35.3602 108.272 35.6403 108.514 35.9333C109.47 37.1304 110.552 37.054 111.915 36.0352C112.297 35.7422 112.692 35.4111 113.087 35.08H116.398C117.121 35.08 117.814 35.3671 118.325 35.8782C118.836 36.3894 119.123 37.0826 119.123 37.8054Z" fill="#B5CAFD"/>
<path d="M108.247 39.4993H106.362C106.027 39.4993 105.707 39.6321 105.47 39.8686C105.234 40.105 105.101 40.4257 105.101 40.7601C105.101 41.0945 105.234 41.4152 105.47 41.6516C105.707 41.8881 106.027 42.0209 106.362 42.0209H108.247C108.581 42.0209 108.902 41.8881 109.138 41.6516C109.375 41.4152 109.508 41.0945 109.508 40.7601C109.508 40.4257 109.375 40.105 109.138 39.8686C108.902 39.6321 108.581 39.4993 108.247 39.4993Z" fill="#698EFD"/>
<path d="M114.779 39.4993H112.907C112.572 39.4993 112.251 39.6321 112.015 39.8686C111.779 40.105 111.646 40.4257 111.646 40.7601C111.646 41.0945 111.779 41.4152 112.015 41.6516C112.251 41.8881 112.572 42.0209 112.907 42.0209H114.779C115.113 42.0209 115.434 41.8881 115.67 41.6516C115.907 41.4152 116.039 41.0945 116.039 40.7601C116.039 40.4257 115.907 40.105 115.67 39.8686C115.434 39.6321 115.113 39.4993 114.779 39.4993Z" fill="#698EFD"/>
<path d="M136.622 115.467L80.0507 100.592L69.2637 116.855C69.2637 116.855 71.6579 126.28 74.4216 133.628C77.096 140.735 79.1847 144.199 81.9738 147.879C82.5087 148.605 82.7124 149 84.0879 149H149.014C150.479 149 150.644 148.847 151.103 148.057C157.19 137.627 159.164 123.223 159.546 118.702L136.622 115.467Z" fill="#FDBF69"/>
<path d="M157.839 129.527L157.533 130.865C155.47 131.15 153.389 131.29 151.305 131.285C140.544 131.285 129.986 127.693 118.931 123.949C107.495 120.065 95.6635 116.053 82.2147 115.34C77.4516 119.059 74.3569 126.56 73.1343 129.986C72.905 129.336 72.7012 128.687 72.4847 128.037C74.0257 124.077 77.0823 117.62 81.6289 114.181C81.7521 114.095 81.8992 114.051 82.0492 114.054C95.7654 114.754 107.75 118.817 119.339 122.739C132.52 127.222 145.014 131.45 157.839 129.527Z" fill="#FD8A1A"/>
<path d="M154.222 141.6C154.031 142.072 153.827 142.543 153.623 143.014C151.332 143.451 149.003 143.665 146.67 143.651C136.558 143.651 125.694 140.059 115.111 136.557C104.846 133.157 94.2499 129.642 84.6982 129.604C80.5719 131.832 78.3814 137.296 77.4007 140.607C77.1333 140.072 76.8659 139.499 76.5984 138.913C77.7955 135.373 80.1262 130.52 84.2525 128.406C84.3418 128.356 84.4428 128.329 84.5454 128.33C94.3391 128.33 105.101 131.896 115.506 135.347C128.712 139.716 142.352 144.237 154.222 141.6Z" fill="#FD8A1A"/>
<path d="M161.405 120.893L159.342 121.81C152.045 122.332 143.677 122.039 122.664 114.652C103.025 107.749 94.2888 106.603 86.2781 105.432C86.4182 110.908 86.8894 120.46 89.2582 130.928C91.6271 141.397 97.3071 149 97.3071 149H88.8634C88.8634 149 83.8201 142.836 80.4961 125.605C79.7107 121.594 79.1958 117.535 78.9551 113.455C78.8405 111.545 78.7896 109.711 78.7259 107.89C77.8217 108.972 74.9307 113.251 73.1604 116.512C70.4732 121.478 70.6133 122.714 70.6133 122.714C70.6133 122.714 69.569 122.714 69.2761 122.561C68.9832 122.408 68.8813 121.848 68.6393 120.994C68.3757 120.118 68.1966 119.218 68.1044 118.307C68.0503 117.786 68.0588 117.26 68.1299 116.741C68.2954 115.747 69.7473 111.736 72.8166 107.074C74.7906 104.069 79.0825 99.0637 80.8782 97.6883L81.0438 97.5609C81.6424 97.1279 81.8589 97.1152 82.5211 97.1661C91.0285 97.7392 108.909 101.917 126.09 108.081C145.473 115.034 151.319 114.741 157.381 114.55C161.635 114.423 161.558 114.55 161.647 115.977C161.826 119.02 161.52 120.23 161.405 120.893Z" fill="white"/>
<path d="M71.2241 123.911C69.6322 124.293 69.403 122.981 69.161 122.421L70.3199 120.778C70.5874 121.72 70.8803 122.777 71.2241 123.911Z" fill="#FD8A1A"/>
<path d="M73.1592 116.511C70.472 121.478 70.6121 122.714 70.6121 122.714C70.6121 122.714 69.5678 122.714 69.2749 122.561C68.9819 122.408 68.8801 121.848 68.6381 120.994C69.5678 118.447 71.4272 114.372 73.8724 110.551C76.3176 106.731 77.6549 105.075 78.2407 104.489C78.47 104.247 78.6483 103.941 78.661 104.425C78.6737 104.909 78.7247 107.889 78.7247 107.889C77.8204 108.972 74.9295 113.251 73.1592 116.511Z" fill="#FD8A1A"/>
<path d="M161.647 119.122C160.03 119.39 157.266 119.542 152.541 119.428C141.69 119.16 127.376 113.2 116.054 109.481C99.7139 104.12 89.4363 103.037 87.3604 102.693C86.1759 102.489 86.2014 102.821 86.2141 103.355C86.2269 103.89 86.2778 105.431 86.2778 105.431C94.2885 106.603 103.025 107.749 122.663 114.652C143.575 122 151.968 122.331 159.227 121.822C159.164 122.166 159.1 122.523 159.049 122.879C160.781 122.803 161.29 122.523 161.634 119.67C161.64 119.646 161.641 119.621 161.636 119.597C161.632 119.573 161.623 119.55 161.609 119.53C161.635 119.395 161.648 119.259 161.647 119.122Z" fill="#FD8A1A"/>
<path d="M93.0915 149H91.5633C91.2703 148.529 90.9647 148.019 90.6336 147.446C89.0161 144.632 86.711 139.958 84.979 133.654C81.7441 121.924 81.222 108.093 81.2092 100.898C81.2092 99.4457 81.222 98.274 81.2347 97.4335C81.7059 97.1278 81.9352 97.1278 82.521 97.166C82.4955 98.0575 82.4701 99.4584 82.4828 101.229C82.521 108.45 83.0559 121.899 86.2016 133.31C88.3157 140.938 91.2576 146.211 93.0915 149Z" fill="#FDBF69"/>
<path d="M76.0897 149C70.5879 149 67.213 144.504 70.6134 142.084C73.7591 139.856 77.4524 142.556 81.7188 145.294C83.158 146.223 87.0041 146.211 91.1814 144.517C95.3587 142.823 103.535 140.098 107.457 141.524C111.151 142.861 113.481 145.561 116.512 144.44C119.149 143.46 125.478 132.074 132.929 132.469C137.463 132.724 135.59 139.028 137.896 141.104C139.857 142.874 143.767 140.811 146.072 138.875C149.689 135.857 153.076 133.577 156.54 132.354C160.59 130.928 164.831 133.437 162.972 137.156C162.259 138.582 159.966 140.454 160.259 141.728C160.756 143.906 162.845 143.231 164.793 144.415C166.742 145.599 166.538 149 162.87 149H76.0897Z" fill="#89D7FD"/>
<path d="M20.4845 44.2753C16.1035 47.421 16.1035 49.3822 20.8411 51.4072C22.9807 52.3242 29.4376 53.1774 30.8385 47.8667C31.4799 45.4196 31.8389 42.907 31.9083 40.3782L25.2604 41.0786C25.2604 41.0786 23.2227 42.3012 20.4845 44.2753Z" fill="white"/>
<path d="M12.5128 11.0481C7.29124 9.71083 6.39974 8.38633 9.91477 4.62933C13.4298 0.872327 17.6198 -0.503117 20.8546 3.94161C22.339 5.98884 23.5866 8.1977 24.5734 10.5259L18.1165 12.2962C18.1165 12.2962 15.7859 11.9014 12.5128 11.0481Z" fill="white"/>
<path d="M39.8563 14.4229C38.3086 12.8109 36.4382 11.5437 34.3673 10.7041C32.3711 9.88475 30.2336 9.46504 28.0759 9.46877C26.5037 9.46834 24.9392 9.68695 23.4274 10.1183L23.3128 10.1565L9.88945 14.6522C9.30644 14.8409 8.76663 15.1434 8.30127 15.5421C7.8359 15.9408 7.4542 16.4279 7.17825 16.975C6.9023 17.5222 6.73757 18.1186 6.6936 18.7299C6.64962 19.3411 6.72727 19.955 6.92206 20.536C7.17616 21.2754 7.60931 21.9405 8.18288 22.4718L2.6811 24.3185C1.70764 24.648 0.89969 25.3418 0.426904 26.2543C0.122453 26.8489 -0.0235207 27.5119 0.00308212 28.1794C0.0296849 28.8468 0.227965 29.4961 0.578771 30.0646C0.929576 30.6331 1.42105 31.1014 2.00572 31.4245C2.59039 31.7476 3.24849 31.9144 3.91646 31.9089C4.34092 31.9108 4.76272 31.8419 5.16455 31.7051L5.87774 31.4631C6.53999 31.2466 8.37392 30.4316 8.39939 30.4316C8.32624 31.0108 8.38725 31.599 8.57769 32.1509C8.83612 32.9275 9.33402 33.6022 9.99988 34.0781C10.6657 34.5541 11.4653 34.8067 12.2837 34.7999C12.7071 34.8006 13.1281 34.7362 13.5318 34.6088L14.0922 34.4178C14.6245 35.2616 15.2388 36.0508 15.9261 36.7739C17.4481 38.399 19.3031 39.6762 21.3642 40.5182C23.3577 41.3477 25.4964 41.772 27.6556 41.7662C31.8341 41.7774 35.8632 40.2131 38.9394 37.3852C42.2761 34.3159 44.1737 30.2023 44.301 25.7958C44.363 23.6987 44.0012 21.6106 43.2375 19.6565C42.4738 17.7023 41.3238 15.9223 39.8563 14.4229Z" fill="white"/>
<path d="M33.0816 23.6434L29.3501 20.434C29.2874 20.3771 29.2102 20.3387 29.127 20.3229C29.0439 20.3072 28.958 20.3148 28.8788 20.3449L24.0775 21.9496C23.9964 21.9756 23.9233 22.0221 23.8653 22.0845C23.8073 22.147 23.7664 22.2233 23.7464 22.3062L22.7021 27.1202C22.6832 27.2083 22.6886 27.2999 22.7178 27.3852C22.7469 27.4704 22.7987 27.5461 22.8676 27.6042L26.5992 30.8135C26.662 30.8702 26.7385 30.9095 26.8212 30.9273C26.9039 30.9452 26.9898 30.9411 27.0704 30.9154L31.8717 29.298C31.9529 29.272 32.0259 29.2255 32.0839 29.163C32.1419 29.1006 32.1829 29.0243 32.2028 28.9414L33.2471 24.1274C33.266 24.0393 33.2606 23.9477 33.2315 23.8624C33.2023 23.7772 33.1505 23.7015 33.0816 23.6434ZM33.0816 23.6434L29.3501 20.434C29.2874 20.3771 29.2102 20.3387 29.127 20.3229C29.0439 20.3072 28.958 20.3148 28.8788 20.3449L24.0775 21.9496C23.9964 21.9756 23.9233 22.0221 23.8653 22.0845C23.8073 22.147 23.7664 22.2233 23.7464 22.3062L22.7021 27.1202C22.6832 27.2083 22.6886 27.2999 22.7178 27.3852C22.7469 27.4704 22.7987 27.5461 22.8676 27.6042L26.5992 30.8135C26.662 30.8702 26.7385 30.9095 26.8212 30.9273C26.9039 30.9452 26.9898 30.9411 27.0704 30.9154L31.8717 29.298C31.9529 29.272 32.0259 29.2255 32.0839 29.163C32.1419 29.1006 32.1829 29.0243 32.2028 28.9414L33.2471 24.1274C33.266 24.0393 33.2606 23.9477 33.2315 23.8624C33.2023 23.7772 33.1505 23.7015 33.0816 23.6434ZM38.023 16.1931C34.3679 12.3724 28.9553 11.2007 24.1157 12.5634L10.6924 17.0591C10.4283 17.1442 10.1837 17.2808 9.97263 17.4609C9.76159 17.6411 9.58832 17.8612 9.46281 18.1087C9.3373 18.3562 9.26204 18.626 9.24138 18.9027C9.22072 19.1794 9.25507 19.4575 9.34243 19.7208C9.7245 20.8798 10.9471 21.3765 12.0169 21.0199L15.4683 19.8737C15.6381 19.8104 15.8189 19.782 15.9999 19.7902C16.181 19.7983 16.3585 19.8428 16.522 19.9211C16.6855 19.9993 16.8315 20.1096 16.9514 20.2455C17.0713 20.3814 17.1627 20.54 17.22 20.7119C17.2773 20.8838 17.2994 21.0655 17.285 21.2462C17.2706 21.4268 17.2199 21.6027 17.1361 21.7634C17.0523 21.924 16.9369 22.0662 16.797 22.1813C16.657 22.2964 16.4953 22.3822 16.3215 22.4335L7.89057 25.2608C7.71677 25.3121 7.55508 25.3979 7.41513 25.5131C7.27519 25.6282 7.15986 25.7703 7.07602 25.931C6.99218 26.0916 6.94154 26.2675 6.92713 26.4482C6.91272 26.6288 6.93482 26.8105 6.99213 26.9825C7.04943 27.1544 7.14077 27.313 7.26069 27.4489C7.3806 27.5847 7.52665 27.6951 7.69012 27.7733C7.85359 27.8515 8.03113 27.896 8.21217 27.9042C8.39321 27.9123 8.57403 27.8839 8.74386 27.8207L14.806 25.783C15.149 25.6726 15.5215 25.7 15.8447 25.8592C16.1679 26.0184 16.4165 26.2971 16.538 26.6363C16.6508 26.9791 16.6229 27.3527 16.4606 27.675C16.2982 27.9973 16.0146 28.2421 15.672 28.3556L11.8641 29.6291C11.6903 29.6805 11.5286 29.7662 11.3886 29.8814C11.2487 29.9965 11.1334 30.1386 11.0495 30.2993C10.9657 30.46 10.915 30.6359 10.9006 30.8165C10.8862 30.9971 10.9083 31.1788 10.9656 31.3508C11.0229 31.5227 11.1143 31.6813 11.2342 31.8172C11.3541 31.953 11.5002 32.0634 11.6636 32.1416C11.8271 32.2198 12.0046 32.2643 12.1857 32.2725C12.3667 32.2806 12.5475 32.2522 12.7174 32.189L15.3409 31.3102C15.9252 32.6841 16.7488 33.9432 17.7734 35.029C22.8931 40.4417 31.6679 40.6072 37.2207 35.5002C42.9771 30.215 43.2573 21.5675 38.023 16.1931ZM33.2854 31.1829C30.1015 34.1375 25.1218 34.0102 22.1544 30.9027C19.187 27.7952 19.3908 22.892 22.5747 19.9501C25.7586 17.0082 30.751 17.1228 33.7056 20.2303C36.6603 23.3378 36.482 28.241 33.2854 31.1829ZM33.0816 23.6434L29.3501 20.434C29.2874 20.3771 29.2102 20.3387 29.127 20.3229C29.0439 20.3072 28.958 20.3148 28.8788 20.3449L24.0775 21.9496C23.9964 21.9756 23.9233 22.0221 23.8653 22.0845C23.8073 22.147 23.7664 22.2233 23.7464 22.3062L22.7021 27.1202C22.6832 27.2083 22.6886 27.2999 22.7178 27.3852C22.7469 27.4704 22.7987 27.5461 22.8676 27.6042L26.5992 30.8135C26.662 30.8702 26.7385 30.9095 26.8212 30.9273C26.9039 30.9452 26.9898 30.9411 27.0704 30.9154L31.8717 29.298C31.9529 29.272 32.0259 29.2255 32.0839 29.163C32.1419 29.1006 32.1829 29.0243 32.2028 28.9414L33.2471 24.1274C33.266 24.0393 33.2606 23.9477 33.2315 23.8624C33.2023 23.7772 33.1505 23.7015 33.0816 23.6434ZM5.94203 27.3367C5.8235 26.9958 5.57456 26.7158 5.24984 26.5582C4.92512 26.4007 4.55115 26.3783 4.20999 26.4962L3.49679 26.7254C3.15583 26.8419 2.87352 27.0864 2.70953 27.4073C2.54555 27.7281 2.51274 28.1001 2.61804 28.4447C2.73656 28.7857 2.9855 29.0656 3.31022 29.2232C3.63494 29.3808 4.00892 29.4031 4.35008 29.2853L5.06327 29.056C5.40424 28.9395 5.68655 28.695 5.85053 28.3742C6.01452 28.0534 6.04733 27.6813 5.94203 27.3367Z" fill="url(#paint1_linear_808_29719)"/>
<path d="M49.5735 20.2559C48.3636 21.9752 45.7273 21.695 43.575 20.6252C42.696 20.2102 41.9015 19.6359 41.2317 18.9314C40.8751 18.5366 40.7223 17.8616 40.7987 16.9829C40.8278 16.5623 40.8916 16.1448 40.9897 15.7348C41.5373 13.2131 43.193 10.5132 45.5745 10.475C47.1919 10.4622 48.4655 11.5575 48.1089 13.4296C47.9318 14.2667 47.4789 15.0202 46.8226 15.5692C46.8226 15.5692 47.6886 15.5183 48.2872 15.8239C48.5249 15.9425 48.7509 16.0832 48.9622 16.2442C50.0447 17.072 50.6051 18.804 49.5735 20.2559Z" fill="#FF78B9"/>
<path d="M22.5481 89.512C22.7646 94.8992 21.7457 96.1472 17.1482 93.8548C12.5506 91.5624 10.0162 87.9583 13.3275 83.5772C14.8634 81.5668 16.6191 79.7343 18.5618 78.1136L22.1151 83.781C22.1151 83.781 22.408 86.1371 22.5481 89.512Z" fill="white"/>
<path d="M52.9482 73.6944C57.1127 77.1202 58.7174 77.0693 59.6726 72.0133C60.6278 66.9572 59.2651 62.7672 53.776 62.7672C51.2459 62.782 48.7254 63.081 46.262 63.6587L48.6436 69.8991C48.6436 69.8991 50.3374 71.5548 52.9482 73.6944Z" fill="white"/>
<path d="M52.4002 79.6035L47.6753 66.2566C47.6636 66.2163 47.6465 66.1777 47.6243 66.142C45.2682 60.411 40.0976 56.463 34.1119 55.8644C33.5408 55.8029 32.9669 55.7732 32.3925 55.7752C28.4044 55.7757 24.5676 57.3022 21.6692 60.0417C18.705 62.8472 16.8932 66.657 16.5877 70.7268C16.2508 75.0289 17.5978 79.2938 20.3447 82.6219C23.121 86.0096 26.9927 88.0854 31.2591 88.493C31.7176 88.5312 32.176 88.5567 32.6345 88.5567C33.1749 88.5584 33.715 88.5286 34.2519 88.4675L34.443 89.0279C34.714 89.7945 35.2158 90.4583 35.8795 90.9281C36.5431 91.3979 37.336 91.6506 38.149 91.6514C38.5879 91.6507 39.0232 91.5731 39.4353 91.4222C39.9826 91.2306 40.4791 90.9171 40.8872 90.5052C41.0528 90.7345 41.6259 93.1287 41.6259 93.1287L41.8806 93.8419C42.1553 94.6051 42.6584 95.2651 43.3215 95.7323C43.9846 96.1994 44.7755 96.451 45.5866 96.4527C46.0242 96.4501 46.4586 96.377 46.8729 96.2362C47.3596 96.0618 47.8065 95.7916 48.1871 95.4416C48.5677 95.0916 48.8743 94.6689 49.0889 94.1985C49.5228 93.266 49.5732 92.2004 49.229 91.2311L48.9743 90.518L47.6753 86.8628L47.2932 85.7676C47.5416 85.8083 47.7929 85.8295 48.0446 85.8312C48.5739 85.8305 49.0992 85.74 49.5983 85.5638C50.1754 85.3588 50.706 85.0415 51.1597 84.6302C51.6134 84.219 51.9812 83.7219 52.2417 83.1677C52.5022 82.6135 52.6503 82.0132 52.6775 81.4015C52.7047 80.7897 52.6105 80.1787 52.4002 79.6035Z" fill="white"/>
<path d="M37.9076 72.9303L36.2265 68.1544C36.1955 68.0753 36.1456 68.0049 36.0813 67.9495C36.0169 67.894 35.94 67.855 35.8572 67.836L31.0176 66.8808C30.9315 66.8615 30.8416 66.8668 30.7583 66.8961C30.675 66.9253 30.6016 66.9774 30.5464 67.0464L27.4007 70.8289C27.3462 70.8955 27.3094 70.9748 27.2938 71.0594C27.2783 71.144 27.2844 71.2312 27.3116 71.3128L29.0054 76.0887C29.0364 76.1678 29.0863 76.2381 29.1506 76.2936C29.215 76.3491 29.2919 76.3881 29.3747 76.4071L34.2015 77.3622C34.2896 77.3811 34.3812 77.3757 34.4665 77.3465C34.5517 77.3174 34.6274 77.2656 34.6855 77.1967L37.8312 73.4142C37.8858 73.3476 37.9217 73.2677 37.9352 73.1826C37.9486 73.0975 37.9391 73.0104 37.9076 72.9303ZM37.9076 72.9303L36.2265 68.1544C36.1955 68.0753 36.1456 68.0049 36.0813 67.9495C36.0169 67.894 35.94 67.855 35.8572 67.836L31.0176 66.8808C30.9315 66.8615 30.8416 66.8668 30.7583 66.8961C30.675 66.9253 30.6016 66.9774 30.5464 67.0464L27.4007 70.8289C27.3462 70.8955 27.3094 70.9748 27.2938 71.0594C27.2783 71.144 27.2844 71.2312 27.3116 71.3128L29.0054 76.0887C29.0364 76.1678 29.0863 76.2381 29.1506 76.2936C29.215 76.3491 29.2919 76.3881 29.3747 76.4071L34.2015 77.3622C34.2896 77.3811 34.3812 77.3757 34.4665 77.3465C34.5517 77.3174 34.6274 77.2656 34.6855 77.1967L37.8312 73.4142C37.8858 73.3476 37.9217 73.2677 37.9352 73.1826C37.9486 73.0975 37.9391 73.0104 37.9076 72.9303ZM50.0064 80.457L45.2688 67.1101C43.3712 62.4743 39.1175 58.9211 33.8449 58.3989C26.3946 57.5839 19.7594 63.1366 19.1353 70.9308C18.5368 78.4448 24.0767 85.2583 31.5016 85.9588C32.9857 86.0938 34.482 85.9645 35.9208 85.5767L36.8505 88.1748C36.9693 88.516 37.2176 88.7967 37.5417 88.9564C37.8658 89.1161 38.2397 89.1418 38.5826 89.028C38.9187 88.8965 39.191 88.6403 39.3429 88.3129C39.4947 87.9855 39.5144 87.6121 39.3977 87.2705L38.0477 83.5008C37.931 83.1593 37.9506 82.7859 38.1025 82.4584C38.2543 82.131 38.5267 81.8748 38.8628 81.7433C39.2057 81.6295 39.5796 81.6553 39.9037 81.8149C40.2278 81.9746 40.476 82.2554 40.5948 82.5966L42.7344 88.6205C42.8543 88.9583 43.1035 89.2346 43.4271 89.3886C43.7507 89.5427 44.1223 89.5619 44.4601 89.442C44.7978 89.322 45.0741 89.0729 45.2282 88.7492C45.3822 88.4256 45.4014 88.0541 45.2815 87.7163L42.3141 79.3235C42.2342 79.1527 42.1909 78.9671 42.1871 78.7785C42.1833 78.59 42.2191 78.4027 42.2921 78.2288C42.3651 78.0549 42.4737 77.8983 42.6109 77.7689C42.7482 77.6396 42.911 77.5404 43.0889 77.4779C43.2668 77.4153 43.4558 77.3907 43.6438 77.4056C43.8318 77.4206 44.0146 77.4747 44.1803 77.5646C44.3461 77.6545 44.4912 77.7781 44.6063 77.9275C44.7214 78.0769 44.8039 78.2488 44.8485 78.432L46.0711 81.8452C46.4404 82.915 47.5866 83.5772 48.7456 83.1569C49.0071 83.0645 49.2477 82.9209 49.4531 82.7345C49.6586 82.5482 49.8248 82.3227 49.9422 82.0714C50.0596 81.82 50.1257 81.5478 50.1367 81.2706C50.1477 80.9935 50.1034 80.7169 50.0064 80.457ZM40.4165 72.8666C40.0599 77.1967 36.3029 80.3806 32.0365 79.9603C27.7701 79.54 24.5989 75.6939 24.9555 71.3638C25.3121 67.0337 29.0691 63.8625 33.3355 64.2828C37.6019 64.7031 40.7731 68.5365 40.4165 72.8666ZM36.2265 68.1544C36.1955 68.0753 36.1456 68.0049 36.0813 67.9495C36.0169 67.894 35.94 67.855 35.8572 67.836L31.0176 66.8808C30.9315 66.8615 30.8416 66.8668 30.7583 66.8961C30.675 66.9253 30.6016 66.9774 30.5464 67.0464L27.4007 70.8289C27.3462 70.8955 27.3094 70.9748 27.2938 71.0594C27.2783 71.144 27.2844 71.2312 27.3116 71.3128L29.0054 76.0887C29.0364 76.1678 29.0863 76.2381 29.1506 76.2936C29.215 76.3491 29.2919 76.3881 29.3747 76.4071L34.2015 77.3622C34.2896 77.3811 34.3812 77.3757 34.4665 77.3465C34.5517 77.3174 34.6274 77.2656 34.6855 77.1967L37.8312 73.4142C37.8858 73.3476 37.9217 73.2677 37.9352 73.1826C37.9486 73.0975 37.9391 73.0104 37.9076 72.9303L36.2265 68.1544ZM46.8352 92.0846L46.5805 91.3714C46.4592 91.0325 46.2099 90.7547 45.8861 90.5976C45.5623 90.4404 45.1898 90.4165 44.8485 90.5308C44.5092 90.6543 44.2328 90.9075 44.08 91.2346C43.9271 91.5617 43.9104 91.9361 44.0334 92.2756L44.2881 92.9888C44.4067 93.3297 44.6556 93.6097 44.9803 93.7673C45.305 93.9249 45.679 93.9472 46.0202 93.8294C46.3553 93.7004 46.6275 93.4466 46.7795 93.1213C46.9314 92.7959 46.9514 92.4244 46.8352 92.0846Z" fill="url(#paint2_linear_808_29719)"/>
<path d="M24.4454 51.751C24.4624 50.9015 24.7233 50.0748 25.1968 49.3694C25.9864 48.1977 27.7694 47.8157 28.9793 48.8855C31.0807 50.7321 29.6543 54.8839 28.1005 57.0363C27.5911 57.7622 27.0307 58.1697 26.5086 58.2334C23.6303 58.59 19.2111 56.4249 19.4913 53.4193C19.6696 51.6364 21.2997 50.9486 22.6497 51.0251C23.3111 51.066 23.9414 51.3207 24.4454 51.751Z" fill="#FF78B9"/>
<path d="M25.0452 55.7373C24.9526 55.7374 24.8611 55.7169 24.7774 55.6773C24.6937 55.6376 24.6198 55.5798 24.5612 55.5081C22.982 53.6742 23.1603 52.0058 23.1731 51.9294C23.2042 51.7717 23.2938 51.6316 23.4238 51.5373C23.5539 51.4429 23.7149 51.4012 23.8744 51.4205C24.034 51.4399 24.1803 51.5188 24.284 51.6415C24.3878 51.7643 24.4413 51.9217 24.4339 52.0822C24.4339 52.1204 24.3447 53.3048 25.5291 54.6803C25.6385 54.8096 25.693 54.9764 25.6811 55.1453C25.6692 55.3142 25.5918 55.4718 25.4655 55.5845C25.3473 55.6826 25.1988 55.7367 25.0452 55.7373Z" fill="#E40085"/>
<path d="M19.7083 49.8277C19.7083 49.8277 20.1922 51.1777 20.8417 51.4069C21.8224 51.7508 23.3634 52.0819 24.4459 52.0819C24.423 51.6625 24.4617 51.242 24.5605 50.8338L23.9238 49.3055L20.5743 49.5475L19.7083 49.8277Z" fill="white"/>
<path d="M44.5431 18.1801C44.3909 18.1772 44.2447 18.1198 44.1312 18.0183C44.0177 17.9169 43.9442 17.7781 43.9242 17.6272C43.9042 17.4762 43.9389 17.3231 44.0221 17.1956C44.1052 17.0681 44.2313 16.9746 44.3775 16.932C46.0332 16.4735 46.7082 15.582 46.7082 15.5693C46.8096 15.435 46.9593 15.3453 47.1256 15.3192C47.2919 15.293 47.4619 15.3325 47.5997 15.4292C47.6685 15.4775 47.7272 15.5389 47.7722 15.6099C47.8172 15.681 47.8476 15.7602 47.8619 15.8431C47.8761 15.926 47.8737 16.0109 47.8549 16.0929C47.8362 16.1748 47.8013 16.2523 47.7525 16.3207C47.7143 16.3717 46.8228 17.5688 44.7214 18.1546C44.6644 18.1755 44.6037 18.1842 44.5431 18.1801Z" fill="#E40085"/>
<path d="M45.8928 15.5566C55.2789 17.0212 72.3828 8.7176 85.6661 4.32382C106.387 -2.54067 116.55 2.48989 116.282 8.05534C115.99 14.1302 106.769 17.7599 91.3716 12.7548" stroke="white" stroke-width="1.5" stroke-linecap="round" stroke-linejoin="round"/>
<path d="M42.9515 15.7347C43.7794 16.6135 45.9571 16.2187 45.9571 16.2187C46.4689 15.8555 46.9464 15.4463 47.3835 14.9961L44.8619 13.7352L42.9515 15.7347Z" fill="#FF78B9"/>
<defs>
<linearGradient id="paint0_linear_808_29719" x1="96.412" y1="74.9553" x2="128.618" y2="74.9553" gradientUnits="userSpaceOnUse">
<stop stop-color="#A0BAFD"/>
<stop offset="0.76" stop-color="#698EFD"/>
</linearGradient>
<linearGradient id="paint1_linear_808_29719" x1="10.581" y1="38.0369" x2="36.9534" y2="15.1163" gradientUnits="userSpaceOnUse">
<stop stop-color="#B273F3"/>
<stop offset="1" stop-color="#E090A8"/>
</linearGradient>
<linearGradient id="paint2_linear_808_29719" x1="34.1365" y1="97.0626" x2="35.8618" y2="62.31" gradientUnits="userSpaceOnUse">
<stop stop-color="#B273F3"/>
<stop offset="1" stop-color="#E090A8"/>
</linearGradient>
</defs>
</svg>
