<svg width="801" height="541" viewBox="0 0 801 541" fill="none" xmlns="http://www.w3.org/2000/svg">
<path d="M677.7 25.3C656.8 21.9 644.4 21.6 617.3 28.2C590.2 34.8 508.9 71.8 495.3 101.3C481.7 130.8 487.1 201.5 495.3 231.9C499.8 248.8 548.7 284.1 576.6 295.6C601.5 305.8 721.6 304.6 750 290.7C766.9 282.4 780.4 266.2 789 243C799.7 214.3 808.3 135.4 790.7 97.2C776 65.6 702.7 29.4 677.7 25.3Z" fill="url(#paint0_linear_212_6574)"/>
<path opacity="0.85" d="M750 290.7C752.41 289.468 754.747 288.099 757 286.6C772.4 222.9 780.1 136.4 771.5 112.5C761.9 85.9 700.8 39.8 643.8 23.4C635.844 24.1868 627.956 25.5571 620.2 27.5C681.7 35.8 754.1 90.9 763 115.6C770.7 136.8 763.5 226.3 746.3 292.2L750 290.7Z" fill="#FF5300"/>
<path d="M678.8 91.6C672.5 96 620.2 119.2 603.5 125.3C600.301 126.221 596.872 125.9 593.9 124.4C576.9 116.2 556.9 103.3 541.5 93.2C538.5 91.3 538.4 88.5 541.6 86.1C561.3 71.3 602 53.5 608.1 52C614.2 50.5 618.4 51.4 624.9 53.2C632.9 55.5 642.2 59.6 652.5 65C658.578 68.1873 664.28 72.0446 669.5 76.5C677.2 83 681.8 89.5 678.8 91.6Z" fill="url(#paint1_linear_212_6574)"/>
<path d="M669.5 76.5L663.2 77.9C659.1 78.7 655.3 78.6 651.7 76.7L623.3 61.8C622.622 61.3664 622.133 60.6934 621.929 59.915C621.725 59.1367 621.822 58.3101 622.2 57.6L624.9 53.2C632.9 55.5 642.2 59.6 652.5 65C658.578 68.1872 664.28 72.0445 669.5 76.5Z" fill="#FF8400"/>
<path d="M508.2 425.9L437.7 449.6L445.5 477.1L518.3 461.8C520.23 461.359 522.05 460.531 523.65 459.365C525.249 458.199 526.595 456.72 527.605 455.017C528.615 453.315 529.269 451.425 529.526 449.462C529.783 447.5 529.638 445.505 529.1 443.6L526.9 435.8C526.353 433.902 525.43 432.134 524.185 430.602C522.939 429.069 521.398 427.802 519.653 426.878C517.907 425.954 515.994 425.392 514.026 425.224C512.058 425.055 510.077 425.286 508.2 425.9Z" fill="url(#paint2_linear_212_6574)"/>
<path opacity="0.75" d="M397.477 523.238C423.098 517.605 439.302 492.268 433.669 466.647C428.036 441.025 402.699 424.821 377.077 430.455C351.455 436.088 335.252 461.425 340.885 487.046C346.518 512.668 371.855 528.872 397.477 523.238Z" fill="#73DAFF"/>
<path d="M447.3 456.9C443.276 444.982 435.808 434.524 425.84 426.851C415.872 419.177 403.853 414.631 391.302 413.789C378.75 412.947 366.231 415.845 355.328 422.118C344.424 428.391 335.625 437.756 330.044 449.03C324.463 460.304 322.351 472.979 323.974 485.453C325.597 497.928 330.883 509.64 339.164 519.11C347.444 528.58 358.347 535.382 370.493 538.655C382.639 541.929 395.483 541.527 407.4 537.5C415.32 534.838 422.636 530.64 428.93 525.145C435.224 519.651 440.371 512.968 444.078 505.481C447.784 497.993 449.977 489.848 450.53 481.512C451.083 473.175 449.985 464.812 447.3 456.9ZM401.7 520.8C393.097 523.684 383.831 523.954 375.075 521.574C366.318 519.195 358.463 514.273 352.503 507.431C346.542 500.59 342.743 492.135 341.586 483.135C340.429 474.135 341.965 464.994 346 456.866C350.036 448.739 356.39 441.99 364.26 437.473C372.129 432.955 381.162 430.872 390.215 431.485C399.268 432.099 407.936 435.382 415.125 440.92C422.313 446.458 427.698 454.003 430.6 462.6C432.531 468.319 433.314 474.362 432.906 480.384C432.498 486.406 430.906 492.288 428.222 497.694C425.537 503.1 421.813 507.924 417.262 511.889C412.711 515.853 407.423 518.882 401.7 520.8Z" fill="url(#paint3_linear_212_6574)"/>
<path d="M647.6 199L652.8 217.4C652.8 217.4 672.8 247.2 672.9 247.1C684.3 239.4 690.6 228.6 688.3 218.4C685.2 204.8 667.7 196.8 647.6 199Z" fill="black"/>
<path d="M548 441.8L532.4 414.3C521.2 407.8 506.6 405.6 494.5 409.7C484 413.3 473.4 424.1 475.6 436.9L492.7 431.1C501.9 428.1 512.4 432.6 514.8 442.6C517.2 452.6 512.7 462.6 499.9 465.7L480.4 469.8C482.8 476 492.1 483.8 504.6 483.3C509.9 489 521.8 490.7 531.7 483.9C543.4 475.9 548.7 459 548 441.8Z" fill="black"/>
<path d="M693.7 364.9C686.3 380.8 669.2 396.6 640.1 414.7C618.6 428 591 442 562.5 454.1C558.813 455.717 554.826 456.535 550.8 456.5C543.816 456.561 537.028 454.191 531.599 449.796C526.17 445.402 522.438 439.256 521.044 432.412C519.649 425.568 520.678 418.452 523.954 412.283C527.23 406.115 532.549 401.277 539 398.6C598.6 373.3 634.1 348.1 639.3 338.9C646.1 324.4 627.9 296.4 615.1 265C612.1 257.7 607.3 246.7 606.1 243.6C605.292 241.65 604.623 239.645 604.1 237.6C600.6 222.3 616.6 205.6 639.8 200.2C642.369 199.62 644.976 199.219 647.6 199C653.041 202.452 657.216 207.575 659.5 213.6C663.2 223.3 667.1 232.9 670.9 242.3C671.6 243.9 672.3 245.5 672.9 247.1C689.8 288.5 708.1 334.4 693.7 364.9Z" fill="url(#paint4_linear_212_6574)"/>
<path d="M599.4 404.2C604.64 412.929 607.405 422.919 607.4 433.1L598.2 437.7C598.8 429 597.6 418.5 591.7 408.9C583.9 396.2 574.8 389.4 567.2 385.8L577.1 380.9C586.255 386.814 593.894 394.794 599.4 404.2ZM695.9 313.8C672 300.9 649 311.2 638.1 317.9C639.149 320.923 639.919 324.036 640.4 327.2C648.2 321.8 670.5 309.2 693.2 322.7C695.187 323.887 696.893 325.49 698.2 327.4C697.7 323 696.9 318.4 695.9 313.8ZM656.7 260.4H656.8C664.946 260.535 672.978 262.339 680.4 265.7L675.9 254.4C669.725 252.426 663.283 251.414 656.8 251.4H656.7C638 251.4 624.5 260.2 616.3 267.9C617.5 270.9 618.8 273.9 620.2 276.8C626.8 269.8 638.9 260.4 656.7 260.4ZM626.4 351.2C623.9 353.1 621.1 355.1 617.9 357.3C624.4 359.5 633.6 365.3 642.6 380.1C648.8 390.2 649.4 400.9 648.3 409.4C651.7 407.2 654.9 405 657.9 402.8C658.005 393.132 655.37 383.633 650.3 375.4C642.3 362.2 633.7 355 626.4 351.2Z" fill="#0098F8"/>
<path d="M632 243.9C632.433 245.016 632.413 246.256 631.947 247.357C631.48 248.458 630.602 249.335 629.5 249.8L628.8 250.1C627.757 250.287 626.681 250.124 625.741 249.636C624.8 249.147 624.047 248.361 623.6 247.4L616.9 230.4C616.1 228.3 615.9 225.2 619.3 223.9C622.7 222.6 624.5 225.2 625.3 227C626.1 228.8 630.6 240.4 632 243.9ZM648.9 302.5H649.3C650.426 302.113 651.353 301.297 651.877 300.228C652.402 299.16 652.482 297.927 652.1 296.8C649.5 289.5 647.7 284.2 644.4 275.4C643.973 274.262 643.113 273.339 642.007 272.833C640.902 272.327 639.641 272.279 638.5 272.7C637.387 273.126 636.489 273.975 636.001 275.063C635.514 276.15 635.477 277.386 635.9 278.5C639.1 287.2 641 292.6 643.5 299.8C643.906 300.839 644.682 301.691 645.68 302.19C646.678 302.689 647.826 302.799 648.9 302.5ZM661 328.3C659.803 328.27 658.639 328.699 657.747 329.498C656.855 330.297 656.302 331.407 656.2 332.6C655.6 342.3 653.8 345.7 652.8 347C651.106 348.935 649.303 350.771 647.4 352.5C646.499 353.291 645.943 354.403 645.849 355.598C645.756 356.794 646.133 357.979 646.9 358.9C647.705 359.787 648.824 360.324 650.019 360.399C651.214 360.474 652.391 360.08 653.3 359.3C655.642 357.28 657.816 355.073 659.8 352.7C662.9 348.9 664.6 342.7 665.3 333.2C665.356 331.986 664.94 330.797 664.138 329.883C663.336 328.97 662.212 328.402 661 328.3ZM620.8 370.7C614.7 374.3 607.8 378.2 599.8 382.5C598.9 382.964 598.183 383.717 597.764 384.639C597.346 385.561 597.25 386.597 597.493 387.58C597.736 388.562 598.303 389.435 599.103 390.055C599.902 390.676 600.888 391.009 601.9 391C602.661 390.99 603.41 390.82 604.1 390.5C612.2 386.1 619.2 382.2 625.4 378.5C625.912 378.198 626.36 377.798 626.718 377.323C627.075 376.848 627.336 376.307 627.484 375.731C627.633 375.156 627.667 374.556 627.584 373.968C627.501 373.379 627.302 372.812 627 372.3C626.698 371.788 626.298 371.34 625.823 370.983C625.348 370.625 624.807 370.365 624.232 370.216C623.656 370.067 623.057 370.034 622.468 370.117C621.879 370.2 621.312 370.398 620.8 370.7ZM568.3 398.9L559.3 403.5L546.6 409.9C546.073 410.174 545.606 410.55 545.225 411.005C544.844 411.461 544.556 411.987 544.38 412.554C544.203 413.121 544.141 413.718 544.196 414.309C544.251 414.901 544.422 415.475 544.7 416C545.093 416.72 545.67 417.323 546.374 417.745C547.077 418.167 547.88 418.393 548.7 418.4C549.432 418.424 550.158 418.251 550.8 417.9L563.4 411.5L572.4 407C573.463 406.445 574.267 405.496 574.64 404.357C575.014 403.217 574.928 401.977 574.4 400.9C574.135 400.365 573.766 399.887 573.314 399.496C572.863 399.105 572.337 398.807 571.77 398.621C571.202 398.435 570.603 398.364 570.007 398.412C569.411 398.459 568.831 398.626 568.3 398.9Z" fill="url(#paint5_linear_212_6574)"/>
<path d="M69.5 317.4L40.1 292.8C14.3 294.3 -8.69999 315.1 5.10001 347.6C3.38515 352.294 2.01485 357.107 1.00001 362C-1.39999 375.1 17.5 379.1 20.7 366.2C24.5 348.3 33.8 331.5 47.7 317.6C47.1 319.1 52.8 326.8 38.4 337.6C37.3391 338.395 36.4486 339.395 35.7814 340.54C35.1142 341.686 34.6839 342.954 34.5161 344.269C34.3482 345.584 34.4461 346.919 34.8041 348.196C35.1621 349.472 35.7728 350.664 36.6 351.7C38.2388 353.797 40.6394 355.163 43.2798 355.5C45.9201 355.837 48.5868 355.118 50.7 353.5C67.5 340.5 71.7 331.1 69.5 317.4Z" fill="black"/>
<path d="M53.3 329.8C47.854 329.816 42.5055 328.355 37.8245 325.572C33.1436 322.788 29.3055 318.787 26.7192 313.994C24.133 309.201 22.8955 303.797 23.1387 298.356C23.3818 292.916 25.0965 287.643 28.1 283.1C51.3 247.8 103.3 205.2 157.6 192C161.525 190.825 165.648 190.46 169.718 190.929C173.788 191.397 177.721 192.689 181.276 194.726C184.831 196.763 187.934 199.501 190.397 202.776C192.86 206.05 194.631 209.791 195.603 213.771C196.574 217.751 196.725 221.888 196.047 225.928C195.369 229.969 193.876 233.829 191.659 237.275C189.441 240.72 186.546 243.678 183.149 245.969C179.753 248.26 175.925 249.835 171.9 250.6C134.5 259.7 95.1 291.1 78.5 316.3C75.7544 320.469 72.0118 323.887 67.6114 326.245C63.2111 328.602 58.292 329.824 53.3 329.8Z" fill="url(#paint6_linear_212_6574)"/>
<path d="M63.4 286.4C74 295.3 84.1001 298.6 92.1001 299.5C89.6001 302.2 87.2 304.9 85 307.5C76.8 305.6 67.3 301.5 57.5 293.3C49.4278 286.307 43.4704 277.198 40.3 267C42.5 264.4 44.9 261.7 47.4 259.1C49.7 268.2 54.3 278.7 63.4 286.4ZM108.5 247.3C102.353 238.025 99.8266 226.815 101.4 215.8L91.9 221.8C91.8451 232.598 94.9757 243.172 100.9 252.2C106.455 261.041 114.253 268.252 123.5 273.1C126.5 271.1 129.5 269.2 132.6 267.4C122.685 263.347 114.267 256.326 108.5 247.3Z" fill="#0098F8"/>
<path d="M158.2 219.5C145 221.9 132.3 227.8 116.5 235.4C115.806 235.707 115.059 235.876 114.3 235.9C113.49 235.903 112.693 235.692 111.991 235.288C111.288 234.884 110.705 234.302 110.3 233.6C109.731 232.552 109.6 231.321 109.938 230.177C110.275 229.034 111.053 228.071 112.1 227.5C127.5 218.8 142.5 213.1 156.6 210.6C157.179 210.485 157.775 210.487 158.352 210.607C158.93 210.727 159.478 210.962 159.963 211.298C160.448 211.634 160.861 212.064 161.176 212.562C161.492 213.061 161.704 213.618 161.8 214.2C161.916 214.785 161.914 215.387 161.796 215.971C161.677 216.555 161.443 217.11 161.108 217.603C160.773 218.096 160.344 218.517 159.844 218.843C159.345 219.169 158.786 219.392 158.2 219.5ZM83.1 247.1C75.5932 253.071 68.4473 259.482 61.7 266.3C61.0633 266.929 60.6288 267.734 60.4522 268.612C60.2755 269.49 60.3647 270.4 60.7082 271.227C61.0518 272.054 61.6342 272.759 62.3809 273.253C63.1276 273.747 64.0047 274.007 64.9 274C65.4935 274.01 66.0829 273.9 66.6329 273.677C67.1828 273.454 67.6819 273.121 68.1 272.7C74.6 266.1 81.9 260.1 88.7 254.2C89.1662 253.832 89.5554 253.376 89.8454 252.858C90.1354 252.34 90.3205 251.77 90.3901 251.18C90.4597 250.591 90.4126 249.993 90.2513 249.422C90.09 248.85 89.8177 248.316 89.45 247.85C89.0823 247.384 88.6263 246.995 88.1082 246.705C87.5901 246.415 87.02 246.229 86.4303 246.16C85.8407 246.09 85.2431 246.137 84.6716 246.299C84.1002 246.46 83.5662 246.732 83.1 247.1ZM45.5 291.7C44.5291 290.978 43.3131 290.668 42.1153 290.837C40.9174 291.005 39.8341 291.639 39.1 292.6L35.4 297.9C35.0421 298.38 34.7859 298.928 34.6472 299.51C34.5084 300.093 34.4899 300.697 34.5929 301.287C34.6959 301.877 34.9181 302.439 35.246 302.94C35.574 303.441 36.0006 303.87 36.5 304.2C37.2539 304.748 38.1686 305.029 39.1 305C39.8211 304.988 40.53 304.811 41.1716 304.482C41.8132 304.152 42.3704 303.679 42.8 303.1L46.4 298C46.7545 297.527 47.0125 296.989 47.1592 296.417C47.3058 295.844 47.3383 295.249 47.2547 294.664C47.1712 294.079 46.9732 293.516 46.6721 293.007C46.371 292.499 45.9727 292.055 45.5 291.7Z" fill="url(#paint7_linear_212_6574)"/>
<path d="M592.3 201.4C591.9 168.4 589.2 132.9 584.5 117.7C577.4 94.8 521.9 67 467.9 44C418.1 22.8 371.5 8.5 355 9.5C332.9 10.8 281.5 25.7 241.5 41.4C212.984 52.5234 185.369 65.8296 158.9 81.2H158.8L156.9 82.4C149.2 87.5 144 96.9 141.7 113C136.5 149.4 135.9 194.7 139.5 230C140.2 237.3 141.1 244.2 142.2 250.5C148.5 286.4 158.7 300.6 191.2 324.5C203.488 333.341 216.239 341.52 229.4 349C244.271 357.829 259.666 365.744 275.5 372.7C281.6 375.3 287.9 377.6 294.5 379.8C317.5 387.4 343.2 392.9 368.8 396.2C368.8 396.2 402.6 401.6 432.4 390.1C484.7 369.9 562.2 327.1 574.3 306.4C586.4 285.7 593 247.8 592.3 201.4Z" fill="url(#paint8_linear_212_6574)"/>
<path d="M390 342.9C390.007 343.578 389.905 344.253 389.7 344.9C388.2 353.5 381.5 355.7 372.2 355.2C333.9 353.1 296.7 339.8 263 323.3C240.29 311.998 219.091 297.888 199.9 281.3C187 270.3 181.4 261.1 178.8 241.8C174 206.6 172.5 166.3 176.8 133.3C178.1 123.5 184.6 120.6 192.9 121.6L194.4 121.8C195.205 121.851 196.007 121.951 196.8 122.1L390.2 340.3C390.183 341.17 390.116 342.038 390 342.9Z" fill="#FF5300"/>
<path d="M390 342.9C390.007 343.578 389.905 344.253 389.7 344.9C305.7 333.2 255.9 304.7 213.2 271.7C201.5 262.7 195.6 251.9 193.5 233.1C190.3 204 191.1 151.3 194.4 121.8C222.269 125.33 249.542 132.56 275.5 143.3C316.3 160.6 335.5 170.8 363 190.4C380.6 203 389.1 213.1 390.7 242.7C392.3 272.3 392.9 308.9 390 342.9Z" fill="black"/>
<path d="M255.2 207.9C255.2 214.9 250 218.2 243.5 215.1C237 212 231.7 203.8 231.7 196.8C231.7 189.8 237 186.6 243.5 189.6C250 192.6 255.2 200.9 255.2 207.9ZM343.4 234.9C336.9 231.9 331.6 235.1 331.6 242.1C331.6 249.1 336.9 257.3 343.4 260.4C349.9 263.5 355.1 260.2 355.1 253.2C355.1 246.2 349.9 238 343.4 234.9ZM316 264.6C308.29 259.062 300.089 254.242 291.5 250.2C280.2 245.1 272.4 242 266.3 240.8C263.9 240.3 262.3 242 262.8 245.7C264.5 261.6 275.9 277.6 290.3 284.4C304.7 291.2 317 285.2 318.8 270.7C318.932 269.525 318.742 268.335 318.248 267.261C317.755 266.186 316.978 265.266 316 264.6Z" fill="#00F67A"/>
<path d="M476.6 19.3L446.3 4.99995C440.221 2.14035 433.611 0.583103 426.895 0.428113C420.179 0.273124 413.504 1.52382 407.3 4.09995L301.7 48.5C297.755 50.277 294.409 53.1587 292.066 56.7966C289.724 60.4346 288.485 64.6731 288.5 69V72.6C288.478 73.9004 288.835 75.1791 289.528 76.2801C290.22 77.381 291.218 78.2566 292.4 78.8L349.1 105.6C352.213 107.052 355.604 107.812 359.039 107.83C362.474 107.847 365.872 107.12 369 105.7L469.2 60.4C474.821 57.8773 480.921 56.5981 487.083 56.6499C493.244 56.7017 499.322 58.0832 504.9 60.7L510 63.1L502.6 46C497.459 34.2407 488.218 24.7514 476.6 19.3Z" fill="url(#paint9_linear_212_6574)"/>
<path d="M360.4 81.5999C356.392 81.5735 352.436 80.6869 348.8 78.9999L324.8 67.9999C324.251 67.7616 323.755 67.4163 323.342 66.9841C322.928 66.5519 322.604 66.0415 322.39 65.4828C322.176 64.9242 322.075 64.3284 322.094 63.7303C322.113 63.1323 322.251 62.544 322.5 61.9999C322.737 61.4506 323.083 60.9552 323.517 60.5441C323.951 60.133 324.465 59.8148 325.027 59.6089C325.588 59.403 326.186 59.3137 326.783 59.3466C327.38 59.3794 327.964 59.5337 328.5 59.7999L352.7 70.7999C355.082 71.9531 357.692 72.5604 360.339 72.5777C362.985 72.595 365.603 72.0218 368 70.8999L443.8 35.0999C444.905 34.613 446.154 34.5698 447.29 34.9794C448.426 35.389 449.36 36.2199 449.9 37.2999C450.382 38.3902 450.422 39.625 450.012 40.7443C449.602 41.8636 448.773 42.7798 447.7 43.2999L371.8 79.0999C368.232 80.7669 364.338 81.6208 360.4 81.5999Z" fill="url(#paint10_linear_212_6574)"/>
<path d="M294.9 371.5L294.5 379.8C287.9 377.6 281.6 375.3 275.5 372.7C259.666 365.743 244.271 357.829 229.4 349L230.3 341.6C230.48 340.291 230.962 339.043 231.708 337.953C232.454 336.864 233.444 335.963 234.599 335.322C235.754 334.682 237.042 334.319 238.361 334.263C239.681 334.207 240.995 334.459 242.2 335L285 355C288.09 356.472 290.678 358.822 292.439 361.757C294.199 364.692 295.056 368.081 294.9 371.5Z" fill="#FFE734"/>
<path opacity="0.6" d="M390.5 153.2C386.8 158.2 401.3 165.1 414.2 180.7C427.1 196.3 426 201.2 430.2 199.4C434.4 197.6 431.8 184 423.8 173.3C415.8 162.6 394.3 147.9 390.5 153.2Z" fill="#FFE734"/>
<path d="M555.8 232.4C554.9 272 535.3 302.4 510.9 310.6C490.5 317.5 469.6 300.3 469.6 266.9C469.6 233.5 488.1 198.4 511 188.5C533.9 178.6 556.5 199 555.8 232.4Z" fill="url(#paint11_linear_212_6574)"/>
<path d="M550.7 241.8C550.7 256.5 542.4 272.6 530.3 277C521.1 280.3 512 272.3 512 257.1C512 241.9 519.9 226.4 530.3 221.9C540.7 217.4 550.7 226.6 550.7 241.8Z" fill="#FFE734"/>
<path opacity="0.6" d="M497 219.9C494.1 225.3 492.2 232.3 496.8 234.5C501.4 236.7 506.6 230.9 509 226.4C512.9 218.9 518.1 210.4 513.5 208.3C508.9 206.2 501.2 212.2 497 219.9Z" fill="white"/>
<defs>
<linearGradient id="paint0_linear_212_6574" x1="560.98" y1="60.43" x2="723.79" y2="267.84" gradientUnits="userSpaceOnUse">
<stop offset="0.32" stop-color="#FFC400"/>
<stop offset="0.59" stop-color="#FF9F00"/>
<stop offset="0.82" stop-color="#FF8400"/>
</linearGradient>
<linearGradient id="paint1_linear_212_6574" x1="591.72" y1="66.15" x2="657.44" y2="151.59" gradientUnits="userSpaceOnUse">
<stop stop-color="#FFE734"/>
<stop offset="0.29" stop-color="#FFE029"/>
<stop offset="0.79" stop-color="#FFCD0D"/>
<stop offset="1" stop-color="#FFC400"/>
</linearGradient>
<linearGradient id="paint2_linear_212_6574" x1="539.789" y1="436.207" x2="452.659" y2="462.126" gradientUnits="userSpaceOnUse">
<stop stop-color="#E30085"/>
<stop offset="0.97" stop-color="#E9459D"/>
</linearGradient>
<linearGradient id="paint3_linear_212_6574" x1="439.25" y1="462.73" x2="313.32" y2="497.71" gradientUnits="userSpaceOnUse">
<stop stop-color="#E9459D"/>
<stop offset="1" stop-color="#FF6CBA"/>
</linearGradient>
<linearGradient id="paint4_linear_212_6574" x1="566.26" y1="434.59" x2="693.13" y2="221.85" gradientUnits="userSpaceOnUse">
<stop stop-color="#73DAFF"/>
<stop offset="0.9" stop-color="#44BCFF"/>
</linearGradient>
<linearGradient id="paint5_linear_212_6574" x1="603.88" y1="381.99" x2="628.53" y2="137.16" gradientUnits="userSpaceOnUse">
<stop stop-color="white" stop-opacity="0.75"/>
<stop offset="1" stop-color="white" stop-opacity="0"/>
</linearGradient>
<linearGradient id="paint6_linear_212_6574" x1="22.58" y1="306.76" x2="192.35" y2="208.74" gradientUnits="userSpaceOnUse">
<stop offset="0.04" stop-color="#73DAFF"/>
<stop offset="0.78" stop-color="#44BCFF"/>
</linearGradient>
<linearGradient id="paint7_linear_212_6574" x1="4410.56" y1="27814.8" x2="18839.2" y2="15355.5" gradientUnits="userSpaceOnUse">
<stop stop-color="white" stop-opacity="0.75"/>
<stop offset="1" stop-color="white" stop-opacity="0"/>
</linearGradient>
<linearGradient id="paint8_linear_212_6574" x1="102083" y1="38042.8" x2="236188" y2="152183" gradientUnits="userSpaceOnUse">
<stop offset="0.32" stop-color="#FFC400"/>
<stop offset="0.59" stop-color="#FF9F00"/>
<stop offset="0.82" stop-color="#FF8400"/>
</linearGradient>
<linearGradient id="paint9_linear_212_6574" x1="351.66" y1="86.42" x2="445.76" y2="33.1" gradientUnits="userSpaceOnUse">
<stop stop-color="#44BCFF"/>
<stop offset="1" stop-color="#0098F8"/>
</linearGradient>
<linearGradient id="paint10_linear_212_6574" x1="34540.3" y1="5091.42" x2="44428.9" y2="-7836.73" gradientUnits="userSpaceOnUse">
<stop stop-color="white" stop-opacity="0.75"/>
<stop offset="1" stop-color="white" stop-opacity="0"/>
</linearGradient>
<linearGradient id="paint11_linear_212_6574" x1="44077.6" y1="21775.3" x2="46125.6" y2="39553.4" gradientUnits="userSpaceOnUse">
<stop stop-color="#FFE734"/>
<stop offset="0.29" stop-color="#FFE029"/>
<stop offset="0.79" stop-color="#FFCD0D"/>
<stop offset="1" stop-color="#FFC400"/>
</linearGradient>
</defs>
</svg>
