<svg width="214" height="175" viewBox="0 0 214 175" fill="none" xmlns="http://www.w3.org/2000/svg">
<path d="M156.363 113.394C157.035 120.147 159.844 127.736 159.844 127.736L178.325 131.561L171.811 113.035L156.363 113.394Z" fill="#3333D3"/>
<path d="M173.723 73.384C173.723 73.384 141.288 73.6977 129.725 72.0244L117.13 73.0105C117.115 79.0462 123.674 88.4286 140.945 89.34C139.899 92.9106 139.451 98.7821 139.451 98.7821C131.503 97.7363 127.484 98.0799 125.527 100.5C123.106 103.488 123.689 107.522 123.689 116.725L140.138 120.864L139.675 113.737C139.675 113.737 155.616 116.322 166.597 114.887C172.424 114.111 177.354 111.511 179.326 105.909C183.927 92.8658 173.723 73.384 173.723 73.384Z" fill="#698EFD"/>
<path d="M196.492 111.482C199.002 112.991 200.003 116.233 198.524 119.146C197.045 122.06 193.773 123.285 191.143 122.045C187.782 120.446 182.463 113.798 183.494 111.766C184.525 109.734 193.28 109.555 196.492 111.482Z" fill="#698EFD"/>
<path d="M153.868 78.2704C163.086 77.4487 170.302 72.5483 170.302 72.5483L137.135 71.2485C137.135 71.2485 139.824 75.1031 143.425 76.8212C146.428 78.2704 149.177 78.6738 153.868 78.2704Z" fill="#3333D3"/>
<path d="M109.451 37.6475C115.053 43.5936 120.312 49.9133 120.312 49.9133L119.282 53.5586C119.282 53.5586 113.305 46.4322 108.002 39.2461C107.329 38.3347 107.135 37.9015 107.583 37.3337C108.032 36.766 108.525 36.6614 109.451 37.6475Z" fill="#FDBF69"/>
<path d="M123.853 31.2384C121.836 34.4505 119.745 38.1706 119.745 38.1706L120.283 44.7592C120.223 43.31 124.735 34.0471 126.154 31.2683C126.767 30.0731 126.767 29.5352 126.438 29.2663C126.109 28.9974 125.407 28.7882 123.853 31.2384Z" fill="#FDBF69"/>
<path d="M127.558 11.2487C111.991 40.8748 126.064 76.3425 146.637 97.6022C148.056 99.0664 148.878 99.8283 147.234 101.158C146.293 101.905 145.277 102.338 144.172 101.173C121.986 77.8515 107.449 39.8888 125.945 10.4867C126.072 10.2978 126.259 10.1579 126.477 10.09C126.694 10.0221 126.928 10.0303 127.14 10.1132C127.558 10.2626 127.902 10.6361 127.558 11.2487Z" fill="#FDBF69"/>
<path d="M124.525 11.9662C125.417 11.901 126.309 12.0928 127.095 12.519C127.902 12.9373 127.678 13.6843 126.991 15.2679C126.303 16.8516 126.019 17.1205 124.6 17.0458C123.823 17.001 122.912 16.8367 122.21 16.2391C121.508 15.6414 121.881 14.8048 122.464 13.6843C122.807 13.012 123.509 12.0409 124.525 11.9662Z" fill="white"/>
<path d="M122.643 16.5375C122.643 16.5375 122.793 16.2089 122.837 16.1342C122.882 16.0595 123.032 15.9101 123.36 15.9399C123.869 15.9948 124.364 16.1363 124.824 16.3583C125.048 16.4927 125.063 16.6571 125.019 16.7766C124.974 16.8961 124.914 17.0455 124.914 17.0455L124.824 17.2547L122.897 17.3443L122.643 16.5375Z" fill="#FDBF69"/>
<path d="M129.471 75.849C131.249 68.9915 128.32 64.9577 125.078 64.2704C121 63.4338 116.667 66.5563 117.13 73.0104C117.743 81.7204 126.408 81.8997 126.408 81.8997C126.408 81.8997 128.634 79.091 129.471 75.849Z" fill="#698EFD"/>
<path d="M170.123 83.3639C158.006 81.0033 150.028 78.9864 142.513 80.6C137.867 81.586 131.338 85.4256 132.488 90.5501C133.221 93.8219 136.836 95.6147 139.884 94.8677C141.243 94.5391 142.17 94.0909 143.066 93.6875C149.386 95.1815 160.277 96.3319 165.327 94.6884C170.377 93.045 170.123 83.3639 170.123 83.3639Z" fill="url(#paint0_linear_780_22182)"/>
<path d="M164.46 95.4952C163.011 96.0181 161.159 96.2123 159.127 96.2123C155.735 96.2123 151.866 95.6745 148.489 95.1964C147.339 95.0321 146.233 94.8827 145.292 94.7781C144.887 94.7245 144.475 94.755 144.082 94.8677L143.051 93.6875C143.694 93.3289 144.56 93.1795 145.471 93.2841L148.699 93.7173C153.659 94.4195 160.441 95.3608 163.952 94.0908C168.016 92.6118 169.913 88.563 169.6 82.094C169.596 81.9959 169.611 81.8979 169.645 81.8057C169.679 81.7136 169.731 81.629 169.797 81.5568C169.864 81.4847 169.944 81.4264 170.033 81.3852C170.122 81.3441 170.219 81.3209 170.317 81.3171C170.414 81.311 170.512 81.3245 170.604 81.3567C170.696 81.3889 170.781 81.4392 170.853 81.5046C170.925 81.5701 170.984 81.6493 171.025 81.7377C171.067 81.826 171.09 81.9218 171.094 82.0193C171.437 89.1307 169.152 93.7771 164.46 95.4952Z" fill="#3333D3"/>
<path d="M150.596 30.2964L150.91 24.6939C152.897 24.0216 161.174 23.6929 165.402 25.6202C170.541 27.9508 173.469 31.5813 173.484 34.3452V36.3023L150.596 30.2964Z" fill="#FDBF69"/>
<path d="M181.522 67.3036C181.432 67.6472 181.343 67.9609 181.238 68.2597C179.46 74.0266 176.562 74.3254 171.198 74.3254C159.889 74.3254 152.329 74.2358 141.049 74.2358C135.462 74.2358 132.623 71.9649 129.59 64.7189C127.902 60.6851 125.93 55.5607 127.364 48.6135C128.619 42.5329 132.19 37.3935 135.566 34.5549C138.943 31.7163 148.19 29.3707 154.928 29.3707C159.261 29.3707 167.105 29.7143 176.562 35.1974C179.58 36.9453 181.746 38.9324 182.508 42.8616C182.506 42.8923 182.511 42.923 182.523 42.9513C183.882 50.0926 183.404 60.1323 181.522 67.3036Z" fill="white"/>
<path d="M153.315 32.6129C153.614 32.6129 154.062 32.8818 156.258 31.3878C158.454 29.8938 160.322 29.5801 162.04 29.6996V28.2205L152.553 27.6976L153.315 32.6129Z" fill="#FDBF69"/>
<path d="M181.522 67.3036C181.432 67.6472 181.342 67.961 181.238 68.2598C179.311 66.8405 178.145 61.2828 178.668 52.7968C179.042 46.4473 180.177 43.1754 182.523 42.9513C183.882 50.0926 183.404 60.1324 181.522 67.3036Z" fill="#C7CCD1"/>
<path d="M151.134 24.6345C149.58 24.6345 147.817 31.985 148.43 32.4482C149.042 32.9113 149.46 32.3436 151.134 32.3436C152.807 32.3436 153.315 32.8516 153.853 32.4482C154.391 32.0448 152.687 24.6345 151.134 24.6345Z" fill="#FD8A1A"/>
<path d="M173.006 51.6011C172.767 53.5583 171.885 56.0085 169.39 60.117C166.895 64.2255 165.252 64.9426 163.145 64.9426H139.749C137.927 64.9426 135.581 64.1956 133.206 57.6519C132.339 55.2316 131.846 53.14 131.936 51.1529C132.025 49.1659 132.937 45.162 134.909 42.1142C137.837 37.5724 140.974 36.4967 142.289 36.8852C143.858 37.3483 144.366 38.917 145.785 40.9788C146.024 41.3074 146.263 41.6361 146.547 41.9797C147.668 43.3841 148.937 43.2945 150.536 42.0993C150.984 41.7556 151.447 41.3672 151.911 40.9788C154.137 39.1112 156.497 36.9449 159.575 36.93C161.323 36.9151 164.699 37.0794 168.868 42.8313C172.364 47.657 173.26 49.4348 173.006 51.6011Z" fill="#698EFD"/>
<path d="M182.627 42.3384L185.137 31.1483C185.214 30.8479 185.401 30.5876 185.662 30.4199C185.922 30.2522 186.237 30.1894 186.542 30.2444C186.847 30.2993 187.12 30.4678 187.305 30.716C187.491 30.9641 187.576 31.2734 187.543 31.5816L185.959 42.951L182.627 42.3384Z" fill="#C7CCD1"/>
<path d="M183.688 34.465C183.987 32.9113 188.17 32.5975 187.588 36.7807L186.841 44.8484L181.223 44.0267L183.688 34.465Z" fill="#C7CCD1"/>
<path d="M183.24 40.8451C180.715 40.8451 178.668 46.1936 178.668 52.7972C178.668 59.4007 180.715 64.7492 183.24 64.7492C186.198 64.7492 188.394 60.3867 188.394 52.7972C188.394 45.2076 186.198 40.8451 183.24 40.8451Z" fill="#E3E5E8"/>
<path d="M189.485 52.9011C189.425 59.3701 188.708 61.7008 187.498 61.91C186.924 61.9982 186.337 61.9365 185.795 61.7307C184.853 61.2974 184.181 57.4877 184.181 52.7965C184.181 48.1053 184.838 45.0426 185.615 44.3703C185.959 44.0864 186.781 44.0118 187.498 44.3255C188.573 44.8036 189.545 46.1631 189.485 52.9011Z" fill="#FDBF69"/>
<path d="M189.485 52.901C189.47 54.4547 189.41 55.7695 189.335 56.875C187.991 55.1121 187.05 54.1709 186.87 53.5882C186.571 52.6769 186.825 51.2874 186.945 49.8831C187.064 48.4787 187.587 48.8672 189.485 51.6609V52.901Z" fill="#FD8A1A"/>
<path d="M163.25 60.7152C162.324 60.6555 161.338 59.535 160.665 58.3398C160.36 57.797 160.119 57.2204 159.948 56.6216C159.754 55.8896 160.098 55.6655 160.322 55.5011C161.308 54.784 164.714 53.9474 165.162 54.6645C165.33 54.9578 165.432 55.2841 165.461 55.6207C165.685 57.4882 164.953 60.8198 163.25 60.7152Z" fill="#E9459D"/>
<path d="M163.25 60.7147C162.324 60.6549 161.338 59.5344 160.666 58.3392C161.144 57.6818 161.876 56.89 162.832 56.4119C163.658 56.0034 164.547 55.7358 165.461 55.6201C165.685 57.4876 164.953 60.8193 163.25 60.7147Z" fill="#FDABD5"/>
<path d="M136.911 48.2248C137.884 48.2248 138.674 47.4355 138.674 46.4619C138.674 45.4883 137.884 44.699 136.911 44.699C135.937 44.699 135.148 45.4883 135.148 46.4619C135.148 47.4355 135.937 48.2248 136.911 48.2248Z" fill="black"/>
<path d="M162.428 48.2248C163.402 48.2248 164.191 47.4355 164.191 46.4619C164.191 45.4883 163.402 44.699 162.428 44.699C161.455 44.699 160.666 45.4883 160.666 46.4619C160.666 47.4355 161.455 48.2248 162.428 48.2248Z" fill="black"/>
<path d="M158.992 44.1762V50.2718C158.992 51.5912 158.468 52.8566 157.535 53.7896C156.602 54.7227 155.337 55.2468 154.017 55.2468H146.233C144.668 55.2468 143.167 54.6251 142.06 53.5184C140.954 52.4116 140.332 50.9106 140.332 49.3455V44.1762C140.332 43.7551 140.415 43.3381 140.577 42.9492C140.738 42.5604 140.975 42.2073 141.274 41.9102C141.572 41.6131 141.926 41.3779 142.316 41.2181C142.706 41.0583 143.123 40.9771 143.544 40.979H145.785C146.024 41.3077 146.263 41.6364 146.547 41.98C147.668 43.3844 148.938 43.2947 150.536 42.0995C150.984 41.7559 151.447 41.3675 151.911 40.979H155.795C156.643 40.979 157.456 41.3159 158.056 41.9155C158.655 42.5151 158.992 43.3283 158.992 44.1762Z" fill="#B5CAFD"/>
<path d="M146.233 46.1631H144.022C143.63 46.1631 143.254 46.3189 142.976 46.5963C142.699 46.8737 142.543 47.2499 142.543 47.6422C142.543 48.0344 142.699 48.4106 142.976 48.688C143.254 48.9654 143.63 49.1212 144.022 49.1212H146.233C146.626 49.1212 147.002 48.9654 147.279 48.688C147.557 48.4106 147.712 48.0344 147.712 47.6422C147.712 47.2499 147.557 46.8737 147.279 46.5963C147.002 46.3189 146.626 46.1631 146.233 46.1631Z" fill="#698EFD"/>
<path d="M153.898 46.1631H151.701C151.309 46.1631 150.933 46.3189 150.656 46.5963C150.378 46.8737 150.222 47.2499 150.222 47.6422C150.222 48.0344 150.378 48.4106 150.656 48.688C150.933 48.9654 151.309 49.1212 151.701 49.1212H153.898C154.29 49.1212 154.666 48.9654 154.943 48.688C155.221 48.4106 155.377 48.0344 155.377 47.6422C155.377 47.2499 155.221 46.8737 154.943 46.5963C154.666 46.3189 154.29 46.1631 153.898 46.1631Z" fill="#698EFD"/>
<path d="M179.52 135.281L113.156 117.831L100.502 136.91C100.502 136.91 103.311 147.965 106.553 156.586C109.69 164.922 112.14 168.986 115.412 173.304C116.04 174.155 116.279 174.618 117.892 174.618H194.057C195.775 174.618 195.969 174.439 196.507 173.513C203.648 161.277 205.964 144.38 206.412 139.076L179.52 135.281Z" fill="#FDBF69"/>
<path d="M204.41 151.775L204.052 153.343C201.631 153.678 199.19 153.843 196.746 153.836C184.122 153.836 171.736 149.623 158.768 145.231C145.352 140.674 131.473 135.968 115.696 135.131C110.108 139.494 106.478 148.293 105.044 152.312C104.775 151.55 104.536 150.788 104.282 150.027C106.09 145.38 109.675 137.806 115.009 133.772C115.153 133.671 115.326 133.619 115.502 133.622C131.592 134.444 145.651 139.21 159.246 143.811C174.709 149.07 189.365 154.03 204.41 151.775Z" fill="#FD8A1A"/>
<path d="M200.167 165.938C199.943 166.491 199.704 167.044 199.465 167.597C196.776 168.11 194.044 168.36 191.308 168.344C179.445 168.344 166.701 164.13 154.286 160.022C142.244 156.033 129.814 151.909 118.609 151.865C113.769 154.479 111.199 160.888 110.049 164.773C109.735 164.145 109.421 163.473 109.107 162.786C110.512 158.632 113.246 152.94 118.086 150.46C118.191 150.401 118.31 150.37 118.43 150.371C129.919 150.371 142.543 154.554 154.749 158.603C170.242 163.727 186.243 169.031 200.167 165.938Z" fill="#FD8A1A"/>
<path d="M208.593 141.646L206.173 142.721C197.612 143.334 187.797 142.99 163.146 134.325C140.108 126.228 129.859 124.883 120.462 123.509C120.626 129.933 121.179 141.138 123.958 153.419C126.737 165.699 133.4 174.619 133.4 174.619H123.495C123.495 174.619 117.578 167.388 113.679 147.174C112.758 142.469 112.154 137.707 111.871 132.921C111.737 130.68 111.677 128.528 111.602 126.392C110.542 127.662 107.15 132.682 105.073 136.506C101.921 142.333 102.085 143.782 102.085 143.782C102.085 143.782 100.86 143.782 100.517 143.603C100.173 143.424 100.054 142.766 99.7697 141.765C99.4605 140.737 99.2504 139.681 99.1423 138.613C99.0788 138.001 99.0888 137.384 99.1721 136.775C99.3664 135.61 101.07 130.904 104.67 125.436C106.986 121.91 112.021 116.038 114.127 114.425L114.321 114.276C115.024 113.768 115.278 113.753 116.054 113.812C126.034 114.485 147.01 119.385 167.164 126.616C189.903 134.773 196.761 134.43 203.872 134.206C208.862 134.056 208.772 134.206 208.877 135.879C209.086 139.45 208.728 140.869 208.593 141.646Z" fill="white"/>
<path d="M102.803 145.186C100.935 145.634 100.666 144.096 100.382 143.438L101.742 141.511C102.056 142.616 102.399 143.856 102.803 145.186Z" fill="#FD8A1A"/>
<path d="M105.073 136.506C101.921 142.332 102.085 143.781 102.085 143.781C102.085 143.781 100.86 143.781 100.517 143.602C100.173 143.423 100.054 142.765 99.7697 141.764C100.86 138.776 103.042 133.996 105.91 129.514C108.779 125.032 110.347 123.089 111.035 122.402C111.303 122.118 111.513 121.76 111.528 122.327C111.543 122.895 111.602 126.391 111.602 126.391C110.542 127.661 107.15 132.681 105.073 136.506Z" fill="#FD8A1A"/>
<path d="M208.877 139.569C206.98 139.883 203.738 140.062 198.195 139.927C185.466 139.614 168.674 132.622 155.392 128.259C136.224 121.969 124.167 120.699 121.732 120.296C120.342 120.057 120.372 120.446 120.387 121.073C120.402 121.7 120.462 123.508 120.462 123.508C129.859 124.883 140.108 126.227 163.146 134.325C187.677 142.945 197.523 143.334 206.039 142.736C205.964 143.139 205.889 143.558 205.829 143.976C207.861 143.886 208.459 143.558 208.862 140.211C208.869 140.183 208.87 140.154 208.865 140.126C208.859 140.098 208.848 140.071 208.832 140.047C208.863 139.889 208.878 139.729 208.877 139.569Z" fill="#FD8A1A"/>
<path d="M128.455 174.618H126.662C126.318 174.066 125.96 173.468 125.571 172.796C123.674 169.494 120.97 164.011 118.938 156.616C115.143 142.856 114.531 126.631 114.516 118.19C114.516 116.487 114.531 115.112 114.545 114.126C115.098 113.768 115.367 113.768 116.054 113.812C116.025 114.858 115.995 116.502 116.01 118.578C116.054 127.049 116.682 142.826 120.372 156.212C122.852 165.161 126.303 171.347 128.455 174.618Z" fill="#FDBF69"/>
<path d="M108.51 174.618C102.056 174.618 98.0965 169.344 102.085 166.506C105.776 163.891 110.108 167.058 115.113 170.271C116.801 171.361 121.313 171.346 126.214 169.359C131.114 167.372 140.706 164.175 145.307 165.848C149.64 167.417 152.374 170.584 155.93 169.27C159.022 168.119 166.447 154.763 175.187 155.226C180.506 155.525 178.31 162.92 181.014 165.355C183.315 167.432 187.901 165.012 190.605 162.741C194.848 159.2 198.822 156.526 202.886 155.091C207.637 153.418 212.612 156.361 210.431 160.724C209.594 162.397 206.905 164.593 207.249 166.087C207.831 168.642 210.282 167.85 212.567 169.24C214.853 170.629 214.614 174.618 210.311 174.618H108.51Z" fill="#89D7FD"/>
<path d="M43.2814 51.766C38.142 55.4562 38.142 57.757 43.6997 60.1324C46.2096 61.2081 53.7843 62.2091 55.4277 55.9791C56.1801 53.1084 56.6011 50.1609 56.6826 47.1943L48.8839 48.016C48.8839 48.016 46.4935 49.4503 43.2814 51.766Z" fill="white"/>
<path d="M33.929 12.7879C27.8036 11.2192 26.7578 9.66539 30.8812 5.25807C35.0047 0.850752 39.92 -0.762776 43.7148 4.45131C45.456 6.85291 46.9195 9.44412 48.0773 12.1753L40.5026 14.252C40.5026 14.252 37.7686 13.7889 33.929 12.7879Z" fill="white"/>
<path d="M66.0054 16.7463C64.1899 14.8553 61.9957 13.3687 59.5663 12.3838C57.2246 11.4226 54.7171 10.9302 52.1859 10.9346C50.3416 10.9341 48.5062 11.1905 46.7327 11.6965L46.5983 11.7414L30.8514 17.0152C30.1675 17.2366 29.5343 17.5915 28.9883 18.0592C28.4424 18.5269 27.9946 19.0983 27.6709 19.7401C27.3472 20.382 27.154 21.0817 27.1024 21.7987C27.0508 22.5158 27.1419 23.2359 27.3704 23.9175C27.6685 24.7849 28.1766 25.5651 28.8495 26.1884L22.3954 28.3547C21.2534 28.7412 20.3056 29.5552 19.751 30.6256C19.3938 31.3231 19.2226 32.1009 19.2538 32.8839C19.285 33.6669 19.5176 34.4286 19.9291 35.0955C20.3406 35.7623 20.9172 36.3118 21.6031 36.6908C22.2889 37.0698 23.061 37.2655 23.8445 37.259C24.3425 37.2612 24.8373 37.1804 25.3087 37.02L26.1453 36.7361C26.9222 36.4821 29.0736 35.526 29.1034 35.526C29.0176 36.2054 29.0892 36.8955 29.3126 37.5429C29.6158 38.4539 30.1999 39.2454 30.981 39.8037C31.7621 40.362 32.7001 40.6585 33.6602 40.6504C34.1568 40.6513 34.6506 40.5757 35.1243 40.4263L35.7817 40.2022C36.4061 41.1921 37.1267 42.1179 37.933 42.9661C39.7184 44.8725 41.8945 46.3708 44.3124 47.3585C46.651 48.3316 49.1599 48.8293 51.6928 48.8226C56.5946 48.8357 61.3211 47.0006 64.9297 43.6832C68.844 40.0827 71.0701 35.257 71.2195 30.0878C71.2922 27.6276 70.8678 25.1781 69.9719 22.8857C69.076 20.5934 67.727 18.5052 66.0054 16.7463Z" fill="white"/>
<path d="M58.0571 27.5628L53.6797 23.7979C53.6062 23.7311 53.5156 23.686 53.4181 23.6676C53.3205 23.6491 53.2197 23.658 53.1269 23.6933L47.4945 25.5758C47.3993 25.6063 47.3136 25.6608 47.2455 25.7341C47.1775 25.8073 47.1295 25.8969 47.1061 25.9941L45.881 31.6414C45.8588 31.7448 45.8652 31.8522 45.8994 31.9522C45.9336 32.0522 45.9944 32.141 46.0752 32.2091L50.4526 35.974C50.5263 36.0405 50.6161 36.0866 50.7131 36.1075C50.8101 36.1285 50.9109 36.1237 51.0054 36.0936L56.6378 34.1962C56.733 34.1656 56.8188 34.1111 56.8868 34.0378C56.9548 33.9646 57.0029 33.875 57.0263 33.7779L58.2514 28.1305C58.2735 28.0272 58.2672 27.9197 58.2329 27.8197C58.1987 27.7197 58.138 27.6309 58.0571 27.5628ZM58.0571 27.5628L53.6797 23.7979C53.6062 23.7311 53.5156 23.686 53.4181 23.6676C53.3205 23.6491 53.2197 23.658 53.1269 23.6933L47.4945 25.5758C47.3993 25.6063 47.3136 25.6608 47.2455 25.7341C47.1775 25.8073 47.1295 25.8969 47.1061 25.9941L45.881 31.6414C45.8588 31.7448 45.8652 31.8522 45.8994 31.9522C45.9336 32.0522 45.9944 32.141 46.0752 32.2091L50.4526 35.974C50.5263 36.0405 50.6161 36.0866 50.7131 36.1075C50.8101 36.1285 50.9109 36.1237 51.0054 36.0936L56.6378 34.1962C56.733 34.1656 56.8188 34.1111 56.8868 34.0378C56.9548 33.9646 57.0029 33.875 57.0263 33.7779L58.2514 28.1305C58.2735 28.0272 58.2672 27.9197 58.2329 27.8197C58.1987 27.7197 58.138 27.6309 58.0571 27.5628ZM63.8539 18.8228C59.5661 14.3408 53.2166 12.9663 47.5393 14.5649L31.7925 19.8388C31.4827 19.9386 31.1957 20.0988 30.9481 20.3101C30.7006 20.5215 30.4973 20.7797 30.3501 21.07C30.2028 21.3603 30.1145 21.6769 30.0903 22.0015C30.0661 22.3261 30.1064 22.6523 30.2088 22.9612C30.657 24.3208 32.0913 24.9034 33.3463 24.4851L37.395 23.1405C37.5942 23.0663 37.8064 23.033 38.0187 23.0426C38.2311 23.0521 38.4394 23.1044 38.6312 23.1961C38.8229 23.2879 38.9942 23.4173 39.1349 23.5767C39.2756 23.7361 39.3827 23.9222 39.45 24.1238C39.5172 24.3255 39.5431 24.5387 39.5262 24.7506C39.5093 24.9625 39.4499 25.1688 39.3516 25.3573C39.2532 25.5458 39.1179 25.7125 38.9537 25.8476C38.7896 25.9827 38.5999 26.0833 38.396 26.1435L28.5057 29.4602C28.3018 29.5204 28.1121 29.621 27.9479 29.7561C27.7838 29.8911 27.6485 30.0579 27.5501 30.2463C27.4518 30.4348 27.3924 30.6411 27.3755 30.8531C27.3586 31.065 27.3845 31.2781 27.4517 31.4798C27.5189 31.6815 27.6261 31.8676 27.7668 32.0269C27.9074 32.1863 28.0788 32.3158 28.2705 32.4075C28.4623 32.4993 28.6706 32.5515 28.8829 32.5611C29.0953 32.5706 29.3074 32.5373 29.5067 32.4631L36.6181 30.0727C37.0205 29.9433 37.4574 29.9753 37.8366 30.1621C38.2157 30.3489 38.5074 30.6758 38.65 31.0737C38.7822 31.4759 38.7496 31.9141 38.5591 32.2922C38.3686 32.6704 38.036 32.9575 37.6341 33.0906L33.167 34.5846C32.9631 34.6448 32.7734 34.7454 32.6092 34.8805C32.4451 35.0156 32.3098 35.1823 32.2114 35.3708C32.1131 35.5592 32.0537 35.7656 32.0368 35.9775C32.0199 36.1894 32.0458 36.4026 32.113 36.6042C32.1802 36.8059 32.2874 36.992 32.4281 37.1514C32.5687 37.3108 32.7401 37.4402 32.9318 37.532C33.1236 37.6237 33.3319 37.6759 33.5442 37.6855C33.7566 37.6951 33.9687 37.6617 34.168 37.5876L37.2456 36.5567C37.931 38.1683 38.8972 39.6455 40.0992 40.9192C46.1051 47.2687 56.3988 47.463 62.9127 41.472C69.6656 35.2719 69.9943 25.1276 63.8539 18.8228ZM58.2962 36.4073C54.5612 39.8734 48.7196 39.724 45.2386 36.0786C41.7575 32.4332 41.9966 26.6813 45.7316 23.2302C49.4666 19.779 55.3231 19.9135 58.7892 23.5588C62.2553 27.2042 62.0461 32.9561 58.2962 36.4073ZM58.0571 27.5628L53.6797 23.7979C53.6062 23.7311 53.5156 23.686 53.4181 23.6676C53.3205 23.6491 53.2197 23.658 53.1269 23.6933L47.4945 25.5758C47.3993 25.6063 47.3136 25.6608 47.2455 25.7341C47.1775 25.8073 47.1295 25.8969 47.1061 25.9941L45.881 31.6414C45.8588 31.7448 45.8652 31.8522 45.8994 31.9522C45.9336 32.0522 45.9944 32.141 46.0752 32.2091L50.4526 35.974C50.5263 36.0405 50.6161 36.0866 50.7131 36.1075C50.8101 36.1285 50.9109 36.1237 51.0054 36.0936L56.6378 34.1962C56.733 34.1656 56.8188 34.1111 56.8868 34.0378C56.9548 33.9646 57.0029 33.875 57.0263 33.7779L58.2514 28.1305C58.2735 28.0272 58.2672 27.9197 58.2329 27.8197C58.1987 27.7197 58.138 27.6309 58.0571 27.5628ZM26.2198 31.8954C26.0808 31.4955 25.7888 31.167 25.4078 30.9822C25.0269 30.7973 24.5882 30.7711 24.188 30.9094L23.3513 31.1783C22.9514 31.3149 22.6202 31.6018 22.4278 31.9781C22.2354 32.3545 22.197 32.791 22.3205 33.1952C22.4595 33.5951 22.7516 33.9236 23.1325 34.1084C23.5134 34.2933 23.9521 34.3195 24.3523 34.1812L25.189 33.9123C25.589 33.7757 25.9201 33.4888 26.1125 33.1124C26.3049 32.7361 26.3434 32.2996 26.2198 31.8954Z" fill="url(#paint1_linear_780_22182)"/>
<path d="M77.4045 23.5895C75.9852 25.6064 72.8926 25.2777 70.3677 24.0227C69.3366 23.5358 68.4045 22.8621 67.6188 22.0357C67.2005 21.5726 67.0212 20.7807 67.1108 19.7499C67.1449 19.2565 67.2199 18.7667 67.3349 18.2857C67.9773 15.3276 69.9195 12.1603 72.7133 12.1155C74.6107 12.1005 76.1047 13.3854 75.6864 15.5816C75.4787 16.5636 74.9473 17.4474 74.1775 18.0915C74.1775 18.0915 75.1934 18.0318 75.8956 18.3903C76.1744 18.5294 76.4395 18.6945 76.6874 18.8833C77.9573 19.8544 78.6147 21.8863 77.4045 23.5895Z" fill="#FF78B9"/>
<path d="M45.7017 104.833C45.9556 111.152 44.7604 112.616 39.3671 109.927C33.9737 107.238 31.0006 103.01 34.885 97.8706C36.6868 95.5122 38.7464 93.3625 41.0254 91.4613L45.1937 98.1096C45.1937 98.1096 45.5373 100.874 45.7017 104.833Z" fill="white"/>
<path d="M81.3638 86.2779C86.2492 90.2968 88.1317 90.237 89.2522 84.3058C90.3727 78.3746 88.7741 73.4594 82.3349 73.4594C79.3668 73.4767 76.4101 73.8275 73.5203 74.5052L76.3141 81.8258C76.3141 81.8258 78.3011 83.768 81.3638 86.2779Z" fill="white"/>
<path d="M80.7213 93.2099L75.1785 77.5528C75.1649 77.5054 75.1447 77.4602 75.1188 77.4183C72.3548 70.6953 66.2892 66.0638 59.2673 65.3617C58.5975 65.2896 57.9242 65.2547 57.2504 65.2571C52.5719 65.2576 48.071 67.0484 44.6709 70.262C41.1937 73.5532 39.0683 78.0224 38.7098 82.7967C38.3146 87.8435 39.8948 92.8465 43.1171 96.7507C46.3741 100.725 50.9158 103.16 55.9208 103.638C56.4586 103.683 56.9965 103.713 57.5343 103.713C58.1683 103.715 58.8018 103.68 59.4317 103.608L59.6558 104.266C59.9737 105.165 60.5624 105.944 61.3409 106.495C62.1194 107.046 63.0495 107.342 64.0033 107.343C64.5182 107.342 65.0289 107.251 65.5123 107.074C66.1543 106.85 66.7367 106.482 67.2155 105.999C67.4097 106.268 68.082 109.076 68.082 109.076L68.3808 109.913C68.7031 110.808 69.2933 111.583 70.0712 112.13C70.849 112.678 71.7768 112.974 72.7283 112.976C73.2417 112.973 73.7512 112.887 74.2373 112.722C74.8083 112.517 75.3325 112.2 75.7789 111.789C76.2254 111.379 76.5851 110.883 76.8369 110.331C77.3459 109.237 77.4049 107.987 77.0012 106.85L76.7024 106.014L75.1785 101.726L74.7303 100.441C75.0218 100.489 75.3165 100.514 75.6118 100.516C76.2327 100.515 76.849 100.409 77.4345 100.202C78.1114 99.9614 78.7339 99.5892 79.2661 99.1067C79.7984 98.6243 80.2298 98.0412 80.5354 97.3911C80.841 96.741 81.0147 96.0368 81.0467 95.3191C81.0786 94.6015 80.968 93.8846 80.7213 93.2099Z" fill="white"/>
<path d="M63.7194 85.3812L61.7473 79.7786C61.7109 79.6858 61.6524 79.6033 61.5769 79.5382C61.5014 79.4731 61.4112 79.4274 61.314 79.4051L55.6368 78.2846C55.5357 78.262 55.4303 78.2682 55.3325 78.3025C55.2348 78.3368 55.1487 78.3979 55.084 78.4789L51.3938 82.9161C51.3298 82.9942 51.2867 83.0872 51.2684 83.1865C51.2501 83.2857 51.2573 83.388 51.2892 83.4838L53.2763 89.0863C53.3126 89.1791 53.3711 89.2617 53.4466 89.3267C53.5221 89.3918 53.6124 89.4375 53.7095 89.4598L59.3718 90.5803C59.4751 90.6025 59.5826 90.5961 59.6826 90.5619C59.7826 90.5277 59.8714 90.4669 59.9395 90.3861L63.6297 85.9489C63.6938 85.8708 63.7359 85.777 63.7517 85.6772C63.7675 85.5774 63.7563 85.4752 63.7194 85.3812ZM63.7194 85.3812L61.7473 79.7786C61.7109 79.6858 61.6524 79.6033 61.5769 79.5382C61.5014 79.4731 61.4112 79.4274 61.314 79.4051L55.6368 78.2846C55.5357 78.262 55.4303 78.2682 55.3325 78.3025C55.2348 78.3368 55.1487 78.3979 55.084 78.4789L51.3938 82.9161C51.3298 82.9942 51.2867 83.0872 51.2684 83.1865C51.2501 83.2857 51.2573 83.388 51.2892 83.4838L53.2763 89.0863C53.3126 89.1791 53.3711 89.2617 53.4466 89.3267C53.5221 89.3918 53.6124 89.4375 53.7095 89.4598L59.3718 90.5803C59.4751 90.6025 59.5826 90.5961 59.6826 90.5619C59.7826 90.5277 59.8714 90.4669 59.9395 90.3861L63.6297 85.9489C63.6938 85.8708 63.7359 85.777 63.7517 85.6772C63.7675 85.5774 63.7563 85.4752 63.7194 85.3812ZM77.9124 94.2108L72.3547 78.5536C70.1287 73.1154 65.1387 68.9471 58.9535 68.3346C50.2135 67.3784 42.4298 73.8923 41.6977 83.0356C40.9955 91.8502 47.4944 99.8432 56.2045 100.665C57.9455 100.823 59.7008 100.672 61.3887 100.217L62.4793 103.264C62.6187 103.665 62.9099 103.994 63.2901 104.181C63.6703 104.369 64.1089 104.399 64.5112 104.265C64.9055 104.111 65.225 103.811 65.4031 103.426C65.5812 103.042 65.6042 102.604 65.4674 102.204L63.8837 97.7814C63.7468 97.3808 63.7698 96.9428 63.948 96.5587C64.1261 96.1746 64.4456 95.874 64.8399 95.7197C65.2421 95.5863 65.6808 95.6165 66.061 95.8038C66.4411 95.9911 66.7324 96.3204 66.8717 96.7207L69.3816 103.787C69.5223 104.184 69.8146 104.508 70.1943 104.688C70.5739 104.869 71.0098 104.892 71.406 104.751C71.8023 104.61 72.1264 104.318 72.3071 103.938C72.4878 103.559 72.5103 103.123 72.3697 102.727L68.8886 92.8811C68.7949 92.6807 68.7441 92.4629 68.7397 92.2417C68.7352 92.0206 68.7772 91.8009 68.8628 91.5969C68.9484 91.3929 69.0758 91.2092 69.2368 91.0574C69.3978 90.9057 69.5888 90.7894 69.7975 90.716C70.0062 90.6425 70.2279 90.6137 70.4485 90.6312C70.669 90.6487 70.8834 90.7123 71.0779 90.8177C71.2724 90.9232 71.4426 91.0682 71.5776 91.2435C71.7126 91.4187 71.8094 91.6203 71.8617 91.8353L73.2959 95.8392C73.7292 97.0942 75.0738 97.8711 76.4334 97.378C76.7402 97.2696 77.0223 97.1012 77.2634 96.8825C77.5044 96.6639 77.6994 96.3994 77.8371 96.1046C77.9748 95.8097 78.0524 95.4904 78.0653 95.1652C78.0782 94.8401 78.0263 94.5156 77.9124 94.2108ZM66.6626 85.3065C66.2442 90.3861 61.8369 94.1211 56.832 93.6281C51.8271 93.1351 48.107 88.6232 48.5253 83.5435C48.9436 78.4639 53.351 74.7438 58.3559 75.2369C63.3608 75.7299 67.0809 80.2268 66.6626 85.3065ZM61.7473 79.7786C61.7109 79.6858 61.6524 79.6033 61.5769 79.5382C61.5014 79.4731 61.4112 79.4274 61.314 79.4051L55.6368 78.2846C55.5357 78.262 55.4303 78.2682 55.3325 78.3025C55.2348 78.3368 55.1487 78.3979 55.084 78.4789L51.3938 82.9161C51.3298 82.9942 51.2867 83.0872 51.2684 83.1865C51.2501 83.2857 51.2573 83.388 51.2892 83.4838L53.2763 89.0863C53.3126 89.1791 53.3711 89.2617 53.4466 89.3267C53.5221 89.3918 53.6124 89.4375 53.7095 89.4598L59.3718 90.5803C59.4751 90.6025 59.5826 90.5961 59.6826 90.5619C59.7826 90.5277 59.8714 90.4669 59.9395 90.3861L63.6297 85.9489C63.6938 85.8708 63.7359 85.777 63.7517 85.6772C63.7675 85.5774 63.7563 85.4752 63.7194 85.3812L61.7473 79.7786ZM74.1924 107.851L73.8936 107.014C73.7512 106.617 73.4588 106.291 73.0789 106.107C72.699 105.922 72.262 105.894 71.8617 106.028C71.4637 106.173 71.1394 106.47 70.9601 106.854C70.7809 107.238 70.7612 107.677 70.9055 108.075L71.2043 108.912C71.3434 109.312 71.6354 109.64 72.0163 109.825C72.3973 110.01 72.836 110.036 73.2362 109.898C73.6294 109.747 73.9486 109.449 74.1269 109.067C74.3052 108.686 74.3287 108.25 74.1924 107.851Z" fill="url(#paint2_linear_780_22182)"/>
<path d="M47.9278 60.5359C47.9477 59.5394 48.2537 58.5696 48.8093 57.7421C49.7355 56.3676 51.8271 55.9194 53.2465 57.1743C55.7116 59.3407 54.0383 64.2111 52.2156 66.736C51.618 67.5876 50.9606 68.0657 50.3481 68.1404C46.9716 68.5587 41.7874 66.0189 42.1161 62.493C42.3253 60.4014 44.2376 59.5946 45.8212 59.6843C46.5972 59.7323 47.3365 60.0311 47.9278 60.5359Z" fill="#FF78B9"/>
<path d="M48.63 65.212C48.5214 65.2121 48.414 65.1881 48.3158 65.1416C48.2176 65.095 48.131 65.0273 48.0623 64.9431C46.2097 62.7917 46.4189 60.8346 46.4338 60.7449C46.4703 60.56 46.5754 60.3957 46.728 60.285C46.8806 60.1742 47.0694 60.1253 47.2566 60.148C47.4437 60.1707 47.6154 60.2633 47.7371 60.4073C47.8588 60.5512 47.9216 60.7359 47.9129 60.9242C47.9129 60.969 47.8083 62.3585 49.1977 63.972C49.326 64.1237 49.39 64.3194 49.376 64.5176C49.3621 64.7157 49.2713 64.9006 49.123 65.0327C48.9845 65.1479 48.8102 65.2112 48.63 65.212Z" fill="#E40085"/>
<path d="M42.3702 58.2804C42.3702 58.2804 42.9379 59.864 43.6998 60.133C44.8502 60.5363 46.6579 60.9248 47.9279 60.9248C47.901 60.4328 47.9463 59.9395 48.0623 59.4607L47.3153 57.6678L43.3861 57.9517L42.3702 58.2804Z" fill="white"/>
<path d="M71.5032 21.1536C71.3246 21.1502 71.1532 21.0828 71.02 20.9638C70.8868 20.8448 70.8006 20.682 70.7771 20.505C70.7536 20.3279 70.7944 20.1483 70.8919 19.9987C70.9895 19.8491 71.1375 19.7394 71.309 19.6895C73.2512 19.1516 74.043 18.1058 74.043 18.0909C74.162 17.9333 74.3376 17.8281 74.5327 17.7974C74.7278 17.7668 74.9272 17.8131 75.0888 17.9266C75.1696 17.9832 75.2384 18.0552 75.2912 18.1386C75.3439 18.2219 75.3797 18.3149 75.3964 18.4121C75.413 18.5093 75.4103 18.6089 75.3883 18.7051C75.3662 18.8012 75.3254 18.8921 75.2681 18.9724C75.2233 19.0321 74.1774 20.4365 71.7123 21.1237C71.6455 21.1482 71.5742 21.1584 71.5032 21.1536Z" fill="#E40085"/>
<path d="M73.087 18.0763C84.0978 19.7944 104.162 10.0535 119.745 4.89915C144.052 -3.15354 155.975 2.74778 155.661 9.27659C155.317 16.403 144.501 20.6609 126.438 14.7895" stroke="white" stroke-width="2" stroke-linecap="round" stroke-linejoin="round"/>
<path d="M69.6357 18.2853C70.6068 19.3162 73.1615 18.853 73.1615 18.853C73.7619 18.427 74.322 17.9469 74.8348 17.4188L71.8767 15.9397L69.6357 18.2853Z" fill="#FF78B9"/>
<path d="M4.76588 16.8511C4.30007 16.5494 3.90346 16.1524 3.60217 15.6863C3.30088 15.2202 3.10175 14.6956 3.01789 14.1469L2.73403 12.2496C2.72732 12.2058 2.7059 12.1657 2.6733 12.1359C2.6407 12.106 2.59888 12.0881 2.55475 12.0852C2.50802 12.0847 2.46266 12.101 2.42699 12.1312C2.39131 12.1613 2.36772 12.2034 2.36053 12.2496L2.07667 14.1469C1.99281 14.6956 1.79368 15.2202 1.49239 15.6863C1.19111 16.1524 0.794495 16.5494 0.328682 16.8511L0.0896404 17.0005C0.0629602 17.0191 0.0409683 17.0436 0.0254086 17.0721C0.00984889 17.1006 0.0011494 17.1324 0 17.1648H0C0.0011494 17.1973 0.00984889 17.2291 0.0254086 17.2576C0.0409683 17.2861 0.0629602 17.3106 0.0896404 17.3292L0.328682 17.4786C0.794495 17.7803 1.19111 18.1773 1.49239 18.6434C1.79368 19.1095 1.99281 19.6341 2.07667 20.1827L2.36053 22.0801C2.3679 22.125 2.39207 22.1654 2.42814 22.1932C2.4642 22.2209 2.50946 22.2339 2.55475 22.2295C2.59755 22.2301 2.63915 22.2154 2.67203 22.188C2.70491 22.1606 2.7269 22.1223 2.73403 22.0801L3.01789 20.1827C3.10175 19.6341 3.30088 19.1095 3.60217 18.6434C3.90346 18.1773 4.30007 17.7803 4.76588 17.4786L5.01986 17.3292C5.06529 17.2863 5.0921 17.2273 5.09456 17.1648C5.0921 17.1024 5.06529 17.0434 5.01986 17.0005L4.76588 16.8511Z" fill="#FFE75C"/>
<path d="M88.1314 43.9375C87.663 43.6387 87.2644 43.2425 86.9628 42.7759C86.6612 42.3092 86.4636 41.7831 86.3834 41.2333L86.0996 39.3509C86.0928 39.3072 86.0714 39.2671 86.0388 39.2372C86.0062 39.2073 85.9644 39.1894 85.9203 39.1865C85.8735 39.186 85.8282 39.2023 85.7925 39.2325C85.7568 39.2627 85.7332 39.3047 85.7261 39.3509L85.4422 41.2333C85.3621 41.7831 85.1645 42.3092 84.8628 42.7759C84.5612 43.2425 84.1626 43.6387 83.6942 43.9375L83.4552 44.1018C83.4253 44.1168 83.4007 44.1406 83.3847 44.17C83.3686 44.1993 83.362 44.2329 83.3655 44.2662C83.362 44.2994 83.3686 44.333 83.3847 44.3623C83.4007 44.3917 83.4253 44.4155 83.4552 44.4305L83.6942 44.5948C84.1626 44.8937 84.5612 45.2898 84.8628 45.7565C85.1645 46.2231 85.3621 46.7492 85.4422 47.299L85.7261 49.1814C85.7332 49.2276 85.7568 49.2697 85.7925 49.2998C85.8282 49.33 85.8735 49.3463 85.9203 49.3458C85.9644 49.3429 86.0062 49.325 86.0388 49.2951C86.0714 49.2653 86.0928 49.2252 86.0996 49.1814L86.3834 47.299C86.4636 46.7492 86.6612 46.2231 86.9628 45.7565C87.2644 45.2898 87.663 44.8937 88.1314 44.5948L88.3854 44.4305C88.4102 44.4112 88.43 44.3862 88.443 44.3575C88.456 44.3289 88.4619 44.2976 88.4601 44.2662C88.4619 44.2348 88.456 44.2034 88.443 44.1748C88.43 44.1462 88.4102 44.1211 88.3854 44.1018L88.1314 43.9375Z" fill="#91FFAD"/>
<path d="M24.457 78.18C23.9931 77.8761 23.5979 77.4786 23.2969 77.0129C22.9959 76.5471 22.7956 76.0236 22.709 75.4758L22.4252 73.5934C22.4253 73.5705 22.4206 73.5478 22.4114 73.5268C22.4022 73.5058 22.3888 73.487 22.3719 73.4715C22.355 73.4561 22.3351 73.4443 22.3134 73.437C22.2917 73.4297 22.2687 73.4269 22.2459 73.429C22.1992 73.4285 22.1538 73.4448 22.1181 73.475C22.0825 73.5052 22.0589 73.5472 22.0517 73.5934L21.7678 75.4758C21.6867 76.0253 21.4888 76.5511 21.1872 77.0175C20.8857 77.484 20.4876 77.8804 20.0198 78.18L19.7808 78.3443C19.7533 78.3583 19.7304 78.3797 19.7145 78.4062C19.6987 78.4326 19.6906 78.4629 19.6911 78.4937C19.6876 78.527 19.6943 78.5605 19.7103 78.5899C19.7263 78.6193 19.7509 78.643 19.7808 78.6581L20.0198 78.8075C20.4893 79.1086 20.8885 79.5073 21.1901 79.9765C21.4917 80.4457 21.6888 80.9744 21.7678 81.5265L22.0517 83.409C22.0615 83.4539 22.0858 83.4944 22.1209 83.5241C22.156 83.5538 22.2 83.5711 22.2459 83.5733C22.291 83.5735 22.3344 83.5567 22.3677 83.5262C22.4009 83.4958 22.4214 83.4539 22.4252 83.409L22.709 81.5265C22.7936 80.9761 22.993 80.4497 23.2941 79.9812C23.5952 79.5128 23.9914 79.1129 24.457 78.8075L24.711 78.6581C24.7377 78.6395 24.7597 78.615 24.7752 78.5865C24.7908 78.5579 24.7995 78.5262 24.8007 78.4937C24.7984 78.4636 24.7891 78.4343 24.7735 78.4084C24.758 78.3825 24.7366 78.3605 24.711 78.3443L24.457 78.18Z" fill="#808AFF"/>
<path d="M80.0639 54.3214C79.8075 54.1547 79.5895 53.9352 79.4247 53.6776C79.2598 53.4199 79.1517 53.1301 79.1077 52.8274L78.9434 51.7966C78.9434 51.7728 78.9339 51.75 78.9171 51.7332C78.9003 51.7164 78.8775 51.7069 78.8537 51.7069C78.8284 51.7067 78.8038 51.7156 78.7846 51.7321C78.7654 51.7486 78.7528 51.7715 78.7492 51.7966L78.5848 52.8274C78.5408 53.1301 78.4327 53.4199 78.2679 53.6776C78.103 53.9352 77.8851 54.1547 77.6286 54.3214L77.4942 54.4111C77.4798 54.4173 77.4678 54.4278 77.4598 54.4412C77.4517 54.4546 77.4481 54.4702 77.4494 54.4858C77.4522 54.5203 77.4683 54.5524 77.4942 54.5754L77.6286 54.6651C77.886 54.8272 78.1049 55.0436 78.27 55.299C78.4351 55.5545 78.5426 55.8429 78.5848 56.1441L78.7492 57.175C78.7492 57.2347 78.794 57.2646 78.8537 57.2646C78.8775 57.2646 78.9003 57.2552 78.9171 57.2384C78.9339 57.2216 78.9434 57.1988 78.9434 57.175L79.1077 56.1441C79.15 55.8429 79.2574 55.5545 79.4225 55.299C79.5877 55.0436 79.8065 54.8272 80.0639 54.6651L80.1983 54.5754C80.2243 54.5524 80.2403 54.5203 80.2432 54.4858C80.2444 54.4702 80.2408 54.4546 80.2328 54.4412C80.2247 54.4278 80.2127 54.4173 80.1983 54.4111L80.0639 54.3214Z" fill="#8CD9FF"/>
<defs>
<linearGradient id="paint0_linear_780_22182" x1="132.351" y1="87.7563" x2="170.131" y2="87.7563" gradientUnits="userSpaceOnUse">
<stop stop-color="#A0BAFD"/>
<stop offset="0.76" stop-color="#698EFD"/>
</linearGradient>
<linearGradient id="paint1_linear_780_22182" x1="31.6618" y1="44.4477" x2="62.5991" y2="17.5596" gradientUnits="userSpaceOnUse">
<stop stop-color="#B273F3"/>
<stop offset="1" stop-color="#E090A8"/>
</linearGradient>
<linearGradient id="paint2_linear_780_22182" x1="59.2955" y1="113.691" x2="61.3194" y2="72.9226" gradientUnits="userSpaceOnUse">
<stop stop-color="#B273F3"/>
<stop offset="1" stop-color="#E090A8"/>
</linearGradient>
</defs>
</svg>
