<svg width="25" height="38" viewBox="0 0 25 38" fill="none" xmlns="http://www.w3.org/2000/svg">
<path d="M13.9958 0L3 11.1498V26.8586L13.9958 38L24.9998 26.8586V11.1498L13.9958 0ZM19.4978 24.5497L13.9958 30.1162L8.49374 24.5497V13.4587L13.9958 7.88379L19.4978 13.4587V24.5497Z" fill="#FB68F8"/>
<path d="M13.9961 0V7.88379L19.4981 13.4587L25.0001 11.1498L13.9961 0Z" fill="#FFAAFC"/>
<path d="M8.49374 24.5494L3 26.8583L13.9958 37.9997V30.1159L8.49374 24.5494Z" fill="#E74FD5"/>
<path d="M8.49365 13.4588V24.5498L13.9957 30.1163L19.4977 24.5498V13.4588L13.9957 7.88391L8.49365 13.4588Z" fill="#FFCDF9"/>
<path d="M19.4894 13.4586V13.4838L8.52682 24.5748L8.50195 24.558V21.5523L17.9979 11.9305L19.4894 13.4586Z" fill="white"/>
<path d="M19.4897 17.6484V20.7129L12.115 28.1937L10.5986 26.6573L19.4897 17.6484Z" fill="white"/>
<path d="M1.6843 4.48823L0.00511269 8.75335C-0.000578739 8.76974 -0.00154093 8.78741 0.00233907 8.80432C0.00621907 8.82123 0.0147786 8.83671 0.0270454 8.84898C0.0393122 8.86124 0.0547903 8.8698 0.0716988 8.87368C0.0886072 8.87756 0.106268 8.8766 0.122655 8.87091L4.38778 7.23369H4.45495L8.71169 8.87091C8.72847 8.87903 8.74731 8.88187 8.76573 8.87908C8.78416 8.8763 8.80132 8.86802 8.81494 8.85531C8.82857 8.84259 8.83803 8.82605 8.84208 8.80785C8.84613 8.78966 8.84457 8.77065 8.83763 8.75335L7.15844 4.48823C7.15001 4.46664 7.15001 4.44267 7.15844 4.42108L8.83763 0.164333C8.84302 0.146827 8.84354 0.128174 8.83912 0.110398C8.83471 0.0926209 8.82554 0.0763834 8.81258 0.0634318C8.79963 0.0504802 8.7834 0.0413004 8.76562 0.036887C8.74784 0.0324737 8.7292 0.0330086 8.71169 0.0383988L4.45495 1.67559H4.38778L0.173029 0.0383988C0.155733 0.0314543 0.136741 0.029891 0.118549 0.0339405C0.100357 0.0379899 0.0838133 0.0474496 0.0710967 0.0610745C0.05838 0.0746995 0.0500866 0.0918672 0.0472999 0.110295C0.0445132 0.128723 0.0473669 0.147557 0.0554862 0.164333L1.73467 4.42108C1.73218 4.43546 1.72631 4.44904 1.71756 4.46071C1.7088 4.47239 1.69741 4.48181 1.6843 4.48823Z" fill="white"/>
</svg>
