<svg width="1304" height="332" viewBox="0 0 1304 332" fill="none" xmlns="http://www.w3.org/2000/svg">
<g clip-path="url(#clip0_1921_124584)">
<path d="M1304 0H0V332H1304V0Z" fill="#292B2F"/>
<path d="M0.790039 332.43H437.47C360.65 227.65 296.05 283.67 296.05 283.67C296.05 283.67 281.03 184.91 234.37 220.99C197.16 77.55 141.15 105.33 141.15 105.33C133.82 12.92 27.63 5.69001 0.790039 28.16V332.43Z" fill="#202225"/>
<path d="M1304.45 332.43H873.45C931.52 291.98 988.11 300.92 988.11 300.92C988.11 300.92 1035.77 238.8 1082.43 274.88C1102.5 128.75 1173.54 146.62 1173.54 146.62C1222.17 65.56 1277.61 81.42 1304.45 103.89V332.43Z" fill="#202225"/>
<path d="M892.68 0.609999C892.68 0.609999 895.32 49.59 905.95 76.6C905.95 76.6 1058 196.19 1304.54 22.16V0.279999H1213.22C1213.21 0.279999 1049.86 109.07 892.68 0.609999Z" fill="#4F545C" fill-opacity="0.16"/>
<path d="M146.65 119.86C146.65 119.86 179.77 117.22 206.35 77.1L215.83 87.83C215.83 87.83 177.43 150.18 139.96 148.93L146.65 119.86Z" fill="#EB459F"/>
<path d="M60.95 121.43C60.95 121.43 26.78 125.03 24.02 146.47C21.26 167.91 46.38 150.15 46.38 150.15L58.1 138.26L60.95 121.43Z" fill="#EB459F"/>
<path d="M71.5 44C45.9 49.18 52.38 67.71 59.7 79.65C57.44 77.41 55.06 75.31 52.61 73.3C51.35 72.27 50.07 71.26 48.77 70.27L46.8 68.8C46.12 68.31 45.49 67.85 44.71 67.33L44.46 67.16C43.91 66.8 43.3 66.52 42.64 66.34C39.12 65.35 35.47 67.41 34.49 70.92C33.5 74.44 35.56 78.09 39.07 79.07C40.34 79.43 41.83 79.94 43.21 80.42C44.61 80.92 46.02 81.44 47.41 82C50.19 83.11 52.94 84.32 55.59 85.68C56.54 86.17 57.47 86.68 58.4 87.21C49.16 84.93 36.31 84.17 37.78 98.17C40.04 119.79 59.8 120.82 71.11 117.32C71.11 117.32 100.33 97.55 103.42 81.7C103.39 81.68 110.18 36.18 71.5 44Z" fill="#FF63AF"/>
<path d="M89.5772 98.7793C96.3011 96.615 99.5132 87.9052 96.7515 79.3255C93.9899 70.7457 86.3002 65.545 79.5763 67.7093C72.8523 69.8737 69.6403 78.5834 72.4019 87.1632C75.1636 95.7429 82.8532 100.944 89.5772 98.7793Z" fill="white" stroke="#FFAB18" stroke-width="2.6359" stroke-miterlimit="10"/>
<path d="M79.26 77.28C80.04 76.99 80.67 76.84 81.39 76.72C82.09 76.6 82.8 76.55 83.52 76.54C84.95 76.54 86.4 76.83 87.71 77.45C89 78.08 90.19 78.95 91.03 80.07L91.37 80.47L91.65 80.9L92.2 81.77C92.52 82.37 92.78 82.99 93.07 83.59C93.25 83.96 93.09 84.41 92.72 84.58C92.37 84.75 91.96 84.62 91.76 84.29L91.7 84.19C91.39 83.67 91.11 83.13 90.78 82.64L90.24 81.94L89.97 81.59L89.66 81.29C88.88 80.42 87.89 79.85 86.87 79.45C85.84 79.07 84.72 78.94 83.6 79.04C83.04 79.1 82.48 79.18 81.94 79.33C81.41 79.46 80.82 79.68 80.42 79.87L80.37 79.9C79.66 80.24 78.81 79.94 78.47 79.23C78.13 78.52 78.43 77.67 79.14 77.33C79.18 77.31 79.22 77.3 79.26 77.28Z" fill="black"/>
<path d="M151.817 82.1351C157.744 80.8022 160.946 72.5932 158.968 63.7999C156.991 55.0065 150.583 48.9586 144.656 50.2915C138.729 51.6244 135.527 59.8333 137.505 68.6267C139.482 77.42 145.89 83.4679 151.817 82.1351Z" fill="white" stroke="#FFAB18" stroke-width="2.6359" stroke-miterlimit="10"/>
<path d="M150.71 61.9C150.12 61.99 149.32 62.26 148.68 62.59C148.02 62.93 147.42 63.36 146.93 63.89C146.43 64.42 146.03 65.04 145.79 65.75C145.51 66.45 145.43 67.23 145.38 68.03V68.1C145.35 68.51 145 68.82 144.59 68.8C144.21 68.78 143.92 68.48 143.89 68.11C143.82 67.18 143.79 66.21 144.03 65.25C144.22 64.29 144.65 63.34 145.24 62.53C145.82 61.71 146.56 61.01 147.38 60.44C148.23 59.88 149.03 59.44 150.11 59.11C150.86 58.88 151.66 59.3 151.89 60.06C152.12 60.81 151.7 61.61 150.94 61.84C150.88 61.86 150.81 61.87 150.75 61.88L150.71 61.9Z" fill="black"/>
<path d="M113.8 157.62L131.51 183.07C158.4 174.59 177.5 151.13 177.5 151.13L146.39 209.12L161.42 217.18L200.39 144.54C209.03 128.44 190.93 111.21 175.27 120.63L113.8 157.62Z" fill="#4D478C"/>
<path d="M208.71 191.41C208.71 191.41 201.02 185.09 170.82 201.26L179.31 183.88L172.28 187.39C167.74 189.66 162.43 189.84 157.74 187.9L142.06 217.13C142.06 217.13 138.41 227.02 149.62 227.63L208.71 191.41Z" fill="#FF78B9"/>
<path d="M204.77 190.27C200.8 189.9 188.83 198.79 175.25 205.42C164.74 210.55 153.03 214.02 146.06 214.53C144.37 214.65 142.87 215.63 142.07 217.12C142.07 217.12 138.42 227.01 149.63 227.62L208.72 191.41C208.71 191.41 207.65 190.54 204.77 190.27Z" fill="#EB459F"/>
<path d="M209.12 191.79C210.9 194.7 199.08 205.17 182.72 215.17C166.36 225.17 147.74 229.52 145.68 226.8C138.42 217.17 160.22 216.77 177.09 207.66C194.05 198.5 207.34 188.88 209.12 191.79Z" fill="black"/>
<path d="M53.82 147.95C53.82 147.95 46.76 127.67 71.36 110.76C77.88 106.28 83.95 101.15 89.14 95.17C95.09 88.3 101.96 78.67 107.39 66.29C119.52 38.6 147.41 40.82 146.2 74.38C146.19 74.38 98.09 152.81 53.82 147.95Z" fill="url(#paint0_linear_1921_124584)"/>
<path d="M142.42 79.99C144.7 74.19 144.15 66.45 141.76 59.48C141.18 57.78 137.89 51.16 130.63 51.96C126.16 52.45 122.06 54.88 119.1 58.27C116.14 61.66 114.12 65.75 112.05 69.75C109.54 74.6 105 87.07 101.99 92.47C89.4799 114.82 86.7199 118.76 71.2399 128.16C71.2399 128.14 132.7 104.69 142.42 79.99Z" fill="black"/>
<path d="M141.54 79.64C142.48 77.15 142.87 74.43 142.87 71.71C142.87 68.99 142.5 66.25 141.86 63.59C141.54 62.27 141.13 60.92 140.69 59.68C140.23 58.53 139.52 57.37 138.69 56.4C137.04 54.41 134.72 53.12 132.22 53.07C130.99 53.02 129.67 53.26 128.42 53.6C127.17 53.97 125.95 54.48 124.81 55.14C122.51 56.46 120.57 58.28 118.96 60.45C117.33 62.61 115.99 65.01 114.7 67.49C114.07 68.72 113.39 70.01 112.81 71.22C112.23 72.46 111.67 73.74 111.13 75.03C108.95 80.2 106.96 85.46 104.52 90.65C103.91 91.94 103.19 93.26 102.5 94.46L100.42 98.15C99.0199 100.6 97.6199 103.06 96.1499 105.48C94.6899 107.91 93.1499 110.32 91.4699 112.65C90.6399 113.82 89.7399 114.95 88.8199 116.07L87.3599 117.68C86.8699 118.21 86.3299 118.71 85.8199 119.22C81.5799 123.25 76.5999 126.15 71.5599 128.7L70.9999 127.56C77.7599 124.88 84.4199 121.9 90.9699 118.74C97.5199 115.56 103.97 112.17 110.22 108.45C116.46 104.73 122.53 100.7 128.09 96.08C130.86 93.76 133.5 91.29 135.85 88.58C138.19 85.86 140.25 82.89 141.54 79.64ZM143.31 80.33C141.88 83.87 139.68 86.96 137.25 89.76C134.79 92.55 132.07 95.06 129.23 97.41C123.53 102.08 117.36 106.1 111.05 109.81C104.72 113.51 98.2199 116.87 91.6099 120.02C84.9999 123.15 78.3099 126.09 71.4699 128.74L67.0299 130.46L70.9099 127.6C75.4599 124.27 80.0599 121.1 83.8999 117.23C87.7699 113.4 90.8399 108.76 93.7299 103.98C95.1799 101.59 96.5699 99.16 97.9599 96.71C99.3199 94.26 100.8 91.82 101.96 89.38C104.34 84.37 106.41 79.13 108.65 73.93C109.22 72.63 109.79 71.33 110.42 70.03C111.08 68.7 111.72 67.51 112.39 66.24C113.72 63.73 115.16 61.22 116.96 58.89C120.48 54.2 126.07 50.62 132.32 50.73C133.89 50.8 135.46 51.23 136.85 51.98C138.24 52.73 139.42 53.78 140.39 54.95C141.36 56.14 142.14 57.42 142.71 58.88C143.19 60.31 143.58 61.65 143.91 63.07C144.55 65.89 144.91 68.78 144.88 71.69C144.84 74.62 144.4 77.57 143.31 80.33Z" fill="#FFAB18"/>
<path d="M60.5699 141.28C60.5699 141.28 60.9099 137.86 63.8999 132.68C67.3699 126.66 73.1299 122.4 79.7599 120.31C94.9399 115.54 101.73 104.03 119.27 88.09C136.81 72.15 158.27 66.98 166.21 70.54C170.48 72.45 172.33 82.79 159.42 96.37C149.1 107.22 148.8 124.7 145.51 139.88C142.47 153.96 132.03 168.24 119.52 168.57H63.9299L60.5699 141.28Z" fill="url(#paint1_linear_1921_124584)"/>
<path d="M117.82 104.96C91.7199 133.56 71.3099 140.02 60.6499 141.95L60.9099 144.03L127.47 157.88L140.6 152.8C142.86 148.77 144.55 144.32 145.5 139.89C148.78 124.71 149.09 107.23 159.41 96.38C164.95 90.55 167.77 85.32 168.85 81.09C161.22 77.63 143.21 77.14 117.82 104.96Z" fill="#FFC619"/>
<path d="M69.24 141.02L41.19 151.42C37.23 152.89 32.83 150.87 31.36 146.91C29.89 142.95 31.91 138.55 35.87 137.08L63.92 126.68L69.24 141.02Z" fill="#EB459F"/>
<path d="M28.76 188.72L70.76 170.05L62.83 129.86C39.86 142.16 28.76 188.72 28.76 188.72Z" fill="#4D478C"/>
<path d="M124.81 144.45C115.89 146.69 106.53 144.13 99.4599 138.25C90.0699 130.44 75.6799 132.97 75.6799 132.97L81.1799 168.57H119.52C132.04 168.24 142.47 153.96 145.51 139.88C146.47 135.46 147.17 130.85 147.94 126.26C140.91 137.58 132.41 142.55 124.81 144.45Z" fill="#EB459F"/>
<path d="M47.55 166.11L16.71 200.9L44.76 332.43H125.28L47.55 166.11Z" fill="#8CD9FF"/>
<path d="M143.95 166.11H47.5499L82.8999 332.37H179.31L143.95 166.11Z" fill="url(#paint2_linear_1921_124584)"/>
<path d="M139.07 212.02C141.7 227.7 131.45 240.4 116.19 240.4C100.93 240.4 86.42 227.7 83.8 212.02C81.17 196.34 91.42 183.64 106.68 183.64C121.94 183.64 136.44 196.35 139.07 212.02Z" fill="url(#paint3_linear_1921_124584)"/>
<path d="M88.71 224.51C92.82 230.88 98.97 235.91 105.89 238.49L109.41 223.4L102.19 217.45L88.71 224.51Z" fill="#606DFF"/>
<path d="M123.602 227.631C130.361 221.339 129.784 209.733 122.314 201.71C114.844 193.686 103.309 192.282 96.5508 198.574C89.7923 204.867 90.3692 216.472 97.8393 224.496C105.309 232.519 116.844 233.923 123.602 227.631Z" stroke="black" stroke-width="2.8427" stroke-miterlimit="10" stroke-linecap="round"/>
<path d="M121.04 225.151C126.695 219.886 126.212 210.175 119.961 203.461C113.711 196.747 104.059 195.572 98.4041 200.837C92.7491 206.102 93.2321 215.812 99.4828 222.526C105.734 229.241 115.385 230.415 121.04 225.151Z" fill="white"/>
<path d="M118.718 216.626C121.774 213.781 121.515 208.536 118.139 204.91C114.763 201.284 109.549 200.651 106.494 203.496C103.438 206.341 103.697 211.587 107.073 215.213C110.448 218.838 115.662 219.471 118.718 216.626Z" fill="black"/>
<path d="M145.98 262.67C147.89 274.07 140.44 283.31 129.34 283.31C118.24 283.31 107.69 274.07 105.78 262.67C103.87 251.27 111.32 242.03 122.42 242.03C133.52 242.03 144.07 251.27 145.98 262.67Z" fill="url(#paint4_linear_1921_124584)"/>
<path d="M109.35 271.75C112.34 276.39 116.81 280.04 121.85 281.92L124.41 270.95L119.15 266.62L109.35 271.75Z" fill="#606DFF"/>
<path d="M134.735 274.021C139.65 269.445 139.23 261.003 133.795 255.166C128.361 249.329 119.971 248.307 115.056 252.883C110.141 257.459 110.562 265.901 115.996 271.738C121.43 277.575 129.82 278.597 134.735 274.021Z" stroke="black" stroke-width="2.8427" stroke-miterlimit="10" stroke-linecap="round"/>
<path d="M131.918 271.201C135.56 267.81 135.251 261.558 131.228 257.237C127.205 252.916 120.992 252.162 117.35 255.552C113.708 258.943 114.016 265.195 118.039 269.516C122.062 273.837 128.276 274.591 131.918 271.201Z" fill="white"/>
<path d="M130.423 265.719C132.388 263.89 132.217 260.513 130.042 258.177C127.867 255.841 124.511 255.429 122.546 257.258C120.582 259.087 120.753 262.464 122.928 264.8C125.103 267.137 128.459 267.548 130.423 265.719Z" fill="black"/>
<path d="M112.07 318.69C110.22 318.69 108.53 318.5 107.05 318.14C101.45 316.76 97.63 312.53 96.37 311.13C89.1 303.07 87.34 292.34 92.37 286.71C94.28 284.57 96.9399 283.44 100.06 283.44C104.95 283.44 110.43 286.28 114.72 291.03C115.43 291.82 116.11 292.66 116.73 293.53C117.43 294.5 118.79 295.08 120.38 295.08C121.05 295.08 121.74 294.98 122.42 294.78C123.7 294.4 125 294.06 126.27 293.78C129.71 293.01 132.95 292.62 135.88 292.62C141.04 292.62 144.86 293.88 146.64 296.16C147.7 297.52 148.02 299.19 147.57 300.99C145.98 307.33 134.6 314.56 121.66 317.46C119.28 317.99 115.7 318.69 112.07 318.69Z" fill="black"/>
<path d="M100.06 284.87C104.39 284.87 109.49 287.36 113.67 291.99C114.36 292.76 115 293.55 115.58 294.36C116.57 295.74 118.37 296.51 120.39 296.51C121.18 296.51 122.01 296.39 122.83 296.15C124.06 295.78 125.32 295.45 126.59 295.17C130.01 294.4 133.16 294.04 135.89 294.04C142.97 294.04 147.24 296.47 146.2 300.64C144.75 306.41 133.63 313.32 121.36 316.07C119.15 316.56 115.64 317.28 112.08 317.28C110.49 317.28 108.89 317.14 107.4 316.77C102.57 315.58 99.18 312.12 97.44 310.19C90.75 302.78 88.96 292.69 93.44 287.67C95.11 285.78 97.45 284.87 100.06 284.87ZM100.06 282.03C96.52 282.03 93.5 283.32 91.31 285.77C85.8 291.94 87.56 303.5 95.32 312.09C96.65 313.56 100.69 318.04 106.71 319.52C108.31 319.91 110.11 320.11 112.07 320.11C115.85 320.11 119.53 319.38 121.97 318.84C133.57 316.24 146.97 309.22 148.95 301.33C149.51 299.09 149.1 297 147.76 295.28C145.68 292.61 141.57 291.2 135.88 291.2C132.85 291.2 129.51 291.6 125.96 292.4C124.65 292.69 123.32 293.04 122.01 293.43C121.46 293.59 120.92 293.67 120.38 293.67C119.27 293.67 118.31 293.3 117.88 292.71C117.23 291.8 116.52 290.92 115.77 290.09C111.22 285.04 105.34 282.03 100.06 282.03Z" fill="#5865F2"/>
<path d="M145.12 296.59C142.4 293.9 135.39 293.2 126.58 295.17C125.31 295.45 124.06 295.78 122.82 296.15C119.9 297.02 116.96 296.29 115.57 294.37C114.99 293.56 114.35 292.76 113.66 292C107.84 285.55 100.22 283.25 95.3899 286.07C96.4899 289 98.9799 291.36 102.1 292.18C102.01 296.15 104.21 300.12 108.01 302.13C111.43 303.94 115.26 303.67 118.12 301.79C119.1 303.35 120.44 304.67 122.08 305.54C126.82 308.08 132.21 305.99 134.13 300.87C134.29 300.44 134.41 300.01 134.52 299.57C134.55 299.59 134.58 299.61 134.6 299.62C138.6 301.97 143.03 300.58 145.12 296.59Z" fill="white"/>
<path d="M108.44 130.52C108.44 130.52 117.34 129.03 117.99 119.15C117.99 119.15 123.87 119.14 125.01 112.39" stroke="#FFAB18" stroke-width="2.8427" stroke-miterlimit="10" stroke-linecap="round"/>
<path d="M80.23 127.98C73.79 125.93 67.99 126.92 62.83 129.85L75.27 230.71L78.21 254.54L94.08 258.15C94.31 251.41 94.49 245.02 94.63 238.97C94.65 238.28 94.66 237.59 94.68 236.91C96.81 140.72 88.31 130.56 80.23 127.98Z" fill="#4D478C"/>
<path d="M75.2699 230.71L79.7499 268.63L121.74 287.13C122.99 287.68 124.32 286.51 123.91 285.2C121.89 278.79 115.21 264.46 94.7899 257.11L94.6799 238.96C88.2199 239.83 81.7299 237.54 77.2499 232.8L75.2699 230.71Z" fill="#FF78B9"/>
<path d="M123.91 285.21C123.85 285.02 123.78 284.81 123.71 284.6C110.34 278.89 86.7899 268.92 79.4199 265.8L79.7599 268.64L121.74 287.14C122.99 287.68 124.32 286.51 123.91 285.21Z" fill="#EB459F"/>
<path d="M130.28 118.2C130.28 118.2 139.82 118.02 138.52 106.31C138.52 106.31 144.17 105.61 144.75 100.37C144.75 100.37 150.27 100.03 152.05 95.29" stroke="#FFAB18" stroke-width="2.8427" stroke-miterlimit="10" stroke-linecap="round"/>
<path d="M128 136.73C128 136.73 133.79 134.1 133.77 128.88C133.77 128.88 138.96 127.92 139.95 122.72" stroke="#FFAB18" stroke-width="2.8427" stroke-miterlimit="10" stroke-linecap="round"/>
<path d="M137.62 137.69C133.08 135.76 133.55 142.76 123.88 144.54C116.56 145.25 110.87 138.61 107.36 139.86C100.27 142.4 107.31 158.02 107.31 158.02C107.31 158.02 116.25 146.41 123.33 145.97C130.41 145.53 133.45 153.88 133.45 153.88C133.45 153.88 141.07 139.16 137.62 137.69Z" fill="white"/>
<path d="M39.4299 137.31L52.9299 130.77" stroke="black" stroke-width="2.8427" stroke-miterlimit="10" stroke-linecap="round"/>
<path d="M211.05 50.63L220.28 59.08C223.07 61.63 226.99 62.54 230.61 61.46L255.93 53.94C258.28 53.24 260.81 53.71 262.75 55.21C264.25 56.36 263.94 58.7 262.2 59.43L237.75 69.69L224.06 76.37L215.82 87.83L206.34 77.1L210.35 70.56C212.29 67.39 212.08 63.36 209.81 60.41L205.9 55.34C205.23 54.47 205.01 53.34 205.29 52.28C205.99 49.77 209.12 48.86 211.05 50.63Z" fill="#FFC619"/>
<path d="M240.97 73.7C242.92 70.37 240.71 66 237.11 66.07C232.39 66.15 226.8 66.27 223.55 66.42C221.96 66.49 220.53 67.52 219.83 69.09L217.15 75.09C216.24 77.13 216.76 79.6 218.4 80.99C219.96 82.31 222 84 223.97 85.61C227.13 88.2 231.43 87.78 234.14 84.91C234.66 84.36 235.31 83.93 236.02 83.83C237.25 83.65 238.84 82.18 239.98 80C241.17 77.74 241.51 75.41 240.95 74.18C240.89 74.02 240.89 73.84 240.97 73.7Z" fill="#FFAB18"/>
<path d="M228.32 70.48L220.41 68.12C220.19 68.41 219.99 68.73 219.83 69.09L219.11 70.7L227.51 73.21C227.65 73.25 227.78 73.27 227.92 73.27C228.53 73.27 229.1 72.87 229.28 72.25C229.5 71.5 229.07 70.71 228.32 70.48Z" fill="#E89300"/>
<path d="M225.51 75.83L217.84 73.54L217.15 75.09C216.99 75.45 216.89 75.83 216.81 76.2L224.69 78.55C224.83 78.59 224.96 78.61 225.1 78.61C225.71 78.61 226.28 78.21 226.46 77.59C226.69 76.85 226.26 76.06 225.51 75.83Z" fill="#E89300"/>
<path d="M87.1699 127.7C87.0899 127.24 85.6199 122.54 81.1099 122.41C80.2299 122.38 79.3899 122.45 78.6199 122.68C77.1299 121.61 74.8899 121.11 72.4999 121.46C69.3999 121.92 66.9699 123.69 66.2599 125.76C64.9999 125.51 63.5899 125.74 62.3599 126.54C60.1099 127.99 59.2999 130.72 60.4199 132.77C61.1399 134.77 62.9299 137.02 63.5699 139.05C65.4799 145.07 65.1999 148.22 67.9899 149.45C69.3799 150.07 71.9299 150.12 74.6399 149.86C77.3499 149.6 80.2199 149.03 82.2599 148.42C86.3299 147.19 87.6899 145.1 88.0799 138.6C88.3499 133.8 87.6199 130.16 87.1699 127.7Z" fill="#FFAB18"/>
<path d="M72.77 149.99C73.38 149.97 74 149.92 74.64 149.86C74.97 149.83 75.3 149.79 75.63 149.75C76 142.11 73.74 137.38 73.63 137.15C73.28 136.44 72.43 136.16 71.73 136.5C71.03 136.85 70.73 137.7 71.08 138.4C71.09 138.46 73.19 142.84 72.77 149.99Z" fill="#E89300"/>
<path d="M82.2499 148.42C83.1099 148.16 83.8299 147.86 84.4699 147.49C84.8899 141.26 83.5099 136.89 83.4399 136.65C83.1999 135.9 82.3999 135.5 81.6499 135.74C80.8999 135.98 80.4899 136.78 80.7299 137.53C80.7499 137.59 82.1999 142.24 81.5099 148.63C81.7699 148.56 82.0099 148.49 82.2499 148.42Z" fill="#E89300"/>
<path d="M178.07 149.44L182.3 141.1" stroke="black" stroke-width="2.8427" stroke-miterlimit="10" stroke-linecap="round"/>
<g opacity="0.5">
<g opacity="0.5">
<path opacity="0.5" d="M40.3699 288.63C40.0199 288.27 39.8199 287.82 39.7899 287.36L39.3499 279.13C39.3199 278.58 39.5499 278.08 39.9799 277.76L45.8199 273.45C46.1099 273.24 46.4599 273.12 46.8399 273.12C47.4199 273.12 47.9899 273.37 48.4099 273.81L54.8399 280.51C55.1899 280.87 55.3899 281.32 55.4099 281.78L55.8399 289.99C55.8699 290.54 55.6399 291.04 55.2099 291.36L48.0499 296.64L40.3699 288.63Z" fill="white"/>
<path opacity="0.5" d="M46.86 274.09C47.16 274.09 47.49 274.23 47.73 274.49L54.16 281.19C54.34 281.38 54.45 281.61 54.47 281.84L54.9 290.05C54.91 290.27 54.82 290.47 54.66 290.59L48.19 295.36L41.07 287.96C40.89 287.77 40.77 287.53 40.76 287.31L40.32 279.08C40.31 278.86 40.4 278.66 40.56 278.54L46.4 274.23C46.54 274.13 46.69 274.09 46.86 274.09ZM46.86 272.15C46.27 272.15 45.72 272.33 45.26 272.66L39.42 276.97C38.73 277.48 38.35 278.3 38.39 279.17L38.83 287.4C38.87 288.09 39.17 288.76 39.68 289.29L46.8 296.69L47.98 297.92L49.35 296.91L55.82 292.14C56.51 291.63 56.89 290.81 56.85 289.94L56.42 281.73C56.38 281.04 56.08 280.37 55.58 279.84L49.15 273.14C48.53 272.51 47.7 272.15 46.86 272.15Z" fill="white"/>
</g>
<g opacity="0.5">
<path opacity="0.5" d="M47.0399 273.76L40.3099 278.73L40.7799 287.66L48.1899 295.36L54.9199 290.39L54.4499 281.49L47.0399 273.76ZM51.3099 288.4L47.9399 290.88L44.2399 287.02L43.9099 280.73L47.2799 278.25L50.9799 282.11L51.3099 288.4Z" fill="#FA6EF6"/>
<path opacity="0.5" d="M47.0399 273.76L47.2799 278.24L50.9799 282.1L54.4499 281.48L47.0399 273.76Z" fill="#FFADFB"/>
<path opacity="0.5" d="M44.2399 287.01L40.7699 287.65L48.1799 295.35L47.9399 290.87L44.2399 287.01Z" fill="#E655D4"/>
<path opacity="0.5" d="M43.9099 280.72L44.2399 287.01L47.9399 290.87L51.3099 288.39L50.9799 282.1L47.2799 278.24L43.9099 280.72Z" fill="#FFCFF9"/>
<path opacity="0.5" d="M50.9799 282.1V282.13L44.2699 287.05L44.2399 287.04L44.1499 285.33L49.9599 281.05L50.9799 282.1Z" fill="white"/>
<path opacity="0.5" d="M51.1099 284.48L51.1999 286.22L46.6899 289.57L45.6699 288.49L51.1099 284.48Z" fill="white"/>
</g>
</g>
<g opacity="0.5">
<g opacity="0.5">
<path opacity="0.5" d="M32.3 231.32C30.46 231.32 29.08 230.06 28.86 228.18C28.74 227.15 28.97 226.04 29.51 225C28.78 224.45 28.31 223.59 28.19 222.56C27.91 220.18 29.53 217.49 31.89 216.42L33.2 215.83C33.13 215.71 33.06 215.58 32.98 215.44C30.96 211.74 30.66 209.27 32.07 208.11C32.42 207.82 32.85 207.67 33.3 207.67C34.62 207.67 36 208.98 37.52 211.67C37.54 211.49 37.56 211.3 37.58 211.11C38.31 204.6 39.74 203.56 40.75 203.36C40.86 203.34 40.97 203.33 41.08 203.33C41.53 203.33 41.95 203.52 42.27 203.88C42.78 204.45 43.4 205.78 42.85 210.67C42.82 210.97 42.78 211.25 42.75 211.52L43.68 211.1C44.32 210.81 44.97 210.66 45.6 210.66C47.44 210.66 48.82 211.92 49.04 213.8C49.16 214.83 48.93 215.94 48.39 216.98C49.12 217.53 49.59 218.39 49.71 219.42C49.99 221.79 48.37 224.49 46.01 225.56L34.23 230.9C33.58 231.17 32.93 231.32 32.3 231.32Z" fill="white"/>
<path opacity="0.5" d="M41.09 204.31C41.92 204.31 42.37 206.07 41.86 210.53C41.74 211.61 41.6 212.48 41.45 213.18L44.09 211.98C44.61 211.74 45.13 211.63 45.6 211.63C46.89 211.63 47.88 212.47 48.05 213.88C48.19 215.03 47.75 216.3 46.96 217.33C47.9 217.58 48.58 218.34 48.72 219.49C48.95 221.43 47.55 223.72 45.6 224.6L33.82 229.94C33.3 230.18 32.78 230.29 32.31 230.29C31.02 230.29 30.03 229.45 29.86 228.04C29.72 226.89 30.16 225.62 30.95 224.59C30.01 224.34 29.33 223.58 29.19 222.43C28.96 220.49 30.36 218.2 32.31 217.32L34.65 216.26C34.41 215.89 34.15 215.46 33.87 214.95C31.98 211.47 31.89 209.54 32.72 208.87C32.89 208.73 33.09 208.65 33.31 208.65C34.15 208.65 35.36 209.74 36.86 212.5C37.37 213.43 37.7 214.18 37.91 214.79L38.42 214.56C38.37 213.82 38.41 212.75 38.59 211.21C39.12 206.52 40.06 204.51 40.97 204.32C41 204.32 41.04 204.31 41.09 204.31ZM41.09 202.31C40.91 202.31 40.73 202.33 40.55 202.37C38.72 202.75 37.56 204.78 36.88 208.88C35.69 207.38 34.52 206.67 33.3 206.67C32.62 206.67 31.97 206.9 31.44 207.34C29.68 208.78 29.81 211.48 31.81 215.37L31.48 215.52C28.75 216.76 26.87 219.91 27.2 222.69C27.32 223.69 27.71 224.56 28.31 225.24C27.91 226.25 27.75 227.31 27.87 228.3C28.15 230.67 29.98 232.32 32.31 232.32C33.08 232.32 33.87 232.14 34.64 231.79L46.42 226.45C49.15 225.21 51.03 222.06 50.7 219.28C50.58 218.28 50.19 217.41 49.59 216.73C49.99 215.72 50.15 214.66 50.03 213.67C49.75 211.31 47.92 209.65 45.59 209.65C45.04 209.65 44.48 209.74 43.93 209.92C44.35 205.4 43.71 203.98 43.01 203.21C42.51 202.63 41.82 202.31 41.09 202.31Z" fill="white"/>
</g>
<path opacity="0.5" d="M41.86 210.54C41.33 215.23 40.54 215.91 39.63 216.1C38.72 216.29 38.05 215.91 38.58 211.22C39.11 206.53 40.05 204.52 40.96 204.33C41.86 204.14 42.39 205.85 41.86 210.54Z" fill="#E9459D"/>
<path opacity="0.5" d="M40.8201 212.42C40.5101 215.63 40.1701 216.06 39.7901 216.15C39.4101 216.24 39.1401 215.94 39.4501 212.74C39.7601 209.54 40.1901 208.19 40.5701 208.11C40.9501 208.03 41.1301 209.21 40.8201 212.42Z" fill="#FF78B7"/>
<path opacity="0.5" d="M33.86 214.96C35.75 218.44 36.64 218.29 37.46 217.61C38.28 216.93 38.74 215.99 36.84 212.51C34.95 209.03 33.53 208.2 32.7 208.88C31.89 209.56 31.97 211.48 33.86 214.96Z" fill="#E9459D"/>
<path opacity="0.5" d="M34.94 215.07C35.99 217 36.44 216.95 36.84 216.61C37.24 216.28 37.45 215.79 36.4 213.86C35.35 211.93 34.61 211.44 34.2 211.77C33.81 212.11 33.9 213.14 34.94 215.07Z" fill="#FF78B7"/>
<path opacity="0.5" d="M44.93 219.01L33.15 224.35C31.19 225.24 29.42 224.38 29.19 222.45C28.96 220.51 30.36 218.22 32.31 217.34L44.09 212C46.05 211.11 47.82 211.97 48.05 213.9C48.28 215.83 46.88 218.12 44.93 219.01Z" fill="#E9459D"/>
<path opacity="0.5" d="M45.6001 224.63L33.8201 229.97C31.8601 230.86 30.0901 230 29.8601 228.07C29.6301 226.13 31.0301 223.84 32.9801 222.96L44.7601 217.62C46.7201 216.73 48.4901 217.59 48.7201 219.52C48.9501 221.45 47.5501 223.74 45.6001 224.63Z" fill="#E9459D"/>
<path opacity="0.5" d="M42.359 218.438C42.652 217.728 42.6453 217.052 42.3441 216.928C42.0429 216.803 41.5613 217.278 41.2683 217.987C40.9754 218.697 40.9821 219.373 41.2833 219.497C41.5844 219.622 42.0661 219.147 42.359 218.438Z" fill="#1C1927"/>
<path opacity="0.5" d="M36.6816 221.623C37.0937 221.366 37.1738 220.751 36.8605 220.25C36.5473 219.749 35.9593 219.551 35.5472 219.809C35.1351 220.066 35.055 220.681 35.3682 221.183C35.6815 221.684 36.2695 221.881 36.6816 221.623Z" fill="#1C1927"/>
<path opacity="0.5" d="M40.5201 221.01C39.3601 221.33 38.0601 222.2 38.0601 222.2C38.3501 223.28 38.7301 223.93 39.2601 223.79C39.8201 223.64 40.4301 222.89 40.5201 221.01Z" fill="#850035"/>
<path opacity="0.5" d="M39.26 223.8C39.6 223.71 39.96 223.39 40.21 222.74C40.02 222.27 39.68 222.01 39.27 222.13C38.92 222.23 38.59 222.57 38.35 223.04C38.59 223.6 38.89 223.9 39.26 223.8Z" fill="#B8004A"/>
</g>
<path d="M57.64 274.73L57.5401 274.72C56.9401 274.65 56.45 274.17 56.35 273.55L55.76 270.01C55.45 268.17 54.4401 266.44 52.9901 265.27L52.5601 264.93C52.2401 264.67 52.04 264.28 52.03 263.87C52.01 263.36 52.26 262.91 52.66 262.68L53.07 262.44C54.37 261.68 55.2101 260.28 55.4001 258.59L55.77 255.17C55.84 254.51 56.39 254.02 57.0401 254.02H57.1L57.2 254.03C57.8 254.1 58.29 254.58 58.39 255.2L58.98 258.74C59.29 260.58 60.3 262.31 61.75 263.48L62.18 263.82C62.51 264.08 62.7 264.47 62.71 264.88C62.73 265.39 62.4801 265.84 62.0801 266.07L61.67 266.31C60.37 267.07 59.53 268.47 59.34 270.16L58.9701 273.58C58.9001 274.24 58.35 274.73 57.7 274.73H57.64Z" fill="#A3FFBA"/>
<path d="M57.04 255.02C57.05 255.02 57.06 255.02 57.08 255.02C57.24 255.04 57.38 255.18 57.41 255.36L58 258.9C58.35 260.98 59.49 262.93 61.13 264.25L61.56 264.59C61.65 264.67 61.71 264.78 61.72 264.9V264.92C61.72 265.04 61.67 265.14 61.58 265.2L61.17 265.44C59.6 266.36 58.57 268.04 58.35 270.05L57.98 273.47C57.96 273.63 57.85 273.73 57.71 273.73C57.7 273.73 57.69 273.73 57.67 273.73C57.51 273.71 57.37 273.57 57.34 273.39L56.75 269.85C56.4 267.77 55.26 265.82 53.62 264.5L53.19 264.16C53.1 264.08 53.04 263.97 53.03 263.85V263.83C53.03 263.71 53.08 263.61 53.17 263.55L53.58 263.31C55.15 262.39 56.18 260.71 56.4 258.7L56.77 255.28C56.78 255.12 56.89 255.02 57.04 255.02ZM57.04 253.02C55.88 253.02 54.91 253.9 54.78 255.06L54.41 258.48C54.26 259.85 53.59 260.98 52.57 261.58L52.16 261.82C51.44 262.24 51 263.03 51.03 263.89C51.05 264.62 51.38 265.28 51.93 265.72L52.36 266.06C53.62 267.08 54.5 268.58 54.77 270.18L55.36 273.72C55.53 274.76 56.38 275.58 57.41 275.71L57.53 275.73H57.69C58.85 275.73 59.82 274.85 59.95 273.69L60.32 270.27C60.47 268.9 61.14 267.77 62.16 267.17L62.57 266.93C63.29 266.51 63.73 265.72 63.7 264.86C63.68 264.13 63.35 263.47 62.8 263.03L62.37 262.69C61.11 261.67 60.23 260.17 59.96 258.57L59.37 255.03C59.2 253.99 58.35 253.17 57.32 253.04L57.2 253.02H57.04Z" fill="#CFF4FF"/>
<path d="M65.7 152.98C65.6 152.2 64.9 151.64 64.12 151.74C63.34 151.84 62.79 152.54 62.88 153.32L64.45 166.09H67.31L65.7 152.98Z" fill="black"/>
<path d="M369.26 259.45C369.06 257.64 367.84 256.1 366.16 255.42C365.57 255.18 364.92 254.95 364.25 254.76C361.29 253.94 358.18 255.48 356.94 258.28C355.72 261.04 354.01 264.75 352.78 266.95L345.32 266.1C343.97 265.95 342.65 266.57 341.9 267.7C337.7 274.05 336.81 281.9 337.51 286.05C337.73 287.37 338.82 288.37 340.15 288.53L358.02 290.61C359.52 290.79 360.97 290.03 361.72 288.71C363.52 285.55 364.06 282.66 364.18 280.78C364.29 279.13 364.67 277.5 365.36 275.99C368.48 269.18 369.81 264.52 369.26 259.45Z" fill="#2CCB7A"/>
<path d="M366.16 255.42C365.57 255.18 364.92 254.95 364.25 254.76C362.8 254.36 361.31 254.52 360.02 255.13C361.72 254.25 364.06 256.95 363.48 259.08C362.9 261.22 361.49 265.75 361.62 267.86C361.75 269.97 363.53 270.79 364.91 270.86C365.81 270.91 367.93 264.42 369.29 259.88C369.28 259.74 369.27 259.59 369.25 259.45C369.06 257.64 367.84 256.11 366.16 255.42Z" fill="#59F186"/>
<path d="M358.01 290.61C359.51 290.79 360.96 290.03 361.71 288.71C363.51 285.55 364.05 282.66 364.17 280.78C364.28 279.13 364.66 277.5 365.35 275.99C368.48 269.18 369.8 264.52 369.25 259.45C369.05 257.64 367.85 256.05 366.17 255.36C365.58 255.12 364.93 254.89 364.26 254.7C363.77 254.56 363.25 254.55 362.76 254.54C365.48 254.68 367.29 257.54 366.13 263.3C364.46 271.58 362.58 272.73 361.76 276.77C361.02 280.37 360.36 285.89 357.08 290.49L358.01 290.61Z" fill="black"/>
<path d="M355.47 280.94C355.66 280.43 355.8 279.89 355.88 279.32C356.52 274.97 353.5 270.92 349.15 270.29L307.96 264.27C304.24 263.73 300.64 265.86 299.34 269.39L293.94 283.99C292.41 288.12 294.52 292.7 298.65 294.22C302.78 295.75 307.36 293.64 308.88 289.51L312.04 280.96L346.85 286.04C350.64 286.6 354.2 284.39 355.47 280.94Z" fill="#FFC619"/>
<path d="M325.25 275.52C326.34 269.97 324.98 266.69 323.24 266.5L349.16 270.29C353.51 270.93 356.53 274.97 355.89 279.32C355.81 279.88 355.67 280.42 355.48 280.94C354.2 284.39 350.65 286.6 346.86 286.05L320.42 282.19C321.12 282.29 324.15 281.08 325.25 275.52Z" fill="white"/>
<path d="M330.46 276.28C331.55 270.73 330.19 267.52 328.45 267.26L332.25 267.81C333.99 268.08 335.35 271.28 334.26 276.83C333.17 282.39 330.13 283.6 329.42 283.49L325.62 282.94C326.33 283.05 329.37 281.85 330.46 276.28Z" fill="#5765F1"/>
<path d="M342.27 269.28C343.25 269.42 345.48 270.01 345.23 274.49C344.9 280.31 342.17 285.36 340.68 285.14L338.58 284.83L338.3 285.91L350.9 287.74L357.94 281.74L356.75 272.41L352.14 268.38L343.96 267.75L342.27 269.28Z" fill="#2CCB7A"/>
<path d="M194.39 283.95C193.24 284.82 191.68 284.93 190.44 284.18L182.7 279.49C180.8 278.34 179.71 276.23 180.13 274.32C180.15 274.23 180.17 274.13 180.2 274.04C180.79 271.65 180.48 269.03 179.32 266.62C177.04 261.89 176.25 257.57 177.83 253.79C179.95 248.74 182.73 245.02 188.1 246.45C192.75 247.69 192.49 251.06 196.55 259.54C197.32 261.14 198.54 262.49 200.06 263.4L202.09 264.63C203.2 265.31 203.87 266.54 203.8 267.85C203.49 273.47 200.09 279.63 194.39 283.95Z" fill="#2CCB7A"/>
<path d="M192.35 249.9C191.38 248.07 190.28 247.01 188.1 246.43C182.9 245.05 180.12 248.5 178.03 253.31C178.07 258.23 178.57 264.22 180.72 265.59C184.51 268 184.13 263.67 183.91 261.12C183.62 257.76 185.15 254.97 186.73 252.37C188.29 249.8 191.13 247.61 192.35 249.9Z" fill="#59F186"/>
<path d="M181.85 274.15C182.84 272.06 183.07 269.14 181.72 266.35C180.36 263.56 179.14 258.23 181.74 252.43C183.73 248 186.47 245.99 188.55 246.56C182.68 244.6 179.74 249.22 177.83 253.77C176.25 257.55 177.04 261.87 179.32 266.6C180.48 269.01 180.79 271.63 180.2 274.02C180.18 274.11 180.15 274.21 180.13 274.3C179.71 276.22 180.8 278.32 182.7 279.47C181.52 278.55 180.86 276.24 181.85 274.15Z" fill="black"/>
<path d="M190.05 267.81C192.63 265.74 196.34 265.43 199.29 267.31L222.81 282.23C224.98 283.61 226.35 285.95 226.49 288.52C226.63 291.09 225.52 293.57 223.51 295.17L216.54 300.74C213.11 303.49 208.09 302.93 205.35 299.5C203.06 296.64 204.05 294.6 205.31 290L190.75 280.76C187.04 278.4 185.94 273.48 188.29 269.77C188.79 269 189.39 268.35 190.05 267.81Z" fill="#FFC619"/>
<path d="M190.05 267.81C192.63 265.74 196.34 265.43 199.29 267.31L222.81 282.23C224.98 283.61 226.35 285.95 226.49 288.52C226.63 291.09 225.52 293.57 223.51 295.17L216.54 300.74C213.11 303.49 208.09 302.93 205.35 299.5C203.06 296.64 204.05 294.6 205.31 290L190.75 280.76C187.04 278.4 185.94 273.48 188.29 269.77C188.79 269 189.39 268.35 190.05 267.81Z" fill="#FFC619"/>
<path d="M204.76 291.98L210.23 295.45C210.69 295.74 211.3 295.6 211.59 295.15C211.88 294.69 211.75 294.08 211.29 293.79L205.32 290C205.12 290.72 204.94 291.37 204.76 291.98Z" fill="black"/>
<path d="M190.76 280.76L206.82 290.96C206.21 290.58 204.7 287.68 207.5 282.75C210.3 277.82 213.43 276.28 214.92 277.23L199.3 267.31C196.35 265.44 192.64 265.75 190.06 267.81C189.39 268.35 188.8 269 188.31 269.76C185.95 273.48 187.05 278.4 190.76 280.76Z" fill="white"/>
<path d="M198.87 285.91L202.45 288.18C201.84 287.8 200.33 284.9 203.13 279.97C205.93 275.04 209.06 273.5 210.55 274.45L206.97 272.18C205.48 271.24 202.35 272.78 199.55 277.7C196.75 282.63 198.27 285.52 198.87 285.91Z" fill="#5765F1"/>
<path d="M192.82 282.07C192.22 281.69 191.14 279.07 193.94 274.15C196.74 269.22 199.16 267.24 200.65 268.18L201.35 268.62L201.98 267.51L194.64 263.36L185.95 267.34L184.44 276.63L186.36 280.17L192.06 283.68L193.78 282.69L192.82 282.07Z" fill="#2CCB7A"/>
<path d="M292.1 274.91C300.85 294.93 291.19 319.01 269.82 327.07C248.45 335.14 226.15 323.13 220.47 301.95C215.24 282.44 226.21 262.08 244.62 255.13C263.03 248.18 284.04 256.47 292.1 274.91Z" fill="#FF78B8"/>
<path d="M271.03 262.77C268.4 259.03 263.6 256.81 260.31 257.8C260.17 257.84 260.04 257.9 259.91 257.95L259.9 257.94C258.4 258.5 257.64 259.68 256.77 261.83C256.36 262.85 255.26 263.45 254.32 263.17C252.17 262.52 248.96 262.12 245.92 263.27C242.24 264.66 240.64 269.17 242.34 273.35C244.04 277.53 248.4 279.79 252.07 278.41C252.27 278.33 252.48 278.24 252.68 278.14C252.72 278.12 252.77 278.09 252.81 278.07C254.97 276.93 257.02 274.46 258.78 271.21C259.18 270.46 260.09 270.03 260.81 270.26C265.36 271.75 268.48 271.84 269.82 271.34C273.13 270.35 273.66 266.51 271.03 262.77Z" fill="white"/>
<path d="M252.659 278.174C256.166 276.419 257.369 271.721 255.346 267.681C253.323 263.641 248.841 261.789 245.335 263.545C241.829 265.3 240.626 269.998 242.648 274.038C244.671 278.078 249.153 279.93 252.659 278.174Z" fill="white"/>
<path d="M271.829 270.039C273.788 267.625 272.351 263.213 268.619 260.186C264.888 257.159 260.275 256.663 258.316 259.077C256.357 261.492 257.794 265.904 261.525 268.931C265.257 271.958 269.87 272.454 271.829 270.039Z" fill="white"/>
<path d="M252.083 270.96C253.052 270.285 253.122 268.708 252.238 267.439C251.355 266.17 249.852 265.689 248.882 266.365C247.912 267.04 247.843 268.616 248.726 269.885C249.61 271.154 251.113 271.636 252.083 270.96Z" fill="black"/>
<path d="M265.412 265.826C266.257 265.186 266.185 263.668 265.251 262.435C264.317 261.203 262.875 260.723 262.03 261.363C261.185 262.004 261.257 263.522 262.191 264.755C263.125 265.987 264.567 266.467 265.412 265.826Z" fill="black"/>
<path d="M271.543 271.949C275.425 270.382 276.858 264.865 274.744 259.626C272.63 254.387 267.769 251.41 263.887 252.976C260.005 254.543 258.572 260.06 260.686 265.299C262.8 270.538 267.661 273.515 271.543 271.949Z" stroke="#5865F2" stroke-width="2.9513" stroke-miterlimit="10"/>
<path d="M253.009 279.303C257.096 277.653 258.667 271.999 256.517 266.673C254.368 261.346 249.313 258.366 245.226 260.015C241.139 261.664 239.568 267.319 241.718 272.645C243.867 277.971 248.922 280.952 253.009 279.303Z" stroke="#5865F2" stroke-width="2.9513" stroke-miterlimit="10"/>
<path d="M255.64 264.26L259.98 262.63" stroke="#5865F2" stroke-width="2.9513" stroke-miterlimit="10"/>
<path d="M260 276.99L267.1 274.87C267.89 274.64 268.69 275.17 268.8 275.98C269.23 279.39 269.24 286.72 259.57 279.31C258.71 278.66 258.96 277.3 260 276.99Z" fill="black"/>
<path d="M265.69 279.29C263.8 279.29 262.1 279.68 260.93 280.3C266.56 284.16 268.36 282.29 268.81 279.67C267.88 279.43 266.82 279.29 265.69 279.29Z" fill="#E53794"/>
<path d="M224.87 293.72C223.66 290.41 215.92 265.72 212.12 253.55C210.92 249.7 212.77 245.56 216.44 243.89C220.79 241.92 225.89 244.17 227.35 248.72L241.25 293.1L224.87 293.72Z" fill="#FFD635"/>
<path d="M219.9 254.9C216.54 255.51 213.24 253.53 212.19 250.28L208.95 240.22L222.5 237.78L225.18 246.1C226.45 250.02 223.96 254.16 219.9 254.9Z" fill="#D01582"/>
<path d="M222.67 236.92L215.62 229.96C215.24 228.48 214.98 226.57 214.84 224.79C214.73 223.33 214.03 221.93 212.81 221.11C211.03 219.92 208.75 220.09 207.2 221.42C203.98 224.18 202.26 225.88 200.77 227.19C198.97 228.78 198.75 232.01 200.34 235.96C201.94 239.94 201.73 241.17 208.18 244.67L215.23 247.96C218.54 249.51 222.37 247.22 222.57 243.57C222.87 238.3 222.67 236.92 222.67 236.92Z" fill="#D01582"/>
<path d="M220.47 246.11L213.72 242.43L221.47 228.22C222.64 226.08 225.32 225.29 227.46 226.46C229.6 227.63 230.39 230.31 229.22 232.45L222.02 245.66C221.72 246.21 221.03 246.41 220.47 246.11Z" fill="#D01582"/>
<path d="M343.91 310.31H315.35L283.7 289.34H312.25L343.91 310.31Z" fill="#3F99F2"/>
<path d="M306.39 289.34H194.46V332.42H306.39V289.34Z" fill="#3F99F2"/>
<path d="M312.25 289.34H237.19V332.42H312.25V289.34Z" fill="#8CD9FF"/>
<path d="M162.8 310.31H205.54L237.19 289.34H194.46L162.8 310.31Z" fill="#8CD9FF"/>
<path d="M312.3 296.92L307.61 289.34L294.93 268.86C293.45 266.46 290.81 265.03 287.99 265.09C285.17 265.15 282.6 266.69 281.22 269.15L276.48 277.58C274.93 280.34 273.79 285.05 274.54 289.33H288.87L298.75 305.29C301.07 309.03 305.97 310.18 309.71 307.87C310.9 307.14 311.82 306.14 312.46 305.01C313.84 302.58 313.88 299.48 312.3 296.92Z" fill="#FFD635"/>
<path d="M291.34 293.33C290.47 291.93 291 287.4 295.4 283.58C299.69 279.85 302.9 281.75 304.19 283.83L312.3 296.93C313.88 299.48 313.84 302.58 312.47 305.03C311.83 306.17 310.91 307.16 309.72 307.89C305.98 310.21 301.07 309.05 298.76 305.31L291.34 293.33Z" fill="white"/>
<path d="M293.64 297.05C292.77 295.65 293.3 291.12 297.7 287.3C301.99 283.57 305.2 285.47 306.49 287.55L308.34 290.54C307.05 288.46 303.84 286.56 299.55 290.29C295.15 294.11 294.62 298.64 295.49 300.04L293.64 297.05Z" fill="#5765F1"/>
<path d="M299.57 311.46C296.8 307.43 295.97 305.64 301.61 298.47C307.25 291.3 311.8 292.5 312.82 294.11C313.26 294.8 314.2 296.49 314.2 296.49C316.9 292.8 320.72 289.7 325.14 292.14C329.96 294.81 333.23 300.09 326.11 309.46C318.99 318.84 313.41 322.1 310.21 322.06C307.02 322.01 304.18 318.16 299.57 311.46Z" fill="#2CCB7A"/>
<path d="M313.71 305.03C311.52 302.87 310.81 301.14 314.2 296.49C316.9 292.8 320.72 289.7 325.14 292.14C328.79 294.16 331.54 297.69 329.57 303.35C324.09 304.73 315.41 306.7 313.71 305.03Z" fill="#59F186"/>
<path d="M310.21 322.06C309.86 322.06 309.52 322.01 309.18 321.91C306.78 321.25 305.54 318.55 306.36 316.2C307.16 313.92 309.46 313.04 311.54 309.68C313.83 305.98 314.66 300.68 318.25 296.58C319.74 294.88 321.26 293.86 322.65 293.31C324.91 292.42 327.73 293.42 329.14 295.4C331.32 298.46 331.1 302.89 326.11 309.47C319 318.84 313.41 322.1 310.21 322.06Z" fill="black"/>
<path d="M288.86 289.34L285.14 282.71C284.74 282 283.84 281.75 283.13 282.15C282.42 282.55 282.17 283.45 282.57 284.16L285.48 289.34H288.15H288.86Z" fill="black"/>
<path d="M210.34 236.94C210.72 236.94 211.09 236.8 211.38 236.52C211.98 235.94 211.99 234.99 211.42 234.4C210.16 233.09 209.3 231.41 208.95 229.53C208.31 226.16 206.95 224.09 205.62 222.81C204.77 223.56 204.03 224.23 203.39 224.82C204.36 225.69 205.47 227.26 206.01 230.09C206.47 232.55 207.6 234.76 209.28 236.48C209.55 236.79 209.95 236.94 210.34 236.94Z" fill="black"/>
<path d="M1269.07 112.03C1261.01 122.8 1258.6 124.2 1253.69 126.35C1249.77 128.07 1246.05 127.48 1242.25 125.51C1231.76 120.08 1203.74 105.6 1188.69 98.14C1184.05 95.84 1181.11 94.22 1178.75 89.62C1176 84.27 1166.08 75.53 1137.99 77.49C1137.99 77.49 1130.73 77.99 1122.9 76.83C1122.17 76.72 1122.14 75.69 1122.85 75.53L1126.41 74.75C1133.43 73.18 1140.28 70.85 1146.77 67.81C1153.25 64.75 1159.37 61.01 1165.03 56.73C1166.47 55.69 1167.82 54.55 1169.19 53.43C1170.58 52.33 1171.86 51.12 1173.18 49.94L1176.83 46.63C1178.01 45.59 1179.2 44.57 1180.42 43.62C1185.27 39.78 1190.54 36.6 1195.87 35.18C1198.53 34.48 1201.16 34.26 1203.66 34.6C1206.16 34.95 1208.56 35.86 1210.78 37.32C1213 38.76 1215.04 40.73 1216.81 43C1217.7 44.13 1218.52 45.35 1219.26 46.61C1219.63 47.24 1219.99 47.88 1220.32 48.53C1220.49 48.85 1220.64 49.18 1220.79 49.49L1221.16 50.33L1221.33 50.72C1222.48 53.3 1225.6 54.46 1228.22 53.1C1230.5 51.91 1231.4 49.1 1230.48 46.7L1230.25 46.09L1229.97 45.41C1229.78 44.96 1229.58 44.53 1229.38 44.1C1228.97 43.24 1228.54 42.41 1228.09 41.58C1227.18 39.93 1226.17 38.34 1225.04 36.8C1222.79 33.73 1220.06 30.87 1216.73 28.56C1213.43 26.24 1209.48 24.55 1205.37 23.86C1201.25 23.16 1197.08 23.44 1193.24 24.33C1189.39 25.23 1185.83 26.68 1182.54 28.41C1179.23 30.13 1176.19 32.14 1173.31 34.28C1171.86 35.35 1170.47 36.46 1169.11 37.6L1165.22 40.92C1164.01 41.93 1162.82 42.99 1161.55 43.92C1160.3 44.88 1159.07 45.87 1157.76 46.74C1152.62 50.37 1147.15 53.46 1141.44 55.93C1135.72 58.39 1129.76 60.19 1123.68 61.35C1117.6 62.47 1111.4 62.96 1105.23 62.72H1105.15C1100.53 62.55 1096.08 60.93 1092.44 58.07L1080.9 49.02L1064.6 54.39C1064.6 54.39 1072.65 57.87 1075.83 63.84C1075.61 63.89 1068.9 64.96 1068.68 65.01C1064.84 65.97 1061.1 67.28 1057.59 69.03C1055.79 69.82 1054.14 70.87 1052.44 71.83C1051.58 72.3 1050.82 72.91 1050 73.44C1049.2 74 1048.39 74.53 1047.61 75.11C1046.13 76.35 1044.57 77.52 1043.17 78.83L1041.1 80.84C1040.42 81.52 1039.7 82.16 1039.1 82.9C1037.87 84.35 1036.57 85.76 1035.41 87.25L1032.09 91.83C1030.25 94.53 1028.42 97.18 1026.38 99.67C1022.38 104.68 1017.86 109.22 1012.92 112.82C1010.45 114.6 1007.85 116.12 1005.25 117.18L1004.27 117.57L1003.3 117.88C1002.65 118.12 1002.02 118.23 1001.39 118.4C1000.16 118.62 998.92 118.81 997.88 118.7C996.83 118.62 995.93 118.41 995.2 118.06C994.47 117.72 993.92 117.22 993.41 116.53C992.38 115.18 991.73 112.78 991.74 110.05L991.8 104.9L991.82 103.51C991.81 103.04 991.77 102.57 991.75 102.11L991.58 99.31C991.55 98.38 991.39 97.43 991.26 96.5C991.12 95.56 991.01 94.62 990.85 93.68C990.4 91.8 990.1 89.92 989.44 88.06C988.31 84.34 986.66 80.67 984.31 77.34C983.69 76.53 983.09 75.7 982.41 74.92C981.71 74.15 981.04 73.37 980.25 72.67C979.5 71.94 978.66 71.27 977.79 70.62C977.33 70.3 976.91 69.98 976.4 69.68C976.14 69.53 975.92 69.38 975.64 69.23L975.21 69L974.97 68.88L974.62 68.72C972.09 67.61 969.14 68.75 968.03 71.28C966.92 73.81 968.06 76.76 970.59 77.87L970.53 77.85C970.51 77.84 970.56 77.87 970.57 77.88L970.7 77.96L971.04 78.18C971.27 78.31 971.52 78.54 971.77 78.71C972.26 79.11 972.76 79.52 973.22 80.01C973.71 80.45 974.13 81.01 974.58 81.51C975.01 82.04 975.4 82.63 975.81 83.18C977.35 85.52 978.49 88.22 979.26 91.1C979.73 92.5 979.9 94.04 980.23 95.51L980.48 97.8C980.56 98.57 980.68 99.32 980.67 100.11L980.74 102.45C980.75 102.84 980.77 103.23 980.77 103.62L980.72 104.81L980.51 109.97C980.44 110.99 980.55 112.08 980.59 113.14C980.63 113.68 980.73 114.23 980.8 114.78C980.87 115.33 980.95 115.87 981.1 116.44C981.55 118.66 982.49 120.99 983.92 123.12C985.35 125.25 987.37 127.18 989.71 128.41C992.03 129.66 994.52 130.3 996.88 130.53C1001.63 130.95 1005.85 129.93 1009.64 128.54C1013.44 127.12 1016.86 125.22 1020.03 123.08C1026.34 118.78 1031.72 113.61 1036.47 108.04C1038.88 105.28 1041.04 102.33 1043.16 99.42L1046 95.74C1046.98 94.55 1048.06 93.47 1049.08 92.33C1049.57 91.74 1050.17 91.27 1050.72 90.75L1052.39 89.21C1053.52 88.21 1054.76 87.36 1055.93 86.42C1056.54 85.99 1057.18 85.61 1057.8 85.2C1058.44 84.81 1059.03 84.35 1059.69 84.02C1061.01 83.35 1062.27 82.56 1063.65 82.02C1066.32 80.77 1069.15 79.9 1071.98 79.28C1072.15 79.24 1072.59 79.18 1073.17 79.1C1076.32 78.68 1079.52 79.54 1082 81.54C1087.85 86.24 1099.74 94.64 1109.45 94.16C1132.76 93.01 1141.82 93.5 1145.34 96.25C1147.17 97.68 1147.27 100.42 1145.64 102.06L1113.07 134.76C1108.56 139.29 1102.15 141.39 1095.85 140.36C1089.31 139.3 1081.16 136.65 1075.14 130.26C1069.04 123.8 1063.81 123.13 1061.33 125.65C1058.85 128.17 1061.01 134.32 1066.15 139.39C1068.74 141.95 1071.6 143.73 1074.12 144.56C1074.37 144.7 1074.62 144.83 1074.9 144.95L1109.69 159.69L1161.89 117C1167.96 112.04 1176.34 111 1183.44 114.34L1251.62 146.4L1273.19 125.2C1275.17 123.26 1276.92 121.1 1278.4 118.75C1280.71 115.07 1281.83 112.83 1281.88 109.25C1281.95 104.61 1277.47 100.81 1269.07 112.03Z" fill="white"/>
<path d="M1278.4 118.79C1280.71 115.11 1281.83 112.87 1281.88 109.28C1281.95 104.61 1277.46 100.8 1269.06 112.03C1261 122.8 1258.59 124.2 1253.68 126.35C1249.76 128.07 1246.04 127.48 1242.24 125.51C1231.75 120.08 1203.73 105.6 1188.68 98.14C1184.04 95.84 1181.1 94.22 1178.74 89.62C1178.29 88.74 1177.63 87.76 1176.74 86.75C1166.93 80.95 1151.03 82.98 1144.5 95.73C1144.83 95.92 1145.13 96.11 1145.4 96.32C1147.18 97.75 1147.32 100.41 1145.71 102.02L1113.07 134.79C1108.56 139.32 1102.15 141.42 1095.85 140.39C1089.31 139.33 1081.16 136.68 1075.14 130.29C1069.04 123.83 1063.81 123.16 1061.33 125.68C1058.85 128.2 1061.01 134.35 1066.15 139.42C1068.74 141.98 1071.6 143.76 1074.12 144.59C1074.37 144.73 1074.62 144.86 1074.9 144.98L1109.69 159.72L1161.89 117.03C1167.96 112.07 1176.34 111.03 1183.44 114.37L1251.62 146.43L1273.19 125.23C1275.16 123.3 1276.92 121.14 1278.4 118.79Z" fill="black"/>
<path d="M1134.27 139.62C1133.49 137.09 1123.13 137.49 1123.13 137.49C1123.13 137.49 1123.32 128.21 1120.38 127.46L1113.07 134.79C1108.56 139.32 1102.15 141.42 1095.85 140.39C1089.31 139.33 1081.16 136.68 1075.14 130.29C1069.04 123.83 1063.81 123.16 1061.33 125.68C1058.85 128.2 1061.01 134.35 1066.15 139.42C1068.74 141.98 1071.6 143.76 1074.12 144.59C1074.37 144.73 1074.62 144.86 1074.9 144.98L1109.69 159.72L1134.27 139.62Z" fill="#EB459F"/>
<path d="M1072.67 135.34C1067.02 127.91 1063.13 126.31 1060.9 126.23C1059.14 129.01 1061.33 134.69 1066.14 139.43C1068.73 141.99 1071.59 143.77 1074.11 144.6C1074.36 144.74 1074.61 144.87 1074.89 144.99L1091.36 151.97C1084.08 147.74 1077.77 142.04 1072.67 135.34Z" fill="black"/>
<path d="M1223.15 133.05L1251.62 146.44L1272.79 125.64C1274.9 123.57 1276.83 121.3 1278.4 118.8C1280.72 115.12 1281.84 112.88 1281.89 109.29C1281.96 104.62 1277.47 100.81 1269.07 112.04C1261.01 122.81 1258.6 124.21 1253.69 126.36C1249.77 128.08 1246.05 127.49 1242.25 125.52C1239.64 124.17 1235.95 122.26 1231.64 120.04C1231.64 120.04 1231.29 126.2 1234.17 129.22C1228.75 129.7 1223.15 133.05 1223.15 133.05Z" fill="#EB459F"/>
<path d="M1206.13 191.84C1219.07 191.84 1229.56 181.757 1229.56 169.32C1229.56 156.883 1219.07 146.8 1206.13 146.8C1193.19 146.8 1182.7 156.883 1182.7 169.32C1182.7 181.757 1193.19 191.84 1206.13 191.84Z" fill="#EB459F"/>
<path d="M1304.59 309.66C1297.2 309.51 1289.87 309.54 1283.34 309.88C1279.73 310.06 1276.91 310.33 1274.2 310.68C1271.81 311 1269.67 312.34 1268.38 314.39C1267.73 315.42 1267.1 316.5 1266.5 317.62C1263.63 322.98 1261.96 328.28 1261.59 332.4H1274.95H1304.58V309.66H1304.59Z" fill="#8CD9FF"/>
<path d="M1052.04 332.4L1042.14 305.76C1041.04 302.81 1042.97 299.6 1046.1 299.2C1058.96 297.56 1089 294.83 1104.17 302.55L1249.14 302.82C1249.14 302.82 1270.78 297.45 1291 300.16C1293.38 300.48 1294.85 302.93 1293.99 305.17L1283.49 332.39H1052.04V332.4Z" fill="#29CC7A"/>
<path d="M1188.84 296.12C1213.4 296.12 1233.31 277.894 1233.31 255.41C1233.31 232.926 1213.4 214.7 1188.84 214.7C1164.28 214.7 1144.37 232.926 1144.37 255.41C1144.37 277.894 1164.28 296.12 1188.84 296.12Z" fill="#8CD9FF"/>
<path d="M1074.98 206.45C1070.63 211.14 1069.4 217.95 1071.9 223.83C1077.58 237.18 1090.16 260.24 1112.26 270.29C1144.33 284.86 1165.23 220.17 1117.98 231.81C1117.98 231.81 1119.47 216.06 1105.43 216.89L1123.04 171.79C1124.53 167.96 1122.6 163.65 1118.75 162.22L1075.94 146.31C1072.58 145.06 1068.82 146.08 1066.53 148.83C1060.1 156.5 1053.9 171.96 1103.45 175.8L1074.98 206.45Z" fill="url(#paint5_linear_1921_124584)"/>
<path d="M1291.2 207.83C1294.85 212.19 1295.64 218.26 1293.24 223.41C1286.78 237.28 1271.73 263.69 1247.31 273.28C1213.56 286.53 1217.18 211.41 1250.36 227.68C1250.36 227.68 1249.65 214.47 1264.84 214.99L1241.7 167.6C1240.1 164.08 1240.68 159.95 1243.2 157.01L1267.01 129.21C1270.95 124.61 1278.03 124.46 1282.12 128.91C1289.14 136.54 1292.72 150.56 1259.52 170.05L1291.2 207.83Z" fill="url(#paint6_linear_1921_124584)"/>
<path d="M1149.76 235.93C1147.89 236.47 1145.95 236.87 1144.04 237.33C1142.54 237.69 1141.14 238.36 1139.93 239.31C1135.89 242.47 1128.06 251.35 1121.96 275.03C1121.96 275.03 1107.7 285.01 1104.17 302.56C1104.17 302.56 1168.15 344.7 1249.14 302.83L1242.37 274.61C1240.82 273.82 1239.38 272.73 1238.05 271.61C1233.51 267.81 1230.04 262.77 1228.35 257.07C1225.48 247.4 1228.24 238.1 1231.84 229.08C1228.82 229.96 1225.47 229.51 1222.84 231.31C1219.32 233.71 1216.62 237.26 1213.97 240.53C1210.45 244.86 1206.86 249.13 1203.19 253.33C1195.27 262.41 1186.61 271.44 1175.41 275.91C1171.09 277.63 1166.39 278.63 1161.78 278.02C1157.17 277.41 1152.68 275.04 1150.15 271.14C1149.06 269.46 1148.37 267.56 1147.85 265.63C1146.5 260.57 1146.39 255.27 1147 250.09C1147.31 247.54 1147.84 241.45 1149.76 235.93Z" fill="#3442D9"/>
<path d="M1052.04 332.4H1066.61C1066.24 328.27 1064.57 322.98 1061.7 317.62C1056.27 307.46 1048.66 300.94 1044.69 303.06C1044.25 303.3 1043.88 303.63 1043.56 304.05C1042.65 305.28 1042.55 306.93 1043.08 308.36L1052.04 332.4Z" fill="black"/>
<path d="M1057.25 318.3C1057.09 318 1056.93 317.71 1056.76 317.41C1054.9 314.1 1051.59 311.84 1047.82 311.43C1045.84 311.21 1043.72 311.04 1041.19 310.92C1020.98 309.89 992.76 311.89 980.59 312.89C977.18 313.17 974.02 311.09 972.96 307.84C968.07 292.9 957.92 271.88 957.92 271.88L963.7 332.42H1049.19H1061.94C1061.58 328.47 1059.98 323.42 1057.25 318.3Z" fill="#FFE75C"/>
<path d="M969.16 311.65C968.51 307.16 967.7 302.69 966.66 298.29C965.63 293.89 964.46 289.52 963.13 285.19C962.46 283.02 961.77 280.86 961.02 278.7C960.65 277.62 960.27 276.54 959.87 275.45C959.46 274.33 959.09 273.33 958.56 272.05L958.37 271.59C958.1 270.94 957.76 270.3 957.36 269.69C953.87 264.28 946.82 262.43 941.61 265.57C936.4 268.71 935.01 275.64 938.5 281.05C938.92 281.71 939.47 282.65 939.96 283.5C940.46 284.37 940.96 285.26 941.44 286.15C942.42 287.94 943.37 289.75 944.3 291.58C944.8 292.58 945.28 293.6 945.76 294.6C943.67 292.84 941.51 291.15 939.28 289.54C937.23 288.06 935.12 286.66 932.95 285.3C931.84 284.64 930.75 283.97 929.59 283.33C929.03 283.01 928.43 282.69 927.82 282.37C927.52 282.21 927.22 282.05 926.88 281.89C926.54 281.73 926.26 281.58 925.73 281.35C919.78 279.11 913.45 282 911.59 287.8C909.73 293.6 913.05 300.12 919 302.36C918.99 302.33 919.23 302.41 919.41 302.46C919.59 302.51 919.8 302.58 920.01 302.65C920.43 302.78 920.86 302.93 921.31 303.09C922.19 303.39 923.1 303.77 924 304.12C925.81 304.87 927.63 305.69 929.42 306.59C933.02 308.38 936.54 310.44 939.9 312.76L941.17 313.62L942.4 314.54C943.21 315.16 944.06 315.75 944.85 316.39C946.41 317.71 948.05 318.98 949.52 320.41C952.61 323.16 955.33 326.26 958.01 329.45L958.3 329.79C960.44 332.34 964.07 333.19 966.92 331.64C969.06 330.48 970.22 328.25 970.16 325.92C970.18 325.71 970.18 325.5 970.18 325.29C970.13 320.71 969.79 316.15 969.16 311.65Z" fill="black"/>
<path d="M1027.57 332.4H1049.17H1061.92C1061.57 328.46 1059.97 323.41 1057.24 318.3C1057.07 317.99 1056.9 317.68 1056.73 317.37C1054.88 314.09 1051.6 311.84 1047.86 311.43C1045.87 311.21 1043.73 311.04 1041.18 310.91C1034.78 310.58 1027.58 310.56 1020.34 310.72C1023.5 315.61 1027.15 323.06 1027.57 332.4Z" fill="#8CD9FF"/>
<path d="M1259.53 170.07C1292.73 150.57 1289.15 136.55 1282.13 128.93C1278.03 124.48 1270.95 124.64 1267.02 129.23L1243.21 157.03C1240.69 159.97 1240.11 164.1 1241.71 167.62L1253.33 191.42L1269.32 181.74L1259.53 170.07Z" fill="#FFE75C"/>
<path d="M1115 192.38L1123.04 171.79C1124.53 167.96 1122.6 163.65 1118.75 162.22L1075.94 146.31C1072.58 145.06 1068.82 146.08 1066.53 148.83C1060.1 156.5 1053.9 171.96 1103.45 175.8L1093.16 186.88L1115 192.38Z" fill="#FFE75C"/>
<path d="M1084.75 149.58C1083.75 152.15 1083.15 155.49 1084.7 158.64C1087.42 164.18 1095.74 167.1 1109.42 167.3C1109.43 167.3 1109.43 167.3 1109.44 167.3C1110.26 167.3 1110.93 166.64 1110.94 165.82C1110.95 164.99 1110.29 164.31 1109.46 164.3C1093.94 164.08 1088.9 160.38 1087.39 157.32C1086.29 155.08 1086.76 152.59 1087.54 150.62L1084.75 149.58Z" fill="#FFAB18"/>
<path d="M1255.08 159.37C1255.41 159.37 1255.74 159.26 1256.02 159.04C1263.15 153.32 1266.52 147.85 1266.05 142.78C1265.71 139.12 1263.44 136.64 1261.8 135.31L1259.85 137.59C1261.06 138.56 1262.81 140.39 1263.06 143.06C1263.43 147 1260.35 151.72 1254.14 156.7C1253.49 157.22 1253.39 158.16 1253.91 158.81C1254.21 159.18 1254.64 159.37 1255.08 159.37Z" fill="#FFAB18"/>
<path d="M1227.59 243.32C1222.66 242.1 1217.86 241.4 1213.56 241.02C1211.21 243.91 1208.81 246.76 1206.4 249.59C1214.41 249.81 1221.44 251.07 1227.45 252.82C1227 249.61 1227.11 246.45 1227.59 243.32Z" fill="#FF78B9"/>
<path d="M1132.2 248.66C1130.52 251.46 1128.75 254.97 1127 259.33C1134.24 256.04 1140.97 254.34 1146.72 253.56C1146.78 252.4 1146.87 251.25 1147.01 250.1C1147.14 249.02 1147.31 247.31 1147.6 245.28C1142.14 245.75 1136.91 247.04 1132.2 248.66Z" fill="#FF78B9"/>
<path d="M1175.97 237.43C1176.06 237.45 1176.15 237.45 1176.23 237.45C1176.94 237.45 1177.58 236.94 1177.71 236.21C1177.85 235.39 1177.31 234.62 1176.49 234.47C1167.79 232.94 1161.92 228.17 1159.01 225.21C1158.23 225.86 1157.48 226.53 1156.76 227.23C1159.93 230.51 1166.31 235.73 1175.97 237.43Z" fill="#3F99F2"/>
<path d="M1242.36 274.61C1240.81 273.82 1239.37 272.72 1238.04 271.61C1234.38 268.55 1231.43 264.67 1229.54 260.3C1229.91 264.48 1232.57 287.33 1247.13 294.47C1245.14 286.19 1242.36 274.61 1242.36 274.61Z" fill="black"/>
<path d="M1132.43 289.09C1132.43 289.09 1154.08 273.89 1184.42 296.17" stroke="#2130D9" stroke-width="3" stroke-miterlimit="10" stroke-linecap="round"/>
<path d="M1226.03 230.05C1224.9 230.28 1223.81 230.64 1222.83 231.31C1219.31 233.71 1216.61 237.26 1213.96 240.53C1210.44 244.86 1206.85 249.13 1203.18 253.33C1195.26 262.41 1186.6 271.44 1175.4 275.91C1171.08 277.63 1166.38 278.63 1161.77 278.02C1157.16 277.41 1152.67 275.04 1150.14 271.14C1149.05 269.46 1148.36 267.56 1147.84 265.63C1146.49 260.57 1146.38 255.27 1146.99 250.09C1147.29 247.54 1147.82 241.45 1149.74 235.93C1148.68 236.24 1147.59 236.5 1146.5 236.75C1143.34 247.12 1135.99 278.1 1159.86 280.95C1190.18 284.58 1219.5 240.79 1226.03 230.05Z" fill="#1E2ED9"/>
<path d="M1188.48 236.15C1212.08 236.15 1231.22 218.318 1231.22 196.32C1231.22 174.322 1212.08 156.49 1188.48 156.49C1164.88 156.49 1145.74 174.322 1145.74 196.32C1145.74 218.318 1164.88 236.15 1188.48 236.15Z" fill="#8CD9FF"/>
<path d="M1188.64 156.44C1179.27 156.44 1170.62 159.26 1163.57 164.03C1164.29 165.14 1166.1 171.84 1160.47 180.11L1170.14 185.83C1170.14 185.83 1190.09 155.33 1219.92 169.13C1212.11 161.32 1200.99 156.44 1188.64 156.44Z" fill="#3F99F2"/>
<path d="M1141.07 156.33L1142.69 194.38L1128.5 203.36L1179.28 202.15L1141.07 156.33Z" fill="black"/>
<path d="M1175.38 190.53C1173.35 184.46 1169.6 179.1 1164.6 175.11L1141.07 156.34L1175.82 199.95L1128.49 203.37L1148.41 208.09C1154.36 209.5 1160.6 209.11 1166.33 206.98L1179.27 202.16L1175.38 190.53Z" fill="#FFE75C"/>
<path d="M1202.75 177.15C1203.9 175.89 1205.22 175.23 1206.83 174.91C1208.4 174.61 1210.29 174.79 1212.01 175.76C1213.71 176.7 1215.06 178.43 1215.45 180.09C1215.51 180.3 1215.57 180.51 1215.62 180.72C1215.65 180.92 1215.67 181.13 1215.68 181.33C1215.71 181.74 1215.73 182.14 1215.72 182.53C1215.62 183.31 1215.46 184.05 1215.15 184.76C1214.78 185.61 1213.79 186 1212.94 185.63C1212.76 185.55 1212.59 185.44 1212.46 185.31L1212.16 185.03C1211.65 184.55 1211.34 184.08 1210.99 183.68C1210.8 183.5 1210.63 183.32 1210.48 183.15C1210.4 183.06 1210.33 182.98 1210.27 182.89L1210.03 182.71C1209.48 182.14 1209.06 182.01 1208.66 181.78C1208.25 181.57 1207.69 181.29 1206.85 181.01C1206.03 180.72 1204.94 180.45 1203.79 179.97L1203.32 179.77C1202.49 179.42 1202.09 178.45 1202.45 177.62C1202.53 177.44 1202.63 177.28 1202.75 177.15Z" fill="black"/>
<path d="M1206.54 196.64C1204.43 203.18 1202.88 210.37 1199.77 209.36C1196.66 208.36 1193.16 199.54 1195.26 193C1197.37 186.46 1204.29 184.67 1207.4 185.68C1210.52 186.69 1208.65 190.1 1206.54 196.64Z" fill="white"/>
<path d="M1169.69 187.737C1170.44 187.438 1170.49 185.803 1169.81 184.085C1169.12 182.366 1167.96 181.215 1167.21 181.513C1166.46 181.812 1166.41 183.447 1167.1 185.166C1167.78 186.884 1168.95 188.036 1169.69 187.737Z" fill="#FFAB18"/>
<path d="M1202.29 191.76C1202.84 189.56 1203.25 187.44 1203.37 185.68C1200.23 186.39 1196.67 188.63 1195.26 193C1194.82 194.36 1194.64 195.81 1194.63 197.28C1195.3 198.72 1196.26 199.69 1197.24 199.93C1199.51 200.5 1201.01 196.91 1202.29 191.76Z" fill="black"/>
<mask id="mask0_1921_124584" style="mask-type:alpha" maskUnits="userSpaceOnUse" x="1179" y="151" width="53" height="35">
<path d="M1179.46 157.36C1179.46 157.36 1216.55 157.05 1229.77 185.84L1229.78 185.82C1232.38 180.93 1231.88 174.99 1228.53 170.59C1222.47 162.63 1210.62 151.65 1191.23 151.44C1187.27 151.4 1183.47 153.06 1180.77 155.96L1179.46 157.36Z" fill="#FF78B9"/>
</mask>
<g mask="url(#mask0_1921_124584)">
<path d="M1179.46 157.36C1179.46 157.36 1216.55 157.05 1229.77 185.84L1229.78 185.82C1232.38 180.93 1231.88 174.99 1228.53 170.59C1222.47 162.63 1210.62 151.65 1191.23 151.44C1187.27 151.4 1183.47 153.06 1180.77 155.96L1179.46 157.36Z" fill="#FF78B9"/>
<path d="M1187.36 162.11C1187.36 162.11 1192.39 151.68 1201.9 150.92" stroke="#EB459F" stroke-width="3" stroke-miterlimit="10" stroke-linecap="round"/>
<path d="M1200.38 166.18L1208.64 153.34" stroke="#EB459F" stroke-width="3" stroke-miterlimit="10" stroke-linecap="round"/>
<path d="M1212.72 172.62C1213.08 172.05 1218.64 164.29 1217.76 157.37" stroke="#EB459F" stroke-width="3" stroke-miterlimit="10" stroke-linecap="round"/>
<path d="M1225.81 164.54C1225.81 164.54 1226.59 173.94 1222.58 182.12" stroke="#EB459F" stroke-width="3" stroke-miterlimit="10" stroke-linecap="round"/>
</g>
<path d="M994.78 117.89C994.26 117.57 993.82 117.14 993.41 116.6C992.38 115.25 991.73 112.85 991.74 110.12L991.8 104.97L991.82 103.58C991.81 103.11 991.77 102.64 991.75 102.18L991.58 99.38C991.55 98.45 991.39 97.5 991.26 96.57C991.12 95.63 991.01 94.69 990.85 93.75C990.4 91.87 990.1 89.99 989.44 88.13C988.31 84.41 986.66 80.74 984.31 77.41C983.69 76.6 983.09 75.77 982.41 74.99C981.71 74.22 981.04 73.44 980.25 72.74C979.5 72.01 978.66 71.34 977.79 70.69C977.33 70.37 976.91 70.05 976.4 69.75C976.14 69.6 975.92 69.45 975.64 69.3L975.21 69.07L974.97 68.95L974.62 68.79C972.09 67.68 969.14 68.82 968.03 71.35C966.92 73.88 968.06 76.83 970.59 77.94L970.53 77.92C970.51 77.91 970.56 77.94 970.57 77.95L970.7 78.03L971.04 78.25C971.27 78.38 971.52 78.61 971.77 78.78C972.26 79.18 972.76 79.59 973.22 80.08C973.71 80.52 974.13 81.08 974.58 81.58C975.01 82.11 975.4 82.7 975.81 83.25C977.35 85.59 978.49 88.29 979.26 91.17C979.73 92.57 979.9 94.11 980.23 95.58L980.48 97.87C980.56 98.64 980.68 99.39 980.67 100.18L980.74 102.52C980.75 102.91 980.77 103.3 980.77 103.69L980.72 104.88L980.51 110.04C980.44 111.06 980.55 112.15 980.59 113.21C980.63 113.75 980.73 114.3 980.8 114.85C980.87 115.4 980.95 115.94 981.1 116.51C981.55 118.73 982.49 121.06 983.92 123.19C985.21 125.11 986.99 126.87 989.05 128.1C988.92 124.52 989.96 120.27 994.78 117.89Z" fill="#91FFAD"/>
<path d="M1230.24 46.12L1229.96 45.44C1229.77 44.99 1229.57 44.56 1229.37 44.13C1228.96 43.27 1228.53 42.44 1228.08 41.61C1227.17 39.96 1226.16 38.37 1225.03 36.83C1222.78 33.76 1220.05 30.9 1216.72 28.59C1213.42 26.27 1209.47 24.58 1205.36 23.89C1201.24 23.19 1197.07 23.47 1193.23 24.36C1189.38 25.26 1185.82 26.71 1182.53 28.44C1179.22 30.16 1176.18 32.17 1173.3 34.31C1171.85 35.38 1170.46 36.49 1169.1 37.63L1166.67 39.7C1170.18 40.58 1173.75 42.88 1174.95 48.34L1176.83 46.63C1178.01 45.59 1179.2 44.57 1180.42 43.62C1185.27 39.78 1190.54 36.6 1195.87 35.18C1198.53 34.48 1201.16 34.26 1203.66 34.6C1206.16 34.95 1208.56 35.86 1210.78 37.32C1213 38.76 1215.04 40.73 1216.81 43C1217.7 44.13 1218.52 45.35 1219.26 46.61C1219.63 47.24 1219.99 47.88 1220.32 48.53C1220.49 48.85 1220.64 49.18 1220.79 49.49L1221.16 50.33L1221.33 50.72C1222.48 53.3 1225.6 54.46 1228.22 53.1C1230.5 51.91 1231.4 49.1 1230.48 46.7L1230.24 46.12Z" fill="#91FFAD"/>
<path d="M1085.26 52.49C1098.97 43.34 1108.29 28.01 1109.07 10.29C1109.07 10.27 1109.07 10.25 1109.07 10.23C1109.15 8.41999 1106.78 7.69999 1105.78 9.20999C1092.76 28.91 1070.02 41.47 1044.71 40.36C1031.97 39.8 1020.19 35.83 1010.19 29.39C1008.64 28.39 1006.78 30.05 1007.59 31.69C1009.69 35.92 1012.32 39.83 1015.42 43.34C1016.83 44.94 1018.34 46.46 1019.94 47.89C1021.05 48.88 1022.2 49.83 1023.39 50.73C1031.73 57.02 1042 60.94 1053.22 61.43C1058.97 61.68 1064.54 61.01 1069.8 59.56C1071.83 61.53 1074.07 63.42 1075.81 63.88C1093.95 61.4 1103.06 62.57 1103.06 62.57C1099.11 62.04 1095.37 60.42 1092.22 57.95L1085.26 52.49Z" fill="url(#paint7_linear_1921_124584)"/>
<path d="M1031.46 54.74C1036.3 53.07 1039.51 49.58 1038.59 46.83C1037.67 44.09 1032.99 43.18 1028.14 44.8C1026.28 45.42 1024.25 44.99 1022.78 43.7C1020.43 41.63 1017.13 39.06 1015.94 39.88C1015.25 40.35 1014.95 41.22 1014.96 42.34C1015.06 42.59 1015.21 42.96 1015.31 43.21C1016.76 44.86 1018.3 46.42 1019.94 47.89C1021.05 48.88 1022.2 49.83 1023.39 50.73C1025.53 52.34 1027.79 53.79 1030.16 55.07C1030.67 54.98 1031.11 54.86 1031.46 54.74Z" fill="black"/>
<path d="M1031.46 54.74C1032.41 54.41 1033.3 54.01 1034.11 53.56C1032.24 51.27 1027.94 49.78 1023.9 51.09C1025.89 52.55 1027.98 53.89 1030.17 55.07C1030.66 54.98 1031.11 54.86 1031.46 54.74Z" fill="#FF78B9"/>
<path d="M1073.57 47.41C1073.57 47.41 1071.29 52.28 1066.79 54.08C1062.29 55.88 1057.28 53.94 1057.28 53.94C1057.28 53.94 1059.56 49.07 1064.06 47.27C1068.55 45.47 1073.57 47.41 1073.57 47.41Z" fill="white"/>
<path d="M1057.27 53.95C1057.27 53.95 1059.32 54.74 1061.96 54.84C1062.53 54.35 1063.09 53.75 1063.59 53.05C1065.22 50.78 1065.72 48.26 1064.89 46.98C1064.61 47.06 1064.33 47.16 1064.05 47.27C1059.55 49.08 1057.27 53.95 1057.27 53.95Z" fill="black"/>
<path d="M1091.62 33.8C1091.62 33.8 1090.97 39.14 1087.26 42.26C1083.55 45.38 1078.18 45.1 1078.18 45.1C1078.18 45.1 1078.83 39.76 1082.54 36.64C1086.25 33.52 1091.62 33.8 1091.62 33.8Z" fill="white"/>
<path d="M1078.18 45.1C1078.18 45.1 1080.37 45.21 1082.92 44.48C1083.31 43.83 1083.65 43.09 1083.91 42.28C1084.75 39.61 1084.43 37.07 1083.25 36.11C1083.01 36.28 1082.77 36.46 1082.54 36.65C1078.83 39.76 1078.18 45.1 1078.18 45.1Z" fill="black"/>
<path d="M1075.02 79.06C1077.55 79.12 1080.01 79.98 1082 81.58C1087.85 86.28 1099.74 94.68 1109.45 94.2C1120.73 93.64 1128.67 93.47 1134.26 93.75C1127.83 82.53 1119.17 87.98 1119.17 87.98C1119.17 87.98 1108.03 95.3 1100.9 83.25C1095.6 74.28 1080.02 76.8 1075.02 79.06Z" fill="#8CD9FF"/>
<path d="M383.96 70.31L391.9 53.65C394.84 47.47 399.07 42 404.3 37.58L429.08 16.65C430.82 15.18 433.48 16.14 433.9 18.37C434.93 23.78 434.55 33.04 423.53 40.81H429.04C431.51 40.81 432.92 43.68 431.37 45.59C428.16 49.56 422.44 54.29 414.18 52.45L417.22 54.96C418.88 56.33 418.57 58.96 416.64 59.9C413.91 61.23 409.79 62.37 404.75 61.02C402.21 60.34 399.5 60.64 397.27 62.03L383.96 70.31Z" fill="white"/>
<path d="M360.28 67.06L353.9 56.51C351.54 52.6 350.03 48.23 349.49 43.69L346.93 22.31C346.74 20.75 348.31 19.55 349.75 20.16C353.15 21.61 358.07 25.23 358.36 34.14L360.29 31.21C361.24 29.76 363.46 30.06 363.97 31.72C364.97 34.97 365.4 39.78 361.42 43.63L363.82 42.89C365.26 42.45 366.67 43.65 366.46 45.15C366.18 47.16 365.26 49.83 362.67 52.1C361.41 53.21 360.6 54.74 360.55 56.42L360.28 67.06Z" fill="white"/>
<path d="M367.86 107.82C367.93 107.87 368.03 107.89 368.14 107.88C368.23 107.87 368.32 107.82 368.38 107.74C370.4 105.21 371.82 105.04 372.92 105.58C373.67 105.94 374.56 107.34 375.04 109.08C375.1 109.25 375.21 109.41 375.35 109.51C375.52 109.61 375.7 109.66 375.88 109.64C376.01 109.63 376.12 109.58 376.23 109.51C376.34 109.44 376.41 109.34 376.47 109.23C377.46 107.39 378.02 106.49 379.06 105.82C379.83 105.42 380.72 105.26 381.58 105.34C382.44 105.43 383.27 105.77 383.95 106.31L386.56 100.95C383.19 99.66 380.42 97.22 378.74 94.09C376.97 91.08 376.15 91.54 373.5 95.27C370.81 98.93 368.85 103.04 367.65 107.4C367.61 107.48 367.63 107.57 367.67 107.64C367.72 107.73 367.77 107.79 367.86 107.82Z" fill="#808AFF"/>
<path d="M350.18 78.79C355.83 76.64 362.73 80.54 365.58 87.5C368.45 94.46 366.19 101.83 360.54 103.97L376.93 102.92C390.73 97.63 397.44 90.31 392.02 76.74C388.05 66.74 378.87 63.53 366.36 68.32C353.84 73.12 350.18 78.79 350.18 78.79Z" fill="black"/>
<path d="M361.07 75.35C366.2 81.78 369.18 85.52 370.51 86.46C371.82 87.39 371.93 86.6 371.15 83.16C370.36 79.71 367.95 67.56 367.95 67.56L361.07 75.35Z" fill="white"/>
<path d="M352.76 82.85C356.51 87.58 358.72 90.33 359.68 91.01C360.66 91.69 360.73 91.13 360.16 88.59C359.59 86.06 357.82 77.13 357.82 77.13L352.76 82.85Z" fill="#808AFF"/>
<path d="M377.5 100.86C377 94.88 376.73 91.39 376.98 90.3C377.22 89.21 377.66 89.52 378.99 91.77C380.31 94.02 385.15 101.77 385.15 101.77L377.5 100.86Z" fill="white"/>
<path d="M354.03 101.73C354.38 100.66 354.97 99.69 355.78 98.89C356.57 98.09 357.55 97.49 358.63 97.13C361.56 96.12 365.07 95.52 372.5 97.24C375.04 97.86 377.71 97.69 380.15 96.76C387.34 94 391.87 85.66 390.32 78.13C388.77 70.59 381.65 66.72 374.48 69.49C370.93 70.83 368.02 73.4 366.27 76.71C361.39 85.63 359.44 88.02 355.25 89.94C353.32 90.84 351.11 90.95 349.11 90.25C344.35 88.5 342.17 82.66 345.04 75.44C346.38 72.08 348.43 69.04 351.04 66.5C353.65 63.96 356.76 61.98 360.18 60.69C364.28 59.12 368.72 58.57 373.09 59.09C377.45 59.61 381.63 61.17 385.23 63.65C388.84 66.13 391.76 69.44 393.77 73.3C395.76 77.16 396.77 81.44 396.68 85.76C396.59 90.09 395.43 94.32 393.28 98.1C391.13 101.88 388.07 105.07 384.36 107.41C380.66 109.75 376.43 111.15 372.03 111.5C367.65 111.85 363.24 111.12 359.21 109.4C353.84 107.11 353.31 104.09 354.03 101.73Z" fill="#91FFAD"/>
<path d="M385.58 66.73C383.69 65.75 381.61 65.18 379.47 65.09C377.34 64.99 375.2 65.36 373.23 66.17C368.89 67.9 365.3 71.08 363.13 75.16C359.98 80.65 355.27 87.98 350.44 88.21C349.32 88.26 348.2 88.06 347.17 87.61C346.14 87.16 345.22 86.48 344.52 85.62C344.52 85.7 344.58 85.8 344.61 85.89C345.07 86.98 345.82 87.92 346.82 88.6C347.81 89.27 348.97 89.64 350.17 89.67H350.54C354.84 89.45 359.13 85.2 364.47 75.88C366.46 72.09 369.77 69.12 373.8 67.53C375.58 66.8 377.5 66.47 379.43 66.56C381.34 66.64 383.22 67.15 384.93 68.02C386.71 69.03 388.24 70.41 389.44 72.07C390.62 73.73 391.41 75.62 391.76 77.62C393.62 86.4 388.45 96.11 380.24 99.25C377.46 100.26 374.43 100.43 371.54 99.74C363.56 98.16 358.24 98.6 355.33 101.08L354.96 101.42C354.43 101.96 354.08 102.66 353.97 103.41C353.86 104.16 353.99 104.93 354.36 105.6C354.43 104.92 354.64 104.27 354.97 103.68C355.32 103.09 355.78 102.57 356.31 102.16C358.81 100.02 363.85 99.68 371.25 101.2C374.43 101.93 377.76 101.71 380.83 100.58C389.66 97.19 395.25 86.75 393.25 77.29C392.85 75.09 391.94 73 390.62 71.18C389.3 69.36 387.57 67.82 385.58 66.73Z" fill="white"/>
<path d="M384.05 94.52C384.05 94.52 397.91 91.46 397.74 108.9C397.59 124.55 418.7 113 408.4 95.8C400.61 82.79 390.41 84.16 390.41 84.16C390.41 84.16 389 83.77 388.37 87.17C388.17 88.27 387.53 89.26 386.6 89.89C384.28 91.42 383.69 92.69 384.05 94.52Z" fill="#FF78B9"/>
<path d="M397.39 89.68C394.44 87.63 391.13 87.01 388.42 86.92C388.4 87 388.38 87.08 388.37 87.17C388.18 88.17 387.63 89.07 386.84 89.69C389.34 89.58 392.88 89.89 395.85 91.96C399.07 94.21 400.99 98.09 401.56 103.51C401.63 104.22 402.23 104.74 402.93 104.74C402.98 104.74 403.03 104.74 403.07 104.73C403.83 104.65 404.38 103.97 404.3 103.22C403.63 96.95 401.31 92.4 397.39 89.68Z" fill="#FF54A6"/>
<path d="M386.319 52.0141C387.318 50.3917 384.709 46.9705 380.49 44.3726C376.272 41.7747 372.042 40.9839 371.043 42.6064C370.044 44.2288 372.654 47.6501 376.872 50.2479C381.09 52.8458 385.32 53.6365 386.319 52.0141Z" stroke="#FFF2A6" stroke-width="3" stroke-miterlimit="10" stroke-linecap="round"/>
<path d="M248.4 28.14C245.55 26.3 243.62 23.33 243.12 19.97L242.27 14.26C242.23 13.98 241.99 13.77 241.7 13.77C241.42 13.77 241.17 13.98 241.13 14.26L240.28 19.97C239.78 23.33 237.85 26.3 235 28.14L234.26 28.62C234.1 28.72 234 28.9 234 29.1V29.14C234 29.34 234.1 29.52 234.26 29.62L235 30.1C237.85 31.94 239.78 34.91 240.28 38.27L241.13 43.98C241.17 44.26 241.41 44.47 241.7 44.47C241.98 44.47 242.23 44.26 242.27 43.98L243.12 38.27C243.62 34.91 245.55 31.94 248.4 30.1L249.14 29.62C249.3 29.51 249.4 29.33 249.4 29.14V29.1C249.4 28.9 249.3 28.72 249.14 28.62L248.4 28.14Z" fill="#8CD9FF"/>
<path d="M311.58 91.32C308.73 89.48 306.8 86.51 306.3 83.15L305.45 77.44C305.41 77.16 305.17 76.95 304.88 76.95C304.6 76.95 304.35 77.16 304.31 77.44L303.46 83.15C302.96 86.51 301.03 89.48 298.18 91.32L297.44 91.8C297.28 91.91 297.18 92.09 297.18 92.28V92.32C297.18 92.52 297.28 92.7 297.44 92.8L298.18 93.28C301.03 95.12 302.96 98.09 303.46 101.45L304.31 107.16C304.35 107.44 304.59 107.65 304.88 107.65C305.16 107.65 305.41 107.44 305.45 107.16L306.3 101.45C306.8 98.09 308.73 95.12 311.58 93.28L312.32 92.8C312.48 92.69 312.58 92.51 312.58 92.32V92.28C312.58 92.08 312.48 91.9 312.32 91.8L311.58 91.32Z" fill="white"/>
<path d="M887.23 88.69C884.96 87.23 883.43 84.86 883.04 82.2L882.36 77.66C882.33 77.44 882.13 77.27 881.91 77.27C881.68 77.27 881.49 77.44 881.46 77.66L880.78 82.2C880.38 84.87 878.85 87.23 876.59 88.69L876 89.07C875.87 89.15 875.79 89.3 875.79 89.45V89.48C875.79 89.64 875.87 89.78 876 89.86L876.59 90.24C878.86 91.7 880.39 94.07 880.78 96.73L881.46 101.27C881.49 101.49 881.69 101.66 881.91 101.66C882.14 101.66 882.33 101.49 882.36 101.27L883.04 96.73C883.44 94.06 884.97 91.7 887.23 90.24L887.82 89.86C887.95 89.78 888.03 89.63 888.03 89.48V89.45C888.03 89.29 887.95 89.15 887.82 89.07L887.23 88.69Z" fill="white"/>
<path d="M1259.42 87.02C1256.57 85.18 1254.64 82.21 1254.14 78.85L1253.29 73.14C1253.25 72.86 1253.01 72.65 1252.72 72.65C1252.44 72.65 1252.19 72.86 1252.15 73.14L1251.3 78.85C1250.8 82.21 1248.87 85.18 1246.02 87.02L1245.28 87.5C1245.12 87.61 1245.02 87.79 1245.02 87.98V88.02C1245.02 88.22 1245.12 88.4 1245.28 88.5L1246.02 88.98C1248.87 90.82 1250.8 93.79 1251.3 97.15L1252.15 102.86C1252.19 103.14 1252.43 103.35 1252.72 103.35C1253 103.35 1253.25 103.14 1253.29 102.86L1254.14 97.15C1254.64 93.79 1256.57 90.82 1259.42 88.98L1260.16 88.5C1260.32 88.39 1260.42 88.21 1260.42 88.02V87.98C1260.42 87.78 1260.32 87.6 1260.16 87.5L1259.42 87.02Z" fill="url(#paint8_linear_1921_124584)"/>
<path d="M854.29 52.88C851.35 50.99 849.37 47.92 848.85 44.46L847.97 38.58C847.93 38.29 847.68 38.08 847.38 38.08C847.09 38.08 846.84 38.29 846.79 38.58L845.91 44.46C845.39 47.92 843.41 50.98 840.47 52.88L839.71 53.37C839.54 53.48 839.44 53.67 839.44 53.87V53.91C839.44 54.11 839.54 54.3 839.71 54.41L840.47 54.9C843.41 56.79 845.39 59.86 845.91 63.32L846.79 69.2C846.83 69.49 847.08 69.7 847.38 69.7C847.67 69.7 847.92 69.49 847.97 69.2L848.85 63.32C849.37 59.86 851.35 56.8 854.29 54.9L855.05 54.41C855.22 54.3 855.32 54.11 855.32 53.91V53.87C855.32 53.67 855.22 53.48 855.05 53.37L854.29 52.88Z" fill="#FFE75C"/>
<path d="M1047.61 254.45C1043.91 252.07 1041.42 248.21 1040.77 243.86L1039.66 236.46C1039.61 236.1 1039.29 235.83 1038.92 235.83C1038.55 235.83 1038.24 236.1 1038.18 236.46L1037.07 243.86C1036.42 248.21 1033.93 252.07 1030.23 254.45L1029.27 255.07C1029.06 255.21 1028.93 255.44 1028.93 255.7V255.75C1028.93 256 1029.06 256.24 1029.27 256.38L1030.23 257C1033.93 259.38 1036.42 263.24 1037.07 267.59L1038.18 274.99C1038.23 275.35 1038.55 275.62 1038.92 275.62C1039.29 275.62 1039.6 275.35 1039.66 274.99L1040.77 267.59C1041.42 263.24 1043.91 259.38 1047.61 257L1048.57 256.38C1048.78 256.24 1048.91 256.01 1048.91 255.75V255.7C1048.91 255.45 1048.78 255.21 1048.57 255.07L1047.61 254.45Z" fill="#FF78B9"/>
<path d="M381.42 306.48C378.57 304.64 376.64 301.67 376.14 298.31L375.29 292.6C375.25 292.32 375.01 292.11 374.72 292.11C374.44 292.11 374.19 292.32 374.15 292.6L373.3 298.31C372.8 301.67 370.87 304.64 368.02 306.48L367.28 306.96C367.12 307.07 367.02 307.25 367.02 307.44V307.48C367.02 307.68 367.12 307.86 367.28 307.96L368.02 308.44C370.87 310.28 372.8 313.25 373.3 316.61L374.15 322.32C374.19 322.6 374.43 322.81 374.72 322.81C375 322.81 375.25 322.6 375.29 322.32L376.14 316.61C376.64 313.25 378.57 310.28 381.42 308.44L382.16 307.96C382.32 307.85 382.42 307.67 382.42 307.48V307.44C382.42 307.24 382.32 307.06 382.16 306.96L381.42 306.48Z" fill="white"/>
<path d="M229.22 150.77C227.53 149.68 226.39 147.92 226.09 145.93L225.58 142.55C225.56 142.38 225.41 142.26 225.24 142.26C225.07 142.26 224.93 142.38 224.9 142.55L224.39 145.93C224.09 147.92 222.95 149.68 221.26 150.77L220.82 151.05C220.72 151.11 220.66 151.22 220.66 151.34V151.36C220.66 151.48 220.72 151.58 220.82 151.65L221.26 151.93C222.95 153.02 224.09 154.78 224.39 156.77L224.9 160.15C224.92 160.32 225.07 160.44 225.24 160.44C225.41 160.44 225.55 160.32 225.58 160.15L226.09 156.77C226.39 154.78 227.53 153.02 229.22 151.93L229.66 151.65C229.76 151.59 229.82 151.48 229.82 151.36V151.34C229.82 151.22 229.76 151.12 229.66 151.05L229.22 150.77Z" fill="#91FFAD"/>
<path d="M23.02 304.46C21.33 303.37 20.19 301.61 19.89 299.62L19.38 296.24C19.36 296.07 19.21 295.95 19.04 295.95C18.87 295.95 18.73 296.07 18.7 296.24L18.19 299.62C17.89 301.61 16.75 303.37 15.06 304.46L14.62 304.74C14.52 304.8 14.46 304.91 14.46 305.03V305.05C14.46 305.17 14.52 305.27 14.62 305.34L15.06 305.62C16.75 306.71 17.89 308.47 18.19 310.46L18.7 313.84C18.72 314.01 18.87 314.13 19.04 314.13C19.21 314.13 19.35 314.01 19.38 313.84L19.89 310.46C20.19 308.47 21.33 306.71 23.02 305.62L23.46 305.34C23.56 305.28 23.62 305.17 23.62 305.05V305.03C23.62 304.91 23.56 304.81 23.46 304.74L23.02 304.46Z" fill="#FFD635"/>
<path d="M263.21 209.22C261.52 208.13 260.38 206.37 260.08 204.38L259.57 201C259.55 200.83 259.4 200.71 259.23 200.71C259.06 200.71 258.92 200.83 258.89 201L258.38 204.38C258.08 206.37 256.94 208.13 255.25 209.22L254.81 209.5C254.71 209.56 254.65 209.67 254.65 209.79V209.81C254.65 209.93 254.71 210.03 254.81 210.1L255.25 210.38C256.94 211.47 258.08 213.23 258.38 215.22L258.89 218.6C258.91 218.77 259.06 218.89 259.23 218.89C259.4 218.89 259.54 218.77 259.57 218.6L260.08 215.22C260.38 213.23 261.52 211.47 263.21 210.38L263.65 210.1C263.75 210.04 263.81 209.93 263.81 209.81V209.79C263.81 209.67 263.75 209.57 263.65 209.5L263.21 209.22Z" fill="#3442D9"/>
<path d="M604.23 41.26C601.85 39.72 600.24 37.24 599.82 34.43L599.11 29.66C599.07 29.42 598.87 29.25 598.64 29.25C598.4 29.25 598.2 29.42 598.17 29.66L597.46 34.43C597.04 37.24 595.43 39.72 593.05 41.26L592.43 41.66C592.29 41.75 592.21 41.9 592.21 42.06V42.09C592.21 42.25 592.29 42.41 592.43 42.49L593.05 42.89C595.43 44.43 597.04 46.91 597.46 49.72L598.17 54.49C598.21 54.73 598.41 54.9 598.64 54.9C598.88 54.9 599.08 54.73 599.11 54.49L599.82 49.72C600.24 46.91 601.85 44.43 604.23 42.89L604.85 42.49C604.99 42.4 605.07 42.25 605.07 42.09V42.06C605.07 41.9 604.99 41.74 604.85 41.66L604.23 41.26Z" fill="#FF78B9"/>
<path d="M575.13 70.74C573.54 69.72 572.47 68.06 572.19 66.19L571.71 63.01C571.69 62.85 571.55 62.74 571.39 62.74C571.23 62.74 571.1 62.86 571.07 63.01L570.59 66.19C570.31 68.06 569.24 69.72 567.65 70.74L567.24 71.01C567.15 71.07 567.09 71.17 567.09 71.28V71.3C567.09 71.41 567.15 71.51 567.24 71.57L567.65 71.84C569.24 72.86 570.31 74.52 570.59 76.39L571.07 79.57C571.09 79.73 571.23 79.84 571.39 79.84C571.55 79.84 571.68 79.72 571.71 79.57L572.19 76.39C572.47 74.52 573.54 72.86 575.13 71.84L575.54 71.57C575.63 71.51 575.69 71.41 575.69 71.3V71.28C575.69 71.17 575.63 71.07 575.54 71.01L575.13 70.74Z" fill="white"/>
<path d="M727.26 115.66C724.88 114.12 723.27 111.64 722.85 108.83L722.14 104.06C722.1 103.82 721.9 103.65 721.67 103.65C721.43 103.65 721.23 103.82 721.2 104.06L720.49 108.83C720.07 111.64 718.46 114.12 716.08 115.66L715.46 116.06C715.32 116.15 715.24 116.3 715.24 116.46V116.49C715.24 116.65 715.32 116.81 715.46 116.89L716.08 117.29C718.46 118.83 720.07 121.31 720.49 124.12L721.2 128.89C721.24 129.13 721.44 129.3 721.67 129.3C721.91 129.3 722.11 129.13 722.14 128.89L722.85 124.12C723.27 121.31 724.88 118.83 727.26 117.29L727.88 116.89C728.02 116.8 728.1 116.65 728.1 116.49V116.46C728.1 116.3 728.02 116.14 727.88 116.06L727.26 115.66Z" fill="#91FFAD"/>
<path d="M876.9 278.95C874.13 277.17 872.27 274.28 871.78 271.03L870.95 265.49C870.91 265.22 870.67 265.02 870.4 265.02C870.12 265.02 869.89 265.22 869.85 265.49L869.02 271.03C868.53 274.28 866.67 277.17 863.9 278.95L863.18 279.41C863.02 279.51 862.92 279.69 862.92 279.88V279.91C862.92 280.1 863.02 280.28 863.18 280.38L863.9 280.84C866.67 282.62 868.53 285.51 869.02 288.76L869.85 294.3C869.89 294.57 870.13 294.77 870.4 294.77C870.68 294.77 870.91 294.57 870.95 294.3L871.78 288.76C872.27 285.51 874.13 282.62 876.9 280.84L877.62 280.38C877.78 280.28 877.88 280.1 877.88 279.91V279.88C877.88 279.69 877.78 279.51 877.62 279.41L876.9 278.95Z" fill="#EB459F"/>
<path d="M1016.26 273.78C1014.43 272.6 1013.2 270.69 1012.88 268.54L1012.33 264.88C1012.3 264.7 1012.15 264.57 1011.97 264.57C1011.79 264.57 1011.63 264.7 1011.61 264.88L1011.06 268.54C1010.74 270.69 1009.51 272.6 1007.68 273.78L1007.21 274.09C1007.1 274.16 1007.04 274.27 1007.04 274.4V274.42C1007.04 274.55 1007.1 274.66 1007.21 274.73L1007.68 275.04C1009.51 276.22 1010.74 278.13 1011.06 280.28L1011.61 283.94C1011.64 284.12 1011.79 284.25 1011.97 284.25C1012.15 284.25 1012.31 284.12 1012.33 283.94L1012.88 280.28C1013.2 278.13 1014.43 276.22 1016.26 275.04L1016.73 274.73C1016.84 274.66 1016.9 274.55 1016.9 274.42V274.4C1016.9 274.27 1016.84 274.16 1016.73 274.09L1016.26 273.78Z" fill="white"/>
</g>
<defs>
<linearGradient id="paint0_linear_1921_124584" x1="132.86" y1="42.379" x2="85.651" y2="129.483" gradientUnits="userSpaceOnUse">
<stop stop-color="#FFE75C"/>
<stop offset="1" stop-color="#FFC619"/>
</linearGradient>
<linearGradient id="paint1_linear_1921_124584" x1="149.109" y1="56.2685" x2="98.7011" y2="149.275" gradientUnits="userSpaceOnUse">
<stop stop-color="#FFE75C"/>
<stop offset="1" stop-color="#FFC619"/>
</linearGradient>
<linearGradient id="paint2_linear_1921_124584" x1="127.874" y1="356.66" x2="92.5943" y2="94.3809" gradientUnits="userSpaceOnUse">
<stop stop-color="white"/>
<stop offset="1" stop-color="#8BD8FF"/>
</linearGradient>
<linearGradient id="paint3_linear_1921_124584" x1="109.531" y1="235.353" x2="116.117" y2="189.376" gradientUnits="userSpaceOnUse">
<stop stop-color="#5765F1"/>
<stop offset="1" stop-color="#2536D3"/>
</linearGradient>
<linearGradient id="paint4_linear_1921_124584" x1="124.502" y1="279.633" x2="129.293" y2="246.19" gradientUnits="userSpaceOnUse">
<stop stop-color="#5765F1"/>
<stop offset="1" stop-color="#2536D3"/>
</linearGradient>
<linearGradient id="paint5_linear_1921_124584" x1="1094.25" y1="276.071" x2="1104.11" y2="201.519" gradientUnits="userSpaceOnUse">
<stop stop-color="#66BCFF"/>
<stop offset="1" stop-color="#8CD9FF"/>
</linearGradient>
<linearGradient id="paint6_linear_1921_124584" x1="1252.25" y1="285.697" x2="1264.85" y2="190.379" gradientUnits="userSpaceOnUse">
<stop stop-color="#66BCFF"/>
<stop offset="1" stop-color="#8CD9FF"/>
</linearGradient>
<linearGradient id="paint7_linear_1921_124584" x1="1095.86" y1="59.5361" x2="1053.23" y2="17.7131" gradientUnits="userSpaceOnUse">
<stop stop-color="#57F287"/>
<stop offset="1" stop-color="#91FFAD"/>
</linearGradient>
<linearGradient id="paint8_linear_1921_124584" x1="1250.49" y1="104.864" x2="1253" y2="85.86" gradientUnits="userSpaceOnUse">
<stop stop-color="#66BCFF"/>
<stop offset="1" stop-color="#8CD9FF"/>
</linearGradient>
<clipPath id="clip0_1921_124584">
<rect width="1304.59" height="332.43" fill="white"/>
</clipPath>
</defs>
</svg>
