<svg width="180" height="180" viewBox="0 0 180 180" fill="none" xmlns="http://www.w3.org/2000/svg">
<path d="M157.752 14.3028C155.913 13.1184 154.671 11.196 154.347 9.0288L153.796 5.3424C153.767 5.1624 153.612 5.0256 153.429 5.0256C153.245 5.0256 153.09 5.1588 153.061 5.3424L152.511 9.0288C152.187 11.196 150.945 13.1148 149.105 14.3028L148.626 14.6124C148.522 14.6808 148.457 14.7996 148.457 14.9256V14.9472C148.457 15.0732 148.522 15.192 148.626 15.2604L149.105 15.57C150.945 16.7544 152.187 18.6768 152.511 20.844L153.061 24.5304C153.09 24.7104 153.245 24.8472 153.429 24.8472C153.612 24.8472 153.767 24.714 153.796 24.5304L154.347 20.844C154.671 18.6768 155.913 16.758 157.752 15.57L158.231 15.2604C158.335 15.192 158.4 15.0732 158.4 14.9472V14.9256C158.4 14.7996 158.335 14.6808 158.231 14.6124L157.752 14.3028Z" fill="#8FFFAB"/>
<path d="M160.272 128.423C158.432 127.238 157.19 125.316 156.866 123.149L156.315 119.462C156.287 119.282 156.132 119.146 155.948 119.146C155.765 119.146 155.61 119.279 155.581 119.462L155.03 123.149C154.706 125.316 153.464 127.235 151.625 128.423L151.146 128.732C151.041 128.801 150.977 128.92 150.977 129.046V129.067C150.977 129.193 151.041 129.312 151.146 129.38L151.625 129.69C153.464 130.874 154.706 132.797 155.03 134.964L155.581 138.65C155.61 138.83 155.765 138.967 155.948 138.967C156.132 138.967 156.287 138.834 156.315 138.65L156.866 134.964C157.19 132.797 158.432 130.878 160.272 129.69L160.751 129.38C160.855 129.312 160.92 129.193 160.92 129.067V129.046C160.92 128.92 160.855 128.801 160.751 128.732L160.272 128.423Z" fill="#00F57A"/>
<path d="M168.67 147.985C167.162 147.013 166.147 145.44 165.88 143.665L165.427 140.645C165.405 140.497 165.276 140.386 165.128 140.386C164.977 140.386 164.851 140.497 164.829 140.645L164.376 143.665C164.109 145.44 163.094 147.013 161.586 147.985L161.193 148.237C161.107 148.295 161.053 148.388 161.053 148.493V148.511C161.053 148.615 161.107 148.709 161.193 148.766L161.586 149.018C163.094 149.99 164.109 151.564 164.376 153.338L164.829 156.359C164.851 156.506 164.98 156.618 165.128 156.618C165.279 156.618 165.405 156.506 165.427 156.359L165.88 153.338C166.147 151.564 167.162 149.99 168.67 149.018L169.063 148.766C169.149 148.709 169.203 148.615 169.203 148.511V148.493C169.203 148.388 169.149 148.295 169.063 148.237L168.67 147.985Z" fill="#5865F0"/>
<path d="M31.4204 123.782C28.6448 121.993 26.7692 119.095 26.2832 115.826L25.4516 110.264C25.412 109.991 25.1744 109.789 24.8972 109.789C24.62 109.789 24.386 109.991 24.3428 110.264L23.5112 115.826C23.0216 119.095 21.1496 121.993 18.374 123.782L17.654 124.247C17.4956 124.351 17.3984 124.528 17.3984 124.718V124.754C17.3984 124.945 17.4956 125.122 17.654 125.226L18.374 125.69C21.1496 127.48 23.0252 130.378 23.5112 133.646L24.3428 139.208C24.3824 139.482 24.62 139.684 24.8972 139.684C25.1744 139.684 25.4084 139.482 25.4516 139.208L26.2832 133.646C26.7728 130.378 28.6448 127.48 31.4204 125.69L32.1404 125.226C32.2988 125.122 32.396 124.945 32.396 124.754V124.718C32.396 124.528 32.2988 124.351 32.1404 124.247L31.4204 123.782Z" fill="#FF78B7"/>
<path d="M80.8709 16.8793L13.1779 48.3301C11.3748 49.1678 10.5922 51.3087 11.43 53.1118L29.6324 92.2898C30.4701 94.0929 32.611 94.8755 34.4141 94.0377L102.107 62.587C103.91 61.7492 104.693 59.6084 103.855 57.8053L85.6526 18.6273C84.8148 16.8242 82.674 16.0416 80.8709 16.8793Z" fill="#FFC419"/>
<path d="M44.992 40.0655L20.2479 51.5618C19.303 52.0008 18.893 53.1226 19.3319 54.0674L33.6224 84.8254C34.0613 85.7702 35.1831 86.1803 36.128 85.7413L60.8721 74.245C61.817 73.806 62.227 72.6842 61.7881 71.7394L47.4976 40.9814C47.0587 40.0366 45.9369 39.6265 44.992 40.0655Z" fill="#FFE55C"/>
<path d="M86.1337 32.7744L82.4185 24.7824C81.9793 23.8356 80.8561 23.4252 79.9129 23.8644L52.4701 36.6156C51.5233 37.0548 51.1129 38.178 51.5521 39.1212L56.0629 48.8268L56.0773 48.8196L59.0473 55.2132C59.4865 56.16 60.6097 56.5704 61.5529 56.1312L79.8481 47.6316C80.7949 47.1924 81.2053 46.0692 80.7661 45.126L77.7961 38.7324L85.2193 35.2836C86.1661 34.8444 86.5765 33.7212 86.1373 32.778L86.1337 32.7744Z" fill="#FFE55C"/>
<path d="M57.9097 68.4828C55.4293 63.2844 50.9905 59.8248 46.4869 59.0292C47.8405 56.9052 48.1897 54.4644 47.1925 52.3728C45.4393 48.6972 40.1905 47.502 35.4673 49.7052C30.7441 51.9084 28.3393 56.6712 30.0925 60.3468C31.0897 62.4384 33.2173 63.7236 35.7373 64.0404C33.4945 67.9824 33.3757 73.5732 35.8561 78.768C36.8821 80.9208 38.2465 82.7784 39.8125 84.2688L59.6953 75.1356C59.5405 72.9504 58.9573 70.6824 57.9097 68.4828Z" fill="#FFC419"/>
<path d="M165.159 31.3622L108.178 18.9383L89.005 106.872L145.986 119.296L165.159 31.3622Z" fill="#FF78B7"/>
<path d="M106.643 25.974C108.367 26.3412 110.084 25.8768 111.398 24.8472C111.668 24.6348 112.075 24.7248 112.23 25.0272C113 26.5212 114.379 27.6624 116.118 28.0404C117.857 28.4184 119.585 27.954 120.906 26.9172C121.176 26.7048 121.583 26.7948 121.737 27.0972C122.508 28.5912 123.887 29.7324 125.625 30.1104C127.364 30.4884 129.092 30.024 130.413 28.9872C130.683 28.7748 131.09 28.8648 131.245 29.1672C132.015 30.6612 133.394 31.8024 135.133 32.1804C136.872 32.5584 138.6 32.094 139.921 31.0572C140.191 30.8448 140.598 30.9348 140.753 31.2372C141.523 32.7312 142.902 33.8724 144.641 34.2504C146.379 34.6284 148.107 34.164 149.429 33.1272C149.699 32.9148 150.105 33.0048 150.26 33.3072C151.031 34.8012 152.409 35.9424 154.148 36.3204C155.887 36.6984 157.615 36.234 158.936 35.1972C159.206 34.9848 159.613 35.0748 159.768 35.3808C160.535 36.864 161.899 38.0016 163.623 38.3868L165.157 31.3524L108.176 18.9252L106.643 25.9596V25.974Z" fill="#E9459D"/>
<path d="M121.021 86.22L113.562 84.5928C112.068 84.2652 111.1 82.8108 111.38 81.306L118.454 43.4736C118.75 41.904 120.28 40.8888 121.842 41.2272L127.134 42.3828C129.834 42.9732 131.58 45.6012 131.072 48.3192L124.405 83.9736C124.11 85.5432 122.58 86.5584 121.018 86.22H121.021Z" fill="#E9459D"/>
<path d="M153.886 39.5163C155.581 39.886 156.657 41.5611 156.287 43.2565L149.288 75.3595L143.146 74.0205L150.146 41.9175C150.516 40.2221 152.191 39.1467 153.886 39.5163Z" fill="#E9459D"/>
<path d="M140.799 41.1438L100.703 78.6391C99.2505 79.9971 99.1741 82.2752 100.532 83.7274L126.264 111.245C127.622 112.697 129.9 112.773 131.352 111.415L171.449 73.9198C172.901 72.5618 172.977 70.2837 171.619 68.8315L145.887 41.3144C144.529 39.8622 142.251 39.7858 140.799 41.1438Z" fill="#8AD7FF"/>
<path d="M145.89 41.3136C144.533 39.8628 142.254 39.7836 140.803 41.1444L100.706 78.6384C99.2556 79.9956 99.1764 82.2744 100.537 83.7252L102.316 85.626L147.672 43.2144L145.894 41.3136H145.89Z" fill="#66BAFF"/>
<path d="M119.07 83.8159L143.621 60.8575C144.437 60.0953 145.719 60.1382 146.481 60.9534L154.854 69.9066L128.825 94.247L119.07 83.8159Z" fill="#66BAFF"/>
<path d="M143.454 51.6085L115.526 77.7242C114.799 78.4045 114.76 79.5453 115.44 80.2721C116.119 80.9989 117.26 81.0366 117.988 80.3562L145.915 54.2406C146.643 53.5602 146.681 52.4195 146.002 51.6927C145.322 50.9658 144.181 50.9282 143.454 51.6085Z" fill="#66BAFF"/>
<path d="M171.644 73.7172C171.382 73.4004 170.978 73.1988 170.514 73.2276L170.298 73.242C169.441 73.296 168.75 72.5544 168.858 71.7012L168.887 71.4852C169.016 70.4844 168.055 69.6924 167.098 70.0128L166.892 70.0812C166.079 70.3548 165.218 69.8184 165.103 68.9652L165.074 68.7492C164.941 67.7484 163.807 67.2336 162.965 67.7916L162.785 67.9104C162.068 68.3856 161.1 68.0904 160.769 67.2948L160.686 67.0932C160.297 66.1608 159.07 65.9556 158.4 66.7116L158.256 66.8736C157.687 67.518 156.672 67.482 156.15 66.8016L156.017 66.6288C155.401 65.8296 154.159 65.9484 153.709 66.852L153.612 67.0464C153.23 67.8132 152.24 68.0436 151.56 67.5216L151.387 67.3884C150.584 66.7764 149.418 67.212 149.216 68.202L149.173 68.4144C149 69.2568 148.108 69.732 147.312 69.4044L147.11 69.3216C146.178 68.9364 145.163 69.66 145.224 70.668L145.238 70.884C145.292 71.7408 144.551 72.432 143.698 72.324L143.482 72.2952C142.481 72.1656 141.689 73.1268 142.009 74.0844L142.078 74.2896C142.351 75.1032 141.815 75.9636 140.962 76.0788L140.746 76.1076C139.745 76.2408 139.23 77.3748 139.788 78.2172L139.907 78.3972C140.382 79.1136 140.087 80.082 139.291 80.4132L139.09 80.496C138.157 80.8848 137.952 82.1124 138.708 82.782L138.87 82.926C139.514 83.4948 139.478 84.51 138.798 85.032L138.625 85.1652C137.826 85.7808 137.945 87.0228 138.848 87.4728L139.043 87.57C139.81 87.9516 140.04 88.9416 139.518 89.622L139.385 89.7948C138.773 90.5976 139.208 91.764 140.198 91.9656L140.411 92.0088C141.253 92.1816 141.728 93.0744 141.401 93.87L141.318 94.0716C140.933 95.004 141.656 96.0192 142.664 95.958L142.88 95.9436C143.737 95.8896 144.428 96.6312 144.32 97.4844L144.292 97.7004C144.23 98.172 144.414 98.5968 144.724 98.8812L171.428 73.9116C171.497 73.8468 171.562 73.7784 171.623 73.71L171.644 73.7172Z" fill="#FFE55C"/>
<path d="M156.6 70.2C148.648 70.2 142.2 76.6476 142.2 84.6C142.2 89.2476 144.407 93.3804 147.823 96.012L168.577 76.6044C165.996 72.7416 161.593 70.1964 156.6 70.1964V70.2Z" fill="#E9459D"/>
<path d="M156.6 70.2C148.648 70.2 142.2 76.6476 142.2 84.6C142.2 89.2476 144.407 93.3804 147.823 96.012L168.577 76.6044C165.996 72.7416 161.593 70.1964 156.6 70.1964V70.2Z" fill="#FFF0A4"/>
<path d="M157.943 76.1688C156.639 76.6044 155.383 77.2164 154.202 77.9976C154.285 78.336 154.418 78.7716 154.541 79.1028C153.309 79.956 152.237 80.964 151.326 82.1196C151.005 81.9792 150.577 81.8208 150.242 81.7164C149.385 82.8432 148.698 84.0636 148.176 85.3344C148.665 88.3908 149.76 90.8172 151.275 92.8116L154.76 89.5536C154.526 89.4456 154.31 89.2908 154.119 89.0892C153.392 88.3152 153.356 87.156 154.062 86.4936C154.767 85.8312 155.934 85.932 156.647 86.7168C156.837 86.9184 156.978 87.1488 157.071 87.39L159.44 85.176C159.206 85.068 158.983 84.9132 158.789 84.708C158.061 83.934 158.025 82.7748 158.731 82.1124C159.437 81.45 160.603 81.5508 161.316 82.3356C161.51 82.5408 161.651 82.7748 161.744 83.016L165.229 79.758C163.116 77.922 160.668 76.77 157.943 76.1688Z" fill="#FFE55C"/>
<path d="M45.9932 48.3336C61.3724 45.6084 101.93 38.016 117.752 35.0496C121.294 34.3836 124.686 36.7596 125.28 40.3128L140.864 133.823C141.415 137.131 139.334 140.306 136.08 141.12L136.922 146.858C137.448 150.426 134.935 153.727 131.356 154.177L60.7352 163.004C57.2144 163.444 53.9996 160.949 53.5568 157.424L40.7336 55.4688C40.3052 52.0668 42.62 48.9312 45.9932 48.3336Z" fill="#3442D7"/>
<path d="M133.2 142.2L59.3676 152.946C57.7872 153.176 56.6784 154.631 56.8764 156.215C57.078 157.82 58.5396 158.962 60.1452 158.767L130.799 150.185C132.71 149.951 134.057 148.194 133.783 146.29L133.2 142.204V142.2Z" fill="#FFF0A4"/>
<path d="M122.996 124.342L67.0936 133.216C65.1299 133.528 63.7908 135.372 64.1025 137.336C64.4142 139.3 66.2587 140.639 68.2224 140.327L124.125 131.453C126.089 131.141 127.428 129.297 127.116 127.333C126.805 125.369 124.96 124.03 122.996 124.342Z" fill="#5865F0"/>
<path d="M67.3198 154.08L118.8 146.88L113.04 173.88L64.7998 164.52L67.3198 154.08Z" fill="#57F085"/>
<path d="M67.3198 154.08L77.3458 152.676L116.107 159.509L113.04 173.88L64.7998 164.52L67.3198 154.08Z" fill="#8FFFAB"/>
<path d="M107.348 168.541C109.336 168.541 110.948 166.929 110.948 164.941C110.948 162.953 109.336 161.341 107.348 161.341C105.36 161.341 103.748 162.953 103.748 164.941C103.748 166.929 105.36 168.541 107.348 168.541Z" fill="#57F085"/>
<path d="M74.0912 162.299C76.0794 162.299 77.6912 160.687 77.6912 158.699C77.6912 156.711 76.0794 155.099 74.0912 155.099C72.103 155.099 70.4912 156.711 70.4912 158.699C70.4912 160.687 72.103 162.299 74.0912 162.299Z" fill="#57F085"/>
<path d="M85.1752 164.38C87.1634 164.38 88.7752 162.768 88.7752 160.78C88.7752 158.791 87.1634 157.18 85.1752 157.18C83.187 157.18 81.5752 158.791 81.5752 160.78C81.5752 162.768 83.187 164.38 85.1752 164.38Z" fill="#57F085"/>
<path d="M96.2641 166.46C98.2523 166.46 99.8641 164.849 99.8641 162.86C99.8641 160.872 98.2523 159.26 96.2641 159.26C94.2758 159.26 92.6641 160.872 92.6641 162.86C92.6641 164.849 94.2758 166.46 96.2641 166.46Z" fill="#57F085"/>
<path d="M79.4225 64.872C81.4061 64.3248 83.4401 63.8604 85.5173 63.4896C87.5945 63.1188 89.6645 62.8488 91.7129 62.6724C90.1685 58.9824 88.4009 55.5696 86.4497 52.5276C85.5101 52.6068 84.5669 52.7256 83.6201 52.8948C82.6733 53.064 81.7481 53.28 80.8373 53.532C80.0597 57.06 79.5881 60.8724 79.4189 64.872H79.4225Z" fill="#5865F0"/>
<path d="M92.5556 64.7712C90.374 64.9368 88.1492 65.2176 85.8992 65.6172C83.6492 66.0168 81.464 66.528 79.3616 67.1328C79.2932 72.3024 79.718 77.7456 80.6432 83.2716L96.9476 80.352C95.9 74.8512 94.4132 69.5952 92.552 64.7712H92.5556Z" fill="#5865F0"/>
<path d="M77.2367 65.5164C77.3663 61.5816 77.7839 57.816 78.4787 54.2916C75.4151 55.4148 72.6107 56.9952 70.1339 58.95C68.5355 62.2548 67.3691 65.9592 66.7031 69.9264C69.9251 68.1768 73.4675 66.69 77.2331 65.5128L77.2367 65.5164Z" fill="#5865F0"/>
<path d="M97.3288 82.476L81.0244 85.3956C82.072 90.8964 83.5588 96.1488 85.42 100.976C87.6016 100.811 89.8264 100.53 92.0764 100.13C94.3264 99.7308 96.5116 99.2196 98.614 98.6148C98.6824 93.4452 98.2576 88.002 97.3324 82.476H97.3288Z" fill="#5865F0"/>
<path d="M105.393 63.0072C103.392 59.5152 101.012 56.4444 98.3696 53.8992C95.3708 52.9236 92.1884 52.4124 88.9268 52.4232C90.8024 55.4868 92.498 58.8708 93.9848 62.5176C97.9268 62.316 101.761 62.4816 105.393 63.0036V63.0072Z" fill="#5865F0"/>
<path d="M119.126 78.5736L113.402 79.5996C114.061 83.7468 114.216 87.822 113.921 91.7208C115.832 90.4536 117.546 89.0928 119.058 87.6672C119.526 84.726 119.566 81.6696 119.123 78.5772L119.126 78.5736Z" fill="#5865F0"/>
<path d="M66.6961 85.7664L78.5185 83.6496C77.6113 78.2388 77.1685 72.8964 77.1973 67.7952C73.2193 69.0912 69.5652 70.722 66.3432 72.6012C65.8896 76.7952 65.9833 81.2376 66.6997 85.7664H66.6961Z" fill="#5865F0"/>
<path d="M113.025 77.472L118.749 76.446C118.09 73.3932 116.996 70.5384 115.534 67.9428C113.622 67.1292 111.542 66.4488 109.31 65.9232C110.937 69.48 112.204 73.3572 113.025 77.472Z" fill="#5865F0"/>
<path d="M108.1 63.4644C110.008 63.846 111.844 64.3392 113.597 64.9296C110.832 61.1424 107.232 58.0644 103.117 55.9044C104.971 58.1724 106.645 60.7068 108.1 63.4644Z" fill="#5865F0"/>
<path d="M92.4583 102.254C90.3811 102.625 88.3111 102.895 86.2627 103.072C87.8071 106.762 89.5747 110.174 91.5259 113.216C92.4655 113.137 93.4087 113.018 94.3555 112.849C95.3023 112.68 96.2275 112.464 97.1383 112.212C97.9159 108.684 98.3875 104.872 98.5567 100.872C96.5731 101.419 94.5391 101.884 92.4619 102.254H92.4583Z" fill="#5865F0"/>
<path d="M58.9132 78.0804C58.4452 81.0216 58.4056 84.078 58.8484 87.1704L64.5724 86.1444C63.9136 81.9972 63.7588 77.922 64.054 74.0232C62.1424 75.2904 60.4288 76.6512 58.9168 78.0768L58.9132 78.0804Z" fill="#5865F0"/>
<path d="M64.9506 88.272L59.2266 89.298C59.8854 92.3508 60.9798 95.2056 62.4414 97.8012C64.353 98.6148 66.4338 99.2952 68.6658 99.8208C67.0386 96.264 65.7714 92.3868 64.9506 88.272Z" fill="#5865F0"/>
<path d="M69.8751 102.283C67.9671 101.902 66.1311 101.408 64.3779 100.818C67.1427 104.605 70.7427 107.683 74.8575 109.843C73.0035 107.575 71.3295 105.041 69.8751 102.283Z" fill="#5865F0"/>
<path d="M113.644 94.446C113.237 97.5348 112.546 100.494 111.592 103.262C114.702 99.81 117.01 95.6736 118.291 91.1628C116.851 92.3256 115.303 93.4236 113.644 94.4424V94.446Z" fill="#5865F0"/>
<path d="M64.3312 71.298C64.738 68.2092 65.4292 65.25 66.3832 62.4816C63.2728 65.934 60.9652 70.0704 59.6836 74.5812C61.1236 73.4184 62.6716 72.3204 64.3312 71.3016V71.298Z" fill="#5865F0"/>
<path d="M106.664 65.3832C102.992 64.7388 98.996 64.476 94.8164 64.6416C96.6092 69.4188 98.0492 74.5812 99.0752 79.9704L110.898 77.8536C109.998 73.3572 108.547 69.1596 106.664 65.3832Z" fill="#5865F0"/>
<path d="M100.734 100.228C100.605 104.162 100.187 107.928 99.4922 111.452C102.556 110.329 105.36 108.749 107.837 106.794C109.435 103.489 110.602 99.7848 111.268 95.8176C108.046 97.5672 104.503 99.054 100.738 100.231L100.734 100.228Z" fill="#5865F0"/>
<path d="M89.0484 113.321C87.1728 110.257 85.4772 106.873 83.9904 103.226C80.0484 103.428 76.2144 103.262 72.582 102.74C74.5836 106.232 76.9632 109.303 79.6056 111.848C82.6044 112.824 85.7868 113.335 89.0484 113.324V113.321Z" fill="#5865F0"/>
<path d="M111.278 79.9812L99.4561 82.098C100.363 87.5088 100.806 92.8512 100.777 97.9524C104.755 96.6564 108.409 95.0256 111.631 93.1464C112.085 88.9524 111.991 84.51 111.275 79.9812H111.278Z" fill="#5865F0"/>
<path d="M71.3117 100.364C74.9837 101.009 78.9797 101.272 83.1593 101.106C81.3665 96.3288 79.9265 91.1664 78.9005 85.7772L67.0781 87.894C67.9781 92.3904 69.4289 96.588 71.3117 100.364Z" fill="#5865F0"/>
<path d="M97.5547 77.9729L78.4189 81.3988L79.434 87.0686L98.5698 83.6428L97.5547 77.9729Z" fill="#5865F0"/>
<path d="M97.9478 71.2296C95.7878 70.6716 93.5342 70.3908 91.2338 70.4124C91.0466 70.9452 90.8414 71.658 90.7154 72.2124C88.2818 72.288 85.931 72.7092 83.6666 73.476C83.3534 72.9972 82.9106 72.4032 82.547 71.9712C80.3834 72.7488 78.3638 73.8 76.5314 75.0708C73.5722 81.7452 73.5218 87.75 75.0914 93.3768C78.1082 94.8528 80.909 95.5764 83.591 95.8932C84.0698 94.9356 84.4658 93.9348 84.779 92.9016C83.7998 92.7252 82.8458 92.4588 81.9242 92.1168C82.115 91.9188 82.3022 91.7136 82.4822 91.5012C87.9722 92.916 93.4802 91.9296 98.0774 88.7112C98.3186 88.8444 98.5634 88.974 98.8118 89.0964C98.0666 89.7372 97.2602 90.3168 96.3998 90.8244C97.0514 91.6848 97.7714 92.4876 98.5526 93.2184C100.961 91.9872 103.337 90.3384 105.659 87.9048C105.108 81.1512 102.347 75.708 97.9442 71.2296H97.9478ZM84.6278 88.0344C83.105 88.308 81.6074 87.1416 81.3014 85.4424C80.9954 83.7432 81.971 82.134 83.5226 81.8568C85.0742 81.5796 86.5718 82.746 86.849 84.4488C87.1514 86.1444 86.1794 87.7572 84.6278 88.0344ZM94.8698 86.202C93.347 86.4756 91.8494 85.3092 91.5434 83.61C91.2374 81.9108 92.213 80.3016 93.7646 80.0244C95.3162 79.7472 96.8138 80.9136 97.091 82.6164C97.3934 84.312 96.4214 85.9248 94.8698 86.202Z" fill="white"/>
</svg>
