<svg data-name="Bitey Dog" xmlns="http://www.w3.org/2000/svg" viewBox="0 0 624 624"><g fill="#d4ee5c"><path d="M92.3 211.1c-6.2-2.3-12-7.5-16.8-15.1-10.3-16.5-14.3-41.7-10.3-65.8l.6-.4a38.6 38.6 0 007.7 1l.5.6c-5.3 29.3 1.6 58 18.9 78.9zm7.2-129.7a72.7 72.7 0 00-5.4-5.7V75c2.4-2.2 4.9-4.3 7.4-6.2s4-2.8 6-4a89.3 89.3 0 0147-13.1 96.6 96.6 0 0112 .7l.4.6a42.5 42.5 0 00-.8 6.1l-.5.5h-6.4a89.5 89.5 0 00-42.1 10.3 77.5 77.5 0 00-16.9 11.8z"/><path d="M154.5 52.2a95 95 0 0111.9.7 42 42 0 00-.8 6.2h-6.4a92.1 92.1 0 00-42.4 10.3 84.7 84.7 0 00-16.9 11.7l-5.4-5.8a87.3 87.3 0 017.3-6.1c1.9-1.4 3.9-2.7 6-4a88.6 88.6 0 0146.7-13m-88.8 78.1a43.9 43.9 0 007.8 1c-5.3 29.3 1.6 58.2 19 79.3-6.1-2.2-11.8-7.3-16.5-14.8-10.5-16.7-14.2-41.8-10.3-65.5m88.8-79.1a90.3 90.3 0 00-47.3 13.1l-6 4.1c-2.5 1.9-5 4-7.4 6.2v1.5a58.5 58.5 0 015.3 5.7h1.5a86.2 86.2 0 0116.7-11.7 90.1 90.1 0 0141.9-10.2h6.3l1.1-.9a40.7 40.7 0 01.8-6.1l-.9-1.2a95.5 95.5 0 00-12-.7zm-88.6 78.1l-1.2.8c-4 24.2 0 49.6 10.4 66.2 4.8 7.7 10.7 13 17.1 15.3l1.1-1.6c-17.2-20.8-24.1-49.4-18.8-78.5l-1-1.2a38.6 38.6 0 01-7.6-1z"/></g><g fill="#859931"><path d="M79.1 208.4c-10.1-4.1-18.9-11.2-26.2-21.2a88.9 88.9 0 01-10.2-18.5l-.2-.7h3c3.4-.3 6.2-2.7 7.8-6.7 3.3-8.3 1.4-22.4-3.9-28.3a8.2 8.2 0 00-6.3-3.1 7.1 7.1 0 00-2 .2l-4.9 1.5-.7.2v-.8a93.6 93.6 0 011.6-16.2c.6-2.8 1.2-5.5 2.1-8.4l.3-1.4.6 1.3c4.8 10.7 12 18.3 21 21.9l.4.2v.4c-4.3 25.3-.2 51.9 10.8 69.4a47 47 0 007.5 9.4l1.8 1.8zm11.4-136l-3.4-2.8a73.5 73.5 0 00-16.6-9.7l-.8-.3.7-.5a70.8 70.8 0 017.9-5.6l.6-.4.3 1c.8 3.1 3.3 5.2 7 5.8a10.1 10.1 0 002.5.2c8.4 0 19.7-5.5 23.7-11.7 1.7-2.6 2.1-5.3 1.1-7.7l-.2-.6h.6a112.2 112.2 0 0119.2-1.6 110 110 0 0118 1.4 98.8 98.8 0 0118.2 4.5l.5.2-.2.5-1.4 3.2v.4h-.4a97.2 97.2 0 00-13.1-.9 93.6 93.6 0 00-60.5 21.8l-3.1 2.7-.3.4z"/><path d="M133.1 38.9a108.8 108.8 0 0117.9 1.4 90.3 90.3 0 0118.1 4.5 25.2 25.2 0 00-1.3 3.3 99.8 99.8 0 00-13.2-.9 93.1 93.1 0 00-60.7 22L90.8 72l-3.4-2.8a74.1 74.1 0 00-16.7-9.7 74.8 74.8 0 017.9-5.6c0 .1.1.2.1.3.9 3.4 3.5 5.6 7.5 6.2a10.1 10.1 0 002.5.2c8.4 0 20-5.5 24.1-11.9 1.8-2.8 2.2-5.6 1.2-8.2a109.4 109.4 0 0119.1-1.6m-93.5 67.6c4.9 10.9 12.2 18.5 21.3 22.2-4.3 25.1-.3 51.9 10.8 69.7a49.5 49.5 0 007.6 9.5c-9.9-4-18.8-11.1-26-21a88.3 88.3 0 01-10.1-18.4h2.3c3.6-.3 6.6-2.8 8.2-7 3.4-8.5 1.5-22.8-3.9-28.9a9.3 9.3 0 00-6.7-3.2 7.5 7.5 0 00-2.1.2l-5 1.4a94.5 94.5 0 011.6-16.1c.6-2.9 1.3-5.7 2-8.4m93.5-68.6a113.4 113.4 0 00-19.3 1.6l-1.2.3.5 1.1c.9 2.3.5 4.8-1.1 7.3-3.9 6-15 11.4-23.3 11.4h-2.4c-3.5-.6-5.9-2.6-6.6-5.6h-.1v-.2l-.4-1.3-1.1.7a83.9 83.9 0 00-8 5.7l-1.4 1 1.6.7A72.4 72.4 0 0186.8 70c1.1.9 2.2 1.7 3.3 2.7l.7.6.7-.6 3-2.7a92.7 92.7 0 0160.1-21.8 94.7 94.7 0 0113 .9h.8l.3-.8c.4-1 .8-2.1 1.3-3.2l.5-1-1-.4a114.1 114.1 0 00-36.4-5.9zm-93.7 65.7l-.7 2.6c-.9 3-1.5 5.7-2.1 8.5A95.8 95.8 0 0035 131v1.4l1.3-.4 4.9-1.5a6.5 6.5 0 011.9-.2 7.8 7.8 0 015.9 2.9c5.2 5.9 7.1 19.6 3.8 27.8-1.5 3.8-4.1 6.1-7.4 6.4h-3.7l.6 1.3a85.3 85.3 0 0010.2 18.6c7.3 10 16.2 17.2 26.4 21.4l4.8 1.9-3.7-3.4a46.6 46.6 0 01-7.4-9.3c-10.9-17.4-15-43.9-10.7-69v-.8l-.7-.3c-8.9-3.6-16-11.1-20.8-21.7l-1.1-2.5z"/></g><g fill="#d4dcc0"><path d="M112.8 307.3a12.1 12.1 0 01-4-.7c-2.5-.8-4.3-2-4.9-3.3a2 2 0 01-.1-1.7c.4-1.2 1.8-1.8 3.8-1.8a14.3 14.3 0 013.9.6c2.5.8 4.4 2.1 5.1 3.5a2 2 0 01.2 1.5c-.4 1.2-1.8 1.9-4 1.9zm4-30a15.3 15.3 0 01-3-.3c-2.6-.5-4.5-1.5-5.2-2.8a1.7 1.7 0 01-.3-1.7c.3-1.4 2.1-2.2 4.7-2.2l2.8.3c2.6.5 4.7 1.6 5.5 2.9a2.1 2.1 0 01.3 1.5c-.3 1.5-2.1 2.3-4.8 2.3zm2-28.4a15.3 15.3 0 01-3-.3c-2.6-.6-4.5-1.6-5.2-2.8a1.8 1.8 0 01-.3-1.7c.3-1.4 2.1-2.3 4.7-2.3a9.5 9.5 0 012.8.4c2.6.5 4.6 1.6 5.5 2.9a2.1 2.1 0 01.3 1.5c-.3 1.4-2.1 2.3-4.8 2.3zm-74.6-18.8a.8.8 0 01-.7-.2c-.6-.3-1.1-1.8-.7-4.8 1.2-8 5.7-21.4 9.3-31.2l.3-.8.5.6a66.6 66.6 0 0018.9 15.7l.6.3-.5.5a252.1 252.1 0 01-23 18c-2.6 1.7-4.1 1.9-4.7 1.9zM41.5 164c-9.4 0-20.3-2.7-31.5-5.8-2.9-.8-4.9-2.3-5.1-3.7s.8-2.8 2.9-4.2c12-8.1 23.2-13.5 34.3-16.4h1a4.3 4.3 0 013.3 1.7c4.3 4.9 5.9 17.3 3.2 24.2q-1.6 3.9-4.5 4.2zm217-50.8c-2 0-3.6-3.1-3.8-7.1-.2-2.5.3-4.7 1.3-5.8a3.3 3.3 0 011.6-.7c2 0 3.6 2.9 3.8 6.9s-.4 4.8-1.4 6a2.2 2.2 0 01-1.4.7zm30-6.1c-2 0-3.8-2.8-4.4-6.7s-.1-4.7.8-5.9a2.2 2.2 0 011.5-.8h.3c1.9 0 3.6 2.6 4.2 6.4s.1 4.9-.8 6.1a1.9 1.9 0 01-1.3.8zm27.3-8.1c-1.9 0-3.7-2.8-4.3-6.6s-.1-4.8.8-5.9a1.7 1.7 0 011.5-.9h.2c1.9 0 3.6 2.6 4.2 6.4s.1 4.9-.8 6.1a2.2 2.2 0 01-1.3.9zM88.9 56.1h-2c-2.2-.4-3.4-1.3-3.9-2.9a174.6 174.6 0 01-5.4-35.3c-.2-3.8.6-5.3 1.2-5.6h.5c.5 0 1.7.3 3.8 1.9 11.5 8.9 20.1 17.9 26.4 27.5.3.5 1.3 2-.4 4.7-3.4 5.1-13.2 9.9-20.2 9.9zm65.6-19.8l-2.8-.5a176 176 0 00-19.7-1.4c-1 0-1.2 0-1.2-.5v-.5h.2a161.4 161.4 0 0112.5-22.6c1.8-2.8 3.4-3.8 4.1-3.8h.1c.7.1 1.7 1.2 2.5 4a126.2 126.2 0 014.9 24.8v.6z"/><path d="M147.6 7.5h.1c.3 0 1.2.7 2 3.6a128.2 128.2 0 014.9 24.7l-2.9-.5c-7.9-1.2-21.4-1.4-20.4-1.4a163.1 163.1 0 0112.6-22.8c1.9-3 3.3-3.6 3.7-3.6m-68.3 5.1c.5 0 1.6.4 3.5 1.8 11.4 8.8 20 17.8 26.3 27.4.3.5 1.1 1.7-.5 4.2-3.2 5-13.1 9.7-19.7 9.7l-1.9-.2c-2.6-.4-3.2-1.7-3.5-2.6a171.6 171.6 0 01-5.4-35.1c-.2-3.7.6-5 .9-5.1h.3M314 86.1c1.6 0 3.2 2.5 3.7 6s.1 4.6-.7 5.7a2.2 2.2 0 01-1 .7h-.2c-1.6 0-3.3-2.7-3.8-6.2s-.1-4.5.7-5.5a1.6 1.6 0 011.1-.7h.2m-27.3 8.1c1.6 0 3.2 2.5 3.7 6s.1 4.6-.7 5.7a1.4 1.4 0 01-1 .6h-.2c-1.7 0-3.3-2.7-3.9-6.2s-.1-4.5.7-5.6a1.4 1.4 0 011.2-.6h.2m-29.1 5.9c1.7 0 3.1 2.8 3.3 6.4s-.3 4.6-1.3 5.6a1.4 1.4 0 01-1 .6h-.1c-1.7 0-3.1-2.9-3.3-6.6s.3-4.5 1.2-5.4a1.7 1.7 0 011.2-.6M43.1 134.3a3.7 3.7 0 012.9 1.6c4.2 4.7 5.8 16.9 3.1 23.6-1 2.4-2.3 3.8-4 3.9h-3.6c-9.3 0-20.1-2.7-31.4-5.8-3-.8-4.6-2.3-4.7-3.3s.8-2.4 2.7-3.6c11.9-8.1 23.1-13.5 34.2-16.4h.8m9.5 59.7a65.7 65.7 0 0019 15.8 248.6 248.6 0 01-23 18 8.8 8.8 0 01-4.4 1.8h-.5c-.2-.1-.8-1.2-.4-4.3 1.2-8 5.6-21.2 9.3-31.2m62.4 48.2l2.7.3c2.5.6 4.4 1.6 5.2 2.7a1.5 1.5 0 01.2 1.2c-.2 1.2-2 1.9-4.3 1.9l-2.9-.3c-2.4-.5-4.2-1.5-4.9-2.6a1.2 1.2 0 01-.2-1.3c.3-1.2 1.9-1.9 4.2-1.9m-2 28.5a13.1 13.1 0 012.7.3c2.5.5 4.4 1.5 5.2 2.7a1.2 1.2 0 01.2 1.1c-.2 1.2-2 1.9-4.3 1.9l-2.9-.3c-2.4-.5-4.2-1.4-4.9-2.5a1.4 1.4 0 01-.2-1.4c.3-1.1 1.9-1.8 4.2-1.8m-5.4 29.5a12.9 12.9 0 013.7.6c2.4.8 4.2 2 4.9 3.2a1.7 1.7 0 01.1 1.2c-.3 1-1.7 1.5-3.5 1.5a14.2 14.2 0 01-3.8-.6c-2.4-.8-4.1-1.9-4.7-3.1a2 2 0 01-.1-1.3c.4-1 1.7-1.5 3.4-1.5m40-293.8c-.4 0-2.1.2-4.5 4a162.5 162.5 0 00-12.5 22.7 1.1 1.1 0 00-.3.7c0 1 .8 1 1.7 1a175.8 175.8 0 0119.6 1.4l2.8.5 1.3.2v-1.3a130 130 0 00-4.9-24.9c-.8-2.6-1.8-4.2-2.9-4.3h-.2zm-68.3 5.1l-.7.2c-.9.4-1.7 2.3-1.5 6.1a168.1 168.1 0 005.5 35.3q.6 2.7 4.2 3.3l2.1.2c7.2 0 17.2-5 20.6-10.2 1.9-3 .8-4.7.4-5.3-6.3-9.7-15-18.7-26.5-27.6-2.1-1.6-3.4-2-4.1-2zM314 85.1h-.3a2.2 2.2 0 00-1.8 1.1c-1 1.2-1.3 3.5-.9 6.2s2.6 7.1 4.8 7.1h.3a2.2 2.2 0 001.7-1c1-1.3 1.3-3.7.9-6.5s-2.5-6.8-4.7-6.8zm-27.3 8.1h-.4a2.7 2.7 0 00-1.8 1c-.9 1.3-1.3 3.6-.8 6.3.6 4.2 2.6 7.1 4.8 7.1h.3a2.5 2.5 0 001.7-1c1-1.3 1.3-3.7.9-6.5s-2.5-6.8-4.7-6.8zm-29.1 5.9a2.6 2.6 0 00-1.9.9c-1.1 1.2-1.7 3.4-1.5 6.2.2 4.3 2 7.5 4.3 7.5h.1a3.1 3.1 0 001.8-.9c1.1-1.2 1.6-3.6 1.5-6.4-.2-4.3-2-7.3-4.3-7.3zM43.1 133.3H42c-11.2 3-22.5 8.4-34.5 16.5-2.2 1.6-3.4 3.2-3.1 4.6s2.4 3.3 5.5 4.2c11.2 3.1 22.1 5.8 31.6 5.8h3.7q3.1-.3 4.8-4.5c2.9-7.2 1.2-19.7-3.2-24.7a5 5 0 00-3.7-1.9zm9.1 58.8l-.6 1.6c-3.6 9.8-8.1 23.3-9.3 31.4-.4 2.7 0 4.7.9 5.3l1 .2a9.8 9.8 0 005-2 252.1 252.1 0 0023-18l1.1-1-1.3-.7a63.5 63.5 0 01-18.7-15.5l-1.1-1.3zm62.8 49.2c-2.9 0-4.8 1-5.2 2.7a2.6 2.6 0 00.3 2.1c.9 1.3 2.9 2.4 5.6 3l3.1.3c2.9 0 4.9-1 5.3-2.7a2.7 2.7 0 00-.4-1.9c-.9-1.4-3-2.6-5.8-3.1a15.5 15.5 0 00-2.9-.4zm-2 28.5c-2.9 0-4.8 1-5.2 2.6a2.6 2.6 0 00.3 2.1c.9 1.3 2.9 2.4 5.6 3l3.1.3c2.9 0 4.9-1 5.3-2.7a2.8 2.8 0 00-.4-1.9c-.9-1.4-3-2.5-5.8-3.1l-2.9-.3zm-5.4 29.5c-2.2 0-3.8.8-4.3 2.1a2.8 2.8 0 00.1 2.2c.7 1.4 2.6 2.7 5.3 3.5a12.2 12.2 0 004.1.7c2.4 0 4-.8 4.5-2.2a2.5 2.5 0 00-.3-2c-.7-1.5-2.7-2.8-5.4-3.6a12.1 12.1 0 00-4-.7z"/></g><path d="M115.3 252h-.2c-3.5-.7-6.2-2.3-7.5-4.3a5.9 5.9 0 01-.7-4.5c.8-3 3.8-4.9 8-4.9h2.8l-.8-1.5a11.7 11.7 0 00-3.4-4.5c-4.2-3.7-11-5.7-19-5.7a55.2 55.2 0 00-7.1.5 34.3 34.3 0 00-7.5 1.9c-30.1 10.4-47.6 36.2-45.8 67.1 1.1 19.7 8.9 37.5 19.8 45.5a18.8 18.8 0 0010.9 4 11.2 11.2 0 003.2-.4 15.5 15.5 0 005.9-2.9c4.9-3.7 8.3-10.6 10.1-20.5l.2-.9-.9-.2a45.4 45.4 0 01-11.3-5l-1.5-1.2a1.4 1.4 0 01-.5-1 1.5 1.5 0 011.5-1.7l.5.2a.5.5 0 01.4.2c4.4 3.6 13.8 7.4 22.1 7.4a18.5 18.5 0 006.9-1.1 13.3 13.3 0 007.8-6.9l.6-1.1-1.2-.3h-.8c-3.5-1.1-6-2.9-7.1-5.1a5.4 5.4 0 01-.2-4.5c.9-2.6 3.5-4.1 7.1-4.1h1.6l1.7.2-.6-1.6a15.3 15.3 0 00-2.6-4c-3.8-3.8-10.8-5.9-20-5.9a84.5 84.5 0 00-13.6 1.2h-.7a1.5 1.5 0 01-1-1.2 1.1 1.1 0 01.3-1.1 1.5 1.5 0 01.9-.6h.1a77.6 77.6 0 0114-1.3c9.5 0 16.6 2 21.1 5.9l.7.6.6-.5a13.7 13.7 0 004.6-6.2l.4-1.1-1.2-.2h-.8c-3.5-.8-6.2-2.3-7.5-4.4a5.7 5.7 0 01-.7-4.4c.8-3.1 3.8-4.9 8-4.9h1.8l-.7-1.5a19.4 19.4 0 00-4.4-5.5c-5.1-4.3-13.4-6.8-22.3-6.8a35.7 35.7 0 00-8.2.8l-.7.2H78a1.4 1.4 0 01-1.4-1.1 1.4 1.4 0 01.1-1.1 1.4 1.4 0 011-.7l2.2-.5a43.5 43.5 0 017.4-.6c9.6 0 18.6 2.8 24.2 7.5l.7.7.2.2.9.8.7-1a41.5 41.5 0 002.3-4.8l.4-1.1-1.2-.2zm157.6-89.1c-7.2-14.5-21.4-24.3-39.7-27.7a1.8 1.8 0 01-1.3-1.5 71.4 71.4 0 00-14.2-42.1l-.2-.2h-.2A69.9 69.9 0 00199.8 75a1.5 1.5 0 01-.7-1.3 1.4 1.4 0 01.7-1.2c7.1-4.4 20.3-13.8 27.8-27.3 4.8-8.6 5.5-16.5 2.2-23S217.5 10 206.2 8.8a143.8 143.8 0 00-17.5-1.1c-20.2 0-23 5.5-23.3 7.9a3.1 3.1 0 00.9 2.8c2 2.5 8.1 5.7 26 7.1a1.6 1.6 0 011.3 1.3 1.4 1.4 0 01-.8 1.6c-16 7.6-23.4 18.3-23.2 33.4a1.7 1.7 0 01-.5 1.2 2.1 2.1 0 01-1 .4c-.1 0-.2 0-.2-.1l-4.5-.3h-4.3a89.7 89.7 0 00-30.4 5.4 80.1 80.1 0 00-26.3 16l-.7.6.5.7a95.2 95.2 0 016.1 9 1.7 1.7 0 01.1 1.2 1.3 1.3 0 01-.7.9l-.7.2a1.6 1.6 0 01-1.3-.8 81.7 81.7 0 00-26.4-27.8c-10.4-6.5-21.7-10-32.9-10h-.7c-5.9.1-14.7 3.8-23.5 10S7.7 80.9 5.5 86.3c-1.3 3-1.1 5.3.4 6.9a8.3 8.3 0 006.2 2.2c8.1 0 20-6.9 23.9-9.6a1.1 1.1 0 01.8-.3l.6.2a1.6 1.6 0 01.9 1.2c0 .3 3.4 33.3 28.3 39.5a35.7 35.7 0 0030.5-7.1 1.9 1.9 0 011-.3 1.3 1.3 0 011.1.5 1.5 1.5 0 01-.1 2.1 40.5 40.5 0 01-20.6 8.6h-.8v.8c-5.4 28.4 1.1 56.4 17.7 76.7l.3.4c1.6-3.5 3.4-6.9 5.2-10.2a1.7 1.7 0 01-.6-.6c-5.4-8.8-11.6-26.2-5-34.9 2.4-3.1 5.5-4.8 8.7-4.8h.5c4.9.2 9.7 4 14.2 11.2l.2.3h.2v.2h.2a135.4 135.4 0 0086.4 61.3h.3a136.4 136.4 0 0019.2 2.6h3.7a58.5 58.5 0 0015.8-2.1l5.2-1.5-5.4-.5a29.6 29.6 0 01-13.3-4.7 25.4 25.4 0 01-8-8.6 28.8 28.8 0 01-3-8.2c-1.9-9.3.4-19.9 6-28.5 7.9-11.8 19.7-18.8 31.9-18.8a28.7 28.7 0 0113.5 3.3l2.7 1.5zm54-90.4a36.9 36.9 0 00-9.7-20.5c-5.7-5.9-19.7-15.9-49.4-15.9a116.8 116.8 0 00-34.7 5.1h-.4l-.2.5a40.5 40.5 0 01-2.3 4.7c-6.7 12.1-17.7 21-25.7 26.3l-1.2.8 1.2.8a72.5 72.5 0 0115 14.8l.4.4h2.3a22.2 22.2 0 005.9-1.8 23.1 23.1 0 003.5-1.8h.2l.5-.3V85a34 34 0 011.6-12 1.5 1.5 0 011.4-1h.5a1.4 1.4 0 01.9 1.9 31.4 31.4 0 00-1.4 10.5c.1 6.7 1.7 14.3 5.6 18.9a13.7 13.7 0 009.2 4.8l1.2.2v-2.1c-.2-3.6.6-6.6 2.3-8.3a5.9 5.9 0 014.1-1.9h.1c3.1 0 5.7 2.6 6.7 6.8l.4 1.7 1.3-1.2a12.9 12.9 0 002.8-3.8c2.5-5.4 1.6-13.6-2.5-23.3a81.3 81.3 0 00-4.9-9.8 1.4 1.4 0 01-.1-1.1 1.3 1.3 0 01.7-.9 1 1 0 01.7-.2 1.4 1.4 0 011.3.7 83.9 83.9 0 015.3 10.8c3.2 7.7 5.4 16.7 2.7 23.9l-.3.7.7.4a13.3 13.3 0 007.3 2.2h1.3l-.3-1.2v-.7c-.6-3.6 0-6.6 1.4-8.6a6 6 0 013.9-2.2h.7c2.9 0 5.4 2.2 6.8 6l.6 1.6 1.1-1.2a15.7 15.7 0 003.1-5.3c2.1-5.6 1.2-12.5-1-18.8a41.1 41.1 0 00-5.5-10.7 1.5 1.5 0 01.4-2.1l.8-.2a1.6 1.6 0 011.3.6 49.3 49.3 0 015.9 12.2c2.2 6.5 2.9 13.5.9 19.5l-.3.9 1 .3a24.9 24.9 0 004.9 1.2l1.4.2-.2-1.4h-.1c-.5-3.6 0-6.6 1.5-8.6a5.7 5.7 0 013.9-2.2h.6c3.1 0 5.7 2.5 7 6.6l.5 1.6 1.2-1.2a16.6 16.6 0 003.6-6.2 25.1 25.1 0 00.6-10.5z" fill="#bcb876"/><g fill="#fff"><path d="M202.2 248.3h-1c-5.5-1-8.2-10.3-9.3-16l-2.3-.8h-.3l.3-.9h.3a136.1 136.1 0 0024.3 5.7h.7l-.3.6c-2.4 4.3-7.2 11.4-12.4 11.4zm-33.7-10.7a5.4 5.4 0 01-2.2-.4c-5.9-2.4-6-14.7-5.7-19.8v-.9l.7.5a145.3 145.3 0 0020.8 10.6l.6.2-.4.5c-3 3.5-8.8 9.3-13.8 9.3zm-29.6-18.8a6.3 6.3 0 01-4-1.2c-5.3-3.9-2-16.1-.3-21.2l.2-.8.6.6a141 141 0 0018.1 15.5l.5.4-.5.4c-3.3 2.4-9.6 6.3-14.6 6.3zm129.4-21.5a6 6 0 01-2.7-.6 6.7 6.7 0 01-3.4-3.7 14 14 0 01.6-10.6c2.3-4.9 5.9-7.8 9.7-7.8a7.8 7.8 0 013.3.7 7.6 7.6 0 014.3 4.6 11.8 11.8 0 01-1.1 9.8c-2.6 4.6-6.8 7.6-10.7 7.6zm-152.1-4.6c-3 0-5.2-.8-6.5-2.4s-1.7-3.5-1.4-6.2c.6-5.1 4-11.2 5.9-14.3l.4-.7.4.7a9.7 9.7 0 011 1.5h.1c.1.1.1.3.2.4l.2.2.3.6a146.5 146.5 0 0012 16.4l.5.5-.7.3c-3.3 1.3-8.2 2.9-12.4 2.9zm43.3-26.4a17.4 17.4 0 01-9.1-2.6c-5.5-3.5-10.2-9.4-7.4-14a5.7 5.7 0 013.8-2.6h1.5a17.4 17.4 0 019.6 3.6c5.3 3.8 9.5 9.9 7.6 13.4a5.1 5.1 0 01-3.2 2 12 12 0 01-2.8.2zm46.8-30.1c-3.7 0-7.7-6-9-13.4-.8-4.6-.3-8.5 1.3-10.7a4.9 4.9 0 013.3-1.9h.6c3.8 0 7.2 4.6 8.4 11.5.9 5.2.2 10.3-1.6 12.9a3.4 3.4 0 01-2.4 1.6z"/><path d="M202.6 110.6c3.5 0 6.6 4.4 7.8 11.1.8 5.1.3 10-1.5 12.5a3.8 3.8 0 01-2.1 1.5h-.5c-3.4 0-7.3-5.8-8.5-12.9-.8-4.5-.3-8.3 1.2-10.4a4 4 0 013-1.7h.6m-54.3 36.9a16.6 16.6 0 019.3 3.5c5 3.6 9.2 9.5 7.4 12.8a3.9 3.9 0 01-2.8 1.7 11.2 11.2 0 01-2.7.3 16.2 16.2 0 01-8.8-2.6c-5.4-3.3-9.9-8.9-7.2-13.2a5 5 0 013.4-2.4h1.4M114.6 170l1 1.5v.2c0 .1.1.2.2.4a5.6 5.6 0 01.5.8 153.5 153.5 0 0012 16.4c-3.6 1.5-8.3 2.9-12.2 2.9s-4.8-.6-6.1-2.2-1.5-3.5-1.3-5.8c.6-4.6 3.4-10.2 5.8-14.2m158 5.1a8.9 8.9 0 013 .6 7 7 0 014 4.4 11 11 0 01-1 9.3c-2.6 4.6-6.6 7.4-10.3 7.4a7 7 0 01-2.5-.5 5.7 5.7 0 01-3.1-3.5 13 13 0 01.6-10.2c1.8-3.9 5-7.5 9.3-7.5m-137.4 21.4a127.5 127.5 0 0018.1 15.6c-4.1 2.9-9.9 6.2-14.3 6.2a5.8 5.8 0 01-3.7-1.1c-4.6-3.4-2.3-14-.1-20.7m26 20.9a135.7 135.7 0 0020.8 10.6c-3.7 4.3-8.9 9.1-13.4 9.1a4.5 4.5 0 01-2-.4c-5.1-2-5.8-12.3-5.4-19.3M189.7 230.9a134.5 134.5 0 0024.5 5.8c-3 5.2-7.4 11.1-12 11.1h-.9c-4.9-.9-7.7-9.2-9-15.9l-2.6-.9m12.9-121.3h-.8a5.4 5.4 0 00-3.6 2.1c-1.7 2.4-2.2 6.4-1.4 11.1 1.3 7.7 5.5 13.8 9.5 13.8h.7a3.9 3.9 0 002.7-1.8c2-2.8 2.6-7.8 1.7-13.3-1.3-7.1-4.8-11.9-8.8-11.9zm-54.3 36.9h-1.6a6.3 6.3 0 00-4.1 2.8q-2.1 3.6.6 8.1a21.9 21.9 0 006.9 6.6 17.6 17.6 0 009.4 2.7 13.6 13.6 0 002.9-.3 5.4 5.4 0 003.5-2.2c2.1-3.8-2.3-10.1-7.7-14.1a17.7 17.7 0 00-9.9-3.7zm-33.7 21.7l-.8 1.3c-2 3.2-5.3 9.3-6 14.6-.3 2.8.2 4.9 1.5 6.5s3.7 2.6 6.9 2.6 9.2-1.6 12.6-3l1.3-.5-.9-1a141.2 141.2 0 01-11.9-16.3l-.4-.6v-.3l-.3-.4h-.1l-1-1.5-.8-1.3zm158 5.9c-4.1 0-7.9 3-10.2 8.1a14.4 14.4 0 00-.7 10.9 6.9 6.9 0 006.6 4.7c4.1 0 8.5-3.1 11.2-7.9a12.5 12.5 0 001.1-10.1 7.9 7.9 0 00-4.6-5 8.6 8.6 0 00-3.4-.7zm-138 20.6l-.5 1.5a53.1 53.1 0 00-2.5 11.8c-.3 4.9.7 8.3 3 10a6.7 6.7 0 004.3 1.3c5.1 0 11.5-4 14.8-6.4l1.2-.8-1.2-.8a131.8 131.8 0 01-17.9-15.5l-1.2-1.1zm25.5 21v1.7c-.4 6.5 0 17.8 6 20.3a6.7 6.7 0 002.4.4c5.2 0 11.1-5.9 14.1-9.4l.9-1.1-1.2-.5a143.6 143.6 0 01-20.7-10.5l-1.5-.9zm29.7 14.2l-.7 1.9h.3l2 .7c1.2 5.8 4 15.1 9.8 16.1h1c5.2 0 9.8-6.3 12.8-11.6l.7-1.3-1.4-.2A136.1 136.1 0 01190 230h-.2z"/></g><path d="M279.6 194.9c-3.2 3.7-7.3 5.9-11.3 5.9a11.5 11.5 0 01-4.1-.8 10.2 10.2 0 01-5.3-5.8 17.9 17.9 0 01.7-13.2c2.9-6.3 7.6-9.9 12.9-9.9h.7l3 .2-2.3-2c-1-.7-1.9-1.4-2.8-1.9a25.5 25.5 0 00-12.8-3.4c-11.1 0-22.4 6.6-29.5 17.3-5.3 8-7.4 17.8-5.7 26.3a24.4 24.4 0 003 7.8 22.3 22.3 0 006.8 7.2 26 26 0 0014.2 4.3c10.4 0 20.9-6.2 28.1-16.6a40.1 40.1 0 006.2-14.4l.7-3.8zm-167.5-29.8c-2.7-2.9-5.3-4.4-7.9-4.5h-.3c-2.9 0-5 2-6.3 3.6-4.6 6.1-1.3 20.2 4.5 30.4l.3.4 3-5.2c-1.4-3.8-.6-9 2.3-15.3a65.9 65.9 0 014.5-8.1l.4-.7z" fill="#e39697"/><path d="M232.8 87.3l-13.2 5-17.5-18.6 19.7-18.3 8.8-15.4 22-4.2 10.8 1.4c-24.1 2.2-35.6 15-40.2 24.5s-1.7 15.8 2.1 17.3 6.1-.5 7.1-4.6l2.4-.5zm-159 230.6c2 1.7 0 8.6-5.7 12.1-9.5 5.8-24.5.7-29.9-15.5l-2.2 4.2 8.7 17.6 17.6 11.3 11.9-2.8 9.4-13.3 1.5-11.8-7.9-3.3zM43.9 174.4c2.8-.7 7.7-6.4 10.4-14.7l-7 6.2-7.3.3zm8-53.9l-12.5-19.4-4.4 15.6s8.6 7.5 30.7 13.6zm26.4-70l-7.2 5.4s5.6 4.2 17.6 4.7l-5.8-4.9zM151 40.3c9.5 1.9 3.6 6-10.1 7.9l6.4 1.8 22.1 1.3 3.1-8.2-9-2.9zM97.5 159.7l-5 10.3 4.3 7.2c-.4-4.2 7.8-5.6 11.1-1.1l6.1-10.3-7.5-6.1zm-31.4 36.7c-2.2.4-6.3-1.6-11.8-8.1l1.2 6.5 9.4 9.2 19.5 7.9-8.9-11.6-8.1-14.8-1.5 1.3c3.2 7.5 2.5 9.2.2 9.6zm207 2.5l-9.7-.2-3.7-6.5s-10.1 14-20.6 16.6-15-1.4-15.5-10.1l-2.9-1.1.3 10 13.1 18.2 16.1 3.9 15.2-6.7 14.4-16.9 2.8-14.9zm-6.7-23.8l12.3-3.4-12-8.5-5 2c6.7.6 4.7 9.9 4.7 9.9z"/><path d="M206.3 140.7h1.3a8.7 8.7 0 005.4-3.5c2.6-3.6 3.4-9.7 2.3-16.3-1.7-9.9-7.3-16-14-15.1a8.6 8.6 0 00-6.3 3.8c-2.4 3.2-3.2 8.2-2.1 14.1 1.4 8.5 6.5 17 13.4 17zm-7.3-28.3a4 4 0 013-1.7h.6c3.5 0 6.6 4.4 7.8 11.1.8 5.1.3 10-1.5 12.5a3.8 3.8 0 01-2.1 1.5c-3.5.5-7.7-5.5-9-12.9-.8-4.6-.3-8.4 1.2-10.5zm-15.5-11c-.7 15.9 5.3 25 5.3 25.1a2.5 2.5 0 01-.6 3.5 2.7 2.7 0 01-1.4.4 2.5 2.5 0 01-2.1-1.1c-.3-.4-7-10.6-6.2-28.1a2.5 2.5 0 012.6-2.4 2.4 2.4 0 012.4 2.6zm-37.6 41.3a10.3 10.3 0 00-6.7 4.6c-3.9 6.3-.3 14.4 8.8 20.2a21.6 21.6 0 0011.5 3.3 16.7 16.7 0 003.9-.4 9.1 9.1 0 006-4.2c3-5.4-.6-13.3-8.9-19.2-4.9-3.6-10.3-5.2-14.6-4.3zm19.1 21.1a3.9 3.9 0 01-2.8 1.7 15.6 15.6 0 01-11.5-2.3c-5.4-3.3-9.9-8.9-7.2-13.2a5 5 0 013.4-2.4h1.4a16.6 16.6 0 019.3 3.5c5 3.5 9.2 9.4 7.4 12.7zM320.1 49.2c-19.3-20.1-59.2-19.8-84.9-12.7 1.5-7.2.1-12.6-1.8-16.3-4.3-8.4-14.1-14-26.8-15.4-16.2-1.8-43.5-3-45.2 10.3a8.1 8.1 0 001.8 5.9c3 3.7 9.9 6.2 20.8 7.7a42.9 42.9 0 00-12.3 11.6 101.7 101.7 0 00-12-3.5 125 125 0 00-5.2-27.1c-1.3-4.4-3.3-6.8-6.1-7.2s-5.9 1.5-8.7 5.8a168.7 168.7 0 00-13.9 25.8 116.5 116.5 0 00-14.6 1.9c-6.4-8.9-14.7-17.3-25.3-25.5-3.6-2.8-6.7-3.6-9.2-2.2s-3.9 3.4-3.6 9.8a169.3 169.3 0 004.3 30.7l-.3.2a93.9 93.9 0 00-11.9 8.4 64.3 64.3 0 00-18.9-3h-.7c-8.5.1-21.3 6.7-31 14.8-5.9 5-10.8 10.6-12.8 15.5S1.2 94 3.1 96c8 8.2 24.5-.3 31.8-4.8a76 76 0 001.9 7.6 108.3 108.3 0 00-4.1 15.1 98.4 98.4 0 00-1.7 18.9 127.3 127.3 0 00-25.7 13.8c-4.9 3.3-5.2 6.8-4.9 8.6.6 3.3 3.6 6 8.4 7.3 10.2 2.8 20 5.3 29 5.9a93.4 93.4 0 0011.1 21c-3.8 10.4-9.2 25.8-10.5 35.1-.9 5.7 1 8.2 2.7 9.3a6.8 6.8 0 003.2.8c1.7 0 4.1-.7 7.1-2.7a263 263 0 0025-19.7 54.8 54.8 0 0015.4 4.1l.3-.5c1.3-2.9 2.6-5.8 4-8.7-16.5-20.2-22.8-47.9-17.5-75.9a40.7 40.7 0 0021.2-8.9 2.5 2.5 0 00-3.3-3.7c-.2.1-12.7 11-29.7 6.8-24.1-5.9-27.5-38.3-27.5-38.6a2.3 2.3 0 00-1.4-2 2.5 2.5 0 00-2.5.2c-5.6 3.8-22.9 13.5-28.7 7.5-.5-.5-1.9-1.9-.3-5.8 2.3-5.6 8.9-12.2 16.4-17.5s16.8-9.7 22.9-9.8c11.4-.1 22.8 3.4 33.1 9.8a81 81 0 0126 27.5 2.6 2.6 0 003.4.8 2.5 2.5 0 00.9-3.4A80.2 80.2 0 00103 85a80.1 80.1 0 0126.1-15.8 87.2 87.2 0 0134.3-5.2l4.4.3a2.2 2.2 0 001.9-.6 2.5 2.5 0 00.9-1.9c-.2-14.7 7.1-25 22.6-32.5a2.5 2.5 0 00-.9-4.8c-18.4-1.4-23.7-4.8-25.2-6.7a2.5 2.5 0 01-.7-2.1c.6-4.8 11.3-9.2 39.7-5.9 11 1.2 19.3 5.8 22.8 12.7s2.4 13.8-2.2 22.1c-7.4 13.3-20.4 22.5-27.4 26.8a2.4 2.4 0 00-1.2 2.1 2.5 2.5 0 001.1 2.1 70 70 0 0131.7 58.1 2.8 2.8 0 002.1 2.5c18.4 3.3 32 13.2 39 27.1-15.3-8.1-35.1-1.5-46.6 15.8-5.8 8.8-8.1 19.7-6.2 29.3a26.5 26.5 0 0011.5 17.5 29.9 29.9 0 0013.7 4.9 57.3 57.3 0 01-19.2 2c-42.8-2.5-82.1-26.2-105.1-63.4v-.2h-.1v-.2l-.2-.4c-4.8-7.6-9.8-11.7-15.1-11.9-3.8-.2-7.4 1.6-10.1 5.2-6.9 9.1-.6 27 5 36.1a2.8 2.8 0 001 .9l2.5-4.7c-5.6-9.9-8.8-23.6-4.5-29.3 1.2-1.5 3.2-3.3 5.8-3.2s4.7 1.6 7.2 4.2a63.3 63.3 0 00-4.6 8.2c-3.2 7.1-3.9 12.8-2 16.9a7.9 7.9 0 001.4 2.3c2.4 2.9 5.9 4 9.6 4 5.2.1 11-1.7 14.9-3.4a64.8 64.8 0 00-2.4 8.7c-1.8 9.1-.5 15.4 3.9 18.7a10.8 10.8 0 006.4 2.2c6.3.1 13.2-4.1 17.5-7.2a70.8 70.8 0 000 8c.6 9.3 3.5 15.1 8.5 17.2a9.8 9.8 0 003.7.7c3.4.1 8-1.5 13.6-6.9a45.8 45.8 0 004.9-5.3h.1c.4 2.1.9 4.8 1.7 7.6 2.5 9 6.5 14.1 11.8 15l1.6.2c3.7 0 8.7-1.8 14.1-9.8a53.1 53.1 0 003.4-5.7l5.4.5h4c13.8 0 26.2-4.2 35.6-12a44.9 44.9 0 0013.9-13.3c6.6-9.4 9.1-21.1 6.8-31.3a27.9 27.9 0 00-5.3-11.4c-5.8-19.3-21.8-33.5-44-38.3a75.6 75.6 0 00-12.3-38.4 33.4 33.4 0 008.1-2.8c.8 5.7 2.7 11.4 6.2 15.6a17.4 17.4 0 0013.6 6.3c1.4 3.3 3.9 5.4 7 5.4h.3a6.7 6.7 0 004.5-2.2 11.1 11.1 0 002.6-6.9 19.1 19.1 0 004.7-4.2 18 18 0 009.2 2.7h1.6c1.6 2.9 4.1 4.7 6.8 4.7h1a7 7 0 004.3-2.6 11.5 11.5 0 001.8-7.2 20.3 20.3 0 004.7-5 32.9 32.9 0 008.5 1.7c1.6 3.2 4.2 5.1 7.1 5.1h.9a6.2 6.2 0 004.3-2.6 11.4 11.4 0 001.9-6.6 19 19 0 007.2-10.1c2.8-9.2.2-24.5-10-35.2zm-310 108.5c-3-.8-4.6-2.3-4.7-3.3s.8-2.4 2.7-3.6c11.9-8.1 23.1-13.5 34.2-16.4h.8A3.7 3.7 0 0146 136c4.2 4.7 5.8 16.9 3.1 23.6-1 2.4-2.3 3.8-4 3.9-10 .8-22.3-2.3-35-5.8zm38.5 70.1c-2.7 1.8-4.4 2-4.9 1.7s-.8-1.2-.4-4.3c1.2-8 5.6-21.2 9.3-31.2a65.7 65.7 0 0019 15.8 248.6 248.6 0 01-23 18zm17.1-97.5a43.9 43.9 0 007.8 1c-5.3 29.3 1.6 58.2 19 79.3-6.1-2.2-11.8-7.3-16.5-14.8-10.5-16.7-14.2-41.8-10.3-65.5zm-26.1-23.8c4.9 10.9 12.2 18.5 21.3 22.2-4.3 25.1-.3 51.9 10.8 69.7a49.5 49.5 0 007.6 9.5c-9.9-4-18.8-11.1-26-21a88.3 88.3 0 01-10.1-18.4h2.3c3.6-.3 6.6-2.8 8.2-7 3.4-8.5 1.5-22.8-3.9-28.9-2.5-2.7-5.6-3.8-8.8-3l-5 1.4a94.5 94.5 0 011.6-16.1c.6-2.9 1.3-5.7 2-8.4zm91.7-72.6a163.1 163.1 0 0112.6-22.8c1.9-3 3.3-3.6 3.7-3.6h.1c.3 0 1.2.7 2 3.6a128.2 128.2 0 014.9 24.7l-2.9-.5c-7.9-1.2-21.4-1.4-20.4-1.4zM79 12.7h.3c.5 0 1.6.4 3.5 1.8 11.4 8.8 20 17.8 26.3 27.4.3.5 1.1 1.7-.5 4.2-3.6 5.4-15.1 10.5-21.6 9.4-2.6-.4-3.2-1.7-3.5-2.6a171.6 171.6 0 01-5.4-35.1c-.2-3.7.6-5 .9-5.1zm86.6 46.4h-1.9a91.4 91.4 0 00-46.9 10.2 84.7 84.7 0 00-16.9 11.8l-5.4-5.8a87.3 87.3 0 017.3-6.1c1.9-1.4 3.9-2.7 6-4a90.1 90.1 0 0158.6-12.3 42 42 0 00-.8 6.2zm2.2-11c-27.8-3.7-54.2 4.4-73.9 21.1L90.8 72l-3.4-2.8a74.1 74.1 0 00-16.7-9.7 74.8 74.8 0 017.9-5.6c0 .1.1.2.1.3.9 3.4 3.5 5.6 7.5 6.2a10.1 10.1 0 002.5.2c8.4 0 20-5.5 24.1-11.9 1.8-2.8 2.2-5.6 1.2-8.2a115 115 0 0137-.2 90.3 90.3 0 0118.1 4.5 25.2 25.2 0 00-1.3 3.3zM110.1 190c-1.2-1.5-1.5-3.5-1.3-5.8.6-4.6 3.4-10.2 5.8-14.2l1 1.5v.2c0 .1.1.2.2.4a5.6 5.6 0 01.5.8 153.5 153.5 0 0012 16.4c-5.9 2.4-14.8 4.8-18.2.7zm25.1 27.2c-4.6-3.4-2.3-14-.1-20.7a127.5 127.5 0 0018.1 15.6c-5.4 3.8-13.7 8.4-18 5.1zm31.3 19.5c-5.1-2-5.8-12.3-5.4-19.3a135.7 135.7 0 0020.8 10.6c-4.2 4.9-10.7 10.7-15.4 8.7zm34.8 11c-4.9-.9-7.7-9.2-9-15.9l-2.8-1a134.8 134.8 0 0024.7 5.9c-3.2 5.5-8 11.9-12.9 11zm78.3-67.6a11 11 0 01-1 9.3c-3.2 5.7-8.7 8.6-12.8 6.9a5.7 5.7 0 01-3.1-3.5 13 13 0 01.6-10.2c1.8-3.9 5-7.5 9.3-7.5a8.9 8.9 0 013 .6 7 7 0 014 4.4zm-20.9.4a19.2 19.2 0 00-.7 14.1 11 11 0 005.8 6.3 12 12 0 004.5.9c4.3 0 8.7-2.3 12.1-6.2a37.8 37.8 0 01-6.1 14.2c-10.7 15.5-27.9 20.5-40.9 12a22.5 22.5 0 01-9.3-14.4c-1.7-8.3.4-17.8 5.5-25.5 7.1-10.8 18.2-16.9 28.7-16.9a24.3 24.3 0 0112.3 3.2 24.8 24.8 0 012.6 1.9c-5.8-.3-11.3 3.4-14.5 10.4zm.9-68.4a1.4 1.4 0 01-1 .6c-1.7 0-3.2-2.8-3.4-6.6s.3-4.5 1.2-5.4a1.7 1.7 0 011.2-.6c1.7 0 3.1 2.8 3.3 6.4s-.3 4.6-1.3 5.6zm30.1-6.2a1.4 1.4 0 01-1 .6c-1.7.3-3.5-2.4-4.1-6.1s-.1-4.5.7-5.6a1.4 1.4 0 011.2-.6h.2c1.6 0 3.2 2.5 3.7 6s.1 4.6-.7 5.7zm27.3-8.1a2.2 2.2 0 01-1 .7c-1.7.2-3.5-2.5-4-6.2s-.1-4.5.7-5.5a1.6 1.6 0 011.1-.7h.2c1.6 0 3.2 2.5 3.7 6s.1 4.6-.7 5.7zm8.3-15.2a14.4 14.4 0 01-3.3 5.8c-1.6-4.9-4.9-7.7-8.8-7.3a6.4 6.4 0 00-4.5 2.6c-1.7 2.2-2.3 5.5-1.7 9.3v.2a24 24 0 01-4.8-1.1c2.5-7.7 1.3-20.5-7-32.6a2.5 2.5 0 00-4.1 2.9c5.2 7.6 9.4 19.8 6.2 28.6a15.4 15.4 0 01-3 4.9c-1.6-4.5-4.7-7.1-8.5-6.7a6.8 6.8 0 00-4.6 2.6c-1.6 2.2-2.2 5.5-1.6 9.3 0 .3.1.6.1.9a12.3 12.3 0 01-6.8-2c4.3-11.4-3.1-27-8-35.5a2.5 2.5 0 10-4.3 2.5c7.8 13.6 10.5 25.3 7.3 32.2a12.8 12.8 0 01-2.6 3.5c-1.2-4.7-4-7.6-7.7-7.6h-.2a6.9 6.9 0 00-4.8 2.2c-1.8 1.9-2.7 5.2-2.5 9.1v.8a12.3 12.3 0 01-8.5-4.4c-6.1-7.2-6.5-21.7-4-28.5a2.6 2.6 0 00-1.6-3.2 2.5 2.5 0 00-3.2 1.6 35.1 35.1 0 00-1.6 12.1 30.4 30.4 0 01-3.6 1.9 20.5 20.5 0 01-7.4 1.8A74.1 74.1 0 00205 73.6c7.7-5.1 19.1-14.1 26-26.6a42.6 42.6 0 002.3-4.9c25.4-8 65.6-7.6 83.1 10.6 8.7 9 11.3 22.3 8.9 29.9zm-203.5 156a18.2 18.2 0 00-5.7-9.2c-9.1-7.9-26.2-8-37.5-4-31.9 11.1-50.4 38.3-48.5 71.2 1.2 21 9.4 39.6 21.4 48.4a22.1 22.1 0 0013.2 4.8 20.2 20.2 0 004.3-.5c11.7-3 16.7-14.3 18.9-26.3a36.6 36.6 0 006.5.6 25.5 25.5 0 008.4-1.3 17.6 17.6 0 0010.7-10.5c3.7-.3 6.6-2 7.6-5a6.7 6.7 0 00-.5-5 11.5 11.5 0 00-5.5-4.8 19.9 19.9 0 00-2.4-6h.1a18.2 18.2 0 006.2-9.4c3.7-.6 6.3-2.6 7-5.7a6.5 6.5 0 00-.9-4.9 11.6 11.6 0 00-6.2-4.3 21 21 0 00-2.4-5 39.3 39.3 0 004.1-8.5c3.9-.5 6.7-2.5 7.4-5.7a6.8 6.8 0 00-.9-5 11.7 11.7 0 00-5.3-3.9zm-5.6 65.5a1.7 1.7 0 01.1 1.2c-.5 1.6-3.7 2-7.3.9s-4.1-1.9-4.7-3.1a2 2 0 01-.1-1.3c.4-1 1.7-1.5 3.4-1.5a12.9 12.9 0 013.7.6c2.4.8 4.2 2 4.9 3.2zm-6.7-16.8c-9.2-8-26.4-6.5-36-4.9a2.5 2.5 0 00-2.1 2.9 2.4 2.4 0 002.9 2c15.4-2.6 27.3-1 32.7 4.4a11 11 0 012.3 3.7c-4.7-.6-8.5 1.1-9.8 4.7a6.7 6.7 0 00.3 5.2c1.3 2.5 4 4.5 7.7 5.6l.8.3a12.9 12.9 0 01-7.2 6.4c-8.8 3.2-22.5-1.5-28-6.2a2.5 2.5 0 10-3.2 3.9 39 39 0 0013.1 6.5c-1.9 10.6-6 20.3-15.2 22.6-4.2 1.1-8.8-.1-13.3-3.4-10.7-7.9-18.3-25.4-19.4-44.7-1.8-30.5 15.5-55.9 45.1-66.2a44.2 44.2 0 0114.3-2.3c7 0 14 1.6 18.3 5.4a11.8 11.8 0 013.2 4.2c-5.2-.4-9.1 1.7-10.1 5.6a7.3 7.3 0 00.8 5.2c1.5 2.3 4.4 4 8.2 4.8h.4a38.8 38.8 0 01-2.2 4.6l-.9-.9c-9.1-7.7-24.7-9.2-34.8-6.7a2.5 2.5 0 00-1.8 3 2.4 2.4 0 003 1.8c9-2.2 22.8-.7 30.3 5.7a16.1 16.1 0 014.2 5.2c-4.8-.1-8.3 2-9.2 5.6a7.3 7.3 0 00.8 5.2c1.5 2.3 4.4 4 8.2 4.8l.8.2a12.7 12.7 0 01-4.2 5.8zm11.4-13.5a1.2 1.2 0 01.2 1.1c-.3 1.7-3.5 2.4-7.2 1.6s-4.2-1.4-4.9-2.5a1.4 1.4 0 01-.2-1.4c.3-1.1 1.9-1.8 4.2-1.8a13.1 13.1 0 012.7.3c2.5.5 4.4 1.5 5.2 2.7zm2.2-27.3c-.3 1.7-3.5 2.4-7.2 1.6s-4.2-1.5-4.9-2.6a1.2 1.2 0 01-.2-1.3c.3-1.2 1.9-1.9 4.2-1.9l2.7.3c2.5.6 4.4 1.6 5.2 2.7a1.5 1.5 0 01.2 1.2zm27.5-118.6a2.6 2.6 0 01-1.3-3.3 2.5 2.5 0 013.3-1.3c13.8 6.1 22.4 21.2 22.7 21.8a2.4 2.4 0 01-.9 3.4 1.8 1.8 0 01-1.2.3 2.4 2.4 0 01-2.2-1.2c-.1-.2-8.2-14.3-20.4-19.7z"/><path d="M5.4 154.4c.5 1 7 1.1 26-1.3s18.7-3.7 18.7-6.3c2.8-.4 2.8 0 2.8 0l-3.5 17.6-22.9.6L4 158.2zM43.2 226.9c-.2 2.4 3.6-1.9 12.3-10.2s10.1-10.4 7.8-12.3 12.2 5.4 12.2 5.4l-21.2 17.8-11 4.9-3.3-5.7zM146.6 7.9c1.9-1.1 1.8 1.6 1.4 15.3-.1 7.4-.8 11.5-3.6 11.3s1.2 3.1 1.2 3.1l11.1 1.6-2.5-27.2-6.5-7.2zM77.1 159.1c-2.4-21.5 9.5-25.8 22.7-36.8l-13.4 3.9-11.1 3.5-1.9 23.9zM150 64.4c7-.8 11.9.4 15.2 2.2s4.2 2.5 5.3 1.3 0-3.3.1-8.7l-4.8 2.2h-16.7zM80.3 12.9c-1.3-.2-.8 4.6 7.5 21.2s9.4 19.7 11.7 18.8l2.3 1.8-19 3-7.5-39 4-9.6z"/></svg>
