<svg viewBox="0 0 735 167" fill="none" xmlns="http://www.w3.org/2000/svg">
    <g clip-path="url(#clip0_120_6158)">
        <path
            d="M0 6.67626C0 2.98907 2.98906 0 6.67626 0H727.712C731.399 0 734.388 2.98906 734.388 6.67626V166.906H0V6.67626Z"
            fill="url(#paint0_linear_120_6158)"
        />
        <path
            d="M655.155 59.2011C655.155 48.7198 646.726 40.2373 636.31 40.2373H616.666C606.25 40.2373 597.821 48.7198 597.821 59.2011C597.821 61.2973 596.125 63.0036 594.042 63.0036H588.156C579.218 62.9792 572 70.2673 572 79.2373H597.845H655.179H681C681 72.0467 675.211 66.2454 668.09 66.2454H662.179C658.304 66.2454 655.155 63.0767 655.155 59.2011Z"
            fill="white"
            fill-opacity="0.1"
        />
        <path
            d="M518 129.237H464C464 123.693 468.453 119.189 473.935 119.189H479.665C480.615 119.189 481.386 118.408 481.386 117.447C481.386 110.702 486.789 105.237 493.459 105.237H493.934C500.604 105.237 506.007 110.702 506.007 117.447V121.111C506.007 123.032 507.55 124.613 509.47 124.613H513.408C515.942 124.593 518 126.675 518 129.237Z"
            fill="white"
            fill-opacity="0.15"
        />
        <path
            d="M149 100.237H237C237 92.3824 230.595 86.0021 222.711 86.0021C214.826 86.0021 208.867 86.0021 208.867 86.0021C207.501 86.0021 206.39 84.8962 206.39 83.5351C206.39 73.9788 198.62 66.2373 189.027 66.2373H188.344C178.751 66.2373 170.981 73.9788 170.981 83.5351V88.7244C170.981 91.4466 168.76 93.6868 165.999 93.6868C163.238 93.6868 155.604 93.6868 155.604 93.6868C151.96 93.6585 149 96.6076 149 100.237Z"
            fill="white"
            fill-opacity="0.15"
        />
        <path
            d="M277 110.237H249C249 107.696 251.111 105.632 253.71 105.632H258.826C259.277 105.632 259.642 105.274 259.642 104.834C259.642 101.742 262.204 99.2373 265.366 99.2373H265.591C268.753 99.2373 271.314 101.742 271.314 104.834V106.513C271.314 107.393 272.046 108.118 272.956 108.118H274.823C276.024 108.109 277 109.063 277 110.237Z"
            fill="white"
            fill-opacity="0.05"
        />
        <path
            d="M785.223 167.324H630C630 153.442 641.297 142.167 655.205 142.167H687.969C690.379 142.167 692.337 140.212 692.337 137.807C692.337 120.918 706.044 107.237 722.965 107.237H724.17C741.09 107.237 754.797 120.918 754.797 137.807V146.977C754.797 151.788 758.713 155.747 763.583 155.747H773.575C780.001 155.697 785.223 160.909 785.223 167.324Z"
            fill="white"
            fill-opacity="0.05"
        />
        <path
            d="M-36 144.237H67C67 135.689 58.5063 128.746 48.0497 128.746H37.1211C35.3091 128.746 33.8369 127.543 33.8369 126.061C33.8369 115.662 23.5312 107.237 10.8096 107.237H9.9036C-2.81804 107.237 -13.1237 115.662 -13.1237 126.061V131.709C-13.1237 134.671 -16.0682 137.109 -19.7299 137.109H-27.2421C-32.074 137.078 -36 140.287 -36 144.237Z"
            fill="white"
            fill-opacity="0.05"
        />
    </g>
    <defs>
        <linearGradient id="paint0_linear_120_6158" x1="734" y1="0.237402" x2="-7.69451" y2="118.753" gradientUnits="userSpaceOnUse">
            <stop offset="0.15815" stop-color="#007CC2"/>
            <stop offset="0.584248" stop-color="#1776CF"/>
            <stop offset="1" stop-color="#5865F2"/>
        </linearGradient>
        <clipPath id="clip0_120_6158">
            <rect width="734.388" height="166.906" fill="white"/>
        </clipPath>
    </defs>
</svg>
