<svg width="60" height="44" viewBox="0 0 60 44" fill="none" xmlns="http://www.w3.org/2000/svg">
  <path fill-rule="evenodd" clip-rule="evenodd" d="M33 6C29.2986 6 26.0669 8.01099 24.3378 11H23.5C18.2533 11 14 15.2533 14 20.5C14 24.1547 16.0637 27.3273 19.0893 28.9162C19.0305 29.2694 19 29.6314 19 30C19 33.866 22.3579 37 26.5 37C29.9951 37 32.9317 34.7687 33.764 31.7491C34.4829 31.9133 35.2313 32 36 32C41.5228 32 46 27.5228 46 22C46 19.1662 44.8212 16.6077 42.9273 14.788C42.3291 9.83674 38.1126 6 33 6Z" fill="white"/>
</svg>
