<svg width="178" height="133" viewBox="0 0 178 133" fill="none" xmlns="http://www.w3.org/2000/svg">
<g clip-path="url(#clip0_2684_142297)">
<path d="M124.43 118.3C124.43 108.33 132.54 100.22 142.51 100.22C145.94 100.22 149.13 101.2 151.86 102.86C153.87 97.63 154.99 91.95 154.99 86C154.99 60.04 133.95 39 107.99 39C82.0302 39 60.9902 60.04 60.9902 86C60.9902 102.99 70.0102 117.88 83.5102 126.13C90.6402 130.49 99.0202 133 107.99 133C115.03 133 121.71 131.44 127.71 128.66C125.65 125.72 124.43 122.15 124.43 118.3Z" fill="#FFE55C"/>
<path d="M139.469 60.5302C137.259 60.5302 135.469 58.7402 135.469 56.5302C135.469 51.7502 135.279 49.8202 134.659 46.0802C134.019 42.2202 130.989 39.2202 126.929 38.4502C122.849 37.6702 111.939 37.2502 103.749 37.2502C95.5593 37.2502 84.6493 37.6702 80.5693 38.4502C76.5093 39.2302 73.4693 42.2202 72.8393 46.0802C72.2293 49.8202 72.0293 51.7502 72.0293 56.5302C72.0293 58.7402 70.2393 60.5302 68.0293 60.5302C65.8193 60.5302 64.0293 58.7402 64.0293 56.5302C64.0293 51.2702 64.2693 48.8802 64.9393 44.7802C66.1193 37.5702 71.6693 32.0002 79.0593 30.5902C84.6193 29.5202 97.6393 29.2402 103.739 29.2402C109.839 29.2402 122.859 29.5202 128.419 30.5902C135.809 32.0102 141.349 37.5802 142.539 44.7802C143.209 48.8702 143.449 51.2602 143.449 56.5302C143.449 58.7402 141.659 60.5302 139.449 60.5302H139.469Z" fill="black"/>
<path d="M124.43 118.3C124.43 110.39 129.55 103.66 136.64 101.21C130.97 87.8204 125.42 77.0804 125.42 77.0804L85.6396 75.1204C85.6396 75.1204 66.9496 66.1504 54.8696 60.8404C48.5196 58.0504 45.7296 57.8604 44.1696 60.3004C43.5996 61.1904 43.7096 62.5404 43.8996 63.7404C44.0796 64.9204 43.7196 65.1904 42.7196 65.5504C41.5096 65.9904 35.3796 67.8204 36.0996 72.9804C36.4296 75.3204 38.6396 77.5404 41.8996 78.3304C47.1596 79.6004 51.0596 79.0604 53.2296 80.1404C55.4996 81.2804 70.5196 89.5504 81.5296 97.6404C81.5296 97.6404 81.8196 114.61 85.3596 127.19C92.0696 130.89 99.7796 132.99 107.99 132.99C115.03 132.99 121.71 131.43 127.71 128.66C125.65 125.72 124.42 122.15 124.42 118.3H124.43Z" fill="url(#paint0_linear_2684_142297)"/>
<path d="M177.38 106.44C176.3 101.59 168.13 100.88 166.5 99.67C162.24 96.52 151.63 89.52 143.17 84.08C137.95 80.73 131.61 76 123.99 76L129.69 99.37C129.69 99.37 131.62 100.44 134.57 102.08C136.97 100.9 139.66 100.22 142.51 100.22C151.71 100.22 159.3 107.12 160.43 116.02C162.33 116.99 163.83 117.71 164.68 118.05C167.4 119.14 169.64 119.08 170.12 117.45C170.52 116.12 170.12 114.25 170.12 114.25C175.56 113.16 178.1 109.72 177.37 106.45L177.38 106.44Z" fill="#698FFF"/>
<path d="M83.7707 76.46L126.001 76.84C119.121 83.22 102.041 97.76 91.8307 96C81.3507 94.19 83.7607 76.46 83.7607 76.46H83.7707Z" fill="#3C58DA"/>
<path d="M63.0849 66.013C66.8123 65.9519 69.754 61.0273 69.6554 55.0137C69.5567 49.0002 66.455 44.1748 62.7276 44.2359C59.0002 44.2971 56.0585 49.2216 56.1572 55.2352C56.2558 61.2488 59.3575 66.0742 63.0849 66.013Z" fill="#43D88C"/>
<path d="M67.6654 68.5183C72.2598 68.4429 75.8858 62.3742 75.7642 54.9636C75.6426 47.5529 71.8195 41.6065 67.2251 41.6819C62.6307 41.7572 59.0048 47.8259 59.1264 55.2366C59.248 62.6472 63.0711 68.5936 67.6654 68.5183Z" fill="black"/>
<path d="M139.471 56.5302C139.471 51.5602 139.271 49.4302 138.611 45.4302C137.691 39.8602 133.401 35.6102 127.681 34.5202C123.051 33.6302 111.681 33.2402 103.751 33.2402C95.8213 33.2402 84.4412 33.6302 79.8213 34.5202C74.1113 35.6102 69.8113 39.8702 68.8913 45.4302C68.2313 49.4302 68.0312 51.5502 68.0312 56.5302C68.0312 61.5002 68.2313 63.6302 68.8913 67.6302C69.8113 73.2002 74.1013 77.4502 79.8213 78.5402C84.4513 79.4302 95.8213 79.8202 103.751 79.8202C111.681 79.8202 123.061 79.4302 127.681 78.5402C133.391 77.4502 137.691 73.1902 138.611 67.6302C139.271 63.6302 139.471 61.5102 139.471 56.5302Z" fill="#698FFF"/>
<path d="M123.761 55.3307C125.551 55.3307 127.001 53.5712 127.001 51.4007C127.001 49.2302 125.551 47.4707 123.761 47.4707C121.972 47.4707 120.521 49.2302 120.521 51.4007C120.521 53.5712 121.972 55.3307 123.761 55.3307Z" fill="black"/>
<path d="M75.4509 55.3307C77.2403 55.3307 78.6909 53.5712 78.6909 51.4007C78.6909 49.2302 77.2403 47.4707 75.4509 47.4707C73.6615 47.4707 72.2109 49.2302 72.2109 51.4007C72.2109 53.5712 73.6615 55.3307 75.4509 55.3307Z" fill="black"/>
<path d="M110.45 74.2103C108.66 74.7203 106.83 74.3403 105.5 73.6003C104.19 72.8703 103.35 71.7903 103.49 70.8403C103.71 69.2503 111.64 66.5103 113.39 67.0703C114.06 67.2903 114.43 67.9703 114.49 68.8403C114.62 70.6903 113.36 73.3703 110.45 74.2003V74.2103Z" fill="black"/>
<path d="M110.45 74.2098C108.66 74.7198 106.83 74.3398 105.5 73.5998C106.6 72.2998 108.29 71.0398 110.36 70.0998C111.78 69.4498 113.19 69.0398 114.49 68.8398C114.62 70.6898 113.36 73.3698 110.45 74.1998V74.2098Z" fill="#FF78B8"/>
<path d="M87.3 43H110.69C114.17 43 116.99 45.82 116.99 49.3V56.66C116.99 61.16 113.34 64.81 108.84 64.81H91.17C85.55 64.81 81 60.25 81 54.64V49.3C81 45.82 83.82 43 87.3 43Z" fill="#B8CDFF"/>
<path d="M90.8702 61.7C93.0572 61.7 94.8302 60.8717 94.8302 59.85C94.8302 58.8283 93.0572 58 90.8702 58C88.6831 58 86.9102 58.8283 86.9102 59.85C86.9102 60.8717 88.6831 61.7 90.8702 61.7Z" fill="#698FFF"/>
<path d="M102.71 61.7C104.897 61.7 106.67 60.8717 106.67 59.85C106.67 58.8283 104.897 58 102.71 58C100.523 58 98.75 58.8283 98.75 59.85C98.75 60.8717 100.523 61.7 102.71 61.7Z" fill="#698FFF"/>
<path d="M24.4998 64.48C37.611 64.48 48.2398 53.8512 48.2398 40.74C48.2398 27.6288 37.611 17 24.4998 17C11.3885 17 0.759766 27.6288 0.759766 40.74C0.759766 53.8512 11.3885 64.48 24.4998 64.48Z" fill="#107C10"/>
<path d="M24.5 37.9497C24.5 37.9497 24.53 37.9597 24.55 37.9697C28.75 41.1697 35.95 49.0697 33.76 51.3097C31.2 53.5497 27.91 54.7897 24.51 54.7897C21.11 54.7897 17.82 53.5597 15.26 51.3097C13.06 49.0797 20.26 41.1697 24.46 37.9697C24.47 37.9597 24.49 37.9497 24.51 37.9497H24.5ZM31.82 28.7397C29.67 27.4597 27.34 26.6797 24.5 26.6797C21.66 26.6797 19.33 27.4597 17.18 28.7397C17.17 28.7397 17.16 28.7597 17.15 28.7697C17.15 28.7797 17.15 28.7997 17.15 28.8097C17.15 28.8197 17.17 28.8297 17.18 28.8297C17.19 28.8297 17.21 28.8297 17.22 28.8297C19.94 28.2397 24.07 30.5897 24.47 30.8297C24.47 30.8297 24.49 30.8397 24.5 30.8397C24.51 30.8397 24.52 30.8397 24.53 30.8297C24.92 30.5997 29.06 28.2397 31.78 28.8297C31.79 28.8297 31.81 28.8297 31.82 28.8297C31.83 28.8297 31.84 28.8197 31.85 28.8097C31.85 28.7997 31.85 28.7797 31.85 28.7697C31.85 28.7597 31.84 28.7497 31.82 28.7397ZM14.66 30.7197C14.66 30.7197 14.62 30.7497 14.6 30.7697C12.18 33.1697 10.72 36.3697 10.48 39.7697C10.24 43.1697 11.25 46.5397 13.32 49.2497C13.32 49.2597 13.34 49.2697 13.35 49.2797C13.36 49.2797 13.38 49.2797 13.39 49.2797C13.4 49.2797 13.41 49.2597 13.41 49.2497C13.41 49.2397 13.41 49.2197 13.41 49.2097C12.34 45.8997 17.82 37.8697 20.64 34.4997C20.65 34.4897 20.66 34.4697 20.66 34.4597C20.66 34.4597 20.66 34.4397 20.66 34.4297C20.66 34.4297 20.65 34.4097 20.64 34.4097C16.35 30.1497 14.89 30.5997 14.66 30.7197ZM28.36 34.4097C28.36 34.4097 28.35 34.4197 28.34 34.4297C28.34 34.4297 28.34 34.4497 28.34 34.4597C28.34 34.4797 28.34 34.4897 28.36 34.4997C31.19 37.8697 36.67 45.8997 35.59 49.2097C35.59 49.2197 35.59 49.2397 35.59 49.2497C35.59 49.2597 35.6 49.2797 35.61 49.2797C35.62 49.2797 35.64 49.2797 35.65 49.2797C35.66 49.2797 35.68 49.2697 35.68 49.2497C37.75 46.5397 38.75 43.1697 38.52 39.7697C38.28 36.3697 36.82 33.1697 34.4 30.7697C34.38 30.7497 34.36 30.7297 34.34 30.7197C34.1 30.5997 32.65 30.1497 28.36 34.4097Z" fill="white"/>
<path d="M137.791 68.5108C133.081 68.3908 129.421 62.1408 129.611 54.5408C129.801 46.9408 133.771 40.8808 138.481 41.0008L142.731 41.1108L142.041 68.6208L137.791 68.5108Z" fill="black"/>
<path d="M150.9 55.0675C151.09 47.4704 147.426 41.2165 142.716 41.0989C138.007 40.9813 134.035 47.0447 133.845 54.6418C133.656 62.2388 137.32 68.4928 142.029 68.6103C146.739 68.7279 150.71 62.6646 150.9 55.0675Z" fill="black"/>
<path d="M151.724 55.0952C151.893 48.3594 148.645 42.8145 144.471 42.7103C140.297 42.6061 136.777 47.9821 136.609 54.7179C136.441 61.4536 139.688 66.9985 143.862 67.1027C148.036 67.2069 151.556 61.831 151.724 55.0952Z" fill="#43D88C"/>
<path d="M145.541 62.8305C144.521 62.7105 143.601 61.8705 142.941 60.4405C142.271 58.9805 141.931 57.0705 142.001 55.0405C142.141 50.7005 144.011 47.3305 146.271 47.3705C148.521 47.4105 150.181 50.8405 150.041 55.1805C149.901 59.5205 148.031 62.8805 145.771 62.8505C145.691 62.8505 145.621 62.8505 145.541 62.8305ZM146.401 48.1605C146.351 48.1605 146.301 48.1505 146.241 48.1505C144.451 48.1205 142.831 51.2805 142.711 55.0605C142.651 56.9605 142.961 58.7505 143.581 60.0905C144.171 61.3605 144.951 62.0605 145.791 62.0805C147.581 62.1105 149.201 58.9505 149.321 55.1705C149.441 51.5005 148.111 48.3705 146.401 48.1605Z" fill="#107C10"/>
<path d="M145.811 63.3302H145.761C145.671 63.3302 145.571 63.3302 145.481 63.3102C144.291 63.1602 143.231 62.2202 142.501 60.6402C141.801 59.1202 141.451 57.1202 141.511 55.0202C141.661 50.3402 143.731 46.8402 146.271 46.8902C147.061 46.9102 147.821 47.2702 148.471 47.9502C149.851 49.4002 150.621 52.1102 150.521 55.1902C150.371 59.8402 148.351 63.3202 145.811 63.3202V63.3302ZM146.221 48.6302C144.891 48.6302 143.321 51.3702 143.201 55.0702C143.141 56.9002 143.431 58.6102 144.031 59.8902C144.531 60.9602 145.181 61.5902 145.811 61.6002H145.831C147.161 61.6002 148.731 58.8602 148.851 55.1602C148.971 51.5102 147.621 48.8002 146.351 48.6402C146.351 48.6402 146.271 48.6402 146.231 48.6402L146.221 48.6302Z" fill="#107C10"/>
<path d="M118.76 85.001H101.5C100.67 85.001 100 84.331 100 83.501C100 82.671 100.67 82.001 101.5 82.001H118.76C125.09 82.001 130.97 78.331 133.75 72.641L136.76 66.471C137.12 65.731 138.02 65.421 138.77 65.781C139.51 66.141 139.82 67.041 139.46 67.791L136.45 73.961C133.17 80.671 126.23 85.001 118.76 85.001Z" fill="black"/>
<path d="M105.86 77H99C96.7909 77 95 78.7909 95 81C95 83.2091 96.7909 85 99 85H105.86C108.069 85 109.86 83.2091 109.86 81C109.86 78.7909 108.069 77 105.86 77Z" fill="black"/>
<path d="M114.911 25.0101C114.911 25.0101 116.001 24.5501 117.561 23.6801C118.661 23.0701 120.031 22.2101 121.281 21.3201C125.791 18.0701 126.761 11.7201 120.041 10.2101C120.041 10.2101 113.591 6.32015 106.251 15.4701C104.171 18.0601 102.721 17.7501 101.051 17.7901L110.231 24.8901L114.911 25.0101Z" fill="#57F287"/>
<path d="M107.29 24.0905C106.54 24.0905 105.9 23.5305 105.8 22.7805C105.7 21.9605 106.27 21.2205 107.09 21.1105C107.26 21.0805 115.85 19.5105 121.37 1.68047C121.62 0.89047 122.46 0.450471 123.25 0.690471C124.04 0.930471 124.48 1.77047 124.24 2.57047C118.07 22.5505 107.92 24.0405 107.49 24.0905C107.43 24.0905 107.36 24.1005 107.3 24.1005L107.29 24.0905Z" fill="#038E3C"/>
<path d="M117.56 23.6802C117.87 23.5002 113.01 26.3102 105.58 18.9202C104.56 17.9002 102.92 16.2302 102.35 15.6702C99.4098 12.7902 92.5898 6.62016 85.9598 10.5202C85.9598 10.5202 80.2198 14.3902 85.0698 20.4602C86.2898 21.9902 87.8598 23.2002 89.6098 24.0602C94.2098 26.3202 105.57 30.4502 117.56 23.6802Z" fill="#29CC7A"/>
<path d="M86.5807 10.1904C86.3707 10.2904 86.1607 10.4104 85.9507 10.5304C85.9507 10.5304 85.0207 11.1604 84.2207 12.3104C85.0307 14.1704 86.3207 16.5704 88.3407 18.9704C90.8507 21.9504 94.8507 25.3004 100.921 27.2804C104.361 27.5904 108.261 27.3504 112.331 26.0004C94.3407 25.9304 88.3107 14.8504 86.5707 10.1904H86.5807Z" fill="#038E3C"/>
<path d="M142.521 131.6C149.866 131.6 155.821 125.645 155.821 118.3C155.821 110.955 149.866 105 142.521 105C135.175 105 129.221 110.955 129.221 118.3C129.221 125.645 135.175 131.6 142.521 131.6Z" fill="#57F085"/>
<path d="M126.8 100.831L132.04 103.591C133 102.901 134.03 102.311 135.12 101.821L128.2 98.1807C127.47 97.7907 126.56 98.0807 126.17 98.8107C125.78 99.5407 126.07 100.451 126.8 100.841V100.831Z" fill="#3C58DA"/>
<path d="M64.5396 22.97C63.5396 22.33 62.6796 21.48 62.0396 20.48C61.3996 19.48 60.9696 18.35 60.8096 17.17L60.1896 13.12C60.1796 13.02 60.1296 12.93 60.0596 12.86C59.9896 12.79 59.8896 12.75 59.7996 12.75C59.6996 12.75 59.6096 12.8 59.5396 12.86C59.4696 12.93 59.4196 13.02 59.4096 13.12L58.7896 17.17C58.6096 18.35 58.1896 19.47 57.5496 20.47C56.9096 21.47 56.0596 22.32 55.0596 22.97L54.5196 23.31C54.4696 23.35 54.4196 23.4 54.3896 23.46C54.3596 23.52 54.3496 23.59 54.3496 23.65C54.3496 23.72 54.3596 23.78 54.3896 23.84C54.4196 23.9 54.4596 23.95 54.5196 23.99L55.0596 24.33C56.0596 24.98 56.9096 25.83 57.5496 26.83C58.1896 27.83 58.6196 28.96 58.7896 30.13L59.4096 34.18C59.4196 34.28 59.4696 34.36 59.5396 34.42C59.6096 34.48 59.7096 34.52 59.7996 34.52C59.8996 34.52 59.9896 34.49 60.0596 34.42C60.1296 34.36 60.1796 34.27 60.1896 34.18L60.8096 30.13C60.9796 28.95 61.3996 27.82 62.0396 26.82C62.6896 25.82 63.5396 24.97 64.5396 24.33L65.0796 23.99C65.1296 23.95 65.1796 23.9 65.2096 23.84C65.2396 23.78 65.2496 23.71 65.2496 23.65C65.2496 23.58 65.2396 23.52 65.2096 23.46C65.1796 23.4 65.1396 23.35 65.0796 23.31L64.5396 22.97Z" fill="#FF78B7"/>
<path d="M12.0396 79.47C11.0396 78.83 10.1796 77.98 9.53961 76.98C8.89961 75.98 8.46961 74.85 8.30961 73.67L7.68961 69.62C7.67961 69.52 7.62961 69.43 7.55961 69.36C7.48961 69.29 7.38961 69.25 7.29961 69.25C7.19961 69.25 7.10961 69.3 7.03961 69.36C6.96961 69.43 6.91961 69.52 6.90961 69.62L6.28961 73.67C6.10961 74.85 5.68961 75.97 5.04961 76.97C4.40961 77.97 3.55961 78.82 2.55961 79.47L2.01961 79.81C1.96961 79.85 1.91961 79.9 1.88961 79.96C1.85961 80.02 1.84961 80.09 1.84961 80.15C1.84961 80.22 1.85961 80.28 1.88961 80.34C1.91961 80.4 1.95961 80.45 2.01961 80.49L2.55961 80.83C3.55961 81.48 4.40961 82.33 5.04961 83.33C5.68961 84.33 6.11961 85.46 6.28961 86.63L6.90961 90.68C6.91961 90.78 6.96961 90.86 7.03961 90.92C7.10961 90.98 7.20961 91.02 7.29961 91.02C7.39961 91.02 7.48961 90.99 7.55961 90.92C7.62961 90.86 7.67961 90.77 7.68961 90.68L8.30961 86.63C8.47961 85.45 8.89961 84.32 9.53961 83.32C10.1896 82.32 11.0396 81.47 12.0396 80.83L12.5796 80.49C12.6296 80.45 12.6796 80.4 12.7096 80.34C12.7396 80.28 12.7496 80.21 12.7496 80.15C12.7496 80.08 12.7396 80.02 12.7096 79.96C12.6796 79.9 12.6396 79.85 12.5796 79.81L12.0396 79.47Z" fill="#FFE55C"/>
<path d="M51.1291 9.81024C50.4591 9.38024 49.8891 8.82023 49.4591 8.15023C49.0291 7.48023 48.7491 6.73023 48.6391 5.94023L48.2191 3.24023C48.2191 3.17023 48.1791 3.11023 48.1291 3.07023C48.0791 3.03023 48.0191 3.00023 47.9491 2.99023C47.8791 2.99023 47.8191 3.02023 47.7691 3.07023C47.7191 3.11023 47.6891 3.17023 47.6791 3.24023L47.2591 5.94023C47.1391 6.72023 46.8591 7.48024 46.4291 8.14023C45.9991 8.81024 45.4291 9.37023 44.7691 9.81024L44.4091 10.0402C44.4091 10.0402 44.3391 10.1002 44.3191 10.1402C44.2991 10.1802 44.2891 10.2202 44.2891 10.2702C44.2891 10.3102 44.2891 10.3602 44.3191 10.4002C44.3391 10.4402 44.3691 10.4702 44.4091 10.5002L44.7691 10.7302C45.4391 11.1602 45.9991 11.7302 46.4291 12.4002C46.8591 13.0702 47.1391 13.8202 47.2591 14.6002L47.6791 17.3002C47.6791 17.3602 47.7191 17.4202 47.7691 17.4602C47.8191 17.5002 47.8791 17.5202 47.9391 17.5202C47.9991 17.5202 48.0691 17.5002 48.1091 17.4602C48.1591 17.4202 48.1891 17.3602 48.1991 17.3002L48.6191 14.6002C48.7291 13.8102 49.0091 13.0602 49.4391 12.3902C49.8691 11.7202 50.4391 11.1602 51.1091 10.7302L51.4691 10.5002C51.4691 10.5002 51.5391 10.4402 51.5591 10.4002C51.5791 10.3602 51.5891 10.3202 51.5891 10.2702C51.5891 10.2302 51.5891 10.1802 51.5591 10.1402C51.5391 10.1002 51.5091 10.0702 51.4691 10.0402L51.1091 9.81024H51.1291Z" fill="#5765F1"/>
</g>
<defs>
<linearGradient id="paint0_linear_2684_142297" x1="68.8496" y1="51.0304" x2="122.18" y2="159.48" gradientUnits="userSpaceOnUse">
<stop offset="0.06" stop-color="#4E75E4"/>
<stop offset="0.47" stop-color="#698FFF"/>
<stop offset="0.65" stop-color="#648AFA"/>
<stop offset="0.86" stop-color="#567DEC"/>
<stop offset="1" stop-color="#4970DF"/>
</linearGradient>
<clipPath id="clip0_2684_142297">
<rect width="178" height="133" fill="white"/>
</clipPath>
</defs>
</svg>
