<svg fill="none" height="170" viewBox="0 0 302 170" width="302" xmlns="http://www.w3.org/2000/svg" xmlns:xlink="http://www.w3.org/1999/xlink"><clipPath id="a"><rect height="170" rx="8" width="302"/></clipPath><g clip-path="url(#a)"><g fill="#fff" fill-opacity=".15"><path d="m204.023-3.99926 105.916-.00001c4.379 4.380793 7.053 9.45556 6.627 14.13997-.892 10.1062-15.114 11.5809-28.911 4.2941l-2.713-1.5181c-.457 1.859-1.191 3.6185-2.17 5.2049-6.898 11.3207-22.478 12.405-32.554 4.1205-1.11-.9088-2.148-1.9247-3.1-3.0362-1.355 2.0966-2.9 4.0299-4.612 5.7688-9.34 9.4556-20.423 11.4942-24.647 5.682-3.721-5.1181-.853-14.9641 6.2-22.72805 0 0-20.85-.56386-20.036-11.92791z"/><path d="m55.2183.00017146-71.2522-.00000699c-2.9461 2.92052553-4.745 6.30370553-4.4582 9.42665553.5996 6.73748 10.1677 7.72058 19.44904 2.86268l1.824977-1.012c.307613 1.2393.801173 2.4123 1.459983 3.4699 4.64065 7.5471 15.1212 8.27 21.8997 2.747.7472-.6058 1.4451-1.2831 2.0857-2.0241.9112 1.3977 1.951 2.6866 3.1025 3.8458 6.2831 6.3038 13.7394 7.6628 16.5812 3.7881 2.5028-3.4121.5735-9.9761-4.1714-15.15209 0 0 14.0262-.37591 13.4787-7.95193854z"/><path d="m147.986 211.514h-204.1284c-8.4399-8.496-13.5936-18.338-12.772-27.423 1.7179-19.6 29.1292-22.46 55.7189-8.328l5.22826 2.944c.88126-3.605 2.29525-7.018 4.18265-10.094 13.29484-21.956 43.32029-24.059 62.73969-7.992 2.1406 1.763 4.14 3.733 5.9752 5.889 2.6106-4.066 5.5893-7.816 8.8882-11.188 18.0003-18.338 39.3615-22.292 47.5025-11.02 7.171 9.926 1.644 29.021-11.95 44.079 0 0 40.183 1.093 38.615 23.133z"/></g><path d="m266.27 58.6933 3.689-1.8173c.09-.101.09-.202 0-.202l-3.689-1.8173-1.71-4.2405c0-.1009-.09-.1009-.09 0l-1.71 4.1395-3.689 1.9183c-.09 0-.09.101 0 .202l3.689 1.8173 1.71 4.1395h.09z" fill="#6adbc6"/><path d="m62.0124 76.2703 3.4807-1.723v-.2297l-3.4807-1.6081-1.5356-3.7906h-.2047l-1.5356 3.7906-3.3784 1.6081c-.1023.1149-.1023.2297 0 .2297l3.3784 1.723 1.5356 3.9054h.2047z" fill="#fff5be"/><path d="m237.377 113.558 5.196-2.557c.033-.041.051-.095.051-.15s-.018-.109-.051-.15l-5.196-2.556-2.331-5.865c-.013-.016-.028-.028-.045-.037-.018-.009-.036-.014-.055-.014s-.038.005-.055.014-.033.021-.045.037l-2.332 5.789-5.195 2.632c-.033.041-.051.095-.051.15s.018.109.051.15l5.195 2.557 2.332 5.788c.089.151.155.151.2 0z" fill="#628bf7"/><path d="m69.8965 108.145 7.8827-3.905c.0543 0 .1064-.024.1448-.067.0384-.044.06-.102.06-.163s-.0216-.119-.06-.162-.0905-.068-.1448-.068l-7.8827-3.9051c-.0271 0-.0532-.0121-.0724-.0336-.0192-.0216-.03-.0508-.03-.0812l-3.583-8.8446c0-.2298-.2048-.2298-.3071 0l-3.4807 8.8446h-.1024l-7.9851 4.0199c-.0503.064-.0782.145-.0782.23s.0279.167.0782.23l7.9851 3.905h.1024l3.4807 8.96c.1023.229.3071.229.3071 0l3.583-8.845c0-.03.0108-.06.03-.081.0192-.022.0453-.034.0724-.034z" fill="#ff7abc"/></g></svg>