<svg width="161" height="146" viewBox="0 0 161 146" fill="none" xmlns="http://www.w3.org/2000/svg">
  <path
    d="M149.865 0.5H11.2809C5.13105 0.5 0.145569 5.48548 0.145569 11.6354V95.2459C0.145569 101.396 5.13105 106.381 11.2809 106.381H149.865C156.015 106.381 161 101.396 161 95.2459V11.6354C161 5.48548 156.015 0.5 149.865 0.5Z"
    fill="#5865F2" />
  <path d="M123.388 37.5075L102.55 14.1108H77.6379V13.3491H102.897L103.005 13.4733L123.959 37.0025L123.388 37.5075Z"
    fill="#808AFF" />
  <path
    d="M78.797 11.594H88.765C89.4025 11.594 89.9241 12.1156 89.9241 12.7531V13.73H77.6379V12.7531C77.6379 12.1156 78.1595 11.594 78.797 11.594Z"
    fill="#808AFF" />
  <path
    d="M149.831 37.2509C149.831 51.698 138.117 63.4129 123.67 63.4129C109.222 63.4129 97.5159 51.698 97.5159 37.2509C97.5159 29.4686 100.91 22.481 106.308 17.6957C107.385 16.7354 108.544 15.866 109.777 15.0878C113.668 12.6372 118.263 11.1884 123.181 11.0973C123.355 11.0973 123.52 11.0973 123.678 11.0973C131.27 11.0973 138.108 14.3344 142.885 19.5006C143.713 20.3947 144.475 21.3468 145.17 22.3403C146.404 24.1037 147.414 26.0328 148.184 28.086C149.252 30.9423 149.84 34.0304 149.84 37.2592L149.831 37.2509Z"
    fill="#808AFF" />
  <path opacity="0.2"
    d="M148.176 28.086L123.669 37.2592V11.0973C131.261 11.0973 138.1 14.3344 142.877 19.5006C143.705 20.3947 144.467 21.3468 145.162 22.3403C146.396 24.1037 147.406 26.0328 148.176 28.086Z"
    fill="white" />
  <path opacity="0.4"
    d="M123.67 11.0973V37.2592L106.3 17.704C107.376 16.7436 108.535 15.8743 109.769 15.0961C113.66 12.6455 118.255 11.1966 123.173 11.1056C123.347 11.1056 123.512 11.1056 123.67 11.1056V11.0973Z"
    fill="white" />
  <path
    d="M26.3076 49.1066H12.9037C12.0258 49.1066 11.3141 49.8183 11.3141 50.6962V94.2028C11.3141 95.0807 12.0258 95.7924 12.9037 95.7924H26.3076C27.1855 95.7924 27.8972 95.0807 27.8972 94.2028V50.6962C27.8972 49.8183 27.1855 49.1066 26.3076 49.1066Z"
    fill="#808AFF" />
  <path
    d="M65.6994 64.1248H52.2955C51.4176 64.1248 50.7059 64.8364 50.7059 65.7143V94.2027C50.7059 95.0806 51.4176 95.7923 52.2955 95.7923H65.6994C66.5773 95.7923 67.2889 95.0806 67.2889 94.2027V65.7143C67.2889 64.8364 66.5773 64.1248 65.6994 64.1248Z"
    fill="#808AFF" />
  <path
    d="M105.1 64.1248H91.6957C90.8178 64.1248 90.1061 64.8364 90.1061 65.7143V94.2027C90.1061 95.0806 90.8178 95.7923 91.6957 95.7923H105.1C105.977 95.7923 106.689 95.0806 106.689 94.2027V65.7143C106.689 64.8364 105.977 64.1248 105.1 64.1248Z"
    fill="#808AFF" />
  <path
    d="M124.796 72.8427H111.392C110.514 72.8427 109.802 73.5543 109.802 74.4322V94.2027C109.802 95.0806 110.514 95.7923 111.392 95.7923H124.796C125.674 95.7923 126.385 95.0806 126.385 94.2027V74.4322C126.385 73.5543 125.674 72.8427 124.796 72.8427Z"
    fill="#808AFF" />
  <path
    d="M46.0035 26.6702H32.5997C31.7218 26.6702 31.0101 27.3818 31.0101 28.2597V94.1944C31.0101 95.0723 31.7218 95.784 32.5997 95.784H46.0035C46.8814 95.784 47.5931 95.0723 47.5931 94.1944V28.2597C47.5931 27.3818 46.8814 26.6702 46.0035 26.6702Z"
    fill="#808AFF" />
  <path
    d="M32.2685 11.594H12.6719C11.922 11.594 11.3141 12.2019 11.3141 12.9518V15.4189C11.3141 16.1688 11.922 16.7767 12.6719 16.7767H32.2685C33.0184 16.7767 33.6263 16.1688 33.6263 15.4189V12.9518C33.6263 12.2019 33.0184 11.594 32.2685 11.594Z"
    fill="#808AFF" />
  <path
    d="M48.0896 11.594H37.5669C37.1279 11.594 36.7721 11.9498 36.7721 12.3888V14.0529C36.7721 14.4918 37.1279 14.8477 37.5669 14.8477H48.0896C48.5286 14.8477 48.8844 14.4918 48.8844 14.0529V12.3888C48.8844 11.9498 48.5286 11.594 48.0896 11.594Z"
    fill="#808AFF" />
  <path
    d="M145.452 95.7841C146.659 95.7841 147.638 94.8055 147.638 93.5984C147.638 92.3913 146.659 91.4127 145.452 91.4127C144.245 91.4127 143.266 92.3913 143.266 93.5984C143.266 94.8055 144.245 95.7841 145.452 95.7841Z"
    fill="#808AFF" />
  <path
    d="M139.301 95.7841C140.508 95.7841 141.486 94.8055 141.486 93.5984C141.486 92.3913 140.508 91.4127 139.301 91.4127C138.094 91.4127 137.115 92.3913 137.115 93.5984C137.115 94.8055 138.094 95.7841 139.301 95.7841Z"
    fill="#808AFF" />
  <path
    d="M133.141 95.7841C134.348 95.7841 135.327 94.8055 135.327 93.5984C135.327 92.3913 134.348 91.4127 133.141 91.4127C131.934 91.4127 130.955 92.3913 130.955 93.5984C130.955 94.8055 131.934 95.7841 133.141 95.7841Z"
    fill="#808AFF" />
  <path
    d="M85.4037 64.1248H71.9999C71.122 64.1248 70.4103 64.8364 70.4103 65.7143V94.2027C70.4103 95.0806 71.122 95.7923 71.9999 95.7923H85.4037C86.2816 95.7923 86.9933 95.0806 86.9933 94.2027V65.7143C86.9933 64.8364 86.2816 64.1248 85.4037 64.1248Z"
    fill="#808AFF" />
  <path
    d="M90.9092 30.2468L63.6544 32.8133L64.4244 28.0363C64.7969 25.7098 67.6615 23.7643 71.296 23.4165L81.6449 22.4396C85.2794 22.1002 88.4503 23.4745 89.2616 25.6933L90.9092 30.2385V30.2468Z"
    fill="url(#paint0_linear_12_26353)" />
  <path
    d="M126.402 49.9593L127.089 57.278C127.296 59.4968 126.774 61.7322 125.524 63.5701C123.885 65.9793 121.534 67.5772 118.802 67.8421C113.097 68.3803 107.906 62.8333 107.211 55.4649C106.515 48.0882 110.58 41.6719 116.285 41.1338C119.017 40.8771 121.625 42.0114 123.686 44.0729C125.259 45.6459 126.187 47.7488 126.394 49.9676L126.402 49.9593Z"
    fill="url(#paint1_linear_12_26353)" />
  <path
    d="M124.837 47.3099C124.092 46.0101 122.991 44.5778 121.682 43.3856C120.797 42.5826 119.422 42.6819 118.661 43.6092C118.652 43.6257 118.636 43.634 118.627 43.6506C117.99 44.4371 118.296 45.6127 119.232 45.9853C120.805 46.5979 122.212 47.343 123.587 48.4028C123.918 48.6594 124.381 48.6346 124.679 48.3448L124.696 48.3283C124.969 48.0633 125.035 47.6411 124.845 47.3017L124.837 47.3099Z"
    fill="url(#paint2_linear_12_26353)" />
  <path
    d="M32.8728 60.5317L33.56 67.8504C33.767 70.0692 34.7025 72.1721 36.2672 73.7451C38.3287 75.8066 40.9366 76.9408 43.6687 76.6842C49.373 76.146 53.4381 69.7297 52.7426 62.3531C52.0472 54.9764 46.8562 49.4377 41.1519 49.9758C38.4198 50.2325 36.0685 51.8386 34.4293 54.2478C33.1791 56.0858 32.6576 58.3294 32.8645 60.5399L32.8728 60.5317Z"
    fill="url(#paint3_linear_12_26353)" />
  <path
    d="M33.9161 57.634C34.4046 56.21 35.2242 54.6038 36.2839 53.1881C37.0042 52.236 38.3786 52.0787 39.2975 52.8404C39.3141 52.8487 39.3224 52.8652 39.3389 52.8735C40.1089 53.5275 40.0344 54.7363 39.1816 55.2744C37.7493 56.1686 36.5075 57.1703 35.3567 58.4702C35.0835 58.7848 34.6198 58.8427 34.2721 58.6192H34.2556C33.9327 58.3956 33.7919 57.9982 33.9161 57.634Z"
    fill="url(#paint4_linear_12_26353)" />
  <path
    d="M118.305 40.0078C117.021 34.585 112.774 30.3792 107.343 29.1291C97.2261 26.8027 86.9683 26.1321 76.8595 27.0842C66.7756 28.0362 56.8076 30.6028 47.3115 34.7671C42.195 37.0025 38.8006 41.9451 38.5605 47.517C38.37 52.0208 38.4859 56.5329 38.9082 61.0201C39.3304 65.5074 40.0673 69.9698 41.1021 74.366C42.3854 79.7888 46.6326 83.9946 52.0637 85.2448C62.1807 87.5712 72.4385 88.2418 82.5473 87.2897C92.656 86.3376 102.599 83.7711 112.095 79.6067C117.212 77.3714 120.606 72.4287 120.846 66.8569C121.037 62.3531 120.921 57.841 120.499 53.3537C120.076 48.8664 119.34 44.404 118.305 40.0078Z"
    fill="url(#paint5_linear_12_26353)" />
  <g opacity="0.67">
    <path
      d="M70.7163 29.8907L70.1451 30.0646L69.5738 30.2219L68.4313 30.5531L66.1463 31.1905C65.7654 31.2982 65.3846 31.4058 65.0038 31.5052L63.8613 31.828C63.4804 31.9439 63.0996 32.035 62.7187 32.1426L61.5845 32.4738L60.4503 32.7967L59.316 33.1279L58.1818 33.459C57.8092 33.5749 57.4284 33.6825 57.0476 33.7902L54.7791 34.4608L53.6366 34.7837L53.0653 34.9493L52.4858 35.0983C52.254 35.1645 52.0056 35.0238 51.9476 34.7837C51.898 34.5767 51.989 34.3697 52.1712 34.2786C52.8832 33.9061 53.62 33.5915 54.3486 33.2603L55.458 32.7967C55.8305 32.6477 56.2031 32.5069 56.5757 32.3662C57.3208 32.0764 58.0824 31.828 58.8441 31.5714C59.6058 31.3313 60.3758 31.0995 61.1457 30.8759C61.9157 30.669 62.6939 30.462 63.4721 30.2798C64.2504 30.106 65.0369 29.9238 65.8234 29.7831C66.2208 29.7086 66.6099 29.6341 67.0073 29.5678L68.1912 29.3857C68.986 29.2946 69.7808 29.1787 70.5839 29.1208C70.7991 29.1042 70.9813 29.2698 70.9895 29.4768C71.0061 29.6589 70.8819 29.8162 70.7163 29.8742H70.7081L70.7163 29.8907Z"
      fill="white" />
  </g>
  <path
    d="M108.568 43.1457C107.741 40.3308 105.414 38.1948 102.55 37.6069C94.3118 35.9263 85.9168 35.4875 77.6377 36.2657C69.3835 37.044 61.2037 39.0392 53.4297 42.2184C50.7224 43.3278 48.8348 45.8695 48.545 48.792C48.2304 52.0043 48.2056 55.2331 48.4705 58.4454C48.7354 61.666 49.2818 64.87 50.118 68.0243C50.8797 70.8972 53.1813 73.0994 56.0624 73.7038C64.3829 75.4507 72.9021 75.9143 81.3136 75.1278C89.7252 74.3413 98.0043 72.2881 105.845 69.0261C108.568 67.8919 110.415 65.3005 110.63 62.3283C110.862 59.0829 110.795 55.8292 110.448 52.6169C110.1 49.4129 109.471 46.242 108.552 43.1457H108.568Z"
    fill="#ED5B00" />
  <path
    d="M109.173 45.5466C108.37 42.6985 106.043 40.5377 103.146 39.9416C94.8004 38.2361 86.2729 37.789 77.8614 38.5838C69.4664 39.3786 61.1624 41.3987 53.2808 44.6276C50.5404 45.7535 48.6527 48.3201 48.4044 51.2674C48.1229 54.4963 48.1394 57.7334 48.4458 60.9457C48.7521 64.158 49.3482 67.3454 50.2258 70.4666C51.0288 73.3146 53.3553 75.4755 56.2529 76.0716C64.5983 77.7771 73.1257 78.2241 81.5373 77.4293C89.9323 76.6345 98.2362 74.6145 106.118 71.3856C108.858 70.2596 110.746 67.6931 110.994 64.7458C111.276 61.5169 111.259 58.2798 110.953 55.0675C110.647 51.8552 110.05 48.6678 109.173 45.5466Z"
    fill="black" />
  <path
    d="M92.507 85.0378L92.9044 80.7327C93.0286 79.4329 91.8695 78.3815 90.5862 78.6298C87.6886 79.2011 84.7743 79.6316 81.8435 79.9048C78.9127 80.178 75.9488 80.3105 72.9932 80.2774C71.6934 80.2691 70.7495 81.5192 71.1055 82.7694L72.306 86.9255C72.4385 87.3808 72.8524 87.6954 73.3243 87.6954C76.4042 87.7037 79.4757 87.5712 82.539 87.2815C85.5857 86.9917 88.6324 86.5529 91.646 85.9734C92.1096 85.8823 92.4573 85.4932 92.4987 85.0296L92.507 85.0378Z"
    fill="url(#paint6_linear_12_26353)" />
  <path
    d="M62.57 59.6707C64.2892 59.6707 65.6829 58.277 65.6829 56.5578C65.6829 54.8385 64.2892 53.4448 62.57 53.4448C60.8507 53.4448 59.457 54.8385 59.457 56.5578C59.457 58.277 60.8507 59.6707 62.57 59.6707Z"
    fill="#57F287" />
  <path
    d="M94.1297 55.9782C95.8489 55.9782 97.2426 54.5845 97.2426 52.8653C97.2426 51.146 95.8489 49.7523 94.1297 49.7523C92.4104 49.7523 91.0167 51.146 91.0167 52.8653C91.0167 54.5845 92.4104 55.9782 94.1297 55.9782Z"
    fill="#57F287" />
  <path
    d="M85.8092 60.8463H85.5277C81.1397 60.8463 76.7684 61.3679 72.5129 62.4028C72.7944 64.7954 75.9984 66.385 79.6661 65.9545C83.342 65.524 86.0906 63.239 85.8092 60.8463Z"
    fill="#57F287" />
  <path
    d="M129.754 140.657C129.39 140.657 129.026 140.5 128.777 140.193C128.678 140.069 126.269 137.031 124.911 132.874C124.696 132.22 125.052 131.517 125.706 131.301C126.36 131.086 127.064 131.442 127.279 132.096C128.488 135.805 130.698 138.604 130.715 138.628C131.145 139.167 131.054 139.953 130.516 140.375C130.284 140.557 130.011 140.649 129.738 140.649L129.754 140.657Z"
    fill="black" />
  <path
    d="M132.628 136.824C132.512 136.824 132.387 136.807 132.272 136.774C132.114 136.724 128.413 135.607 124.928 132.965C124.382 132.552 124.274 131.765 124.688 131.219C125.102 130.672 125.888 130.565 126.435 130.979C129.556 133.346 132.95 134.373 132.984 134.381C133.646 134.58 134.018 135.275 133.82 135.929C133.662 136.468 133.166 136.824 132.628 136.824Z"
    fill="black" />
  <path
    d="M124.928 141.99C124.365 141.99 123.86 141.609 123.719 141.038C123.678 140.88 122.775 137.113 123.297 132.775C123.38 132.088 124.001 131.599 124.68 131.682C125.367 131.765 125.847 132.386 125.772 133.065C125.309 136.939 126.137 140.4 126.145 140.442C126.311 141.112 125.897 141.783 125.226 141.948C125.127 141.973 125.027 141.981 124.928 141.981V141.99Z"
    fill="black" />
  <path
    d="M44.3972 113.087C41.6651 113.087 38.8336 112.615 35.9939 111.423C29.1885 108.559 23.9064 102.06 20.2885 92.0999C19.1708 89.0201 20.7604 85.6256 23.8319 84.508C26.9117 83.3903 30.3062 84.9799 31.4238 88.0514C33.8662 94.7823 36.946 98.9715 40.5888 100.503C45.4817 102.565 51.6083 99.7829 56.079 97.7545L56.6751 97.4813C59.6555 96.1318 63.1659 97.4564 64.5154 100.437C65.8649 103.417 64.5402 106.928 61.5597 108.277L60.9802 108.542C56.9317 110.38 50.9625 113.087 44.3972 113.087Z"
    fill="url(#paint7_linear_12_26353)" />
  <path
    d="M123.264 136.65C121.07 136.65 118.958 135.424 117.932 133.322C114.438 126.168 102.384 109.196 95.7191 105.686C92.8214 104.163 91.712 100.578 93.2353 97.6883C94.7587 94.7906 98.3435 93.6812 101.233 95.2046C111.747 100.735 125.234 121.259 128.579 128.131C130.011 131.07 128.794 134.621 125.855 136.054C125.019 136.459 124.133 136.658 123.264 136.658V136.65Z"
    fill="url(#paint8_linear_12_26353)" />
  <mask id="mask0_12_26353" style="mask-type:alpha" maskUnits="userSpaceOnUse" x="92" y="94" width="38" height="43">
    <path
      d="M123.264 136.65C121.07 136.65 118.958 135.424 117.932 133.322C114.438 126.168 102.384 109.196 95.7191 105.686C92.8214 104.163 91.712 100.578 93.2353 97.6883C94.7587 94.7906 98.3435 93.6812 101.233 95.2046C111.747 100.735 125.234 121.259 128.579 128.131C130.011 131.07 128.794 134.621 125.855 136.054C125.019 136.459 124.133 136.658 123.264 136.658V136.65Z"
      fill="url(#paint9_linear_12_26353)" />
  </mask>
  <g mask="url(#mask0_12_26353)">
    <path
      d="M100.943 115.05C100.811 115.05 100.67 115.016 100.538 114.958C100.074 114.735 99.8752 114.18 100.099 113.708C102.268 109.188 110.969 101.257 117.675 101.869C118.189 101.919 118.569 102.374 118.52 102.888C118.47 103.401 118.023 103.782 117.501 103.732C112.112 103.244 103.891 110.107 101.779 114.52C101.622 114.859 101.283 115.05 100.935 115.05H100.943Z"
      fill="#3F99F2" />
    <path
      d="M106.548 122.931C106.341 122.931 106.143 122.865 105.969 122.733C105.563 122.41 105.497 121.822 105.82 121.416C110.092 116.018 118.47 110.778 124.497 109.734C125.002 109.643 125.491 109.991 125.582 110.496C125.673 111.001 125.325 111.49 124.82 111.581C119.182 112.558 111.317 117.492 107.285 122.575C107.103 122.807 106.83 122.931 106.548 122.931Z"
      fill="#3F99F2" />
    <path
      d="M111.383 132.61C111.143 132.61 110.903 132.519 110.721 132.336C110.356 131.972 110.356 131.376 110.721 131.012C112.898 128.834 116.309 125.738 120.225 123.329C124.033 120.986 127.353 119.901 130.11 120.1C130.624 120.133 131.013 120.588 130.98 121.102C130.938 121.615 130.499 122.004 129.978 121.971C124.77 121.598 117.303 127.079 112.045 132.336C111.863 132.519 111.623 132.61 111.383 132.61Z"
      fill="#3F99F2" />
  </g>
  <path
    d="M103.344 98.3754C102.268 94.6416 98.8487 92.0668 94.9576 92.0668H65.1611C61.2699 92.0668 57.859 94.6416 56.7744 98.3754L50.1594 121.284C48.5367 126.905 49.0831 132.924 51.6828 138.165C53.9098 142.66 58.4965 145.5 63.5136 145.5H96.6051C101.622 145.5 106.201 142.66 108.436 138.165C111.036 132.924 111.582 126.905 109.959 121.284L103.344 98.3754Z"
    fill="url(#paint10_linear_12_26353)" />
  <path
    d="M70.294 97.2163H89.369L93.2602 117.616C93.5996 119.396 92.2336 121.044 90.4288 121.044H69.2426C67.4294 121.044 66.0717 119.396 66.4111 117.616L70.3023 97.2163H70.294Z"
    fill="url(#paint11_linear_12_26353)" />
  <path d="M49.4391 130.722H110.68V130.747L110.34 132.717V132.734H49.7868L49.4391 130.722Z" fill="#ED5700" />
  <path
    d="M89.187 96.2809L89.3691 97.2164H70.2941L70.4762 96.2809C70.6418 95.4116 71.4035 94.7823 72.2893 94.7823H87.3821C88.268 94.7823 89.0296 95.4116 89.1952 96.2809H89.187Z"
    fill="#FF9F19" />
  <path
    d="M24.6682 68.7446C24.4943 67.7677 23.5588 67.1219 22.5818 67.3041C21.6132 67.4779 20.9591 68.4135 21.1413 69.3904C21.5055 71.3939 21.6794 72.2384 22.0768 74.1426C17.4902 74.7966 15.4287 76.1379 15.0396 78.1828C14.8574 79.1432 15.5115 80.8818 17.01 82.4217C15.9668 86.1307 18.9142 87.8776 21.4641 89.136C21.8284 89.8646 23.5339 89.9971 25.4795 89.3761C27.4251 88.7552 28.8077 87.5961 28.6587 86.7765C28.6752 86.5778 28.667 86.3708 28.6173 86.1638C28.4765 85.6091 28.3358 85.0627 28.2116 84.5411L25.9597 75.0864C25.4133 72.5944 25.1401 71.3029 24.6764 68.7529L24.6682 68.7446Z"
    fill="black" />
  <mask id="mask1_12_26353" style="mask-type:alpha" maskUnits="userSpaceOnUse" x="19" y="84" width="47" height="30">
    <path
      d="M44.3972 113.087C41.6651 113.087 38.8336 112.616 35.9939 111.423C29.1885 108.559 23.9064 102.06 20.2885 92.1C19.1708 89.0202 20.7604 85.6257 23.8319 84.5081C26.9117 83.3904 30.3062 84.98 31.4238 88.0515C33.8662 94.7824 36.946 98.9716 40.5888 100.503C45.4817 102.565 51.6083 99.783 56.079 97.7546L56.6751 97.4814C59.6555 96.1319 63.1659 97.4566 64.5154 100.437C65.8649 103.418 64.5402 106.928 61.5597 108.277L60.9802 108.542C56.9317 110.38 50.9625 113.087 44.3972 113.087Z"
      fill="url(#paint12_linear_12_26353)" />
  </mask>
  <g mask="url(#mask1_12_26353)">
    <path
      d="M29.8925 112.425C29.5199 112.425 29.1639 112.202 29.0232 111.829C28.8327 111.349 29.0728 110.802 29.553 110.62C38.4199 107.143 39.7363 98.7149 39.1899 96.1981C39.0823 95.6931 39.3969 95.1963 39.9019 95.0887C40.4069 94.9811 40.9037 95.2957 41.0113 95.8007C41.8475 99.6422 39.4796 108.733 30.2319 112.359C30.116 112.4 30.0084 112.425 29.8925 112.425Z"
      fill="#3F99F2" />
    <path
      d="M44.96 118.022C44.7282 118.022 44.4964 117.939 44.3143 117.765C43.9417 117.409 43.9251 116.821 44.2811 116.44C45.8045 114.834 46.9056 111.167 47.2368 106.613C47.5431 102.449 47.1209 98.3921 46.1853 96.5044C45.9535 96.0408 46.1439 95.4778 46.6076 95.2543C47.0712 95.0225 47.6342 95.2129 47.8577 95.6765C50.0848 100.18 49.6874 113.452 45.6306 117.732C45.4485 117.922 45.2001 118.022 44.9517 118.022H44.96Z"
      fill="#3F99F2" />
    <path
      d="M21.7208 100.669C21.1247 100.669 20.5038 100.644 19.8663 100.603C19.353 100.57 18.9638 100.122 18.997 99.6008C19.0301 99.0875 19.4854 98.6901 19.9987 98.7315C27.4002 99.2531 32.3677 96.521 34.7686 90.6015C34.959 90.1213 35.5055 89.8895 35.9857 90.0882C36.4658 90.2786 36.6977 90.825 36.499 91.3052C34.7272 95.66 30.7367 100.661 21.7125 100.661L21.7208 100.669Z"
      fill="#3F99F2" />
  </g>
  <defs>
    <linearGradient id="paint0_linear_12_26353" x1="76.3446" y1="21.6669" x2="76.9175" y2="27.75"
      gradientUnits="userSpaceOnUse">
      <stop stop-color="#66BCFF" />
      <stop offset="1" stop-color="#3F99F2" />
    </linearGradient>
    <linearGradient id="paint1_linear_12_26353" x1="115.729" y1="41.3667" x2="117.315" y2="58.2063"
      gradientUnits="userSpaceOnUse">
      <stop stop-color="#FFE75C" />
      <stop offset="1" stop-color="#FFC619" />
    </linearGradient>
    <linearGradient id="paint2_linear_12_26353" x1="125.459" y1="48.3098" x2="117.471" y2="42.5489"
      gradientUnits="userSpaceOnUse">
      <stop stop-color="#FFE75C" />
      <stop offset="1" stop-color="#FFF7DE" />
    </linearGradient>
    <linearGradient id="paint3_linear_12_26353" x1="41.7349" y1="50.0646" x2="43.3216" y2="66.9125"
      gradientUnits="userSpaceOnUse">
      <stop stop-color="#FFE75C" />
      <stop offset="1" stop-color="#FFC619" />
    </linearGradient>
    <linearGradient id="paint4_linear_12_26353" x1="33.5021" y1="58.7345" x2="40.2727" y2="51.5824"
      gradientUnits="userSpaceOnUse">
      <stop stop-color="#FFE75C" />
      <stop offset="1" stop-color="#FFF7DE" />
    </linearGradient>
    <linearGradient id="paint5_linear_12_26353" x1="70.4354" y1="32.6513" x2="90.2827" y2="85.3417"
      gradientUnits="userSpaceOnUse">
      <stop stop-color="#FFC618" />
      <stop offset="0.31" stop-color="#FFAD19" />
      <stop offset="1" stop-color="#FF7D12" />
    </linearGradient>
    <linearGradient id="paint6_linear_12_26353" x1="82.5235" y1="87.2782" x2="81.8521" y2="80.1484"
      gradientUnits="userSpaceOnUse">
      <stop offset="0.02" stop-color="#FFB619" />
      <stop offset="1" stop-color="#FFC619" />
    </linearGradient>
    <linearGradient id="paint7_linear_12_26353" x1="19.9325" y1="98.6155" x2="65.0535" y2="98.6155"
      gradientUnits="userSpaceOnUse">
      <stop stop-color="#8CD9FF" />
      <stop offset="1" stop-color="#66BCFF" />
    </linearGradient>
    <linearGradient id="paint8_linear_12_26353" x1="92.5565" y1="115.588" x2="129.191" y2="115.588"
      gradientUnits="userSpaceOnUse">
      <stop stop-color="#8CD9FF" />
      <stop offset="1" stop-color="#66BCFF" />
    </linearGradient>
    <linearGradient id="paint9_linear_12_26353" x1="92.5565" y1="115.588" x2="129.191" y2="115.588"
      gradientUnits="userSpaceOnUse">
      <stop stop-color="#8CD9FF" />
      <stop offset="1" stop-color="#66BCFF" />
    </linearGradient>
    <linearGradient id="paint10_linear_12_26353" x1="80.0635" y1="97.6966" x2="80.0635" y2="143.844"
      gradientUnits="userSpaceOnUse">
      <stop stop-color="#FF5D12" />
      <stop offset="0.5" stop-color="#FF7D12" />
      <stop offset="0.99" stop-color="#FFC619" />
    </linearGradient>
    <linearGradient id="paint11_linear_12_26353" x1="79.8315" y1="106.646" x2="79.8315" y2="120.373"
      gradientUnits="userSpaceOnUse">
      <stop offset="0.26" stop-color="#FFB619" />
      <stop offset="1" stop-color="#FFC619" />
    </linearGradient>
    <linearGradient id="paint12_linear_12_26353" x1="19.9325" y1="98.6156" x2="65.0535" y2="98.6156"
      gradientUnits="userSpaceOnUse">
      <stop stop-color="#8CD9FF" />
      <stop offset="1" stop-color="#66BCFF" />
    </linearGradient>
  </defs>
</svg>