<svg id="Layer_1" data-name="Layer 1" xmlns="http://www.w3.org/2000/svg" xmlns:xlink="http://www.w3.org/1999/xlink" viewBox="0 0 280 124">
  <defs>
    <linearGradient id="linear-gradient" x1="565.06" y1="68" x2="559.05" y2="34.08" gradientTransform="matrix(-.98 .19 .19 .98 735.82 -69.35)" gradientUnits="userSpaceOnUse">
      <stop offset="0" stop-color="#4472ef"/>
      <stop offset="1" stop-color="#7196ff"/>
    </linearGradient>
    <linearGradient id="linear-gradient-2" x1="633.55" y1="127.37" x2="627.44" y2="92.88" gradientTransform="matrix(-.99 .11 .11 .99 694.03 -83.57)" xlink:href="#linear-gradient"/>
    <style>
      .cls-4{fill:#b7ccff}.cls-7{fill:#7fa1ff}.cls-9{fill:#a5f7de}.cls-10{fill:#aec7ff}.cls-11{fill:#ff73fa}.cls-12{fill:#ffd836}.cls-13{fill:#8086ff}.cls-14{fill:#05124a}.cls-15{fill:#373be1}.cls-16{fill:none}.cls-17{fill:#ffb54b}
    </style>
  </defs>
  <path d="M118.21 35.78c-13.33 4.73-7.32 13.71 2.36 15.84l7.69-.17a8.32 8.32 0 0 0 4.48-1.4c4.63-3.1 13.11-10.41 11-10.38-14.6.17-16.32-7.16-25.53-3.89Z" fill="#57f085"/>
  <path d="M133.69 48.69a1.23 1.23 0 0 1-.27 0 36 36 0 0 1-22.57-14 1.5 1.5 0 0 1 2.5-1.66A33.5 33.5 0 0 0 134 45.72a1.5 1.5 0 0 1-.27 3Z"/>
  <path d="M155.24 39.88c4.65-4.46 9-15.83-2.16-19.17a12.74 12.74 0 0 0-7 0c-18.7 4.95-5.33 29-25.48 30.9a42.27 42.27 0 0 0 34.64-11.73Z" fill="#48c36e"/>
  <path d="M137.73 53.49a1.5 1.5 0 0 1-.85-2.74c9.42-6.48 10.72-17.69 10.73-17.8a1.5 1.5 0 1 1 3 .31c-.05.51-1.42 12.68-12 20a1.57 1.57 0 0 1-.88.23Z"/>
  <path d="M182.12 53.9c14.28-1.18 18.76-3.15 20.74 20.26 1.89 20.91-1.09 20-18 21.28Z" fill="url(#linear-gradient)"/>
  <path class="cls-4" d="M183.45 59.32c10-.82 13.41-4.08 14.53 14.2.9 14.67-.77 14-12.61 14.89Z"/>
  <path d="M110.71 42.11H162a30.48 30.48 0 0 1 30.48 30.48v23.92a24.38 24.38 0 0 1-24.38 24.38h-59.81a24.38 24.38 0 0 1-24.38-24.38V68.92a26.8 26.8 0 0 1 26.8-26.8Z" transform="rotate(174.04 138.177 81.499)" fill="#6a94ff"/>
  <path class="cls-4" d="M132 63.16h24.13a15.7 15.7 0 0 1 15.7 15.7v8.63a11.19 11.19 0 0 1-11.19 11.19h-33.12a11.19 11.19 0 0 1-11.19-11.19v-8.64A15.7 15.7 0 0 1 132 63.16Z" transform="rotate(174.04 144.099 80.91)"/>
  <path d="M122.87 101.09a70.79 70.79 0 0 1-10-3 1.7 1.7 0 0 0-2.26 2c1.68 6.13 6.09 17.34 13.35 3.47a1.7 1.7 0 0 0-1.09-2.47Z"/>
  <path d="M121.89 107c-4.87 6.64-8.23 1.61-10.14-3.47a9 9 0 0 1 10.14 3.47Z" fill="#ff78b8"/>
  <rect class="cls-7" x="131.82" y="89.77" width="14.72" height="4.2" rx="2.08" transform="rotate(-5.97 139.141 91.865)"/>
  <rect class="cls-7" x="150.19" y="88.1" width="12.49" height="4.2" rx="2.1" transform="rotate(-5.97 156.44 90.17)"/>
  <path d="M86.83 63.3c-15.7 1.73-20.72.6-18.3 24 2 20.89 6 19.29 22.86 17.41Z" fill="url(#linear-gradient-2)"/>
  <path class="cls-4" d="m87.32 67.64 3.27 29.64C76.43 98.57 77 97.55 75 81.63c-1.69-12.95 1.19-13.02 12.32-13.99Z"/>
  <path d="M112.2 77.11c-2.14-4.21-5.07-5.4-7.16-5.66a10 10 0 0 0-8.56 3.64 1.5 1.5 0 1 0 2.25 2 7.08 7.08 0 0 1 5.94-2.65c2 .25 3.63 1.65 4.85 4a1.5 1.5 0 0 0 2.68-1.36ZM186.93 67.88c-2.6-2.33-5.16-3.23-7.62-2.67-4.1.93-6.09 5.64-6.18 5.84a1.5 1.5 0 0 0 2.77 1.15s1.5-3.49 4.08-4.07c1.46-.32 3.12.35 4.94 2a1.5 1.5 0 0 0 2-2.24Z"/>
  <path class="cls-9" d="m75.36 21.5.21 5a1.13 1.13 0 0 0 .78 1l4.87 1.83c1.17.45 1 2-.33 2.67l-5.42 2.7a2 2 0 0 0-1 1.2L73 41a2 2 0 0 1-3 1.06l-3.56-3.33a1.58 1.58 0 0 0-1.43-.3l-5.76 1.33c-1.39.32-2.28-.87-1.5-2L61 33a1.38 1.38 0 0 0 .17-1.38l-2.12-4.3c-.51-1 .68-2.39 2-2.3l5.56.4a2.18 2.18 0 0 0 1.53-.55l4.45-4c1.1-.87 2.72-.58 2.77.63Z"/>
  <path class="cls-10" d="m90.32 25.71-4.5-1.93a1.14 1.14 0 0 1-.38-1.84L98.62 8.1a1.15 1.15 0 0 1 1.28-.26l4.5 1.93a1.14 1.14 0 0 1 .38 1.84L91.6 25.45a1.15 1.15 0 0 1-1.28.26Z"/>
  <path class="cls-11" d="m59.33 75.73.11-4.9a1.15 1.15 0 0 1 1.57-1l17.75 7.08a1.14 1.14 0 0 1 .73 1.09l-.12 4.89a1.15 1.15 0 0 1-1.57 1l-17.75-7.07a1.15 1.15 0 0 1-.72-1.09ZM62.7 13.93A5.15 5.15 0 0 0 68 8.18a6.19 6.19 0 0 0-.73-2.41.71.71 0 0 1 .73-1.06 8.44 8.44 0 0 1 6 7.39 7 7 0 0 1-7 7.72 8.68 8.68 0 0 1-7.9-5.52.71.71 0 0 1 1-.92 6.84 6.84 0 0 0 2.6.55Z"/>
  <path class="cls-12" d="M96.72 63.76a1.37 1.37 0 0 0 2.18-.61l2.3-6.15 2.29-6.11a1.38 1.38 0 0 0-1.25-1.9H83.76a1.44 1.44 0 0 0-.94 2.5ZM69.4 55.87c1 .1 1.48-.54.94-1.25L66.76 50l-3.57-4.68a2.13 2.13 0 0 0-2.4-.66l-12.12 7.43c-.84.51.12 1.78 1.46 1.91Z"/>
  <path class="cls-13" d="M32.35 53.35 17.56 37.71l-13.7 39a3 3 0 0 0 3.62 3.82L47.14 69Z"/>
  <path class="cls-14" d="M45.46 68.59c-2.89 0-9.62-4-16.87-11.68a56.68 56.68 0 0 1-9-12.08c-2-3.81-2-5.84-1.37-6.41a1.43 1.43 0 0 1 1-.3c2.9 0 9.63 4 16.88 11.68a56.68 56.68 0 0 1 9 12.08c2 3.81 2 5.84 1.37 6.41a1.45 1.45 0 0 1-1.01.3Z"/>
  <path class="cls-15" d="M19.24 39.09c2.63 0 9.19 4 16.17 11.38 8.71 9.21 11 16 10.4 17.11a1.07 1.07 0 0 1-.35 0c-2.62 0-9.18-4-16.16-11.38-8.71-9.21-11-16-10.4-17.11a1 1 0 0 1 .34 0m0-1.94a2.39 2.39 0 0 0-1.68.56C15.1 40 19.72 48.94 27.88 57.58c6.83 7.23 14 12 17.58 12a2.35 2.35 0 0 0 1.68-.58c2.47-2.33-2.14-11.23-10.32-19.87-6.83-7.23-14-12-17.58-12ZM13.91 71a43.11 43.11 0 0 1-5.52-7.2L5.86 71a52.2 52.2 0 0 0 3.58 4.24 48.93 48.93 0 0 0 3.78 3.59l7.28-2.1A43.43 43.43 0 0 1 13.91 71ZM27.36 74.73l8.35-2.42a42.15 42.15 0 0 1-13.16-9.48 42.4 42.4 0 0 1-8.88-14.06l-2.91 8.29a49.54 49.54 0 0 0 7.32 10 48.94 48.94 0 0 0 9.28 7.67Z"/>
  <path class="cls-16" d="M35.41 50.47C27.57 42.17 21 38.78 19 39.11h-.1v.18l26.88 28.3c.6-1.13-1.66-7.92-10.37-17.12ZM29.3 56.24c7.84 8.3 14.43 11.69 16.41 11.36h.07L18.85 39.31c-.32 1.52 2.15 8.11 10.45 16.93Z"/>
  <path class="cls-17" d="M19 39.11z"/>
  <path class="cls-15" d="M45.78 67.59h-.07c-2 .33-8.57-3.06-16.41-11.36-8.3-8.81-10.77-15.4-10.45-16.92l-1.4-1.47c-2.19 2.51 2.41 11.25 10.43 19.74C35.09 65.2 42.65 70.08 46 69.52a2 2 0 0 0 1.13-.52Z"/>
  <path class="cls-11" d="m47.7 31.08-4.65-3.42a1.55 1.55 0 0 0-1.54-.17l-11.24 4.93a1.56 1.56 0 0 0-.92 1.25L28 45.88a1.57 1.57 0 0 0 .62 1.42l4.66 3.42a1.57 1.57 0 0 0 1.54.17L46.06 46a1.54 1.54 0 0 0 .94-1.3l1.35-12.2a1.55 1.55 0 0 0-.65-1.42Z"/>
  <path class="cls-10" d="m38.58 37.43-4.88-.34a1.14 1.14 0 0 1-1-1.61l7.89-17.41a1.13 1.13 0 0 1 1.12-.67l4.88.34a1.16 1.16 0 0 1 1 1.62l-7.9 17.4a1.12 1.12 0 0 1-1.11.67Z"/>
  <path class="cls-12" d="m25.65 21.07-3.55.76a.85.85 0 0 1-1-.95l2-14a.84.84 0 0 1 .67-.7l3.54-.77a.85.85 0 0 1 1 1l-2 14a.84.84 0 0 1-.66.66Z"/>
  <path class="cls-9" d="m19.65 16.24 1.46 2a.55.55 0 0 0 .6.21l2.48-.59c.6-.15.95.55.6 1.17l-1.46 2.58a1 1 0 0 0-.1.77l.82 2.48a1 1 0 0 1-.9 1.24l-2.36-.37a.76.76 0 0 0-.66.27l-2 2.12a.63.63 0 0 1-1.16-.4v-2.85a.69.69 0 0 0-.31-.61l-2-1.16c-.5-.28-.38-1.16.19-1.49l2.36-1.36a1.12 1.12 0 0 0 .47-.65l.71-2.84c.16-.69.91-.99 1.26-.52Z"/>
  <path class="cls-10" d="m191.38 36.52-2.13-4.41a1.15 1.15 0 0 0-1.86-.29l-13.22 13.8a1.16 1.16 0 0 0-.2 1.3l2.14 4.4a1.13 1.13 0 0 0 1.85.29l13.22-13.8a1.14 1.14 0 0 0 .2-1.29Z"/>
  <path class="cls-11" d="M258.6 14.11c2.52 0 4-1.59 3.32-3.62A4.52 4.52 0 0 0 261 9c-.34-.37 0-.78.49-.66a7.71 7.71 0 0 1 5.74 4.66c.85 2.65-1.06 4.86-4.47 4.86a8.89 8.89 0 0 1-6.92-3.48c-.28-.39.1-.74.62-.58a7.21 7.21 0 0 0 2.14.31Z"/>
  <path class="cls-9" d="M214.72 12.8c-.66-.92-.3-1.76.7-1.63L222 12l6.62.86a2.38 2.38 0 0 1 2 2L230.2 31c0 1.12-1.82.89-2.71-.36Z"/>
  <path class="cls-13" d="m245.85 53.35 14.79-15.64 13.7 39a3 3 0 0 1-3.61 3.82L231.06 69Z"/>
  <path class="cls-14" d="M232.74 68.59a1.43 1.43 0 0 1-1-.3c-.61-.57-.61-2.6 1.37-6.41a56.68 56.68 0 0 1 9-12.08c7.25-7.67 14-11.68 16.87-11.68a1.45 1.45 0 0 1 1 .3c.6.57.61 2.6-1.37 6.41a56.68 56.68 0 0 1-9 12.08c-7.25 7.67-14 11.68-16.88 11.68Z"/>
  <path class="cls-15" d="M259 39.09a1 1 0 0 1 .34 0c.58 1.12-1.68 7.9-10.39 17.11-7 7.39-13.54 11.38-16.17 11.38a1 1 0 0 1-.34 0c-.58-1.12 1.69-7.9 10.4-17.11 7-7.39 13.54-11.38 16.16-11.38m0-1.94c-3.6 0-10.75 4.75-17.58 12-8.2 8.62-12.82 17.52-10.36 19.85a2.39 2.39 0 0 0 1.68.56c3.6 0 10.75-4.75 17.58-12 8.17-8.64 12.79-17.54 10.32-19.87a2.35 2.35 0 0 0-1.68-.56ZM264.3 71a44.2 44.2 0 0 0 5.52-7.2l2.53 7.2a52.2 52.2 0 0 1-3.58 4.24 49.05 49.05 0 0 1-3.77 3.58l-7.27-2.1A43.92 43.92 0 0 0 264.3 71ZM250.85 74.73l-8.35-2.42a43.15 43.15 0 0 0 22-23.54l2.92 8.29a49.21 49.21 0 0 1-7.33 10 48.57 48.57 0 0 1-9.24 7.67Z"/>
  <path class="cls-16" d="M242.8 50.47c7.84-8.3 14.43-11.69 16.41-11.36h.1a1 1 0 0 1 0 .18l-26.88 28.3c-.61-1.13 1.66-7.92 10.37-17.12ZM248.91 56.24c-7.84 8.3-14.43 11.69-16.41 11.36h-.07l26.92-28.28c.33 1.51-2.1 8.1-10.44 16.92Z"/>
  <path class="cls-17" d="M259.21 39.11z"/>
  <path class="cls-15" d="M232.43 67.59h.07c2 .33 8.57-3.06 16.41-11.36 8.34-8.82 10.77-15.41 10.44-16.93l1.41-1.47c2.19 2.51-2.41 11.25-10.44 19.74-7.2 7.62-14.76 12.5-18.13 11.94a2.08 2.08 0 0 1-1.12-.51Z"/>
  <path class="cls-12" d="m216.53 45.68.52 2.79a.74.74 0 0 1-.25.71l-4.57 3.92a.76.76 0 0 1-.75.14l-5.68-2a.75.75 0 0 1-.49-.58l-.53-2.78a.76.76 0 0 1 .26-.72l4.57-3.92a.78.78 0 0 1 .75-.14l5.68 2a.76.76 0 0 1 .49.58Z"/>
  <path class="cls-10" d="m237.27 20.29 3.78-.38a1 1 0 0 1 .93.42l4.71 6.56a1 1 0 0 1 .1 1l-3.33 7.35a1 1 0 0 1-.83.6l-3.78.37a1 1 0 0 1-.93-.42l-4.7-6.56a1 1 0 0 1-.1-1l3.33-7.36a1 1 0 0 1 .82-.58ZM251.72 20.18l-3 1.22a.77.77 0 0 1-1.05-.69l-.34-12.78a.77.77 0 0 1 .48-.74l3-1.22a.76.76 0 0 1 1.05.69l.34 12.79a.76.76 0 0 1-.48.73Z"/>
  <path class="cls-12" d="m189.54 17.31 1.72-1.74a.58.58 0 0 0 .11-.63l-1-2.36c-.24-.56.39-1 1.06-.77l2.78 1a1 1 0 0 0 .78 0l2.32-1.19a1 1 0 0 1 1.36.7v2.39a.76.76 0 0 0 .37.61l2.44 1.68a.63.63 0 0 1-.22 1.21l-2.78.43a.66.66 0 0 0-.55.4l-.83 2.2c-.2.53-1.09.55-1.51 0l-1.71-2.12a1 1 0 0 0-.71-.36l-2.92-.27c-.7-.06-1.12-.76-.71-1.18Z"/>
  <path class="cls-11" d="m236.48 62.18 2.27-4.33a1.14 1.14 0 0 0-.86-1.67l-19-2.45a1.15 1.15 0 0 0-1.16.61l-2.27 4.33a1.14 1.14 0 0 0 .86 1.67l19 2.44a1.16 1.16 0 0 0 1.16-.6ZM223.58 30.61l2.92-2a.82.82 0 0 0 0-1.35l-11.17-8a.81.81 0 0 0-.94 0l-2.92 2a.84.84 0 0 0 0 1.36l11.17 8a.83.83 0 0 0 .94-.01Z"/>
  <path class="cls-12" d="M256.47 22.8c.15-1.13-.56-1.7-1.38-1.12l-5.45 3.85-5.45 3.85a2.4 2.4 0 0 0-.85 2.69l7.95 14.06c.55 1 2-.06 2.23-1.57Z"/>
  <path class="cls-9" d="M233.14 48.47c3.21.24 5.17-1.88 4.46-4.83a6.82 6.82 0 0 0-1.07-2.25c-.4-.57 0-1.12.67-.9a10.66 10.66 0 0 1 7 7.18c.94 3.86-1.64 6.81-6 6.48a11.43 11.43 0 0 1-8.62-5.62c-.32-.59.18-1.05.83-.77a8.54 8.54 0 0 0 2.73.71Z"/>
</svg>
