<svg width="535" height="212" viewBox="0 0 535 212" fill="none" xmlns="http://www.w3.org/2000/svg">
<path d="M267.14 210.48C414.082 210.48 533.203 163.729 533.203 106.06C533.203 48.39 414.082 1.63953 267.14 1.63953C120.198 1.63953 1.07764 48.39 1.07764 106.06C1.07764 163.729 120.198 210.48 267.14 210.48Z" stroke="#3241E0" stroke-width="2" stroke-miterlimit="10"/>
<path d="M267.14 210.48C367.949 210.48 449.671 163.729 449.671 106.06C449.671 48.39 367.949 1.63953 267.14 1.63953C166.331 1.63953 84.6089 48.39 84.6089 106.06C84.6089 163.729 166.331 210.48 267.14 210.48Z" stroke="#3241E0" stroke-width="2" stroke-miterlimit="10"/>
<path d="M267.14 210.48C335.951 210.48 391.734 163.729 391.734 106.06C391.734 48.39 335.951 1.63953 267.14 1.63953C198.329 1.63953 142.546 48.39 142.546 106.06C142.546 163.729 198.329 210.48 267.14 210.48Z" stroke="#3241E0" stroke-width="2" stroke-miterlimit="10"/>
<path d="M267.14 210.48C297.74 210.48 322.546 163.729 322.546 106.06C322.546 48.39 297.74 1.63953 267.14 1.63953C236.54 1.63953 211.734 48.39 211.734 106.06C211.734 163.729 236.54 210.48 267.14 210.48Z" stroke="#3241E0" stroke-width="2" stroke-miterlimit="10"/>
<path d="M267.14 210.48C400.413 210.48 508.453 163.729 508.453 106.06C508.453 48.39 400.413 1.63953 267.14 1.63953C133.867 1.63953 25.8276 48.39 25.8276 106.06C25.8276 163.729 133.867 210.48 267.14 210.48Z" stroke="#3241E0" stroke-width="2" stroke-miterlimit="10"/>
<path d="M267.14 1.63953V210.48" stroke="#3241E0" stroke-width="2" stroke-miterlimit="10"/>
</svg>
