<svg width="320" height="62" viewBox="0 0 320 62" fill="none" xmlns="http://www.w3.org/2000/svg">
<rect x="0.5" y="0.5" width="319" height="61" rx="7.5" fill="#F2F3F4"/>
<g clip-path="url(#clip0_167_15064)">
<path d="M19.56 27.28V23.248H16.092L16.332 24.772H17.772V26.248C17.436 26.416 17.112 26.512 16.656 26.512C15.228 26.512 14.508 25.42 14.508 23.86C14.508 22.312 15.204 21.256 16.632 21.256C17.484 21.256 18.216 21.568 18.84 21.964L19.116 20.176C18.456 19.804 17.604 19.564 16.584 19.564C14.028 19.564 12.456 21.304 12.456 23.872C12.456 26.428 13.908 28.156 16.536 28.156C17.676 28.156 18.696 27.844 19.56 27.28ZM28.5437 23.848C28.5437 21.292 26.9957 19.564 24.5957 19.564C22.1957 19.564 20.6357 21.304 20.6357 23.872C20.6357 26.428 22.1957 28.156 24.5717 28.156C26.9837 28.156 28.5437 26.404 28.5437 23.848ZM26.4797 23.86C26.4797 25.504 25.7837 26.548 24.5837 26.548C23.3957 26.548 22.6877 25.504 22.6877 23.86C22.6877 22.216 23.3957 21.172 24.5837 21.172C25.7837 21.172 26.4797 22.216 26.4797 23.86ZM34.8795 28.084L36.9555 27.748L34.0755 19.684H31.8195L28.8435 28H30.8595L31.4115 26.284H34.2795L34.8795 28.084ZM32.8395 21.796L33.7635 24.676H31.9035L32.8395 21.796ZM42.7413 28L42.4653 26.224H39.9213V19.72H37.8693V28H42.7413ZM45.5527 24.16V22.12H43.6087V24.16H45.5527ZM45.5527 28V25.96H43.6087V28H45.5527ZM54.3194 28L54.0434 26.224H51.4994V19.72H49.4474V28H54.3194ZM61.7616 19.72H59.6256L57.8376 25.444L55.9536 19.636L53.7576 19.972L56.6136 28.048H58.8216L61.7616 19.72ZM67.5382 28L67.2622 26.224H64.7182V19.72H62.6662V28H67.5382ZM74.3453 28V19.876H72.5573L70.4813 20.836L70.7093 22.396L72.3293 21.76V28H74.3453Z" fill="#060607"/>
<path d="M253.633 23.944C253.633 21.232 252.289 19.732 250.273 19.732C248.245 19.732 246.889 21.232 246.889 23.944C246.889 26.656 248.245 28.156 250.273 28.156C252.289 28.156 253.633 26.656 253.633 23.944ZM251.653 23.944C251.653 25.672 251.209 26.632 250.273 26.632C249.337 26.632 248.881 25.672 248.881 23.944C248.881 22.216 249.337 21.256 250.273 21.256C251.209 21.256 251.653 22.216 251.653 23.944ZM259.962 19.936L258.462 19.612L253.302 29.2L254.802 29.524L259.962 19.936ZM260.367 28H266.091L265.839 26.404H262.779L264.399 24.844C265.383 23.908 265.935 23.188 265.935 22.084C265.935 20.632 264.903 19.756 263.235 19.756C262.095 19.756 261.243 20.092 260.547 20.56L260.787 22.264C261.483 21.76 262.215 21.436 262.935 21.436C263.595 21.436 263.979 21.748 263.979 22.3C263.979 22.84 263.703 23.224 263.163 23.776L260.367 26.572V28ZM275.181 25.576C275.181 24.484 274.557 23.86 273.633 23.584C274.377 23.272 274.821 22.708 274.821 21.868C274.821 20.596 273.969 19.72 272.145 19.72H270.141V28H272.121C274.029 28 275.181 27.232 275.181 25.576ZM273.717 21.904C273.717 22.72 273.129 23.2 272.037 23.2H271.245V20.68H272.121C273.249 20.68 273.717 21.148 273.717 21.904ZM274.077 25.6C274.077 26.56 273.393 27.04 272.205 27.04H271.245V24.124H272.169C273.405 24.124 274.077 24.64 274.077 25.6ZM281.492 25.144C281.492 23.26 280.364 22.156 278.828 22.156C277.304 22.156 276.2 23.26 276.2 25.144C276.2 27.028 277.304 28.12 278.828 28.12C280.364 28.12 281.492 27.028 281.492 25.144ZM280.412 25.144C280.412 26.344 279.884 27.232 278.828 27.232C277.82 27.232 277.28 26.32 277.28 25.144C277.28 23.944 277.796 23.044 278.828 23.044C279.86 23.044 280.412 23.968 280.412 25.144ZM287.82 25.144C287.82 23.26 286.692 22.156 285.156 22.156C283.632 22.156 282.528 23.26 282.528 25.144C282.528 27.028 283.632 28.12 285.156 28.12C286.692 28.12 287.82 27.028 287.82 25.144ZM286.74 25.144C286.74 26.344 286.212 27.232 285.156 27.232C284.148 27.232 283.608 26.32 283.608 25.144C283.608 23.944 284.124 23.044 285.156 23.044C286.188 23.044 286.74 23.968 286.74 25.144ZM293.176 26.404C293.176 25.312 292.54 24.904 291.124 24.544C290.224 24.316 289.936 24.1 289.936 23.716C289.936 23.308 290.272 23.056 290.92 23.056C291.52 23.056 292.156 23.26 292.66 23.548L292.828 22.54C292.288 22.3 291.652 22.156 290.944 22.156C289.696 22.156 288.928 22.828 288.928 23.74C288.928 24.76 289.468 25.168 290.812 25.504C291.844 25.756 292.168 25.948 292.168 26.476C292.168 26.956 291.736 27.232 291.004 27.232C290.224 27.232 289.528 26.944 288.988 26.572L288.832 27.58C289.324 27.856 290.164 28.12 290.92 28.12C292.396 28.12 293.176 27.448 293.176 26.404ZM297.236 28.024L297.092 27.112C296.96 27.136 296.792 27.148 296.6 27.148C296 27.148 295.808 26.86 295.808 26.392V23.176H297.188L297.044 22.276H295.808V20.212L294.764 20.368V22.276H293.9V23.176H294.764V26.584C294.764 27.736 295.424 28.096 296.432 28.096C296.804 28.096 297.056 28.06 297.236 28.024ZM302.527 26.404C302.527 25.312 301.891 24.904 300.475 24.544C299.575 24.316 299.287 24.1 299.287 23.716C299.287 23.308 299.623 23.056 300.271 23.056C300.871 23.056 301.507 23.26 302.011 23.548L302.179 22.54C301.639 22.3 301.003 22.156 300.295 22.156C299.047 22.156 298.279 22.828 298.279 23.74C298.279 24.76 298.819 25.168 300.163 25.504C301.195 25.756 301.519 25.948 301.519 26.476C301.519 26.956 301.087 27.232 300.355 27.232C299.575 27.232 298.879 26.944 298.339 26.572L298.183 27.58C298.675 27.856 299.515 28.12 300.271 28.12C301.747 28.12 302.527 27.448 302.527 26.404Z" fill="#4F5660"/>
</g>
<rect x="12" y="44" width="296" height="5.28572" rx="2.64286" fill="#E3E5E8"/>
<rect x="0.5" y="0.5" width="319" height="61" rx="7.5" stroke="#EBEDEF"/>
<defs>
<clipPath id="clip0_167_15064">
<rect width="291" height="20" fill="white" transform="translate(12 12)"/>
</clipPath>
</defs>
</svg>
