<?xml version="1.0" encoding="UTF-8"?><svg id="art" xmlns="http://www.w3.org/2000/svg" viewBox="0 0 125.5 89.03"><defs><style>.cls-1{fill:none;stroke:#000;stroke-miterlimit:10;stroke-width:3px;}.cls-2{fill:#f47521;}.cls-3,.cls-4{fill:#fff;}.cls-5{fill:#ff78b8;}.cls-6{fill:#8088ff;}.cls-7{fill:#5865f0;}.cls-8{fill:#3442d7;}.cls-4{opacity:.75;}.cls-4,.cls-9{isolation:isolate;}.cls-9{opacity:.5;}</style></defs><g><path class="cls-5" d="M85.69,7.03h30.35c5.22,0,9.46,4.24,9.46,9.46h0c0,5.22-4.24,9.46-9.46,9.46h-30.35c-5.22,0-9.46-4.24-9.46-9.46h0c0-5.22,4.24-9.46,9.46-9.46Z"/><circle class="cls-4" cx="85.7" cy="16.49" r="4.35"/><circle class="cls-3" cx="100.87" cy="16.49" r="4.35"/><circle class="cls-4" cx="116.04" cy="16.49" r="4.35"/></g><path class="cls-6" d="M67.63,88.06c-11.3,0-28.49-11.5-43.45-30.07C5.37,34.63-1.76,10.2,7.96,2.38,12.79-1.51,20.85-.62,30.64,4.9c9.36,5.28,19.38,14.22,28.2,25.18,18.81,23.36,25.94,47.79,16.22,55.61h0c-1.99,1.6-4.51,2.37-7.43,2.37ZM15.42,3.12c-2.24,0-4.11,.56-5.51,1.69-8.08,6.5-.43,29.96,16.69,51.23,17.12,21.26,38.41,33.73,46.49,27.23h0c8.08-6.5,.43-29.96-16.69-51.23-8.58-10.65-18.27-19.32-27.3-24.42-5.28-2.98-9.99-4.5-13.68-4.5Z"/><rect class="cls-7" x="41.5" y="31.03" width="68" height="42.89" rx="7.6" ry="7.6"/><line class="cls-1" x1="53.77" y1="73.93" x2="53.77" y2="31.37"/><path class="cls-8" d="M55.5,31.03h-6.4c-4.2,0-7.6,3.4-7.6,7.6v27.7c0,4.2,3.4,7.6,7.6,7.6h6.4V31.03Z"/><path class="cls-9" d="M49.1,31.03c-4.2,0-7.6,3.4-7.6,7.6v22.29h22.4c4.2,0,7.6-3.4,7.6-7.6V31.03h-22.4Z"/><rect class="cls-2" y="14.53" width="68" height="42.89" rx="7.6" ry="7.6"/><path class="cls-3" d="M95.51,47.23c-1.41-.64-2.89-1.1-4.42-1.36-.21,.37-.4,.76-.57,1.15-1.63-.25-3.28-.25-4.91,0-.17-.39-.36-.78-.57-1.15-1.53,.26-3.01,.72-4.42,1.36-2.8,4.14-3.56,8.18-3.18,12.16h0c1.64,1.21,3.47,2.13,5.42,2.72,.44-.59,.83-1.22,1.16-1.87-.63-.24-1.25-.53-1.83-.87,.15-.11,.3-.23,.45-.34,3.43,1.61,7.41,1.61,10.84,0,.15,.12,.3,.23,.45,.34-.58,.34-1.2,.64-1.83,.87,.33,.66,.72,1.28,1.16,1.87,1.95-.59,3.79-1.51,5.43-2.72h0c.44-4.61-.76-8.61-3.19-12.16h.01Zm-11,9.71c-1.06,0-1.93-.96-1.93-2.14s.84-2.15,1.93-2.15,1.95,.97,1.93,2.15-.85,2.14-1.93,2.14Zm7.12,0c-1.06,0-1.93-.96-1.93-2.14s.84-2.15,1.93-2.15,1.94,.97,1.93,2.15-.85,2.14-1.93,2.14Z"/><path d="M.09,21.03H67.91c-.53-3.67-3.69-6.5-7.51-6.5H7.6C3.78,14.53,.62,17.36,.09,21.03Z"/><g><circle class="cls-3" cx="28.5" cy="5.03" r="4"/><path class="cls-8" d="M28.5,10.03c-2.76,0-5-2.24-5-5S25.74,.03,28.5,.03s5,2.24,5,5-2.24,5-5,5Zm0-8c-1.65,0-3,1.35-3,3s1.35,3,3,3,3-1.35,3-3-1.35-3-3-3Z"/></g><g><circle class="cls-3" cx="59.5" cy="85.03" r="3"/><path class="cls-2" d="M59.5,89.03c-2.21,0-4-1.79-4-4s1.79-4,4-4,4,1.79,4,4-1.79,4-4,4Zm0-6c-1.1,0-2,.9-2,2s.9,2,2,2,2-.9,2-2-.9-2-2-2Z"/></g><g><path class="cls-3" d="M44.41,38.03c0-5.7-4.7-10.3-10.3-10.3s-10.3,4.6-10.3,10.3,4.7,10.3,10.3,10.3h.7c-4.7-.3-8.5-4.2-8.5-9.1s4.1-9.1,9.1-9.1,8.7,3.7,9,8.4c0-.1,0-.3,0-.5Z"/><path class="cls-3" d="M39.31,34.15c-1-.47-2.2-.75-3.3-.75-4,0-7.3,3.1-7.3,6.87s3.3,6.87,7.3,6.87,7.3-3.1,7.3-6.87c0-.38-.1-.85-.1-1.22-.6,.75-1.5,1.22-2.6,1.22-1.8,0-3.3-1.41-3.3-3.1-.2-1.41,.7-2.45,2-3.01Z"/></g></svg>