<svg width="48" height="52" viewBox="0 0 48 52" fill="none" xmlns="http://www.w3.org/2000/svg">
<circle cx="25" cy="29" r="16" fill="#18191C"/>
<path d="M27.3334 31.5029H19.5557V33.0585H27.3334V31.5029Z" fill="#B9BBBE"/>
<path d="M31.5823 28.5133L26.9732 21.2707C26.743 20.9098 26.3681 20.9098 26.1379 21.2707L21.5288 28.5133C21.2986 28.8734 21.4557 29.2273 21.878 29.2966L29.6768 30.597C30.0999 30.667 30.4444 31.0753 30.4444 31.5031V33.8364H18V36.9476H19.5556V36.1698H27.3333V36.9476H28.8889V35.392H31.2222C31.65 35.392 32 35.042 32 34.6142V29.9476C32 29.5198 31.8126 28.8742 31.5823 28.5133Z" fill="#B9BBBE"/>
<path d="M41.1571 48.751L40.0563 51.0603C39.8246 51.5799 40.346 52.1572 40.9254 51.9263L43.2428 50.8293C43.4166 50.7716 43.5904 50.7716 43.7642 50.8293L46.0817 51.9263C46.6031 52.1572 47.1825 51.6376 46.9507 51.0603L45.85 48.751C45.792 48.5778 45.792 48.4046 45.85 48.2314L46.9507 45.9221C47.1825 45.4025 46.6611 44.8252 46.0817 45.0561L43.7642 46.153C43.5904 46.2108 43.4166 46.2108 43.2428 46.153L40.9254 45.0561C40.4039 44.8252 39.8246 45.3448 40.0563 45.9221L41.1571 48.2314C41.273 48.4046 41.273 48.5778 41.1571 48.751Z" fill="#7CE2C2"/>
<path d="M5.70919 5.45409L5.61835 5.54035C5.34579 5.79915 4.99155 5.78998 4.73275 5.51742L3.61127 4.33634C3.35247 4.06378 3.36164 3.70954 3.63419 3.45074L3.72504 3.36448C3.99759 3.10568 4.35183 3.11485 4.61064 3.38741L5.73212 4.56849C5.99092 4.84104 5.98175 5.19528 5.70919 5.45409Z" fill="#7984F5"/>
<path d="M10.6264 10.6328L10.5356 10.7191C10.263 10.9779 9.90879 10.9687 9.64999 10.6961L8.52851 9.51505C8.2697 9.2425 8.27887 8.88826 8.55143 8.62945L8.64227 8.54319C8.91483 8.28439 9.26907 8.29356 9.52787 8.56612L10.6494 9.7472C10.9082 10.0198 10.899 10.374 10.6264 10.6328Z" fill="#7984F5"/>
<path d="M8.7156 5.70918L8.62934 5.61832C8.37053 5.34577 8.3797 4.99153 8.65226 4.73272L9.83334 3.61124C10.1059 3.35244 10.4601 3.36161 10.7189 3.63417L10.8052 3.72502C11.064 3.99757 11.0548 4.35182 10.7823 4.61062L9.6012 5.7321C9.4195 5.90464 8.97441 5.98173 8.7156 5.70918Z" fill="#7984F5"/>
<path d="M3.53689 10.6264L3.45063 10.5356C3.19182 10.263 3.20099 9.90876 3.47355 9.64996L4.65463 8.52848C4.92719 8.26968 5.28143 8.27885 5.54023 8.5514L5.6265 8.64225C5.8853 8.91481 5.87613 9.26905 5.60358 9.52785L4.42249 10.6493C4.24079 10.8219 3.7957 10.899 3.53689 10.6264Z" fill="#7984F5"/>
</svg>
