<?xml version="1.0" encoding="UTF-8"?>
<svg viewBox="0 0 88 60" xmlns="http://www.w3.org/2000/svg">
<rect x="16" y="2" width="56" height="56" rx="28" fill="#202225"/>
<path d="m46.4 18.795v5.6879c0 1.7254 1.3926 3.1176 3.1185 3.1176h5.6894c0.7023 0 1.0593-0.8448 0.5594-1.3446l-8.0223-8.0202c-0.4999-0.4998-1.345-0.1547-1.345 0.5593zm3.0913 11.24c-3.0511 0-5.5278-2.4768-5.5278-5.5278v-6.4372h-9.572c-1.3162 0-2.393 1.0768-2.393 2.393v19.144c0 1.3161 1.0768 2.393 2.393 2.393h19.144c1.3162 0 2.393-1.0769 2.393-2.393v-9.572h-6.4372zm-3.0917 2.6306c0 1.3254-1.0745 2.3998-2.3999 2.3998-1.3253 0-2.3998-1.0744-2.3998-2.3998h-1.5999c0 2.209 1.7908 3.9997 3.9997 3.9997 2.209 0 3.9998-1.7907 3.9998-3.9997h-1.5999zm-9.0658 1.3332c0 0.7363-0.5969 1.3333-1.3332 1.3333-0.7364 0-1.3333-0.597-1.3333-1.3333s0.5969-1.3332 1.3333-1.3332c0.7363 0 1.3332 0.5969 1.3332 1.3332zm14.666 1.3333c0.7364 0 1.3333-0.597 1.3333-1.3333s-0.5969-1.3332-1.3333-1.3332c-0.7363 0-1.3332 0.5969-1.3332 1.3332s0.5969 1.3333 1.3332 1.3333z" clip-rule="evenodd" fill="#B9BBBE" fill-rule="evenodd"/>
<path d="m83.003 1.0838c0-0.59857-0.4852-1.0838-1.0838-1.0838s-1.0838 0.48523-1.0838 1.0838v1.1019c0 0.59856 0.4852 1.0838 1.0838 1.0838s1.0838-0.48524 1.0838-1.0838v-1.1019z" fill="#B377F3"/>
<path d="m83.003 9.8143c0-0.59857-0.4852-1.0838-1.0838-1.0838s-1.0838 0.48523-1.0838 1.0838v1.1018c0 0.5986 0.4852 1.0838 1.0838 1.0838s1.0838-0.4852 1.0838-1.0838v-1.1018z" fill="#B377F3"/>
<path d="m86.916 7.1053c0.5986 0 1.0838-0.48523 1.0838-1.0838 0-0.59856-0.4852-1.0838-1.0838-1.0838h-1.1018c-0.5986 0-1.0838 0.48524-1.0838 1.0838 0 0.59857 0.4852 1.0838 1.0838 1.0838h1.1018z" fill="#B377F3"/>
<path d="m78.186 7.0453c0.5986 0 1.0838-0.48523 1.0838-1.0838 0-0.59856-0.4852-1.0838-1.0838-1.0838h-1.1018c-0.5986 0-1.0838 0.48523-1.0838 1.0838 0 0.59857 0.4852 1.0838 1.0838 1.0838h1.1018z" fill="#B377F3"/>
<path d="m8.3626 55.843 3.1234-1.0417c0.1534-0.0703 0.2834-0.1832 0.3745-0.3252 0.0911-0.1421 0.1395-0.3073 0.1395-0.4761s-0.0484-0.334-0.1395-0.4761c-0.0911-0.142-0.2211-0.2549-0.3745-0.3252l-3.1234-1.0417c-0.21336-0.0964-0.38423-0.2673-0.48054-0.4808l-1.1212-3.1251c-0.05266-0.1603-0.15458-0.2999-0.2912-0.3989-0.13662-0.0989-0.30098-0.1522-0.46965-0.1522-0.16866 0-0.33301 0.0533-0.46963 0.1522-0.13662 0.099-0.23854 0.2386-0.2912 0.3989l-1.1212 3.1251c-0.09631 0.2135-0.26718 0.3844-0.48054 0.4808l-3.1234 1.0417c-0.15336 0.0703-0.28331 0.1832-0.37442 0.3252-0.091109 0.1421-0.13953 0.3073-0.13953 0.4761s0.048425 0.334 0.13953 0.4761c0.091109 0.142 0.22107 0.2549 0.37442 0.3252l3.1234 1.0417c0.11344 0.0344 0.21664 0.0963 0.30046 0.1802 0.08382 0.0838 0.14567 0.1871 0.18008 0.3006l1.1212 3.1251c0.05266 0.1603 0.15458 0.2999 0.2912 0.3989 0.13662 0.0989 0.30097 0.1522 0.46963 0.1522 0.16867 0 0.33303-0.0533 0.46965-0.1522 0.13662-0.099 0.23854-0.2386 0.2912-0.3989l1.1212-3.1251c0.03441-0.1135 0.09627-0.2168 0.18008-0.3006 0.08382-0.0839 0.18702-0.1458 0.30046-0.1802z" fill="#FF73FA"/>
</svg>
