<svg width="297" height="237" fill="none" xmlns="http://www.w3.org/2000/svg"><g clip-path="url(#a)"><path opacity=".21" d="M251.6 164.4h-5.2c-9.2-.1-16.6-7.5-16.6-16.7-.1-9.1-7.5-16.5-16.6-16.5h-35.4c-6.3 0-11.4 5.1-11.4 11.4 0 6.3-5.1 11.4-11.4 11.4h-27.8c-15.9 0-28.7 12.8-28.7 28.7v2.1c0 11.1-9 20.1-20.1 20.1h-8c-13.8 0-26.8 6.8-34.7 18.1l-9.5 13.6H289c4.4 0 8-3.6 8-8v-18.9c0-25-20.3-45.3-45.4-45.3z" fill="#547DF0"/><path d="m215.4 213.7-7 .9-.2 22.1H222l-6.6-23z" fill="#FF78B9"/><path d="M271.2 236.7h-86.7c0-7.6 6.5-13.7 14.6-13.7h15.8c1.4 0 2.5-1 2.5-2.4 0-9.2 7.9-16.7 17.7-16.7h.7c9.8 0 17.7 7.5 17.7 16.7v5c.1 2.7 2.4 4.8 5.1 4.8h5.8c3.6-.2 6.7 2.7 6.8 6.3z" fill="#fff" fill-opacity=".4"/><path d="M202 38.3h64c-.1-6.4-5.3-11.6-11.8-11.6h-6.8c-1.1 0-2-.9-2-2-.1-7.8-6.5-14.1-14.3-14.1h-.6c-7.8-.1-14.2 6.2-14.3 14.1v4.2c0 2.2-1.9 4-4.1 4h-4.7c-2.9 0-5.3 2.4-5.4 5.4zM33.5 157c0-4.7-3.4-8.6-7.6-8.6H18c-4.2 0-7.6 3.8-7.6 8.6 0 .9-.6 1.7-1.5 1.7H6.5C2.9 158.7 0 162 0 166h44c0-3.2-2.3-5.9-5.2-5.9h-2.4c-1.7 0-3-1.4-2.9-3.1 0 .1 0 0 0 0zm100.4 70.7c0-4.7-3.4-8.6-7.6-8.6h-7.9c-4.2 0-7.6 3.8-7.6 8.6 0 .9-.6 1.7-1.5 1.7h-2.4c-3.6 0-6.5 3.3-6.5 7.3h44c0-3.2-2.3-5.9-5.2-5.9h-2.4c-1.7 0-3-1.4-2.9-3.1zM128 17.2H84c.1-4 3.4-7.1 7.4-7h8c.7 0 1.3-.5 1.3-1.2.1-4.8 4.2-8.6 9-8.5h.4c4.8-.2 8.8 3.6 9 8.5v2.5c0 1.4 1.2 2.5 2.6 2.4h2.9c1.8-.1 3.3 1.3 3.4 3.3 0-.1 0-.1 0 0z" fill="#fff" fill-opacity=".2"/><path fill-rule="evenodd" clip-rule="evenodd" d="m196.8 49.3 107.3-39.2-18 35.2c-3.5 6.9-9.5 12.2-16.7 14.8L184 91.4l-3-8.1 15.8-34z" fill="#DAE2ED"/><path fill-rule="evenodd" clip-rule="evenodd" d="M172.2 45.7 314.8-6.4c.6-.2 1.2.1 1.4.6.1.3.1.6 0 .8l-5.5 11.1c-.6 1.3-1.7 2.2-3 2.7l-3.5 1.3-107.4 39.2-15.8 34 2.9 8.1 2.2 6.1-35.9 13.1-5.2-14.2 21-45.1c1.3-2.6 3.5-4.6 6.2-5.6z" fill="#ECEFF6"/><path fill-rule="evenodd" clip-rule="evenodd" d="m181.1 83.3 15.8-34 107.3-39.2-3.6 7.1-99.9 36.5-14.6 31.5 1.8 4.8-3.8 1.3-3-8z" fill="#C5CEDD"/><path fill-rule="evenodd" clip-rule="evenodd" d="M141 80.4c-16.2 34.3-1.6 75.2 32.7 91.5 34.3 16.3 75.2 1.6 91.5-32.7 16.3-34.3 1.6-75.2-32.7-91.5-34.4-16-75.2-1.4-91.5 32.7z" fill="#4F5D7F"/><path fill-rule="evenodd" clip-rule="evenodd" d="M162.7 90.8c-10.5 22.3-1 48.9 21.3 59.4s48.9 1 59.4-21.3 1-48.9-21.3-59.4c-22.2-10.4-48.7-.9-59.4 21.3z" fill="#7687B2"/><path fill-rule="evenodd" clip-rule="evenodd" d="M157.2 55.5c-.1 10.5 27.5 36.2 45.6 50.4 16.7.1 58.1-1.6 67.8-11.1.9-.8 1.5-1.9 1.6-3.1 0-.4-.1-.8-.2-1.2-5.8-20.7-19.4-37-38.2-45.9-23.7-11.3-51.9-8.1-75.5 8.5-.7.5-1.1 1.4-1.1 2.4z" fill="#FF7F14"/><path fill-rule="evenodd" clip-rule="evenodd" d="M201.6 109.4s66-39.6 59.3-47.8c-6.9-8.5-15.7-15.4-25.6-20.1-26.7-12.7-56.2-7.2-78.9 8.8-16 11.3 45.2 59.1 45.2 59.1z" fill="#FF903E"/><path fill-rule="evenodd" clip-rule="evenodd" d="M168.9 93.7c-8.9 18.9-.9 41.4 18 50.3 18.9 8.9 41.4.9 50.3-18 8.9-18.9.9-41.4-18-50.3-18.9-8.8-41.3-.8-50.3 18z" fill="#EBEFF7"/><path fill-rule="evenodd" clip-rule="evenodd" d="M174.4 96.3c-7.5 15.9-.7 34.8 15.1 42.3 15.8 7.5 34.8.7 42.3-15.1 7.5-15.8.7-34.8-15.1-42.3-15.9-7.5-34.8-.7-42.3 15.1z" fill="#DAE2ED"/><path fill-rule="evenodd" clip-rule="evenodd" d="m222 96.4-17.2-10.3c-1.1-.6-2.4-.6-3.4 0l-17.5 9.8c-1.1.6-1.8 1.8-1.8 3l-.2 20.1c0 1.2.6 2.4 1.7 3l17.2 10.3c1.1.6 2.4.6 3.4 0l17.5-9.9c1.1-.6 1.8-1.8 1.8-3l.2-20.1c0-1.1-.7-2.3-1.7-2.9z" fill="#C5CEDD"/><path fill-rule="evenodd" clip-rule="evenodd" d="M193.1 105.2c-2.6 5.5-.2 12 5.3 14.6 5.5 2.6 12 .2 14.6-5.3 2.6-5.5.2-12-5.2-14.6-5.5-2.5-12.1-.2-14.7 5.3z" fill="#B7C2CE"/><path fill-rule="evenodd" clip-rule="evenodd" d="M117.4 174.8h6c1.5 0 2.8 1.2 2.8 2.8v12.5c-.1 3.4 2.5 6.3 6 6.5 3.5.2 6.3-2.5 6.5-6v-53.1c0-3.8-3-7-6.9-7h-21.3c-3.8 0-6.9 3.1-6.9 6.9v23.5c-.1 7.7 6.1 13.9 13.8 13.9zM103 108.3h12v13.2h-11.8c.1-4.3.1-8.8-.2-13.2z" fill="#7196FF"/><path fill-rule="evenodd" clip-rule="evenodd" d="M107.3 137.1h50.6c.6 0 1.1-.5 1.1-1.1 0-.6-.5-1.1-1.1-1.1h-50.6c-.6 0-1.1-.5-1.1-1.1v-8.1c0-.6-.5-1.1-1.1-1.1-.6 0-1.1.5-1.1 1.1v8.1c.1 1.8 1.5 3.3 3.3 3.3z" fill="#E4E9F7"/><path fill-rule="evenodd" clip-rule="evenodd" d="M101.4 130.6h7.5c.6 0 1.1-.5 1.1-1.1v-23.2c0-.6-.5-1.1-1.1-1.1h-7.5c-.6 0-1.1.5-1.1 1.1v23.2c0 .6.4 1.1 1.1 1.1-.1 0-.1 0 0 0z" fill="#000"/><path fill-rule="evenodd" clip-rule="evenodd" d="M103.1 108.3h-4.4c-.6 0-1.1.5-1.1 1.1v11.1c0 .6.5 1.1 1.1 1.1h4.1c3.3 0 6.1-2.3 6.7-5.5.6-3.6-1.8-7-5.4-7.7-.3 0-.7-.1-1-.1z" fill="#7196FF"/><path fill-rule="evenodd" clip-rule="evenodd" d="M126.1 130.6h7.5c.6 0 1.1-.5 1.1-1.1v-23.2c0-.6-.5-1.1-1.1-1.1h-7.5c-.6 0-1.1.5-1.1 1.1v23.2c0 .6.5 1.1 1.1 1.1z" fill="#000"/><path fill-rule="evenodd" clip-rule="evenodd" d="M109.4 113.4c5.7-7.8 14.8-12.5 24.5-12.5h41c10 .1 18.1 8.2 18.1 18.3v33.6c0 6.7-5.4 12.2-12.1 12.2h-59.1c-10.1-.1-18.2-8.2-18.2-18.3v-15.3c-.1-6.5 2-12.8 5.8-18z" fill="#AEC7FF"/><path fill-rule="evenodd" clip-rule="evenodd" d="M162.5 100.9h12.3c10.1.1 18.2 8.2 18.2 18.3v29.2c0 6.7-5.4 12.2-12.1 12.2h-18.5c.3-19.8.3-39.8.1-59.7zm39 43.5 12.8 3.8c4.9 1.4 7.7 6.4 6.3 11.3-1.4 4.9-6.4 7.7-11.3 6.3-3.1-.9-5.5-3.2-6.3-6.3l-3.8-12.8c-.3-.9.2-2 1.1-2.3.4-.1.8-.1 1.2 0z" fill="#7196FF"/><path fill-rule="evenodd" clip-rule="evenodd" d="M171.8 174.8h6c1.5 0 2.8 1.2 2.8 2.8v12.5c-.1 3.4 2.5 6.3 6 6.5 3.4.1 6.3-2.5 6.5-6v-62.9c0-3.8-3.1-7-6.9-7H165c-3.8 0-6.9 3.2-6.9 7v33.2c-.2 7.7 6 13.9 13.7 13.9z" fill="#7196FF"/><path fill-rule="evenodd" clip-rule="evenodd" d="M132.1 137.1h50.6c.6 0 1.1-.5 1.1-1.1 0-.6-.5-1.1-1.1-1.1h-50.6c-.6 0-1.1-.5-1.1-1.1v-8.1c.1-.6-.4-1.1-1-1.2-.6-.1-1.1.4-1.2 1v8.3c0 1.8 1.5 3.2 3.3 3.3z" fill="#E4E9F7"/><path fill-rule="evenodd" clip-rule="evenodd" d="M126.1 130.6h7.5c.6 0 1.1-.5 1.1-1.1v-23.2c0-.6-.5-1.1-1.1-1.1h-7.5c-.6 0-1.1.5-1.1 1.1v23.2c0 .6.5 1.1 1.1 1.1z" fill="#000"/><path fill-rule="evenodd" clip-rule="evenodd" d="M125.8 108.3h24.7c4.1 0 7.4-3.3 7.4-7.4h15.5v32.2H158c-1.4-8.1-8.5-11.6-17-11.6h-15c-3.3 0-6.1-2.3-6.7-5.5-.6-3.6 1.8-7 5.4-7.7.3.1.7 0 1.1 0z" fill="#7196FF"/><path fill-rule="evenodd" clip-rule="evenodd" d="M182.6 101.3h-56.4c-10.1 0-18.3-8.2-18.3-18.3V49c.1-10.1 8.2-18.3 18.3-18.3h56.4c10.1 0 18.2 8.2 18.3 18.3v34c-.1 10.1-8.2 18.3-18.3 18.3z" fill="#80A7FF"/><path fill-rule="evenodd" clip-rule="evenodd" d="M170.7 101.3h-56.4c-10.1 0-18.3-8.2-18.3-18.4v-34c.1-10.1 8.2-18.2 18.3-18.3h56.4c10.1 0 18.3 8.2 18.3 18.3v34c0 10.2-8.2 18.4-18.3 18.4z" fill="#9CB8FF"/><path fill-rule="evenodd" clip-rule="evenodd" d="M195.4 78.8h-13.5v-33h13.5c6.7 0 12.2 5.5 12.2 12.2v8.6c0 6.7-5.5 12.2-12.2 12.2z" fill="#9CB8FF"/><path fill-rule="evenodd" clip-rule="evenodd" d="M181.9 71.4V53.1c0-.7.5-1.2 1.2-1.2h12.2c3.4 0 6.1 2.7 6.1 6.1v8.6c0 3.4-2.7 6.1-6.1 6.1h-12.2c-.6 0-1.2-.6-1.2-1.3 0 .1 0 0 0 0z" fill="#80A7FF"/><path fill-rule="evenodd" clip-rule="evenodd" d="M160.7 68.1c-3.3 0-6-2.7-6-6s2.7-6 6-6 6 2.7 6 6-2.7 6-6 6z" fill="#000"/><path fill-rule="evenodd" clip-rule="evenodd" d="M95.5 49H137c4 0 7.3 3.3 7.3 7.3v8.6c0 10.1-8.2 18.3-18.3 18.4h-19.5c-10.1 0-18.3-8.2-18.3-18.3v-8.6c0-4.1 3.3-7.4 7.3-7.4z" fill="#CBDAF7"/><path fill-rule="evenodd" clip-rule="evenodd" d="M117.5 83.3h-11c-10.1 0-18.3-8.2-18.3-18.3v-8.6c0-4 3.3-7.3 7.3-7.3h32.9c4 0 7.3 3.3 7.3 7.3V65c0 10-8.1 18.2-18.2 18.3z" fill="#CBDAF7"/><path fill-rule="evenodd" clip-rule="evenodd" d="M112.6 69.4h7.9c1.7.1 3 1.5 2.9 3.2-.1 1.6-1.3 2.8-2.9 2.9h-7.9c-1.7-.1-3-1.5-2.9-3.2.1-1.6 1.3-2.8 2.9-2.9zm-14.4 0h3c1.7.1 3 1.5 2.9 3.2-.1 1.6-1.3 2.8-2.9 2.9h-3c-1.7-.1-3-1.5-2.9-3.2.1-1.6 1.4-2.8 2.9-2.9z" fill="#9CB8FF"/><path fill-rule="evenodd" clip-rule="evenodd" d="M115.9 90.5H111c-1.1 0-2-.9-2-2s.9-2 2-2h4.9c1.1 0 2 .9 2 2s-.9 2-2 2z" fill="#80A7FF"/><path opacity=".4" fill-rule="evenodd" clip-rule="evenodd" d="M92.3 38.1s-17.6 26.3 1.3 56.6l10.7 6.2 69-3 16.8-22.4-16.8-44.9h-59l-22 7.5z" fill="#4871E5"/><path fill-rule="evenodd" clip-rule="evenodd" d="M147.3 13.3c40.2 0 62.4 27.2 62.4 49.7 0 22.5-26.3 24.5-32.5 8.6l-13-34.5-57.4 7.5-14.4-6.5c5.3-8.8 25.1-24.8 54.9-24.8z" fill="#EBEFF7"/><path fill-rule="evenodd" clip-rule="evenodd" d="m181.5 75.5-36.4 19.2H93.6l5 8.4h83.9l7.3-16.6-8.3-11z" fill="#EBEFF7"/><path fill-rule="evenodd" clip-rule="evenodd" d="m189.9 49.1 10.8 3.4 4.7-19.1c.6-2.4-.9-4.8-3.3-5.3-2.1-.5-4.3.6-5.1 2.6l-7.1 18.4z" fill="#DAE2ED"/><path fill-rule="evenodd" clip-rule="evenodd" d="m203.7 40.2-3 12.4-10.8-3.4 4.6-11.9c3 1 6.1 2 9.2 2.9zm-20.2 99.5 42 9.7 3.6-16-42-9.7-3.6 16z" fill="#B7C2CE"/><path fill-rule="evenodd" clip-rule="evenodd" d="m218.4 152.2 52.7 18.1c1 .4 2.1.2 3-.5 2.2-1.7 6.3-5.9 8.5-15.7 2.2-9.8.4-15.4-.9-17.8-.5-.9-1.4-1.6-2.5-1.7l-55.3-6.8c-1.1-.1-2.1.6-2.4 1.7l-4.5 20.2c-.2 1.1.4 2.1 1.4 2.5z" fill="#C5CEDD"/><path fill-rule="evenodd" clip-rule="evenodd" d="M233 137.1c-.3 1.4.6 2.8 1.9 3.1 1.4.3 2.8-.6 3.1-1.9.3-1.4-.6-2.8-1.9-3.1-1.4-.4-2.8.5-3.1 1.9zm12.2 1.7c-.3 1.4.6 2.8 1.9 3.1 1.4.3 2.8-.6 3.1-1.9.3-1.4-.6-2.8-1.9-3.1-1.4-.4-2.8.5-3.1 1.9-.1 0-.1 0 0 0z" fill="#B7C2CE"/><path fill-rule="evenodd" clip-rule="evenodd" d="m184 137 33.8 26.3 10-12.9L194 124l-10 13z" fill="#D0D9EA"/><path fill-rule="evenodd" clip-rule="evenodd" d="m210.3 162.8 40.3 38.7c.8.7 1.8 1.1 2.9.8 2.7-.6 8.2-2.7 14.3-10.6 6.1-7.9 6.8-13.8 6.7-16.5 0-1.1-.6-2-1.5-2.6l-47.3-29.5c-.9-.6-2.2-.4-2.8.5L210.3 160c-.9.8-.8 2.1 0 2.8z" fill="#EBEFF7"/><path fill-rule="evenodd" clip-rule="evenodd" d="M229.9 155.3c-.9 1.1-.7 2.7.5 3.6 1.1.9 2.7.7 3.6-.4.9-1.1.7-2.7-.4-3.6-1.3-.9-2.9-.7-3.7.4zm9.7 8c-.9 1.1-.7 2.7.5 3.6 1.1.9 2.7.7 3.6-.5.9-1.2.7-2.7-.5-3.6-1.2-.8-2.8-.6-3.6.5z" fill="#B7C2CE"/><path fill-rule="evenodd" clip-rule="evenodd" d="M173.7 69.6c1.5 12.4 11.2 21.5 21.7 20.2 10.5-1.3 17.7-12.4 16.1-24.9-1.6-12.5-11.2-21.4-21.6-20.2-10.4 1.2-17.7 12.5-16.2 24.9z" fill="#DAE2ED"/><path fill-rule="evenodd" clip-rule="evenodd" d="M181.6 68.9c1.1 8.8 8 15.3 15.4 14.4 7.4-.9 12.6-8.8 11.5-17.7-1.1-8.9-8-15.3-15.4-14.3s-12.6 8.8-11.5 17.6z" fill="#B7C2CE"/><path fill-rule="evenodd" clip-rule="evenodd" d="M185.9 68.5c.8 6.3 5.7 10.9 11 10.3 5.3-.6 9-6.3 8.2-12.7-.8-6.4-5.7-10.9-11-10.3-5.3.6-9 6.3-8.2 12.7z" fill="#FF903E"/><path fill-rule="evenodd" clip-rule="evenodd" d="m197.6 73.1 1.2-.5c.3-.1.5-.5.4-.9L195 61.1c-.1-.3-.5-.5-.9-.4l-1.2.5c-.3.1-.5.5-.4.9l4.2 10.5c.2.4.6.6.9.5z" fill="#FF7F14"/><path fill-rule="evenodd" clip-rule="evenodd" d="M183.4 147.4h13.9v-46.5H178V142c0 3 2.4 5.4 5.4 5.4z" fill="#000"/><path fill-rule="evenodd" clip-rule="evenodd" d="m243.1 49.3 107.3-39.2-18 35.2c-3.5 6.9-9.5 12.2-16.7 14.8l-85.4 31.2-3-8.1 15.8-33.9z" fill="#DAE2ED"/><path fill-rule="evenodd" clip-rule="evenodd" d="M218.5 45.7 361-6.4c.6-.2 1.2.1 1.4.6.1.3.1.6 0 .8l-5.5 11.1c-.6 1.3-1.7 2.2-3 2.7l-3.5 1.3-107.3 39.2-15.8 34 3 8.1 2.2 6.1-35.9 13.1-5.2-14.2 21-45.1c1.2-2.6 3.4-4.6 6.1-5.6z" fill="#ECEFF6"/><path fill-rule="evenodd" clip-rule="evenodd" d="m227.4 83.3 15.8-34 107.3-39.2-3.6 7.1L247 53.7l-14.6 31.5 1.8 4.8-3.8 1.4-3-8.1z" fill="#C5CEDD"/><path fill-rule="evenodd" clip-rule="evenodd" d="M351.2 5.8c1.1-.4 1.7-1.6 1.3-2.8-.4-1.1-1.6-1.7-2.8-1.3-1.1.4-1.7 1.6-1.3 2.8.4 1.2 1.6 1.7 2.8 1.3zM342.6 9c1.1-.4 1.7-1.6 1.3-2.8-.4-1.1-1.6-1.7-2.8-1.3-1.2.4-1.7 1.6-1.3 2.8.4 1.1 1.6 1.7 2.8 1.3zM220.1 53.7c1-.6 1.4-1.9.8-2.9-.5-.8-1.4-1.2-2.3-1.1-1.1.4-1.7 1.7-1.3 2.8.5 1.1 1.7 1.6 2.8 1.2z" fill="#DAE2ED"/><path fill-rule="evenodd" clip-rule="evenodd" d="M186 110.9h22.3c1.9 0 3.4-1.6 3.4-3.4v-12c0-1.9-1.5-3.4-3.4-3.4H186c-1.9 0-3.4 1.6-3.4 3.4v12c0 1.9 1.5 3.4 3.4 3.4z" fill="#FF5C5C"/><path fill-rule="evenodd" clip-rule="evenodd" d="M177.9 117h17.5c4.8 0 8.6-3.9 8.6-8.6V94.7c0-4.8-3.9-8.6-8.6-8.7h-17.5c-1.8 0-3.2 1.5-3.2 3.2v24.5c-.1 1.8 1.3 3.2 3.2 3.3-.1 0-.1 0 0 0z" fill="#D0D9EA"/><path fill-rule="evenodd" clip-rule="evenodd" d="m128.1 10 1 6.6c-5.4 4.4-10.2 9.5-14.1 15.2l-6-13.7c4.8-3.5 11.4-5.5 19.1-8.1z" fill="#FF7F14"/><path fill-rule="evenodd" clip-rule="evenodd" d="m115 31.8-6-13.7-5.1 13.7H115z" fill="#FF903E"/><path d="M212.1 215.7c-7.2 1-11.2-.2-14.3-2.8-.3-.3-.4-.7-.1-1.1.1-.2.3-.3.5-.3l26.3-3.5c.4-.1.8.2.8.6 0 .2 0 .4-.1.5-2.3 3.4-5.9 5.6-13.1 6.6z" fill="#fff"/><path d="M209.6 197c1.9-.3 3.7 1.1 4 3l.7 5.5-7 .9-.7-5.5c-.3-1.9 1.1-3.6 3-3.9z" fill="#83DDC5"/><path d="M210 200.3c.8-.1 1.5.5 1.6 1.2l.2 1.2c.1.8-.4 1.5-1.2 1.6-.8.1-1.5-.5-1.6-1.2l-.2-1.2c-.1-.8.5-1.5 1.2-1.6z" fill="#4F5D7F"/><path d="M210.5 203.7c-10 1.4-15 4.4-18.2 9-.4.4-.3 1 .1 1.4.3.2.6.3.9.2l36.7-5c.6 0 1-.5 1-1 0-.3-.2-.7-.5-.8-4.4-3.6-10-5.2-20-3.8z" fill="#EBEFF7"/><path d="M196.7 212.5a.7.7 0 1 0 .001-1.399.7.7 0 0 0-.001 1.399z" fill="#FFD836"/><path d="M201 211.9a.7.7 0 1 0 .001-1.399.7.7 0 0 0-.001 1.399z" fill="#AEC7FF"/><path d="M224.5 208.7a.7.7 0 1 0 .001-1.399.7.7 0 0 0-.001 1.399z" fill="#F47FFF"/><path opacity=".45" d="M211.3 222.3c.4-.7 1.3-.9 2-.4l.4.3c.7.4.9 1.3.4 2-.4.7-1.3.9-2 .4l-.4-.3c-.7-.5-.9-1.4-.4-2z" fill="#4762B0"/></g><defs><clipPath id="a"><path fill="#fff" d="M0 0h297v236.7H0z"/></clipPath></defs></svg>