<svg fill="none" height="64" viewBox="0 0 64 64" width="64" xmlns="http://www.w3.org/2000/svg"><path clip-rule="evenodd" d="m57 0c-.5523 0-1 .447715-1 1v2c0 .55228.4477 1 1 1s1-.44772 1-1v-2c0-.552285-.4477-1-1-1zm7 7c0-.55228-.4477-1-1-1h-2c-.5523 0-1 .44772-1 1s.4477 1 1 1h2c.5523 0 1-.44772 1-1zm-8 4c0-.5523.4477-1 1-1s1 .4477 1 1v2c0 .5523-.4477 1-1 1s-1-.4477-1-1zm-2-4c0-.55228-.4477-1-1-1h-2c-.5523 0-1 .44772-1 1s.4477 1 1 1h2c.5523 0 1-.44772 1-1z" fill="#58f287" fill-rule="evenodd"/><path d="m8.36261 59.843 3.12339-1.0417c.1534-.0703.2834-.1832.3745-.3252.0911-.1421.1395-.3073.1395-.4761s-.0484-.334-.1395-.4761c-.0911-.142-.2211-.2549-.3745-.3252l-3.12339-1.0417c-.21336-.0964-.38423-.2673-.48054-.4808l-1.12123-3.1251c-.05266-.1603-.15458-.2999-.2912-.3989-.13662-.0989-.30098-.1522-.46965-.1522-.16866 0-.33301.0533-.46963.1522-.13662.099-.23854.2386-.2912.3989l-1.12123 3.1251c-.09631.2135-.26718.3844-.48054.4808l-3.123433 1.0417c-.153355.0703-.283314.1832-.374423.3252-.0911093.1421-.139534.3073-.139534.4761s.0484247.334.139534.4761c.091109.142.221068.2549.374423.3252l3.123433 1.0417c.11344.0344.21664.0963.30046.1802.08382.0838.14567.1871.18008.3006l1.12123 3.1251c.05266.1603.15458.2999.2912.3989.13662.0989.30097.1522.46963.1522.16867 0 .33303-.0533.46965-.1522.13662-.099.23854-.2386.2912-.3989l1.12123-3.1251c.03441-.1135.09626-.2168.18008-.3006.08382-.0839.18702-.1458.30046-.1802z" fill="#ffd01a"/><circle cx="32" cy="32" fill="#202225" r="24"/><path d="m46.6673 29.3333v-8h-29.3333v8c1.4667 0 2.6667 1.2 2.6667 2.6667 0 1.4666-1.2 2.6666-2.6667 2.6666v8h29.3333v-8c-1.4666 0-2.6666-1.2-2.6666-2.6666 0-1.4667 1.2-2.6667 2.6666-2.6667zm-13.3333 8v2.6667h-2.6667v-2.6667h-2.6666v-2.6667h5.3333c.36 0 .6667-.2266.6667-.5066 0-1.3867-6.6667 0-6.6667-4.3334 0-1.7333 1.4933-3.16 3.3333-3.16v-2.6666h2.6667v2.6666h2.6667v2.6667h-5.3334c-.36 0-.6666.2267-.6666.5067 0 1.3866 6.6666 0 6.6666 4.3333 0 1.7333-1.4933 3.16-3.3333 3.16z" fill="#b9bbbe"/></svg>