<svg width="248" height="126" viewBox="0 0 248 126" fill="none" xmlns="http://www.w3.org/2000/svg" xmlns:xlink="http://www.w3.org/1999/xlink">
<path d="M27.1367 45.1124H27.0114C26.6356 45.1124 26.385 44.8618 26.385 44.486V42.8573C26.385 42.4814 26.6356 42.2309 27.0114 42.2309H27.1367C27.5125 42.2309 27.7631 42.4814 27.7631 42.8573V44.486C27.7631 44.8618 27.5125 45.1124 27.1367 45.1124Z" fill="white"/>
<path d="M27.1367 52.2536H27.0114C26.6355 52.2536 26.385 52.0031 26.385 51.6272V49.9985C26.385 49.6227 26.6355 49.3721 27.0114 49.3721H27.1367C27.5125 49.3721 27.7631 49.6227 27.7631 49.9985V51.6272C27.7631 52.0031 27.5125 52.2536 27.1367 52.2536Z" fill="white"/>
<path d="M29.1413 47.3675V47.2423C29.1413 46.8664 29.3919 46.6158 29.7677 46.6158H31.3964C31.7723 46.6158 32.0229 46.8664 32.0229 47.2423V47.3675C32.0229 47.7434 31.7723 47.994 31.3964 47.994H29.7677C29.5172 47.994 29.1413 47.7434 29.1413 47.3675Z" fill="white"/>
<path d="M22 47.3675V47.2423C22 46.8664 22.2506 46.6158 22.6264 46.6158H24.2551C24.631 46.6158 24.8816 46.8664 24.8816 47.2423V47.3675C24.8816 47.7434 24.631 47.994 24.2551 47.994H22.6264C22.3759 47.994 22 47.7434 22 47.3675Z" fill="white"/>
<path opacity="0.2" d="M35.8134 124.445H0V118.971C0 110.245 7.13099 103.105 15.8466 103.105H19.016C20.7591 103.105 22.1853 101.677 22.1853 99.9318V80.4957C22.1853 67.3267 32.8026 56.6963 45.9553 56.6963H87.8697C91.9105 56.6963 95.1591 53.4437 95.1591 49.3978V49.0805C95.1591 40.2747 102.29 33.2143 111.006 33.2143C123.842 33.2143 141.748 33.2143 154.584 33.2143C163.3 33.2143 170.431 40.3541 170.431 49.0805V80.813H204.422C228.509 80.813 248 100.328 248 124.445H35.8134Z" fill="#AEC7FF"/>
<path d="M228.225 90.4288H228C227.325 90.4288 226.875 89.9788 226.875 89.3038V86.3788C226.875 85.7038 227.325 85.2538 228 85.2538H228.225C228.9 85.2538 229.35 85.7038 229.35 86.3788V89.3038C229.35 89.9788 228.9 90.4288 228.225 90.4288Z" fill="#FF9A15"/>
<path d="M228.224 103.254H227.999C227.324 103.254 226.874 102.804 226.874 102.129V99.2037C226.874 98.5287 227.324 98.0787 227.999 98.0787H228.224C228.899 98.0787 229.349 98.5287 229.349 99.2037V102.129C229.349 102.804 228.899 103.254 228.224 103.254Z" fill="#FF9A15"/>
<path d="M231.826 94.4789V94.2539C231.826 93.5789 232.276 93.1289 232.951 93.1289H235.876C236.551 93.1289 237.001 93.5789 237.001 94.2539V94.4789C237.001 95.1539 236.551 95.6039 235.876 95.6039H232.951C232.501 95.6039 231.826 95.1539 231.826 94.4789Z" fill="#FF9A15"/>
<path d="M219 94.4788V94.2538C219 93.5788 219.45 93.1288 220.125 93.1288H223.05C223.725 93.1288 224.175 93.5788 224.175 94.2538V94.4788C224.175 95.1538 223.725 95.6038 223.05 95.6038H220.125C219.675 95.6038 219 95.1538 219 94.4788Z" fill="#FF9A15"/>
<path d="M15.7514 84.9082L14.0853 88.4035C13.7345 89.1899 14.5237 90.0637 15.4006 89.7142L18.9082 88.0539C19.1713 87.9666 19.4344 87.9666 19.6974 88.0539L23.205 89.7142C23.9942 90.0637 24.8712 89.2773 24.5204 88.4035L22.8543 84.9082C22.7666 84.6461 22.7666 84.3839 22.8543 84.1218L24.5204 80.6265C24.8712 79.8401 24.0819 78.9663 23.205 79.3158L19.6974 80.9761C19.4344 81.0634 19.1713 81.0634 18.9082 80.9761L15.4006 79.3158C14.6114 78.9663 13.7345 79.7527 14.0853 80.6265L15.7514 84.1218C15.9267 84.3839 15.9267 84.6461 15.7514 84.9082Z" fill="#EE5DFC"/>
<path d="M217.157 63.9818L216.056 66.2911C215.825 66.8107 216.346 67.388 216.925 67.1571L219.243 66.0602C219.417 66.0025 219.59 66.0025 219.764 66.0602L222.082 67.1571C222.603 67.388 223.182 66.8685 222.951 66.2911L221.85 63.9818C221.792 63.8087 221.792 63.6355 221.85 63.4623L222.951 61.153C223.182 60.6334 222.661 60.0561 222.082 60.287L219.764 61.3839C219.59 61.4416 219.417 61.4416 219.243 61.3839L216.925 60.287C216.404 60.0561 215.825 60.5757 216.056 61.153L217.157 63.4623C217.273 63.6355 217.273 63.8087 217.157 63.9818Z" fill="#7CE2C2"/>
<rect x="38" y="21.8544" width="174" height="103.376" rx="4" fill="url(#pattern0)"/>
<path d="M162.982 6.65463L161.096 10.6094C160.7 11.4992 161.593 12.4879 162.585 12.0925L166.554 10.2139C166.851 10.1151 167.149 10.1151 167.446 10.2139L171.415 12.0925C172.308 12.4879 173.3 11.5981 172.904 10.6094L171.018 6.65463C170.919 6.35802 170.919 6.06142 171.018 5.76481L172.904 1.81003C173.3 0.920206 172.407 -0.0684895 171.415 0.326989L167.446 2.2055C167.149 2.30437 166.851 2.30437 166.554 2.2055L162.585 0.326989C161.692 -0.0684895 160.7 0.821336 161.096 1.81003L162.982 5.76481C163.18 6.06142 163.18 6.35802 162.982 6.65463Z" fill="#FFD836"/>
<defs>
<pattern id="pattern0" patternContentUnits="objectBoundingBox" width="1" height="1">
<use xlink:href="#image0_319_3466" transform="scale(0.00294118 0.0049505)"/>
</pattern>
</defs>
</svg>
