<?xml version="1.0" encoding="UTF-8"?><svg id="art" xmlns="http://www.w3.org/2000/svg" viewBox="0 0 224.41 103.97"><defs><style>.cls-1{fill:#f47521;}.cls-2{fill:#fff;}.cls-3{fill:#ffe55c;}.cls-4{fill:#ff78b7;}.cls-5{fill:#5865f0;}.cls-6{fill:#3442d7;}.cls-7{fill:#57f085;}.cls-8{fill:#5765f1;}</style></defs><rect class="cls-5" x="35.09" width="158.76" height="100.14" rx="17.74" ry="17.74"/><path class="cls-1" d="M35.3,15.18H193.65c-1.25-8.58-8.61-15.18-17.53-15.18H52.83c-8.92,0-16.29,6.6-17.53,15.18Z"/><path class="cls-6" d="M35.16,16.5H193.79c-.07-1.03-.23-2.03-.47-3H35.62c-.24,.97-.4,1.97-.47,3h0Z"/><path class="cls-4" d="M214.13,55.07c-1.22-.78-2.26-1.81-3.04-3.03s-1.3-2.59-1.5-4.02l-.76-4.92c-.02-.12-.07-.23-.16-.31s-.2-.13-.32-.14c-.12,0-.23,.06-.32,.14-.09,.08-.14,.19-.16,.31l-.76,4.92c-.21,1.43-.73,2.8-1.51,4.02s-1.82,2.25-3.03,3.04l-.65,.41c-.07,.05-.12,.11-.16,.18-.04,.07-.05,.15-.05,.23s0,.16,.05,.23c.04,.07,.09,.13,.16,.18l.65,.41c1.22,.79,2.25,1.82,3.03,3.04,.78,1.22,1.3,2.59,1.51,4.02l.76,4.92c.02,.12,.07,.22,.16,.3s.2,.12,.32,.12,.23-.04,.32-.12c.09-.08,.15-.18,.16-.3l.76-4.92c.2-1.43,.72-2.81,1.5-4.02,.78-1.22,1.82-2.25,3.04-3.03l.65-.41c.07-.05,.12-.11,.16-.18,.04-.07,.05-.15,.05-.23s0-.16-.05-.23c-.04-.07-.09-.13-.16-.18l-.65-.41v-.02Z"/><path class="cls-3" d="M27.87,89.92c-1.22-.78-2.26-1.81-3.04-3.03s-1.3-2.59-1.5-4.02l-.76-4.92c-.02-.12-.07-.23-.16-.31-.09-.08-.2-.13-.32-.14-.12,0-.23,.06-.32,.14s-.14,.19-.16,.31l-.76,4.92c-.21,1.43-.73,2.8-1.51,4.02-.78,1.22-1.82,2.25-3.03,3.04l-.65,.41c-.07,.05-.12,.11-.16,.18s-.05,.15-.05,.23,.01,.16,.05,.23,.09,.13,.16,.18l.65,.41c1.22,.79,2.25,1.82,3.03,3.04s1.3,2.59,1.51,4.02l.76,4.92c.02,.12,.07,.22,.16,.3s.2,.12,.32,.12,.23-.04,.32-.12,.15-.18,.16-.3l.76-4.92c.2-1.43,.72-2.81,1.5-4.02,.78-1.22,1.82-2.25,3.04-3.03l.65-.41c.07-.05,.12-.11,.16-.18,.04-.07,.05-.15,.05-.23s-.01-.16-.05-.23c-.04-.07-.09-.13-.16-.18l-.65-.41v-.02Z"/><path class="cls-8" d="M223.83,36.08c-.81-.52-1.51-1.21-2.03-2.02s-.86-1.73-1-2.68l-.51-3.28c0-.08-.05-.15-.11-.21-.06-.05-.13-.09-.21-.09s-.16,.04-.21,.09c-.06,.05-.1,.13-.11,.21l-.5,3.28c-.14,.95-.49,1.87-1.01,2.68-.52,.81-1.21,1.5-2.02,2.03l-.44,.28s-.08,.07-.1,.12-.04,.1-.03,.16c0,.05,0,.11,.03,.16,.02,.05,.06,.09,.1,.12l.44,.28c.81,.52,1.5,1.21,2.02,2.03,.52,.81,.87,1.72,1.01,2.68l.5,3.28c0,.08,.05,.15,.11,.2s.13,.08,.21,.08,.15-.03,.21-.08c.06-.05,.1-.12,.11-.2l.51-3.28c.14-.96,.48-1.87,1-2.68s1.22-1.5,2.03-2.02l.44-.28s.08-.07,.1-.12,.04-.1,.03-.16c0-.05,0-.11-.03-.16-.02-.05-.06-.09-.1-.12l-.44-.28v-.02Z"/><path class="cls-7" d="M8.28,68.08c-.81-.52-1.51-1.21-2.03-2.02s-.86-1.73-1-2.68l-.51-3.28c-.01-.08-.05-.15-.11-.21-.06-.05-.13-.09-.21-.09s-.16,.04-.21,.09c-.06,.05-.1,.13-.11,.21l-.5,3.28c-.14,.95-.49,1.87-1.01,2.68s-1.21,1.5-2.02,2.03l-.44,.28s-.08,.07-.1,.12c-.02,.05-.04,.1-.03,.16,0,.05,0,.11,.03,.16,.02,.05,.06,.09,.1,.12l.44,.28c.81,.52,1.5,1.21,2.02,2.03,.52,.81,.87,1.72,1.01,2.68l.5,3.28c.01,.08,.05,.15,.11,.2,.06,.05,.13,.08,.21,.08s.15-.03,.21-.08,.1-.12,.11-.2l.51-3.28c.14-.96,.48-1.87,1-2.68s1.22-1.5,2.03-2.02l.44-.28s.08-.07,.1-.12,.04-.1,.03-.16c0-.05,0-.11-.03-.16-.02-.05-.06-.09-.1-.12l-.44-.28v-.02Z"/><g><path class="cls-2" d="M164.18,43.59c-2.75-1.26-5.65-2.15-8.63-2.65-.41,.73-.78,1.48-1.11,2.25-3.17-.48-6.4-.48-9.58,0-.33-.77-.7-1.52-1.11-2.25-2.98,.51-5.89,1.4-8.64,2.66-5.46,8.08-6.94,15.96-6.2,23.73h0c3.2,2.36,6.78,4.16,10.58,5.31,.86-1.15,1.62-2.38,2.27-3.66-1.24-.46-2.43-1.03-3.57-1.7,.3-.22,.59-.44,.88-.66,6.7,3.15,14.46,3.15,21.16,0,.29,.23,.58,.46,.88,.66-1.14,.67-2.34,1.24-3.58,1.71,.65,1.28,1.41,2.5,2.27,3.65,3.81-1.15,7.39-2.94,10.59-5.31h0c.87-9.01-1.48-16.81-6.22-23.74h0Zm-21.47,18.96c-2.06,0-3.77-1.87-3.77-4.17s1.64-4.19,3.76-4.19,3.81,1.89,3.77,4.19c-.04,2.3-1.66,4.17-3.76,4.17Zm13.9,0c-2.07,0-3.76-1.87-3.76-4.17s1.64-4.19,3.76-4.19,3.8,1.89,3.76,4.19c-.04,2.3-1.66,4.17-3.76,4.17Z"/><g><path class="cls-2" d="M97.85,56.8c0-10.2-8.3-18.5-18.5-18.5s-18.5,8.3-18.5,18.5,8.3,18.5,18.5,18.5h1.3c-8.5-.5-15.3-7.6-15.3-16.2s7.3-16.3,16.3-16.3,15.6,6.7,16.2,15.1c0-.4,0-.7,0-1.1Z"/><path class="cls-2" d="M88.65,48.4c-1.8-1-3.9-1.5-6-1.5-7.2,0-13,5.8-13,13s5.8,13,13,13,13-5.8,13-13c0-.8-.1-1.6-.2-2.4-1.1,1.4-2.8,2.4-4.7,2.4-3.3,0-5.9-2.7-5.9-5.9-.1-2.5,1.5-4.7,3.8-5.6Z"/></g></g></svg>