<svg width="64" height="64" viewBox="0 0 64 64" fill="none" xmlns="http://www.w3.org/2000/svg">
<rect width="8" height="8" fill="#29CC7A"/>
<rect x="56" y="56" width="8" height="8" fill="#29CC7A"/>
<rect x="28" y="21.6453" width="2.66667" height="2.66667" fill="#29CC7A"/>
<rect x="30.6667" y="21.6453" width="2.66667" height="2.66667" fill="#29CC7A"/>
<rect x="28" y="18.9785" width="2.66667" height="2.66667" fill="#29CC7A"/>
<rect x="25.3335" y="18.9785" width="2.66667" height="2.66667" fill="#29CC7A"/>
<rect x="30.6667" y="18.9785" width="2.66667" height="2.66667" fill="#29CC7A"/>
<rect x="28" y="16.3119" width="2.66667" height="2.66667" fill="#29CC7A"/>
<rect x="25.3335" y="16.3119" width="2.66667" height="2.66667" fill="#29CC7A"/>
<rect x="22.6667" y="16.3119" width="2.66667" height="2.66667" fill="#29CC7A"/>
<rect x="30.6667" y="16.3119" width="2.66667" height="2.66667" fill="#29CC7A"/>
<rect x="28" y="13.6453" width="2.66667" height="2.66667" fill="#29CC7A"/>
<rect x="25.3335" y="13.6453" width="2.66667" height="2.66667" fill="#29CC7A"/>
<rect x="22.6667" y="13.6453" width="2.66667" height="2.66667" fill="#29CC7A"/>
<rect x="30.6667" y="13.6453" width="2.66667" height="2.66667" fill="#29CC7A"/>
<rect x="28" y="10.9785" width="2.66667" height="2.66667" fill="#29CC7A"/>
<rect x="25.3335" y="10.9785" width="2.66667" height="2.66667" fill="#29CC7A"/>
<rect x="22.6667" y="10.9785" width="2.66667" height="2.66667" fill="#29CC7A"/>
<rect opacity="0.2" x="30.6667" y="10.9785" width="2.66667" height="2.66667" fill="#29CC7A"/>
<rect x="28" y="8.31189" width="2.66667" height="2.66667" fill="#29CC7A"/>
<rect x="25.3335" y="8.31189" width="2.66667" height="2.66667" fill="#29CC7A"/>
<rect width="2.66667" height="2.66667" transform="matrix(-1 0 0 1 36 21.6453)" fill="#29CC7A"/>
<rect width="2.66667" height="2.66667" transform="matrix(-1 0 0 1 36 18.9785)" fill="#29CC7A"/>
<rect width="2.66667" height="2.66667" transform="matrix(-1 0 0 1 38.6667 18.9785)" fill="#29CC7A"/>
<rect width="2.66667" height="2.66667" transform="matrix(-1 0 0 1 36 16.3119)" fill="#29CC7A"/>
<rect width="2.66667" height="2.66667" transform="matrix(-1 0 0 1 38.6667 16.3119)" fill="#29CC7A"/>
<rect width="2.66666" height="2.66667" transform="matrix(-1 0 0 1 41.3335 16.3119)" fill="#29CC7A"/>
<rect width="2.66667" height="2.66667" transform="matrix(-1 0 0 1 36 13.6453)" fill="#29CC7A"/>
<rect width="2.66667" height="2.66667" transform="matrix(-1 0 0 1 38.6667 13.6453)" fill="#29CC7A"/>
<rect width="2.66666" height="2.66667" transform="matrix(-1 0 0 1 41.3335 13.6453)" fill="#29CC7A"/>
<rect width="2.66667" height="2.66667" transform="matrix(-1 0 0 1 36 10.9785)" fill="#29CC7A"/>
<rect width="2.66667" height="2.66667" transform="matrix(-1 0 0 1 38.6667 10.9785)" fill="#29CC7A"/>
<rect width="2.66666" height="2.66667" transform="matrix(-1 0 0 1 41.3335 10.9785)" fill="#29CC7A"/>
<rect width="2.66667" height="2.66667" transform="matrix(-1 0 0 1 36 8.31189)" fill="#29CC7A"/>
<rect width="2.66667" height="2.66667" transform="matrix(-1 0 0 1 38.6667 8.31189)" fill="#29CC7A"/>
<rect x="30.6667" y="24.3119" width="2.66667" height="2.66667" fill="#29CC7A"/>
<rect x="30.6394" y="47.6882" width="2.66667" height="2.66666" fill="#29CC7A"/>
<rect x="30.6394" y="45.0215" width="2.66667" height="2.66667" fill="#29CC7A"/>
<rect x="28.0273" y="45.0215" width="2.66667" height="2.66667" fill="#29CC7A"/>
<rect x="17.5796" y="34.3549" width="2.66667" height="2.66667" fill="#29CC7A"/>
<rect x="28.0273" y="42.3549" width="2.66667" height="2.66667" fill="#29CC7A"/>
<rect x="17.5796" y="31.6882" width="2.66667" height="2.66667" fill="#29CC7A"/>
<rect x="28.0273" y="39.6882" width="2.66667" height="2.66666" fill="#29CC7A"/>
<rect x="17.5796" y="29.0215" width="2.66667" height="2.66667" fill="#29CC7A"/>
<rect x="28.0273" y="37.0215" width="2.66667" height="2.66667" fill="#29CC7A"/>
<rect x="17.5796" y="26.3549" width="2.66667" height="2.66667" fill="#29CC7A"/>
<rect x="25.4155" y="45.0215" width="2.66667" height="2.66667" fill="#29CC7A"/>
<rect x="14.9675" y="34.3549" width="2.66667" height="2.66667" fill="#29CC7A"/>
<rect x="25.4155" y="42.3549" width="2.66667" height="2.66667" fill="#29CC7A"/>
<rect x="14.9675" y="31.6882" width="2.66667" height="2.66667" fill="#29CC7A"/>
<rect x="25.4155" y="39.6882" width="2.66667" height="2.66666" fill="#29CC7A"/>
<rect x="14.9675" y="29.0215" width="2.66667" height="2.66667" fill="#29CC7A"/>
<rect x="25.4155" y="37.0215" width="2.66667" height="2.66667" fill="#29CC7A"/>
<rect x="14.9675" y="26.3549" width="2.66667" height="2.66667" fill="#29CC7A"/>
<rect x="22.8035" y="45.0215" width="2.66667" height="2.66667" fill="#29CC7A"/>
<rect x="12.3555" y="34.3549" width="2.66667" height="2.66667" fill="#29CC7A"/>
<rect x="22.8035" y="42.3549" width="2.66667" height="2.66667" fill="#29CC7A"/>
<rect x="12.3555" y="31.6882" width="2.66667" height="2.66667" fill="#29CC7A"/>
<rect x="22.8035" y="39.6882" width="2.66667" height="2.66666" fill="#29CC7A"/>
<rect x="12.3555" y="29.0215" width="2.66667" height="2.66667" fill="#29CC7A"/>
<rect x="22.8035" y="37.0215" width="2.66667" height="2.66667" fill="#29CC7A"/>
<rect x="12.3555" y="26.3549" width="2.66667" height="2.66667" fill="#29CC7A"/>
<rect x="20.1914" y="45.0215" width="2.66667" height="2.66667" fill="#29CC7A"/>
<rect x="9.74365" y="34.3549" width="2.66667" height="2.66667" fill="#29CC7A"/>
<rect x="20.1914" y="42.3549" width="2.66667" height="2.66667" fill="#29CC7A"/>
<rect x="9.74365" y="31.6882" width="2.66667" height="2.66667" fill="#29CC7A"/>
<rect x="20.1914" y="39.6882" width="2.66667" height="2.66666" fill="#29CC7A"/>
<rect x="9.74365" y="29.0215" width="2.66667" height="2.66667" fill="#29CC7A"/>
<rect x="20.1914" y="37.0215" width="2.66667" height="2.66667" fill="#29CC7A"/>
<rect x="9.74365" y="26.3549" width="2.66667" height="2.66667" fill="#29CC7A"/>
<rect x="17.5796" y="45.0215" width="2.66667" height="2.66667" fill="#29CC7A"/>
<rect x="7.13159" y="34.3549" width="2.66667" height="2.66667" fill="#29CC7A"/>
<rect x="17.5796" y="42.3549" width="2.66667" height="2.66667" fill="#29CC7A"/>
<rect x="7.13159" y="31.6882" width="2.66667" height="2.66667" fill="#29CC7A"/>
<rect x="14.9128" y="42.3549" width="2.66667" height="2.66667" fill="#29CC7A"/>
<rect x="22.9128" y="31.6882" width="2.66667" height="2.66667" transform="rotate(-180 22.9128 31.6882)" fill="#29CC7A"/>
<rect x="17.5796" y="39.6882" width="2.66667" height="2.66666" fill="#29CC7A"/>
<rect x="7.13159" y="29.0215" width="2.66667" height="2.66667" fill="#29CC7A"/>
<rect x="14.9128" y="39.6882" width="2.66667" height="2.66666" fill="#29CC7A"/>
<rect x="22.9128" y="34.3549" width="2.66667" height="2.66667" transform="rotate(-180 22.9128 34.3549)" fill="#29CC7A"/>
<rect x="12.2461" y="39.6882" width="2.66667" height="2.66666" fill="#29CC7A"/>
<rect x="25.5796" y="34.3549" width="2.66667" height="2.66667" transform="rotate(-180 25.5796 34.3549)" fill="#29CC7A"/>
<rect x="17.5796" y="37.0215" width="2.66667" height="2.66667" fill="#29CC7A"/>
<rect x="7.13159" y="26.3549" width="2.66667" height="2.66667" fill="#29CC7A"/>
<rect x="14.9128" y="37.0215" width="2.66667" height="2.66667" fill="#29CC7A"/>
<rect x="22.9128" y="37.0215" width="2.66667" height="2.66667" transform="rotate(-180 22.9128 37.0215)" fill="#29CC7A"/>
<rect x="12.2461" y="37.0215" width="2.66667" height="2.66667" fill="#29CC7A"/>
<rect x="25.5796" y="37.0215" width="2.66667" height="2.66667" transform="rotate(-180 25.5796 37.0215)" fill="#29CC7A"/>
<rect x="9.57959" y="37.0215" width="2.66667" height="2.66667" fill="#29CC7A"/>
<rect x="28.2461" y="37.0215" width="2.66667" height="2.66667" transform="rotate(-180 28.2461 37.0215)" fill="#29CC7A"/>
<rect width="2.66667" height="2.66667" transform="matrix(-1 0 0 1 35.9727 45.0215)" fill="#29CC7A"/>
<rect width="2.66667" height="2.66667" transform="matrix(-1 0 0 1 46.4207 34.3549)" fill="#29CC7A"/>
<rect width="2.66667" height="2.66667" transform="matrix(-1 0 0 1 35.9727 42.3549)" fill="#29CC7A"/>
<rect width="2.66667" height="2.66667" transform="matrix(-1 0 0 1 46.4207 31.6882)" fill="#29CC7A"/>
<rect width="2.66667" height="2.66666" transform="matrix(-1 0 0 1 35.9727 39.6882)" fill="#29CC7A"/>
<rect width="2.66667" height="2.66667" transform="matrix(-1 0 0 1 46.4207 29.0215)" fill="#29CC7A"/>
<rect width="2.66667" height="2.66667" transform="matrix(-1 0 0 1 35.9727 37.0215)" fill="#29CC7A"/>
<rect width="2.66667" height="2.66667" transform="matrix(-1 0 0 1 46.4207 26.3549)" fill="#29CC7A"/>
<rect width="2.66667" height="2.66667" transform="matrix(-1 0 0 1 38.5847 45.0215)" fill="#29CC7A"/>
<rect width="2.66666" height="2.66667" transform="matrix(-1 0 0 1 49.0327 34.3549)" fill="#29CC7A"/>
<rect width="2.66667" height="2.66667" transform="matrix(-1 0 0 1 38.5847 42.3549)" fill="#29CC7A"/>
<rect width="2.66666" height="2.66667" transform="matrix(-1 0 0 1 49.0327 31.6882)" fill="#29CC7A"/>
<rect width="2.66667" height="2.66666" transform="matrix(-1 0 0 1 38.5847 39.6882)" fill="#29CC7A"/>
<rect width="2.66666" height="2.66667" transform="matrix(-1 0 0 1 49.0327 29.0215)" fill="#29CC7A"/>
<rect width="2.66667" height="2.66667" transform="matrix(-1 0 0 1 38.5847 37.0215)" fill="#29CC7A"/>
<rect width="2.66666" height="2.66667" transform="matrix(-1 0 0 1 49.0327 26.3549)" fill="#29CC7A"/>
<rect width="2.66666" height="2.66667" transform="matrix(-1 0 0 1 41.1968 45.0215)" fill="#29CC7A"/>
<rect width="2.66667" height="2.66667" transform="matrix(-1 0 0 1 51.6445 34.3549)" fill="#29CC7A"/>
<rect width="2.66666" height="2.66667" transform="matrix(-1 0 0 1 41.1968 42.3549)" fill="#29CC7A"/>
<rect width="2.66667" height="2.66667" transform="matrix(-1 0 0 1 51.6445 31.6882)" fill="#29CC7A"/>
<rect width="2.66666" height="2.66666" transform="matrix(-1 0 0 1 41.1968 39.6882)" fill="#29CC7A"/>
<rect width="2.66667" height="2.66667" transform="matrix(-1 0 0 1 51.6445 29.0215)" fill="#29CC7A"/>
<rect width="2.66666" height="2.66667" transform="matrix(-1 0 0 1 41.1968 37.0215)" fill="#29CC7A"/>
<rect width="2.66667" height="2.66667" transform="matrix(-1 0 0 1 51.6445 26.3549)" fill="#29CC7A"/>
<rect width="2.66667" height="2.66667" transform="matrix(-1 0 0 1 43.8086 45.0215)" fill="#29CC7A"/>
<rect width="2.66667" height="2.66667" transform="matrix(-1 0 0 1 54.2566 34.3549)" fill="#29CC7A"/>
<rect width="2.66667" height="2.66667" transform="matrix(-1 0 0 1 43.8086 42.3549)" fill="#29CC7A"/>
<rect width="2.66667" height="2.66667" transform="matrix(-1 0 0 1 54.2566 31.6882)" fill="#29CC7A"/>
<rect width="2.66667" height="2.66666" transform="matrix(-1 0 0 1 43.8086 39.6882)" fill="#29CC7A"/>
<rect width="2.66667" height="2.66667" transform="matrix(-1 0 0 1 54.2566 29.0215)" fill="#29CC7A"/>
<rect width="2.66667" height="2.66667" transform="matrix(-1 0 0 1 43.8086 37.0215)" fill="#29CC7A"/>
<rect width="2.66667" height="2.66667" transform="matrix(-1 0 0 1 54.2566 26.3549)" fill="#29CC7A"/>
<rect width="2.66667" height="2.66667" transform="matrix(-1 0 0 1 46.4207 45.0215)" fill="#29CC7A"/>
<rect width="2.66666" height="2.66667" transform="matrix(-1 0 0 1 56.8687 34.3549)" fill="#29CC7A"/>
<rect width="2.66667" height="2.66667" transform="matrix(-1 0 0 1 46.4207 42.3549)" fill="#29CC7A"/>
<rect width="2.66666" height="2.66667" transform="matrix(-1 0 0 1 56.8687 31.6882)" fill="#29CC7A"/>
<rect width="2.66666" height="2.66667" transform="matrix(-1 0 0 1 49.0874 42.3549)" fill="#29CC7A"/>
<rect width="2.66667" height="2.66667" transform="matrix(1 0 0 -1 41.0874 31.6882)" fill="#29CC7A"/>
<rect width="2.66667" height="2.66666" transform="matrix(-1 0 0 1 46.4207 39.6882)" fill="#29CC7A"/>
<rect width="2.66666" height="2.66667" transform="matrix(-1 0 0 1 56.8687 29.0215)" fill="#29CC7A"/>
<rect width="2.66666" height="2.66666" transform="matrix(-1 0 0 1 49.0874 39.6882)" fill="#29CC7A"/>
<rect width="2.66667" height="2.66667" transform="matrix(1 0 0 -1 41.0874 34.3549)" fill="#29CC7A"/>
<rect width="2.66667" height="2.66666" transform="matrix(-1 0 0 1 51.7539 39.6882)" fill="#29CC7A"/>
<rect width="2.66666" height="2.66667" transform="matrix(1 0 0 -1 38.4207 34.3549)" fill="#29CC7A"/>
<rect width="2.66667" height="2.66667" transform="matrix(-1 0 0 1 46.4207 37.0215)" fill="#29CC7A"/>
<rect width="2.66666" height="2.66667" transform="matrix(-1 0 0 1 56.8687 26.3549)" fill="#29CC7A"/>
<rect width="2.66666" height="2.66667" transform="matrix(-1 0 0 1 49.0874 37.0215)" fill="#29CC7A"/>
<rect width="2.66667" height="2.66667" transform="matrix(1 0 0 -1 41.0874 37.0215)" fill="#29CC7A"/>
<rect width="2.66667" height="2.66667" transform="matrix(-1 0 0 1 51.7539 37.0215)" fill="#29CC7A"/>
<rect width="2.66666" height="2.66667" transform="matrix(1 0 0 -1 38.4207 37.0215)" fill="#29CC7A"/>
<rect width="2.66667" height="2.66667" transform="matrix(-1 0 0 1 54.4207 37.0215)" fill="#29CC7A"/>
<rect width="2.66667" height="2.66667" transform="matrix(1 0 0 -1 35.7539 37.0215)" fill="#29CC7A"/>
<rect x="30.6394" y="50.3549" width="2.66667" height="2.66667" fill="#29CC7A"/>
<rect x="30.6394" y="53.0215" width="2.66667" height="2.66667" fill="#29CC7A"/>
</svg>
