<svg width="48" height="45" viewBox="0 0 48 45" fill="none" xmlns="http://www.w3.org/2000/svg">
<g clip-path="url(#clip0_923_134379)">
<path d="M11.4995 18.5223C13.1541 16.1511 15.9277 14.9518 18.1934 15.481C20.459 16.0102 23.9913 18.9587 21.8115 23.1924L11.4995 18.5223Z" fill="#4970DE"/>
<path d="M31.5573 26.3948C33.6169 25.9103 36.2636 26.6972 37.4822 28.9756C39.1574 32.1062 36.9089 36.034 36.9089 36.034L29.1338 34.0924L31.5573 26.3948Z" fill="#718DF6"/>
<path d="M46.6408 0.384673C46.579 0.501512 45.7723 2.08227 44.5399 4.50838L43.5959 6.37436L43.0535 7.43278C42.8991 7.74206 42.7377 8.05478 42.573 8.37436L38.9446 15.4637L38.3816 16.5634C38.1093 17.104 37.8346 17.6424 37.5577 18.1785L36.6034 20.0548L34.3893 24.3984L33.768 25.6218L29.9062 33.1819L13.9302 21.8417L23.178 15.6355L24.2559 14.9104L31.0767 10.3091L32.1065 9.62179L38.6528 5.20942L39.6517 4.52213C43.4449 1.97574 46.1567 0.150996 46.3421 0.0375942C46.389 0.0177286 46.4409 0.0132722 46.4905 0.0248671C46.5401 0.0364621 46.5847 0.0635097 46.6179 0.102112C46.6511 0.140713 46.6712 0.188876 46.6753 0.239658C46.6794 0.290439 46.6673 0.341217 46.6408 0.384673V0.384673Z" fill="#FFC069"/>
<path d="M43.596 6.37488L42.7996 7.01062C42.8889 7.14807 42.9747 7.28897 43.0537 7.4333C42.8992 7.74258 42.7378 8.05529 42.5731 8.37488C42.4381 8.09275 42.2832 7.82059 42.1097 7.56045C40.2869 8.99687 38.3886 10.4505 36.504 11.8629C37.5996 12.8454 38.4377 14.082 38.9447 15.4642L38.3817 16.5639C37.9796 14.9317 37.0783 13.466 35.8037 12.3714C33.5793 14.0347 31.3892 15.6395 29.3811 17.0862C31.0097 18.2711 32.3489 19.8103 33.2978 21.5879C34.6709 20.5123 36.1264 19.3577 37.5681 18.1859L36.6138 20.0622C35.6183 20.8594 34.6331 21.6395 33.6857 22.3818C33.9815 23.0358 34.2203 23.7141 34.3997 24.4092L33.7784 25.6326C33.6291 24.7009 33.3651 23.7914 32.9923 22.9247C28.897 26.1171 25.6531 28.4917 25.5982 28.5226C25.5254 28.5758 25.4377 28.6047 25.3476 28.6051C25.2805 28.6056 25.2144 28.5899 25.1546 28.5594C25.0949 28.5289 25.0433 28.4845 25.0043 28.4299C24.939 28.3389 24.9115 28.2261 24.9275 28.1153C24.9435 28.0044 25.0018 27.9041 25.0901 27.8354C25.1451 27.7941 28.4611 25.3508 32.6044 22.1206C31.6729 20.3176 30.3153 18.7699 28.6499 17.612C23.7857 21.1137 20.1745 23.5914 20.1024 23.6429C20.0313 23.6909 19.9478 23.7171 19.8621 23.7185C19.7695 23.7198 19.679 23.691 19.6041 23.6365C19.5292 23.582 19.4739 23.5047 19.4465 23.4162C19.4191 23.3277 19.421 23.2327 19.452 23.1453C19.4829 23.058 19.5413 22.983 19.6183 22.9316C19.6904 22.8835 23.1541 20.5055 27.8569 17.1171C26.4246 16.2861 24.8273 15.7805 23.1781 15.636L24.256 14.911C25.8045 15.18 27.2869 15.7447 28.6224 16.5742C30.6374 15.1206 32.8481 13.5055 35.1034 11.8216C33.9088 10.9882 32.5243 10.4683 31.0768 10.3096L32.1067 9.6223C33.4488 9.90337 34.7138 10.4732 35.814 11.2924C37.7535 9.83536 39.7136 8.33708 41.5913 6.85598C41.2238 6.41019 40.7811 6.03221 40.2834 5.73914C39.785 5.44572 39.2285 5.26509 38.6529 5.20993L39.6518 4.52265C40.0222 4.63405 40.3782 4.7886 40.7125 4.98313C41.3045 5.33071 41.8299 5.78104 42.2641 6.31302C43.0399 5.70134 43.7986 5.08966 44.5332 4.48828L43.596 6.37488Z" fill="#FF8C19"/>
<path d="M39.9776 32.7493C43.0877 29.4057 44.8899 26.4916 46.2081 22.5329C46.5204 21.5913 48.0515 22.0896 47.9965 22.8043C47.7734 25.9177 43.4207 31.2442 40.7294 33.3748C40.2214 33.7734 39.7545 32.9899 39.9776 32.7493Z" fill="black"/>
<path d="M38.7315 38.5415C40.6648 38.4993 42.1978 36.8961 42.1556 34.9608C42.1134 33.0254 40.512 31.4907 38.5787 31.5329C36.6454 31.5751 35.1123 33.1783 35.1545 35.1137C35.1967 37.0491 36.7981 38.5838 38.7315 38.5415Z" fill="#EB459F"/>
<path d="M38.6079 33.3953C38.093 33.5122 37.276 33.495 37.2554 32.9692C37.2348 32.4434 37.7875 32.0208 38.3127 31.9383C38.8379 31.8558 39.37 32.0345 39.4593 32.5259C39.5485 33.0173 39.1331 33.2819 38.6079 33.3953Z" fill="#FF78B9"/>
<path d="M41.5019 39.0999C40.9423 35.227 37.87 33.4091 34.2931 34.3576C34.1682 32.9529 33.7244 31.5953 32.9955 30.3885C31.2792 27.7425 28.0592 28.0621 26.4527 28.6462C27.1393 25.6703 26.8303 23.2545 24.7844 21.4298C22.481 19.3748 18.8801 19.9315 17.4143 20.8387C17.5482 17.5328 14.8398 15.3095 12.1931 15.5466C8.76039 15.8559 6.42956 18.4847 6.41239 22.8902C4.57489 24.6288 2.86335 26.496 1.29075 28.4779C-0.425624 30.6772 -0.387864 33.7356 1.20493 36.1445C1.59626 36.7425 2.45788 38.2064 2.7016 38.5913C2.79772 38.739 2.76682 38.904 2.56772 39.1858C2.03807 39.8419 1.5779 40.5513 1.19463 41.3026C0.518379 42.715 1.07105 45.0174 3.20621 45.0174C4.59647 45.0174 25.4435 44.9727 32.2197 45.0174H42.2399C43.6954 45.0174 44.1794 44.2992 44.1794 43.3507C44.1794 42.0655 43.5203 41.2648 42.1644 40.2064C41.9846 40.0767 41.8332 39.9117 41.7193 39.7214C41.6054 39.5312 41.5314 39.3197 41.5019 39.0999V39.0999Z" fill="#718DF6"/>
<path d="M13.2951 42.4567C17.7851 42.5872 21.6675 42.5597 25.2787 42.4567C27.0844 42.4154 27.5272 41.5769 27.6576 40.5632C27.8945 38.7591 26.923 38.0271 25.1929 36.0134C23.4628 33.9996 18.8149 29.3914 18.8149 29.3914C17.8228 28.3604 16.4841 27.9962 15.2311 29.0065C13.6795 30.2573 12.2069 31.4841 11.2045 33.0237C10.3017 34.3982 10.6999 35.5735 11.8636 37.2608C12.0696 37.5563 13.0101 38.6353 13.0754 38.8278C13.1406 39.0202 12.2515 39.5632 12.0181 40.3982C11.7641 41.3123 12.2515 42.4257 13.2951 42.4567Z" fill="#BBCBFA"/>
<path d="M16.6899 35.3611C16.2882 34.8387 15.6154 34.0965 15.6154 34.0965C15.5121 33.9741 15.3858 33.8734 15.2435 33.8C15.1013 33.7267 14.9459 33.6822 14.7865 33.6691C14.627 33.656 14.4665 33.6746 14.3142 33.7237C14.1619 33.7729 14.0208 33.8517 13.899 33.9556C13.6903 34.1683 13.5632 34.4479 13.54 34.7451C13.5168 35.0424 13.5989 35.3384 13.772 35.581C14.0947 36.0002 14.4586 36.4745 14.8877 36.9281C15.1093 37.1552 15.4066 37.2929 15.723 37.3151C16.0394 37.3373 16.3529 37.2423 16.604 37.0483C16.8286 36.83 16.9623 36.5346 16.9782 36.2216C16.9941 35.9086 16.8911 35.6011 16.6899 35.3611V35.3611Z" fill="#718DF6"/>
<path d="M11.0695 28.3046C11.7563 27.6505 11.7834 26.5629 11.1301 25.8754C10.4767 25.1879 9.39033 25.1607 8.70353 25.8148C8.01672 26.4688 7.9896 27.5564 8.64295 28.2439C9.2963 28.9315 10.3827 28.9586 11.0695 28.3046Z" fill="black"/>
<path d="M21.6604 39.7936C21.348 39.45 20.7198 39.2954 20.3903 38.9998C19.7449 38.4191 18.77 37.2816 17.9873 37.9689C17.4965 38.3916 17.4656 38.9723 17.8775 39.5393C18.2245 40.0963 18.6942 40.5665 19.2506 40.9139C19.8491 41.1679 20.5067 41.2489 21.1489 41.1476C21.3013 41.1382 21.4478 41.0849 21.5707 40.9941C21.6936 40.9034 21.7877 40.7791 21.8417 40.6361C21.8957 40.4931 21.9073 40.3375 21.8752 40.1881C21.843 40.0386 21.7684 39.9017 21.6604 39.7936V39.7936Z" fill="#718DF6"/>
<path d="M34.1627 41.5563C34.1818 41.5436 34.2001 41.5299 34.2176 41.515C34.4204 41.3171 34.5711 41.0721 34.6564 40.8017C34.7416 40.5314 34.7587 40.2441 34.7061 39.9656C34.6535 39.687 34.5329 39.4258 34.355 39.2052C34.1771 38.9846 33.9474 38.8116 33.6865 38.7014C33.4255 38.5913 33.1414 38.5475 32.8595 38.5739C32.5775 38.6004 32.3065 38.6962 32.0705 38.853C31.8345 39.0098 31.641 39.2225 31.5071 39.4724C31.3732 39.7222 31.3032 40.0013 31.3032 40.2848C31.8532 40.1493 32.4326 40.2007 32.9502 40.4308C33.4679 40.661 33.8944 41.0569 34.1627 41.5563Z" fill="black"/>
<path d="M32.3362 28.4434C32.1989 28.708 32.065 28.9691 31.9414 29.2166C32.6919 29.8078 33.2996 30.5607 33.7196 31.4193C33.7547 31.4904 33.809 31.5503 33.8763 31.5922C33.9437 31.6341 34.0213 31.6563 34.1006 31.6564C34.1686 31.6555 34.2356 31.6391 34.2963 31.6083C34.3978 31.5568 34.4747 31.4671 34.5101 31.3588C34.5455 31.2505 34.5365 31.1326 34.4851 31.031C33.989 30.0067 33.2515 29.1187 32.3362 28.4434V28.4434Z" fill="#4970DE"/>
</g>
<defs>
<clipPath id="clip0_923_134379">
<rect width="48" height="45" fill="white"/>
</clipPath>
</defs>
</svg>
