<svg xmlns="http://www.w3.org/2000/svg" xmlns:xlink="http://www.w3.org/1999/xlink" viewBox="0 0 624 624">
  <defs>
    <linearGradient id="linear-gradient" x1="355.34" y1="524.69" x2="230.65" y2="87.8" gradientUnits="userSpaceOnUse">
      <stop offset="0" stop-color="#bdcfc1"/>
      <stop offset="1" stop-color="#ebe2e9"/>
    </linearGradient>
    <linearGradient id="linear-gradient-2" x1="26.27" y1="421.41" x2="118.33" y2="525.37" gradientUnits="userSpaceOnUse">
      <stop offset="0" stop-color="#e91bbf"/>
      <stop offset="0.2" stop-color="#e21fbd"/>
      <stop offset="0.51" stop-color="#ce29b7"/>
      <stop offset="0.87" stop-color="#ad39ae"/>
      <stop offset="1" stop-color="#9f40aa"/>
    </linearGradient>
    <linearGradient id="linear-gradient-3" x1="481.81" y1="265.38" x2="503.75" y2="512.17" xlink:href="#linear-gradient-2"/>
  </defs>
  <title>Avatar-Frame-PC</title>
  <g style="isolation: isolate">
    <g id="Layer_6" data-name="Layer 6">
      <rect x="109.4" y="519.4" width="417.4" height="50.14" rx="25.1"/>
      <path d="M599.2,393.1c-9-116-30.1-205.8-62.3-277.8C523.6,85.6,496.5,65,465.2,60.8c-97.6-12.9-178.3-13.2-290-1.3-33.4,3.6-62.3,25.8-75.3,57.9C61.9,210.7,40,298.5,32,440.6c-2.8,50.1,35.7,92.3,84,92.3H475C547.8,532.9,605.1,468.4,599.2,393.1Zm-116.9,3.3c-2.5,28.1-25.7,49.6-53.6,49.6H154.8c-28.7,0-52-23.3-52.5-52.4-1.4-84.6,7-147.3,46.3-237.9A63.5,63.5,0,0,1,197.1,118c75.4-11.6,171.9-11.1,246.5.4a44.7,44.7,0,0,1,37.3,39.3C488.1,222.4,489.3,319.7,482.3,396.4Z" style="fill: url(#linear-gradient)"/>
      <path d="M151.1,532.9h0c0-27.9-19.2-51.6-45.6-56.6-51.9-9.8-73.3-37.5-71.1-72q-1.4,17.6-2.4,36.3c-2.8,50.1,35.7,92.3,84,92.3Z" style="fill: url(#linear-gradient-2)"/>
      <path d="M532,203.7c-19.3,30.6-13.4,35.6-16,192.3a113.8,113.8,0,0,1-1.5,16.6c-5.8,31.9-25.8,56.6-76,64.7-22.5,3.6-39.1,23.9-39.1,47.5v8.1H475c72.8,0,130.1-64.6,124.2-139.9-9-116-30.1-205.7-62.3-277.7C552.3,150.5,551.4,172.6,532,203.7Z" style="fill: url(#linear-gradient-3)"/>
      <path d="M358.2,499.9a11,11,0,0,1-3,7.5,10,10,0,0,1-7.2,3.1H187.5a10.4,10.4,0,0,1-10.2-10.6Z"/>
      <path d="M348,489.4H187.5a10.4,10.4,0,0,0-10.2,10.5H358.2A10.4,10.4,0,0,0,348,489.4Z" style="fill: #9c9e96"/>
      <ellipse cx="191.2" cy="465.9" rx="9.3" ry="7.8" transform="translate(-285 302.1) rotate(-48.7)" style="fill: #9c9e96"/>
      <path d="M199.6,465.9a7.7,7.7,0,0,0-.6-4.8,10.5,10.5,0,0,0-8.6,8.5,8,8,0,0,0,.6,4.9A10.6,10.6,0,0,0,199.6,465.9Z"/>
      <ellipse cx="343.5" cy="465.9" rx="9.3" ry="7.8" transform="translate(-233.2 416.5) rotate(-48.7)" style="fill: #9c9e96"/>
      <path d="M351.9,465.9a8.4,8.4,0,0,0-.6-4.8,10.5,10.5,0,0,0-8.6,8.5,8,8,0,0,0,.6,4.9A10.8,10.8,0,0,0,351.9,465.9Z"/>
      <path d="M226.7,114.2c-10.1,1-20,2.3-29.6,3.8a63.5,63.5,0,0,0-48.5,37.7c-5.3,12.2-10,23.8-14.2,35.1C157.6,150.9,177.5,124.5,226.7,114.2Z"/>
      <path d="M102.2,373.7c-.1,6.6,0,13.2.1,19.9.5,29.1,23.8,52.4,52.5,52.4C127.2,436.6,102.5,395.9,102.2,373.7Z"/>
      <path d="M403,132.2c42.6,3.4,64.7,20.1,65.4,61.5s-10.3,14.5-42.7-15.7S356.4,128.4,403,132.2Z" style="fill: #fff;opacity: 0.59;mix-blend-mode: screen"/>
    </g>
  </g>
</svg>
