<svg width="302" height="170" viewBox="0 0 302 170" fill="none" xmlns="http://www.w3.org/2000/svg">
<g clip-path="url(#clip0)">
<path d="M202.698 1.00025L308.613 1.00024C312.993 5.38104 315.667 10.4558 315.24 15.1402C314.349 25.2464 300.126 26.7212 286.33 19.4343L283.617 17.9162C283.16 19.7752 282.426 21.5348 281.447 23.1211C274.548 34.4418 258.969 35.5261 248.893 27.2417C247.782 26.3328 246.745 25.3169 245.793 24.2055C244.438 26.302 242.893 28.2353 241.181 29.9742C231.841 39.4298 220.758 41.4684 216.533 35.6562C212.813 30.5381 215.681 20.6921 222.734 12.9282C222.734 12.9282 201.884 12.3643 202.698 1.00025Z" fill="white" fill-opacity="0.15"/>
<path d="M54.2183 1.00017L-17.0339 1.00016C-19.98 3.9207 -21.7789 7.30388 -21.4921 10.4268C-20.8925 17.1643 -11.3244 18.1474 -2.04306 13.2895L-0.218083 12.2775C0.0895269 13.5168 0.583088 14.6898 1.2419 15.7474C5.88255 23.2945 16.3631 24.0174 23.1416 18.4944C23.8888 17.8886 24.5867 17.2113 25.2273 16.4703C26.1385 17.868 27.1783 19.1569 28.3298 20.3161C34.6129 26.6199 42.0692 27.9789 44.911 24.1042C47.4138 20.6921 45.4845 14.1281 40.7396 8.95211C40.7396 8.95211 54.7658 8.5762 54.2183 1.00017Z" fill="white" fill-opacity="0.15"/>
<path d="M146.986 211.514H-57.1424C-65.5823 203.018 -70.736 193.176 -69.9144 184.091C-68.1965 164.491 -40.7852 161.631 -14.1955 175.763L-8.96724 178.707C-8.08598 175.102 -6.67199 171.689 -4.78459 168.613C8.51025 146.657 38.5357 144.554 57.9551 160.621C60.0957 162.384 62.0951 164.354 63.9303 166.51C66.5409 162.444 69.5196 158.694 72.8184 155.322C90.8188 136.984 112.18 133.03 120.321 144.302C127.492 154.228 121.965 173.323 108.371 188.381C108.371 188.381 148.554 189.474 146.986 211.514Z" fill="white" fill-opacity="0.15"/>
<path d="M266.27 58.6933L269.959 56.876C270.049 56.775 270.049 56.674 269.959 56.674L266.27 54.8567L264.56 50.6162C264.56 50.5153 264.47 50.5153 264.47 50.6162L262.76 54.7557L259.071 56.674C258.981 56.674 258.981 56.775 259.071 56.876L262.76 58.6933L264.47 62.8328H264.56L266.27 58.6933Z" fill="#6ADBC6"/>
<path d="M62.0124 76.2703L65.4931 74.5473V74.3176L62.0124 72.7095L60.4768 68.9189H60.2721L58.7365 72.7095L55.3581 74.3176C55.2558 74.4325 55.2558 74.5473 55.3581 74.5473L58.7365 76.2703L60.2721 80.1757H60.4768L62.0124 76.2703Z" fill="#FFF5BE"/>
<path d="M237.377 113.558L242.573 111.001C242.606 110.96 242.624 110.906 242.624 110.851C242.624 110.796 242.606 110.742 242.573 110.701L237.377 108.145L235.046 102.28C235.033 102.264 235.018 102.252 235.001 102.243C234.983 102.234 234.965 102.229 234.946 102.229C234.927 102.229 234.908 102.234 234.891 102.243C234.874 102.252 234.858 102.264 234.846 102.28L232.514 108.069L227.319 110.701C227.286 110.742 227.268 110.796 227.268 110.851C227.268 110.906 227.286 110.96 227.319 111.001L232.514 113.558L234.846 119.346C234.935 119.497 235.001 119.497 235.046 119.346L237.377 113.558V113.558Z" fill="#628BF7"/>
<path d="M69.8965 108.145L77.7792 104.24C77.8335 104.24 77.8856 104.216 77.924 104.173C77.9624 104.129 77.984 104.071 77.984 104.01C77.984 103.949 77.9624 103.891 77.924 103.848C77.8856 103.805 77.8335 103.78 77.7792 103.78L69.8965 99.8749C69.8694 99.8749 69.8433 99.8628 69.8241 99.8413C69.8049 99.8197 69.7941 99.7905 69.7941 99.7601L66.2111 90.9155C66.2111 90.6857 66.0063 90.6857 65.904 90.9155L62.4233 99.7601H62.3209L54.3358 103.78C54.2855 103.844 54.2576 103.925 54.2576 104.01C54.2576 104.095 54.2855 104.177 54.3358 104.24L62.3209 108.145H62.4233L65.904 117.105C66.0063 117.334 66.2111 117.334 66.2111 117.105L69.7941 108.26C69.7941 108.23 69.8049 108.2 69.8241 108.179C69.8433 108.157 69.8694 108.145 69.8965 108.145V108.145Z" fill="#FF7ABC"/>
</g>
<defs>
<clipPath id="clip0">
<rect width="302" height="170" rx="8" fill="white"/>
</clipPath>
</defs>
</svg>
