<svg data-name="Layer 6" xmlns="http://www.w3.org/2000/svg" viewBox="0 0 624 624"><defs><linearGradient id="prefix__a" x1="251.32" y1="154.98" x2="370.55" y2="463.5" gradientUnits="userSpaceOnUse"><stop offset="0" stop-color="#ef913c"/><stop offset="1" stop-color="#db5423"/></linearGradient></defs><path d="M593.4 392.9c-11.2-24.4-13.8-46.2-2.7-77.2s8.2-52.8-17.9-71c-14.9-10.4-20.8-20.2-7-56.1 10.2-26.4 8.2-55.6-7.5-82.1-30.8-52.4-70.8-52.7-137.1-47.8a379 379 0 01-151.3-19.1C198.8 15.3 130.5 12.1 80.6 50.7c-37.9 29.4-55.1 91.6-22.4 155.8 17.6 34.6 10.9 44.8-9.1 57.3C22.8 280.2.4 306.5 0 344.1c-.5 41 25.6 70.2 72 86.2 23.7 8.2 28.9 16.7 17.9 45.2-12.2 31.6-11.5 72.4 19 100.8s74.6 30.5 128.2 11.7a198 198 0 01145.4 5.4c74.3 32.6 145.9 30.1 190.8-7.5 50.3-42.1 59.2-108.2 20.1-193zM312 506c-107.1 0-194-86.9-194-194s86.9-194 194-194 194 86.9 194 194-86.9 194-194 194z" fill="#edeae4"/><circle cx="312" cy="312" r="194" opacity=".6" fill="url(#prefix__a)"/><path d="M264.6 168.6A151.1 151.1 0 00161 312M333.7 461.4a151.2 151.2 0 00105.6-68.2" fill="none" stroke="#fff" stroke-linecap="round" stroke-miterlimit="10" stroke-width="31" opacity=".7"/><path d="M72 58.3c-31.7 31.6-43.9 89.1-13.8 148.2 17.6 34.6 10.9 44.8-9.1 57.3 60.1-37 54-73.1 32.7-100.6-29.4-38-34.2-79.6-9.8-104.9z" fill="#c4c7cc"/><path d="M217.3 60.8c0 8.2-12.3 7.4-28 4a56.8 56.8 0 00-34.3 3.3c-20.9 8.9-32.7 2.1-32.7-7.3 0-11.6 21.3-20.9 47.5-20.9s47.5 9.3 47.5 20.9z" fill="#fff"/><ellipse cx="88.1" cy="124.3" rx="7.2" ry="12.1" transform="rotate(-20.1 87.993 124.132)" fill="#fff"/><path d="M571.7 576.2c-45.5 38.4-110.6 28.1-148 17.1s-75.8-31.9-114.8-39.6c-65.3-13-131.4 22.4-178.3-1.7s-32.6-68.3-23.3-90.2c22.1-51.9-12.3-61.9-57.3-75.7-41.9-12.8-51.3-41.2-48.1-59.4A88.3 88.3 0 000 344.1c-.5 41 25.6 70.2 72 86.2 23.7 8.2 28.9 16.7 17.9 45.2-12.2 31.6-11.5 72.4 19 100.8s74.6 30.5 128.2 11.7a198 198 0 01145.4 5.4c74.3 32.6 145.9 30.1 190.8-7.5 23.7-19.8 38.2-45 42.8-74.9-3.3 16.4-13.5 39.1-44.4 65.2z" fill="#c4c7cc"/><path d="M212.7 516.9c63.8 34.9 169.5 54.3 260.8-.9 93-56.2 91.1-167.6 75.8-237-2.5-11.3-4.6-20.2-6-26.5s.1-8.3 4.1-1.6c6.2 10.3 15.3 30 21.3 63.3 22 122.1-13.6 225.9-157.1 254.9-70 14.1-123.5 6.8-186-32.4a287.3 287.3 0 01-25.9-18.2c-17.6-14.3-15.8-17.1 4.2-6.4z" fill="#c4c7cc"/><path d="M541.6 567.7c4 12.2-16.8 21.9-41.2 25.2s-45-.2-46.1-7.9c-.8-5.8 5.7-7.9 22.7-7.2 12.6.6 25.5-1.8 36-8.7 17.4-11.3 26.8-7.2 28.6-1.4z" fill="#fff"/><ellipse cx="565.3" cy="547.3" rx="14.2" ry="10.9" transform="matrix(.58 -.82 .82 .58 -208 692.27)" fill="#fff"/><path d="M541.5 122.2c8.6 23.4 2.5 46.8-10 51.4-9.7 3.5-19.5.9-19.5-20.1a69.5 69.5 0 00-24.2-52.8c-3.4-2.9-5.6-6.1-5.2-10.3a8.4 8.4 0 019-7.4c16.4 1 42.4 18.9 49.9 39.2z" fill="#fff"/><path d="M21.4 311.1c4.7-10 9.9-11.6 9.1 2.1-1.3 20.2 10 38.3 41.5 53.6 47.1 22.9 43.6 57.1 41.1 76.9l-18.8-30.2c1-13.3-2.4-29.4-29.6-37.1s-45.9-17.7-47.4-43.7a43.9 43.9 0 014.1-21.6z" fill="#c4c7cc"/><ellipse cx="118" cy="506" rx="6.8" ry="10.7" fill="#fff"/><path fill="none" d="M0 0h624v624H0z"/></svg>
