<svg width="34" height="40" viewBox="0 0 34 40" fill="none" xmlns="http://www.w3.org/2000/svg">
<g clip-path="url(#clip0_2482_300935)">
<path d="M10.0722 18.7983C8.38515 19.719 3.59179 22.7182 0.425972 27.5214C-0.371992 28.7316 -0.0130012 30.3638 1.22394 31.1126C2.05352 31.615 3.12863 31.3965 3.70153 30.614C3.88381 30.3638 4.0661 30.1247 4.24839 29.8913C4.96265 29.9847 6.41907 29.9062 6.18098 27.682C8.6902 25.1273 10.9967 23.9022 12.3378 23.1814C12.3396 23.1814 10.2824 18.972 10.0722 18.7983Z" fill="url(#paint0_linear_2482_300935)"/>
<path d="M15.0718 31.4113C14.6533 33.3255 14.4338 35.1967 14.233 37.5498C14.0767 39.3949 12.146 40.5266 10.4701 39.7553L10.4124 39.7292C9.40798 39.266 8.783 38.2613 8.81462 37.167C8.87414 34.9876 9.21267 32.4366 9.88415 30.1302C9.89903 30.0816 9.95112 30.0518 9.99948 30.0648L15.0012 31.2993C15.0514 31.3123 15.083 31.3628 15.0718 31.4132V31.4113Z" fill="url(#paint1_linear_2482_300935)"/>
<path d="M16.3891 31.4542C16.8318 33.3628 17.0736 35.2322 17.3024 37.5815C17.4829 39.4247 19.4266 40.5321 21.0932 39.7403L21.1509 39.7123C22.1497 39.238 22.7617 38.2239 22.7171 37.1295C22.6296 34.952 22.2595 32.4048 21.5601 30.1077C21.5452 30.0592 21.4931 30.0293 21.4448 30.0424L16.4598 31.3403C16.4096 31.3534 16.3798 31.4038 16.391 31.4542H16.3891Z" fill="url(#paint2_linear_2482_300935)"/>
<path d="M9.45466 18.4248C7.99265 23.4241 5.86847 29.6429 10.3754 31.1705C13.8183 32.3377 18.2881 31.981 21.2121 30.8531C24.1361 29.7269 23.7994 26.3468 22.9754 22.7201C22.1495 19.0934 20.9498 15.321 20.9498 15.321L9.45466 18.4248Z" fill="url(#paint3_linear_2482_300935)"/>
<path d="M32.9232 14.4359C31.9708 13.4237 31.0297 13.0913 29.9917 14.2454C28.8255 13.4517 27.7467 14.3014 27.9531 15.717C25.6597 17.6386 23.1542 18.1298 20.9947 18.0532C20.9909 18.0532 21.4094 24.0946 21.5601 24.3224C26.8203 23.7622 31.8425 18.6938 31.8425 18.6938C33.3845 17.3977 33.8662 15.4425 32.9213 14.4377L32.9232 14.4359Z" fill="#698FFF"/>
<path d="M9.01953 19.1119C9.01953 19.1119 11.2274 26.4997 22.4491 18.1875L9.01953 19.1119Z" fill="#4677F7"/>
<path d="M18.1486 3.07968C16.0151 3.1301 13.8388 3.32432 11.7705 3.67541C6.81899 4.51579 3.43927 9.00339 4.26141 13.6983C4.26885 13.7412 4.27629 13.7842 4.28373 13.8271C4.82687 16.8151 7.64485 18.9273 10.8423 18.7984C13.5952 18.6864 16.6512 18.4548 19.4971 18.0365C22.875 17.5379 25.2968 14.647 25.0457 11.4181C24.962 10.3331 24.8318 9.2387 24.6569 8.17982C24.1566 5.16007 21.3702 3.00311 18.1467 3.07781L18.1486 3.07968Z" fill="#698FFF"/>
<path d="M8.17255 12.8628C8.62851 12.8298 8.96266 12.3086 8.91889 11.6985C8.87513 11.0885 8.47002 10.6207 8.01406 10.6537C7.5581 10.6866 7.22396 11.2079 7.26772 11.8179C7.31149 12.428 7.7166 12.8958 8.17255 12.8628Z" fill="#141226"/>
<path d="M21.2912 11.1738C21.7472 11.1409 22.0813 10.6196 22.0375 10.0096C21.9938 9.39953 21.5887 8.93173 21.1327 8.96471C20.6768 8.99768 20.3426 9.51895 20.3864 10.129C20.4301 10.739 20.8353 11.2068 21.2912 11.1738Z" fill="#141226"/>
<path d="M17.1496 8.44859C15.2654 8.44299 13.2733 8.65589 11.6308 9.17318C10.5911 9.5 9.8768 10.4188 9.88982 11.4534C9.89726 11.9334 9.92703 12.4189 9.99213 12.9082C10.2302 14.7066 11.9359 15.9765 13.8462 15.842C14.7501 15.7785 15.7025 15.6852 16.6269 15.5544C18.6358 15.2687 20.0569 13.4927 19.763 11.5953C19.6886 11.1173 19.5956 10.6448 19.4821 10.1947C19.2273 9.17132 18.2619 8.45606 17.1496 8.45233V8.44859Z" fill="#B6CBFF"/>
<path d="M13.9522 13.5485L12.532 13.7201C12.2679 13.752 12.0794 13.9924 12.1111 14.2571C12.1429 14.5218 12.3827 14.7106 12.6469 14.6786L14.067 14.5071C14.3312 14.4752 14.5196 14.2348 14.4879 13.97C14.4562 13.7053 14.2163 13.5166 13.9522 13.5485Z" fill="#698FFF"/>
<path d="M16.294 14.2545L17.7163 14.1021C17.9808 14.0738 18.1725 13.8359 18.1443 13.5708C18.1161 13.3056 17.8788 13.1137 17.6143 13.142L16.1919 13.2944C15.9274 13.3227 15.7357 13.5606 15.7639 13.8257C15.7921 14.0909 16.0294 14.2828 16.294 14.2545Z" fill="#698FFF"/>
<path d="M13.9298 1.38198C7.60188 2.0935 2.86432 7.1675 3.34793 12.714C3.59904 15.5825 5.19683 18.0139 7.55724 19.5957C7.89391 19.8217 8.30126 19.9132 8.70303 19.8665L22.2684 18.3408C22.6627 18.2959 23.0329 18.1204 23.3138 17.8365C25.3635 15.758 26.5168 13.0109 26.2657 10.135C25.7821 4.59035 20.2596 0.670465 13.9298 1.38198ZM19.5193 16.8617L10.3138 17.8963C9.28151 18.0121 8.25104 17.6741 7.48841 16.9681L5.49629 15.1268C4.77459 14.4601 4.54767 13.4087 4.93084 12.5011L6.64209 8.443C7.16848 7.19551 8.51888 6.51761 9.83022 6.84256L14.0637 7.89396C14.4301 7.98547 14.8189 7.93878 15.1537 7.76323L18.6506 5.92748C19.8894 5.27759 21.4165 5.66416 22.1977 6.82762L24.4 10.1032C24.9934 10.9865 24.9153 12.1631 24.2084 12.9586L21.7941 15.6777C21.2063 16.3388 20.3953 16.7609 19.5193 16.858V16.8617Z" fill="#DCE4FF"/>
<path fill-rule="evenodd" clip-rule="evenodd" d="M12.1442 1.93298L12.5014 5.07225C12.5237 5.2702 12.7022 5.414 12.8994 5.38972L15.3231 5.11146C15.5202 5.08905 15.6635 4.90977 15.6393 4.71182L15.2821 1.57255C15.2673 1.4493 15.2096 1.33538 15.1185 1.25321L13.8536 0.112164C13.6602 -0.0633806 13.357 -0.0278981 13.2082 0.186864L12.2317 1.58562C12.161 1.68647 12.1293 1.81159 12.1442 1.93485V1.93298Z" fill="#FF7700"/>
<path fill-rule="evenodd" clip-rule="evenodd" d="M13.5485 3.46611L12.5962 5.27572C12.6706 5.35789 12.7822 5.40457 12.9012 5.3915L15.3249 5.11324C15.4439 5.10017 15.5425 5.02921 15.5965 4.9321L14.2609 3.38581C14.0601 3.15424 13.6918 3.19719 13.5485 3.46798V3.46611Z" fill="#FF871D"/>
<path d="M10.7922 15.9317C10.1021 15.7636 9.74126 15.3733 9.38041 15.0782C9.0177 14.785 8.63081 14.9008 8.49875 15.1398C8.36668 15.377 8.39086 16.0269 8.91354 16.5479C9.43621 17.069 10.4834 16.9214 10.8982 16.66C11.313 16.3985 11.2405 16.0381 10.7959 15.9298L10.7922 15.9317Z" fill="#D01582"/>
<path d="M8.43155 15.5133C8.44271 15.8121 8.57105 16.2081 8.91144 16.5479C9.42854 17.0652 10.4646 16.9252 10.885 16.6656C10.4144 16.053 9.70569 15.6814 8.42969 15.5115L8.43155 15.5133Z" fill="#FF78B8"/>
<path d="M27.7819 8.28439L25.7358 8.29746L26.1041 4.75482C26.1376 4.43174 26.4073 4.18523 26.731 4.18336C27.0546 4.18149 27.328 4.42427 27.3652 4.74548L27.78 8.28252L27.7819 8.28439Z" fill="#B5C3F3"/>
<path d="M26.7421 5.78198C26.4427 5.78385 26.1711 5.9015 25.9665 6.09012L25.7358 8.29937L27.7819 8.2863L27.5234 6.08078C27.315 5.8959 27.0435 5.78198 26.7421 5.78385V5.78198Z" fill="#B5C3F3"/>
<path d="M27.4946 7.80322L27.8797 7.80073C28.4191 7.79723 28.8609 8.2351 28.8643 8.77667L28.8855 12.0597C28.8889 12.6012 28.4528 13.0448 27.9134 13.0483L27.5284 13.0508L27.4946 7.80322Z" fill="#FF871D"/>
<path d="M27.9292 7.95174C27.925 7.30094 27.3966 6.77677 26.7489 6.78097C26.1012 6.78517 25.5796 7.31615 25.5838 7.96694L25.6156 12.912C25.6197 13.5628 26.1482 14.0869 26.7959 14.0827C27.4436 14.0785 27.9652 13.5476 27.961 12.8968L27.9292 7.95174Z" fill="#DCE4FF"/>
<path d="M1.46211 11.2818L3.45795 10.8354L2.30844 7.46647C2.20428 7.15833 1.88621 6.98092 1.57 7.05002C1.25379 7.12098 1.04174 7.41792 1.07708 7.74099L1.46211 11.2818Z" fill="#B5C3F3"/>
<path d="M1.91597 8.60941C2.208 8.54405 2.49817 8.59821 2.74183 8.73454L3.45795 10.8355L1.46212 11.2818L1.22217 9.07442C1.38399 8.84659 1.62394 8.67478 1.91597 8.60941Z" fill="#B5C3F3"/>
<path d="M2.77246 15.8687L2.39666 15.9528C1.87017 16.0706 1.34619 15.7364 1.22879 15.2078L0.517139 12.0034C0.399745 11.4748 0.732662 10.9488 1.25915 10.8309L1.63495 10.7468L2.77246 15.8687Z" fill="#FF871D"/>
<path d="M2.31561 15.8169C2.45668 16.4522 3.08352 16.8524 3.7157 16.7108C4.34787 16.5693 4.74599 15.9397 4.60492 15.3044L3.53299 10.4778C3.39191 9.84262 2.76507 9.44241 2.1329 9.58394C1.50072 9.72546 1.10261 10.3551 1.24368 10.9903L2.31561 15.8169Z" fill="#DCE4FF"/>
<path d="M27.9845 33.9735C27.0805 33.7307 25.6818 32.3525 24.7666 31.359C24.3146 30.8697 24.5285 30.0723 25.1628 29.8762C26.45 29.4766 28.3491 28.9835 29.2512 29.2263C30.689 29.6129 31.5726 30.9892 31.2229 32.3002C30.8732 33.6112 29.4242 34.3601 27.9845 33.9735Z" fill="#698FFF"/>
</g>
<defs>
<linearGradient id="paint0_linear_2482_300935" x1="11.6049" y1="17.9038" x2="3.24415" y2="29.7179" gradientUnits="userSpaceOnUse">
<stop stop-color="#4F6FE7"/>
<stop offset="0.79" stop-color="#698FFF"/>
</linearGradient>
<linearGradient id="paint1_linear_2482_300935" x1="11.9438" y1="30.0618" x2="11.9438" y2="40.0007" gradientUnits="userSpaceOnUse">
<stop stop-color="#597BFA"/>
<stop offset="1" stop-color="#698FFF"/>
</linearGradient>
<linearGradient id="paint2_linear_2482_300935" x1="19.554" y1="30.0393" x2="19.554" y2="39.9996" gradientUnits="userSpaceOnUse">
<stop stop-color="#597BFA"/>
<stop offset="1" stop-color="#698FFF"/>
</linearGradient>
<linearGradient id="paint3_linear_2482_300935" x1="15.7212" y1="16.3612" x2="15.7748" y2="39.535" gradientUnits="userSpaceOnUse">
<stop offset="0.52" stop-color="#698FFF"/>
<stop offset="0.83" stop-color="#597BF0"/>
<stop offset="1" stop-color="#4F6FE7"/>
</linearGradient>
<clipPath id="clip0_2482_300935">
<rect width="33.4066" height="40" fill="white"/>
</clipPath>
</defs>
</svg>
