<svg width="180" height="147" viewBox="0 0 180 147" fill="none" xmlns="http://www.w3.org/2000/svg">
<g clip-path="url(#clip0_746_20507)">
<path d="M141.743 139.937H0V142.702C0 143.765 0.422088 144.784 1.17341 145.535C1.92473 146.286 2.94374 146.708 4.00627 146.708H141.743V139.937Z" fill="#BABBBE"/>
<path d="M178.759 70.5329L176.219 68.3887L147.498 139.937H97.3918V142.928C97.3939 143.761 97.6559 144.574 98.1414 145.251C98.6268 145.929 99.3116 146.438 100.1 146.708H148.176C149.088 146.706 149.978 146.43 150.732 145.917C151.486 145.405 152.07 144.678 152.408 143.831L153.592 140.897L153.987 139.937L179.774 74.4263C180.026 73.7517 180.064 73.0158 179.882 72.319C179.7 71.6221 179.308 70.9984 178.759 70.5329Z" fill="#73767D"/>
<path d="M174.301 67.6552H84.9781C84.0215 67.6523 83.086 67.9355 82.2917 68.4684C81.4973 69.0014 80.8805 69.7596 80.5204 70.6458L53.2664 139.937H150.207L177.066 71.7179C177.239 71.267 177.3 70.7809 177.245 70.3012C177.189 69.8215 177.018 69.3623 176.746 68.9631C176.475 68.5638 176.11 68.2363 175.684 68.0085C175.259 67.7808 174.784 67.6595 174.301 67.6552Z" fill="black"/>
<path d="M170.295 72.2822L86.8966 72.1693C86.4477 72.1702 86.0094 72.3049 85.6375 72.5562C85.2656 72.8075 84.9771 73.1639 84.8088 73.58L60.7147 133.561C60.6404 133.731 60.6092 133.917 60.624 134.103C60.6389 134.288 60.6992 134.467 60.7997 134.623C60.9002 134.779 61.0377 134.908 61.2001 134.999C61.3624 135.089 61.5446 135.138 61.7304 135.141L145.129 135.254C145.584 135.249 146.027 135.106 146.4 134.844C146.772 134.582 147.057 134.213 147.216 133.787L171.31 73.8621C171.385 73.6918 171.416 73.5058 171.401 73.3205C171.386 73.1353 171.326 72.9566 171.225 72.8003C171.125 72.644 170.987 72.5149 170.825 72.4245C170.663 72.3341 170.48 72.2852 170.295 72.2822Z" fill="url(#paint0_linear_746_20507)"/>
<path d="M162.564 80.9718L161.097 84.8088L146.144 122.614L144.79 126.113C144.365 127.217 143.613 128.165 142.635 128.83C141.657 129.496 140.5 129.847 139.317 129.837H71.5486C71.1655 129.835 70.7886 129.74 70.4502 129.56C70.1118 129.381 69.822 129.122 69.6057 128.805C69.3893 128.489 69.2528 128.125 69.208 127.745C69.1631 127.364 69.2111 126.979 69.348 126.621L70.9279 122.614L85.8245 84.8088L87.1223 81.4796C87.5573 80.3711 88.3192 79.4212 89.3069 78.756C90.2946 78.0908 91.4613 77.7419 92.652 77.7555H160.364C160.752 77.7436 161.136 77.8295 161.482 78.0053C161.829 78.1811 162.125 78.4411 162.344 78.7615C162.563 79.0818 162.698 79.4522 162.737 79.8385C162.775 80.2247 162.716 80.6145 162.564 80.9718Z" fill="black"/>
<path d="M146.144 122.614L144.79 126.113C144.365 127.217 143.613 128.165 142.635 128.83C141.657 129.496 140.5 129.847 139.317 129.837H71.5486C71.1655 129.835 70.7886 129.74 70.4502 129.56C70.1118 129.381 69.822 129.121 69.6057 128.805C69.3893 128.489 69.2528 128.125 69.208 127.745C69.1631 127.364 69.2111 126.978 69.348 126.621L70.9279 122.614H146.144Z" fill="#292B2F"/>
<path d="M162.564 80.9718L161.097 84.8088H85.8245L87.1223 81.4796C87.5573 80.3711 88.3192 79.4212 89.3069 78.756C90.2946 78.0908 91.4613 77.7419 92.652 77.7555H160.364C160.752 77.7436 161.136 77.8295 161.482 78.0053C161.829 78.1811 162.125 78.4411 162.344 78.7615C162.563 79.0818 162.698 79.4522 162.737 79.8385C162.775 80.2247 162.716 80.6145 162.564 80.9718Z" fill="#292B2F"/>
<path d="M162.564 80.9718L144.79 126.113C144.365 127.217 143.613 128.165 142.635 128.83C141.657 129.496 140.5 129.847 139.317 129.837H129.668L150.15 77.7555H160.364C160.752 77.7436 161.136 77.8295 161.482 78.0053C161.829 78.1811 162.125 78.4411 162.344 78.7615C162.563 79.0818 162.698 79.4522 162.737 79.8385C162.775 80.2247 162.716 80.6145 162.564 80.9718Z" fill="#40444C"/>
<path d="M112.176 68.5016L64.5517 66.1317C64.5517 66.1317 48.1317 57.7806 33.6301 51.4044C26.0125 48.0753 22.6834 47.8496 20.8213 50.7837C20.1442 51.7994 20.2571 53.4358 20.4828 54.9029C20.7085 56.3699 20.257 56.5957 19.0721 57.0471C17.8871 57.4985 10.2696 59.7555 11.1724 65.9624C11.5674 68.7837 14.2194 71.4358 18.1128 72.395C24.4326 73.9185 29.0596 73.2414 31.7116 74.5392C34.3636 75.837 46.4389 83.4546 59.5862 93.1035C59.5862 93.1035 66.0188 110.314 70.9279 122.614H135.649C129.329 95.812 112.176 68.5016 112.176 68.5016Z" fill="url(#paint1_linear_746_20507)"/>
<path d="M62.2383 67.7115L107.774 68.163C100.382 75.8369 86.5016 80.1253 75.4984 77.9811C64.4953 75.8369 62.2383 67.7115 62.2383 67.7115Z" fill="#3C58DA"/>
<path d="M103.881 19.8057C104.623 19.1803 105.223 18.4038 105.642 17.5281C106.06 16.6524 106.287 15.6976 106.307 14.7273C106.307 11.511 103.881 8.80253 100.439 7.674C99.418 7.33556 98.3539 7.14554 97.279 7.10974H96.9969C91.8056 7.10974 89.605 9.8182 85.6552 13.4859C82.9631 15.9024 80.0755 18.0917 77.0219 20.0314L103.881 19.8057Z" fill="#57F287"/>
<path d="M89.2664 21.4984C89.0192 21.4993 88.7758 21.4376 88.5588 21.3193C88.3418 21.2009 88.1582 21.0296 88.0251 20.8213C87.8591 20.4894 87.825 20.107 87.9297 19.751C88.0344 19.395 88.2701 19.0919 88.5893 18.9028C94.5705 15.4043 98.7461 9.25387 100.044 2.0313C100.125 1.67216 100.339 1.35674 100.642 1.14767C100.945 0.938607 101.316 0.85119 101.68 0.902777C102.046 0.971365 102.37 1.18188 102.582 1.48842C102.793 1.79496 102.875 2.17266 102.809 2.53914C102.171 6.41487 100.694 10.1045 98.4815 13.35C96.269 16.5956 93.3744 19.3187 90 21.3291C89.7707 21.4381 89.5203 21.4959 89.2664 21.4984Z" fill="#038E3C"/>
<path d="M94.1191 20.0878L73.5799 20.3135C66.8652 18.7336 63.1411 13.8809 63.536 7.89973C63.8182 3.5549 67.8809 -0.0563843 73.2978 4.20633e-05C79.5611 0.0564684 82.1567 4.17559 84.6959 7.73045C90.3386 15.6301 94.1191 20.0878 94.1191 20.0878Z" fill="#29CC7A"/>
<path d="M85.8809 25.2226C85.627 25.2201 85.3767 25.1623 85.1473 25.0533C78.094 20.7085 72.9592 14.8402 71.21 8.97183C71.1491 8.79793 71.1242 8.61342 71.1371 8.42959C71.1499 8.24576 71.2001 8.06649 71.2846 7.90273C71.3691 7.73898 71.4862 7.5942 71.6286 7.47726C71.771 7.36032 71.9358 7.27367 72.1129 7.22262C72.4646 7.11546 72.8442 7.14986 73.171 7.3185C73.4977 7.48713 73.7457 7.77667 73.8621 8.12544C74.652 10.6082 77.3605 16.9844 86.6144 22.627C86.8681 22.7907 87.0625 23.0314 87.1692 23.3138C87.2759 23.5963 87.2891 23.9054 87.207 24.1959C87.1249 24.4865 86.9518 24.743 86.7131 24.9278C86.4744 25.1126 86.1827 25.2159 85.8809 25.2226Z" fill="#038E3C"/>
<path d="M43.2226 32.8401C45.6489 32.6708 47.511 32.6144 49.8809 32.6144C50.1707 32.614 50.4495 32.7251 50.6596 32.9247C50.8697 33.1243 50.9949 33.3971 51.0094 33.6865V59.5297C51.0022 59.6706 50.9673 59.8086 50.9066 59.936C50.8459 60.0633 50.7607 60.1774 50.6559 60.2718C50.5511 60.3661 50.4287 60.4389 50.2957 60.4858C50.1627 60.5328 50.0217 60.553 49.8809 60.5454C47.511 60.5454 45.6489 60.4326 43.2226 60.2633C41.2526 60.1622 39.3856 59.3528 37.9651 57.9842C36.5446 56.6155 35.6664 54.7798 35.4922 52.815C35.1535 48.6463 35.1535 44.457 35.4922 40.2884C35.6889 38.3321 36.5741 36.5093 37.99 35.1451C39.4059 33.7809 41.2603 32.964 43.2226 32.8401Z" fill="#698FFF"/>
<path d="M44.5204 37.2414C46.326 37.1285 46.8903 37.0721 49.373 37.0721C49.5703 37.0487 49.7702 37.0656 49.9607 37.1217C50.1512 37.1779 50.3283 37.2721 50.4813 37.3987C50.6343 37.5254 50.76 37.6817 50.8508 37.8584C50.9415 38.035 50.9955 38.2282 51.0094 38.4263V52.1944C50.9955 52.3925 50.9415 52.5857 50.8508 52.7623C50.76 52.939 50.6343 53.0954 50.4813 53.222C50.3283 53.3486 50.1512 53.4428 49.9607 53.499C49.7702 53.5551 49.5703 53.572 49.373 53.5486C46.9467 53.5486 46.326 53.4922 44.5204 53.3793C42.7147 53.2665 41.0219 52.0251 40.7962 50.5016C40.4295 47.0316 40.4295 43.5327 40.7962 40.0627C40.9655 38.5956 42.5455 37.3542 44.5204 37.2414Z" fill="#B8CDFF"/>
<path d="M129.047 43.8432C129.148 39.3817 128.808 34.9211 128.031 30.5266C126.903 23.8683 121.768 18.7899 114.94 17.4921C109.354 16.42 95.7555 15.9686 86.2194 15.9686C76.6834 15.9686 63.0846 16.42 57.5549 17.4921C50.7273 18.7899 45.5361 23.8683 44.464 30.5266C43.687 34.9211 43.3468 39.3817 43.4483 43.8432C43.3468 48.3047 43.687 52.7653 44.464 57.1598C45.5361 63.8182 50.7273 68.8965 57.5549 70.2508C63.0846 71.2664 76.7398 71.7743 86.2194 71.7743C95.6991 71.7743 109.354 71.2664 114.94 70.2508C121.768 68.8965 126.903 63.8182 128.031 57.1598C128.808 52.7653 129.148 48.3047 129.047 43.8432Z" fill="#698FFF"/>
<path d="M83.2853 54.0565H70.2508C63.8746 54.0565 59.6426 50.558 58.627 45.9875C57.6113 41.417 57.7806 38.6521 58.232 33.8558C58.627 30.0189 61.5047 28.3261 64.9467 28.3261H87.0094C87.8218 28.3186 88.6277 28.4722 89.3804 28.7779C90.1332 29.0837 90.8179 29.5356 91.395 30.1074C91.9721 30.6793 92.4302 31.3598 92.7428 32.1097C93.0554 32.8597 93.2163 33.6641 93.2163 34.4765V43.3355C93.2163 50.3323 89.7179 54.0565 83.2853 54.0565Z" fill="#B8CDFF"/>
<path d="M68.3887 43.0532H65.5674C64.8881 43.0223 64.2238 43.2591 63.7173 43.7128C63.2108 44.1666 62.9026 44.801 62.8589 45.4796C62.8804 45.8133 62.9676 46.1394 63.1155 46.4394C63.2634 46.7393 63.4691 47.007 63.7208 47.2272C63.9725 47.4474 64.2651 47.6158 64.582 47.7225C64.8989 47.8293 65.2338 47.8725 65.5674 47.8495H68.3887C68.7268 47.8724 69.0661 47.8273 69.3865 47.7171C69.707 47.6068 70.0021 47.4335 70.2545 47.2074C70.5069 46.9812 70.7115 46.7069 70.8563 46.4005C71.001 46.094 71.0829 45.7617 71.0972 45.4231C71.0972 44.1253 69.9122 43.0532 68.3887 43.0532Z" fill="#698FFF"/>
<path d="M81.5361 42.9968H78.7712C78.0919 42.9659 77.4275 43.2027 76.9211 43.6565C76.4146 44.1102 76.1064 44.7446 76.0627 45.4232C76.077 45.7618 76.1589 46.0941 76.3036 46.4005C76.4484 46.7069 76.653 46.9813 76.9054 47.2074C77.1578 47.4335 77.4529 47.6068 77.7734 47.7171C78.0938 47.8274 78.4331 47.8724 78.7712 47.8495H81.5925C82.2718 47.8805 82.9361 47.6436 83.4426 47.1899C83.9491 46.7362 84.2573 46.1018 84.3009 45.4232C84.2433 44.7397 83.9231 44.1051 83.4076 43.6527C82.892 43.2003 82.2212 42.9652 81.5361 42.9968Z" fill="#698FFF"/>
<path d="M100.495 40.4577C102.552 40.4577 104.219 38.7903 104.219 36.7335C104.219 34.6768 102.552 33.0094 100.495 33.0094C98.4385 33.0094 96.7712 34.6768 96.7712 36.7335C96.7712 38.7903 98.4385 40.4577 100.495 40.4577Z" fill="black"/>
<path d="M50.953 40.4577C53.0098 40.4577 54.6771 38.7903 54.6771 36.7335C54.6771 34.6768 53.0098 33.0094 50.953 33.0094C48.8962 33.0094 47.2288 34.6768 47.2288 36.7335C47.2288 38.7903 48.8962 40.4577 50.953 40.4577Z" fill="black"/>
<path d="M98.1254 63.8182C95.8253 64.424 93.3803 64.1209 91.2978 62.9718C89.4922 61.9561 88.3072 60.4326 88.5329 59.1348C88.8151 56.9342 99.7618 53.1536 102.188 53.9436C103.091 54.2257 103.599 55.1849 103.712 56.3699C103.735 58.0543 103.2 59.6991 102.189 61.0468C101.178 62.3945 99.7491 63.3691 98.1254 63.8182Z" fill="#EA459E"/>
<path d="M131.191 32.8401C128.765 32.6708 126.903 32.6144 124.533 32.6144C124.249 32.6144 123.976 32.7273 123.775 32.9284C123.574 33.1294 123.461 33.4021 123.461 33.6865V59.5297C123.461 59.668 123.489 59.8049 123.543 59.9319C123.598 60.059 123.678 60.1735 123.778 60.2686C123.878 60.3637 123.997 60.4373 124.127 60.4849C124.257 60.5325 124.395 60.5531 124.533 60.5454C126.903 60.5454 128.765 60.4326 131.191 60.2633C133.153 60.1394 135.008 59.3225 136.424 57.9583C137.84 56.5941 138.725 54.7713 138.922 52.815C139.213 48.6438 139.194 44.4567 138.865 40.2884C138.67 38.3411 137.793 36.5254 136.389 35.1624C134.984 33.7994 133.143 32.9768 131.191 32.8401Z" fill="#698FFF"/>
<path d="M129.893 37.2413C128.144 37.1285 127.524 37.0721 125.041 37.0721C124.846 37.0485 124.649 37.0656 124.462 37.1223C124.275 37.179 124.101 37.274 123.953 37.4014C123.804 37.5287 123.684 37.6856 123.599 37.8621C123.514 38.0385 123.467 38.2307 123.461 38.4263V52.1943C123.475 52.3924 123.529 52.5856 123.619 52.7623C123.71 52.9389 123.836 53.0953 123.989 53.2219C124.142 53.3485 124.319 53.4428 124.51 53.4989C124.7 53.5551 124.9 53.5719 125.097 53.5485C127.524 53.5485 128.144 53.4921 129.95 53.3793C131.755 53.2664 133.448 52.025 133.674 50.5015C134.022 47.0296 134.003 43.5306 133.618 40.0626C133.448 38.5956 131.868 37.3542 129.893 37.2413Z" fill="#B8CDFF"/>
<path d="M117.31 95.1912C117.31 95.1912 152.972 115.053 159.235 117.536C162.508 118.89 165.216 118.777 165.781 116.859C166.031 115.592 166.031 114.289 165.781 113.022C172.27 111.724 175.317 107.549 174.47 103.655C173.172 97.8432 163.411 96.9968 161.436 95.5298C156.301 91.7492 143.605 83.3981 133.448 76.8526C127.241 72.8464 119.116 69.5172 110.031 69.5172L117.31 95.1912Z" fill="#698FFF"/>
<path d="M128.821 103.937L128.313 103.768L115.73 97.279C115.597 97.2123 115.478 97.12 115.38 97.0074C115.283 96.8947 115.208 96.7639 115.161 96.6225C115.114 96.481 115.095 96.3316 115.106 96.1829C115.116 96.0341 115.156 95.8889 115.223 95.7555C115.289 95.6221 115.382 95.5032 115.494 95.4055C115.607 95.3078 115.738 95.2332 115.879 95.1861C116.021 95.1389 116.17 95.1201 116.319 95.1307C116.467 95.1412 116.613 95.181 116.746 95.2477L129.386 101.793C129.636 101.946 129.821 102.187 129.904 102.468C129.988 102.75 129.964 103.052 129.837 103.317C129.748 103.509 129.604 103.67 129.423 103.781C129.242 103.891 129.033 103.946 128.821 103.937Z" fill="#3C58DA"/>
<path d="M136.552 112.345L132.15 122.614H142.364L142.702 119.85L136.552 112.345Z" fill="#40444C"/>
<path d="M98.1254 63.8182C95.8253 64.4239 93.3803 64.1208 91.2978 62.9718C93.1547 60.8831 95.4467 59.2267 98.0125 58.1191C99.8204 57.2707 101.739 56.6818 103.712 56.3699C103.735 58.0543 103.2 59.6991 102.189 61.0468C101.178 62.3945 99.7491 63.3691 98.1254 63.8182Z" fill="#FFAED7"/>
</g>
<defs>
<linearGradient id="paint0_linear_746_20507" x1="116.013" y1="72.4909" x2="116.013" y2="134.419" gradientUnits="userSpaceOnUse">
<stop stop-color="#FFE65C"/>
<stop offset="1" stop-color="#FFC518"/>
</linearGradient>
<linearGradient id="paint1_linear_746_20507" x1="97.7191" y1="98.4076" x2="13.7624" y2="59.479" gradientUnits="userSpaceOnUse">
<stop offset="0.09" stop-color="#698FFF"/>
<stop offset="1" stop-color="#4169DF"/>
</linearGradient>
<clipPath id="clip0_746_20507">
<rect width="180" height="147" fill="white"/>
</clipPath>
</defs>
</svg>
