<svg height="65" viewBox="0 0 65 65" width="65" xmlns="http://www.w3.org/2000/svg"><path d="m32.5.5c-17.673112 0-32 14.326888-32 32s14.326888 32 32 32 32-14.326888 32-32-14.326888-32-32-32zm14.68 46.16c-.5768588.935466-1.8004619 1.2302025-2.74.66-7.51-4.59-17-5.63-28.11-3.09-.7154182.2164575-1.4918317.015926-2.0129499-.5199031-.5211182-.5358292-.6999633-1.3175231-.4636785-2.0266398.2362848-.7091168.8482621-1.2273007 1.5866284-1.3434571 12.19-2.79 22.65-1.59 31.08 3.57.9415306.577221 1.2369974 1.8083323.66 2.75zm3.92-8.71c-.7229227 1.1705793-2.2558093 1.537042-3.43.82-8.6-5.29-21.71-6.82-31.89-3.73-.8520784.2590176-1.7776156.0437812-2.4279706-.5646316s-.9267234-1.5175696-.725-2.385c.2017234-.8674303.8508922-1.5613508 1.7029706-1.8203684 11.62-3.53 26.07-1.82 35.95 4.25 1.165766.7224019 1.5279122 2.2514637.81 3.42zm.34-9.07c-10.31-6.13-27.33-6.69-37.18-3.7-1.0459978.3902637-2.2221867.1674036-3.052916-.5784556s-1.1785676-1.8913266-.9028491-2.9731752c.2757186-1.0818486 1.1293806-1.9211032 2.2157651-2.1783692 11.3-3.43 30.09-2.77 42 4.28 1.3201426.8885116 1.7168626 2.6531995.9040137 4.0212295-.8128488 1.36803-2.5524281 1.8633829-3.9640137 1.1287705z" fill="#1ed760"/></svg>