<svg xmlns="http://www.w3.org/2000/svg" viewBox="0 0 624 624"><g data-name="Layer 11"><circle cx="415.9" cy="113.4" r="29.4"/><path d="M293 227.5c-33.4 5.9-60.6-7.9-73.6-46.6l-6.8 14.6c13 36.7 40.3 50.3 81.2 41.4z" fill="#f5c749"/><path d="M271.2 242.5c-29.9 0-50.5-15.4-61.4-46a3.3 3.3 0 01.1-2.2l6.8-14.6a3.1 3.1 0 012.9-1.8 2.9 2.9 0 012.6 2.1c11.8 35.1 36.1 50.6 70.2 44.6a2.9 2.9 0 012.4.5 3.3 3.3 0 011.1 2.1l.9 9.5a2.9 2.9 0 01-2.3 3.1 110.5 110.5 0 01-23.3 2.7zm-55.3-46.8c12.3 33.5 36.7 46.3 74.7 38.9l-.3-3.7c-33.1 4.7-58-10.2-71.2-42.3z"/><path d="M198.8 229c-3 20.4-30.4 22.6-49.7 47-11.2 14.1-8.7 31.4 5.8 50.6l11.3-7.3c-14.8-18.4-8.9-37.1 13.3-50.1 29.3-17.2 40.9-37.6 41-69.6z" fill="#f5c749"/><path d="M154.9 329.5a2.8 2.8 0 01-2.3-1.1c-10.9-14.4-20.8-35.4-5.8-54.3 8.9-11.3 19.4-17.9 28.7-23.7s18.9-12 20.4-21.8a2.4 2.4 0 01.5-1.4l21.7-29.4a3 3 0 013.3-1.1 3.2 3.2 0 012.1 2.9c-.1 33.2-12.8 54.8-42.5 72.2-11.3 6.6-18.1 14.6-19.6 23.3s1 14.8 7.1 22.3a3 3 0 01-.7 4.4l-11.3 7.3a2.9 2.9 0 01-1.6.4zm46.7-99.3c-2.1 12.1-11.8 18.2-23 25.2-8.8 5.6-18.8 11.9-27.2 22.4-9.7 12.3-8.2 27.3 4.3 44.8l6.2-4.1c-5.7-8-7.9-16.4-6.4-24.5 1.9-10.4 9.7-19.8 22.5-27.4 25-14.6 36.8-31.7 39.1-57.4z"/><path d="M41.8 345.9c11.3 9.4 20.2 23.5 6.7 32.6s-26.4.5-34-13.8a2.6 2.6 0 00-3.3-1.1l-3.9 1.9a2.5 2.5 0 00-1.4 3C9.5 380.1 18.6 397 37.3 397s32.4-17.9 33.6-28.4z" fill="#f5c749"/><path d="M37.3 400c-9.2 0-17.1-3.7-23.6-10.9a52.6 52.6 0 01-10.6-19.7 5.6 5.6 0 012.9-6.6l3.9-1.9a5.5 5.5 0 017.2 2.4c4.3 8 10.5 13.5 16.9 15.2a15.5 15.5 0 0012.8-2.5c3.5-2.3 5.3-5.1 5.5-8.3.3-5.5-4.4-12.8-12.4-19.5a2.9 2.9 0 01-.4-4.2 3 3 0 014.1-.5l29.1 22.7a2.9 2.9 0 011.2 2.7C72.6 380.1 59.3 400 37.3 400zM8.9 368c2.6 8.2 10.2 26.1 28.4 26.1 9.4 0 27.5-8.3 30.4-24.3l-10.3-8a16.3 16.3 0 01.8 6.2c-.2 5.2-2.9 9.5-8.1 13a21.5 21.5 0 01-17.5 3.2c-8-2-15.4-8.4-20.5-17.7z"/><ellipse cx="329.9" cy="161" rx="15.7" ry="18.4" transform="rotate(-51.7 329.74 161.032)" fill="#db504c"/><path d="M332.7 180.8c-10.9 0-21.2-8.7-22.9-19.3a17 17 0 013.7-14.2 17.5 17.5 0 0113.7-6.1c10.8 0 21.1 8.7 22.9 19.3a17.2 17.2 0 01-17.4 20.3zm-5.5-33.6a11.9 11.9 0 00-9.2 3.9 11.5 11.5 0 00-2.4 9.4c1.3 7.9 9 14.3 17.1 14.3a11.7 11.7 0 009.1-3.9 11.4 11.4 0 002.4-9.4c-1.3-7.9-8.9-14.3-17-14.3z"/><path d="M93 202.4l-23.2-5.8a10.3 10.3 0 01-7.2-13.4l4.7-13a10.3 10.3 0 0112.2-6.6l23.1 5.8a10.3 10.3 0 017.2 13.5l-4.6 13a10.3 10.3 0 01-12.2 6.5z" fill="#db682a"/><path d="M95.5 205.7a11.2 11.2 0 01-3.2-.4l-23.2-5.8a13.4 13.4 0 01-8.5-6.6 13.7 13.7 0 01-.8-10.7l4.7-13a13.2 13.2 0 0115.7-8.5l23.1 5.8a12.9 12.9 0 018.5 6.6 13.2 13.2 0 01.8 10.8l-4.6 13a13.2 13.2 0 01-12.5 8.8zM77 166.3a7.2 7.2 0 00-6.9 4.9l-4.7 13a7.2 7.2 0 00.5 5.9 7 7 0 004.7 3.7l23.1 5.8a7.3 7.3 0 008.7-4.7l4.6-13a7.1 7.1 0 00-.4-5.9 7.3 7.3 0 00-4.7-3.7l-23.1-5.8a5.5 5.5 0 00-1.8-.2z"/><path d="M506.9 172a241.8 241.8 0 00-32.1-36.4l-7.5 6.7c-1.6.9-3.4 1.7-5.2 2.5a71 71 0 01-7.8 2.7c-40.5 12.9-59.9-.8-78.1-12.2a48.4 48.4 0 00-13.1-6.1c26.8 8.9 25.9 38.1 16.2 57.9a7.5 7.5 0 01-5.2 4l-13.3 2.7a1.4 1.4 0 01-1.5-2c9.2-17.8 3.8-39.3-14.5-40.1-21.4-1.1-36.7 29-69.3 43.5-18.5 8.3-45.5 6.3-59.5-19.9 11 27.4 3.4 51.8-34.9 59.3-40.7 7.9-42.5 20.4-40 41.1s-4 39.3-35.9 44.4a41.9 41.9 0 01-22.5-2.6 56.3 56.3 0 01-8.8-4.5l-.3-.2-1.6-.8a240.1 240.1 0 0016.3 87.2c-2 3.7-8.7 10.6-8.7 10.6-14.2 10.3-26.9 11-36 22.3s-4.4 24.1 4.3 27.4c-19.4-3.6-21.1-25.2-11.1-35a25 25 0 01-20.7-14.9c9.4 6.5 29.1 9.2 41.5-5.8s6.3-35.9-8.1-50.7-47.2-33.8-45.1-68.9c.9-14.7 6.7-25.4 14.7-33.3s18.1-12.6 27.5-15.5c-21.1-1-22.5-23.9-15.1-35.2a4.3 4.3 0 01.9-1 42.1 42.1 0 0119.4-9.5 24.5 24.5 0 00-3.9 12.2c-.4 9.8 9 25.1 23.7 25.7h1c4.7 0 10-1.5 15.6-5.2-11.8-19.8-11.3-36.8 3.2-47.2a37.1 37.1 0 0130.5-5.8 229.7 229.7 0 0129-31.7 221.6 221.6 0 0123.9-19.3 236 236 0 0158.7-30.1q-2-3.7-3.6-7.2c-8.7-17-7.1-40.5 20.4-44.3 18.9-2.6 32.9 8.7 42.7 20.1l4.5 5.2c20.4-14.7 48.9-13.2 66.7 4 12.9-10.3 31.4-12.7 43.5-1.6 8.2 7.5 9.3 21.7 3.2 32.3l5 2.4c16.8-9.6 31.9-17.4 54.4-17.4 24.1 0 48.4 18.2 50.9 45.5 1.3 13.6-14.3 44.7-14.3 44.7z" fill="#f5c749"/><path d="M255.3 202.5A47 47 0 01237 199c-12.3-5.1-21.6-15.5-27.1-30a3 3 0 011.7-3.9 3 3 0 013.8 1.8c4.9 12.9 13.2 22.1 23.9 26.6s23.7 4.1 35-1c14.5-6.5 25.6-16.2 35.3-24.7 12.1-10.6 22.5-19.7 35.3-19.1 7.9.4 14.3 4.2 18.1 10.9 4.8 8.3 4.8 20.1.3 30.7l10.2-2.1a4.4 4.4 0 003.1-2.4c5-10.3 8.6-25.7 3.4-38.1-3.2-7.6-9.2-12.8-17.8-15.7a2.9 2.9 0 01-1.9-3.7 3 3 0 013.8-1.9c10.2 3.3 17.6 9.9 21.4 19 5.9 14.2 2 31.5-3.6 43a10.2 10.2 0 01-7.3 5.6l-13.3 2.7a4.4 4.4 0 01-4.3-1.6 4.7 4.7 0 01-.4-4.7c5-9.5 5.5-20.5 1.3-27.9a15.6 15.6 0 00-13.3-7.9c-10.4-.5-19.5 7.5-31 17.6s-21.5 18.9-36.9 25.8a53 53 0 01-21.4 4.5z"/><path d="M98.7 323.6c-13.6 0-27.2-6.3-38.8-18.3a3 3 0 114.3-4.2c12.2 12.6 26.6 18.3 40.5 16.1 25.4-4.1 36.3-17.6 33.5-41.1-1.2-10-1.8-19.6 4.4-27.6s17.7-12.9 38-16.9c17.4-3.4 28.9-10.4 34-21s3.7-25.1-4.6-41.3a3 3 0 011.3-4 2.9 2.9 0 014 1.3c9.2 17.9 10.8 34 4.6 46.6s-18.8 20.5-38.2 24.3c-39.3 7.7-39.9 18.8-37.6 37.9 3.2 26.6-10.1 43.1-38.5 47.7a53.4 53.4 0 01-6.9.5z"/><path d="M92.6 316.5c-19.2 0-31.9-10.5-32.5-11.1a2.9 2.9 0 013.8-4.5c.2.1 16.9 13.9 40 8.3 8.4-2 14.3-6 17.6-11.8 5.3-9.2 3.3-21.6.6-30.4-4.2-14.2-7.8-30.4 3.6-41.4 8.6-8.2 22.5-9.7 37.3-11.2l12.6-1.5c19.6-2.8 27.7-14.6 26.3-38.3a3.1 3.1 0 012.8-3.1 3 3 0 013.2 2.8c1.5 26.7-8.8 41.3-31.5 44.5l-12.8 1.5c-13.7 1.4-26.7 2.8-33.7 9.6s-6.9 19.4-2.1 35.4c4.3 14.2 3.9 26.3-1.1 35.1-4.2 7.2-11.3 12.1-21.4 14.6a52.9 52.9 0 01-12.7 1.5z"/><path d="M147.2 183.3a3 3 0 01-4.2.2c-8.9-7.9-30.8-19.3-49.8-5.8-5.9 4.3-9.3 9.7-10.1 16.3s1.6 16.7 7.5 26.7l.3.6a97.9 97.9 0 005.8 8.4l.2.3v.2q2.4 3.2 5.4 6.6c19.4 22.6 24.1 39.9 14.4 53.1s-24.9 13-42.3 2.2c-9.7-6-17.3-4.3-20.3-.1-1.2 1.6-2.8 5.9-1.3 11.9s6.2 14.6 19.6 23.6a4.5 4.5 0 00.1 1.1c.1 2.1.3 4.2.5 6.3-13.3-8.1-20.1-16.2-23.5-23a32.3 32.3 0 01-2.5-6.6c-1.8-7.6.1-13.8 2.3-16.8 4.5-6.3 15.3-9.5 28.2-1.4 21 12.9 31.1 3.8 34.4-.8 5.4-7.2 4.9-16.5-1.5-28.1a108.1 108.1 0 00-12.7-17.5l-5.7-7.1v-.2c-1.4-1.8-2.6-3.6-3.8-5.4s-2.7-4.3-3.9-6.4c-5.7-10.3-8.2-19.9-7.1-28.4s5.2-15.1 12.5-20.3c19.2-13.7 43.1-6.4 57.3 6.2a3 3 0 01.2 4.2z"/><path d="M110.5 258.2a12.8 12.8 0 01-2.3 4.7c-3.6 4.8-11.7 8.8-29.8.9-8.9-3.9-30-11.4-40.3-1.3l-.2.2-1.3 1.5c-8.4 11-4.8 28.8 8.6 43.2 1.4 1.5 2.9 3 4.4 4.4a105.4 105.4 0 0023 16.7c.1 2.1.3 4.2.5 6.3a1.5 1.5 0 00.1.7 111 111 0 01-32.4-24.1c-15.3-16.5-19.1-37.4-9-50.7 0-.1.1-.2.1-.3l1.9-2.2c4.6-4.5 11-6.8 18.9-6.8s17.5 2.2 28 6.8c6.6 2.9 18.4 6.8 22.7 1 3.3-4.3.2-9.2-10.2-24.1l-1.1-1.6v-.2a3 3 0 014.7-3.7l.2.3v.2l1.1 1.6c8.6 12.5 13.8 19.9 12.4 26.5zM46.6 238.4h-.2c-8.8-.4-15.6-4.6-19.2-11.6s-3.5-20.2 1.8-28.3a10 10 0 011.4-1.5 44.2 44.2 0 0120.9-10.2 3.2 3.2 0 013 1.2 3 3 0 010 3.3 21.5 21.5 0 00-3.4 10.7c-.3 6.2 4.3 15.6 12.1 20.1s15.2 3.3 23.6-2.1a3 3 0 113.2 5c-10.2 6.6-20.8 7.4-29.7 2.3s-15.5-17.6-15.2-25.6a31.2 31.2 0 011.4-7.4 36.9 36.9 0 00-11.9 7.1.8.8 0 00-.4.4c-4.1 6.3-4.8 15.9-1.5 22.3s7.4 8 14.2 8.3a3 3 0 012.8 3.2 2.9 2.9 0 01-2.9 2.8zM508.9 174.8c-1.2-1.8-2.5-3.6-3.8-5.3 15.6-24.6 11.6-44.7 1.8-55.7s-28.2-14.7-43.3-5.9c-28.3 16.4-46.4 24.4-66.6 22.6a3 3 0 01.5-5.9c18.6 1.6 35.9-6.1 63.1-21.9 17.4-10 38.2-7.1 50.8 7.1a43.8 43.8 0 013.9 5.4c-.5-1.3-1-2.5-1.6-3.7-8-15.9-25.4-26.6-43.4-26.6-23.6 0-38.5 8.6-57.2 19.5-1.5.9-3 1.8-4.6 2.6-14.5 8.4-27.6 7.2-40.2 6.1-9.4-.9-18.3-1.7-27.2 1.6-13.8 5.1-21.4 16.7-29.4 29s-18.1 27.8-36.5 36.4a59.5 59.5 0 01-25.5 5.9 55.9 55.9 0 01-39.2-16 3 3 0 014.3-4.2c12 12.3 34.6 19.8 57.9 8.9 16.8-7.8 25.6-21.2 34-34.2s16.7-25.7 32.3-31.4c10.2-3.7 20.2-2.8 29.8-1.9 12.3 1.1 23.9 2.1 36.8-5.3l4.5-2.6c18.8-10.9 35-20.3 60.2-20.3 20.1 0 39.7 12 48.7 29.8 5.8 11.5 11.9 35.2-10.1 66z"/><path d="M434.1 155c-13.5 0-22.3-8.8-31.5-18.1-11.2-11.2-23.8-23.9-48.2-24.5a3.2 3.2 0 01-2.9-3.1 3.1 3.1 0 013.1-2.9c26.7.7 40.9 14.9 52.2 26.3s18.4 18.5 32.7 15.8a3 3 0 011.1 5.9 37.4 37.4 0 01-6.5.6z"/><path d="M248.9 186a3 3 0 110-5.9c32 0 54.8-18.6 74.7-38.6 22.9-23.1 39.6-17.8 54.1-8.8l2.2 1.4c12.3 7.7 25 15.7 44.5 15.7s35.6-5.6 49.2-17.1 24.6-14 34-10a21.3 21.3 0 0111.8 12.1c2.6 6.5 2.2 14.5-1.3 22.3a3 3 0 01-3.9 1.5 2.9 2.9 0 01-1.5-3.9c2.8-6.4 3.2-12.7 1.2-17.7a15.5 15.5 0 00-8.6-8.8c-7.3-3.1-17.2.1-27.8 9.1-14.8 12.4-32.2 18.4-53.1 18.4s-35.3-8.8-47.7-16.6l-2.1-1.3c-14.9-9.3-27.9-11.2-46.8 7.9-20.8 20.9-44.7 40.3-78.9 40.3z"/><path d="M248.9 186a3 3 0 110-5.9c11.6 0 20.2-3.5 25.6-10.4 8.1-10.3 9.5-29.1 3.8-52.9-4.3-18-5.7-36.9 12.9-53.5A56.7 56.7 0 01343.1 51c17.6 4.7 31.2 17.6 37.2 35.5a2.9 2.9 0 01-1.9 3.7 2.9 2.9 0 01-3.7-1.8c-5.4-15.9-17.5-27.5-33.1-31.6a50 50 0 00-46.4 11c-15.4 13.6-15.6 28.9-11.1 47.7s7 42.8-5 57.9c-6.5 8.4-16.7 12.6-30.2 12.6zM56.3 235.7a22.2 22.2 0 01-14.7-5.5 19 19 0 01-6.7-16.3 3 3 0 115.9.6 13.5 13.5 0 004.8 11.3 16.6 16.6 0 0014.9 3.5 2.9 2.9 0 013.6 2.2 3 3 0 01-2.2 3.6 26 26 0 01-5.6.6z"/><path d="M232.8 165.9a36.6 36.6 0 01-13.3-2.6 3 3 0 01-1.7-3.8 3 3 0 013.9-1.7 28.6 28.6 0 0026.3-2.4c8.5-5.7 13.3-16.3 13.5-29.8.5-29.1.9-56.7 28.4-70.2a39.1 39.1 0 0123.6-3.9 3.1 3.1 0 012.5 3.4 2.9 2.9 0 01-3.4 2.5 33.9 33.9 0 00-20.1 3.3c-22.6 11.2-24.5 32-25 65-.3 15.5-6 27.8-16.2 34.6a32.8 32.8 0 01-18.5 5.6zM288.9 170.6a2.6 2.6 0 01-2.1-.8 3 3 0 01-.1-4.2c25-25.2 25.9-42.4 26.9-59l.3-5c1-14.8 7.2-25.8 16.9-30.3s23.8-4.7 48.5 13.7a3.1 3.1 0 01.6 4.2 3 3 0 01-4.2.6c-17.6-13.2-32.3-17.7-42.4-13.1-7.7 3.5-12.6 12.8-13.5 25.3l-.3 4.9c-.5 8.7-1 17.7-4.7 28s-12 22.9-23.8 34.9a2.9 2.9 0 01-2.1.8z"/><path d="M316.9 101.8c1.8-26.5 21.1-43.9 60.6-14.4l-25.1-2.6-16.4 3.9z"/><path d="M388 113.6a3 3 0 01-.1-6c10.7-.5 18.8-6.4 22.3-16.1s1.4-19.3-4.5-24.7c-11.4-10.5-28.6-7.1-39.6 1.7a3 3 0 11-3.7-4.7c13-10.3 33.4-14.2 47.3-1.4 7.8 7.1 10.2 19.6 6.1 31.1s-14.6 19.4-27.6 20.1z"/><path d="M316.7 106.7a2.6 2.6 0 01-1.8-.7 3 3 0 01-.5-4.2c16.3-20.4 41.5-25.5 69.2-14 12.2 5 17-2.7 18.1-5.1s3-9.7.9-14.9a11.7 11.7 0 00-7-6.6 2.9 2.9 0 01-1.7-3.9 2.9 2.9 0 013.8-1.7 17.2 17.2 0 0110.4 10c3 7.5.8 15.9-1 19.6-3.4 7.2-12.2 13.7-25.8 8.1-25-10.4-47.7-6-62.2 12.3a3.2 3.2 0 01-2.4 1.1zM59.3 241.6c6.3-3 12.3-5.8 17.6-10.2a136.2 136.2 0 01-19.4 4.5C46.3 237.8 9.6 247 7.3 284.4c-1.5 26.4 17.9 43.2 33.4 56.6a139.3 139.3 0 0110.9 10c7.8 8 13.1 17.5 14.9 26.8s-.2 20.1-6.6 27.9c-9.8 11.9-23.8 13.6-34.8 11a22.9 22.9 0 0012 4.9 3 3 0 012.5 2 3 3 0 01-.8 3.1c-4.4 4.3-6.2 11.8-4.3 18.2a15.6 15.6 0 002.1 4.3 22.8 22.8 0 014.7-19c5.7-7.1 12.7-10.3 20.1-13.7a85 85 0 0016.4-9.1 32.1 32.1 0 009.6-10.7c.8 2.3 1.8 4.6 2.7 6.9a40 40 0 01-8.8 8.6 94.6 94.6 0 01-17.4 9.7c-7.1 3.2-13.2 6-18 12a17.2 17.2 0 00-3.3 15c1.1 3.8 3.4 6.7 6.4 7.8a3 3 0 011.8 3.6 2.9 2.9 0 01-2.8 2.2h-.6c-9.2-1.7-16-7.5-18.5-15.8a24.7 24.7 0 012.5-20.1 27.7 27.7 0 01-18-15.6 3 3 0 01.8-3.6 3 3 0 013.6-.1c8.5 5.9 26.3 8.3 37.5-5.3s4.5-33.9-7.9-46.8c-2.9-2.9-6.6-6.1-10.6-9.6C21.2 332-.3 313.4 1.4 284c2.5-41.8 42.8-51.9 55.1-54 10.3-1.8 20.7-4 27.8-8.4l2.1-1.5a3.2 3.2 0 013.8.1l.4.5.3.6a2.9 2.9 0 01-.1 2.7 39.4 39.4 0 01-2.6 4c-7.2 9.9-16.9 14.5-26.3 19-3.1 1.4-6.2 2.8-9.2 4.5a57.2 57.2 0 00-14.6 11l-.2.2-1.3 1.5h-.1a2.9 2.9 0 01-4.2.4 2.8 2.8 0 01-.5-3.9c0-.1.1-.2.1-.3l1.9-2.2c7.8-8.3 16.8-12.5 25.5-16.6z"/><ellipse cx="185.5" cy="150.5" rx="85.5" ry="30.9" transform="rotate(-39 185.658 150.598)" fill="#fff"/><ellipse cx="175.1" cy="137.7" rx="82.5" ry="30.4" transform="rotate(-39 175.286 137.71)" fill="#fff"/><ellipse cx="103.6" cy="49.5" rx="64" ry="27.4" transform="rotate(-39 103.732 49.446)" fill="#fff"/><path fill="#fff" d="M152 7.7L88.1 62 170 163l80.3-68L152 7.7z"/><path fill="#fff" d="M52.8 88.2l66.3-51.3 81.9 101-83.2 64.5-65-114.2z"/><path d="M140.2 94.6c-29.6 24-61.7 33.3-71.8 20.8a14.5 14.5 0 01-3.1-9.1c12.8 7.4 40.6-1.7 66.2-22.4s40.2-46.1 35.7-60.1a14.4 14.4 0 018.2 4.9c10.1 12.4-5.7 41.9-35.2 65.9zM194.2 161.3c-35.4 28.6-74.3 39.2-86.9 23.6a18.1 18.1 0 01-4-12c13.9 8.4 46.8-3.2 77.6-28.1s48.8-54.8 43.5-70.1a18.6 18.6 0 0111 6.4c12.6 15.6-5.8 51.5-41.2 80.2z" fill="#f4c277"/><path d="M132.7 212.4c-7.1 0-12.6-2.1-15.9-6.2a11 11 0 01-1.4-2.1l-.2-.2-65-114.3-.2-.3C42.5 75.2 57.2 48 84.5 25.9S141.4-5 153.7 5.3l.3.2 98.2 87.3.3.2a14.1 14.1 0 011.7 1.8c6 7.4 4.1 20.3-5.5 36.1s-23.9 31.3-41.9 45.9-37 25.8-53.6 31.5c-7.8 2.7-14.7 4.1-20.5 4.1zm-12.5-11.8l.3.4a8.5 8.5 0 00.9 1.4c8.5 10.5 43.3.8 81.6-30.3s55-63.1 46.6-73.6a13.5 13.5 0 00-1.2-1.2l-.4-.3-97.7-86.8-.3-.2c-8.4-7.4-34.4-1.7-61.8 20.5S49.8 77 55.4 86.7v.3z"/><path d="M234.8 145.2c17.6-20.2 3.7-47-4.9-64s-7.1-40.5 20.4-44.3l8.8 61.8-1.2 33.8-19.3 18z" fill="#f5c749"/><path d="M234.8 148.2a3.1 3.1 0 01-2-.7 3.1 3.1 0 01-.3-4.2c16.2-18.6 3.4-43.7-5.1-60.3l-.2-.4c-6-11.7-6.6-24.2-1.8-33.5 3-5.7 9.7-13.1 24.5-15.1s31.2 4.6 45.3 21.1a2.9 2.9 0 01-.3 4.1 2.9 2.9 0 01-4.2-.3c-12.7-14.8-25.8-21-40-19-9.9 1.3-16.6 5.4-20.1 12s-3.1 18.1 1.9 28l.2.4c8.7 17 23.1 45.3 4.3 66.9a2.8 2.8 0 01-2.2 1z"/><path d="M293 57c-9.9-11.4-31-15.8-42.7-4.9-8.7 8.2-3.8 21.4 2.6 32.3s12.2 23.4 11.7 35.3l1.5-27.8 5.6-13.8 6.6-10.7z"/><path d="M264.6 122.6h-.1a3 3 0 01-2.9-3.1c.5-12-6.2-24.9-11.3-33.6-9.5-16.2-10.2-28.3-2.1-35.9 5.4-5 13-7.5 21.3-7.1 9.9.6 19.7 5.2 25.7 12.2a2.9 2.9 0 01-.3 4.1 2.9 2.9 0 01-4.2-.3c-4.9-5.7-13.2-9.6-21.5-10-6.7-.4-12.7 1.5-16.9 5.4-5.9 5.5-4.8 15.1 3.1 28.6 5.5 9.3 12.8 23.3 12.2 36.9a3 3 0 01-3 2.8zM67.7 98.1c-7.2 0-12.7-2.2-16.1-6.4-5.4-6.7-4.7-17.4 2-30.1s17.3-24.7 30.9-35.7 28.2-19.1 41.3-22.8 24.4-2.5 29.9 4.2 4.6 17.4-2.1 30.1-17.3 24.7-30.9 35.7-28.2 19.1-41.2 22.8a53.1 53.1 0 01-13.8 2.2zm71.9-91.2a44.4 44.4 0 00-12.2 1.9c-12.3 3.5-26.2 11.2-39.2 21.7S64.8 53 58.9 64.3s-6.5 19-2.7 23.6 12.4 5.5 23.6 2.3S106 79 119 68.5s23.4-22.6 29.3-33.9 6.5-18.9 2.7-23.6c-2.2-2.7-6.2-4.1-11.4-4.1zM69 260.3c15.6 4.8 17.3 13.2 16.1 18.7s-8.7 5.9-17.2 3.9l3.7 4.4 21.7 9 13.5-1.7 9.8-10.1 1.9-11.6-1.8-8.1-6.1-12.2-2.9 5.4-4.5 8.6-15-2.5-17.3-6.4zM212.6 164c-23.3 18.8-110.3 7.4-144.5-55l5.7 16.1 44 77.3a12.7 12.7 0 001.3 1.9c10.7 13.2 49.1-.1 85.8-29.8l3.4-2.8z"/><path d="M178.3 193.1c-12.3 6.6-56.5-39.7-84.2-19.6l3.8 5.9 6 31 10.7 14.1 12.3-6.7 35.2-7.2 20.4-11.9z" fill="#f5c749"/><path d="M149.7 205.9c-13.5 0-25.3-6.3-37-13.7-13.3-8.3-20.7-7.4-24-6.2a9.3 9.3 0 00-5.4 6.3 3 3 0 11-5.7-1.6 14.5 14.5 0 018.9-10.2c5.3-2.1 14.6-2.6 29.4 6.7 17 10.7 32 18.1 52.5 8.2-4.5-1.7-9.8-4.6-16-8-17.4-9.6-39-21.6-56.8-11.3a2.9 2.9 0 01-2.9-5.1c20.6-12 44.9 1.4 62.6 11.2 9 4.9 18.3 10.1 21.5 8.3a2.9 2.9 0 014 1.1 3 3 0 01-.9 4c-11.2 7.4-21.1 10.3-30.2 10.3z"/><path d="M120.2 242.2l-1.3 11.6c-2.2-10.7-5.9-20.3-13.8-32.3-12.8-21.9 9.2-27.7 18.2-23.1l13.4 2.5-.7 2.9c-10.8-3-22.4 5.2-21.3 17.6.8 9.3 4.4 14.7 6.5 10.3h3z"/><circle cx="315.1" cy="82.7" r="16.1" fill="#63c880"/><path d="M315.1 101.8a19.1 19.1 0 1119.1-19.1 19.1 19.1 0 01-19.1 19.1zm0-32.1a13.1 13.1 0 1013.1 13 13.1 13.1 0 00-13.1-13z"/><path d="M138.8 244.9l12.8 15a8.8 8.8 0 0015-2.9l6.1-18.8a8.7 8.7 0 00-10-11.3l-19 3.8a8.7 8.7 0 00-4.9 14.2z" fill="#abfbb3"/><path d="M158.2 266a11.7 11.7 0 01-8.8-4.1l-12.9-15a11.7 11.7 0 01-2.1-11.5 11.4 11.4 0 018.7-7.6l19.1-3.8a11.7 11.7 0 0113.4 15.1l-6.2 18.8a11.6 11.6 0 01-8.9 7.8 8.5 8.5 0 01-2.3.3zm6.3-36.3l-1.2.2-19 3.7a5.7 5.7 0 00-4.3 3.8 5.5 5.5 0 001.1 5.6l12.8 15a5.7 5.7 0 005.5 1.9 5.5 5.5 0 004.3-3.9l6.2-18.7a5.7 5.7 0 00-1.2-5.6 5.5 5.5 0 00-4.2-2z"/><path d="M477.5 96.8c-.2 1.1-.4 2.2-.7 3.3a40.6 40.6 0 00-14.7 5.2 297.8 297.8 0 01-27.8 14.6c-6.6-4.8-10.2-13.3-8.7-23.1 2.3-15 15.9-27.1 30.2-27.1s24.1 12.1 21.7 27.1z" fill="#ed80b6"/><path d="M434.3 122.9a2.7 2.7 0 01-1.7-.6c-7.8-5.5-11.6-15.5-9.9-26 2.5-16.3 17.4-29.6 33.1-29.6a24.5 24.5 0 0118.9 8.4c5 5.8 7 13.9 5.7 22.2a32.9 32.9 0 01-.7 3.6 3 3 0 01-2.5 2.1 37.2 37.2 0 00-13.6 4.9c-11.9 6.8-20.5 11.4-28.1 14.7a2.4 2.4 0 01-1.2.3zm21.5-50.3c-12.9 0-25.1 11.1-27.3 24.7-1.2 7.7 1.1 14.7 6.3 19.2 6.9-3.2 15-7.5 25.8-13.8a44.6 44.6 0 0113.8-5.2 5 5 0 01.2-1.2c1-6.6-.5-12.8-4.4-17.3a18.6 18.6 0 00-14.4-6.4zm21.7 24.2z"/><circle cx="34.1" cy="244" r="12.6" fill="#bf2f80"/><path d="M34.1 259.6A15.6 15.6 0 1149.7 244a15.6 15.6 0 01-15.6 15.6zm0-25.3a9.7 9.7 0 109.7 9.7 9.7 9.7 0 00-9.7-9.7zM343.2 148.7c-10.5 0-12.8-6.8-5.5-11.4l-2.2-.3-25.9 18.8-12.6 15-20.1 7.4-4.5 4.5c5.9-1.6 5.8 2.6 3.8 5.4s-6.4 7.3-16.4 8.3v2.6l22.6-7.2 17.7-10.9 27.5-22.9 13.7-7z"/><ellipse cx="175" cy="109.7" rx="32.7" ry="41.5" transform="rotate(-13.9 175.21 109.607)" fill="#db504c"/><path d="M178.7 153.8h-2.4c-10.5-.9-20.7-7.2-27.9-17.5-13.4-19.3-12.7-46.8 1.5-61.4a29.3 29.3 0 0123.7-9.1c10.5.8 20.7 7.2 27.9 17.5 13.4 19.1 12.7 46.6-1.5 61.3a29.3 29.3 0 01-21.3 9.2zm-7.5-82.2a23.4 23.4 0 00-17 7.5c-12.3 12.6-12.7 36.8-.9 53.7 6.2 8.8 14.7 14.3 23.5 15a23.7 23.7 0 0018.9-7.4c12.4-12.7 12.7-36.8.9-53.7-6.2-8.8-14.7-14.3-23.5-15z" fill="#fff"/><path d="M71.5 97.7c-4.3 0-8-1.1-10.5-3.7s-3.4-5.6-3.2-9.5C58.5 72 72.3 53.1 93 36.4s42-26.3 54.4-24.4a11.9 11.9 0 018.6 5c8.1 12.3-11.1 38.1-33.3 56.1-16.8 13.6-37.5 24.6-51.2 24.6zm72.5-80c-11 0-29.8 9.2-47.3 23.3S64.4 74.3 63.8 84.8c-.1 2.2.3 3.9 1.4 5 5.8 5.9 29.3-1.5 53.8-21.3s36.5-41.4 32-48.2c-.8-1.3-2.4-2.1-4.5-2.5z"/><path d="M126.9 15.8c2.8-1.1 2.8-2.9 2.6-4.5s-1.2-2.9-4.8-1.7l-.5-1.6 11.3-3h7.9l6.3 1.7 4.8 3.7.7 6-7-1.3h-10.5zM293 166.3a2.8 2.8 0 01-2.1-.8 3 3 0 01-.1-4.2c12.7-13.3 11.3-34.9 10.1-52.2-.4-6.1-.8-11.3-.5-15.6a3 3 0 116 .4 112.1 112.1 0 00.4 14.8c1.2 17.5 2.8 41.5-11.7 56.7a3 3 0 01-2.1.9zM187.3 249.7c7-5 9.9-4.3 11.1-3.1s1.2 3.4-.6 5.3l1.5 1.4 8.5-8.4 6.7-13.6 3.2-13.1h-3.2L198.8 229l-5 10.8-8.7 6.9zM238.3 216.9c2.6 2.2 4.2 5.8 3.2 7.8a3.4 3.4 0 01-5.3 1.1l-14.3-12-.9-8.8 1.5-5.2.4-3.3 3.9.3zM368.3 195.2l-1.4-.3a3.2 3.2 0 01-1.2-4.1c11-20 7.1-39.2-1.6-49.3-6.1-7.1-14.5-9.6-22.3-6.8a3 3 0 01-3.9-1.7 3.2 3.2 0 011.8-3.9c10.3-3.7 21.1-.5 28.9 8.5a42.6 42.6 0 019.7 24.5c.8 10.5-1.8 21.4-7.3 31.6a3.1 3.1 0 01-2.7 1.5z"/><path d="M212.6 167.9c27-20.5 11.8-49.1 2.8-71.1-10.7-26.3-15.1-53.7 5.2-67.8l-8-8.5c-20.4 15.4-25.8 40-14.8 67.7s38.1 61.6 14.8 79.7z" fill="#f5c749"/><path d="M212.6 170.9a2.9 2.9 0 01-2.3-1.2 2.9 2.9 0 01.5-4.1c15.8-12.3 5.2-33.3-6.1-55.6-3.5-6.9-7.1-14-9.7-20.7-11.5-29-5.7-55 15.9-71.1a2.8 2.8 0 013.9.3l8 8.5a3 3 0 01.8 2.4 3.2 3.2 0 01-1.3 2.1c-15.9 11-17.3 32-4.1 64.2l2.3 5.6c9.1 21.7 20.5 48.7-6 69a3.3 3.3 0 01-1.9.6zm-.3-146.3c-17.5 14.5-21.8 37.1-11.8 62.6 2.6 6.4 6.1 13.4 9.5 20.1 6.2 12.3 12.9 25.4 14.4 37.3 2.3-13.3-3.8-27.7-9.4-41l-2.3-5.6c-13.4-32.9-12.2-56.2 3.5-69.3z"/><path d="M212.6 97.7c1.5 3.6-4.3 6.3-5.9 3l-2.1 2.5 14.9 30.2 3.8 17.7 4.6-10.7-2.2-16.4-6.2-17.3-4.1-9.9zM136 203.8c21 6.9 49.4 4 57.8-6.1 3.3-3.9 6.6-3.9 5.6-1.2l3.5-1.3 1-16.3-10.4-.9-33.7 26-23.1-4.4zM75.8 354.8c-1.5-8.3-2.5-16.7-3.2-25.2l-19.2-10.3-16.7-17.8-9.3-32c-3.9 11.2-4.2 29 .1 42.6 3.5 11.4-7.6 9.1-11.5 3.1-1.5 3.2 1.9 7.4 6.1 12.5 7.3 7.9 15.6 14.5 22.1 20.3h.1c1.9 1.7 3.7 3.4 5.2 5a59.5 59.5 0 018.5 11.2c1.8 1.3.1 6.5 4.5 2-3.3-7 7.9-10.6 13.3-11.4zM506.9 172l8.6-14.4a76.1 76.1 0 003.8-10.3l1.3-13.6-14.1-8.2-13.4-.6-13.3 6.8-5.1 3.9a242.5 242.5 0 0132.2 36.4z"/><path d="M82.7 317.5a56.3 56.3 0 01-8.8-4.5z" fill="none" stroke="#000" stroke-miterlimit="10"/><path fill="none" d="M0 0h624v624H0z"/></g></svg>
