<svg fill="none" height="255" viewBox="0 0 255 255" width="255" xmlns="http://www.w3.org/2000/svg"><circle cx="127.5" cy="127.5" fill="#fff" r="96.5"/><path clip-rule="evenodd" d="m127.254 47c-44.3121 0-80.254 35.7896-80.254 79.914 0 35.299 23.1407 65.205 54.651 75.991 3.939.491 5.416-1.961 5.416-3.922s0-6.864 0-13.727c-22.1557 4.902-27.0792-10.786-27.0792-10.786-3.4465-9.315-8.8624-11.767-8.8624-11.767-7.3853-4.902.4923-4.902.4923-4.902 7.8777.49 12.3089 8.334 12.3089 8.334 7.3853 12.257 18.7094 8.825 23.1404 6.864.493-5.393 2.954-8.825 4.924-10.786-17.7249-1.961-36.4344-8.825-36.4344-39.712 0-8.825 2.9541-15.688 8.37-21.571-.4923-1.4713-3.4465-9.8058.9847-20.5918 0 0 6.893-1.961 22.1557 8.3346 6.401-1.9611 13.294-2.4513 20.187-2.4513s13.786.9805 20.186 2.4513c15.263-10.2956 22.156-8.3346 22.156-8.3346 4.432 10.786 1.477 19.1205.985 21.0818 4.924 5.393 8.37 12.747 8.37 21.572 0 30.886-18.709 37.26-36.434 39.221 2.954 2.451 5.416 7.354 5.416 14.708v22.062c0 1.961 1.477 4.413 5.416 3.922 32.003-10.786 54.651-40.692 54.651-75.991-.492-44.1244-36.434-79.914-80.746-79.914z" fill="#191717" fill-rule="evenodd"/></svg>