<svg fill="none" height="240" viewBox="0 0 400 240" width="400" xmlns="http://www.w3.org/2000/svg" xmlns:xlink="http://www.w3.org/1999/xlink"><linearGradient id="a" gradientUnits="userSpaceOnUse" x1="150.52" x2="111.33" y1="164.21" y2="210.82"><stop offset="0" stop-color="#9cd6fa"/><stop offset="1" stop-color="#7bb9f8"/></linearGradient><linearGradient id="b" gradientUnits="userSpaceOnUse" x1="86.1001" x2="78.2601" y1="197.96" y2="243.96"><stop offset=".11" stop-color="#ef913c"/><stop offset=".32" stop-color="#ef8a34"/><stop offset=".65" stop-color="#ee791f"/><stop offset="1" stop-color="#ed5f00"/></linearGradient><linearGradient id="c" gradientUnits="userSpaceOnUse" x1="90.69" x2="93" y1="209.96" y2="194.03"><stop offset="0" stop-color="#f5c749"/><stop offset="1" stop-color="#f5c749"/></linearGradient><linearGradient id="d" gradientUnits="userSpaceOnUse" x1="95.3901" x2="85.0901" y1="145.03" y2="170.43"><stop offset="0" stop-color="#f5c749"/><stop offset="1" stop-color="#ef913c"/></linearGradient><linearGradient id="e" gradientUnits="userSpaceOnUse" x1="62.7301" x2="63.6201" y1="150" y2="169.28"><stop offset="0" stop-color="#fae773"/><stop offset="1" stop-color="#f5c749"/></linearGradient><linearGradient id="f" gradientUnits="userSpaceOnUse" x1="33.1395" x2="59.1551" y1="137.387" y2="201.792"><stop offset="0" stop-color="#9cd6fa"/><stop offset=".8" stop-color="#7bb9f8"/></linearGradient><linearGradient id="g" gradientUnits="userSpaceOnUse" x1="264.04" x2="269.58" y1="87.63" y2="133.52"><stop offset="0" stop-color="#7bb9f8"/><stop offset="1" stop-color="#5896ea"/></linearGradient><radialGradient id="h" cx="278.13" cy="127.25" gradientUnits="userSpaceOnUse" r="67.75"><stop offset=".14" stop-color="#63c880"/><stop offset="1" stop-color="#84ee91"/></radialGradient><clipPath id="i"><path d="m0 0h400v240h-400z"/></clipPath><g clip-path="url(#i)"><g fill="#8189f6"><path d="m18.7 10.3-3.5 10.8c.3234-.1104.6705-.1314 1.0049-.061s.6436.2296.8951.461l.4.3 3.5-10.7z"/><path d="m29 24.5c.1003-.7969.1003-1.6032 0-2.4h-11.3c.2451.3521.3766.7709.3766 1.2s-.1315.8478-.3766 1.2z"/><path d="m21.1 35.5-3.6-10.7c-.2742.3272-.6376.5677-1.046.6919-.4084.1243-.8441.1271-1.254.0081l3.6 10.8z"/><path d="m5.80015 32.1 9.09995-6.7-.5-.2c-.4913-.4426-.8101-1.0448-.9-1.7l-9.09995 6.7c.40944.6736.87795 1.3094 1.4 1.9z"/><path d="m5.00005 15.5-.7 1.1 9.19995 6.6c.0069-.4316.1466-.8506.4-1.2.2583-.349.6029-.6247 1-.8l-9.19995-6.6z"/></g><path d="m15.8 12.3c2.3037-.0072 4.5483.7293 6.4 2.1 1.176.8238 2.1724 1.8779 2.9288 3.0983.7564 1.2205 1.2569 2.5819 1.4712 4.0017.2483 1.4244.2081 2.8842-.1183 4.2927-.3264 1.4086-.9323 2.7373-1.7817 3.9073-1.0134 1.4166-2.3487 2.5723-3.8959 3.372-1.5473.7998-3.2624 1.2206-5.0041 1.228-2.3379.029-4.621-.7086-6.50003-2.1-2.32733-1.7107-3.90374-4.2545-4.4-7.1-.22851-1.4311-.16933-2.8935.17408-4.3014.34341-1.408.96416-2.7334 1.82592-3.8986 1.00754-1.4225 2.34159-2.5827 3.89023-3.3831 1.5486-.8004 3.2665-1.2177 5.0098-1.2169zm0-3.19999c-3.3833-.00718-6.65788 1.19379-9.23419 3.38679-2.57631 2.1929-4.28501 5.2336-4.81838 8.5745s.14363 6.7625 1.90909 9.6486c1.76545 2.8861 4.50335 5.047 7.72068 6.0936 3.2172 1.0465 6.7025.91 9.8281-.385 3.1255-1.295 5.686-3.6634 7.2203-6.6787 1.5344-3.0153 1.9417-6.4794 1.1486-9.7684-.793-3.2889-2.7343-6.1867-5.4742-8.1714-2.4146-1.749-5.3185-2.69367-8.3-2.69999z" fill="#5a65e9"/><path d="m15.7999 21.6c.3549.0047.7013.1086 1 .3.1785.1371.3279.3082.4397.5034s.1838.4107.2117.634c.0279.2232.0112.4498-.0491.6665-.0603.2168-.1631.4194-.3023.5961-.1379.2189-.3301.3984-.5579.5211-.2277.1226-.4834.1843-.7421.1789-.3565.0074-.7063-.0976-1-.3-.3013-.2074-.5277-.5064-.6455-.8527-.1179-.3463-.1209-.7214-.0086-1.0696.1124-.3481.334-.6507.632-.8629.2979-.2122.6564-.3226 1.0221-.3148zm0-2.8c-.971-.0306-1.9259.2538-2.722.8109-.796.557-1.3903 1.3567-1.6942 2.2795s-.3009 1.9192.0085 2.8402c.3093.921.9084 1.7172 1.7077 2.2694.8048.5199 1.742.7975 2.7.8.936-.0205 1.8423-.3324 2.5927-.8923.7503-.5599 1.3073-1.3398 1.5935-2.2313.2861-.8914.2871-1.8498.0028-2.7418s-.8398-1.6731-1.589-2.2346c-.7447-.5766-1.6581-.8928-2.6-.9z" fill="#5a65e9"/><path d="m383.7 21.1 3.4-10.8 2.3.8-3.4 10.7-.4-.3c-.257-.2226-.566-.3761-.898-.446-.333-.07-.677-.0542-1.002.046zm13.8 1h-11.3c.193.3706.294.7822.294 1.2s-.101.8294-.294 1.2h11.3zm-13.8 3.4 3.5 10.8 2.3-.8-3.5-10.7c-.281.3175-.645.5509-1.051.6744-.406.1236-.838.1324-1.249.0256zm-1.7-2-9.2 6.7c.444.6757.946 1.3115 1.5 1.9l9.1-6.7-.5-.2c-.275-.1912-.499-.4452-.656-.7409s-.24-.6245-.244-.9591zm.4-1.5c.237-.3691.588-.6502 1-.8l-9.2-6.6-.8.9-.6 1.1 9.2 6.6c-.018-.2167.008-.4349.076-.6412.069-.2063.179-.3965.324-.5588z" fill="#8189f6"/><path d="m384.2 12.3c2.338-.029 4.621.7086 6.5 2.1 2.312 1.7247 3.884 4.2619 4.4 7.1.248 1.4244.208 2.8841-.118 4.2927-.327 1.4086-.933 2.7372-1.782 3.9073-1.023 1.4303-2.374 2.5945-3.94 3.3949s-3.301 1.2136-5.06 1.2051c-2.596-.0122-5.105-.9425-7.081-2.6262-1.977-1.6837-3.294-4.0124-3.719-6.5738-.261-1.571-.177-3.1799.245-4.7155.422-1.5355 1.173-2.9611 2.2-4.1782 1.026-1.2172 2.305-2.1968 3.748-2.8712 1.443-.6745 3.015-1.0276 4.607-1.0351zm0-3.20002c-2.998.00633-5.917.96132-8.339 2.72822-2.422 1.7668-4.222 4.2549-5.144 7.1077-.921 2.8528-.916 5.9241.015 8.7738s2.74 5.3316 5.168 7.0903c2.427 1.7252 5.323 2.6674 8.3 2.7 3.766 0 7.378-1.4961 10.041-4.1591s4.159-6.2749 4.159-10.0409c0-3.7661-1.496-7.3779-4.159-10.0409-2.663-2.6631-6.275-4.15912-10.041-4.15912z" fill="#5a65e9"/><path d="m384.2 21.6c.357-.0074.706.0976 1 .3.186.1295.344.295.466.4866.121.1916.202.4055.24.6291.037.2237.029.4525-.023.673-.053.2206-.149.4284-.283.6113-.146.2342-.354.4236-.601.5471s-.524.1764-.799.1529c-.355-.0047-.701-.1086-1-.3-.178-.1371-.328-.3082-.44-.5034-.111-.1952-.183-.4107-.211-.6339-.028-.2233-.011-.4498.049-.6666.06-.2167.163-.4194.302-.5961.15-.2069.345-.3773.57-.4985s.475-.1901.73-.2015zm0-2.8c-.709.0033-1.406.1778-2.033.5087-.627.3308-1.164.8081-1.567 1.3913-.349.4788-.601 1.0219-.739 1.5982-.139.5762-.163 1.1742-.07 1.7596s.301 1.1467.611 1.6516.718.9435 1.198 1.2906c.776.5018 1.676.7787 2.6.8.724.0043 1.439-.1661 2.083-.4969.644-.3307 1.199-.8121 1.617-1.4031.674-.9599.947-2.1452.76-3.3033-.186-1.1581-.818-2.1975-1.76-2.8967-.775-.5908-1.725-.9074-2.7-.9z" fill="#5a65e9"/><path d="m384.2 9.1c3.766 0 7.378 1.4961 10.041 4.1591s4.159 6.2748 4.159 10.0409-1.496 7.3779-4.159 10.0409-6.275 4.1591-10.041 4.1591h-368.4c-3.7661 0-7.3779-1.4961-10.04092-4.1591-2.66301-2.663-4.15908-6.2748-4.15908-10.0409s1.49607-7.3779 4.15908-10.0409c2.66302-2.663 6.27482-4.1591 10.04092-4.1591zm0-1.6h-368.4c-4.1904 0-8.20921 1.66464-11.17229 4.6277-2.96307 2.9631-4.62771 6.9819-4.62771 11.1723s1.66464 8.2092 4.62771 11.1723c2.96308 2.9631 6.98189 4.6277 11.17229 4.6277h368.4c4.19 0 8.209-1.6646 11.172-4.6277s4.628-6.9819 4.628-11.1723-1.665-8.2092-4.628-11.1723c-2.963-2.96306-6.982-4.6277-11.172-4.6277z" fill="#9099a4"/><path d="m153.1 172.6c-.362.012-.721-.074-1.038-.251-.317-.176-.581-.435-.762-.749-2.2-4.2-1.5-8.8 1.6-10.7.441-.267.968-.354 1.471-.242s.943.413 1.229.842c.273.456.363.999.251 1.518-.111.52-.415.978-.851 1.282-1.2.7-1.3 3.2-.2 5.4.138.227.227.48.261.743s.013.53-.062.784c-.076.255-.203.49-.375.692s-.385.366-.624.481c-.271.159-.586.229-.9.2z" fill="#000"/><path d="m155.9 172.6c-.473-.034-.925-.208-1.3-.5-.394-.347-.636-.835-.674-1.359-.037-.524.133-1.042.474-1.441 1.308-1.577 2.448-3.286 3.4-5.1.219-.472.612-.84 1.098-1.027.485-.187 1.024-.177 1.502.027.474.219.849.607 1.052 1.088.204.48.221 1.019.048 1.512-1.069 2.164-2.413 4.181-4 6-.191.243-.434.441-.71.579-.277.138-.581.214-.89.221z" fill="#000"/><path d="m181.1 165.8-39.6-.2c-.398.014-.794-.054-1.164-.2-.371-.146-.707-.366-.988-.648-.282-.281-.502-.617-.648-.988-.146-.37-.214-.766-.2-1.164l.2-34.8c-.014-.398.054-.794.2-1.164.146-.371.366-.707.648-.988.281-.282.617-.502.988-.648.37-.146.766-.214 1.164-.2l39.6.2c.796 0 1.559.316 2.121.879.563.562.879 1.325.879 2.121l-.2 34.8c.014.398-.054.794-.2 1.164-.146.371-.366.707-.648.988-.281.282-.617.502-.988.648-.37.146-.766.214-1.164.2z" fill="#d5d8dc"/><path d="m107.1 195c4.254.396 8.544.092 12.7-.9 4.279-.909 8.416-2.389 12.3-4.4 3.775-1.946 7.218-4.477 10.2-7.5 2.84-2.904 4.963-6.431 6.2-10.3.436-1.296 1.356-2.373 2.567-3.006 1.211-.634 2.62-.775 3.933-.394.661.204 1.274.538 1.803.982.53.444.966.99 1.283 1.604.316.615.507 1.286.561 1.975.054.69-.03 1.383-.247 2.039-1.741 5.33-4.683 10.188-8.6 14.2-3.764 3.88-8.16 7.093-13 9.5-4.665 2.442-9.645 4.225-14.8 5.3-5.245 1.187-10.647 1.524-16 1-.708-.014-1.405-.175-2.047-.473s-1.215-.726-1.683-1.258c-.467-.532-.819-1.155-1.032-1.83-.214-.674-.285-1.386-.208-2.09s.299-1.384.653-1.997.831-1.146 1.402-1.565c.571-.418 1.223-.713 1.914-.866s1.407-.16 2.101-.021z" fill="url(#a)"/><path d="m121.8 198.4c.515 1.916.41 3.947-.3 5.8l-1.9.4c.895-1.797 1.108-3.858.6-5.8-.358-1.639-1.193-3.135-2.4-4.3l1.9-.3c.974 1.245 1.688 2.673 2.1 4.2zm8.6-7.8-2 .8c1.385.482 2.554 1.438 3.3 2.7.555 1.077.861 2.266.896 3.477.034 1.212-.203 2.416-.696 3.523l1.9-.8c.35-1.16.46-2.379.322-3.583-.137-1.203-.519-2.366-1.122-3.417-.624-1.106-1.519-2.035-2.6-2.7zm8.9-5.7-1.6 1.3c.83.081 1.633.336 2.357.75.724.413 1.352.976 1.843 1.65.684.881 1.156 1.907 1.381 2.999.226 1.092.198 2.221-.081 3.301l1.8-1.3c.129-2.15-.509-4.276-1.8-6-1.021-1.248-2.373-2.183-3.9-2.7zm11.1-6.2c-1.228-.951-2.748-1.446-4.3-1.4l-1.2 1.7c.793-.191 1.618-.201 2.415-.028.796.174 1.544.525 2.185 1.028.976.686 1.769 1.601 2.309 2.664.54 1.064.812 2.243.791 3.436l1.4-2c-.449-2.201-1.741-4.139-3.6-5.4z" fill="#5896ea"/><path d="m154.5 171.7c-.258.014-.516-.026-.758-.115s-.463-.227-.651-.405c-.187-.178-.336-.392-.437-.629-.102-.237-.154-.493-.154-.751 0-.2 0-4.9 3-7.9.385-.344.883-.535 1.4-.535s1.015.191 1.4.535c.373.391.581.91.581 1.45s-.208 1.059-.581 1.45c-1.8 1.8-1.8 4.9-1.8 4.9 0 .53-.211 1.039-.586 1.414s-.884.586-1.414.586z" fill="#000"/><path d="m172 135.1h-21.1c-1.104 0-2 .895-2 2v16.53c0 1.105.896 2 2 2h21.1c1.105 0 2-.895 2-2v-16.53c0-1.105-.895-2-2-2z" fill="#8189f6"/><path d="m155.8 149.6v-8.5c-.016-.112 0-.226.047-.329.046-.103.12-.191.214-.254s.204-.098.317-.101.225.026.322.084l10.3 4.3c.107.047.198.124.262.221.064.098.098.212.098.329s-.034.231-.098.329c-.064.097-.155.174-.262.221l-10.3 4.3c-.099.03-.203.038-.306.023-.102-.015-.2-.053-.286-.11-.086-.058-.158-.133-.211-.222-.054-.089-.087-.188-.097-.291z" fill="#5a65e9"/><path d="m110.9 224.4c-.028 1.143-.162 2.281-.4 3.4-.086.511-.22 1.014-.4 1.5-2.3 7.8-10.1999 11.4-17.6999 10.6 0 0-15.7-2.2-24.4-3.9s-15.5-4.2-15.3-14.9c.0583-.672.1584-1.34.3-2l.3-1.5c1.8-7.1 7.4-18.9 9.6-23.9s6.1-9.8 13.8-8.8 18.6 2.8 23.9999 4.3c5.4 1.5 8.5 5.9 9 11.3.842 7.938 1.243 15.917 1.2 23.9z" fill="url(#b)"/><path d="m83.9001 189.2v.2c.226.513.3937 1.05.5 1.6.0647.635.0309 1.276-.1 1.9l-2.8 16.7c-.0602.75.1633 1.495.6263 2.087.463.593 1.1318.99 1.8737 1.113l15.1 2.6c.4423.075.8957.05 1.3269-.073.432-.123.83-.341 1.166-.639.335-.297.6-.666.775-1.079.174-.414.253-.861.232-1.309l-.5-15.5c-.047-1.445-.589-2.83-1.536-3.922-.9465-1.093-2.2403-1.826-3.6639-2.078l-12.7-2.1c-.2-.1-.4.2-.3.5z" fill="#ed5f00"/><path d="m84.5 191c.0646.635.0309 1.276-.1 1.9l-2.8 16.7c-.0603.75.1632 1.495.6263 2.087.463.593 1.1317.99 1.8737 1.113l14 2.4c.4193-.288.7585-.677.9859-1.132s.3355-.96.3141-1.468l-.3-14.1c0-3.6-1.8-5.3-4.7-5.8z" fill="url(#c)"/><path d="m110.5 227.8c-.086.511-.22 1.014-.4 1.5l-57.1-10.2.3-1.5z" fill="#ed3700"/><path d="m63.2002 195.9c-.9 2.9-.0001 4.7 1.9999 4.6s4.5001-2.9 5.2001-5.7-.1-5.2-2.1-4.8-4.2 2.9-5.1 5.9z" fill="#000"/><path d="m98.8001 129.8-19.2 2s2.6-4.1 5.9-4.6c3.3375-.597 6.7121-.965 10.1-1.1 2-.1 3.2 1.9 3.2 3.7z" fill="#9cd6fa"/><path d="m124.1 161.1c-1.4 5.1-7.6 10.1-10.3 11.3-1.872.886-3.811 1.622-5.8 2.2l-2.6.8c-5.6811 1.401-11.4669 2.337-17.2999 2.8h-.8c-4.788.418-9.5946.585-14.4.5-4.3 0-7-2-9.1-5.8-3.0707-5.715-5.0383-11.957-5.8-18.4-.5-5.1 1.9-10.5 7.8-17.6 3.7-4.5 7.8-5.9 28.1-7.5 13.0999-1.1 18.7999-1.1 21.8999 2.2 5.3 5.6 10 23.4 8.3 29.5z" fill="url(#d)"/><path d="m94.6 133.2c14-1.2 17.1-.7 19.3 3.3 2.581 5.173 4.239 10.757 4.9 16.5.3 3.8-.6 5.4-15.6 7.1l-20.9-.9-7-19c.3-2.9 1-3.7 3.5-4.5s8.1-1.9 15.8-2.5z" fill="#ed5f00"/><path d="m109.9 169c-.4 1.6-2.6 4.6-4.5 6.4-5.6812 1.401-11.4669 2.337-17.3 2.8h-.8c1.9604-1.938 3.704-4.084 5.2-6.4 2.1-3.1 3.3-3.3 9.7-4.1s8.3-1.2 7.7 1.3z" fill="#f5c749"/><path d="m68.9001 157.2c1.5 5.6.3 11.9-3.3 12.9s-7.2-2.9-8.4-8.5 1.2-11 4.5-11.7 5.8 1.7 7.2 7.3z" fill="url(#e)"/><path d="m62.2002 159.8c.7 2.5.2 5.3-1.5 5.8s-3.1-1.2-3.6-3.7.4-5.4 1.6-5.6 2.9 1 3.5 3.5z" fill="#fae773"/><path d="m93.6 135.6c13.7-1.1 16.5-.9 18.3 2.6 2.592 5.02 4.22 10.481 4.8 16.1.3 3.7-1.3 4.4-15.9 6s-18.9 1.1-21-2.9-4.5-12.7-4.5-16.7 4.4-3.9 18.3-5.1z" fill="#000"/><path d="m90.0001 146.1c.0915.256.1272.528.1045.799-.0226.27-.1029.533-.2356.77s-.3146.442-.5334.603c-.2189.161-.4697.272-.7355.328-.6083-.016-1.1916-.245-1.6484-.647s-.7582-.952-.8516-1.553c-.0915-.256-.1271-.528-.1045-.798.0226-.271.103-.534.2357-.771.1326-.236.3145-.442.5334-.603.2189-.16.4697-.272.7354-.328.6083.016 1.1917.245 1.6485.647s.7581.952.8515 1.553zm17.6999-1.7c-.11-.567-.406-1.081-.84-1.461-.435-.38-.983-.605-1.56-.639-1.1.1-1.7 1.2-1.4 2.5.11.567.406 1.081.84 1.461.435.38.984.605 1.56.639 1.1-.1 1.7-1.2 1.4-2.5zm-9.7999 5.4c-1.2497.137-2.4868.371-3.7.7.2583.961.8573 1.795 1.6852 2.347.828.552 1.8284.784 2.8148.653 2.0999-.3 3.4999-2 3.0999-3.8-1.301-.055-2.6036-.022-3.8999.1z" fill="#84ee91"/><path d="m29.1001 143.5c-.3556-.015-.7007-.126-.9995-.319-.2989-.193-.5407-.463-.7005-.781-1.4018-2.338-3.0081-4.546-4.8-6.6-.3581-.398-.5434-.922-.5153-1.456.0282-.534.2675-1.036.6653-1.394s.9216-.543 1.456-.515c.5345.028 1.0359.267 1.394.665 1.9924 2.297 3.7667 4.774 5.3 7.4.2496.465.3055 1.009.1557 1.515-.1498.505-.4933.931-.9557 1.185-.2936.202-.6435.307-1 .3z" fill="#000"/><path d="m31.5001 142.3c-.2391.007-.4771-.033-.7003-.119s-.4271-.215-.5997-.381c-.3943-.347-.6364-.835-.6738-1.359s.1328-1.041.4738-1.441c.5578-.751.9148-1.632 1.0372-2.559.1225-.928.0065-1.871-.3372-2.741-.0963-.236-.1442-.489-.1407-.744.0034-.254.0581-.506.1607-.739s.2511-.444.4367-.618c.1855-.175.4043-.311.6433-.399.4907-.198 1.0399-.193 1.5272.013s.8731.597 1.0728 1.087c.6584 1.526.8762 3.206.6287 4.85-.2474 1.644-.9502 3.185-2.0287 4.45-.1758.228-.4038.411-.6648.533s-.5474.179-.8352.167z" fill="#000"/><path d="m55.8551 82.4536-53.50269 12.7462c-1.611748.3839-2.607057 2.0018-2.223084 3.6135l9.235154 38.7647c.38397 1.612 2.00182 2.608 3.61362 2.224l53.5026-12.747c1.6118-.384 2.6071-2.001 2.2231-3.613l-9.2351-38.7653c-.384-1.6117-2.0019-2.607-3.6136-2.2231z" fill="#d5d8dc"/><path d="m38.1001 123.4c-.1315.004-.2623-.02-.3833-.072-.1209-.052-.229-.13-.3167-.228l-11.8-14.6-8.2 13.6c-.3.3-.8.5-1.1.2-.0925-.052-.1738-.122-.2391-.205-.0653-.084-.1133-.18-.1412-.282s-.0352-.209-.0214-.315c.0138-.105.0484-.206.1017-.298l8.8-14.5c.0669-.096.1569-.174.2618-.226.1048-.053.2211-.078.3382-.074.1225-.048.2573-.054.3838-.018s.2376.113.3162.218l11.4 14.1 2.6-23c.0434-.1531.1196-.295.2232-.4158.1035-.1209.2321-.2178.3768-.2841.139-.0425.2868-.0463.4278-.0111.1409.0353.2696.1082.3722.211l12.1 11.7c.1407.149.2191.345.2191.55s-.0784.401-.2191.55c-.0655.083-.149.151-.2443.197-.0952.046-.1998.07-.3057.07s-.2104-.024-.3057-.07c-.0952-.046-.1788-.114-.2443-.197l-11-10.4999-2.7 23.1999c-.008.152-.0593.299-.1479.423s-.2107.22-.3521.277z" fill="#5a65e9"/><path d="m16.7001 126.2c2.5405 0 4.6-2.059 4.6-4.6 0-2.54-2.0595-4.6-4.6-4.6s-4.6 2.06-4.6 4.6c0 2.541 2.0595 4.6 4.6 4.6z" fill="#8189f6"/><path d="m41.2001 102.3c2.5405 0 4.6-2.059 4.6-4.6 0-2.5405-2.0595-4.6-4.6-4.6s-4.6 2.0595-4.6 4.6c0 2.541 2.0595 4.6 4.6 4.6z" fill="#8189f6"/><path d="m38.1 126.9c2.5405 0 4.6-2.059 4.6-4.6 0-2.54-2.0595-4.6-4.6-4.6s-4.6 2.06-4.6 4.6c0 2.541 2.0595 4.6 4.6 4.6z" fill="#8189f6"/><path d="m53.0001 114.4c2.5406 0 4.6-2.059 4.6-4.6 0-2.54-2.0594-4.6-4.6-4.6-2.5405 0-4.6 2.06-4.6 4.6 0 2.541 2.0595 4.6 4.6 4.6z" fill="#8189f6"/><path d="m25.5001 111.8c2.5406 0 4.6-2.059 4.6-4.6 0-2.54-2.0594-4.6-4.6-4.6-2.5405 0-4.6 2.06-4.6 4.6 0 2.541 2.0595 4.6 4.6 4.6z" fill="#8189f6"/><path d="m65.5 198.1c-.6562.021-1.3078-.116-1.9-.4-22.4-8.8-36.1-27.8-38.7-53.4-.1125-1.375.3156-2.739 1.1932-3.804.8776-1.064 2.1356-1.744 3.5068-1.896.6834-.069 1.3738-.002 2.0311.198.6573.199 1.2687.527 1.7987.964.5299.437.9681.974 1.2891 1.582.321.607.5185 1.272.5811 1.956 2.7 27.6 18.9 39.6 32.1 44.7 1.17.414 2.1536 1.232 2.773 2.308.6193 1.075.8336 2.336.6042 3.556s-.8875 2.317-1.8553 3.094-2.1815 1.182-3.4219 1.142z" fill="url(#f)"/><path d="m61.7 185.4c-.0197 1.65-.543 3.255-1.5 4.6-1.1994 1.744-2.9119 3.073-4.9 3.8l-1.9-1.2c1.1074-.176 2.1668-.578 3.1128-1.18s1.7585-1.392 2.3872-2.32c.8742-1.366 1.2618-2.987 1.1-4.6zm-14.2-4.4c-.6467.812-1.468 1.467-2.403 1.917-.9349.45-1.9593.684-2.997.683l1.4 1.4c1.8699-.293 3.5834-1.216 4.8566-2.617 1.2731-1.4 2.0294-3.194 2.1434-5.083l-1.7-1.7c.1573.941.1233 1.905-.1 2.832-.2234.928-.6315 1.801-1.2 2.568zm-9.1-12.4c-1.5611 1.404-3.6012 2.156-5.7 2.1l.8 1.6c1.8517-.098 3.6364-.725 5.1429-1.806s2.6715-2.571 3.3571-4.294l-1.1-2.1c-.2411 1.76-1.1331 3.366-2.5 4.5zm-1-13.9-.6-2c-.7431 1.262-1.8145 2.299-3.1 3-1.0261.529-2.1481.845-3.2992.931-1.151.086-2.3076-.06-3.4008-.431.2.6.3 1.2.5 1.8l2.4.3c1.5799.007 3.1331-.408 4.5-1.2 1.1628-.572 2.1867-1.391 3-2.4z" fill="#5896ea"/><path d="m30.2001 142h-.3c-.2597-.024-.5117-.101-.7403-.227-.2286-.125-.4288-.297-.5883-.503-.1595-.207-.2747-.444-.3386-.696-.0639-.253-.0751-.517-.0328-.774.2-.9.2-3.7-.9-5.1-.275-.415-.3852-.918-.309-1.41s.3332-.939.7209-1.251c.3877-.313.8781-.47 1.3753-.44.4971.03.9653.244 1.3128.601 2.4 3.1 1.9 7.6 1.8 8.1-.0723.477-.3146.912-.6821 1.224s-.8356.481-1.3179.476z" fill="#000"/><path d="m295.1 27.6c.2 2.1-2.2 3.7-4.8 3.6-1.648-.0509-3.26-.4967-4.7-1.3-10.4 7.8-12.2 22.7-13.4 34.9l-2.5-.5c.9-13.7 2.9-29.7 15.2-38.2 1.444-1.1427 3.173-1.8689 5-2.1 3.3 0 5.1 1.5 5.2 3.6z" fill="#fae773"/><path d="m245.8 25.4c1.825.1705 3.561.865 5 2 12.3 8.4 14.2 24.5 15.2 38.1l-2.5.5c-1.2-12.1-3-27.1-13.4-34.9-1.406.8831-3.04 1.335-4.7 1.3-2.6.1-5-1.5-4.9-3.6s2-3.6 5.3-3.4z" fill="#fae773"/><path d="m303 99.5c-1.9-.7-6.2-2.8-6.4-2.9l5.3 5c-5.8 8.4-17.7 20.3-38.1 20.4-15.1.1-24.5-6-30.5-12.6 1.574-1.576 3.013-3.282 4.3-5.1-.2.1-3.8 1.8-6.4 2.8-1.3-1.7-2.6-3.4-3.7-5.1l-.8-1.3h-.1c-2.5-4.1-4-7.3-4-7.3 7.287-3.4144 14.278-7.4282 20.9-12l-8.3 2.2c-.747-1.0146-1.415-2.0843-2-3.2-.273-.4457-.507-.9141-.7-1.4-.719-1.4964-1.354-3.0321-1.9-4.6 0 0 12.4-4.8 24.9-9.2 10.3-3.7 16.4-1.8 23.6 1.4 2.8 1.4 7.9 4.4 14.3 7.4 4.7 2 10.8 4.1 10.8 4.1l-1.8 4.1-.6 1.5-1.7 3.3-5.5-1.6c6.7 4.2 12.1 7.2 12.1 7.2-1.007 2.4141-2.247 4.7249-3.7 6.9z" fill="url(#g)"/><path d="m283.1 86.3s1.1-9.5-4.7-13.6l-19.8-2.1c-9.2 2.8-10.3 13-10.3 13s-5.2 1.5-7.2 6.4c-3.6 9.2 5.7 18.7 16.6 21.7 3.329.87 6.802 1.04 10.2.5l2.4 5.9 10.4-4.8-2.2-4.6c5.1-2.7 9-6.8 10-11.5.478-2.1603.203-4.4191-.779-6.4017-.982-1.9825-2.613-3.5698-4.621-4.4983z" fill="#fae773"/><path d="m272.1 99.1c-2.7 4.2-6.3 6.4-9.7 5.4-1.982-.606-3.844-1.554-5.5-2.8-1.2-.847-2.277-1.857-3.2-3-.5-.6-.2-1 .1-1.2s3 .7 5.4 1.1c.787.1799 1.601.2138 2.4.1 2.8-.7 7.8-3.7 9.4-3.7s2.4 2 1.1 4.1z" fill="#ed80b6"/><path d="m285.4 73.5s-6.5 3.5-16.4 2.2c-11.7-1.5-16.5-5.1-16.5-5.1l16.2-5.6z" fill="#7bb9f8"/><path d="m258.7 73.7c.724-1.413 1.834-2.5919 3.2-3.4-.383 1.3809-.683 2.7834-.9 4.2z" fill="#fae773"/><path d="m273.6 76.7c.186-1.4931.286-2.9955.3-4.5 1.12 1.2001 1.882 2.6895 2.2 4.3z" fill="#fae773"/><path d="m261.2 84.9c-1.2 4.4-3.6 6-6 5s-2-4.1-.7-7.2 4.1-5.1 5.6-4.4 2 3.3 1.1 6.6z" fill="#fff"/><path d="m271.1 90c-.182.0057-.36-.0505-.505-.1596-.146-.1091-.25-.2644-.295-.4404-.064-.199-.047-.415.046-.6019.094-.1868.257-.3297.454-.3981 2.367-.856 4.905-1.1304 7.4-.8.195.0477.364.1666.475.3332.111.1667.156.3689.125.5668-.023.1068-.068.2077-.132.2965-.063.0888-.144.1636-.238.2198s-.198.0927-.306.1071c-.109.0143-.219.0064-.324-.0234-2.199-.2255-4.421.0479-6.5.8z" fill="#ef913c"/><path d="m267.3 91.7c1.508-.8687 3.121-1.5408 4.8-2 .569-.9955.974-2.0759 1.2-3.2.7-3.3.5-5.8-1.4-6.6s-4.2 1.4-5.4 4.6-.8 6.4.8 7.2z" fill="#fff"/><path d="m258.6 82.9c-.6 2-1.8 2.9-2.9 2.5s-.9-2-.3-3.6 2-2.6 2.8-2.3.9 1.8.4 3.4z" fill="#000"/><path d="m270.6 84.6c-.5 2-1.7 3-2.8 2.6s-1-1.9-.4-3.5 1.9-2.7 2.6-2.4 1 1.7.6 3.3z" fill="#000"/><path d="m259.2 98.6c-.853.9661-1.623 2.003-2.3 3.1-1.2-.847-2.277-1.857-3.2-3-.5-.6-.2-1 .1-1.2s3 .7 5.4 1.1z" fill="#000"/><path d="m302.4 81.9-.6 1.5c-3.114-.7343-6.159-1.7381-9.1-3-.092-.0519-.174-.1217-.239-.2054-.065-.0836-.113-.1794-.141-.2818-.028-.1023-.035-.2092-.021-.3144.013-.1053.048-.2067.101-.2984.032-.0978.085-.1875.155-.2626.07-.0752.156-.1339.251-.1721.096-.0382.199-.0549.301-.0489.103.006.203.0346.293.0836 2.901 1.2753 5.914 2.2796 9 3z" fill="#5896ea"/><path d="m234.4 98-6.3 3.8-.8-1.3h-.1c3.2-1.8 6.3-3.8 6.4-3.8.092-.0534.193-.088.299-.1018.105-.0138.212-.0065.314.0214s.198.0759.282.1412c.083.0653.153.1466.205.2392.06.1771.064.3687.01.5479s-.162.3372-.31.4521z" fill="#5896ea"/><path d="m242.3 77.4-8.5 2.7-.7-1.4 8.7-2.7c.199-.0637.415-.0471.602.0463s.33.2563.398.4537c.03.0918.041.189.032.2853s-.038.1897-.085.2743c-.047.0845-.111.1585-.188.2171-.077.0585-.165.1005-.259.1233z" fill="#5896ea"/><path d="m358 128.6c0 2.7-10.4 3-11.5 3s-2-.2-2.3-2.2c-.214-2.23-.616-4.437-1.2-6.6v-.2l-1.5.3c-10.309 2.207-20.412 5.284-30.2 9.2 3.1 9.5 3.7 21.3 3.7 21.3l-42.3 14.5c-4.461-4.189-8.33-8.966-11.5-14.2-8.2 6.2-15.9 13.2-21.2 25.1-.292.435-.528.905-.7 1.4l.3.2c1.461.811 2.963 1.545 4.5 2.2 1.5.6 2.3 1.1 2.1 2.7-.065.679-.199 1.349-.4 2-1.2 3.7-1.9 6.8-2.9 8.3s-1.2 1.3-2 .9c-2.3-.8-9.1-2.1-12.7-7.6-1.9-2.8-2.2-7.6-.5-13s7.2-14.7 13.2-21.4c4.391-5.039 9.397-9.507 14.9-13.3-1.013-3.374-1.782-6.816-2.3-10.3l46.8-19.3c2.242 2.81 4.217 5.823 5.9 9 12.5-5.3 29.1-10.4 37.8-10.6 3.6-.1 7 .1 8.8 2.1 4 4.4 5.2 13.3 5.2 16.5z" fill="url(#h)"/><path d="m336.2 63-10.6 2c3.7 8.5 11.4 22.2 7.7 27-4.8 6.4-16.5 7.9-28.1 10.5l-6.2 6.7 4 4.8c11.3-1 31.3-7.1 37.8-13.2 11.2-10.4-2.5-33.2-4.6-37.8z" fill="#fae773"/><path d="m260.4 131.6c-4.3.2-34.9 1.1-45.9-9.6-9.4-9-18.3-36.9-19.3-40.1-.441-1.4057-.311-2.9288.363-4.2392.674-1.3103 1.837-2.3022 3.237-2.7608 1.432-.4402 2.98-.2988 4.309.3936 1.329.6925 2.332 1.8803 2.791 3.3064 3.4 10.8 10.9 30 16.4 35.4s26.4 5.9 38.3 6.4z" fill="#fae773"/><path d="m319.4 52s-2.8 14.4 3.4 14.4 16.2.1 18.2-4.7c.563-1.5173.775-3.1425.619-4.7534s-.675-3.1654-1.519-4.5466z" fill="#fae773"/><path d="m185.2 78.6s2.3 10.1 8.3 8.8c9.5-2.1 21.6-6.8 19.6-17l-8.2-2.4z" fill="#fae773"/><path d="m277.5 139.3c1.105 0 2-.895 2-2s-.895-2-2-2c-1.104 0-2 .895-2 2s.896 2 2 2z" fill="#fff"/><path d="m279.2 145.3c1.105 0 2-.895 2-2s-.895-2-2-2c-1.104 0-2 .895-2 2s.896 2 2 2z" fill="#fff"/><path d="m285.9 119.8-17.2 4.7s-1.3-3.8-2.1-6.9c-.202-.657-.369-1.325-.5-2-.2-.9.8-1.6 2.3-2.3.205.468.474.906.8 1.3.7.8 8.8-2.6 9.5-3.2s.3-1.5.3-1.5 2.2-.2 2.6.6l.3.5c.239.629.54 1.232.9 1.8 1.4 3.1 3.1 7 3.1 7z" fill="#84ee91"/><path d="m268.1 118c-2.583-.828-5.315-1.086-8.008-.758s-5.283 1.235-7.592 2.658l-11.6-.6s1.1 13.3 13.6 17.7 17.8 1.9 19.2-2.3 2.2-7.2 2.2-7.2 3.4 5.3 5.6 6.7 8.6 1.3 17-8.4 6.7-23.3 6.7-23.3-19.8 3.5-22.5 10.6z" fill="#84ee91"/><path d="m282.6 113.2c-.786 2.077-.926 4.343-.4 6.5.03.099.038.203.023.306-.015.102-.053.2-.11.286-.058.086-.133.158-.222.211-.089.054-.188.087-.291.097h-.2c-.19-.017-.37-.093-.514-.219s-.244-.294-.286-.481c-.467-2.044-.433-4.172.1-6.2.296-.974.699-1.913 1.2-2.8.239.629.54 1.232.9 1.8-.1.2-.1.3-.2.5z" fill="#63c880"/><path d="m204.5 75.6h-.4l-6-3.5c-.092-.0519-.174-.1217-.239-.2053-.065-.0837-.113-.1795-.141-.2818-.028-.1024-.035-.2093-.022-.3145.014-.1052.049-.2066.102-.2984.042-.0892.102-.1687.177-.2331.074-.0644.162-.1123.256-.1406.094-.0284.194-.0364.291-.0237.098.0127.192.0459.276.0974 2.3 1.2 6.1 3.5 6.1 3.5.093.052.174.1218.239.2054.066.0837.114.1795.142.2818.027.1024.035.2093.021.3145s-.048.2066-.102.2983c-.075.1123-.181.2003-.305.2536-.125.0532-.262.0693-.395.0464z" fill="#ef913c"/><path d="m327.8 58.9c-.196.0016-.385-.0689-.533-.1979-.147-.129-.242-.3077-.267-.5021 0-.1-.6-3.8-.9-6.4-.014-.1052-.007-.2121.021-.3145s.076-.1983.141-.2821c.065-.0837.146-.1537.239-.2058.092-.0521.194-.0852.299-.0976.204.0111.399.0841.56.2092s.279.2963.34.4908c.3 2.5.9 6.3.9 6.3.03.099.038.2034.023.3057s-.053.2-.11.2861-.133.1583-.222.2116c-.088.0533-.188.0863-.291.0966z" fill="#ef913c"/><path d="m378.1 160h-81.5v67.91h81.5z" fill="#9099a4"/><path d="m377 226.5h-79.3v13.47h79.3z" fill="#747f8d"/><path d="m375.2 226.5v13.5h11.2c1.786 0 3.555-.352 5.205-1.035 1.65-.684 3.149-1.685 4.412-2.948s2.264-2.762 2.948-4.412c.683-1.65 1.035-3.419 1.035-5.205v-65.1h-24.8z" fill="#4f5660"/><path d="m375.2 161.3h24.8c-.154-3.511-1.651-6.829-4.182-9.267-2.532-2.439-5.903-3.811-9.418-3.833h-87.6v13.1z" fill="#747f8d"/><path d="m283.3 240h16.3v-91.8h-16.3c-3.607 0-7.066 1.433-9.616 3.983-2.551 2.551-3.984 6.01-3.984 9.617v64.6c0 1.786.352 3.554 1.035 5.205.684 1.65 1.686 3.149 2.949 4.412 1.262 1.263 2.762 2.264 4.412 2.948 1.65.683 3.418 1.035 5.204 1.035z" fill="#4f5660"/><g opacity=".5"><path d="m285.3 171.9c4.694 0 8.5-3.806 8.5-8.5s-3.806-8.5-8.5-8.5-8.5 3.806-8.5 8.5 3.806 8.5 8.5 8.5z" fill="#ed80b6" opacity=".5"/><path d="m285.3 193c4.694 0 8.5-3.806 8.5-8.5s-3.806-8.5-8.5-8.5-8.5 3.806-8.5 8.5 3.806 8.5 8.5 8.5z" fill="#7bb9f8" opacity=".5"/><path d="m285.3 214c4.694 0 8.5-3.806 8.5-8.5s-3.806-8.5-8.5-8.5-8.5 3.806-8.5 8.5 3.806 8.5 8.5 8.5z" fill="#fae773" opacity=".5"/></g><path d="m265.5 188.8c-6.76-.66-13.451-1.898-20-3.7-1.9-.6-3 2.4-3.8 4.8s-.8 4.7.4 5.3 15 4.3 24 4.3c1.393.031 2.746-.468 3.786-1.396 1.039-.928 1.688-2.216 1.814-3.604.3-3-.5-5.3-6.2-5.7z" fill="#fae773"/><path d="m279.7 183.2c-.1 2.3-1.1 3.1-2.1 3.2-1.983.018-3.961-.183-5.9-.6 0 0 1.7 5.1.9 8.5s-3.6 5.6-6.7 5.1-4.6-11-5.3-22c-.3-5.1 1.3-7.7 3.7-8.3s11 0 15.1 2.3c1.7.9.7 4.5-.9 4.9l-3.2.6-3.1.4 1.7.7c2.3 1 5.8 3.2 5.8 5.2z" fill="#fae773"/><path d="m272.2 177.3-5.5-2c-.156-.086-.279-.222-.349-.387-.07-.164-.083-.347-.037-.519.046-.173.148-.325.291-.432.142-.108.317-.165.495-.162 2.811.816 5.552 1.853 8.2 3.1z" fill="#ef913c"/><path d="m200.045 15.6987-56.47 28.1551c-1.483.7393-2.086 2.5406-1.347 4.0234l19.905 39.923c.74 1.4828 2.541 2.0855 4.024 1.3462l56.47-28.1551c1.483-.7393 2.086-2.5406 1.346-4.0234l-19.905-39.923c-.739-1.4828-2.54-2.0855-4.023-1.3462z" fill="#d5d8dc"/><path d="m348.5 170.1-11.6-3.1c-4.3-8.9-.6-10.4 12.5-10.7 5.8-.2-.9 13.8-.9 13.8z" fill="#fae773"/><path d="m345 169.1c-.118.015-.239-.005-.346-.058-.107-.054-.195-.138-.254-.242-1.622-1.829-2.848-3.974-3.6-6.3-.03-.105-.038-.215-.023-.324.014-.108.051-.212.107-.306.056-.093.131-.175.22-.238.088-.064.189-.109.296-.132.209-.017.417.032.597.139.179.108.32.269.403.461.742 2.065 1.823 3.991 3.2 5.7.128.161.189.365.17.57-.018.205-.115.395-.27.53-.062.07-.139.125-.226.159-.087.035-.181.049-.274.041z" fill="#ef913c"/><path d="m389.3 166.8h-60.2c-1.325 0-2.4 1.075-2.4 2.4v38.73c0 1.326 1.075 2.4 2.4 2.4h60.2c1.326 0 2.4-1.074 2.4-2.4v-38.73c0-1.325-1.074-2.4-2.4-2.4z" fill="#d5d8dc"/><path d="m330.7 172.3c.829 0 1.5-.672 1.5-1.5s-.671-1.5-1.5-1.5c-.828 0-1.5.672-1.5 1.5s.672 1.5 1.5 1.5z" fill="#7bb9f8"/><path d="m387.8 172.3c.829 0 1.5-.672 1.5-1.5s-.671-1.5-1.5-1.5c-.828 0-1.5.672-1.5 1.5s.672 1.5 1.5 1.5z" fill="#7bb9f8"/><path d="m365 164.3c-.5 6.5-1.5 7.7-3.9 9.5-.963.572-2.086.818-3.2.7l-1.8-.2s-3.6 3.1-6.2 3.9c-.884.151-1.793.007-2.588-.408-.794-.416-1.431-1.08-1.812-1.892-.5-1.3 2.1-6.5 2.1-6.5-1.33-.998-2.48-2.215-3.4-3.6l2.4-5.6 9.8-3.4c4.2.4 9 1.5 8.6 7.5z" fill="#fae773"/><path d="m357.9 174.5-1.8-.2c1.143-1.289 1.959-2.835 2.377-4.506.417-1.671.425-3.419.023-5.094-.03-.105-.038-.215-.023-.324.014-.108.051-.212.107-.306.056-.093.131-.175.22-.238.088-.064.189-.109.296-.132.198-.031.4.014.567.125s.285.281.333.475c.469 1.746.524 3.578.159 5.349s-1.138 3.432-2.259 4.851z" fill="#ef913c"/><path d="m345.9 130.2c1 7.8.8 18.1-.3 28.4-.069.736.009 1.478.229 2.184.219.706.577 1.361 1.051 1.928s1.055 1.035 1.711 1.376 1.373.549 2.109.612h.5c1.387.008 2.728-.499 3.762-1.423 1.035-.923 1.69-2.198 1.838-3.577.5-5.7 1.9-19.2.2-31-.6-3.2-11.3-1.5-11.1 1.5z" fill="#fae773"/><path d="m347.3 195.6v2.8h-12.7v-2.8c.02-1.474.548-2.896 1.496-4.026.947-1.13 2.256-1.898 3.704-2.174-.881-.239-1.661-.759-2.22-1.481-.559-.721-.868-1.606-.88-2.519-.094-.613-.055-1.239.115-1.835.171-.596.468-1.148.872-1.619.403-.47.904-.848 1.467-1.107s1.176-.393 1.796-.393 1.233.134 1.796.393 1.064.637 1.468 1.107c.403.471.7 1.023.871 1.619.17.596.209 1.222.115 1.835-.005.9-.3 1.775-.84 2.495s-1.297 1.248-2.16 1.505c1.439.279 2.735 1.051 3.666 2.183.93 1.131 1.438 2.552 1.434 4.017z" fill="#8189f6"/><path d="m383.6 195.6v2.8h-12.6v-2.8c-.004-1.465.504-2.886 1.435-4.017.93-1.132 2.227-1.904 3.665-2.183-.863-.257-1.62-.785-2.16-1.505s-.835-1.595-.84-2.495c0-1.114.443-2.182 1.23-2.97.788-.787 1.856-1.23 2.97-1.23s2.182.443 2.97 1.23c.788.788 1.23 1.856 1.23 2.97-.005.9-.3 1.775-.84 2.495s-1.297 1.248-2.16 1.505c1.438.279 2.735 1.051 3.665 2.183.931 1.131 1.439 2.552 1.435 4.017z" fill="#8189f6"/><path d="m365.5 193.9-1.5-1.5-1.4-1.4-4.9-4.9c.342-.643.468-1.379.36-2.099s-.445-1.386-.96-1.901c-.637-.635-1.5-.992-2.4-.992s-1.763.357-2.4.992c-.571.577-.916 1.339-.974 2.149-.057.81.176 1.613.66 2.266.483.652 1.183 1.11 1.975 1.29.791.181 1.621.073 2.339-.305l4.9 4.8-1.6 1.7 1.4 1.4 1.7-1.6 1.5 1.5-1.7 1.6 1.5 1.4 1.6-1.6 1.3-1.3zm-9.8-8.4c-.259.239-.598.372-.95.372s-.691-.133-.95-.372c-.252-.252-.393-.594-.393-.95s.141-.698.393-.95.594-.393.95-.393.698.141.95.393c.239.259.372.598.372.95s-.133.691-.372.95z" fill="#5a65e9"/><path d="m351.6 5.60004h-41.4c-1.325 0-2.4 1.07451-2.4 2.4v42.25996c0 1.3255 1.075 2.4 2.4 2.4h41.4c1.326 0 2.4-1.0745 2.4-2.4v-42.25996c0-1.32549-1.074-2.4-2.4-2.4z" fill="#d5d8dc"/><path d="m196.3 56.1-21.3 10.7c-2.195 1.1191-4.732 1.3701-7.104.7029-2.372-.6671-4.406-2.2035-5.696-4.3029-.639-1.1213-1.043-2.3611-1.187-3.6437-.145-1.2827-.026-2.5812.348-3.8165.375-1.2353.997-2.3813 1.829-3.3681.832-.9869 1.856-1.7938 3.01-2.3717l24.1-12.1c2.159-1.093 4.648-1.34 6.979-.6925 2.331.6476 4.336 2.1429 5.621 4.1925 1.089 1.7719 1.553 3.8578 1.318 5.9244-.236 2.0666-1.158 3.9945-2.618 5.4756l3.5 3.3c.6.6.4.9-.4.8z" fill="#8189f6"/><path d="m186.9 50.2c.57 1.1404.664 2.4607.261 3.6703s-1.27 2.2095-2.411 2.7797c-1.14.5702-2.46.664-3.67.2608s-2.21-1.2704-2.78-2.4108c-.282-.5647-.45-1.1794-.495-1.8092-.045-.6297.035-1.2621.234-1.8611.2-.5989.516-1.1527.929-1.6296.414-.477.918-.8678 1.482-1.1501.565-.2823 1.18-.4507 1.809-.4954.63-.0448 1.263.0349 1.862.2346.598.1996 1.152.5153 1.629.9289.477.4137.868.9172 1.15 1.4819zm-17.6 3.4c-1.127.597-1.977 1.61-2.369 2.8238-.392 1.2137-.296 2.5326.269 3.6762.437.8401 1.112 1.5324 1.941 1.9898.829.4573 1.775.6592 2.718.5804.944-.0788 1.843-.4349 2.584-1.0235.742-.5885 1.293-1.3832 1.584-2.2842.291-.9009.309-1.8678.052-2.779s-.778-1.726-1.497-2.342c-.719-.6159-1.604-1.0055-2.544-1.1196-.94-.1142-1.892.0522-2.738.4781zm28.7-8.9c-.267-.5726-.646-1.0856-1.116-1.5083-.469-.4226-1.019-.7463-1.616-.9517-.598-.2053-1.23-.2882-1.861-.2435-.63.0447-1.244.2159-1.807.5035-.564.2823-1.068.6731-1.482 1.1501-.413.4769-.729 1.0307-.929 1.6296-.199.599-.279 1.2314-.234 1.8611.045.6298.213 1.2445.495 1.8092.283.5647.673 1.0682 1.15 1.4819.477.4136 1.031.7293 1.63.9289.599.1997 1.231.2794 1.861.2347.63-.0448 1.245-.2132 1.809-.4955 1.12-.5775 1.968-1.5724 2.361-2.7698s.299-2.5013-.261-3.6302z" fill="#5a65e9"/><path d="m194.6 66.7c.2 1.6 3.5 3.4 8.8 6.5s7.8 2.1 9.4-.7-1.6-5.7-4.7-7-9.2-3.7-10.6-3.3c-.979.2157-1.834.8097-2.377 1.6527-.543.8429-.731 1.8664-.523 2.8473z" fill="#fae773"/><path d="m318.9 187.8h-29.9c-1.325 0-2.4 1.075-2.4 2.4v37.4c0 1.326 1.075 2.4 2.4 2.4h29.9c1.326 0 2.4-1.074 2.4-2.4v-37.4c0-1.325-1.074-2.4-2.4-2.4z" fill="#d5d8dc"/><path d="m290.5 193.1c.828 0 1.5-.672 1.5-1.5s-.672-1.5-1.5-1.5-1.5.672-1.5 1.5.672 1.5 1.5 1.5z" fill="#7bb9f8"/><path d="m317.4 193.1c.828 0 1.5-.672 1.5-1.5s-.672-1.5-1.5-1.5c-.829 0-1.5.672-1.5 1.5s.671 1.5 1.5 1.5z" fill="#7bb9f8"/><path d="m310.1 198.1h-12.3c-1.215 0-2.2.985-2.2 2.2v17.22c0 1.215.985 2.2 2.2 2.2h12.3c1.215 0 2.2-.985 2.2-2.2v-17.22c0-1.215-.985-2.2-2.2-2.2z" fill="#8189f6"/><path d="m308 208c-2.2-2.1-4-4.2-4-4.2h-.1s-1.8 2.1-4 4.2c-.349.269-.62.626-.787 1.035-.166.408-.222.853-.161 1.289.061.437.236.849.508 1.196s.631.616 1.04.78c.678.207 1.409.159 2.054-.136s1.159-.815 1.446-1.464c.268.641.764 1.159 1.392 1.455s1.344.347 2.008.145c.409-.164.768-.433 1.04-.78s.447-.759.508-1.196c.061-.436.005-.881-.161-1.289-.167-.409-.438-.766-.787-1.035z" fill="#5a65e9"/><path d="m304.1 210.7h-.3c-.246 1.306-.957 2.478-2 3.3h4.3c-1.043-.822-1.754-1.994-2-3.3z" fill="#5a65e9"/><path d="m319.5 43.4c-1.4 1.1-1.5 6.4-1.9 13.6s1.6 9.2 4.9 9.4 4.3-4.6 4.1-8.6-.8-12.4-1.8-13.8c-.283-.4211-.654-.7757-1.088-1.0391-.433-.2634-.919-.4294-1.423-.4865-.504-.057-1.015-.0038-1.496.156-.482.1598-.923.4224-1.293.7696z" fill="#fae773"/><path d="m338.8 6.20002v1.3h-15.7v-1.3c.026-.64556.301-1.25605.767-1.70347.466-.44743 1.087-.69705 1.733-.69653h3.7c-.362-.45779-.572-1.01718-.6-1.6 0-.29752.06-.59201.177-.86566.116-.27365.287-.520778.502-.72643s.47-.365558.748-.470048c.279-.1044889.576-.15139.873-.13786623.584 0 1.143.23178523 1.556.64436523.412.412579.644.972159.644 1.555639.013.59059-.202 1.16351-.6 1.6h3.7c.646-.00052 1.267.2491 1.733.69653.466.44742.741 1.05791.767 1.70347z" fill="#5a65e9"/><path d="m339.5 42.9 1.4-.9c-3-1.5-4.5-3.1-4.6-7.2h-3.1c.1 5.6 2.7 8 6.5 9.9z" fill="#5a65e9"/><path d="m343.754 22.098-25.399-.266c-.773-.0081-1.406.6121-1.414 1.3852l-.147 14.0193c-.008.7731.612 1.4065 1.385 1.4146l25.399.2659c.773.0081 1.406-.6121 1.414-1.3852l.147-14.0193c.008-.7731-.612-1.4064-1.385-1.4145z" fill="#5a65e9"/><path d="m336.4 16.6c-1.415-.0002-2.773.5549-3.783 1.5461s-1.591 2.3391-1.617 3.7539c.013-.696-.111-1.3879-.365-2.036s-.633-1.2398-1.116-1.7412c-.483-.5015-1.06-.9029-1.698-1.1813-.638-.2785-1.325-.4285-2.021-.4415h-5.4v18.1l21.3.2.2-18.1z" fill="#8189f6"/><path d="m116.5 7h-50.6999c-1.6569 0-3.0001 1.34315-3.0001 3v44.12c0 1.6569 1.3432 3 3.0001 3h50.6999c1.657 0 3-1.3431 3-3v-44.12c0-1.65685-1.343-3-3-3z" fill="#d5d8dc"/><path d="m97.4002 23c.1689.5448.2277 1.1179.1729 1.6857-.0547.5678-.2219 1.1191-.4918 1.6217-.2699.5025-.6371.9464-1.0803 1.3056-.4431.3593-.9532.6268-1.5008.787-2.3.6-9.5-1.7-9.5-1.7s4.8-5.9 7.1-6.6c.5383-.1677 1.1048-.2254 1.6658-.1694.561.0559 1.105.2241 1.5996.4948.4946.2706.9296.638 1.2792 1.0803.3495.4423.6065.9505.7554 1.4943z" fill="#5a65e9"/><path d="m106.3 30.5h-.9v-1.7001c0-.407-.08-.8102-.236-1.1863s-.384-.7178-.672-1.0057c-.288-.2878-.629-.5162-1.006-.672-.376-.1558-.779-.2359-1.186-.2359h-22.1999c-.4071 0-.8102.0801-1.1863.2359s-.7178.3842-1.0057.672c-.2878.2879-.5162.6296-.672 1.0057s-.236.7793-.236 1.1863v1.7001h-.9c-.4154-.0135-.8293.0568-1.217.2066s-.7414.376-1.0399.6652c-.2986.2892-.5359.6355-.6979 1.0183s-.2454.7942-.2452 1.2098v3.5c-.0002.4157.0832.8272.2452 1.2099.162.3828.3993.7291.6979 1.0183.2985.2892.6522.5154 1.0399.6652s.8016.2201 1.217.2067h.9v2.0999c0 .8222.3266 1.6107.908 2.1921.5814.5813 1.3699.908 2.192.908h22.1999c.822 0 1.611-.3267 2.192-.908.582-.5814.908-1.3699.908-2.1921v-2.0999h.9c.416.0134.829-.0569 1.217-.2067s.742-.376 1.04-.6652c.299-.2892.536-.6355.698-1.0183.162-.3827.245-.7942.245-1.2099v-3.5c0-.4156-.083-.827-.245-1.2098s-.399-.7291-.698-1.0183c-.298-.2892-.652-.5154-1.04-.6652s-.801-.2201-1.217-.2066z" fill="#8189f6"/><path d="m86.1002 31.6h10.2c.1576 0 .3136.031.4592.0913s.2779.1487.3893.2602c.1114.1114.1998.2437.2601.3893s.0914.3016.0914.4592v4.4c0 .7956-.3161 1.5587-.8787 2.1213s-1.3257.8787-2.1213.8787h-6.6c-.7957 0-1.5587-.3161-2.1214-.8787-.5626-.5626-.8786-1.3257-.8786-2.1213v-4.3c-.0139-.1658.0069-.3327.0609-.49.0541-.1573.1403-.3017.2531-.424.1129-.1222.2499-.2197.4024-.2861.1525-.0665.3172-.1005.4836-.0999z" fill="#5a65e9"/><path d="m94.6001 24.1c-.1566.0088-.3129-.0234-.4532-.0936s-.2599-.1758-.3468-.3064c-.0739-.1111-.1248-.2359-.1497-.367-.0249-.131-.0233-.2658.0046-.3963.028-.1304.0817-.254.1582-.3633.0764-.1094.174-.2023.2869-.2734l4.7-3.5c.2122-.1592.4789-.2275.7414-.19.2626.0375.4995.1778.6585.39s.228.4788.19.7414c-.037.2626-.178.4994-.39.6586l-4.7999 3.5z" fill="#5a65e9"/><path d="m101 7.8v1.6h-19.5999v-1.6c0-.82217.3267-1.61067.908-2.19203.5814-.58136 1.3699-.90797 2.192-.90797h4.7c-.5074-.50259-.7951-1.18578-.8-1.9 0-.74261.295-1.4548.8201-1.979899.5251-.525102 1.2373-.820101 1.9799-.820101.7347.0249257 1.4325.327926 1.9523.847723s.8228 1.217597.8477 1.952277c-.0048.71422-.2925 1.39741-.8 1.9h4.7c.8222 0 1.6107.32661 2.1919.90797.582.58136.908 1.36986.908 2.19203z" fill="#5a65e9"/></g></svg>
