<svg width="64" height="50" viewBox="0 0 64 50" fill="none" xmlns="http://www.w3.org/2000/svg">
<path d="M27.04 46.6254C16.9487 46.6254 8.76801 38.4471 8.76801 28.3586C8.76801 18.2701 16.9487 10.0918 27.04 10.0918C37.1314 10.0918 45.312 18.2701 45.312 28.3586C45.312 38.4471 37.1314 46.6254 27.04 46.6254Z" fill="url(#paint0_linear_691_89527)"/>
<path d="M27.0401 49.4004C38.6481 49.4004 48.0881 39.9631 48.0881 28.3584C48.0881 16.7537 38.6481 7.31641 27.0401 7.31641C15.4321 7.31641 5.99214 16.7537 5.99214 28.3584C5.99214 39.9631 15.4321 49.4004 27.0401 49.4004ZM27.0401 8.62803C37.9201 8.62803 46.7761 17.4815 46.7761 28.3584C46.7761 39.2353 37.9201 48.0888 27.0401 48.0888C16.1601 48.0888 7.30413 39.2353 7.30413 28.3584C7.30413 17.4815 16.1601 8.62803 27.0401 8.62803Z" fill="#57F287"/>
<path d="M49.5121 24.0492C52.4401 25.6327 49.6721 30.3434 47.5521 33.7824C45.4321 37.2214 40.8241 39.3488 36.0001 36.6696L36.2561 29.4956C42.3841 24.713 46.5921 22.4576 49.5121 24.0492Z" fill="url(#paint1_linear_691_89527)"/>
<path d="M44.112 28.4245C44.0415 28.4056 43.981 28.36 43.9437 28.2972C43.9063 28.2344 43.895 28.1596 43.912 28.0886C43.9309 28.018 43.9766 27.9576 44.0393 27.9202C44.1021 27.8829 44.177 27.8715 44.248 27.8886C44.272 27.8966 46.536 28.4405 50.04 29.2402C49.968 29.4082 49.888 29.5841 49.808 29.7521C46.368 28.9603 44.144 28.4245 44.112 28.4245Z" fill="#4199F0"/>
<path d="M41.5601 29.5998C41.5841 29.6158 43.7281 30.6635 47.9841 33.0708L47.7041 33.5346C43.4721 31.1433 41.3441 30.1036 41.3201 30.0956C41.2876 30.0799 41.2584 30.0579 41.2344 30.0308C41.2103 30.0038 41.1918 29.9723 41.1799 29.9382C41.168 29.904 41.163 29.8678 41.1651 29.8317C41.1672 29.7956 41.1764 29.7603 41.1921 29.7277C41.2079 29.6952 41.2299 29.666 41.2569 29.642C41.284 29.6179 41.3154 29.5994 41.3496 29.5876C41.3838 29.5757 41.42 29.5706 41.4561 29.5727C41.4922 29.5748 41.5276 29.584 41.5601 29.5998Z" fill="#4199F0"/>
<path d="M45.04 25.5368C45.0356 25.4638 45.0599 25.392 45.1077 25.3367C45.1556 25.2814 45.2231 25.247 45.296 25.2408C45.312 25.2408 47.024 25.0969 50.36 24.793C50.4732 24.9552 50.5621 25.133 50.624 25.3208L45.336 25.7847H45.312C45.2444 25.7832 45.1795 25.7573 45.1295 25.7117C45.0795 25.6661 45.0477 25.604 45.04 25.5368Z" fill="#4199F0"/>
<path d="M50.776 27.6395C51.137 27.6395 51.4945 27.5682 51.8279 27.4299C52.1614 27.2915 52.4642 27.0887 52.7191 26.8332C52.9741 26.5776 53.176 26.2742 53.3134 25.9405C53.4509 25.6067 53.5211 25.2492 53.52 24.8882V22.161C53.52 22.0168 53.4627 21.8784 53.3607 21.7765C53.2587 21.6745 53.1203 21.6172 52.976 21.6172C52.8317 21.6172 52.6934 21.6745 52.5913 21.7765C52.4893 21.8784 52.432 22.0168 52.432 22.161V24.8882C52.4315 25.1391 52.3743 25.3866 52.2647 25.6122C52.155 25.8378 51.9957 26.0357 51.7988 26.1911C51.6018 26.3465 51.3722 26.4553 51.1272 26.5095C50.8822 26.5636 50.6281 26.5617 50.384 26.5038L46.752 25.64C46.1745 25.5029 45.6603 25.1747 45.2929 24.7087C44.9254 24.2427 44.7264 23.6661 44.728 23.0728V20.0656C44.7118 19.9317 44.6471 19.8084 44.5461 19.7189C44.4452 19.6295 44.3149 19.5801 44.18 19.5801C44.0451 19.5801 43.9149 19.6295 43.8139 19.7189C43.7129 19.8084 43.6482 19.9317 43.632 20.0656V23.0728C43.6298 23.9134 43.9125 24.73 44.434 25.3894C44.9556 26.0488 45.6853 26.5121 46.504 26.7037L50.136 27.5675C50.3459 27.6155 50.5606 27.6397 50.776 27.6395Z" fill="#1927BC"/>
<path d="M25.84 7.66174C26.832 7.78171 27.44 8.95737 25.824 12.9002L24.8 12.9562C23.768 8.8534 24.856 7.54177 25.84 7.66174Z" fill="white"/>
<path d="M20.3681 11.2046C16.9841 7.6216 18.1121 5.8781 19.7361 5.77413C21.7521 5.64616 24.3681 7.38167 25.1841 12.0203L20.0961 15.9872C18.2081 15.6913 16.3521 15.2834 15.0641 14.4277C13.9041 13.6439 14.0561 11.8524 15.3441 11.2926C16.4881 10.8047 18.1521 10.6607 20.3681 11.2046Z" fill="white"/>
<path d="M19.624 30.9501C19.624 30.9501 18.992 29.3905 17.072 23.5282C15.464 18.6176 17.792 12.6593 25.232 12.1074C30.008 11.7475 33.168 14.2348 35.656 23.3283C36.4296 26.1111 37.8903 28.655 39.904 30.7261C41.864 32.7416 42.768 35.1889 42.792 37.6202C41.0014 40.6604 38.3688 43.1176 35.2121 44.6949C32.0553 46.2722 28.5093 46.9023 25.0022 46.509C21.495 46.1158 18.1768 44.7161 15.4479 42.4788C12.7191 40.2416 10.6964 37.2625 9.62399 33.9012C9.59199 33.7173 9.58399 33.6213 9.58399 33.6213C9.58399 33.6213 14.136 32.2217 19.624 30.9501Z" fill="#66BCFF"/>
<path d="M26.1362 22.8487C25.2562 21.4011 25.4002 19.3697 28.7682 15.3789C32.2642 11.244 35.8562 9.50053 38.2322 11.348C40.6082 13.1955 37.7202 17.1703 35.2962 20.0655C39.2882 22.4009 39.9522 24.1923 39.3202 26.0158C38.6882 27.8393 35.9522 28.1672 33.4802 27.4714C31.0082 26.7756 27.2882 24.7602 26.1362 22.8487Z" fill="#FFE75C"/>
<path d="M29.8801 20.745C32.5121 16.6502 35.1281 14.9147 36.1041 14.4988C37.0801 14.0829 37.5681 14.6987 37.1281 15.6985C36.6881 16.6982 35.0161 18.9455 33.9921 20.2732C36.0481 21.7207 37.6001 22.6565 37.6081 23.9121C37.6241 25.0318 35.4161 24.6639 33.7361 23.5762C32.4081 22.7125 30.6801 21.4728 29.8801 20.745Z" fill="#FF962A"/>
<path d="M21.1681 30.7186C5.84808 22.225 2.90408 21.2413 1.01608 25.9519C-0.871918 30.6626 -0.391918 35.5812 4.65608 39.5561C9.70408 43.5309 11.6401 41.8034 16.8481 39.5321C23.2081 36.7648 23.9201 32.2461 21.1681 30.7186Z" fill="url(#paint2_linear_691_89527)"/>
<path d="M38.8081 17.2024L54.6081 1.59082C55.1361 1.05497 55.7441 0.719068 56.4081 0.623096C59.5361 0.191219 62.8241 5.30976 63.7521 12.0518C64.6801 18.7939 62.9041 24.6163 59.7761 25.0481C59.4205 25.0905 59.0601 25.0688 58.7121 24.9842L39.3681 20.3855C38.9921 20.2895 38.6321 19.6497 38.5281 18.8419C38.4241 18.0341 38.5521 17.4823 38.8081 17.2024Z" fill="white"/>
<path d="M53.642 13.4401C52.7749 7.11214 54.1941 1.69174 56.8118 1.33327C59.4294 0.974792 62.2544 5.81398 63.1214 12.1419C63.9885 18.4698 62.5694 23.8902 59.9517 24.2487C57.334 24.6072 54.509 19.768 53.642 13.4401Z" fill="#7196FF"/>
<path d="M53.5442 7.04473L53.6802 7.02074C55.6002 6.75681 57.5922 9.62799 58.1122 13.4429C58.6162 17.0899 57.6002 20.273 55.8162 20.7688C54.8242 18.8574 54.0322 16.3061 53.6322 13.4509C53.3122 11.1236 53.3042 8.9162 53.5442 7.04473Z" fill="black"/>
<path d="M23.3041 19.1543C23.2961 18.7704 22.9761 18.4585 22.6481 18.3306C22.3351 18.2187 21.9971 18.1966 21.6721 18.2666C21.3654 18.3241 21.0756 18.4498 20.8241 18.6345C20.5723 18.8049 20.3706 19.0396 20.2401 19.3143C20.224 19.3478 20.2147 19.3842 20.2128 19.4214C20.211 19.4586 20.2165 19.4958 20.2292 19.5308C20.2418 19.5658 20.2614 19.5979 20.2866 19.6253C20.3118 19.6526 20.3423 19.6747 20.3761 19.6902C20.4166 19.7095 20.4614 19.7181 20.5062 19.7153C20.551 19.7125 20.5943 19.6984 20.6321 19.6742L20.6561 19.6582C21.0082 19.4429 21.4051 19.3115 21.8161 19.2743C21.9874 19.2597 22.16 19.2704 22.3281 19.3063C22.4958 19.3288 22.6615 19.3636 22.8241 19.4102L22.9361 19.4422C23.0093 19.4625 23.0875 19.4539 23.1545 19.4182C23.2215 19.3824 23.2722 19.3223 23.2961 19.2503C23.3027 19.2187 23.3054 19.1865 23.3041 19.1543Z" fill="black"/>
<path d="M21.168 21.6095C21.2096 21.6098 21.2507 21.6006 21.2881 21.5825C21.3256 21.5645 21.3584 21.5382 21.384 21.5055C21.952 20.7617 22.488 20.2898 23.664 19.9139C23.6982 19.9029 23.7298 19.8853 23.7571 19.862C23.7845 19.8388 23.8069 19.8104 23.8233 19.7784C23.8396 19.7465 23.8495 19.7117 23.8524 19.6759C23.8553 19.6401 23.8511 19.6042 23.84 19.57C23.829 19.5359 23.8114 19.5043 23.7881 19.477C23.7648 19.4496 23.7364 19.4272 23.7045 19.4108C23.6725 19.3945 23.6377 19.3846 23.6019 19.3817C23.5662 19.3789 23.5302 19.3831 23.496 19.3941C22.184 19.818 21.576 20.3618 20.952 21.1696C20.9091 21.2274 20.8901 21.2996 20.899 21.3712C20.908 21.4427 20.9441 21.508 21 21.5535C21.0485 21.5898 21.1075 21.6095 21.168 21.6095Z" fill="#339AFF"/>
<path d="M8.76814 28.0873H8.71215C8.68015 28.0793 5.48014 27.4475 0.720144 26.7757C0.776144 26.6078 0.840143 26.4318 0.904143 26.2559C5.62414 26.9197 8.78414 27.5435 8.82414 27.5515C8.89628 27.5589 8.96251 27.5947 9.00827 27.6509C9.05403 27.7072 9.07557 27.7793 9.06814 27.8514C9.06072 27.9235 9.02494 27.9897 8.96868 28.0355C8.91242 28.0812 8.84028 28.1028 8.76814 28.0953V28.0873Z" fill="#66BCFF"/>
<path d="M18.6801 34.6854C18.6901 34.6124 18.7284 34.5463 18.7868 34.5014C18.8452 34.4565 18.919 34.4364 18.9921 34.4455C19.063 34.4554 19.1271 34.4929 19.1705 34.5498C19.214 34.6067 19.2332 34.6784 19.2241 34.7494C19.2241 34.7734 19.0241 36.349 18.7841 38.5323L18.2001 38.8682C18.4561 36.4849 18.6801 34.7014 18.6801 34.6854Z" fill="#66BCFF"/>
<path d="M16.0801 33.2068C16.1278 33.1533 16.1943 33.1202 16.2657 33.1142C16.3371 33.1083 16.4081 33.13 16.4641 33.1748C16.4924 33.1972 16.5158 33.2252 16.5329 33.257C16.5499 33.2888 16.5603 33.3238 16.5633 33.3598C16.5663 33.3958 16.5619 33.432 16.5503 33.4662C16.5388 33.5004 16.5203 33.5319 16.4961 33.5587C16.4641 33.6067 13.1761 37.5415 10.3441 41.9163C10.1257 41.9323 9.90645 41.9323 9.68807 41.9163C12.5921 37.3976 16.0401 33.2548 16.0801 33.2068Z" fill="#66BCFF"/>
<path d="M2.94405 37.9886C6.76805 35.1974 12.0001 32.3342 12.0561 32.2942C12.1209 32.2599 12.1966 32.2524 12.2669 32.2734C12.3373 32.2943 12.3965 32.342 12.4321 32.4062C12.45 32.4374 12.4613 32.472 12.4654 32.5078C12.4694 32.5436 12.4661 32.5799 12.4556 32.6143C12.4451 32.6488 12.4277 32.6808 12.4044 32.7082C12.381 32.7357 12.3524 32.7581 12.32 32.7741C12.264 32.8141 7.11205 35.6293 3.32805 38.3885C3.19205 38.2525 3.06405 38.1246 2.94405 37.9886Z" fill="#66BCFF"/>
<path d="M10.0881 30.4473C10.1589 30.4472 10.2269 30.4748 10.2777 30.5241C10.3285 30.5733 10.358 30.6405 10.3601 30.7112C10.3623 30.7472 10.3571 30.7832 10.3448 30.8171C10.3325 30.851 10.3134 30.882 10.2887 30.9082C10.2639 30.9345 10.2341 30.9554 10.201 30.9696C10.1679 30.9839 10.1322 30.9912 10.0961 30.9911C10.0401 30.9911 5.47211 31.0791 0.0241108 31.527L0.00011158 30.9751C5.46411 30.5272 10.0321 30.4473 10.0881 30.4473Z" fill="#66BCFF"/>
<path d="M19.2321 38.6611C19.2825 38.659 19.3318 38.6453 19.3761 38.6211C20.4161 37.9573 21.7041 37.0216 22.4801 35.582C22.5147 35.5193 22.5231 35.4455 22.5037 35.3767C22.4842 35.3078 22.4384 35.2494 22.3761 35.2141C22.3122 35.1791 22.2372 35.1704 22.167 35.1898C22.0968 35.2092 22.0369 35.2552 22.0001 35.318C21.2801 36.6457 20.0641 37.5334 19.0801 38.1572C19.0493 38.1759 19.0227 38.2007 19.0018 38.23C18.981 38.2594 18.9664 38.2927 18.9589 38.3279C18.9514 38.3631 18.9512 38.3995 18.9583 38.4348C18.9653 38.4701 18.9796 38.5035 19.0001 38.5331C19.0246 38.5725 19.0588 38.6049 19.0994 38.6273C19.14 38.6497 19.1857 38.6613 19.2321 38.6611Z" fill="black"/>
<path d="M36.344 34.4533C36.3743 34.4556 36.4046 34.4501 36.432 34.4373C36.4707 34.4257 36.506 34.4052 36.5352 34.3774C36.5644 34.3496 36.5866 34.3153 36.6 34.2773C36.736 33.9254 36.8 33.3896 36.776 32.7898C37.22 32.9535 37.6507 33.1513 38.064 33.3816C38.0997 33.4032 38.1398 33.4166 38.1813 33.4208C38.2228 33.4249 38.2648 33.4197 38.304 33.4056C38.3406 33.3898 38.3737 33.3668 38.4012 33.3379C38.4287 33.3091 38.4501 33.275 38.464 33.2376C38.616 32.7898 38.784 31.814 38.456 31.0143C38.4424 30.9812 38.4223 30.9511 38.3971 30.9258C38.3718 30.9004 38.3417 30.8803 38.3087 30.8666C38.2756 30.8528 38.2402 30.8457 38.2044 30.8457C38.1686 30.8457 38.1331 30.8527 38.1 30.8663C38.0669 30.88 38.0369 30.9 38.0115 30.9253C37.9862 30.9506 37.9661 30.9806 37.9523 31.0136C37.9386 31.0467 37.9315 31.0821 37.9314 31.1179C37.9314 31.1537 37.9384 31.1891 37.952 31.2222C38.152 31.7181 38.112 32.3259 38.032 32.7418C37.5589 32.4992 37.0665 32.2959 36.56 32.134C36.5183 32.1181 36.473 32.1142 36.4292 32.1227C36.3854 32.1312 36.3448 32.1517 36.312 32.1819C36.2766 32.2087 36.2484 32.244 36.2303 32.2846C36.2121 32.3251 36.2044 32.3696 36.208 32.4139C36.2547 32.8695 36.2412 33.3293 36.168 33.7815C35.6468 33.514 35.0965 33.3073 34.528 33.1657C34.4928 33.1574 34.4563 33.1563 34.4207 33.1623C34.385 33.1683 34.3509 33.1814 34.3204 33.2008C34.2898 33.2201 34.2634 33.2454 34.2428 33.2751C34.2221 33.3047 34.2076 33.3382 34.2 33.3736C34.1853 33.4434 34.1977 33.5163 34.2349 33.5773C34.2721 33.6382 34.3312 33.6827 34.4 33.7015C35.0317 33.861 35.6396 34.103 36.208 34.4213C36.2497 34.444 36.2967 34.455 36.344 34.4533Z" fill="#4FA8FF"/>
<path d="M29.9201 33.1732H29.9521C29.9903 33.1697 30.0273 33.1578 30.0604 33.1384C30.0936 33.1191 30.1221 33.0928 30.1441 33.0613C30.4785 32.5261 30.6585 31.9088 30.6641 31.2778C30.662 31.2049 30.6316 31.1358 30.5793 31.085C30.527 31.0342 30.457 31.0058 30.3841 31.0059C30.3119 31.0059 30.2427 31.0345 30.1917 31.0855C30.1407 31.1365 30.1121 31.2057 30.1121 31.2778C30.1085 31.6986 30.0129 32.1135 29.8321 32.4934C29.3761 32.1735 28.8161 31.9176 28.4001 31.8376C28.3643 31.8307 28.3275 31.8311 28.2919 31.8387C28.2562 31.8463 28.2225 31.861 28.1926 31.8819C28.1628 31.9028 28.1375 31.9294 28.1181 31.9603C28.0988 31.9912 28.0858 32.0256 28.0801 32.0616C28.0684 32.1335 28.0852 32.2073 28.127 32.267C28.1689 32.3268 28.2324 32.3678 28.3041 32.3815C28.6561 32.4375 29.2641 32.7174 29.7441 33.1173C29.7947 33.1553 29.8568 33.175 29.9201 33.1732Z" fill="#4FA8FF"/>
<path d="M35.2641 24.3212C34.7281 24.1322 34.2154 23.8826 33.7361 23.5774C32.4081 22.7137 30.6801 21.474 29.8801 20.7462C30.2161 20.2264 30.5441 19.7465 30.8801 19.3066C31.4541 19.5596 31.9965 19.8791 32.4961 20.2584C34.1201 21.474 35.4561 23.2895 35.2641 24.3212Z" fill="#FF5D12"/>
<path d="M57.072 1.3186C56.9808 1.31863 56.8898 1.32666 56.8 1.34259C54.176 1.70249 52.76 7.12494 53.632 13.4511C54.472 19.5534 57.136 24.2721 59.68 24.2721C59.7712 24.272 59.8622 24.264 59.952 24.2481C62.568 23.8882 63.984 18.4657 63.112 12.1395C62.272 6.03725 59.608 1.32659 57.072 1.3186ZM57.072 0.886719C59.888 0.886719 62.672 5.70135 63.552 12.0835C64.464 18.7456 62.912 24.2881 60.016 24.6879L59.68 24.7039C56.864 24.7039 54.08 19.8893 53.2 13.5071C52.28 6.84502 53.832 1.3106 56.736 0.910712C56.8473 0.894777 56.9596 0.886759 57.072 0.886719Z" fill="white"/>
<defs>
<linearGradient id="paint0_linear_691_89527" x1="17.9616" y1="36.3987" x2="36.393" y2="20.0693" gradientUnits="userSpaceOnUse">
<stop stop-color="#EB459F"/>
<stop offset="1" stop-color="#FF78B9"/>
</linearGradient>
<linearGradient id="paint1_linear_691_89527" x1="46.8441" y1="24.3491" x2="40.3059" y2="34.0033" gradientUnits="userSpaceOnUse">
<stop stop-color="#66BCFF"/>
<stop offset="0.3" stop-color="#60B7FD"/>
<stop offset="0.69" stop-color="#51A9F8"/>
<stop offset="1" stop-color="#3F99F2"/>
</linearGradient>
<linearGradient id="paint2_linear_691_89527" x1="23.3217" y1="32.5372" x2="-0.971919" y2="32.5372" gradientUnits="userSpaceOnUse">
<stop stop-color="#66BCFF"/>
<stop offset="1" stop-color="#8CD9FF"/>
</linearGradient>
</defs>
</svg>
