<?xml version="1.0" encoding="UTF-8"?><svg id="art" xmlns="http://www.w3.org/2000/svg" xmlns:xlink="http://www.w3.org/1999/xlink" viewBox="0 0 219.1 138.38"><defs><style>.cls-1{fill:none;}.cls-2{fill:url(#linear-gradient);}.cls-3{clip-path:url(#clippath);}.cls-4{fill:#f47521;}.cls-5{fill:#038e3c;}.cls-6{fill:#698fff;}.cls-7{fill:#e9459d;}.cls-8{fill:#fff;}.cls-9{fill:#ffe55c;}.cls-10{fill:#ffe65c;}.cls-11{fill:#ff2ea1;}.cls-12{fill:#ff78b7;}.cls-13{fill:#ff78b8;}.cls-14{fill:#b8cdff;}.cls-15{fill:#acfcdb;}.cls-16{fill:#ce5511;}.cls-17{fill:#242145;}.cls-18{fill:#5865f0;}.cls-19{fill:#29cc7a;}.cls-20{fill:#2b53f1;}.cls-21{fill:#2de4c3;}.cls-22{fill:#57f287;}.cls-23{fill:#57f085;}.cls-24{fill:#5765f1;}.cls-25{fill:#3c58da;}.cls-26{fill:#4b7dff;}.cls-27{fill:#4a7dff;}</style><linearGradient id="linear-gradient" x1="74.95" y1="90.35" x2="128.28" y2="-18.1" gradientTransform="translate(0 140.76) scale(1 -1)" gradientUnits="userSpaceOnUse"><stop offset=".06" stop-color="#4e75e4"/><stop offset=".47" stop-color="#698fff"/><stop offset=".65" stop-color="#648afa"/><stop offset=".86" stop-color="#567dec"/><stop offset="1" stop-color="#4970df"/></linearGradient><clipPath id="clippath"><circle class="cls-1" cx="193.33" cy="42.26" r="25.77"/></clipPath></defs><g><circle class="cls-4" cx="30.6" cy="40.08" r="23.7"/><g><path class="cls-8" d="M44.8,40.08c0-7.8-6.4-14.2-14.2-14.2s-14.2,6.4-14.2,14.2,6.4,14.2,14.2,14.2h1c-6.5-.4-11.7-5.8-11.7-12.5s5.6-12.5,12.5-12.5,12,5.1,12.4,11.6c0-.2,0-.5,0-.8Z"/><path class="cls-8" d="M37.7,33.68c-1.4-.7-3-1.1-4.6-1.1-5.5,0-10,4.5-10,10s4.5,10,10,10,10-4.5,10-10c0-.6-.1-1.2-.2-1.8-.8,1.1-2.1,1.8-3.6,1.8-2.5,0-4.5-2-4.5-4.5-.1-2.1,1.1-3.7,2.9-4.4Z"/></g><path class="cls-9" d="M130.53,117.68c0-9.97,8.11-18.08,18.08-18.08,3.43,0,6.62,.98,9.35,2.64,2.01-5.23,3.13-10.91,3.13-16.86,0-25.96-21.04-47-47-47s-47,21.04-47,47c0,16.99,9.02,31.88,22.52,40.13,7.13,4.36,15.51,6.87,24.48,6.87,7.04,0,13.72-1.56,19.72-4.34-2.06-2.94-3.28-6.51-3.28-10.36h0Z"/><path d="M145.57,59.91c-2.21,0-4-1.79-4-4,0-4.78-.19-6.71-.81-10.45-.64-3.86-3.67-6.86-7.73-7.63-4.08-.78-14.99-1.2-23.18-1.2s-19.1,.42-23.18,1.2c-4.06,.78-7.1,3.77-7.73,7.63-.61,3.74-.81,5.67-.81,10.45,0,2.21-1.79,4-4,4s-4-1.79-4-4c0-5.26,.24-7.65,.91-11.74,1.18-7.21,6.73-12.78,14.12-14.19,5.56-1.07,18.58-1.35,24.68-1.35s19.12,.28,24.68,1.35c7.39,1.42,12.93,6.99,14.12,14.19,.67,4.09,.91,6.48,.91,11.74,0,2.21-1.79,4-4,4h.02Z"/><path class="cls-2" d="M130.53,117.68c0-7.91,5.12-14.64,12.21-17.09-5.67-13.39-11.22-24.13-11.22-24.13l-39.78-1.96s-18.69-8.97-30.77-14.28c-6.35-2.79-9.14-2.98-10.7-.54-.57,.89-.46,2.24-.27,3.44,.18,1.18-.18,1.45-1.18,1.81-1.21,.44-7.34,2.27-6.62,7.43,.33,2.34,2.54,4.56,5.8,5.35,5.26,1.27,9.16,.73,11.33,1.81,2.27,1.14,17.29,9.41,28.3,17.5,0,0,.29,16.97,3.83,29.55,6.71,3.7,14.42,5.8,22.63,5.8,7.04,0,13.72-1.56,19.72-4.33-2.06-2.94-3.29-6.51-3.29-10.36h0Z"/><path class="cls-6" d="M183.48,105.82c-1.08-4.85-9.25-5.56-10.88-6.77-4.26-3.15-14.87-10.15-23.33-15.59-5.22-3.35-11.56-8.08-19.18-8.08l5.7,23.37s1.93,1.07,4.88,2.71c2.4-1.18,5.09-1.86,7.94-1.86,9.2,0,16.79,6.9,17.92,15.8,1.9,.97,3.4,1.69,4.25,2.03,2.72,1.09,4.96,1.03,5.44-.6,.4-1.33,0-3.2,0-3.2,5.44-1.09,7.98-4.53,7.25-7.8h.01Z"/><g><path class="cls-25" d="M89.87,75.84l42.23,.38c-6.88,6.38-23.96,20.92-34.17,19.16-10.48-1.81-8.07-19.54-8.07-19.54h0Z"/><ellipse class="cls-4" cx="69.01" cy="54.5" rx="6.75" ry="10.89" transform="translate(-.88 1.14) rotate(-.94)"/><ellipse cx="73.55" cy="54.48" rx="8.32" ry="13.42" transform="translate(-.88 1.21) rotate(-.94)"/><path class="cls-6" d="M145.57,55.91c0-4.97-.2-7.1-.86-11.1-.92-5.57-5.21-9.82-10.93-10.91-4.63-.89-16-1.28-23.93-1.28s-19.31,.39-23.93,1.28c-5.71,1.09-10.01,5.35-10.93,10.91-.66,4-.86,6.12-.86,11.1h0c0,4.97,.2,7.1,.86,11.1,.92,5.57,5.21,9.82,10.93,10.91,4.63,.89,16,1.28,23.93,1.28s19.31-.39,23.93-1.28c5.71-1.09,10.01-5.35,10.93-10.91,.66-4,.86-6.12,.86-11.1h0Z"/><ellipse cx="129.86" cy="50.78" rx="3.24" ry="3.93"/><ellipse cx="81.55" cy="50.78" rx="3.24" ry="3.93"/><path d="M116.55,73.59c-1.79,.51-3.62,.13-4.95-.61-1.31-.73-2.15-1.81-2.01-2.76,.22-1.59,8.15-4.33,9.9-3.77,.67,.22,1.04,.9,1.1,1.77,.13,1.85-1.13,4.53-4.04,5.36h0Z"/><path class="cls-13" d="M116.55,73.59c-1.79,.51-3.62,.13-4.95-.61,1.1-1.3,2.79-2.56,4.86-3.5,1.42-.65,2.83-1.06,4.13-1.26,.13,1.85-1.13,4.53-4.04,5.36h0Z"/><path class="cls-14" d="M93.4,42.38h23.39c3.48,0,6.3,2.82,6.3,6.3v7.36c0,4.5-3.65,8.15-8.15,8.15h-17.67c-5.62,0-10.17-4.56-10.17-10.17v-5.34c0-3.48,2.82-6.3,6.3-6.3Z"/><ellipse class="cls-6" cx="96.97" cy="59.23" rx="3.96" ry="1.85"/><ellipse class="cls-6" cx="108.81" cy="59.23" rx="3.96" ry="1.85"/></g><g><path d="M143.89,67.89c-4.71-.12-8.37-6.37-8.18-13.97s4.16-13.66,8.87-13.54l4.25,.11-.69,27.51-4.25-.11h0Z"/><ellipse cx="148.47" cy="54.23" rx="13.76" ry="8.53" transform="translate(90.55 201.31) rotate(-88.57)"/><ellipse class="cls-4" cx="150.27" cy="54.28" rx="12.2" ry="7.56" transform="translate(92.25 203.15) rotate(-88.57)"/><path class="cls-16" d="M154.57,47.33c-.64-.68-1.4-1.04-2.2-1.06h0c-2.54-.08-4.61,3.45-4.76,8.13-.07,2.1,.28,4.09,.99,5.62,.73,1.57,1.78,2.52,2.98,2.67,.11,.01,.22,.02,.33,.02,2.54,0,4.56-3.48,4.71-8.13,.1-3.08-.67-5.79-2.04-7.24h-.01Zm-2.65,13.63h-.02c-.64-.01-1.29-.64-1.78-1.71-.59-1.28-.88-2.99-.83-4.82,.12-3.7,1.69-6.44,3.02-6.44h.12c1.28,.16,2.62,2.87,2.5,6.52-.12,3.7-1.69,6.44-3.02,6.44h.01Z"/></g><path d="M124.86,84.38h-17.26c-.83,0-1.5-.67-1.5-1.5s.67-1.5,1.5-1.5h17.26c6.33,0,12.21-3.67,14.99-9.36l3.01-6.17c.36-.74,1.26-1.05,2.01-.69,.74,.36,1.05,1.26,.69,2.01l-3.01,6.17c-3.28,6.71-10.22,11.04-17.69,11.04Z"/><path d="M105.1,76.38h6.86c2.21,0,4,1.79,4,4h0c0,2.21-1.79,4-4,4h-6.86c-2.21,0-4-1.79-4-4h0c0-2.21,1.79-4,4-4Z"/><g><path class="cls-22" d="M121.01,24.39s1.09-.46,2.65-1.33c1.1-.61,2.47-1.47,3.72-2.36,4.51-3.25,5.48-9.6-1.24-11.11,0,0-6.45-3.89-13.79,5.26-2.08,2.59-3.53,2.28-5.2,2.32l9.18,7.1s4.68,.12,4.68,.12Z"/><path class="cls-5" d="M113.39,23.47c-.75,0-1.39-.56-1.49-1.31-.1-.82,.47-1.56,1.29-1.67,.17-.03,8.76-1.6,14.28-19.43,.25-.79,1.08-1.24,1.88-.99,.79,.24,1.23,1.08,.99,1.88-6.17,19.98-16.32,21.47-16.75,21.52-.06,0-.13,.01-.19,.01h-.01Z"/><path class="cls-19" d="M123.66,23.06c.31-.18-4.55,2.63-11.98-4.76-1.02-1.02-2.66-2.69-3.23-3.25-2.94-2.88-9.76-9.05-16.39-5.15,0,0-5.74,3.87-.89,9.94,1.22,1.53,2.79,2.74,4.54,3.6,4.6,2.26,15.96,6.39,27.95-.38Z"/><path class="cls-5" d="M92.68,9.57c-.21,.1-.42,.22-.63,.34,0,0-.93,.63-1.73,1.78,.81,1.86,2.1,4.26,4.12,6.66,2.51,2.98,6.51,6.33,12.58,8.31,3.44,.31,7.34,.07,11.41-1.28-17.99-.07-24.02-11.15-25.76-15.81h.01Z"/></g><circle class="cls-23" cx="148.62" cy="117.68" r="13.3"/><path class="cls-25" d="M132.9,100.21l5.24,2.76c.96-.69,1.99-1.28,3.08-1.77l-6.92-3.64c-.73-.39-1.64-.1-2.03,.63-.39,.73-.1,1.64,.63,2.03h0Z"/></g><path class="cls-12" d="M70.6,22.38c-1-.6-1.9-1.5-2.5-2.5s-1.1-2.1-1.2-3.3l-.6-4.1c0-.1-.1-.2-.1-.3s-.2-.1-.3-.1-.2,0-.3,.1c-.1,.1-.1,.2-.1,.3l-.6,4c-.2,1.2-.6,2.3-1.2,3.3s-1.5,1.9-2.5,2.5l-.5,.3c-.1,0-.1,.1-.1,.1v.4c0,.1,.1,.1,.1,.1l.5,.3c1,.6,1.8,1.5,2.5,2.5,.7,1,1.1,2.1,1.2,3.3l.6,4c0,.1,.1,.2,.1,.2,0,0,.2,.1,.3,.1s.2,0,.3-.1c.1-.1,.1-.2,.1-.2l.6-4c.2-1.2,.6-2.3,1.2-3.3,.7-1,1.5-1.9,2.5-2.5l.5-.3c.1,0,.1-.1,.1-.1v-.4c0-.1-.1-.1-.1-.1,.1,.1-.5-.2-.5-.2Z"/><path class="cls-9" d="M10.1,71.88c-1-.6-1.9-1.5-2.5-2.5s-1.1-2.1-1.2-3.3l-.6-4.1c0-.1-.1-.2-.1-.3s-.2-.1-.3-.1-.2,.1-.3,.1c-.1,.1-.1,.2-.1,.3l-.6,4.1c-.2,1.2-.6,2.3-1.2,3.3-.6,1-1.5,1.8-2.5,2.5l-.6,.3c-.1,0-.1,.1-.1,.2v.4c0,.1,.1,.1,.1,.2l.5,.3c1,.7,1.9,1.5,2.5,2.5s1.1,2.1,1.2,3.3l.6,4.1c0,.1,.1,.2,.1,.2,0,0,.2,.1,.3,.1s.2,0,.3-.1,.1-.2,.1-.2l.6-4.1c.2-1.2,.6-2.3,1.2-3.3,.6-1,1.5-1.8,2.5-2.5l.5-.3s.1-.1,.1-.2v-.4c0-.1-.1-.1-.1-.2l-.4-.3h0Z"/><path class="cls-24" d="M57.2,9.18c-.7-.4-1.2-1-1.7-1.7s-.7-1.4-.8-2.2l-.4-2.7q0-.1-.1-.2c-.1-.1-.1,0-.1,0q-.1,0-.2,.1s-.1,.1-.1,.2l-.4,2.7c-.1,.8-.4,1.5-.8,2.2-.4,.7-1,1.2-1.7,1.7l-.4,.1-.1,.1v.2s0,.1,.1,.1l.4,.2c.7,.4,1.2,1,1.7,1.7s.7,1.4,.8,2.2l.4,2.7q0,.1,.1,.2s.1,.1,.2,.1,.1,0,.2-.1c0,0,.1-.1,.1-.2l.4-2.7c.1-.8,.4-1.5,.8-2.2,.4-.7,1-1.2,1.7-1.7l.4-.2,.1-.1v-.2s0-.1-.1-.1l-.5-.2h0Z"/><g><path d="M124.8,29.08s6.7-11.8,19.4-14.8c1.3-.3,2.7,.3,3.3,1.5,1.7,3.4,3.7,11.7-1.3,22.5l-4.5-.7s2.1-5-16.9-8.5Z"/><path d="M76.2,36.18s-2.9-7,.6-17.4c.3-.9,1.2-1.6,2.2-1.4,3.3,.4,11,2.5,18,11.5-.1,.1-12.8,1.1-20.8,7.3Z"/><path class="cls-4" d="M139.2,19.08c-.3,.1-.6,.3-.9,.5-1.3,.8-2.5,1.8-3.7,2.7-1.4,1.2-2.8,2.5-3.9,4-.4,.5-.5,1.3-.3,1.9,.2,.3,.5,.5,.8,.7,1.9,1,4,1.6,6.2,1.7,1.1,.1,2.4,.2,3.5-.3,1.3-.6,1.7-2,1.9-3.3,.4-2.1,.3-4.7-.2-6.7-.5-2-2.1-1.8-3.4-1.2Z"/><path class="cls-4" d="M77.9,21.58c-.4,.7-.6,1.6-.7,2.1-.3,1.5-.5,3-.4,4.5,0,1,0,3.3,1.4,3.6,.5,.1,1,0,1.4-.2,2-.7,3.7-1.6,5-3.4,.4-.6,.5-1.5,.2-2.2-.6-1.4-3-4.1-5.1-5.2-.8-.3-1.4,.1-1.8,.8Z"/></g><circle class="cls-23" cx="211.16" cy="60.04" r="6.66"/><path class="cls-18" d="M201.5,60.04c0-5.33,4.33-9.66,9.66-9.66,2.21,0,4.24,.75,5.87,2.01,1.24-2.91,1.98-6.09,2.06-9.45,.37-14.23-10.86-26.06-25.09-26.43s-26.06,10.86-26.43,25.09,10.86,26.06,25.09,26.43c3.86,.1,7.54-.66,10.86-2.09-1.26-1.63-2.02-3.67-2.02-5.89h0Z"/><path class="cls-21" d="M212.67,50.5c.39,.06,.78,.15,1.16,.26,.1,.03,.19,.06,.29,.09,.35,.11,.69,.25,1.02,.4,.11,.05,.22,.11,.32,.16,.31,.15,.61,.32,.9,.51,.1,.07,.2,.14,.3,.21,.12,.09,.25,.17,.37,.26,1.24-2.91,1.98-6.09,2.06-9.45,.02-.9,0-1.79-.07-2.67-1.97-2.57-4.95-4.84-9.12-6.37-1.95-5.45-5.06-7.58-8.83-7.67-2.78-.06-5.33,1.82-5.93,5.67-1.58,.05-3.24,.18-4.98,.37-.5-2.73-1.74-4.39-3.91-4.66-2.29-.29-5.2,.75-7.73,7.02-3.89,1.34-6.67,3.19-8.84,5.77-.88,1.05-1.57,2.23-2.06,3.47,.81,13.19,11.58,23.81,25.04,24.16,3.86,.1,7.54-.66,10.86-2.09-.18-.24-.35-.48-.51-.74-.08-.13-.16-.26-.24-.4-.14-.25-.28-.51-.4-.77-.05-.12-.1-.24-.15-.36-.11-.26-.21-.54-.29-.81-.03-.1-.06-.2-.09-.3-.1-.35-.17-.71-.23-1.07,0-.09-.02-.17-.03-.26-.05-.39-.08-.79-.08-1.19,0-5.33,4.33-9.66,9.66-9.66,.45,0,.89,.04,1.32,.1,.07,0,.13,0,.2,.03h-.01Z"/><path class="cls-15" d="M206.2,39.02l-7.21,1.99c-7.22,1.99-14.85,1.98-22.06-.02h0c-4.7,5.68-4.32,12.99-2.26,19.06,4.54,4.76,10.89,7.8,17.98,7.98,3.86,.1,7.54-.66,10.86-2.09-.18-.24-.35-.48-.51-.74-.08-.13-.16-.26-.24-.4-.14-.25-.28-.51-.4-.78-.05-.12-.1-.24-.15-.36-.11-.26-.2-.54-.29-.81-.03-.1-.06-.2-.09-.3-.1-.35-.17-.71-.23-1.07,0-.09-.02-.17-.03-.26-.05-.39-.08-.79-.08-1.19,0-.31,.02-.62,.05-.93,0-.1,.03-.2,.04-.3,.03-.2,.05-.4,.09-.6,.02-.12,.05-.23,.08-.35,.04-.18,.09-.35,.14-.53,.03-.12,.07-.24,.11-.36,.06-.16,.11-.33,.18-.49,.05-.12,.09-.24,.14-.35,.07-.16,.14-.31,.22-.46,.06-.11,.11-.23,.17-.34,.08-.15,.18-.3,.27-.44,.06-.1,.12-.21,.19-.31,.16-.23,.32-.45,.49-.66,.1-.12,.2-.23,.3-.34,.09-.1,.18-.2,.27-.3,.11-.12,.23-.23,.35-.34,.09-.08,.18-.17,.27-.25,.13-.11,.26-.22,.4-.32,.09-.07,.18-.14,.27-.2,.14-.1,.29-.2,.44-.3,.09-.06,.18-.11,.27-.16,.16-.09,.32-.19,.48-.27,.08-.04,.16-.08,.24-.12,.18-.09,.36-.18,.55-.25,.02,0,.03,0,.05-.02,.49-.2,1-.36,1.53-.47-.43-5.91-1.62-9.58-2.89-11.59v.04Z"/><g class="cls-3"><g><ellipse cx="201.31" cy="31.29" rx="1.98" ry="3.08" transform="translate(-.37 2.5) rotate(-.71)"/><ellipse cx="184.89" cy="31.85" rx="2.95" ry="1.97" transform="translate(133.95 212.42) rotate(-84.02)"/></g></g><path d="M206.2,39.07s-20.23,26.82-29.17,1.56c0,0,11.07,2.75,29.17-1.56Z"/><path class="cls-13" d="M179.61,46.1c6.08,9.57,14.95,4.43,20.75-.77-3.59-.96-8.3-.35-11.7,2.32-2.59-2.38-6.62-2.53-9.05-1.55Z"/><path class="cls-26" d="M180.54,40.21c-.75,1.81-2.91,3.53-4.89,3.78-2.1,.26-3-1.25-1.95-3.27,.98-1.9,3.27-3.41,5.07-3.46s2.48,1.24,1.77,2.95h0Z"/><path class="cls-26" d="M202.37,39.64c1.19,2.16,4.15,3.43,6.3,2.76,1.94-.61,2.33-2.57,1.11-4.32-1.15-1.65-3.47-2.73-5.39-2.48-2.1,.27-3.12,2.04-2.02,4.05h0Z"/><path class="cls-1" d="M201.5,60.04c0-5.33,4.33-9.66,9.66-9.66,2.21,0,4.24,.75,5.87,2.01,1.24-2.91,1.98-6.09,2.06-9.45,.37-14.23-10.86-26.06-25.09-26.43s-26.06,10.86-26.43,25.09,10.86,26.06,25.09,26.43c3.86,.1,7.54-.66,10.86-2.09-1.26-1.63-2.02-3.67-2.02-5.89h0Z"/><path class="cls-12" d="M36.51,130.38c0-5.33,4.33-9.66,9.66-9.66,2.21,0,4.24,.75,5.87,2.01,1.24-2.91,1.98-6.09,2.06-9.45,.37-14.23-10.86-26.06-25.09-26.43S2.95,97.71,2.58,111.94c-.37,14.23,10.86,26.06,25.09,26.43,3.86,.1,7.54-.66,10.86-2.09-1.26-1.63-2.02-3.67-2.02-5.89h0Z"/><path class="cls-7" d="M27.5,123.19c-4.5-.5-7.79-.63-10.21-.37l8.49,7.41,1.38,3.37c1.91,1.57,4.15,3.1,6.53,4.2,1.68-.36,3.3-.87,4.85-1.53-1.26-1.63-2.02-3.67-2.02-5.89,0-2.03,.63-3.91,1.7-5.46-3.11-.74-6.69-1.24-10.72-1.72h0Z"/><circle class="cls-23" cx="46.17" cy="130.38" r="6.66"/><path class="cls-17" d="M20.75,92.42c-.19-.33-.44-.64-.74-.87-1.98-1.5-5.34-.64-6.74,1.34-1.53,2.16-1.33,4.95,1.63,7.04,5.29,3.74,7.81,5.27,8.58,4.02,1.05-1.72-.09-6.88-2.73-11.52h0Z"/><ellipse class="cls-9" cx="19.97" cy="99.71" rx="4.55" ry="3.34" transform="translate(-55.06 31.07) rotate(-36.22)"/><path class="cls-27" d="M41.4,110.38c-.61-.39-1.02-1.04-1.03-1.76-.09-5.34-.9-9.09-5.74-11.19-5.21-2.25-14.2-2.64-18.08,3.66-3.48,5.64-2.71,12.83-1.57,23.06,.24,2.15,1.98,3.83,4.13,3.99l15.3,1.14c.81,.23,1.51,.47,2.12,.7,.19-4.62,3.64-8.4,8.1-9.12,.58-4.42-.32-8.6-3.24-10.47h.01Z"/><path class="cls-17" d="M16.54,101.09c3.88-6.29,12.87-5.91,18.08-3.66,.88,.38,1.65,.82,2.34,1.29,.46,1.76-2.3,4.14-14.07,2.44-.66-.1-1.27,.4-1.3,1.06-.09,2.2-1.02,6.51-6.9,6.96l-.79-1.54c.43-2.26,1.25-4.3,2.64-6.55Z"/><path class="cls-27" d="M17.69,114.99c0,.13-.02,.26-.04,.39-.3,1.82-2.03,3.05-3.85,2.75-1.67-.37-2.77-1.93-2.63-4.22,.02-.39-.08-.78-.28-1.11-3.79-5.59-5.12-7.77-4.25-8.61,.87-.83,6.74,1.96,11.52,4.71l-.47,6.09Z"/><path class="cls-20" d="M17.41,112.99c-.15,.21-.43,.3-.68,.21l-.25-.08-1.44-1.12c-.23,.75-.39,1.73,.36,2.23,.33,.16,.47,.55,.32,.88-.16,.33-.55,.47-.88,.32l-.19-.06c-1.19-.84-1.42-2.34-.66-4.17l-3.86-3.08c-.29-.22-.35-.64-.13-.93s.64-.35,.93-.13c2.23,1.7,6.33,5.13,6.39,5.15,.21,.21,.25,.53,.11,.79h-.02Z"/><g><path d="M40.46,114.3c-.14,0-.26,.01-.38,.03-.03,1.57-1.5,2.25-3.36,2.64-1.82,.38-4.2,.16-5.11-1.23-.67,.62-.8,1.66-.48,2.52,.13,.36,.3,.68,.49,.97,.58-.4,1.28-.72,2.1-.93,2.14-.55,4.47-.19,6.1,.79l.13-1.33c.03-.78,.45-1.11,1.01-.39,.22,.28,.41,.57,.57,.91,.28-.46,.47-.95,.57-1.45,.32-1.69-.79-2.55-1.65-2.53h.01Z"/><path class="cls-8" d="M39.96,117.76l-.13,1.33c.24,.15,.46,.31,.67,.48,.41-.39,.77-.83,1.04-1.29-.17-.34-.36-.63-.57-.91-.56-.72-.98-.4-1.01,.39Z"/><path class="cls-11" d="M33.73,118.3c-.82,.21-1.52,.53-2.1,.93,.48,.73,1.14,1.23,1.9,1.55l.13-1.29c.03-.78,.45-1.11,1.01-.39,.42,.54,.76,1.13,.97,2.03,0,.03,0,.06,.02,.09,.7,.02,1.43-.04,2.16-.18,.98-.19,1.93-.73,2.7-1.45-.21-.17-.43-.33-.67-.48-1.63-.98-3.96-1.34-6.1-.79l-.02-.02Z"/><path class="cls-8" d="M34.66,119.09c-.56-.72-.98-.4-1.01,.39l-.13,1.29c.64,.27,1.36,.41,2.12,.43,0-.03,0-.06-.02-.09-.21-.89-.55-1.48-.97-2.03h.01Z"/><path class="cls-8" d="M36.72,116.97c1.86-.39,3.33-1.06,3.36-2.64-1.23,.17-1.78,.98-2.77,1.23-1.32,.34-2.69-.35-4.08-.37-.72-.01-1.25,.2-1.62,.55,.91,1.39,3.29,1.61,5.11,1.23Z"/></g><ellipse class="cls-8" cx="34.82" cy="107.26" rx="2.75" ry="3.9" transform="translate(-20.84 9.18) rotate(-11.59)"/><ellipse cx="35.1" cy="106.23" rx="1.53" ry="2.17" transform="translate(-20.63 9.22) rotate(-11.59)"/><path class="cls-1" d="M36.51,130.38c0-5.33,4.33-9.66,9.66-9.66,2.21,0,4.24,.75,5.87,2.01,1.24-2.91,1.98-6.09,2.06-9.45,.37-14.23-10.86-26.06-25.09-26.43S2.95,97.71,2.58,111.94c-.37,14.23,10.86,26.06,25.09,26.43,3.86,.1,7.54-.66,10.86-2.09-1.26-1.63-2.02-3.67-2.02-5.89h0Z"/><path class="cls-10" d="M13,116.45c-.3,.47-.65,.9-1.01,1.32-.18,.21-.36,.42-.55,.61-.2,.19-.33,.45-.74,.44-.52-.01-.93-.43-.97-.93-.03-.41,.23-.55,.41-.75,.19-.2,.39-.39,.59-.57,.41-.37,.83-.73,1.29-1.05,.31-.21,.74-.13,.95,.18,.16,.23,.15,.53,.01,.76h.02Z"/><path class="cls-17" d="M33.99,101.85c-1.82,.25-3.24,1.71-3.21,2.7,.03,.99,1.43,.18,3.34-.06s3.41,.21,3.39-.78c-.03-.9-1.7-2.11-3.52-1.86Z"/><path class="cls-20" d="M21.65,126.71c4.66,3.13,11.04,6.38,15.45,6.97-.38-1.03-.59-2.14-.59-3.29,0-.39,.03-.78,.08-1.16-4.04,.17-9.4-.45-14.94-2.51h0Z"/><path class="cls-7" d="M5.56,124.62c4.21,7.97,12.47,13.49,22.12,13.74,2.08,.05,4.1-.15,6.05-.57-9.4-15.05-23.97-13.88-28.17-13.18h0Z"/></svg>