<svg xmlns="http://www.w3.org/2000/svg" xmlns:xlink="http://www.w3.org/1999/xlink" viewBox="0 0 267.13 250.11"><defs><clipPath id="a"><path d="M31.48,146.76l-5.55-3.2a4.84,4.84,0,0,1,1.35-.51,6.17,6.17,0,0,1,4.2.51C33,144.44,33,145.88,31.48,146.76Z" style="fill:none"/></clipPath></defs><title>Server-Community-Final</title><g style="isolation:isolate"><path d="M0,170v3.72a3.21,3.21,0,0,0,1.91,2.79L127.47,249a10.32,10.32,0,0,0,9.28,0l128.47-74.2a3.27,3.27,0,0,0,1.91-2.65v-3.78Z" style="fill:#a36d5c"/><path d="M0,162.49V170a3.19,3.19,0,0,0,1.91,2.79l125.56,72.5a10.28,10.28,0,0,0,9.28,0L265.22,171a3.27,3.27,0,0,0,1.91-2.65v-7.52Z" style="fill:#854b44"/><path d="M0,158.69v3.72a3.19,3.19,0,0,0,1.91,2.78l125.56,72.5a10.32,10.32,0,0,0,9.28,0l128.47-74.21a3.27,3.27,0,0,0,1.91-2.65v-3.77Z" style="fill:#45b39e"/><path d="M139.66,81.7a10.29,10.29,0,0,0-9.27,0L1.91,155.91c-2.55,1.47-2.55,3.88,0,5.35l125.56,72.49a10.25,10.25,0,0,0,9.28,0l128.47-74.2c2.55-1.47,2.55-3.88,0-5.35Z" style="fill:#60cfac"/><path d="M50.92,156.49c5.72-3.31,5.72-8.71,0-12s-15.08-3.31-20.81,0-5.72,8.7,0,12S45.2,159.79,50.92,156.49Z" style="fill:#41b09e"/><path d="M30.92,153.91c1.75-1,1.75-2.67,0-3.68a7.1,7.1,0,0,0-6.38,0c-1.76,1-1.76,2.67,0,3.68A7,7,0,0,0,30.92,153.91Z" style="fill:#41b09e"/><line x1="109.52" y1="71.31" x2="238.67" y2="145.95" style="fill:none;stroke:#41b09e;stroke-linecap:round;stroke-linejoin:round;stroke-width:2.14129886474876px"/><polygon points="214.59 123.58 214.03 123.91 214.03 131.89 238.2 145.84 238.77 145.52 238.77 137.53 214.59 123.58" style="fill:#7a3f29"/><polygon points="214.03 123.91 238.2 137.87 238.2 145.84 214.03 131.89 214.03 123.91" style="fill:#7a3f29"/><polygon points="234.92 143.95 235.63 144.36 235.63 135.97 234.92 135.97 234.92 143.95" style="fill:#7a3f29"/><polygon points="231.29 141.86 232.01 142.27 232.01 133.88 231.29 133.88 231.29 141.86" style="fill:#7a3f29"/><polygon points="227.66 139.76 228.38 140.17 228.38 131.78 227.66 131.78 227.66 139.76" style="fill:#7a3f29"/><polygon points="224.04 137.67 224.75 138.08 224.75 129.69 224.04 129.69 224.04 137.67" style="fill:#7a3f29"/><polygon points="220.41 135.57 221.12 135.99 221.12 127.59 220.41 127.59 220.41 135.57" style="fill:#7a3f29"/><polygon points="216.78 133.48 217.49 133.89 217.49 125.5 216.78 125.5 216.78 133.48" style="fill:#7a3f29"/><polygon points="193.18 111.21 192.61 111.54 192.61 119.52 216.78 133.48 217.35 133.15 217.35 125.17 193.18 111.21" style="fill:#7a3f29"/><polygon points="192.61 111.54 216.78 125.5 216.78 133.48 192.61 119.52 192.61 111.54" style="fill:#7a3f29"/><polygon points="213.5 131.59 214.22 132 214.22 123.61 213.5 123.61 213.5 131.59" style="fill:#7a3f29"/><polygon points="209.87 129.49 210.59 129.9 210.59 121.51 209.87 121.51 209.87 129.49" style="fill:#7a3f29"/><polygon points="206.25 127.4 206.96 127.81 206.96 119.42 206.25 119.42 206.25 127.4" style="fill:#7a3f29"/><polygon points="202.62 125.3 203.33 125.71 203.33 117.32 202.62 117.32 202.62 125.3" style="fill:#7a3f29"/><polygon points="198.99 123.21 199.7 123.62 199.7 115.23 198.99 115.23 198.99 123.21" style="fill:#7a3f29"/><polygon points="195.36 121.11 196.07 121.53 196.07 113.13 195.36 113.13 195.36 121.11" style="fill:#7a3f29"/><polygon points="171.76 98.85 171.19 99.18 171.19 107.16 195.36 121.11 195.93 120.78 195.93 112.8 171.76 98.85" style="fill:#7a3f29"/><polygon points="171.19 99.18 195.36 113.13 195.36 121.11 171.19 107.16 171.19 99.18" style="fill:#7a3f29"/><polygon points="192.08 119.22 192.8 119.63 192.8 111.24 192.08 111.24 192.08 119.22" style="fill:#7a3f29"/><polygon points="188.46 117.13 189.17 117.54 189.17 109.14 188.46 109.14 188.46 117.13" style="fill:#7a3f29"/><polygon points="184.83 115.03 185.54 115.44 185.54 107.05 184.83 107.05 184.83 115.03" style="fill:#7a3f29"/><polygon points="181.2 112.94 181.91 113.35 181.91 104.96 181.2 104.96 181.2 112.94" style="fill:#7a3f29"/><polygon points="177.57 110.84 178.28 111.25 178.28 102.86 177.57 102.86 177.57 110.84" style="fill:#7a3f29"/><polygon points="173.94 108.75 174.66 109.16 174.66 100.77 173.94 100.77 173.94 108.75" style="fill:#7a3f29"/><polyline points="248 146.46 248 145.24 151.64 89.61" style="fill:none;stroke:#542e2e;stroke-linecap:round;stroke-linejoin:round;stroke-width:1.01816095078586px"/><path d="M254.25,163c5.53-3.2,5.53-8.42,0-11.62s-14.59-3.19-20.12,0-5.53,8.42,0,11.61S248.71,166.14,254.25,163Z" style="fill:#41b09e"/><path d="M250.52,150.44h-7l-6.33,3.65v4l6.33,3.65h7l6.32-3.65v-4Z" style="fill:#c8dbf7"/><rect x="243.55" y="125.54" width="6.97" height="36.18" style="fill:#c8dbf7"/><polygon points="237.22 123.91 256.84 123.91 256.84 158.07 250.52 161.72 243.55 161.72 237.22 158.07 237.22 123.91" style="fill:#c8dbf7"/><polygon points="256.84 121.89 256.84 158.07 250.52 161.72 250.52 125.54 256.84 121.89" style="fill:#dbe8ff"/><polygon points="237.22 121.89 237.22 158.07 243.55 161.72 243.55 125.54 237.22 121.89" style="fill:#b5cbeb"/><path d="M250.52,125.54h-7l-6.32-3.65v3.65l6.32,3.65h7l6.32-3.65v-3.65Z" style="fill:#9eb7db"/><path d="M235.23,111.09v11.65l7.61,4.39h8.39l7.61-4.39V111.09l-7.61-4.4h-8.39Z" style="fill:#c8dbf7"/><path d="M235.23,107.86v4.8l7.61,4.4h8.39l7.61-4.4v-4.8L247,100Z" style="fill:#4a76e6"/><polygon points="235.23 112.66 235.23 107.86 247.03 99.97 242.84 117.06 235.23 112.66" style="fill:#305dce"/><polygon points="251.23 117.06 247.03 99.97 258.84 112.66 251.23 117.06" style="fill:#718ef7"/><polygon points="242.84 117.06 242.84 127.13 235.23 122.73 235.23 112.66 242.84 117.06" style="fill:#b5cbeb"/><polygon points="251.23 117.06 251.23 127.13 258.84 122.73 258.84 112.66 251.23 117.06" style="fill:#dbe8ff"/><path d="M254.28,118.69a2.81,2.81,0,0,1,1.28-2.17c.71-.41,1.28-.1,1.28.69v3.1l-2.56,1.48Z" style="fill:#637ea3"/><path d="M254.28,118.69v1.8l1.44-.83v-3.1s0-.07,0-.11l-.15.07A2.81,2.81,0,0,0,254.28,118.69Z" style="fill:#526b8f"/><polygon points="254.28 121.79 256.84 120.31 255.72 119.66 254.28 120.49 254.28 121.79" style="fill:#748fb5"/><path d="M239.78,121.79l-2.56-1.48v-3.1c0-.79.58-1.1,1.28-.69a2.78,2.78,0,0,1,1.28,2.17Z" style="fill:#637ea3"/><path d="M239.78,118.69v1.8l-1.43-.83v-3.1s0-.07,0-.11l.14.07A2.78,2.78,0,0,1,239.78,118.69Z" style="fill:#526b8f"/><polygon points="239.78 121.79 237.22 120.31 238.35 119.66 239.78 120.49 239.78 121.79" style="fill:#748fb5"/><polygon points="125.95 101.84 49.76 145.85 53.1 177.68 111.04 181.24 187.23 137.22 125.95 101.84" style="fill:#41b09e"/><polygon points="143.06 120.12 103.48 142.99 95.34 147.61 148.57 178.37 164.76 178.37 204.34 155.5 143.06 120.12" style="fill:#41b09e"/><path d="M185.24,185.23c.57.32.57.85,0,1.18l-5.85,3.39a2.25,2.25,0,0,1-2,0l-8.52-4.92c-.57-.33-.57-.86,0-1.18l5.85-3.4a2.31,2.31,0,0,1,2.05,0Z" style="fill:#41b09e"/><path d="M153.38,73.86,10.44,156.41l120.94,70.13a2,2,0,0,0,2,0l63.71-37-14.65-8.46" style="fill:none;stroke:#41b09e;stroke-linecap:round;stroke-linejoin:round;stroke-width:2.14129886474876px"/><polygon points="35.05 133.86 35.05 133.86 56.47 121.5 56.47 121.49 80.64 107.54 81.21 107.87 81.21 115.85 78.46 117.44 78.46 117.44 77.85 117.79 74.83 119.53 74.83 119.53 74.78 119.56 67.13 123.98 66.86 124.13 66.86 124.13 63.27 126.2 63.23 126.23 63.23 126.23 57.04 129.8 56.33 130.22 56.33 130.22 53.41 131.9 53.41 131.9 52.7 132.31 52.7 132.31 49.78 133.99 49.78 133.99 49.23 134.31 46.15 136.09 46.15 136.09 45.81 136.28 42.53 138.18 42.53 138.18 42.4 138.26 38.38 140.58 38.38 140.58 35.35 142.32 34.91 142.58 34.91 142.58 31.3 144.66 31.28 144.68 31.28 144.68 24.73 148.45 24.73 148.45 24.39 148.65 21.11 150.55 21.11 150.55 20.98 150.62 14.2 154.54 13.63 154.21 13.63 146.22 35.05 133.86" style="fill:#7a3f29"/><polygon points="185.47 174.51 184.9 174.84 184.9 182.82 194.69 188.47 195.25 188.14 195.25 180.16 185.47 174.51" style="fill:#7a3f29"/><polygon points="184.9 174.84 194.69 180.49 194.69 188.47 184.9 182.82 184.9 174.84" style="fill:#7a3f29"/><polygon points="191.41 186.58 192.12 186.99 192.12 178.6 191.41 178.6 191.41 186.58" style="fill:#7a3f29"/><polygon points="187.78 184.48 188.49 184.9 188.49 176.5 187.78 176.5 187.78 184.48" style="fill:#7a3f29"/><line x1="222" y1="170.72" x2="239.27" y2="160.81" style="fill:none;stroke:#41b09e;stroke-linecap:round;stroke-linejoin:round;stroke-width:2.14129886474876px"/><path d="M182.26,159.29V165a.78.78,0,0,0,.46.65,2.48,2.48,0,0,0,2.25,0,.78.78,0,0,0,.46-.65v-5.68Z" style="fill:#613235"/><path d="M107.73,164.49v8.74a.79.79,0,0,0,.46.65,2.54,2.54,0,0,0,2.25,0,.79.79,0,0,0,.46-.65v-8.74Z" style="fill:#613235"/><path d="M97.82,158.77v8.73a.79.79,0,0,0,.46.65,2.48,2.48,0,0,0,2.25,0,.78.78,0,0,0,.47-.65v-8.73Z" style="fill:#613235"/><path d="M87.17,152.61v8.74a.79.79,0,0,0,.46.65,2.54,2.54,0,0,0,2.25,0,.79.79,0,0,0,.46-.65v-8.74Z" style="fill:#613235"/><path d="M76.51,146.46v8.73a.78.78,0,0,0,.46.65,2.48,2.48,0,0,0,2.25,0,.78.78,0,0,0,.46-.65v-8.73Z" style="fill:#613235"/><path d="M65.85,140.3V149a.81.81,0,0,0,.47.65,2.52,2.52,0,0,0,2.24,0A.81.81,0,0,0,69,149V140.3Z" style="fill:#613235"/><path d="M57.16,138.59V144a.8.8,0,0,0,.46.65,2.48,2.48,0,0,0,2.25,0,.79.79,0,0,0,.47-.65v-5.42Z" style="fill:#613235"/><path d="M52.22,142.36l.05-1.31A2.39,2.39,0,0,0,50,138.57h0a2.39,2.39,0,0,0-2.48,2.31l0,1.26a4.08,4.08,0,0,1-.85,2.3,3.85,3.85,0,0,0-.76,2.78,3.79,3.79,0,0,0,3,3.32,3.86,3.86,0,0,0,4.09-5.84A4.08,4.08,0,0,1,52.22,142.36Z"/><line x1="50.67" y1="146.11" x2="50.49" y2="153.8" style="fill:none;stroke:#000;stroke-linecap:round;stroke-miterlimit:10;stroke-width:1.07064943237438px"/><line x1="48.91" y1="147.24" x2="48.73" y2="154.93" style="fill:none;stroke:#000;stroke-linecap:round;stroke-miterlimit:10;stroke-width:1.07064943237438px"/><polyline points="157.58 205.31 132.42 219.83 12.07 150.63 12.07 149.35 153.28 67.75" style="fill:none;stroke:#542e2e;stroke-linecap:round;stroke-linejoin:round;stroke-width:1.07064943237438px"/><line x1="196.37" y1="182.84" x2="168.19" y2="199.1" style="fill:none;stroke:#542e2e;stroke-linecap:round;stroke-linejoin:round;stroke-width:1.07064943237438px"/><path d="M245.87,85.46v15.68a.55.55,0,0,0,.32.45,1.74,1.74,0,0,0,1.57,0,.53.53,0,0,0,.32-.45V85.46Z" style="fill:#8b574f"/><path d="M247.76,85.91a.48.48,0,0,0,0-.91,1.74,1.74,0,0,0-1.57,0,.48.48,0,0,0,0,.91A1.74,1.74,0,0,0,247.76,85.91Z" style="fill:#a36d5c"/><path d="M182.33,171.57v10.17a.55.55,0,0,0,.33.45,1.72,1.72,0,0,0,1.56,0,.53.53,0,0,0,.32-.45V171.57Z" style="fill:#613235"/><path d="M184.22,172a.48.48,0,0,0,0-.9,1.72,1.72,0,0,0-1.56,0c-.43.25-.44.66,0,.9A1.72,1.72,0,0,0,184.22,172Z" style="fill:#a36d5c"/><polygon points="155.84 119.12 191.02 139.43 164.64 154.66 129.46 134.35 155.84 119.12" style="fill:#d4e4ff"/><polygon points="197.12 101.52 167.3 38.19 137.48 67.09 197.12 101.52" style="fill:#f19703"/><path d="M170.68,30.38,133.36,66.63a.8.8,0,0,0-.15.78A2.54,2.54,0,0,0,134.79,69a.8.8,0,0,0,.79-.12L172.9,32.67Z" style="fill:#8b574f"/><polygon points="139.29 66.01 66.72 107.94 121.2 139.39 193.77 97.47 139.29 66.01" style="fill:#693b3b"/><polygon points="139.29 66.01 66.72 107.94 66.72 138.06 121.2 169.52 193.77 127.59 193.77 97.47 139.29 66.01" style="fill:#d4e4ff"/><polygon points="168.61 137.83 193.77 123.29 193.77 127.59 168.61 142.13 168.61 137.83" style="fill:#869bb8"/><polygon points="164.66 141.4 191.02 126.19 191.02 150.34 164.66 165.56 164.66 141.4" style="fill:#d4e4ff"/><polygon points="164.66 159.6 191.02 144.38 191.02 150.34 164.66 165.56 164.66 159.6" style="fill:#425570"/><polygon points="121.2 145.36 193.77 103.44 193.77 108.39 121.2 150.31 121.2 145.36" style="fill:#b5cbeb"/><line x1="121.2" y1="146.75" x2="121.2" y2="145.36" style="fill:#b5cbeb"/><polygon points="164.66 141.4 146.36 130.83 146.36 154.98 164.66 165.56 164.66 141.4" style="fill:#afc5e6"/><polygon points="164.66 161.26 146.36 150.68 146.36 154.98 164.66 165.56 164.66 161.26" style="fill:#586c87"/><polygon points="164.66 159.6 146.36 149.03 146.36 150.68 164.66 161.26 164.66 159.6" style="fill:#965138"/><path d="M163.62,145v20.89a.57.57,0,0,0,.34.47,1.76,1.76,0,0,0,1.61,0,.57.57,0,0,0,.33-.47V145Z" style="fill:#754741"/><path d="M191,129.45v20.89a.57.57,0,0,0,.33.47,1.84,1.84,0,0,0,1.62,0,.57.57,0,0,0,.33-.47V129.45Z" style="fill:#754741"/><polygon points="121.2 163.56 146.36 149.03 146.36 150.68 121.2 165.22 121.2 163.56" style="fill:#9c6241"/><polygon points="168.61 136.17 193.77 121.64 193.77 123.29 168.61 137.83 168.61 136.17" style="fill:#9c6241"/><polygon points="121.2 165.22 146.36 150.68 146.36 154.98 121.2 169.52 121.2 165.22" style="fill:#607694"/><path d="M145.22,129.89v26.2a.57.57,0,0,0,.33.47,1.78,1.78,0,0,0,1.62,0,.57.57,0,0,0,.33-.47v-26.2Z" style="fill:#754741"/><path d="M193.77,101.42v26.17a.57.57,0,0,0,.33.47,1.78,1.78,0,0,0,1.62,0,.57.57,0,0,0,.33-.47V101.42Z" style="fill:#754741"/><polygon points="121.2 139.39 66.72 107.94 66.72 138.06 121.2 169.52 121.2 139.39" style="fill:#b5cbeb"/><polygon points="115.89 136.33 116.02 136.4 117.24 135.69 69.44 108.1 68.53 108.98 66.72 107.94 66.72 110.39 121.2 141.84 121.2 139.39 115.89 136.33" style="fill:#8a4a33"/><polygon points="117.42 137.88 63.79 106.92 90.62 80.97 117.42 137.88" style="fill:#693b3b"/><polygon points="121.2 165.22 66.72 133.77 66.72 138.06 121.2 169.52 121.2 165.22" style="fill:#425570"/><path d="M120.45,145.35v24.27a.57.57,0,0,0,.33.47,1.82,1.82,0,0,0,1.61,0,.57.57,0,0,0,.34-.47V145.35Z" style="fill:#754741"/><path d="M114.52,163.41v5.89a.81.81,0,0,0,.47.65,2.54,2.54,0,0,0,2.25,0,.79.79,0,0,0,.46-.65v-5.89Z" style="fill:#613235"/><polygon points="68.52 108.97 66.72 107.94 66.72 132.11 68.52 133.15 68.52 108.97" style="fill:#9c6241"/><polygon points="116.02 136.4 65.19 107.05 90.62 82.46 116.02 136.4" style="fill:#b5cbeb"/><polygon points="121.2 138.27 66.72 106.82 66.72 110.39 121.2 141.84 121.2 138.27" style="fill:#9c6241"/><polygon points="121.2 143.46 121.2 146.75 198.56 102.07 198.56 98.78 121.2 143.46" style="fill:#4a76e6"/><polygon points="165.6 34.59 88.92 78.86 120.44 145.79 197.12 101.52 165.6 34.59" style="fill:#718ef7"/><g style="opacity:0.6"><path d="M121,140.34a.4.4,0,0,1-.2-.75,3.6,3.6,0,0,0,1.75-3.3.41.41,0,0,1,.25-.4.4.4,0,0,1,.45.11,2.37,2.37,0,0,0,3.06.42,3.64,3.64,0,0,0,1.74-3.31.4.4,0,0,1,.71-.29,2.37,2.37,0,0,0,3.06.42,3.64,3.64,0,0,0,1.74-3.31.41.41,0,0,1,.25-.4.42.42,0,0,1,.46.11,2.36,2.36,0,0,0,3.05.42,3.63,3.63,0,0,0,1.75-3.31.41.41,0,0,1,.25-.4.4.4,0,0,1,.45.11,2.36,2.36,0,0,0,3.06.42,3.6,3.6,0,0,0,1.74-3.31.45.45,0,0,1,.25-.4.42.42,0,0,1,.46.11,2.37,2.37,0,0,0,3.06.42,3.64,3.64,0,0,0,1.74-3.31.4.4,0,0,1,.38-.42.39.39,0,0,1,.43.37,4.46,4.46,0,0,1-2.15,4,3.2,3.2,0,0,1-3.4,0,4.4,4.4,0,0,1-2.11,3.18,3.2,3.2,0,0,1-3.4,0,4.41,4.41,0,0,1-2.1,3.18,3.22,3.22,0,0,1-3.41,0,4.41,4.41,0,0,1-2.1,3.18,3.2,3.2,0,0,1-3.4,0,4.44,4.44,0,0,1-2.11,3.18,3.2,3.2,0,0,1-3.4,0,4.41,4.41,0,0,1-2.11,3.18A.35.35,0,0,1,121,140.34Z" style="fill:#4a76e6"/><path d="M152.54,121.71a3,3,0,0,1-2.35-1.09.39.39,0,0,1,.05-.56.4.4,0,0,1,.56,0,2.36,2.36,0,0,0,3.09.42,3.6,3.6,0,0,0,1.75-3.3.41.41,0,0,1,.25-.4.4.4,0,0,1,.45.11,2.36,2.36,0,0,0,3.06.41,3.61,3.61,0,0,0,1.74-3.3.4.4,0,0,1,.71-.29,2.37,2.37,0,0,0,3.06.42,3.64,3.64,0,0,0,1.74-3.31.41.41,0,0,1,.25-.4.42.42,0,0,1,.46.11,2.36,2.36,0,0,0,3,.42,3.63,3.63,0,0,0,1.75-3.31.41.41,0,0,1,.25-.4.4.4,0,0,1,.45.11,2.37,2.37,0,0,0,3.06.42,3.63,3.63,0,0,0,1.75-3.31.41.41,0,0,1,.25-.4.4.4,0,0,1,.45.11,2.37,2.37,0,0,0,3.06.42,3.64,3.64,0,0,0,1.74-3.31.41.41,0,0,1,.81,0,4.47,4.47,0,0,1-2.15,4,3.2,3.2,0,0,1-3.4,0,4.41,4.41,0,0,1-2.11,3.18,3.2,3.2,0,0,1-3.4,0,4.43,4.43,0,0,1-2.1,3.18,3.2,3.2,0,0,1-3.4,0,4.47,4.47,0,0,1-2.11,3.18,3.2,3.2,0,0,1-3.4,0,4.41,4.41,0,0,1-2.11,3.18,3.2,3.2,0,0,1-3.4,0,4.41,4.41,0,0,1-2.11,3.18A3.42,3.42,0,0,1,152.54,121.71Z" style="fill:#4a76e6"/><path d="M185.62,102.65a3,3,0,0,1-2.35-1.09.39.39,0,0,1,0-.56.4.4,0,0,1,.56,0,2.36,2.36,0,0,0,3.09.42,3.61,3.61,0,0,0,1.75-3.3.41.41,0,0,1,.25-.4.4.4,0,0,1,.45.11,2.36,2.36,0,0,0,3.06.41,3.62,3.62,0,0,0,1.74-3.3.42.42,0,0,1,.38-.43.4.4,0,0,1,.43.38,4.48,4.48,0,0,1-2.15,4,3.2,3.2,0,0,1-3.4,0,4.45,4.45,0,0,1-2.1,3.18A3.59,3.59,0,0,1,185.62,102.65Z" style="fill:#4a76e6"/><path d="M118,133.94a.39.39,0,0,1-.35-.2.41.41,0,0,1,.15-.55,3.61,3.61,0,0,0,1.74-3.3.41.41,0,0,1,.25-.4.42.42,0,0,1,.46.11,2.35,2.35,0,0,0,3,.41,3.61,3.61,0,0,0,1.75-3.3.41.41,0,0,1,.25-.4.4.4,0,0,1,.45.11,2.36,2.36,0,0,0,3.06.41,3.6,3.6,0,0,0,1.75-3.3.41.41,0,0,1,.25-.4.4.4,0,0,1,.45.11,2.36,2.36,0,0,0,3.06.41,3.61,3.61,0,0,0,1.74-3.3.4.4,0,0,1,.71-.29,2.36,2.36,0,0,0,3.06.41,3.61,3.61,0,0,0,1.74-3.3.41.41,0,0,1,.25-.4.42.42,0,0,1,.46.11,2.36,2.36,0,0,0,3.05.42,3.63,3.63,0,0,0,1.75-3.31.4.4,0,0,1,.37-.43.41.41,0,0,1,.43.38,4.44,4.44,0,0,1-2.14,4,3.22,3.22,0,0,1-3.41,0,4.43,4.43,0,0,1-2.1,3.18,3.2,3.2,0,0,1-3.4,0,4.44,4.44,0,0,1-2.11,3.18,3.2,3.2,0,0,1-3.4,0,4.41,4.41,0,0,1-2.11,3.18,3.2,3.2,0,0,1-3.4,0,4.43,4.43,0,0,1-2.1,3.18,3.2,3.2,0,0,1-3.4,0,4.47,4.47,0,0,1-2.11,3.18A.35.35,0,0,1,118,133.94Z" style="fill:#4a76e6"/><path d="M149.52,115.31a3,3,0,0,1-2.35-1.09.4.4,0,0,1,.62-.51,2.36,2.36,0,0,0,3.09.42,3.62,3.62,0,0,0,1.74-3.3.41.41,0,0,1,.25-.4.42.42,0,0,1,.46.11,2.35,2.35,0,0,0,3,.41,3.61,3.61,0,0,0,1.75-3.3.41.41,0,0,1,.25-.4.4.4,0,0,1,.45.11,2.36,2.36,0,0,0,3.06.41,3.61,3.61,0,0,0,1.75-3.3.41.41,0,0,1,.25-.4.4.4,0,0,1,.45.11,2.36,2.36,0,0,0,3.06.41,3.62,3.62,0,0,0,1.74-3.3.4.4,0,0,1,.71-.29,2.36,2.36,0,0,0,3.06.41,3.61,3.61,0,0,0,1.74-3.3.41.41,0,0,1,.25-.4.42.42,0,0,1,.46.11,2.35,2.35,0,0,0,3,.41,3.6,3.6,0,0,0,1.75-3.3.41.41,0,0,1,.38-.43.4.4,0,0,1,.42.38,4.44,4.44,0,0,1-2.14,4.05,3.22,3.22,0,0,1-3.41,0,4.43,4.43,0,0,1-2.1,3.18,3.2,3.2,0,0,1-3.4,0,4.46,4.46,0,0,1-2.11,3.18,3.2,3.2,0,0,1-3.4,0,4.41,4.41,0,0,1-2.11,3.18,3.2,3.2,0,0,1-3.4,0,4.45,4.45,0,0,1-2.1,3.18,3.2,3.2,0,0,1-3.4,0,4.46,4.46,0,0,1-2.11,3.18A3.56,3.56,0,0,1,149.52,115.31Z" style="fill:#4a76e6"/><path d="M182.6,96.25a3,3,0,0,1-2.35-1.09.4.4,0,0,1,.62-.51,2.36,2.36,0,0,0,3.09.42,3.63,3.63,0,0,0,1.74-3.3.4.4,0,0,1,.71-.29,2.36,2.36,0,0,0,3.06.41,3.62,3.62,0,0,0,1.74-3.3.41.41,0,0,1,.38-.43.4.4,0,0,1,.42.38,4.45,4.45,0,0,1-2.14,4,3.2,3.2,0,0,1-3.4,0,4.46,4.46,0,0,1-2.11,3.18A3.56,3.56,0,0,1,182.6,96.25Z" style="fill:#4a76e6"/><path d="M115,127.54a.38.38,0,0,1-.34-.2.4.4,0,0,1,.14-.55,3.61,3.61,0,0,0,1.75-3.3.41.41,0,0,1,.25-.4.4.4,0,0,1,.45.11,2.36,2.36,0,0,0,3.06.41,3.62,3.62,0,0,0,1.74-3.3.4.4,0,0,1,.25-.4.42.42,0,0,1,.46.11,2.36,2.36,0,0,0,3.06.41,3.62,3.62,0,0,0,1.74-3.3.41.41,0,0,1,.25-.4.42.42,0,0,1,.46.11,2.35,2.35,0,0,0,3.05.41,3.61,3.61,0,0,0,1.75-3.3.41.41,0,0,1,.25-.4.4.4,0,0,1,.45.11,2.36,2.36,0,0,0,3.06.41,3.57,3.57,0,0,0,1.74-3.3.43.43,0,0,1,.25-.4.42.42,0,0,1,.46.11,2.36,2.36,0,0,0,3.06.41,3.62,3.62,0,0,0,1.74-3.3.42.42,0,0,1,.38-.43.4.4,0,0,1,.43.38,4.48,4.48,0,0,1-2.15,4,3.2,3.2,0,0,1-3.4,0,4.41,4.41,0,0,1-2.11,3.18,3.2,3.2,0,0,1-3.4,0,4.43,4.43,0,0,1-2.1,3.18,3.22,3.22,0,0,1-3.41,0,4.45,4.45,0,0,1-2.1,3.18,3.2,3.2,0,0,1-3.4,0,4.46,4.46,0,0,1-2.11,3.18,3.2,3.2,0,0,1-3.4,0,4.43,4.43,0,0,1-2.11,3.18A.46.46,0,0,1,115,127.54Z" style="fill:#4a76e6"/><path d="M146.51,108.91a3,3,0,0,1-2.35-1.09.4.4,0,1,1,.61-.51,2.36,2.36,0,0,0,3.09.42,3.62,3.62,0,0,0,1.75-3.3.4.4,0,0,1,.25-.4.39.39,0,0,1,.45.11,2.36,2.36,0,0,0,3.06.41,3.63,3.63,0,0,0,1.74-3.3.4.4,0,0,1,.25-.4.42.42,0,0,1,.46.11,2.36,2.36,0,0,0,3.06.41,3.63,3.63,0,0,0,1.74-3.3.41.41,0,0,1,.25-.4.42.42,0,0,1,.46.11,2.35,2.35,0,0,0,3,.41,3.61,3.61,0,0,0,1.75-3.3.41.41,0,0,1,.25-.4.4.4,0,0,1,.45.11,2.36,2.36,0,0,0,3.06.41,3.61,3.61,0,0,0,1.75-3.3.41.41,0,0,1,.25-.4.39.39,0,0,1,.45.11,2.36,2.36,0,0,0,3.06.41,3.62,3.62,0,0,0,1.74-3.3.42.42,0,0,1,.38-.43.4.4,0,0,1,.43.38,4.48,4.48,0,0,1-2.15,4,3.2,3.2,0,0,1-3.4,0,4.43,4.43,0,0,1-2.11,3.18,3.21,3.21,0,0,1-3.4,0,4.45,4.45,0,0,1-2.1,3.18,3.2,3.2,0,0,1-3.4,0,4.46,4.46,0,0,1-2.11,3.18,3.2,3.2,0,0,1-3.4,0,4.43,4.43,0,0,1-2.11,3.18,3.2,3.2,0,0,1-3.4,0,4.43,4.43,0,0,1-2.11,3.18A3.53,3.53,0,0,1,146.51,108.91Z" style="fill:#4a76e6"/><path d="M179.59,89.85a3,3,0,0,1-2.35-1.09.4.4,0,1,1,.61-.51,2.36,2.36,0,0,0,3.09.42,3.62,3.62,0,0,0,1.75-3.3.4.4,0,0,1,.25-.4.39.39,0,0,1,.45.11,2.37,2.37,0,0,0,3.06.41,3.59,3.59,0,0,0,1.74-3.3.41.41,0,0,1,.81,0,4.46,4.46,0,0,1-2.15,4,3.2,3.2,0,0,1-3.4,0,4.45,4.45,0,0,1-2.1,3.18A3.59,3.59,0,0,1,179.59,89.85Z" style="fill:#4a76e6"/><path d="M112,121.14a.39.39,0,0,1-.35-.2.41.41,0,0,1,.15-.55,3.63,3.63,0,0,0,1.74-3.3.4.4,0,0,1,.25-.4.4.4,0,0,1,.46.11,2.36,2.36,0,0,0,3,.41,3.62,3.62,0,0,0,1.75-3.3.4.4,0,0,1,.25-.4.39.39,0,0,1,.45.11,2.37,2.37,0,0,0,3.06.41,3.62,3.62,0,0,0,1.75-3.3.4.4,0,0,1,.25-.4.39.39,0,0,1,.45.11,2.36,2.36,0,0,0,3.06.41,3.62,3.62,0,0,0,1.74-3.3.41.41,0,0,1,.25-.4.42.42,0,0,1,.46.11,2.36,2.36,0,0,0,3.06.41,3.62,3.62,0,0,0,1.74-3.3.41.41,0,0,1,.25-.4.4.4,0,0,1,.46.11,2.35,2.35,0,0,0,3.05.41,3.61,3.61,0,0,0,1.75-3.3.41.41,0,0,1,.37-.43.39.39,0,0,1,.43.38,4.45,4.45,0,0,1-2.14,4,3.22,3.22,0,0,1-3.41,0,4.45,4.45,0,0,1-2.1,3.18,3.2,3.2,0,0,1-3.4,0,4.46,4.46,0,0,1-2.11,3.18,3.2,3.2,0,0,1-3.4,0,4.43,4.43,0,0,1-2.11,3.18,3.2,3.2,0,0,1-3.4,0,4.45,4.45,0,0,1-2.1,3.18,3.2,3.2,0,0,1-3.4,0,4.49,4.49,0,0,1-2.11,3.18A.46.46,0,0,1,112,121.14Z" style="fill:#4a76e6"/><path d="M143.49,102.51a3,3,0,0,1-2.35-1.09.4.4,0,0,1,.62-.51,2.36,2.36,0,0,0,3.09.42,3.63,3.63,0,0,0,1.74-3.3.4.4,0,0,1,.25-.4.4.4,0,0,1,.46.11,2.35,2.35,0,0,0,3,.41,3.62,3.62,0,0,0,1.75-3.3.4.4,0,0,1,.25-.4.39.39,0,0,1,.45.11,2.37,2.37,0,0,0,3.06.41,3.62,3.62,0,0,0,1.75-3.3.4.4,0,0,1,.25-.4.39.39,0,0,1,.45.11,2.36,2.36,0,0,0,3.06.41,3.63,3.63,0,0,0,1.74-3.3.4.4,0,0,1,.25-.4.4.4,0,0,1,.46.11,2.36,2.36,0,0,0,3.06.41,3.63,3.63,0,0,0,1.74-3.3.4.4,0,0,1,.25-.4.4.4,0,0,1,.46.11,2.35,2.35,0,0,0,3,.41,3.62,3.62,0,0,0,1.75-3.3.41.41,0,0,1,.37-.43.4.4,0,0,1,.43.38,4.45,4.45,0,0,1-2.14,4,3.2,3.2,0,0,1-3.4,0,4.49,4.49,0,0,1-2.11,3.18,3.2,3.2,0,0,1-3.4,0,4.43,4.43,0,0,1-2.11,3.18,3.2,3.2,0,0,1-3.4,0,4.43,4.43,0,0,1-2.11,3.18,3.2,3.2,0,0,1-3.4,0,4.45,4.45,0,0,1-2.1,3.18,3.2,3.2,0,0,1-3.4,0,4.49,4.49,0,0,1-2.11,3.18A3.59,3.59,0,0,1,143.49,102.51Z" style="fill:#4a76e6"/><path d="M176.58,83.45a3,3,0,0,1-2.36-1.09.4.4,0,1,1,.62-.52,2.36,2.36,0,0,0,3.09.43A3.64,3.64,0,0,0,179.67,79a.39.39,0,0,1,.25-.39.4.4,0,0,1,.46.11,2.37,2.37,0,0,0,3.06.41,3.64,3.64,0,0,0,1.74-3.31.4.4,0,0,1,.38-.42.38.38,0,0,1,.42.38,4.42,4.42,0,0,1-2.14,4,3.23,3.23,0,0,1-3.4,0A4.42,4.42,0,0,1,178.33,83,3.46,3.46,0,0,1,176.58,83.45Z" style="fill:#4a76e6"/><path d="M109,114.74a.38.38,0,0,1-.34-.2.4.4,0,0,1,.14-.55,3.6,3.6,0,0,0,1.74-3.31.42.42,0,0,1,.25-.39.4.4,0,0,1,.46.11,2.37,2.37,0,0,0,3.06.41,3.63,3.63,0,0,0,1.74-3.3.4.4,0,0,1,.25-.4.4.4,0,0,1,.46.11,2.37,2.37,0,0,0,3.06.41,3.63,3.63,0,0,0,1.74-3.3.4.4,0,0,1,.25-.4.4.4,0,0,1,.46.11,2.36,2.36,0,0,0,3,.41,3.62,3.62,0,0,0,1.75-3.3.4.4,0,0,1,.25-.4.39.39,0,0,1,.45.11,2.37,2.37,0,0,0,3.06.41,3.62,3.62,0,0,0,1.75-3.3.4.4,0,0,1,.25-.4.39.39,0,0,1,.45.11,2.36,2.36,0,0,0,3.06.41,3.63,3.63,0,0,0,1.74-3.3.41.41,0,0,1,.38-.43.4.4,0,0,1,.42.38,4.45,4.45,0,0,1-2.14,4.05,3.2,3.2,0,0,1-3.4,0,4.43,4.43,0,0,1-2.11,3.18,3.23,3.23,0,0,1-3.4,0,4.45,4.45,0,0,1-2.1,3.18,3.22,3.22,0,0,1-3.41,0,4.45,4.45,0,0,1-2.1,3.18,3.2,3.2,0,0,1-3.4,0,4.46,4.46,0,0,1-2.11,3.18,3.25,3.25,0,0,1-3.4,0,4.43,4.43,0,0,1-2.11,3.18A.46.46,0,0,1,109,114.74Z" style="fill:#4a76e6"/><path d="M140.48,96.11A3,3,0,0,1,138.12,95a.41.41,0,0,1,.06-.57.4.4,0,0,1,.56,0,2.37,2.37,0,0,0,3.09.43,3.63,3.63,0,0,0,1.75-3.31.4.4,0,0,1,.7-.28,2.37,2.37,0,0,0,3.06.41,3.64,3.64,0,0,0,1.74-3.31.39.39,0,0,1,.25-.39.4.4,0,0,1,.46.11,2.37,2.37,0,0,0,3.06.41,3.64,3.64,0,0,0,1.74-3.31.39.39,0,0,1,.25-.39.4.4,0,0,1,.46.11,2.36,2.36,0,0,0,3,.41,3.63,3.63,0,0,0,1.75-3.31.39.39,0,0,1,.25-.39.39.39,0,0,1,.45.11,2.37,2.37,0,0,0,3.06.41,3.63,3.63,0,0,0,1.75-3.31.4.4,0,0,1,.7-.28,2.37,2.37,0,0,0,3.06.41,3.63,3.63,0,0,0,1.74-3.3.4.4,0,0,1,.38-.43.4.4,0,0,1,.43.38,4.48,4.48,0,0,1-2.15,4,3.23,3.23,0,0,1-3.4,0,4.43,4.43,0,0,1-2.11,3.18,3.23,3.23,0,0,1-3.4,0,4.45,4.45,0,0,1-2.1,3.18,3.25,3.25,0,0,1-3.4,0,4.45,4.45,0,0,1-2.11,3.17,3.21,3.21,0,0,1-3.4,0,4.42,4.42,0,0,1-2.11,3.17,3.23,3.23,0,0,1-3.4,0,4.4,4.4,0,0,1-2.11,3.17A3.46,3.46,0,0,1,140.48,96.11Z" style="fill:#4a76e6"/><path d="M173.56,77.05A3,3,0,0,1,171.21,76a.4.4,0,1,1,.61-.52,2.38,2.38,0,0,0,3.09.43,3.63,3.63,0,0,0,1.75-3.31.39.39,0,0,1,.25-.39.39.39,0,0,1,.45.11,2.37,2.37,0,0,0,3.06.41,3.64,3.64,0,0,0,1.74-3.31.41.41,0,0,1,.81,0,4.44,4.44,0,0,1-2.15,4,3.23,3.23,0,0,1-3.4,0,4.41,4.41,0,0,1-2.1,3.17A3.5,3.5,0,0,1,173.56,77.05Z" style="fill:#4a76e6"/><path d="M105.94,108.34a.4.4,0,0,1-.2-.75,3.64,3.64,0,0,0,1.74-3.31.39.39,0,0,1,.25-.39.4.4,0,0,1,.46.11,2.36,2.36,0,0,0,3,.41A3.63,3.63,0,0,0,113,101.1a.39.39,0,0,1,.25-.39.39.39,0,0,1,.45.11,2.37,2.37,0,0,0,3.06.41,3.6,3.6,0,0,0,1.74-3.31.42.42,0,0,1,.25-.39.4.4,0,0,1,.46.11,2.37,2.37,0,0,0,3.06.41A3.64,3.64,0,0,0,124,94.74a.39.39,0,0,1,.25-.39.4.4,0,0,1,.46.11,2.37,2.37,0,0,0,3.06.41,3.64,3.64,0,0,0,1.74-3.31.39.39,0,0,1,.25-.39.4.4,0,0,1,.46.11,2.36,2.36,0,0,0,3.05.41A3.63,3.63,0,0,0,135,88.38a.4.4,0,1,1,.8,0,4.45,4.45,0,0,1-2.14,4,3.26,3.26,0,0,1-3.41,0,4.45,4.45,0,0,1-2.1,3.18,3.23,3.23,0,0,1-3.4,0,4.42,4.42,0,0,1-2.11,3.17,3.23,3.23,0,0,1-3.4,0,4.4,4.4,0,0,1-2.11,3.17,3.23,3.23,0,0,1-3.4,0,4.41,4.41,0,0,1-2.1,3.17,3.24,3.24,0,0,1-3.41,0,4.41,4.41,0,0,1-2.1,3.17A.36.36,0,0,1,105.94,108.34Z" style="fill:#4a76e6"/><path d="M137.46,89.71a3,3,0,0,1-2.35-1.09.4.4,0,0,1,.62-.52,2.38,2.38,0,0,0,3.09.43,3.64,3.64,0,0,0,1.74-3.31.39.39,0,0,1,.25-.39.4.4,0,0,1,.46.11,2.37,2.37,0,0,0,3.06.41A3.64,3.64,0,0,0,146.07,82a.39.39,0,0,1,.25-.39.39.39,0,0,1,.45.11,2.37,2.37,0,0,0,3.06.41,3.63,3.63,0,0,0,1.75-3.31.39.39,0,0,1,.25-.39.39.39,0,0,1,.45.11,2.37,2.37,0,0,0,3.06.41,3.64,3.64,0,0,0,1.74-3.31.39.39,0,0,1,.25-.39.4.4,0,0,1,.46.11,2.37,2.37,0,0,0,3.06.41,3.64,3.64,0,0,0,1.74-3.31.39.39,0,0,1,.25-.39.4.4,0,0,1,.46.11,2.36,2.36,0,0,0,3,.41,3.63,3.63,0,0,0,1.75-3.31.39.39,0,0,1,.37-.42.4.4,0,0,1,.43.38,4.42,4.42,0,0,1-2.14,4,3.23,3.23,0,0,1-3.4,0,4.45,4.45,0,0,1-2.11,3.17,3.23,3.23,0,0,1-3.4,0,4.42,4.42,0,0,1-2.11,3.17,3.23,3.23,0,0,1-3.4,0,4.4,4.4,0,0,1-2.11,3.17,3.23,3.23,0,0,1-3.4,0,4.41,4.41,0,0,1-2.1,3.17,3.23,3.23,0,0,1-3.4,0,4.45,4.45,0,0,1-2.11,3.17A3.47,3.47,0,0,1,137.46,89.71Z" style="fill:#4a76e6"/><path d="M170.54,70.65a3,3,0,0,1-2.35-1.09.4.4,0,1,1,.62-.52,2.37,2.37,0,0,0,3.09.43,3.64,3.64,0,0,0,1.74-3.31.4.4,0,0,1,.71-.28,2.37,2.37,0,0,0,3.06.41A3.64,3.64,0,0,0,179.15,63a.4.4,0,0,1,.38-.42.39.39,0,0,1,.42.37A4.44,4.44,0,0,1,177.81,67a3.23,3.23,0,0,1-3.4,0,4.42,4.42,0,0,1-2.11,3.17A3.47,3.47,0,0,1,170.54,70.65Z" style="fill:#4a76e6"/><path d="M102.92,101.94a.4.4,0,0,1-.34-.2.39.39,0,0,1,.14-.55,3.63,3.63,0,0,0,1.75-3.31.39.39,0,0,1,.25-.39.37.37,0,0,1,.45.11,2.37,2.37,0,0,0,3.06.41A3.64,3.64,0,0,0,110,94.7a.39.39,0,0,1,.25-.39.39.39,0,0,1,.46.11,2.37,2.37,0,0,0,3.06.41,3.64,3.64,0,0,0,1.74-3.31.4.4,0,0,1,.71-.28,2.36,2.36,0,0,0,3,.41A3.63,3.63,0,0,0,121,88.34a.39.39,0,0,1,.25-.39.39.39,0,0,1,.45.11,2.37,2.37,0,0,0,3.06.41,3.6,3.6,0,0,0,1.74-3.31.42.42,0,0,1,.25-.39.4.4,0,0,1,.46.11,2.37,2.37,0,0,0,3.06.41A3.64,3.64,0,0,0,132,82a.4.4,0,0,1,.38-.42.39.39,0,0,1,.42.37,4.43,4.43,0,0,1-2.14,4,3.23,3.23,0,0,1-3.4,0,4.4,4.4,0,0,1-2.11,3.17,3.23,3.23,0,0,1-3.4,0,4.41,4.41,0,0,1-2.1,3.17,3.24,3.24,0,0,1-3.41,0,4.41,4.41,0,0,1-2.1,3.17,3.23,3.23,0,0,1-3.4,0,4.42,4.42,0,0,1-2.11,3.17,3.23,3.23,0,0,1-3.4,0,4.4,4.4,0,0,1-2.11,3.17A.36.36,0,0,1,102.92,101.94Z" style="fill:#4a76e6"/><path d="M134.45,83.31a3.07,3.07,0,0,1-2.36-1.09.41.41,0,0,1,.06-.57.4.4,0,0,1,.56,0,2.38,2.38,0,0,0,3.09.43,3.63,3.63,0,0,0,1.75-3.31.41.41,0,0,1,.25-.4.4.4,0,0,1,.45.11,2.37,2.37,0,0,0,3.06.42,3.64,3.64,0,0,0,1.74-3.31.4.4,0,0,1,.71-.29,2.36,2.36,0,0,0,3.06.42,3.64,3.64,0,0,0,1.74-3.31.4.4,0,0,1,.71-.28,2.36,2.36,0,0,0,3,.41,3.63,3.63,0,0,0,1.75-3.31.39.39,0,0,1,.25-.39.37.37,0,0,1,.45.11,2.37,2.37,0,0,0,3.06.41,3.63,3.63,0,0,0,1.75-3.31.39.39,0,0,1,.25-.39.37.37,0,0,1,.45.11,2.37,2.37,0,0,0,3.06.41,3.64,3.64,0,0,0,1.74-3.31.4.4,0,0,1,.38-.42.41.41,0,0,1,.43.37,4.46,4.46,0,0,1-2.15,4.05,3.23,3.23,0,0,1-3.4,0,4.4,4.4,0,0,1-2.11,3.17,3.23,3.23,0,0,1-3.4,0,4.41,4.41,0,0,1-2.1,3.17,3.23,3.23,0,0,1-3.4,0,4.45,4.45,0,0,1-2.11,3.17,3.2,3.2,0,0,1-3.4,0,4.42,4.42,0,0,1-2.11,3.18,3.2,3.2,0,0,1-3.4,0,4.4,4.4,0,0,1-2.11,3.18A3.44,3.44,0,0,1,134.45,83.31Z" style="fill:#4a76e6"/><path d="M167.53,64.25a3,3,0,0,1-2.35-1.09.4.4,0,1,1,.61-.52,2.38,2.38,0,0,0,3.09.43,3.63,3.63,0,0,0,1.75-3.31.41.41,0,0,1,.25-.4.4.4,0,0,1,.45.11,2.37,2.37,0,0,0,3.06.42,3.64,3.64,0,0,0,1.74-3.31.4.4,0,0,1,.38-.42.39.39,0,0,1,.43.37,4.45,4.45,0,0,1-2.15,4,3.2,3.2,0,0,1-3.4,0,4.43,4.43,0,0,1-2.1,3.18A3.5,3.5,0,0,1,167.53,64.25Z" style="fill:#4a76e6"/><path d="M99.91,95.54a.4.4,0,0,1-.35-.21.4.4,0,0,1,.15-.54,3.64,3.64,0,0,0,1.74-3.31.41.41,0,0,1,.25-.4.42.42,0,0,1,.46.11,2.36,2.36,0,0,0,3,.42A3.63,3.63,0,0,0,107,88.3a.41.41,0,0,1,.25-.4.4.4,0,0,1,.45.11,2.36,2.36,0,0,0,3.06.42,3.6,3.6,0,0,0,1.74-3.31.43.43,0,0,1,.25-.4.42.42,0,0,1,.46.11,2.36,2.36,0,0,0,3.06.42A3.64,3.64,0,0,0,118,81.94a.39.39,0,0,1,.25-.39.4.4,0,0,1,.46.1,2.36,2.36,0,0,0,3.06.42,3.64,3.64,0,0,0,1.74-3.31.4.4,0,0,1,.71-.28,2.36,2.36,0,0,0,3,.41A3.63,3.63,0,0,0,129,75.58a.39.39,0,0,1,.37-.42.4.4,0,0,1,.43.37,4.44,4.44,0,0,1-2.14,4,3.24,3.24,0,0,1-3.41,0,4.41,4.41,0,0,1-2.1,3.17,3.2,3.2,0,0,1-3.4,0,4.42,4.42,0,0,1-2.11,3.18,3.2,3.2,0,0,1-3.4,0,4.4,4.4,0,0,1-2.11,3.18,3.2,3.2,0,0,1-3.4,0,4.41,4.41,0,0,1-2.1,3.18,3.22,3.22,0,0,1-3.41,0,4.43,4.43,0,0,1-2.1,3.18A.36.36,0,0,1,99.91,95.54Z" style="fill:#4a76e6"/><path d="M131.43,76.9a3.05,3.05,0,0,1-2.35-1.08.4.4,0,1,1,.62-.52,2.36,2.36,0,0,0,3.09.42,3.61,3.61,0,0,0,1.74-3.3.41.41,0,0,1,.25-.4.42.42,0,0,1,.46.11,2.36,2.36,0,0,0,3,.42A3.63,3.63,0,0,0,140,69.24a.41.41,0,0,1,.25-.4.4.4,0,0,1,.45.11,2.37,2.37,0,0,0,3.06.42,3.63,3.63,0,0,0,1.75-3.31.41.41,0,0,1,.25-.4.4.4,0,0,1,.45.11,2.37,2.37,0,0,0,3.06.42,3.64,3.64,0,0,0,1.74-3.31.4.4,0,0,1,.71-.29,2.36,2.36,0,0,0,3.06.42,3.64,3.64,0,0,0,1.74-3.31.41.41,0,0,1,.25-.4.42.42,0,0,1,.46.11,2.36,2.36,0,0,0,3,.42,3.63,3.63,0,0,0,1.75-3.31.4.4,0,0,1,.38-.42.38.38,0,0,1,.42.37,4.43,4.43,0,0,1-2.14,4.05,3.2,3.2,0,0,1-3.4,0,4.45,4.45,0,0,1-2.11,3.18,3.2,3.2,0,0,1-3.4,0,4.42,4.42,0,0,1-2.11,3.18,3.2,3.2,0,0,1-3.4,0,4.4,4.4,0,0,1-2.11,3.18,3.2,3.2,0,0,1-3.4,0,4.43,4.43,0,0,1-2.1,3.18,3.2,3.2,0,0,1-3.4,0,4.44,4.44,0,0,1-2.11,3.18A3.49,3.49,0,0,1,131.43,76.9Z" style="fill:#4a76e6"/><path d="M164.52,57.84a3,3,0,0,1-2.36-1.09.4.4,0,0,1,.05-.56.41.41,0,0,1,.57.05,2.36,2.36,0,0,0,3.09.42,3.61,3.61,0,0,0,1.74-3.3.41.41,0,0,1,.25-.4.42.42,0,0,1,.46.11,2.36,2.36,0,0,0,3.06.41,3.61,3.61,0,0,0,1.74-3.3.4.4,0,1,1,.8,0,4.45,4.45,0,0,1-2.14,4,3.2,3.2,0,0,1-3.4,0,4.44,4.44,0,0,1-2.11,3.18A3.45,3.45,0,0,1,164.52,57.84Z" style="fill:#4a76e6"/><path d="M96.89,89.13a.4.4,0,0,1-.2-.75,3.6,3.6,0,0,0,1.75-3.3.41.41,0,0,1,.25-.4.4.4,0,0,1,.45.11,2.36,2.36,0,0,0,3.06.41,3.61,3.61,0,0,0,1.74-3.3.4.4,0,0,1,.71-.29,2.37,2.37,0,0,0,3.06.42,3.64,3.64,0,0,0,1.74-3.31.41.41,0,0,1,.25-.4.42.42,0,0,1,.46.11,2.36,2.36,0,0,0,3,.42A3.63,3.63,0,0,0,115,75.54a.41.41,0,0,1,.25-.4.4.4,0,0,1,.45.11,2.37,2.37,0,0,0,3.06.42,3.6,3.6,0,0,0,1.74-3.31.43.43,0,0,1,.25-.4.42.42,0,0,1,.46.11,2.37,2.37,0,0,0,3.06.42A3.64,3.64,0,0,0,126,69.18a.4.4,0,0,1,.38-.42.39.39,0,0,1,.43.37,4.47,4.47,0,0,1-2.15,4.05,3.2,3.2,0,0,1-3.4,0,4.41,4.41,0,0,1-2.11,3.18,3.2,3.2,0,0,1-3.4,0,4.43,4.43,0,0,1-2.1,3.18,3.22,3.22,0,0,1-3.41,0,4.43,4.43,0,0,1-2.1,3.18,3.2,3.2,0,0,1-3.4,0,4.44,4.44,0,0,1-2.11,3.18,3.2,3.2,0,0,1-3.4,0,4.41,4.41,0,0,1-2.11,3.18A.35.35,0,0,1,96.89,89.13Z" style="fill:#4a76e6"/><path d="M128.42,70.5a3,3,0,0,1-2.35-1.09.39.39,0,0,1,.05-.56.4.4,0,0,1,.56.05,2.36,2.36,0,0,0,3.09.42,3.6,3.6,0,0,0,1.75-3.3.41.41,0,0,1,.25-.4.4.4,0,0,1,.45.11,2.36,2.36,0,0,0,3.06.41,3.62,3.62,0,0,0,1.74-3.3.4.4,0,0,1,.71-.29,2.36,2.36,0,0,0,3.06.41,3.61,3.61,0,0,0,1.74-3.3.41.41,0,0,1,.25-.4.42.42,0,0,1,.46.11,2.35,2.35,0,0,0,3,.41,3.6,3.6,0,0,0,1.75-3.3.41.41,0,0,1,.25-.4.4.4,0,0,1,.45.11,2.36,2.36,0,0,0,3.06.41,3.6,3.6,0,0,0,1.75-3.3.41.41,0,0,1,.25-.4.4.4,0,0,1,.45.11,2.37,2.37,0,0,0,3.06.42,3.64,3.64,0,0,0,1.74-3.31.41.41,0,1,1,.81,0,4.47,4.47,0,0,1-2.15,4,3.2,3.2,0,0,1-3.4,0,4.41,4.41,0,0,1-2.11,3.18,3.2,3.2,0,0,1-3.4,0,4.43,4.43,0,0,1-2.1,3.18,3.2,3.2,0,0,1-3.4,0,4.47,4.47,0,0,1-2.11,3.18,3.2,3.2,0,0,1-3.4,0,4.44,4.44,0,0,1-2.11,3.18,3.2,3.2,0,0,1-3.4,0A4.41,4.41,0,0,1,130.17,70,3.55,3.55,0,0,1,128.42,70.5Z" style="fill:#4a76e6"/><path d="M161.5,51.44a3,3,0,0,1-2.35-1.09.39.39,0,0,1,0-.56.4.4,0,0,1,.56.05,2.36,2.36,0,0,0,3.09.42A3.61,3.61,0,0,0,164.6,47a.41.41,0,0,1,.25-.4.4.4,0,0,1,.45.11,2.36,2.36,0,0,0,3.06.41,3.6,3.6,0,0,0,1.74-3.3.42.42,0,0,1,.38-.43.4.4,0,0,1,.43.38,4.48,4.48,0,0,1-2.15,4.05,3.2,3.2,0,0,1-3.4,0,4.45,4.45,0,0,1-2.1,3.18A3.59,3.59,0,0,1,161.5,51.44Z" style="fill:#4a76e6"/><path d="M93.88,82.73a.39.39,0,0,1-.35-.2.41.41,0,0,1,.15-.55,3.62,3.62,0,0,0,1.74-3.3.41.41,0,0,1,.25-.4.42.42,0,0,1,.46.11,2.35,2.35,0,0,0,3.05.41,3.61,3.61,0,0,0,1.75-3.3.41.41,0,0,1,.25-.4.4.4,0,0,1,.45.11,2.36,2.36,0,0,0,3.06.41,3.61,3.61,0,0,0,1.75-3.3.41.41,0,0,1,.25-.4.4.4,0,0,1,.45.11,2.36,2.36,0,0,0,3.06.41,3.62,3.62,0,0,0,1.74-3.3.4.4,0,0,1,.71-.29,2.36,2.36,0,0,0,3.06.41,3.61,3.61,0,0,0,1.74-3.3.41.41,0,0,1,.25-.4.42.42,0,0,1,.46.11,2.35,2.35,0,0,0,3,.41,3.6,3.6,0,0,0,1.75-3.3.4.4,0,1,1,.8-.05,4.45,4.45,0,0,1-2.14,4.05,3.22,3.22,0,0,1-3.41,0,4.43,4.43,0,0,1-2.1,3.18,3.2,3.2,0,0,1-3.4,0,4.44,4.44,0,0,1-2.11,3.18,3.2,3.2,0,0,1-3.4,0,4.41,4.41,0,0,1-2.11,3.18,3.2,3.2,0,0,1-3.4,0,4.45,4.45,0,0,1-2.1,3.18,3.22,3.22,0,0,1-3.41,0,4.45,4.45,0,0,1-2.1,3.18A.35.35,0,0,1,93.88,82.73Z" style="fill:#4a76e6"/><path d="M125.4,64.1A3,3,0,0,1,123.05,63a.4.4,0,0,1,.62-.51,2.36,2.36,0,0,0,3.09.42,3.62,3.62,0,0,0,1.74-3.3.41.41,0,0,1,.25-.4.42.42,0,0,1,.46.11,2.35,2.35,0,0,0,3,.41,3.61,3.61,0,0,0,1.75-3.3.4.4,0,0,1,.7-.29,2.36,2.36,0,0,0,3.06.41,3.61,3.61,0,0,0,1.75-3.3.41.41,0,0,1,.25-.4.4.4,0,0,1,.45.11,2.36,2.36,0,0,0,3.06.41,3.62,3.62,0,0,0,1.74-3.3.41.41,0,0,1,.25-.4.4.4,0,0,1,.46.11,2.36,2.36,0,0,0,3.06.41,3.62,3.62,0,0,0,1.74-3.3.41.41,0,0,1,.25-.4.42.42,0,0,1,.46.11,2.35,2.35,0,0,0,3,.41,3.61,3.61,0,0,0,1.75-3.3.41.41,0,0,1,.37-.43.4.4,0,0,1,.43.38,4.45,4.45,0,0,1-2.14,4,3.22,3.22,0,0,1-3.41,0,4.43,4.43,0,0,1-2.1,3.18,3.2,3.2,0,0,1-3.4,0,4.44,4.44,0,0,1-2.11,3.18,3.2,3.2,0,0,1-3.4,0,4.43,4.43,0,0,1-2.11,3.18,3.2,3.2,0,0,1-3.4,0,4.45,4.45,0,0,1-2.1,3.18,3.2,3.2,0,0,1-3.4,0,4.46,4.46,0,0,1-2.11,3.18A3.56,3.56,0,0,1,125.4,64.1Z" style="fill:#4a76e6"/><path d="M158.49,45A3,3,0,0,1,156.13,44a.4.4,0,0,1,.62-.51,2.36,2.36,0,0,0,3.09.42,3.63,3.63,0,0,0,1.74-3.3.4.4,0,0,1,.25-.4.4.4,0,0,1,.46.11,2.36,2.36,0,0,0,3.06.41,3.63,3.63,0,0,0,1.74-3.3.41.41,0,0,1,.38-.43.4.4,0,0,1,.42.38,4.45,4.45,0,0,1-2.14,4.05,3.2,3.2,0,0,1-3.4,0,4.46,4.46,0,0,1-2.11,3.18A3.55,3.55,0,0,1,158.49,45Z" style="fill:#4a76e6"/></g><polygon points="165.4 139.26 165.4 143.21 146.36 132.21 146.36 128.26 165.4 139.26" style="fill:#3e68d4"/><polygon points="146.36 95.25 177.83 113.44 164.66 141.4 146.36 130.83 146.36 95.25" style="fill:#4a76e6"/><path d="M173.72,115.73a3.69,3.69,0,0,1-1.77-3.35.39.39,0,0,0-.26-.4.4.4,0,0,0-.46.11,2.4,2.4,0,0,1-3.1.42,3.69,3.69,0,0,1-1.77-3.36.4.4,0,0,0-.71-.29,2.4,2.4,0,0,1-3.11.42,3.65,3.65,0,0,1-1.76-3.35.41.41,0,0,0-.72-.29,2.39,2.39,0,0,1-3.1.41,3.67,3.67,0,0,1-1.77-3.35.41.41,0,0,0-.25-.4.44.44,0,0,0-.47.11,2.39,2.39,0,0,1-3.1.42,3.68,3.68,0,0,1-1.77-3.35.4.4,0,0,0-.25-.4.4.4,0,0,0-.46.11,2.33,2.33,0,0,1-2.53.66v.85a3.09,3.09,0,0,0,2.47-.39,4.53,4.53,0,0,0,2.13,3.23,3.27,3.27,0,0,0,3.45,0,4.51,4.51,0,0,0,2.14,3.22,3.25,3.25,0,0,0,3.45,0,4.51,4.51,0,0,0,2.14,3.23,3.27,3.27,0,0,0,3.45,0,4.46,4.46,0,0,0,2.13,3.22,3.25,3.25,0,0,0,3.45,0,4.54,4.54,0,0,0,2.14,3.23,3.54,3.54,0,0,0,1.78.49,3.21,3.21,0,0,0,1.22-.25l.7-1.49a.36.36,0,0,0-.16.11A2.4,2.4,0,0,1,173.72,115.73Z" style="fill:#3e68d4"/><path d="M170.66,122.22a3.68,3.68,0,0,1-1.77-3.35.4.4,0,0,0-.25-.4.42.42,0,0,0-.47.11,2.4,2.4,0,0,1-3.1.42,3.69,3.69,0,0,1-1.77-3.35.42.42,0,0,0-.25-.41.4.4,0,0,0-.46.12,2.4,2.4,0,0,1-3.1.41,3.68,3.68,0,0,1-1.77-3.35.4.4,0,0,0-.26-.4.4.4,0,0,0-.46.11,2.4,2.4,0,0,1-3.1.42,3.69,3.69,0,0,1-1.77-3.35.42.42,0,0,0-.25-.41.4.4,0,0,0-.46.12,2.4,2.4,0,0,1-3.11.41,3.65,3.65,0,0,1-1.76-3.35.45.45,0,0,0-.19-.35v2.81a4.4,4.4,0,0,0,1.55,1.6,3.25,3.25,0,0,0,3.45,0,4.46,4.46,0,0,0,2.13,3.22,3.27,3.27,0,0,0,3.45,0,4.53,4.53,0,0,0,2.14,3.22,3.25,3.25,0,0,0,3.45,0,4.49,4.49,0,0,0,2.13,3.22,3.27,3.27,0,0,0,3.45,0,4.53,4.53,0,0,0,2.14,3.22,3.57,3.57,0,0,0,1.78.49,3.13,3.13,0,0,0,1.22-.25l.7-1.49a.57.57,0,0,0-.16.11A2.38,2.38,0,0,1,170.66,122.22Z" style="fill:#3e68d4"/><path d="M164.54,135.21a3.69,3.69,0,0,1-1.77-3.35.42.42,0,0,0-.25-.41.4.4,0,0,0-.46.12,2.39,2.39,0,0,1-3.1.41,3.68,3.68,0,0,1-1.77-3.35.4.4,0,0,0-.26-.4.4.4,0,0,0-.46.11,2.4,2.4,0,0,1-3.1.42,3.69,3.69,0,0,1-1.77-3.35.42.42,0,0,0-.25-.41.4.4,0,0,0-.46.12,2.4,2.4,0,0,1-3.11.41,3.56,3.56,0,0,1-1.42-1.6v1.44a4.24,4.24,0,0,0,1,.87,3.25,3.25,0,0,0,3.45,0,4.46,4.46,0,0,0,2.13,3.22,3.27,3.27,0,0,0,3.45,0,4.51,4.51,0,0,0,2.14,3.22,3.25,3.25,0,0,0,3.45,0,4.49,4.49,0,0,0,2.13,3.22,3.6,3.6,0,0,0,1.78.49,3.22,3.22,0,0,0,1.23-.25l.7-1.48a.29.29,0,0,0-.16.11A2.42,2.42,0,0,1,164.54,135.21Z" style="fill:#3e68d4"/><path d="M167.6,128.72a3.69,3.69,0,0,1-1.77-3.36.4.4,0,0,0-.71-.29,2.4,2.4,0,0,1-3.11.42,3.68,3.68,0,0,1-1.77-3.35.38.38,0,0,0-.25-.4.4.4,0,0,0-.46.11,2.39,2.39,0,0,1-3.1.41,3.67,3.67,0,0,1-1.77-3.35.41.41,0,0,0-.25-.4.43.43,0,0,0-.47.11,2.4,2.4,0,0,1-3.1.42,3.69,3.69,0,0,1-1.77-3.35.4.4,0,0,0-.25-.4.4.4,0,0,0-.46.11,2.28,2.28,0,0,1-2,.77V117a3.08,3.08,0,0,0,1.94-.48,4.51,4.51,0,0,0,2.14,3.23,3.25,3.25,0,0,0,3.44,0A4.51,4.51,0,0,0,156,123a3.25,3.25,0,0,0,3.45,0,4.51,4.51,0,0,0,2.14,3.23,3.27,3.27,0,0,0,3.45,0,4.46,4.46,0,0,0,2.13,3.22,3.6,3.6,0,0,0,1.78.49,3.13,3.13,0,0,0,1.22-.25l.7-1.49a.42.42,0,0,0-.15.11A2.41,2.41,0,0,1,167.6,128.72Z" style="fill:#3e68d4"/><polygon points="164.66 141.4 191.02 126.19 177.83 113.44 164.66 141.4" style="fill:#d4e4ff"/><polygon points="92.3 86.01 85.31 92.77 99.28 100.84 92.3 86.01" style="fill:#b5cbeb"/><polygon points="92.3 86.01 66.72 110.73 66.72 107.94 91.38 84.04 92.3 86.01" style="fill:#9c6241"/><path d="M64.46,107.82v30.24a.57.57,0,0,0,.34.47,1.76,1.76,0,0,0,1.61,0,.59.59,0,0,0,.34-.47V107.82Z" style="fill:#754741"/><polygon points="104.23 104.09 79.05 89.55 79.05 93.02 104.23 107.55 104.23 104.09" style="fill:#9c6241"/><polygon points="91.38 84.04 66.72 107.94 60.82 111.35 90.62 82.47 91.38 84.04" style="fill:#693b3b"/><path d="M199.6,105.72a2.53,2.53,0,0,0,2.05-1,.76.76,0,0,0,.14-.79h0l-36.6-77.74-2.89,1.36,36.61,77.74h0A.79.79,0,0,0,199.6,105.72Z" style="fill:#8b574f"/><path d="M164.49,25.84c.72.06,1,.59.56,1.18A2.51,2.51,0,0,1,163,28c-.71-.06-1-.59-.55-1.18A2.5,2.5,0,0,1,164.49,25.84Z" style="fill:#8b574f"/><path d="M164.34,148a2.51,2.51,0,0,1-2.05-1,.79.79,0,0,1-.14-.78h0l17.91-38.13,2.89,1.36L165,147.6h0A.85.85,0,0,1,164.34,148Z" style="fill:#8b574f"/><path d="M180.76,107.72c-.71.06-1,.59-.55,1.18a2.5,2.5,0,0,0,2,1c.72-.06,1-.59.56-1.18A2.51,2.51,0,0,0,180.76,107.72Z" style="fill:#8b574f"/><path d="M145.39,94.39a2.55,2.55,0,0,1,1.13-2,.82.82,0,0,1,.8-.08h0l35.59,20.55-1.59,2.77-35.6-20.55h0A.83.83,0,0,1,145.39,94.39Z" style="fill:#754741"/><path d="M183.24,113.63c0-.72-.51-1-1.13-.65a2.55,2.55,0,0,0-1.13,2c0,.71.51,1,1.13.65A2.49,2.49,0,0,0,183.24,113.63Z" style="fill:#633434"/><path d="M175.25,110.82l19,18.41a.79.79,0,0,1,.14.79,2.51,2.51,0,0,1-1.57,1.62.77.77,0,0,1-.79-.12l-19-18.41Z" style="fill:#8b574f"/><path d="M173.83,113.23c-.69.2-1.12-.21-.94-.91a2.51,2.51,0,0,1,1.57-1.62c.69-.2,1.11.21.94.91A2.53,2.53,0,0,1,173.83,113.23Z" style="fill:#693b3b"/><polygon points="81.95 124.31 75.01 120.3 75.01 136.89 81.95 140.9 81.95 124.31" style="fill:#272a3d"/><path d="M82.65,125l-4.73-2.25c.79,3.86,1.17,9.41,3.7,13.28l.75.43Z" style="fill:#133b65"/><path d="M73.19,120.44v10.83c3.49.41,4.73-6.85,4.73-8.55Z" style="fill:#133b65"/><polygon points="66.72 132.11 120.44 163.13 120.44 164.78 109.31 171.22 55.58 140.2 55.58 138.54 66.72 132.11" style="fill:#965138"/><polygon points="66.72 132.11 120.44 163.13 109.31 169.56 55.58 138.54 66.72 132.11" style="fill:#b57751"/><path d="M83.18,123.55v18.14a.61.61,0,0,1-.36.5,1.93,1.93,0,0,1-1.75,0,.61.61,0,0,1-.36-.5V123.55Z" style="fill:#754741"/><polygon points="83.18 123.89 80.71 123.89 80.71 125.64 83.18 127.26 83.18 123.89" style="fill:#5c3333"/><path d="M75,118.76v18.13a.61.61,0,0,1-.36.51,2,2,0,0,1-1.75,0,.61.61,0,0,1-.36-.51V118.76Z" style="fill:#754741"/><polygon points="72.55 119.1 72.55 120.91 75.01 122.55 75.01 119.1 72.55 119.1" style="fill:#5c3333"/><path d="M71.17,118.77a2.22,2.22,0,0,1,1-1.74.67.67,0,0,1,.71-.07h0l12,6.89-1.42,2.46-12-6.89h0A.68.68,0,0,1,71.17,118.77Z" style="fill:#754741"/><path d="M85.12,124.5c0-.64-.45-.9-1-.58a2.24,2.24,0,0,0-1,1.74c0,.64.45.9,1,.58A2.23,2.23,0,0,0,85.12,124.5Z" style="fill:#5c3333"/><polygon points="174.51 137.33 181.45 133.32 181.45 149.91 174.51 153.92 174.51 137.33" style="fill:#f5b312"/><polygon points="174.51 137.33 181.45 133.32 181.45 136.78 174.51 140.79 174.51 137.33" style="fill:#f19703"/><polygon points="195.34 161.67 186.74 166.63 186.74 167.34 189 168.64 197.6 163.68 197.6 162.98 195.34 161.67" style="fill:#693b3b"/><polygon points="184.9 163.03 184.9 166.27 189 168.64 189 166.75 187.16 165.68 187.16 164.34 184.9 163.03" style="fill:#693b3b"/><polygon points="192.91 158.41 192.91 161.64 197.02 164.01 197.02 162.12 195.17 161.05 195.17 159.71 192.91 158.41" style="fill:#693b3b"/><path d="M175.42,160.22V169a.79.79,0,0,0,.47.65,2.48,2.48,0,0,0,2.25,0,.8.8,0,0,0,.46-.65v-8.74Z" style="fill:#613235"/><path d="M197.6,150.43v5.68a.8.8,0,0,0,.46.65,2.48,2.48,0,0,0,2.25,0,.79.79,0,0,0,.47-.65v-5.68Z" style="fill:#613235"/><path d="M190.61,154.46v5.69a.81.81,0,0,0,.47.65,2.52,2.52,0,0,0,2.24,0,.81.81,0,0,0,.47-.65v-5.69Z" style="fill:#613235"/><path d="M176.91,162.11a.69.69,0,0,0,0-1.3,2.48,2.48,0,0,0-2.25,0,.69.69,0,0,0,0,1.3A2.48,2.48,0,0,0,176.91,162.11Z" style="fill:#a36d5c"/><path d="M168.79,158.9v6.31a.81.81,0,0,0,.47.65,2.48,2.48,0,0,0,2.25,0,.81.81,0,0,0,.46-.65V158.9Z" style="fill:#613235"/><polygon points="191.02 144.38 165.89 158.9 165.89 160.56 177.03 166.99 202.16 152.47 202.16 150.82 191.02 144.38" style="fill:#965138"/><polygon points="193.47 158.09 184.5 163.27 184.5 163.97 186.76 165.28 195.73 160.09 195.73 159.39 193.47 158.09" style="fill:#965138"/><polygon points="195.73 160.73 186.76 165.91 186.76 166.62 189.02 167.92 197.99 162.74 197.99 162.04 195.73 160.73" style="fill:#965138"/><polygon points="191.02 144.38 165.89 158.9 177.03 165.33 202.16 150.82 191.02 144.38" style="fill:#b57751"/><polygon points="195.73 159.39 193.47 158.09 184.5 163.27 186.76 164.57 195.73 159.39" style="fill:#b57751"/><polygon points="197.99 162.04 195.73 160.73 186.76 165.91 189.02 167.22 197.99 162.04" style="fill:#b57751"/><path d="M173.28,136.57v18.14a.61.61,0,0,0,.36.5,1.91,1.91,0,0,0,1.74,0,.61.61,0,0,0,.36-.5V136.57Z" style="fill:#8b574f"/><polygon points="173.28 136.92 175.74 136.92 175.74 138.66 173.28 140.28 173.28 136.92" style="fill:#693b3b"/><path d="M181.45,131.78v18.14a.61.61,0,0,0,.36.5,1.93,1.93,0,0,0,1.75,0,.61.61,0,0,0,.36-.5V131.78Z" style="fill:#8b574f"/><polygon points="183.91 132.13 183.91 133.94 181.45 135.57 181.45 132.13 183.91 132.13" style="fill:#693b3b"/><path d="M185.29,131.79a2.23,2.23,0,0,0-1-1.74.69.69,0,0,0-.71-.07h0l-11.94,6.89,1.42,2.46L185,132.44h0A.72.72,0,0,0,185.29,131.79Z" style="fill:#8b574f"/><path d="M171.34,137.52c0-.64.45-.9,1-.58a2.24,2.24,0,0,1,1,1.74c0,.64-.46.9-1,.58A2.23,2.23,0,0,1,171.34,137.52Z" style="fill:#693b3b"/><path d="M122.92,149.94a2.5,2.5,0,0,0,2-1,.76.76,0,0,0,.14-.79h0L88.5,70.46l-2.89,1.35,36.61,77.74h0A.8.8,0,0,0,122.92,149.94Z" style="fill:#8b574f"/><path d="M87.8,70.06c.72.06,1,.6.56,1.18a2.51,2.51,0,0,1-2,1c-.71-.07-1-.59-.55-1.18A2.51,2.51,0,0,1,87.8,70.06Z" style="fill:#8b574f"/><path d="M174,29.22a2.53,2.53,0,0,0-1.13-1.95.77.77,0,0,0-.8-.08h0l-88.37,51L85.26,81l88.38-51h0A.8.8,0,0,0,174,29.22Z" style="fill:#754741"/><path d="M83.34,78.94c0-.72.51-1,1.13-.65a2.53,2.53,0,0,1,1.13,1.95c0,.72-.51,1-1.13.66A2.49,2.49,0,0,1,83.34,78.94Z" style="fill:#633434"/><path d="M94.48,74.3,57.12,110.5a.79.79,0,0,0-.15.79,2.5,2.5,0,0,0,1.57,1.63.82.82,0,0,0,.79-.12L96.7,76.6Z" style="fill:#8b574f"/><path d="M95.91,76.72c.69.2,1.11-.21.94-.91a2.51,2.51,0,0,0-1.57-1.62c-.69-.2-1.12.21-.94.9A2.5,2.5,0,0,0,95.91,76.72Z" style="fill:#693b3b"/><path d="M170.68,30.38,166.92,34a.8.8,0,0,0-.14.79,2.5,2.5,0,0,0,1.57,1.63.82.82,0,0,0,.79-.12l3.76-3.65Z" style="fill:#8b574f"/><path d="M172.1,32.79c.69.2,1.12-.21.94-.91a2.51,2.51,0,0,0-1.57-1.62c-.69-.2-1.11.21-.94.91A2.53,2.53,0,0,0,172.1,32.79Z" style="fill:#693b3b"/><polygon points="60.66 148.78 69.25 153.74 69.25 154.44 66.99 155.75 58.39 150.78 58.39 150.08 60.66 148.78" style="fill:#693b3b"/><polygon points="71.1 150.14 71.1 153.38 66.99 155.75 66.99 153.85 68.83 152.79 68.83 151.45 71.1 150.14" style="fill:#693b3b"/><polygon points="63.08 145.51 63.08 148.75 58.98 151.12 58.98 149.23 60.82 148.16 60.82 146.82 63.08 145.51" style="fill:#693b3b"/><polygon points="62.52 145.19 71.5 150.37 71.5 151.07 69.24 152.38 60.26 147.2 60.26 146.5 62.52 145.19" style="fill:#965138"/><polygon points="60.26 147.84 69.24 153.02 69.24 153.72 66.97 155.03 58 149.85 58 149.14 60.26 147.84" style="fill:#965138"/><polygon points="60.26 146.5 62.52 145.19 71.5 150.37 69.24 151.68 60.26 146.5" style="fill:#b57751"/><polygon points="58 149.14 60.26 147.84 69.24 153.02 66.97 154.33 58 149.14" style="fill:#b57751"/><polygon points="177.03 165.33 165.89 158.9 165.89 160.56 177.03 166.99 177.03 165.33" style="fill:#965138"/><polygon points="173.22 163.13 174.01 163.59 199.15 149.08 198.36 148.62 173.22 163.13" style="fill:#a36244"/><polygon points="169.31 160.87 170.1 161.33 195.23 146.82 194.44 146.36 169.31 160.87" style="fill:#a36244"/><polygon points="62.65 134.46 63.44 134 117.16 165.02 116.37 165.48 62.65 134.46" style="fill:#9c5b3d"/><polygon points="58.73 136.72 59.52 136.27 113.25 167.28 112.45 167.74 58.73 136.72" style="fill:#9c5b3d"/><path d="M129,1.45V55.07a1,1,0,0,1-.56.79,3,3,0,0,1-2.75,0,1,1,0,0,1-.57-.79V1.45Z" style="fill:#8b574f"/><path d="M136.8,24.53a.83.83,0,0,0,.83-.82v-7.6" style="fill:none;stroke:#b5cbeb;stroke-linecap:round;stroke-miterlimit:10;stroke-width:1.07064943237438px"/><path d="M118.09,13.73a.83.83,0,0,0,.83-.83V5.3" style="fill:none;stroke:#b5cbeb;stroke-linecap:round;stroke-miterlimit:10;stroke-width:1.07064943237438px"/><path d="M138,22.09l-22-12.68c-1-.57-1.79-.1-1.79,1v13c0,8.1,5.75,18.05,12.76,22.1s12.76.74,12.76-7.36h0v-13A3.94,3.94,0,0,0,138,22.09Z" style="fill:#305dce"/><ellipse cx="136.8" cy="24.53" rx="0.82" ry="1.42" transform="translate(6.06 71.69) rotate(-30)" style="fill:#fff"/><ellipse cx="118.09" cy="13.73" rx="0.82" ry="1.42" transform="translate(8.96 60.89) rotate(-30)" style="fill:#fff"/><path d="M137.63,16.11a.83.83,0,0,0-.83-.83h0a.83.83,0,0,0-.83.83v7.6a.83.83,0,0,0,.83.82h0" style="fill:none;stroke:#b5cbeb;stroke-linecap:round;stroke-miterlimit:10;stroke-width:1.07064943237438px"/><path d="M118.92,5.3a.83.83,0,0,0-.83-.82h0a.83.83,0,0,0-.83.82v7.6a.83.83,0,0,0,.83.83h0" style="fill:none;stroke:#b5cbeb;stroke-linecap:round;stroke-miterlimit:10;stroke-width:1.07064943237438px"/><path d="M125.67,2.24a.84.84,0,0,1,0-1.59,3.09,3.09,0,0,1,2.75,0,.84.84,0,0,1,0,1.59A3.09,3.09,0,0,1,125.67,2.24Z" style="fill:#a36d5c"/><path d="M123,8.7a3.08,3.08,0,0,1,1.39-2.41,1,1,0,0,1,1-.1h0L142,15.75l-2,3.41L123.44,9.6h0A1,1,0,0,1,123,8.7Z" style="fill:#8b574f"/><path d="M114.28,3.65a3.12,3.12,0,0,1,1.4-2.41.94.94,0,0,1,1-.1h0l16.55,9.56-2,3.4L114.69,4.55h0A1,1,0,0,1,114.28,3.65Z" style="fill:#8b574f"/><path d="M142.37,16.65c0-.89-.63-1.25-1.39-.81a3.12,3.12,0,0,0-1.4,2.42c0,.88.63,1.24,1.4.8A3.1,3.1,0,0,0,142.37,16.65Z" style="fill:#693b3b"/><path d="M124.58,10.13a5.46,5.46,0,0,1,4.92,0c1.36.78,1.36,2.06,0,2.84a5.46,5.46,0,0,1-4.92,0C123.23,12.19,123.23,10.91,124.58,10.13Z" style="fill:#87a1c7"/><rect x="123.57" y="6.82" width="6.95" height="4.74" transform="translate(254.08 18.37) rotate(180)" style="fill:#87a1c7"/><path d="M124.58,5.4a5.46,5.46,0,0,1,4.92,0c1.36.78,1.36,2.06,0,2.84a5.46,5.46,0,0,1-4.92,0C123.23,7.46,123.23,6.18,124.58,5.4Z" style="fill:#b5cbeb"/><path d="M125.67,7.43a.84.84,0,0,1,0-1.59,3.09,3.09,0,0,1,2.75,0,.84.84,0,0,1,0,1.59A3,3,0,0,1,125.67,7.43Z" style="fill:#8b574f"/><rect x="125.1" y="4.22" width="3.88" height="2.42" style="fill:#8b574f"/><path d="M127.85,11.49a3.14,3.14,0,0,1,1.4-2.42,1,1,0,0,1,1-.09h0l6.08,3.51-2,3.41-6.09-3.52h0A1,1,0,0,1,127.85,11.49Z" style="fill:#8b574f"/><path d="M134.82,15.81A3.67,3.67,0,0,1,136.48,13a1.14,1.14,0,0,1,1.16-.12h0l1.18.68-2.34,4-1.17-.67h0A1.2,1.2,0,0,1,134.82,15.81Z" style="fill:#b5cbeb"/><path d="M139.3,14.58c0-1.05-.75-1.49-1.65-1A3.66,3.66,0,0,0,136,16.49c0,1.05.74,1.47,1.65,1A3.65,3.65,0,0,0,139.3,14.58Z" style="fill:#87a1c7"/><path d="M136.48,16.47a3.11,3.11,0,0,1,1.39-2.42,1,1,0,0,1,1-.09h0l3.1,1.79-2,3.41-3.1-1.79h0A1,1,0,0,1,136.48,16.47Z" style="fill:#8b574f"/><path d="M142.37,16.65c0-.89-.63-1.25-1.39-.81a3.12,3.12,0,0,0-1.4,2.42c0,.88.63,1.24,1.4.8A3.1,3.1,0,0,0,142.37,16.65Z" style="fill:#693b3b"/><path d="M116.1,5a3.64,3.64,0,0,1,1.65-2.86A1.14,1.14,0,0,1,118.91,2h0l1.18.68-2.34,4-1.17-.68h0A1.14,1.14,0,0,1,116.1,5Z" style="fill:#b5cbeb"/><path d="M120.57,3.77c0-1-.74-1.49-1.65-1a3.68,3.68,0,0,0-1.65,2.86c0,1,.74,1.48,1.65,1A3.66,3.66,0,0,0,120.57,3.77Z" style="fill:#87a1c7"/><path d="M117.75,5.66a3.14,3.14,0,0,1,1.4-2.42,1,1,0,0,1,1-.09h0l1.59.91-2,3.41-1.59-.92h0A1,1,0,0,1,117.75,5.66Z" style="fill:#8b574f"/><path d="M36.27,131.44v16.49a1.64,1.64,0,0,0,1,1.35,5.23,5.23,0,0,0,4.69,0,1.63,1.63,0,0,0,1-1.35V131.44Z" style="fill:#8a4e4b"/><path d="M24.79,146.43v4.94a1.94,1.94,0,0,0,1.14,1.6,6.16,6.16,0,0,0,5.55,0,2,2,0,0,0,1.15-1.6v-4.94Z" style="fill:#8a4e4b"/><path d="M37.22,136.18A3.45,3.45,0,0,0,40,134.86a1.1,1.1,0,0,0,.2-1.09h0l-4.31-9.15-4,1.87,4.31,9.15h0A1.11,1.11,0,0,0,37.22,136.18Z" style="fill:#8a4e4b"/><path d="M31.87,123c1,.08,1.33.81.76,1.61a3.44,3.44,0,0,1-2.8,1.33c-1-.09-1.32-.82-.76-1.62A3.4,3.4,0,0,1,31.87,123Z" style="fill:#8b574f"/><path d="M40,136.33A3.56,3.56,0,0,1,37.12,135a1.09,1.09,0,0,1-.21-1.12h0l9.72-20.7,4.14,2L41,135.77h0A1.12,1.12,0,0,1,40,136.33Z" style="fill:#8a4e4b"/><path d="M47.63,112.57c-1,.08-1.38.85-.79,1.69a3.6,3.6,0,0,0,2.93,1.38c1-.1,1.38-.85.79-1.69A3.55,3.55,0,0,0,47.63,112.57Z" style="fill:#8b574f"/><rect x="30.1" y="99.77" width="17.12" height="36.75" rx="8.56" transform="translate(121.65 25.59) rotate(60)" style="fill:#4bb494"/><rect x="30.09" y="99.06" width="17.14" height="22.96" rx="8.57" style="fill:#4bb494"/><path d="M31.48,148.05c1.53-.88,1.53-2.32,0-3.21a6.16,6.16,0,0,0-5.55,0c-1.53.89-1.53,2.33,0,3.21A6.16,6.16,0,0,0,31.48,148.05Z" style="fill:#ab7761"/><path d="M32.63,145.15v4.94a1.51,1.51,0,0,1-.27.81h-.88v-5.75Z" style="fill:#8a4e4b"/><path d="M29.64,146c.52.28.52.72,0,1a2.26,2.26,0,0,1-1.87,0c-.52-.27-.52-.71,0-1A2.26,2.26,0,0,1,29.64,146Z" style="fill:none;stroke:#8a4e4b;stroke-miterlimit:10;stroke-width:0.27541888134811px"/><ellipse cx="28.71" cy="146.45" rx="3.04" ry="1.67" style="fill:none;stroke:#8a4e4b;stroke-miterlimit:10;stroke-width:0.27541888134811px"/><polygon points="31.48 146.76 31.48 148.05 25.93 144.84 25.93 143.56 31.48 146.76" style="fill:#a15a48"/><path d="M31.48,146.76l-5.55-3.2a4.84,4.84,0,0,1,1.35-.51,6.17,6.17,0,0,1,4.2.51C33,144.44,33,145.88,31.48,146.76Z" style="fill:#ab7761"/><g style="clip-path:url(#a)"><path d="M29.64,144.67c.52.27.52.71,0,1a2.26,2.26,0,0,1-1.87,0c-.52-.27-.52-.71,0-1A2.26,2.26,0,0,1,29.64,144.67Z" style="fill:none;stroke:#8a4e4b;stroke-miterlimit:10;stroke-width:0.27541888134811px"/><ellipse cx="28.71" cy="145.16" rx="3.04" ry="1.67" style="fill:none;stroke:#8a4e4b;stroke-miterlimit:10;stroke-width:0.27541888134811px"/></g><line x1="30.8" y1="146.37" x2="30.8" y2="147.66" style="fill:none;stroke:#8a4e4b;stroke-linecap:round;stroke-miterlimit:10;stroke-width:0.27541888134811px"/><line x1="29.6" y1="145.68" x2="29.6" y2="146.96" style="fill:none;stroke:#8a4e4b;stroke-linecap:round;stroke-miterlimit:10;stroke-width:0.27541888134811px"/><line x1="27.81" y1="144.65" x2="27.81" y2="145.93" style="fill:none;stroke:#8a4e4b;stroke-linecap:round;stroke-miterlimit:10;stroke-width:0.27541888134811px"/><line x1="29.74" y1="150.17" x2="29.74" y2="151.67" style="fill:none;stroke:#8a4e4b;stroke-linecap:round;stroke-miterlimit:10;stroke-width:0.321194829712314px"/><path d="M131.3,214.74v11.19a.55.55,0,0,0,.32.45,1.74,1.74,0,0,0,1.57,0,.55.55,0,0,0,.32-.45V214.74Z" style="fill:#754741"/><path d="M133.19,215.2a.48.48,0,0,0,0-.91,1.74,1.74,0,0,0-1.57,0,.48.48,0,0,0,0,.91A1.8,1.8,0,0,0,133.19,215.2Z" style="fill:#a36d5c"/><path d="M166.79,194.58v11.19a.56.56,0,0,0,.33.45,1.72,1.72,0,0,0,1.56,0,.54.54,0,0,0,.32-.45V194.58Z" style="fill:#754741"/><path d="M168.68,195a.48.48,0,0,0,0-.9,1.72,1.72,0,0,0-1.56,0,.48.48,0,0,0,0,.9A1.72,1.72,0,0,0,168.68,195Z" style="fill:#a36d5c"/><path d="M156,201.13v11.19a.57.57,0,0,0,.32.45,1.74,1.74,0,0,0,1.57,0,.57.57,0,0,0,.32-.45V201.13Z" style="fill:#754741"/><path d="M157.93,201.58a.48.48,0,0,0,0-.9,1.74,1.74,0,0,0-1.57,0,.48.48,0,0,0,0,.9A1.74,1.74,0,0,0,157.93,201.58Z" style="fill:#a36d5c"/><path d="M11,145.32v11.19a.55.55,0,0,0,.33.45,1.72,1.72,0,0,0,1.56,0,.55.55,0,0,0,.33-.45V145.32Z" style="fill:#754741"/><path d="M12.85,145.78a.48.48,0,0,0,0-.91,1.72,1.72,0,0,0-1.56,0,.48.48,0,0,0,0,.91A1.78,1.78,0,0,0,12.85,145.78Z" style="fill:#a36d5c"/><path d="M170,182.33v1.46a.66.66,0,0,0,.38.53l7.73,4.46a2,2,0,0,0,1.86,0l5.3-3.07a.63.63,0,0,0,.38-.55v-1.48Z" style="fill:#f7e080"/><path d="M176.62,178a2,2,0,0,1,.93.22l7.73,4.47a.57.57,0,0,1,0,1.07l-5.3,3.07a1.91,1.91,0,0,1-.93.22,1.88,1.88,0,0,1-.93-.22l-7.73-4.46a.57.57,0,0,1,0-1.07l5.31-3.08a2,2,0,0,1,.92-.22m0-.43a2.32,2.32,0,0,0-1.14.28l-5.3,3.08a1,1,0,0,0,0,1.81l7.73,4.46a2.29,2.29,0,0,0,1.14.28,2.32,2.32,0,0,0,1.14-.28l5.31-3.07a1.08,1.08,0,0,0,.59-.91,1,1,0,0,0-.6-.9l-7.73-4.47a2.29,2.29,0,0,0-1.14-.28Z" style="fill:#fbcd2e"/><path d="M170,180.37v1.46a.66.66,0,0,0,.38.53l7.73,4.46a2,2,0,0,0,1.86,0l5.3-3.07a.63.63,0,0,0,.38-.55v-1.48Z" style="fill:#f7e080"/><path d="M176.62,176.06a1.85,1.85,0,0,1,.93.22l7.73,4.46a.57.57,0,0,1,0,1.08l-5.3,3.07a1.91,1.91,0,0,1-.93.22,1.88,1.88,0,0,1-.93-.22l-7.73-4.46a.57.57,0,0,1,0-1.07l5.31-3.08a1.84,1.84,0,0,1,.92-.22m0-.43a2.32,2.32,0,0,0-1.14.28l-5.3,3.08a1,1,0,0,0,0,1.81l7.73,4.46a2.29,2.29,0,0,0,1.14.28,2.32,2.32,0,0,0,1.14-.28l5.31-3.07a1,1,0,0,0,0-1.82l-7.73-4.46a2.29,2.29,0,0,0-1.14-.28Z" style="fill:#fbcd2e"/><path d="M170,178.43v1.46a.66.66,0,0,0,.38.54l7.73,4.46a2,2,0,0,0,1.86,0l5.3-3.07a.66.66,0,0,0,.38-.55v-1.49Z" style="fill:#f7e080"/><path d="M185.28,179.28a.57.57,0,0,1,0,1.08l-5.3,3.07a2,2,0,0,1-1.86,0L170.39,179a.57.57,0,0,1,0-1.07l5.31-3.08a2.08,2.08,0,0,1,1.85,0Z" style="fill:#ffefc9"/><line x1="184.9" y1="179.51" x2="185.46" y2="178.96" style="fill:none;stroke:#ffefc9;stroke-linecap:round;stroke-miterlimit:10;stroke-width:0.428259772949753px"/><line x1="176.37" y1="174.73" x2="176.04" y2="174.51" style="fill:none;stroke:#ffefc9;stroke-linecap:round;stroke-miterlimit:10;stroke-width:0.428259772949753px"/><line x1="176.59" y1="174.89" x2="176.74" y2="174.43" style="fill:none;stroke:#ffefc9;stroke-linecap:round;stroke-miterlimit:10;stroke-width:0.428259772949753px"/><line x1="170.22" y1="178.36" x2="169.85" y2="177.99" style="fill:none;stroke:#ffefc9;stroke-linecap:round;stroke-miterlimit:10;stroke-width:0.428259772949753px"/><line x1="170.51" y1="178.46" x2="169.67" y2="178.66" style="fill:none;stroke:#ffefc9;stroke-linecap:round;stroke-miterlimit:10;stroke-width:0.428259772949753px"/><line x1="185.18" y1="179.61" x2="185.83" y2="179.43" style="fill:none;stroke:#ffefc9;stroke-linecap:round;stroke-miterlimit:10;stroke-width:0.428259772949753px"/><line x1="179.05" y1="183.32" x2="178.61" y2="184.06" style="fill:none;stroke:#ffefc9;stroke-linecap:round;stroke-miterlimit:10;stroke-width:0.428259772949753px"/><line x1="178.99" y1="183.43" x2="179.34" y2="183.71" style="fill:none;stroke:#ffefc9;stroke-linecap:round;stroke-miterlimit:10;stroke-width:0.428259772949753px"/><line x1="180.76" y1="176.88" x2="180.98" y2="176.47" style="fill:none;stroke:#ffefc9;stroke-linecap:round;stroke-miterlimit:10;stroke-width:0.428259772949753px"/><line x1="174.44" y1="181.04" x2="174.13" y2="181.38" style="fill:none;stroke:#ffefc9;stroke-linecap:round;stroke-miterlimit:10;stroke-width:0.428259772949753px"/><line x1="182.12" y1="181.92" x2="182.58" y2="182.08" style="fill:none;stroke:#ffefc9;stroke-linecap:round;stroke-miterlimit:10;stroke-width:0.428259772949753px"/><line x1="173.64" y1="176.22" x2="173.48" y2="175.83" style="fill:none;stroke:#ffefc9;stroke-linecap:round;stroke-miterlimit:10;stroke-width:0.428259772949753px"/><line x1="172.92" y1="176.21" x2="173.28" y2="176.22" style="fill:none;stroke:#ffefc9;stroke-linecap:round;stroke-miterlimit:10;stroke-width:0.428259772949753px"/><line x1="170.18" y1="181.37" x2="169.65" y2="181.36" style="fill:none;stroke:#f7e080;stroke-linecap:round;stroke-miterlimit:10;stroke-width:0.428259772949753px"/><line x1="184" y1="181.43" x2="184.2" y2="180.77" style="fill:none;stroke:#f7e080;stroke-linecap:round;stroke-miterlimit:10;stroke-width:0.428259772949753px"/><line x1="185.31" y1="184.84" x2="185.88" y2="184.77" style="fill:none;stroke:#f7e080;stroke-linecap:round;stroke-miterlimit:10;stroke-width:0.428259772949753px"/><line x1="170.53" y1="184.11" x2="169.91" y2="184.34" style="fill:none;stroke:#f7e080;stroke-linecap:round;stroke-miterlimit:10;stroke-width:0.428259772949753px"/><line x1="178.77" y1="188.56" x2="178.25" y2="189.26" style="fill:none;stroke:#f7e080;stroke-linecap:round;stroke-miterlimit:10;stroke-width:0.428259772949753px"/><line x1="178.83" y1="188.77" x2="179.34" y2="189.23" style="fill:none;stroke:#f7e080;stroke-linecap:round;stroke-miterlimit:10;stroke-width:0.428259772949753px"/><line x1="172.45" y1="180.49" x2="173.1" y2="180.28" style="fill:none;stroke:#f7e080;stroke-linecap:round;stroke-miterlimit:10;stroke-width:0.428259772949753px"/><line x1="178.33" y1="183.71" x2="178.3" y2="183.26" style="fill:none;stroke:#f7e080;stroke-linecap:round;stroke-miterlimit:10;stroke-width:0.428259772949753px"/><line x1="181.72" y1="180.59" x2="181.97" y2="180.22" style="fill:none;stroke:#f7e080;stroke-linecap:round;stroke-miterlimit:10;stroke-width:0.428259772949753px"/><line x1="173.86" y1="178.8" x2="174.29" y2="178.94" style="fill:none;stroke:#f7e080;stroke-linecap:round;stroke-miterlimit:10;stroke-width:0.428259772949753px"/><line x1="177.93" y1="177.24" x2="177.67" y2="177.54" style="fill:none;stroke:#f7e080;stroke-linecap:round;stroke-miterlimit:10;stroke-width:0.428259772949753px"/><line x1="176.77" y1="177.24" x2="176.97" y2="177.39" style="fill:none;stroke:#f7e080;stroke-linecap:round;stroke-miterlimit:10;stroke-width:0.428259772949753px"/><line x1="179.27" y1="181.67" x2="179.43" y2="181.84" style="fill:none;stroke:#f7e080;stroke-linecap:round;stroke-miterlimit:10;stroke-width:0.428259772949753px"/><line x1="196.37" y1="182.84" x2="183.57" y2="175.45" style="fill:none;stroke:#5e3434;stroke-linecap:round;stroke-linejoin:round;stroke-width:1.07064943237438px"/><path d="M195.08,178v11.19a.56.56,0,0,0,.33.45,1.72,1.72,0,0,0,1.56,0,.56.56,0,0,0,.33-.45V178Z" style="fill:#754741"/><path d="M197,178.42a.48.48,0,0,0,0-.9,1.72,1.72,0,0,0-1.56,0,.48.48,0,0,0,0,.9A1.72,1.72,0,0,0,197,178.42Z" style="fill:#a36d5c"/><path d="M72.65,159.32a2.18,2.18,0,0,0-1-1.7.66.66,0,0,0-.69-.07h0L66.79,160l1.39,2.41L72.36,160h0A.72.72,0,0,0,72.65,159.32Z" style="fill:#754741"/><path d="M66.5,160.59c0-.62.45-.88,1-.56a2.19,2.19,0,0,1,1,1.7c0,.63-.44.88-1,.57A2.16,2.16,0,0,1,66.5,160.59Z" style="fill:#613235"/><path d="M75,160.68a2.19,2.19,0,0,0-1-1.7.68.68,0,0,0-.69-.07h0l-4.18,2.41,1.39,2.41,4.18-2.41h0A.74.74,0,0,0,75,160.68Z" style="fill:#754741"/><path d="M68.86,162c0-.63.45-.89,1-.57a2.21,2.21,0,0,1,1,1.7c0,.63-.44.88-1,.57A2.19,2.19,0,0,1,68.86,162Z" style="fill:#613235"/><path d="M77.37,162.05a2.2,2.2,0,0,0-1-1.71.68.68,0,0,0-.69-.07h0l-4.18,2.42,1.39,2.4,4.18-2.41h0A.72.72,0,0,0,77.37,162.05Z" style="fill:#754741"/><path d="M71.22,163.32c0-.62.45-.88,1-.57a2.18,2.18,0,0,1,1,1.71c0,.62-.44.88-1,.57A2.21,2.21,0,0,1,71.22,163.32Z" style="fill:#613235"/><path d="M80.46,163.77a2.18,2.18,0,0,0-1-1.7.66.66,0,0,0-.69-.07h0l-4.18,2.41,1.39,2.4,4.18-2.41h0A.72.72,0,0,0,80.46,163.77Z" style="fill:#754741"/><path d="M74.31,165c0-.62.45-.88,1-.56a2.19,2.19,0,0,1,1,1.7c0,.62-.44.88-1,.57A2.16,2.16,0,0,1,74.31,165Z" style="fill:#613235"/><path d="M73.82,158.16a2.19,2.19,0,0,0-1-1.7.66.66,0,0,0-.69-.07h0L68,158.8l1.39,2.41,4.18-2.41h0A.71.71,0,0,0,73.82,158.16Z" style="fill:#754741"/><path d="M67.67,159.44c0-.63.45-.89,1-.57a2.18,2.18,0,0,1,1,1.7c0,.63-.44.88-1,.57A2.19,2.19,0,0,1,67.67,159.44Z" style="fill:#613235"/><path d="M76.18,159.52a2.21,2.21,0,0,0-1-1.7.7.7,0,0,0-.7-.07h0l-4.18,2.41,1.39,2.41,4.18-2.41h0A.69.69,0,0,0,76.18,159.52Z" style="fill:#754741"/><path d="M70,160.8c0-.63.45-.89,1-.57a2.18,2.18,0,0,1,1,1.7c0,.63-.44.88-1,.57A2.19,2.19,0,0,1,70,160.8Z" style="fill:#613235"/><path d="M75,157a2.21,2.21,0,0,0-1-1.7.7.7,0,0,0-.7-.07h0l-4.18,2.41,1.39,2.41,4.18-2.41h0A.71.71,0,0,0,75,157Z" style="fill:#754741"/><path d="M68.89,158.29c0-.63.44-.89,1-.57a2.18,2.18,0,0,1,1,1.7c0,.63-.44.88-1,.57A2.18,2.18,0,0,1,68.89,158.29Z" style="fill:#613235"/><polygon points="132.7 141.79 132.7 152.59 136.63 150.31 136.63 139.52 132.7 141.79" style="fill:#9c6241"/><polygon points="133.68 142.22 133.68 150.92 135.66 149.78 135.66 141.08 133.68 142.22" style="fill:#ffefc9"/><polygon points="132.26 141.53 132.7 141.79 136.63 139.52 136.19 139.26 132.26 141.53" style="fill:#965138"/><polygon points="134.36 141.82 134.36 149.03 135.66 149.78 135.66 141.08 134.36 141.82" style="fill:#ffbe33"/><polygon points="132.7 141.79 132.7 152.58 132.26 152.33 132.26 141.53 132.7 141.79" style="fill:#613235"/><polygon points="135.66 149.78 134.36 149.03 133.68 149.43 133.68 150.92 135.66 149.78" style="fill:#faa100"/><polygon points="132.26 141.53 132.26 143.92 136.63 141.39 136.63 139.52 136.19 139.26 132.26 141.53" style="fill:#613235;opacity:0.30000000000000004;mix-blend-mode:multiply"/><polygon points="110.6 141.97 110.6 152.76 106.67 150.48 106.67 139.69 110.6 141.97" style="fill:#9c6241"/><polygon points="109.62 142.39 109.62 151.09 107.64 149.95 107.64 141.25 109.62 142.39" style="fill:#ffefc9"/><polygon points="111.04 141.7 110.6 141.97 106.67 139.69 107.11 139.43 111.04 141.7" style="fill:#965138"/><polygon points="108.93 142 108.93 149.2 107.64 149.95 107.64 141.25 108.93 142" style="fill:#ffbe33"/><polygon points="110.6 141.97 110.6 152.75 111.04 152.5 111.04 141.7 110.6 141.97" style="fill:#613235"/><polygon points="107.64 149.95 108.93 149.2 109.62 149.6 109.62 151.09 107.64 149.95" style="fill:#faa100"/><polygon points="111.04 141.7 111.04 144.09 106.67 141.56 106.67 139.69 107.11 139.43 111.04 141.7" style="fill:#613235;opacity:0.30000000000000004;mix-blend-mode:multiply"/><polygon points="99.99 135.84 99.99 146.63 96.05 144.36 96.05 133.57 99.99 135.84" style="fill:#9c6241"/><polygon points="99.01 136.27 99.01 144.97 97.03 143.82 97.03 135.12 99.01 136.27" style="fill:#ffefc9"/><polygon points="100.43 135.58 99.99 135.84 96.05 133.57 96.5 133.3 100.43 135.58" style="fill:#965138"/><polygon points="98.32 135.87 98.32 143.07 97.03 143.82 97.03 135.12 98.32 135.87" style="fill:#ffbe33"/><polygon points="99.99 135.84 99.99 146.63 100.43 146.37 100.43 135.58 99.99 135.84" style="fill:#613235"/><polygon points="97.03 143.82 98.32 143.07 99.01 143.47 99.01 144.97 97.03 143.82" style="fill:#faa100"/><polygon points="100.43 135.58 100.43 137.97 96.05 135.44 96.05 133.57 96.5 133.3 100.43 135.58" style="fill:#613235;opacity:0.30000000000000004;mix-blend-mode:multiply"/><line x1="162.85" y1="180.82" x2="162.85" y2="178.15" style="fill:none;stroke:#000;stroke-linecap:round;stroke-miterlimit:10;stroke-width:1.07064943237438px"/><line x1="164.98" y1="179.59" x2="164.98" y2="176.92" style="fill:none;stroke:#000;stroke-linecap:round;stroke-miterlimit:10;stroke-width:1.07064943237438px"/><line x1="158.97" y1="178.58" x2="158.97" y2="175.91" style="fill:none;stroke:#000;stroke-linecap:round;stroke-miterlimit:10;stroke-width:1.07064943237438px"/><line x1="161.1" y1="177.35" x2="161.1" y2="174.68" style="fill:none;stroke:#000;stroke-linecap:round;stroke-miterlimit:10;stroke-width:1.07064943237438px"/><rect x="158.25" y="168.48" width="8.11" height="11.68" rx="4.05" transform="translate(-69.81 227.72) rotate(-60)" style="fill:#fff2d4"/><circle cx="158.82" cy="169.39" r="0.97" style="fill:#fff2d4"/><line x1="167.85" y1="177.43" x2="168.77" y2="177.03" style="fill:none;stroke:#26917f;stroke-linecap:round;stroke-miterlimit:10;stroke-width:0.535324716187191px"/><line x1="167.85" y1="177.43" x2="168.77" y2="177.81" style="fill:none;stroke:#26917f;stroke-linecap:round;stroke-miterlimit:10;stroke-width:0.535324716187191px"/><path d="M164.94,173.56h0a1.92,1.92,0,0,0-1,2.41l.64,1.66a1.88,1.88,0,0,0,2.54,1.06h0a1.89,1.89,0,0,0,1-2.4l-.63-1.67A1.9,1.9,0,0,0,164.94,173.56Z"/><path d="M165.46,174.22a1.9,1.9,0,0,0,1-1.24.56.56,0,0,0-1.05-.37A1.89,1.89,0,0,0,165.46,174.22Z"/><path d="M165.46,174.22a2,2,0,0,0-1.37-.86.56.56,0,0,0-.23,1.09A1.91,1.91,0,0,0,165.46,174.22Z"/><line x1="165.52" y1="178.44" x2="164.58" y2="178.77" style="fill:none;stroke:#26917f;stroke-linecap:round;stroke-miterlimit:10;stroke-width:0.535324716187191px"/><line x1="165.52" y1="178.44" x2="165.11" y2="179.35" style="fill:none;stroke:#26917f;stroke-linecap:round;stroke-miterlimit:10;stroke-width:0.535324716187191px"/><line x1="217.05" y1="158.51" x2="217.05" y2="155.84" style="fill:none;stroke:#000;stroke-linecap:round;stroke-miterlimit:10;stroke-width:1.07064943237438px"/><line x1="214.92" y1="157.28" x2="214.92" y2="154.61" style="fill:none;stroke:#000;stroke-linecap:round;stroke-miterlimit:10;stroke-width:1.07064943237438px"/><line x1="220.93" y1="156.27" x2="220.93" y2="153.6" style="fill:none;stroke:#000;stroke-linecap:round;stroke-miterlimit:10;stroke-width:1.07064943237438px"/><line x1="218.8" y1="155.04" x2="218.8" y2="152.37" style="fill:none;stroke:#000;stroke-linecap:round;stroke-miterlimit:10;stroke-width:1.07064943237438px"/><rect x="213.53" y="146.17" width="8.11" height="11.68" rx="4.05" transform="translate(194.74 416.45) rotate(-120)" style="fill:#fff2d4"/><circle cx="221.07" cy="147.08" r="0.97" style="fill:#fff2d4"/><line x1="213.65" y1="157.57" x2="213.21" y2="158.47" style="fill:none;stroke:#26917f;stroke-linecap:round;stroke-miterlimit:10;stroke-width:0.535324716187191px"/><line x1="213.65" y1="157.57" x2="214" y2="158.51" style="fill:none;stroke:#26917f;stroke-linecap:round;stroke-miterlimit:10;stroke-width:0.535324716187191px"/><path d="M213.33,152.36h0a1.9,1.9,0,0,1,1.84,1.84l.05,1.79a1.9,1.9,0,0,1-1.95,1.95h0a1.9,1.9,0,0,1-1.84-1.84l-.05-1.78A1.91,1.91,0,0,1,213.33,152.36Z"/><path d="M213.19,153.33a1.91,1.91,0,0,1-1-1.24.56.56,0,0,1,1-.37A1.93,1.93,0,0,1,213.19,153.33Z"/><path d="M213.19,153.33a1.91,1.91,0,0,1,1.36-.86.56.56,0,0,1,.23,1.09A1.88,1.88,0,0,1,213.19,153.33Z"/><line x1="166.55" y1="182.31" x2="166.55" y2="180.63" style="fill:none;stroke:#41b09e;stroke-linecap:round;stroke-miterlimit:10;stroke-width:0.535324716187191px"/><line x1="166.55" y1="182.31" x2="167.64" y2="181.03" style="fill:none;stroke:#41b09e;stroke-linecap:round;stroke-miterlimit:10;stroke-width:0.535324716187191px"/><line x1="166.55" y1="182.31" x2="165.59" y2="181.77" style="fill:none;stroke:#41b09e;stroke-linecap:round;stroke-miterlimit:10;stroke-width:0.535324716187191px"/><line x1="212.11" y1="161.74" x2="212.11" y2="160.06" style="fill:none;stroke:#41b09e;stroke-linecap:round;stroke-miterlimit:10;stroke-width:0.535324716187191px"/><line x1="212.11" y1="161.74" x2="211.02" y2="160.46" style="fill:none;stroke:#41b09e;stroke-linecap:round;stroke-miterlimit:10;stroke-width:0.535324716187191px"/><line x1="212.11" y1="161.74" x2="213.06" y2="161.2" style="fill:none;stroke:#41b09e;stroke-linecap:round;stroke-miterlimit:10;stroke-width:0.535324716187191px"/><path d="M47.35,138.33c.63,1.58,1.26,3,1.26,3" style="fill:none;stroke:#000;stroke-linecap:round;stroke-miterlimit:10;stroke-width:1.07064943237438px"/><line x1="44.38" y1="141.99" x2="49.48" y2="135.95" style="fill:none;stroke:#a6653d;stroke-linecap:round;stroke-miterlimit:10;stroke-width:0.856519545899505px"/><path d="M48,145.88a8.76,8.76,0,0,1-2.55-5.18" style="fill:none;stroke:#000;stroke-linecap:round;stroke-miterlimit:10;stroke-width:1.07064943237438px"/><path d="M49.25,137.5h0a1.05,1.05,0,0,1-1.15-.14l-3-2.59,2.66-3.26.29-.14,3.31,3.53a.43.43,0,0,1,0,.55l-1.76,1.84A.86.86,0,0,1,49.25,137.5Z" style="fill:#d4e4ff"/><path d="M51.09,135.42h0a.45.45,0,0,1-.54-.13l-2.81-3.78.29-.14,3.21,3.4A.43.43,0,0,1,51.09,135.42Z" style="fill:#e6efff"/><line x1="50.81" y1="134.8" x2="51.18" y2="134.36" style="fill:none;stroke:#a6653d;stroke-linecap:round;stroke-miterlimit:10;stroke-width:0.856519545899505px"/><line x1="119.27" y1="101.61" x2="150.71" y2="167.74" style="fill:none;stroke:#542e2e;stroke-linecap:round;stroke-linejoin:round;stroke-width:1.07064943237438px"/><line x1="114.28" y1="104.5" x2="145.72" y2="170.63" style="fill:none;stroke:#542e2e;stroke-linecap:round;stroke-linejoin:round;stroke-width:1.07064943237438px"/><line x1="117.32" y1="110.92" x2="122.31" y2="108.04" style="fill:none;stroke:#542e2e;stroke-linecap:round;stroke-linejoin:round;stroke-width:1.07064943237438px"/><line x1="120.08" y1="116.74" x2="125.08" y2="113.86" style="fill:none;stroke:#542e2e;stroke-linecap:round;stroke-linejoin:round;stroke-width:1.07064943237438px"/><line x1="122.85" y1="122.56" x2="127.84" y2="119.67" style="fill:none;stroke:#542e2e;stroke-linecap:round;stroke-linejoin:round;stroke-width:1.07064943237438px"/><line x1="125.61" y1="128.37" x2="130.61" y2="125.49" style="fill:none;stroke:#542e2e;stroke-linecap:round;stroke-linejoin:round;stroke-width:1.07064943237438px"/><line x1="128.38" y1="134.19" x2="133.37" y2="131.31" style="fill:none;stroke:#542e2e;stroke-linecap:round;stroke-linejoin:round;stroke-width:1.07064943237438px"/><line x1="131.15" y1="140.01" x2="136.14" y2="137.13" style="fill:none;stroke:#542e2e;stroke-linecap:round;stroke-linejoin:round;stroke-width:1.07064943237438px"/><line x1="133.91" y1="145.83" x2="138.9" y2="142.95" style="fill:none;stroke:#542e2e;stroke-linecap:round;stroke-linejoin:round;stroke-width:1.07064943237438px"/><line x1="136.68" y1="151.65" x2="141.67" y2="148.76" style="fill:none;stroke:#542e2e;stroke-linecap:round;stroke-linejoin:round;stroke-width:1.07064943237438px"/><line x1="139.44" y1="157.47" x2="144.44" y2="154.58" style="fill:none;stroke:#542e2e;stroke-linecap:round;stroke-linejoin:round;stroke-width:1.07064943237438px"/><line x1="142.21" y1="163.28" x2="147.2" y2="160.4" style="fill:none;stroke:#542e2e;stroke-linecap:round;stroke-linejoin:round;stroke-width:1.07064943237438px"/><polygon points="116.93 157.02 111.61 157.02 112.31 161.47 116.23 161.47 116.93 157.02" style="fill:#d4e4ff"/><path d="M116.16,158a1.16,1.16,0,0,0,0-2.19,4.19,4.19,0,0,0-3.78,0,1.16,1.16,0,0,0,0,2.19A4.19,4.19,0,0,0,116.16,158Z" style="fill:#afc5e6"/><path d="M115.78,157.69c.83-.44.83-1.17,0-1.61a3.55,3.55,0,0,0-3,0c-.83.44-.83,1.17,0,1.61A3.55,3.55,0,0,0,115.78,157.69Z" style="fill:#607694"/><path d="M115.78,157a3.62,3.62,0,0,0-3,0,1.55,1.55,0,0,0-.45.36,1.4,1.4,0,0,0,.45.36,3.55,3.55,0,0,0,3,0,1.3,1.3,0,0,0,.45-.36A1.42,1.42,0,0,0,115.78,157Z" style="fill:#718ef7"/><path d="M115.66,162.15c.76-.41.76-1.08,0-1.49a3.3,3.3,0,0,0-2.78,0c-.76.41-.76,1.08,0,1.49A3.3,3.3,0,0,0,115.66,162.15Z" style="fill:#d4e4ff"/><path d="M116.48,158.07l-1.26,1.47a2.65,2.65,0,0,1-3.15.47l-.63-.34a1.59,1.59,0,0,1-.63-2.49l1.26-1.48" style="fill:none;stroke:#5a5f6d;stroke-linecap:round;stroke-linejoin:round;stroke-width:0.428259772949753px"/><path d="M124.9,102.25l0-1.43a2.63,2.63,0,0,0-2.57-2.69h0a2.62,2.62,0,0,0-2.69,2.57l0,1.39a4.43,4.43,0,0,1-.9,2.54,4.25,4.25,0,0,0-.79,3.05,4.17,4.17,0,0,0,3.34,3.6,4.23,4.23,0,0,0,5.09-4,4.18,4.18,0,0,0-.69-2.42A4.5,4.5,0,0,1,124.9,102.25Z"/><line x1="123.33" y1="106.42" x2="123.13" y2="114.86" style="fill:none;stroke:#000;stroke-linecap:round;stroke-miterlimit:10;stroke-width:1.07064943237438px"/><line x1="121.4" y1="107.66" x2="121.2" y2="116.09" style="fill:none;stroke:#000;stroke-linecap:round;stroke-miterlimit:10;stroke-width:1.07064943237438px"/><path d="M114.68,104.75c3.41,1.91,5.13.72,5.13.72" style="fill:none;stroke:#000;stroke-linecap:round;stroke-miterlimit:10;stroke-width:1.07064943237438px"/><path d="M124.1,104.09c3.56-1.62,3.62-3.71,3.62-3.71" style="fill:none;stroke:#000;stroke-linecap:round;stroke-miterlimit:10;stroke-width:1.07064943237438px"/><path d="M194.72,139.47l.05-1.43a2.64,2.64,0,0,0-2.52-2.74h0a2.65,2.65,0,0,0-2.74,2.53l0,1.39a4.47,4.47,0,0,1-1,2.52,4.29,4.29,0,0,0-.84,3,4.18,4.18,0,0,0,3.28,3.66,4.24,4.24,0,0,0,4.51-6.4A4.43,4.43,0,0,1,194.72,139.47Z"/><line x1="193" y1="143.54" x2="192.8" y2="151.97" style="fill:none;stroke:#000;stroke-linecap:round;stroke-miterlimit:10;stroke-width:1.07064943237438px"/><line x1="191.07" y1="144.78" x2="190.87" y2="153.21" style="fill:none;stroke:#000;stroke-linecap:round;stroke-miterlimit:10;stroke-width:1.07064943237438px"/><path d="M215.88,170.18l.06-1.62a3,3,0,0,0-2.85-3.08h0a3,3,0,0,0-3.08,2.85l-.06,1.56a5.05,5.05,0,0,1-1.07,2.85,4.78,4.78,0,0,0,2.75,7.55,4.77,4.77,0,0,0,5.08-7.21A5,5,0,0,1,215.88,170.18Z"/><line x1="213.94" y1="174.76" x2="213.72" y2="184.27" style="fill:none;stroke:#000;stroke-linecap:round;stroke-miterlimit:10;stroke-width:1.20707887666146px"/><line x1="211.76" y1="176.16" x2="211.54" y2="185.67" style="fill:none;stroke:#000;stroke-linecap:round;stroke-miterlimit:10;stroke-width:1.20707887666146px"/><path d="M194.44,141.65c2.11-.42,2.33-2.77,2.07-5.28" style="fill:none;stroke:#000;stroke-linecap:round;stroke-miterlimit:10;stroke-width:1.07064943237438px"/><path d="M217.71,169.93a1.48,1.48,0,0,1-1.48,1.48A1.48,1.48,0,0,1,217.71,169.93Z" style="fill:#4a76e6"/><path d="M189.36,142.13c-1.84,1.15-3.57,3.35-.82,5.71" style="fill:none;stroke:#000;stroke-linecap:round;stroke-miterlimit:10;stroke-width:1.07064943237438px"/><line x1="207.61" y1="173.13" x2="216.82" y2="171.62" style="fill:none;stroke:#c47748;stroke-linecap:round;stroke-miterlimit:10;stroke-width:0.724247325996874px"/><path d="M210.5,173.88c-2.32,1.69-5,3.35-3-.37" style="fill:none;stroke:#000;stroke-linecap:round;stroke-miterlimit:10;stroke-width:1.20707887666146px"/><path d="M218.41,175.05,216.3,171l-2.1,4.05a2.37,2.37,0,0,0,.42,2.77h0a2.37,2.37,0,0,0,3.36,0h0A2.35,2.35,0,0,0,218.41,175.05Z" style="fill:#4a76e6"/><path d="M214.93,169.93a1.49,1.49,0,0,0,1.49,1.48A1.49,1.49,0,0,0,214.93,169.93Z" style="fill:#4a76e6"/><path d="M213.93,176.09a2.28,2.28,0,0,0,.35,1.27h0v-1.27Z" style="fill:#d4e4ff"/><path d="M214.28,177.38a2.46,2.46,0,0,0,.34.44,2.56,2.56,0,0,0,.94.57v-1h-1.28Z" style="fill:#d4e4ff"/><path d="M216.83,178.45a2.31,2.31,0,0,0,1.15-.63.81.81,0,0,0,.12-.14v-.32h-1.27Z" style="fill:#d4e4ff"/><polygon points="217.63 173.55 216.97 172.27 216.83 172.27 216.83 173.55 217.63 173.55" style="fill:#d4e4ff"/><path d="M218.33,177.36a2.36,2.36,0,0,0,.35-1.27h-.58v1.27Z" style="fill:#d4e4ff"/><polygon points="218.1 174.45 218.1 174.82 218.29 174.82 218.1 174.45" style="fill:#d4e4ff"/><rect x="215.56" y="173.55" width="1.27" height="1.27" style="fill:#d4e4ff"/><polygon points="216.83 172.27 216.83 172.01 216.3 171 215.64 172.27 216.83 172.27" style="fill:#d4e4ff"/><polygon points="214.98 173.55 215.56 173.55 215.56 172.44 214.98 173.55" style="fill:#d4e4ff"/><polygon points="215.56 174.82 214.32 174.82 214.28 174.88 214.28 176.09 215.56 176.09 215.56 174.82" style="fill:#d4e4ff"/><rect x="215.56" y="176.09" width="1.27" height="1.27" style="fill:#d4e4ff"/><rect x="216.83" y="174.82" width="1.27" height="1.27" style="fill:#d4e4ff"/><line x1="239.03" y1="154.65" x2="222.71" y2="164.08" style="fill:none;stroke:#542e2e;stroke-linecap:round;stroke-linejoin:round;stroke-width:1.07064943237438px"/><polygon points="233.31 155.61 230.92 156.99 230.92 164.97 231.49 165.3 233.88 163.91 233.88 155.94 233.31 155.61" style="fill:#7a3f29"/><polygon points="233.88 155.94 231.49 157.32 231.49 165.3 233.88 163.91 233.88 155.94" style="fill:#b06946"/><polygon points="229.92 157.57 227.52 158.95 227.52 166.93 228.09 167.26 230.49 165.88 230.49 157.9 229.92 157.57" style="fill:#7a3f29"/><polygon points="230.49 157.9 228.09 159.28 228.09 167.26 230.49 165.88 230.49 157.9" style="fill:#b06946"/><polygon points="237.11 153.41 235.36 154.43 235.36 162.41 235.93 162.73 237.68 161.72 237.68 153.74 237.11 153.41" style="fill:#7a3f29"/><polygon points="237.68 153.74 235.93 154.75 235.93 162.73 237.68 161.72 237.68 153.74" style="fill:#b06946"/><polygon points="226.29 159.66 224.53 160.67 224.53 168.65 225.1 168.98 226.86 167.97 226.86 159.99 226.29 159.66" style="fill:#7a3f29"/><polygon points="226.86 159.99 225.1 161 225.1 168.98 226.86 167.97 226.86 159.99" style="fill:#b06946"/><path d="M238.52,149.9v11.18a.54.54,0,0,0,.32.45,1.74,1.74,0,0,0,1.57,0,.54.54,0,0,0,.32-.45V149.9Z" style="fill:#754741"/><path d="M240.41,150.35a.48.48,0,0,0,0-.91,1.8,1.8,0,0,0-1.57,0,.48.48,0,0,0,0,.91A1.74,1.74,0,0,0,240.41,150.35Z" style="fill:#a36d5c"/><path d="M221.6,158.89v11.19a.55.55,0,0,0,.33.45,1.72,1.72,0,0,0,1.56,0,.55.55,0,0,0,.33-.45V158.89Z" style="fill:#754741"/><path d="M223.49,159.34a.48.48,0,0,0,0-.9,1.72,1.72,0,0,0-1.56,0,.48.48,0,0,0,0,.9A1.72,1.72,0,0,0,223.49,159.34Z" style="fill:#a36d5c"/><path d="M225.65,145.37c2-1.18,2-3.1,0-4.28a8.24,8.24,0,0,0-7.4,0c-2,1.18-2,3.1,0,4.28A8.24,8.24,0,0,0,225.65,145.37Z" style="fill:#41b09e"/><path d="M210.22,136.46c2-1.17,2-3.1,0-4.27a8.22,8.22,0,0,0-7.39,0c-2,1.18-2,3.1,0,4.27A8.18,8.18,0,0,0,210.22,136.46Z" style="fill:#41b09e"/><rect x="219.14" y="132.81" width="8.53" height="11.42" rx="4.26" style="fill:#388c70"/><path d="M221.38,137.6c0-.31.23-.44.5-.28a1.08,1.08,0,0,1,.49.85c0,.31-.22.43-.49.28A1.11,1.11,0,0,1,221.38,137.6Z" style="fill:#f19703"/><path d="M225.68,136.26c0-.31-.22-.44-.49-.29a1.11,1.11,0,0,0-.49.85c0,.32.22.44.49.29A1.1,1.1,0,0,0,225.68,136.26Z" style="fill:#f19703"/><circle cx="222.73" cy="135.45" r="0.36" style="fill:#f19703"/><rect x="203.71" y="123.91" width="8.53" height="11.42" rx="4.26" style="fill:#388c70"/><path d="M206,128.69c0-.31.22-.44.49-.28a1,1,0,0,1,.49.85c0,.31-.22.44-.49.28A1.07,1.07,0,0,1,206,128.69Z" style="fill:#f19703"/><path d="M210.26,127.35c0-.31-.22-.44-.49-.28a1.07,1.07,0,0,0-.49.85c0,.31.22.44.49.28A1.08,1.08,0,0,0,210.26,127.35Z" style="fill:#f19703"/><circle cx="207.31" cy="126.55" r="0.36" style="fill:#f19703"/><polygon points="248.08 86.39 254.98 92.85 248.08 94.36 248.08 86.39" style="fill:#f5b312"/><path d="M121.1,179.48a8.12,8.12,0,0,1,7.33,0l22,12.69c2,1.17,2,3.07,0,4.24l-20.82,12a8.09,8.09,0,0,1-7.33,0l-22-12.69c-2-1.16-2-3.07,0-4.23Z" style="fill:#b57751"/><path d="M128.22,204.6a5.06,5.06,0,0,1-4.58,0l-17-9.82c-1.26-.73-1.26-1.92,0-2.64l.05,0a5.06,5.06,0,0,1,4.58,0l17,9.82c1.26.73,1.26,1.92,0,2.64Z" style="fill:#a36244"/><path d="M114.56,187.56a1.4,1.4,0,0,0,0,2.65l17,9.81a5.06,5.06,0,0,0,4.58,0l.05,0c1.26-.73,1.27-1.92,0-2.65l-17-9.81a5.06,5.06,0,0,0-4.58,0Z" style="fill:#a36244"/><path d="M144.07,195.45a5.06,5.06,0,0,1-4.58,0l-17-9.82c-1.26-.73-1.26-1.92,0-2.64l0,0a5.06,5.06,0,0,1,4.58,0l17,9.82a1.39,1.39,0,0,1,0,2.64Z" style="fill:#a36244"/><path d="M125.74,184.58a1,1,0,0,0,0,1.94,3.75,3.75,0,0,0,3.36,0,1,1,0,0,0,0-1.94A3.75,3.75,0,0,0,125.74,184.58Z" style="fill:#8c4930"/><path d="M131.78,188.1a1,1,0,0,0,0,1.94,3.75,3.75,0,0,0,3.36,0,1,1,0,0,0,0-1.94A3.75,3.75,0,0,0,131.78,188.1Z" style="fill:#8c4930"/><path d="M138,191.72a1,1,0,0,0,0,1.94,3.73,3.73,0,0,0,3.35,0,1,1,0,0,0,0-1.94A3.73,3.73,0,0,0,138,191.72Z" style="fill:#8c4930"/><path d="M139.65,188.61h0a2,2,0,0,1,2,2v1.21a2,2,0,0,1-2,2h0a2,2,0,0,1-2-2v-1.21a2,2,0,0,1,2-2Z" transform="translate(279.3 382.36) rotate(-180)" style="fill:#7db1e3"/><rect x="131.54" y="185.07" width="3.94" height="5.14" rx="1.97" transform="translate(267.03 375.27) rotate(-180)" style="fill:#7db1e3"/><rect x="125.4" y="181.52" width="3.94" height="5.14" rx="1.97" transform="translate(254.74 368.18) rotate(180)" style="fill:#7db1e3"/><path d="M108.41,193.14a.83.83,0,0,0,0,1.58,3,3,0,0,0,2.74,0,.83.83,0,0,0,0-1.58A3,3,0,0,0,108.41,193.14Z" style="fill:#8c4930"/><path d="M113.55,196a.83.83,0,0,0,0,1.58,3,3,0,0,0,2.74,0,.83.83,0,0,0,0-1.58A3,3,0,0,0,113.55,196Z" style="fill:#8c4930"/><path d="M118.45,198.92a.84.84,0,0,0,0,1.58,3,3,0,0,0,2.75,0,.84.84,0,0,0,0-1.58A3,3,0,0,0,118.45,198.92Z" style="fill:#8c4930"/><path d="M123.48,201.84a.84.84,0,0,0,0,1.59,3,3,0,0,0,2.74,0,.83.83,0,0,0,0-1.58A3,3,0,0,0,123.48,201.84Z" style="fill:#8c4930"/><path d="M132.56,197.9a.84.84,0,0,0,0,1.59,3,3,0,0,0,2.74,0,.84.84,0,0,0,0-1.59A3.07,3.07,0,0,0,132.56,197.9Z" style="fill:#8c4930"/><path d="M127,194.7a.84.84,0,0,0,0,1.59,3.09,3.09,0,0,0,2.75,0,.84.84,0,0,0,0-1.59A3.09,3.09,0,0,0,127,194.7Z" style="fill:#8c4930"/><path d="M121.43,191.5a.84.84,0,0,0,0,1.58,3,3,0,0,0,2.75,0,.84.84,0,0,0,0-1.58A3,3,0,0,0,121.43,191.5Z" style="fill:#8c4930"/><path d="M115.87,188.18a.84.84,0,0,0,0,1.59,3.07,3.07,0,0,0,2.74,0,.84.84,0,0,0,0-1.59A3.07,3.07,0,0,0,115.87,188.18Z" style="fill:#8c4930"/><path d="M108.59,190.41a.73.73,0,0,0,0,1.37,2.63,2.63,0,0,0,2.38,0,.72.72,0,0,0,0-1.37A2.63,2.63,0,0,0,108.59,190.41Z" style="fill:#ff9a15"/><path d="M108.12,191.22l.73,2.82a.53.53,0,0,0,.26.28,1.46,1.46,0,0,0,1.35,0,.62.62,0,0,0,.26-.28l.73-2.82Z" style="fill:#ff9a15"/><path d="M113.61,193.3a.73.73,0,0,0,0,1.38,2.69,2.69,0,0,0,2.38,0,.73.73,0,0,0,0-1.38A2.63,2.63,0,0,0,113.61,193.3Z" style="fill:#ff9a15"/><path d="M113.14,194.12l.73,2.81a.53.53,0,0,0,.26.28,1.46,1.46,0,0,0,1.35,0,.53.53,0,0,0,.26-.28l.73-2.81Z" style="fill:#ff9a15"/><path d="M118.64,196.19a.73.73,0,0,0,0,1.38,2.63,2.63,0,0,0,2.38,0,.73.73,0,0,0,0-1.38A2.69,2.69,0,0,0,118.64,196.19Z" style="fill:#ff9a15"/><path d="M118.16,197l.73,2.81a.59.59,0,0,0,.26.29,1.53,1.53,0,0,0,1.35,0,.54.54,0,0,0,.26-.29l.73-2.81Z" style="fill:#ff9a15"/><path d="M123.66,199.09a.73.73,0,0,0,0,1.37,2.63,2.63,0,0,0,2.38,0,.73.73,0,0,0,0-1.37A2.63,2.63,0,0,0,123.66,199.09Z" style="fill:#ff9a15"/><path d="M123.19,199.9l.73,2.82a.55.55,0,0,0,.25.28,1.53,1.53,0,0,0,1.35,0,.53.53,0,0,0,.26-.28l.73-2.82Z" style="fill:#ff9a15"/><line x1="109.78" y1="190.55" x2="109.26" y2="189.85" style="fill:none;stroke:#4dc19c;stroke-linecap:round;stroke-miterlimit:10;stroke-width:0.529136387421256px"/><line x1="109.78" y1="190.55" x2="109.97" y2="189.57" style="fill:none;stroke:#4dc19c;stroke-linecap:round;stroke-miterlimit:10;stroke-width:0.529136387421256px"/><line x1="114.8" y1="193.43" x2="115.64" y2="193.02" style="fill:none;stroke:#4dc19c;stroke-linecap:round;stroke-miterlimit:10;stroke-width:0.529136387421256px"/><line x1="114.3" y1="192.61" x2="114.8" y2="193.43" style="fill:none;stroke:#4dc19c;stroke-linecap:round;stroke-miterlimit:10;stroke-width:0.529136387421256px"/><line x1="115.04" y1="191.92" x2="114.8" y2="193.43" style="fill:none;stroke:#4dc19c;stroke-linecap:round;stroke-miterlimit:10;stroke-width:0.529136387421256px"/><line x1="119.83" y1="196.45" x2="119.35" y2="195.61" style="fill:none;stroke:#4dc19c;stroke-linecap:round;stroke-miterlimit:10;stroke-width:0.529136387421256px"/><line x1="120.26" y1="196.03" x2="119.83" y2="196.45" style="fill:none;stroke:#4dc19c;stroke-linecap:round;stroke-miterlimit:10;stroke-width:0.529136387421256px"/><line x1="124.85" y1="197.98" x2="124.85" y2="199.11" style="fill:none;stroke:#4dc19c;stroke-linecap:round;stroke-miterlimit:10;stroke-width:0.529136387421256px"/><line x1="123.95" y1="198.64" x2="124.85" y2="199.11" style="fill:none;stroke:#4dc19c;stroke-linecap:round;stroke-miterlimit:10;stroke-width:0.529136387421256px"/><line x1="117.24" y1="189.09" x2="117.24" y2="179.55" style="fill:none;stroke:#36b08d;stroke-linecap:round;stroke-miterlimit:10;stroke-width:0.529136387421256px"/><line x1="122.8" y1="192.29" x2="122.8" y2="182.76" style="fill:none;stroke:#36b08d;stroke-linecap:round;stroke-miterlimit:10;stroke-width:0.529136387421256px"/><line x1="128.37" y1="195.49" x2="128.37" y2="185.96" style="fill:none;stroke:#36b08d;stroke-linecap:round;stroke-miterlimit:10;stroke-width:0.529136387421256px"/><line x1="133.93" y1="198.7" x2="133.93" y2="189.16" style="fill:none;stroke:#36b08d;stroke-linecap:round;stroke-miterlimit:10;stroke-width:0.529136387421256px"/><circle cx="116.2" cy="185.83" r="0.77" style="fill:#ef769e"/><path d="M122.8,189.7a1.27,1.27,0,0,1-1.31-1.22A1.26,1.26,0,0,1,122.8,189.7Z" style="fill:#60cfac"/><path d="M128.37,192a1.27,1.27,0,0,1-1.32-1.22A1.27,1.27,0,0,1,128.37,192Z" style="fill:#60cfac"/><path d="M134.07,193.93a1.26,1.26,0,0,1-1.31-1.21A1.26,1.26,0,0,1,134.07,193.93Z" style="fill:#60cfac"/><path d="M133.93,196.52a1.26,1.26,0,0,1-1.31-1.22A1.27,1.27,0,0,1,133.93,196.52Z" style="fill:#60cfac"/><path d="M124,188.39a1.27,1.27,0,0,1-1.22,1.31A1.26,1.26,0,0,1,124,188.39Z" style="fill:#60cfac"/><path d="M129.58,189a1.26,1.26,0,0,1-1.21,1.32A1.27,1.27,0,0,1,129.58,189Z" style="fill:#60cfac"/><path d="M135.07,191.08a1.26,1.26,0,0,1-1.22,1.31A1.27,1.27,0,0,1,135.07,191.08Z" style="fill:#60cfac"/><path d="M135.2,194.07a1.26,1.26,0,0,1-1.22,1.31A1.26,1.26,0,0,1,135.2,194.07Z" style="fill:#60cfac"/><path d="M121.55,186.14a1.26,1.26,0,0,1,1.31,1.22A1.27,1.27,0,0,1,121.55,186.14Z" style="fill:#60cfac"/><circle cx="121.51" cy="188.21" r="0.77" style="fill:#ef769e"/><circle cx="123.63" cy="189.96" r="0.77" style="fill:#ef769e"/><circle cx="123.31" cy="186.58" r="0.77" style="fill:#ef769e"/><circle cx="127.41" cy="189.36" r="0.77" style="fill:#ef769e"/><circle cx="129.58" cy="191.62" r="0.77" style="fill:#ef769e"/><circle cx="132.76" cy="196.26" r="0.77" style="fill:#ef769e"/><circle cx="135.29" cy="195.25" r="0.77" style="fill:#ef769e"/><circle cx="133.93" cy="193.62" r="0.77" style="fill:#ef769e"/><circle cx="128.24" cy="193.17" r="0.77" style="fill:#ef769e"/><circle cx="118.41" cy="187.35" r="0.77" style="fill:#ef769e"/><path d="M117.13,184.64a1.28,1.28,0,0,1-1.31-1.22A1.26,1.26,0,0,1,117.13,184.64Z" style="fill:#60cfac"/><circle cx="117.39" cy="184.55" r="0.77" style="fill:#ef769e"/><circle cx="116.2" cy="182.38" r="0.77" style="fill:#ef769e"/><path d="M118.41,182.08a1.28,1.28,0,0,1-1.22,1.32A1.27,1.27,0,0,1,118.41,182.08Z" style="fill:#60cfac"/><path d="M118.61,185.76a1.26,1.26,0,0,1-1.22,1.31A1.26,1.26,0,0,1,118.61,185.76Z" style="fill:#60cfac"/><path d="M127.37,182.27a1.26,1.26,0,0,1-1.31-1.22A1.26,1.26,0,0,1,127.37,182.27Z" style="fill:#62d4b4"/><path d="M127.37,182.27a1.27,1.27,0,0,0,1.32-1.22A1.27,1.27,0,0,0,127.37,182.27Z" style="fill:#62d4b4"/><path d="M133.51,185.76a1.27,1.27,0,0,1-1.31-1.21A1.25,1.25,0,0,1,133.51,185.76Z" style="fill:#62d4b4"/><path d="M133.51,185.76a1.27,1.27,0,0,0,1.32-1.21A1.27,1.27,0,0,0,133.51,185.76Z" style="fill:#62d4b4"/><path d="M139.65,189.26a1.27,1.27,0,0,1-1.31-1.22A1.27,1.27,0,0,1,139.65,189.26Z" style="fill:#62d4b4"/><path d="M139.65,189.26A1.27,1.27,0,0,0,141,188,1.26,1.26,0,0,0,139.65,189.26Z" style="fill:#62d4b4"/><polygon points="154.93 205.31 155.5 205.64 155.5 213.62 134.79 225.57 134.22 225.24 134.22 217.26 154.93 205.31" style="fill:#7a3f29"/><polygon points="155.5 205.64 134.79 217.59 134.79 225.57 155.5 213.62 155.5 205.64" style="fill:#b06946"/><polygon points="138.07 223.68 137.36 224.09 137.36 215.7 138.07 215.7 138.07 223.68" style="fill:#7a3f29"/><polygon points="141.7 221.58 140.99 222 140.99 213.6 141.7 213.6 141.7 221.58" style="fill:#7a3f29"/><polygon points="145.33 219.49 144.62 219.9 144.62 211.51 145.33 211.51 145.33 219.49" style="fill:#7a3f29"/><polygon points="148.96 217.4 148.24 217.81 148.24 209.41 148.96 209.41 148.96 217.4" style="fill:#7a3f29"/><polygon points="152.59 215.3 151.87 215.71 151.87 207.32 152.59 207.32 152.59 215.3" style="fill:#7a3f29"/><polygon points="193.59 182.91 194.16 183.24 194.16 191.22 169.99 205.17 169.42 204.84 169.42 196.86 193.59 182.91" style="fill:#7a3f29"/><polygon points="194.16 183.24 169.99 197.19 169.99 205.17 194.16 191.22 194.16 183.24" style="fill:#b06946"/><polygon points="173.27 203.28 172.55 203.69 172.55 195.3 173.27 195.3 173.27 203.28" style="fill:#7a3f29"/><polygon points="176.9 201.19 176.18 201.6 176.18 193.21 176.9 193.21 176.9 201.19" style="fill:#7a3f29"/><polygon points="180.52 199.09 179.81 199.5 179.81 191.11 180.52 191.11 180.52 199.09" style="fill:#7a3f29"/><polygon points="184.15 197 183.44 197.41 183.44 189.02 184.15 189.02 184.15 197" style="fill:#7a3f29"/><polygon points="187.78 194.9 187.07 195.31 187.07 186.92 187.78 186.92 187.78 194.9" style="fill:#7a3f29"/><polygon points="191.41 192.81 190.69 193.22 190.69 184.83 191.41 184.83 191.41 192.81" style="fill:#7a3f29"/><polygon points="237.41 153.24 237.98 153.57 237.98 161.55 224.75 169.19 224.18 168.86 224.18 160.88 237.41 153.24" style="fill:#7a3f29"/><polygon points="237.98 153.57 224.75 161.21 224.75 169.19 237.98 161.55 237.98 153.57" style="fill:#b06946"/><polygon points="228.38 167.09 227.66 167.5 227.66 159.11 228.38 159.11 228.38 167.09" style="fill:#7a3f29"/><polygon points="232.01 165 231.29 165.41 231.29 157.02 232.01 157.02 232.01 165" style="fill:#7a3f29"/><polygon points="235.63 162.9 234.92 163.31 234.92 154.92 235.63 154.92 235.63 162.9" style="fill:#7a3f29"/><polygon points="106.44 203.31 105.87 203.63 105.87 211.61 130.04 225.57 130.61 225.24 130.61 217.26 106.44 203.31" style="fill:#7a3f29"/><polygon points="105.87 203.63 130.04 217.59 130.04 225.57 105.87 211.61 105.87 203.63" style="fill:#b06946"/><polygon points="126.77 223.68 127.48 224.09 127.48 215.7 126.77 215.7 126.77 223.68" style="fill:#7a3f29"/><polygon points="123.14 221.58 123.85 222 123.85 213.6 123.14 213.6 123.14 221.58" style="fill:#7a3f29"/><polygon points="119.51 219.49 120.22 219.9 120.22 211.51 119.51 211.51 119.51 219.49" style="fill:#7a3f29"/><polygon points="115.88 217.4 116.59 217.81 116.59 209.41 115.88 209.41 115.88 217.4" style="fill:#7a3f29"/><polygon points="112.25 215.3 112.97 215.71 112.97 207.32 112.25 207.32 112.25 215.3" style="fill:#7a3f29"/><polygon points="108.63 213.21 109.34 213.62 109.34 205.22 108.63 205.22 108.63 213.21" style="fill:#7a3f29"/><polygon points="93.3 195.72 92.73 196.05 92.73 204.03 116.9 217.98 117.47 217.65 117.47 209.67 93.3 195.72" style="fill:#7a3f29"/><polygon points="92.73 196.05 116.9 210 116.9 217.98 92.73 204.03 92.73 196.05" style="fill:#b06946"/><polygon points="113.62 216.09 114.33 216.5 114.33 208.11 113.62 208.11 113.62 216.09" style="fill:#7a3f29"/><polygon points="109.99 214 110.71 214.41 110.71 206.01 109.99 206.01 109.99 214" style="fill:#7a3f29"/><polygon points="106.37 211.9 107.08 212.31 107.08 203.92 106.37 203.92 106.37 211.9" style="fill:#7a3f29"/><polygon points="102.74 209.81 103.45 210.22 103.45 201.83 102.74 201.83 102.74 209.81" style="fill:#7a3f29"/><polygon points="99.11 207.71 99.82 208.12 99.82 199.73 99.11 199.73 99.11 207.71" style="fill:#7a3f29"/><polygon points="95.48 205.62 96.19 206.03 96.19 197.64 95.48 197.64 95.48 205.62" style="fill:#7a3f29"/><polygon points="71.88 183.35 71.31 183.68 71.31 191.66 95.48 205.62 96.05 205.29 96.05 197.31 71.88 183.35" style="fill:#7a3f29"/><polygon points="71.31 183.68 95.48 197.64 95.48 205.62 71.31 191.66 71.31 183.68" style="fill:#b06946"/><polygon points="92.2 203.72 92.92 204.14 92.92 195.74 92.2 195.74 92.2 203.72" style="fill:#7a3f29"/><polygon points="88.58 201.63 89.29 202.04 89.29 193.65 88.58 193.65 88.58 201.63" style="fill:#7a3f29"/><polygon points="84.95 199.54 85.66 199.95 85.66 191.56 84.95 191.56 84.95 199.54" style="fill:#7a3f29"/><polygon points="81.32 197.44 82.03 197.85 82.03 189.46 81.32 189.46 81.32 197.44" style="fill:#7a3f29"/><polygon points="77.69 195.35 78.4 195.76 78.4 187.37 77.69 187.37 77.69 195.35" style="fill:#7a3f29"/><polygon points="74.06 193.25 74.78 193.66 74.78 185.27 74.06 185.27 74.06 193.25" style="fill:#7a3f29"/><polygon points="50.46 170.99 49.89 171.31 49.89 179.29 74.06 193.25 74.63 192.92 74.63 184.94 50.46 170.99" style="fill:#7a3f29"/><polygon points="49.89 171.31 74.06 185.27 74.06 193.25 49.89 179.29 49.89 171.31" style="fill:#b06946"/><polygon points="70.78 191.36 71.5 191.77 71.5 183.38 70.78 183.38 70.78 191.36" style="fill:#7a3f29"/><polygon points="67.16 189.26 67.87 189.68 67.87 181.28 67.16 181.28 67.16 189.26" style="fill:#7a3f29"/><polygon points="63.53 187.17 64.24 187.58 64.24 179.19 63.53 179.19 63.53 187.17" style="fill:#7a3f29"/><polygon points="59.9 185.07 60.61 185.49 60.61 177.09 59.9 177.09 59.9 185.07" style="fill:#7a3f29"/><polygon points="56.27 182.98 56.98 183.39 56.98 175 56.27 175 56.27 182.98" style="fill:#7a3f29"/><polygon points="52.64 180.89 53.36 181.3 53.36 172.91 52.64 172.91 52.64 180.89" style="fill:#7a3f29"/><polygon points="29.04 158.62 28.47 158.95 28.47 166.93 52.64 180.89 53.21 180.56 53.21 172.57 29.04 158.62" style="fill:#7a3f29"/><polygon points="28.47 158.95 52.64 172.91 52.64 180.89 28.47 166.93 28.47 158.95" style="fill:#b06946"/><polygon points="49.37 178.99 50.08 179.41 50.08 171.01 49.37 171.01 49.37 178.99" style="fill:#7a3f29"/><polygon points="45.74 176.9 46.45 177.31 46.45 168.92 45.74 168.92 45.74 176.9" style="fill:#7a3f29"/><polygon points="42.11 174.8 42.82 175.22 42.82 166.82 42.11 166.82 42.11 174.8" style="fill:#7a3f29"/><polygon points="38.48 172.71 39.19 173.12 39.19 164.73 38.48 164.73 38.48 172.71" style="fill:#7a3f29"/><polygon points="34.85 170.62 35.56 171.03 35.56 162.63 34.85 162.63 34.85 170.62" style="fill:#7a3f29"/><polygon points="31.23 168.52 31.94 168.93 31.94 160.54 31.23 160.54 31.23 168.52" style="fill:#7a3f29"/><polygon points="14.72 150.35 14.15 150.68 14.15 158.66 31.23 168.52 31.79 168.19 31.79 160.21 14.72 150.35" style="fill:#7a3f29"/><polygon points="14.15 150.68 31.23 160.54 31.23 168.52 14.15 158.66 14.15 150.68" style="fill:#b06946"/><polygon points="27.95 166.63 28.66 167.04 28.66 158.65 27.95 158.65 27.95 166.63" style="fill:#7a3f29"/><polygon points="24.32 164.53 25.03 164.94 25.03 156.55 24.32 156.55 24.32 164.53" style="fill:#7a3f29"/><polygon points="20.69 162.44 21.4 162.85 21.4 154.46 20.69 154.46 20.69 162.44" style="fill:#7a3f29"/><polygon points="17.06 160.34 17.77 160.75 17.77 152.36 17.06 152.36 17.06 160.34" style="fill:#7a3f29"/><path d="M162.17,196.81a8.29,8.29,0,0,0-3.73,6.47l7.47-4.31C165.91,196.6,164.22,195.61,162.17,196.81Z" style="fill:#7a3f29"/><polygon points="165.91 198.97 166.48 199.3 166.48 207.28 159 211.59 158.44 211.26 158.44 203.28 165.91 198.97" style="fill:#7a3f29"/><polygon points="164.75 196.52 165.32 196.85 165.32 204.83 162.74 206.32 162.17 205.99 162.17 198.01 164.75 196.52" style="fill:#7a3f29"/><path d="M166.48,199.3c0-2.37-1.69-3.36-3.74-2.16a8.3,8.3,0,0,0-3.73,6.47h0v8l7.47-4.31v-8Z" style="fill:#b06946"/><polygon points="163.06 209.25 162.35 209.66 162.35 196.81 163.06 196.81 163.06 209.25" style="fill:#7a3f29"/><path d="M97.31,174.56l0-1.43a2.62,2.62,0,0,0-2.51-2.72h0a2.61,2.61,0,0,0-2.72,2.51l-.06,1.39a4.46,4.46,0,0,1-.94,2.51,4.21,4.21,0,0,0-.84,3,4.14,4.14,0,0,0,3.27,3.64,4.22,4.22,0,0,0,4.49-6.37A4.42,4.42,0,0,1,97.31,174.56Z"/><line x1="95.6" y1="178.61" x2="95.4" y2="187.01" style="fill:none;stroke:#000;stroke-linecap:round;stroke-miterlimit:10;stroke-width:1.06645319275432px"/><line x1="93.67" y1="179.84" x2="93.47" y2="188.24" style="fill:none;stroke:#000;stroke-linecap:round;stroke-miterlimit:10;stroke-width:1.06645319275432px"/><path d="M97.6,178c2.1-.42,2.32-2.77,2.07-5.26" style="fill:none;stroke:#000;stroke-linecap:round;stroke-miterlimit:10;stroke-width:1.06645319275432px"/><line x1="101.1" y1="187.02" x2="94.01" y2="178.96" style="fill:none;stroke:#a6653d;stroke-linecap:round;stroke-miterlimit:10;stroke-width:0.760711436989117px"/><path d="M92.69,178.65c.19,1.07-.35,3,3.54,2.38" style="fill:none;stroke:#000;stroke-linecap:round;stroke-miterlimit:10;stroke-width:1.06645319275432px"/><path d="M100.69,187.11l-.25,1.81a.1.1,0,0,0,.15.11l2.31-1.33a.11.11,0,0,0,0-.18l-1.19-.85A.65.65,0,0,0,100.69,187.11Z" style="fill:#f2f7ff"/><path d="M100.61,189.7h0a.13.13,0,0,1-.18-.11V189a.11.11,0,0,1,.06-.1h0a.12.12,0,0,1,.18.1v.61A.14.14,0,0,1,100.61,189.7Z" style="fill:#f2f7ff"/><path d="M102.89,188.38h0a.12.12,0,0,1-.18-.11v-.6a.11.11,0,0,1,.06-.11h0a.12.12,0,0,1,.18.11v.6A.11.11,0,0,1,102.89,188.38Z" style="fill:#f2f7ff"/><path d="M101.84,189h0a.12.12,0,0,1-.18-.11v-.61a.11.11,0,0,1,.06-.1h0a.12.12,0,0,1,.18.1v.61A.14.14,0,0,1,101.84,189Z" style="fill:#f2f7ff"/><path d="M101.23,189.34h0a.13.13,0,0,1-.19-.1v-.61a.12.12,0,0,1,.07-.11h0a.12.12,0,0,1,.18.11v.61A.13.13,0,0,1,101.23,189.34Z" style="fill:#f2f7ff"/><path d="M102.37,188.68h0a.12.12,0,0,1-.19-.1V188a.17.17,0,0,1,.06-.11h0a.13.13,0,0,1,.19.11v.61A.13.13,0,0,1,102.37,188.68Z" style="fill:#f2f7ff"/></g></svg>