<svg width="56" height="42" viewBox="0 0 56 42" fill="none" xmlns="http://www.w3.org/2000/svg">
<g clip-path="url(#clip0_609_129937)">
<g clip-path="url(#clip1_609_129937)">
<path d="M22.2221 26.6568C22.3863 27.3525 21.3817 28.1381 21.3178 28.8132C21.254 29.4884 22.1209 30.4831 21.8561 31.0941C21.5912 31.7052 20.3084 31.7847 19.8559 32.3099C19.4034 32.835 19.5425 34.0944 18.934 34.4705C18.3255 34.8465 17.2971 34.113 16.5925 34.2792C15.888 34.4455 15.2592 35.5235 14.5836 35.497C13.9079 35.4705 13.4325 34.2439 12.793 33.9765C12.1535 33.709 10.9943 34.2336 10.4604 33.7832C9.92643 33.3327 10.2806 32.115 9.92215 31.5023C9.56374 30.8896 8.29579 30.6774 8.13163 29.9817C7.96746 29.286 8.97209 28.5004 9.03591 27.8253C9.09972 27.1501 8.23281 26.1554 8.49769 25.5444C8.76257 24.9333 10.0604 24.8781 10.5155 24.3245C10.9705 23.7709 10.82 22.542 11.4286 22.166C12.0371 21.79 13.0655 22.5235 13.77 22.3572C14.4746 22.191 15.1034 21.1129 15.779 21.1394C16.4546 21.1659 16.9212 22.3946 17.5607 22.662C18.2002 22.9295 19.3594 22.4049 19.8934 22.8554C20.4273 23.3058 20.0732 24.5236 20.4316 25.1363C20.79 25.749 22.058 25.9611 22.2221 26.6568Z" fill="#46C46D"/>
<path d="M15.3903 31.5877L11.862 30.0309L12.4642 28.6431L14.5435 29.5749L16.7071 24.639L18.1126 25.237L15.3903 31.5877Z" fill="white"/>
</g>
<path d="M34.5362 22.9331C34.5362 22.9331 23.3502 26.7337 22.2903 27.09C21.6558 27.3126 21.2327 27.3861 20.9411 27.3126C20.8445 27.2944 20.7538 27.2533 20.6763 27.1929C20.5989 27.1325 20.537 27.0545 20.4958 26.9653C20.3421 26.6736 17.0068 20.6687 16.7752 20.2167C16.4902 19.6601 17.1047 18.9921 17.9531 18.0525C18.2759 17.6963 25.3006 15.8037 25.3006 15.8037L32.7506 21.5392L34.5362 22.9331Z" fill="#ED5F00"/>
<path d="M34.5362 22.9334C34.5362 22.9334 23.3501 26.734 22.2902 27.0903C21.6557 27.3129 21.2326 27.3864 20.941 27.3129C20.4333 26.9322 21.5911 25.7833 21.5911 25.7833L32.7483 21.5396L34.5362 22.9334Z" fill="black"/>
<path d="M35.6561 22.3945C35.5764 22.6207 35.4687 22.8362 35.3355 23.0357C34.9784 23.5648 34.4525 23.9572 33.8437 24.149L33.4429 24.2692C29.1925 25.6608 24.5858 27.0434 23.5126 27.4643C23.2665 27.5688 23.0029 27.6262 22.7356 27.6335C22.5104 27.6336 22.2902 27.5668 22.1031 27.4415C21.9159 27.3163 21.7703 27.1382 21.6846 26.9299C21.4865 26.5536 17.0089 18.5247 16.7239 17.9325C16.3209 17.0953 17.7615 15.4521 18.3404 15.2206C18.9193 14.989 28.6359 12.1836 28.6359 12.1836C28.6359 12.1836 34.4248 18.9478 35.714 21.4281C35.82 21.7457 35.7993 22.0919 35.6561 22.3945Z" fill="#FFC619"/>
<path d="M35.6562 22.3944C35.5765 22.6207 35.4688 22.8361 35.3356 23.0357C34.9785 23.5647 34.4526 23.9572 33.8438 24.1489L33.4431 24.2692C29.1926 25.6608 24.5859 27.0434 23.5127 27.4642C23.2666 27.5688 23.003 27.6262 22.7357 27.6335C22.4507 27.5533 22.6555 26.9655 22.8893 26.5759C23.1231 26.1862 23.722 25.4626 24.3588 25.2578C27.879 24.0755 33.4876 22.2141 35.7297 21.4727C35.8121 21.7792 35.7861 22.1048 35.6562 22.3944Z" fill="black"/>
<path d="M55.341 19.0101C52.9742 16.8214 49.3739 13.849 49.3739 13.849L47.2476 8.48083L45.4352 9.19332L46.3124 8.54985C46.3124 8.54985 46.1722 2.76088 43.8143 1.30027C42.4628 0.4631 41.3027 0.264939 39.5839 0.0756836L37.2749 12.4084L33.855 13.7555L31.7554 17.9347C31.7554 17.9347 32.9354 20.0632 34.5853 21.535C36.2352 23.0067 38.2836 22.6148 39.5994 22.5926C39.5994 22.5926 42.5963 25.4247 45.0923 27.4219C46.141 28.2635 47.5147 28.1389 48.6213 27.629C51.2754 26.4066 53.8915 24.12 54.7309 23.2071C56.4342 21.3568 56.176 19.7805 55.341 19.0101Z" fill="url(#paint0_linear_609_129937)"/>
<path d="M41.6811 13.3413C41.6114 13.3417 41.5442 13.316 41.4926 13.2692C41.4409 13.2224 41.4087 13.158 41.4023 13.0887C41.3959 13.0193 41.4157 12.9501 41.4578 12.8946C41.5 12.8392 41.5613 12.8015 41.6299 12.7891L46.2165 11.943C46.2525 11.9364 46.2894 11.937 46.3251 11.9447C46.3609 11.9524 46.3948 11.967 46.4249 11.9878C46.4549 12.0086 46.4806 12.0351 46.5005 12.0658C46.5203 12.0965 46.5339 12.1308 46.5405 12.1668C46.5471 12.2028 46.5465 12.2397 46.5388 12.2754C46.5311 12.3111 46.5165 12.345 46.4957 12.3751C46.4749 12.4052 46.4484 12.4309 46.4177 12.4507C46.387 12.4706 46.3527 12.4842 46.3167 12.4907L41.7301 13.3368L41.6811 13.3413Z" fill="#D11583"/>
<path d="M41.158 5.86924C41.0935 5.86994 41.0308 5.84806 40.9808 5.80739C40.9308 5.76673 40.8966 5.70984 40.8841 5.64659C40.8841 5.62655 40.5234 3.65607 40.3475 2.97476C40.3295 2.90301 40.3407 2.82705 40.3787 2.76358C40.4167 2.70011 40.4784 2.65433 40.5501 2.63632C40.6219 2.61831 40.6978 2.62954 40.7613 2.66754C40.8248 2.70554 40.8705 2.76719 40.8886 2.83894C41.0667 3.54697 41.4162 5.47515 41.4318 5.55753C41.4448 5.62984 41.4287 5.70435 41.387 5.76483C41.3453 5.82531 41.2814 5.86684 41.2092 5.88038L41.158 5.86924Z" fill="#D11583"/>
<path d="M46.7889 1.63881C48.4655 0.556717 50.7544 0.385275 52.2283 2.61403C53.7023 4.84279 53.1613 6.69526 51.2598 7.90649C50.0085 8.70136 31.5728 19.0391 29.1415 20.0789C27.7276 20.6779 26.4051 20.5665 25.579 19.2217C24.6372 17.6787 24.7797 16.4141 26.1735 15.4188C27.2957 14.6195 44.3531 3.21742 46.7889 1.63881Z" fill="#FFE75C"/>
<path d="M41.0533 7.66123C41.0207 8.33251 40.7739 8.9757 40.3492 9.49656C39.9245 10.0174 39.3441 10.3886 38.6932 10.5557L39.0205 11.1502C40.2295 13.94 40.4989 14.3943 38.9426 15.6545C38.7199 15.8393 37.9451 16.289 37.4018 16.6186C37.0767 16.8145 36.7182 17.0193 36.3486 17.2064C35.9605 17.4116 35.557 17.5865 35.1419 17.7296C33.0645 18.422 30.0075 19.4039 27.3112 14.2273C26.2424 12.1744 26.6811 10.8452 27.6719 9.5805C28.912 7.99743 31.9023 5.48814 32.7194 4.88252C32.8908 4.75338 33.2382 3.1013 33.9306 1.94127C34.6231 0.781253 35.6696 -0.298614 39.5816 0.0776698C39.5816 0.0776698 41.1401 5.49927 41.0533 7.66123Z" fill="url(#paint1_linear_609_129937)"/>
<path d="M37.1703 11.2418C37.1274 11.2422 37.0851 11.2327 37.0465 11.2142C37.0079 11.1957 36.9741 11.1686 36.9476 11.1349C36.8786 11.0459 35.2465 8.94182 34.0731 5.42167C34.053 5.35257 34.0604 5.27834 34.0938 5.21458C34.1272 5.15081 34.184 5.10248 34.2523 5.07971C34.3206 5.05695 34.3951 5.06153 34.46 5.0925C34.525 5.12346 34.5755 5.1784 34.6008 5.24578C35.743 8.66795 37.3684 10.7698 37.3862 10.7921C37.4088 10.8208 37.4254 10.8537 37.4352 10.8889C37.445 10.9241 37.4476 10.9609 37.4431 10.9971C37.4385 11.0334 37.4268 11.0683 37.4087 11.1C37.3905 11.1317 37.3662 11.1595 37.3372 11.1817C37.2898 11.2197 37.231 11.2409 37.1703 11.2418Z" fill="#D11583"/>
<path d="M37.4019 16.6143C37.0768 16.8102 36.7183 17.0151 36.3487 17.2021C35.1286 17.0485 34.2113 16.2848 33.5745 15.6435C31.6797 13.7487 30.2347 9.97923 30.1657 9.82115C30.1527 9.78694 30.1465 9.7505 30.1476 9.71392C30.1487 9.67733 30.1569 9.64132 30.1719 9.60793C30.1869 9.57454 30.2083 9.54442 30.2349 9.51931C30.2616 9.4942 30.2929 9.47458 30.3271 9.46157C30.3613 9.44855 30.3977 9.44241 30.4343 9.44348C30.4709 9.44455 30.5069 9.45282 30.5403 9.4678C30.5737 9.48279 30.6038 9.50421 30.6289 9.53084C30.654 9.55747 30.6737 9.58878 30.6867 9.62299C30.7 9.66084 32.1584 13.4415 33.9686 15.2517C35.1375 16.4228 36.2018 16.8458 37.4019 16.6143Z" fill="#D11583"/>
<path d="M36.4843 12.05C37.228 13.5351 40.6569 12.9406 43.8586 12.3639C45.4528 12.0789 46.6284 11.863 46.6284 11.863L50.0305 14.7931C50.6696 13.6353 52.2571 10.4202 51.4578 8.78145C49.2312 4.25492 47.519 3.71165 45.6287 4.26828C43.6849 4.84718 40.0312 6.54602 37.5998 8.10459C35.5403 9.42492 35.6227 10.3222 36.4843 12.05Z" fill="#FF78B9"/>
<path d="M4.30165 21.7351C3.87747 21.4653 3.517 21.1065 3.2452 20.6836C2.97339 20.2607 2.79675 19.7838 2.7275 19.2859L2.46477 17.5826C2.46008 17.5407 2.44029 17.5019 2.4091 17.4735C2.37906 17.4461 2.34061 17.4296 2.3 17.4268C2.25805 17.4295 2.21814 17.4459 2.18645 17.4735C2.15671 17.5027 2.13785 17.5412 2.13301 17.5826L1.87028 19.2859C1.79791 19.7829 1.61998 20.2585 1.34846 20.681C1.07694 21.1034 0.718123 21.4629 0.296128 21.7351L0.0734754 21.8798C0.0494393 21.895 0.0301499 21.9166 0.0178122 21.9422C0.00614863 21.9673 7.15353e-05 21.9946 0 22.0223C0.000341058 22.05 0.00640575 22.0773 0.0178122 22.1025C0.0307823 22.1276 0.0499366 22.1491 0.0734754 22.1648L0.296128 22.3073C0.716654 22.5805 1.07477 22.9394 1.34705 23.3605C1.61873 23.7817 1.79713 24.2562 1.87028 24.752L2.13301 26.4487C2.13507 26.4686 2.14104 26.4879 2.15059 26.5054C2.16015 26.523 2.17309 26.5385 2.18868 26.5511C2.21908 26.5785 2.25907 26.5929 2.3 26.5911C2.34022 26.5926 2.37939 26.5782 2.4091 26.5511C2.42469 26.5385 2.43763 26.523 2.44719 26.5054C2.45674 26.4879 2.46272 26.4686 2.46477 26.4487L2.7275 24.7454C2.79732 24.2476 2.9742 23.7709 3.24596 23.3481C3.51771 22.9253 3.87788 22.5664 4.30165 22.2962L4.52431 22.1537C4.54785 22.138 4.567 22.1165 4.57997 22.0913C4.59138 22.0661 4.59744 22.0388 4.59778 22.0112C4.59771 21.9835 4.59163 21.9561 4.57997 21.931C4.56763 21.9054 4.54834 21.8838 4.52431 21.8687L4.30165 21.7351Z" fill="#91FFAD"/>
<path d="M28.5482 36.8902C28.158 36.6402 27.8262 36.3092 27.5754 35.9196C27.3245 35.5301 27.1604 35.0911 27.0943 34.6325L26.8516 33.0583C26.8476 33.0197 26.8293 32.984 26.8004 32.9581C26.7727 32.9315 26.7363 32.9157 26.6979 32.9136C26.6597 32.916 26.6234 32.9318 26.5955 32.9581C26.5666 32.984 26.5483 33.0197 26.5443 33.0583L26.3016 34.6325C26.2335 35.0905 26.0686 35.5287 25.8179 35.918C25.5672 36.3073 25.2365 36.6387 24.8477 36.8902L24.6384 37.0215C24.618 37.037 24.6013 37.0567 24.5894 37.0794C24.577 37.1027 24.5708 37.1288 24.5716 37.1551C24.5708 37.1808 24.577 37.2061 24.5894 37.2286C24.6007 37.2516 24.6176 37.2715 24.6384 37.2865L24.8477 37.4178C25.2367 37.6695 25.5677 38.0012 25.8185 38.3908C26.0681 38.7811 26.2328 39.2196 26.3016 39.6778L26.5443 41.2519C26.5499 41.2888 26.568 41.3226 26.5955 41.3477C26.6247 41.3708 26.6607 41.3834 26.6979 41.3834C26.7351 41.3834 26.7712 41.3708 26.8004 41.3477C26.8287 41.3232 26.8469 41.2891 26.8516 41.2519L27.0943 39.6778C27.1615 39.2207 27.326 38.7834 27.5769 38.3954C27.8277 38.0074 28.159 37.6779 28.5482 37.429L28.7575 37.2976C28.779 37.2828 28.7966 37.2629 28.8087 37.2397C28.8194 37.2167 28.8247 37.1916 28.8243 37.1662C28.8247 37.1402 28.8194 37.1143 28.8087 37.0905C28.7959 37.0678 28.7785 37.0481 28.7575 37.0327L28.5482 36.8902Z" fill="#66BCFF"/>
<path d="M12.709 15.4342C12.4848 15.2882 12.2943 15.0962 12.1501 14.8709C12.0057 14.6473 11.9115 14.3951 11.8741 14.1316L11.7338 13.2254C11.7311 13.2034 11.7209 13.1829 11.7048 13.1676C11.6883 13.154 11.6682 13.1455 11.6469 13.1431C11.6249 13.1451 11.604 13.1536 11.5868 13.1676C11.5708 13.1829 11.5605 13.2034 11.5579 13.2254L11.4176 14.1316C11.3789 14.3952 11.284 14.6473 11.1393 14.8709C10.9954 15.0945 10.8057 15.285 10.5827 15.4297L10.4624 15.5054C10.4499 15.5137 10.4399 15.5253 10.4335 15.5388C10.4276 15.5521 10.4246 15.5665 10.4246 15.5811C10.4246 15.5957 10.4276 15.6101 10.4335 15.6234C10.4399 15.637 10.4499 15.6485 10.4624 15.6568L10.5827 15.7325C10.8057 15.8773 10.9954 16.0678 11.1393 16.2914C11.284 16.515 11.3789 16.7671 11.4176 17.0306L11.5601 17.9412C11.5629 17.9626 11.5731 17.9823 11.5891 17.9969C11.6063 18.0101 11.6275 18.0171 11.6492 18.0169C11.6705 18.0176 11.6914 18.0102 11.7075 17.9961C11.7236 17.9821 11.7338 17.9625 11.736 17.9412L11.8763 17.035C11.9137 16.7716 12.0079 16.5194 12.1524 16.2958C12.297 16.0721 12.4875 15.8816 12.7112 15.737L12.8337 15.6613C12.8449 15.6522 12.8541 15.6408 12.8604 15.6279C12.8676 15.6149 12.8714 15.6004 12.8714 15.5856C12.8714 15.5708 12.8676 15.5562 12.8604 15.5433C12.8541 15.5303 12.8449 15.5189 12.8337 15.5099L12.709 15.4342Z" fill="#3442D9"/>
<path d="M34.7046 31.0189C34.4926 30.8825 34.3119 30.7026 34.1746 30.4912C34.0386 30.2788 33.9497 30.0396 33.9141 29.7899L33.7828 28.9349C33.78 28.9135 33.7697 28.8938 33.7538 28.8792C33.7389 28.8649 33.7189 28.8569 33.6982 28.8569C33.6772 28.8574 33.6572 28.8657 33.642 28.8801C33.6268 28.8944 33.6174 28.914 33.6158 28.9349L33.4844 29.7899C33.4472 30.0388 33.3577 30.2771 33.2217 30.489C33.0845 30.7003 32.9048 30.8808 32.694 31.0189L32.5804 31.0901C32.5676 31.097 32.5574 31.108 32.5515 31.1213C32.5456 31.1338 32.5425 31.1475 32.5425 31.1614C32.5425 31.1753 32.5456 31.1889 32.5515 31.2015C32.5574 31.2148 32.5676 31.2258 32.5804 31.2326L32.694 31.3061C32.9056 31.4425 33.0856 31.6224 33.2219 31.834C33.3582 32.0456 33.4477 32.2839 33.4844 32.5329L33.6158 33.3879C33.6186 33.4082 33.628 33.4269 33.6425 33.4414C33.6586 33.4535 33.678 33.4605 33.6982 33.4614C33.7184 33.4609 33.7379 33.4539 33.7538 33.4414C33.7698 33.4277 33.7801 33.4087 33.7828 33.3879L33.9141 32.5329C33.9503 32.2833 34.0391 32.0443 34.1746 31.8316C34.3116 31.6204 34.4923 31.4412 34.7046 31.3061L34.8181 31.2326C34.8303 31.2256 34.8397 31.2146 34.8448 31.2015C34.8506 31.1889 34.8536 31.1752 34.8536 31.1614C34.8536 31.1476 34.8506 31.1339 34.8448 31.1213C34.8397 31.1082 34.8303 31.0972 34.8181 31.0901L34.7046 31.0189Z" fill="#FFE75C"/>
</g>
<defs>
<linearGradient id="paint0_linear_609_129937" x1="40.067" y1="12.4752" x2="53.3794" y2="28.7979" gradientUnits="userSpaceOnUse">
<stop offset="0.43" stop-color="#FF78B9"/>
<stop offset="0.5" stop-color="#FB6FB4"/>
<stop offset="0.78" stop-color="#EF50A5"/>
<stop offset="0.94" stop-color="#EB459F"/>
</linearGradient>
<linearGradient id="paint1_linear_609_129937" x1="32.0915" y1="5.10517" x2="40.7839" y2="18.5935" gradientUnits="userSpaceOnUse">
<stop offset="0.18" stop-color="#FF78B9"/>
<stop offset="0.29" stop-color="#FB6FB4"/>
<stop offset="0.71" stop-color="#EF50A5"/>
<stop offset="0.95" stop-color="#EB459F"/>
</linearGradient>
<clipPath id="clip0_609_129937">
<rect width="56" height="41.4286" fill="white"/>
</clipPath>
<clipPath id="clip1_609_129937">
<rect width="14.4775" height="14.4775" fill="white" transform="translate(6.46899 22.9365) rotate(-13.2771)"/>
</clipPath>
</defs>
</svg>
