<svg width="1042" height="296" viewBox="0 0 1042 296" fill="none" xmlns="http://www.w3.org/2000/svg">
<path opacity="0.5" fill-rule="evenodd" clip-rule="evenodd" d="M791.615 144.094C799.668 144.094 806.196 137.622 806.196 129.638C806.196 121.654 799.668 115.182 791.615 115.182C783.562 115.182 777.033 121.654 777.033 129.638C777.033 137.622 783.562 144.094 791.615 144.094Z" fill="#36393F"/>
<path opacity="0.5" fill-rule="evenodd" clip-rule="evenodd" d="M957 122C994.003 122 1024 92.4508 1024 56C1024 19.5492 994.003 -10 957 -10C919.997 -10 890 19.5492 890 56C890 92.4508 919.997 122 957 122Z" fill="#36393F"/>
<path opacity="0.5" fill-rule="evenodd" clip-rule="evenodd" d="M747.38 284.02C751.557 284.02 754.943 280.663 754.943 276.521C754.943 272.38 751.557 269.023 747.38 269.023C743.202 269.023 739.816 272.38 739.816 276.521C739.816 280.663 743.202 284.02 747.38 284.02Z" fill="#36393F"/>
<path opacity="0.5" fill-rule="evenodd" clip-rule="evenodd" d="M545 196C557.15 196 567 186.15 567 174C567 161.85 557.15 152 545 152C532.85 152 523 161.85 523 174C523 186.15 532.85 196 545 196Z" fill="#36393F"/>
<path opacity="0.5" fill-rule="evenodd" clip-rule="evenodd" d="M101.564 249.997C105.741 249.997 109.128 246.64 109.128 242.499C109.128 238.357 105.741 235 101.564 235C97.3864 235 94 238.357 94 242.499C94 246.64 97.3864 249.997 101.564 249.997Z" fill="#36393F"/>
<path opacity="0.5" fill-rule="evenodd" clip-rule="evenodd" d="M358.894 270L520.894 270V311L358.894 311V270Z" fill="#36393F"/>
<path opacity="0.5" fill-rule="evenodd" clip-rule="evenodd" d="M680.12 217.538L698.347 235.607L680.12 253.676L661.893 235.607L680.12 217.538Z" fill="#36393F"/>
<path opacity="0.5" fill-rule="evenodd" clip-rule="evenodd" d="M60.5 250L94 283L60.5 316L27 283L60.5 250Z" fill="#36393F"/>
<path opacity="0.5" fill-rule="evenodd" clip-rule="evenodd" d="M1009 268L1042 301L1009 334L976 301L1009 268Z" fill="#36393F"/>
<path opacity="0.5" fill-rule="evenodd" clip-rule="evenodd" d="M-31.6442 70.2222L-52.1543 4.09627L209.66 -72L230.17 -5.874C232.179 1.15597 228.149 8.49957 221.168 10.5284C217.215 11.6776 212.956 10.8971 209.66 8.41905C196.537 -1.44663 177.951 1.27792 168.148 14.5045C166.531 16.6862 165.217 19.0799 164.243 21.6194L163.661 23.137C158.341 37.0106 142.866 43.921 129.097 38.5717C126.332 37.4974 123.764 35.9671 121.498 34.0433C110.215 24.4644 93.3535 25.9185 83.836 37.2912C81.9245 39.5752 80.4034 42.1633 79.3348 44.9496L78.1708 47.9848C72.8502 61.8584 57.3754 68.7687 43.6069 63.4195C40.8417 62.3452 38.2735 60.8148 36.0076 58.891C24.725 49.3122 7.86312 50.7663 -1.65442 62.1389C-3.56586 64.4229 -5.087 67.0111 -6.15555 69.7973L-6.73755 71.3149C-9.35573 78.1419 -16.9706 81.5424 -23.7459 78.9101C-27.5837 77.4191 -30.5063 74.2043 -31.6442 70.2222Z" fill="#36393F"/>
<g opacity="0.5">
<path fill-rule="evenodd" clip-rule="evenodd" d="M546.206 6.88891C548.681 6.88891 550.689 4.89906 550.689 2.44445C550.689 -0.01015 548.681 -2 546.206 -2C543.73 -2 541.722 -0.01015 541.722 2.44445C541.722 4.89906 543.73 6.88891 546.206 6.88891Z" fill="#36393F"/>
<path fill-rule="evenodd" clip-rule="evenodd" d="M521.1 6.88891C523.576 6.88891 525.583 4.89906 525.583 2.44445C525.583 -0.01015 523.576 -2 521.1 -2C518.624 -2 516.617 -0.01015 516.617 2.44445C516.617 4.89906 518.624 6.88891 521.1 6.88891Z" fill="#36393F"/>
<path fill-rule="evenodd" clip-rule="evenodd" d="M497.789 6.88891C500.265 6.88891 502.272 4.89906 502.272 2.44445C502.272 -0.01015 500.265 -2 497.789 -2C495.313 -2 493.306 -0.01015 493.306 2.44445C493.306 4.89906 495.313 6.88891 497.789 6.88891Z" fill="#36393F"/>
<path fill-rule="evenodd" clip-rule="evenodd" d="M472.683 6.88891C475.159 6.88891 477.166 4.89906 477.166 2.44445C477.166 -0.01015 475.159 -2 472.683 -2C470.207 -2 468.2 -0.01015 468.2 2.44445C468.2 4.89906 470.207 6.88891 472.683 6.88891Z" fill="#36393F"/>
<path fill-rule="evenodd" clip-rule="evenodd" d="M569.516 6.88891C571.992 6.88891 573.999 4.89906 573.999 2.44445C573.999 -0.01015 571.992 -2 569.516 -2C567.04 -2 565.033 -0.01015 565.033 2.44445C565.033 4.89906 567.04 6.88891 569.516 6.88891Z" fill="#36393F"/>
<path fill-rule="evenodd" clip-rule="evenodd" d="M594.623 6.88891C597.099 6.88891 599.106 4.89906 599.106 2.44445C599.106 -0.01015 597.099 -2 594.623 -2C592.147 -2 590.14 -0.01015 590.14 2.44445C590.14 4.89906 592.147 6.88891 594.623 6.88891Z" fill="#36393F"/>
<path fill-rule="evenodd" clip-rule="evenodd" d="M617.934 6.88891C620.41 6.88891 622.417 4.89906 622.417 2.44445C622.417 -0.01015 620.41 -2 617.934 -2C615.458 -2 613.451 -0.01015 613.451 2.44445C613.451 4.89906 615.458 6.88891 617.934 6.88891Z" fill="#36393F"/>
<path fill-rule="evenodd" clip-rule="evenodd" d="M546.206 30C548.681 30 550.689 28.0101 550.689 25.5555C550.689 23.1009 548.681 21.1111 546.206 21.1111C543.73 21.1111 541.722 23.1009 541.722 25.5555C541.722 28.0101 543.73 30 546.206 30Z" fill="#36393F"/>
<path fill-rule="evenodd" clip-rule="evenodd" d="M521.1 30C523.576 30 525.583 28.0101 525.583 25.5555C525.583 23.1009 523.576 21.1111 521.1 21.1111C518.624 21.1111 516.617 23.1009 516.617 25.5555C516.617 28.0101 518.624 30 521.1 30Z" fill="#36393F"/>
<path fill-rule="evenodd" clip-rule="evenodd" d="M497.789 30C500.265 30 502.272 28.0101 502.272 25.5555C502.272 23.1009 500.265 21.1111 497.789 21.1111C495.313 21.1111 493.306 23.1009 493.306 25.5555C493.306 28.0101 495.313 30 497.789 30Z" fill="#36393F"/>
<path fill-rule="evenodd" clip-rule="evenodd" d="M472.683 30C475.159 30 477.166 28.0101 477.166 25.5555C477.166 23.1009 475.159 21.1111 472.683 21.1111C470.207 21.1111 468.2 23.1009 468.2 25.5555C468.2 28.0101 470.207 30 472.683 30Z" fill="#36393F"/>
<path fill-rule="evenodd" clip-rule="evenodd" d="M569.516 30C571.992 30 573.999 28.0101 573.999 25.5555C573.999 23.1009 571.992 21.1111 569.516 21.1111C567.04 21.1111 565.033 23.1009 565.033 25.5555C565.033 28.0101 567.04 30 569.516 30Z" fill="#36393F"/>
<path fill-rule="evenodd" clip-rule="evenodd" d="M594.623 30C597.099 30 599.106 28.0101 599.106 25.5555C599.106 23.1009 597.099 21.1111 594.623 21.1111C592.147 21.1111 590.14 23.1009 590.14 25.5555C590.14 28.0101 592.147 30 594.623 30Z" fill="#36393F"/>
<path fill-rule="evenodd" clip-rule="evenodd" d="M617.934 30C620.41 30 622.417 28.0101 622.417 25.5555C622.417 23.1009 620.41 21.1111 617.934 21.1111C615.458 21.1111 613.451 23.1009 613.451 25.5555C613.451 28.0101 615.458 30 617.934 30Z" fill="#36393F"/>
</g>
</svg>
