<svg width="255" height="255" viewBox="0 0 255 255" fill="none" xmlns="http://www.w3.org/2000/svg">
<path d="M255 128C255 57.8598 198.14 1 128 1C57.8598 1 1 57.8598 1 128C1 198.14 57.8598 255 128 255C198.14 255 255 198.14 255 128Z" fill="white"/>
<path fill-rule="evenodd" clip-rule="evenodd" d="M119.801 85.6667H161.708C184.209 85.6667 192.679 97.3396 191.37 114.488C189.207 142.8 172.504 158.463 150.349 158.463H139.164C136.124 158.463 134.08 160.525 133.258 166.112L128.509 198.591C128.195 200.698 127.114 201.917 125.491 202.083H99.1609C96.6833 202.083 95.8076 200.143 96.4563 195.942L112.51 91.8188C113.137 87.6511 115.366 85.6667 119.801 85.6667Z" fill="#009EE3"/>
<path fill-rule="evenodd" clip-rule="evenodd" d="M92.5395 48.625H135.623C147.755 48.625 162.154 49.0202 171.774 57.6573C178.207 63.4263 181.585 72.6058 180.807 82.4959C178.162 115.927 158.487 134.657 132.09 134.657H110.848C107.227 134.657 104.838 137.096 103.816 143.689L97.883 182.076C97.4941 184.56 96.4389 186.028 94.5504 186.208H67.9645C65.0202 186.208 63.9762 183.95 64.7424 178.96L83.8517 55.9185C84.6179 50.9734 87.2955 48.625 92.5395 48.625Z" fill="#113984"/>
</svg>
