<svg width="60" height="44" viewBox="0 0 60 44" fill="none" xmlns="http://www.w3.org/2000/svg">
  <path fill-rule="evenodd" clip-rule="evenodd" d="M51.8184 32H52C56.418 32 60 28.4185 60 24C60 19.5815 56.418 16 52 16H50.334C49.3594 13.543 47.3906 11.5889 44.9229 10.6353C44.2451 4.65039 39.166 0 33 0C29.6836 0 26.6807 1.3457 24.5088 3.521C23.9297 3.34424 23.332 3.20996 22.7197 3.12207C22.1582 3.0415 21.584 3 21 3C14.373 3 9 8.37256 9 15C9 15.6816 9.05664 16.3496 9.16602 17H8.5C3.80566 17 0 20.8057 0 25.5C0 30.1943 3.80566 34 8.5 34H9.7959C11.208 36.9487 14.3506 39 18 39C18.2559 39 18.5098 38.9897 18.7598 38.9702C20.7197 41.9971 24.126 44 28 44H29C32.1377 44 34.9688 42.686 36.9727 40.5781C37.9346 40.8525 38.9502 41 40 41H41C46.3926 41 50.8779 37.1201 51.8184 32Z" fill="white"/>
</svg>
