<svg xmlns="http://www.w3.org/2000/svg" viewBox="0 0 624 624"><defs><linearGradient id="prefix__a" x1="312" y1="161.47" x2="312" y2="677.13" gradientUnits="userSpaceOnUse"><stop offset=".11" stop-color="#31bdb6"/><stop offset=".18" stop-color="#4dc3ad"/><stop offset=".34" stop-color="#81ce9b"/><stop offset=".49" stop-color="#add78d"/><stop offset=".63" stop-color="#cede82"/><stop offset=".77" stop-color="#e6e37a"/><stop offset=".89" stop-color="#f5e675"/><stop offset="1" stop-color="#fae773"/></linearGradient></defs><g data-name="Layer 8"><path d="M599.3 210.6c-16.9-36.8-22.1-34.9-22.1-95.8 0-63.4-48-114.8-105-114.8-31.3 0-59.3 15.4-78.2 39.8a227.4 227.4 0 00-19.9 30.1c-24.8-4.7-47.4-5.2-62.1-5.2s-37.3.5-62.1 5.2A227.4 227.4 0 00230 39.8C211.1 15.4 183.1 0 151.8 0c-57 0-105 51.4-105 114.8 0 60.9-5.2 59-22.1 95.8S0 285.5 0 326.7C0 490.9 139.7 624 312 624s312-133.1 312-297.3c0-41.2-8.4-80.6-24.7-116.1zM312 544.1C183.8 544.1 79.9 440.2 79.9 312S183.8 79.9 312 79.9 544.1 183.8 544.1 312 440.2 544.1 312 544.1z" fill="url(#prefix__a)"/><path d="M608.9 418.2c-32.3 11.5-68.6 21.2-107.9 28.6a232.2 232.2 0 01-378 0c-39.3-7.4-75.6-17.1-107.9-28.6C55.6 537.6 173.2 624 312 624s256.4-86.4 296.9-205.8z" fill="#fced92"/><path d="M312 236.2c110.6 0 206.1-36.7 251.3-90 0 0-90.5-62.8-251.3-62.8S60.7 146.2 60.7 146.2c45.2 53.3 140.7 90 251.3 90z" fill="#31bdb6"/><path d="M41.8 172.7c-3.4 11.3-8.9 20-17.1 37.9C8.4 246.1 0 285.5 0 326.7A288.1 288.1 0 005.4 382c59.3-59.7 64.8-104.4 36.4-209.3zM582.2 172.7c3.4 11.3 8.9 20 17.1 37.9 16.3 35.5 24.7 74.9 24.7 116.1a288.1 288.1 0 01-5.4 55.3c-59.3-59.7-64.8-104.4-36.4-209.3z" fill="#5a65e9"/><path d="M206.1 103.8a72.6 72.6 0 01-5.7 23 7.6 7.6 0 01-9.3 4.1 417.3 417.3 0 00-91.3-19.8 7.5 7.5 0 01-6.8-7.2h-.1c-1.1-36.6 24.9-68.2 58.2-68.2s57.8 31.5 55 68.1z" fill="#fff" fill-rule="evenodd"/><path d="M375.1 83.6c0-3.9-1-13.7-1-13.7-24.8-4.7-47.4-5.2-62.1-5.2s-37.3.5-62.1 5.2c0 0-1 8.1-1 11.6 0 37.8 28.3 68.9 63.1 69.5s63.1-29.6 63.1-67.4z" fill="#5a65e9"/><path d="M150.2 53.5c20.8 0 37.7 18.4 37.7 41a51.9 51.9 0 01-8.9 28.4 363.8 363.8 0 00-64.2-14.1 49.6 49.6 0 01-2.2-14.3c0-22.6 16.9-41 37.6-41z"/><path d="M274.9 180a67.3 67.3 0 0114.2 17.9M349.1 180a67.3 67.3 0 00-14.2 17.9" fill="none" stroke="#2e9aa6" stroke-linecap="round" stroke-miterlimit="10" stroke-width="8"/><ellipse cx="140.6" cy="71.1" rx="15.6" ry="7.5" transform="rotate(-26.4 140.723 71.24)" fill="#7bb9f8"/><path d="M417.9 103.8a72.6 72.6 0 005.7 23 7.6 7.6 0 009.3 4.1 417.3 417.3 0 0191.3-19.8 7.5 7.5 0 006.8-7.2c1.2-36.6-24.8-68.2-58.1-68.2s-57.8 31.5-55 68.1z" fill="#fff" fill-rule="evenodd"/><path d="M473.8 53.5c-20.8 0-37.7 18.4-37.7 41a51.9 51.9 0 008.9 28.4 363.8 363.8 0 0164.2-14.1 49.6 49.6 0 002.2-14.3c0-22.6-16.9-41-37.6-41z"/><path d="M81.5 112.4c49-8 90.2 7.8 121.4 22.9M542.5 112.4c-49-8-90.2 7.8-121.4 22.9" fill="none" stroke="#2e9aa6" stroke-linecap="round" stroke-miterlimit="10" stroke-width="8"/><ellipse cx="465.3" cy="71.1" rx="15.6" ry="7.5" transform="rotate(-26.4 465.763 71.01)" fill="#7bb9f8"/><path fill="none" d="M0 0h624v624H0z"/></g></svg>
