<svg width="16" height="16" viewBox="0 0 16 16" fill="none" xmlns="http://www.w3.org/2000/svg">
<path fill-rule="evenodd" clip-rule="evenodd" d="M1.47341 6.74662C1.6102 6.74842 1.74218 6.69625 1.84076 6.60141C1.93934 6.50657 1.99659 6.37671 2.00008 6.23996C1.99664 6.10375 1.94055 5.97417 1.84358 5.87845C1.74662 5.78272 1.61633 5.72831 1.48008 5.72662H1.18675C1.0505 5.72831 0.920214 5.78272 0.823248 5.87845C0.726282 5.97417 0.670187 6.10375 0.666748 6.23996C0.670226 6.37555 0.726543 6.50441 0.823687 6.59906C0.920832 6.69372 1.05111 6.74667 1.18675 6.74662H1.47341ZM12.2267 12.9266C12.8552 12.6605 13.4233 12.2701 13.8971 11.779C14.371 11.2878 14.7407 10.7061 14.9841 10.0685C15.2276 9.43096 15.3397 8.7508 15.3138 8.06885C15.2879 7.3869 15.1245 6.7172 14.8334 6.09996C14.4167 5.23843 13.7734 4.50654 12.9724 3.98275C12.1715 3.45896 11.2431 3.16301 10.2867 3.12662H4.95341C4.84357 3.11652 4.73283 3.12944 4.62826 3.16455C4.52369 3.19966 4.42759 3.25619 4.3461 3.33053C4.26461 3.40487 4.19951 3.49539 4.15497 3.59631C4.11044 3.69722 4.08743 3.80632 4.08743 3.91662C4.08743 4.02693 4.11044 4.13603 4.15497 4.23694C4.19951 4.33786 4.26461 4.42838 4.3461 4.50272C4.42759 4.57706 4.52369 4.63359 4.62826 4.6687C4.73283 4.70381 4.84357 4.71673 4.95341 4.70662H6.30675C6.37862 4.69839 6.45142 4.70545 6.52037 4.72732C6.58933 4.74919 6.65288 4.7854 6.70686 4.83355C6.76085 4.8817 6.80404 4.94073 6.83362 5.00674C6.8632 5.07276 6.87849 5.14428 6.87849 5.21662C6.87849 5.28896 6.8632 5.36049 6.83362 5.42651C6.80404 5.49252 6.76085 5.55154 6.70686 5.5997C6.65288 5.64785 6.58933 5.68405 6.52037 5.70593C6.45142 5.7278 6.37862 5.73486 6.30675 5.72662H2.94008C2.80332 5.72661 2.67205 5.78048 2.57472 5.87656C2.47739 5.97265 2.42183 6.1032 2.42008 6.23996C2.42095 6.30737 2.43509 6.37395 2.4617 6.4359C2.4883 6.49785 2.52685 6.55395 2.57513 6.601C2.62342 6.64805 2.68051 6.68513 2.74312 6.71011C2.80574 6.7351 2.87267 6.74751 2.94008 6.74662H5.33342C5.40083 6.74662 5.46758 6.7599 5.52986 6.7857C5.59214 6.8115 5.64873 6.84931 5.6964 6.89698C5.74406 6.94464 5.78188 7.00123 5.80767 7.06351C5.83347 7.12579 5.84675 7.19255 5.84675 7.25996C5.84675 7.32737 5.83347 7.39412 5.80767 7.4564C5.78188 7.51868 5.74406 7.57527 5.6964 7.62294C5.64873 7.67061 5.59214 7.70842 5.52986 7.73422C5.46758 7.76001 5.40083 7.77329 5.33342 7.77329H3.84008C3.77267 7.77241 3.70574 7.78482 3.64312 7.8098C3.58051 7.83479 3.52342 7.87187 3.47513 7.91892C3.42685 7.96597 3.3883 8.02207 3.3617 8.08401C3.33509 8.14596 3.32095 8.21254 3.32008 8.27996C3.32183 8.41671 3.37739 8.54727 3.47472 8.64335C3.57205 8.73943 3.70332 8.7933 3.84008 8.79329H4.88008C4.94072 9.35675 5.09389 9.90635 5.33342 10.42C5.93497 11.6484 6.98922 12.5958 8.27465 13.0632C9.56009 13.5307 10.9767 13.4817 12.2267 12.9266ZM7.38008 9.46662C7.21614 9.11641 7.12406 8.73688 7.10929 8.35048C7.09452 7.96407 7.15736 7.57862 7.29409 7.21691C7.43082 6.8552 7.63866 6.52457 7.90535 6.24456C8.17203 5.96454 8.49214 5.74082 8.84675 5.58662C9.56287 5.26008 10.3786 5.22804 11.1182 5.49742C11.8577 5.76679 12.4617 6.316 12.8001 7.02662C12.9631 7.37699 13.0544 7.7564 13.0687 8.14256C13.083 8.52872 13.02 8.91385 12.8834 9.27532C12.7467 9.63678 12.5392 9.96729 12.2731 10.2474C12.0069 10.5276 11.6874 10.7517 11.3334 10.9066C10.6171 11.2314 9.80195 11.2625 9.06291 10.9933C8.32387 10.7241 7.71974 10.176 7.38008 9.46662Z" fill="url(#paint0_linear_127_14778)"/>
<path d="M11.0533 6.48671H9.14001C9.10816 6.48631 9.07674 6.49406 9.04873 6.50923C9.02073 6.5244 8.99707 6.54648 8.98001 6.57338L8.00001 8.17338C7.98367 8.20298 7.9751 8.23623 7.9751 8.27004C7.9751 8.30385 7.98367 8.33711 8.00001 8.36671L8.98001 10C8.99572 10.0286 9.0189 10.0524 9.04708 10.0689C9.07527 10.0853 9.10739 10.0938 9.14001 10.0934H11.0533C11.086 10.0938 11.1181 10.0853 11.1463 10.0689C11.1745 10.0524 11.1976 10.0286 11.2133 10L12.1667 8.40004C12.183 8.37045 12.1916 8.33719 12.1916 8.30338C12.1916 8.26957 12.183 8.23631 12.1667 8.20671L11.2133 6.60671C11.2008 6.57359 11.1791 6.54472 11.1508 6.52347C11.1224 6.50223 11.0886 6.48947 11.0533 6.48671Z" fill="url(#paint1_linear_127_14778)"/>
<defs>
<linearGradient id="paint0_linear_127_14778" x1="0.666748" y1="8.25241" x2="15.3175" y2="8.25241" gradientUnits="userSpaceOnUse">
<stop stop-color="#B473F5"/>
<stop offset="1" stop-color="#E292AA"/>
</linearGradient>
<linearGradient id="paint1_linear_127_14778" x1="7.9751" y1="8.29004" x2="12.1916" y2="8.29004" gradientUnits="userSpaceOnUse">
<stop stop-color="#B473F5"/>
<stop offset="1" stop-color="#E292AA"/>
</linearGradient>
</defs>
</svg>
