<svg width="81" height="66" fill="none" xmlns="http://www.w3.org/2000/svg">
  <path d="M47.04 48.06a127.915 127.915 0 0 0 22.82 22.158 6.895 6.895 0 0 0 7.885.249 6.898 6.898 0 0 0 2.224-9.486l-.15-.224A3713.558 3713.558 0 0 0 61.811 33.87L47.039 48.06Z" fill="url(#a)"/>
  <path d="m56.996 47.977 11.701 17.925" stroke="#0EC2BC" stroke-width="1.131" stroke-miterlimit="10" stroke-linecap="round"/>
  <path d="M20.814 44.16c-13.278 2.157-15.27 11.7-20 24.896-4.73 13.195 12.2 12.282 23.569 12.282 11.37 0 32.033-4.73 37.427-33.776L20.814 44.16Z" fill="#0EC2BC"/>
  <path d="M20.814 16.276C21.727 5.57 23.387 1.504 28.117.426c4.73-1.08 6.971 3.07 9.046 9.377l-16.348 6.473ZM49.694.01c-4.149.166-6.14 3.569-8.05 8.714l13.362 2.739C55.669 4.077 53.76-.24 49.694.01Z" fill="#2AE5C4"/>
  <path d="M37.162 54.201c25.145 1.743 28.382-8.962 30.54-16.1 2.904-9.875 5.477-14.273 1.66-18.506-2.324-2.572-5.81-2.821-9.295-1.825-2.988-6.307-7.552-10.706-20.25-9.793-9.543.747-24.398 5.726-29.792 22.324-5.394 16.597 15.104 23.153 27.137 23.9Z" fill="url(#b)"/>
  <path d="m63.221 22.832-.83-2.158-3.651 10.457-4.481 3.485-6.307-.747-17.51-10.871-.83 1.494a17.737 17.737 0 0 1 5.31 3.734c5.893 5.643 8.3 16.1 1.992 25.975h.25c16.68 1.162 23.65-3.153 27.136-8.215-3.236-13.693-1.742-19.502-1.079-23.154Z" fill="#ADFDDC"/>
  <path d="M22.309 21.172c2.987-.083 4.73.913 6.14 2.822" stroke="#0EC2BC" stroke-width="1.131" stroke-miterlimit="10" stroke-linecap="round"/>
  <path d="M61.81 21.421c-1.908 5.975-3.32 12.448-8.132 13.195-4.814.747-12.697-5.228-20.83-10.705" stroke="#000" stroke-width="1.601" stroke-miterlimit="10" stroke-linecap="round"/>
  <path d="M61.312 18.849c1.743-.25 4.98 1.078 5.394 3.485.415 2.407-3.485 1.992-5.56.249a3.133 3.133 0 0 1-1.328-2.49c0-.58.581-1.162 1.494-1.244Z" fill="#5865F2"/>
  <path d="M34.674 8.807a28.945 28.945 0 0 0-2.24-3.486 2.411 2.411 0 0 0-2.573-.996c-.83.25-2.739 1.411-2.988 6.888a.5.5 0 0 0 .415.498h.083a.582.582 0 0 0 .498-.332c.747-2.904 2.158-5.062 3.236-5.31h.498c.83.331 1.91 1.825 2.739 3.319.166.249.332.332.415.249.083-.083.166-.166-.083-.83ZM53.927 10.135a21.8 21.8 0 0 0-.498-4.15 2.404 2.404 0 0 0-1.826-2.074c-.747-.083-2.821.166-5.145 5.062a.659.659 0 0 0 .166.664h.083a.404.404 0 0 0 .498-.083c1.743-2.324 3.734-3.818 4.813-3.486l.332.25c.581.746.913 2.572 1.079 4.315 0 .249.166.415.249.415.083 0 .249-.166.249-.913Z" fill="#000"/>
  <path d="M16.168 27.396a10.358 10.358 0 0 1 2.656-3.07 9.296 9.296 0 0 1 3.817-1.411h1.992l1.992.332c1.27.282 2.498.73 3.651 1.328a18.583 18.583 0 0 1 5.975 5.062 19.496 19.496 0 0 1 3.569 6.888c0 .083-.083.249-.166.249s-.25 0-.332-.166a18.888 18.888 0 0 0-3.486-6.64 20.318 20.318 0 0 0-5.892-4.73 12.405 12.405 0 0 0-3.485-1.244 6.82 6.82 0 0 0-1.826-.25 7.352 7.352 0 0 0-1.909.084 8.207 8.207 0 0 0-3.32 1.328 7.274 7.274 0 0 0-2.323 2.738c-.166.166-.415.332-.664.166-.249-.108-.365-.406-.249-.664 0 .009 0 0 0 0Z" fill="#0EC2BC"/>
  <path d="M26.54 29.388c4.647-.25 7.385 2.157 8.381 6.39.996 4.232 1.494 6.556 3.154 8.63 1.66 2.075 3.485 5.644.83 11.868C36.248 62.5 28.696 76.11 22.39 84.74H2.97c15.768-21.66 22.407-30.374 22.573-34.855.166-4.482-3.402-8.465-4.896-10.374-1.494-1.909-.83-3.402.166-3.734.996-.332 2.407.166 3.237 1.41-1.245-3.983-1.743-7.551 2.49-7.8Z" fill="#2AE5C4"/>
  <path d="M32.431 20.425c2.24 1.41 3.154 3.983 2.075 5.726-1.079 1.743-1.992.913-2.988.166a15.43 15.43 0 0 0-3.983-2.157c-1.577-.581-1.992-1.91-1.162-3.154.83-1.245 3.818-1.992 6.058-.58Z" fill="#5865F2"/>
  <path d="m79.818 60.757-9.958-15.02A99.364 99.364 0 0 1 73.51 30.3c.83-2.407.25-4.481-2.655-4.647-2.905-.166-4.565 2.074-6.39 6.638-1.826 4.565-2.905 6.059-4.814 8.382-1.908 2.324-2.821 5.229.581 11.12C62.225 55.198 68.2 64.41 72.93 71.464a6.693 6.693 0 0 0 4.814-.996 6.898 6.898 0 0 0 2.224-9.486l-.15-.224Z" fill="#2AE5C4"/>
  <path d="m26.291 29.388-.747.166a1.248 1.248 0 0 0-.995 1.245c-.025.556.033 1.12.166 1.66a61.2 61.2 0 0 0 2.157 7.551c0 .25.25.333.415.333h.166a.42.42 0 0 0 .274-.523c-.008-.025-.017-.042-.025-.059a66.39 66.39 0 0 1-2.075-7.468c-.248-1.328-.248-2.158.083-2.573l.581-.332Z" fill="#000"/>
  <path d="M25.213 43.745c.091.19.282.324.498.332h.083a.5.5 0 0 0 .332-.581c-.498-1.494-1.245-3.403-2.075-6.224a3.913 3.913 0 0 0-1.41-1.245c1.162 3.651 1.991 5.975 2.572 7.718Z" fill="#0EBABA"/>
  <path d="M30.94 39.844c.04.2.215.332.414.332h.166a.5.5 0 0 0 .332-.58c0-.084-1.992-5.727-2.573-7.967-.165-.913-.165-1.577.166-1.826h.498L28.7 29.47c-.166 0-.25.166-.332.249a4.384 4.384 0 0 0 0 2.075c.58 2.323 2.49 7.883 2.572 8.05ZM69.445 38.019h.083a.582.582 0 0 0 .498-.332c.747-2.49 2.24-6.971 2.656-8.631.174-.598.29-1.203.332-1.826a1.079 1.079 0 0 0-.747-1.245 2.315 2.315 0 0 0-1.079-.248c.498.083.664.248.747.414.083.166.249 1.162-.166 2.656-.415 1.494-1.992 6.556-2.656 8.63-.083.167.083.499.332.582Z" fill="#000"/>
  <path d="m69.86 45.737-3.568.331a.33.33 0 0 0-.374.283.388.388 0 0 0 .042.215.41.41 0 0 0 .415.415h.082a26.609 26.609 0 0 1 3.984-.249l-.58-.995ZM60.068 17.77a7.739 7.739 0 0 0-.415-.83 7.496 7.496 0 0 0-2.158 2.323.587.587 0 0 0 .25.664h.165a.415.415 0 0 0 .415-.249 5.57 5.57 0 0 1 1.743-1.908Z" fill="#0EC2BC"/>
  <path opacity=".58" d="M57.992 38.849a5.456 5.456 0 0 1-3.485 3.9c-3.071 1.162-5.81-.996-6.64-2.324-.83-1.327-.746-2.157.416-1.66 4.398 1.577 6.307.996 8.05-.58 1.742-1.577 1.161-1.08 1.576-1.08.415 0 .498.499.083 1.744Z" fill="#2AE5C4"/>
  <path d="M32.1 1.836c0 .249-.332.415-.913.332-.58-.083-1.327-.415-1.493-.913-.166-.498.498-.664 1.245-.415.746.249 1.161.664 1.161.996ZM52.351 1.587c0 .249-.415.415-.913.332-.498-.083-1.41-.498-1.494-.913-.083-.415.415-.664 1.245-.415.515.15.938.506 1.162.996Z" fill="#2FFFDA"/>
  <defs>
    <linearGradient id="a" x1="78.385" y1="64.233" x2="58.766" y2="45.926" gradientUnits="userSpaceOnUse">
      <stop offset=".04" stop-color="#2AE5C4"/>
      <stop offset=".27" stop-color="#25DFC3"/>
      <stop offset=".56" stop-color="#19CFBF"/>
      <stop offset=".73" stop-color="#0EC2BC"/>
    </linearGradient>
    <linearGradient id="b" x1="35.908" y1="11.577" x2="43.867" y2="46.249" gradientUnits="userSpaceOnUse">
      <stop stop-color="#2AE5C4"/>
      <stop offset=".9" stop-color="#0EC2BC"/>
    </linearGradient>
  </defs>
</svg>
