<svg width="240" height="135" viewBox="0 0 240 135" fill="none" xmlns="http://www.w3.org/2000/svg">
<mask id="mask0_142_4964" style="mask-type:alpha" maskUnits="userSpaceOnUse" x="0" y="0" width="240" height="135">
<rect width="240" height="135" rx="8" fill="url(#paint0_linear_142_4964)"/>
</mask>
<g mask="url(#mask0_142_4964)">
<rect width="240" height="135" fill="#FFCAE3"/>
<path d="M-24.94 50.3381C-24.94 50.3381 1.94 -0.891928 35.86 42.3381C35.86 42.3381 68.02 37.0481 79.54 68.8681H-61C-61 68.8681 -39.55 35.4781 -24.94 50.3381Z" fill="#E3408A" fill-opacity="0.2"/>
<rect width="240" height="55" fill="url(#paint1_linear_142_4964)"/>
<path d="M154.06 124.48C154.06 124.48 178.9 90 210.23 119.11C210.23 119.11 239.94 115.54 250.58 136.98H120.75C120.75 136.98 140.58 114.43 154.06 124.48Z" fill="#E3408A" fill-opacity="0.2"/>
<path d="M31.17 118.5C30.1983 117.874 29.3711 117.048 28.7435 116.077C28.1159 115.106 27.7022 114.013 27.53 112.87L26.98 108.94C26.9678 108.845 26.9214 108.759 26.8495 108.696C26.7777 108.633 26.6854 108.599 26.59 108.6C26.4959 108.603 26.4057 108.639 26.3346 108.701C26.2636 108.763 26.2161 108.847 26.2 108.94L25.61 112.87C25.4396 114.012 25.0278 115.105 24.4018 116.076C23.7759 117.047 22.9503 117.873 21.98 118.5L21.47 118.83C21.4147 118.865 21.3691 118.914 21.3377 118.972C21.3062 119.029 21.2898 119.094 21.29 119.16C21.2898 119.226 21.3062 119.29 21.3377 119.348C21.3691 119.406 21.4147 119.454 21.47 119.49L21.98 119.82C22.9503 120.447 23.7759 121.273 24.4018 122.244C25.0278 123.214 25.4396 124.307 25.61 125.45L26.2 129.38C26.2161 129.473 26.2636 129.557 26.3346 129.619C26.4057 129.681 26.4959 129.717 26.59 129.72C26.6854 129.721 26.7777 129.686 26.8495 129.624C26.9214 129.561 26.9678 129.474 26.98 129.38L27.57 125.45C27.7422 124.307 28.1559 123.213 28.7835 122.243C29.4111 121.272 30.2383 120.446 31.21 119.82L31.72 119.49C31.7754 119.454 31.821 119.406 31.8524 119.348C31.8839 119.29 31.9003 119.226 31.9 119.16C31.9003 119.094 31.8839 119.029 31.8524 118.972C31.821 118.914 31.7754 118.865 31.72 118.83L31.17 118.5Z" fill="#FF78B9"/>
<path d="M21.8 91.78C20.645 91.0336 19.6617 90.0503 18.9152 88.8952C18.1687 87.7402 17.6761 86.4397 17.47 85.08L16.77 80.4C16.7554 80.2887 16.7005 80.1866 16.6158 80.1129C16.5311 80.0392 16.4223 79.9991 16.31 80C16.1971 80.0008 16.0882 80.0413 16.0022 80.1145C15.9163 80.1876 15.8588 80.2887 15.84 80.4L15.14 85.08C14.9382 86.4399 14.4484 87.741 13.7034 88.8964C12.9584 90.0519 11.9754 91.035 10.82 91.78L10.21 92.17C10.145 92.2121 10.0917 92.2699 10.055 92.3381C10.0183 92.4063 9.99937 92.4826 10 92.56C10.0004 92.6386 10.0196 92.716 10.0562 92.7857C10.0927 92.8553 10.1455 92.9151 10.21 92.96L10.82 93.35C11.976 94.0921 12.9596 95.0731 13.7048 96.227C14.4499 97.381 14.9393 98.6811 15.14 100.04L15.84 104.72C15.8588 104.831 15.9163 104.932 16.0022 105.006C16.0882 105.079 16.1971 105.119 16.31 105.12C16.4223 105.121 16.5311 105.081 16.6158 105.007C16.7005 104.933 16.7554 104.831 16.77 104.72L17.47 100.04C17.675 98.6813 18.1672 97.3818 18.9138 96.2282C19.6605 95.0747 20.6444 94.0935 21.8 93.35L22.4 92.96C22.4677 92.9175 22.5233 92.8585 22.5618 92.7885C22.6003 92.7185 22.6204 92.6399 22.62 92.56C22.6216 92.4813 22.602 92.4035 22.5633 92.3349C22.5246 92.2663 22.4682 92.2094 22.4 92.17L21.8 91.78Z" fill="#FFD635"/>
<g filter="url(#filter0_d_142_4964)">
<g filter="url(#filter1_d_142_4964)">
<path d="M50.625 17.7969L46.6953 25.0391V29H44.1172V24.9844L40.2422 17.7969H43.0156L45.3984 22.3984L47.8281 17.7969H50.625ZM54.1875 29.2422C53.3698 29.2422 52.6328 29.0651 51.9766 28.7109C51.3203 28.3568 50.8047 27.8594 50.4297 27.2188C50.0547 26.5729 49.8672 25.8307 49.8672 24.9922C49.8672 24.138 50.0521 23.3854 50.4219 22.7344C50.7917 22.0781 51.3047 21.5729 51.9609 21.2188C52.6172 20.8594 53.3594 20.6797 54.1875 20.6797C55.0208 20.6797 55.7682 20.8594 56.4297 21.2188C57.0911 21.5729 57.6068 22.0781 57.9766 22.7344C58.3516 23.3854 58.5391 24.138 58.5391 24.9922C58.5391 25.8307 58.349 26.5729 57.9688 27.2188C57.5938 27.8594 57.0755 28.3568 56.4141 28.7109C55.7526 29.0651 55.0104 29.2422 54.1875 29.2422ZM54.1875 27.125C54.5573 27.125 54.875 27.0365 55.1406 26.8594C55.4115 26.6823 55.6198 26.4323 55.7656 26.1094C55.9115 25.7812 55.9844 25.4036 55.9844 24.9766C55.9844 24.5443 55.9115 24.1641 55.7656 23.8359C55.625 23.5026 55.4193 23.2448 55.1484 23.0625C54.8776 22.8802 54.5573 22.7891 54.1875 22.7891C53.8229 22.7891 53.5052 22.8802 53.2344 23.0625C52.9688 23.2448 52.7656 23.5 52.625 23.8281C52.4844 24.1562 52.4141 24.5391 52.4141 24.9766C52.4141 25.4036 52.4844 25.7812 52.625 26.1094C52.7708 26.4323 52.9766 26.6823 53.2422 26.8594C53.5078 27.0365 53.8229 27.125 54.1875 27.125ZM67.8125 20.9219V29H65.3672V27.6641C65.1484 28.1432 64.8229 28.5234 64.3906 28.8047C63.9583 29.0859 63.4557 29.2266 62.8828 29.2266C61.9453 29.2266 61.2292 28.9401 60.7344 28.3672C60.2396 27.7891 59.9922 26.9896 59.9922 25.9688V20.9219H62.4844V25.4219C62.4844 26 62.5938 26.4375 62.8125 26.7344C63.0365 27.026 63.3802 27.1719 63.8438 27.1719C64.3281 27.1719 64.6953 26.9948 64.9453 26.6406C65.1953 26.2865 65.3203 25.7891 65.3203 25.1484V20.9219H67.8125ZM74.3203 20.7734C74.7109 20.7734 75.0573 20.8802 75.3594 21.0938V23.3984C75.0156 23.1745 74.5859 23.0625 74.0703 23.0625C73.5234 23.0625 73.0938 23.2552 72.7812 23.6406C72.4688 24.026 72.3099 24.5755 72.3047 25.2891V29H69.8125V20.9219H72.3047V22.5859C72.4818 21.9714 72.7422 21.5156 73.0859 21.2188C73.4349 20.9219 73.8464 20.7734 74.3203 20.7734ZM84.0625 29.3281C83.3698 29.3281 82.6875 29.2292 82.0156 29.0312C81.349 28.8385 80.7161 28.5417 80.1172 28.1406V25.7188C80.6276 26.1198 81.2031 26.4427 81.8438 26.6875C82.4896 26.9271 83.1328 27.0469 83.7734 27.0469C84.8776 27.0469 85.4297 26.6484 85.4297 25.8516C85.4297 25.6536 85.3906 25.4844 85.3125 25.3438C85.2344 25.1979 85.1016 25.0625 84.9141 24.9375C84.7318 24.8125 84.4714 24.6823 84.1328 24.5469L82.8594 24.1016C81.9115 23.7734 81.2161 23.3516 80.7734 22.8359C80.3359 22.3151 80.1172 21.6641 80.1172 20.8828C80.1172 20.1849 80.2812 19.5807 80.6094 19.0703C80.9375 18.5547 81.4089 18.1589 82.0234 17.8828C82.6432 17.6016 83.3802 17.4609 84.2344 17.4609C84.9062 17.4609 85.5391 17.5521 86.1328 17.7344C86.7266 17.9167 87.2708 18.1589 87.7656 18.4609V20.8672C86.7344 20.1068 85.6484 19.7266 84.5078 19.7266C83.4141 19.7266 82.8672 20.0781 82.8672 20.7812C82.8672 21.0677 82.9688 21.3047 83.1719 21.4922C83.375 21.6745 83.6979 21.8516 84.1406 22.0234L85.3047 22.4141C86.3516 22.763 87.112 23.2031 87.5859 23.7344C88.0651 24.2656 88.3047 24.9401 88.3047 25.7578C88.3047 26.4818 88.1354 27.1146 87.7969 27.6562C87.4583 28.1927 86.9688 28.6068 86.3281 28.8984C85.6927 29.1849 84.9375 29.3281 84.0625 29.3281ZM97.5156 25.5625H91.9688C92.099 26.1094 92.3932 26.5339 92.8516 26.8359C93.3099 27.1328 93.9271 27.2812 94.7031 27.2812C95.1562 27.2812 95.599 27.2161 96.0312 27.0859C96.4635 26.9557 96.8464 26.7786 97.1797 26.5547V28.3828C96.8464 28.6328 96.4141 28.8385 95.8828 29C95.3516 29.1615 94.763 29.2422 94.1172 29.2422C93.1693 29.2422 92.3438 29.0677 91.6406 28.7188C90.9375 28.3646 90.3958 27.862 90.0156 27.2109C89.6354 26.5599 89.4453 25.7943 89.4453 24.9141C89.4453 24.0859 89.6172 23.3516 89.9609 22.7109C90.3047 22.0703 90.7969 21.5729 91.4375 21.2188C92.0833 20.8594 92.8385 20.6797 93.7031 20.6797C94.5052 20.6797 95.1901 20.8281 95.7578 21.125C96.3307 21.4167 96.7656 21.849 97.0625 22.4219C97.3646 22.9948 97.5156 23.6927 97.5156 24.5156V25.5625ZM93.7578 22.5781C93.2526 22.5781 92.8516 22.7161 92.5547 22.9922C92.2578 23.2682 92.0755 23.6536 92.0078 24.1484H95.3594C95.3438 23.638 95.1953 23.25 94.9141 22.9844C94.6328 22.7135 94.2474 22.5781 93.7578 22.5781ZM103.602 20.7734C103.992 20.7734 104.339 20.8802 104.641 21.0938V23.3984C104.297 23.1745 103.867 23.0625 103.352 23.0625C102.805 23.0625 102.375 23.2552 102.062 23.6406C101.75 24.026 101.591 24.5755 101.586 25.2891V29H99.0938V20.9219H101.586V22.5859C101.763 21.9714 102.023 21.5156 102.367 21.2188C102.716 20.9219 103.128 20.7734 103.602 20.7734ZM113.898 20.9219L110.711 29H108.234L105.047 20.9219H107.703L109.461 26.0078L111.258 20.9219H113.898ZM122.344 25.5625H116.797C116.927 26.1094 117.221 26.5339 117.68 26.8359C118.138 27.1328 118.755 27.2812 119.531 27.2812C119.984 27.2812 120.427 27.2161 120.859 27.0859C121.292 26.9557 121.674 26.7786 122.008 26.5547V28.3828C121.674 28.6328 121.242 28.8385 120.711 29C120.18 29.1615 119.591 29.2422 118.945 29.2422C117.997 29.2422 117.172 29.0677 116.469 28.7188C115.766 28.3646 115.224 27.862 114.844 27.2109C114.464 26.5599 114.273 25.7943 114.273 24.9141C114.273 24.0859 114.445 23.3516 114.789 22.7109C115.133 22.0703 115.625 21.5729 116.266 21.2188C116.911 20.8594 117.667 20.6797 118.531 20.6797C119.333 20.6797 120.018 20.8281 120.586 21.125C121.159 21.4167 121.594 21.849 121.891 22.4219C122.193 22.9948 122.344 23.6927 122.344 24.5156V25.5625ZM118.586 22.5781C118.081 22.5781 117.68 22.7161 117.383 22.9922C117.086 23.2682 116.904 23.6536 116.836 24.1484H120.188C120.172 23.638 120.023 23.25 119.742 22.9844C119.461 22.7135 119.076 22.5781 118.586 22.5781ZM128.43 20.7734C128.82 20.7734 129.167 20.8802 129.469 21.0938V23.3984C129.125 23.1745 128.695 23.0625 128.18 23.0625C127.633 23.0625 127.203 23.2552 126.891 23.6406C126.578 24.026 126.419 24.5755 126.414 25.2891V29H123.922V20.9219H126.414V22.5859C126.591 21.9714 126.852 21.5156 127.195 21.2188C127.544 20.9219 127.956 20.7734 128.43 20.7734Z" fill="white"/>
</g>
<path d="M32 24C32 24.8 30.7 25.4 30.5 26.1C30.3 26.8 30.9 28.1 30.5 28.7C30.1 29.3 28.6 29 28 29.5C27.4 30 27.2 31.3 26.5 31.6C25.8 31.9 24.8 30.8 24 30.8C23.2 30.8 22.2 31.8 21.5 31.6C20.8 31.4 20.6 29.9 20 29.5C19.4 29.1 18 29.3 17.5 28.7C17 28.1 17.7 26.9 17.5 26.1C17.3 25.3 16 24.8 16 24C16 23.2 17.3 22.6 17.5 21.9C17.7 21.2 17.1 19.9 17.5 19.3C17.9 18.7 19.4 19 20 18.5C20.6 18 20.8 16.7 21.5 16.4C22.2 16.1 23.2 17.2 24 17.2C24.8 17.2 25.8 16.2 26.5 16.4C27.2 16.6 27.4 18 28 18.5C28.6 19 30 18.7 30.5 19.3C31 19.9 30.3 21.1 30.5 21.9C30.7 22.7 32 23.2 32 24Z" fill="white"/>
<path d="M24 19L21 22V26L24 29L27 26V22L24 19ZM26 25.6L24 27.6L22 25.6V22.4L24 20.4L26 22.4V25.6Z" fill="#FF73FA"/>
<path d="M23 22.8V24.3L24.8 22.6L24 21.8L23 22.8Z" fill="#FF73FA"/>
<path d="M23.9998 26.2L24.9998 25.2V23.8L23.2998 25.5L23.9998 26.2Z" fill="#FF73FA"/>
<g filter="url(#filter2_d_142_4964)">
<path fill-rule="evenodd" clip-rule="evenodd" d="M216.59 20.59L212 25.17L207.41 20.59L206 22L212 28L218 22L216.59 20.59Z" fill="white"/>
</g>
</g>
<path d="M203.32 45.19C202.413 44.6124 201.64 43.8481 201.052 42.9479C200.464 42.0478 200.075 41.0325 199.91 39.97L199.41 36.31C199.394 36.2235 199.348 36.1452 199.281 36.0887C199.213 36.0322 199.128 36.0008 199.04 36C198.953 36.0012 198.87 36.0329 198.804 36.0896C198.738 36.1463 198.694 36.2243 198.68 36.31L198.13 39.96C197.97 41.0192 197.587 42.0323 197.006 42.9322C196.425 43.8321 195.66 44.5983 194.76 45.18L194.29 45.48C194.238 45.5134 194.195 45.5592 194.166 45.6134C194.136 45.6675 194.12 45.7282 194.12 45.79C194.119 45.8519 194.135 45.913 194.164 45.9673C194.194 46.0216 194.238 46.0673 194.29 46.1L194.76 46.41C195.661 46.9897 196.428 47.7554 197.009 48.6557C197.591 49.5559 197.973 50.57 198.13 51.63L198.68 55.27C198.692 55.3575 198.735 55.4379 198.801 55.4966C198.867 55.5553 198.952 55.5884 199.04 55.59C199.13 55.5888 199.216 55.556 199.283 55.4975C199.351 55.4389 199.396 55.3584 199.41 55.27L199.95 51.63C200.108 50.57 200.49 49.5559 201.071 48.6557C201.652 47.7554 202.419 46.9897 203.32 46.41L203.8 46.1C203.85 46.0655 203.891 46.0191 203.919 45.965C203.947 45.911 203.961 45.8508 203.96 45.79C203.96 45.7293 203.946 45.6695 203.918 45.6156C203.89 45.5616 203.85 45.5151 203.8 45.48L203.32 45.19Z" fill="#8CD9FF"/>
<path d="M189.46 60.8101C188.927 60.4656 188.474 60.0121 188.129 59.4795C187.784 58.9469 187.556 58.3472 187.46 57.7201L187.13 55.5601C187.125 55.508 187.101 55.4596 187.062 55.4244C187.023 55.3892 186.972 55.3699 186.92 55.3701C186.866 55.3696 186.815 55.3886 186.774 55.4236C186.734 55.4586 186.707 55.5071 186.7 55.5601L186.38 57.7201C186.285 58.3476 186.058 58.9478 185.713 59.4805C185.368 60.0133 184.914 60.4666 184.38 60.8101L184.1 60.9901C184.07 61.0097 184.045 61.0363 184.028 61.0677C184.01 61.0991 184.001 61.1342 184 61.1701C184 61.2075 184.009 61.2444 184.026 61.2775C184.044 61.3106 184.069 61.339 184.1 61.3601L184.38 61.5401C184.914 61.8827 185.37 62.3357 185.714 62.8687C186.059 63.4016 186.286 64.0022 186.38 64.6301L186.7 66.7901C186.707 66.8431 186.734 66.8917 186.774 66.9266C186.815 66.9616 186.866 66.9806 186.92 66.9801C186.972 66.9804 187.023 66.961 187.062 66.9258C187.101 66.8907 187.125 66.8423 187.13 66.7901L187.46 64.6301C187.555 64.0026 187.782 63.4025 188.127 62.8697C188.472 62.3369 188.926 61.8837 189.46 61.5401L189.75 61.3601C189.78 61.3385 189.803 61.3098 189.819 61.2766C189.835 61.2434 189.842 61.2068 189.84 61.1701C189.841 61.135 189.834 61.1001 189.818 61.0686C189.802 61.0372 189.779 61.0102 189.75 60.9901L189.46 60.8101Z" fill="#91FFAD"/>
</g>
<g clip-path="url(#clip0_142_4964)">
<path d="M216.895 71.5927C216.796 70.8261 216.493 70.0998 216.018 69.4888C215.544 68.8779 214.914 68.4042 214.194 68.1169C213.651 67.8961 213.095 67.7075 212.53 67.5521C211.276 67.2169 209.942 67.3412 208.772 67.9024C207.602 68.4636 206.672 69.4245 206.151 70.6108C205.088 73.0091 203.607 76.2329 202.526 78.1533L196.035 77.406C195.458 77.3428 194.875 77.4391 194.349 77.6843C193.823 77.9296 193.376 78.3143 193.055 78.7963C189.395 84.3141 188.619 91.1354 189.229 94.7415C189.325 95.3017 189.601 95.8153 190.017 96.2043C190.432 96.5933 190.963 96.8364 191.53 96.8965L207.092 98.7039C207.738 98.7773 208.39 98.6569 208.966 98.3581C209.542 98.0593 210.015 97.5957 210.325 97.0269C211.555 94.9213 212.291 92.5656 212.478 90.1361C212.564 88.6951 212.912 87.2818 213.506 85.9651C216.224 80.0476 217.375 75.9983 216.895 71.5927Z" fill="#2CCB7A"/>
<path d="M214.194 68.0821C213.651 67.8614 213.095 67.6728 212.53 67.5173C211.303 67.1729 209.992 67.2872 208.844 67.8388C210.325 67.0742 212.329 69.4203 211.859 71.2625C211.388 73.1047 210.116 77.0671 210.247 78.9006C210.3 79.6166 210.625 80.2853 211.157 80.7698C211.688 81.2544 212.385 81.5183 213.105 81.5074C213.889 81.5074 215.719 75.9027 216.93 71.949C216.93 71.8273 216.93 71.697 216.93 71.5753C216.83 70.8018 216.524 70.0692 216.042 69.4546C215.561 68.84 214.922 68.3659 214.194 68.0821V68.0821Z" fill="#59F186"/>
<path d="M207.092 98.6692C207.734 98.7458 208.383 98.6305 208.959 98.3381C209.535 98.0457 210.01 97.5893 210.325 97.0269C211.555 94.9213 212.291 92.5656 212.477 90.1361C212.564 88.6951 212.912 87.2818 213.506 85.9651C216.233 80.0563 217.383 76.007 216.904 71.6014C216.814 70.8245 216.518 70.0856 216.046 69.4609C215.574 68.8362 214.944 68.3482 214.22 68.0474C213.676 67.8275 213.12 67.6361 212.556 67.4739C212.126 67.3807 211.688 67.3341 211.249 67.3348C213.619 67.4652 215.196 69.9417 214.185 74.9468C212.73 82.1418 211.092 83.1411 210.369 86.6603C209.733 89.7885 209.157 94.5851 206.299 98.5823L207.092 98.6692Z" fill="black"/>
<path d="M204.879 90.2577C205.048 89.8019 205.171 89.3303 205.245 88.8501C205.495 87.0395 205.02 85.2037 203.922 83.74C202.824 82.2764 201.193 81.3026 199.381 81.0295L163.48 75.8158C161.908 75.5922 160.307 75.9105 158.941 76.7179C157.575 77.5254 156.527 78.7736 155.969 80.2561L151.272 92.9428C150.643 94.6637 150.72 96.5629 151.487 98.2275C152.254 99.892 153.648 101.187 155.368 101.832C157.095 102.46 159 102.381 160.669 101.615C162.339 100.849 163.637 99.4557 164.282 97.7394L167.035 90.3186L197.368 94.7328C198.944 94.9542 200.549 94.6309 201.915 93.8168C203.282 93.0027 204.328 91.7468 204.879 90.2577Z" fill="#FFC619"/>
<path d="M178.546 85.5567C179.496 80.7341 178.311 77.8839 176.803 77.7362L199.389 81.0208C201.202 81.2939 202.833 82.2677 203.93 83.7313C205.028 85.195 205.503 87.0308 205.254 88.8414C205.179 89.3216 205.057 89.7932 204.888 90.2491C204.33 91.7316 203.282 92.9799 201.916 93.7873C200.55 94.5948 198.948 94.913 197.377 94.6894L174.337 91.3353C174.947 91.4309 177.596 90.3881 178.546 85.5567Z" fill="white"/>
<path d="M183.086 86.2171C184.036 81.3945 182.851 78.6051 181.343 78.3966L184.646 78.8745C186.162 79.1091 187.347 81.8897 186.389 86.695C185.43 91.5003 182.79 92.5691 182.171 92.4822L178.869 91.9956C179.487 92.0999 182.136 91.0485 183.086 86.2171Z" fill="#5765F1"/>
<path d="M193.386 80.1345C194.257 80.2561 196.183 80.7601 196 84.6617C195.712 89.719 193.334 94.1072 192.027 93.916L190.197 93.6466L189.953 94.5938L200.932 96.184L207.032 90.9703L205.969 82.863L201.951 79.3872L194.824 78.8398L193.386 80.1345Z" fill="#2CCB7A"/>
<path d="M64.5181 92.8733C64.0275 93.2584 63.4302 93.484 62.8068 93.5198C62.1835 93.5555 61.5642 93.3996 61.0326 93.0732L54.2882 88.9978C53.4976 88.5664 52.8589 87.9035 52.4584 87.0985C52.0579 86.2935 51.9149 85.3853 52.0487 84.4966L52.101 84.2533C52.6076 82.0807 52.3364 79.7999 51.3342 77.8057C49.3475 73.6956 48.6591 69.933 50.0446 66.6484C51.8832 62.3036 54.3142 59.0364 58.9935 60.2703C63.0367 61.3478 62.8102 64.2848 66.348 71.6448C67.0199 73.0349 68.0825 74.2002 69.4065 74.999L71.1493 76.0678C71.6268 76.3576 72.0172 76.7704 72.2794 77.2628C72.5416 77.7552 72.6659 78.309 72.6393 78.8658C72.4476 83.7754 69.4849 89.1194 64.5181 92.8733Z" fill="#2CCB7A"/>
<path d="M62.7403 63.2855C62.3975 62.5325 61.8849 61.8686 61.2426 61.3456C60.6002 60.8226 59.8453 60.4546 59.0369 60.2703C54.497 59.0711 52.066 62.069 50.2622 66.2487C50.2622 70.5239 50.7327 75.7289 52.6062 76.9194C55.9087 79.0135 55.5775 75.251 55.3858 73.0352C55.1244 70.1155 56.4576 67.6911 57.8431 65.4319C59.2286 63.1726 61.6772 61.2956 62.7403 63.2855Z" fill="#59F186"/>
<path d="M53.5908 84.3663C54.0831 83.3004 54.3284 82.1378 54.3088 80.9645C54.2892 79.7912 54.0051 78.6374 53.4776 77.5885C52.6063 75.6906 52.1553 73.6278 52.1553 71.5406C52.1553 69.4533 52.6063 67.3905 53.4776 65.4927C55.2203 61.6345 57.5992 59.8879 59.4117 60.3919C54.288 58.654 51.7261 62.6946 50.0705 66.6484C48.685 69.933 49.3733 73.6956 51.3601 77.8057C52.3623 79.7998 52.6335 82.0807 52.1269 84.2533L52.0747 84.4966C51.9409 85.3853 52.0839 86.2935 52.4844 87.0985C52.8849 87.9035 53.5235 88.5664 54.314 88.9978C53.7187 88.4007 53.3281 87.6311 53.1982 86.7992C53.0683 85.9672 53.2057 85.1156 53.5908 84.3663V84.3663Z" fill="black"/>
<path d="M60.7447 78.8571C61.8729 77.9546 63.2563 77.4273 64.7005 77.3494C66.1447 77.2714 67.577 77.6468 68.7962 78.4227L89.2823 91.3874C90.2177 91.9754 90.9979 92.7787 91.5574 93.7298C92.1169 94.6809 92.4394 95.752 92.4977 96.8531C92.5526 97.954 92.3441 99.0521 91.8896 100.057C91.4351 101.062 90.7475 101.944 89.8836 102.632L83.784 107.472C82.3442 108.61 80.5122 109.135 78.6863 108.933C76.8604 108.731 75.1882 107.819 74.0332 106.394C72.0465 103.909 72.9004 102.136 74.0332 98.1304L61.346 90.1014C59.7961 89.1127 58.701 87.553 58.2994 85.7625C57.8979 83.972 58.2225 82.0958 59.2024 80.5429C59.6174 79.8982 60.1389 79.3282 60.7447 78.8571V78.8571Z" fill="#FFC619"/>
<path d="M60.7447 78.8571C61.8729 77.9546 63.2563 77.4273 64.7005 77.3494C66.1447 77.2714 67.577 77.6468 68.7962 78.4227L89.2823 91.3874C90.2177 91.9754 90.9979 92.7787 91.5574 93.7298C92.1169 94.6809 92.4394 95.752 92.4977 96.8531C92.5526 97.954 92.3441 99.0521 91.8896 100.057C91.4351 101.062 90.7475 101.944 89.8836 102.632L83.784 107.472C82.3442 108.61 80.5122 109.135 78.6863 108.933C76.8604 108.731 75.1882 107.819 74.0332 106.394C72.0465 103.909 72.9004 102.136 74.0332 98.1304L61.346 90.1014C59.7961 89.1127 58.701 87.553 58.2994 85.7625C57.8979 83.972 58.2225 82.0958 59.2024 80.5429C59.6174 79.8982 60.1389 79.3282 60.7447 78.8571V78.8571Z" fill="#FFC619"/>
<path d="M73.5195 99.851L78.2947 102.875C78.4877 102.99 78.718 103.026 78.9372 102.976C79.1565 102.926 79.3477 102.793 79.471 102.606C79.5873 102.414 79.6251 102.185 79.5764 101.967C79.5277 101.748 79.3964 101.557 79.2096 101.432L73.9814 98.1391C73.8768 98.7648 73.7112 99.3296 73.5195 99.851Z" fill="black"/>
<path d="M61.3636 90.0753L75.3578 98.9386C74.8263 98.6084 73.5105 96.0971 75.9417 91.8132C78.3728 87.5293 81.1089 86.1911 82.4072 87.0079L68.7963 78.3966C67.5771 77.6207 66.1448 77.2454 64.7006 77.3233C63.2564 77.4012 61.873 77.9285 60.7448 78.8311C60.1445 79.3062 59.6289 79.8791 59.2199 80.5255C58.2427 82.0777 57.9198 83.9518 58.3212 85.7403C58.7226 87.5287 59.8161 89.0867 61.3636 90.0753V90.0753Z" fill="white"/>
<path d="M68.4221 94.5764L71.5416 96.549C71.0187 96.2188 69.6943 93.6988 72.1342 89.4149C74.574 85.1309 77.3013 83.8015 78.591 84.6183L75.4802 82.6458C74.1819 81.829 71.4544 83.1671 69.0146 87.4511C66.5747 91.735 67.8993 94.2462 68.4221 94.5764Z" fill="#5765F1"/>
<path d="M63.1585 91.2397C62.627 90.9095 61.6946 88.6328 64.1344 84.3576C66.5743 80.0824 68.683 78.3444 69.9813 79.1439L70.5826 79.5262L71.1316 78.5617L64.7357 74.9556L57.1634 78.4314L55.8477 86.5039L57.5295 89.58L62.4963 92.63L63.995 91.761L63.1585 91.2397Z" fill="#2CCB7A"/>
<path d="M149.66 85.018C151.485 89.2526 152.428 93.8126 152.434 98.4217C152.439 103.031 151.506 107.593 149.69 111.832C147.875 116.07 145.216 119.897 141.873 123.081C138.531 126.264 134.575 128.738 130.246 130.351C126.002 132.015 121.452 132.763 116.897 132.545C112.342 132.326 107.885 131.146 103.821 129.083C99.7566 127.02 96.1775 124.121 93.3199 120.577C90.4623 117.033 88.3912 112.924 87.2433 108.523C82.686 91.5699 92.245 73.8781 108.287 67.8388C116.076 64.8604 124.716 64.9827 132.417 68.1806C140.119 71.3784 146.292 77.4068 149.66 85.018V85.018Z" fill="#FF78B8"/>
<path d="M131.3 74.4342C129.009 71.1843 124.826 69.2205 121.959 70.0894C121.84 70.1238 121.723 70.1673 121.611 70.2198V70.2198C120.312 70.7064 119.65 71.7317 118.892 73.6C118.74 74.0201 118.438 74.3703 118.045 74.5847C117.652 74.7992 117.194 74.863 116.757 74.7644C114.371 74.0102 111.805 74.0407 109.438 74.8513C106.231 76.0591 104.837 79.9781 106.318 83.6103C107.799 87.2425 111.599 89.215 114.796 88.0072C114.977 87.9379 115.155 87.8596 115.328 87.7726L115.441 87.7117C117.332 86.7211 119.11 84.5748 120.67 81.7507C120.83 81.4428 121.087 81.196 121.402 81.0484C121.717 80.9008 122.072 80.8605 122.412 80.9339C126.386 82.2286 129.104 82.3069 130.255 81.8637C133.13 81.0643 133.592 77.7275 131.3 74.4342Z" fill="white"/>
<path d="M115.317 87.8619C118.373 86.3362 119.42 82.2539 117.658 78.7438C115.895 75.2336 111.989 73.6249 108.934 75.1506C105.879 76.6762 104.831 80.7586 106.594 84.2687C108.357 87.7788 112.262 89.3876 115.317 87.8619Z" fill="white"/>
<path d="M132.036 80.8264C133.743 78.7282 132.491 74.8948 129.24 72.2645C125.988 69.6341 121.969 69.2028 120.262 71.301C118.555 73.3993 119.807 77.2326 123.058 79.863C126.31 82.4934 130.329 82.9247 132.036 80.8264Z" fill="white"/>
<path d="M114.744 81.5537C115.589 80.9668 115.65 79.5971 114.88 78.4944C114.11 77.3916 112.801 76.9734 111.956 77.5603C111.11 78.1471 111.05 79.5168 111.819 80.6196C112.589 81.7223 113.899 82.1405 114.744 81.5537Z" fill="black"/>
<path d="M126.406 77.1084C127.142 76.5519 127.079 75.2325 126.265 74.1616C125.451 73.0907 124.195 72.6738 123.458 73.2304C122.722 73.787 122.785 75.1063 123.599 76.1772C124.413 77.2481 125.669 77.665 126.406 77.1084Z" fill="black"/>
<path d="M129.836 84.1056C125.993 84.1056 122.168 80.821 120.721 76.0244C120.253 74.6539 120.07 73.2026 120.184 71.7592C120.298 70.3158 120.706 68.9108 121.384 67.6303C121.826 66.8438 122.428 66.1579 123.151 65.6163C123.875 65.0747 124.703 64.6893 125.584 64.4847C129.88 63.5289 134.515 67.0133 136.145 72.4008C136.61 73.7722 136.79 75.2236 136.675 76.6667C136.559 78.1097 136.151 79.5143 135.474 80.7949C135.032 81.5827 134.43 82.27 133.707 82.8131C132.984 83.3562 132.155 83.7431 131.274 83.9492C130.802 84.0527 130.32 84.1051 129.836 84.1056V84.1056ZM126.987 66.9004C126.694 66.8968 126.402 66.9259 126.115 66.9873C125.581 67.1177 125.08 67.3573 124.644 67.6908C124.207 68.0244 123.845 68.4446 123.58 68.925C123.09 69.9081 122.803 70.979 122.736 72.0745C122.669 73.17 122.822 74.2678 123.188 75.3031C124.39 79.2829 127.841 82.0983 130.725 81.464C131.261 81.3351 131.764 81.0951 132.2 80.7598C132.637 80.4244 132.998 80.0012 133.261 79.5175C133.756 78.5415 134.048 77.4761 134.122 76.3848C134.195 75.2935 134.047 74.1987 133.688 73.1655C132.59 69.5507 129.662 66.9004 126.987 66.9004V66.9004Z" fill="#5865F2"/>
<path d="M113.603 90.5184C109.647 90.5184 105.638 87.1643 104.209 82.3851C103.749 81.0018 103.576 79.5398 103.701 78.0879C103.825 76.6359 104.244 75.2243 104.933 73.9389C105.403 73.1041 106.041 72.3753 106.808 71.7981C107.574 71.2209 108.451 70.8078 109.385 70.5847C113.786 69.5854 118.683 73.1916 120.295 78.5443C120.753 79.9281 120.925 81.3904 120.799 82.8424C120.673 84.2944 120.253 85.7057 119.563 86.9905C119.097 87.8273 118.461 88.5579 117.696 89.1355C116.931 89.7131 116.053 90.1249 115.119 90.3446C114.621 90.4582 114.113 90.5165 113.603 90.5184V90.5184ZM110.989 72.9743C110.657 72.9728 110.326 73.0107 110.004 73.0873C109.412 73.2296 108.856 73.4941 108.373 73.8638C107.89 74.2335 107.489 74.7001 107.198 75.2336C106.694 76.2183 106.391 77.2935 106.309 78.3962C106.227 79.4989 106.366 80.6068 106.719 81.6551C107.947 85.774 111.477 88.5546 114.561 87.8508C115.152 87.7074 115.706 87.4423 116.187 87.0727C116.669 86.7031 117.068 86.237 117.358 85.7045C117.867 84.7212 118.172 83.6461 118.255 82.543C118.339 81.44 118.2 80.3314 117.846 79.2829C116.687 75.5899 113.751 72.9743 110.91 72.9743H110.989Z" fill="#5865F2"/>
<path d="M121.238 73.1769L117.455 74.6007L118.363 76.999L122.145 75.5751L121.238 73.1769Z" fill="#5865F2"/>
<path d="M121.689 86.8254L127.876 84.9919C128.037 84.9439 128.207 84.9315 128.374 84.9557C128.54 84.9798 128.7 85.0399 128.841 85.1317C128.982 85.2235 129.101 85.3448 129.19 85.4873C129.279 85.6297 129.336 85.7898 129.357 85.9564C129.732 88.9196 129.732 95.2803 121.314 88.85C121.145 88.7204 121.015 88.5465 120.938 88.3477C120.861 88.1489 120.841 87.9328 120.88 87.7233C120.919 87.5138 121.015 87.3191 121.158 87.1606C121.3 87.0022 121.484 86.8862 121.689 86.8254V86.8254Z" fill="black"/>
<path d="M126.673 88.824C125.241 88.7859 123.821 89.0835 122.525 89.6929C127.431 93.0471 129 91.4308 129.392 89.1455C128.503 88.921 127.59 88.813 126.673 88.824Z" fill="#E53794"/>
<path d="M92.1494 105.716C90.241 103.318 77.0484 85.0875 70.5654 76.0939C69.5768 74.7199 69.1244 73.0337 69.2928 71.351C69.4612 69.6683 70.239 68.1045 71.4804 66.9525V66.9525C72.2011 66.2893 73.054 65.7852 73.9834 65.4732C74.9129 65.1612 75.8978 65.0483 76.874 65.1417C77.8502 65.2352 78.7957 65.5331 79.6486 66.0158C80.5014 66.4985 81.2426 67.1553 81.8236 67.9431L105.525 100.72L92.1494 105.716Z" fill="#FFD635"/>
<path d="M77.3619 75.0598C76.0931 75.7422 74.619 75.9422 73.2135 75.6225C71.808 75.3029 70.5666 74.4854 69.72 73.3219L64.2651 65.9185L74.8 60.1834L79.3051 66.3095C79.8124 66.9921 80.1668 67.7755 80.3444 68.6065C80.522 69.4375 80.5185 70.2969 80.3343 71.1265C80.1501 71.9561 79.7894 72.7366 79.2766 73.4151C78.7638 74.0937 78.1109 74.6546 77.3619 75.0598V75.0598Z" fill="#D01582"/>
<path d="M74.7045 59.4708L66.9579 55.6735C66.1621 54.381 65.4715 53.0269 64.8928 51.6242C64.6605 51.0371 64.2986 50.5095 63.834 50.0808C63.3694 49.6521 62.814 49.3332 62.209 49.1477C61.3566 48.9115 60.4501 48.9594 59.6275 49.2841C58.8049 49.6088 58.1111 50.1925 57.6517 50.9464C55.7521 54.1094 54.7936 55.9777 53.9309 57.4636C52.8765 59.271 53.5823 61.9995 55.9873 64.8149C58.3923 67.6303 58.6014 68.7252 64.8666 69.8461L71.6024 70.6282C72.3334 70.712 73.0738 70.6159 73.7589 70.3485C74.4441 70.081 75.0532 69.6503 75.5329 69.0939C76.0126 68.5376 76.3483 67.8725 76.5107 67.1569C76.6731 66.4412 76.6573 65.6968 76.4647 64.9887C76.0209 63.1071 75.4324 61.2623 74.7045 59.4708V59.4708Z" fill="#D01582"/>
<path d="M75.7908 49.5809C76.7938 49.7614 77.6841 50.3318 78.266 51.1668C78.848 52.0018 79.0738 53.0328 78.8938 54.0332L76.5854 66.8626C76.5389 67.1212 76.3913 67.3506 76.1751 67.5005C75.9588 67.6504 75.6917 67.7084 75.4325 67.6617L68.838 66.4752L71.3218 52.6708C71.4111 52.1747 71.5976 51.7012 71.8706 51.2773C72.1436 50.8534 72.4978 50.4875 72.9129 50.2005C73.328 49.9135 73.796 49.711 74.2898 49.6047C74.7836 49.4984 75.2937 49.4903 75.7908 49.5809V49.5809Z" fill="#D01582"/>
<path d="M64.5182 62.8771C64.8389 62.7706 65.1048 62.5429 65.2588 62.2428C65.4131 61.939 65.442 61.5871 65.3395 61.2623C65.2369 60.9375 65.0109 60.6657 64.7099 60.5049C63.2778 59.7501 62.0992 58.593 61.3202 57.1768C60.3224 55.1823 58.7099 53.5591 56.7193 52.5453C56.2226 53.4143 55.7957 54.1529 55.4297 54.822C57.0049 55.5933 58.2751 56.8692 59.0372 58.4455C60.0688 60.2958 61.6193 61.8057 63.4986 62.7902C63.654 62.8724 63.8243 62.9224 63.9995 62.9373C64.1747 62.9522 64.3511 62.9318 64.5182 62.8771Z" fill="black"/>
<path d="M194.806 115.779H169.928L142.34 97.5656H167.227L194.806 115.779Z" fill="#3F99F2"/>
<path d="M162.121 97.5656H64.5879V135H162.121V97.5656Z" fill="#3F99F2"/>
<path d="M167.218 97.5656H101.813V135H167.218V97.5656Z" fill="#8CD9FF"/>
<path d="M37 115.779H74.2339L101.813 97.5656H64.579L37 115.779Z" fill="#8CD9FF"/>
<path d="M167.262 104.152L163.175 97.5656L152.126 79.7695C151.488 78.7484 150.596 77.9097 149.536 77.3355C148.476 76.7613 147.285 76.4712 146.079 76.4936C144.872 76.5212 143.693 76.8609 142.657 77.4793C141.622 78.0977 140.765 78.9737 140.171 80.0215L136.049 87.3555C134.407 90.4916 133.815 94.0695 134.359 97.5656H146.845L155.463 111.469C156.438 113.032 157.994 114.145 159.791 114.566C161.588 114.986 163.479 114.678 165.048 113.711C166.046 113.099 166.871 112.243 167.445 111.226C168.052 110.138 168.355 108.908 168.323 107.664C168.291 106.42 167.924 105.207 167.262 104.152Z" fill="#FFD635"/>
<path d="M148.998 101.033C148.24 99.8075 148.701 95.8799 152.535 92.5518C156.37 89.2237 159.071 90.9616 160.195 92.769L167.262 104.152C167.912 105.206 168.269 106.414 168.295 107.651C168.321 108.889 168.016 110.111 167.41 111.191C166.836 112.209 166.011 113.064 165.014 113.676C163.444 114.644 161.553 114.951 159.756 114.531C157.959 114.111 156.403 112.997 155.428 111.434L148.998 101.033Z" fill="white"/>
<path d="M151.002 104.257C150.244 103.04 150.706 99.1037 154.54 95.7843C158.374 92.4649 161.084 94.1941 162.199 96.0015L163.82 98.6084C162.696 96.8097 159.89 95.1326 156.152 98.3911C152.414 101.65 151.865 105.647 152.623 106.872L151.002 104.257Z" fill="#5765F1"/>
<path d="M156.169 116.778C153.764 113.302 153.032 111.73 157.912 105.482C162.792 99.234 166.782 100.268 167.68 101.693C168.063 102.293 168.883 103.761 168.883 103.761C171.227 100.555 174.564 97.8611 178.407 99.9813C182.615 102.301 185.456 106.889 179.278 115.032C173.1 123.174 168.203 126.015 165.423 125.98C162.643 125.946 160.186 122.6 156.169 116.778Z" fill="#2CCB7A"/>
<path d="M168.499 111.191C166.591 109.314 165.972 107.811 168.935 103.77C171.279 100.564 174.616 97.8698 178.459 99.99C181.648 101.728 184.044 104.813 182.328 109.731C177.535 110.93 169.972 112.668 168.499 111.191Z" fill="#59F186"/>
<path d="M165.45 125.989C165.154 125.986 164.861 125.943 164.578 125.859C164.082 125.705 163.623 125.453 163.228 125.117C162.833 124.781 162.511 124.368 162.281 123.904C162.051 123.44 161.918 122.934 161.891 122.417C161.863 121.9 161.941 121.383 162.121 120.897C162.809 118.916 164.822 118.151 166.635 115.231C168.63 112.016 169.353 107.411 172.482 103.848C173.514 102.608 174.829 101.631 176.316 100.998C177.329 100.66 178.425 100.653 179.442 100.98C180.46 101.307 181.346 101.949 181.971 102.814C183.87 105.473 183.714 109.331 179.357 115.04C173.1 123.191 168.229 126.024 165.45 125.989Z" fill="black"/>
<path d="M146.837 97.5656L143.595 91.8045C143.427 91.5115 143.15 91.2962 142.824 91.2051C142.498 91.1141 142.149 91.1546 141.852 91.3179C141.559 91.4857 141.343 91.762 141.251 92.0871C141.16 92.4123 141.201 92.7602 141.364 93.0558L143.9 97.5569H146.845L146.837 97.5656Z" fill="black"/>
</g>
<defs>
<filter id="filter0_d_142_4964" x="-1" y="0" width="242" height="50" filterUnits="userSpaceOnUse" color-interpolation-filters="sRGB">
<feFlood flood-opacity="0" result="BackgroundImageFix"/>
<feColorMatrix in="SourceAlpha" type="matrix" values="0 0 0 0 0 0 0 0 0 0 0 0 0 0 0 0 0 0 127 0" result="hardAlpha"/>
<feOffset dy="1"/>
<feGaussianBlur stdDeviation="0.5"/>
<feColorMatrix type="matrix" values="0 0 0 0 0 0 0 0 0 0 0 0 0 0 0 0 0 0 0.1 0"/>
<feBlend mode="normal" in2="BackgroundImageFix" result="effect1_dropShadow_142_4964"/>
<feBlend mode="normal" in="SourceGraphic" in2="effect1_dropShadow_142_4964" result="shape"/>
</filter>
<filter id="filter1_d_142_4964" x="39.2422" y="17.4609" width="91.2266" height="13.8672" filterUnits="userSpaceOnUse" color-interpolation-filters="sRGB">
<feFlood flood-opacity="0" result="BackgroundImageFix"/>
<feColorMatrix in="SourceAlpha" type="matrix" values="0 0 0 0 0 0 0 0 0 0 0 0 0 0 0 0 0 0 127 0" result="hardAlpha"/>
<feOffset dy="1"/>
<feGaussianBlur stdDeviation="0.5"/>
<feColorMatrix type="matrix" values="0 0 0 0 0 0 0 0 0 0 0 0 0 0 0 0 0 0 0.6 0"/>
<feBlend mode="normal" in2="BackgroundImageFix" result="effect1_dropShadow_142_4964"/>
<feBlend mode="normal" in="SourceGraphic" in2="effect1_dropShadow_142_4964" result="shape"/>
</filter>
<filter id="filter2_d_142_4964" x="199" y="12" width="26" height="26" filterUnits="userSpaceOnUse" color-interpolation-filters="sRGB">
<feFlood flood-opacity="0" result="BackgroundImageFix"/>
<feColorMatrix in="SourceAlpha" type="matrix" values="0 0 0 0 0 0 0 0 0 0 0 0 0 0 0 0 0 0 127 0" result="hardAlpha"/>
<feOffset dy="1"/>
<feGaussianBlur stdDeviation="0.5"/>
<feColorMatrix type="matrix" values="0 0 0 0 0 0 0 0 0 0 0 0 0 0 0 0 0 0 0.6 0"/>
<feBlend mode="normal" in2="BackgroundImageFix" result="effect1_dropShadow_142_4964"/>
<feBlend mode="normal" in="SourceGraphic" in2="effect1_dropShadow_142_4964" result="shape"/>
</filter>
<linearGradient id="paint0_linear_142_4964" x1="1.60307e-05" y1="135" x2="120.842" y2="-75.9471" gradientUnits="userSpaceOnUse">
<stop stop-color="#3E70DD"/>
<stop offset="1" stop-color="#B377F3"/>
</linearGradient>
<linearGradient id="paint1_linear_142_4964" x1="120" y1="0" x2="120" y2="55" gradientUnits="userSpaceOnUse">
<stop stop-color="#FF99C7"/>
<stop offset="1" stop-color="#FF99C7" stop-opacity="0"/>
</linearGradient>
<clipPath id="clip0_142_4964">
<rect width="180" height="86" fill="white" transform="translate(37 49)"/>
</clipPath>
</defs>
</svg>
