<svg id="art" xmlns="http://www.w3.org/2000/svg" viewBox="0 0 280 168"><defs><style>.cls-1{fill:#36393f;}.cls-2{fill:#fff;}.cls-3{fill:#eb459f;}.cls-4{fill:#ff78b9;}.cls-5{fill:#1c1927;}.cls-6{fill:#870035;}.cls-7{fill:#ba004a;}.cls-8{fill:#ffe75c;}.cls-9{fill:none;stroke:#000;stroke-linecap:round;stroke-miterlimit:10;}.cls-10{fill:#00f67a;}.cls-11{fill:#66bcff;}</style></defs><rect class="cls-1" width="280" height="168"/><path class="cls-2" d="M92.06,33V27.43a2,2,0,0,0-2.17-2.32,3.69,3.69,0,0,0-2.58,1.25,1.9,1.9,0,0,0-2-1.25,3.68,3.68,0,0,0-2.55,1.25l-.17-1.09H81V33H82.9V27.77a2.54,2.54,0,0,1,1.71-1c.7,0,1,.46,1,1.13V33h1.92V27.77a2.54,2.54,0,0,1,1.71-1c.7,0,.94.46.94,1.13V33Zm6.16-2.13a2.67,2.67,0,0,1-1.81.83.85.85,0,0,1-1-.89c0-.74.53-1.39,2.76-1.67ZM100.14,33V27.7c0-1.85-1-2.59-3-2.59a7.86,7.86,0,0,0-3.07.63l.24,1.53a6.31,6.31,0,0,1,2.58-.62c.85,0,1.33.32,1.33,1.15V28c-3.12.31-4.66,1.12-4.66,3a2,2,0,0,0,2.19,2.14A3.42,3.42,0,0,0,98.33,32l.16,1Zm3.9,0V21.45l-1.92.3V33Zm4,0V21.45l-1.92.3V33ZM117,29.13c0-2.51-1.53-4-3.65-4s-3.63,1.52-3.63,4,1.52,4,3.62,4S117,31.64,117,29.13Zm-1.87,0c0,1.44-.61,2.45-1.79,2.45s-1.75-1-1.75-2.46.61-2.45,1.75-2.45S115.11,27.72,115.11,29.14Zm13.53-3.87H126.8l-1.33,5.11-1.39-5.11h-1.7L121,30.39l-1.36-5.23-1.95.26L120,33h1.76l1.39-5.11L124.56,33h1.76Z"/><path class="cls-2" d="M119.93,147.15a18.34,18.34,0,0,1-18.26-18.06,18.06,18.06,0,0,1,4.94-12.67,18.26,18.26,0,0,1,12.84-31l6.75-.07c-.45-1.19-.91-2.46-1.38-3.78-3.12-8.92-4.82-16.05-5-21.19-.3-7,2.26-9.36,4.47-10.13a5.49,5.49,0,0,1,1.85-.31c5.67,0,11.31,8.22,17.24,25.14q1,2.73,1.68,5.09c.37-2.12.85-4.48,1.45-7.1,4.18-18.11,9.08-26.92,15-26.92a6,6,0,0,1,1.26.14c6.34,1.46,7.3,12,2.87,31.19-.65,2.81-1.29,5.27-1.94,7.45l8.47-.09a18.32,18.32,0,0,1,18.26,18.06,18,18,0,0,1-4.93,12.67,18.26,18.26,0,0,1-12.84,31Z"/><path class="cls-2" d="M161.46,48.62a3.1,3.1,0,0,1,.69.08c3.94.91,5.39,9.18,1,28.19a99.11,99.11,0,0,1-2.94,10.55L172,87.31h.18a15.75,15.75,0,0,1,15.75,15.59h0a15.71,15.71,0,0,1-6.2,12.68,15.7,15.7,0,0,1,6.48,12.55h0a15.77,15.77,0,0,1-15.58,15.94l-52.47.58h-.18a15.77,15.77,0,0,1-15.76-15.58h0a15.76,15.76,0,0,1,6.21-12.69,15.75,15.75,0,0,1,9.1-28.49l10.4-.11c-.85-2-1.75-4.35-2.7-7.07-6.45-18.42-5.92-26.8-2.11-28.13a3,3,0,0,1,1-.18c3.76,0,9,6.65,14.88,23.48a92.73,92.73,0,0,1,3.42,11.74l2.27,0a78.91,78.91,0,0,1,2.24-14c4.13-17.92,8.74-25,12.55-25m0-5h0c-7.13,0-12.55,8.63-17,27.14-6-15.91-11.84-23.35-18.34-23.36h0a8.12,8.12,0,0,0-2.68.46c-3,1-6.5,4.09-6.14,12.59.24,5.4,2,12.77,5.18,21.91l.18.5-3.22,0a20.76,20.76,0,0,0-16.11,33.57,20.47,20.47,0,0,0-4.13,12.66,20.82,20.82,0,0,0,20.75,20.53h.24l52.46-.58a20.79,20.79,0,0,0,20.53-21,20.54,20.54,0,0,0-4.41-12.57,20.51,20.51,0,0,0,4.13-12.66,20.82,20.82,0,0,0-20.75-20.53h-.24l-4.93.06c.35-1.36.71-2.81,1.06-4.35,2.18-9.45,3.1-17,2.74-22.35-.57-8.49-4.38-11.13-7.48-11.84a8,8,0,0,0-1.82-.21Z"/><path class="cls-3" d="M163.15,76.89c-4.38,19-8.07,20.44-12,19.53s-6.63-3.8-2.24-22.81,9.31-25.82,13.24-24.91S167.54,57.88,163.15,76.89Z"/><path class="cls-4" d="M157.9,83c-2.78,13.09-4.44,14.3-6.09,13.94s-2.68-2.12.1-15.21,5.22-18,6.88-17.65S160.68,69.87,157.9,83Z"/><path class="cls-3" d="M127.18,80.71c6.45,18.42,10.27,19.43,14.08,18.09s6.17-4.51-.28-22.92-12.1-24.64-15.91-23.3S120.73,62.29,127.18,80.71Z"/><path class="cls-4" d="M131.73,83.2c3.57,10.2,5.49,10.83,7.36,10.17s3-2.34-.6-12.54-6.5-13.71-8.37-13S128.16,73,131.73,83.2Z"/><rect class="cls-3" x="103.89" y="87.6" width="84" height="31.53" rx="15.76" transform="translate(-1.14 1.63) rotate(-0.64)"/><rect class="cls-3" x="104.17" y="112.83" width="84" height="31.53" rx="15.76" transform="translate(-1.42 1.64) rotate(-0.64)"/><ellipse class="cls-5" cx="159.47" cy="109.55" rx="5.35" ry="2.93" transform="translate(-12.31 198.58) rotate(-61.88)"/><ellipse class="cls-5" cx="134.14" cy="109.55" rx="3.31" ry="5.43" transform="translate(-36.61 80.57) rotate(-29.61)"/><path class="cls-6" d="M152.67,119.07a34.7,34.7,0,0,0-11,.46c.73,5.13,2.06,8.67,4.35,9.05C148.51,129,151.44,126.93,152.67,119.07Z"/><path class="cls-7" d="M146,128.58c1.5.24,3.16-.42,4.51-2.72-.6-2.39-1.93-4.11-3.72-4.39-1.53-.25-3.08.6-4.32,2.16C143.29,126.48,144.43,128.31,146,128.58Z"/><circle class="cls-8" cx="40" cy="40" r="24"/><path class="cls-3" d="M46.42,32.29c.41,8.46-1,9.49-2.71,9.58s-3.22-.81-3.63-9.27.84-11.89,2.59-12S46,23.83,46.42,32.29Z"/><path class="cls-4" d="M45.42,33c.23,4.69-.23,5.24-.82,5.27s-1.1-.48-1.33-5.16.17-6.57.76-6.6S45.19,28.29,45.42,33Z"/><path class="cls-3" d="M33.08,32.51c3.57,7.68,5.27,8,6.85,7.21s2.48-2.21-1.1-9.89S32.55,19.7,31,20.44,29.5,24.82,33.08,32.51Z"/><path class="cls-4" d="M35.87,32.9c2,4.26,2.84,4.45,3.62,4.08s1.18-1.14-.8-5.39-3.39-5.65-4.17-5.28S33.89,28.65,35.87,32.9Z"/><rect class="cls-3" x="25.19" y="33.96" width="30.82" height="11.57" rx="5.78" transform="translate(-4.11 4.68) rotate(-6.28)"/><rect class="cls-3" x="26.2" y="43.16" width="30.82" height="11.57" rx="5.78" transform="translate(-5.11 4.85) rotate(-6.28)"/><ellipse cx="49.91" cy="41.65" rx="1.43" ry="0.78" transform="translate(-7.65 71.85) rotate(-67.53)"/><ellipse cx="41.76" cy="42.49" rx="0.89" ry="1.45" transform="translate(-16.87 31.89) rotate(-35.25)"/><path class="cls-9" d="M45,46.27a2.43,2.43,0,0,0,3.44-.55"/><path class="cls-10" d="M208.45,83.12a3.18,3.18,0,0,1-3.13-2.7l-1-6.64a11.16,11.16,0,0,0-5-7.76l-.86-.56A3.14,3.14,0,0,1,197,62.8a3.19,3.19,0,0,1,1.45-2.71l.86-.55a11.2,11.2,0,0,0,5-7.77l1-6.63a3.16,3.16,0,0,1,6.26,0l1,6.63a11.2,11.2,0,0,0,5,7.77l.86.55a3.2,3.2,0,0,1,0,5.37l-.87.56a11.16,11.16,0,0,0-5,7.76l-1,6.64A3.18,3.18,0,0,1,208.45,83.12Z"/><path class="cls-2" d="M208.45,44.94a.67.67,0,0,1,.66.57l1,6.63a13.65,13.65,0,0,0,6.13,9.5l.86.56a.66.66,0,0,1,.31.56v0a.66.66,0,0,1-.31.56l-.86.55a13.69,13.69,0,0,0-6.13,9.5l-1,6.64a.67.67,0,0,1-1.32,0l-1-6.64a13.74,13.74,0,0,0-6.14-9.5l-.86-.55a.65.65,0,0,1-.3-.56v0a.65.65,0,0,1,.3-.56l.86-.56a13.7,13.7,0,0,0,6.14-9.5l1-6.63a.67.67,0,0,1,.66-.57m0-5a5.69,5.69,0,0,0-5.6,4.83l-1,6.63a8.71,8.71,0,0,1-3.9,6l-.86.55a5.72,5.72,0,0,0,0,9.57l.86.56a8.67,8.67,0,0,1,3.9,6l1,6.64a5.67,5.67,0,0,0,11.21,0l1-6.64a8.67,8.67,0,0,1,3.9-6l.86-.56a5.7,5.7,0,0,0,0-9.57l-.86-.55a8.71,8.71,0,0,1-3.9-6l-1-6.63a5.71,5.71,0,0,0-5.61-4.83Z"/><path class="cls-11" d="M67.41,138.06a3.19,3.19,0,0,1-3.14-2.7l-1-6.63a11.24,11.24,0,0,0-5-7.77l-.86-.56a3.2,3.2,0,0,1,0-5.36l.86-.56a11.2,11.2,0,0,0,5-7.76l1-6.64a3.17,3.17,0,0,1,6.27,0l1,6.64a11.2,11.2,0,0,0,5,7.76l.86.56a3.2,3.2,0,0,1,0,5.37l-.85.55a11.24,11.24,0,0,0-5,7.77l-1,6.63A3.19,3.19,0,0,1,67.41,138.06Z"/><path class="cls-2" d="M67.41,99.88a.67.67,0,0,1,.66.57l1,6.64a13.73,13.73,0,0,0,6.13,9.5l.87.55a.65.65,0,0,1,.3.56v0a.65.65,0,0,1-.3.56l-.87.56a13.69,13.69,0,0,0-6.13,9.49l-1,6.64a.67.67,0,0,1-.66.57.66.66,0,0,1-.66-.57l-1-6.64a13.69,13.69,0,0,0-6.13-9.49l-.86-.56a.66.66,0,0,1-.31-.56v0a.66.66,0,0,1,.31-.56l.86-.55a13.73,13.73,0,0,0,6.13-9.5l1-6.64a.66.66,0,0,1,.66-.57m0-5a5.7,5.7,0,0,0-5.61,4.83l-1,6.64a8.67,8.67,0,0,1-3.9,6l-.86.56a5.7,5.7,0,0,0,0,9.57l.86.55a8.71,8.71,0,0,1,3.9,6l1,6.63a5.67,5.67,0,0,0,11.21,0l1-6.63a8.78,8.78,0,0,1,3.9-6l.86-.55a5.7,5.7,0,0,0,0-9.57l-.86-.56a8.74,8.74,0,0,1-3.9-6l-1-6.64a5.7,5.7,0,0,0-5.6-4.83Z"/></svg>