<svg width="88" height="80" viewBox="0 0 88 80" fill="none" xmlns="http://www.w3.org/2000/svg">
<path d="M83.0028 1.0838C83.0028 0.485233 82.5176 0 81.919 0C81.3204 0 80.8352 0.485233 80.8352 1.0838V2.18566C80.8352 2.78422 81.3204 3.26946 81.919 3.26946C82.5176 3.26946 83.0028 2.78422 83.0028 2.18566V1.0838Z" fill="#58F287"/>
<path d="M83.0028 9.81423C83.0028 9.21567 82.5176 8.73043 81.919 8.73043C81.3204 8.73043 80.8352 9.21567 80.8352 9.81423V10.9161C80.8352 11.5147 81.3204 11.9999 81.919 11.9999C82.5176 11.9999 83.0028 11.5147 83.0028 10.9161V9.81423Z" fill="#58F287"/>
<path d="M86.9164 7.1053C87.515 7.1053 88.0002 6.62007 88.0002 6.0215C88.0002 5.42294 87.515 4.93771 86.9164 4.93771H85.8145C85.216 4.93771 84.7307 5.42294 84.7307 6.0215C84.7307 6.62007 85.216 7.1053 85.8145 7.1053H86.9164Z" fill="#58F287"/>
<path d="M78.1858 7.04524C78.7844 7.04524 79.2696 6.56001 79.2696 5.96144C79.2696 5.36288 78.7844 4.87765 78.1858 4.87765H77.0839C76.4854 4.87765 76.0001 5.36288 76.0001 5.96144C76.0001 6.56001 76.4854 7.04524 77.0839 7.04524H78.1858Z" fill="#58F287"/>
<path d="M8.36261 75.843L11.486 74.8013C11.6394 74.731 11.7694 74.6181 11.8605 74.4761C11.9516 74.334 12 74.1688 12 74C12 73.8312 11.9516 73.666 11.8605 73.5239C11.7694 73.3819 11.6394 73.269 11.486 73.1987L8.36261 72.157C8.14925 72.0606 7.97838 71.8897 7.88207 71.6762L6.76084 68.5511C6.70818 68.3908 6.60626 68.2512 6.46964 68.1522C6.33302 68.0533 6.16866 68 5.99999 68C5.83133 68 5.66698 68.0533 5.53036 68.1522C5.39374 68.2512 5.29182 68.3908 5.23916 68.5511L4.11793 71.6762C4.02162 71.8897 3.85075 72.0606 3.63739 72.157L0.513957 73.1987C0.360602 73.269 0.230643 73.3819 0.139534 73.5239C0.0484247 73.666 0 73.8312 0 74C0 74.1688 0.0484247 74.334 0.139534 74.4761C0.230643 74.6181 0.360602 74.731 0.513957 74.8013L3.63739 75.843C3.75083 75.8774 3.85403 75.9393 3.93785 76.0232C4.02167 76.107 4.08352 76.2103 4.11793 76.3238L5.23916 79.4489C5.29182 79.6092 5.39374 79.7488 5.53036 79.8478C5.66698 79.9467 5.83133 80 5.99999 80C6.16866 80 6.33302 79.9467 6.46964 79.8478C6.60626 79.7488 6.70818 79.6092 6.76084 79.4489L7.88207 76.3238C7.91648 76.2103 7.97834 76.107 8.06215 76.0232C8.14597 75.9393 8.24917 75.8774 8.36261 75.843Z" fill="#FFD01A"/>
</svg>
