<svg width="157" height="195" viewBox="0 0 157 195" fill="none" xmlns="http://www.w3.org/2000/svg">
<path d="M73.4188 30.5083C78.6535 34.1151 88.5995 38.8657 100.727 33.4993C111.196 28.9247 111.545 22.8546 108.404 19.2477C109.433 18.1264 110.367 16.9199 111.196 15.6409C111.273 15.5278 111.325 15.3995 111.35 15.2645C111.374 15.1295 111.369 14.9908 111.336 14.8577C111.303 14.7246 111.243 14.6001 111.158 14.4924C111.074 14.3848 110.968 14.2964 110.847 14.2333C110.74 14.1519 110.618 14.094 110.488 14.0631C110.358 14.0322 110.222 14.0291 110.091 14.0539C109.96 14.0788 109.835 14.131 109.725 14.2074C109.614 14.2837 109.521 14.3824 109.451 14.4972C108.711 15.7147 107.864 16.8629 106.921 17.9281C105.77 17.0658 104.416 16.5227 102.992 16.3529C101.568 16.1831 100.125 16.3926 98.8071 16.9604C90.9551 20.7433 89.8209 23.4704 89.8209 23.4704C89.8209 23.4704 85.4586 12.5618 75.3382 13.9694C68.7076 14.8491 67.5734 18.1921 68.0097 21.711C68.2618 23.4739 68.8725 25.1653 69.8033 26.6791C70.7341 28.1929 71.965 29.4966 73.4188 30.5083Z" stroke="#5665F9" stroke-width="3" stroke-linecap="round" stroke-linejoin="round"/>
<path d="M88.3375 151.735L83.4518 175.663C83.0557 177.519 82.0451 179.183 80.5863 180.382C79.1275 181.581 77.3073 182.244 75.4253 182.261C74.2321 182.251 73.0552 181.981 71.975 181.47C70.8948 180.959 69.9368 180.219 69.1664 179.3C68.3961 178.381 67.8315 177.306 67.5114 176.147C67.1912 174.987 67.1231 173.772 67.3115 172.584L71.3248 148.216C71.3599 147.861 71.3155 147.503 71.1946 147.168C71.0738 146.833 70.8797 146.53 70.6268 146.28C60.6809 137.483 66.4391 120.68 66.4391 120.68L59.3722 128.774C59.1592 129.008 59.0014 129.289 58.9108 129.593C58.8201 129.898 58.7989 130.219 58.8488 130.533C59.7212 134.932 58.3253 137.131 56.0569 137.219C53.7886 137.307 52.4799 133.7 52.4799 133.7C52.4799 133.7 45.0641 141.178 42.0105 134.316C38.9569 127.454 50.1243 113.467 59.634 105.637C63.6354 102.388 68.0702 99.7228 72.8079 97.7195L63.9962 96.7518C61.9353 96.4941 59.9574 95.776 58.2066 94.6498C56.4558 93.5236 54.9762 92.0177 53.8758 90.2418L51.5202 86.459C50.9967 85.6672 50.6477 85.4033 50.2988 85.3153L48.0304 84.6115C46.5178 84.1717 45.1885 83.2467 44.2439 81.9768C43.2994 80.7069 42.7909 79.1611 42.7957 77.5737V67.7208C42.7909 66.1334 43.2994 64.5876 44.2439 63.3177C45.1885 62.0478 46.5178 61.1228 48.0304 60.6829L50.9095 59.8032L51.7819 55.7565C52.456 52.8518 54.0117 50.2315 56.2323 48.2605C58.4529 46.2894 61.2279 45.0657 64.1707 44.7599C76.2977 43.4403 89.9079 43.0884 89.9079 43.0884H91.9146C91.9146 43.0884 105.525 43.4403 117.652 44.7599C120.603 45.0399 123.392 46.2546 125.617 48.2298C127.842 50.2051 129.391 52.8397 130.041 55.7565L130.913 59.8032L133.792 60.6829C135.321 61.1067 136.67 62.0248 137.631 63.2962C138.592 64.5675 139.113 66.122 139.114 67.7208V77.5737C139.113 79.1725 138.592 80.7269 137.631 81.9983C136.67 83.2697 135.321 84.1878 133.792 84.6115L130.913 85.4913L127.947 90.2418C126.846 92.0177 125.367 93.5236 123.616 94.6498C121.865 95.776 119.887 96.4941 117.826 96.7518L109.015 97.7195C113.763 99.7024 118.2 102.369 122.189 105.637C131.698 113.467 142.866 127.454 139.812 134.316C136.758 141.178 129.343 133.7 129.343 133.7C129.343 133.7 128.121 137.219 125.766 137.219C123.41 137.219 122.101 134.932 122.974 130.533C123.057 130.227 123.061 129.904 122.984 129.596C122.908 129.288 122.754 129.005 122.538 128.774L115.383 120.68C115.383 120.68 121.229 137.483 111.196 146.28C110.943 146.53 110.749 146.833 110.628 147.168C110.507 147.503 110.463 147.861 110.498 148.216L114.511 172.584C114.715 173.775 114.658 174.995 114.344 176.161C114.029 177.327 113.466 178.409 112.692 179.331C111.919 180.253 110.955 180.994 109.867 181.5C108.779 182.006 107.595 182.266 106.397 182.261C104.515 182.244 102.695 181.581 101.236 180.382C99.7774 179.183 98.7668 177.519 98.3707 175.663L93.485 151.735H88.3375Z" stroke="#5665F9" stroke-width="3" stroke-linecap="round" stroke-linejoin="round"/>
<path d="M98.3706 175.663C103.082 176.631 111.021 175.751 114.424 172.056" stroke="#5665F9" stroke-width="3" stroke-linecap="round" stroke-linejoin="round"/>
<path d="M96.9746 168.45C100.988 168.713 109.363 167.57 113.202 164.403" stroke="#5665F9" stroke-width="3" stroke-linecap="round" stroke-linejoin="round"/>
<path d="M95.4043 161.06C98.8068 161.236 107.619 160.092 111.981 156.837" stroke="#5665F9" stroke-width="3" stroke-linecap="round" stroke-linejoin="round"/>
<path d="M93.4849 151.735C97.9344 151.735 106.921 150.239 111.196 146.28" stroke="#5665F9" stroke-width="3" stroke-linecap="round" stroke-linejoin="round"/>
<path d="M108.578 181.909L102.384 150.503C107.968 134.668 103.169 112.675 98.6323 98.2473" stroke="#5665F9" stroke-width="3" stroke-linecap="round" stroke-linejoin="round"/>
<path d="M73.2441 181.909L79.4385 150.503C73.8549 134.668 78.6533 112.675 83.1901 98.2473" stroke="#5665F9" stroke-width="3" stroke-linecap="round" stroke-linejoin="round"/>
<path d="M90.9546 98.3352V151.735" stroke="#5665F9" stroke-width="3" stroke-linecap="round" stroke-linejoin="round"/>
<path d="M109.014 97.7194C96.9596 98.5552 84.8623 98.5552 72.8076 97.7194" stroke="#5665F9" stroke-width="3" stroke-linecap="round" stroke-linejoin="round"/>
<path d="M116.081 123.056C114.075 115.578 108.142 102.118 105.35 98.3352" stroke="#5665F9" stroke-width="3" stroke-linecap="round" stroke-linejoin="round"/>
<path d="M122.537 128.774C123.148 122.352 128.557 116.458 132.134 115.578" stroke="#5665F9" stroke-width="3" stroke-linecap="round" stroke-linejoin="round"/>
<path d="M137.892 123.847C133.966 124.639 130.564 128.95 129.342 133.7C128.208 130.885 125.765 128.598 122.537 128.774" stroke="#5665F9" stroke-width="3" stroke-linecap="round" stroke-linejoin="round"/>
<path d="M109.538 105.989C117.215 110.563 127.161 119.449 138.765 135.988" stroke="#5665F9" stroke-width="3" stroke-linecap="round" stroke-linejoin="round"/>
<path d="M83.4515 175.663C78.8275 176.631 70.8882 175.751 67.3984 172.056" stroke="#5665F9" stroke-width="3" stroke-linecap="round" stroke-linejoin="round"/>
<path d="M84.9349 168.45C80.8344 168.713 72.4589 167.57 68.6201 164.403" stroke="#5665F9" stroke-width="3" stroke-linecap="round" stroke-linejoin="round"/>
<path d="M86.418 161.06C83.0154 161.236 74.2037 160.092 69.9287 156.837" stroke="#5665F9" stroke-width="3" stroke-linecap="round" stroke-linejoin="round"/>
<path d="M88.3372 151.735C83.8877 151.735 74.9015 150.239 70.6265 146.28" stroke="#5665F9" stroke-width="3" stroke-linecap="round" stroke-linejoin="round"/>
<path d="M65.7407 123.056C67.7474 115.578 73.7673 102.118 76.4718 98.3352" stroke="#5665F9" stroke-width="3" stroke-linecap="round" stroke-linejoin="round"/>
<path d="M59.3722 128.774C58.7615 122.352 53.3523 116.458 49.688 115.578" stroke="#5665F9" stroke-width="3" stroke-linecap="round" stroke-linejoin="round"/>
<path d="M43.9297 123.847C47.8557 124.639 51.2583 128.95 52.4797 133.7C53.6139 130.885 56.0567 128.598 59.372 128.774" stroke="#5665F9" stroke-width="3" stroke-linecap="round" stroke-linejoin="round"/>
<path d="M43.0571 135.988C54.6607 119.449 64.6939 110.563 72.3714 105.989" stroke="#5665F9" stroke-width="3" stroke-linecap="round" stroke-linejoin="round"/>
<path d="M56.2314 108.628C59.634 108.98 66.0029 113.642 66.4391 120.68C80.3983 117.689 101.599 117.777 115.383 120.68C115.82 113.642 122.189 108.98 125.591 108.628" stroke="#5665F9" stroke-width="3" stroke-linecap="round" stroke-linejoin="round"/>
<path d="M64.9556 101.766C66.4762 101.96 67.9149 102.572 69.1148 103.533C70.3148 104.495 71.2299 105.77 71.7607 107.22C84.8474 104.581 98.2831 105.197 110.061 107.22C110.6 105.776 111.518 104.505 112.716 103.545C113.914 102.584 115.349 101.97 116.866 101.766" stroke="#5665F9" stroke-width="3" stroke-linecap="round" stroke-linejoin="round"/>
<path d="M64.8687 129.39C82.2159 130.401 99.6066 130.401 116.954 129.39" stroke="#5665F9" stroke-width="3" stroke-linecap="round" stroke-linejoin="round"/>
<path d="M65.7407 138.187C80.8341 143.905 101.511 143.553 116.081 138.187" stroke="#5665F9" stroke-width="3" stroke-linecap="round" stroke-linejoin="round"/>
<path d="M50.9092 59.8031C50.0367 64.5536 50.124 77.4856 50.9092 85.4912" stroke="#5665F9" stroke-width="3" stroke-linecap="round" stroke-linejoin="round"/>
<path d="M89.8203 23.4703C91.478 27.693 94.5315 35.8745 99.9407 33.8511" stroke="#5665F9" stroke-width="3" stroke-linecap="round" stroke-linejoin="round"/>
<path d="M94.7061 19.2477C99.4953 21.7551 103.464 25.6043 106.135 30.3323" stroke="#5665F9" stroke-width="3" stroke-linecap="round" stroke-linejoin="round"/>
<path d="M74.291 14.0573C76.0359 22.1507 82.3175 35.4346 89.8206 35.8745" stroke="#5665F9" stroke-width="3" stroke-linecap="round" stroke-linejoin="round"/>
<path d="M68.4453 23.6463C74.1923 20.6947 80.4983 19.015 86.9412 18.7198" stroke="#5665F9" stroke-width="3" stroke-linecap="round" stroke-linejoin="round"/>
<path d="M91.0419 26.5494C84.9776 26.7776 79.0054 28.1191 73.4185 30.5082" stroke="#5665F9" stroke-width="3" stroke-linecap="round" stroke-linejoin="round"/>
<path d="M107.88 17.9281C103.082 24.3501 95.404 28.3089 92.5249 29.5405" stroke="#5665F9" stroke-width="3" stroke-linecap="round" stroke-linejoin="round"/>
<path d="M101.511 60.9468H80.3109C75.4925 60.9468 71.5864 64.8855 71.5864 69.7441V75.6118C71.5864 80.4704 75.4925 84.4091 80.3109 84.4091H101.511C106.33 84.4091 110.236 80.4704 110.236 75.6118V69.7441C110.236 64.8855 106.33 60.9468 101.511 60.9468Z" stroke="#5665F9" stroke-width="3" stroke-linecap="round" stroke-linejoin="round"/>
<path d="M90.9546 98.3352V43.0883" stroke="#5665F9" stroke-width="3" stroke-linecap="round" stroke-linejoin="round"/>
<path d="M129.779 54.8767C109.625 51.7976 73.3312 51.7097 52.0435 54.8767" stroke="#5665F9" stroke-width="3" stroke-linecap="round" stroke-linejoin="round"/>
<path d="M76.6465 61.8265C76.821 55.6684 77.3444 49.5103 77.9552 43.6161" stroke="#5665F9" stroke-width="3" stroke-linecap="round" stroke-linejoin="round"/>
<path d="M79.2636 98.0713C78.193 93.3807 77.464 88.6175 77.0825 83.8197" stroke="#5665F9" stroke-width="3" stroke-linecap="round" stroke-linejoin="round"/>
<path d="M105.263 61.8265C105.001 55.6684 104.565 49.5103 103.867 43.6161" stroke="#5665F9" stroke-width="3" stroke-linecap="round" stroke-linejoin="round"/>
<path d="M102.646 98.0713C103.643 93.3705 104.343 88.6103 104.739 83.8197" stroke="#5665F9" stroke-width="3" stroke-linecap="round" stroke-linejoin="round"/>
<path d="M116.081 97.0156C123.497 84.3476 121.316 53.0293 116.081 44.5839" stroke="#5665F9" stroke-width="3" stroke-linecap="round" stroke-linejoin="round"/>
<path d="M65.7407 97.0156C58.3249 84.3476 60.5933 53.0293 65.7407 44.5839" stroke="#5665F9" stroke-width="3" stroke-linecap="round" stroke-linejoin="round"/>
<path d="M73.2441 64.4657C64.7813 64.6416 57.0165 64.9935 50.4731 65.5214" stroke="#5665F9" stroke-width="3" stroke-linecap="round" stroke-linejoin="round"/>
<path d="M131.436 65.5214C125.503 65.0815 117.477 64.7296 108.491 64.4657" stroke="#5665F9" stroke-width="3" stroke-linecap="round" stroke-linejoin="round"/>
<path d="M71.3247 76.9579C63.3854 76.6939 56.6675 76.342 50.4731 75.8142" stroke="#5665F9" stroke-width="3" stroke-linecap="round" stroke-linejoin="round"/>
<path d="M131.436 75.8142C125.853 76.342 118.524 76.6939 110.148 76.8699" stroke="#5665F9" stroke-width="3" stroke-linecap="round" stroke-linejoin="round"/>
<path d="M51.52 86.4589C71.9353 92.1771 112.068 92.353 130.913 85.4912C131.698 77.4856 131.873 64.5536 130.913 59.8031" stroke="#5665F9" stroke-width="3" stroke-linecap="round" stroke-linejoin="round"/>
<path d="M82.8411 60.9468C80.8345 64.2018 80.9217 78.2774 82.8411 84.4355" stroke="#5665F9" stroke-width="3" stroke-linecap="round" stroke-linejoin="round"/>
<path d="M98.9814 60.9468C100.988 64.2018 100.901 78.2774 98.9814 84.4355" stroke="#5665F9" stroke-width="3" stroke-linecap="round" stroke-linejoin="round"/>
<path d="M110.236 72.6472H71.5864" stroke="#5665F9" stroke-width="3" stroke-linecap="round" stroke-linejoin="round"/>
<path d="M28.0512 165.37H13.9175V57.6918L28.0512 63.5859V165.37Z" fill="url(#paint0_linear_2093_235993)"/>
<path d="M28.0512 14.0573H13.9175V165.318H28.0512V14.0573Z" stroke="#FF52D2" stroke-width="2.37873" stroke-linecap="round" stroke-linejoin="round"/>
<path d="M13.9175 50.6539L28.0512 56.5481" stroke="#FF52D2" stroke-width="2.37873" stroke-linecap="round" stroke-linejoin="round"/>
<path d="M13.9175 39.9213L28.0512 45.8154" stroke="#FF52D2" stroke-width="2.37873" stroke-linecap="round" stroke-linejoin="round"/>
<path d="M13.9175 26.1975L28.0512 32.0917" stroke="#FF52D2" stroke-width="2.37873" stroke-linecap="round" stroke-linejoin="round"/>
<path d="M1.44141 157.805V175.575L9.29345 183.405V192.994H46.6343" stroke="#FF52D2" stroke-width="2.37873" stroke-linecap="round" stroke-linejoin="round"/>
<path d="M54.6606 192.994H155.69V114.698" stroke="#FF52D2" stroke-width="2.37873" stroke-linecap="round" stroke-linejoin="round"/>
<path d="M1.44141 147.688V40.1852" stroke="#FF52D2" stroke-width="2.37873" stroke-linecap="round" stroke-linejoin="round"/>
<path d="M79.2637 1.21326H147.053V29.9804L155.69 38.7776" stroke="#FF52D2" stroke-width="2.37873" stroke-linecap="round" stroke-linejoin="round"/>
<path d="M155.69 83.8197V38.7776" stroke="#FF52D2" stroke-width="2.37873" stroke-linecap="round" stroke-linejoin="round"/>
<path d="M61.9021 1.21326H1.44141V26.5494" stroke="#FF52D2" stroke-width="2.37873" stroke-linecap="round" stroke-linejoin="round"/>
<path d="M50.6473 177.775C51.0511 177.757 51.4507 177.863 51.7937 178.079C52.1367 178.294 52.4073 178.609 52.5698 178.982C52.7324 179.355 52.7795 179.769 52.7049 180.17C52.6302 180.57 52.4374 180.939 52.1516 181.227C51.8658 181.515 51.5004 181.71 51.1032 181.785C50.706 181.86 50.2955 181.813 49.9255 181.649C49.5555 181.485 49.2432 181.212 49.0295 180.866C48.8158 180.52 48.7107 180.117 48.7279 179.71C48.7279 179.197 48.9301 178.705 49.2901 178.342C49.65 177.979 50.1382 177.775 50.6473 177.775ZM50.6473 175.663C49.8291 175.646 49.0245 175.876 48.337 176.323C47.6494 176.771 47.1104 177.416 46.7893 178.175C46.4682 178.934 46.3797 179.772 46.5351 180.582C46.6905 181.393 47.0828 182.137 47.6615 182.721C48.2401 183.304 48.9787 183.7 49.7822 183.857C50.5856 184.013 51.4172 183.924 52.17 183.6C52.9227 183.276 53.5621 182.733 54.006 182.04C54.4498 181.346 54.6778 180.535 54.6606 179.71C54.6606 178.637 54.2377 177.608 53.4851 176.849C52.7325 176.09 51.7117 175.663 50.6473 175.663Z" fill="#FFFF00"/>
<path d="M35.816 183.757C38.0325 183.757 39.8293 181.945 39.8293 179.71C39.8293 177.475 38.0325 175.663 35.816 175.663C33.5995 175.663 31.8027 177.475 31.8027 179.71C31.8027 181.945 33.5995 183.757 35.816 183.757Z" fill="#FFFF00"/>
<path d="M20.9845 183.757C23.2009 183.757 24.9977 181.945 24.9977 179.71C24.9977 177.475 23.2009 175.663 20.9845 175.663C18.768 175.663 16.9712 177.475 16.9712 179.71C16.9712 181.945 18.768 183.757 20.9845 183.757Z" fill="#FFFF00"/>
<path d="M127.161 183.229H119.396V185.252H127.161V183.229Z" fill="#FF52D2"/>
<path d="M131.611 181.118V185.252H139.376V183.229H133.617V182.437L138.503 179.446H134.228L131.611 181.118Z" fill="#FF52D2"/>
<path d="M143.04 180.502H146.006C146.361 180.524 146.694 180.682 146.937 180.944C147.18 181.206 147.316 181.551 147.315 181.909C147.315 182.259 147.177 182.595 146.932 182.842C146.686 183.09 146.353 183.229 146.006 183.229H144.959C144.756 183.218 144.558 183.166 144.376 183.075C144.194 182.983 144.032 182.856 143.901 182.699C143.771 182.542 143.673 182.36 143.615 182.164C143.557 181.967 143.539 181.761 143.563 181.558H141.557C141.533 182.027 141.603 182.496 141.763 182.938C141.922 183.38 142.168 183.784 142.485 184.129C142.802 184.473 143.184 184.75 143.609 184.943C144.034 185.136 144.493 185.241 144.959 185.252H146.093C146.957 185.229 147.778 184.867 148.381 184.243C148.984 183.618 149.322 182.781 149.321 181.909C149.33 181.01 149.021 180.137 148.449 179.446H143.04V180.502Z" fill="#FF52D2"/>
<path d="M128.906 177.511H130.913C131 176.631 131.524 175.927 132.222 175.927H133.356C133.703 175.927 134.036 176.066 134.281 176.314C134.527 176.561 134.664 176.897 134.664 177.247V177.775L131.785 179.534H136.06L136.671 179.094V177.159C136.671 176.272 136.322 175.422 135.7 174.795C135.078 174.168 134.235 173.816 133.356 173.816H132.222C130.477 173.816 128.993 175.487 128.906 177.511Z" fill="#FF52D2"/>
<path d="M139.463 175.927H144.61V176.367L140.335 178.918V179.534H145.657C145.384 179.201 145.02 178.956 144.61 178.83L146.617 177.687V173.816H139.463V175.927Z" fill="#FF52D2"/>
<defs>
<linearGradient id="paint0_linear_2093_235993" x1="21.0192" y1="164.324" x2="21.0192" y2="60.067" gradientUnits="userSpaceOnUse">
<stop offset="0.21" stop-color="#A4EF00"/>
<stop offset="0.95" stop-color="#FF52D2"/>
</linearGradient>
</defs>
</svg>
