<svg width="24" height="24" viewBox="0 0 24 24" fill="none" xmlns="http://www.w3.org/2000/svg">
<circle cx="12" cy="12" r="9" fill="#CBDAF7"/>
<g clip-path="url(#clip0_1062_103937)">
<path d="M7.66035 15.9194L8.2998 14.3907H7.8032C7.31341 14.3907 6.94606 13.9701 7.00729 13.4961V13.4828C7.06171 13.0956 7.40184 12.8019 7.8032 12.8019H8.87803L9.66715 10.8126H9.02769C8.5447 10.8126 8.17055 10.392 8.23178 9.91804C8.2862 9.53086 8.62633 9.23713 9.02769 9.23713H10.293L10.9937 7.48813C11.1161 7.18773 11.4086 6.99414 11.7352 6.99414H11.8372C12.4086 6.99414 12.7964 7.56156 12.5787 8.07558L12.0957 9.23713H13.8984L14.5991 7.48813C14.7216 7.18773 15.0141 6.99414 15.3406 6.99414H15.4223C15.9937 6.99414 16.3814 7.56156 16.1637 8.07558L15.6808 9.23713H16.1842C16.7488 9.23713 17.1365 9.7912 16.9325 10.3119C16.81 10.6123 16.5175 10.8126 16.1842 10.8126H15.0821L14.293 12.8019H14.8304C15.395 12.8019 15.7828 13.3626 15.5719 13.8767V13.89C15.4427 14.1904 15.1501 14.384 14.8236 14.384H13.708L12.8168 16.5135C12.6944 16.8072 12.4018 17.0008 12.0753 17.0008H11.9801C11.4154 17.0008 11.0277 16.4401 11.2386 15.9194L11.8712 14.384H10.0957L9.21817 16.5068C9.09572 16.8005 8.8032 17.0008 8.47667 17.0008H8.37463C7.8032 17.0008 7.41545 16.4334 7.63314 15.9194H7.66035ZM10.7012 12.8019H12.4903L13.2794 10.8126H11.4903L10.7012 12.8019Z" fill="#0C1AAD"/>
</g>
<defs>
<clipPath id="clip0_1062_103937">
<rect width="10" height="10" fill="white" transform="translate(7 7)"/>
</clipPath>
</defs>
</svg>
