<svg width="302" height="170" viewBox="0 0 302 170" fill="none" xmlns="http://www.w3.org/2000/svg">
<g clip-path="url(#clip0)">
<path d="M204.023 -3.99926L309.939 -3.99927C314.318 0.381523 316.992 5.45629 316.566 10.1407C315.674 20.2469 301.452 21.7216 287.655 14.4348L284.942 12.9167C284.485 14.7757 283.751 16.5352 282.772 18.1216C275.874 29.4423 260.294 30.5266 250.218 22.2421C249.108 21.3333 248.07 20.3174 247.118 19.2059C245.763 21.3025 244.218 23.2358 242.506 24.9747C233.166 34.4303 222.083 36.4689 217.859 30.6567C214.138 25.5386 217.006 15.6926 224.059 7.92865C224.059 7.92865 203.209 7.36479 204.023 -3.99926Z" fill="white" fill-opacity="0.15"/>
<path d="M55.2183 0.000171461L-16.0339 0.000164472C-18.98 2.92069 -20.7789 6.30387 -20.4921 9.42682C-19.8925 16.1643 -10.3244 17.1474 -1.04306 12.2895L0.781917 11.2775C1.08953 12.5168 1.58309 13.6898 2.2419 14.7474C6.88255 22.2945 17.3631 23.0174 24.1416 17.4944C24.8888 16.8886 25.5867 16.2113 26.2273 15.4703C27.1385 16.868 28.1783 18.1569 29.3298 19.3161C35.6129 25.6199 43.0692 26.9789 45.911 23.1042C48.4138 19.6921 46.4845 13.1281 41.7396 7.95211C41.7396 7.95211 55.7658 7.5762 55.2183 0.000171461Z" fill="white" fill-opacity="0.15"/>
<path d="M147.986 211.514H-56.1424C-64.5823 203.018 -69.736 193.176 -68.9144 184.091C-67.1965 164.491 -39.7852 161.631 -13.1955 175.763L-7.96724 178.707C-7.08598 175.102 -5.67199 171.689 -3.78459 168.613C9.51025 146.657 39.5357 144.554 58.9551 160.621C61.0957 162.384 63.0951 164.354 64.9303 166.51C67.5409 162.444 70.5196 158.694 73.8185 155.322C91.8188 136.984 113.18 133.03 121.321 144.302C128.492 154.228 122.965 173.323 109.371 188.381C109.371 188.381 149.554 189.474 147.986 211.514Z" fill="white" fill-opacity="0.15"/>
<path d="M266.27 58.6933L269.959 56.876C270.049 56.775 270.049 56.674 269.959 56.674L266.27 54.8567L264.56 50.6162C264.56 50.5153 264.47 50.5153 264.47 50.6162L262.76 54.7557L259.071 56.674C258.981 56.674 258.981 56.775 259.071 56.876L262.76 58.6933L264.47 62.8328H264.56L266.27 58.6933Z" fill="#6ADBC6"/>
<path d="M62.0124 76.2703L65.4931 74.5473V74.3176L62.0124 72.7095L60.4768 68.9189H60.2721L58.7365 72.7095L55.3581 74.3176C55.2558 74.4325 55.2558 74.5473 55.3581 74.5473L58.7365 76.2703L60.2721 80.1757H60.4768L62.0124 76.2703Z" fill="#FFF5BE"/>
<path d="M237.377 113.558L242.573 111.001C242.606 110.96 242.624 110.906 242.624 110.851C242.624 110.796 242.606 110.742 242.573 110.701L237.377 108.145L235.046 102.28C235.033 102.264 235.018 102.252 235.001 102.243C234.983 102.234 234.965 102.229 234.946 102.229C234.927 102.229 234.908 102.234 234.891 102.243C234.874 102.252 234.858 102.264 234.846 102.28L232.514 108.069L227.319 110.701C227.286 110.742 227.268 110.796 227.268 110.851C227.268 110.906 227.286 110.96 227.319 111.001L232.514 113.558L234.846 119.346C234.935 119.497 235.001 119.497 235.046 119.346L237.377 113.558Z" fill="#628BF7"/>
<path d="M69.8965 108.145L77.7792 104.24C77.8335 104.24 77.8856 104.216 77.924 104.173C77.9624 104.129 77.984 104.071 77.984 104.01C77.984 103.949 77.9624 103.891 77.924 103.848C77.8856 103.805 77.8335 103.78 77.7792 103.78L69.8965 99.8749C69.8694 99.8749 69.8433 99.8628 69.8241 99.8413C69.8049 99.8197 69.7941 99.7905 69.7941 99.7601L66.2111 90.9155C66.2111 90.6857 66.0063 90.6857 65.904 90.9155L62.4233 99.7601H62.3209L54.3358 103.78C54.2855 103.844 54.2576 103.925 54.2576 104.01C54.2576 104.095 54.2855 104.177 54.3358 104.24L62.3209 108.145H62.4233L65.904 117.105C66.0063 117.334 66.2111 117.334 66.2111 117.105L69.7941 108.26C69.7941 108.23 69.8049 108.2 69.8241 108.179C69.8433 108.157 69.8694 108.145 69.8965 108.145Z" fill="#FF7ABC"/>
</g>
<defs>
<clipPath id="clip0">
<rect width="302" height="170" rx="8" fill="white"/>
</clipPath>
</defs>
</svg>
