<svg width="126" height="79" fill="none" xmlns="http://www.w3.org/2000/svg">
  <path d="M43.576 55c0-.332 4.307-25.843-26.339-46.384" stroke="#0DAD78" stroke-width="2.5" stroke-miterlimit="10" stroke-linecap="round"/>
  <path d="M37.612 74.712a135.566 135.566 0 0118.719-37.438" stroke="#0DAD78" stroke-width="3.5" stroke-miterlimit="10" stroke-linecap="round"/>
  <path d="M91.78 28.66c2.485 9.443-7.123 20.873-23.688 26.836-20.045 7.124-43.07 3.976-47.709-8.78C15.745 33.962 33.636 19.053 56 15.74c18.553-2.65 33.296 3.313 35.781 12.921z" fill="url(#paint0_linear)"/>
  <path opacity=".65" d="M58.981 33.464a44.963 44.963 0 0111.928-17.89l-4.473-.332a49.82 49.82 0 00-10.933 17.891A30.97 30.97 0 0037.28 21.537l-4.473 2.485c12.59 1.988 18.388 8.614 20.541 11.927-14.743 2.816-23.854 8.614-30.315 15.24.713.895 1.541 1.673 2.485 2.32 6.295-6.461 15.406-12.093 30.15-14.578 6.791 2.982 12.258 9.774 15.902 15.24l3.148-1.49c-3.48-5.302-8.78-11.928-15.24-15.738 9.773-5.466 22.694-8.945 32.136-8.945a13.177 13.177 0 00-1.822-3.313 75.85 75.85 0 00-30.812 8.78z" fill="#19AD7B"/>
  <path d="M.836 23.028C6.8 29.82 11.604 27.998 17.07 13.42l1.657-4.472C6.8 13.75-2.973 18.39.837 23.028z" fill="#0FC789"/>
  <path d="M23.034.333c-7.288.994-8.945 4.473-11.595 11.762l11.264-4.638c10.105-4.639 9.774-8.449.331-7.124z" fill="#57F287"/>
  <path opacity=".65" d="M26.679.002a80.82 80.82 0 00-14.412 9.774 14.304 14.304 0 00-.828 2.319l2.981-1.325A73.036 73.036 0 0129.992.996a5.466 5.466 0 00-3.313-.994z" fill="#0FC789"/>
  <path d="M86.48 54.171a120.395 120.395 0 003.478 19.713" stroke="#0DAD78" stroke-width="2.5" stroke-miterlimit="10" stroke-linecap="round"/>
  <path d="M105.363 48.208c-3.644-3.645-13.252-4.639-22.529-2.32-9.276 2.32-17.062 7.952-14.909 12.59C70.08 63.117 83 65.27 94.596 61.46c11.597-3.81 14.744-9.277 10.768-13.252z" fill="#57F287"/>
  <path opacity=".65" d="M87.806 52.349a19.515 19.515 0 00-5.964-6.295l-3.147.994a20.676 20.676 0 016.129 5.301 88.862 88.862 0 00-13.75-1.16 9.333 9.333 0 00-2.484 2.485c5.5.033 10.966.48 16.4 1.325a65.21 65.21 0 00-5.798 8.449h2.816a75.019 75.019 0 015.798-8.283 28.48 28.48 0 0112.921 3.479l2.485-1.491a31.821 31.821 0 00-11.1-4.141c4.97-2.154 10.106-3.976 13.253-4.97a8.324 8.324 0 00-2.65-1.822 135.493 135.493 0 00-14.91 6.129z" fill="#0FC789"/>
  <path d="M40.271 42.702c1.813-.954 2.317-2.008 1.837-3.53-.632-2.003-2.86-2.783-6.131-1.75-2.003.632-3.364 1.62-4.27 2.61l1.116 3.538c.592-.73 1.693-1.474 2.694-1.79.962-.303 1.378-.053 1.517.387.194.615-.269 1.054-1.51 1.96l-2.069 1.446.776 2.456 9.826-3.101-.919-2.91L39.2 43.26l1.071-.558zm11.038.23c3.845-1.213 5.672-3.889 4.821-6.586-.89-2.817-3.947-4.04-7.792-2.826-3.778 1.193-5.674 3.978-4.785 6.795.852 2.697 3.978 3.81 7.756 2.618zm-1.117-3.537c-.614.194-1.033-.159-1.231-.786-.186-.587-.036-1.09.578-1.284.668-.21 1.007.167 1.184.728.19.6.137 1.131-.53 1.342zm14.303-4.338c1.813-.954 2.317-2.009 1.837-3.53-.632-2.003-2.86-2.783-6.131-1.75-2.003.631-3.365 1.62-4.27 2.61l1.116 3.538c.592-.73 1.693-1.474 2.694-1.79.962-.304 1.378-.053 1.517.387.194.614-.269 1.054-1.51 1.96l-2.069 1.445.776 2.457 9.826-3.101-.919-2.91-3.938 1.242 1.071-.558zm2.414-5.137l1.227 3.885 2.793-2.452 1.462 4.632 5.274-1.664-2.815-8.918-4.432 1.399-3.509 3.118z" fill="#fff"/>
  <path d="M125.043 62.588c-2.792-1.956-4.707-5.006-5.265-8.454l-.798-5.637a.48.48 0 00-.479-.497c-.319 0-.478.166-.638.497l-.798 5.637c-.51 3.431-2.361 6.481-5.105 8.454l-.798.332a.69.69 0 00-.16.497.69.69 0 00.16.497l.798.498c2.776 1.873 4.627 4.89 5.105 8.288l.798 5.803c.16.165.319.497.638.497a.48.48 0 00.479-.497l.798-5.802c.526-3.415 2.457-6.433 5.265-8.29l.638-.497.319-.497c0-.166-.16-.331-.319-.497l-.638-.332z" fill="#FF78B9"/>
  <defs>
    <linearGradient id="paint0_linear" x1="19.579" y1="37.172" x2="92.186" y2="37.172" gradientUnits="userSpaceOnUse">
      <stop offset=".04" stop-color="#78E69A"/>
      <stop offset="1" stop-color="#3BB475"/>
    </linearGradient>
  </defs>
</svg>
