<svg width="800" height="627" viewBox="0 0 800 627" fill="none" xmlns="http://www.w3.org/2000/svg">
<path d="M497.5 77.9V239.6H192.8C191.434 239.594 190.085 239.296 188.843 238.727C187.602 238.158 186.496 237.331 185.6 236.3L152.6 199.3L336 38.9L334.6 77.9H497.5Z" fill="#FFF2A6"/>
<path d="M800 602.7C800 615.9 741 626.6 668.3 626.6C597.3 626.6 539.5 616.4 536.7 603.7H536.6L536 600.7C484.7 604.3 426.1 606.4 363.8 606.4C162.9 606.4 2.1772e-05 585 2.1772e-05 558.6C-0.016108 558.197 0.0174789 557.794 0.100022 557.4C0.210194 556.806 0.412639 556.232 0.700022 555.7C20.1 493.7 108.7 420.5 212.1 385.7C208.439 368.677 206.596 351.313 206.6 333.9C206.6 198.6 316.3 88.9 451.6 88.9C539.4 88.9 616.4 135.2 659.7 204.6V204.9C663.5 210.9 667 217.2 670.3 223.6C699.9 280 714.3 343.7 721.2 401.9C752.8 460.2 780 526.8 799.7 601.5C799.857 601.883 799.958 602.288 800 602.7Z" fill="#1D2CC2"/>
<path d="M334.3 88.1C346.3 173.7 423.2 238.4 497.2 263.7C498.714 264.216 500.301 264.486 501.9 264.5L727 266.7C728.416 266.705 729.816 266.394 731.096 265.788C732.376 265.182 733.505 264.298 734.4 263.2L763.8 226L593.2 77.9L578.4 43.7H334.3V88.1Z" fill="#FFF2A6"/>
<path d="M345.958 61.103C348.865 64.0098 350.498 67.9523 350.498 72.0632C350.498 76.174 348.865 80.1165 345.958 83.0233L334.998 93.9835L324.038 83.0233C321.131 80.1165 319.498 76.174 319.498 72.0632C319.498 67.9523 321.131 64.0098 324.038 61.103C326.945 58.1962 330.887 56.5632 334.998 56.5632C339.109 56.5632 343.051 58.1962 345.958 61.103Z" fill="black"/>
<path d="M772.6 212.1L613.1 77.3C637 42.6 635.5 20.5 601.5 14.2C529 0.700006 389.1 -0.999994 336 0.400006L338.3 58.6L523.7 223.7C526.089 225.856 529.183 227.065 532.4 227.1L765.1 232C767.966 232.013 770.738 230.982 772.9 229.1C774.092 228.018 775.04 226.694 775.679 225.216C776.318 223.739 776.634 222.142 776.605 220.532C776.577 218.922 776.205 217.337 775.514 215.883C774.823 214.429 773.83 213.139 772.6 212.1Z" fill="#FF78B9"/>
<path d="M536.1 223.2C536.93 222.328 537.577 221.299 538.002 220.173C538.428 219.047 538.623 217.847 538.576 216.644C538.529 215.442 538.242 214.26 537.731 213.171C537.22 212.081 536.495 211.105 535.6 210.3L367.9 59.9C386.8 23.5 391.6 0.100007 336 0.400007C291.8 1.50001 286.7 15.1 299.2 60.3L141.2 189.9C139.936 191.175 139.187 192.871 139.095 194.663C139.002 196.456 139.574 198.219 140.699 199.617C141.825 201.015 143.426 201.949 145.197 202.241C146.968 202.533 148.785 202.163 150.3 201.2L329.7 58.4C330.912 57.3797 332.454 56.837 334.038 56.8738C335.621 56.9107 337.137 57.5245 338.3 58.6L523.7 223.7C525.425 225.248 527.686 226.061 530.001 225.968C532.317 225.874 534.505 224.881 536.1 223.2Z" fill="#D11583"/>
<path d="M364 390.2H362.6C337.8 388.9 314.6 387 293.9 384.7C290.577 384.524 287.325 383.67 284.344 382.191C281.363 380.711 278.716 378.637 276.566 376.097C274.416 373.557 272.809 370.604 271.842 367.419C270.876 364.234 270.571 360.886 270.947 357.579C271.323 354.272 272.371 351.078 274.027 348.191C275.683 345.304 277.913 342.787 280.578 340.794C283.243 338.801 286.288 337.374 289.525 336.601C292.762 335.828 296.122 335.726 299.4 336.3C319.2 338.5 341.3 340.3 365.2 341.6C371.4 342.12 377.167 344.99 381.322 349.621C385.477 354.252 387.705 360.296 387.552 366.516C387.399 372.735 384.875 378.662 380.498 383.083C376.12 387.504 370.219 390.086 364 390.3V390.2Z" fill="#FFC619"/>
<path d="M363.9 371.9H363.6C339.1 370.6 316.3 368.7 295.9 366.4C294.365 366.134 292.989 365.291 292.056 364.043C291.122 362.794 290.702 361.236 290.881 359.688C291.06 358.14 291.825 356.719 293.019 355.717C294.213 354.715 295.745 354.208 297.3 354.3C317.5 356.6 340 358.4 364.3 359.7C365.918 359.753 367.449 360.447 368.555 361.628C369.662 362.81 370.253 364.382 370.2 366C370.147 367.618 369.454 369.148 368.272 370.255C367.091 371.361 365.518 371.953 363.9 371.9Z" fill="black"/>
<path d="M284.1 304.7H282.7C269.7 303.5 258.1 302.1 248.2 300.6C244.208 300.003 240.617 297.845 238.217 294.601C235.816 291.357 234.803 287.291 235.4 283.3C235.996 279.308 238.154 275.717 241.399 273.317C244.643 270.917 248.708 269.903 252.7 270.5C262 271.9 273 273.2 285.5 274.4C289.331 274.834 292.854 276.709 295.355 279.643C297.856 282.578 299.149 286.353 298.971 290.205C298.793 294.056 297.158 297.697 294.397 300.388C291.636 303.079 287.955 304.621 284.1 304.7Z" fill="white"/>
<path d="M250.5 302.9C260.055 302.9 267.8 295.155 267.8 285.6C267.8 276.045 260.055 268.3 250.5 268.3C240.946 268.3 233.2 276.045 233.2 285.6C233.2 295.155 240.946 302.9 250.5 302.9Z" fill="black"/>
<path d="M446 311.1C430.8 311.1 415.5 310.9 400.5 310.6C398.5 310.574 396.525 310.151 394.689 309.356C392.854 308.56 391.195 307.408 389.809 305.966C388.423 304.524 387.337 302.821 386.614 300.955C385.892 299.09 385.547 297.1 385.6 295.1C385.7 286.7 392.6 279.7 401.1 280.2C416 280.5 431.1 280.7 446 280.7C450.031 280.7 453.898 282.301 456.748 285.152C459.599 288.003 461.2 291.869 461.2 295.9C461.2 299.931 459.599 303.797 456.748 306.648C453.898 309.499 450.031 311.1 446 311.1Z" fill="white"/>
<path d="M400.8 312.9C410.465 312.9 418.3 305.065 418.3 295.4C418.3 285.735 410.465 277.9 400.8 277.9C391.135 277.9 383.3 285.735 383.3 295.4C383.3 305.065 391.135 312.9 400.8 312.9Z" fill="black"/>
<path d="M270.9 459.5C196.7 459.5 104.3 514 55.7998 584C114.7 596.3 214.8 604.8 330.6 606.2L334.3 600C379 522.4 350.6 459.5 270.9 459.5Z" fill="#66BCFF"/>
<path d="M536 600.6H535.9C514.3 602.1 491.3 603.4 467.3 604.3C500.9 573.3 506 527.3 498.7 485.1C496 472.4 493.7 461.4 491.9 454C491.568 452.424 491.863 450.781 492.722 449.419C493.58 448.056 494.935 447.081 496.5 446.7C497.281 446.523 498.09 446.501 498.88 446.636C499.669 446.771 500.425 447.061 501.103 447.488C501.781 447.915 502.368 448.471 502.831 449.126C503.293 449.78 503.623 450.519 503.8 451.3C505.4 458 507.5 467.7 509.8 478.8L518.3 515.1L536 600.6Z" fill="black"/>
</svg>
