<svg width="16" height="16" viewBox="0 0 16 16" fill="none" xmlns="http://www.w3.org/2000/svg">
<path d="M15.1309 7.63093L10.7018 6.70819L12.3775 4.13192C12.4224 4.06109 12.4418 3.97707 12.4326 3.89371C12.4233 3.81035 12.386 3.7326 12.3267 3.6733C12.2674 3.614 12.1897 3.57664 12.1063 3.56742C12.023 3.5582 11.9389 3.57767 11.8681 3.62257L9.29183 5.29823L8.3691 0.869094C8.3691 0.771204 8.33023 0.677352 8.26101 0.608133C8.19179 0.538914 8.09789 0.5 8 0.5C7.90211 0.5 7.80821 0.538914 7.73899 0.608133C7.66977 0.677352 7.6309 0.771204 7.6309 0.869094L6.70817 5.29823L4.13189 3.62257C4.06105 3.57767 3.97704 3.5582 3.89368 3.56742C3.81032 3.57664 3.73257 3.614 3.67327 3.6733C3.61396 3.7326 3.57661 3.81035 3.56739 3.89371C3.55816 3.97707 3.57763 4.06109 3.62253 4.13192L5.29824 6.70819L0.869095 7.63093C0.771205 7.63093 0.677307 7.6698 0.608088 7.73902C0.53887 7.80823 0.5 7.90213 0.5 8.00002C0.5 8.09791 0.53887 8.19176 0.608088 8.26098C0.677307 8.3302 0.771205 8.36912 0.869095 8.36912L5.29824 9.29185L3.62253 11.8681C3.57663 11.9385 3.55669 12.0227 3.56612 12.1062C3.57555 12.1898 3.61377 12.2674 3.67421 12.3258C3.70717 12.3613 3.74718 12.3894 3.79167 12.4085C3.83617 12.4276 3.88415 12.4371 3.93256 12.4365C4.00311 12.4352 4.07199 12.4148 4.13189 12.3775L6.70817 10.7018L7.6309 15.1309C7.6309 15.2288 7.66977 15.3227 7.73899 15.3919C7.80821 15.4611 7.90211 15.5 8 15.5C8.09789 15.5 8.19179 15.4611 8.26101 15.3919C8.33023 15.3227 8.3691 15.2288 8.3691 15.1309L9.29183 10.7018L11.8681 12.3775C11.928 12.4148 11.9969 12.4352 12.0674 12.4365C12.1158 12.4371 12.1638 12.4276 12.2083 12.4085C12.2528 12.3894 12.2928 12.3613 12.3258 12.3258C12.3862 12.2674 12.4244 12.1898 12.4339 12.1062C12.4433 12.0227 12.4234 11.9385 12.3775 11.8681L10.7018 9.29185L15.1309 8.36912C15.2288 8.36912 15.3227 8.3302 15.3919 8.26098C15.4611 8.19176 15.5 8.09791 15.5 8.00002C15.5 7.90213 15.4611 7.80823 15.3919 7.73902C15.3227 7.6698 15.2288 7.63093 15.1309 7.63093Z" fill="#F2F3F5"/>
</svg>
