<svg width="192" height="96" viewBox="0 0 192 96" fill="none" xmlns="http://www.w3.org/2000/svg">
<path d="M145.351 5.10815H136.34V27.3026H145.351V5.10815Z" fill="#AEC7FF"/>
<path d="M131.569 50.3428H145.352C161.149 50.3428 173.977 63.1311 173.977 78.8785C173.977 80.7281 175.461 82.2077 177.316 82.2077H178.218C185.851 82.2077 192 88.3376 192 95.9471H131.569V50.3428Z" fill="#83DDC5"/>
<path d="M173.447 5.10815H170.267V27.3026H173.447V5.10815Z" fill="#AEC7FF"/>
<path d="M173.43 8.24876V5.07812L136.323 5.07812V8.24876L173.43 8.24876Z" fill="#AEC7FF"/>
<path d="M74.5845 19.1647H80.3625C82.2709 19.1647 83.8081 17.6323 83.8081 15.7299C83.8081 13.8275 82.2709 12.295 80.3625 12.295H69.2305C67.7993 12.295 66.6331 11.1325 66.6331 9.70568C66.6331 8.2789 65.4669 7.11633 64.0356 7.11633H53.3807C51.2074 7.11633 49.458 8.86018 49.458 11.0268C49.458 13.1934 51.2074 14.9372 53.3807 14.9372H60.1659C60.537 14.9372 60.802 15.2014 60.802 15.5714C60.802 15.9413 60.537 16.2055 60.1659 16.2055H46.6485C45.3763 16.2055 44.3691 17.2095 44.3691 18.4778C44.3691 19.746 45.3763 20.7501 46.6485 20.7501H67.7463C68.3294 20.7501 68.8065 21.2257 68.8065 21.8069C68.8065 22.3882 68.3294 22.8638 67.7463 22.8638H58.5226V24.9776H79.1433C79.1433 23.3394 77.8181 21.9655 76.1218 21.9655H74.6375C73.7894 21.9655 73.1532 21.2785 73.1532 20.4858C73.1002 19.8517 73.7363 19.1647 74.5845 19.1647Z" fill="#3E70DD"/>
<path d="M76.837 8.55203L74.459 7.3855L64.2784 28.0095L66.6564 29.176L76.837 8.55203Z" fill="#FF9A15"/>
<path d="M78.4278 14.365L76.0498 13.1984L65.8692 33.8224L68.2472 34.989L78.4278 14.365Z" fill="#FF9A15"/>
<path d="M55.6067 40.1437C61.6669 40.1437 66.5797 35.2463 66.5797 29.205C66.5797 23.1637 61.6669 18.2663 55.6067 18.2663C49.5465 18.2663 44.6338 23.1637 44.6338 29.205C44.6338 35.2463 49.5465 40.1437 55.6067 40.1437Z" fill="#FFD836"/>
<path d="M55.6068 37.7129C60.3203 37.7129 64.1413 33.9038 64.1413 29.205C64.1413 24.5062 60.3203 20.6971 55.6068 20.6971C50.8933 20.6971 47.0723 24.5062 47.0723 29.205C47.0723 33.9038 50.8933 37.7129 55.6068 37.7129Z" fill="#202225"/>
<path d="M55.6068 35.2821C58.9736 35.2821 61.7029 32.5614 61.7029 29.2051C61.7029 25.8488 58.9736 23.1281 55.6068 23.1281C52.24 23.1281 49.5107 25.8488 49.5107 29.2051C49.5107 32.5614 52.24 35.2821 55.6068 35.2821Z" fill="#FFD836"/>
<path d="M31.6473 7.43339L30.6401 9.54714C30.4281 10.0227 30.9052 10.5512 31.4353 10.3398L33.5557 9.33577C33.7147 9.28292 33.8737 9.28292 34.0327 9.33577L36.1531 10.3398C36.6302 10.5512 37.1603 10.0756 36.9483 9.54714L35.9411 7.43339C35.8881 7.27485 35.8881 7.11632 35.9411 6.95779L36.9483 4.84403C37.1073 4.3156 36.5772 3.84 36.1001 4.05138L33.9797 5.05541C33.8207 5.10825 33.6617 5.10825 33.5026 5.05541L31.3823 4.05138C30.9052 3.84 30.3751 4.3156 30.5871 4.84403L31.5943 6.95779C31.7003 7.06348 31.7003 7.27485 31.6473 7.43339Z" fill="#D4E4FF"/>
<path d="M184.314 51.8224L183.306 53.9361C183.094 54.4117 183.571 54.9402 184.102 54.7288L186.222 53.7247C186.381 53.6719 186.54 53.6719 186.699 53.7247L188.819 54.7288C189.296 54.9402 189.827 54.4646 189.615 53.9361L188.607 51.8224C188.554 51.6638 188.554 51.5053 188.607 51.3468L189.615 49.233C189.827 48.7574 189.35 48.229 188.819 48.4404L186.699 49.4444C186.54 49.4972 186.381 49.4972 186.222 49.4444L184.102 48.4404C183.624 48.229 183.094 48.7046 183.306 49.233L184.314 51.3468C184.367 51.4525 184.367 51.6638 184.314 51.8224Z" fill="#7196FF"/>
<path d="M136.354 95.953H166.039V25.1422H136.354V95.953Z" fill="#3E70DD"/>
<path d="M136.34 25.1892H41.9834V46.3268H121.497V96H136.34V25.1892Z" fill="#AEC7FF"/>
<path d="M113.334 84.4794C113.493 82.4714 113.546 80.4104 113.546 78.2438C113.546 57.3705 105.807 40.4604 96.3179 40.4604C86.8292 40.4604 79.0898 57.3705 79.0898 78.2438C79.0898 80.3576 79.1959 82.4185 79.3019 84.4794H113.334Z" fill="#FF9A15"/>
<path d="M92.3428 57.4237C95.5631 57.4237 98.1738 54.8212 98.1738 51.6109C98.1738 48.4005 95.5631 45.798 92.3428 45.798C89.1224 45.798 86.5117 48.4005 86.5117 51.6109C86.5117 54.8212 89.1224 57.4237 92.3428 57.4237Z" fill="#FCFCFC"/>
<path d="M92.3427 54.7818C94.0992 54.7818 95.5232 53.3622 95.5232 51.6111C95.5232 49.86 94.0992 48.4405 92.3427 48.4405C90.5861 48.4405 89.1621 49.86 89.1621 51.6111C89.1621 53.3622 90.5861 54.7818 92.3427 54.7818Z" fill="#202225"/>
<path d="M121.498 72.7486H36.6826V95.9999H121.498V72.7486Z" fill="#7196FF"/>
<path d="M121.498 68.5212H34.5625V72.7487H121.498V68.5212Z" fill="#D4E4FF"/>
<path d="M126.799 30.4733H36.6826V50.0255H126.799V30.4733Z" fill="white"/>
<path d="M118.847 33.1152H39.333V47.3831H118.847V33.1152Z" fill="#D4E4FF"/>
<path d="M126.799 30.4733H121.498V50.0255H126.799V30.4733Z" fill="#D4E4FF"/>
<path d="M38.8036 79.6176H35.623V95.9992H38.8036V79.6176Z" fill="white"/>
<path d="M40.3943 78.561H34.0332V84.9023H40.3943V78.561Z" fill="#202225"/>
<path d="M42.5142 83.3169H31.9124C30.7462 83.3169 29.792 82.3657 29.792 81.2031V76.9756H44.6346V81.2031C44.6346 82.3657 43.6804 83.3169 42.5142 83.3169Z" fill="#F47FFF"/>
<path d="M32.9727 95.9994L37.2134 91.7719L41.4542 95.9994H32.9727Z" fill="white"/>
<path d="M60.0067 79.6176H56.8262V95.9992H60.0067V79.6176Z" fill="white"/>
<path d="M61.5975 78.561H55.2363V84.9023H61.5975V78.561Z" fill="#202225"/>
<path d="M63.7174 83.3169H53.1155C51.9493 83.3169 50.9951 82.3657 50.9951 81.2031V76.9756H65.8377V81.2031C65.8377 82.3657 64.8836 83.3169 63.7174 83.3169Z" fill="#F47FFF"/>
<path d="M54.1758 95.9994L58.4165 91.7719L62.6573 95.9994H54.1758Z" fill="white"/>
<path d="M81.2099 79.6176H78.0293V95.9992H81.2099V79.6176Z" fill="white"/>
<path d="M82.8006 78.561H76.4395V84.9023H82.8006V78.561Z" fill="#202225"/>
<path d="M84.9205 83.3169H74.3186C73.1524 83.3169 72.1982 82.3657 72.1982 81.2031V76.9756H87.0409V81.2031C87.0409 82.3657 86.0867 83.3169 84.9205 83.3169Z" fill="#F47FFF"/>
<path d="M75.3789 95.9994L79.6197 91.7719L83.8604 95.9994H75.3789Z" fill="white"/>
<path d="M102.415 79.6176H99.2344V95.9992H102.415V79.6176Z" fill="white"/>
<path d="M104.006 78.561H97.6445V84.9023H104.006V78.561Z" fill="#202225"/>
<path d="M106.126 83.3169H95.5237C94.3575 83.3169 93.4033 82.3657 93.4033 81.2031V76.9756H108.246V81.2031C108.246 82.3657 107.292 83.3169 106.126 83.3169Z" fill="#F47FFF"/>
<path d="M96.584 95.9994L100.825 91.7719L105.065 95.9994H96.584Z" fill="white"/>
<path d="M155.953 30.4733H145.352V38.9283H155.953V30.4733Z" fill="#AEC7FF"/>
<path d="M155.953 42.0991H145.352V50.5541H155.953V42.0991Z" fill="#AEC7FF"/>
<path d="M143.761 96.0001H131.039L136.34 64.2938H143.761V96.0001Z" fill="#202225"/>
<path d="M161.784 96.0001H141.641L136.34 64.2938H156.483L161.784 96.0001Z" fill="white"/>
<path d="M141.853 78.0325H155.583L155.212 75.9188H141.535L141.853 78.0325Z" fill="#7196FF"/>
<path d="M142.596 82.2605H156.272L155.901 80.1467H142.225L142.596 82.2605Z" fill="#7196FF"/>
<path d="M143.284 86.4879H156.961L156.643 84.3741H142.913L143.284 86.4879Z" fill="#7196FF"/>
<path d="M143.973 90.7153H157.703L157.332 88.6016H143.655L143.973 90.7153Z" fill="#7196FF"/>
<path d="M154.681 72.7484L153.992 68.5209H140.263L141.005 72.7484H154.681Z" fill="#7196FF"/>
<path d="M66.3144 43.42H54.8114C47.7611 43.42 42.0361 37.7128 42.0361 30.6846V25.1888H79.1427V30.6846C79.0897 37.7128 73.3647 43.42 66.3144 43.42Z" fill="white"/>
<path d="M97.643 63.7652H87.0411C85.5568 63.7652 84.3906 62.6027 84.3906 61.123C84.3906 59.6434 85.5568 58.4808 87.0411 58.4808H97.643C99.1272 58.4808 100.293 59.6434 100.293 61.123C100.293 62.5498 99.1272 63.7652 97.643 63.7652Z" fill="#FFD836"/>
<path d="M97.1138 61.6512H87.5721C87.254 61.6512 87.042 61.387 87.042 61.1227C87.042 60.8057 87.254 60.5943 87.5721 60.5943H97.1138C97.4318 60.5943 97.6439 60.8057 97.6439 61.1227C97.6439 61.387 97.4318 61.6512 97.1138 61.6512Z" fill="#202225"/>
<path d="M94.9919 34.7007H91.2812V38.3998H94.9919V34.7007Z" fill="#202225"/>
<path d="M94.9919 38.3997H91.2812V42.0987H94.9919V38.3997Z" fill="#202225"/>
<path d="M91.2819 38.3997H87.5713V42.0987H91.2819V38.3997Z" fill="#202225"/>
<path d="M87.571 38.3997H83.8604V42.0987H87.571V38.3997Z" fill="#202225"/>
<path d="M87.571 42.0991H83.8604V45.7982H87.571V42.0991Z" fill="#202225"/>
<path d="M91.2819 42.0991H87.5713V45.7982H91.2819V42.0991Z" fill="#202225"/>
<path d="M98.7028 42.0991H94.9922V45.7982H98.7028V42.0991Z" fill="#202225"/>
<path d="M98.7028 34.7007H94.9922V38.3998H98.7028V34.7007Z" fill="#202225"/>
<path d="M109.835 42.0991H106.124V45.7982H109.835V42.0991Z" fill="#202225"/>
<path d="M109.835 34.7007H106.124V38.3998H109.835V34.7007Z" fill="#202225"/>
<path d="M113.546 34.7007H109.835V38.3998H113.546V34.7007Z" fill="#202225"/>
<path d="M113.546 38.3997H109.835V42.0987H113.546V38.3997Z" fill="#202225"/>
<path d="M113.546 42.0991H109.835V45.7982H113.546V42.0991Z" fill="#202225"/>
<path d="M106.125 42.0991H102.414V45.7982H106.125V42.0991Z" fill="#202225"/>
<path d="M106.125 34.7007H102.414V38.3998H106.125V34.7007Z" fill="#202225"/>
<path d="M22.265 30.1562H22.159C21.8409 30.1562 21.6289 29.892 21.6289 29.6277V28.3066C21.6289 27.9896 21.894 27.7782 22.159 27.7782H22.265C22.5831 27.7782 22.7951 28.0424 22.7951 28.3066V29.6277C22.7951 29.892 22.5301 30.1562 22.265 30.1562Z" fill="#7196FF"/>
<path d="M22.265 36.1803H22.159C21.8409 36.1803 21.6289 35.9161 21.6289 35.6519V34.3308C21.6289 34.0137 21.894 33.8024 22.159 33.8024H22.265C22.5831 33.8024 22.7951 34.0666 22.7951 34.3308V35.6519C22.7951 35.969 22.5301 36.1803 22.265 36.1803Z" fill="#7196FF"/>
<path d="M24.0137 32.0062V31.9005C24.0137 31.5834 24.2787 31.3721 24.5438 31.3721H25.869C26.1871 31.3721 26.3991 31.6363 26.3991 31.9005V32.0062C26.3991 32.3233 26.134 32.5346 25.869 32.5346H24.5438C24.2257 32.5875 24.0137 32.3233 24.0137 32.0062Z" fill="#7196FF"/>
<path d="M17.9697 32.0062V31.9005C17.9697 31.5834 18.2348 31.3721 18.4998 31.3721H19.8251C20.1431 31.3721 20.3551 31.6363 20.3551 31.9005V32.0062C20.3551 32.3233 20.0901 32.5346 19.8251 32.5346H18.4998C18.1818 32.5875 17.9697 32.3233 17.9697 32.0062Z" fill="#7196FF"/>
<path d="M176.522 58.692H176.416C176.098 58.692 175.886 58.4278 175.886 58.1636V56.8425C175.886 56.5254 176.151 56.314 176.416 56.314H176.522C176.84 56.314 177.052 56.5782 177.052 56.8425V58.1636C177.052 58.4278 176.787 58.692 176.522 58.692Z" fill="#D4E4FF"/>
<path d="M176.522 64.7156H176.416C176.098 64.7156 175.886 64.4514 175.886 64.1872V62.8661C175.886 62.549 176.151 62.3376 176.416 62.3376H176.522C176.84 62.3376 177.052 62.6019 177.052 62.8661V64.1872C177.052 64.5042 176.787 64.7156 176.522 64.7156Z" fill="#D4E4FF"/>
<path d="M178.272 60.542V60.4363C178.272 60.1192 178.538 59.9078 178.803 59.9078H180.128C180.446 59.9078 180.658 60.1721 180.658 60.4363V60.542C180.658 60.859 180.393 61.0704 180.128 61.0704H178.803C178.484 61.1232 178.272 60.859 178.272 60.542Z" fill="#D4E4FF"/>
<path d="M172.229 60.542V60.4363C172.229 60.1193 172.494 59.9079 172.759 59.9079H174.084C174.402 59.9079 174.614 60.1721 174.614 60.4363V60.542C174.614 60.8591 174.349 61.0705 174.084 61.0705H172.759C172.441 61.1233 172.229 60.8591 172.229 60.542Z" fill="#D4E4FF"/>
<path d="M8.53451 6.11269C8.53451 5.42572 8.58752 4.7916 8.69354 4.15747C3.76367 5.05582 0 9.38902 0 14.6206C0 20.4862 4.77084 25.295 10.7079 25.295C15.9558 25.295 20.3026 21.5431 21.2038 16.5758C20.5676 16.6815 19.9315 16.7343 19.2424 16.7343C13.3584 16.7343 8.53451 11.9784 8.53451 6.11269Z" fill="#FFD836"/>
<path d="M177.687 14.6199H166.025V17.7906H177.687V14.6199Z" fill="#7196FF"/>
<path d="M177.687 43.1555H166.025V46.3262H177.687V43.1555Z" fill="#7196FF"/>
<path d="M182.458 17.7904H161.254V19.9042H182.458V17.7904Z" fill="white"/>
<path d="M182.458 19.9043H161.254V22.0181H182.458V19.9043Z" fill="#F47FFF"/>
<path d="M182.458 22.0178H161.254V24.1315H182.458V22.0178Z" fill="white"/>
<path d="M182.458 24.1317H161.254V26.2455H182.458V24.1317Z" fill="#F47FFF"/>
<path d="M182.458 26.2452H161.254V28.359H182.458V26.2452Z" fill="white"/>
<path d="M182.458 28.3592H161.254V30.4729H182.458V28.3592Z" fill="#F47FFF"/>
<path d="M182.458 30.4727H161.254V32.5864H182.458V30.4727Z" fill="white"/>
<path d="M182.458 32.5866H161.254V34.7004H182.458V32.5866Z" fill="#F47FFF"/>
<path d="M182.458 34.7001H161.254V36.8138H182.458V34.7001Z" fill="white"/>
<path d="M182.458 36.8141H161.254V38.9278H182.458V36.8141Z" fill="#F47FFF"/>
<path d="M182.458 38.9276H161.254V41.0413H182.458V38.9276Z" fill="white"/>
<path d="M182.458 41.042H161.254V43.1557H182.458V41.042Z" fill="#F47FFF"/>
</svg>
