<svg width="801" height="864" viewBox="0 0 801 864" fill="none" xmlns="http://www.w3.org/2000/svg">
<path d="M312.823 233.189C141.436 127.337 41.1631 181.343 10.5836 223.828C-19.996 266.313 22.6732 319.599 127.213 300.157C183.812 289.159 241.065 281.942 298.6 278.554L312.823 233.189Z" fill="#57F287"/>
<path d="M337.713 2.76234C385.36 20.0443 415.229 78.3711 405.273 247.59L342.691 235.349C214.684 60.369 288.644 -15.9598 337.713 2.76234Z" fill="#57F287"/>
<path d="M393.896 259.114C393.896 259.114 359.049 173.424 242.42 68.2916C184.817 16.4457 106.59 0.60383 51.8312 26.5268C-2.92749 52.4498 -0.0828829 119.417 93.0781 163.343C171.305 200.787 348.382 281.436 348.382 281.436L393.896 259.114Z" fill="#57F287"/>
<path d="M357.627 256.232C355.794 256.07 354.077 255.259 352.776 253.942C351.476 252.626 350.675 250.887 350.515 249.032C348.538 190.24 338.239 132.041 319.935 76.2117C319.596 75.3144 319.438 74.3574 319.47 73.3972C319.501 72.4369 319.723 71.4928 320.12 70.6205C320.518 69.7482 321.084 68.9652 321.785 68.3178C322.486 67.6703 323.308 67.1715 324.202 66.8506C325.089 66.5072 326.034 66.3469 326.982 66.379C327.93 66.4112 328.863 66.6351 329.724 67.0378C330.586 67.4404 331.359 68.0135 331.998 68.7234C332.638 69.4333 333.13 70.2655 333.447 71.1711C352.3 128.37 362.841 188.041 364.738 248.311C364.746 250.293 364.02 252.206 362.704 253.672C361.387 255.139 359.576 256.052 357.627 256.232Z" fill="#29CC7A"/>
<path d="M342.692 256.237H341.27C195.484 219.513 95.2113 241.836 94.5002 241.836C93.6143 242.167 92.667 242.295 91.7262 242.212C90.7855 242.129 89.8746 241.836 89.0589 241.354C88.2432 240.872 87.5429 240.213 87.0083 239.425C86.4736 238.637 86.1178 237.739 85.9664 236.795C85.5286 234.982 85.8029 233.068 86.7316 231.456C87.6602 229.845 89.1706 228.661 90.9444 228.154C95.2113 226.714 187.661 206.552 325.625 238.235C253.087 138.864 167.749 76.9368 83.8329 63.2552C81.9468 62.8733 80.2878 61.7483 79.2209 60.1278C78.1539 58.5073 77.7665 56.524 78.1437 54.6142C78.5209 52.7045 79.6319 51.0246 81.2323 49.9443C82.8327 48.864 84.7914 48.4716 86.6775 48.8536C178.416 63.9753 271.577 133.823 349.093 244.716C349.779 245.92 350.141 247.286 350.141 248.677C350.141 250.067 349.779 251.433 349.093 252.637C348.397 253.72 347.45 254.615 346.334 255.242C345.219 255.87 343.968 256.211 342.692 256.237Z" fill="#29CC7A"/>
<path d="M120.813 744.446C125.791 691.88 129.347 604.75 129.347 486.656C129.347 407.209 160.516 331.016 215.996 274.839C271.477 218.662 346.725 187.102 425.186 187.102C503.648 187.102 578.896 218.662 634.376 274.839C689.857 331.016 721.026 407.209 721.026 486.656C720.318 558.262 725.552 629.802 736.671 700.521C745.916 750.206 755.161 797.012 625.02 771.089C587.329 835.176 533.993 881.261 415.23 830.135C357.627 879.101 279.4 876.941 198.329 810.693C153.526 822.935 110.146 846.697 120.813 744.446Z" fill="#66BCFF"/>
<path d="M504.833 197.908C381.093 171.265 268.019 292.239 268.019 439.856C268.731 604.035 239.573 694.045 208.994 776.135C204.903 788.416 197.451 799.269 187.504 807.428C177.558 815.587 165.527 820.716 152.813 822.22C129.345 823.66 113.699 809.978 120.811 744.451C125.789 692.605 126.5 607.635 126.5 492.422C126.5 317.442 257.352 188.547 418.784 185.667C447.934 184.982 476.998 189.117 504.833 197.908Z" fill="url(#paint0_linear_6295_390903)"/>
<path d="M240.778 627.289C283.589 624.255 314.282 563.764 309.333 492.18C304.385 420.596 265.668 365.025 222.857 368.059C180.046 371.094 149.353 431.584 154.302 503.169C159.251 574.753 197.968 630.324 240.778 627.289Z" fill="white"/>
<path d="M693.289 429.779C728.846 357.051 758.004 287.203 740.225 264.16C722.446 241.118 605.106 217.355 461.453 254.079C396.027 270.641 351.224 368.572 351.224 477.305C351.224 566.595 437.274 645.084 548.925 639.323C623.596 635.003 705.378 572.356 760.848 511.869C793.561 475.865 805.651 446.341 799.251 433.38C792.85 420.418 745.203 424.019 693.289 429.779Z" fill="url(#paint1_linear_6295_390903)"/>
<path d="M679.779 431.932C577.139 445.593 475.298 464.823 374.694 489.539C559.594 298.717 691.157 243.27 724.581 265.593C758.005 287.915 716.047 359.924 679.779 431.932Z" fill="#FF8C19"/>
<path d="M518.347 358.483C467.618 398.862 419.626 442.646 374.694 489.538L422.341 478.017L585.906 430.492C571.192 400.056 547.612 374.923 518.347 358.483Z" fill="black"/>
<path d="M246.687 607.63C244.561 607.77 242.447 607.217 240.654 606.05C238.862 604.884 237.487 603.166 236.731 601.149C207.851 536.678 196.085 465.691 202.595 395.206C202.944 392.406 204.295 389.833 206.392 387.975C208.489 386.116 211.187 385.102 213.974 385.124C215.376 385.216 216.746 385.587 218.006 386.216C219.266 386.845 220.391 387.72 221.316 388.791C222.241 389.861 222.948 391.106 223.397 392.454C223.845 393.802 224.027 395.227 223.93 396.646C217.681 463.637 228.707 531.124 255.932 592.508C257.155 595.087 257.317 598.051 256.384 600.751C255.451 603.451 253.498 605.666 250.954 606.91L246.687 607.63Z" fill="#29CC7A"/>
<path d="M231.041 586.752C219.537 587.124 208.332 582.999 199.751 575.231C192.639 569.47 184.105 556.509 184.105 534.186C184.105 531.321 185.229 528.574 187.23 526.548C189.23 524.523 191.943 523.385 194.773 523.385C197.602 523.385 200.315 524.523 202.315 526.548C204.316 528.574 205.44 531.321 205.44 534.186C205.017 538.759 205.559 543.372 207.03 547.717C208.502 552.062 210.868 556.04 213.974 559.389C217.24 561.73 220.938 563.382 224.847 564.248C228.756 565.114 232.797 565.176 236.731 564.43C239.066 564.27 241.326 563.529 243.311 562.273C245.296 561.017 246.944 559.284 248.109 557.229C251.665 550.748 250.242 540.667 244.553 529.866C238.864 519.064 226.063 512.584 212.551 504.663C199.039 496.742 186.239 490.261 179.838 479.46C175.293 472.098 172.593 463.723 171.973 455.064C171.354 446.404 172.833 437.723 176.283 429.774C179.206 422.651 183.874 416.4 189.847 411.612C195.82 406.824 202.9 403.657 210.418 402.411C215.439 401.324 220.645 401.476 225.596 402.854C230.547 404.233 235.098 406.798 238.864 410.332C244.071 415.668 247.997 422.145 250.34 429.261C252.683 436.378 253.379 443.944 252.376 451.377C252.286 452.796 251.919 454.184 251.298 455.459C250.677 456.735 249.812 457.874 248.755 458.811C247.698 459.747 246.468 460.464 245.137 460.918C243.806 461.372 242.399 461.555 240.997 461.458C238.236 460.933 235.763 459.393 234.056 457.132C232.349 454.872 231.529 452.053 231.752 449.216C232.226 445.196 231.836 441.12 230.609 437.267C229.381 433.414 227.345 429.876 224.641 426.894C223.25 425.536 221.542 424.56 219.675 424.056C217.809 423.552 215.847 423.537 213.974 424.013C209.942 424.64 206.133 426.289 202.9 428.807C199.667 431.325 197.116 434.63 195.484 438.415C193.706 443.199 192.976 448.317 193.345 453.414C193.713 458.512 195.171 463.468 197.617 467.938C201.884 474.419 212.551 480.18 223.219 485.94C233.886 491.701 255.221 503.943 263.754 519.784C272.288 535.626 273.71 554.348 266.599 567.31C264.058 572.661 260.142 577.222 255.263 580.516C250.384 583.81 244.72 585.715 238.864 586.032L231.041 586.752Z" fill="#29CC7A"/>
<path d="M422.341 478.01C490.612 462.89 570.972 447.77 636.398 437.69C568.127 419.69 472.833 434.81 422.341 478.01Z" fill="url(#paint2_linear_6295_390903)"/>
<path d="M400.297 820.051C389.633 820.131 379.081 817.853 369.377 813.376C359.673 808.899 351.052 802.331 344.116 794.131C343.056 792.63 342.547 790.801 342.677 788.961C342.807 787.121 343.567 785.384 344.827 784.051C346.247 782.823 348.088 782.211 349.951 782.345C351.814 782.48 353.549 783.351 354.783 784.771C360.431 791.372 367.423 796.656 375.28 800.26C383.137 803.865 391.671 805.704 400.297 805.651C425.898 805.651 451.5 789.811 468.567 763.891C469.003 763.101 469.597 762.412 470.312 761.868C471.027 761.325 471.846 760.939 472.717 760.735C473.588 760.532 474.491 760.515 475.369 760.687C476.246 760.858 477.079 761.214 477.812 761.731C478.615 762.243 479.309 762.912 479.853 763.699C480.396 764.487 480.779 765.376 480.978 766.316C481.176 767.255 481.188 768.225 481.01 769.169C480.833 770.113 480.471 771.011 479.946 771.811C460.745 802.051 430.876 820.051 400.297 820.051Z" fill="#4DA6FF"/>
<path d="M311.402 757.404C303.055 757.434 294.8 755.65 287.194 752.172C279.587 748.694 272.806 743.604 267.31 737.244C265.96 735.778 265.21 733.849 265.21 731.844C265.21 729.84 265.96 727.911 267.31 726.444C268.903 725.316 270.829 724.773 272.769 724.904C274.709 725.034 276.546 725.832 277.977 727.164C282.088 732.093 287.204 736.061 292.974 738.795C298.744 741.53 305.031 742.966 311.402 743.004C321.906 742.624 332.136 739.508 341.105 733.959C350.073 728.41 357.478 720.615 362.605 711.324C363.11 710.511 363.771 709.809 364.549 709.259C365.327 708.708 366.205 708.321 367.133 708.12C368.061 707.919 369.019 707.907 369.951 708.087C370.883 708.266 371.771 708.633 372.561 709.164C373.364 709.676 374.058 710.345 374.601 711.133C375.145 711.92 375.527 712.81 375.726 713.749C375.925 714.688 375.936 715.659 375.759 716.602C375.582 717.546 375.22 718.444 374.694 719.244C368.198 730.51 358.983 739.921 347.913 746.596C336.843 753.27 324.28 756.989 311.402 757.404Z" fill="#4DA6FF"/>
<defs>
<linearGradient id="paint0_linear_6295_390903" x1="119.104" y1="503.871" x2="504.549" y2="503.871" gradientUnits="userSpaceOnUse">
<stop stop-color="#5865F2"/>
<stop offset="1" stop-color="#3442D9"/>
</linearGradient>
<linearGradient id="paint1_linear_6295_390903" x1="492.673" y1="265.097" x2="609.132" y2="521.657" gradientUnits="userSpaceOnUse">
<stop stop-color="#FFE75C"/>
<stop offset="1" stop-color="#FFC619"/>
</linearGradient>
<linearGradient id="paint2_linear_6295_390903" x1="422.625" y1="454.178" x2="636.611" y2="454.178" gradientUnits="userSpaceOnUse">
<stop stop-color="#EB459F"/>
<stop offset="1" stop-color="#D11583"/>
</linearGradient>
</defs>
</svg>
