<svg width="278" height="158" viewBox="0 0 278 158" fill="none" xmlns="http://www.w3.org/2000/svg">
<path fill-rule="evenodd" clip-rule="evenodd" d="M0 0H273C275.761 0 278 2.23858 278 5V153C278 155.761 275.761 158 273 158H0V0Z" fill="url(#paint0_linear)"/>
<g clip-path="url(#clip0)">
<path d="M140.58 156.88C139.562 156.792 138.572 156.499 137.67 156.02C136.763 155.548 135.958 154.903 135.3 154.12C134.651 153.331 134.158 152.424 133.85 151.45C133.55 150.48 133.445 149.461 133.54 148.45C134.2 141.09 135.2 130.07 135.87 122.73C135.941 121.696 136.219 120.686 136.686 119.761C137.153 118.835 137.801 118.012 138.591 117.34C139.38 116.669 140.296 116.162 141.285 115.849C142.273 115.536 143.314 115.424 144.347 115.519C145.379 115.615 146.382 115.915 147.296 116.404C148.211 116.892 149.019 117.558 149.672 118.363C150.325 119.168 150.811 120.096 151.101 121.091C151.391 122.087 151.479 123.13 151.36 124.16L149 149.83C148.901 150.849 148.609 151.84 148.14 152.75C147.423 154.112 146.318 155.232 144.966 155.967C143.613 156.702 142.073 157.02 140.54 156.88H140.58Z" fill="#7196FF"/>
<path d="M171.05 150.29L162.89 126.06C162.259 124.247 162.301 122.268 163.008 120.484C163.714 118.7 165.039 117.229 166.74 116.34C167.738 115.852 168.829 115.583 169.939 115.55C171.05 115.517 172.155 115.722 173.18 116.15C174.206 116.574 175.127 117.215 175.88 118.03C176.637 118.839 177.213 119.801 177.57 120.85L185.88 145.31C186.369 146.774 186.414 148.351 186.009 149.841C185.604 151.33 184.767 152.667 183.604 153.682C182.44 154.697 181.002 155.344 179.471 155.543C177.94 155.742 176.384 155.484 175 154.8C174.073 154.351 173.246 153.718 172.57 152.94C171.898 152.162 171.382 151.263 171.05 150.29Z" fill="#7196FF"/>
<path d="M197.89 115.53L191 123.87C190.878 124.019 190.802 124.199 190.78 124.39C190.753 124.583 190.777 124.779 190.85 124.96C190.926 125.135 191.047 125.286 191.2 125.4C191.356 125.518 191.544 125.588 191.74 125.6L202.41 126.6C203.418 126.701 204.436 126.575 205.389 126.23C206.341 125.885 207.204 125.331 207.914 124.609C208.624 123.886 209.163 123.013 209.491 122.055C209.819 121.096 209.928 120.076 209.809 119.07C209.69 118.064 209.347 117.097 208.805 116.242C208.263 115.386 207.536 114.662 206.677 114.125C205.818 113.587 204.85 113.25 203.843 113.136C202.836 113.023 201.817 113.137 200.86 113.47C199.7 113.871 198.672 114.584 197.89 115.53Z" fill="#7196FF"/>
<path d="M180.13 103.69H213.75C213.991 103.693 214.22 103.789 214.391 103.959C214.561 104.13 214.657 104.359 214.66 104.6V158H180.13V103.69Z" fill="#4FB2FF"/>
<path d="M203.16 103.69H192.62V158H203.16V103.69Z" fill="#3092F2"/>
<path d="M94.93 103.69H180.13V158H94V104.63C93.9905 104.507 94.0111 104.383 94.06 104.27C94.1049 104.159 94.1693 104.058 94.25 103.97C94.3371 103.886 94.4387 103.818 94.55 103.77C94.6688 103.714 94.7989 103.687 94.93 103.69Z" fill="#8CD9FF"/>
<path d="M142.67 103.69H127.2V158H142.67V103.69Z" fill="#4FB2FF"/>
<path d="M180.13 109.94V156.91L248.13 148.19" stroke="#C6E8FA" stroke-width="2" stroke-miterlimit="10" stroke-linecap="round"/>
<path d="M202.69 105.86L180.13 156.91" stroke="#C6E8FA" stroke-width="2" stroke-miterlimit="10" stroke-linecap="round"/>
<path d="M227.36 125.27L180.13 156.91" stroke="#C6E8FA" stroke-width="2" stroke-miterlimit="10" stroke-linecap="round"/>
<path d="M231.14 89.91C230.07 91.0836 229.509 92.6335 229.58 94.22L230.3 109.22L240.3 98.05C240.826 97.4675 241.234 96.7882 241.5 96.05C241.769 95.2938 241.881 94.4909 241.83 93.69C241.779 92.8909 241.571 92.1095 241.22 91.39C240.494 89.9523 239.245 88.8468 237.73 88.3C236.977 88.0312 236.178 87.9156 235.38 87.96C234.582 88.0077 233.8 88.2116 233.08 88.56C232.35 88.8769 231.691 89.3358 231.14 89.91Z" fill="#801384"/>
<path d="M225.23 104.67L224.8 94.67L220 100L225.23 104.67Z" fill="#801384"/>
<path d="M246.85 107.68C247.782 107.339 248.619 106.78 249.29 106.05C249.82 105.456 250.228 104.763 250.491 104.011C250.753 103.26 250.864 102.463 250.819 101.668C250.773 100.873 250.572 100.095 250.225 99.3783C249.879 98.6613 249.395 98.0197 248.8 97.49L238.55 88.34L229.48 80.28L222.48 88.16C222.399 87.2443 222.112 86.3589 221.64 85.57L221.83 85.35L217.43 81.41L216.36 82.7C215.551 82.7219 214.754 82.9091 214.02 83.25C213.29 83.5972 212.638 84.0868 212.1 84.69L211.98 84.84C210.946 86.0123 210.41 87.5419 210.487 89.1033C210.563 90.6647 211.246 92.1345 212.39 93.2L223.07 102.73L222.52 89.73L230.87 96.89L230.75 97.03L236.47 102.13L232.24 106.87L228.08 107.17L238.76 116.7C239.343 117.223 240.022 117.628 240.76 117.89C241.501 118.15 242.286 118.259 243.07 118.21C244.657 118.117 246.143 117.398 247.2 116.21L247.3 116.09C248.349 114.911 248.891 113.366 248.808 111.79C248.726 110.214 248.026 108.734 246.86 107.67L246.85 107.68Z" fill="#3092F2"/>
<path d="M220 100L230 99.27L225.2 104.65L220 100Z" fill="#801384"/>
<path d="M238.75 100.44C237.633 99.4546 236.189 98.92 234.7 98.94H235C236.587 98.8146 238.063 98.0799 239.12 96.89C240.035 95.6682 240.455 94.1466 240.299 92.6285C240.142 91.1103 239.419 89.7069 238.273 88.698C237.128 87.689 235.645 87.1485 234.119 87.1841C232.593 87.2197 231.137 87.8287 230.04 88.89L227.6 91.65L230 88.86C230.8 87.9624 231.316 86.8474 231.481 85.6563C231.647 84.4652 231.455 83.2518 230.93 82.17C230.577 81.4552 230.092 80.8139 229.5 80.28C228.833 79.6884 228.045 79.2508 227.19 78.9984C226.335 78.746 225.435 78.6849 224.554 78.8195C223.673 78.9541 222.833 79.2811 222.092 79.7772C221.352 80.2733 220.73 80.9264 220.27 81.69C219.65 82.7084 219.347 83.8887 219.4 85.08V85.41C219.326 84.5357 219.061 83.6882 218.624 82.9274C218.187 82.1665 217.588 81.5108 216.87 81.0064C216.152 80.502 215.333 80.1612 214.469 80.0081C213.605 79.8549 212.718 79.8931 211.87 80.12C210.749 80.4502 209.751 81.1042 209 82L208.89 82.13C207.838 83.3221 207.302 84.8831 207.4 86.47C207.498 88.0502 208.217 89.5275 209.4 90.58L220 100L230.68 109.53C231.867 110.557 233.41 111.077 234.976 110.98C236.543 110.883 238.009 110.176 239.06 109.01L239.17 108.87C240.226 107.687 240.77 106.133 240.683 104.55C240.597 102.967 239.888 101.482 238.71 100.42L238.75 100.44Z" fill="#4FB2FF"/>
<path d="M242.9 120.44L268.9 143.59C269.162 143.823 269.376 144.106 269.529 144.422C269.682 144.738 269.77 145.081 269.79 145.431C269.809 145.782 269.759 146.133 269.643 146.464C269.526 146.795 269.345 147.099 269.11 147.36L260.42 157.11C260.187 157.372 259.904 157.586 259.588 157.739C259.272 157.892 258.929 157.98 258.579 158C258.228 158.019 257.877 157.969 257.546 157.853C257.215 157.736 256.911 157.555 256.65 157.32L230.65 134.17L242.9 120.44Z" fill="#4FB2FF"/>
<path d="M243.61 121.06L179.23 63.66C178.699 63.1868 178.002 62.9432 177.292 62.9825C176.581 63.0219 175.916 63.341 175.44 63.87L166.75 73.62C166.515 73.883 166.334 74.1899 166.218 74.5229C166.102 74.8559 166.053 75.2086 166.073 75.5607C166.094 75.9128 166.183 76.2574 166.337 76.5747C166.491 76.8921 166.706 77.1759 166.97 77.41L231.35 134.82C231.881 135.291 232.577 135.533 233.286 135.492C233.994 135.451 234.658 135.13 235.13 134.6L243.83 124.85C244.302 124.318 244.544 123.62 244.503 122.91C244.461 122.199 244.14 121.534 243.61 121.06Z" fill="#8CD9FF"/>
<path d="M205.89 87.42C205.342 86.931 204.624 86.6761 203.89 86.71C203.151 86.7468 202.455 87.0695 201.95 87.61L191.45 99.38L203.1 109.62L213.52 97.94C214.017 97.3935 214.711 97.0657 215.449 97.0283C216.187 96.9908 216.91 97.2466 217.46 97.74L205.89 87.42Z" fill="#4FB2FF"/>
<path d="M261.12 136.66L257.38 133.23L253.25 129.65C253.722 130.073 254.009 130.664 254.049 131.297C254.088 131.93 253.877 132.552 253.46 133.03L242.82 145.03L250.7 152.03L261.33 140.03C261.739 139.545 261.95 138.924 261.92 138.29C261.871 137.665 261.585 137.081 261.12 136.66Z" fill="#3092F2"/>
<path d="M180.13 135.57C180.13 135.57 183.38 140.57 189.25 136.27C189.25 136.27 184.06 152.05 198.53 144.58C198.53 144.58 197.63 153.75 205.88 153.58" stroke="#C6E8FA" stroke-width="2" stroke-miterlimit="10" stroke-linecap="round"/>
<path d="M180.13 122.36C180.13 122.36 183.33 138.36 196.5 119.87C196.5 119.87 198.79 139.21 217.5 131.87C217.5 131.87 204.41 150.87 228.65 150.65" stroke="#C6E8FA" stroke-width="2" stroke-miterlimit="10" stroke-linecap="round"/>
<path d="M80 74.79C81.68 75.71 83.26 80.53 83.26 80.53C83.26 80.53 78.35 81.81 76.67 80.89C76.2694 80.6713 75.9159 80.3759 75.6295 80.0206C75.3432 79.6654 75.1296 79.2572 75.001 78.8193C74.8724 78.3815 74.8312 77.9226 74.88 77.4689C74.9287 77.0152 75.0663 76.5755 75.285 76.175C75.5036 75.7745 75.799 75.4209 76.1543 75.1345C76.5096 74.8482 76.9178 74.6346 77.3556 74.506C77.7935 74.3774 78.2523 74.3363 78.7061 74.385C79.1598 74.4337 79.5994 74.5713 80 74.79Z" fill="#C6E8FA"/>
<path d="M84.97 85.23C86.8367 85.23 88.35 83.7167 88.35 81.85C88.35 79.9833 86.8367 78.47 84.97 78.47C83.1032 78.47 81.59 79.9833 81.59 81.85C81.59 83.7167 83.1032 85.23 84.97 85.23Z" fill="#181A1C"/>
<path d="M84.6 72.05C83.7 74.3 86 80.26 86 80.26C86 80.26 91.81 77.57 92.71 75.32C93.0876 74.2524 93.0381 73.0802 92.5718 72.0483C92.1055 71.0164 91.2585 70.2046 90.2077 69.7824C89.1569 69.3603 87.9837 69.3606 86.9331 69.7831C85.8825 70.2057 85.0358 71.0179 84.57 72.05H84.6Z" fill="#C6E8FA"/>
<path d="M211.33 35.28C209.33 36.42 207.68 42.15 207.68 42.15C207.68 42.15 213.5 43.49 215.45 42.35C215.914 42.0795 216.321 41.7202 216.646 41.2926C216.971 40.865 217.209 40.3775 217.346 39.858C217.483 39.3384 217.517 38.797 217.444 38.2646C217.372 37.7322 217.196 37.2192 216.925 36.755C216.654 36.2908 216.295 35.8844 215.868 35.559C215.44 35.2337 214.953 34.9957 214.433 34.8587C213.913 34.7218 213.372 34.6885 212.84 34.7608C212.307 34.833 211.794 35.0095 211.33 35.28Z" fill="#C6E8FA"/>
<path d="M205.71 47.74C207.908 47.74 209.69 45.9581 209.69 43.76C209.69 41.5619 207.908 39.78 205.71 39.78C203.512 39.78 201.73 41.5619 201.73 43.76C201.73 45.9581 203.512 47.74 205.71 47.74Z" fill="#181A1C"/>
<path d="M205.81 32.21C206.95 34.83 204.4 41.92 204.4 41.92C204.4 41.92 197.47 38.92 196.34 36.34C195.857 35.0959 195.873 33.7131 196.386 32.481C196.9 31.2488 197.869 30.2628 199.093 29.7293C200.316 29.1958 201.698 29.156 202.95 29.6184C204.202 30.0807 205.227 31.0094 205.81 32.21Z" fill="#C6E8FA"/>
<path d="M53.35 137.36H81.45V131.5H53.35V137.36Z" fill="#5960FA"/>
<path d="M74 153L79.59 122.53H86.22L80.65 153H74Z" fill="#5960FA"/>
<path d="M48.55 122.56H55.16L60.75 153H54.09L48.55 122.56Z" fill="#5960FA"/>
<path d="M74.94 148.13L76.36 140.24H83L81.55 148.13H74.94Z" fill="#373BE1"/>
<path d="M51.79 140.24H58.39L59.85 148.13H53.22L51.79 140.24Z" fill="#373BE1"/>
<path d="M52 158H82.17C83.4034 157.876 84.5469 157.299 85.3785 156.379C86.2102 155.46 86.6706 154.265 86.6706 153.025C86.6706 151.785 86.2102 150.59 85.3785 149.671C84.5469 148.751 83.4034 148.174 82.17 148.05H52C50.7666 148.174 49.6231 148.751 48.7915 149.671C47.9599 150.59 47.4994 151.785 47.4994 153.025C47.4994 154.265 47.9599 155.46 48.7915 156.379C49.6231 157.299 50.7666 157.876 52 158Z" fill="#5960FA"/>
<path d="M86.1202 29.1152H76.3858C76.1373 29.1152 75.92 29.3023 75.8889 29.5518L75.4232 32.7955C75.3766 33.0918 75.6095 33.3725 75.92 33.3725H77.7054C77.8917 33.3725 78.0004 33.5596 77.9383 33.7156C77.7209 34.2302 77.5502 34.8072 77.4725 35.4154L76.5721 41.7C75.9821 45.9105 79.4598 48.0002 83.2635 48.0002C87.238 48.0002 91.1504 45.8949 91.7403 41.7L92.6408 35.4154C93.1997 31.2984 89.8307 29.2087 86.1202 29.1152ZM87.9832 35.431L87.0827 41.5752C86.8809 43.0255 85.2507 43.6961 83.7448 43.6961C82.3475 43.6961 80.9813 43.0255 81.1676 41.7L82.068 35.4154C82.2699 34.043 83.9 33.3413 85.406 33.3413C86.912 33.3413 88.2006 34.043 87.9832 35.431Z" fill="white"/>
<path d="M32.1073 29.1152H28.4744C28.226 29.1152 28.0086 29.3023 27.9776 29.5518L26.8598 37.5518V37.5674L26.9063 40.6551C26.9063 40.7175 26.8598 40.7799 26.7977 40.7955L25.7575 37.0684V37.0528L22.5127 29.4271C22.435 29.2399 22.2487 29.1152 22.0469 29.1152H18.3674C18.119 29.1152 17.9016 29.3023 17.8706 29.5518L15.4176 47.1737C15.371 47.4855 15.6194 47.7507 15.9144 47.7507H19.5784C19.8268 47.7507 20.0441 47.5635 20.0752 47.314L21.0378 40.3121V40.2965L20.9912 36.7097L21.0999 36.6785L22.2022 40.4056V40.4212L25.2296 47.4544C25.3072 47.6415 25.4935 47.7662 25.6954 47.7662H29.6699C29.9183 47.7662 30.1356 47.5791 30.1667 47.3296L32.6197 29.7078C32.6663 29.3959 32.4179 29.1152 32.1073 29.1152Z" fill="white"/>
<path d="M40.0563 29.1152H36.3924C36.1439 29.1152 35.9266 29.3023 35.8955 29.5518L33.4425 47.1581C33.396 47.47 33.6444 47.7351 33.9393 47.7351H37.6033C37.8517 47.7351 38.0691 47.5479 38.1001 47.2984L40.5532 29.6922C40.5997 29.3959 40.3668 29.1152 40.0563 29.1152Z" fill="white"/>
<path d="M57.2429 29.1152H43.534C43.2856 29.1152 43.0682 29.3023 43.0372 29.5518L42.5559 32.8423C42.5093 33.1542 42.7422 33.4193 43.0527 33.4193H46.8874C47.198 33.4193 47.4308 33.6844 47.3843 33.9963L45.5833 47.1581C45.5367 47.47 45.7851 47.7351 46.0801 47.7351H49.7907C50.0391 47.7351 50.2565 47.5479 50.2875 47.2984L52.135 33.8559C52.1661 33.6064 52.3834 33.4193 52.6318 33.4193H56.7461C56.9945 33.4193 57.2118 33.2321 57.2429 32.9826L57.7242 29.6922C57.8018 29.3959 57.5534 29.1152 57.2429 29.1152Z" fill="white"/>
<path d="M67.7226 29.1152H60.7517C60.5033 29.1152 60.2859 29.3023 60.2549 29.5518L57.8018 47.1581C57.7553 47.47 58.0037 47.7351 58.2987 47.7351H62.0092C62.2576 47.7351 62.475 47.5479 62.506 47.2984L63.2202 42.0431C63.2357 41.9183 63.3444 41.8247 63.4686 41.8247H63.9499C64.043 41.8247 64.1207 41.8715 64.1673 41.9495L67.707 47.5167C67.8002 47.6571 67.9554 47.7507 68.1417 47.7507H72.7373C73.1409 47.7507 73.3893 47.2828 73.1564 46.9553L69.4304 41.6064C69.3372 41.4816 69.3838 41.2945 69.5235 41.2321C71.8989 40.0625 73.2806 38.8774 73.7309 35.5401C74.2587 31.1737 71.5418 29.1152 67.7226 29.1152ZM68.9956 35.6181C68.8714 36.6941 68.0331 37.7701 66.5892 37.7701H64.4312C64.1207 37.7701 63.8878 37.4894 63.9344 37.1931L64.4001 33.9495C64.4312 33.7 64.6485 33.5128 64.8969 33.5128H67.2102C68.5765 33.5128 69.1354 34.4953 68.9956 35.6181Z" fill="white"/>
<path d="M31.9677 17.9648H34.607C35.2435 17.9648 35.7869 18.0583 36.2216 18.2611C36.6253 18.4326 36.9668 18.7289 37.2152 19.1032C37.4326 19.4775 37.5568 19.8985 37.5413 20.3196C37.5413 20.7562 37.4326 21.1773 37.1997 21.5515C36.9513 21.9414 36.5787 22.2377 36.1595 22.4248C35.6937 22.6431 35.1038 22.7523 34.4207 22.7523H31.9677V17.9648ZM34.4051 21.5203C34.8398 21.5203 35.1659 21.4112 35.3988 21.1929C35.6316 20.9589 35.7558 20.647 35.7403 20.304C35.7558 19.9921 35.6472 19.6958 35.4298 19.4775C35.228 19.2747 34.9175 19.1656 34.4983 19.1656H33.6754V21.5047H34.4051V21.5203Z" fill="white"/>
<path d="M41.5157 22.7369C41.1742 22.6433 40.8326 22.5029 40.5221 22.3158V21.1774C40.786 21.3801 41.0965 21.5205 41.407 21.5985C41.7641 21.7076 42.1212 21.7544 42.4938 21.77C42.618 21.77 42.7422 21.7544 42.8664 21.7076C42.9441 21.6608 42.9906 21.614 42.9906 21.5517C42.9906 21.4893 42.9751 21.4269 42.9285 21.3801C42.8509 21.3178 42.7577 21.2866 42.6646 21.271L41.8573 21.0838C41.3915 20.9747 41.0655 20.8187 40.8637 20.6316C40.6618 20.4289 40.5531 20.1482 40.5687 19.8675C40.5687 19.6179 40.6618 19.3684 40.8326 19.1813C41.0344 18.963 41.2828 18.807 41.5623 18.7291C41.9194 18.6199 42.292 18.5575 42.6801 18.5731C43.0372 18.5731 43.3788 18.6043 43.7203 18.6979C43.9998 18.7602 44.2637 18.8694 44.5121 19.0098V20.0858C44.2792 19.9454 44.0308 19.8519 43.7824 19.7895C43.503 19.7115 43.208 19.6803 42.9285 19.6803C42.5093 19.6803 42.292 19.7583 42.292 19.8986C42.292 19.961 42.323 20.0234 42.3851 20.0546C42.4938 20.1014 42.618 20.1326 42.7422 20.1638L43.4253 20.2885C43.8601 20.3665 44.2016 20.5068 44.419 20.694C44.6363 20.8811 44.745 21.1774 44.745 21.5517C44.745 21.9571 44.5432 22.3314 44.2016 22.5341C43.8445 22.768 43.3322 22.8928 42.6646 22.8928C42.2765 22.8772 41.8883 22.8304 41.5157 22.7369Z" fill="white"/>
<path d="M46.3286 22.5966C45.9715 22.425 45.661 22.1599 45.4437 21.8168C45.2418 21.4893 45.1487 21.0995 45.1487 20.7096C45.1487 20.3197 45.2418 19.9455 45.4592 19.618C45.6765 19.2749 45.9871 19.0254 46.3597 18.8539C46.8099 18.6667 47.2912 18.5576 47.7725 18.5732C48.4556 18.5732 49.0145 18.7135 49.4647 19.0098V20.2574C49.294 20.1482 49.1077 20.0546 48.9058 19.9923C48.6885 19.9299 48.4556 19.8831 48.2227 19.8831C47.8035 19.8831 47.4775 19.9611 47.2291 20.117C46.8875 20.3042 46.7788 20.7252 46.9651 21.0683C47.0273 21.1774 47.1204 21.271 47.2291 21.3334C47.462 21.4893 47.788 21.5673 48.2382 21.5673C48.4711 21.5673 48.6885 21.5361 48.9058 21.4737C49.1077 21.4114 49.294 21.3334 49.4647 21.2242V22.425C48.9369 22.7369 48.3469 22.8928 47.7414 22.8773C47.2601 22.8928 46.7633 22.7993 46.3286 22.5966Z" fill="white"/>
<path d="M51.157 22.5966C50.7844 22.425 50.4739 22.1599 50.2566 21.8168C50.0547 21.4894 49.946 21.0995 49.946 20.7096C49.946 20.3198 50.0392 19.9455 50.2566 19.618C50.4739 19.2905 50.7844 19.0254 51.157 18.8695C52.042 18.5108 53.0511 18.5108 53.9361 18.8695C54.2931 19.0254 54.6037 19.2905 54.821 19.618C55.0228 19.9455 55.1315 20.3354 55.1315 20.7096C55.1315 21.0995 55.0228 21.4894 54.821 21.8168C54.6037 22.1599 54.2931 22.425 53.9361 22.5966C53.0356 22.9708 52.042 22.9708 51.157 22.5966ZM53.2064 21.3802C53.3772 21.2087 53.4703 20.9591 53.4548 20.7252C53.4703 20.4757 53.3772 20.2418 53.2064 20.0702C53.0201 19.8987 52.7717 19.8207 52.5233 19.8207C52.2748 19.8051 52.0264 19.8987 51.8401 20.0702C51.6694 20.2418 51.5762 20.4757 51.5917 20.7252C51.5762 20.9747 51.6694 21.2087 51.8401 21.3802C52.0264 21.5517 52.2748 21.6453 52.5233 21.6297C52.7872 21.6453 53.0356 21.5517 53.2064 21.3802Z" fill="white"/>
<path d="M59.1992 18.8226V20.3041C58.9973 20.1793 58.7645 20.1169 58.5316 20.1325C58.1745 20.1325 57.895 20.2417 57.6932 20.46C57.5069 20.6783 57.3982 21.0214 57.3982 21.4893V22.7368H55.737V18.7446H57.3672V20.0078C57.4603 19.5399 57.6 19.1969 57.8019 18.9785C58.0037 18.7602 58.2832 18.6355 58.5781 18.6511C58.7955 18.6511 59.0129 18.7134 59.1992 18.8226Z" fill="white"/>
<path d="M64.7261 17.8245V22.7367H63.0649V21.8479C62.9407 22.1597 62.7078 22.4404 62.4284 22.612C62.1024 22.7991 61.7453 22.8927 61.3727 22.8771C61.0311 22.8927 60.6895 22.7835 60.3946 22.5964C60.1151 22.4093 59.8822 22.1442 59.7425 21.8323C59.5872 21.4892 59.5096 21.1149 59.5096 20.7406C59.4941 20.3508 59.5872 19.9609 59.7425 19.6178C59.8978 19.2903 60.1462 19.0252 60.4411 18.8381C60.7516 18.651 61.1087 18.5574 61.4658 18.5574C62.2576 18.5574 62.7855 18.9005 63.0649 19.5866V17.8245H64.7261ZM62.8165 21.3488C62.9873 21.1773 63.0805 20.9434 63.0649 20.7095C63.0649 20.4755 62.9718 20.2416 62.8165 20.0857C62.4284 19.7582 61.8695 19.7582 61.4658 20.0857C61.295 20.2572 61.2019 20.4755 61.2174 20.7095C61.2019 20.9434 61.295 21.1773 61.4658 21.3488C61.6521 21.5204 61.885 21.5983 62.1334 21.5983C62.3973 21.6139 62.6302 21.5204 62.8165 21.3488Z" fill="white"/>
<path d="M25.8509 16.7797C25.0436 16.4211 24.1897 16.1559 23.3047 16C23.1805 16.2183 23.0718 16.4366 22.9787 16.6706C22.0472 16.5302 21.0846 16.5302 20.1531 16.6706C20.0599 16.4366 19.9512 16.2183 19.827 16C18.9576 16.1559 18.1037 16.4211 17.2809 16.7953C15.6818 19.1813 15.247 21.5049 15.4644 23.8129C16.4115 24.5146 17.4672 25.0448 18.585 25.3879C18.8334 25.0448 19.0663 24.6862 19.2526 24.3119C18.8955 24.1715 18.5384 24 18.1969 23.8129C18.29 23.7505 18.3676 23.6881 18.4608 23.6257C20.4325 24.5614 22.7148 24.5614 24.702 23.6257C24.7796 23.6881 24.8728 23.7661 24.9659 23.8129C24.6244 24.0156 24.2828 24.1871 23.9102 24.3119C24.0965 24.6862 24.3294 25.0448 24.5778 25.3879C25.6956 25.0448 26.7514 24.5146 27.6984 23.8129C27.9468 21.1462 27.2482 18.8382 25.8509 16.7797ZM19.5165 22.3938C18.911 22.3938 18.3987 21.8324 18.3987 21.1618C18.3987 20.4912 18.88 19.9142 19.501 19.9142C20.122 19.9142 20.6188 20.4756 20.6188 21.1618C20.6188 21.848 20.1375 22.3938 19.5165 22.3938ZM23.6152 22.3938C23.0097 22.3938 22.5129 21.8324 22.5129 21.1618C22.5129 20.4912 22.9942 19.9142 23.6152 19.9142C24.2362 19.9142 24.7331 20.4756 24.7175 21.1618C24.7175 21.848 24.2362 22.3938 23.6152 22.3938Z" fill="white"/>
<path d="M38.9541 19.1812C39.4085 19.1812 39.7769 18.8461 39.7769 18.4327C39.7769 18.0192 39.4085 17.6841 38.9541 17.6841C38.4996 17.6841 38.1312 18.0192 38.1312 18.4327C38.1312 18.8461 38.4996 19.1812 38.9541 19.1812Z" fill="white"/>
<path d="M38.1312 19.6958C38.6591 19.9142 39.2646 19.9142 39.7924 19.6958V22.768H38.1312V19.6958Z" fill="white"/>
</g>
<defs>
<linearGradient id="paint0_linear" x1="1.9408e-05" y1="158" x2="135.748" y2="-80.8481" gradientUnits="userSpaceOnUse">
<stop stop-color="#738EF5"/>
<stop offset="0.752534" stop-color="#B3AEFF"/>
</linearGradient>
<clipPath id="clip0">
<rect width="278" height="158" fill="white"/>
</clipPath>
</defs>
</svg>
