<svg height="128" viewBox="0 0 128 128" width="128" xmlns="http://www.w3.org/2000/svg" xmlns:xlink="http://www.w3.org/1999/xlink"><radialGradient id="a" cx="49.104%" cy="44.641%" gradientTransform="matrix(0 1 -.98622 0 .931 -.045)" r="72.856%"><stop offset="0" stop-color="#fff"/><stop offset="1" stop-color="#fff" stop-opacity="0"/></radialGradient><linearGradient id="b"><stop offset="0" stop-color="#97ca43"/><stop offset="1" stop-color="#97ca43" stop-opacity="0"/></linearGradient><linearGradient id="c" x1="62.795%" x2="27.753%" xlink:href="#b" y1="61.893%" y2="37.886%"/><linearGradient id="d" x1="45.546%" x2="77.191%" xlink:href="#b" y1="61.238%" y2="-2.754%"/><linearGradient id="e" x1="62.273%" x2="97.191%" xlink:href="#b" y1="61.545%" y2="37.517%"/><linearGradient id="f" x1="45.336%" x2="18.393%" xlink:href="#b" y1="57.906%" y2="17.751%"/><g fill="none" transform="translate(0 1)"><path d="m127.408312 62.772279c0 34.5357162-28.3867192 62.529441-63.4031443 62.529441-35.016425 0-63.40314379-27.9937248-63.40314379-62.529441 0-34.5319673 28.38671879-62.52944105 63.40314379-62.52944105 35.0164251 0 63.4031443 27.99372485 63.4031443 62.52944105z" fill="#666"/><g fill="url(#a)"><path d="m127.408312 62.772279c0 34.5357162-28.3867192 62.529441-63.4031443 62.529441-35.016425 0-63.40314379-27.9937248-63.40314379-62.529441 0-34.5319673 28.38671879-62.52944105 63.40314379-62.52944105 35.0164251 0 63.4031443 27.99372485 63.4031443 62.52944105z"/><path d="m127.408312 62.772279c0 34.5357162-28.3867192 62.529441-63.4031443 62.529441-35.016425 0-63.40314379-27.9937248-63.40314379-62.529441 0-34.5319673 28.38671879-62.52944105 63.40314379-62.52944105 35.0164251 0 63.4031443 27.99372485 63.4031443 62.52944105z"/><path d="m127.408312 62.772279c0 34.5357162-28.3867192 62.529441-63.4031443 62.529441-35.016425 0-63.40314379-27.9937248-63.40314379-62.529441 0-34.5319673 28.38671879-62.52944105 63.40314379-62.52944105 35.0164251 0 63.4031443 27.99372485 63.4031443 62.52944105z"/></g><path d="m47.9194857 35.3821419c-7.0017817 8.4652244-36.3280846 42.8697259-33.7273155 66.1322221 1.8115184 2.286886 3.8071953 4.431309 5.9156223 6.448267-.3081836-17.807713 20.6407864-36.8638404 36.989552-51.2487234l-9.1816171-21.3317657z" fill="#00a54d"/><path d="m33.9537647 2.18749841c-6.9974972 8.46483089-36.324129 42.86821499-33.72278671 66.13149149 1.80995869 2.2888062 3.80545707 4.4312789 5.91455118 6.4461788-.30670848-17.8039107 20.64034473-36.8647888 36.99055733-51.2467467z" fill="url(#c)" transform="translate(13.961 33.195)"/><g transform="translate(17.225 7.05)"><path d="m13.4838135 2.5401997c-3.64006479 2.19671569-7.04858972 4.74969419-10.17439114 7.6205991 10.05700894 1.9060878 20.14431004 10.7386286 25.67642224 18.0553042 4.8164591 7.511787 7.4329475 14.3969664 10.8332465 21.5035222 2.3658866-2.0168597 4.7591889-4.001924 7.1792503-5.9546484l-.0151461-30.8651148c-7.4935319-4.64515101-19.8792533-10.75738928-33.3819995-10.3596623-.0302922.01876071-.0908766-.01876071-.1173823 0z" fill="#02a74d"/><path d="m13.4838135 2.5401997c-3.64006479 2.19671569-7.04858972 4.74969419-10.17439114 7.6205991 10.05700894 1.9060878 20.14431004 10.7386286 25.67642224 18.0553042 4.8164591 7.511787 7.4329475 14.3969664 10.8332465 21.5035222 2.3658866-2.0168597 4.7591889-4.001924 7.1792503-5.9546484l-.0151461-30.8651148c-7.4935319-4.64515101-19.8792533-10.75738928-33.3819995-10.3596623-.0302922.01876071-.0908766-.01876071-.1173823 0z" fill="url(#d)"/></g><g transform="translate(58.18 6.466)"><path d="m21.9374126 28.9422198c6.9754733 8.4727224 36.2040595 42.9072158 33.610807 66.1847084-1.8040017 2.2868853-3.7921619 4.4350578-5.8930722 6.4557648.3044252-17.8227091-20.5731363-36.8975815-36.8692852-51.2937115l9.1515504-21.3505107z" fill="#00a54d"/><path d="m33.8415403 2.18935623c-6.9743689 8.47201997-36.20407005 42.90837777-33.61132574 66.18765607 1.81434991 2.2833956 3.78397376 4.4402611 5.89500234 6.4554088-.30569474-17.8227867 20.5721241-36.8960976 36.8682957-51.2940252z" fill="url(#e)" transform="matrix(-1 0 0 1 55.778 26.75)"/><g transform="matrix(-1 0 0 1 52.526 .583)"><path d="m13.4392467 2.54235706c-3.62774114 2.20072033-7.02604525 4.7557022-10.14453668 7.62707114 10.02376838 1.9077067 20.08150288 10.7477488 25.59155628 18.0706384 4.8005397 7.5181666 7.412154 14.4091935 10.8012143 21.5255401 2.2945975-1.9490152 4.6269352-3.9318284 7.1555214-5.9597055l-.0150961-30.8950835c-7.4687641-4.64909609-19.8135482-10.76652541-33.2716649-10.36846064-.0264181.01877664-.0905762-.01877664-.1169943 0z" fill="#02a74d"/><path d="m13.4392467 2.54235706c-3.62774114 2.20072033-7.02604525 4.7557022-10.14453668 7.62707114 10.02376838 1.9077067 20.08150288 10.7477488 25.59155628 18.0706384 4.8005397 7.5181666 7.412154 14.4091935 10.8012143 21.5255401 2.2945975-1.9490152 4.6269352-3.9318284 7.1555214-5.9597055l-.0150961-30.8950835c-7.4687641-4.64909609-19.8135482-10.76652541-33.2716649-10.36846064-.0264181.01877664-.0905762-.01877664-.1169943 0z" fill="url(#f)"/></g></g></g></svg>