<svg id="art" xmlns="http://www.w3.org/2000/svg" xmlns:xlink="http://www.w3.org/1999/xlink" viewBox="0 0 280 168"><defs><style>.cls-1,.cls-11{fill:none;}.cls-2{fill:#eb459f;}.cls-3{fill:#fff;}.cls-4{fill:#5865f2;}.cls-5{fill:#ffc619;}.cls-6{fill:#fff2a6;}.cls-7{fill:#ff78b9;}.cls-8{fill:#91ffad;}.cls-9{fill:#86fcc1;}.cls-10{fill:#3442d9;}.cls-11{stroke:#000;stroke-linecap:round;stroke-linejoin:round;stroke-width:2.08px;}.cls-12{fill:url(#linear-gradient);}.cls-13{fill:url(#linear-gradient-2);}.cls-14{fill:#fa6ef6;}.cls-15{fill:#ffadfb;}.cls-16{fill:#e655d4;}.cls-17{fill:#ffcff9;}.cls-18{fill:#00f67a;}.cls-19{fill:#66bcff;}</style><linearGradient id="linear-gradient" x1="273.36" y1="68.59" x2="264.24" y2="92.39" gradientUnits="userSpaceOnUse"><stop offset="0" stop-color="#66bcff"/><stop offset="1" stop-color="#8cd9ff"/></linearGradient><linearGradient id="linear-gradient-2" x1="275.92" y1="103.15" x2="272.01" y2="113.35" xlink:href="#linear-gradient"/></defs><rect class="cls-1" width="280" height="168"/><path class="cls-2" d="M0,168V0H280V168Z"/><rect class="cls-3" x="80" y="24" width="120" height="120" rx="32"/><path class="cls-4" d="M.05,24.25H0v120H.05a60,60,0,0,0,60-60A60,60,0,0,0,.05,24.25Z"/><path class="cls-5" d="M0,113.67H21.36c6.1,0,11-5.26,11-11.76H0Z"/><path class="cls-6" d="M0,105.11a12.69,12.69,0,0,1,0-3.2H32.41a12.48,12.48,0,0,1-.43,3.2Z"/><path class="cls-7" d="M0,102.71H30.12a8.8,8.8,0,0,0,8.8-8.8h0a8.8,8.8,0,0,0-8.8-8.8H0v8.8H0Z"/><path d="M35.69,53.61,21.36,75a.79.79,0,0,0,.22,1.11A.81.81,0,0,0,22.65,76L38.72,55.82a1.88,1.88,0,0,0-2.94-2.34Z"/><circle class="cls-8" cx="32.85" cy="60.62" r="5.79"/><circle class="cls-9" cx="32.85" cy="60.62" r="5.79"/><ellipse class="cls-7" cx="34.49" cy="57.86" rx="1.99" ry="2.48" transform="translate(-32.87 57.94) rotate(-59.26)"/><path class="cls-8" d="M29.82,81.11s3.89,4.37,13.15.8c10.4-4,12,10.4-4.27,8.5-11.23-1.31-13.58-2.9-14.36,1.9s-8.62,3.2-11.36-4-13,5.6-13,5.6V80.58Z"/><path class="cls-9" d="M29.82,81.11s3.89,4.37,13.15.8c10.4-4,12,10.4-4.27,8.5-11.23-1.31-13.58-2.9-14.36,1.9s-8.62,3.2-11.36-4-13,5.6-13,5.6V80.58Z"/><path class="cls-5" d="M0,82.71V61.91a125,125,0,0,0,12.41,4.8c5,1.47,6.21-.1,12,3.2C30,73.11,31.5,77,33.46,81.06a1.16,1.16,0,0,1-1.06,1.65Z"/><path class="cls-6" d="M9.52,65.76A52.3,52.3,0,0,1,16,72.85a2.76,2.76,0,0,0,3.83.66,2.75,2.75,0,0,0,.66-3.83c-.09-.14-.61-.86-1.49-1.93-2-.36-3.62-.18-6.54-1C11.51,66.45,10.53,66.12,9.52,65.76Z"/><path class="cls-6" d="M1.19,71.58a3.19,3.19,0,0,0,2.73,1.91,2.77,2.77,0,0,0,1.93-.83,5.61,5.61,0,0,0,.8-6.31c-.09-.17-.5-.95-1.19-2.13C2.45,63,0,61.91,0,61.91v7.58C.75,70.75,1.16,71.54,1.19,71.58Z"/><path class="cls-8" d="M220,84a60,60,0,0,0,60,60V24A60,60,0,0,0,220,84Z"/><path class="cls-10" d="M229.2,95.66a.75.75,0,0,0,.57.08.76.76,0,0,0,.47-.3c3.86-5.29,6.68-5.8,9-4.83,1.53.66,3.49,3.4,4.66,6.89a1.53,1.53,0,0,0,.67.83,1.61,1.61,0,0,0,1.07.2,1.65,1.65,0,0,0,.71-.29,1.58,1.58,0,0,0,.47-.59c1.73-3.82,2.82-5.71,4.88-7.15s6.29-2,10,.48l4.77-11.1c-8-2.55-12.86-7.56-16.51-13.11-3.92-5.93-5.52-4.92-10.49,2.91a76.11,76.11,0,0,0-10.65,25.16.85.85,0,0,0,.05.47A.92.92,0,0,0,229.2,95.66Z"/><path class="cls-11" d="M251.35,77.7a45.62,45.62,0,0,0,8,11.21"/><path d="M270.51,110.26l9.49-.61V76.22a33.26,33.26,0,0,0-4.15,1.3C264.36,81.92,261,87.13,261,87.13c5.19-2,11.53,1.61,14.15,8S275.69,108.29,270.51,110.26Z"/><path class="cls-3" d="M280,90c-.89-4.11-2.68-13.17-2.68-13.17L271,84c4.71,5.9,7.45,9.34,8.66,10.2l.34.21Z"/><path class="cls-3" d="M263.36,90.86c3.45,4.35,5.47,6.87,6.35,7.49s1,.11.44-2.22S268,85.61,268,85.61Z"/><path class="cls-12" d="M275.78,85.22A14.19,14.19,0,0,1,280,80.37V68.89a25,25,0,0,0-9.81,1.61,24.46,24.46,0,0,0-8.4,5.34,23.62,23.62,0,0,0-5.51,8.21c-2.64,6.62-.64,12,3.73,13.6a7.57,7.57,0,0,0,5.65-.28C269.51,95.6,271.3,93.41,275.78,85.22Z"/><path class="cls-13" d="M280,103.75c-5.82-1.17-8.77-.64-11.25.22a6.59,6.59,0,0,0-4.22,4.22c-.66,2.17-.17,5,4.76,7a25,25,0,0,0,10.71,2Z"/><path class="cls-11" d="M245.1,97.42c-1.19-7.78-.66-19.77-.66-19.77"/><path class="cls-11" d="M229.62,95.13a106.79,106.79,0,0,1,9.93-18.29"/><path class="cls-2" d="M274.11,84.44A16.35,16.35,0,0,1,280,78.12V76.58a17.92,17.92,0,0,0-7.11,7.2c-2.89,5-7.22,11.77-11.66,12a6.77,6.77,0,0,1-3-.55,6.57,6.57,0,0,1-2.43-1.83.81.81,0,0,0,.08.25,5.73,5.73,0,0,0,2,2.49,5.82,5.82,0,0,0,3.08,1h.34C265.27,96.91,269.21,93,274.11,84.44Z"/><path class="cls-2" d="M280,106.24c-7-1.32-11.7-.88-14.29,1.34l-.34.31a3.29,3.29,0,0,0-.91,1.83,3.2,3.2,0,0,0,.35,2,4.72,4.72,0,0,1,.56-1.76,4.87,4.87,0,0,1,1.23-1.4c2.26-1.93,6.79-2.25,13.4-.94Z"/><path class="cls-14" d="M140,43.61l-24.2,24.2v34.06L140,126l24.2-24.2v-34ZM152.1,96.8,140,108.9,127.9,96.8v-24L140,60.69l12.1,12.1Z"/><path class="cls-15" d="M140,43.61V60.69l12.1,12.1,12.1-5Z"/><path class="cls-16" d="M127.9,96.8l-12.1,5.07L140,126V108.9Z"/><path class="cls-17" d="M127.9,72.79v24L140,108.9l12.1-12.1v-24L140,60.69Z"/><path class="cls-3" d="M152.1,72.79v.1l-24.1,24h-.1V90.35l20.88-20.88Z"/><path class="cls-3" d="M152.1,81.87V88.5l-16.2,16.3-3.32-3.42Z"/><path class="cls-18" d="M192.71,30.15a13.69,13.69,0,0,1-6.13-9.5l-1-6.64a.67.67,0,0,0-.66-.56h0a.67.67,0,0,0-.66.56l-1,6.64a13.74,13.74,0,0,1-6.14,9.5l-.86.55a.68.68,0,0,0-.3.57v0a.68.68,0,0,0,.3.56l.86.55a13.74,13.74,0,0,1,6.14,9.5l1,6.64a.68.68,0,0,0,.66.57h0a.68.68,0,0,0,.66-.57l1-6.64a13.69,13.69,0,0,1,6.13-9.5l.86-.55a.69.69,0,0,0,.31-.56v0a.69.69,0,0,0-.31-.57Z"/><path class="cls-19" d="M99.87,136a13.73,13.73,0,0,1-6.13-9.5l-1-6.64a.67.67,0,0,0-.66-.57h0a.68.68,0,0,0-.66.57l-1,6.64A13.73,13.73,0,0,1,84.3,136l-.87.55a.67.67,0,0,0-.3.56v0a.68.68,0,0,0,.3.57l.87.55a13.73,13.73,0,0,1,6.13,9.5l1,6.63a.67.67,0,0,0,.66.57h0a.66.66,0,0,0,.66-.57l1-6.63a13.73,13.73,0,0,1,6.13-9.5l.86-.55a.69.69,0,0,0,.31-.57v0a.68.68,0,0,0-.31-.56Z"/><path class="cls-7" d="M212.44,65.44a13.74,13.74,0,0,1-6.14-9.5l-1-6.64a.68.68,0,0,0-.66-.57h0a.68.68,0,0,0-.66.57l-1,6.64a13.73,13.73,0,0,1-6.13,9.5L196,66a.69.69,0,0,0-.31.56v0a.69.69,0,0,0,.31.56l.86.55a13.73,13.73,0,0,1,6.13,9.5l1,6.64a.68.68,0,0,0,.66.57h0a.68.68,0,0,0,.66-.57l1-6.64a13.74,13.74,0,0,1,6.14-9.5l.86-.55a.68.68,0,0,0,.3-.56v0a.68.68,0,0,0-.3-.56Z"/></svg>