<svg width="1096" height="274" viewBox="0 0 1096 274" fill="none" xmlns="http://www.w3.org/2000/svg">
<g clip-path="url(#clip0_1712_102579)">
<path d="M0 0H1096V274H0V0Z" fill="#36393F"/>
<g style="mix-blend-mode:luminosity" opacity="0.5" clip-path="url(#clip1_1712_102579)">
<path d="M842.136 111.156C879.468 111.156 909.732 80.7198 909.732 43.1752C909.732 5.6307 879.468 -24.8052 842.136 -24.8052C804.803 -24.8052 774.539 5.6307 774.539 43.1752C774.539 80.7198 804.803 111.156 842.136 111.156Z" fill="black"/>
<path d="M842.136 120.155C884.411 120.155 918.682 85.6902 918.682 43.1751C918.682 0.660088 884.411 -33.8052 842.136 -33.8052C799.861 -33.8052 765.59 0.660088 765.59 43.1751C765.59 85.6902 799.861 120.155 842.136 120.155Z" stroke="#57F287" stroke-width="2" stroke-linecap="round" stroke-linejoin="round"/>
<path d="M840.269 92.867C837.446 80.2334 839.169 68.9956 859.531 63.7256C859.531 63.7256 848.979 42.5254 832.493 43.9933C816.006 45.4612 814.331 64.5679 820.385 75.6372C826.439 86.7066 840.269 92.867 840.269 92.867Z" fill="#D11583"/>
<path d="M832.613 44.1134C827.301 49.7444 829.574 51.5251 846.515 65.1452C863.456 78.7653 876.616 87.2358 880.469 81.4846L857.019 61.4634L849.649 50.4422L836.393 41.707L832.613 44.1134Z" fill="white"/>
<path d="M892.815 45.6538C899.372 29.7476 894.586 12.1087 879.535 8.61947C877.836 -8.22524 864.293 -15.9498 847.807 -17.2011C841.479 -17.5644 835.158 -16.3837 829.382 -13.7599C826.11 -17.0254 821.945 -19.237 817.418 -20.1128C802.749 -14.3277 790.551 -3.5709 782.931 10.2987C775.311 24.1683 772.748 40.2792 775.685 55.8474C778.622 71.4155 786.875 85.4628 799.017 95.5615C811.159 105.66 826.427 111.176 842.184 111.156C843.013 111.156 843.811 111.156 844.577 111.156C846.374 109.445 847.716 107.309 848.481 104.942C849.246 102.576 849.409 100.054 848.955 97.6077C852.688 96.236 851.899 91.9286 848.333 90.6532C844.768 89.3778 831.584 87.2361 824.166 76.648C816.748 66.0599 819.38 52.4639 826.056 48.0361C834.072 42.7902 844.361 45.4131 853.717 59.6589C863.073 73.9047 873.601 80.5223 880.277 81.4368C886.953 82.3512 888.173 79.8245 887.862 77.6828C896.979 69.1161 900.688 57.3007 892.815 45.6538Z" fill="#FF78B9"/>
<path d="M835.005 88.271C834.37 88.271 833.762 88.5245 833.313 88.9757C832.864 89.427 832.612 90.0391 832.612 90.6774C832.612 99.8938 829.119 106.319 823.208 108.316C825.43 108.966 827.682 109.504 829.956 109.928C833.641 106.896 837.422 101.241 837.494 90.6774C837.494 90.3531 837.429 90.0321 837.303 89.7337C837.176 89.4353 836.992 89.1655 836.759 88.9408C836.527 88.716 836.252 88.5409 835.95 88.4258C835.649 88.3107 835.327 88.258 835.005 88.271V88.271Z" fill="#F54C9D"/>
<path d="M812.465 -8.05664C822.969 -5.07272 829.215 3.44589 824.812 18.2692C834.216 24.0205 839.169 32.7076 833.067 42.9347" stroke="#F54C9D" stroke-width="2" stroke-linecap="round" stroke-linejoin="round"/>
<path d="M825.602 4.16766C825.602 4.16766 828.497 -3.21995 834.024 -4.71191" stroke="#F54C9D" stroke-width="2" stroke-linecap="round" stroke-linejoin="round"/>
<path d="M872.381 2.41113C878.124 12.8308 877.884 27.7263 872.907 38.5069C883.938 49.8651 885.398 64.5922 871.065 74.6027" stroke="#F54C9D" stroke-width="2" stroke-linecap="round" stroke-linejoin="round"/>
<path d="M860.321 7.60878L863.958 3.54199" stroke="black" stroke-width="2" stroke-miterlimit="10" stroke-linecap="round"/>
<path d="M862.905 14.0336L868.074 12.3491" stroke="black" stroke-width="2" stroke-miterlimit="10" stroke-linecap="round"/>
<path d="M885.685 24.2367L889.106 20.0015" stroke="black" stroke-width="2" stroke-miterlimit="10" stroke-linecap="round"/>
<path d="M867.284 21.7343C868.073 33.9588 865.25 38.7715 859.675 38.7715C855.152 38.7715 851.611 35.5229 852.736 26.4508C853.303 21.6398 852.25 16.7764 849.745 12.6382C843.93 3.01263 846.514 0.485864 851.204 0.245225C857.545 -0.0676053 866.494 9.53394 867.284 21.7343Z" fill="white"/>
<path d="M891.021 30.349C890.183 25.5362 887.192 21.0844 884.058 21.1085C880.923 21.1326 880.684 25.1512 881.521 29.9881C882.359 34.8249 883.22 38.7954 886.666 38.9398C890.111 39.0842 891.858 35.1859 891.021 30.349Z" fill="white"/>
<path d="M859.675 38.7714C860.489 38.7804 861.298 38.6502 862.068 38.3864C863.66 36.6528 864.628 34.4333 864.82 32.0817C865.274 27.7502 864.198 24.2368 860.8 24.2368C857.402 24.2368 855.081 27.7502 854.602 32.0817C854.371 33.9039 854.653 35.7547 855.416 37.4238C856.647 38.3376 858.146 38.8119 859.675 38.7714V38.7714Z" fill="black"/>
<path d="M886.809 31.0708C884.776 31.0708 883.412 33.1644 883.125 35.7392C883.125 35.9077 883.125 36.0521 883.125 36.2205C883.387 36.9763 883.865 37.6375 884.499 38.1212C885.133 38.6049 885.895 38.8897 886.69 38.9397C887.221 38.9366 887.748 38.8389 888.245 38.651C888.784 37.7662 889.119 36.7712 889.226 35.7392C889.466 33.1644 888.843 31.0708 886.809 31.0708Z" fill="black"/>
<path d="M762.001 84.2523C759.475 84.2882 757.003 83.5194 754.939 82.0561C752.875 80.5928 751.324 78.51 750.508 76.106C749.693 73.7021 749.655 71.1002 750.4 68.6732C751.145 66.2462 752.634 64.1184 754.655 62.5948C771.189 49.7928 789.757 36.3411 789.949 36.1245C791.497 35.0077 793.423 34.5552 795.304 34.8666C797.184 35.178 798.864 36.2277 799.974 37.785C801.085 39.3422 801.535 41.2794 801.225 43.1702C800.916 45.0611 799.872 46.7508 798.323 47.8677C798.18 47.8677 785.043 57.4933 771.141 68.0332C787.101 64.9771 795.62 63.4851 795.715 63.4851C797.55 63.2573 799.401 63.7497 800.883 64.86C802.365 65.9702 803.365 67.6127 803.673 69.4454C803.982 71.2782 803.575 73.1599 802.538 74.6988C801.502 76.2377 799.915 77.3152 798.108 77.7069C797.988 77.7069 786.144 79.7764 764.274 84.0598C763.523 84.1924 762.763 84.2568 762.001 84.2523V84.2523Z" fill="#F54C9D"/>
<path d="M811.939 81.3405C814.642 74.6026 814.571 72.124 809.833 67.8406C805.095 63.5573 802.654 62.2579 795.715 63.4611L785.331 79.9929C787.567 83.4686 790.105 86.738 792.916 89.7629H800.094C807.56 89.8351 809.211 88.1025 811.939 81.3405Z" fill="#F54C9D"/>
<path d="M792.461 81.0278L799.544 82.4717" stroke="black" stroke-width="2" stroke-miterlimit="10" stroke-linecap="round"/>
<path d="M859.532 59.5144C850.511 46.2311 837.446 34.7045 824.19 43.175C810.934 51.6455 812.01 64.8325 817.155 76.3832C822.515 88.4151 833.905 94.2386 849.027 97.5353C852.76 96.1637 851.97 91.8562 848.405 90.5808C844.84 89.3055 831.655 87.1637 824.238 76.5756C816.82 65.9875 819.452 52.3915 826.128 47.9637C834.144 42.7178 844.433 45.3408 853.789 59.5866C863.145 73.8324 873.673 80.45 880.349 81.3644C885.924 82.1345 887.527 80.6184 887.934 78.958V77.6826C877.836 77.4901 868.505 72.7976 859.532 59.5144Z" fill="#8CD9FF"/>
<path d="M797.271 14.2504C797.905 14.2504 798.514 13.9969 798.963 13.5456C799.411 13.0943 799.664 12.4822 799.664 11.844C799.664 11.2058 799.411 10.5938 798.963 10.1425C798.514 9.6912 797.905 9.43763 797.271 9.43763C795.362 9.43482 793.492 8.89168 791.876 7.87034C790.259 6.849 788.961 5.39074 788.13 3.66232C787.987 3.37356 787.891 3.06074 787.747 2.77197C786.671 4.2158 785.666 5.73182 784.708 7.2719C786.038 9.41514 787.889 11.1812 790.088 12.4026C792.287 13.6239 794.759 14.26 797.271 14.2504V14.2504Z" fill="#F54C9D"/>
<path d="M832.756 102.035C835.852 101.316 839.044 101.105 842.207 101.41" stroke="#F54C9D" stroke-width="2" stroke-linecap="round" stroke-linejoin="round"/>
<path d="M863.121 95.6104C867.763 99.0756 875.372 110.049 868.361 111.95C861.35 113.851 864.724 104.682 863.121 95.6104Z" fill="#8CD9FF"/>
<path d="M901.645 101.867C908.273 102.276 922.438 107.931 916.935 114.236C911.431 120.54 908.847 109.471 901.645 101.867Z" fill="#8CD9FF"/>
<path d="M879.942 226.927H881.354C882.623 226.927 883.841 227.434 884.738 228.336C885.635 229.239 886.14 230.463 886.14 231.74V254.889H875.372V231.74C875.371 230.5 875.845 229.307 876.697 228.411C877.548 227.514 878.711 226.983 879.942 226.927Z" fill="#66BCFF"/>
<path d="M907.723 234.483H904.684C903.761 234.481 902.851 234.7 902.029 235.122C901.207 235.543 900.497 236.155 899.957 236.908C899.417 237.66 899.063 238.531 898.923 239.448C898.784 240.366 898.864 241.303 899.157 242.183L903.32 254.769H909.182L913.346 242.183C913.641 241.296 913.72 240.349 913.576 239.424C913.432 238.499 913.069 237.623 912.518 236.868C911.967 236.114 911.244 235.503 910.409 235.088C909.575 234.673 908.654 234.465 907.723 234.483V234.483Z" fill="#66BCFF"/>
<path d="M912.388 261.05C916.538 261.05 919.902 256.826 919.902 251.617C919.902 246.407 916.538 242.184 912.388 242.184C908.239 242.184 904.875 246.407 904.875 251.617C904.875 256.826 908.239 261.05 912.388 261.05Z" fill="#3442D9"/>
<path d="M824.453 245.528H816.604V254.769H824.453V245.528Z" fill="#3442D9"/>
<path d="M837.876 261.05C840.638 261.05 842.877 258.238 842.877 254.769C842.877 251.3 840.638 248.488 837.876 248.488C835.114 248.488 832.875 251.3 832.875 254.769C832.875 258.238 835.114 261.05 837.876 261.05Z" fill="#3442D9"/>
<path d="M1021.64 250.149C1062.58 250.149 1095.77 216.771 1095.77 175.599C1095.77 134.426 1062.58 101.049 1021.64 101.049C980.703 101.049 947.515 134.426 947.515 175.599C947.515 216.771 980.703 250.149 1021.64 250.149Z" fill="#FFC619"/>
<path d="M908.943 211.093L902.841 217.229C902.493 217.578 902.217 217.992 902.029 218.449C901.84 218.905 901.743 219.394 901.743 219.888C901.743 220.382 901.84 220.871 902.029 221.328C902.217 221.784 902.493 222.198 902.841 222.547V222.547C903.364 223.07 904.029 223.427 904.752 223.572C905.476 223.718 906.226 223.646 906.909 223.365C911.236 221.695 915.274 219.348 918.873 216.411L908.943 211.093Z" fill="#FFC619"/>
<path d="M1004.89 224.256C998.602 229.069 989.222 236.841 985.034 240.355C973.645 233.817 964.183 224.359 957.613 212.946C980.392 193.526 991.327 188.473 1003.91 185.946C1011.88 184.334 1018.84 183.179 1022.86 182.529C1023.84 182.383 1024.83 182.626 1025.62 183.207C1026.42 183.787 1026.96 184.658 1027.12 185.634C1027.25 186.491 1027.08 187.367 1026.65 188.115C1026.21 188.863 1025.54 189.44 1024.73 189.748L1001.19 198.772C1013.96 199.398 1021.48 201.347 1026.19 204.139C1030.9 206.93 1030.4 207.917 1025.11 218.168C1020.16 227.577 1016.86 226.422 1004.89 224.256Z" fill="#FFE75C"/>
<path d="M981.469 182.986C981.353 181.779 980.775 180.665 979.857 179.879C978.938 179.093 977.752 178.697 976.549 178.775C975.346 178.854 974.22 179.399 973.41 180.298C972.6 181.196 972.169 182.376 972.209 183.588C972.209 185.465 972.209 187.991 971.945 191.24C971.299 200.216 967.495 204.74 960.604 210.299L981.493 201.347C982.173 195.245 982.165 189.086 981.469 182.986V182.986Z" fill="#FFE75C"/>
<path d="M1021.66 163.617C1023.58 162.415 1023.67 159.073 1021.86 156.151C1020.05 153.229 1017.03 151.834 1015.11 153.035C1013.19 154.237 1013.11 157.579 1014.91 160.501C1016.72 163.423 1019.75 164.818 1021.66 163.617Z" fill="black"/>
<path d="M983.985 166.705C985.569 165.712 985.638 162.947 984.139 160.53C982.64 158.112 980.141 156.958 978.557 157.951C976.973 158.944 976.905 161.709 978.403 164.126C979.902 166.544 982.401 167.698 983.985 166.705Z" fill="black"/>
<path d="M970.893 152.931C976.526 153.743 982.227 153.961 987.905 153.58" stroke="black" stroke-width="4" stroke-miterlimit="10" stroke-linecap="round"/>
<path d="M1009.35 138.997C1014.25 133.631 1019.13 133.631 1029.04 142.463" stroke="black" stroke-width="4" stroke-miterlimit="10" stroke-linecap="round"/>
<path d="M926.793 254.769H769.179V275.921H926.793V254.769Z" fill="#FF78B9"/>
<path d="M810.79 228.322H803.109C802.864 228.319 802.622 228.375 802.403 228.487C802.184 228.599 801.996 228.762 801.855 228.964C801.713 229.166 801.623 229.399 801.591 229.643C801.56 229.888 801.588 230.137 801.674 230.368C803.923 236.769 805.67 244.373 799.472 250.798V254.769H814.403V250.798C808.23 244.373 809.953 236.769 812.226 230.368C812.312 230.137 812.34 229.888 812.308 229.643C812.277 229.399 812.186 229.166 812.045 228.964C811.903 228.762 811.715 228.599 811.497 228.487C811.278 228.375 811.035 228.319 810.79 228.322Z" fill="#66BCFF"/>
<path d="M806.938 229.02C810.294 229.02 813.015 226.284 813.015 222.908C813.015 219.532 810.294 216.796 806.938 216.796C803.581 216.796 800.86 219.532 800.86 222.908C800.86 226.284 803.581 229.02 806.938 229.02Z" fill="#66BCFF"/>
<path d="M899.755 224.906L892.145 221.176C891.943 221.074 891.718 221.022 891.491 221.026C891.264 221.03 891.042 221.088 890.842 221.197C890.643 221.306 890.472 221.461 890.345 221.65C890.218 221.839 890.138 222.056 890.112 222.283C889.346 229.502 887.575 237.419 878.794 240.619L876.975 244.325L890.949 251.183L892.744 247.454C889.848 238.526 895.136 232.173 900.137 227.192C900.298 227.032 900.417 226.835 900.486 226.619C900.555 226.403 900.572 226.173 900.534 225.949C900.497 225.725 900.406 225.514 900.271 225.332C900.135 225.15 899.958 225.004 899.755 224.906V224.906Z" fill="#3442D9"/>
<path d="M898.175 224.617C901.532 224.617 904.253 221.88 904.253 218.505C904.253 215.129 901.532 212.393 898.175 212.393C894.819 212.393 892.098 215.129 892.098 218.505C892.098 221.88 894.819 224.617 898.175 224.617Z" fill="#3442D9"/>
<path d="M825.266 237.563H822.682C821.891 237.54 821.105 237.71 820.393 238.059C819.681 238.407 819.063 238.924 818.593 239.565C818.123 240.206 817.814 240.951 817.693 241.738C817.571 242.526 817.641 243.33 817.897 244.084L821.414 254.769H826.2L829.741 244.084C829.983 243.355 830.053 242.58 829.945 241.819C829.838 241.058 829.556 240.333 829.122 239.701C828.688 239.068 828.114 238.546 827.445 238.175C826.776 237.804 826.03 237.595 825.266 237.563V237.563Z" fill="#3F99F2"/>
<path d="M848.237 242.472H846.371C845.814 242.469 845.264 242.6 844.768 242.854C844.272 243.108 843.843 243.478 843.518 243.932C843.192 244.387 842.979 244.913 842.897 245.467C842.815 246.021 842.866 246.586 843.045 247.117L845.557 254.769H849.051L851.563 247.117C851.743 246.586 851.793 246.021 851.711 245.467C851.629 244.913 851.416 244.387 851.09 243.932C850.765 243.478 850.336 243.108 849.84 242.854C849.344 242.6 848.794 242.469 848.237 242.472V242.472Z" fill="#66BCFF"/>
<path d="M823.974 228.13C824.609 228.13 825.218 228.384 825.666 228.835C826.115 229.286 826.367 229.899 826.367 230.537V239.055H821.582V230.537C821.582 229.899 821.834 229.286 822.282 228.835C822.731 228.384 823.34 228.13 823.974 228.13Z" fill="#3F99F2"/>
<path d="M1025.04 97.0542C1031.41 90.6533 1038.66 81.2443 1049.14 82.8325C1059.62 84.4207 1080.6 89.8351 1091.04 95.3216C1101.47 100.808 1096.8 106.92 1091.04 114.14C1097.66 123.982 1103 126.725 1093.43 135.797L1065.43 130.383L1025.04 97.0542Z" fill="#29CC7A"/>
<path d="M1090.27 147.372C1096.68 141.548 1097.64 140.73 1094.82 137.361C1092.42 134.546 1084.89 128.337 1070.46 122.321C1064.51 119.897 1059.48 115.633 1056.1 110.145C1047.25 95.4899 1036.05 88.4873 1027.53 86.9954C1026.32 86.7502 1025.06 86.9534 1023.98 87.5678C1022.9 88.1822 1022.08 89.1666 1021.67 90.3402C1021.5 90.7799 1021.37 91.2301 1021.26 91.6878C1021.06 92.5171 1020.67 93.287 1020.11 93.935C1019.56 94.5829 1018.86 95.0909 1018.08 95.4177C1016.69 95.7819 1015.45 96.5703 1014.53 97.6739C1013.61 98.7774 1013.05 100.142 1012.93 101.578C1025.23 101.578 1038.75 107.089 1054.57 130.599C1067.97 150.356 1090.27 147.372 1090.27 147.372Z" fill="#29CC7A"/>
<path d="M1096.44 132.212C1089.64 126.123 1081.79 121.329 1073.28 118.062C1067.84 115.812 1063.25 111.897 1060.14 106.872C1054.97 97.6659 1047.19 90.2122 1037.8 85.4556C1036.24 86.4249 1034.76 87.5279 1033.39 88.7523C1042.29 92.2897 1049.9 99.1719 1056.08 109.351C1059.69 115.267 1065.08 119.876 1071.46 122.514C1079.42 125.58 1086.77 130.045 1093.16 135.701V135.701C1094.35 134.631 1095.45 133.464 1096.44 132.212V132.212Z" fill="black"/>
<path d="M1100.34 101.073C1104.57 101.073 1108 97.6252 1108 93.3723C1108 89.1195 1104.57 85.6719 1100.34 85.6719C1096.11 85.6719 1092.69 89.1195 1092.69 93.3723C1092.69 97.6252 1096.11 101.073 1100.34 101.073Z" fill="#29CC7A"/>
<path d="M1088.91 206.978C1085.24 214.907 1080.21 222.125 1074.05 228.298C1054.11 248.319 1033.94 262.493 1012.41 262.493C990.873 262.493 965.533 240.667 937.8 213.331C930 221.175 928.492 222.956 924.951 222.956C921.41 222.956 916.026 218.264 908.943 211.141C902.602 204.764 907.866 197.304 912.628 188.785L903.057 196.005C902.031 196.796 901.21 197.823 900.66 198.999C900.11 200.176 899.849 201.468 899.898 202.766C900.027 205.597 899.882 208.434 899.468 211.237C899.315 212.194 898.829 213.064 898.097 213.695C897.365 214.325 896.435 214.673 895.472 214.678C894.406 214.678 893.383 214.252 892.629 213.494C891.875 212.736 891.452 211.708 891.452 210.635V206.617C891.452 197.858 891.308 194.103 895.472 189.94C907.053 178.294 910.259 173.721 922.175 180.315C928.588 183.9 936.532 189.218 951.487 199.566C964.337 208.518 982.33 221.223 1008.91 239.729C1053.9 208.229 1056.89 206.978 1088.91 206.978Z" fill="#FFC619"/>
<path d="M1088.91 206.978C1085.24 214.907 1080.21 222.125 1074.05 228.298C1062.32 240.138 1050.36 249.908 1038.39 255.875C1030.4 260.068 1021.54 262.326 1012.53 262.469C990.992 262.469 965.653 240.643 937.92 213.307C930.119 221.151 928.612 222.932 925.071 222.932C921.529 222.932 916.145 218.24 909.063 211.117C902.722 204.74 907.986 197.28 912.748 188.761L903.176 195.98C902.151 196.772 901.329 197.799 900.78 198.975C900.23 200.152 899.969 201.444 900.018 202.742C900.146 205.573 900.002 208.41 899.587 211.213C899.434 212.17 898.949 213.04 898.217 213.671C897.485 214.301 896.555 214.649 895.591 214.654C894.525 214.654 893.503 214.228 892.749 213.47C891.995 212.712 891.571 211.684 891.571 210.611V206.593C891.571 197.833 891.428 194.08 895.591 189.916C907.172 178.27 910.379 173.697 922.295 180.291C928.708 183.876 936.652 189.195 951.607 199.542C964.456 208.494 982.45 221.2 1009.03 239.705L1018.13 233.328C1054.47 208.061 1059.19 206.978 1088.91 206.978Z" fill="#FFC619"/>
<path d="M925.477 190.398C925.19 190.178 924.857 190.026 924.502 189.954C924.148 189.882 923.783 189.891 923.433 189.981C923.083 190.072 922.758 190.24 922.482 190.475C922.206 190.71 921.987 191.004 921.84 191.336C921.051 193.165 920.213 195.042 919.447 196.895C918.682 198.748 917.916 200.288 917.055 201.925C915.823 204.408 914.72 206.954 913.753 209.553C913.249 210.982 913.188 212.53 913.577 213.995C913.965 215.46 914.786 216.772 915.93 217.758C916.871 218.577 917.756 219.299 918.586 219.924C915.643 216.676 917.629 211.911 921.362 203.994C922.151 202.309 922.989 200.601 923.754 198.82C924.52 197.039 925.358 195.114 926.147 193.31C926.371 192.812 926.419 192.252 926.284 191.723C926.149 191.194 925.839 190.726 925.405 190.398H925.477Z" fill="black"/>
<path d="M928.779 213.884L935.36 206.882" stroke="black" stroke-width="2" stroke-miterlimit="10" stroke-linecap="round"/>
<path d="M978.43 173.337C991.16 173.818 1011.93 175.599 1011.93 175.599" stroke="black" stroke-width="2" stroke-miterlimit="10" stroke-linecap="round"/>
<path d="M1088.91 206.978C1085.24 214.907 1080.21 222.125 1074.05 228.298C1062.32 240.138 1050.36 249.908 1038.39 255.876L1018.1 233.496C1051.58 206.689 1072.08 193.093 1088.91 206.978Z" fill="#459FF7"/>
<path d="M1047.3 250.75C1048.63 249.884 1049.95 248.969 1051.29 248.031L1029.28 224.665L1025.47 227.625L1047.3 250.75Z" fill="black"/>
<path d="M1091.08 109.207H1079.24" stroke="#19B375" stroke-width="2" stroke-linecap="round" stroke-linejoin="round"/>
<path d="M1028.18 216.94L1002.96 211.43" stroke="#FFC619" stroke-width="2" stroke-miterlimit="10" stroke-linecap="round"/>
<path d="M865.274 247.213C866.144 247.213 866.977 247.56 867.592 248.178C868.207 248.797 868.552 249.635 868.552 250.51V254.769H862.02V250.51C862.02 249.635 862.365 248.797 862.98 248.178C863.595 247.56 864.429 247.213 865.298 247.213H865.274Z" fill="#3F99F2"/>
<path d="M926.769 262.518H769.179" stroke="black" stroke-width="2" stroke-miterlimit="10"/>
<path d="M642.241 2.05049L556.483 -40.1094C569.045 30.4459 589.193 48.205 606.277 49.8895C623.362 51.5739 637.551 30.8309 642.241 2.05049Z" fill="#D11583"/>
<path d="M642.241 2.05056L706.847 -38.3286C691.437 31.8657 674.304 43.4886 661.383 44.7399C648.462 45.9912 641.308 30.8791 642.241 2.05056Z" fill="#D11583"/>
<path d="M635.78 68.5392C667.222 58.6971 670.332 60.935 689.523 82.9775C708.713 105.02 719.863 119.94 740.992 137.675L723.548 153.918C679.329 121.119 670.189 108.052 635.78 68.5392Z" fill="#FFE75C"/>
<path d="M781.813 219.588C757.885 192.011 726.324 165.757 684.713 130.696C684.713 130.696 685.527 120.685 686.556 109.857C688.566 88.3917 679.64 82.472 646.931 66.7583L572.347 78.6459C574.596 114.116 581.368 122.466 595.581 145.808C587.805 176.899 581.823 240.957 584.527 321.234C584.526 321.878 584.655 322.516 584.904 323.109C585.153 323.703 585.519 324.24 585.979 324.689C586.438 325.138 586.983 325.489 587.58 325.722C588.178 325.956 588.815 326.066 589.456 326.046C651.908 324.939 740.609 301.573 782.555 226.831C783.198 225.697 783.473 224.389 783.34 223.09C783.207 221.791 782.673 220.566 781.813 219.588V219.588Z" fill="#0C1AAD"/>
<path d="M646.931 66.7583L570.768 78.6459C573.017 114.116 581.009 122.996 595.581 145.808C624.51 136.183 659.35 125.907 684.713 130.696C684.713 130.696 686.556 120.685 687.561 109.857C689.595 88.3917 681.675 82.1832 646.931 66.7583Z" fill="white"/>
<path d="M778.942 222.909C745.251 222.909 731.78 228.708 705.531 255.9C679.282 283.092 648.438 313.654 593.308 320.536C640.303 320.536 695.959 300.033 730.727 276.042C765.494 252.05 778.942 222.909 778.942 222.909Z" fill="black"/>
<path d="M698.472 13.7697C694.356 -18.2593 628.722 -56.7856 612.642 -55.029C597.376 -53.3445 545.883 -14.3129 544.806 18.5102C543.729 51.3333 576.439 75.1566 621.83 75.1566C667.222 75.1566 702.899 48.1329 698.472 13.7697Z" fill="#FFE75C"/>
<path d="M608.67 68.3947C609.084 68.7071 609.588 68.876 610.106 68.876C610.608 68.876 611.098 68.7171 611.505 68.4218C611.912 68.1264 612.217 67.7097 612.376 67.2305C612.535 66.7514 612.54 66.2341 612.39 65.752C612.24 65.2699 611.943 64.8475 611.542 64.5444C582.828 42.887 567.179 32.2989 553.492 46.8094C554.425 48.0848 555.406 49.3361 556.483 50.5633L556.722 50.3709C566.677 39.5181 577.301 44.7399 608.67 68.3947Z" fill="#FFC619"/>
<path d="M642.241 2.05055C637.455 30.9272 623.386 51.4777 606.349 49.7932C591.322 48.3254 573.903 34.3924 561.388 -17.0562C565.535 -22.0764 570.029 -26.7966 574.836 -31.1816L642.241 2.05055Z" fill="#FF8C19"/>
<path d="M695.218 3.4222C683.254 36.9432 671.05 43.8014 661.264 44.7399C648.295 45.9671 641.308 30.8791 642.241 2.05054L676.937 -19.6069C684.358 -13.0984 690.55 -5.29715 695.218 3.4222V3.4222Z" fill="#FF8C19"/>
<path d="M668.849 8.13876L674.688 1.40088" stroke="black" stroke-width="2" stroke-linecap="round" stroke-linejoin="round"/>
<path d="M669.447 12.6147L678.683 7.34473" stroke="black" stroke-width="2" stroke-linecap="round" stroke-linejoin="round"/>
<path d="M605.512 9.36599L600.343 -0.379883" stroke="black" stroke-width="2" stroke-linecap="round" stroke-linejoin="round"/>
<path d="M605.081 14.0343L590.987 4.48096" stroke="black" stroke-width="2" stroke-linecap="round" stroke-linejoin="round"/>
<path d="M623.075 24.8453C628.981 18.0158 629.168 8.45679 623.494 3.49463C617.82 -1.46753 608.433 0.0462442 602.528 6.87575C596.622 13.7053 596.435 23.2643 602.109 28.2265C607.783 33.1887 617.17 31.6748 623.075 24.8453Z" fill="white"/>
<path d="M672.414 15.0209C675.31 7.12792 672.582 -0.452228 666.385 -2.30515C660.187 -4.15806 652.219 0.390043 648.654 8.25893C644.921 16.5369 647.433 25.1037 654.397 27.0047C661.36 28.9057 669.352 23.2988 672.414 15.0209Z" fill="white"/>
<path d="M618.07 25.2366C620.045 23.5099 620.57 20.8662 619.243 19.3319C617.916 17.7975 615.24 17.9534 613.265 19.6802C611.291 21.4069 610.766 24.0505 612.093 25.5849C613.419 27.1193 616.096 26.9634 618.07 25.2366Z" fill="black"/>
<path d="M661.847 22.7796C663.552 21.2884 664.006 19.0064 662.862 17.6826C661.717 16.3588 659.407 16.4946 657.701 17.9858C655.996 19.4771 655.542 21.7592 656.686 23.083C657.831 24.4068 660.141 24.2709 661.847 22.7796Z" fill="black"/>
<path d="M630.014 56.4593C634.325 54.0599 638.221 50.9715 641.547 47.3149" stroke="black" stroke-width="2" stroke-linecap="round" stroke-linejoin="round"/>
<path d="M657.101 118.255C676.243 106.415 704.358 111.613 712.303 131.514C727.593 105.862 747.094 100.231 760.494 111.998L715.557 147.902L657.101 118.255Z" fill="#FF78B9"/>
<path d="M715.557 147.902L714.528 138.06" stroke="black" stroke-width="2" stroke-linecap="round" stroke-linejoin="round"/>
<path d="M695.433 210.155H698.328C700.614 210.164 702.819 209.304 704.502 207.748L737.211 177.284C737.59 176.913 737.906 176.482 738.145 176.008L768.773 114.742C769.155 113.97 769.261 113.089 769.074 112.248C768.886 111.406 768.417 110.655 767.744 110.121L767.576 110.001C766.925 109.474 766.115 109.186 765.279 109.186C764.443 109.186 763.633 109.474 762.982 110.001L715.557 147.902L653.535 116.474C652.413 115.893 651.116 115.756 649.898 116.089C649.002 116.337 648.189 116.823 647.545 117.497C646.901 118.17 646.449 119.005 646.237 119.915L632.813 177.669C632.682 178.231 632.743 178.822 632.986 179.346C633.229 179.87 633.64 180.296 634.153 180.556L691.389 209.433C692.661 209.992 694.047 210.24 695.433 210.155V210.155Z" fill="#3F99F2"/>
<path d="M647.338 117.774C646.805 118.389 646.428 119.123 646.237 119.916L632.813 177.669C632.682 178.232 632.743 178.822 632.986 179.346C633.229 179.87 633.64 180.296 634.153 180.557L690.911 209.072C691.213 209.234 691.546 209.329 691.888 209.351C692.23 209.372 692.572 209.319 692.892 209.196C693.212 209.073 693.502 208.882 693.742 208.636C693.982 208.391 694.167 208.096 694.285 207.773L714.528 156.011C714.817 155.279 714.826 154.465 714.551 153.727C714.277 152.988 713.74 152.379 713.044 152.017L647.338 117.774Z" fill="#66BCFF"/>
<path d="M754.177 143.618C750.635 150.717 747.548 153.003 740.322 157.623C734.101 161.594 733.718 163.687 729.794 173.554C725.87 183.42 727.186 187.222 733.503 183.54C739.789 179.636 745.513 174.883 750.516 169.415C754.535 164.891 756.139 159.669 759.345 150.164C762.551 140.658 761.953 137.289 758.747 134.835L754.177 143.618Z" fill="#FFE75C"/>
<path d="M635.78 258.788L677.846 241.173C701.271 295.221 718.141 366.474 726.779 438.762C727.191 442.292 728.533 445.647 730.666 448.481C732.799 451.315 735.645 453.526 738.91 454.885C742.787 456.473 746.567 457.7 749.199 458.494C749.388 458.538 749.555 458.649 749.67 458.807C749.785 458.964 749.84 459.157 749.826 459.352C749.811 459.546 749.728 459.729 749.591 459.868C749.455 460.006 749.273 460.091 749.08 460.106C741.138 461.115 733.105 461.164 725.152 460.251C723.553 460.059 722.029 459.458 720.726 458.506C719.424 457.554 718.385 456.282 717.71 454.812C707.995 433.997 705.937 425.936 684.211 425.43C680.478 374.367 668.777 340.966 635.78 258.788Z" fill="#FFE75C"/>
<path d="M653.272 303.114C667.485 300.274 687.848 293.488 692.777 280.518L694.069 277.654L689.475 265.622L647.84 297.218L653.272 303.114Z" fill="black"/>
<path d="M786.384 315.41C823.64 274.983 795.285 249.932 763.461 216.171L732.546 214.583L720.988 239.031C755.038 271.181 765.303 279.074 758.627 287.448C753.626 293.728 744.127 304.293 720.893 328.14C739.652 345.201 731.876 348.979 724.027 366.474C720.534 374.27 724.027 377.519 727.832 391.789C727.964 387.188 729.364 382.714 731.876 378.866C743.17 362.479 749.152 355.861 786.384 315.41Z" fill="#FFE75C"/>
<path d="M772.793 225.941C769.826 222.788 749.87 226.061 736.159 253.301L713.499 237.564L755.373 215.738H769.227L772.793 225.941Z" fill="black"/>
<path d="M688.805 164.963C687.25 161.835 682.56 157.527 662.843 148.359C667.629 142.006 670.691 135.196 669.519 132.718C668.538 130.672 665.666 129.854 660.115 135.124C652.865 142.491 644.193 148.289 634.632 152.161C632.834 152.813 630.985 153.312 629.104 153.653C622.189 154.977 603.31 158.466 578.856 162.629C579.071 156.011 579.071 108.148 579.071 108.148C590.751 95.9206 603.572 84.8486 617.356 75.0846C581.272 47.6037 567.49 38.2669 554.975 51.9111C543.011 64.9056 542.485 87.3091 545.165 136.568C546.983 169.872 548.73 200.337 560.766 202.888C571.246 205.126 625.946 177.597 632.55 174.3C638.149 177.404 645.256 177.91 654.516 176.225C659.852 180.508 663.68 183.709 669.28 188.257C669.872 188.77 670.636 189.038 671.417 189.007C672.199 188.976 672.939 188.647 673.489 188.088C674.039 187.529 674.357 186.781 674.38 185.995C674.402 185.209 674.127 184.443 673.611 183.853C671.218 180.942 667.389 177.043 661.647 171.268L673.084 176.923C677.152 178.92 679.64 180.051 684.641 174.517C689.642 168.982 690.36 168.115 688.805 164.963Z" fill="#FFE75C"/>
<path d="M593.332 320.536C648.367 313.75 679.329 283.092 705.555 255.9C731.78 228.708 745.275 222.909 778.966 222.909L749.821 191.457L641.595 242.472L593.332 320.536Z" fill="#0C1AAD"/>
<path d="M581.488 79.897C580.853 79.897 580.245 80.1505 579.796 80.6018C579.347 81.0531 579.095 81.6651 579.095 82.3034V108.004C579.43 107.667 581.105 105.886 583.881 103.191V82.3515C583.887 82.0315 583.83 81.7133 583.713 81.4158C583.595 81.1183 583.42 80.8473 583.197 80.6187C582.974 80.3901 582.708 80.2086 582.415 80.0847C582.121 79.9607 581.806 79.8969 581.488 79.897V79.897Z" fill="black"/>
<path d="M570.553 163.88H570.816L578.784 162.629C578.784 161.714 578.784 160.006 578.784 157.816H577.97L570.002 159.091C569.368 159.155 568.784 159.47 568.38 159.966C567.977 160.463 567.785 161.1 567.849 161.738C567.912 162.377 568.225 162.963 568.719 163.369C569.212 163.776 569.846 163.968 570.481 163.904L570.553 163.88Z" fill="black"/>
<path d="M664.47 159.693L684.283 171.508" stroke="#FFC619" stroke-width="2" stroke-miterlimit="10" stroke-linecap="round"/>
<path d="M755.038 156.733C755.238 156.472 755.33 156.144 755.294 155.816C755.258 155.489 755.098 155.188 754.847 154.977C754.729 154.858 754.589 154.764 754.435 154.7C754.281 154.636 754.116 154.603 753.949 154.603C753.783 154.603 753.618 154.636 753.464 154.7C753.31 154.764 753.17 154.858 753.052 154.977C751.186 157.07 749.319 159.14 747.405 161.137C745.491 163.134 743.505 165.083 741.423 166.84C739.456 168.672 737.298 170.286 734.986 171.653C733.991 172.229 732.908 172.636 731.78 172.856C731.513 172.923 731.235 172.934 730.963 172.889C730.691 172.843 730.432 172.742 730.201 172.591C730.057 172.904 729.938 173.217 729.794 173.578C729.292 174.829 728.885 175.984 728.55 177.067C728.889 177.208 729.242 177.312 729.603 177.38C730.588 177.6 731.609 177.6 732.594 177.38C734.206 176.998 735.737 176.33 737.116 175.407C739.575 173.78 741.853 171.892 743.912 169.776C745.993 167.779 747.86 165.613 749.726 163.471C751.592 161.329 753.315 158.971 755.038 156.733Z" fill="#FFC619"/>
<path d="M634.417 28.0638C641.188 13.2645 640.901 10.6898 644.131 27.366H645.615V2.67647L642.241 2.05078L634.871 3.85557L632.67 27.751L634.417 28.0638Z" fill="#FF8C19"/>
<path d="M282.65 168.116H324.596" stroke="#4553EB" stroke-width="3" stroke-miterlimit="10" stroke-linecap="round"/>
<path d="M201.415 231.668C196.728 219.178 191.237 207.008 184.976 195.236C201.796 170.959 215.06 144.377 224.362 116.306C224.362 116.306 239.891 137.579 253.626 155.891C267.36 174.204 280.162 185.995 299.974 172.88C321.366 158.683 316.054 141.333 298.539 130.744C290.584 125.922 284.135 118.952 279.923 110.627C246.423 44.0183 234.746 47.4354 206.511 52.3685L178.683 57.0128C120.634 24.1897 89.2639 6.984 71.4136 35.7403L59.9999 54.1733C51.6581 67.3022 41.1364 78.893 28.8935 88.4402C9.75102 103.769 6.56859 125.234 20.6383 138.469C28.8217 146.169 40.9293 151.848 51.4337 155.699C41.8624 193.671 46.8634 208.351 48.5144 224.353C32.2673 258.379 41.8864 265.719 63.4455 265.719C85.0047 265.719 159.804 257.032 201.415 231.668Z" fill="#459FF7"/>
<path d="M134.703 50.0581C153.846 77.6353 144.514 93.7581 155.64 109.568C166.767 125.378 183.923 128.819 192.489 103.456C201.056 78.0925 196.796 65.6274 189.809 52.0073" stroke="white" stroke-miterlimit="10" stroke-linecap="round"/>
<path d="M127.405 122.226C118.863 117.413 102.52 116.33 89.838 134.739C77.6107 152.522 88.0912 173.241 88.0912 173.241" stroke="#8CD9FF" stroke-width="2" stroke-linecap="round" stroke-linejoin="round"/>
<path d="M134.057 138.565C135.278 128.771 141.236 119.194 71.4136 105.911" stroke="black" stroke-width="2" stroke-linecap="round" stroke-linejoin="round"/>
<path d="M208.449 5.22724H214.431C214.898 5.22068 215.348 5.05508 215.708 4.75761C216.069 4.46014 216.318 4.04844 216.415 3.58989C216.512 3.13134 216.452 2.65317 216.244 2.23365C216.036 1.81414 215.692 1.47819 215.269 1.28081C204.048 -4.38035 193.875 -11.9334 185.191 -21.0505L151.907 -54.5474C148.477 -58.0018 146.549 -62.6838 146.548 -67.566V-69.6595C146.548 -86.2636 144.155 -91.5336 138.173 -97.8864C134.197 -102.216 129.116 -105.364 123.483 -106.989C117.85 -108.614 111.882 -108.654 106.229 -107.103C93.547 -103.854 89.4792 -99.21 88.3307 -96.6111C87.1821 -94.0122 87.7803 -91.1726 91.226 -93.1218C87.206 -86.4561 86.7275 -78.4909 86.7275 -69.6595C86.7275 -58.181 80.554 -53.6811 72.3707 -48.8684C72.082 -48.697 71.8493 -48.4447 71.701 -48.1424C71.5528 -47.84 71.4955 -47.5007 71.5361 -47.1661C71.5768 -46.8315 71.7136 -46.5161 71.9298 -46.2585C72.1461 -46.0009 72.4323 -45.8123 72.7535 -45.7159C75.1463 -45.0662 79.1423 -44.9219 85.3636 -47.3523C77.8502 -34.7429 75.0267 -31.2777 77.7066 -31.037C80.3865 -30.7964 85.22 -32.3846 90.3645 -38.2562C93.2496 -31.1036 97.4645 -24.5699 102.783 -19.0051C120.61 0.438515 129.104 13.2646 133.315 24.3099C116.039 41.0102 116.566 38.7482 134.105 38.7482C134.105 38.7482 125.515 47.1465 119.748 53.5234C114.652 59.0341 113.67 67.9618 131.425 67.9618C131.018 73.8815 136.211 78.7664 144.466 74.435C144.466 74.435 140.518 80.6915 145.064 85.6727C150.52 91.6406 169.112 87.3813 176.625 78.4536C179.942 79.9234 183.665 80.1819 187.152 79.1846C190.638 78.1872 193.669 75.9966 195.72 72.9911C204.621 76.9616 212.756 72.3655 216.968 62.4993C221.179 52.6331 224.96 23.9489 208.449 5.22724Z" fill="#FFD736"/>
<path d="M303.372 356.054C304.862 355.006 305.984 353.51 306.578 351.781C307.171 350.052 307.205 348.178 306.674 346.429C302.439 330.402 290.259 285.475 279.659 256.045C266.595 219.708 235.536 227.553 149.156 234.243L152.769 275.946H231.875C234.202 283.428 237.348 290.627 241.255 297.411C246.577 306.728 250.245 316.907 252.094 327.49C253.822 337.297 256.05 347.007 258.77 356.583C259.378 358.676 260.611 360.53 262.302 361.894C263.992 363.259 266.059 364.068 268.222 364.212C286.909 365.343 296.026 361.18 303.372 356.054Z" fill="#0C1AAD"/>
<path d="M181.243 261.748C205.745 259.655 232.234 256.743 239.532 255.949C246.83 255.155 248.385 258.812 253.889 278.28C259.392 297.748 269.657 332.977 271.859 340.702C274.06 348.426 275.256 358.317 282.531 355.14" stroke="#4553EB" stroke-width="2" stroke-miterlimit="10" stroke-linecap="round"/>
<path d="M257.143 232.077C229.626 232.077 215.699 240.933 208.09 267.908H176.721V232.077H257.143Z" fill="black"/>
<path d="M257.143 176.778H137.623V232.101H257.143V176.778Z" fill="#EB459F"/>
<path d="M245.61 176.778H149.156V232.101H245.61V176.778Z" fill="#EB459F"/>
<path d="M245.61 176.778H149.156V232.101H245.61V176.778Z" fill="white"/>
<path d="M240.25 176.778H154.492V232.101H240.25V176.778Z" fill="#EB459F"/>
<path d="M217.064 176.778H177.726V232.101H217.064V176.778Z" fill="white"/>
<path d="M210.22 176.778H184.545V232.101H210.22V176.778Z" fill="#EB459F"/>
<path d="M257.143 189.604H137.623" stroke="black" stroke-width="2" stroke-miterlimit="10" stroke-linecap="round"/>
<path d="M58.2773 254.457C73.8305 250.799 100.941 229.406 100.941 229.406C192.083 209.385 190.025 205.078 204.741 256.093C215.652 293.97 227.903 336.587 232.497 352.637C233.076 354.616 233.007 356.73 232.3 358.667C231.593 360.603 230.287 362.26 228.573 363.394C210.89 375.426 196.51 377.423 187.56 377.423C177.63 377.423 175.596 378.602 170.021 352.421C168.466 345.202 167.246 338.801 166.265 333.434C163.93 320.36 159.773 307.682 153.918 295.774C150.717 289.326 147.927 282.679 145.567 275.874H61.5315C59.1074 269.006 58.0031 261.738 58.2773 254.457V254.457Z" fill="#0C1AAD"/>
<path d="M182.87 351.338C184.354 357.306 186.173 364.766 191.03 367.437C192.211 368.086 193.536 368.425 194.882 368.423C196.001 368.412 197.11 368.208 198.16 367.822C198.468 367.728 198.754 367.572 199.001 367.365C199.248 367.158 199.45 366.902 199.597 366.614C199.743 366.326 199.83 366.011 199.853 365.689C199.875 365.366 199.833 365.042 199.729 364.736C199.624 364.431 199.459 364.149 199.244 363.909C199.029 363.668 198.768 363.474 198.476 363.337C198.184 363.201 197.868 363.125 197.547 363.114C197.226 363.103 196.905 363.157 196.605 363.274C196.094 363.523 195.534 363.652 194.966 363.652C194.398 363.652 193.838 363.523 193.327 363.274C190.312 361.637 188.709 355.044 187.465 350.014C186.819 347.391 184.737 339.739 182.105 330.066C176.864 310.814 169.71 284.537 165.905 268.799C160.235 245 159.588 242.521 148.869 243.845C141.69 244.759 125.3 249.764 106.444 255.564C102.353 256.839 98.1651 258.139 93.882 259.414L89.551 260.762C81.4634 263.168 76.1274 264.925 74.1892 263.649C72.2511 262.374 71.4375 256.839 70.5761 249.476C69.0208 250.27 67.5133 251.016 66.0298 251.665C67.0826 260.352 68.1355 265.406 71.5811 267.668C75.0267 269.93 80.602 268.582 90.9628 265.262L95.2699 263.938L107.856 260.088C126.496 254.337 142.576 249.379 149.443 248.537C153.989 247.96 154.492 248.176 155.425 249.644C157.028 252.267 158.536 258.476 161.287 269.882C165.068 285.547 172.246 311.897 177.487 331.148C180.119 340.918 182.177 348.547 182.87 351.338Z" fill="#4553EB"/>
<path d="M279.276 138.685C297.294 140.562 300.022 140.875 306.148 148.07C312.273 155.265 320.768 165.95 317.346 171.797C314.308 176.675 310.612 181.104 306.363 184.96C303.516 187.679 297.94 187.848 286.742 187.848C275.544 187.848 271.811 186.957 264.345 175.816C261.354 171.364 259.153 168.116 257.598 165.829H243.743C234.89 165.829 231.277 163.423 229.099 158.37C227.592 154.952 230.224 153.557 235.297 153.557C246.086 153.342 256.544 149.769 265.231 143.33C269.49 140.225 273.103 137.963 279.276 138.685Z" fill="#FFD736"/>
<path d="M193.734 165.637L273.318 164.506C274.27 164.506 275.183 164.886 275.856 165.563C276.529 166.24 276.907 167.158 276.907 168.115C276.907 169.073 276.529 169.991 275.856 170.668C275.183 171.345 274.27 171.725 273.318 171.725L193.734 170.594C193.099 170.594 192.49 170.34 192.042 169.889C191.593 169.438 191.341 168.826 191.341 168.188C191.321 167.86 191.369 167.531 191.48 167.222C191.591 166.913 191.765 166.631 191.989 166.392C192.213 166.153 192.483 165.963 192.783 165.833C193.084 165.703 193.407 165.636 193.734 165.637Z" fill="#4553EB"/>
<path d="M86.6558 109.087C91.2499 102.566 95.9638 95.4908 99.1462 90.6299C99.365 90.2735 99.6987 90.0035 100.092 89.8648C100.485 89.7262 100.913 89.7274 101.305 89.8683C101.698 90.0091 102.03 90.2811 102.246 90.6387C102.463 90.9963 102.551 91.4179 102.496 91.8331C101.791 98.6239 100.68 105.366 99.1701 112.023L86.6558 109.087Z" fill="black"/>
<path d="M227.688 120.806C227.954 120.551 228.159 120.239 228.286 119.892C230.511 113.322 233.909 102.517 235.728 95.8277C235.811 95.5228 235.834 95.2043 235.795 94.8905C235.756 94.5766 235.656 94.2736 235.5 93.9987C235.345 93.7237 235.137 93.4824 234.888 93.2884C234.64 93.0944 234.356 92.9515 234.053 92.8679C233.748 92.7844 233.43 92.7623 233.116 92.8031C232.803 92.8439 232.501 92.9467 232.227 93.1055C231.954 93.2644 231.714 93.4761 231.522 93.7285C231.33 93.981 231.19 94.2692 231.11 94.5765C229.482 100.568 226.587 109.833 224.41 116.378L227.688 120.806Z" fill="black"/>
<path d="M117.02 133.392C121.686 131.423 126.898 131.201 131.712 132.766C141.77 136.16 152.437 137.333 162.986 136.207C169.728 135.526 176.418 134.401 183.014 132.838C184.049 132.59 185.133 132.649 186.135 133.008C187.137 133.367 188.015 134.01 188.661 134.859C189.147 135.49 189.492 136.219 189.672 136.996C189.852 137.773 189.863 138.58 189.704 139.361C189.545 140.143 189.22 140.881 188.75 141.524C188.281 142.168 187.679 142.702 186.986 143.089L172.629 151.175C180.741 155.843 181.124 156.709 181.124 164.915C181.124 173.121 180.741 173.747 169.375 182.097C162.196 187.367 149.897 196.222 141.858 202.022C139.584 203.671 136.84 204.536 134.037 204.489C131.234 204.441 128.521 203.483 126.304 201.757L125.06 200.77C123.795 199.798 122.77 198.545 122.065 197.109C121.359 195.674 120.992 194.094 120.992 192.492V188.69C116.222 187.969 111.632 186.336 107.473 183.878C105.14 182.355 103.131 180.383 101.562 178.073C99.9926 175.764 98.895 173.165 98.3326 170.426C94.8869 154.086 98.7154 141.068 117.02 133.392Z" fill="#FFD736"/>
<path d="M156.167 164.674L240.035 98.3304C240.419 98.0277 240.907 97.8907 241.391 97.9493C241.876 98.008 242.317 98.2576 242.619 98.6432C242.905 99.0227 243.037 99.4972 242.988 99.9708C242.939 100.444 242.713 100.882 242.356 101.194L160.689 170.281C159.96 170.897 159.016 171.196 158.067 171.113C157.118 171.029 156.241 170.57 155.629 169.836C155.016 169.102 154.719 168.154 154.802 167.199C154.885 166.245 155.341 165.363 156.071 164.747L156.167 164.674Z" fill="#4553EB"/>
<path d="M116.709 201.613L132.167 188.955" stroke="#4553EB" stroke-width="3" stroke-miterlimit="10" stroke-linecap="round"/>
<path d="M172.749 151.175C180.86 155.843 181.243 156.709 181.243 164.915C181.243 173.121 180.86 173.747 169.494 182.097L145.997 164.049L164.757 150.26L172.749 151.175Z" fill="#FFD736"/>
<path d="M172.581 175.599C172.644 176.849 172.397 178.095 171.862 179.225C171.327 180.354 170.522 181.333 169.519 182.073V182.073L167.868 183.276C167.868 173.65 168.011 169.343 164.302 165.613C162.747 164.073 151.525 157.118 144.801 153.124C144.28 152.791 143.907 152.268 143.761 151.665C143.614 151.062 143.704 150.426 144.013 149.889C144.322 149.351 144.825 148.955 145.418 148.782C146.011 148.609 146.647 148.673 147.194 148.961C150.185 150.765 165.212 159.789 167.628 162.22C171.313 165.902 172.342 169.968 172.581 175.599Z" fill="black"/>
<path d="M152.53 194.417L150.807 195.669C150.807 183.3 151.022 178.968 147.266 175.19C145.734 173.65 134.512 166.72 127.788 162.701C127.309 162.351 126.976 161.834 126.854 161.251C126.732 160.668 126.829 160.061 127.127 159.546C127.425 159.031 127.902 158.645 128.466 158.463C129.03 158.282 129.641 158.317 130.181 158.562C133.172 160.343 148.199 169.367 150.616 171.797C154.923 176.129 155.593 181.014 155.593 188.281C155.606 189.475 155.335 190.656 154.802 191.723C154.269 192.791 153.49 193.715 152.53 194.417V194.417Z" fill="black"/>
<path d="M272.361 162.485C274.347 165.445 278.487 171.557 280.138 173.458" stroke="black" stroke-width="2" stroke-miterlimit="10" stroke-linecap="round"/>
<path d="M288.154 187.848H290.547C291.896 187.832 293.229 187.54 294.463 186.989C295.697 186.439 296.807 185.643 297.725 184.647C305.765 176.009 308.732 171.966 307.559 167.394C306.387 162.821 297.27 148.72 296.241 147.132C296.071 146.862 295.849 146.629 295.589 146.447C295.328 146.264 295.034 146.136 294.723 146.069C294.413 146.002 294.092 145.998 293.78 146.057C293.468 146.116 293.171 146.237 292.905 146.412C292.64 146.588 292.412 146.815 292.235 147.08C292.058 147.345 291.935 147.643 291.874 147.957C291.813 148.27 291.814 148.592 291.878 148.905C291.941 149.218 292.066 149.515 292.245 149.779C295.978 155.506 302.2 165.685 302.917 168.573C303.635 171.46 298.539 176.827 289.254 186.645L288.154 187.848Z" fill="black"/>
<path d="M145.016 38.3633C139.202 50.3952 153.415 50.3953 157.77 43.8499C158.081 53.4755 166.623 59.5876 174.137 51.6225" stroke="#FFB914" stroke-width="2" stroke-linecap="round" stroke-linejoin="round"/>
<path d="M197.275 2.38756C194.238 0.303028 190.959 -1.40203 187.512 -2.68994" stroke="#FFB914" stroke-width="2" stroke-linecap="round" stroke-linejoin="round"/>
<path d="M143.485 275.922C143.078 261.772 146.595 249.283 151.333 241.606" stroke="black" stroke-width="2" stroke-miterlimit="10" stroke-linecap="round"/>
<path d="M231.875 276.042C236.397 268.823 248.625 251.762 248.625 251.762" stroke="black" stroke-width="2" stroke-miterlimit="10" stroke-linecap="round"/>
<path d="M532.745 190.254C533.022 192.371 532.84 194.524 532.212 196.563C531.583 198.603 530.523 200.482 529.105 202.07C527.686 203.659 525.943 204.921 523.994 205.768C522.045 206.615 519.937 207.028 517.814 206.979H509.2C504.629 206.88 500.244 205.14 496.838 202.072C493.432 199.005 491.231 194.813 490.632 190.254L487.426 160.824C487.13 158.698 487.298 156.533 487.917 154.478C488.537 152.424 489.594 150.529 491.015 148.927C492.435 147.324 494.185 146.051 496.144 145.197C498.103 144.343 500.222 143.927 502.357 143.979H510.971C515.56 144.082 519.959 145.839 523.368 148.931C526.776 152.023 528.966 156.244 529.539 160.824L532.745 190.254Z" fill="#808AFF"/>
<path d="M513.244 167.995H498.146L494.987 138.878C494.115 132.277 490.926 126.206 485.993 121.762C481.061 117.319 474.712 114.795 468.092 114.646H424.352C421.342 114.578 418.354 115.166 415.591 116.369C412.829 117.573 410.358 119.363 408.349 121.617C406.34 123.871 404.839 126.535 403.95 129.428C403.061 132.32 402.805 135.372 403.199 138.373L406.429 167.995H385.803L382.334 136.183C381.819 132.249 382.156 128.25 383.322 124.46C384.488 120.669 386.456 117.177 389.091 114.224C391.725 111.27 394.964 108.925 398.585 107.349C402.205 105.773 406.122 105.003 410.067 105.092H475.294C483.785 105.283 491.929 108.522 498.252 114.224C504.576 119.926 508.663 127.715 509.775 136.183L513.244 167.995Z" fill="#808AFF"/>
<path d="M525.854 190.254C526.131 192.371 525.949 194.524 525.32 196.563C524.692 198.603 523.632 200.482 522.214 202.07C520.795 203.659 519.052 204.921 517.103 205.768C515.154 206.615 513.046 207.028 510.923 206.979H502.405C497.834 206.88 493.449 205.14 490.043 202.072C486.637 199.005 484.436 194.813 483.837 190.254L480.63 160.824C480.334 158.698 480.502 156.533 481.122 154.478C481.742 152.424 482.799 150.529 484.219 148.927C485.64 147.324 487.39 146.051 489.349 145.197C491.307 144.343 493.427 143.927 495.561 143.979H504.175C508.769 144.076 513.174 145.831 516.587 148.924C520.001 152.016 522.194 156.24 522.767 160.824L525.854 190.254Z" fill="black"/>
<path d="M577.754 276.042H511.976C507.851 276.042 503.895 274.394 500.978 271.461C498.061 268.528 496.423 264.549 496.423 260.401C496.423 256.252 498.061 252.274 500.978 249.341C503.895 246.407 507.851 244.759 511.976 244.759H577.683C581.807 244.759 585.763 246.407 588.68 249.341C591.597 252.274 593.236 256.252 593.236 260.401C593.236 264.549 591.597 268.528 588.68 271.461C585.763 274.394 581.807 276.042 577.683 276.042H577.754Z" fill="#19B375"/>
<path d="M475.459 251.929C508.497 242.15 527.055 206.121 516.909 171.456C506.764 136.79 471.758 116.615 438.721 126.394C405.683 136.172 387.126 172.202 397.271 206.867C407.416 241.533 442.422 261.708 475.459 251.929Z" fill="#3DDB7F"/>
<path d="M534.085 285.451C534.526 294.927 533.037 304.394 529.709 313.27C526.382 322.147 521.286 330.246 514.735 337.072C508.183 343.897 500.314 349.304 491.611 352.961C482.907 356.619 473.552 358.449 464.12 358.34C444.623 358.224 425.911 350.606 411.823 337.052C397.736 323.497 389.341 305.034 388.363 285.451C386.736 245.192 397.408 212.562 457.468 212.562C517.527 212.562 532.482 245.192 534.085 285.451Z" fill="#3DDB7F"/>
<path d="M425.476 250.149C421.408 262.422 414.852 276.957 409.492 273.732C404.132 270.507 405.927 258.885 411.191 250.149C416.455 241.414 425.476 250.149 425.476 250.149Z" fill="black"/>
<path d="M345.652 276.042H323.542C319.418 276.042 315.461 274.394 312.545 271.461C309.628 268.527 307.989 264.549 307.989 260.4C307.989 256.252 309.628 252.274 312.545 249.34C315.461 246.407 319.418 244.759 323.542 244.759H343.833C355.797 244.759 378.29 244.759 403.438 231.307C405.243 230.281 407.233 229.629 409.292 229.388C411.351 229.147 413.437 229.322 415.428 229.903C417.419 230.484 419.274 231.46 420.884 232.773C422.495 234.085 423.828 235.708 424.806 237.547C425.783 239.385 426.386 241.401 426.578 243.477C426.77 245.553 426.547 247.646 425.923 249.634C425.298 251.622 424.285 253.464 422.943 255.053C421.601 256.642 419.956 257.944 418.106 258.884C395.811 270.739 370.865 276.647 345.652 276.042Z" fill="#19B375"/>
<path d="M354.242 302.681C350.899 302.682 347.646 301.599 344.964 299.591C342.283 297.584 340.317 294.76 339.359 291.539C334.741 276.042 333.018 276.042 323.542 276.042C319.418 276.042 315.461 274.394 312.545 271.461C309.628 268.528 307.989 264.549 307.989 260.401C307.989 256.252 309.628 252.274 312.545 249.341C315.461 246.407 319.418 244.759 323.542 244.759C340.149 244.759 358.741 247.695 369.149 282.54C370.332 286.512 369.897 290.795 367.941 294.446C365.984 298.096 362.667 300.816 358.717 302.007C357.267 302.454 355.759 302.681 354.242 302.681V302.681Z" fill="#19B375"/>
<path d="M463.019 195.5C461.945 194.079 461.313 192.371 461.203 190.59C461.092 188.808 461.507 187.034 462.397 185.49C471.035 170.642 478.955 170.137 484.698 170.426C491.015 170.763 494.676 176.129 490.01 189.677C496.638 196.896 493.862 203.538 484.387 204.476C476.204 205.342 469.863 204.62 463.019 195.5Z" fill="#91FFAD"/>
<path d="M481.372 188.498H511.976C532.53 188.498 546.265 186.813 553.443 178.511C560.622 170.209 553.683 160.656 544.805 166.287C535.928 171.918 528.893 186.693 540.307 194.009C546.097 197.714 559.449 199.495 571.7 192.348C581.008 186.982 573.83 174.757 564.522 182.723C555.214 190.688 556.721 206.907 570.289 209.409C577.635 210.757 587.038 208.254 591.824 202.599C592.594 201.814 593.141 200.835 593.407 199.765C593.672 198.695 593.648 197.572 593.335 196.515C593.022 195.458 592.432 194.504 591.628 193.754C590.823 193.004 589.833 192.486 588.761 192.252C583.736 191.41 569.619 197.57 569.619 231.452" stroke="#FF78B9" stroke-width="2" stroke-miterlimit="10" stroke-linecap="round"/>
<path d="M483.717 183.95C482.666 185.611 481.263 187.019 479.609 188.071C477.954 189.124 476.088 189.795 474.146 190.038C481.707 189.123 484.961 193.455 484.961 193.455" stroke="black" stroke-width="2" stroke-linecap="round" stroke-linejoin="round"/>
<path d="M435.693 154.231C435.693 145.087 441.268 137.964 447.944 137.964C454.62 137.964 460.435 145.616 460.913 155.049C461.392 164.482 455.888 172.11 448.614 172.038C441.34 171.966 435.597 163.808 435.693 154.231Z" fill="white"/>
<path d="M444.355 154.64C444.355 150.405 446.939 147.108 450.026 147.108C453.113 147.108 455.817 150.645 456.032 155.025C456.247 159.405 453.639 162.894 450.337 162.87C447.035 162.846 444.307 159.068 444.355 154.64Z" fill="black"/>
<path d="M480.319 154.255C477.567 145.784 479.577 139.191 484.674 139.191C489.771 139.191 496.638 146.266 499.892 155.025C503.146 163.784 501.328 170.811 495.729 170.739C490.13 170.666 483.262 163.134 480.319 154.255Z" fill="white"/>
<path d="M487.88 154.664C486.66 150.934 487.545 148.046 489.794 148.046C492.044 148.046 495.011 151.151 496.446 154.977C497.882 158.803 497.092 161.931 494.628 161.883C492.163 161.835 489.148 158.538 487.88 154.664Z" fill="black"/>
<path d="M447.944 137.964C442.274 137.964 437.488 143.09 435.98 150.212C445.001 149.346 452.85 148.913 459.645 148.841C457.683 142.464 453.089 137.964 447.944 137.964Z" fill="#3442D9"/>
<path d="M484.674 139.191C480.558 139.191 478.477 143.474 479.266 149.586C486.025 150.211 492.709 151.492 499.222 153.413V153.413C495.753 145.423 489.483 139.191 484.674 139.191Z" fill="#3442D9"/>
<path d="M437.344 137.964C443.985 136.342 450.893 136.153 457.611 137.41" stroke="black" stroke-width="3" stroke-linecap="round" stroke-linejoin="round"/>
<path d="M479.099 137.963C483.842 137.189 488.697 137.485 493.312 138.83" stroke="black" stroke-width="3" stroke-linecap="round" stroke-linejoin="round"/>
<path d="M416.527 190.254C416.804 192.371 416.622 194.524 415.993 196.563C415.365 198.603 414.305 200.482 412.887 202.07C411.468 203.659 409.725 204.921 407.776 205.768C405.827 206.615 403.719 207.028 401.596 206.979H392.982C388.411 206.88 384.026 205.14 380.62 202.072C377.214 199.005 375.013 194.813 374.414 190.254L371.207 160.824C370.912 158.698 371.079 156.533 371.699 154.478C372.319 152.424 373.376 150.529 374.796 148.927C376.217 147.324 377.967 146.051 379.926 145.197C381.884 144.343 384.004 143.927 386.138 143.979H394.729C399.318 144.082 403.717 145.839 407.126 148.931C410.534 152.023 412.724 156.244 413.297 160.824L416.527 190.254Z" fill="black"/>
<path d="M406.98 190.254C407.257 192.371 407.074 194.524 406.446 196.563C405.818 198.603 404.758 200.482 403.339 202.07C401.921 203.659 400.177 204.921 398.228 205.768C396.28 206.615 394.171 207.028 392.049 206.979C387.478 206.88 383.093 205.14 379.687 202.072C376.281 199.005 374.08 194.813 373.481 190.254L370.298 160.824C370.002 158.698 370.17 156.533 370.79 154.478C371.41 152.424 372.467 150.529 373.887 148.927C375.308 147.324 377.058 146.051 379.017 145.197C380.975 144.343 383.095 143.927 385.229 143.979C389.818 144.082 394.218 145.839 397.626 148.931C401.035 152.023 403.225 156.244 403.797 160.824L406.98 190.254Z" fill="#5865F2"/>
<path d="M347.949 250.149C350.565 251.16 352.939 252.716 354.914 254.715C356.89 256.714 358.422 259.111 359.411 261.748" stroke="black" stroke-width="2" stroke-linecap="round" stroke-linejoin="round"/>
<path d="M379.151 282.058C375.993 278.039 370.968 271.374 368.623 268.125C359.243 255.203 354.266 256.093 343.116 256.093C321.82 256.093 320.743 271.229 326.079 280.735C328.622 284.72 329.853 289.41 329.596 294.138C326.007 297.435 322.155 300.635 322.418 303.186C322.681 305.737 325.505 308.336 329.596 306.002C334.908 302.97 338.067 302.609 339.168 296.376C339.741 299.413 339.982 302.503 339.886 305.592C339.886 312.812 347.255 313.654 355.798 313.654C363.885 313.654 371.59 313.004 371.59 300.01C371.587 296.342 371.291 292.68 370.705 289.061C372.312 290.093 374.212 290.566 376.113 290.408C376.932 290.475 377.752 290.278 378.453 289.845C379.155 289.413 379.701 288.767 380.013 288.002C380.405 287.023 380.531 285.957 380.38 284.913C380.229 283.869 379.805 282.884 379.151 282.058Z" fill="#91FFAD"/>
<path d="M604.099 231.308H544.733L556.53 303.138H592.302L604.099 231.308Z" fill="white"/>
<path d="M593.307 231.308H560.98L567.417 303.138H586.871L593.307 231.308Z" fill="#FFF2A6"/>
<path d="M605.247 225.652H543.585L540.067 231.307H608.765L605.247 225.652Z" fill="#8CD9FF"/>
<path d="M602.089 243.508C607.927 244.158 607.807 248.08 608.765 252.965C609.722 257.85 608.765 259.968 604.099 263.553C599.433 267.139 593.977 268.101 587.014 268.366C582.755 268.486 581.726 264.925 581.606 262.518C581.487 260.112 581.846 256.695 593.307 254.361C595.88 253.842 598.374 252.984 600.725 251.81L602.089 243.508Z" fill="#3DDB7F"/>
<path d="M604.29 262.398C606.97 267.572 607.281 270.628 606.683 273.491C606.085 276.355 603.86 277.823 600.629 279.579C597.399 281.336 592.326 282.251 589.79 280.446C589.073 279.933 588.506 279.237 588.147 278.43C587.788 277.623 587.65 276.734 587.747 275.855C587.845 274.976 588.175 274.14 588.702 273.432C589.23 272.724 589.936 272.172 590.747 271.831C595.15 269.689 598.117 268.293 598.117 268.293L599.002 262.903L604.29 262.398Z" fill="#3DDB7F"/>
<path d="M390.661 187.247L383.004 176.201H393.987L390.661 187.247Z" fill="#FF78B9"/>
<path d="M411.191 198.677C427.462 214.896 448.016 214.848 457.611 214.848" stroke="black" stroke-width="2" stroke-linecap="round" stroke-linejoin="round"/>
<path d="M460.842 211.262H454.381C452.412 211.262 450.816 212.868 450.816 214.848V214.872C450.816 216.852 452.412 218.457 454.381 218.457H460.842C462.811 218.457 464.407 216.852 464.407 214.872V214.848C464.407 212.868 462.811 211.262 460.842 211.262Z" fill="white"/>
<path d="M383.268 53.6923C428.78 53.6923 465.676 16.5875 465.676 -29.1836C465.676 -74.9547 428.78 -112.06 383.268 -112.06C337.755 -112.06 300.859 -74.9547 300.859 -29.1836C300.859 16.5875 337.755 53.6923 383.268 53.6923Z" fill="#3442D9"/>
<path d="M444.978 -15.1783C444.834 -31.8786 443.351 -55.9425 402.171 -57.5788C364.005 -59.0948 357.162 -36.9801 359.22 -22.6621C355.856 -21.056 353.014 -18.5238 351.024 -15.3592C349.033 -12.1946 347.976 -8.5273 347.974 -4.78269C347.974 5.49258 358.071 11.9176 368.001 12.9043C372.787 24.9362 378.865 40.1205 392.336 53.1631C407.746 51.4523 422.364 45.4058 434.511 35.7179C446.658 26.0301 455.843 13.0936 461.01 -1.60625C456.728 -7.26582 451.253 -11.901 444.978 -15.1783V-15.1783Z" fill="#FF78B9"/>
<path d="M278.152 -7.88727C277.976 -8.33611 277.669 -8.72125 277.272 -8.99264C276.875 -9.26404 276.407 -9.40918 275.927 -9.40918C275.447 -9.40918 274.978 -9.26404 274.581 -8.99264C274.184 -8.72125 273.878 -8.33611 273.701 -7.88727C268.341 5.5885 255.014 39.6388 253.243 49.3125C253.009 50.3268 253.012 51.3819 253.251 52.3949C253.491 53.4079 253.96 54.3513 254.623 55.1511C255.287 55.9508 256.125 56.5851 257.073 57.0042C258.021 57.4232 259.052 57.6157 260.086 57.5664H291.839C292.873 57.6157 293.905 57.4232 294.852 57.0042C295.8 56.5851 296.639 55.9508 297.302 55.1511C297.965 54.3513 298.434 53.4079 298.674 52.3949C298.914 51.3819 298.916 50.3268 298.682 49.3125C296.816 39.6388 283.512 5.61256 278.152 -7.88727Z" stroke="#66BCFF" stroke-width="3" stroke-linejoin="round"/>
<path d="M418.179 45.8717C411.646 35.3798 402.889 21.3506 400.281 16.995C395.95 9.94433 394.729 7.85073 384.823 7.85073H371.639C371.639 7.85073 363.719 1.40166 361.661 0.0781463C358.407 -1.99135 354.698 -2.32827 348.5 6.14221C341.322 15.9121 341.322 17.3319 349.577 28.9788C350.126 29.8244 350.987 30.4161 351.969 30.6237C352.952 30.8313 353.977 30.6378 354.817 30.0858C355.658 29.5337 356.247 28.6683 356.453 27.68C356.659 26.6917 356.467 25.6614 355.918 24.8158C354.219 21.88 353.142 20.1233 353.142 20.1233L359.22 11.9657L364.867 16.4415C360.584 22.2891 359.292 25.7783 364.078 31.1686H349.888C349.363 31.1654 348.842 31.2672 348.355 31.468C347.869 31.6689 347.427 31.9647 347.056 32.3385C346.684 32.7124 346.39 33.1566 346.19 33.6457C345.99 34.1347 345.889 34.6587 345.892 35.1873C345.899 36.2512 346.322 37.2696 347.07 38.0219C347.818 38.7742 348.83 39.1996 349.888 39.2059C357.617 39.2059 362.403 39.5669 365.394 42.1417C368.863 45.1497 371.447 46.9545 379.918 45.9198L384.943 53.524C396.433 53.3512 407.758 50.7437 418.179 45.8717V45.8717Z" fill="#EB459F"/>
<path d="M382.765 39.7594H386.857C387.614 39.7586 388.36 39.5771 389.034 39.2299C389.708 38.8827 390.29 38.3796 390.733 37.7621L394.346 32.6605C394.935 31.8248 395.213 30.807 395.13 29.7859C395.047 28.7648 394.608 27.806 393.892 27.0778L392.336 25.4654C392.918 24.6268 393.43 23.7415 393.868 22.8184C393.983 22.6036 394.054 22.3676 394.076 22.1244C394.099 21.8813 394.071 21.6361 393.997 21.4038C393.922 21.1715 393.801 20.9568 393.641 20.7729C393.482 20.5889 393.287 20.4395 393.068 20.3336C392.849 20.2277 392.611 20.1675 392.369 20.1567C392.126 20.1459 391.884 20.1847 391.657 20.2707C391.429 20.3568 391.222 20.4884 391.047 20.6574C390.872 20.8265 390.732 21.0295 390.637 21.2543C390.12 22.5307 389.347 23.6869 388.368 24.6512C387.388 25.6156 386.223 26.3677 384.943 26.8611C384.717 26.9272 384.506 27.0379 384.323 27.1867C384.141 27.3355 383.989 27.5194 383.878 27.7278C383.766 27.9361 383.697 28.1647 383.675 28.4001C383.652 28.6356 383.676 28.8732 383.746 29.0991C383.851 29.4696 384.074 29.7951 384.381 30.0256C384.688 30.2561 385.062 30.3787 385.445 30.3745C385.619 30.4115 385.798 30.4115 385.971 30.3745C387.414 29.9331 388.75 29.1957 389.896 28.2088L391.331 29.6766C391.442 29.817 391.502 29.9908 391.502 30.1699C391.502 30.349 391.442 30.5229 391.331 30.6633L387.718 35.7167C387.615 35.8766 387.473 36.0071 387.306 36.0956C387.138 36.1841 386.95 36.2277 386.761 36.222H382.765C382.607 36.2134 382.456 36.1544 382.334 36.0535L381.162 34.9707C372.907 27.3906 372.213 26.5242 375.084 21.6152C377.597 17.2837 381.497 11.5325 383.914 8.04322C382.839 7.94356 381.757 8.08864 380.746 8.46776C379.735 8.84688 378.822 9.45029 378.075 10.233C375.863 13.3234 373.826 16.537 371.974 19.8586C367.858 26.9334 370.251 29.8451 377.214 36.2942H371.663C370.17 36.301 368.731 35.7327 367.643 34.706L364.077 31.313V31.4333H359.698C359.694 31.6766 359.741 31.9181 359.836 32.142C359.931 32.3659 360.071 32.5671 360.249 32.7327L365.034 37.3289C366.797 38.9765 369.112 39.8959 371.519 39.9038L382.765 39.7594Z" fill="black"/>
<path d="M274.18 30.2061H366.351" stroke="#8CD9FF" stroke-width="2" stroke-linecap="round" stroke-linejoin="round"/>
<path d="M370.801 31.2168V33.6232H366.494L363.982 31.2168C362.309 29.617 361.243 27.4813 360.967 25.1768H364.867C365.652 25.1767 366.43 25.3334 367.155 25.6378C367.879 25.9422 368.537 26.3883 369.089 26.9501C369.641 27.512 370.076 28.1784 370.37 28.9108C370.664 29.6432 370.811 30.4271 370.801 31.2168V31.2168Z" fill="#EB459F"/>
<path d="M445.074 53.6433C456.439 53.6433 465.652 44.3778 465.652 32.9484C465.652 21.5189 456.439 12.2534 445.074 12.2534C433.709 12.2534 424.496 21.5189 424.496 32.9484C424.496 44.3778 433.709 53.6433 445.074 53.6433Z" fill="white"/>
<path d="M445.074 47.7968C453.227 47.7968 459.837 41.1494 459.837 32.9494C459.837 24.7495 453.227 18.1021 445.074 18.1021C436.92 18.1021 430.31 24.7495 430.31 32.9494C430.31 41.1494 436.92 47.7968 445.074 47.7968Z" fill="#D11583"/>
<path d="M452.42 29.7969H437.752C436.021 29.7969 434.617 31.2082 434.617 32.9492C434.617 34.6902 436.021 36.1016 437.752 36.1016H452.42C454.151 36.1016 455.554 34.6902 455.554 32.9492C455.554 31.2082 454.151 29.7969 452.42 29.7969Z" fill="white"/>
<path d="M1016.86 -5.81829C1015.26 -6.85249 1013.91 -8.21531 1012.88 -9.81657C1011.84 -11.4178 1011.16 -13.221 1010.88 -15.1069L1009.92 -21.6042C1009.9 -21.7593 1009.82 -21.9008 1009.7 -22.0026C1009.58 -22.1043 1009.43 -22.1594 1009.27 -22.1577V-22.1577C1009.12 -22.1546 1008.97 -22.0978 1008.85 -21.9969C1008.73 -21.896 1008.65 -21.7573 1008.63 -21.6042L1007.67 -15.1069C1007.38 -13.221 1006.7 -11.4178 1005.67 -9.81657C1004.64 -8.21531 1003.28 -6.85249 1001.69 -5.81829L1000.85 -5.28888C1000.76 -5.22538 1000.69 -5.14231 1000.64 -5.04624C1000.59 -4.95018 1000.56 -4.84372 1000.56 -4.73539V-4.73539C1000.56 -4.62705 1000.59 -4.52067 1000.64 -4.4246C1000.69 -4.32853 1000.76 -4.24547 1000.85 -4.18196L1001.69 -3.65256C1003.28 -2.61835 1004.64 -1.25554 1005.67 0.345728C1006.7 1.94699 1007.38 3.75025 1007.67 5.63614L1008.63 12.1333C1008.65 12.2885 1008.73 12.43 1008.85 12.5317C1008.97 12.6335 1009.12 12.6886 1009.27 12.6868V12.6868C1009.43 12.694 1009.58 12.6408 1009.7 12.538C1009.82 12.4353 1009.9 12.2907 1009.92 12.1333L1010.88 5.63614C1011.16 3.75025 1011.84 1.94699 1012.88 0.345728C1013.91 -1.25554 1015.26 -2.61835 1016.86 -3.65256L1017.7 -4.18196C1017.78 -4.24547 1017.85 -4.32853 1017.9 -4.4246C1017.95 -4.52067 1017.98 -4.62705 1017.98 -4.73539C1017.98 -4.84372 1017.95 -4.95018 1017.9 -5.04624C1017.85 -5.14231 1017.78 -5.22538 1017.7 -5.28888L1016.86 -5.81829Z" fill="#459FF7"/>
<path d="M34.2292 4.40923C32.0508 3.00279 30.1974 1.14315 28.7941 -1.04443C27.3907 -3.23202 26.4699 -5.6967 26.0936 -8.2724L24.7776 -17.128C24.7438 -17.3406 24.6365 -17.5344 24.4745 -17.6753C24.3125 -17.8162 24.1063 -17.895 23.8922 -17.8979V-17.8979C23.6781 -17.895 23.4719 -17.8162 23.31 -17.6753C23.148 -17.5344 23.0407 -17.3406 23.0069 -17.128L21.6909 -8.2724C21.3146 -5.6967 20.3938 -3.23202 18.9904 -1.04443C17.587 1.14315 15.7337 3.00279 13.5553 4.40923L12.4068 5.1552C12.2825 5.23553 12.1801 5.34589 12.1091 5.47619C12.038 5.60649 12.0005 5.75257 12 5.90117C12.0005 6.04978 12.038 6.19593 12.1091 6.32623C12.1801 6.45653 12.2825 6.56682 12.4068 6.64715L13.5553 7.39312C15.7309 8.79697 17.5826 10.6529 18.9858 12.8361C20.389 15.0193 21.3114 17.4793 21.6909 20.0507L23.0069 28.9062C23.039 29.1111 23.1394 29.2989 23.2915 29.4388C23.4437 29.5787 23.6387 29.6624 23.8444 29.6763V29.6763C24.0585 29.6733 24.2647 29.5944 24.4266 29.4535C24.5886 29.3127 24.6959 29.1189 24.7297 28.9062L26.0458 20.0507C26.422 17.475 27.3428 15.0104 28.7462 12.8228C30.1496 10.6352 32.0029 8.77554 34.1813 7.36911L35.3298 6.62313C35.4542 6.54281 35.5565 6.43244 35.6276 6.30214C35.6986 6.17184 35.7361 6.02569 35.7366 5.87709V5.87709C35.7361 5.72848 35.6986 5.5824 35.6276 5.45211C35.5565 5.32181 35.4542 5.21144 35.3298 5.13111L34.2292 4.40923Z" fill="#91FFAD"/>
<path d="M480.367 77.1061C479.088 76.2646 478.001 75.1608 477.176 73.8668C476.351 72.5729 475.808 71.1182 475.582 69.5982L474.816 64.3523C474.799 64.2247 474.736 64.1079 474.639 64.0238C474.542 63.9396 474.418 63.8938 474.29 63.895C474.162 63.8938 474.038 63.9396 473.941 64.0238C473.844 64.1079 473.781 64.2247 473.763 64.3523L472.998 69.5982C472.771 71.1182 472.228 72.5729 471.403 73.8668C470.578 75.1608 469.491 76.2646 468.212 77.1061L467.542 77.5633C467.465 77.6047 467.401 77.6677 467.359 77.7445C467.317 77.8213 467.297 77.9088 467.303 77.9964V77.9964C467.298 78.0873 467.318 78.1777 467.36 78.2582C467.402 78.3386 467.465 78.4062 467.542 78.4537L468.212 78.8869C469.491 79.7283 470.578 80.8322 471.403 82.1261C472.228 83.42 472.771 84.8748 472.998 86.3948L473.763 91.6407C473.781 91.7682 473.844 91.885 473.941 91.9692C474.038 92.0533 474.162 92.0991 474.29 92.0979C474.418 92.0991 474.542 92.0533 474.639 91.9692C474.736 91.885 474.799 91.7682 474.816 91.6407L475.582 86.3948C475.808 84.8748 476.351 83.42 477.176 82.1261C478.001 80.8322 479.088 79.7283 480.367 78.8869L481.037 78.4537C481.114 78.4062 481.177 78.3386 481.22 78.2582C481.262 78.1777 481.281 78.0873 481.277 77.9964C481.282 77.9088 481.263 77.8213 481.22 77.7445C481.178 77.6677 481.114 77.6047 481.037 77.5633L480.367 77.1061Z" fill="#B0E5FF"/>
</g>
</g>
<defs>
<clipPath id="clip0_1712_102579">
<rect width="1096" height="274" fill="white"/>
</clipPath>
<clipPath id="clip1_1712_102579">
<rect width="1096" height="483.989" fill="white" transform="translate(12 -59)"/>
</clipPath>
</defs>
</svg>
