<svg width="375" height="273" viewBox="0 0 375 273" fill="none" xmlns="http://www.w3.org/2000/svg">
<g clip-path="url(#clip0)">
<path d="M0 151H375V273H0V151Z" fill="#202225"/>
<path d="M17.925 211.5V229H22.125V223.25H25.025C29.1 223.25 31.425 220.875 31.425 217.475C31.425 213.775 29.075 211.5 25.1 211.5H17.925ZM22.125 220.175V214.95H24.475C26.075 214.95 27.125 215.75 27.125 217.475C27.125 219.25 26.075 220.175 24.225 220.175H22.125ZM39.2012 229.375C43.1012 229.375 46.0762 226.75 46.0762 222.725C46.0762 218.625 43.1512 215.975 39.2012 215.975C35.3012 215.975 32.4012 218.625 32.4012 222.725C32.4012 226.75 35.3512 229.375 39.2012 229.375ZM39.2012 225.95C37.5512 225.95 36.5512 224.65 36.5512 222.7C36.5512 220.725 37.5262 219.4 39.2012 219.4C40.9012 219.4 41.9262 220.725 41.9262 222.7C41.9262 224.65 40.9012 225.95 39.2012 225.95ZM56.4332 215.975C54.4332 215.975 53.0832 216.9 52.4332 218.25V216.35H48.4332V229H52.4832V222.225C52.4832 220.5 53.2832 219.375 54.7832 219.375C56.2332 219.375 56.8082 220.275 56.8082 221.975V229H60.8582V221.075C60.8582 217.875 59.1832 215.975 56.4332 215.975ZM72.7146 218.175C71.9396 216.775 70.6396 215.975 68.9646 215.975C65.1896 215.975 63.1146 219.175 63.1146 222.675C63.1146 226.4 65.0896 229.375 68.6396 229.375C70.7146 229.375 72.1396 228.2 72.7896 226.875V229H76.7646V211H72.7146V218.175ZM69.9896 225.95C68.3896 225.95 67.2646 224.725 67.2646 222.725C67.2646 220.7 68.3646 219.4 70.0396 219.4C71.7146 219.4 72.7646 220.725 72.7646 222.675C72.7646 224.625 71.6646 225.95 69.9896 225.95ZM85.7303 229.525C89.9303 229.525 92.4303 227.35 92.4303 223.9C92.4303 221.3 91.0053 219.7 87.6803 218.625L85.8803 218.05C84.6053 217.55 83.9553 217.075 83.9553 216.2C83.9553 215.175 84.7553 214.625 86.4553 214.625C88.2803 214.625 90.0303 215.275 91.5803 216.375V212.525C90.1053 211.65 88.2303 210.975 86.0053 210.975C81.9053 210.975 79.5053 213.05 79.5053 216.35C79.5053 218.825 80.8053 220.4 83.8053 221.425L85.8553 222.1C87.3303 222.7 87.7553 223.175 87.7553 224.025C87.7553 225.2 86.9553 225.825 85.2553 225.825C83.1803 225.825 81.0553 224.975 79.5053 223.775V227.675C81.4553 228.95 83.6053 229.525 85.7303 229.525ZM101.244 229.4C102.844 229.4 104.344 229.025 105.569 228.275V224.825C104.794 225.4 103.569 225.925 102.144 225.925C99.6438 225.925 98.3188 224.55 98.3188 222.65C98.3188 220.725 99.6938 219.45 102.019 219.45C103.444 219.45 104.544 219.825 105.469 220.475V216.9C104.494 216.375 103.144 215.95 101.344 215.95C96.8938 215.95 94.1687 218.725 94.1687 222.675C94.1687 226.575 96.8938 229.4 101.244 229.4ZM116.227 222.975C116.227 224.875 115.502 226.025 114.027 226.025C112.602 226.025 111.977 225.075 111.977 223.375V216.35H107.927V224.25C107.927 227.375 109.427 229.35 112.452 229.35C114.277 229.35 115.677 228.375 116.327 226.925V229H120.302V216.35H116.227V222.975ZM138.66 215.975C136.885 215.975 135.535 216.825 134.71 218.25C134.06 216.85 132.81 215.975 131.085 215.975C129.31 215.975 128.06 216.875 127.36 218.375V216.35H123.36V229H127.41V221.85C127.41 220.425 128.185 219.375 129.41 219.375C130.61 219.375 131.21 220.25 131.21 221.575V229H135.21V221.5C135.235 220.3 135.985 219.375 137.185 219.375C138.41 219.375 138.985 220.25 138.985 221.675V229H143.035V220.9C143.035 217.825 141.385 215.975 138.66 215.975Z" fill="white"/>
<path d="M16.996 250H18.124V246.64H19C20.8 246.64 22 245.8 22 244.108C22 242.572 20.944 241.72 19.192 241.72H16.996V250ZM20.86 244.144C20.86 245.176 20.188 245.644 19.06 245.644H18.124V242.716H19.132C20.26 242.716 20.86 243.196 20.86 244.144ZM27.8666 247.144C27.8666 245.26 26.7386 244.156 25.2026 244.156C23.6786 244.156 22.5746 245.26 22.5746 247.144C22.5746 249.028 23.6786 250.12 25.2026 250.12C26.7386 250.12 27.8666 249.028 27.8666 247.144ZM26.7866 247.144C26.7866 248.344 26.2586 249.232 25.2026 249.232C24.1946 249.232 23.6546 248.32 23.6546 247.144C23.6546 245.944 24.1706 245.044 25.2026 245.044C26.2346 245.044 26.7866 245.968 26.7866 247.144ZM33.8947 250V245.836C33.8947 244.804 33.3187 244.156 32.2387 244.156C31.4227 244.156 30.7507 244.612 30.2107 245.104L30.0787 244.276H29.2267V250H30.2947V246.04C30.8107 245.488 31.3867 245.116 31.9507 245.116C32.5747 245.116 32.8267 245.512 32.8267 246.1V250H33.8947ZM36.3108 247.252C36.3108 245.836 36.9588 245.104 37.8588 245.104C38.4708 245.104 38.8188 245.2 39.2628 245.428V248.164C38.8068 248.776 38.3028 249.172 37.6428 249.172C36.8748 249.172 36.3108 248.512 36.3108 247.252ZM35.2308 247.3C35.2308 249.22 36.2508 250.12 37.4868 250.12C38.3268 250.12 38.9148 249.688 39.3468 249.172L39.4788 250H40.3308V241.336L39.2628 241.504V244.456C38.9028 244.312 38.3868 244.204 37.8228 244.204C36.4308 244.204 35.2308 245.212 35.2308 247.3ZM46.7399 247.768C46.7399 246.52 46.1879 245.968 44.5799 245.236C43.3199 244.66 43.0079 244.36 43.0079 243.724C43.0079 243.112 43.4279 242.608 44.3759 242.608C45.0359 242.608 45.6599 242.872 46.1159 243.22L46.2959 242.092C45.8159 241.816 45.2159 241.624 44.4119 241.624C42.9119 241.624 41.8919 242.476 41.8919 243.808C41.8919 244.996 42.4799 245.512 44.0399 246.22C45.2879 246.784 45.6239 247.096 45.6239 247.852C45.6239 248.656 45.0119 249.112 44.1479 249.112C43.3199 249.112 42.5399 248.776 41.9759 248.404L41.8079 249.556C42.4199 249.88 43.2239 250.096 44.1239 250.096C45.6719 250.096 46.7399 249.196 46.7399 247.768ZM52.4485 249.532L52.2925 248.548C51.7285 249.028 51.1645 249.184 50.5885 249.184C49.6285 249.184 48.9085 248.524 48.9085 247.132C48.9085 245.812 49.5685 245.092 50.5525 245.092C51.2125 245.092 51.7405 245.332 52.2325 245.728L52.3885 244.684C52.0045 244.408 51.3925 244.156 50.5645 244.156C49.0285 244.156 47.8285 245.2 47.8285 247.144C47.8285 249.052 48.9565 250.12 50.4925 250.12C51.3085 250.12 51.9205 249.928 52.4485 249.532ZM53.7301 244.276V248.44C53.7301 249.472 54.2941 250.12 55.3861 250.12C56.1901 250.12 56.8741 249.676 57.4141 249.172L57.5461 250H58.3981V244.276H57.3301V248.236C56.8141 248.788 56.2381 249.16 55.6741 249.16C55.0501 249.16 54.7981 248.764 54.7981 248.176V244.276H53.7301ZM68.2062 250V245.836C68.2062 244.804 67.6782 244.156 66.5862 244.156C65.7822 244.156 65.0862 244.612 64.5702 245.104C64.3542 244.516 63.8982 244.156 63.0582 244.156C62.2542 244.156 61.6062 244.612 61.0662 245.104L60.9342 244.276H60.0822V250H61.1502V246.04C61.6662 245.488 62.2062 245.116 62.7702 245.116C63.3942 245.116 63.6102 245.512 63.6102 246.1V250H64.6782V246.04C65.1942 245.488 65.7342 245.116 66.2982 245.116C66.9222 245.116 67.1382 245.512 67.1382 246.1V250H68.2062ZM73.8273 247.024H71.8113L72.1473 244.864H74.1633L73.8273 247.024ZM73.3473 250.024H74.1993L74.5353 247.936H76.2153L76.0593 247.024H74.6793L75.0153 244.864H76.4553V243.952H75.1593L75.4713 241.984L74.6553 241.804L74.3073 243.952H72.2913L72.6273 241.864H71.7753L71.4393 243.952H69.7593L69.9153 244.864H71.2953L70.9593 247.024H69.5193V247.936H70.8153L70.5033 249.904L71.3193 250.084L71.6673 247.936H73.6833L73.3473 250.024ZM83.7769 245.944C83.7769 243.256 82.5289 241.732 80.6809 241.732C78.8209 241.732 77.5729 243.256 77.5729 245.944C77.5729 248.632 78.8209 250.156 80.6809 250.156C82.5289 250.156 83.7769 248.632 83.7769 245.944ZM82.6729 245.944C82.6729 248.056 81.9289 249.208 80.6809 249.208C79.4329 249.208 78.6769 248.056 78.6769 245.944C78.6769 243.832 79.4329 242.68 80.6809 242.68C81.9289 242.68 82.6729 243.832 82.6729 245.944ZM91.2066 245.944C91.2066 243.256 89.9586 241.732 88.1106 241.732C86.2506 241.732 85.0026 243.256 85.0026 245.944C85.0026 248.632 86.2506 250.156 88.1106 250.156C89.9586 250.156 91.2066 248.632 91.2066 245.944ZM90.1026 245.944C90.1026 248.056 89.3586 249.208 88.1106 249.208C86.8626 249.208 86.1066 248.056 86.1066 245.944C86.1066 243.832 86.8626 242.68 88.1106 242.68C89.3586 242.68 90.1026 243.832 90.1026 245.944ZM98.6363 245.944C98.6363 243.256 97.3883 241.732 95.5403 241.732C93.6803 241.732 92.4323 243.256 92.4323 245.944C92.4323 248.632 93.6803 250.156 95.5403 250.156C97.3883 250.156 98.6363 248.632 98.6363 245.944ZM97.5323 245.944C97.5323 248.056 96.7883 249.208 95.5403 249.208C94.2923 249.208 93.5363 248.056 93.5363 245.944C93.5363 243.832 94.2923 242.68 95.5403 242.68C96.7883 242.68 97.5323 243.832 97.5323 245.944ZM106.066 245.944C106.066 243.256 104.818 241.732 102.97 241.732C101.11 241.732 99.862 243.256 99.862 245.944C99.862 248.632 101.11 250.156 102.97 250.156C104.818 250.156 106.066 248.632 106.066 245.944ZM104.962 245.944C104.962 248.056 104.218 249.208 102.97 249.208C101.722 249.208 100.966 248.056 100.966 245.944C100.966 243.832 101.722 242.68 102.97 242.68C104.218 242.68 104.962 243.832 104.962 245.944Z" fill="#72767D"/>
<circle cx="294" cy="242" r="6" fill="white"/>
<path fill-rule="evenodd" clip-rule="evenodd" d="M281.208 240.124C281.634 240.124 281.99 239.776 281.99 239.358C281.99 238.94 281.634 238.592 281.208 238.592H280.782C280.355 238.592 280 238.94 280 239.358C280 239.776 280.355 240.124 280.782 240.124H281.208ZM297.338 249.388C301.389 247.577 303.094 242.98 301.247 239.149C299.968 236.432 297.268 234.83 294.425 234.691H286.395C285.685 234.691 285.187 235.248 285.187 235.875C285.187 236.572 285.756 237.059 286.395 237.059H288.456C288.882 237.059 289.238 237.407 289.238 237.825C289.238 238.243 288.882 238.592 288.456 238.592H283.411C282.985 238.592 282.629 238.94 282.629 239.358C282.629 239.776 282.985 240.124 283.411 240.124H287.035C287.461 240.124 287.817 240.472 287.817 240.89C287.817 241.308 287.461 241.657 287.035 241.657H284.761C284.335 241.657 283.979 242.005 283.979 242.423C283.979 242.841 284.335 243.189 284.761 243.189H286.324C286.395 244.025 286.609 244.861 286.964 245.627C288.74 249.458 293.43 251.13 297.338 249.388ZM290.066 244.2C289.034 241.997 290.019 239.392 292.266 238.381C294.513 237.369 297.171 238.335 298.203 240.537C299.235 242.74 298.25 245.345 296.003 246.357C293.756 247.368 291.098 246.402 290.066 244.2Z" fill="#4F5D7F"/>
<path d="M295.814 239.867L297.235 242.235C297.306 242.374 297.306 242.444 297.235 242.583L295.814 244.951C295.743 245.091 295.601 245.091 295.53 245.091H292.759C292.617 245.091 292.545 245.021 292.475 244.951L291.053 242.583C290.982 242.444 290.982 242.374 291.053 242.235L292.475 239.867C292.545 239.727 292.688 239.727 292.759 239.727H295.53C295.672 239.658 295.743 239.727 295.814 239.867Z" fill="#C5CEDD"/>
<path d="M319 233L313 239V245L319 251L325 245V239L319 233ZM323.5 244.385L319 248.885L314.5 244.385V239.615L319 235.115L323.5 239.615V244.385Z" fill="#FF73FA"/>
<path d="M316 240.245V243.755L319 246.755L322 243.755V240.245L319 237.245L316 240.245Z" fill="#FF73FA"/>
<path d="M356.591 236.843L348.722 242.009C348.587 242.097 348.477 242.219 348.405 242.363L347.205 244.769C347.188 244.809 347.159 244.843 347.123 244.867C347.086 244.89 347.044 244.903 347 244.903C346.956 244.903 346.914 244.89 346.877 244.867C346.841 244.843 346.812 244.809 346.795 244.769L345.595 242.363C345.523 242.219 345.413 242.097 345.278 242.009L337.409 236.843C337.369 236.797 337.313 236.767 337.251 236.762C337.19 236.757 337.129 236.776 337.082 236.816C337.035 236.855 337.006 236.912 337.001 236.973C336.996 237.034 337.015 237.095 337.054 237.142L340.343 243.538C340.359 243.572 340.367 243.608 340.366 243.645C340.365 243.683 340.355 243.719 340.338 243.752C340.32 243.784 340.295 243.812 340.265 243.834C340.234 243.855 340.199 243.869 340.162 243.874H338.186C338.137 243.873 338.089 243.888 338.05 243.917C338.01 243.945 337.98 243.986 337.965 244.032C337.95 244.078 337.95 244.128 337.965 244.175C337.98 244.221 338.009 244.262 338.049 244.29L346.863 250.606C346.904 250.633 346.951 250.648 347 250.648C347.049 250.648 347.096 250.633 347.137 250.606L355.951 244.29C355.991 244.262 356.02 244.221 356.035 244.175C356.05 244.128 356.05 244.078 356.035 244.032C356.02 243.986 355.99 243.945 355.95 243.917C355.911 243.888 355.863 243.873 355.814 243.874H353.838C353.799 243.872 353.761 243.861 353.727 243.841C353.694 243.822 353.665 243.794 353.645 243.761C353.625 243.728 353.613 243.69 353.611 243.651C353.609 243.612 353.616 243.573 353.632 243.538L356.946 237.142C356.985 237.095 357.004 237.034 356.999 236.973C356.994 236.912 356.965 236.855 356.918 236.816C356.871 236.776 356.81 236.757 356.749 236.762C356.687 236.767 356.631 236.797 356.591 236.843Z" fill="#FBB848"/>
<path d="M347.174 232.107L347.982 233.754C347.997 233.781 348.017 233.805 348.042 233.823C348.066 233.842 348.095 233.854 348.125 233.86L349.946 234.121C349.982 234.126 350.016 234.141 350.043 234.165C350.07 234.188 350.091 234.218 350.102 234.253C350.113 234.287 350.114 234.324 350.105 234.359C350.096 234.394 350.078 234.425 350.052 234.45L348.734 235.731C348.713 235.753 348.697 235.779 348.687 235.808C348.678 235.837 348.675 235.868 348.678 235.899L348.989 237.708C348.996 237.742 348.993 237.779 348.98 237.812C348.967 237.845 348.945 237.873 348.916 237.894C348.887 237.915 348.853 237.927 348.818 237.93C348.782 237.932 348.747 237.924 348.716 237.906L347.087 237.055C347.061 237.04 347.031 237.032 347 237.032C346.969 237.032 346.939 237.04 346.913 237.055L345.284 237.906C345.253 237.924 345.218 237.932 345.183 237.93C345.147 237.927 345.113 237.915 345.084 237.894C345.056 237.873 345.033 237.845 345.02 237.812C345.007 237.779 345.004 237.742 345.011 237.708L345.322 235.899C345.326 235.868 345.322 235.837 345.313 235.808C345.303 235.779 345.287 235.753 345.266 235.731L343.948 234.45C343.922 234.425 343.904 234.394 343.895 234.359C343.886 234.324 343.887 234.287 343.898 234.253C343.909 234.218 343.93 234.188 343.957 234.165C343.985 234.141 344.018 234.126 344.054 234.121L345.875 233.866C345.905 233.86 345.934 233.848 345.958 233.83C345.983 233.811 346.004 233.788 346.018 233.76L346.826 232.113C346.841 232.08 346.865 232.052 346.896 232.032C346.926 232.012 346.962 232.001 346.998 232C347.035 231.999 347.07 232.009 347.102 232.028C347.133 232.047 347.158 232.074 347.174 232.107Z" fill="#FBB848"/>
<circle cx="62" cy="150" r="46" fill="#202225"/>
<circle cx="62" cy="150" r="40" fill="#FCE97D"/>
<mask id="mask0" style="mask-type:alpha" maskUnits="userSpaceOnUse" x="22" y="110" width="80" height="80">
<circle cx="62" cy="150" r="40" fill="#FCE97D"/>
</mask>
<g mask="url(#mask0)">
<path d="M106.81 159.545C105.894 149.98 97.1669 141.287 84.7811 136.771C84.9487 135.542 84.9725 134.298 84.8519 133.063C84.0881 125.104 78.3125 119.15 71.1508 119.835C66.1391 120.32 61.7795 123.934 59.8717 128.778C57.0733 124.389 52.1101 121.68 47.0984 122.161C39.9367 122.835 35.4057 129.792 36.1509 137.736C36.2687 138.972 36.5301 140.19 36.9297 141.365C25.6282 148.151 18.7161 158.349 19.6365 167.914C21.086 183.028 41.7737 193.405 65.841 191.095C89.9083 188.785 108.263 174.659 106.81 159.545Z" fill="url(#paint0_linear)"/>
<path d="M54.4377 149.176C59.3519 148.703 62.9192 143.986 62.4053 138.64C61.8914 133.293 57.4911 129.342 52.5768 129.814C47.6625 130.287 44.0953 135.004 44.6091 140.35C45.123 145.697 49.5234 149.648 54.4377 149.176Z" fill="white"/>
<path d="M69.0998 147.765C74.0141 147.293 77.5813 142.575 77.0674 137.229C76.5535 131.882 72.1532 127.931 67.2389 128.403C62.3246 128.876 58.7574 133.593 59.2713 138.939C59.7851 144.286 64.1855 148.237 69.0998 147.765Z" fill="white"/>
<path d="M54.2451 146.22C56.2731 146.025 57.6716 143.313 57.3688 140.163C57.066 137.012 55.1765 134.616 53.1486 134.811C51.1206 135.006 49.722 137.718 50.0248 140.868C50.3277 144.019 52.2171 146.415 54.2451 146.22Z" fill="black"/>
<path d="M49.9831 142.822C51.0574 142.822 51.9282 141.951 51.9282 140.877C51.9282 139.803 51.0574 138.932 49.9831 138.932C48.9089 138.932 48.0381 139.803 48.0381 140.877C48.0381 141.951 48.9089 142.822 49.9831 142.822Z" fill="black"/>
<path d="M57.4011 142.111C58.4753 142.111 59.3462 141.24 59.3462 140.166C59.3462 139.091 58.4753 138.22 57.4011 138.22C56.3269 138.22 55.4561 139.091 55.4561 140.166C55.4561 141.24 56.3269 142.111 57.4011 142.111Z" fill="black"/>
<path d="M68.7275 144.826C70.7555 144.631 72.1541 141.919 71.8512 138.769C71.5484 135.618 69.659 133.222 67.631 133.417C65.603 133.612 64.2045 136.324 64.5073 139.475C64.8101 142.625 66.6996 145.021 68.7275 144.826Z" fill="black"/>
<path d="M64.4626 141.432C65.5369 141.432 66.4077 140.562 66.4077 139.487C66.4077 138.413 65.5369 137.542 64.4626 137.542C63.3884 137.542 62.5176 138.413 62.5176 139.487C62.5176 140.562 63.3884 141.432 64.4626 141.432Z" fill="black"/>
<path d="M71.8845 140.721C72.9587 140.721 73.8296 139.85 73.8296 138.776C73.8296 137.701 72.9587 136.83 71.8845 136.83C70.8103 136.83 69.9395 137.701 69.9395 138.776C69.9395 139.85 70.8103 140.721 71.8845 140.721Z" fill="black"/>
<path d="M31.3861 163.223C33.6477 163.223 35.4811 161.39 35.4811 159.128C35.4811 156.866 33.6477 155.033 31.3861 155.033C29.1244 155.033 27.291 156.866 27.291 159.128C27.291 161.39 29.1244 163.223 31.3861 163.223Z" fill="#FF78B9"/>
<path d="M93.6165 157.25C95.8782 157.25 97.7116 155.417 97.7116 153.155C97.7116 150.893 95.8782 149.06 93.6165 149.06C91.3549 149.06 89.5215 150.893 89.5215 153.155C89.5215 155.417 91.3549 157.25 93.6165 157.25Z" fill="#FF78B9"/>
<path d="M63.725 168.779C62.9134 168.857 62.0943 168.774 61.3146 168.535C60.535 168.297 59.81 167.907 59.1812 167.387C58.5524 166.868 58.0321 166.23 57.65 165.51C57.2679 164.79 57.0316 164.001 56.9546 163.189L56.0752 154.038L62.5103 156.136L68.4312 152.849L69.3143 162.008C69.3924 162.82 69.3097 163.639 69.071 164.419C68.8323 165.198 68.4422 165.923 67.9231 166.552C67.404 167.181 66.766 167.701 66.0457 168.083C65.3254 168.465 64.5368 168.702 63.725 168.779Z" fill="#FF78B9"/>
<path d="M70.5473 151.422C67.8495 152.201 63.9594 154.228 62.6254 157.455C60.7027 154.541 56.4959 153.293 53.6826 153.04" stroke="black" stroke-width="1.75" stroke-linecap="round" stroke-linejoin="round"/>
</g>
<circle cx="90" cy="178" r="14" fill="#202225"/>
<circle cx="90" cy="178" r="8" fill="#43B581"/>
</g>
<defs>
<linearGradient id="paint0_linear" x1="65.6249" y1="191.117" x2="59.4767" y2="120.856" gradientUnits="userSpaceOnUse">
<stop stop-color="white"/>
<stop offset="0.02" stop-color="#F0FCFA"/>
<stop offset="0.06" stop-color="#CDF4EF"/>
<stop offset="0.12" stop-color="#B0EDE5"/>
<stop offset="0.17" stop-color="#97E8DD"/>
<stop offset="0.24" stop-color="#85E4D7"/>
<stop offset="0.31" stop-color="#78E1D2"/>
<stop offset="0.41" stop-color="#70DFD0"/>
<stop offset="0.61" stop-color="#6EDFCF"/>
<stop offset="0.73" stop-color="#6DDCCC"/>
<stop offset="0.82" stop-color="#68D3C4"/>
<stop offset="0.89" stop-color="#60C3B5"/>
<stop offset="0.96" stop-color="#55ADA1"/>
<stop offset="1" stop-color="#4D9C91"/>
</linearGradient>
<clipPath id="clip0">
<rect width="375" height="273" rx="8" fill="white"/>
</clipPath>
</defs>
</svg>
