<svg width="35" height="36" viewBox="0 0 35 36" fill="none" xmlns="http://www.w3.org/2000/svg">
<path d="M17.5411 35.639C26.9857 35.639 34.6354 27.9191 34.6354 18.3879C34.6354 8.85661 26.9857 1.13672 17.5411 1.13672C8.09649 1.13672 0.446777 8.85661 0.446777 18.3879C0.446777 27.9191 8.09649 35.639 17.5411 35.639Z" fill="#6290FE"/>
<path d="M7.18238 2.93063L6.33623 4.74703C6.13315 5.15829 6.57315 5.60382 6.9793 5.39819L8.77314 4.5414C8.90853 4.47286 9.07776 4.47286 9.21314 4.5414L11.007 5.39819C11.4131 5.60382 11.8531 5.15829 11.6501 4.74703L10.8039 2.93063C10.7362 2.79354 10.7362 2.62218 10.8039 2.4851L11.6162 0.702969C11.8193 0.291708 11.3793 -0.153824 10.9731 0.0518062L9.1793 0.908599C9.04391 0.977142 8.87468 0.977142 8.7393 0.908599L6.94546 0.0518062C6.5393 -0.153824 6.09931 0.291708 6.30238 0.702969L7.14853 2.51937C7.25007 2.65646 7.25007 2.79354 7.18238 2.93063Z" fill="#AEC7FF"/>
<path d="M27.0686 30.487L26.0609 32.6232C25.8191 33.1069 26.3431 33.6309 26.8268 33.3891L28.963 32.3814C29.1242 32.3008 29.3258 32.3008 29.487 32.3814L31.6232 33.3891C32.1069 33.6309 32.6309 33.1069 32.3891 32.6232L31.3814 30.487C31.3008 30.3258 31.3008 30.1242 31.3814 29.963L32.3891 27.8268C32.6309 27.3431 32.1069 26.8191 31.6232 27.0609L29.487 28.0686C29.3258 28.1492 29.1242 28.1492 28.963 28.0686L26.8268 27.0609C26.3431 26.8191 25.8191 27.3431 26.0609 27.8268L27.0686 29.963C27.1492 30.1242 27.1492 30.3258 27.0686 30.487Z" fill="#AEC7FF"/>
<path d="M17.1576 6L10 13.0749V23.0348L17.1576 30.1097L24.3151 23.0348V13.0749L17.1576 6ZM20.7537 21.5408L17.1576 25.0954L13.5788 21.558V14.5174L17.1576 10.9971L20.7364 14.5346L20.7537 21.5408Z" fill="#FA6EF6"/>
<path d="M17.032 6V10.9996L20.6736 14.5389L24.3151 13.0613L17.032 6Z" fill="#FFADFB"/>
<path d="M13.516 21.5712L10 23.0315L17.032 30.11V25.1104L13.516 21.5712Z" fill="#E655D4"/>
<path d="M13.5161 14.3629V21.4943L17.1577 25.0861L20.7993 21.4943V14.3629L17.1577 10.771L13.5161 14.3629Z" fill="#FFCFF9"/>
<path d="M20.7993 14.2809V14.2986L13.5338 21.5726H13.5161V19.5985L19.8093 13.2849L20.7993 14.2809Z" fill="white"/>
<path d="M20.799 17.0507V19.0204L16.0114 23.8315L15.0227 22.8379L20.799 17.0507Z" fill="white"/>
</svg>
