<svg width="229" height="106" fill="none" xmlns="http://www.w3.org/2000/svg">
  <path opacity=".29" d="M.5 106c0-15.472 12.526-27.96 28.044-27.96h3.34a3.336 3.336 0 0 0 3.34-3.331v-38.16C35.294 24.06 45.384 14 57.84 14h92.62c12.456 0 22.546 10.06 22.546 22.48v3.122a4.655 4.655 0 0 0 4.662 4.648h15.657c17.188 0 31.175 21.509 31.175 38.715v22.966H.5V106Z" fill="#E7EEFF"/>
  <path d="m95.985 14.846-1.4 2.97c-.336.672.392 1.4 1.064 1.064l2.969-1.4a.831.831 0 0 1 .728 0l2.969 1.4c.673.336 1.401-.392 1.065-1.065l-1.401-2.969a.831.831 0 0 1 0-.728l1.401-2.969c.336-.672-.392-1.4-1.065-1.064l-2.969 1.4a.831.831 0 0 1-.728 0l-2.969-1.4c-.672-.336-1.4.392-1.064 1.064l1.4 2.97a.831.831 0 0 1 0 .727Z" fill="#AEFDDC"/>
  <path d="m179.985 82.846-1.4 2.97c-.336.671.392 1.4 1.064 1.064l2.969-1.4a.83.83 0 0 1 .728 0l2.969 1.4c.673.336 1.401-.392 1.065-1.065l-1.401-2.969a.831.831 0 0 1 0-.728l1.401-2.969c.336-.672-.392-1.4-1.065-1.064l-2.969 1.4a.83.83 0 0 1-.728 0l-2.969-1.4c-.672-.336-1.4.392-1.064 1.064l1.4 2.97a.831.831 0 0 1 0 .727Z" fill="#9CC4FF"/>
  <path d="M17.662 77.361c-.616 0-1.12-.504-1.12-1.12v-1.12c0-.617.504-1.121 1.12-1.121.617 0 1.12.504 1.12 1.12v1.12c0 .617-.503 1.121-1.12 1.121ZM17.662 86.324c-.616 0-1.12-.504-1.12-1.12v-1.12c0-.617.504-1.12 1.12-1.12.617 0 1.12.503 1.12 1.12v1.12c0 .616-.503 1.12-1.12 1.12ZM20.463 80.162c0-.616.504-1.12 1.12-1.12h1.12c.617 0 1.121.504 1.121 1.12 0 .616-.504 1.12-1.12 1.12h-1.12c-.617 0-1.121-.504-1.121-1.12ZM11.5 80.162c0-.617.504-1.12 1.12-1.12h1.12c.617 0 1.121.503 1.121 1.12 0 .616-.504 1.12-1.12 1.12h-1.12c-.617 0-1.121-.504-1.121-1.12Z" fill="#FCE97D"/>
  <path d="M222.662 65.361c-.616 0-1.12-.504-1.12-1.12v-1.12c0-.617.504-1.121 1.12-1.121.617 0 1.121.504 1.121 1.12v1.12c0 .617-.504 1.121-1.121 1.121ZM222.662 74.324c-.616 0-1.12-.504-1.12-1.12v-1.12c0-.617.504-1.12 1.12-1.12.617 0 1.121.503 1.121 1.12v1.12c0 .616-.504 1.12-1.121 1.12ZM225.463 68.162c0-.616.504-1.12 1.12-1.12h1.121c.616 0 1.12.504 1.12 1.12 0 .616-.504 1.12-1.12 1.12h-1.121c-.616 0-1.12-.504-1.12-1.12ZM216.5 68.162c0-.617.504-1.12 1.12-1.12h1.121c.616 0 1.12.503 1.12 1.12 0 .616-.504 1.12-1.12 1.12h-1.121c-.616 0-1.12-.504-1.12-1.12Z" fill="#fff"/>
  <rect x="13.5" width="63" height="63" rx="31.5" fill="#FBB848"/>
  <path d="M55.5 30.333h-9.333V21h-2.334v9.333H34.5v2.334h9.333V42h2.334v-9.333H55.5v-2.334Z" fill="#fff"/>
  <rect x="166.5" y="14" width="50" height="50" rx="25" fill="#EC82B7"/>
  <path fill-rule="evenodd" clip-rule="evenodd" d="m199.097 36.74.675-.675a3.78 3.78 0 0 0 0-5.337 3.78 3.78 0 0 0-5.338 0l-.674.675 5.337 5.337Zm-6.663-4.014-8.033 8.035 5.337 5.336 8.033-8.035-5.337-5.336Zm-9.144 15.618 4.834-1.207-4.763-4.763-1.208 4.834a.938.938 0 0 0 1.137 1.136Z" fill="#fff"/>
  <rect x="90.5" y="37" width="53" height="53" rx="26.5" fill="#8290F5"/>
  <g clip-path="url(#a)">
    <path fill-rule="evenodd" clip-rule="evenodd" d="M105.958 52.458a2.208 2.208 0 0 0-2.208 2.209v17.666c0 1.22.989 2.209 2.208 2.209h22.084a2.208 2.208 0 0 0 2.208-2.209V54.667c0-1.22-.989-2.209-2.208-2.209h-22.084Zm8.834 14.885V62.89h-3.684v1.683h1.709v1.63a2.564 2.564 0 0 1-1.232.291c-1.577 0-2.372-1.205-2.372-2.928 0-1.709.769-2.875 2.346-2.875.94 0 1.749.344 2.438.782l.304-1.974c-.728-.411-1.669-.676-2.795-.676-2.823 0-4.558 1.921-4.558 4.757 0 2.822 1.603 4.73 4.505 4.73 1.258 0 2.385-.345 3.339-.968Zm4.527-8.348h-2.266v9.143h2.266v-9.143Zm7.588 0v1.895h-3.22v1.868h2.544v1.895h-2.544v3.484h-2.252v-9.142h5.472Z" fill="#fff"/>
  </g>
  <defs>
    <clipPath id="a">
      <path fill="#fff" transform="translate(103.75 50.25)" d="M0 0h26.5v26.5H0z"/>
    </clipPath>
  </defs>
</svg>
