<svg width="232" height="113" viewBox="0 0 232 113" fill="none" xmlns="http://www.w3.org/2000/svg">
<g clip-path="url(#clip0_1929_164538)">
<path d="M181.355 3.59546H54.7131C44.6483 3.59546 36.4893 11.7545 36.4893 21.8193V88.2427C36.4893 98.3075 44.6483 106.467 54.7131 106.467H181.355C191.42 106.467 199.579 98.3075 199.579 88.2427V21.8193C199.579 11.7545 191.42 3.59546 181.355 3.59546Z" fill="#5865F0"/>
<path d="M169.1 48.3744C166.275 47.08 163.296 46.1657 160.235 45.6521C159.813 46.402 159.433 47.1725 159.094 47.9635C155.838 47.4704 152.52 47.4704 149.253 47.9635C148.914 47.1725 148.534 46.402 148.113 45.6521C145.051 46.176 142.062 47.0903 139.237 48.3846C133.628 56.685 132.108 64.7799 132.868 72.7618C136.155 75.1862 139.833 77.0353 143.737 78.2166C144.62 77.0353 145.401 75.7717 146.068 74.4568C144.795 73.9843 143.572 73.3987 142.401 72.7105C142.709 72.4845 143.007 72.2585 143.305 72.0325C150.188 75.2684 158.159 75.2684 165.042 72.0325C165.34 72.2687 165.638 72.505 165.946 72.7105C164.775 73.3987 163.542 73.9843 162.268 74.4671C162.936 75.782 163.717 77.0353 164.6 78.2166C168.514 77.0353 172.192 75.1965 175.479 72.7618C176.373 63.5061 173.959 55.4934 169.09 48.3744H169.1ZM147.044 67.8515C144.928 67.8515 143.172 65.9305 143.172 63.5677C143.172 61.205 144.856 59.2635 147.034 59.2635C149.212 59.2635 150.948 61.205 150.907 63.5677C150.866 65.9305 149.202 67.8515 147.044 67.8515ZM161.323 67.8515C159.197 67.8515 157.461 65.9305 157.461 63.5677C157.461 61.205 159.146 59.2635 161.323 59.2635C163.501 59.2635 165.227 61.205 165.186 63.5677C165.145 65.9305 163.481 67.8515 161.323 67.8515Z" fill="white"/>
<path d="M36.7051 19.1895H199.374C198.09 10.3755 190.529 3.59546 181.366 3.59546H54.7132C45.5499 3.59546 37.9789 10.3755 36.7051 19.1895Z" fill="#1966BF"/>
<path d="M36.5611 20.5454H199.517C199.445 19.4873 199.281 18.4601 199.035 17.4636H37.0336C36.7871 18.4601 36.6227 19.4873 36.5508 20.5454H36.5611Z" fill="#3442D7"/>
<path d="M220.412 60.1674C219.159 59.3661 218.09 58.3081 217.289 57.0548C216.488 55.8015 215.954 54.3941 215.748 52.9251L214.967 47.871C214.947 47.7477 214.896 47.6347 214.803 47.5525C214.711 47.4703 214.598 47.419 214.474 47.4087C214.351 47.4087 214.238 47.4703 214.146 47.5525C214.053 47.6347 214.002 47.7477 213.981 47.871L213.201 52.9251C212.985 54.3941 212.451 55.8015 211.649 57.0548C210.848 58.3081 209.78 59.3661 208.537 60.1777L207.869 60.5989C207.797 60.6502 207.746 60.7119 207.705 60.7838C207.664 60.8557 207.653 60.9379 207.653 61.0201C207.653 61.1022 207.664 61.1844 207.705 61.2563C207.746 61.3282 207.797 61.3899 207.869 61.4412L208.537 61.8624C209.79 62.674 210.848 63.7321 211.649 64.9853C212.451 66.2386 212.985 67.646 213.201 69.115L213.981 74.1691C214.002 74.2924 214.053 74.3951 214.146 74.4773C214.238 74.5595 214.351 74.6006 214.474 74.6006C214.598 74.6006 214.711 74.5595 214.803 74.4773C214.896 74.3951 214.957 74.2924 214.967 74.1691L215.748 69.115C215.954 67.646 216.488 66.2283 217.289 64.9853C218.09 63.7321 219.159 62.674 220.412 61.8727L221.08 61.4515C221.152 61.4001 221.203 61.3385 221.244 61.2666C221.285 61.1947 221.296 61.1125 221.296 61.0303C221.296 60.9481 221.285 60.866 221.244 60.7941C221.203 60.7221 221.152 60.6605 221.08 60.6091L220.412 60.188V60.1674Z" fill="#FF78B7"/>
<path d="M29.0722 95.9677C27.8189 95.1664 26.7506 94.1083 25.9493 92.8551C25.148 91.6018 24.6138 90.1944 24.4084 88.7254L23.6277 83.6713C23.6071 83.548 23.5557 83.435 23.4633 83.3528C23.3708 83.2706 23.2578 83.2193 23.1346 83.209C23.0113 83.209 22.8983 83.2706 22.8058 83.3528C22.7134 83.435 22.662 83.548 22.6415 83.6713L21.8608 88.7254C21.645 90.1944 21.1108 91.6018 20.3096 92.8551C19.5083 94.1083 18.4399 95.1664 17.1969 95.978L16.5292 96.3992C16.4573 96.4505 16.4059 96.5122 16.3648 96.5841C16.3237 96.656 16.3135 96.7382 16.3135 96.8203C16.3135 96.9025 16.3237 96.9847 16.3648 97.0566C16.4059 97.1285 16.4573 97.1902 16.5292 97.2415L17.1969 97.6627C18.4502 98.4743 19.5083 99.5323 20.3096 100.786C21.1108 102.039 21.645 103.446 21.8608 104.915L22.6415 109.969C22.662 110.093 22.7134 110.195 22.8058 110.278C22.8983 110.36 23.0113 110.401 23.1346 110.401C23.2578 110.401 23.3708 110.36 23.4633 110.278C23.5557 110.195 23.6174 110.093 23.6277 109.969L24.4084 104.915C24.6138 103.446 25.148 102.029 25.9493 100.786C26.7506 99.5323 27.8189 98.4743 29.0722 97.673L29.7399 97.2518C29.8118 97.2004 29.8632 97.1388 29.9043 97.0669C29.9454 96.995 29.9557 96.9128 29.9557 96.8306C29.9557 96.7484 29.9454 96.6663 29.9043 96.5943C29.8632 96.5224 29.8118 96.4608 29.7399 96.4094L29.0722 95.9883V95.9677Z" fill="#FFE55C"/>
<path d="M230.377 40.6594C229.545 40.1252 228.826 39.4164 228.291 38.5843C227.757 37.7522 227.408 36.8071 227.264 35.8312L226.74 32.4617C226.73 32.3796 226.689 32.3077 226.627 32.246C226.566 32.1947 226.494 32.1536 226.411 32.1536C226.329 32.1536 226.247 32.1947 226.196 32.246C226.134 32.2974 226.093 32.3796 226.083 32.4617L225.569 35.8312C225.425 36.8071 225.066 37.7522 224.532 38.5843C223.997 39.4164 223.289 40.1252 222.456 40.6697L222.004 40.9573C222.004 40.9573 221.922 41.0292 221.902 41.0806C221.881 41.1319 221.861 41.1833 221.871 41.2449C221.871 41.2963 221.871 41.3579 221.902 41.4093C221.922 41.4607 221.963 41.5017 222.004 41.5326L222.456 41.8202C223.289 42.3544 223.997 43.0632 224.532 43.9056C225.066 44.7377 225.425 45.6725 225.569 46.6587L226.083 50.0281C226.093 50.1103 226.134 50.1822 226.196 50.2336C226.257 50.2849 226.329 50.3157 226.411 50.3157C226.494 50.3157 226.566 50.2849 226.627 50.2336C226.689 50.1822 226.73 50.1103 226.74 50.0281L227.264 46.6587C227.408 45.6725 227.757 44.7377 228.291 43.9056C228.826 43.0735 229.545 42.3647 230.377 41.8305L230.829 41.5428C230.829 41.5428 230.911 41.4709 230.931 41.4196C230.952 41.3682 230.973 41.3168 230.962 41.2552C230.962 41.2038 230.962 41.1422 230.931 41.0908C230.911 41.0395 230.87 40.9984 230.829 40.9676L230.377 40.6799V40.6594Z" fill="#5765F1"/>
<path d="M8.948 73.5322C8.11591 72.998 7.39682 72.2892 6.86264 71.4571C6.32846 70.625 5.97919 69.6799 5.83537 68.704L5.31146 65.3345C5.30119 65.2524 5.26009 65.1805 5.19846 65.1188C5.13682 65.0675 5.06491 65.0264 4.98273 65.0264C4.90055 65.0264 4.81837 65.0675 4.767 65.1188C4.70537 65.1702 4.66428 65.2524 4.654 65.3345L4.14037 68.704C3.99655 69.6799 3.637 70.625 3.10282 71.4571C2.56864 72.2892 1.85982 72.998 1.02773 73.5425L0.575731 73.8301C0.575731 73.8301 0.493549 73.902 0.473004 73.9534C0.452458 74.0047 0.431913 74.0561 0.442186 74.1177C0.442186 74.1691 0.442186 74.2307 0.473004 74.2821C0.493549 74.3335 0.53464 74.3745 0.575731 74.4054L1.02773 74.693C1.85982 75.2272 2.56864 75.936 3.10282 76.7784C3.637 77.6105 3.99655 78.5453 4.14037 79.5315L4.654 82.9009C4.66428 82.9831 4.70537 83.055 4.767 83.1064C4.82864 83.1577 4.90055 83.1886 4.98273 83.1886C5.06491 83.1886 5.13682 83.1577 5.19846 83.1064C5.26009 83.055 5.30119 82.9831 5.31146 82.9009L5.83537 79.5315C5.97919 78.5453 6.32846 77.6105 6.86264 76.7784C7.39682 75.9463 8.11591 75.2375 8.948 74.7033L9.4 74.4156C9.4 74.4156 9.48219 74.3437 9.50273 74.2924C9.52328 74.241 9.54382 74.1896 9.53355 74.128C9.53355 74.0766 9.53355 74.015 9.50273 73.9636C9.48219 73.9123 9.44109 73.8712 9.4 73.8404L8.948 73.5527V73.5322Z" fill="#57F085"/>
<g clip-path="url(#clip1_1929_164538)">
<path fill-rule="evenodd" clip-rule="evenodd" d="M98.9202 69.022C98.108 70.0467 96.118 70.7777 96.118 70.7777L81.3149 76.0949V72.1736L92.209 68.2919C93.4453 67.849 93.6351 67.2228 92.6302 66.8941C91.6272 66.5645 89.8111 66.659 88.5739 67.1038L81.3149 69.6604V65.5908L81.7333 65.4492C81.7333 65.4492 83.8309 64.7068 86.7804 64.3801C89.7299 64.0552 93.3414 64.4244 96.1766 65.4992C99.3716 66.5088 99.7315 67.9973 98.9202 69.022ZM82.724 62.3448V52.3167C82.724 51.139 82.5068 50.0548 81.4018 49.7479C80.5556 49.4768 80.0305 50.2626 80.0305 51.4394V76.552L73.2579 74.4024V44.46C76.1375 44.9945 80.3327 46.2582 82.588 47.0184C88.3236 48.9876 90.2682 51.4384 90.2682 56.9605C90.2682 62.3429 86.9456 64.3829 82.724 62.3448ZM60.831 71.7637C57.5509 70.84 57.0051 68.9152 58.5001 67.8065C59.8818 66.7827 62.2316 66.012 62.2316 66.012L71.9423 62.5592V66.4956L64.9544 68.9965C63.72 69.4394 63.5302 70.0665 64.5332 70.3952C65.5371 70.7238 67.3542 70.6303 68.5905 70.1865L71.9423 68.97V72.4918C71.7298 72.5296 71.4927 72.5674 71.2736 72.6042C67.9209 73.152 64.35 72.9234 60.831 71.7637Z" fill="white"/>
</g>
</g>
<defs>
<clipPath id="clip0_1929_164538">
<rect width="231.136" height="113" fill="white" transform="translate(0.431641)"/>
</clipPath>
<clipPath id="clip1_1929_164538">
<rect width="42" height="42" fill="white" transform="translate(57.5 39)"/>
</clipPath>
</defs>
</svg>
