<svg width="174" height="120" fill="none" xmlns="http://www.w3.org/2000/svg">
  <rect width="174" height="120" rx="8" fill="#18191C"/>
  <path d="M26.376 12.416c0-.492-.384-.84-.852-.84-.48 0-.864.348-.864.84 0 .48.384.816.864.816.468 0 .852-.336.852-.816zm-.144 8.028v-6.24h-1.44v6.12c0 .504-.24.684-.636.684-.168 0-.336-.012-.468-.048l.192 1.176c.096.036.348.048.564.048 1.068 0 1.788-.492 1.788-1.74zm1.511-6.24v4.164c0 1.092.564 1.752 1.656 1.752.768 0 1.392-.42 1.932-.936l.132.816h1.224v-5.796h-1.44v3.912c-.42.432-.876.72-1.32.72-.528 0-.744-.336-.744-.84v-3.792h-1.44zm10.707 4.092c0-1.092-.588-1.5-2.088-1.884-.864-.228-1.08-.408-1.08-.72s.264-.528.804-.528c.576 0 1.26.204 1.836.528l.192-1.2a5.09 5.09 0 00-2.028-.408c-1.344 0-2.136.708-2.136 1.716 0 1.056.588 1.464 1.992 1.824.924.228 1.176.396 1.176.804 0 .384-.336.612-.96.612-.72 0-1.488-.276-2.112-.684l-.192 1.2a5.04 5.04 0 002.256.564c1.524 0 2.34-.684 2.34-1.824zM42.688 20l-.18-1.212a1.774 1.774 0 01-.456.048c-.552 0-.756-.252-.756-.72V15.38h1.356l-.18-1.176h-1.176v-2.052l-1.428.216v1.836h-.816v1.176h.816v2.976c0 1.32.768 1.74 1.908 1.74.42 0 .684-.048.912-.096zm3.875-2.76v-1.392h-3.12v1.392h3.12zm5.658 2.316l-.192-1.236c-.528.408-1.02.552-1.524.552-.84 0-1.5-.576-1.5-1.776 0-1.152.6-1.764 1.452-1.764.576 0 1.032.192 1.5.54l.204-1.296a3.32 3.32 0 00-1.776-.492c-1.572 0-2.832 1.032-2.832 3.048 0 1.896 1.14 2.976 2.748 2.976.768 0 1.368-.18 1.92-.552zm6.096.444v-4.176c0-1.08-.576-1.74-1.656-1.74-.768 0-1.368.408-1.848.852v-3.6l-1.44.228V20h1.44v-3.912c.42-.444.876-.732 1.32-.732.528 0 .744.348.744.852V20h1.44zm3.086-7.584c0-.492-.384-.84-.852-.84-.48 0-.864.348-.864.84 0 .48.384.816.864.816.468 0 .852-.336.852-.816zM61.26 20v-5.796h-1.44V20h1.44zm3.024 0v-8.664l-1.44.228V20h1.44zm3.023 0v-8.664l-1.44.228V20h1.44zm3.168-7.584c0-.492-.384-.84-.852-.84-.48 0-.864.348-.864.84 0 .48.384.816.864.816.468 0 .852-.336.852-.816zM70.33 20v-5.796h-1.44V20h1.44zm6.467 0v-4.176c0-1.08-.576-1.74-1.656-1.74-.78 0-1.392.42-1.932.936l-.132-.816h-1.224V20h1.44v-3.912c.42-.444.876-.732 1.32-.732.528 0 .744.348.744.852V20h1.44z" fill="#fff"/>
  <path fill-rule="evenodd" clip-rule="evenodd" d="M13.193 11.914a.562.562 0 00-.604.116l-2.376 2.484h-1.66a.543.543 0 00-.553.525v3.173c0 .286.248.525.552.525h1.661l2.376 2.484c.159.154.398.201.604.116a.521.521 0 00.342-.488v-8.452a.523.523 0 00-.342-.483zm1.45 1.018v1.047c1.525 0 2.77 1.189 2.77 2.638 0 1.458-1.24 2.646-2.77 2.646v1.048c2.137 0 3.875-1.65 3.875-3.698 0-2.031-1.738-3.681-3.874-3.681zm0 2.107c.917 0 1.662.71 1.662 1.582 0 .88-.745 1.59-1.661 1.59v-1.055c.304 0 .552-.24.552-.535a.543.543 0 00-.552-.526V15.04z" fill="#B9BBBE"/>
  <g clip-path="url(#clip0)">
    <path d="M113 35H8v64.985h105V35z" fill="#A8BFFF"/>
    <path d="M68.793 80.527c3.62-10.638 13.808-12.328 19.087-9.672-.732-5.686 6.63-17.486 20.58-10.286H113v37.462H69.29l-.498-17.504zM22.856 81.286c-.991-2.773-5.382-9.72-14.856-8.538v20.431h36.464c-.093-10.317-11.586-15.926-21.608-11.893z" fill="#C2D2FF"/>
    <path d="M8 99.986h105v-23.81H94.93V95.05h-6.593v-5.934H73.254L45.96 76.466H33.933v-4.2h-5.954v14.96l-3.05-.978-4.158 4.461H8v9.276z" fill="#648AE8"/>
    <path d="M20.773 93.71H8v1.34h12.773v-1.34z" fill="#7B6EB3"/>
    <path d="M25.486 100l4.727-4.73h10.293v4.715l-15.02.015zM108.461 98.031H81.522V100h26.939v-1.969z" fill="#6273E3"/>
    <path d="M68.035 49.824a1.414 1.414 0 100-2.828 1.414 1.414 0 000 2.828zM58.378 53.093a1.414 1.414 0 10-.001-2.828 1.414 1.414 0 000 2.828zM45.949 56.416a1.414 1.414 0 100-2.829 1.414 1.414 0 000 2.829zM37.046 58.077a1.414 1.414 0 10-.001-2.828 1.414 1.414 0 000 2.828zM27.34 59.145a1.414 1.414 0 10-.001-2.829 1.414 1.414 0 000 2.829zM18.136 58.893a1.414 1.414 0 100-2.828 1.414 1.414 0 000 2.828zM105.645 80.438a1.414 1.414 0 100-2.828 1.414 1.414 0 000 2.828z" fill="#7D2952"/>
    <path d="M111.047 35H8v18.88c20.736 5.516 55.12-2.851 74.11-14.756C88.56 70.659 113 80.46 113 80.46V36.954c0-1.08-.874-1.954-1.953-1.954z" fill="#7D2952"/>
    <path d="M8 35v3.828C32.319 52.441 64.336 45.138 77.771 35H8zM113 35H92.147c.813 18.87 9.479 33.59 20.853 41.175V35z" fill="#70254A"/>
    <path d="M79.19 75.56c-1.223 2.882-3.426 8.39-3.426 8.39l5.587 3.485c2.247-5.252 3.008-8.04 3.375-9.498.364-1.461.598-2.888-1.294-4.048-1.893-1.16-2.953-1.364-4.242 1.67z" fill="#F073AB"/>
    <path d="M84.089 84.382l-3.353 7.707a4.982 4.982 0 01-6.64 2.549L61.6 88.94l6.232-9.81 7.616 4.243 1.113-3.333c3.927 1.576 6.032 2.954 7.529 4.342z" fill="#F7E5BC"/>
    <path d="M69.552 80.644c5.05.828 5.501 1.88 6.854 4.512l-5.411-.601-1.443-3.911z" fill="#F7E5BC"/>
    <path d="M45.864 38.794A4.112 4.112 0 0043.09 43.7l5.005 20.438 8.95-1.852-6.02-20.714a4.107 4.107 0 00-5.161-2.778z" fill="#D6569B"/>
    <path d="M50.865 59.355l3.523-.151-3.746-12.318a1.336 1.336 0 00-2.579.699l2.802 11.77z" fill="#E374B0"/>
    <path d="M48.958 59.203a2644.819 2644.819 0 00-5.1-19.026 4.104 4.104 0 00-.768 3.525l3.819 15.59 2.049-.089z" fill="#F06EA8"/>
    <path d="M66.612 38.694a4.113 4.113 0 012.826 4.876l-4.794 20.49-8.969-1.756 5.802-20.776a4.11 4.11 0 015.135-2.834z" fill="#D6569B"/>
    <path d="M56.85 58.1l.83 1.614s3.184-14.055 4.678-19.798a4.118 4.118 0 00-.881 1.612L56.85 58.099z" fill="#F06EA8"/>
    <path d="M63.22 59.306l-3.524-.115 3.617-12.357a1.337 1.337 0 012.586.672l-2.68 11.8z" fill="#E374B0"/>
    <path d="M68.622 71.267l-25.855 1.107a6.725 6.725 0 01-7.005-6.435l-.01-.203a6.726 6.726 0 016.432-7.009l25.854-1.107a6.725 6.725 0 017.006 6.435l.01.203a6.73 6.73 0 01-6.432 7.01z" fill="#F06EA8"/>
    <path d="M45.854 95.9c-1.529-1.406-3.001-2.738-3.321-3.256-.32-.518.215-.684.984-.95.77-.266 1.428.66 2.2 2.262.772 1.605 1.524 3.223.137 1.945z" fill="#F2C591"/>
    <path d="M73.254 89.116l-1.477 4.635-.186.586L69.787 100H36.189c-.34-1.226.063-1.473.923-2.86.73-1.18.408-1.037.542-4.413.093-2.355.933-4.561 4-7.3.923-.81 1.152-1.13 2.105-2.01a27.766 27.766 0 01.44-.398c.055-.052.114-.103.173-.157l22.958-3.628.002.003 4.623 7.712 1.299 2.167z" fill="#F7E5BC"/>
    <path d="M70.997 89.133c1.42-3.772 1.475-4.099 1.969-3.007.493 1.092.764 1.038-1.585 4.1-2.352 3.063-.999.542-.384-1.093z" fill="#E8C282"/>
    <path d="M71.777 93.75c-.137 2.23-.345 4.332-.58 6.25H46.497a849.528 849.528 0 00.125-4.232 32.101 32.101 0 000-1.89c-.152-4.462-1.441-7.52-4.967-8.451a47.294 47.294 0 012.105-2.01c.093-.086.185-.172.278-.255.11-.098.222-.198.337-.298l22.958-3.628c1.81.677 3.014 1.139 4.386 2.531.142 1.752.215 3.486.237 5.182.03 2.355-.042 4.64-.178 6.801z" fill="#1F3A70"/>
    <path d="M67.332 79.236l-.32.051c-.18.196-.298.335-.298.335-1.172 4.894-3.658 10.02-3.658 10.02s.13 1.26 1.83-1.173c1.455-2.087 3.193-5.26 3.906-7.943-.483-.435-.97-.865-1.46-1.29zM46.945 82.88c4.434 5.352 5.953 6.561 7.604 7.66 1.511 1.007.27-.542-1.448-3.078-1.72-2.535-3.712-5.704-3.712-5.704l-2.444 1.121zM71.691 94.303a105.51 105.51 0 01-.505 5.697h-24.69c.032-1 .069-2.243.11-3.762l.015-.47c.01-.324.014-.644.014-.955 0-.239-.005-.474-.012-.708-.002-.076-.002-.152-.005-.227h.003c5.34 1.29 12.365 3.623 13.962 4.17l11.008-3.711.1-.034z" fill="#172E5C"/>
    <path d="M48.708 85.984s-.222.452-1.18 1.1c-.956.647-1.21.95-1.323.73-.776-1.542-2.002-2.604-3.843-3.09.635-.65 1.335-1.31 2.09-2.004 3.419 1.456 4.256 3.264 4.256 3.264z" fill="#244AB0"/>
    <path d="M65.308 79.234l-4.627 17.37L48.8 79.747l16.507-.513z" fill="#D4BF9B"/>
    <path d="M63.137 87.379l-7.91-2.074c-1.425-.374-.705.122 0 1.001.594.74 4.921 5.7 6.267 7.244l1.643-6.171z" fill="#CCAC89"/>
    <path d="M51.382 82.532s9.619 1.303 10.85 1.452c1.23.148 1.245-1.163 1.875-3.74l-11.682.85-1.043 1.438z" fill="#CF518A"/>
    <path d="M70.153 82.063l-26.595 1.138a6.357 6.357 0 01-.544-12.701l26.594-1.138a6.357 6.357 0 016.62 6.078 6.353 6.353 0 01-6.075 6.623z" fill="#F06EA8"/>
    <path d="M70.006 82.07c3.41-.146 6.21-2.9 6.23-6.313a6.351 6.351 0 00-3.822-5.868 6.713 6.713 0 002.637-5.63l-.01-.204a6.724 6.724 0 00-7.003-6.435l-23.087.987c-2.076 3.975-1.79 8.25-.262 11.326a3.75 3.75 0 01.135 2.995c-2.23 5.922.71 10.188.708 10.188l24.474-1.046z" fill="#E05FA3"/>
    <path d="M56.947 100H41.92c-.015-.29-.012-.56.01-.808.002-.02.005-.037.005-.057l.031-.24c.022-.148.054-.29.09-.424.025-.083.052-.166.081-.245a2.624 2.624 0 01.574-.904c.354-.368.823-.65 1.394-.891a3.952 3.952 0 012.186-.244l.315.05c2.923.472 5.45.86 7.587 1.415.105.027.207.059.305.1.298.108.562.257.806.44.049.037.095.074.144.113.046.039.093.078.139.12a6.743 6.743 0 01.271.256c.044.046.088.09.132.14l.13.14c.214.245.427.509.644.788.068.088.13.17.183.251z" fill="#FF8FB1"/>
    <path d="M51.355 70.057c.59-.388.627-1.378.08-2.212-.546-.834-1.468-1.196-2.06-.808-.59.388-.626 1.378-.08 2.212.547.834 1.469 1.195 2.06.808zM62.936 68.305c.253-.903-.052-1.778-.68-1.953-.63-.176-1.343.413-1.596 1.316-.252.903.053 1.778.681 1.954.629.176 1.343-.414 1.595-1.317z" fill="#1B1926"/>
    <path d="M39.876 70.657c-1.446-.56-1.81-.709-2.825-1.036a6.766 6.766 0 002.503 2.086c-.103.076-.196.161-.293.242.786.054 1.294.132 2.007.105 1.39-.049 1.624-.232-1.392-1.397z" fill="#E05FA3"/>
    <path d="M40.34 62.726c1.072-.977 1.633-2.105 1.255-2.521-.379-.416-1.555.038-2.627 1.015-1.071.977-1.633 2.106-1.255 2.522.38.416 1.555-.039 2.627-1.016z" fill="#F792C0"/>
    <path d="M38.633 96.563c2.042-.836 2.747-1.168 3.443-1.417.696-.25.098-.506-1.465-1.188-1.563-.681-1.934-.938-2.046.399-.112 1.336-.603 2.482.068 2.206z" fill="#FAD596"/>
    <path d="M42.667 95.866c-3.497.95-3.531 1.425-3.622 2.033-.141.96-.01 1.16 1.295.183 1.304-.977 2.771-1.805 3.438-2.098.666-.291.322-.506-1.111-.118z" fill="#F7D08D"/>
    <path d="M47.211 95.84c.67-3.528.582-4.486.894-4.544.313-.059.848.791 1.385 1.908.537 1.116-2.279 2.636-2.279 2.636z" fill="#172E5C"/>
    <path d="M46.29 96.187c-1.118.139-3.269.168-3.513 3.813h-.855c-.031-.603.015-1.104.135-1.53.024-.082.05-.165.08-.243a2.624 2.624 0 01.574-.904c.354-.37.823-.65 1.394-.892a3.952 3.952 0 012.186-.244zM54.562 100c.5-1.104.664-1.837-.064-2.248.474.176.867.455 1.226.797l.134.132c.044.046.088.09.132.139.044.046.085.093.13.142.214.244.427.508.644.786.069.088.13.171.183.252h-2.386z" fill="#F278B0"/>
    <path d="M53.914 73.046c1.614 2.733 3.975 3.354 5.567-.171a.207.207 0 00-.193-.293l-5.203.15a.207.207 0 00-.171.314z" fill="#751B40"/>
    <path d="M49.138 70.674c1.126-2.16 3.306-1.251 3.306-1.251l-1.076 2.401-2.23-1.15zM60.124 68.917c2.254-.916 3.33 1.188 3.33 1.188l-2.375 1.133-.955-2.32z" fill="#E05FA3"/>
    <path d="M57.157 72.643l-3.079.088a.205.205 0 00-.169.31c1.385 2.348 3.321 3.14 4.85 1.09-.271-.47-.752-1.024-1.602-1.488z" fill="#9C2455"/>
    <path d="M75.464 84.677s1.597 3.84 2.13 5.402c.532 1.563-.218 1.358-1.065 1.224-.848-.137-.94-1.234-1.065-3.267-.122-2.035-.486-4.353 0-3.359zM77.141 83.646c.257 1.669 1.114 3.203 1.287 3.62.174.418 1.426.14 2.54-.139 1.113-.278.417-.662-.94-1.776-1.356-1.114-3.094-3.063-2.887-1.705z" fill="#FAD596"/>
    <path d="M27.672 92.659l-1.631-.726c-.03-.012-.03-.054 0-.068l1.63-.726a.05.05 0 00.02-.02l.726-1.632c.012-.029.053-.029.068 0l.725 1.633a.05.05 0 00.02.019l1.63.726c.03.012.03.053 0 .068l-1.63.726c-.008.004-.015.01-.02.02l-.725 1.631c-.012.03-.054.03-.069 0l-.725-1.632c-.005-.01-.01-.017-.02-.02z" fill="#3366E0"/>
    <path d="M80.11 59.663l-.766-.342c-.015-.007-.015-.024 0-.032l.766-.342a.02.02 0 00.01-.01l.342-.767c.005-.014.024-.014.032 0l.341.767a.019.019 0 00.01.01l.767.342c.015.008.015.025 0 .032l-.767.342a.02.02 0 00-.01.01l-.341.767c-.005.015-.025.015-.032 0l-.342-.767c-.002-.005-.005-.01-.01-.01z" fill="#FAFAFA"/>
    <path d="M33.803 50.133l-.767-.343c-.015-.007-.015-.024 0-.031l.767-.342a.02.02 0 00.01-.01l.341-.767c.008-.015.025-.015.032 0l.342.767a.02.02 0 00.01.01l.766.342c.015.007.015.024 0 .032l-.766.342a.019.019 0 00-.01.01l-.342.766c-.005.015-.024.015-.032 0l-.342-.767c-.002-.005-.005-.01-.01-.01z" fill="#F7E5BC"/>
    <path d="M105.648 35h-3.81v65h3.81V35zM17.87 35h-3.81v65h3.81V35z" fill="#783837"/>
    <path d="M105.648 35h-3.81v49.516h3.81V35zM17.87 35h-3.81v29.549h3.81V35z" fill="#571E2F"/>
    <path d="M81.825 47.677a1.414 1.414 0 100-2.828 1.414 1.414 0 000 2.828zM73.686 47.408a1.414 1.414 0 100-2.828 1.414 1.414 0 000 2.828zM8 55.001v2.827a1.414 1.414 0 100-2.827zM83.524 53.714a1.414 1.414 0 100-2.828 1.414 1.414 0 000 2.828zM92.146 67.923a1.414 1.414 0 100-2.828 1.414 1.414 0 000 2.828zM97.182 73.681a1.414 1.414 0 100-2.828 1.414 1.414 0 000 2.828zM87.052 60.293a1.414 1.414 0 100-2.828 1.414 1.414 0 000 2.828z" fill="#7D2952"/>
    <path d="M99.074 80.666h-.967v1.918h.967v-1.918zM109.427 86.957h-.967v1.917h.967v-1.917zM101.03 88.493h-.967v1.918h.967v-1.918zM98.59 93.71h-.966v1.917h.967v-1.918zM84.474 94.667h-.967v1.918h.967v-1.918zM36.116 83.48h-.967v1.918h.967V83.48zM22.769 94.667h-.967v1.918h.967v-1.918z" fill="#5177D6"/>
    <path d="M34.387 71.382h-6.886v.887h6.886v-.887zM92.97 93.71h-4.633v1.34h4.633v-1.34z" fill="#8F80CF"/>
  </g>
  <g clip-path="url(#clip1)">
    <path d="M166 39h-49v28h49V39z" fill="#5E87F9"/>
    <path d="M117 53c4.552-1.21 9.923.38 11.556 3.946 4.889-1.515 10.544 1.297 13.205 4.598H117V53z" fill="#6E94FF"/>
    <path d="M166 47.895c-2.975-.488-6.485.152-7.553 1.592-3.195-.611-6.891.523-8.63 1.854H166v-3.446z" fill="#7A9DFF"/>
    <path d="M154.344 63.143c-.919-1.882-.892-1.962-2.512-2.528l2.155 2.997.357-.469z" fill="#FF707E"/>
    <path d="M129.346 46.474c.03.03.065.06.099.09.07.067.145.13.216.194.029.022.054.047.082.069.063.052.12.102.171.146 3.797 3.167 8.681 4.512 11.981 5.473 4.261 1.241 7.808 1.6 10.468 1.612 3.447-.034 4.145-1.783 2.691-3.86l-.828-.979-4.213-4.975c-.068-.083-.139-.163-.207-.243-2.774-3.201-5.274-4.634-10.525-3.53l-7.987 1.679c-.008.002-.017.002-.025.006-2.791.595-4.099 2.234-1.923 4.318z" fill="url(#paint0_linear)"/>
    <path d="M138.541 41.085c-3.192.764-8.661 2.312-8.661 2.312l-1.324.184c.462-.657 1.43-1.152 2.713-1.427.008-.002.017-.002.025-.005l7.987-1.678c2.479-.521 4.341-.471 5.912.057-2.433-.563-3.842-.115-6.652.557zM141.663 52.85c-2.804-.817-8.798-3.122-11.124-5.379.545.529.007-.423 1.056.073 5.516 2.609 18.045 6.136 20.767 6.515-2.67.151-7.845-.378-10.699-1.21z" fill="#FFFDC4"/>
    <path d="M128.701 43.398c2.463-.713 8.013-.068 14.162 1.8 6.419 1.95 11.518 4.635 12.882 6.613.161 1.296-.887 2.222-3.383 2.247-2.66-.011-6.206-.37-10.468-1.612-3.299-.961-8.183-2.304-11.981-5.473-.051-.044-.108-.094-.171-.146-.028-.022-.053-.047-.082-.069-.071-.063-.145-.127-.216-.193a2.26 2.26 0 01-.1-.09c-1.269-1.217-1.35-2.282-.643-3.077z" fill="url(#paint1_linear)"/>
    <path d="M152.406 52.434c.359-1.111-4.193-3.484-10.167-5.3-5.974-1.815-11.108-2.386-11.466-1.275-.359 1.112 4.193 3.484 10.167 5.3 5.974 1.815 11.108 2.386 11.466 1.275z" fill="#6B3143"/>
    <path d="M130.825 46.264c-.074-.15-.094-.284-.054-.406a.43.43 0 01.105-.171l6.17 2.566-4.624-2.955c.188-.008.387-.008.601 0l4.286 2.777c.173-.032.435-.03.764.001l-2.347-2.494c.285.044.58.096.882.151l1.804 2.382c.365.05.787.126 1.254.23l-1.34-2.256c.262.061.527.122.797.188l.881 2.144c.27.064.552.136.843.216l-.612-2.076c.316.083.637.172.962.266l.29 1.973h-.067a18 18 0 01.229.068l.65-1.718c.245.074.483.149.722.226l-1.126 1.568c.193.06.382.12.566.182l1.619-1.403c.29.1.578.2.856.299l-1.999 1.268c.206.073.402.146.593.219l2.475-1.09c.359.138.708.276 1.043.413l-3.064.86c.263.108.508.215.724.319l4.332-.292c.373.18.72.36 1.042.535h-4.9c.13.073.241.143.336.208l5.969.672c.298.224.532.436.692.63l-6.37-1.047c.043.06.059.114.044.16-.014.04-.055.073-.114.097l6.599 1.587c-.108.14-.313.248-.606.322h-.002l-6.618-1.854a8.894 8.894 0 01-1.064-.13l5.274 2.047c-.257-.018-.527-.05-.81-.082h-.006l-5.134-2.096-.185-.042 3.304 1.82a46.12 46.12 0 01-1.572-.328h-.003l-2.38-1.647a27.127 27.127 0 01-1.29-.36 27.603 27.603 0 01-1.525-.51l-2.029.366a46.098 46.098 0 01-1.917-.753l3.104.058a.13.13 0 00-.016-.007l-4.747-.8-.002-.001a21.707 21.707 0 01-1.44-.762l5.249 1.13a6.357 6.357 0 01-.338-.19l-6.76-2.478z" fill="#7A384C"/>
    <path d="M158.366 67h-27.621c.484-.479 1.084-.774 2.024-1.204l2.139-.28.786-.106 1.708-.225 1.293-.17h.003l.771-.101.338-.045 3.195-.42.746-.1 1.205-.158.476-.065.937-.122.225-.029 2.072-.272 4.924-.649.259-.035c.154-.004.298-.004.44 0 2.33.06 3.149 1.071 4.08 3.981z" fill="#2347A1"/>
    <path d="M154.213 65.948L153.349 67h-5.048l2.81-2.735 1.223.663 1.879 1.02z" fill="#2A52C2"/>
    <path d="M153.846 63.02l-.145.192-.132.172c-.045.056-.093.12-.15.193-.259.33-.629.795-1.084 1.35a110.014 110.014 0 01-1.421 1.66c-.121.134-.24.271-.367.412h-17.578c-.142-.733-.198-1.204-.198-1.204v-.004c0-.233.129-.453.34-.569l1.602-.891v-.003h.004l-.009-.114a1.072 1.072 0 01-.006-.11 19.026 19.026 0 01-.03-.48l-.009-.146-.012-.199c-.004-.032-.004-.05-.004-.05l-.057-.92a1.119 1.119 0 01.452-.968l2.126-1.604.189-.146.585-.438 1.47-1.11.84-.12h.003l1.111-.163h.013l1.497-.213.436-.064 1.124-.16.536-.08.09-.011.291.044.383.058.796.123a2.472 2.472 0 011.683 1.067l.861 1.3h.004l.062.02h.004l.542.155 1.786.512.361.105c.084.029.165.059.24.087.006 0 .013.004.019.006.478.201.87.564 1.102 1.023l.65 1.288z" fill="#EF6270"/>
    <path d="M149.687 60c-.428-1.028-.649-2.249-3.323-2.768l-1.969-.285.156 1.557 3.732 2.387 1.404-.89z" fill="#FF707E"/>
    <path d="M153.846 63.02l-.144.192-.133.172c-.045.056-.093.12-.15.193-.259.33-.629.795-1.084 1.35a110.014 110.014 0 01-1.421 1.66c-.121.134-.244.274-.37.412H142.3c.193-.655.479-1.65.612-2.218a4.96 4.96 0 01.09-.333c.199-.699.362-1.122-.839-1.306l.123-.604.544-2.691c.004.003.004 0 .004 0l.141-.71v-.006l.108-.514v-.003l.182-.888v-.003l.047-.24 1.124-.16.536-.08.09-.011.291.044.383.058.796.123a2.472 2.472 0 011.683 1.067l.863 1.3.063.02h.004l.542.155 1.786.512.361.105c.084.029.165.059.24.087.006 0 .013.004.018.006.479.201.871.564 1.102 1.023l.652 1.288z" fill="#E05164"/>
    <path d="M146.247 60.149c1.345-.981 1.254-.905.511-1.38a3.15 3.15 0 00-1.524-.476l1.013 1.856z" fill="#BD3C53"/>
    <path d="M146.59 63.976L144.398 67h-1.659c.903-.941 1.846-1.946 2.689-2.873 1.202-1.323 2.196-2.48 2.569-3.045l-.114.717-.081.508-1.212 1.669zM149.424 65.846c-.313.292-.786.669-1.442 1.154h-2.061c.974-.391 2.244-.967 3.073-1.473 1.261-.771 1.096-.291.43.319z" fill="#E05164"/>
    <path d="M136.766 60.456c-1.484 1.263-2.233.926 1.291 5.608l.849-.538 2.454-2.679-3.121-3.812-1.473 1.42z" fill="#C74153"/>
    <path d="M137.226 47.886c.087-.283 2.111.052 4.52.748 2.409.697 4.291 1.49 4.205 1.774-.494 3.894-.422 7.342.297 9.74l-7.341 5.379c-3.083-7.185-2.144-13.555-1.681-17.641z" fill="#FFB685"/>
    <path d="M140.469 57.778l2.838-.05.313 1.612c-1.114 1.09-2.752.656-3.577-.058-1.1.918-2.164.91-2.916.1a.489.489 0 00-.022-.024 28.467 28.467 0 01-.187-1.33c1.168-.33 3.551-.25 3.551-.25z" fill="#FE9B77"/>
    <path d="M143.307 62.113c-.704-4.683-.541-10.309-.449-13.138 1.848.597 3.165 1.195 3.092 1.433-.494 3.894-.422 7.343.297 9.74l-2.94 1.965z" fill="#FE9B77"/>
    <path opacity=".4" d="M137.226 47.886c.087-.283 2.111.052 4.52.748 2.409.697 4.291 1.49 4.205 1.774-.063.498-.118.99-.162 1.472-2.622-.305-6.263.089-9.023.91.091-1.86.303-3.515.46-4.904z" fill="#A8387E"/>
    <path d="M139.916 41.982l-1.37.255.402.625.968-.88z" fill="#FFCD8F"/>
    <path d="M142.261 55.638c.162-.28.123-.6-.088-.715-.21-.114-.512.021-.674.302-.161.281-.122.602.089.715.21.114.512-.02.673-.302z" fill="#543247"/>
    <path d="M143.617 40.68s-.698-.053-1.011.179c.349.392 1.011-.178 1.011-.178z" fill="#FFD08F"/>
    <path d="M141.363 40.673c-1.508-.347-1.635.417-1.635.417l1.635-.417z" fill="#FFFDC4"/>
    <path d="M152.425 49.69c-.074.53-1.3.875-1.3.875l.502.372c1.271-.029 1.595-.65 1.595-.65s-.222-.267-.797-.597zM155.661 51.993c-.204.579-2.809.231-2.809.231l-.086.298c1.924.33 2.758.165 2.758.165s.113-.17.137-.694z" fill="#D4655B"/>
    <path d="M146.058 46.567c-.145.685-1.016 1.143-1.016 1.143l-1.413-.422c.398-.545.572-1.306.572-1.306s.969.25 1.857.585z" fill="#DC7363"/>
    <path d="M136.727 66.98a.781.781 0 00-.03.02h-1.446a44.918 44.918 0 01-.343-1.485 10.458 10.458 0 01-.196-1.183v-.003a1.506 1.506 0 01-.006-.114 1.432 1.432 0 01-.005-.11 18.997 18.997 0 01-.03-.48l-.009-.145c-.006-.091-.009-.158-.013-.2-.003-.032-.003-.05-.003-.05.256.746.647 1.511 1.048 2.181a20.8 20.8 0 001.033 1.569z" fill="#D14658"/>
    <path d="M151.472 60.51c-.687.912-1.714 2.06-2.81 3.194A62.636 62.636 0 01145.241 67h-1.168a71.486 71.486 0 002.291-2.995 54.931 54.931 0 001.518-2.206c.241-.365.47-.73.684-1.087v-.003c.181-.3.352-.593.512-.882.012.012.029.017.062.017h.004l.542.155 1.786.51z" fill="#CC4355"/>
    <path d="M147.649 59.825l-3.637 3.406-.705 2.98 3.993-4.903.349-1.483z" fill="#E65568"/>
    <path d="M138.681 64.981l7.494-5.086.128-.105c.218-.187.39-.181-.056.358l-7.341 5.378c-.078-.181-.151-.363-.225-.545z" fill="#BD3C53"/>
    <path d="M157.066 44.397l-.945-.408c-.017-.008-.017-.031 0-.038l.945-.408c.004-.002.009-.005.011-.011l.421-.917c.008-.016.032-.016.039 0l.42.917a.023.023 0 00.011.011l.945.408c.017.008.017.031 0 .038l-.945.408c-.004.002-.009.005-.011.01l-.42.917c-.008.017-.032.017-.039 0l-.421-.916a.036.036 0 00-.011-.011z" fill="#FF99B9"/>
    <path d="M124.599 58.72l-.945-.408c-.017-.008-.017-.031 0-.038l.945-.408c.004-.002.009-.005.011-.01l.42-.917c.008-.017.032-.017.039 0l.421.916a.02.02 0 00.011.011l.945.408c.017.008.017.031 0 .038l-.945.408c-.004.002-.009.005-.011.01l-.421.917c-.008.017-.032.017-.039 0l-.42-.916c-.003-.006-.007-.01-.011-.011z" fill="#5580F9"/>
    <path d="M152.337 46.99c-1.512-1.335-2.784-1.889-2.784-1.889 1.421.278 2.429.73 2.784 1.889z" fill="#EB9363"/>
    <path d="M136.958 41.09l-2.413.504c.284-.525.604-.622 2.413-.504z" fill="#FFFDC4"/>
    <path d="M141.304 59.065c-.984.007-1.929-.017-2.232.227-.305.244.174.805.905 1.339.31.226.462.25 1.231-.402.556-.47.857-1.17.096-1.164z" fill="#C74153"/>
    <path d="M140.902 59.112l.831.13c.115.238-.145.665-.525.987-.769.651-.92.628-1.23.401a5.608 5.608 0 01-.34-.268c.128-.283.528-1.023 1.264-1.25z" fill="#A82C3C"/>
    <path d="M139.412 59.154c.44-.097 1.154-.083 1.892-.089.419-.003.515.208.425.477-.454.01-2.083.05-2.26.05-.128 0-.098-.248-.057-.438z" fill="#fff"/>
    <path d="M136.119 57.798c-.224-.394-.097-1.012.39-1.328a.524.524 0 00.41.705c.269.049.777-.052.989-.13.61-.227 1.288-.236 2.115.172 1.11-.58 1.868-.07 2.884-.07.278 0 .553-.041.819-.112.855-.242.834-.642.65-1.066 1.216.282 1.162 1.538.623 2.094-.313.384-.911.56-1.698.378-1.229 1.009-1.838 1.085-3.277.178-1.177.961-2.308.853-2.975-.334-.003 0-.689-.06-.93-.487z" fill="#6B3143"/>
    <path d="M140.022 58.62c-1.177.96-2.307.852-2.975-.334 0 0-1.063-.088-1.034-.88.127.311.686.61 1.215.497.847.672 1.745.468 2.591-.157 0 0 1.779.925 3.051-.097 1.445.351 2.473-.297 2.298-1.179.342.5.201 1.212-.169 1.593-.314.384-.912.56-1.698.378-1.23 1.009-1.84 1.085-3.279.178z" fill="#5E2737"/>
    <path d="M138.881 55.95c.21-.088.281-.387.158-.667-.124-.281-.394-.438-.605-.351-.211.087-.282.386-.158.666.123.281.394.438.605.351z" fill="#543247"/>
  </g>
  <g clip-path="url(#clip2)">
    <path d="M166 69h-49v28.982h49V69z" fill="#F7E5BC"/>
    <path d="M166 85.197v12.785h-49V82.863c5.538-4.64 12.763-1.182 13.254 2.781 6.521-2.376 11.508.063 12.837 3.42 4.974-3.05 10.373-2.865 13.179 0 2.383-3.307 7.54-4.684 9.73-3.867z" fill="#6ADBC6"/>
    <path d="M147.099 88.315c5.395.03 10.008 2.618 12.232 9.685h-16.24l4.008-9.685z" fill="#44C9C5"/>
    <path d="M152.664 97.982H166v-6.215c-3.236.324-9.101 1.568-13.336 6.215z" fill="#44C9C5"/>
    <path d="M156.022 95.049h-29.104c-1.839 1.753-1.934 2.933-1.934 2.933h33.208s-.896-1.938-2.17-2.933z" fill="#FAFAFA"/>
    <path d="M156.699 96.327a.522.522 0 00.115-.673c-.425-.701-.56-1.247-1.513-1.75-1.112-.588-1.579-1.118-4.498-1.493-.593-1.535-.475-1.995-4.881-2.347h-12.196c-1.998.33-2.139.33-2.487 1.513-.349 1.183-.349 1.042-1.397 1.463-1.049.421-2.673.51-3.303 1.905-.206.454-.288.782.906 3.036h26.874a15.975 15.975 0 002.38-1.654z" fill="#CC4F79"/>
    <path d="M147.099 90.557c2.102.37 2.029.37.596 2.048-1.434 1.679-3.232 3.247-5.274 4.078-3.187 1.297-5.924.08-7.582-1.862-2.416-2.832-3.46-4.266-1.416-4.266 2.737.002 13.676.002 13.676.002z" fill="#590942"/>
    <path d="M153.395 74.636l-.945-.422c-.017-.008-.017-.032 0-.039l.945-.422c.004-.002.009-.006.011-.011l.42-.95c.008-.016.032-.016.039 0l.421.95a.02.02 0 00.011.01l.945.423c.017.008.017.032 0 .04l-.945.421a.02.02 0 00-.011.012l-.421.949c-.008.017-.032.017-.039 0l-.42-.95a.02.02 0 00-.011-.01z" fill="#FAFAFA"/>
    <path d="M126.844 75.985l-.62-.277a.014.014 0 010-.025l.62-.277a.01.01 0 00.007-.007l.276-.622c.004-.012.02-.012.025 0l.276.622a.01.01 0 00.007.007l.619.277a.013.013 0 010 .025l-.619.277a.01.01 0 00-.007.007l-.276.623c-.005.01-.021.01-.025 0l-.276-.623c-.001-.002-.003-.005-.007-.007z" fill="#F7D78D"/>
    <path d="M135.103 81.274c-.821-2.291-2.246-3.97-2.935-4.276-.688-.306-.511.082.13 2.012.642 1.93.649 5.11 1.833 5.128 1.184.018.972-2.864.972-2.864z" fill="#2E64E8"/>
    <path d="M133.603 81.869c-.489-.984-.523-1.46-.715-2.204a99.42 99.42 0 00-.379-1.405c.596 1.067 1.628 3.435 1.846 4.183.221.778-.259.41-.752-.574z" fill="#1C4BBA"/>
    <path d="M145.925 81.419c1.156-2.44 3.013-4.171 3.875-4.459.863-.287.621.124-.292 2.183-.914 2.058-1.134 5.521-2.585 5.462-1.449-.06-.998-3.186-.998-3.186z" fill="#2E64E8"/>
    <path d="M141.592 74.884a2.408 2.408 0 002.402-2.412 2.408 2.408 0 00-2.402-2.412 2.408 2.408 0 00-2.403 2.412 2.408 2.408 0 002.403 2.412z" fill="#201E2F"/>
    <path d="M143.896 73.106c.081-.62-.918-1.265-2.233-1.44-1.316-.176-2.448.185-2.53.806-.082.62.918 1.265 2.233 1.44 1.315.175 2.448-.186 2.53-.806z" fill="#41314A"/>
    <path d="M145.61 74.405c-2.479-2.338-6.562-2.638-9.362-.616-2.675 1.932-2.223 5.186-1.763 8.656l11.859.344c.489-1.89 1.746-6.045-.734-8.384z" fill="#4D7AE8"/>
    <path d="M146.612 81.756l-11.982-.347c-2.198 4.852-4.385 13.877 5.497 14.163 9.414.272 8.689-8.337 6.485-13.816z" fill="#4D7AE8"/>
    <path d="M146.612 81.757c.522-2.108 1.092-5.378-1.001-7.35-.072-.068-.151-.13-.225-.194l-.626-.019s.267 4.088.045 5.707c-.223 1.62-.14 1.797.355 2.022.623.281.95.479.852 2.558-.097 2.08-.218 2.358.237 4.829.453 2.462-.152 4.048-1.445 5.359 4.361-2.317 3.548-8.587 1.808-12.912z" fill="#2E64E8"/>
    <path d="M137.358 91.112c1.29 1.748 4.802 2.197 6.232.065.714-1.066-1.176-1.124-3.089-1.113-1.912.012-3.849.092-3.143 1.048z" fill="#3366E0"/>
    <path d="M142.28 82.012c.029-1.029-.736-1.885-1.709-1.913-.973-.029-1.786.782-1.815 1.811-.03 1.029.735 1.885 1.708 1.913.974.028 1.786-.782 1.816-1.811z" fill="#DBE7FF"/>
    <path d="M141.189 82.254c.019-.396-.271-.73-.646-.748-.375-.018-.694.288-.713.683-.019.396.271.73.646.748.375.018.695-.288.713-.683zM138.615 78.732c.746-1.56 3.474-1.4 4.108.119l-4.108-.12z" fill="#201E2F"/>
    <path d="M137.93 85.237c.116.033.228.069.334.111l.333.088.329.078c.11.02.223.03.333.05.443.052.893.069 1.337-.004.451-.034.888-.163 1.315-.315l.32-.126.308-.151.309-.16c.096-.063.196-.124.303-.181l.038-.02a.848.848 0 011.15.35.86.86 0 01-.025.848 4.154 4.154 0 01-1.477 1.422 5.178 5.178 0 01-1.959.661 5.027 5.027 0 01-2.074-.18 4.008 4.008 0 01-1.763-1.074.854.854 0 01.844-1.41l.045.013z" fill="#400015"/>
    <path d="M137.569 87.088c.371.271.79.488 1.234.62a5.03 5.03 0 002.074.179 5.158 5.158 0 001.959-.662c.429-.246.813-.57 1.13-.948-.588-.563-1.163-.942-1.715-1.17l-.023.01-.319.126c-.428.154-.866.283-1.315.315-.444.073-.894.056-1.338.003-.109-.017-.222-.028-.332-.049l-.036-.008a4.426 4.426 0 00-1.319 1.584z" fill="#590942"/>
    <path d="M143.727 85.69l.033-1.164a.845.845 0 00-.572.08l-.038.02a3.942 3.942 0 00-.303.18l-.309.16-.309.152-.319.126c-.428.153-.866.282-1.315.315-.444.073-.894.056-1.338.003-.109-.017-.222-.029-.332-.05l-.33-.077-.332-.088a3.173 3.173 0 00-.334-.111l-.045-.013a.855.855 0 00-.341-.017l-.017.596c2.267 1.103 4.827.483 6.201-.112z" fill="#DBE7FF"/>
    <path d="M138.364 85.374l-.1-.026a3.22 3.22 0 00-.334-.111l-.044-.013a.856.856 0 00-.341-.017l-.017.596c.237.116.477.207.718.287l.118-.716zM142.46 86.123c.484-.126.915-.28 1.268-.433l.033-1.163a.845.845 0 00-.572.079l-.038.02a3.91 3.91 0 00-.303.181l-.309.16-.118.059.039 1.097z" fill="#B5CDFF"/>
    <path d="M143.333 83.578l1.752.877c.032-1.062-.854-1.181-1.752-.877zM135.676 85.927l1.624-1.605c-1.236-.03-1.724.796-1.624 1.605zM136.641 87.565a64.033 64.033 0 001.112 1.498c-1.12-.096-1.112-1.498-1.112-1.498z" fill="#3366E0"/>
    <path d="M145.61 74.405c-2.479-2.338-6.562-2.638-9.362-.616-1.288.93-1.847 2.17-2.033 3.59 1.547 1.182 1.717-.887 2.361-3.04 2.301 1.882 5.79 1.898 8.025.232l.095 1.818c.093 1.768 1.282 1.968 2.345 1.035-.136-1.114-.544-2.183-1.431-3.02z" fill="#201E2F"/>
    <path d="M137.909 77.214c.292-.298.402-.663.248-.816-.155-.153-.517-.036-.809.262-.291.298-.402.664-.247.817.155.152.516.035.808-.263z" fill="#618AED"/>
    <path d="M149.093 78.133c-.973 1.43-1.357 2.217-1.651 2.806-.294.59.003.668.099 1.39.094.722.313.38.614-.84s.457-1.666.75-2.331c.293-.666.8-1.923.188-1.025z" fill="#1C4BBA"/>
    <path d="M150.587 92.989c-.558 1.499-2.037 4.993-2.037 4.993h-4.341c2.301-1.61 4.049-3.424 4.836-4.829.748-1.336.943-2.222 1.538-.666a.71.71 0 01.004.502zM149.786 97.982c2.087-2.48 2.77-3.326 3.332-3.649.561-.322 1.486-.806.482.726s-2.691 2.923-2.691 2.923h-1.123zM135.391 97.982c-1.621-1.96-2.732-3.886-3.152-4.949-.42-1.063-.552-1.328-.652-.73-.099.597-.33.865-.132 1.695.198.83.885 3.054 1.302 3.985h2.634v-.001zM128.725 97.985l-.641-.003c-.73-1.86-1.028-2.698-1.055-3.312-.026-.61.701 1.44 1.696 3.315zM131.38 98l-1.347-.006c-.352-2.687-.352-3.214-.27-3.97.082-.755.46-.103.734 1.256.269 1.358.883 2.72.883 2.72z" fill="#BA3B66"/>
    <path d="M125.979 92.731c1.192-1.94 2.48-2.893 4.051-3.746 1.572-.854 1.766-1.352.604-1.75-1.161-.395-2.139-.233-3.515.334-1.377.566-2.364.909-2.781 2.535-.418 1.626.167 2.605 1.641 2.627z" fill="#542113"/>
    <path d="M126.375 90.699c.745-3.13 1.25-5.49 1.73-7.619.479-2.128 1.014-3.372.185-3.752-.83-.38-1.258-.237-2.348 2.188-1.089 2.425-1.555 4.18-1.912 5.432-.358 1.255-1.538 4.691 2.345 3.75z" fill="#542113"/>
    <path d="M124.828 85.805l-.714-.112c.379-4.14.592-5.903.681-7.092.089-1.19-.401-1.213-1.151-1.251-.75-.038-1.026.284-1.362 1.84-.337 1.558-.729 4.25-.868 5.311-.139 1.06-.405 3.513-.385 4.298.018.785 3.798 1.137 3.799-2.995z" fill="#542113"/>
    <path d="M121.342 86.842c.116-1.615-.131-5.915-.15-6.713-.02-.798-.31-.72-.988-.74-.678-.019-.969.292-1.066 2.18-.097 1.887-.232 3.93-.213 4.884a9.58 9.58 0 00-.542 4.182c.135 1.5.329 1.907.6 2.374.271.467 1.899.992 3.991 1.206 2.092.214 2.271-.091 3.005-1.485.734-1.394-.642-5.111-.642-5.111l-3.995-.777z" fill="#542113"/>
    <path d="M118.52 91.715c-.308.716-.921 2.433-1.505 4.115a2.409 2.409 0 002.39 2.151h5.847c-.012-.184-.175-2.94.371-4.602 0 0-6.41-3.27-7.103-1.664z" fill="#542113"/>
    <path d="M125.623 88.487c-1.347.855-1.713 1.277-2.043 1.864-.332.587-.659.657-1.874.68-1.215.025-1.238.048-1.588-1.407-.35-1.454.171-2.071 1.495-2.017 1.752.07 4.82.424 4.01.88zM119.49 85.982h4.503c-1.393-.637-3.354-.558-4.503 0zM124.809 86.184c.664.25 1.985.808 1.985.808-.959-1.416-1.985-.808-1.985-.808zM125.535 83.144c.696.14 2.09.475 2.09.475-1.175-1.24-2.09-.475-2.09-.475zM122.135 82.16c.653.056 1.968.223 1.968.223-1.264-1.084-1.968-.224-1.968-.224zM119.377 83.163c.545-.071 1.651-.17 1.651-.17-1.24-.67-1.651.17-1.651.17z" fill="#4A1A0D"/>
    <path d="M131.259 87.567c-1.055.798-2.611.957-4.1 1.723-1.491.767-1.756 1.573-2.175 2.7-.264.71-.504 1.662-.646 2.268.87-.09 1.114-.527 1.641-1.528 1.192-1.94 2.48-2.893 4.051-3.747 1.168-.633 1.574-1.07 1.229-1.416z" fill="#732D1A"/>
    <path d="M125.623 93.38c.11-.184.224-.398.355-.649.072-.116.144-.23.217-.34l-.001.002c-.736.99-2.677 1.206-4.336 1.313-1.659.107-3.036-.417-3.339-1.989-.197.46-.892 2.227-1.519 3.88v2.385h8.251c-.011-.184-.174-2.94.372-4.603z" fill="#4A1A0D"/>
    <path d="M128.304 79.337c.092.293.131.7.021 1.223-.219 1.043-.7 3.06-1.745 7.23l.516-.199c.384-1.692.702-3.15 1.009-4.51.475-2.114 1.005-3.354.199-3.744zM124.795 78.6c-.09 1.184-.303 3.01-.682 7.102l-.307-.07.499-8.2c.355.109.547.384.49 1.169z" fill="#732D1A"/>
    <path d="M159.484 90.557l3.614-2.634c-1.143-.116-3.385 0-3.614 2.634z" fill="#44C9C5"/>
  </g>
  <defs>
    <clipPath id="clip0">
      <path fill="#fff" transform="translate(8 35)" d="M0 0h105v65H0z"/>
    </clipPath>
    <clipPath id="clip1">
      <path fill="#fff" transform="translate(117 39)" d="M0 0h49v28H0z"/>
    </clipPath>
    <clipPath id="clip2">
      <path fill="#fff" transform="translate(117 69)" d="M0 0h49v29H0z"/>
    </clipPath>
    <linearGradient id="paint0_linear" x1="139.235" y1="41.283" x2="143.956" y2="53.819" gradientUnits="userSpaceOnUse">
      <stop stop-color="#FFC285"/>
      <stop offset="1" stop-color="#DB8D6B"/>
    </linearGradient>
    <linearGradient id="paint1_linear" x1="155.762" y1="48.586" x2="128.257" y2="48.586" gradientUnits="userSpaceOnUse">
      <stop stop-color="#D67569"/>
      <stop offset="1" stop-color="#E39E7F"/>
    </linearGradient>
  </defs>
</svg>
