<svg width="136" height="104" viewBox="0 0 136 104" fill="none" xmlns="http://www.w3.org/2000/svg">
<path d="M78.9426 97.516C100.101 97.516 117.253 80.3638 117.253 59.2055C117.253 38.0472 100.101 20.895 78.9426 20.895C57.7843 20.895 40.6321 38.0472 40.6321 59.2055C40.6321 80.3638 57.7843 97.516 78.9426 97.516Z" fill="url(#paint0_linear_25_585)"/>
<path d="M78.9426 103.336C54.6044 103.336 34.8118 83.5437 34.8118 59.2055C34.8118 34.8673 54.6044 15.0746 78.9426 15.0746C103.281 15.0746 123.073 34.8673 123.073 59.2055C123.073 83.5437 103.281 103.336 78.9426 103.336ZM78.9426 17.8255C56.1308 17.8255 37.5626 36.3937 37.5626 59.2055C37.5626 82.0173 56.1308 100.585 78.9426 100.585C101.754 100.585 120.323 82.0173 120.323 59.2055C120.323 36.3937 101.754 17.8255 78.9426 17.8255Z" fill="#57F287"/>
<path d="M31.8261 50.1647C25.687 53.4858 31.4906 63.3653 35.9356 70.5779C40.3806 77.7905 50.042 82.2522 60.1564 76.6331L59.6197 61.5873C46.7712 51.5568 37.9484 46.8267 31.8261 50.1647Z" fill="url(#paint1_linear_25_585)"/>
<path d="M43.1482 59.3397C43.2961 59.3002 43.4228 59.2044 43.5012 59.0728C43.5795 58.9411 43.6033 58.7841 43.5675 58.6352C43.528 58.4872 43.4322 58.3605 43.3006 58.2822C43.169 58.2038 43.0119 58.18 42.863 58.2159C42.8127 58.2326 38.0658 59.3732 30.7191 61.0506C30.87 61.4028 31.0377 61.7718 31.2055 62.1241C38.4181 60.4635 43.0811 59.3397 43.1482 59.3397Z" fill="#4199F0"/>
<path d="M48.4988 61.8054C48.4485 61.839 43.9532 64.0363 35.0298 69.0851L35.6169 70.0579C44.49 65.0427 48.9517 62.8621 49.002 62.8454C49.0703 62.8123 49.1314 62.7662 49.1819 62.7095C49.2323 62.6528 49.2711 62.5868 49.296 62.5152C49.3209 62.4435 49.3315 62.3677 49.3271 62.2919C49.3227 62.2162 49.3035 62.1421 49.2704 62.0738C49.2374 62.0055 49.1912 61.9444 49.1345 61.894C49.0779 61.8435 49.0119 61.8047 48.9402 61.7798C48.8686 61.7549 48.7927 61.7443 48.717 61.7487C48.6412 61.7531 48.5671 61.7724 48.4988 61.8054Z" fill="#4199F0"/>
<path d="M41.2024 53.2845C41.2117 53.1314 41.1608 52.9808 41.0605 52.8648C40.9602 52.7488 40.8185 52.6767 40.6657 52.6639C40.6321 52.6639 37.0426 52.3619 30.0481 51.7245C29.8109 52.0648 29.6244 52.4377 29.4946 52.8316L40.5818 53.8045H40.6321C40.774 53.8013 40.9099 53.7469 41.0147 53.6513C41.1196 53.5557 41.1862 53.4254 41.2024 53.2845Z" fill="#4199F0"/>
<path d="M29.1759 57.6959C28.419 57.6959 27.6695 57.5466 26.9703 57.2564C26.2712 56.9662 25.6362 56.5409 25.1018 56.0049C24.5673 55.4689 24.1439 54.8327 23.8557 54.1327C23.5676 53.4327 23.4204 52.6828 23.4226 51.9259V46.2061C23.4226 45.9036 23.5428 45.6135 23.7567 45.3996C23.9706 45.1857 24.2607 45.0655 24.5632 45.0655C24.8657 45.0655 25.1558 45.1857 25.3697 45.3996C25.5836 45.6135 25.7038 45.9036 25.7038 46.2061V51.9259C25.7048 52.452 25.8247 52.971 26.0546 53.4442C26.2846 53.9174 26.6185 54.3324 27.0315 54.6583C27.4445 54.9842 27.9259 55.2124 28.4395 55.326C28.9532 55.4396 29.4859 55.4355 29.9978 55.3141L37.6129 53.5026C38.8238 53.2151 39.9019 52.5268 40.6723 51.5493C41.4426 50.5719 41.86 49.3628 41.8566 48.1183V41.8115C41.8906 41.5307 42.0263 41.272 42.238 41.0844C42.4496 40.8968 42.7227 40.7932 43.0056 40.7932C43.2885 40.7932 43.5615 40.8968 43.7732 41.0844C43.9849 41.272 44.1206 41.5307 44.1546 41.8115V48.1183C44.1593 49.8814 43.5665 51.594 42.473 52.9769C41.3794 54.3599 39.8496 55.3315 38.1329 55.7334L30.5178 57.545C30.0776 57.6457 29.6275 57.6964 29.1759 57.6959Z" fill="#1927BC"/>
<path d="M81.4586 15.7959C79.3787 16.0475 78.104 18.5132 81.4922 26.7825L83.6392 26.8999C85.8029 18.2951 83.5218 15.5443 81.4586 15.7959Z" fill="white"/>
<path d="M92.9316 23.2265C100.027 15.712 97.6617 12.0554 94.2567 11.8373C90.0298 11.569 84.5449 15.2088 82.834 24.9374L93.5019 33.257C97.4605 32.6364 101.352 31.7809 104.052 29.9862C106.485 28.3424 106.166 24.5851 103.465 23.411C101.067 22.3878 97.5779 22.0859 92.9316 23.2265Z" fill="white"/>
<path d="M94.4916 64.6401C94.4916 64.6401 95.8167 61.3693 99.8423 49.0744C103.214 38.7755 98.3327 26.2793 82.7334 25.1219C72.7197 24.3671 66.0942 29.5837 60.8777 48.655C59.2557 54.4914 56.193 59.8266 51.971 64.1704C47.8615 68.3973 45.9661 73.53 45.9158 78.6291C49.67 85.0054 55.1897 90.1586 61.8084 93.4667C68.4272 96.7747 75.862 98.0962 83.2153 97.2714C90.5686 96.4467 97.526 93.5111 103.247 88.819C108.969 84.1269 113.21 77.879 115.458 70.8295C115.525 70.4437 115.542 70.2424 115.542 70.2424C115.542 70.2424 105.998 67.3071 94.4916 64.6401Z" fill="#66BCFF"/>
<path d="M80.838 47.6486C82.6831 44.6126 82.3812 40.3522 75.3196 31.9823C67.9896 23.3104 60.4583 19.6538 55.4766 23.5285C50.4949 27.4031 56.5501 35.7395 61.6325 41.8115C53.2625 46.7093 51.8703 50.4666 53.1954 54.2909C54.5205 58.1152 60.2571 58.8029 65.44 57.3437C70.623 55.8844 78.4227 51.6575 80.838 47.6486Z" fill="#FFE75C"/>
<path d="M72.988 43.2372C67.4696 34.6492 61.9847 31.0094 59.9383 30.1372C57.892 29.265 56.8688 30.5565 57.7913 32.6532C58.7139 34.7499 62.2195 39.4632 64.3665 42.2476C60.0557 45.2836 56.8017 47.2461 56.7849 49.8795C56.7514 52.2278 61.3808 51.4562 64.9032 49.175C67.6876 47.3635 71.3107 44.7636 72.988 43.2372Z" fill="#FF962A"/>
<path d="M91.2543 64.1536C123.375 46.3403 129.548 44.2771 133.507 54.1567C137.465 64.0362 136.459 74.3518 125.875 82.6882C115.291 91.0246 111.231 87.4016 100.312 82.6379C86.9771 76.8343 85.4843 67.3573 91.2543 64.1536Z" fill="url(#paint2_linear_25_585)"/>
<path d="M54.2689 35.8066L21.1414 3.06487C20.0344 1.94105 18.7596 1.23657 17.3674 1.03529C10.809 0.129523 3.91512 10.8645 1.9694 25.0045C0.0236846 39.1445 3.74738 51.3555 10.3058 52.2613C11.0515 52.3501 11.807 52.3046 12.5366 52.1271L53.0948 42.4824C53.8831 42.2811 54.6379 40.9392 54.856 39.2451C55.074 37.551 54.8056 36.3936 54.2689 35.8066Z" fill="white"/>
<path d="M23.1671 27.9168C24.985 14.6454 22.0095 3.2774 16.5211 2.52558C11.0326 1.77376 5.10965 11.9229 3.29169 25.1942C1.47374 38.4656 4.44926 49.8337 9.9377 50.5855C15.4261 51.3373 21.3491 41.1882 23.1671 27.9168Z" fill="#7196FF"/>
<path d="M23.3723 14.5043L23.0872 14.454C19.0615 13.9005 14.885 19.9221 13.7947 27.923C12.738 35.5717 14.8682 42.2475 18.6087 43.2875C20.6886 39.2786 22.3491 33.9279 23.1878 27.9398C23.8587 23.0588 23.8755 18.4293 23.3723 14.5043Z" fill="black"/>
<path d="M86.7758 39.8992C86.7926 39.0941 87.4635 38.44 88.1512 38.1716C88.8075 37.9371 89.5163 37.8906 90.1976 38.0374C90.8406 38.158 91.4483 38.4217 91.9756 38.809C92.5036 39.1664 92.9264 39.6587 93.2 40.2347C93.2338 40.3051 93.2533 40.3815 93.2572 40.4594C93.2612 40.5374 93.2495 40.6154 93.223 40.6888C93.1964 40.7622 93.1555 40.8295 93.1026 40.887C93.0497 40.9444 92.9859 40.9906 92.9149 41.0231C92.8299 41.0636 92.7361 41.0817 92.6421 41.0759C92.5482 41.07 92.4574 41.0403 92.3781 40.9895L92.3278 40.956C91.5896 40.5044 90.7574 40.229 89.8957 40.1508C89.5365 40.1202 89.1747 40.1428 88.8222 40.2179C88.4707 40.2652 88.1231 40.3381 87.7822 40.436L87.5474 40.5031C87.3939 40.5456 87.23 40.5276 87.0895 40.4526C86.949 40.3777 86.8427 40.2516 86.7926 40.1005C86.7787 40.0344 86.7731 39.9668 86.7758 39.8992Z" fill="black"/>
<path d="M91.2543 45.0487C91.1671 45.0494 91.081 45.0301 91.0025 44.9923C90.924 44.9545 90.8552 44.8992 90.8014 44.8307C89.6105 43.2708 88.4867 42.2811 86.021 41.4928C85.9494 41.4696 85.883 41.4326 85.8258 41.3839C85.7685 41.3351 85.7213 41.2755 85.6871 41.2086C85.6528 41.1416 85.6321 41.0685 85.626 40.9935C85.62 40.9185 85.6288 40.8431 85.6519 40.7715C85.6751 40.6999 85.7121 40.6336 85.7608 40.5763C85.8096 40.519 85.8692 40.4719 85.9362 40.4376C86.0031 40.4034 86.0762 40.3826 86.1512 40.3766C86.2262 40.3706 86.3016 40.3794 86.3732 40.4025C89.124 41.2915 90.3988 42.4321 91.7071 44.1262C91.7972 44.2476 91.8371 44.399 91.8183 44.5489C91.7996 44.6989 91.7237 44.8359 91.6065 44.9313C91.5049 45.0075 91.3813 45.0487 91.2543 45.0487Z" fill="#339AFF"/>
<path d="M117.253 58.6352H117.37C117.438 58.6184 124.147 57.2933 134.127 55.8843C134.01 55.5321 133.875 55.1631 133.741 54.7941C123.845 56.1863 117.22 57.4946 117.136 57.5114C116.984 57.5269 116.846 57.6019 116.75 57.7199C116.654 57.8379 116.608 57.9891 116.624 58.1404C116.64 58.2916 116.715 58.4305 116.833 58.5264C116.951 58.6224 117.102 58.6675 117.253 58.652V58.6352Z" fill="#66BCFF"/>
<path d="M96.4708 72.4733C96.4499 72.3202 96.3695 72.1815 96.2471 72.0873C96.1246 71.9931 95.9699 71.951 95.8166 71.9701C95.668 71.9909 95.5336 72.0695 95.4425 72.1888C95.3514 72.3082 95.3111 72.4586 95.3302 72.6075C95.3302 72.6578 95.7495 75.9621 96.2527 80.5413L97.4772 81.2458C96.9405 76.2473 96.4708 72.5068 96.4708 72.4733Z" fill="#66BCFF"/>
<path d="M101.922 69.3702C101.822 69.258 101.683 69.1886 101.533 69.1761C101.383 69.1636 101.234 69.2091 101.117 69.3031C101.058 69.3501 101.009 69.4088 100.973 69.4755C100.937 69.5423 100.915 69.6156 100.909 69.6911C100.903 69.7666 100.912 69.8425 100.936 69.9143C100.96 69.986 100.999 70.052 101.05 70.1082C101.117 70.2088 108.011 78.4614 113.949 87.6364C114.407 87.67 114.866 87.67 115.324 87.6364C109.235 78.1594 102.006 69.4708 101.922 69.3702Z" fill="#66BCFF"/>
<path d="M129.464 79.4007C121.446 73.5468 110.477 67.5419 110.359 67.458C110.223 67.3861 110.064 67.3703 109.917 67.4143C109.77 67.4582 109.645 67.5582 109.571 67.6928C109.533 67.7584 109.51 67.8309 109.501 67.906C109.493 67.9811 109.499 68.0571 109.521 68.1294C109.543 68.2017 109.58 68.2687 109.629 68.3263C109.678 68.3839 109.738 68.4309 109.806 68.4644C109.923 68.5483 120.725 74.4525 128.659 80.2393C128.944 79.9542 129.213 79.6858 129.464 79.4007Z" fill="#66BCFF"/>
<path d="M114.485 63.5834C114.337 63.5833 114.194 63.6411 114.088 63.7444C113.982 63.8478 113.92 63.9886 113.915 64.1369C113.911 64.2124 113.921 64.288 113.947 64.359C113.973 64.4301 114.013 64.4952 114.065 64.5502C114.117 64.6052 114.179 64.649 114.249 64.6789C114.318 64.7088 114.393 64.7241 114.469 64.724C114.586 64.724 124.164 64.9085 135.586 65.8478L135.637 64.6904C124.18 63.7511 114.603 63.5834 114.485 63.5834Z" fill="#66BCFF"/>
<path d="M95.3134 80.8096C95.2077 80.8053 95.1044 80.7766 95.0115 80.7258C92.831 79.3336 90.1305 77.3711 88.5034 74.3519C88.4309 74.2204 88.4132 74.0657 88.454 73.9213C88.4948 73.7768 88.5909 73.6543 88.7215 73.5803C88.8555 73.507 89.0127 73.4887 89.1599 73.5294C89.3071 73.5701 89.4326 73.6666 89.5099 73.7983C91.0195 76.5827 93.569 78.4446 95.6321 79.7529C95.6967 79.7921 95.7525 79.8441 95.7962 79.9056C95.8399 79.9672 95.8706 80.037 95.8863 80.1109C95.902 80.1847 95.9024 80.261 95.8876 80.335C95.8727 80.409 95.8429 80.4792 95.7999 80.5413C95.7484 80.6237 95.6767 80.6917 95.5916 80.7387C95.5064 80.7856 95.4107 80.8101 95.3134 80.8096Z" fill="black"/>
<path d="M59.4351 71.9868C59.3717 71.9917 59.3082 71.9802 59.2506 71.9533C59.1696 71.929 59.0955 71.886 59.0343 71.8277C58.9731 71.7694 58.9265 71.6975 58.8984 71.6178C58.6132 70.8798 58.479 69.756 58.5293 68.4979C57.5984 68.8413 56.6956 69.2562 55.8288 69.7392C55.754 69.7845 55.67 69.8126 55.5829 69.8213C55.4959 69.83 55.4079 69.8191 55.3256 69.7895C55.2489 69.7564 55.1796 69.7081 55.1219 69.6476C55.0643 69.5871 55.0195 69.5155 54.9902 69.4373C54.6715 68.4979 54.3192 66.4516 55.0069 64.7742C55.0356 64.7049 55.0776 64.6418 55.1306 64.5887C55.1836 64.5355 55.2466 64.4933 55.3159 64.4645C55.3852 64.4357 55.4595 64.4208 55.5345 64.4207C55.6096 64.4206 55.684 64.4353 55.7533 64.4639C55.8227 64.4926 55.8858 64.5346 55.9389 64.5876C55.9921 64.6406 56.0343 64.7036 56.0631 64.7729C56.0919 64.8422 56.1068 64.9165 56.1069 64.9916C56.107 65.0666 56.0923 65.141 56.0637 65.2104C55.6443 66.2503 55.7282 67.5251 55.8959 68.3973C56.888 67.8885 57.9202 67.4621 58.9822 67.1225C59.0697 67.0893 59.1647 67.0811 59.2565 67.0989C59.3484 67.1167 59.4335 67.1597 59.5022 67.2232C59.5766 67.2793 59.6355 67.3534 59.6736 67.4384C59.7118 67.5234 59.7278 67.6167 59.7203 67.7096C59.6225 68.6652 59.6507 69.6296 59.8041 70.5778C60.8969 70.0168 62.0507 69.5834 63.2427 69.2863C63.3165 69.269 63.393 69.2666 63.4678 69.2793C63.5426 69.2919 63.6141 69.3194 63.6781 69.36C63.7421 69.4006 63.7974 69.4535 63.8407 69.5158C63.8841 69.578 63.9145 69.6483 63.9304 69.7224C63.9614 69.8689 63.9352 70.0217 63.8573 70.1495C63.7793 70.2774 63.6555 70.3706 63.511 70.4101C62.1866 70.7446 60.9121 71.2522 59.7203 71.9197C59.633 71.9673 59.5345 71.9905 59.4351 71.9868Z" fill="#4FA8FF"/>
<path d="M72.9042 69.3031H72.8371C72.7569 69.2956 72.6794 69.2707 72.6099 69.2301C72.5403 69.1896 72.4805 69.1343 72.4345 69.0683C71.7332 67.9458 71.3559 66.6513 71.3442 65.3278C71.3486 65.175 71.4124 65.03 71.522 64.9235C71.6316 64.817 71.7785 64.7574 71.9313 64.7575C72.0826 64.7575 72.2276 64.8176 72.3346 64.9245C72.4415 65.0315 72.5016 65.1766 72.5016 65.3278C72.5092 66.2103 72.7095 67.0804 73.0887 67.8774C74.0448 67.2064 75.2189 66.6697 76.0911 66.5019C76.1661 66.4875 76.2433 66.4883 76.318 66.5042C76.3927 66.5202 76.4634 66.5509 76.526 66.5947C76.5886 66.6385 76.6417 66.6945 76.6823 66.7592C76.7228 66.824 76.7499 66.8962 76.762 66.9716C76.7866 67.1226 76.7513 67.2772 76.6635 67.4025C76.5758 67.5278 76.4427 67.6139 76.2924 67.6425C75.5544 67.7599 74.2796 68.347 73.2732 69.1857C73.167 69.2654 73.0369 69.3068 72.9042 69.3031Z" fill="#4FA8FF"/>
<path d="M61.6996 50.7349C62.8233 50.3384 63.8982 49.8151 64.9033 49.175C67.6877 47.3634 71.3107 44.7636 72.9881 43.2372C72.2836 42.1469 71.5959 41.1405 70.8914 40.218C69.6878 40.7486 68.5507 41.4185 67.5032 42.214C64.0982 44.7636 61.297 48.5711 61.6996 50.7349Z" fill="#FF5D12"/>
<path d="M15.9752 2.49457C16.1664 2.49464 16.3573 2.51148 16.5455 2.54489C22.0472 3.29969 25.0161 14.6721 23.1878 27.9398C21.4266 40.7379 15.841 50.6343 10.5071 50.6343C10.3159 50.6342 10.1251 50.6174 9.9368 50.5839C4.45189 49.8291 1.483 38.4568 3.3113 25.189C5.07251 12.3909 10.6581 2.51134 15.9752 2.49457ZM15.9752 1.58881C10.071 1.58881 4.23384 11.6864 2.38876 25.0716C0.476596 39.0438 3.73064 50.6678 9.80261 51.5065L10.5071 51.54C16.4113 51.54 22.2485 41.4424 24.0936 28.0572C26.0225 14.085 22.7685 2.4778 16.6797 1.63913C16.4464 1.60571 16.211 1.58889 15.9752 1.58881Z" fill="white"/>
<defs>
<linearGradient id="paint0_linear_25_585" x1="97.9771" y1="76.0678" x2="59.3228" y2="41.8316" gradientUnits="userSpaceOnUse">
<stop stop-color="#EB459F"/>
<stop offset="1" stop-color="#FF78B9"/>
</linearGradient>
<linearGradient id="paint1_linear_25_585" x1="37.42" y1="50.7937" x2="51.134" y2="71.0375" gradientUnits="userSpaceOnUse">
<stop stop-color="#66BCFF"/>
<stop offset="0.3" stop-color="#60B7FD"/>
<stop offset="0.69" stop-color="#51A9F8"/>
<stop offset="1" stop-color="#3F99F2"/>
</linearGradient>
<linearGradient id="paint2_linear_25_585" x1="86.7389" y1="67.9679" x2="137.675" y2="67.9679" gradientUnits="userSpaceOnUse">
<stop stop-color="#66BCFF"/>
<stop offset="1" stop-color="#8CD9FF"/>
</linearGradient>
</defs>
</svg>
