<svg width="748" height="316" viewBox="0 0 748 316" fill="none" xmlns="http://www.w3.org/2000/svg">
<g clip-path="url(#clip0_313_39055)">
<path opacity="0.41" d="M668.294 135.466C667.811 135.002 667.237 134.633 666.605 134.381C665.973 134.13 665.296 134 664.611 134C663.927 134 663.249 134.13 662.617 134.381C661.985 134.633 661.411 135.002 660.928 135.466C660.36 136.004 659.933 136.664 659.682 137.391C659.306 136.78 658.798 136.252 658.192 135.844C657.587 135.436 656.897 135.156 656.17 135.023C655.442 134.891 654.694 134.908 653.974 135.075C653.254 135.242 652.58 135.554 651.996 135.991C651.412 136.427 650.932 136.978 650.587 137.607C650.243 138.235 650.043 138.927 649.999 139.636C649.956 140.344 650.071 141.054 650.337 141.717C650.602 142.379 651.012 142.98 651.539 143.479C651.84 143.769 652.176 144.025 652.539 144.24C651.7 144.512 650.948 144.984 650.352 145.613C649.757 146.241 649.339 147.004 649.137 147.831C648.935 148.657 648.957 149.519 649.199 150.336C649.442 151.152 649.897 151.896 650.523 152.496C651.362 153.297 652.46 153.801 653.637 153.924C654.814 154.047 656 153.782 656.999 153.173C657.024 153.891 657.21 154.595 657.545 155.238C657.88 155.881 658.355 156.446 658.938 156.897C659.522 157.347 660.2 157.671 660.926 157.847C661.652 158.024 662.41 158.048 663.146 157.917C663.883 157.787 664.582 157.506 665.195 157.094C665.808 156.681 666.321 156.146 666.699 155.526C667.077 154.906 667.311 154.215 667.385 153.501C667.459 152.786 667.371 152.064 667.127 151.385C667.835 151.614 668.585 151.695 669.327 151.621C670.07 151.548 670.787 151.322 671.431 150.96C672.074 150.597 672.629 150.106 673.057 149.52C673.486 148.934 673.778 148.267 673.913 147.563C674.049 146.859 674.025 146.136 673.844 145.442C673.662 144.748 673.327 144.099 672.861 143.54C672.395 142.981 671.809 142.524 671.143 142.201C670.477 141.878 669.746 141.696 669.001 141.668C669.636 140.711 669.913 139.576 669.785 138.448C669.656 137.321 669.13 136.269 668.294 135.466Z" fill="#FFCDF9"/>
<path opacity="0.8" d="M717.499 156.029L716.006 159.88C716.001 159.896 716.001 159.914 716.005 159.93C716.009 159.946 716.017 159.961 716.029 159.973C716.041 159.985 716.056 159.993 716.072 159.997C716.088 160.001 716.105 160.001 716.122 159.996L719.969 158.502C719.989 158.494 720.011 158.494 720.031 158.502L723.878 159.996C723.895 160.001 723.912 160.001 723.928 159.997C723.944 159.993 723.959 159.985 723.971 159.973C723.983 159.961 723.991 159.946 723.995 159.93C723.999 159.914 723.999 159.896 723.994 159.88L722.501 156.029C722.493 156.009 722.493 155.987 722.501 155.968L723.994 152.116C724 152.1 724.002 152.083 723.998 152.066C723.994 152.05 723.986 152.034 723.973 152.023C723.961 152.011 723.945 152.004 723.928 152.001C723.911 151.998 723.894 152.001 723.878 152.008L720.031 153.503C720.011 153.51 719.989 153.51 719.969 153.503L716.122 152.008C716.106 152.001 716.089 151.998 716.072 152.001C716.055 152.004 716.039 152.011 716.027 152.023C716.014 152.034 716.006 152.05 716.002 152.066C715.998 152.083 716 152.1 716.006 152.116L717.499 155.968C717.507 155.987 717.507 156.009 717.499 156.029Z" fill="white"/>
<path d="M518.429 280.571H669.214C673.857 280.571 678.286 282.428 681.571 285.714C684.857 289 686.714 293.428 686.714 298.071V323.286H501V298.071C501 293.428 502.857 289 506.143 285.714C509.357 282.428 513.857 280.571 518.429 280.571Z" fill="#2C303D"/>
<path d="M627.071 323.286V307.786C627.071 305.929 626.714 304 626 302.286C625.286 300.572 624.214 298.929 622.857 297.643C621.5 296.286 619.929 295.286 618.214 294.5C616.5 293.786 614.571 293.429 612.714 293.429L562 293.5C560.143 293.5 558.214 293.857 556.5 294.572C554.786 295.286 553.143 296.357 551.857 297.714C550.5 299.072 549.5 300.643 548.714 302.357C548 304.072 547.643 306 547.643 307.857V323.286H627.071Z" fill="#6A94FF"/>
<path d="M640.571 323.286V314C640.571 313.143 640.429 312.357 640.071 311.572C639.786 310.786 639.286 310.072 638.714 309.5C638.143 308.929 637.429 308.429 636.643 308.143C635.857 307.857 635.071 307.643 634.214 307.643H621.357V323.286H640.571Z" fill="#6A94FF"/>
<path d="M554.143 323.286V307.714H541.357C539.643 307.714 538.071 308.429 536.857 309.643C535.643 310.857 535 312.5 535 314.143V323.286H554.143Z" fill="#6A94FF"/>
<path d="M616.357 320C618.714 320 620.643 318.072 620.643 315.714C620.643 313.357 618.714 311.429 616.357 311.429C614 311.429 612.072 313.357 612.072 315.714C612.072 318.072 614 320 616.357 320Z" fill="#202225"/>
<path d="M559.786 320.428C562.143 320.428 564.071 318.5 564.071 316.143C564.071 313.786 562.143 311.857 559.786 311.857C557.429 311.857 555.5 313.786 555.5 316.143C555.5 318.5 557.429 320.428 559.786 320.428Z" fill="#202225"/>
<path d="M569.571 323.286H607.572C607.643 322.786 607.643 322.357 607.643 321.857V310.643C607.643 310.071 607.5 309.429 607.286 308.857C607.071 308.286 606.714 307.786 606.286 307.357C605.857 306.929 605.357 306.571 604.786 306.357C604.214 306.143 603.643 306 603 306L573.857 306.071C573.286 306.071 572.643 306.214 572.071 306.429C571.5 306.643 571 307 570.571 307.429C570.143 307.857 569.786 308.357 569.571 308.929C569.357 309.5 569.214 310.071 569.214 310.714V321C569.286 321.714 569.357 322.5 569.571 323.286Z" fill="#A9C7FF"/>
<path d="M636.214 323.286V315.643C636.214 314.786 635.857 314 635.286 313.357C634.714 312.786 633.857 312.429 633 312.429H626.572V323.286H636.214Z" fill="#A9C7FF"/>
<path d="M548.929 323.286V312.5H542.5C541.643 312.5 540.857 312.857 540.214 313.429C539.643 314 539.286 314.857 539.286 315.714V323.286H548.929Z" fill="#A9C7FF"/>
<path d="M664 323.286L666.072 318.143C667.714 314.143 665.786 309.572 661.786 307.929C657.786 306.286 653.214 308.215 651.572 312.215L647.072 323.286H664Z" fill="#6A94FF"/>
<path opacity="0.33" d="M669.286 280.571H521V284C521 288.643 522.857 293.071 526.143 296.357C529.429 299.643 533.857 301.5 538.5 301.5H686.786V298.071C686.786 293.428 684.929 289 681.643 285.714C678.357 282.428 673.857 280.571 669.286 280.571Z" fill="#281D33"/>
<path d="M709.143 166.286H748.5V251.428H709.143C704.5 251.428 700.071 249.571 696.786 246.286C693.5 243 691.643 238.571 691.643 233.928V183.643C691.643 179 693.5 174.571 696.786 171.286C700.071 168.143 704.571 166.286 709.143 166.286Z" fill="#62687D"/>
<path d="M642.357 188.857H748.5V274H642.357C637.714 274 633.286 272.143 630 268.857C626.714 265.571 624.857 261.143 624.857 256.5V206.214C624.857 201.571 626.714 197.143 630 193.857C633.286 190.643 637.786 188.857 642.357 188.857Z" fill="#505566"/>
<path d="M694.643 211.714H543.786C534.143 211.714 526.357 219.5 526.357 229.143V279.429C526.357 289.072 534.143 296.857 543.786 296.857H694.571C704.214 296.857 712 289.072 712 279.429V229.143C712.071 219.5 704.286 211.714 694.643 211.714Z" fill="#3C3F4D"/>
<path opacity="0.22" d="M664.571 228.286C660.571 228.286 656.643 229.071 653 230.571C649.357 232.071 646 234.286 643.143 237.143C637.714 231.714 630.357 228.571 622.714 228.286C615 228.071 607.5 230.714 601.714 235.786C597.357 231.929 591.929 229.429 586.143 228.571C580.357 227.714 574.5 228.571 569.143 230.929C563.857 233.357 559.286 237.214 556.143 242.143C553 247.071 551.286 252.786 551.286 258.571C551.286 264.357 553 270.143 556.143 275C559.286 279.929 563.786 283.786 569.143 286.214C574.429 288.643 580.357 289.429 586.143 288.571C591.929 287.714 597.286 285.214 601.714 281.357C607.5 286.429 615 289.143 622.714 288.857C630.429 288.643 637.714 285.429 643.143 280C646.643 283.5 651 286.143 655.786 287.571C660.571 289 665.643 289.286 670.5 288.286C675.428 287.286 680 285.143 683.857 282C687.714 278.857 690.714 274.786 692.643 270.143C694.571 265.5 695.286 260.5 694.786 255.571C694.286 250.571 692.571 245.857 689.786 241.714C687 237.571 683.286 234.143 678.857 231.786C674.5 229.5 669.571 228.286 664.571 228.286Z" fill="#281D33"/>
<path d="M578.857 284.714C595.643 284.714 609.214 271.143 609.214 254.357C609.214 237.571 595.643 224 578.857 224C562.071 224 548.5 237.571 548.5 254.357C548.5 271.143 562.071 284.714 578.857 284.714Z" fill="#F0417D"/>
<path d="M592.286 242.071C589.786 240.928 587.071 240.071 584.214 239.571C583.857 240.214 583.5 241.071 583.214 241.643C580.214 241.143 577.286 241.143 574.286 241.643C574.071 241 573.571 240.143 573.286 239.571C570.428 240.071 567.714 240.928 565.214 242.071C560.143 249.643 558.786 256.928 559.357 264.143C562.714 266.643 566.071 268.143 569.286 269.071C570 267.928 570.786 266.857 571.357 265.714C570.214 265.357 569.143 264.714 568 264.071C568.214 263.857 568.5 263.714 568.857 263.428C575.286 266.428 582.214 266.428 588.571 263.428C588.786 263.643 589.071 263.786 589.428 264.071C588.286 264.714 587.357 265.214 586.071 265.714C586.714 266.928 587.428 268.071 588.143 269.071C591.357 268.071 594.571 266.571 598.071 264.143C598.857 255.857 596.643 248.5 592.286 242.071ZM572.214 259.714C570.214 259.714 568.714 258 568.714 255.857C568.714 253.786 570.214 252 572.214 252C574.214 252 575.786 253.714 575.714 255.857C575.857 257.928 574.214 259.714 572.214 259.714ZM585.286 259.714C583.286 259.714 581.786 258 581.786 255.857C581.786 253.786 583.286 252 585.286 252C587.286 252 588.857 253.714 588.786 255.857C588.714 257.928 587.214 259.714 585.286 259.714Z" fill="white"/>
<path d="M620.286 284.714C637.071 284.714 650.643 271.143 650.643 254.357C650.643 237.571 637.071 224 620.286 224C603.5 224 589.928 237.571 589.928 254.357C589.928 271.143 603.5 284.714 620.286 284.714Z" fill="#FB5FDC"/>
<path d="M633.714 242.071C631.214 240.928 628.5 240.071 625.643 239.571C625.286 240.214 624.929 241.071 624.643 241.643C621.643 241.143 618.714 241.143 615.714 241.643C615.5 241 615 240.143 614.714 239.571C611.857 240.071 609.143 240.928 606.643 242.071C601.571 249.643 600.214 256.928 600.786 264.143C604.143 266.643 607.5 268.143 610.714 269.071C611.429 267.928 612.214 266.857 612.786 265.714C611.643 265.357 610.571 264.714 609.429 264.071C609.643 263.857 609.929 263.714 610.286 263.428C616.714 266.428 623.643 266.428 630 263.428C630.214 263.643 630.5 263.786 630.857 264.071C629.714 264.714 628.786 265.214 627.5 265.714C628.143 266.928 628.857 268.071 629.571 269.071C632.786 268.071 636 266.571 639.5 264.143C640.286 255.857 638.071 248.5 633.714 242.071ZM613.643 259.714C611.643 259.714 610.143 258 610.143 255.857C610.143 253.786 611.643 252 613.643 252C615.643 252 617.214 253.714 617.143 255.857C617.286 257.928 615.643 259.714 613.643 259.714ZM626.714 259.714C624.714 259.714 623.214 258 623.214 255.857C623.214 253.786 624.714 252 626.714 252C628.714 252 630.286 253.714 630.214 255.857C630.143 257.928 628.643 259.714 626.714 259.714Z" fill="white"/>
<path d="M661.714 284.714C678.5 284.714 692.071 271.143 692.071 254.357C692.071 237.571 678.5 224 661.714 224C644.929 224 631.357 237.571 631.357 254.357C631.357 271.143 644.929 284.714 661.714 284.714Z" fill="#6A94FF"/>
<path d="M705.5 231.5C707.571 229.714 709.214 227.429 710.286 224.857C711.286 222.286 711.714 219.5 711.429 216.786C711.143 214.071 710.214 211.429 708.714 209.071C707.214 206.786 705.143 204.857 702.714 203.571C700.286 202.214 697.571 201.5 694.857 201.5C692.071 201.429 689.357 202.071 686.929 203.286C684.429 204.5 682.357 206.357 680.714 208.571C679.143 210.786 678.071 213.429 677.714 216.143C677.571 217.357 676.929 218.5 676.071 219.357C675.143 220.214 674 220.714 672.714 220.786C671.286 220.857 669.929 221.143 669.071 221.857C668.429 222.357 667.929 223 667.571 223.714C667.214 224.429 667 225.214 666.929 226.071C666.857 226.929 666.929 227.714 667.214 228.5C667.429 229.286 667.857 230 668.357 230.643C686.286 251.857 705.5 231.5 705.5 231.5Z" fill="#F7E080"/>
<path d="M705.643 217.571C711.143 217.571 715.643 213.071 715.643 207.571C715.643 202.071 711.143 197.571 705.643 197.571C700.143 197.571 695.643 202.071 695.643 207.571C695.643 213.071 700.143 217.571 705.643 217.571Z" fill="#ED8700"/>
<path d="M748.5 138L699.786 196.786C698.786 198 698 199.357 697.571 200.857C697.143 202.357 696.929 203.929 697.143 205.5C697.286 207.071 697.786 208.571 698.5 209.929C699.286 211.286 700.286 212.5 701.5 213.5C702.714 214.5 704.143 215.214 705.643 215.571C707.143 216 708.714 216.071 710.286 215.929C711.857 215.714 713.357 215.214 714.643 214.429C716 213.643 717.143 212.571 718.072 211.357L748.429 171.071V138H748.5Z" fill="#FFB300"/>
<path d="M706.929 297.215C706.857 299.143 706.072 301 704.643 302.357C703.214 303.715 701.357 304.5 699.429 304.5C697.5 304.5 695.572 303.715 694.214 302.357C692.786 301 692 299.143 691.929 297.215C691.929 294.357 695.5 286.429 697.714 281.714C697.857 281.357 698.143 281.072 698.429 280.929C698.714 280.715 699.072 280.643 699.5 280.643C699.929 280.643 700.214 280.715 700.572 280.929C700.857 281.143 701.143 281.429 701.286 281.714C703.357 286.429 706.929 294.357 706.929 297.215Z" fill="#225FF0"/>
<path opacity="0.35" d="M704.929 223.286C700.643 226.357 689.571 226.571 687.071 231.143C686.214 232.714 688.214 231.5 687.714 233.214C687.429 234.286 687.214 235.286 687.071 236.428C687.786 237.714 688.571 238.928 689.429 240.071C698.714 238.714 705.571 231.5 705.571 231.5C708.071 229.357 709.857 226.643 710.857 223.5C711.786 220.357 711.857 217.071 710.929 213.928C707.214 213.857 709.929 219.714 704.929 223.286Z" fill="#F79400"/>
<path d="M697.786 237.214C697.572 235.786 697 234.429 696 233.357C695.072 232.286 693.786 231.5 692.357 231.214C694.714 228.643 695.5 225.286 693.929 222.857C692.214 220.214 688.286 219.643 684.643 221.357C685 219.5 684.572 217.643 683.5 216.143C682.429 214.571 680.857 213.5 679.071 213.143C678.857 213.071 678.571 213.071 678.357 213C678 214.071 677.786 215.143 677.572 216.214C677.429 217.429 676.786 218.571 675.929 219.429C675 220.286 673.857 220.786 672.572 220.857C671.143 220.929 669.786 221.214 668.929 221.929C668.286 222.429 667.786 223.071 667.429 223.786C667.072 224.5 666.857 225.286 666.786 226.143C666.714 226.929 666.786 227.786 667.072 228.571C667.357 229.357 667.714 230.071 668.214 230.714C679.143 243.429 690.5 241.071 697.786 237.214Z" fill="#356DF0"/>
<path opacity="0.35" d="M718.143 211.286L748.5 171V155.714L700.786 212.786C701 213 701.286 213.214 701.5 213.429C702.714 214.429 704.143 215.143 705.643 215.572C707.143 216 708.714 216.072 710.286 215.929C711.857 215.714 713.357 215.214 714.714 214.429C716 213.643 717.143 212.572 718.143 211.286Z" fill="#F79400"/>
<path d="M697.643 281.714C695.429 286.428 691.857 294.357 691.857 297.214C691.857 297.928 692 298.643 692.214 299.357C692.714 300.071 693.429 300.714 694.214 301.143C695 301.571 695.857 301.857 696.786 301.857C700.929 301.857 704.286 296.428 704.286 289.714C704.286 289.286 704.286 288.857 704.286 288.5C703.286 286.071 702.143 283.643 701.214 281.714C701.071 281.357 700.786 281.071 700.5 280.857C700.214 280.643 699.786 280.571 699.429 280.571C699.071 280.571 698.714 280.714 698.357 280.857C698 281.071 697.786 281.357 697.643 281.714Z" fill="#356DF0"/>
<path d="M697.786 287.071C698.214 285.929 698.214 284.929 697.857 284.786C697.5 284.643 696.857 285.429 696.429 286.572C696 287.714 696 288.714 696.357 288.857C696.714 289 697.357 288.214 697.786 287.071Z" fill="#92AEF0"/>
<path d="M676.357 237.572C684.5 242.214 692.286 240.143 697.786 237.214C697.571 235.786 697 234.429 696 233.357C695.071 232.286 693.786 231.5 692.357 231.214C693.571 230 694.357 228.429 694.643 226.714C692.286 227.071 689.929 227.714 687.714 228.643C683.214 230.5 679.214 233.572 676.357 237.572Z" fill="#2964F0"/>
<path d="M675.143 242.071C672.643 240.928 669.929 240.071 667.071 239.571C666.714 240.214 666.357 241.071 666.071 241.643C663.071 241.143 660.143 241.143 657.143 241.643C656.928 241 656.429 240.143 656.143 239.571C653.286 240.071 650.571 240.928 648.071 242.071C643 249.643 641.643 256.928 642.214 264.143C645.571 266.643 648.928 268.143 652.143 269.071C652.857 267.928 653.643 266.857 654.214 265.714C653.071 265.357 652 264.714 650.857 264.071C651.071 263.857 651.357 263.714 651.714 263.428C658.143 266.428 665.071 266.428 671.428 263.428C671.643 263.643 671.929 263.786 672.286 264.071C671.143 264.714 670.214 265.214 668.928 265.714C669.571 266.928 670.286 268.071 671 269.071C674.214 268.071 677.429 266.571 680.929 264.143C681.714 255.857 679.5 248.5 675.143 242.071ZM655.071 259.714C653.071 259.714 651.571 258 651.571 255.857C651.571 253.786 653.071 252 655.071 252C657.071 252 658.643 253.714 658.571 255.857C658.714 257.928 657.071 259.714 655.071 259.714ZM668.143 259.714C666.143 259.714 664.643 258 664.643 255.857C664.643 253.786 666.143 252 668.143 252C670.143 252 671.714 253.714 671.643 255.857C671.571 257.928 670.071 259.714 668.143 259.714Z" fill="white"/>
</g>
<defs>
<clipPath id="clip0_313_39055">
<rect width="748" height="316" rx="16" fill="white"/>
</clipPath>
</defs>
</svg>
