<svg width="26" height="48" viewBox="0 0 26 48" fill="none" xmlns="http://www.w3.org/2000/svg">
<path d="M13.6916 48C13.5879 47.9973 13.4877 47.9648 13.4047 47.9071C13.3217 47.8494 13.2601 47.7693 13.2282 47.6778C12.3015 44.4915 14.3866 41.9138 16.0856 39.8732C16.5798 39.2809 17.0312 38.659 17.437 38.0115C18.6727 35.8634 17.7073 33.071 17.244 31.7105C17.2041 31.6508 17.1793 31.5835 17.1714 31.5136C17.1636 31.4437 17.1729 31.3731 17.1987 31.307C17.2245 31.241 17.266 31.1812 17.3203 31.1322C17.3746 31.0831 17.4401 31.0461 17.512 31.0239C17.5838 31.0017 17.6602 30.9948 17.7354 31.0039C17.8105 31.0129 17.8824 31.0376 17.9458 31.0761C18.0092 31.1146 18.0624 31.1659 18.1013 31.2262C18.1402 31.2865 18.164 31.3541 18.1707 31.4241V31.4241C18.6341 32.7845 19.7152 35.9708 18.2865 38.4411C17.8496 39.1296 17.3592 39.7877 16.8192 40.4102C15.2747 42.3076 13.344 44.7063 14.1549 47.4272C14.1905 47.5459 14.174 47.6728 14.1088 47.7802C14.0437 47.8876 13.9353 47.9666 13.8074 48H13.6916Z" fill="#C5CEDD"/>
<path d="M24.6809 10.1034C26.4809 17.2034 21.9809 28.9034 17.0809 30.2034C12.1809 31.5034 2.38091 23.6034 0.480909 16.5034C-1.41909 9.40336 2.48092 2.20336 9.18092 0.403359C15.8809 -1.39664 22.7809 3.00336 24.6809 10.1034Z" fill="#57F287"/>
<path d="M14.4807 32.5033C14.1807 31.2033 15.3807 28.9033 16.5807 28.6033C17.7807 28.3033 19.9807 29.6033 20.3807 31.0033C20.7807 32.4033 14.8807 33.8033 14.4807 32.5033Z" fill="#57F287"/>
<path d="M4.58084 8.60334C3.28084 11.6033 4.28083 14.2033 5.48083 14.1033C6.68083 14.0033 7.28083 12.0033 8.88083 9.70334C10.4808 7.40334 11.7808 6.50334 11.0808 5.00334C10.3808 3.50334 6.48084 4.30334 4.58084 8.60334Z" fill="#91FFAD"/>
</svg>
