<svg width="199" height="355" viewBox="0 0 199 355" fill="none" xmlns="http://www.w3.org/2000/svg">
<path d="M126.42 42.1299L107.83 14.6099L72.96 78.2499L145.01 69.6399L126.42 42.1299Z" fill="#82A5FF"/>
<path d="M143.17 68.6601C139.07 68.6601 129.48 60.9301 119.8 46.6001C114.91 39.3601 111.12 32.0001 109.14 26.0001C107.08 19.7001 107.6 16.6201 108.67 15.8901C108.97 15.7071 109.319 15.6199 109.67 15.6401C113.78 15.6401 123.37 23.3701 133.05 37.7001C144.05 53.9701 146.94 66.5701 144.18 68.4401C143.873 68.614 143.521 68.6907 143.17 68.6601Z" fill="#05124A"/>
<path d="M109.66 17.1001C112.76 17.1001 121.93 23.9001 131.79 38.5001C142.79 54.6901 144.49 65.5901 143.33 67.1501H143.17C140.08 67.1501 130.9 60.3501 121.04 45.7501C110.1 29.5501 108.35 18.6501 109.51 17.1001H109.66ZM109.66 14.1001C109.013 14.0841 108.376 14.2617 107.83 14.6101C103.48 17.5501 108.29 32.2401 118.56 47.4401C127.56 60.8401 137.89 70.1601 143.17 70.1601C143.822 70.1797 144.465 69.9981 145.01 69.6401C149.35 66.7101 144.55 52.0101 134.28 36.8201C125.22 23.4101 114.94 14.1001 109.66 14.1001Z" fill="#2960E3"/>
<path d="M93.9199 64.37C91.2985 60.4874 89.0899 56.3415 87.3299 52L81.6799 62.3C83.0047 64.8281 84.4668 67.2818 86.0599 69.65C87.5695 71.8714 89.1916 74.0142 90.9199 76.07L102.52 74.69C99.3188 71.5431 96.438 68.0861 93.9199 64.37Z" fill="#FFCDF9"/>
<path d="M113.46 73.4102L126.77 71.8202C112.565 62.1231 102.663 47.305 99.1401 30.4702L92.6201 42.3602C96.8912 54.2748 104.052 64.9436 113.46 73.4102Z" fill="#FFCDF9"/>
<path d="M93.9199 64.37C91.2985 60.4874 89.0899 56.3415 87.3299 52L81.6799 62.3C83.0047 64.8281 84.4668 67.2818 86.0599 69.65C87.5695 71.8714 89.1916 74.0142 90.9199 76.07L102.52 74.69C99.3188 71.5431 96.438 68.0861 93.9199 64.37Z" fill="#356DF0"/>
<path d="M113.46 73.4102L126.77 71.8202C112.565 62.1231 102.663 47.305 99.1401 30.4702L92.6201 42.3602C96.8912 54.2748 104.052 64.9436 113.46 73.4102Z" fill="#356DF0"/>
<path opacity="0.28" d="M135 64L127 56L81 74L82.23 77.14L145.01 69.64L135 64Z" fill="#356DF0"/>
<path d="M123.59 49.9999L127.41 58.2199C127.41 58.2199 148.83 48.8899 163 63.9999L172 47.9999C172 47.9999 151 36.9999 123.59 49.9999Z" fill="url(#paint0_linear_325_39553)"/>
<path d="M159 25L164 33C164 33 185 35 199 13L185 1C185 1 183 21 159 25Z" fill="url(#paint1_linear_325_39553)"/>
<path d="M120.56 30.67C120.56 30.67 139 31 141 0L159.93 2.51C159.93 2.51 156.55 32.7 126 39L120.56 30.67Z" fill="url(#paint2_linear_325_39553)"/>
<path d="M143.29 67.15H143.17C140.08 67.15 130.9 60.35 121.04 45.75C110.55 30.23 108.51 19.59 109.39 17.36L107.62 14.77C103.62 18.04 108.46 32.49 118.56 47.43C127.56 60.83 137.89 70.15 143.17 70.15C143.817 70.1661 144.454 69.9885 145 69.64L143.29 67.15Z" fill="#2960E3"/>
<path d="M123 127.84C120.911 125.749 118.431 124.091 115.701 122.959C112.971 121.828 110.045 121.246 107.09 121.246C104.135 121.246 101.209 121.828 98.4787 122.959C95.7487 124.091 93.2686 125.749 91.1799 127.84L86.7899 132.17L82.1799 127.84C77.9603 123.62 72.2373 121.25 66.2699 121.25C60.3025 121.25 54.5795 123.62 50.3599 127.84C46.1403 132.06 43.7698 137.783 43.7698 143.75C43.7698 149.717 46.1403 155.44 50.3599 159.66L54.8599 164.16L54.7699 164.25L86.7699 195.99L118.57 164.25L118.48 164.16L122.98 159.66C125.072 157.573 126.732 155.093 127.865 152.364C128.998 149.635 129.582 146.709 129.584 143.754C129.586 140.799 129.006 137.872 127.876 135.142C126.746 132.411 125.089 129.93 123 127.84Z" fill="#F0417D"/>
<path d="M118.57 164.25L118.48 164.16L122.98 159.66C125.071 157.571 126.729 155.091 127.86 152.361C128.992 149.631 129.574 146.705 129.574 143.75C129.574 140.795 128.992 137.869 127.86 135.139C126.729 132.409 125.071 129.929 122.98 127.84C120.891 125.749 118.411 124.091 115.681 122.959C112.951 121.828 110.025 121.246 107.07 121.246C104.115 121.246 101.189 121.828 98.4588 122.959C95.7289 124.091 93.2487 125.749 91.16 127.84L86.77 132.17V196L118.57 164.25Z" fill="#EF64B4"/>
<path d="M127 158.38C126.184 157.562 125.214 156.914 124.147 156.471C123.08 156.029 121.936 155.801 120.78 155.801C119.625 155.801 118.481 156.029 117.413 156.471C116.346 156.914 115.376 157.562 114.56 158.38L112.8 160.14L111 158.38C109.347 156.74 107.112 155.822 104.783 155.827C102.455 155.832 100.223 156.76 98.5772 158.407C96.9313 160.054 96.0054 162.286 96.0022 164.615C95.999 166.943 96.9188 169.178 98.5601 170.83L100.32 172.59L112.77 185.03L125.22 172.59L126.98 170.83C127.799 170.014 128.45 169.045 128.894 167.977C129.338 166.91 129.568 165.765 129.57 164.609C129.572 163.453 129.346 162.308 128.905 161.239C128.464 160.17 127.817 159.198 127 158.38Z" fill="#FFCDF9"/>
<path d="M148.9 238.08L121.8 265.18V303.37L148.9 330.47L176 303.37V265.18L148.9 238.08ZM162.45 297.76L148.9 311.31L135.35 297.76V270.76L148.9 257.21L162.45 270.76V297.76Z" fill="#FB68F8"/>
<path d="M148.9 238.08V257.25L162.45 270.8L176 265.18L148.9 238.08Z" fill="#FFAAFC"/>
<path d="M135.35 297.76L121.8 303.37L148.9 330.47V311.31L135.35 297.76Z" fill="#E74FD5"/>
<path d="M135.35 270.8V297.76L148.9 311.31L162.45 297.76V270.8L148.9 257.25L135.35 270.8Z" fill="#FFCDF9"/>
<path d="M162.43 270.81V270.86L135.41 297.82L135.37 297.77V290.47L158.76 267.08L162.43 270.81Z" fill="white"/>
<path d="M162.43 280.99V288.44L144.26 306.62L140.53 302.89L162.43 280.99Z" fill="white"/>
<path d="M62 278.41L40.9001 257.31L19.8 278.41V308.14L40.9001 329.24L62 308.14V278.41Z" fill="#A351F5"/>
<path d="M86.8999 249.49L79.3999 242L71.9099 249.49V260.05L79.3999 267.55L86.8999 260.05V249.49Z" fill="#A351F5"/>
<path d="M105.94 300.69L90.26 316.37V338.46L105.94 354.13L121.61 338.46V316.37L105.94 300.69ZM113.77 335.21L105.94 343.05L98.1 335.21V319.62L105.94 311.78L113.77 319.62V335.21Z" fill="#FB68F8"/>
<path d="M105.94 300.69V311.78L113.77 319.62L121.61 316.37L105.94 300.69Z" fill="#FFAAFC"/>
<path d="M98.1 335.21L90.26 338.46L105.94 354.13V343.05L98.1 335.21Z" fill="#E74FD5"/>
<path d="M98.1001 319.62V335.21L105.94 343.05L113.77 335.21V319.62L105.94 311.78L98.1001 319.62Z" fill="#FFCDF9"/>
<path d="M113.77 319.62V319.65L98.1401 335.25L98.1101 335.22V331L111.64 317.47L113.77 319.62Z" fill="white"/>
<path d="M113.77 325.51V329.82L103.25 340.33L101.09 338.18L113.77 325.51Z" fill="white"/>
<path d="M88.31 307L86 313C85.9901 313.024 85.9875 313.05 85.9925 313.075C85.9975 313.101 86.0099 313.124 86.0281 313.142C86.0463 313.16 86.0695 313.173 86.0948 313.178C86.12 313.183 86.1462 313.18 86.17 313.17L92.17 310.87H92.27L98.27 313.17C98.2938 313.18 98.32 313.183 98.3452 313.178C98.3705 313.173 98.3937 313.16 98.4119 313.142C98.4301 313.124 98.4425 313.101 98.4475 313.075C98.4525 313.05 98.4499 313.024 98.44 313L96.14 307C96.13 306.968 96.13 306.933 96.14 306.9L98.44 300.9C98.4499 300.876 98.4525 300.85 98.4475 300.825C98.4425 300.8 98.4301 300.777 98.4119 300.758C98.3937 300.74 98.3705 300.728 98.3452 300.723C98.32 300.718 98.2938 300.72 98.27 300.73L92.27 303.03H92.17L86.17 300.73C86.1462 300.72 86.12 300.718 86.0948 300.723C86.0695 300.728 86.0463 300.74 86.0281 300.758C86.0099 300.777 85.9975 300.8 85.9925 300.825C85.9875 300.85 85.9901 300.876 86 300.9L88.3 306.9C88.3133 306.932 88.3168 306.967 88.31 307Z" fill="white"/>
<path d="M82.1599 127.84C78.3643 124.038 73.3335 121.719 67.9771 121.303C62.6206 120.888 57.2923 122.402 52.9554 125.573C48.6186 128.744 45.5596 133.363 44.3315 138.593C43.1035 143.823 43.7875 149.32 46.2599 154.09C60.729 149.411 73.3201 140.222 82.1899 127.87L82.1599 127.84Z" fill="#DE3C74"/>
<path d="M0.13 178.05L0 178.18V330.87L0.13 331L45 286.13V222.92L0.13 178.05Z" fill="#FB68F8"/>
<path d="M0.129883 178.05V209.78L22.5599 232.21L44.9999 222.92L0.129883 178.05Z" fill="#FFAAFC"/>
<path d="M0.13 209.78L0 209.91V299.15L0.13 299.28L22.56 276.84V232.21L0.13 209.78Z" fill="#FFCDF9"/>
<path d="M16.45 226.06L0 242.51V254.8L22.54 232.31V232.23L16.45 226.06Z" fill="white"/>
<path d="M0 271.62V283.95L22.54 261.42V249.08L0 271.62Z" fill="white"/>
<path d="M22.5 277.44L45 286.76L0 331.76V299.94L22.5 277.44Z" fill="#E74FD5"/>
<path d="M20 11C13.2301 11.0016 6.49527 11.9714 0 13.88L0 150.12C9.76612 152.99 20.0351 153.726 30.1107 152.279C40.1864 150.832 49.833 147.235 58.3967 141.732C66.9603 136.23 74.2407 128.951 79.7442 120.388C85.2477 111.825 88.8457 102.179 90.2941 92.1031C91.7426 82.0277 91.0077 71.7586 88.1392 61.9921C85.2707 52.2256 80.3358 43.1901 73.669 35.4981C67.0022 27.8062 58.7594 21.6377 49.4995 17.4108C40.2396 13.184 30.179 10.9976 20 11Z" fill="#FFDA47"/>
<path d="M68.67 63.0001H0V90.3801C4.41795 89.4449 8.54416 87.455 12.0267 84.5802C15.5092 81.7054 18.2448 78.0309 20 73.8701C22.3225 79.3945 26.3561 84.028 31.5078 87.0894C36.6596 90.1508 42.6576 91.4786 48.6201 90.8775C54.5826 90.2764 60.195 87.7783 64.6321 83.7502C69.0692 79.7222 72.0968 74.3769 73.27 68.5001C73.3952 67.8266 73.3701 67.1337 73.1964 66.471C73.0227 65.8084 72.7048 65.1923 72.2653 64.6668C71.8258 64.1413 71.2756 63.7194 70.6541 63.4313C70.0325 63.1431 69.355 62.9959 68.67 63.0001Z" fill="#2E3338"/>
<path d="M7.5 97.5C7.5 97.5 19.5 113.5 32.5 97.5" stroke="#2E3338" stroke-width="5" stroke-miterlimit="10" stroke-linecap="round"/>
<path d="M62.1699 63H47.6799L28.6799 85.15C31.7071 87.5007 35.1861 89.2027 38.8999 90.15L62.1699 63Z" fill="#747F8D"/>
<path d="M0 88.87L22.17 63H17.81H7.68L0 71.97V88.87Z" fill="#747F8D"/>
<defs>
<linearGradient id="paint0_linear_325_39553" x1="133.38" y1="43.6099" x2="162.68" y2="60.6699" gradientUnits="userSpaceOnUse">
<stop offset="0.16" stop-color="#FFBAF5"/>
<stop offset="0.29" stop-color="#FFC9F7"/>
<stop offset="0.45" stop-color="#FFD6F9"/>
<stop offset="0.59" stop-color="#FFDBFA"/>
</linearGradient>
<linearGradient id="paint1_linear_325_39553" x1="161.01" y1="42.14" x2="186.04" y2="10.23" gradientUnits="userSpaceOnUse">
<stop offset="0.2" stop-color="#FFBAF5"/>
<stop offset="0.41" stop-color="#FFCCF8"/>
<stop offset="0.63" stop-color="#FFDBFA"/>
</linearGradient>
<linearGradient id="paint2_linear_325_39553" x1="117.92" y1="47.62" x2="150.5" y2="6.07" gradientUnits="userSpaceOnUse">
<stop offset="0.2" stop-color="#FFBAF5"/>
<stop offset="0.45" stop-color="#FFCCF8"/>
<stop offset="0.71" stop-color="#FFDBFA"/>
</linearGradient>
</defs>
</svg>
