<svg width="69" height="64" viewBox="0 0 69 64" fill="none" xmlns="http://www.w3.org/2000/svg">
<g clip-path="url(#clip0_81_8623)">
<path d="M46.0793 13.76L45.8868 14.08H34.9338C34.9338 14.08 43.8759 6.29329 44.0042 6.31462C44.0734 6.31605 44.1405 6.33837 44.1968 6.37862L44.3465 6.46395H44.4107L44.4962 6.52795C44.649 6.62845 44.7922 6.74271 44.9241 6.86929C44.9915 6.91484 45.0496 6.97275 45.0952 7.03995C45.2054 7.1286 45.3058 7.22872 45.3947 7.33862H45.4161L45.5231 7.48795L45.6086 7.55195H45.5873C46.2938 8.41346 46.7196 9.46968 46.8075 10.5792C46.8954 11.6887 46.6413 12.7985 46.0793 13.76Z" fill="#C0C2C4"/>
<path d="M45.6086 7.6587H45.5872C43.9229 9.80496 42.1146 11.8363 40.1749 13.7387C40.0718 13.8629 39.9572 13.9772 39.8326 14.08H36.7949L37.18 13.7174C37.672 13.2694 38.2282 12.7574 38.8272 12.16C40.6722 10.3201 42.4012 8.36789 44.0041 6.3147C44.0733 6.31613 44.1405 6.33844 44.1967 6.3787L44.3464 6.46403H44.4106L44.4962 6.52803L44.924 6.86936C44.9914 6.91491 45.0495 6.97283 45.0951 7.04003C45.2054 7.12867 45.3057 7.2288 45.3946 7.3387H45.416L45.523 7.48803L45.6086 7.6587Z" fill="#888991"/>
<path d="M54.679 23.9786H63.8563C65.0724 23.9786 66.2391 24.4589 67.101 25.3145C67.9629 26.17 68.45 27.3312 68.4557 28.544V38.848C68.4557 40.0644 67.9711 41.2311 67.1086 42.0912C66.246 42.9514 65.0761 43.4346 63.8563 43.4346H54.679V23.9786Z" fill="#4F545C"/>
<path d="M58.4226 27.3919H63.022C63.629 27.3919 64.2113 27.6324 64.6405 28.0605C65.0698 28.4886 65.311 29.0692 65.311 29.6746V37.6746C65.311 38.28 65.0698 38.8606 64.6405 39.2887C64.2113 39.7168 63.629 39.9573 63.022 39.9573H58.4226V27.3706V27.3919Z" fill="#A6A8AC"/>
<path d="M12.2792 32.2773V43.4133H3.10187C2.00063 43.424 0.934171 43.029 0.106934 42.304L3.10187 39.8293L4.96301 38.3147L8.53554 35.3493L12.2792 32.2773Z" fill="#6592FF"/>
<path d="M61.995 23.9787V40.0853C61.9966 41.2178 61.8087 42.3426 61.4388 43.4133C60.743 45.4421 59.4285 47.2032 57.6794 48.4502C55.9303 49.6972 53.834 50.3678 51.6839 50.368H15.274C13.1239 50.3678 11.0277 49.6972 9.27855 48.4502C7.52944 47.2032 6.21499 45.4421 5.5191 43.4133C5.1493 42.3426 4.96131 41.2178 4.9629 40.0853L35.9177 13.76H51.6839C54.4075 13.76 57.0205 14.8345 58.9524 16.7491C60.8843 18.6636 61.9781 21.2627 61.995 23.9787Z" fill="#72767D"/>
<path d="M47.2345 25.8133V34.0053C47.2345 36.1177 46.3945 38.1438 44.8987 39.6395C43.4029 41.1352 41.3734 41.9783 39.2551 41.984H27.7246C25.6027 41.984 23.5677 41.1433 22.0672 39.6471C20.5668 38.1508 19.7239 36.1214 19.7239 34.0053V30.656L29.8211 22.528H43.9401C44.3727 22.528 44.8011 22.6129 45.2008 22.778C45.6005 22.9431 45.9637 23.1851 46.2696 23.4902C46.5755 23.7953 46.8182 24.1574 46.9837 24.556C47.1493 24.9546 47.2345 25.3819 47.2345 25.8133Z" fill="#B9BBBE"/>
<path d="M53.5665 31.3386C55.2796 31.3386 56.6684 29.9537 56.6684 28.2453C56.6684 26.5369 55.2796 25.152 53.5665 25.152C51.8534 25.152 50.4646 26.5369 50.4646 28.2453C50.4646 29.9537 51.8534 31.3386 53.5665 31.3386Z" fill="#202225"/>
<path d="M42.4211 34.048H37.9929C37.2013 34.048 36.5596 34.6879 36.5596 35.4773V35.4794C36.5596 36.2688 37.2013 36.9088 37.9929 36.9088H42.4211C43.2127 36.9088 43.8544 36.2688 43.8544 35.4794V35.4773C43.8544 34.6879 43.2127 34.048 42.4211 34.048Z" fill="#72767D"/>
<path d="M28.9653 34.048H24.537C23.7455 34.048 23.1038 34.6879 23.1038 35.4773V35.4794C23.1038 36.2688 23.7455 36.9088 24.537 36.9088H28.9653C29.7569 36.9088 30.3986 36.2688 30.3986 35.4794V35.4773C30.3986 34.6879 29.7569 34.048 28.9653 34.048Z" fill="#72737D"/>
<g style="mix-blend-mode:multiply">
<path d="M0.791412 42.8799C0.791412 45.3973 0.727235 47.7439 3.23015 50.7093C5.3266 53.1626 8.89913 57.3439 9.88318 58.3252C10.2338 58.6745 10.6805 58.9121 11.1667 59.0079C12.8781 59.2852 14.6323 57.7066 15.4024 55.0186L16.0442 52.6719C20.451 55.2532 25.6066 51.5839 27.6175 44.4586L28.8796 39.9786C29.8637 40.4692 30.9761 40.4479 32.0671 39.7652C32.6876 41.4005 33.4913 42.9606 34.4631 44.4159C34.7839 44.9066 35.3401 44.8426 35.7038 44.2666C36.0675 43.6906 36.0461 42.8159 35.7038 42.3252C34.8489 41.0603 34.1453 39.6999 33.6074 38.2719C35.1048 36.1813 35.7466 32.8746 35.0834 29.9306C34.669 28.1853 34.3476 26.4192 34.1208 24.6399C39.0624 20.9066 43.619 19.2213 43.619 12.8426C43.619 12.3519 43.5762 8.12793 43.5762 8.12793L0.791412 42.8799Z" fill="#C7CCD1"/>
</g>
<path d="M3.74369 48.3626L10.2256 52.0959C12.1723 53.2266 14.5041 51.6693 15.4025 48.6186L16.0443 46.3573C20.4512 48.8319 25.6067 45.3333 27.6176 38.4853L28.8798 34.1759C29.8638 34.6666 30.9762 34.6453 32.0672 33.9839C32.6875 35.5588 33.4917 37.0553 34.4632 38.4426C34.7841 38.9119 35.3403 38.8479 35.7039 38.2933C36.0676 37.7386 36.0462 36.9066 35.7039 36.4373C34.8574 35.2279 34.1539 33.925 33.6075 32.5546C35.1049 30.5493 35.7467 27.3919 35.0835 24.5759C34.6704 22.9022 34.3491 21.2072 34.1209 19.4986C35.3403 18.3039 37.2656 16.7679 40.2819 15.0399H40.3247L40.7098 14.7839L40.8595 14.6559L41.1376 14.4212L41.3087 14.2506L41.5227 14.0372L41.7152 13.7812C41.776 13.7348 41.8269 13.6768 41.8649 13.6106C43.0843 11.9892 43.8758 10.3892 43.8758 7.53057C43.8758 7.06124 43.833 6.6559 44.0042 6.5279C44.1753 6.3999 44.2181 6.4639 44.3892 6.54924C43.8972 6.1439 43.7261 6.42124 43.5122 6.57057L0.106977 42.3039C-0.320871 44.3306 0.513432 46.5066 3.74369 48.3626Z" fill="#B9BBBE"/>
<path d="M3.74369 48.3626L10.2256 52.0959C12.1723 53.2266 14.5041 51.6693 15.4025 48.6186L16.0443 46.3573C20.4512 48.8319 25.6067 45.3333 27.6176 38.4853L28.8798 34.1759C29.8638 34.6666 30.9762 34.6453 32.0672 33.9839C32.6875 35.5588 33.4917 37.0553 34.4632 38.4426C34.7841 38.9119 35.3403 38.8479 35.7039 38.2933C36.0676 37.7386 36.0462 36.9066 35.7039 36.4373C34.8574 35.2279 34.1539 33.925 33.6075 32.5546C35.1049 30.5493 35.7467 27.3919 35.0835 24.5759C34.6704 22.9022 34.3491 21.2072 34.1209 19.4986C35.3403 18.3039 37.2656 16.7679 40.2819 15.0399H40.3247L40.7098 14.7839L40.8595 14.6559L41.1376 14.4212L41.3087 14.2506L41.5227 14.0372L41.7152 13.7812C41.776 13.7348 41.8269 13.6768 41.8649 13.6106C43.0843 11.9892 43.8758 10.3892 43.8758 7.53057C43.8758 7.06124 43.833 6.6559 44.0042 6.5279C44.1753 6.3999 44.2181 6.4639 44.3892 6.54924C43.8972 6.1439 43.7261 6.42124 43.5122 6.57057L0.106977 42.3039C-0.320871 44.3306 0.513432 46.5066 3.74369 48.3626Z" fill="#595E66" fill-opacity="0.2"/>
<path d="M24.2804 44.5866L28.5803 18.8586L21.7775 24.448L18.0767 47.0826C20.2373 47.424 22.4407 46.5066 24.2804 44.5866Z" fill="#B9BBBE"/>
<path d="M10.6105 33.664L7.80811 50.7093L10.2254 52.096L10.6105 52.288L14.2472 30.656L10.6105 33.664Z" fill="#B9BBBE"/>
</g>
<defs>
<clipPath id="clip0_81_8623">
<rect width="68.4557" height="64" fill="white"/>
</clipPath>
</defs>
</svg>
