<svg xmlns="http://www.w3.org/2000/svg" width="279" height="158" viewBox="0 0 279 158" fill="none">
  <g clip-path="url(#clip0_13_1725)">
    <rect x="0.5" width="278" height="158" rx="3" fill="url(#paint0_linear_13_1725)" />
    <path
      d="M87.62 29.1152H77.8856C77.6372 29.1152 77.4199 29.3023 77.3888 29.5518L76.9231 32.7955C76.8765 33.0918 77.1094 33.3725 77.4199 33.3725H79.2053C79.3916 33.3725 79.5003 33.5596 79.4382 33.7156C79.2208 34.2302 79.05 34.8072 78.9724 35.4154L78.0719 41.7C77.482 45.9105 80.9597 48.0002 84.7634 48.0002C88.7379 48.0002 92.6503 45.8949 93.2402 41.7L94.1407 35.4154C94.6996 31.2984 91.3306 29.2087 87.62 29.1152ZM89.4831 35.431L88.5826 41.5752C88.3808 43.0255 86.7506 43.6961 85.2447 43.6961C83.8474 43.6961 82.4811 43.0255 82.6674 41.7L83.5679 35.4154C83.7697 34.043 85.3999 33.3413 86.9059 33.3413C88.4118 33.3413 89.7004 34.043 89.4831 35.431Z"
      fill="white" />
    <path
      d="M33.6073 29.1152H29.9743C29.7259 29.1152 29.5086 29.3023 29.4775 29.5518L28.3597 37.5518V37.5674L28.4063 40.6551C28.4063 40.7175 28.3597 40.7799 28.2976 40.7955L27.2574 37.0684V37.0528L24.0126 29.4271C23.935 29.2399 23.7487 29.1152 23.5468 29.1152H19.8673C19.6189 29.1152 19.4016 29.3023 19.3705 29.5518L16.9175 47.1737C16.8709 47.4855 17.1193 47.7507 17.4143 47.7507H21.0783C21.3267 47.7507 21.5441 47.5635 21.5751 47.314L22.5377 40.3121V40.2965L22.4911 36.7097L22.5998 36.6785L23.7021 40.4056V40.4212L26.7295 47.4544C26.8072 47.6415 26.9935 47.7662 27.1953 47.7662H31.1698C31.4182 47.7662 31.6356 47.5791 31.6666 47.3296L34.1196 29.7078C34.1662 29.3959 33.9178 29.1152 33.6073 29.1152Z"
      fill="white" />
    <path
      d="M41.5562 29.1152H37.8922C37.6438 29.1152 37.4265 29.3023 37.3954 29.5518L34.9424 47.1581C34.8958 47.47 35.1442 47.7351 35.4392 47.7351H39.1032C39.3516 47.7351 39.569 47.5479 39.6 47.2984L42.053 29.6922C42.0996 29.3959 41.8667 29.1152 41.5562 29.1152Z"
      fill="white" />
    <path
      d="M58.7429 29.1152H45.034C44.7856 29.1152 44.5682 29.3023 44.5372 29.5518L44.0559 32.8423C44.0093 33.1542 44.2422 33.4193 44.5527 33.4193H48.3874C48.698 33.4193 48.9308 33.6844 48.8843 33.9963L47.0833 47.1581C47.0367 47.47 47.2851 47.7351 47.5801 47.7351H51.2907C51.5391 47.7351 51.7565 47.5479 51.7875 47.2984L53.635 33.8559C53.6661 33.6064 53.8834 33.4193 54.1318 33.4193H58.2461C58.4945 33.4193 58.7118 33.2321 58.7429 32.9826L59.2242 29.6922C59.3018 29.3959 59.0534 29.1152 58.7429 29.1152Z"
      fill="white" />
    <path
      d="M69.2225 29.1152H62.2516C62.0032 29.1152 61.7858 29.3023 61.7548 29.5518L59.3018 47.1581C59.2552 47.47 59.5036 47.7351 59.7986 47.7351H63.5092C63.7576 47.7351 63.9749 47.5479 64.006 47.2984L64.7201 42.0431C64.7357 41.9183 64.8443 41.8247 64.9685 41.8247H65.4498C65.543 41.8247 65.6206 41.8715 65.6672 41.9495L69.207 47.5167C69.3001 47.6571 69.4554 47.7507 69.6417 47.7507H74.2372C74.6409 47.7507 74.8893 47.2828 74.6564 46.9553L70.9303 41.6064C70.8371 41.4816 70.8837 41.2945 71.0234 41.2321C73.3988 40.0625 74.7806 38.8774 75.2308 35.5401C75.7587 31.1737 73.0417 29.1152 69.2225 29.1152ZM70.4956 35.6181C70.3714 36.6941 69.533 37.7701 68.0891 37.7701H65.9311C65.6206 37.7701 65.3877 37.4894 65.4343 37.1931L65.9001 33.9495C65.9311 33.7 66.1485 33.5128 66.3969 33.5128H68.7102C70.0764 33.5128 70.6353 34.4953 70.4956 35.6181Z"
      fill="white" />
    <path
      d="M33.4675 17.9648H36.1068C36.7434 17.9648 37.2868 18.0583 37.7215 18.2611C38.1251 18.4326 38.4667 18.7289 38.7151 19.1032C38.9325 19.4775 39.0567 19.8985 39.0411 20.3196C39.0411 20.7562 38.9325 21.1773 38.6996 21.5515C38.4512 21.9414 38.0786 22.2377 37.6594 22.4248C37.1936 22.6431 36.6037 22.7523 35.9205 22.7523H33.4675V17.9648V17.9648ZM35.905 21.5203C36.3397 21.5203 36.6658 21.4112 36.8986 21.1929C37.1315 20.9589 37.2557 20.647 37.2402 20.304C37.2557 19.9921 37.147 19.6958 36.9297 19.4775C36.7279 19.2747 36.4174 19.1656 35.9982 19.1656H35.1753V21.5047H35.905V21.5203Z"
      fill="white" />
    <path
      d="M43.0156 22.7369C42.674 22.6433 42.3325 22.5029 42.022 22.3158V21.1774C42.2859 21.3801 42.5964 21.5205 42.9069 21.5985C43.264 21.7076 43.6211 21.7544 43.9937 21.77C44.1179 21.77 44.2421 21.7544 44.3663 21.7076C44.4439 21.6608 44.4905 21.614 44.4905 21.5517C44.4905 21.4893 44.475 21.4269 44.4284 21.3801C44.3508 21.3178 44.2576 21.2866 44.1645 21.271L43.3572 21.0838C42.8914 20.9747 42.5654 20.8187 42.3635 20.6316C42.1617 20.4289 42.053 20.1482 42.0685 19.8675C42.0685 19.6179 42.1617 19.3684 42.3325 19.1813C42.5343 18.963 42.7827 18.807 43.0622 18.7291C43.4193 18.6199 43.7919 18.5575 44.18 18.5731C44.5371 18.5731 44.8786 18.6043 45.2202 18.6979C45.4997 18.7602 45.7636 18.8694 46.012 19.0098V20.0858C45.7791 19.9454 45.5307 19.8519 45.2823 19.7895C45.0028 19.7115 44.7079 19.6803 44.4284 19.6803C44.0092 19.6803 43.7919 19.7583 43.7919 19.8986C43.7919 19.961 43.8229 20.0234 43.885 20.0546C43.9937 20.1014 44.1179 20.1326 44.2421 20.1638L44.9252 20.2885C45.3599 20.3665 45.7015 20.5068 45.9188 20.694C46.1362 20.8811 46.2449 21.1774 46.2449 21.5517C46.2449 21.9571 46.043 22.3314 45.7015 22.5341C45.3444 22.768 44.8321 22.8928 44.1645 22.8928C43.7763 22.8772 43.3882 22.8304 43.0156 22.7369Z"
      fill="white" />
    <path
      d="M47.8285 22.5966C47.4714 22.425 47.1609 22.1599 46.9435 21.8168C46.7417 21.4893 46.6486 21.0995 46.6486 20.7096C46.6486 20.3197 46.7417 19.9455 46.9591 19.618C47.1764 19.2749 47.4869 19.0254 47.8595 18.8539C48.3098 18.6667 48.7911 18.5576 49.2723 18.5732C49.9555 18.5732 50.5144 18.7135 50.9646 19.0098V20.2574C50.7938 20.1482 50.6075 20.0546 50.4057 19.9923C50.1883 19.9299 49.9555 19.8831 49.7226 19.8831C49.3034 19.8831 48.9774 19.9611 48.729 20.117C48.3874 20.3042 48.2787 20.7252 48.465 21.0683C48.5271 21.1774 48.6203 21.271 48.729 21.3334C48.9618 21.4893 49.2879 21.5673 49.7381 21.5673C49.971 21.5673 50.1883 21.5361 50.4057 21.4737C50.6075 21.4114 50.7938 21.3334 50.9646 21.2242V22.425C50.4368 22.7369 49.8468 22.8928 49.2413 22.8773C48.76 22.8928 48.2632 22.7993 47.8285 22.5966Z"
      fill="white" />
    <path
      d="M52.6569 22.5966C52.2843 22.425 51.9738 22.1599 51.7564 21.8168C51.5546 21.4894 51.4459 21.0995 51.4459 20.7096C51.4459 20.3198 51.5391 19.9455 51.7564 19.618C51.9738 19.2905 52.2843 19.0254 52.6569 18.8695C53.5418 18.5108 54.551 18.5108 55.4359 18.8695C55.793 19.0254 56.1035 19.2905 56.3209 19.618C56.5227 19.9455 56.6314 20.3354 56.6314 20.7096C56.6314 21.0995 56.5227 21.4894 56.3209 21.8168C56.1035 22.1599 55.793 22.425 55.4359 22.5966C54.5355 22.9708 53.5418 22.9708 52.6569 22.5966ZM54.7063 21.3802C54.877 21.2087 54.9702 20.9591 54.9547 20.7252C54.9702 20.4757 54.877 20.2418 54.7063 20.0702C54.5199 19.8987 54.2715 19.8207 54.0231 19.8207C53.7747 19.8051 53.5263 19.8987 53.34 20.0702C53.1692 20.2418 53.0761 20.4757 53.0916 20.7252C53.0761 20.9747 53.1692 21.2087 53.34 21.3802C53.5263 21.5517 53.7747 21.6453 54.0231 21.6297C54.2871 21.6453 54.5355 21.5517 54.7063 21.3802Z"
      fill="white" />
    <path
      d="M60.6991 18.8226V20.3041C60.4973 20.1793 60.2644 20.1169 60.0315 20.1325C59.6744 20.1325 59.395 20.2417 59.1931 20.46C59.0068 20.6783 58.8982 21.0214 58.8982 21.4893V22.7368H57.2369V18.7446H58.8671V20.0078C58.9603 19.5399 59.1 19.1969 59.3018 18.9785C59.5036 18.7602 59.7831 18.6355 60.0781 18.6511C60.2954 18.6511 60.5128 18.7134 60.6991 18.8226Z"
      fill="white" />
    <path
      d="M66.226 17.8245V22.7367H64.5648V21.8479C64.4406 22.1597 64.2077 22.4404 63.9283 22.612C63.6022 22.7991 63.2452 22.8927 62.8725 22.8771C62.531 22.8927 62.1894 22.7835 61.8944 22.5964C61.615 22.4093 61.3821 22.1442 61.2424 21.8323C61.0871 21.4892 61.0095 21.1149 61.0095 20.7406C60.994 20.3508 61.0871 19.9609 61.2424 19.6178C61.3976 19.2904 61.646 19.0252 61.941 18.8381C62.2515 18.651 62.6086 18.5574 62.9657 18.5574C63.7575 18.5574 64.2854 18.9005 64.5648 19.5866V17.8245H66.226ZM64.3164 21.3488C64.4872 21.1773 64.5803 20.9434 64.5648 20.7095C64.5648 20.4755 64.4717 20.2416 64.3164 20.0857C63.9283 19.7582 63.3694 19.7582 62.9657 20.0857C62.7949 20.2572 62.7018 20.4755 62.7173 20.7095C62.7018 20.9434 62.7949 21.1773 62.9657 21.3488C63.152 21.5204 63.3849 21.5983 63.6333 21.5983C63.8972 21.6139 64.1301 21.5204 64.3164 21.3488Z"
      fill="white" />
    <path
      d="M27.3508 16.7797C26.5434 16.4211 25.6895 16.1559 24.8046 16C24.6804 16.2183 24.5717 16.4366 24.4786 16.6706C23.547 16.5302 22.5845 16.5302 21.6529 16.6706C21.5598 16.4366 21.4511 16.2183 21.3269 16C20.4575 16.1559 19.6036 16.4211 18.7808 16.7953C17.1816 19.1813 16.7469 21.5049 16.9643 23.8129C17.9113 24.5146 18.9671 25.0448 20.0849 25.3879C20.3333 25.0448 20.5662 24.6862 20.7525 24.3119C20.3954 24.1715 20.0383 24 19.6967 23.8129C19.7899 23.7505 19.8675 23.6881 19.9607 23.6257C21.9324 24.5614 24.2146 24.5614 26.2019 23.6257C26.2795 23.6881 26.3727 23.7661 26.4658 23.8129C26.1243 24.0156 25.7827 24.1871 25.4101 24.3119C25.5964 24.6862 25.8293 25.0448 26.0777 25.3879C27.1955 25.0448 28.2512 24.5146 29.1983 23.8129C29.4467 21.1462 28.748 18.8382 27.3508 16.7797ZM21.0164 22.3938C20.4109 22.3938 19.8986 21.8324 19.8986 21.1618C19.8986 20.4912 20.3799 19.9142 21.0009 19.9142C21.6219 19.9142 22.1187 20.4756 22.1187 21.1618C22.1187 21.848 21.6374 22.3938 21.0164 22.3938ZM25.1151 22.3938C24.5096 22.3938 24.0128 21.8324 24.0128 21.1618C24.0128 20.4912 24.4941 19.9142 25.1151 19.9142C25.7361 19.9142 26.2329 20.4756 26.2174 21.1618C26.2174 21.848 25.7361 22.3938 25.1151 22.3938Z"
      fill="white" />
    <path
      d="M40.4539 19.1812C40.9084 19.1812 41.2768 18.8461 41.2768 18.4327C41.2768 18.0192 40.9084 17.6841 40.4539 17.6841C39.9995 17.6841 39.6311 18.0192 39.6311 18.4327C39.6311 18.8461 39.9995 19.1812 40.4539 19.1812Z"
      fill="white" />
    <path d="M39.6311 19.6958C40.159 19.9142 40.7645 19.9142 41.2923 19.6958V22.768H39.6311V19.6958Z" fill="white" />
    <path opacity="0.2"
      d="M113.597 157.077H82.5V152.425C82.5 145.01 88.692 138.943 96.2599 138.943H99.0119C100.526 138.943 101.764 137.73 101.764 136.247V119.731C101.764 108.54 110.983 99.5072 122.404 99.5072H158.799C162.308 99.5072 165.128 96.7433 165.128 93.3053V93.0357C165.128 85.553 171.32 79.5533 178.888 79.5533C190.034 79.5533 205.583 79.5533 216.728 79.5533C224.296 79.5533 230.488 85.6204 230.488 93.0357V120H260.003C280.918 120 297.843 136.584 297.843 157.077H113.597Z"
      fill="#AEC7FF" />
    <path
      d="M134.485 90.1001L133.591 91.8911C133.384 92.3044 133.797 92.7866 134.279 92.5799L136.068 91.6844C136.205 91.6155 136.343 91.6155 136.48 91.6844L138.269 92.5799C138.682 92.7866 139.164 92.3733 138.957 91.8911L138.063 90.1001C137.994 89.9623 137.994 89.8245 138.063 89.6867L138.957 87.8957C139.164 87.4824 138.751 87.0002 138.269 87.2069L136.48 88.1024C136.343 88.1713 136.205 88.1713 136.068 88.1024L134.279 87.2069C133.866 87.0002 133.384 87.4135 133.591 87.8957L134.485 89.6867C134.554 89.7556 134.554 89.9623 134.485 90.1001Z"
      fill="#AEC7FF" />
    <path
      d="M255.723 127.723L254.829 129.514C254.622 129.928 255.035 130.41 255.517 130.203L257.306 129.308C257.443 129.239 257.581 129.239 257.718 129.308L259.507 130.203C259.92 130.41 260.402 129.996 260.195 129.514L259.301 127.723C259.232 127.585 259.232 127.448 259.301 127.31L260.195 125.519C260.402 125.106 259.989 124.623 259.507 124.83L257.718 125.726C257.581 125.794 257.443 125.794 257.306 125.726L255.517 124.83C255.104 124.623 254.622 125.037 254.829 125.519L255.723 127.31C255.792 127.379 255.792 127.585 255.723 127.723Z"
      fill="#AEC7FF" />
    <path
      d="M114.279 112.845C113.866 112.845 113.591 112.569 113.591 112.156V111.467C113.591 111.054 113.866 110.778 114.279 110.778C114.691 110.778 114.967 111.054 114.967 111.467V112.156C114.967 112.569 114.691 112.845 114.279 112.845Z"
      fill="#D4E4FF" />
    <path
      d="M114.279 118.356C113.866 118.356 113.591 118.08 113.591 117.667V116.978C113.591 116.565 113.866 116.289 114.279 116.289C114.692 116.289 114.967 116.565 114.967 116.978V117.667C114.967 118.08 114.692 118.356 114.279 118.356Z"
      fill="#D4E4FF" />
    <path
      d="M115.999 114.567C115.999 114.154 116.274 113.878 116.687 113.878H117.375C117.787 113.878 118.063 114.154 118.063 114.567C118.063 114.98 117.787 115.256 117.375 115.256H116.687C116.274 115.256 115.999 114.98 115.999 114.567Z"
      fill="#D4E4FF" />
    <path
      d="M110.495 114.567C110.495 114.154 110.77 113.878 111.183 113.878H111.871C112.283 113.878 112.559 114.154 112.559 114.567C112.559 114.98 112.283 115.256 111.871 115.256H111.183C110.77 115.256 110.495 114.98 110.495 114.567Z"
      fill="#D4E4FF" />
    <path
      d="M263.942 73.0064C263.529 73.0064 263.254 72.7309 263.254 72.3176V71.6287C263.254 71.2154 263.529 70.9399 263.942 70.9399C264.355 70.9399 264.63 71.2154 264.63 71.6287V72.3176C264.63 72.7309 264.355 73.0064 263.942 73.0064Z"
      fill="#D4E4FF" />
    <path
      d="M263.942 78.5173C263.529 78.5173 263.254 78.2417 263.254 77.8284V77.1396C263.254 76.7263 263.529 76.4507 263.942 76.4507C264.355 76.4507 264.63 76.7263 264.63 77.1396V77.8284C264.63 78.2417 264.355 78.5173 263.942 78.5173Z"
      fill="#D4E4FF" />
    <path
      d="M265.662 74.7286C265.662 74.3152 265.937 74.0397 266.35 74.0397H267.038C267.451 74.0397 267.726 74.3152 267.726 74.7286C267.726 75.1419 267.451 75.4174 267.038 75.4174H266.35C265.937 75.4174 265.662 75.1419 265.662 74.7286Z"
      fill="#D4E4FF" />
    <path
      d="M260.158 74.7286C260.158 74.3153 260.433 74.0397 260.846 74.0397H261.534C261.947 74.0397 262.222 74.3153 262.222 74.7286C262.222 75.1419 261.947 75.4174 261.534 75.4174H260.846C260.433 75.4174 260.158 75.1419 260.158 74.7286Z"
      fill="#D4E4FF" />
    <g clip-path="url(#clip1_13_1725)">
      <path
        d="M262.222 126.712C224.661 155.491 192.828 119.785 145.927 152.095L141.795 137.562C143.676 135.932 145.255 133.385 146.347 130.278C146.799 128.972 147.147 127.632 147.389 126.271C147.757 124.295 147.943 122.288 147.943 120.278C147.943 111.839 144.835 104.674 140.518 102.043C139.759 101.574 138.922 101.246 138.049 101.075C137.651 100.993 137.245 100.954 136.839 100.956C135.092 100.956 133.429 101.669 131.951 102.926L127.835 88.4262C174.736 56.0993 206.569 91.8218 244.131 63.0435L248.229 77.4751C246.617 78.8503 245.239 80.9047 244.198 83.4005C243.707 84.5436 243.309 85.7245 243.005 86.9321C242.365 89.5021 242.043 92.1427 242.048 94.793C242.048 103.91 245.693 111.568 250.581 113.588C251.325 113.89 252.115 114.062 252.916 114.097H253.151C254.915 114.097 256.595 113.384 258.073 112.111L262.222 126.712Z"
        fill="#FF78B7" />
      <path
        d="M241.056 121.381C216.128 129.667 192.392 117.154 163.112 126.78L153.234 92.0256C182.514 82.3818 206.25 94.8949 231.179 86.6095L241.056 121.381Z"
        fill="white" />
      <path
        d="M220.663 110.226L218.815 103.724C218.545 102.784 217.979 101.959 217.203 101.374C216.427 100.789 215.483 100.475 214.515 100.481H213.507L213.188 99.3602C212.818 98.0868 212.061 96.9635 211.023 96.1497C209.986 95.336 208.722 94.8732 207.409 94.827C198.137 94.5044 188.713 93.2989 178.785 93.4687C178.185 93.4765 177.596 93.624 177.062 93.8996C176.528 94.1751 176.065 94.5715 175.707 95.0577C175.35 95.5439 175.108 96.1069 175.001 96.703C174.893 97.299 174.924 97.912 175.089 98.4943L175.308 99.2584L174.535 99.3093C174.098 99.3473 173.674 99.4826 173.295 99.7055C172.916 99.9284 172.59 100.233 172.341 100.599C172.092 100.964 171.927 101.38 171.856 101.818C171.785 102.255 171.81 102.703 171.931 103.129L173.779 109.666C174.063 110.659 174.678 111.521 175.521 112.106C176.363 112.691 177.38 112.963 178.398 112.875L179.171 112.841L179.373 113.537C179.743 114.854 180.533 116.011 181.62 116.828C182.708 117.645 184.032 118.076 185.387 118.053C195.146 117.867 204.419 119.004 213.524 119.378C214.141 119.405 214.757 119.283 215.319 119.022C215.88 118.762 216.373 118.37 216.755 117.879C217.138 117.388 217.399 116.812 217.518 116.199C217.636 115.586 217.609 114.953 217.438 114.352L217.354 114.064H217.841C218.298 114.055 218.746 113.94 219.152 113.729C219.558 113.518 219.911 113.215 220.184 112.845C220.456 112.474 220.641 112.046 220.724 111.592C220.807 111.138 220.786 110.671 220.663 110.226Z"
        fill="#7194FF" />
      <path
        d="M252.916 114.097C252.115 114.062 251.325 113.89 250.581 113.588L253.151 122.638C244.147 128.037 234.891 130.346 222.545 130.346C217.639 130.346 212.768 130.006 207.611 129.633C202.454 129.259 196.944 128.886 191.367 128.886C180.918 128.886 166.992 130.057 150.967 138.886L147.389 126.271C147.147 127.632 146.799 128.972 146.347 130.278L149.69 142.078C164.909 133.062 178.55 131.008 191.367 131.008C202.185 131.008 212.432 132.468 222.545 132.468C233.514 132.468 244.349 130.753 255.621 123.605L252.916 114.097ZM176.903 82.1272C182.313 82.1272 187.671 82.5177 192.845 82.8742C198.019 83.2308 202.991 83.5873 208.048 83.5873C216.648 83.5873 227.903 82.6705 239.864 75.8452L243.005 86.9321C243.309 85.7245 243.707 84.5436 244.198 83.4006L241.124 72.6023C229.852 79.7502 219.017 81.465 208.048 81.465C197.918 81.465 187.705 80.0049 176.903 80.0049C164.069 80.0049 150.412 82.0762 135.21 91.0748L138.049 101.075C138.922 101.246 139.759 101.574 140.518 102.043L137.679 92.0765C153.218 83.2817 166.757 82.1442 176.903 82.1272Z"
        fill="#E9459D" />
      <path
        d="M203.999 112.213C199.8 111.924 195.533 111.602 191.199 111.432C190.386 111.403 189.604 111.112 188.966 110.602C188.328 110.092 187.869 109.389 187.654 108.596L186.042 102.926C185.951 102.608 185.936 102.273 185.999 101.949C186.061 101.624 186.199 101.319 186.401 101.059C186.602 100.799 186.862 100.591 187.159 100.452C187.456 100.313 187.781 100.247 188.108 100.26C192.492 100.43 196.81 100.769 201.043 101.058C201.841 101.111 202.603 101.412 203.226 101.919C203.848 102.427 204.3 103.116 204.52 103.893L206.116 109.564C206.209 109.885 206.224 110.225 206.159 110.553C206.094 110.881 205.952 111.188 205.744 111.449C205.536 111.709 205.268 111.914 204.964 112.048C204.661 112.181 204.329 112.237 203.999 112.213Z"
        fill="#B6CBFF" />
      <path
        d="M196.625 108.953C196.652 109.052 196.655 109.156 196.634 109.257C196.613 109.357 196.569 109.451 196.505 109.531C196.441 109.611 196.359 109.674 196.266 109.715C196.172 109.756 196.071 109.774 195.97 109.768L191.535 109.53C191.326 109.525 191.124 109.453 190.959 109.325C190.793 109.197 190.671 109.019 190.611 108.817L190.577 108.664C190.548 108.566 190.542 108.461 190.56 108.36C190.579 108.259 190.621 108.163 190.684 108.082C190.746 108 190.827 107.935 190.92 107.892C191.012 107.848 191.114 107.828 191.216 107.832C192.711 107.9 194.206 107.985 195.684 108.087C195.888 108.097 196.083 108.171 196.243 108.299C196.402 108.427 196.518 108.602 196.574 108.8L196.625 108.953ZM203.327 109.411L203.294 109.259C203.236 109.06 203.12 108.884 202.961 108.753C202.802 108.623 202.608 108.544 202.403 108.529L199.077 108.308C198.975 108.297 198.871 108.313 198.776 108.353C198.681 108.393 198.597 108.456 198.532 108.537C198.467 108.618 198.423 108.713 198.404 108.816C198.385 108.918 198.391 109.024 198.422 109.123L198.456 109.276C198.513 109.474 198.629 109.651 198.788 109.781C198.947 109.911 199.142 109.99 199.346 110.006L202.672 110.226C202.774 110.233 202.875 110.215 202.968 110.173C203.061 110.132 203.143 110.069 203.207 109.989C203.271 109.91 203.316 109.816 203.336 109.715C203.357 109.615 203.354 109.51 203.327 109.411V109.411Z"
        fill="#7194FF" />
      <path
        d="M183.539 103.35C183.69 104.539 182.934 105.506 181.825 105.506C180.717 105.506 179.726 104.539 179.574 103.35C179.423 102.162 180.179 101.194 181.288 101.194C182.397 101.194 183.388 102.162 183.539 103.35ZM211.34 104.708C211.189 103.503 210.181 102.552 209.072 102.552C207.964 102.552 207.208 103.503 207.359 104.708C207.51 105.914 208.535 106.848 209.627 106.848C210.719 106.848 211.491 105.897 211.34 104.708ZM204.453 113.503L197.33 113.011C200.421 116.135 203.26 115.829 204.453 113.503Z"
        fill="black" />
      <path
        d="M229.432 110.26L229.012 110.328C227.889 110.519 226.735 110.285 225.772 109.671C224.808 109.058 224.102 108.107 223.788 107.001L223.67 106.593C223.523 106.071 223.487 105.524 223.564 104.987C223.641 104.45 223.829 103.936 224.116 103.478C224.403 103.019 224.782 102.627 225.229 102.328C225.677 102.028 226.181 101.826 226.711 101.737L227.131 101.669C228.252 101.47 229.407 101.698 230.372 102.31C231.337 102.921 232.044 103.873 232.355 104.98L232.472 105.388C232.619 105.91 232.655 106.458 232.579 106.996C232.502 107.534 232.314 108.05 232.028 108.509C231.741 108.969 231.361 109.362 230.914 109.664C230.467 109.966 229.962 110.169 229.432 110.26V110.26ZM169.949 106.287C169.634 105.182 168.927 104.233 167.963 103.622C166.999 103.011 165.846 102.781 164.725 102.977L164.288 103.045C163.76 103.136 163.257 103.339 162.812 103.639C162.367 103.94 161.989 104.332 161.704 104.79C161.419 105.249 161.232 105.762 161.156 106.298C161.081 106.834 161.117 107.38 161.264 107.9L161.382 108.308C161.693 109.413 162.396 110.363 163.356 110.977C164.317 111.591 165.468 111.826 166.589 111.636L167.026 111.568C167.554 111.476 168.057 111.273 168.503 110.973C168.949 110.672 169.327 110.28 169.614 109.823C169.9 109.365 170.089 108.852 170.167 108.316C170.245 107.78 170.211 107.234 170.066 106.712L169.949 106.287Z"
        fill="#FFE55C" />
      <path
        d="M260.979 85.5908C259.768 84.8013 258.737 83.76 257.955 82.5363C257.173 81.3126 256.658 79.9345 256.444 78.4938L255.705 73.5361C255.688 73.4176 255.63 73.3092 255.54 73.2311C255.451 73.153 255.336 73.1105 255.217 73.1117C255.1 73.114 254.987 73.1576 254.898 73.2351C254.809 73.3126 254.75 73.4191 254.73 73.5361L253.991 78.4938C253.781 79.9337 253.27 81.3118 252.49 82.5357C251.711 83.7596 250.682 84.8012 249.472 85.5908L248.834 86.0152C248.762 86.0552 248.702 86.1143 248.661 86.1861C248.619 86.2578 248.598 86.3396 248.599 86.4227V86.4567C248.6 86.5416 248.622 86.625 248.663 86.6991C248.704 86.7732 248.763 86.8358 248.834 86.8811L249.472 87.2886C250.682 88.0782 251.711 89.1198 252.49 90.3437C253.27 91.5676 253.781 92.9457 253.991 94.3856L254.73 99.3433C254.75 99.4603 254.809 99.5668 254.898 99.6443C254.987 99.7218 255.1 99.7654 255.217 99.7677C255.336 99.7689 255.451 99.7264 255.54 99.6483C255.63 99.5702 255.688 99.4618 255.705 99.3433L256.444 94.3856C256.658 92.9449 257.173 91.5668 257.955 90.3431C258.737 89.1193 259.768 88.0781 260.979 87.2886L261.618 86.8811C261.685 86.8328 261.739 86.7692 261.777 86.6954C261.815 86.6216 261.835 86.5398 261.836 86.4567V86.4227C261.837 86.3416 261.818 86.2616 261.779 86.1903C261.741 86.1189 261.685 86.0587 261.618 86.0152L260.979 85.5908Z"
        fill="#8AD7FF" />
      <path
        d="M135.495 123.113C134.807 122.663 134.222 122.07 133.779 121.373C133.336 120.676 133.045 119.892 132.925 119.072L132.505 116.237C132.497 116.168 132.463 116.105 132.409 116.06C132.356 116.016 132.288 115.994 132.22 115.999C132.154 115.999 132.09 116.022 132.041 116.066C131.991 116.11 131.959 116.171 131.951 116.237L131.531 119.072C131.405 119.891 131.109 120.675 130.663 121.371C130.217 122.067 129.632 122.661 128.944 123.113L128.591 123.351C128.55 123.375 128.516 123.409 128.492 123.451C128.469 123.493 128.456 123.54 128.457 123.588V123.588C128.458 123.636 128.471 123.683 128.494 123.724C128.518 123.766 128.551 123.801 128.591 123.826L128.944 124.064C129.637 124.515 130.226 125.11 130.672 125.81C131.118 126.51 131.411 127.298 131.531 128.122L131.951 130.94C131.959 131.006 131.991 131.067 132.041 131.111C132.09 131.154 132.154 131.178 132.22 131.178V131.178C132.288 131.183 132.356 131.161 132.409 131.116C132.463 131.072 132.497 131.009 132.505 130.94L132.925 128.122C133.04 127.301 133.33 126.515 133.773 125.817C134.217 125.12 134.804 124.527 135.495 124.081L135.865 123.843C135.905 123.818 135.938 123.783 135.962 123.741C135.985 123.7 135.998 123.653 135.999 123.605V123.605C136 123.557 135.988 123.51 135.964 123.468C135.94 123.426 135.906 123.392 135.865 123.368L135.495 123.113Z"
        fill="#57F287" />
    </g>
    <path
      d="M24.322 62.236V64H17.672V63.454C17.672 62.6233 17.8073 61.9327 18.078 61.382C18.358 60.822 18.694 60.3787 19.086 60.052C19.4873 59.7253 20.0147 59.3707 20.668 58.988C21.3027 58.6147 21.7227 58.288 21.928 58.008C22.1333 57.7187 22.236 57.4107 22.236 57.084C22.236 56.7293 22.1147 56.4447 21.872 56.23C21.6387 56.0153 21.298 55.908 20.85 55.908C20.4673 55.908 20.1267 56.034 19.828 56.286C19.5387 56.5287 19.31 56.8787 19.142 57.336L17.504 56.412C17.7467 55.74 18.148 55.194 18.708 54.774C19.2773 54.354 20.024 54.144 20.948 54.144C21.956 54.144 22.7587 54.4147 23.356 54.956C23.9533 55.488 24.252 56.2067 24.252 57.112C24.252 57.7933 24.056 58.3907 23.664 58.904C23.2813 59.4173 22.6327 59.9353 21.718 60.458C21.186 60.766 20.7707 61.0647 20.472 61.354C20.1733 61.634 19.982 61.928 19.898 62.236H24.322ZM32.0535 64H29.8835L28.1055 57.42H30.0515L31.0875 61.788L32.2075 57.42H34.2235L35.3435 61.788L36.3795 57.42H38.3255L36.5475 64H34.3775L33.2155 59.702L32.0535 64ZM42.5522 64.196C41.4975 64.196 40.6435 63.902 39.9902 63.314C39.3462 62.726 39.0242 61.8627 39.0242 60.724C39.0242 59.9493 39.1782 59.3007 39.4862 58.778C39.7942 58.246 40.1955 57.854 40.6902 57.602C41.1942 57.35 41.7309 57.224 42.3002 57.224C43.3549 57.224 44.1389 57.5367 44.6522 58.162C45.1655 58.7873 45.4222 59.5993 45.4222 60.598C45.4222 60.8127 45.4082 61.032 45.3802 61.256H40.9282C41.0215 61.6853 41.2129 62.0213 41.5022 62.264C41.7915 62.5067 42.1602 62.628 42.6082 62.628C42.9255 62.628 43.2102 62.572 43.4622 62.46C43.7142 62.348 43.9569 62.1753 44.1902 61.942L45.1842 63.202C44.8575 63.51 44.4842 63.7527 44.0642 63.93C43.6442 64.1073 43.1402 64.196 42.5522 64.196ZM43.6862 59.926C43.5835 59.142 43.1262 58.75 42.3142 58.75C41.9409 58.75 41.6375 58.8527 41.4042 59.058C41.1802 59.2633 41.0262 59.5527 40.9422 59.926H43.6862ZM49.9897 64.196C48.935 64.196 48.081 63.902 47.4277 63.314C46.7837 62.726 46.4617 61.8627 46.4617 60.724C46.4617 59.9493 46.6157 59.3007 46.9237 58.778C47.2317 58.246 47.633 57.854 48.1277 57.602C48.6317 57.35 49.1684 57.224 49.7377 57.224C50.7924 57.224 51.5764 57.5367 52.0897 58.162C52.603 58.7873 52.8597 59.5993 52.8597 60.598C52.8597 60.8127 52.8457 61.032 52.8177 61.256H48.3657C48.459 61.6853 48.6504 62.0213 48.9397 62.264C49.229 62.5067 49.5977 62.628 50.0457 62.628C50.363 62.628 50.6477 62.572 50.8997 62.46C51.1517 62.348 51.3944 62.1753 51.6277 61.942L52.6217 63.202C52.295 63.51 51.9217 63.7527 51.5017 63.93C51.0817 64.1073 50.5777 64.196 49.9897 64.196ZM51.1237 59.926C51.021 59.142 50.5637 58.75 49.7517 58.75C49.3784 58.75 49.075 58.8527 48.8417 59.058C48.6177 59.2633 48.4637 59.5527 48.3797 59.926H51.1237ZM54.2352 64V53.78H56.1672V59.24L58.0292 57.42H60.3532L57.9032 59.8C58.4352 60.4067 58.9159 61.0693 59.3452 61.788C59.7839 62.5067 60.1479 63.244 60.4372 64H58.2812C57.8985 62.8427 57.3385 61.8627 56.6012 61.06L56.1672 61.494V64H54.2352ZM70.5987 64.196C69.8333 64.196 69.2687 64.0047 68.9047 63.622C68.5407 63.2393 68.3587 62.6373 68.3587 61.816V59.072H67.1967V57.42H68.3587V55.712L70.3047 55.152V57.42H71.9007V59.072H70.3047V61.606C70.3047 61.9047 70.3607 62.138 70.4727 62.306C70.5847 62.4647 70.7947 62.544 71.1027 62.544C71.4013 62.544 71.6673 62.446 71.9007 62.25V63.86C71.5833 64.084 71.1493 64.196 70.5987 64.196ZM73.1707 64V57.42H74.9067L75.0887 58.386C75.2661 58.0033 75.4947 57.714 75.7747 57.518C76.0641 57.322 76.4281 57.224 76.8667 57.224C77.1374 57.224 77.3334 57.2567 77.4547 57.322V59.17C77.1561 59.0487 76.8387 58.988 76.5027 58.988C76.2134 58.988 75.9381 59.0813 75.6767 59.268C75.4154 59.4453 75.2194 59.6973 75.0887 60.024V64H73.1707ZM79.8242 56.37C79.4696 56.37 79.1896 56.2673 78.9842 56.062C78.7789 55.8567 78.6762 55.5767 78.6762 55.222C78.6762 54.8673 78.7789 54.5873 78.9842 54.382C79.1896 54.1767 79.4696 54.074 79.8242 54.074C80.1789 54.074 80.4589 54.1767 80.6642 54.382C80.8696 54.5873 80.9722 54.8673 80.9722 55.222C80.9722 55.5767 80.8696 55.8567 80.6642 56.062C80.4589 56.2673 80.1789 56.37 79.8242 56.37ZM80.7902 64H78.8582V57.42H80.7902V64ZM84.3703 64.196C83.773 64.196 83.2876 64.0187 82.9143 63.664C82.541 63.3 82.3543 62.81 82.3543 62.194C82.3543 61.4473 82.6903 60.8967 83.3623 60.542C84.0436 60.178 85.0003 59.9867 86.2323 59.968V59.926C86.2323 59.59 86.1203 59.3193 85.8963 59.114C85.6816 58.9087 85.397 58.806 85.0423 58.806C84.7716 58.806 84.487 58.8573 84.1883 58.96C83.899 59.0627 83.6236 59.2307 83.3623 59.464L82.4663 58.274C82.8023 57.9287 83.2036 57.6673 83.6703 57.49C84.137 57.3127 84.6456 57.224 85.1963 57.224C87.175 57.224 88.1643 58.1247 88.1643 59.926V64H86.3583L86.2323 63.286C85.775 63.8927 85.1543 64.196 84.3703 64.196ZM84.9023 62.684C85.1823 62.684 85.425 62.628 85.6303 62.516C85.845 62.3947 86.0456 62.2407 86.2323 62.054V61.172C84.8976 61.2373 84.2303 61.5453 84.2303 62.096C84.2303 62.292 84.291 62.4413 84.4123 62.544C84.5336 62.6373 84.697 62.684 84.9023 62.684ZM92.0191 64.196C91.3191 64.196 90.7918 64 90.4371 63.608C90.0824 63.216 89.9051 62.6 89.9051 61.76V53.78H91.8371V61.592C91.8371 61.9093 91.8838 62.138 91.9771 62.278C92.0798 62.418 92.2478 62.488 92.4811 62.488C92.6584 62.488 92.8078 62.4413 92.9291 62.348V64C92.8264 64.0747 92.7051 64.126 92.5651 64.154C92.4251 64.182 92.2431 64.196 92.0191 64.196Z"
      fill="#F3F4F5" />
  </g>
  <defs>
    <linearGradient id="paint0_linear_13_1725" x1="70.6315" y1="39.6721" x2="279.799" y2="111.109"
      gradientUnits="userSpaceOnUse">
      <stop stop-color="#8547C6" />
      <stop offset="0.52899" stop-color="#B845C1" />
      <stop offset="1" stop-color="#AB5D8A" />
    </linearGradient>
    <clipPath id="clip0_13_1725">
      <rect width="278" height="158" fill="white" transform="translate(0.5)" />
    </clipPath>
    <clipPath id="clip1_13_1725">
      <rect width="134.387" height="89.0517" fill="white" transform="translate(127.835 63.0435)" />
    </clipPath>
  </defs>
</svg>