<svg width="240" height="72" viewBox="0 0 240 72" fill="none" xmlns="http://www.w3.org/2000/svg">
<rect width="240" height="72" fill="#5865F2"/>
<path d="M1 72H109C90.0008 52.0405 74.0239 62.7117 74.0239 62.7117C74.0239 62.7117 70.3092 43.899 58.7692 50.7718C49.5664 23.448 35.7139 28.7398 35.7139 28.7398C33.9011 11.1367 7.63809 9.75945 1 14.0398V72Z" fill="#6874F6"/>
<path d="M240 71.7504H120C136.168 60.436 151.924 62.9366 151.924 62.9366C151.924 62.9366 165.194 45.5607 178.185 55.6528C183.773 14.7781 203.552 19.7766 203.552 19.7766C217.091 -2.89714 232.527 1.53914 240 7.82434V71.7504Z" fill="#6874F6"/>
<path d="M87.4802 26.5193C86.9635 26.1785 86.5251 25.7316 86.1943 25.2085C85.8634 24.6853 85.6476 24.0978 85.5611 23.4848L85.2373 21.3739C85.2314 21.324 85.2073 21.2781 85.1697 21.2449C85.1321 21.2118 85.0835 21.1936 85.0334 21.1939C84.9812 21.1905 84.9297 21.2073 84.8895 21.2408C84.8493 21.2743 84.8235 21.3219 84.8175 21.3739L84.5056 23.4848C84.4127 24.1001 84.1905 24.6886 83.8535 25.2117C83.5165 25.7348 83.0724 26.1804 82.5506 26.5193L82.2747 26.6872C82.2459 26.7077 82.2222 26.7346 82.2055 26.7659C82.1889 26.7971 82.1797 26.8318 82.1788 26.8672C82.1787 26.9027 82.1874 26.9378 82.2042 26.9691C82.2209 27.0005 82.2451 27.0273 82.2747 27.0471L82.5506 27.227C83.0711 27.5646 83.5143 28.0084 83.8512 28.5293C84.1881 29.0501 84.4111 29.6364 84.5056 30.2495L84.8175 32.3724C84.8235 32.4244 84.8493 32.472 84.8895 32.5055C84.9297 32.539 84.9812 32.5558 85.0334 32.5524C85.0835 32.5527 85.1321 32.5345 85.1697 32.5013C85.2073 32.4682 85.2314 32.4223 85.2373 32.3724L85.5611 30.2495C85.6534 29.6357 85.8755 29.0486 86.2126 28.5274C86.5498 28.0062 86.9941 27.5628 87.5162 27.227L87.792 27.0471C87.8216 27.0273 87.8458 27.0005 87.8626 26.9691C87.8793 26.9378 87.888 26.9027 87.888 26.8672C87.887 26.8318 87.8779 26.7971 87.8612 26.7659C87.8446 26.7346 87.8209 26.7077 87.792 26.6872L87.4802 26.5193Z" fill="#3442D9"/>
<path d="M182.281 42.0987C181.759 41.7598 181.315 41.3141 180.978 40.7911C180.641 40.268 180.419 39.6794 180.326 39.0642L180.014 36.9532C180.008 36.9013 179.983 36.8536 179.942 36.8201C179.902 36.7866 179.851 36.7699 179.799 36.7733C179.748 36.773 179.7 36.7911 179.662 36.8243C179.625 36.8575 179.601 36.9034 179.595 36.9532L179.271 39.0642C179.182 39.6809 178.962 40.2712 178.625 40.7949C178.287 41.3186 177.841 41.7633 177.316 42.0987L177.052 42.2666C177.02 42.2849 176.993 42.3111 176.975 42.3426C176.956 42.3741 176.945 42.4098 176.944 42.4465C176.943 42.4837 176.952 42.5206 176.971 42.5525C176.99 42.5845 177.018 42.6102 177.052 42.6264L177.316 42.8063C177.844 43.1481 178.292 43.6009 178.627 44.1332C178.963 44.6656 179.178 45.2647 179.259 45.8888L179.583 48.0118C179.589 48.0616 179.613 48.1075 179.65 48.1407C179.688 48.1739 179.736 48.192 179.787 48.1917C179.839 48.1951 179.89 48.1784 179.93 48.1449C179.971 48.1114 179.996 48.0637 180.002 48.0118L180.314 45.8888C180.404 45.2662 180.626 44.67 180.965 44.1403C181.304 43.6107 181.753 43.1599 182.281 42.8183L182.557 42.6384C182.588 42.6193 182.614 42.5929 182.633 42.5616C182.652 42.5303 182.663 42.495 182.665 42.4585C182.662 42.4223 182.651 42.3873 182.632 42.3561C182.613 42.325 182.588 42.2984 182.557 42.2786L182.281 42.0987Z" fill="#FF78B9"/>
<path d="M44.3374 23.22C43.8154 22.8842 43.371 22.4408 43.0338 21.9196C42.6967 21.3984 42.4746 20.8113 42.3823 20.1975L42.0705 18.0745C42.0619 18.0237 42.0354 17.9777 41.9958 17.9447C41.9562 17.9117 41.9061 17.8939 41.8546 17.8946C41.803 17.8939 41.753 17.9117 41.7134 17.9447C41.6738 17.9777 41.6473 18.0237 41.6387 18.0745L41.3268 20.1975C41.2346 20.8113 41.0125 21.3984 40.6753 21.9196C40.3382 22.4408 39.8938 22.8842 39.3718 23.22L39.0959 23.3999C39.0664 23.4197 39.0421 23.4465 39.0254 23.4778C39.0086 23.5092 38.9999 23.5443 39 23.5798C38.9999 23.6154 39.0086 23.6505 39.0254 23.6818C39.0421 23.7132 39.0664 23.74 39.0959 23.7598L39.3718 23.9397C39.8959 24.2732 40.3419 24.7159 40.6793 25.2375C41.0167 25.7591 41.2376 26.3474 41.3268 26.9622L41.6387 29.0731C41.647 29.1251 41.673 29.1727 41.7123 29.2077C41.7517 29.2427 41.802 29.2629 41.8546 29.265C41.9072 29.2629 41.9575 29.2427 41.9968 29.2077C42.0362 29.1727 42.0622 29.1251 42.0705 29.0731L42.3823 26.9622C42.4716 26.3474 42.6925 25.7591 43.0299 25.2375C43.3673 24.7159 43.8132 24.2732 44.3374 23.9397L44.6132 23.7598C44.6428 23.74 44.667 23.7132 44.6838 23.6818C44.7005 23.6505 44.7092 23.6154 44.7092 23.5798C44.7092 23.5443 44.7005 23.5092 44.6838 23.4778C44.667 23.4465 44.6428 23.4197 44.6132 23.3999L44.3374 23.22Z" fill="white"/>
<path d="M174.533 15.2204C173.825 14.7649 173.222 14.1633 172.765 13.4559C172.308 12.7485 172.007 11.9515 171.883 11.1185L171.487 8.25187C171.476 8.18294 171.441 8.12006 171.388 8.07408C171.336 8.02809 171.269 8.0019 171.199 8C171.129 8.0019 171.062 8.02809 171.01 8.07408C170.957 8.12006 170.922 8.18294 170.911 8.25187L170.491 11.1185C170.362 11.9499 170.059 12.7448 169.602 13.4515C169.146 14.1582 168.546 14.7609 167.841 15.2204L167.469 15.4603C167.428 15.4854 167.394 15.5207 167.371 15.5627C167.348 15.6048 167.336 15.6522 167.337 15.7002C167.336 15.7498 167.348 15.7988 167.371 15.8428C167.394 15.8867 167.428 15.9243 167.469 15.9521L167.841 16.192C168.548 16.6456 169.151 17.2452 169.608 17.9505C170.065 18.6559 170.366 19.4508 170.491 20.282L170.911 23.1485C170.922 23.2175 170.957 23.2804 171.01 23.3263C171.062 23.3723 171.129 23.3985 171.199 23.4004C171.269 23.3985 171.336 23.3723 171.388 23.3263C171.441 23.2804 171.476 23.2175 171.487 23.1485L171.919 20.282C172.041 19.45 172.342 18.6543 172.799 17.9486C173.256 17.2429 173.86 16.6438 174.569 16.192L174.941 15.9521C174.981 15.9229 175.013 15.885 175.036 15.8414C175.059 15.7977 175.072 15.7495 175.073 15.7002C175.071 15.6528 175.058 15.6066 175.035 15.565C175.012 15.5234 174.98 15.4876 174.941 15.4603L174.533 15.2204Z" fill="#8CD9FF"/>
<path d="M60.6254 38.3086C59.9169 37.8531 59.3139 37.2515 58.8568 36.544C58.3996 35.8366 58.0989 35.0397 57.9747 34.2066L57.5429 31.34C57.5318 31.2711 57.4969 31.2082 57.4444 31.1622C57.3918 31.1162 57.3249 31.09 57.2551 31.0881C57.1852 31.09 57.1183 31.1162 57.0657 31.1622C57.0132 31.2082 56.9783 31.2711 56.9672 31.34L56.5474 34.2066C56.4181 35.038 56.1152 35.8329 55.6585 36.5396C55.2019 37.2463 54.6016 37.849 53.8967 38.3086L53.5249 38.5484C53.4839 38.5735 53.4502 38.6088 53.4271 38.6509C53.4039 38.6929 53.3922 38.7403 53.393 38.7883C53.3924 38.8379 53.4041 38.8869 53.4272 38.9309C53.4502 38.9749 53.4838 39.0124 53.5249 39.0402L53.8967 39.2801C54.6033 39.7349 55.2051 40.3348 55.6621 41.0399C56.1191 41.7451 56.4209 42.5394 56.5474 43.3701L56.9672 46.2367C56.9783 46.3056 57.0132 46.3685 57.0657 46.4145C57.1183 46.4604 57.1852 46.4866 57.2551 46.4885C57.3249 46.4866 57.3918 46.4604 57.4444 46.4145C57.4969 46.3685 57.5318 46.3056 57.5429 46.2367L57.9747 43.3701C58.099 42.5386 58.3999 41.7435 58.8571 41.038C59.3143 40.3325 59.9172 39.7331 60.6254 39.2801L60.9972 39.0402C61.0369 39.011 61.0694 38.9732 61.0923 38.9295C61.1152 38.8859 61.1278 38.8376 61.1291 38.7883C61.1268 38.7409 61.1138 38.6947 61.0909 38.6531C61.068 38.6116 61.036 38.5758 60.9972 38.5484L60.6254 38.3086Z" fill="#91FFAD"/>
<path d="M160.62 32.5754C159.363 31.8626 158.009 31.3335 156.602 31.0041C156.292 30.9296 155.969 30.938 155.663 31.0286C155.358 31.1191 155.082 31.2886 154.863 31.5199C153.58 33.0055 151.96 34.1613 150.137 34.8902L150.869 32.4914C150.999 32.229 151.02 31.9255 150.927 31.6477C150.833 31.3699 150.634 31.1406 150.371 31.0101C150.109 30.8797 149.805 30.8589 149.527 30.9522C149.25 31.0456 149.02 31.2455 148.89 31.5079L146.695 34.8902L145.495 36.5814C145.495 36.5814 128.104 55.9519 126.305 58.9144L129.184 65.6671L149.693 41.1631L150.389 40.4675C151.576 40.8401 152.834 40.9256 154.06 40.7171C155.286 40.5086 156.445 40.012 157.442 39.2681C158.906 38.0527 160.19 36.6352 161.256 35.0581C161.38 34.8543 161.463 34.6275 161.498 34.3912C161.534 34.1549 161.522 33.9139 161.462 33.6825C161.403 33.451 161.298 33.2337 161.153 33.0436C161.009 32.8534 160.827 32.6942 160.62 32.5754Z" fill="#FFD635"/>
<path d="M103.048 57.8829L97.2792 62.4647C96.9475 62.7354 96.5445 62.9044 96.1188 62.9512C95.6932 62.998 95.2631 62.9207 94.8804 62.7285C91.75 61.2173 82.8863 57.0073 82.8863 57.0073L80.9673 56.2277L77.2971 54.5605C77.0465 54.425 76.7532 54.3915 76.4786 54.4673C76.204 54.543 75.9692 54.722 75.8236 54.9668C75.6779 55.2117 75.6326 55.5033 75.6971 55.7808C75.7616 56.0583 75.9309 56.3001 76.1696 56.4556L77.1172 57.1872C76.7495 57.3888 76.337 57.4945 75.9177 57.4945C75.4985 57.4945 75.086 57.3888 74.7183 57.1872C73.5796 56.4057 72.3758 55.7235 71.1201 55.1483C70.9752 55.0916 70.8167 55.0796 70.6649 55.1138C70.5132 55.148 70.3751 55.2269 70.2685 55.3402C69.4075 56.17 68.7507 57.1882 68.3495 58.3147C68.2055 58.7825 67.246 61.817 67.9776 62.3087C68.7093 62.8005 70.1366 63.5081 74.9342 64.1438C75.6157 64.2217 76.3038 64.2217 76.9852 64.1438C78.0306 64.0443 79.0315 63.6721 79.8878 63.0644C80.1634 62.8613 80.4998 62.7578 80.8419 62.7709C81.184 62.784 81.5115 62.9128 81.7709 63.1363C85.1652 66.0509 91.1502 70.8485 94.9644 71.0524C100.074 71.3403 108.686 63.2563 115.354 55.8079C109.225 52.5815 107.846 54.0808 103.048 57.8829Z" fill="#FFD635"/>
<path d="M111.864 54.7885L126.029 54.3087C132.398 62.7765 129.735 66.6866 127.361 72H106.335C106.335 72 105.627 69.4333 105.052 67.2024C103.924 62.6806 104.956 59.1903 111.864 54.7885Z" fill="white"/>
<path d="M115.846 40.5275L135.972 36.1376C129.735 50.1947 124.602 52.8574 120.932 52.3297C117.261 51.8019 115.354 46.7764 115.846 40.5275Z" fill="#D11583"/>
<path d="M115.846 40.5275L104.38 28.7972C104.02 44.2217 107.018 47.52 109.669 48.4436C112.32 49.3671 114.563 46.5845 115.846 40.5275Z" fill="#D11583"/>
<path d="M103.456 40.0717C105.951 33.6189 121.687 28.9652 124.962 30.1646C128.236 31.364 136.872 42.0747 135.421 48.9713C133.969 55.8679 125.825 59.1423 116.374 56.8155C106.923 54.4886 100.77 47.0163 103.456 40.0717Z" fill="#FFE75C"/>
<path d="M124.122 35.454C129.519 31.0761 134.605 29.0251 141.369 26.9861C146.491 25.4389 146.407 20.6653 140.518 20.4374C134.629 20.2095 127.72 25.0071 123.726 30.0326C120.128 20.2814 119.792 16.9231 114.958 17.0311C110.125 17.139 107.546 21.8287 106.718 24.0116C106.071 25.7628 106.083 27.19 108.709 27.8377C111.336 28.4854 113.315 26.7703 114.707 24.4914C116.084 28.0552 117.757 31.4975 119.708 34.7823C121.039 36.8693 121.687 37.493 124.122 35.454Z" fill="#FFE75C"/>
<path d="M119.984 29.8168L116.902 22.3204" stroke="#FFC619" stroke-width="0.82" stroke-miterlimit="10" stroke-linecap="round"/>
<path d="M115.834 40.5275C115.342 46.7764 117.261 51.8019 120.932 52.3296C124.158 52.7974 128.524 50.7824 133.777 40.7074C133.161 39.4614 132.459 38.2591 131.678 37.1091L115.834 40.5275Z" fill="#FF8C19"/>
<path d="M104.668 38.0927C105.459 45.6969 107.666 47.7479 109.669 48.4436C112.32 49.3671 114.563 46.5845 115.834 40.5275L109.681 34.2186C107.789 35.1946 106.09 36.5074 104.668 38.0927Z" fill="#FF8C19"/>
<path d="M109.957 40.4315L109.069 38.7283" stroke="black" stroke-width="0.82" stroke-linecap="round" stroke-linejoin="round"/>
<path d="M109.597 41.3311L107.93 39.7599" stroke="black" stroke-width="0.82" stroke-linecap="round" stroke-linejoin="round"/>
<path d="M123.163 43.9458L124.746 42.1707" stroke="black" stroke-width="0.82" stroke-linecap="round" stroke-linejoin="round"/>
<path d="M123.018 44.9413L126.461 43.6699" stroke="black" stroke-width="0.82" stroke-linecap="round" stroke-linejoin="round"/>
<path d="M122.917 48.0073C124.361 47.265 124.811 45.264 123.923 43.5381C123.035 41.8122 121.146 41.0148 119.703 41.7571C118.259 42.4995 117.809 44.5004 118.697 46.2263C119.585 47.9523 121.474 48.7496 122.917 48.0073Z" fill="white"/>
<path d="M108.853 41.6789C108.649 39.8918 109.609 38.4405 111 38.3805C111.809 38.4533 112.567 38.8037 113.146 39.3721C113.726 39.9406 114.091 40.6921 114.179 41.499C114.539 43.406 113.567 45.0972 112.02 45.0972C110.473 45.0972 109.045 43.562 108.853 41.6789Z" fill="white"/>
<path d="M112.065 41.4605C112.219 40.7687 111.914 40.1121 111.384 39.994C110.854 39.8758 110.299 40.3409 110.145 41.0328C109.991 41.7246 110.296 42.3812 110.826 42.4993C111.356 42.6174 111.911 42.1523 112.065 41.4605Z" fill="black"/>
<path d="M121.664 43.8086C121.818 43.1168 121.513 42.4602 120.983 42.3421C120.453 42.2239 119.898 42.689 119.744 43.3808C119.59 44.0727 119.895 44.7293 120.425 44.8474C120.955 44.9655 121.51 44.5004 121.664 43.8086Z" fill="black"/>
<path d="M111.864 50.5786C113.064 54.6805 115.258 52.6535 116.302 51.3102C116.369 51.2196 116.412 51.1132 116.426 51.0013C116.441 50.8894 116.426 50.7756 116.384 50.6709C116.342 50.5663 116.274 50.4741 116.186 50.4033C116.098 50.3326 115.993 50.2855 115.882 50.2667L112.596 49.739C112.485 49.7188 112.371 49.7277 112.265 49.7648C112.159 49.8019 112.065 49.8659 111.991 49.9506C111.917 50.0353 111.867 50.1377 111.845 50.2478C111.822 50.3579 111.829 50.4719 111.864 50.5786Z" fill="black"/>
<path d="M117.117 21.037C117.162 20.9851 117.215 20.9423 117.276 20.9111C117.337 20.88 117.403 20.8611 117.471 20.8555C117.539 20.85 117.607 20.8578 117.672 20.8787C117.737 20.8995 117.797 20.933 117.849 20.9771C117.901 21.0212 117.944 21.0751 117.975 21.1357C118.006 21.1964 118.025 21.2625 118.031 21.3305C118.036 21.3984 118.028 21.4668 118.007 21.5317C117.987 21.5966 117.953 21.6567 117.909 21.7087C116.926 22.9594 116.021 24.2692 115.198 25.6308L114.743 24.4314C115.474 23.2593 116.267 22.1263 117.117 21.037Z" fill="black"/>
<path d="M140.782 24.6233C134.618 25.3359 128.871 28.0934 124.458 32.4554" stroke="#FFC619" stroke-width="0.82" stroke-miterlimit="10" stroke-linecap="round"/>
<path d="M116.146 46.3566C115.486 42.9143 115.678 42.3986 114.143 45.7089L113.843 45.625L115.103 40.4915H115.834L117.285 41.2471L116.53 46.3446L116.146 46.3566Z" fill="#FF8C19"/>
<path d="M113.843 51.1542C113.283 51.1422 112.732 51.2967 112.26 51.598C113.327 53.8409 114.791 52.9653 115.786 51.9099C115.532 51.6568 115.228 51.459 114.893 51.329C114.559 51.199 114.201 51.1395 113.843 51.1542Z" fill="#FF78B8"/>
</svg>
