<svg xmlns="http://www.w3.org/2000/svg" xmlns:xlink="http://www.w3.org/1999/xlink" viewBox="0 0 624 624"><defs><linearGradient id="prefix__a" x1="463.53" y1="158.47" x2="607.72" y2="158.47" gradientTransform="translate(11.56 -35.92)" gradientUnits="userSpaceOnUse"><stop offset="0" stop-color="#ef913c"/><stop offset="1" stop-color="#ef913c"/></linearGradient><linearGradient id="prefix__b" x1="912.95" y1="126.86" x2="1057.13" y2="126.86" gradientTransform="matrix(-1 .07 .07 1 1062.96 -35.92)" xlink:href="#prefix__a"/><linearGradient id="prefix__c" x1="312" y1="160.11" x2="312" y2="855.96" xlink:href="#prefix__a"/></defs><path d="M465.9 110.9s49-28.9 76.1-26.1c36.2 3.7 68.4 48.9 64.6 80.4-3.4 28.2-43.9 72-43.9 72" fill="url(#prefix__a)"/><path d="M565.6 239.9l-5.8-5.4c.4-.4 39.6-43.2 42.8-69.8 1.8-14.5-5-33.3-17.5-49.1s-28.3-25.3-43.5-26.9c-25.5-2.6-73.2 25.4-73.7 25.6l-4-6.8c2-1.3 50.4-29.6 78.5-26.7 17.3 1.8 35.1 12.6 48.9 29.8s21.3 38.5 19.3 55.1c-3.5 29.1-43.3 72.4-45 74.2z"/><path d="M546.8 209.5c10.5-11.5 25.4-32.7 27.9-42.1 4.5-17-12.2-48.6-36.2-51.7-9.3-1.3-30.3 8.3-46 15.5" fill="#f4c277"/><path d="M549.7 212.2l-5.9-5.4c10.4-11.4 24.7-31.9 27-40.4s-1-19.2-7.6-29-15.9-16.6-25.2-17.8-30.6 9.1-43.9 15.2l-3.3-7.3c20.6-9.4 38.5-17.1 48.3-15.8 11.5 1.5 22.7 9.3 30.8 21.3s11.3 25.7 8.7 35.4-18.8 32.7-28.9 43.8z"/><path d="M158.1 110.9S109.1 82 82 84.8c-36.2 3.7-68.4 48.9-64.6 80.4 3.4 28.2 43.9 72 43.9 72" fill="url(#prefix__b)"/><path d="M58.4 239.9c-1.7-1.8-41.5-45.1-45-74.2-2-16.6 5.4-37.7 19.3-55s31.6-28.1 48.9-29.9c28.1-2.9 76.5 25.4 78.5 26.7l-4 6.8c-.5-.2-48.2-28.2-73.7-25.6-15.2 1.6-31 11.4-43.5 26.9s-19.3 34.6-17.5 49.1c3.2 26.6 42.4 69.4 42.8 69.8z"/><path d="M77.2 209.5c-10.5-11.5-25.4-32.7-27.9-42.1-4.5-17 12.2-48.6 36.2-51.7 9.3-1.3 30.3 8.3 46 15.5" fill="#f4c277"/><path d="M74.3 212.2c-10.1-11.1-26-33-28.9-43.8s.8-23.7 8.7-35.4 19.3-19.8 30.8-21.3c9.8-1.3 27.7 6.4 48.3 15.8l-3.3 7.3c-13.3-6.1-35.6-16.3-43.9-15.2s-18.5 7.7-25.2 17.8-9.6 21.5-7.6 29 16.6 29 27 40.4z"/><path d="M315.8 151.9s14.1 34.9 23.4 51.6c5.6 10.2 11.4 11 20.2 2.8 16.7-15.4 39.3-42.3 39.3-42.3z" fill="#fff"/><path d="M349.1 215.9l-1.8-.2c-5.8-.9-9.4-6.3-11.6-10.3-9.3-16.7-23-50.6-23.6-52l-2.6-6.5 96.9 14.1-4.6 5.5c-.9 1.1-23 27.4-39.6 42.8-3.2 2.9-7.9 6.6-13.1 6.6zm-26.9-59c4.5 10.8 13.8 32.7 20.5 44.7 2.1 3.8 4.1 5.9 5.9 6.2s4.6-1.2 8.1-4.4c11.8-10.9 26.8-27.9 34.3-36.5z"/><path d="M407.2 164.9s-1.8 37.6-.4 56.6c.9 11.7 5.8 14.8 17.3 11.1 21.6-7 54.9-21 54.9-21z" fill="#fff"/><path d="M416.3 238.1a12.6 12.6 0 01-7.2-2.1c-4.9-3.3-5.9-9.7-6.3-14.2-1.4-19 .3-55.6.4-57.1l.3-7 84 54.7-7 2.9c-.3.1-33.7 14.1-55.2 21.1a31.3 31.3 0 01-9 1.7zm-5.4-66c-.4 11.7-1.1 35.5-.1 49.1.3 4.4 1.3 7.2 2.8 8.2s4.7.8 9.2-.6c15.3-5 36.7-13.5 47.6-18z"/><g><path d="M315.7 493.2s14.7-34.1 24.4-50.5c6-10.1 13.2-13 21.8-4.6 16.3 15.9 37.8 45.2 37.8 45.2z" fill="#fff"/><path d="M309.3 498l2.7-6.4c.6-1.4 14.9-34.5 24.7-50.9 4-6.9 8.7-10.7 13.9-11.4s9.5 1.4 14.1 5.9c16.3 16 37.3 44.5 38.2 45.7l4 5.5zm42.9-60.8h-.6c-2.5.4-5.3 3-8 7.6-7 11.7-16.7 33-21.4 43.6l70.1-8.3c-7-9.2-21.5-27.8-33.2-39.1-2.5-2.5-4.8-3.8-6.9-3.8z"/><g><path d="M407.1 482.7s3.1-33.9 6.7-53.1c2.3-12.8 9.8-16.1 21.1-10.7 20.3 9.8 51 30.6 51 30.6z" fill="#fff"/><path d="M402.5 489l.6-6.6c.1-1.4 3.2-34.3 6.7-53.5 1.4-7.5 4.5-12.6 9.3-15s10.6-1.9 17.5 1.4c20.4 9.8 50.3 30 51.5 30.8l6.2 4.2zm23.1-68.6a5.9 5.9 0 00-2.9.7c-3 1.5-4.4 5.8-5 9.2-2.6 13.8-4.9 35.3-6 46.1l65.8-27.7c-10-6.5-30-19.3-44.3-26.2a20 20 0 00-7.6-2.1z"/></g></g><g><path d="M308.3 493.2s-14.7-34.1-24.4-50.5c-6-10.1-13.2-13-21.8-4.6-16.3 15.9-37.8 45.2-37.8 45.2z" fill="#fff"/><path d="M314.7 498l-97.6-11.6 4-5.5c.9-1.2 21.9-29.7 38.2-45.7 4.6-4.5 9.4-6.5 14.1-5.9s9.9 4.5 13.9 11.4c9.8 16.4 24.1 49.5 24.7 50.9zm-83-17.9l70.1 8.3c-4.7-10.6-14.4-31.9-21.4-43.6-2.7-4.6-5.5-7.2-8-7.6s-4.7 1-7.5 3.8c-11.7 11.3-26.2 29.9-33.2 39.1z"/><g><path d="M216.9 482.7s-3.1-33.9-6.7-53.1c-2.3-12.8-9.8-16.1-21.1-10.7-20.3 9.8-51 30.6-51 30.6z" fill="#fff"/><path d="M221.5 489l-91.8-38.7 6.2-4.2c1.2-.8 31.1-21 51.5-30.8 6.9-3.3 12.8-3.8 17.5-1.4s7.9 7.5 9.3 15c3.5 19.2 6.6 52.1 6.7 53.5zm-75-40.3l65.8 27.7c-1.1-10.8-3.4-32.3-6-46.1-.6-3.4-2-7.7-5-9.2s-7.3-.1-10.5 1.4c-14.3 6.9-34.3 19.7-44.3 26.2z"/></g></g><g><path d="M308.2 151.9s-14.1 34.9-23.4 51.6c-5.6 10.2-11.4 11-20.2 2.8-16.7-15.4-39.3-42.3-39.3-42.3z" fill="#fff"/><path d="M274.9 215.9c-5.2 0-9.9-3.7-13.1-6.6-16.6-15.4-38.7-41.7-39.6-42.8l-4.6-5.5 96.9-14.1-2.6 6.5c-.6 1.4-14.3 35.3-23.6 52-2.2 4-5.8 9.4-11.6 10.3zm-41.9-49c7.5 8.6 22.5 25.6 34.3 36.5 3.5 3.2 6.3 4.7 8.1 4.4s3.8-2.4 5.9-6.2c6.7-12 16-33.9 20.5-44.7z"/><g><path d="M216.8 164.9s1.8 37.6.4 56.6c-.9 11.7-5.8 14.8-17.3 11.1-21.6-7-54.9-21-54.9-21z" fill="#fff"/><path d="M207.7 238.1a31.3 31.3 0 01-9-1.7c-21.5-7-54.9-21-55.2-21.1l-7-2.9 84-54.7.3 7c.1 1.5 1.8 38.1.4 57.1-.4 4.5-1.4 10.9-6.3 14.2a12.6 12.6 0 01-7.2 2.1zm-54.1-27.3c10.9 4.5 32.3 13 47.6 18 4.5 1.4 7.7 1.6 9.2.6s2.5-3.8 2.8-8.2c1-13.6.3-37.4-.1-49.1z"/></g></g><g><path d="M312 61.8c-188.7 0-269.1 150.9-269.1 287 0 146.8 119.4 230 269.1 230s269.1-83.2 269.1-230c0-136.1-80.4-287-269.1-287zm0 423c-119 0-190.5-45.5-190.5-145.3 0-86 35.4-181.3 190.5-181.3s190.5 95.3 190.5 181.3c0 99.8-71.5 145.3-190.5 145.3z" fill="url(#prefix__c)"/><path d="M312 582.8c-75.9 0-144.5-21.6-193.2-60.9-52.2-42.1-79.9-102-79.9-173.1a344.7 344.7 0 0115.7-103.5c11.1-35.3 27.6-66.8 49-93.5 49-61.5 121.1-94 208.4-94s159.4 32.5 208.4 94c21.4 26.7 37.9 58.2 49 93.5a344.7 344.7 0 0115.7 103.5c0 71.1-27.7 131-79.9 173.1-48.7 39.3-117.3 60.9-193.2 60.9zm0-517c-84.8 0-154.7 31.5-202.2 91-20.7 26-36.7 56.6-47.5 90.9a335.2 335.2 0 00-15.4 101.1c0 68.6 26.6 126.4 76.9 166.9 47.3 38.1 114.1 59.1 188.2 59.1s140.9-21 188.2-59.1c50.3-40.5 76.9-98.3 76.9-166.9a335.2 335.2 0 00-15.4-101.1c-10.8-34.3-26.8-64.9-47.5-90.9-47.5-59.5-117.4-91-202.2-91zm0 423c-127.2 0-194.5-51.6-194.5-149.3 0-52.4 12.8-94.6 38-125.4 32.4-39.8 85.1-59.9 156.5-59.9s124.1 20.1 156.5 59.9c25.2 30.8 38 73 38 125.4 0 97.7-67.3 149.3-194.5 149.3zm0-326.6c-68.9 0-119.4 19.1-150.3 56.9-24 29.4-36.2 69.9-36.2 120.4 0 47.2 16.5 83.1 49 106.8s77.7 34.5 137.5 34.5 106.1-11.6 137.5-34.5 49-59.6 49-106.8c0-50.5-12.2-91-36.2-120.4-30.9-37.8-81.4-56.9-150.3-56.9z"/></g><path d="M361.3 68.8c0 13.6-22.1 26.2-49.3 26.2s-49.3-12.6-49.3-26.2 22.1-20.9 49.3-20.9 49.3 7.3 49.3 20.9z"/><g><path d="M332.3 71.8c-5.2-1.5-12 1.6-8.7 12.3 4.6 15.2 11.8 33.1 23.1 34.2s22.4-7.5 19-19.5-25.4-24.7-33.4-27z" fill="#9cd6fa"/><path d="M348.6 122.4h-2.2c-14.1-1.3-22-21.7-26.6-37-2.6-8.3.2-12.8 2.1-14.7a11.5 11.5 0 0111.6-2.7c7.3 2.1 32 15.1 36.1 29.7a18 18 0 01-3.5 16.9 22.8 22.8 0 01-17.5 7.8zm-18.8-46.9a3.2 3.2 0 00-2.2.7c-1.1 1.1-1.1 3.6-.2 6.8 6.2 20.1 12.8 30.7 19.7 31.3a15.6 15.6 0 0012.9-4.9 10.3 10.3 0 001.9-9.6c-2.8-10-23.2-22-30.7-24.1a3.2 3.2 0 00-1.4-.2z"/></g><path d="M464.6 146.7c-5.2 6.8-17 4.1-27.9-4.2s-16.5-19-11.3-25.8 18.2-5.6 29 2.7 15.4 20.6 10.2 27.3zM159.4 146.7c5.2 6.8 17 4.1 27.9-4.2s16.5-19 11.3-25.8-18.2-5.6-29 2.7-15.4 20.6-10.2 27.3z"/></svg>
