<svg width="137" height="126" viewBox="0 0 137 126" fill="none" xmlns="http://www.w3.org/2000/svg">
<g clip-path="url(#clip0_511_31012)">
<path d="M90.224 79.7909L94.7389 80.9493C95.8875 81.3089 97.0785 81.5143 98.2808 81.5601C99.7555 81.5975 101.218 81.2812 102.546 80.6377C103.874 79.9942 105.03 79.042 105.918 77.8603C106.044 77.6637 106.212 77.4952 106.317 77.2916L106.674 76.6948C106.772 76.4842 106.863 76.2736 106.968 76.07C107.023 75.9674 107.068 75.8592 107.101 75.7471L107.213 75.4241L110.23 66.8239C110.827 65.1174 112.077 63.719 113.702 62.9363C115.328 62.1536 117.197 62.0507 118.899 62.6502C120.6 63.2498 121.995 64.5027 122.775 66.1333C123.555 67.7639 123.658 69.6387 123.06 71.3452C122.975 71.5843 122.877 71.8186 122.766 72.0472L120.736 76.2596L119.721 78.3657L119.21 79.4188L118.958 79.9454L118.587 80.6474L118.202 81.3495C118.082 81.5934 117.944 81.8281 117.789 82.0515C117.495 82.5149 117.194 82.9783 116.893 83.4556C116.592 83.933 116.193 84.3262 115.871 84.7474C115.549 85.1687 115.136 85.5548 114.765 85.955C113.239 87.4899 111.491 88.7847 109.579 89.7952C105.786 91.7604 101.479 92.4963 97.2518 91.9014C96.7338 91.8522 96.2229 91.7118 95.7119 91.6135C95.4599 91.5574 95.2009 91.5153 94.9489 91.4451L94.2069 91.2204C93.1079 90.8904 92.5059 90.6236 91.7569 90.3498L87.403 88.686C86.3043 88.2481 85.4114 87.4097 84.9034 86.339C84.3955 85.2682 84.3102 84.0444 84.6646 82.9132C85.019 81.7819 85.7869 80.827 86.8142 80.2401C87.8414 79.6531 89.052 79.4776 90.203 79.7488L90.224 79.7909Z" fill="url(#paint0_linear_511_31012)"/>
<path d="M104.833 92.8281C104.623 92.8301 104.42 92.758 104.259 92.6245C102.346 90.9865 100.792 88.9686 99.6956 86.6981C98.5992 84.4276 97.984 81.9538 97.8888 79.4329C97.8831 79.1969 97.9702 78.9681 98.1313 78.796C98.2925 78.6239 98.5146 78.5223 98.7498 78.5132C98.9803 78.5148 99.2012 78.6055 99.3668 78.7663C99.5324 78.9271 99.6298 79.1457 99.6388 79.3767C99.7224 81.6476 100.276 83.8762 101.264 85.9212C102.252 87.9661 103.653 89.7826 105.379 91.2555C105.557 91.4092 105.668 91.6271 105.688 91.8623C105.707 92.0974 105.634 92.3308 105.484 92.5122C105.404 92.608 105.304 92.6857 105.192 92.7401C105.08 92.7946 104.957 92.8246 104.833 92.8281Z" fill="#3F99F2"/>
<path d="M117.404 86.1586C114.45 86.1358 111.548 85.374 108.962 83.9421C106.375 82.5102 104.186 80.4536 102.593 77.9585C102.476 77.7586 102.442 77.5211 102.497 77.2963C102.552 77.0714 102.692 76.8768 102.888 76.7537C103.083 76.6306 103.319 76.5886 103.544 76.6365C103.77 76.6845 103.969 76.8187 104.098 77.0108C105.572 79.3193 107.613 81.2087 110.026 82.4973C112.438 83.7858 115.141 84.4301 117.873 84.3683C118.109 84.3599 118.339 84.4458 118.511 84.6071C118.684 84.7684 118.785 84.9919 118.794 85.2283C118.802 85.4648 118.717 85.6949 118.556 85.868C118.395 86.0412 118.172 86.1431 117.936 86.1515L117.404 86.1586Z" fill="#3F99F2"/>
<path d="M122.836 73.3532C117.77 73.353 112.762 72.2813 108.137 70.208C107.945 70.1002 107.8 69.925 107.729 69.7162C107.659 69.5074 107.668 69.2797 107.755 69.0773C107.842 68.8748 108 68.7118 108.2 68.6199C108.4 68.5279 108.627 68.5134 108.837 68.5792C115.151 71.4168 122.177 72.2638 128.982 71.0084C129.206 70.9819 129.431 71.0414 129.613 71.1751C129.794 71.3088 129.918 71.5065 129.96 71.7284C130.002 71.9504 129.958 72.1799 129.838 72.3707C129.717 72.5615 129.529 72.6994 129.311 72.7565C127.176 73.1553 125.008 73.3551 122.836 73.3532Z" fill="#3F99F2"/>
<path d="M78.9612 22.6575L58.1506 24.6443L58.7316 20.9866C59.0186 19.2034 61.2026 17.7151 63.9745 17.4764L71.8773 16.7181C74.6773 16.4584 77.0782 17.5044 77.6942 19.2034L78.9612 22.6575Z" fill="url(#paint1_linear_511_31012)"/>
<path d="M109.054 41.4234L109.628 47.4611C109.81 49.2891 109.357 51.1242 108.347 52.6563C107.744 53.6175 106.934 54.4315 105.978 55.0388C105.021 55.6462 103.941 56.0314 102.817 56.1666C98.1268 56.6159 93.8499 52.0525 93.2689 45.9657C92.6879 39.8789 96.0269 34.5994 100.724 34.1571C101.854 34.078 102.988 34.2539 104.042 34.6718C105.096 35.0897 106.043 35.7391 106.814 36.5722C108.097 37.8806 108.889 39.5951 109.054 41.4234Z" fill="url(#paint2_linear_511_31012)"/>
<path d="M107.759 39.2402C107.06 38.0366 106.185 36.9455 105.162 36.0037C104.988 35.8477 104.785 35.7283 104.564 35.6528C104.343 35.5773 104.11 35.5472 103.877 35.5642C103.644 35.5812 103.418 35.6451 103.21 35.752C103.003 35.8588 102.819 36.0065 102.67 36.1862C102.547 36.3364 102.462 36.5135 102.421 36.703C102.379 36.8926 102.384 37.0893 102.433 37.277C102.482 37.4646 102.575 37.6379 102.703 37.7827C102.832 37.9275 102.993 38.0396 103.174 38.1099C104.459 38.5956 105.666 39.2673 106.758 40.1037C106.889 40.2021 107.051 40.2511 107.215 40.2421C107.378 40.2331 107.534 40.1667 107.654 40.0546C107.754 39.9471 107.818 39.8106 107.837 39.6644C107.856 39.5182 107.829 39.3698 107.759 39.2402Z" fill="url(#paint3_linear_511_31012)"/>
<path d="M32.1253 48.7808L32.6992 54.8185C32.8563 56.6494 33.6461 58.3678 34.9322 59.6767C35.7031 60.5098 36.6502 61.1592 37.704 61.5771C38.7578 61.995 39.8916 62.1709 41.0221 62.0918C45.719 61.6425 49.0509 56.349 48.4769 50.2622C47.9029 44.1753 43.619 39.612 38.9291 40.0613C37.8049 40.1964 36.725 40.5817 35.7683 41.189C34.8115 41.7964 34.0021 42.6104 33.3992 43.5716C32.3839 45.1067 31.9334 46.9487 32.1253 48.7808Z" fill="url(#paint4_linear_511_31012)"/>
<path d="M32.9512 46.387C33.4089 45.0727 34.0652 43.8367 34.8972 42.7222C35.0363 42.535 35.212 42.3782 35.4136 42.2613C35.6151 42.1444 35.8383 42.0699 36.0695 42.0423C36.3007 42.0147 36.535 42.0346 36.7583 42.1008C36.9815 42.167 37.189 42.2781 37.3681 42.4274C37.5162 42.5519 37.633 42.7095 37.7091 42.8877C37.7852 43.0658 37.8184 43.2594 37.8062 43.4528C37.7939 43.6462 37.7365 43.8339 37.6385 44.001C37.5405 44.168 37.4047 44.3095 37.2421 44.4142C36.0715 45.1354 35.0126 46.0248 34.0992 47.0539C33.988 47.1768 33.837 47.2562 33.673 47.2781C33.5089 47.2999 33.3425 47.2628 33.2032 47.1733C33.0837 47.0857 32.995 46.9625 32.9497 46.8212C32.9044 46.68 32.905 46.5279 32.9512 46.387Z" fill="url(#paint5_linear_511_31012)"/>
<path d="M103.356 30.8292C102.82 28.5704 101.664 26.5073 100.018 24.8742C98.3727 23.2411 96.3036 22.1034 94.0459 21.5902C76.9973 17.6479 59.1344 19.3474 43.129 26.4344C41.011 27.3735 39.1974 28.8885 37.8935 30.8079C36.5896 32.7274 35.8475 34.9746 35.7511 37.2952C35.5971 41.1265 35.7024 44.9638 36.0661 48.7808C36.4171 52.6026 37.0299 56.3956 37.9001 60.1331C38.4368 62.3922 39.5932 64.4555 41.2385 66.0895C42.8838 67.7236 44.9523 68.8631 47.2099 69.3791C55.6826 71.3314 64.4127 71.9073 73.0673 71.0851C81.7158 70.2546 90.176 68.0408 98.1268 64.5279C100.253 63.596 102.075 62.0837 103.386 60.1634C104.696 58.2431 105.443 55.9922 105.54 53.6671C105.7 49.836 105.597 45.9984 105.232 42.1815C104.863 38.3592 104.236 34.5664 103.356 30.8292Z" fill="url(#paint6_linear_511_31012)"/>
<g opacity="0.67">
<path d="M62.9876 22.2642L62.5047 22.4117L62.0147 22.5521L61.0487 22.8329L59.1097 23.3735L58.1507 23.6262L57.1848 23.9C56.8628 23.9983 56.5408 24.0825 56.2188 24.1738L55.2528 24.4546L54.2938 24.7284L53.3208 25.0303L52.3619 25.3111L51.3959 25.599L49.4709 26.1677L48.505 26.4344L48.022 26.5819L47.532 26.7082C47.4842 26.722 47.4341 26.7259 47.3847 26.7199C47.3354 26.7138 47.2877 26.6979 47.2446 26.673C47.2015 26.6481 47.1639 26.6148 47.1339 26.575C47.1039 26.5352 47.0821 26.4898 47.07 26.4415C47.0515 26.3592 47.0599 26.2731 47.094 26.196C47.128 26.1189 47.1859 26.0548 47.259 26.0132C47.868 25.7043 48.491 25.4305 49.1069 25.1497L50.0519 24.7565L50.9969 24.3844C51.6339 24.1457 52.2779 23.9281 52.9219 23.6824C53.5658 23.4367 54.2238 23.2752 54.8748 23.0856C55.5258 22.8961 56.1838 22.7346 56.8488 22.5801C57.5138 22.4257 58.1507 22.3134 58.8507 22.2221L59.8517 22.0396L60.8597 21.8851C61.5597 21.8009 62.2037 21.7096 62.8826 21.6605C62.9255 21.6566 62.9687 21.6614 63.0097 21.6746C63.0506 21.6878 63.0886 21.7091 63.1212 21.7373C63.1538 21.7654 63.1805 21.7998 63.1996 21.8385C63.2188 21.8771 63.23 21.9193 63.2326 21.9623C63.2363 22.0361 63.2157 22.1091 63.1739 22.17C63.1322 22.2309 63.0717 22.2763 63.0016 22.2993L62.9876 22.2642Z" fill="white"/>
</g>
<path d="M94.9069 30.7945C94.5606 29.6206 93.903 28.5629 93.0043 27.7345C92.1056 26.9061 90.9995 26.3379 89.804 26.0908C75.8308 23.2503 61.3316 24.6307 48.1409 30.0574C47.0083 30.5283 46.0253 31.3002 45.2976 32.2898C44.5698 33.2795 44.125 34.4495 44.011 35.6738C43.4856 41.1613 43.9431 46.6988 45.362 52.0247C45.6746 53.2196 46.3121 54.304 47.2032 55.1568C48.0943 56.0097 49.2041 56.5975 50.4088 56.8549C57.4493 58.3234 64.6704 58.7187 71.8284 58.0273C78.9836 57.3439 85.9961 55.588 92.6319 52.818C93.7675 52.3354 94.7475 51.5465 95.463 50.5389C96.1784 49.5313 96.6014 48.3445 96.6848 47.1103C96.873 44.3588 96.8191 41.5961 96.5238 38.8541C96.224 36.1249 95.6829 33.4277 94.9069 30.7945Z" fill="#ED5B00"/>
<path d="M95.4249 32.8374C95.0887 31.6492 94.4338 30.5763 93.5315 29.7357C92.6293 28.8951 91.5142 28.3191 90.308 28.0704C76.125 25.1875 61.4079 26.5925 48.0219 32.1072C46.8818 32.578 45.8927 33.3542 45.1631 34.351C44.4334 35.3478 43.9913 36.5268 43.885 37.7588C43.6528 40.4997 43.6692 43.256 43.934 45.9939C44.1917 48.7355 44.7002 51.4474 45.453 54.0956C45.7861 55.2835 46.4393 56.3562 47.3408 57.196C48.2423 58.0357 49.3572 58.61 50.5629 58.8556C57.6192 60.2946 64.8491 60.6778 72.0174 59.9929C79.179 59.3073 86.2008 57.5662 92.8559 54.8258C93.9912 54.3587 94.9767 53.588 95.705 52.5975C96.4333 51.6071 96.8763 50.4351 96.9858 49.2093C97.2169 46.4685 97.2028 43.7125 96.9438 40.9742C96.6849 38.2213 96.1765 35.4978 95.4249 32.8374Z" fill="black"/>
<path d="M81.5161 69.1546L81.8521 65.4899C81.8768 65.2327 81.841 64.9733 81.7479 64.7324C81.6547 64.4915 81.5066 64.2758 81.3155 64.1025C81.1244 63.9293 80.8955 63.8032 80.6471 63.7345C80.3988 63.6658 80.1379 63.6562 79.8852 63.7067C77.4344 64.1977 74.9602 64.5633 72.4724 64.8019C69.9783 65.0394 67.4737 65.1472 64.9685 65.1248C64.7133 65.1254 64.4617 65.1849 64.2332 65.2989C64.0047 65.4128 63.8054 65.5782 63.651 65.7819C63.4966 65.9857 63.3911 66.2225 63.3428 66.4738C63.2945 66.7251 63.3047 66.9843 63.3726 67.231L64.3945 70.7413C64.4478 70.9292 64.5606 71.0946 64.716 71.2124C64.8713 71.3302 65.0607 71.394 65.2555 71.3942C67.8665 71.3942 70.4774 71.2819 73.0673 71.0291C75.6573 70.7764 78.2332 70.4113 80.7672 69.9129C80.956 69.8823 81.1303 69.7924 81.2649 69.6562C81.3995 69.5199 81.4875 69.3443 81.5161 69.1546Z" fill="url(#paint7_linear_511_31012)"/>
<path d="M66.2006 44.5618L75.8324 43.6421C76.2803 48.725 74.9504 53.8219 71.9684 54.1027C68.9865 54.3836 66.7255 49.6376 66.2006 44.5618Z" fill="#57F287"/>
<path d="M77.5332 41.3953C78.1184 40.6069 78.8565 39.9454 79.7032 39.4506C80.5344 38.9457 81.4424 38.5805 82.3911 38.3694C83.3509 38.1561 84.3374 38.0898 85.317 38.1728C86.3317 38.2593 87.3238 38.5206 88.25 38.9451L86.955 41.4585C85.6884 40.712 84.2157 40.3944 82.7551 40.5528C81.2455 40.6659 79.8257 41.3157 78.7512 42.3852L77.5332 41.3953Z" fill="#57F287"/>
<path d="M61.6506 44.337C60.4552 43.4013 58.9654 42.9256 57.4507 42.996C55.9845 43.0157 54.5635 43.508 53.3978 44.4001L51.8158 42.0623C52.6796 41.5374 53.6266 41.1646 54.6157 40.9601C55.5759 40.7649 56.5598 40.7152 57.5347 40.8126C58.4996 40.8941 59.445 41.1312 60.3346 41.5147C61.2323 41.9048 62.0419 42.4732 62.7146 43.1856L61.6506 44.337Z" fill="#57F287"/>
<path d="M51.5428 85.2667C47.823 82.0765 44.3548 78.6027 41.169 74.8762C37.9716 71.128 35.0674 67.1378 32.4822 62.9413C29.8928 58.7255 27.6276 54.3178 25.7064 49.7567C23.7956 45.1654 22.2393 40.4336 21.0515 35.6032C20.6441 33.8613 20.9367 32.0286 21.8658 30.5013C22.795 28.9739 24.2861 27.8747 26.0168 27.4412C27.7475 27.0077 29.5789 27.2748 31.1149 28.1846C32.6509 29.0945 33.7681 30.5741 34.2252 32.3035C34.2252 32.4089 34.2812 32.5352 34.3022 32.6405C35.1202 36.8479 36.2599 40.9859 37.7111 45.0178C39.179 49.0615 40.9504 52.9879 43.01 56.7632C45.0756 60.5461 47.4299 64.1631 50.0518 67.5819C52.6964 71.0183 55.6005 74.2455 58.7386 77.2351C59.8005 78.1922 60.4399 79.5331 60.516 80.963C60.5922 82.3928 60.0989 83.7944 59.1446 84.8595C58.1904 85.9245 56.8534 86.5657 55.4278 86.6421C54.0022 86.7185 52.6047 86.2237 51.5428 85.2667Z" fill="url(#paint8_linear_511_31012)"/>
<path d="M37.8021 85.1966C37.6195 85.1955 37.4416 85.138 37.2927 85.0319C37.1438 84.9258 37.0311 84.7763 36.97 84.6037C36.9088 84.4311 36.9021 84.2438 36.9508 84.0673C36.9995 83.8907 37.1012 83.7335 37.2422 83.617C42.8978 79.0333 48.2109 74.04 53.1388 68.6773C53.2985 68.5032 53.5205 68.3998 53.7562 68.3899C53.9918 68.3801 54.2217 68.4645 54.3953 68.6246C54.5689 68.7847 54.6719 69.0075 54.6817 69.2438C54.6916 69.4801 54.6074 69.7107 54.4478 69.8848C49.4541 75.3085 44.0734 80.3602 38.3481 85.0001C38.1934 85.1255 38.001 85.1947 37.8021 85.1966Z" fill="#3F99F2"/>
<path d="M28.8493 70.9305C28.6509 70.9341 28.4571 70.8711 28.2986 70.7516C28.1401 70.632 28.026 70.4627 27.9745 70.2705C27.923 70.0784 27.937 69.8746 28.0143 69.6914C28.0917 69.5082 28.2279 69.3562 28.4013 69.2596C34.6727 65.5754 40.6687 61.4387 46.3419 56.8823C46.4338 56.809 46.5392 56.7546 46.6521 56.7222C46.765 56.6897 46.8832 56.6799 46.9998 56.6933C47.1165 56.7067 47.2294 56.7429 47.3321 56.8001C47.4348 56.8572 47.5253 56.934 47.5983 57.0262C47.6714 57.1184 47.7257 57.2242 47.758 57.3374C47.7904 57.4506 47.8001 57.5691 47.7868 57.6861C47.7735 57.8032 47.7373 57.9164 47.6804 58.0194C47.6234 58.1224 47.5468 58.2131 47.4548 58.2864C41.7125 62.9008 35.6441 67.0914 29.2972 70.8252C29.1591 70.8973 29.005 70.9335 28.8493 70.9305Z" fill="#3F99F2"/>
<path d="M21.8844 54.0183C21.6692 54.0213 21.4602 53.9459 21.2962 53.806C21.1323 53.6662 21.0244 53.4714 20.9928 53.2578C20.9612 53.0443 21.0079 52.8265 21.1242 52.6449C21.2405 52.4632 21.4186 52.3301 21.6254 52.2702C28.5769 50.1064 35.3615 47.4361 41.925 44.2808C42.1376 44.1784 42.382 44.1649 42.6045 44.2432C42.827 44.3215 43.0094 44.4853 43.1115 44.6985C43.2136 44.9117 43.2271 45.1569 43.149 45.38C43.0708 45.6032 42.9075 45.7861 42.695 45.8885C36.051 49.0796 29.1848 51.7826 22.1504 53.9762C22.0644 54.0038 21.9747 54.018 21.8844 54.0183Z" fill="#3F99F2"/>
<path d="M59.2706 73.1425L86.913 75.5787C88.6883 75.7349 90.3672 76.4571 91.7036 77.6396C93.0401 78.8221 93.9639 80.4027 94.3398 82.1499L99.3027 105.114C99.8723 107.753 99.8157 110.49 99.1373 113.103C98.459 115.716 97.178 118.133 95.3975 120.159C93.617 122.184 91.3869 123.762 88.8869 124.764C86.387 125.767 83.6872 126.166 81.0051 125.93L56.3867 123.754C53.7084 123.518 51.1227 122.656 48.8375 121.235C46.5522 119.815 44.6313 117.876 43.2293 115.575C41.8273 113.275 40.9834 110.676 40.7653 107.988C40.5473 105.301 40.9613 102.599 41.974 100.101L50.8008 78.3378C51.4725 76.6768 52.6578 75.2758 54.1823 74.3407C55.7069 73.4055 57.4904 72.9856 59.2706 73.1425Z" fill="url(#paint9_linear_511_31012)"/>
<path d="M40.512 107.932L40.3334 109.967L99.2822 115.171L99.4608 113.136L40.512 107.932Z" fill="#ED5F00"/>
<path d="M66.7955 76.807L78.8353 77.8671C79.6871 77.9443 80.4856 78.3166 81.0936 78.92C81.7016 79.5234 82.0812 80.3203 82.1672 81.1738L83.9941 99.7221C84.0465 100.26 83.9802 100.802 83.7999 101.312C83.6196 101.821 83.3297 102.284 82.9508 102.668C82.572 103.052 82.1134 103.347 81.6078 103.533C81.1022 103.72 80.5618 103.792 80.0252 103.745L61.2097 102.088C60.6744 102.041 60.156 101.876 59.6913 101.605C59.2266 101.334 58.8269 100.965 58.5204 100.522C58.2139 100.079 58.0081 99.5744 57.9176 99.0431C57.8271 98.5118 57.8541 97.9671 57.9967 97.4475L62.9386 79.4959C63.1663 78.666 63.6769 77.9423 64.3816 77.451C65.0864 76.9597 65.9406 76.7318 66.7955 76.807Z" fill="#FFC619"/>
<path d="M122.591 24.9741C123.974 24.2441 125.577 24.0554 127.091 24.4446C128.604 24.8338 129.919 25.7731 130.781 27.0802C134.163 32.2838 136.207 38.2462 136.731 44.4351C136.867 46.0083 136.411 47.5756 135.452 48.8282C134.493 50.0809 133.102 50.928 131.551 51.2029L104.154 54.4323C102.304 54.6492 100.436 54.225 98.8594 53.2302C97.2831 52.2353 96.0934 50.7297 95.4878 48.9633C94.8838 47.1954 94.9017 45.2733 95.5385 43.5169C96.1752 41.7606 97.3925 40.2759 98.9878 39.3101L122.591 24.9741Z" fill="#3442D9"/>
<path d="M132.389 47.6445C134.642 46.87 134.909 41.681 132.986 36.0545C131.063 30.428 127.678 26.4947 125.426 27.2691C123.173 28.0436 122.905 33.2326 124.828 38.8591C126.751 44.4856 130.136 48.4189 132.389 47.6445Z" fill="#808AFF"/>
<path d="M125.461 33.3075C125.898 36.67 127.005 39.91 128.716 42.8344C129.699 42.2132 130.444 41.2774 130.831 40.1785C131.217 39.0796 131.223 37.882 130.846 36.7796C130.47 35.6772 129.733 34.7347 128.756 34.1045C127.778 33.4744 126.617 33.1935 125.461 33.3075Z" fill="#3442D9"/>
<path d="M114.758 62.0216C113.358 62.0202 111.989 61.6024 110.825 60.8208C109.661 60.0393 108.754 58.9292 108.219 57.6308C107.684 56.3325 107.544 54.9042 107.819 53.5264C108.093 52.1487 108.768 50.8834 109.759 49.8905C110.75 48.8976 112.012 48.2216 113.386 47.948C114.76 47.6744 116.184 47.8156 117.478 48.3535C118.772 48.8915 119.878 49.8021 120.656 50.9703C121.434 52.1386 121.849 53.5119 121.849 54.9168C121.847 56.8018 121.1 58.6089 119.77 59.9411C118.44 61.2733 116.638 62.0216 114.758 62.0216ZM114.758 49.5952C113.709 49.5952 112.683 49.9073 111.811 50.4921C110.938 51.0768 110.258 51.9079 109.856 52.8803C109.455 53.8527 109.35 54.9227 109.555 55.955C109.759 56.9873 110.265 57.9355 111.007 58.6797C111.749 59.424 112.694 59.9308 113.723 60.1361C114.753 60.3415 115.819 60.2361 116.789 59.8333C117.758 59.4305 118.587 58.7485 119.17 57.8733C119.753 56.9982 120.064 55.9693 120.064 54.9168C120.059 53.5078 119.498 52.1582 118.504 51.1625C117.51 50.1668 116.163 49.606 114.758 49.6023V49.5952Z" fill="#3442D9"/>
<path d="M14.5136 10.9893C13.5584 8.50205 13.342 5.79048 13.8907 3.18247C16.2123 1.71495 18.8306 0.784428 21.5555 0.458496C21.4237 1.55096 21.3979 2.65368 21.4785 3.75114C21.5692 5.03029 21.804 6.29502 22.1785 7.52118C24.089 6.17262 26.2742 5.26623 28.5763 4.86741C28.4643 6.36981 30.1513 11.1859 30.6273 12.0705L35.4082 4.53744C36.661 4.76934 37.8748 5.17826 39.0131 5.752C40.3629 6.42816 41.5926 7.32234 42.653 8.39875C41.869 11.8763 41.0897 15.3468 40.3151 18.8102L45.796 24.6443L44.641 28.1546L42.198 35.5613L36.2692 34.1572L38.6071 37.4849C36.4835 41.273 33.0222 44.1259 28.9053 45.4813L23.1515 39.3524L22.0595 45.4813C20.1454 45.7143 18.2124 45.7472 16.2916 45.5796C14.5883 45.4355 12.9014 45.1371 11.2517 44.688V34.1572C10.2889 34.5037 9.37574 34.9757 8.53578 35.5613C6.89455 36.7146 5.5703 38.2649 4.68587 40.0685C2.81564 38.1842 1.46082 35.8486 0.751953 33.2866C1.86331 29.377 3.96355 25.8219 6.84882 22.9664C5.61395 22.4522 4.45706 21.7668 3.41189 20.9304C2.41108 20.1341 1.51704 19.2115 0.751953 18.1854C2.00726 15.307 3.2579 12.4403 4.50387 9.58522C5.83631 10.1233 7.22016 10.5232 8.63378 10.7787C10.5736 11.1309 12.5537 11.2018 14.5136 10.9893Z" fill="#5865F2"/>
<path d="M108.858 61.8395C107.773 61.0812 106.863 60.0633 107.675 59.1225C107.864 58.901 108.117 58.7441 108.399 58.6737C108.682 58.6032 108.979 58.6227 109.25 58.7293C110.017 59.0385 110.727 59.4752 111.35 60.0211C111.392 59.1225 111.112 58.617 111.224 57.3323C111.301 56.4336 112.624 56.0615 113.526 56.2511C114.429 56.4406 114.716 57.6552 115.402 58.9049C115.731 58.0203 115.402 56.4477 116.277 56.0966C116.772 55.9694 117.295 56.0099 117.765 56.2118C118.235 56.4137 118.625 56.7657 118.874 57.2129C119.344 58.1262 119.603 59.1341 119.63 60.1615C119.742 61.3129 119.756 62.703 118.804 63.3699C118.491 63.5714 118.127 63.6784 117.754 63.6784C117.382 63.6784 117.018 63.5714 116.704 63.3699C116.124 62.9629 115.712 62.3556 115.549 61.6639C115.659 62.0483 115.634 62.4586 115.48 62.8272C115.326 63.1959 115.052 63.5012 114.702 63.6929C114.198 63.9526 113.365 63.6929 112.847 63.6016C112.14 63.4457 111.452 63.2102 110.797 62.8996C110.12 62.6042 109.471 62.2495 108.858 61.8395Z" fill="black"/>
<path d="M25.1184 18.9645C25.1184 18.9645 25.4334 12.288 26.8404 10.9049C26.8404 10.9049 31.9433 10.0484 35.6462 13.664L31.2153 21.6253" fill="url(#paint10_linear_511_31012)"/>
<path d="M19.5185 28.2248C19.5185 28.2248 16.8656 33.9325 16.3966 38.0536C16.3966 38.0536 21.7585 41.3673 26.8194 39.3454C26.8194 39.3454 27.1834 31.04 25.1534 28.2178" fill="url(#paint11_linear_511_31012)"/>
<path d="M26.4414 21.0005C25.9461 19.0215 25.2592 17.0957 24.3905 15.2506C24.2188 14.7885 23.9143 14.3878 23.5155 14.0993C22.9755 13.8591 22.3685 13.8169 21.8005 13.9799C19.7286 14.3388 17.6771 14.8075 15.6547 15.384L19.9386 23.1558" fill="url(#paint12_linear_511_31012)"/>
</g>
<defs>
<linearGradient id="paint0_linear_511_31012" x1="82.0272" y1="77.1722" x2="123.284" y2="77.1722" gradientUnits="userSpaceOnUse">
<stop stop-color="#3F99F2"/>
<stop offset="0.01" stop-color="#419BF2"/>
<stop offset="0.16" stop-color="#5DB1F7"/>
<stop offset="0.31" stop-color="#72C2FB"/>
<stop offset="0.48" stop-color="#81CFFD"/>
<stop offset="0.69" stop-color="#89D6FF"/>
<stop offset="1" stop-color="#8CD8FF"/>
</linearGradient>
<linearGradient id="paint1_linear_511_31012" x1="-275.838" y1="165.021" x2="-275.415" y2="169.703" gradientUnits="userSpaceOnUse">
<stop stop-color="#66BCFF"/>
<stop offset="1" stop-color="#3F99F2"/>
</linearGradient>
<linearGradient id="paint2_linear_511_31012" x1="-243.369" y1="183.513" x2="-242.109" y2="197.469" gradientUnits="userSpaceOnUse">
<stop stop-color="#FFE75C"/>
<stop offset="1" stop-color="#FFC619"/>
</linearGradient>
<linearGradient id="paint3_linear_511_31012" x1="134.617" y1="93.1407" x2="128.021" y2="88.4158" gradientUnits="userSpaceOnUse">
<stop stop-color="#FFE75C"/>
<stop offset="1" stop-color="#FFF7DE"/>
</linearGradient>
<linearGradient id="paint4_linear_511_31012" x1="-307.719" y1="185.539" x2="-306.459" y2="199.495" gradientUnits="userSpaceOnUse">
<stop stop-color="#FFE75C"/>
<stop offset="1" stop-color="#FFC619"/>
</linearGradient>
<linearGradient id="paint5_linear_511_31012" x1="190.347" y1="-93.7139" x2="195.896" y2="-99.6022" gradientUnits="userSpaceOnUse">
<stop stop-color="#FFE75C"/>
<stop offset="1" stop-color="#FFF7DE"/>
</linearGradient>
<linearGradient id="paint6_linear_511_31012" x1="-280.98" y1="173.539" x2="-264.181" y2="218.589" gradientUnits="userSpaceOnUse">
<stop stop-color="#FFC618"/>
<stop offset="0.31" stop-color="#FFAD19"/>
<stop offset="1" stop-color="#FF7D12"/>
</linearGradient>
<linearGradient id="paint7_linear_511_31012" x1="-270.882" y1="220.245" x2="-271.432" y2="214.151" gradientUnits="userSpaceOnUse">
<stop offset="0.02" stop-color="#FFB619"/>
<stop offset="1" stop-color="#FFC619"/>
</linearGradient>
<linearGradient id="paint8_linear_511_31012" x1="40.63" y1="88.0608" x2="40.63" y2="27.3119" gradientUnits="userSpaceOnUse">
<stop stop-color="#3F99F2"/>
<stop offset="0.01" stop-color="#419BF2"/>
<stop offset="0.16" stop-color="#5DB1F7"/>
<stop offset="0.31" stop-color="#72C2FB"/>
<stop offset="0.48" stop-color="#81CFFD"/>
<stop offset="0.69" stop-color="#89D6FF"/>
<stop offset="1" stop-color="#8CD8FF"/>
</linearGradient>
<linearGradient id="paint9_linear_511_31012" x1="68.7312" y1="125.52" x2="73.3051" y2="74.8477" gradientUnits="userSpaceOnUse">
<stop offset="0.12" stop-color="#FFC619"/>
<stop offset="0.2" stop-color="#FFBB19"/>
<stop offset="0.33" stop-color="#FF9F19"/>
<stop offset="0.41" stop-color="#FF8C19"/>
<stop offset="0.83" stop-color="#ED5F00"/>
</linearGradient>
<linearGradient id="paint10_linear_511_31012" x1="27.3934" y1="20.0738" x2="31.7329" y2="11.2169" gradientUnits="userSpaceOnUse">
<stop stop-color="#5865F2"/>
<stop offset="1" stop-color="#3442D9"/>
</linearGradient>
<linearGradient id="paint11_linear_511_31012" x1="22.7315" y1="27.9721" x2="21.4782" y2="39.8782" gradientUnits="userSpaceOnUse">
<stop stop-color="#5865F2"/>
<stop offset="0.32" stop-color="#525FEE"/>
<stop offset="0.75" stop-color="#414FE2"/>
<stop offset="1" stop-color="#3442D9"/>
</linearGradient>
<linearGradient id="paint12_linear_511_31012" x1="23.3405" y1="22.4467" x2="19.2468" y2="13.6943" gradientUnits="userSpaceOnUse">
<stop stop-color="#5865F2"/>
<stop offset="1" stop-color="#3442D9"/>
</linearGradient>
<clipPath id="clip0_511_31012">
<rect width="136" height="125.542" fill="white" transform="translate(0.751953 0.458496)"/>
</clipPath>
</defs>
</svg>
