<svg width="41" height="36" viewBox="0 0 41 36" fill="none" xmlns="http://www.w3.org/2000/svg">
<path d="M35.1416 7.37108C35.5099 7.43693 35.8428 7.62937 36.0812 7.91433C36.3197 8.19929 36.4484 8.55839 36.4445 8.92808V14.0761C36.4454 19.2491 34.6295 24.2621 31.3065 28.2602C27.9834 32.2583 23.3591 34.9938 18.2223 36.0001C13.0863 34.9922 8.46297 32.2563 5.14022 28.2586C1.81747 24.2608 0.000907003 19.2486 8.32225e-05 14.0761V8.92808C-0.00375008 8.55839 0.12495 8.19929 0.363404 7.91433C0.601857 7.62937 0.934684 7.43693 1.30297 7.37108C1.63324 7.3165 1.95906 7.23829 2.27786 7.13708C3.43783 6.7723 4.4924 6.13819 5.35319 5.2879C6.21398 4.43761 6.85591 3.39591 7.22519 2.25008C7.32766 1.93517 7.40683 1.61332 7.46208 1.28708C7.52874 0.923285 7.72356 0.594517 8.01204 0.358972C8.30051 0.123427 8.66405 -0.00370435 9.03831 8.22076e-05H27.4063C27.7806 -0.00370435 28.1441 0.123427 28.4326 0.358972C28.7211 0.594517 28.9159 0.923285 28.9825 1.28708C29.0378 1.61332 29.117 1.93517 29.2194 2.25008C29.5887 3.39591 30.2306 4.43761 31.0914 5.2879C31.9522 6.13819 33.0068 6.7723 34.1668 7.13708C34.4855 7.23829 34.8114 7.3165 35.1416 7.37108Z" fill="#4F545C"/>
<path d="M35.1416 7.37108C35.5099 7.43693 35.8428 7.62937 36.0812 7.91433C36.3197 8.19929 36.4484 8.55839 36.4445 8.92808V14.0761C36.4454 19.2491 34.6295 24.2621 31.3065 28.2602C27.9834 32.2583 23.3591 34.9938 18.2223 36.0001C13.0863 34.9922 8.46297 32.2563 5.14022 28.2586C1.81747 24.2608 0.000907003 19.2486 8.32225e-05 14.0761V8.92808C-0.00375008 8.55839 0.12495 8.19929 0.363404 7.91433C0.601857 7.62937 0.934684 7.43693 1.30297 7.37108C1.63324 7.3165 1.95906 7.23829 2.27786 7.13708C3.43783 6.7723 4.4924 6.13819 5.35319 5.2879C6.21398 4.43761 6.85591 3.39591 7.22519 2.25008C7.32766 1.93517 7.40683 1.61332 7.46208 1.28708C7.52874 0.923285 7.72356 0.594517 8.01204 0.358972C8.30051 0.123427 8.66405 -0.00370435 9.03831 8.22076e-05H27.4063C27.7806 -0.00370435 28.1441 0.123427 28.4326 0.358972C28.7211 0.594517 28.9159 0.923285 28.9825 1.28708C29.0378 1.61332 29.117 1.93517 29.2194 2.25008C29.5887 3.39591 30.2306 4.43761 31.0914 5.2879C31.9522 6.13819 33.0068 6.7723 34.1668 7.13708C34.4855 7.23829 34.8114 7.3165 35.1416 7.37108Z" fill="#36393F"/>
<path d="M25.8301 3.60008C26.3903 5.193 27.3084 6.63994 28.5156 7.83234C29.7227 9.02475 31.1875 9.93167 32.8001 10.4851V14.0851C32.798 18.3004 31.3585 22.3922 28.7137 25.7003C26.0689 29.0085 22.373 31.3401 18.2223 32.3191C14.0748 31.331 10.3833 28.9957 7.73985 25.6877C5.09642 22.3796 3.65422 18.2905 3.64453 14.0761V10.4761C5.25682 9.92477 6.72162 9.01963 7.92884 7.82868C9.13607 6.63774 10.0543 5.19199 10.6145 3.60008H25.8301ZM27.4063 8.22076e-05H9.03831C8.66405 -0.00370435 8.30051 0.123427 8.01204 0.358972C7.72356 0.594517 7.52874 0.923285 7.46208 1.28708C7.40683 1.61332 7.32766 1.93517 7.22519 2.25008C6.85591 3.39591 6.21398 4.43761 5.35319 5.2879C4.4924 6.13819 3.43783 6.7723 2.27786 7.13708C1.95906 7.23829 1.63324 7.3165 1.30297 7.37108C0.934684 7.43693 0.601857 7.62937 0.363404 7.91433C0.12495 8.19929 -0.00375008 8.55839 8.32225e-05 8.92808V14.0761C0.000907003 19.2486 1.81747 24.2608 5.14022 28.2586C8.46297 32.2563 13.0863 34.9922 18.2223 36.0001C23.3591 34.9938 27.9834 32.2583 31.3065 28.2602C34.6295 24.2621 36.4454 19.2491 36.4445 14.0761V8.92808C36.4484 8.55839 36.3197 8.19929 36.0812 7.91433C35.8428 7.62937 35.5099 7.43693 35.1416 7.37108C34.8114 7.3165 34.4855 7.23829 34.1668 7.13708C33.0068 6.7723 31.9522 6.13819 31.0914 5.2879C30.2306 4.43761 29.5887 3.39591 29.2194 2.25008C29.117 1.93517 29.0378 1.61332 28.9825 1.28708C28.9159 0.923285 28.7211 0.594517 28.4326 0.358972C28.1441 0.123427 27.7806 -0.00370435 27.4063 8.22076e-05Z" fill="#4F545C"/>
<path d="M35.1232 36.0001C38.3688 36.0001 40.9999 33.4011 40.9999 30.1951C40.9999 26.9891 38.3688 24.3901 35.1232 24.3901C31.8777 24.3901 29.2466 26.9891 29.2466 30.1951C29.2466 33.4011 31.8777 36.0001 35.1232 36.0001Z" fill="#7285DA"/>
<path d="M32.6816 30.582L34.2488 32.13L37.5652 28.269" stroke="white" stroke-width="2" stroke-linecap="round" stroke-linejoin="round"/>
<path d="M9.11091 12.6718L12.2725 15.7948C12.3457 15.8651 12.4325 15.9202 12.5276 15.9568L14.5685 16.6228C14.6674 16.6572 14.7576 16.7125 14.8327 16.7848L23.4427 25.2898C23.567 25.4024 23.7296 25.4649 23.8982 25.4649C24.0669 25.4649 24.2295 25.4024 24.3538 25.2898L24.9734 24.6778C25.0873 24.555 25.1505 24.3945 25.1505 24.2278C25.1505 24.0612 25.0873 23.9007 24.9734 23.7778L16.3998 15.2458C16.3265 15.1717 16.2706 15.0826 16.2358 14.9848L15.5616 12.9778C15.5268 12.8801 15.4708 12.791 15.3976 12.7168L12.236 9.59384C12.1137 9.47726 11.9504 9.41211 11.7805 9.41211C11.6105 9.41211 11.4472 9.47726 11.3249 9.59384L9.11091 11.7538C9.04976 11.814 9.00123 11.8856 8.96812 11.9643C8.93501 12.0431 8.91797 12.1276 8.91797 12.2128C8.91797 12.2981 8.93501 12.3826 8.96812 12.4613C9.00123 12.5401 9.04976 12.6116 9.11091 12.6718Z" fill="white"/>
<path d="M23.8985 26.0999L25.7754 24.2459C25.8934 24.1251 25.9594 23.9638 25.9594 23.7959C25.9594 23.628 25.8934 23.4667 25.7754 23.3459C25.6511 23.2333 25.4885 23.1709 25.3199 23.1709C25.1512 23.1709 24.9886 23.2333 24.8643 23.3459L22.9965 25.1909C22.8826 25.3137 22.8193 25.4743 22.8193 25.6409C22.8193 25.8075 22.8826 25.9681 22.9965 26.0909C23.1172 26.2061 23.2779 26.2712 23.4457 26.2729C23.6135 26.2745 23.7755 26.2127 23.8985 26.0999Z" fill="white"/>
<path d="M24.1885 10.6783L10.9491 23.7562C10.604 24.0972 10.604 24.6499 10.9491 24.9908L11.7222 25.7545C12.0674 26.0954 12.627 26.0954 12.9721 25.7545L26.2115 12.6766C26.5566 12.3356 26.5566 11.7829 26.2115 11.442L25.4384 10.6783C25.0933 10.3374 24.5337 10.3374 24.1885 10.6783Z" fill="white"/>
<path d="M19.6802 12.5998L18.4138 9.30576C18.3852 9.22754 18.3795 9.1429 18.3975 9.06164C18.4155 8.98038 18.4564 8.9058 18.5155 8.84651C18.5745 8.78723 18.6494 8.74565 18.7313 8.72658C18.8133 8.70752 18.899 8.71174 18.9787 8.73876L22.3225 9.98976C22.494 10.0607 22.6513 10.1613 22.7871 10.2868L28.3449 15.7858C28.4629 15.9066 28.5289 16.0679 28.5289 16.2358C28.5289 16.4036 28.4629 16.565 28.3449 16.6858L26.4771 18.5308C26.3548 18.6473 26.1915 18.7125 26.0216 18.7125C25.8516 18.7125 25.6883 18.6473 25.566 18.5308L19.9991 13.0318C19.861 12.9136 19.7519 12.7658 19.6802 12.5998Z" fill="white"/>
<path d="M18.7209 15.2392L17.5483 16.3975L21.2592 20.0631L22.4318 18.9049L18.7209 15.2392Z" fill="#36393F"/>
<path d="M15.9875 17.9419L14.8149 19.1001L18.5258 22.7657L19.6984 21.6075L15.9875 17.9419Z" fill="#36393F"/>
</svg>
