<svg width="35" height="35" viewBox="0 0 35 35" fill="none" xmlns="http://www.w3.org/2000/svg">
<path opacity="0.3" fill-rule="evenodd" clip-rule="evenodd" d="M17.5 35C27.165 35 35 27.165 35 17.5C35 15.3864 34.6253 13.3603 33.9387 11.4846C31.3072 16.5877 26.101 20.5373 17.9384 22.2086C12.2533 23.3726 10.0754 25.7497 9.1604 27.4947C8.23461 29.2602 8.18178 31.1846 8.42315 32.465C11.0696 34.0736 14.1766 35 17.5 35ZM0.320688 20.852C3.22668 16.4186 8.24606 12.9649 15.7319 11.4321C21.4296 10.2655 23.431 7.92991 24.2167 6.33461C25.0363 4.67055 25.0203 2.81761 24.7196 1.5539C22.5185 0.555784 20.0741 0 17.5 0C7.83502 0 0 7.83502 0 17.5C0 18.6464 0.110237 19.7671 0.320688 20.852Z" fill="#00AAFC"/>
<circle opacity="0.2" cx="17.5" cy="17.5" r="17.5" fill="#00AAFC"/>
</svg>
