<svg xmlns="http://www.w3.org/2000/svg" xmlns:xlink="http://www.w3.org/1999/xlink" viewBox="0 0 624 624">
  <defs>
    <linearGradient id="linear-gradient" x1="508.16" y1="146.73" x2="567.65" y2="313.98" gradientUnits="userSpaceOnUse">
      <stop offset="0" stop-color="#89d7fd"/>
      <stop offset="0.49" stop-color="#c8e3fd"/>
      <stop offset="0.62" stop-color="#c4e2fd"/>
      <stop offset="0.75" stop-color="#bae0fd"/>
      <stop offset="0.87" stop-color="#a7ddfd"/>
      <stop offset="0.98" stop-color="#8ed8fd"/>
      <stop offset="1" stop-color="#89d7fd"/>
    </linearGradient>
    <linearGradient id="linear-gradient-2" x1="58.59" y1="321.03" x2="115.27" y2="470.91" xlink:href="#linear-gradient"/>
    <linearGradient id="linear-gradient-3" x1="535.09" y1="161.73" x2="531.86" y2="187.28" gradientUnits="userSpaceOnUse">
      <stop offset="0" stop-color="#fff"/>
      <stop offset="0.29" stop-color="#fbfdff"/>
      <stop offset="0.54" stop-color="#f1f8fe"/>
      <stop offset="0.79" stop-color="#deeefe"/>
      <stop offset="1" stop-color="#c8e3fd"/>
    </linearGradient>
    <linearGradient id="linear-gradient-4" x1="568.04" y1="207.38" x2="550.76" y2="220.81" gradientUnits="userSpaceOnUse">
      <stop offset="0" stop-color="#fbfdff"/>
      <stop offset="0.26" stop-color="#f5faff"/>
      <stop offset="0.61" stop-color="#e3f1fe"/>
      <stop offset="1" stop-color="#c8e3fd"/>
    </linearGradient>
    <linearGradient id="linear-gradient-5" x1="535.09" y1="161.73" x2="531.86" y2="187.28" gradientTransform="translate(627.6 620.3) rotate(179.3)" xlink:href="#linear-gradient-3"/>
    <linearGradient id="linear-gradient-6" x1="568.04" y1="207.38" x2="550.76" y2="220.81" gradientTransform="translate(627.6 620.3) rotate(179.3)" xlink:href="#linear-gradient-4"/>
  </defs>
  <title>Avatar-Frames-Rainbow</title>
  <g id="Layer_10" data-name="Layer 10">
    <path d="M312,112.5c110.2,0,199.5,89.3,199.5,199.5S422.2,511.5,312,511.5,112.5,422.2,112.5,312,201.8,112.5,312,112.5m0-80A279.4,279.4,0,0,0,114.4,509.6,279.4,279.4,0,1,0,509.6,114.4,278.7,278.7,0,0,0,312,32.5Z" style="fill: #ff4747"/>
    <path d="M312,112.5c110.2,0,199.5,89.3,199.5,199.5S422.2,511.5,312,511.5,112.5,422.2,112.5,312,201.8,112.5,312,112.5m0-67a263.8,263.8,0,0,0-103.8,21A266.1,266.1,0,0,0,66.5,208.2a267,267,0,0,0,0,207.6A266.1,266.1,0,0,0,208.2,557.5a267,267,0,0,0,207.6,0A266.1,266.1,0,0,0,557.5,415.8a267,267,0,0,0,0-207.6A266.1,266.1,0,0,0,415.8,66.5,263.8,263.8,0,0,0,312,45.5Z" style="fill: #ffb300"/>
    <path d="M312,112.5c110.2,0,199.5,89.3,199.5,199.5S422.2,511.5,312,511.5,112.5,422.2,112.5,312,201.8,112.5,312,112.5m0-54a252.8,252.8,0,1,0,98.7,19.9A252.6,252.6,0,0,0,312,58.5Z" style="fill: #fffb00"/>
    <path d="M312,112.5c110.2,0,199.5,89.3,199.5,199.5S422.2,511.5,312,511.5,112.5,422.2,112.5,312,201.8,112.5,312,112.5m0-41a240.2,240.2,0,1,0,93.6,18.9A239.4,239.4,0,0,0,312,71.5Z" style="fill: #00a645"/>
    <path d="M312,112.5c110.2,0,199.5,89.3,199.5,199.5S422.2,511.5,312,511.5,112.5,422.2,112.5,312,201.8,112.5,312,112.5m0-28A227.5,227.5,0,0,0,151.1,472.9,227.5,227.5,0,1,0,472.9,151.1,227.1,227.1,0,0,0,312,84.5Z" style="fill: #0030c2"/>
    <path d="M312,112.5c110.2,0,199.5,89.3,199.5,199.5S422.2,511.5,312,511.5,112.5,422.2,112.5,312,201.8,112.5,312,112.5m0-14A213.4,213.4,0,0,0,98.5,312,213.4,213.4,0,0,0,312,525.5,213.6,213.6,0,0,0,508.7,228.9,213.4,213.4,0,0,0,312,98.5Z" style="fill: #bd00bd"/>
    <g>
      <path d="M571.6,281a40.3,40.3,0,0,0,10.7-45.4,35.2,35.2,0,0,0-16.6-42.5,28.5,28.5,0,0,0-1.7-11.8,28,28,0,0,0-34-17.2,21.7,21.7,0,0,0-.7-2.4,19.8,19.8,0,0,0-37.2,13.8A20.1,20.1,0,0,0,496,182a19.8,19.8,0,0,0-7.6,23.4,20.2,20.2,0,0,0,6,8.5,38.4,38.4,0,0,0,18.6,53,33,33,0,0,0,1.3,5.2,24.7,24.7,0,0,0,15.9,15,22.1,22.1,0,0,0,1.2,10.4,21.7,21.7,0,1,0,40.7-15.1A7.8,7.8,0,0,0,571.6,281Z" style="fill-rule: evenodd;fill: url(#linear-gradient)"/>
      <path d="M135.6,418.6a20.2,20.2,0,0,0-6-8.5,38.4,38.4,0,0,0-18.6-53,33,33,0,0,0-1.3-5.2,24.7,24.7,0,0,0-15.9-15,22.1,22.1,0,0,0-1.2-10.4,21.7,21.7,0,0,0-40.7,15.1,7.8,7.8,0,0,0,.5,1.4A42.2,42.2,0,0,0,41,390.6a35.6,35.6,0,0,0,1,21.6,34.8,34.8,0,0,0,16.9,19A27.8,27.8,0,0,0,94,460c.2.7.4,1.5.7,2.3a19.8,19.8,0,0,0,37.2-13.8A20.1,20.1,0,0,0,128,442,19.8,19.8,0,0,0,135.6,418.6Z" style="fill-rule: evenodd;fill: url(#linear-gradient-2)"/>
    </g>
    <path d="M550.5,192.3a21.2,21.2,0,0,1-1.7,8.3,28.8,28.8,0,0,0-28.1-22.3,29.8,29.8,0,0,0-7.3.9,21.1,21.1,0,0,1,16.3-7.8A20.9,20.9,0,0,1,550.5,192.3Z" style="fill-rule: evenodd;fill: url(#linear-gradient-3)"/>
    <path d="M572.4,235.1a32,32,0,0,1-5.4,11.3,42.3,42.3,0,0,0-32.1-41.8,44.1,44.1,0,0,0-10.7-1.3,30.6,30.6,0,0,1,48.2,31.8Z" style="fill-rule: evenodd;fill: url(#linear-gradient-4)"/>
    <path d="M74.9,434.5a22.3,22.3,0,0,1,1.6-8.3,29,29,0,0,0,28.4,22,33.8,33.8,0,0,0,7.2-1,20.9,20.9,0,0,1-37.2-12.7Z" style="fill-rule: evenodd;fill: url(#linear-gradient-5)"/>
    <path d="M52.5,391.9a31.8,31.8,0,0,1,5.3-11.3A42.3,42.3,0,0,0,90.3,422a39.8,39.8,0,0,0,10.8,1.2,30.7,30.7,0,0,1-48.6-31.3Z" style="fill-rule: evenodd;fill: url(#linear-gradient-6)"/>
  </g>
</svg>
