<svg width="406" height="193" viewBox="0 0 406 193" fill="none" xmlns="http://www.w3.org/2000/svg">
  <g filter="url(#filter0_ddd_12_3)">
    <path
      d="M0 4.62671C0 2.41757 1.79086 0.626709 4 0.626709H402C404.209 0.626709 406 2.41757 406 4.62671V191H0V4.62671Z"
      fill="url(#paint0_linear_12_3)" />
    <mask id="mask0_12_3" style="mask-type:luminance" maskUnits="userSpaceOnUse" x="206" y="103" width="200"
      height="88">
      <path d="M406 103.627H206V190.961H406V103.627Z" fill="white" />
    </mask>
    <g mask="url(#mask0_12_3)">
      <path opacity="0.2"
        d="M234.882 190.96H206V186.64C206 179.753 211.751 174.118 218.78 174.118H221.335C222.741 174.118 223.891 172.992 223.891 171.614V156.275C223.891 145.882 232.454 137.492 243.061 137.492H276.863C280.121 137.492 282.741 134.925 282.741 131.732V131.482C282.741 124.532 288.492 118.96 295.521 118.96C305.872 118.96 320.313 118.96 330.665 118.96C337.693 118.96 343.444 124.595 343.444 131.482V156.525H370.856C390.281 156.525 406 171.927 406 190.96H234.882Z"
        fill="#AEC7FF" />
      <path
        d="M254.28 128.756L253.449 130.419C253.257 130.803 253.641 131.251 254.088 131.059L255.749 130.227C255.877 130.163 256.005 130.163 256.133 130.227L257.794 131.059C258.177 131.251 258.625 130.867 258.433 130.419L257.602 128.756C257.539 128.628 257.539 128.5 257.602 128.372L258.433 126.708C258.625 126.324 258.241 125.877 257.794 126.068L256.133 126.9C256.005 126.964 255.877 126.964 255.749 126.9L254.088 126.068C253.705 125.877 253.257 126.26 253.449 126.708L254.28 128.372C254.344 128.436 254.344 128.628 254.28 128.756Z"
        fill="#AEC7FF" />
      <path
        d="M366.881 163.698L366.051 165.361C365.859 165.745 366.242 166.193 366.69 166.001L368.351 165.169C368.479 165.105 368.607 165.105 368.734 165.169L370.396 166.001C370.779 166.193 371.226 165.809 371.035 165.361L370.204 163.698C370.14 163.57 370.14 163.442 370.204 163.314L371.035 161.651C371.226 161.267 370.843 160.819 370.396 161.011L368.734 161.843C368.607 161.907 368.479 161.907 368.351 161.843L366.69 161.011C366.306 160.819 365.859 161.203 366.051 161.651L366.881 163.314C366.945 163.378 366.945 163.57 366.881 163.698Z"
        fill="#AEC7FF" />
      <path
        d="M394.514 153.88C394.131 153.88 393.875 153.624 393.875 153.24V152.6C393.875 152.216 394.131 151.96 394.514 151.96C394.897 151.96 395.153 152.216 395.153 152.6V153.24C395.153 153.56 394.833 153.88 394.514 153.88Z"
        fill="#7196FF" />
      <path
        d="M394.514 158.998C394.131 158.998 393.875 158.742 393.875 158.358V157.718C393.875 157.334 394.131 157.078 394.514 157.078C394.897 157.078 395.153 157.334 395.153 157.718V158.358C395.153 158.678 394.833 158.998 394.514 158.998Z"
        fill="#7196FF" />
      <path
        d="M396.113 155.479C396.113 155.095 396.369 154.839 396.752 154.839H397.391C397.775 154.839 398.03 155.095 398.03 155.479C398.03 155.863 397.775 156.119 397.391 156.119H396.752C396.369 156.119 396.113 155.799 396.113 155.479Z"
        fill="#7196FF" />
      <path
        d="M391 155.479C391 155.095 391.256 154.839 391.639 154.839H392.278C392.661 154.839 392.917 155.095 392.917 155.479C392.917 155.863 392.661 156.119 392.278 156.119H391.639C391.256 156.119 391 155.799 391 155.479Z"
        fill="#7196FF" />
      <path
        d="M235.514 149.88C235.131 149.88 234.875 149.624 234.875 149.24V148.6C234.875 148.216 235.131 147.96 235.514 147.96C235.897 147.96 236.153 148.216 236.153 148.6V149.24C236.153 149.624 235.897 149.88 235.514 149.88Z"
        fill="#D4E4FF" />
      <path
        d="M235.514 154.997C235.131 154.997 234.875 154.742 234.875 154.358V153.718C234.875 153.334 235.131 153.078 235.514 153.078C235.897 153.078 236.153 153.334 236.153 153.718V154.358C236.153 154.742 235.897 154.997 235.514 154.997Z"
        fill="#D4E4FF" />
      <path
        d="M237.113 151.479C237.113 151.095 237.369 150.839 237.752 150.839H238.391C238.775 150.839 239.03 151.095 239.03 151.479C239.03 151.863 238.775 152.119 238.391 152.119H237.752C237.369 152.119 237.113 151.863 237.113 151.479Z"
        fill="#D4E4FF" />
      <path
        d="M232 151.479C232 151.095 232.256 150.839 232.639 150.839H233.278C233.661 150.839 233.917 151.095 233.917 151.479C233.917 151.863 233.661 152.119 233.278 152.119H232.639C232.256 152.119 232 151.863 232 151.479Z"
        fill="#D4E4FF" />
      <path
        d="M374.514 112.88C374.131 112.88 373.875 112.624 373.875 112.24V111.6C373.875 111.217 374.131 110.961 374.514 110.961C374.897 110.961 375.153 111.217 375.153 111.6V112.24C375.153 112.624 374.897 112.88 374.514 112.88Z"
        fill="#D4E4FF" />
      <path
        d="M374.514 117.998C374.131 117.998 373.875 117.742 373.875 117.358V116.718C373.875 116.335 374.131 116.079 374.514 116.079C374.897 116.079 375.153 116.335 375.153 116.718V117.358C375.153 117.742 374.897 117.998 374.514 117.998Z"
        fill="#D4E4FF" />
      <path
        d="M376.113 114.479C376.113 114.096 376.369 113.84 376.752 113.84H377.391C377.775 113.84 378.03 114.096 378.03 114.479C378.03 114.863 377.775 115.119 377.391 115.119H376.752C376.369 115.119 376.113 114.863 376.113 114.479Z"
        fill="#D4E4FF" />
      <path
        d="M371 114.479C371 114.095 371.256 113.839 371.639 113.839H372.278C372.661 113.839 372.917 114.095 372.917 114.479C372.917 114.863 372.661 115.119 372.278 115.119H371.639C371.256 115.119 371 114.863 371 114.479Z"
        fill="#D4E4FF" />
      <mask id="mask1_12_3" style="mask-type:luminance" maskUnits="userSpaceOnUse" x="248" y="103" width="125"
        height="84">
        <path d="M372.917 103.627H248.105V186.334H372.917V103.627Z" fill="white" />
      </mask>
      <g mask="url(#mask1_12_3)">
        <path
          d="M372.918 162.759C338.033 189.487 308.468 156.326 264.908 186.333L261.07 172.835C262.818 171.322 264.284 168.956 265.298 166.071C265.718 164.858 266.041 163.614 266.266 162.349C266.608 160.514 266.78 158.651 266.78 156.783C266.78 148.946 263.894 142.292 259.885 139.847C259.179 139.412 258.403 139.107 257.591 138.949C257.222 138.873 256.845 138.836 256.468 138.838C254.845 138.838 253.301 139.5 251.928 140.667L248.105 127.201C291.665 97.1773 321.23 130.355 356.115 103.627L359.921 117.03C358.424 118.307 357.144 120.215 356.177 122.533C355.722 123.595 355.351 124.692 355.069 125.813C354.475 128.2 354.176 130.653 354.18 133.114C354.18 141.582 357.566 148.694 362.106 150.57C362.797 150.85 363.53 151.01 364.274 151.043H364.493C366.131 151.043 367.691 150.381 369.064 149.198L372.918 162.759Z"
          fill="#FF78B7" />
        <path
          d="M353.26 157.808C330.107 165.503 308.062 153.882 280.869 162.822L271.695 130.544C298.889 121.587 320.934 133.209 344.086 125.514L353.26 157.808Z"
          fill="white" />
        <path
          d="M334.319 147.448L332.603 141.409C332.352 140.536 331.826 139.77 331.106 139.226C330.385 138.683 329.509 138.391 328.609 138.397H327.673L327.377 137.356C327.033 136.173 326.33 135.13 325.367 134.374C324.403 133.618 323.229 133.189 322.01 133.146C313.398 132.846 304.645 131.727 295.425 131.884C294.868 131.892 294.321 132.028 293.825 132.284C293.329 132.54 292.899 132.908 292.567 133.36C292.234 133.812 292.01 134.335 291.91 134.888C291.811 135.442 291.839 136.011 291.993 136.552L292.195 137.261L291.478 137.309C291.072 137.344 290.679 137.47 290.326 137.677C289.974 137.884 289.672 138.167 289.441 138.506C289.209 138.845 289.055 139.232 288.989 139.638C288.924 140.045 288.948 140.461 289.059 140.857L290.776 146.928C291.039 147.849 291.611 148.65 292.393 149.194C293.176 149.737 294.12 149.989 295.066 149.908L295.784 149.876L295.971 150.523C296.315 151.746 297.048 152.821 298.058 153.579C299.069 154.338 300.298 154.738 301.556 154.717C310.621 154.544 319.233 155.6 327.689 155.947C328.262 155.972 328.834 155.859 329.356 155.617C329.877 155.375 330.335 155.011 330.69 154.555C331.045 154.099 331.288 153.564 331.398 152.995C331.508 152.425 331.483 151.837 331.324 151.28L331.246 151.012H331.698C332.123 151.004 332.539 150.897 332.916 150.701C333.293 150.505 333.621 150.224 333.874 149.88C334.127 149.536 334.299 149.138 334.376 148.716C334.453 148.295 334.434 147.861 334.319 147.448Z"
          fill="#7194FF" />
        <path
          d="M364.273 151.043C363.529 151.01 362.796 150.85 362.104 150.57L364.491 158.975C356.129 163.989 347.532 166.134 336.065 166.134C331.51 166.134 326.985 165.818 322.196 165.471C317.406 165.125 312.289 164.778 307.109 164.778C297.405 164.778 284.471 165.866 269.587 174.065L266.264 162.349C266.04 163.614 265.716 164.858 265.297 166.071L268.402 177.03C282.537 168.657 295.205 166.749 307.109 166.749C317.156 166.749 326.673 168.105 336.065 168.105C346.253 168.105 356.316 166.512 366.785 159.874L364.273 151.043ZM293.676 121.351C298.7 121.351 303.677 121.713 308.482 122.044C313.287 122.376 317.905 122.707 322.601 122.707C330.589 122.707 341.042 121.855 352.151 115.516L355.068 125.813C355.35 124.692 355.72 123.595 356.176 122.533L353.321 112.504C342.852 119.143 332.789 120.736 322.601 120.736C313.194 120.736 303.708 119.38 293.676 119.38C281.757 119.38 269.072 121.303 254.953 129.661L257.59 138.948C258.401 139.107 259.178 139.412 259.883 139.847L257.247 130.591C271.678 122.423 284.253 121.366 293.676 121.351Z"
          fill="#E9459D" />
        <path
          d="M318.843 149.293C314.943 149.025 310.98 148.725 306.955 148.567C306.2 148.541 305.473 148.271 304.881 147.797C304.289 147.323 303.862 146.67 303.663 145.934L302.165 140.667C302.081 140.372 302.067 140.061 302.125 139.76C302.183 139.459 302.311 139.175 302.498 138.934C302.686 138.692 302.927 138.499 303.203 138.37C303.478 138.241 303.78 138.18 304.084 138.192C308.156 138.349 312.166 138.665 316.097 138.933C316.838 138.982 317.546 139.261 318.125 139.733C318.703 140.204 319.122 140.844 319.327 141.566L320.809 146.833C320.895 147.131 320.909 147.446 320.849 147.751C320.789 148.056 320.656 148.341 320.463 148.583C320.27 148.825 320.022 149.016 319.739 149.139C319.457 149.263 319.15 149.316 318.843 149.293Z"
          fill="#B6CBFF" />
        <path
          d="M311.994 146.265C312.019 146.357 312.022 146.454 312.002 146.547C311.983 146.641 311.942 146.728 311.882 146.802C311.823 146.876 311.746 146.935 311.66 146.973C311.574 147.011 311.479 147.028 311.385 147.022L307.266 146.801C307.073 146.796 306.885 146.73 306.731 146.611C306.577 146.492 306.464 146.327 306.408 146.139L306.377 145.997C306.35 145.905 306.344 145.809 306.361 145.714C306.379 145.62 306.418 145.532 306.476 145.456C306.534 145.38 306.609 145.32 306.695 145.279C306.781 145.239 306.875 145.22 306.97 145.224C308.359 145.288 309.747 145.366 311.12 145.461C311.309 145.47 311.49 145.539 311.639 145.658C311.787 145.777 311.895 145.939 311.947 146.123L311.994 146.265ZM318.219 146.691L318.187 146.549C318.134 146.364 318.026 146.201 317.879 146.08C317.731 145.958 317.55 145.886 317.361 145.871L314.271 145.666C314.176 145.656 314.08 145.671 313.992 145.708C313.903 145.745 313.826 145.803 313.765 145.879C313.705 145.954 313.664 146.043 313.646 146.138C313.628 146.233 313.634 146.331 313.663 146.423L313.694 146.565C313.748 146.749 313.855 146.913 314.003 147.034C314.151 147.155 314.331 147.228 314.521 147.243L317.61 147.448C317.704 147.454 317.799 147.437 317.885 147.399C317.971 147.36 318.048 147.302 318.107 147.228C318.167 147.154 318.208 147.066 318.227 146.973C318.247 146.88 318.244 146.783 318.219 146.691Z"
          fill="#7194FF" />
        <path
          d="M299.84 141.061C299.981 142.165 299.279 143.064 298.249 143.064C297.219 143.064 296.299 142.165 296.158 141.061C296.018 139.958 296.72 139.059 297.75 139.059C298.78 139.059 299.7 139.958 299.84 141.061ZM325.661 142.323C325.521 141.203 324.584 140.32 323.555 140.32C322.525 140.32 321.823 141.203 321.963 142.323C322.104 143.443 323.055 144.31 324.07 144.31C325.084 144.31 325.801 143.427 325.661 142.323ZM319.264 150.491L312.649 150.034C315.52 152.935 318.157 152.651 319.264 150.491Z"
          fill="black" />
        <path
          d="M342.462 147.479L342.072 147.543C341.029 147.72 339.958 147.503 339.063 146.932C338.168 146.362 337.512 145.479 337.22 144.452L337.111 144.073C336.975 143.589 336.941 143.081 337.012 142.582C337.084 142.084 337.258 141.606 337.525 141.18C337.791 140.754 338.144 140.39 338.559 140.112C338.974 139.833 339.443 139.646 339.935 139.564L340.325 139.501C341.367 139.315 342.439 139.527 343.336 140.095C344.232 140.663 344.888 141.547 345.177 142.575L345.286 142.954C345.423 143.439 345.456 143.948 345.385 144.448C345.314 144.948 345.139 145.426 344.873 145.853C344.607 146.28 344.254 146.646 343.839 146.926C343.424 147.206 342.955 147.395 342.462 147.479ZM287.217 143.79C286.925 142.763 286.269 141.882 285.373 141.314C284.478 140.747 283.407 140.533 282.365 140.715L281.96 140.778C281.469 140.863 281.002 141.051 280.589 141.33C280.175 141.61 279.825 141.974 279.56 142.399C279.295 142.825 279.122 143.302 279.051 143.8C278.981 144.297 279.015 144.804 279.151 145.288L279.261 145.666C279.549 146.692 280.202 147.575 281.095 148.145C281.987 148.716 283.056 148.933 284.097 148.757L284.503 148.694C284.993 148.608 285.461 148.42 285.875 148.141C286.289 147.862 286.64 147.498 286.906 147.073C287.172 146.648 287.347 146.171 287.42 145.673C287.492 145.176 287.46 144.668 287.327 144.184L287.217 143.79Z"
          fill="#FFE55C" />
        <path
          d="M371.764 124.568C370.639 123.834 369.681 122.867 368.955 121.731C368.229 120.594 367.75 119.314 367.552 117.976L366.865 113.372C366.85 113.262 366.796 113.161 366.712 113.088C366.629 113.016 366.523 112.976 366.413 112.978C366.304 112.98 366.199 113.02 366.116 113.092C366.034 113.164 365.978 113.263 365.96 113.372L365.274 117.976C365.079 119.314 364.604 120.593 363.88 121.73C363.156 122.867 362.2 123.834 361.077 124.568L360.484 124.962C360.417 124.999 360.361 125.054 360.323 125.12C360.285 125.187 360.265 125.263 360.266 125.34V125.372C360.267 125.451 360.287 125.528 360.325 125.597C360.363 125.666 360.418 125.724 360.484 125.766L361.077 126.144C362.2 126.878 363.156 127.845 363.88 128.982C364.604 130.119 365.079 131.398 365.274 132.736L365.96 137.34C365.978 137.449 366.034 137.548 366.116 137.62C366.199 137.692 366.304 137.732 366.413 137.734C366.523 137.735 366.629 137.696 366.712 137.623C366.796 137.551 366.85 137.45 366.865 137.34L367.552 132.736C367.75 131.398 368.229 130.118 368.955 128.981C369.681 127.845 370.639 126.878 371.764 126.144L372.357 125.766C372.419 125.721 372.47 125.662 372.505 125.593C372.54 125.525 372.559 125.449 372.56 125.372V125.34C372.561 125.265 372.542 125.191 372.507 125.124C372.471 125.058 372.42 125.002 372.357 124.962L371.764 124.568Z"
          fill="#8AD7FF" />
        <path
          d="M255.221 159.416C254.582 158.998 254.038 158.447 253.626 157.8C253.215 157.153 252.944 156.425 252.834 155.663L252.444 153.03C252.436 152.966 252.404 152.907 252.355 152.866C252.305 152.825 252.242 152.805 252.178 152.809C252.117 152.809 252.058 152.831 252.012 152.872C251.966 152.912 251.936 152.969 251.929 153.03L251.539 155.663C251.421 156.424 251.147 157.152 250.733 157.798C250.319 158.445 249.775 158.996 249.136 159.416L248.808 159.637C248.77 159.659 248.738 159.692 248.716 159.73C248.695 159.769 248.683 159.813 248.684 159.858C248.685 159.902 248.697 159.946 248.718 159.984C248.74 160.023 248.771 160.055 248.808 160.079L249.136 160.299C249.779 160.718 250.326 161.271 250.741 161.921C251.155 162.571 251.427 163.303 251.539 164.068L251.929 166.686C251.936 166.747 251.966 166.803 252.012 166.844C252.058 166.885 252.117 166.907 252.178 166.906C252.242 166.911 252.305 166.891 252.355 166.85C252.404 166.808 252.436 166.75 252.444 166.686L252.834 164.068C252.941 163.306 253.209 162.576 253.621 161.928C254.033 161.28 254.579 160.73 255.221 160.315L255.564 160.094C255.601 160.071 255.632 160.038 255.654 160C255.676 159.961 255.688 159.918 255.689 159.874C255.689 159.829 255.678 159.785 255.656 159.746C255.634 159.707 255.602 159.675 255.564 159.653L255.221 159.416Z"
          fill="#57F287" />
      </g>
    </g>
  </g>
  <defs>
    <filter id="filter0_ddd_12_3" x="0" y="0.626709" width="406" height="192.373" filterUnits="userSpaceOnUse"
      color-interpolation-filters="sRGB">
      <feFlood flood-opacity="0" result="BackgroundImageFix" />
      <feColorMatrix in="SourceAlpha" type="matrix" values="0 0 0 0 0 0 0 0 0 0 0 0 0 0 0 0 0 0 127 0"
        result="hardAlpha" />
      <feOffset dy="2" />
      <feColorMatrix type="matrix" values="0 0 0 0 0.0156863 0 0 0 0 0.0156863 0 0 0 0 0.0196078 0 0 0 0.05 0" />
      <feBlend mode="normal" in2="BackgroundImageFix" result="effect1_dropShadow_12_3" />
      <feColorMatrix in="SourceAlpha" type="matrix" values="0 0 0 0 0 0 0 0 0 0 0 0 0 0 0 0 0 0 127 0"
        result="hardAlpha" />
      <feOffset dy="1.5" />
      <feColorMatrix type="matrix" values="0 0 0 0 0.0235294 0 0 0 0 0.0235294 0 0 0 0 0.027451 0 0 0 0.05 0" />
      <feBlend mode="normal" in2="effect1_dropShadow_12_3" result="effect2_dropShadow_12_3" />
      <feColorMatrix in="SourceAlpha" type="matrix" values="0 0 0 0 0 0 0 0 0 0 0 0 0 0 0 0 0 0 127 0"
        result="hardAlpha" />
      <feOffset dy="1" />
      <feColorMatrix type="matrix" values="0 0 0 0 0.0156863 0 0 0 0 0.0156863 0 0 0 0 0.0196078 0 0 0 0.2 0" />
      <feBlend mode="normal" in2="effect2_dropShadow_12_3" result="effect3_dropShadow_12_3" />
      <feBlend mode="normal" in="SourceGraphic" in2="effect3_dropShadow_12_3" result="shape" />
    </filter>
    <linearGradient id="paint0_linear_12_3" x1="102.422" y1="48.4274" x2="393.626" y2="168.975"
      gradientUnits="userSpaceOnUse">
      <stop stop-color="#8547C6" />
      <stop offset="0.52899" stop-color="#B845C1" />
      <stop offset="1" stop-color="#AB5D8A" />
    </linearGradient>
  </defs>
</svg>
