<svg width="48" height="53" viewBox="0 0 48 53" fill="none" xmlns="http://www.w3.org/2000/svg">
<circle cx="25.0001" cy="30" r="16" fill="#18191C"/>
<path d="M16.6667 25.0025V35.0025C16.6667 35.9225 17.4125 36.6692 18.3334 36.6692H19.1667V23.3359H18.3334C17.4125 23.3359 16.6667 24.0817 16.6667 25.0025Z" fill="#4F545C"/>
<path d="M31.6667 23.3359H20.8334V36.6692H31.6667C32.5867 36.6692 33.3334 35.9225 33.3334 35.0025V25.0025C33.3334 24.0817 32.5867 23.3359 31.6667 23.3359ZM30.8334 31.6692C30.8334 32.5892 30.0867 33.3359 29.1667 33.3359C28.2467 33.3359 27.5 32.5892 27.5 31.6692C27.5 30.7492 28.2467 30.0025 29.1667 30.0025V27.825L25.8334 28.9367C25.8334 28.9367 25.8334 32.4867 25.8334 32.5025C25.8334 33.4225 25.0867 34.1692 24.1667 34.1692C23.2467 34.1692 22.5 33.4225 22.5 32.5025C22.5 31.5825 23.2467 30.8359 24.1667 30.8359V28.3359C24.1667 27.9767 24.3959 27.6592 24.7367 27.545L29.7367 25.8784C29.9909 25.7934 30.2692 25.8359 30.4875 25.9934C30.705 26.1492 30.8334 26.4017 30.8334 26.6692C30.8334 26.6692 30.8334 31.6525 30.8334 31.6692Z" fill="#4F545C"/>
<path d="M41.1571 49.7509L40.0563 52.0602C39.8246 52.5798 40.346 53.1571 40.9254 52.9262L43.2428 51.8293C43.4166 51.7716 43.5904 51.7716 43.7642 51.8293L46.0817 52.9262C46.6031 53.1571 47.1825 52.6375 46.9507 52.0602L45.85 49.7509C45.792 49.5777 45.792 49.4045 45.85 49.2313L46.9507 46.922C47.1825 46.4025 46.6611 45.8251 46.0817 46.0561L43.7642 47.153C43.5904 47.2107 43.4166 47.2107 43.2428 47.153L40.9254 46.0561C40.4039 45.8251 39.8246 46.3447 40.0563 46.922L41.1571 49.2313C41.273 49.4045 41.273 49.5777 41.1571 49.7509Z" fill="#7CE2C2"/>
<path d="M5.7063 6.45054L5.61488 6.53737C5.34059 6.79787 4.98574 6.79038 4.72777 6.51864L3.60989 5.34109C3.35191 5.06935 3.36279 4.71451 3.63708 4.45401L3.72851 4.36718C4.0028 4.10667 4.35764 4.11416 4.61561 4.38591L5.7335 5.56346C5.99147 5.8352 5.98059 6.19003 5.7063 6.45054Z" fill="#7984F5"/>
<path d="M10.6235 11.6291L10.5321 11.716C10.2578 11.9765 9.90298 11.969 9.64501 11.6972L8.52712 10.5197C8.26915 10.2479 8.28003 9.8931 8.55432 9.63259L8.64574 9.54577C8.92003 9.28526 9.27488 9.29275 9.53285 9.56449L10.6507 10.742C10.9087 11.0138 10.8978 11.3686 10.6235 11.6291Z" fill="#7984F5"/>
<path d="M8.71221 6.71188L8.62651 6.62161C8.3694 6.35078 8.38024 5.99714 8.65361 5.73751L9.83822 4.61245C10.1116 4.35282 10.4652 4.36028 10.7223 4.63111L10.808 4.72138C11.0652 4.99221 11.0543 5.34585 10.7809 5.60548L9.59634 6.73055C9.41409 6.90363 8.96932 6.98271 8.71221 6.71188Z" fill="#7984F5"/>
<path d="M3.53362 11.6292L3.44792 11.5389C3.19081 11.2681 3.20165 10.9144 3.47502 10.6548L4.65962 9.52974C4.93299 9.27011 5.28664 9.27758 5.54374 9.54841L5.62944 9.63868C5.88655 9.90951 5.87571 10.2631 5.60234 10.5228L4.41774 11.6478C4.23549 11.8209 3.79072 11.9 3.53362 11.6292Z" fill="#7984F5"/>
</svg>
