<svg fill="none" height="44" viewBox="0 0 20 20" width="44" xmlns="http://www.w3.org/2000/svg"><path fill="#fff" d="M11.6665 6.66667C11.6665 6.20643 11.2934 5.83333 10.8331 5.83333H8.13314L8.63792 2.98949C8.68323 2.73422 8.48692 2.5 8.22766 2.5H7.40736C7.20533 2.5 7.03241 2.64493 6.9971 2.84385L6.46647 5.83333H3.48322C3.28081 5.83333 3.10768 5.9788 3.07279 6.17817L2.92696 7.01151C2.88234 7.26648 3.07854 7.5 3.33738 7.5H6.1748L5.29147 12.5H2.30822C2.10581 12.5 1.93268 12.6455 1.89779 12.8448L1.75196 13.6782C1.70734 13.9331 1.90354 14.1667 2.16238 14.1667H4.9998L4.49502 17.0105C4.44971 17.2658 4.64602 17.5 4.90527 17.5H5.72558C5.92761 17.5 6.10053 17.3551 6.13584 17.1562L6.66647 14.1667H11.6665L11.1617 17.0105C11.1164 17.2658 11.3127 17.5 11.5719 17.5H12.3922C12.5943 17.5 12.7672 17.3551 12.8025 17.1562L13.3331 14.1667H16.3164C16.5188 14.1667 16.6919 14.0212 16.7268 13.8218L16.8726 12.9885C16.9173 12.7335 16.7211 12.5 16.4622 12.5H13.6248L13.8963 10.9632C13.9851 10.4607 13.5986 10 13.0884 10C12.6903 10 12.3497 10.2857 12.2804 10.6777L11.9585 12.5H6.9585L7.84184 7.5H10.8331C11.2934 7.5 11.6665 7.1269 11.6665 6.66667Z"/><path fill="#fff" fill-rule="evenodd" clip-rule="evenodd" d="M18.7004 6.44892C18.8489 6.30873 19 6.16612 19 5.99991C19 5.83766 18.8527 5.70241 18.7052 5.56704C18.5834 5.45525 18.4615 5.34338 18.4225 5.21616C18.3841 5.091 18.4141 4.93094 18.4439 4.77134C18.4811 4.57229 18.5182 4.37395 18.4225 4.24491C18.3273 4.11653 18.1268 4.08991 17.9273 4.0634C17.7654 4.0419 17.6041 4.02048 17.5 3.94491C17.3963 3.86968 17.3247 3.72065 17.2533 3.57194C17.1645 3.38709 17.0759 3.20272 16.9262 3.16116C16.7806 3.1207 16.6099 3.21119 16.4364 3.30312C16.2883 3.38161 16.1382 3.46116 16 3.46116C15.8652 3.46116 15.7214 3.3817 15.5783 3.30267C15.4029 3.20577 15.2287 3.10952 15.0738 3.16116C14.9172 3.21334 14.8304 3.39448 14.7434 3.57589C14.6741 3.72041 14.6048 3.8651 14.5 3.94491C14.3905 4.0283 14.2183 4.05133 14.0486 4.07402C13.8519 4.10031 13.6586 4.12616 13.57 4.24491C13.4794 4.36644 13.5155 4.56717 13.5515 4.76755C13.581 4.93197 13.6106 5.09616 13.57 5.21616C13.5305 5.33302 13.4159 5.44122 13.2996 5.55089C13.1511 5.69109 13 5.83369 13 5.99991C13 6.16216 13.1473 6.29741 13.2948 6.43277C13.4166 6.54457 13.5385 6.65644 13.5775 6.78366C13.6159 6.90881 13.5859 7.06887 13.5561 7.22847C13.5189 7.42753 13.4818 7.62587 13.5775 7.75491C13.6727 7.88329 13.8732 7.90991 14.0727 7.93642C14.2346 7.95791 14.3959 7.97934 14.5 8.05491C14.6035 8.13005 14.6758 8.2788 14.748 8.42732C14.838 8.61236 14.9277 8.79705 15.0775 8.83866C15.2231 8.87912 15.3939 8.78863 15.5674 8.6967C15.7155 8.61821 15.8656 8.53866 16.0038 8.53866C16.1385 8.53866 16.2824 8.61812 16.4254 8.69715C16.6008 8.79404 16.7751 8.89029 16.93 8.83866C17.0863 8.78656 17.1754 8.60247 17.2636 8.4202C17.3342 8.27446 17.4042 8.12989 17.5075 8.05491C17.6129 7.97844 17.7783 7.9551 17.9431 7.93186C18.1419 7.90381 18.3398 7.8759 18.43 7.75491C18.5206 7.63338 18.4845 7.43264 18.4485 7.23226C18.419 7.06784 18.3894 6.90366 18.43 6.78366C18.4695 6.66679 18.5841 6.5586 18.7004 6.44892ZM14.5 6.37488L15.775 7.33863L17.4775 5.03613L16.9675 4.66113L15.625 6.44613L14.875 5.87238L14.5 6.37488Z"/></svg>
