<?xml version="1.0" encoding="UTF-8"?>
<svg fill="none" viewBox="0 0 182 126" xmlns="http://www.w3.org/2000/svg">
<g clip-path="url(#at)">
<rect width="182" height="126" rx="4" fill="#18191C"/>
<g opacity=".9">
<path d="m92.213 26.385c0-2.2091 1.7908-4 4-4h58.58c0.839 0 1.644 0.3309 2.237 0.92 0.594 0.5891 0.927 1.388 0.927 2.221v29.609c0 2.2092-1.791 4-4 4h-57.744c-2.2092 0-4-1.7908-4-4v-28.75z" fill="#F49FF7"/>
<path d="m113.17 49.035 3.812 0.3451-0.511 5.5679-3.813-0.3451c-0.147-0.0133-0.29-0.0553-0.421-0.1236s-0.247-0.1615-0.342-0.2743c-0.094-0.1129-0.166-0.2431-0.21-0.3833s-0.059-0.2877-0.046-0.4339l0.307-3.3408c0.027-0.2953 0.171-0.5678 0.401-0.7576 0.229-0.1898 0.525-0.2813 0.823-0.2544z" fill="#7196FF"/>
<path d="m146.99 57.718-3.812-0.3452 0.511-5.5679 3.813 0.3451c0.297 0.027 0.572 0.1701 0.763 0.398s0.283 0.5218 0.256 0.8172l-0.307 3.3407c-0.027 0.2953-0.171 0.5679-0.401 0.7577-0.229 0.1898-0.525 0.2813-0.823 0.2544z" fill="#7196FF"/>
<path d="m141.35 44.548-4.056-4.3472-5.397-0.49-6.619-0.5968-4.663 3.5557c-1.387 1.1517-2.71 2.3786-3.961 3.675-0.832 0.8671-1.478 1.8931-1.898 3.0155-0.421 1.1225-0.607 2.3181-0.548 3.5143 0.059 1.1961 0.363 2.3678 0.892 3.444s1.273 2.0344 2.187 2.8164h26.898c1.139-1.4541 1.792-3.2254 1.867-5.0659 0.075-1.8406-0.432-3.6584-1.449-5.199-1.005-1.4978-2.091-2.9406-3.253-4.322z" fill="#fff"/>
<path d="m106.34 51.339c-0.127-0.7073-0.532-1.3356-1.125-1.7468-0.593-0.4111-1.327-0.5715-2.039-0.4457-0.713 0.1258-1.345 0.5274-1.76 1.1165-0.414 0.589-0.575 1.3173-0.448 2.0246 0.48 2.4769 1.511 4.8161 3.018 6.8474h9.219c-5.556-1.225-6.808-7.4882-6.865-7.796z" fill="#fff"/>
<path d="m128.28 55.215 1.056 1.5831c0.048 0.0706 0.112 0.1295 0.186 0.1726s0.157 0.0693 0.242 0.0765c0.086 0.0072 0.172-0.0046 0.252-0.0347 0.081-0.03 0.153-0.0775 0.212-0.139l1.329-1.3632c0.076-0.0775 0.128-0.1746 0.15-0.2801 0.023-0.1056 0.015-0.2153-0.023-0.3165s-0.103-0.1897-0.19-0.2554c-0.086-0.0656-0.189-0.1056-0.297-0.1155l-2.386-0.2136c-0.108-0.0097-0.217 0.0111-0.313 0.0601-0.097 0.049-0.178 0.1241-0.234 0.2167-0.055 0.0926-0.083 0.1989-0.08 0.3067 2e-3 0.1077 0.035 0.2125 0.096 0.3023z" fill="#36393F"/>
<path d="m134.6 49.724-0.675 2.5065c-0.139 0.5162 0.17 1.0465 0.69 1.1844s1.054-0.1687 1.193-0.6849l0.675-2.5066c0.139-0.5162-0.17-1.0464-0.69-1.1843-0.52-0.138-1.054 0.1687-1.193 0.6849z" fill="#36393F"/>
<path d="m124.36 49.127 0.207 2.5864c0.042 0.5326 0.512 0.9301 1.048 0.8878 0.537-0.0423 0.937-0.5084 0.894-1.041l-0.206-2.5864c-0.043-0.5326-0.513-0.9301-1.049-0.8878-0.537 0.0423-0.937 0.5084-0.894 1.041z" fill="#36393F"/>
<path d="m135.82 56.804 0.905-0.9298" stroke="#F49FF7" stroke-linecap="round" stroke-linejoin="round" stroke-width="1.42"/>
<path d="m137.65 56.974 0.905-0.936" stroke="#F49FF7" stroke-linecap="round" stroke-linejoin="round" stroke-width="1.42"/>
<path d="m139.49 57.137 0.905-0.9297" stroke="#F49FF7" stroke-linecap="round" stroke-linejoin="round" stroke-width="1.42"/>
<path d="m123.83 55.717-0.721-1.0805" stroke="#F49FF7" stroke-linecap="round" stroke-linejoin="round" stroke-width="1.42"/>
<path d="m122 55.554-0.721-1.0805" stroke="#F49FF7" stroke-linecap="round" stroke-linejoin="round" stroke-width="1.42"/>
<path d="m120.16 55.39-0.721-1.0805" stroke="#F49FF7" stroke-linecap="round" stroke-linejoin="round" stroke-width="1.42"/>
<path d="m132.02 33.441-0.569 6.2444" stroke="#113484" stroke-linejoin="round" stroke-width="1.42"/>
<path d="m132.02 36.123c1.492 0 2.702-1.2009 2.702-2.6824s-1.21-2.6824-2.702-2.6824-2.702 1.2009-2.702 2.6824 1.21 2.6824 2.702 2.6824z" fill="#3E70DD"/>
<path d="m124.36 37.604 14.285 1.2933c0.089 8e-3 0.171 0.0506 0.228 0.1184 0.057 0.0679 0.084 0.1554 0.076 0.2434l-0.202 2.2021-14.973-1.3554 0.203-2.2021c4e-3 -0.0452 0.017-0.0891 0.039-0.129 0.022-0.0398 0.051-0.0749 0.087-0.1029 0.036-0.0281 0.077-0.0486 0.122-0.0602 0.044-0.0117 0.09-0.0142 0.135-0.0076z" fill="#7196FF"/>
<path d="m141.63 46.103c2.502-2.0694 3.576-4.8859 2.397-6.2909-1.178-1.4049-4.163-0.8663-6.665 1.2031-2.503 2.0694-3.576 4.8859-2.398 6.2909 1.179 1.4049 4.163 0.8663 6.666-1.2031z" fill="#fff"/>
<path d="m144.27 40.458-0.196-0.0817c-0.708-0.245-3.195 0.3769-4.429 2.1799-0.07 0.1005-0.133 0.2073-0.196 0.3078-1.057 1.7213-1.145 3.5682-0.171 4.2278 0.163 0.109 0.349 0.1799 0.544 0.2073 0.648-0.3275 1.255-0.728 1.81-1.1936 2.069-1.7338 2.841-4.322 2.638-5.6475z" fill="#D954E6"/>
<path d="m142.49 45.942s-1.847-2.7327-4.15-2.2678c-2.873 0.5779 0.468 4.7618 0.468 4.7618l3.682-2.494z" fill="#fff"/>
<path d="m126.43 46.538c1.415-1.1701 0.872-4.1329-1.212-6.6175-2.085-2.4847-4.921-3.5503-6.337-2.3802-1.415 1.1702-0.872 4.133 1.212 6.6176 2.085 2.4847 4.922 3.5503 6.337 2.3801z" fill="#fff"/>
<path d="m118.53 38.127c0.066-0.0219 0.134-0.0367 0.202-0.0439 0.747-0.1194 3.076 0.9423 3.962 2.94 0.05 0.113 0.101 0.2261 0.139 0.3329 0.727 1.8846 0.481 3.719-0.601 4.1901-0.182 0.0789-0.378 0.1175-0.576 0.1131-0.572-0.4459-1.095-0.9491-1.563-1.5014-1.728-2.0605-2.006-4.7681-1.563-6.0308z" fill="#D954E6"/>
<path d="m119.27 43.838s2.316-2.3558 4.499-1.4825c2.715 1.0867-1.329 4.5984-1.329 4.5984l-3.17-3.1159z" fill="#fff"/>
<path d="m103.19 56.283c2.918 0 5.283-2.3485 5.283-5.2456 0-2.897-2.365-5.2455-5.283-5.2455s-5.2838 2.3485-5.2838 5.2455c0 2.8971 2.3658 5.2456 5.2838 5.2456z" fill="#3E70DD"/>
<path d="m26.622 22.385h58.58c2.2092 0 4 1.7909 4 4v28.75c0 2.2092-1.7908 4-4 4h-57.744c-2.2092 0-4-1.7908-4-4v-29.609c0-0.833 0.3333-1.6319 0.9266-2.221s1.3981-0.92 2.2372-0.92z" fill="#fff"/>
<path d="m77.812 42.738 0.2721-1.602c-0.4622 0.0236-0.9127 0.1527-1.3165 0.3771s-0.7502 0.5382-1.0121 0.917c-1.634 2.5715-3.8369 4.7393-6.4414 6.3386-0.6514 0.7426-1.4868 1.3035-2.4235 1.6271l0.3796 1.5516 0.9998 4.0771 0.1012-0.0314c6.3276-2.7767 9.5294-6.0936 12.352-10.227 0.038-0.0502 0.0696-0.1068 0.1013-0.157 0.192-0.3228 0.3209-0.6788 0.3796-1.0491l-2.3855-0.4021c-0.3195-0.0627-0.6023-0.2452-0.7897-0.5096-0.1874-0.2645-0.2649-0.5904-0.2164-0.9101z" fill="url(#w)"/>
<path d="m44.212 52.966c-0.2578-0.0281-0.5135-0.0722-0.7657-0.1319-0.1044 0.059-0.2038 0.1262-0.2974 0.201-2.1725 1.7494-4.0761 3.8044-5.6505 6.0999h5.8277l0.5189-3.5808 0.367-2.5882z" fill="url(#l)"/>
<path d="m43.845 55.554-0.5125 3.5807h25.696l-0.7593-3.0845-0.9997-4.077-23.425 3.5808z" fill="#6A94FF"/>
<path d="m45.421 52.959c-0.4018 0.0407-0.8068 0.0407-1.2086 0l-0.367 2.5882 23.412-3.5808-0.3796-1.5517c-0.4087 0.1477-0.8335 0.2468-1.2655 0.2953l-20.191 2.249z" fill="#6A94FF"/>
<path d="m45.421 52.959c-0.4018 0.0407-0.8068 0.0407-1.2086 0l-0.367 2.5882 23.412-3.5808-0.3796-1.5517c-0.4087 0.1477-0.8335 0.2468-1.2655 0.2953l-20.191 2.249z" fill="url(#h)"/>
<path d="m65.308 30.451-0.5125 0.0565c0.8173 0.1141 1.6002 0.4015 2.2957 0.8427s1.2872 1.0258 1.735 1.7141c1.1791 0.109 2.3037 0.5443 3.246 1.2564-0.4364-1.7306-1.4914-3.2447-2.9686-4.2605-1.4772-1.0159-3.2758-1.4641-5.0611-1.2614l-21.666 2.4374 20.97-2.3369c0.4668-0.0496 0.9345 0.0855 1.3016 0.376 0.3672 0.2904 0.6043 0.7128 0.6599 1.1757z" fill="#F47FFF"/>
<path d="m69.719 35.533 0.9808 8.6818c0.5021-0.5598 0.9276-1.1829 1.2655-1.8532 0.1591-0.3063 0.2965-0.6233 0.4113-0.9486 0.0507-0.1319 0.095-0.2638 0.1392-0.402v-0.0314l0.038-0.1571c0.0652-0.2198 0.1117-0.4446 0.1392-0.6722 0.1013-0.9109 1.5123-0.6847 1.4111 0.2199-0.0462 0.3193-0.1181 0.6344-0.2152 0.9423-0.2177 0.7472-0.5235 1.4663-0.9111 2.1422 0.7665-0.8694 1.2767-1.9318 1.4744-3.0704 0.1978-1.1387 0.0754-2.3094-0.3537-3.3834s-1.1482-2.0098-2.0782-2.7043c-0.9301-0.6945-2.0351-1.121-3.1934-1.2324 0.4882 0.7421 0.7938 1.5878 0.8921 2.4688z" fill="#F47FFF"/>
<path d="m38.03 36.99c0.0568-0.0063 0.1141-0.0063 0.1709 0 0.2886-1.1247 0.9155-2.1354 1.7972-2.8975 0.8818-0.762 1.9765-1.2392 3.1383-1.368l20.21-2.249c0.4811-0.0599 0.9679-0.0599 1.449 0l0.5125-0.0566c-0.0555-0.4652-0.2944-0.8897-0.6644-1.1805s-0.8409-0.4242-1.3098-0.3711l-20.957 2.3683-0.7087 0.0754c-1.5994 0.1755-3.098 0.8622-4.2701 1.9567-1.172 1.0946-1.9541 2.5376-2.2283 4.1118 0.8318-0.5526 1.7838-0.9014 2.7778-1.0177l0.0822 0.6282z" fill="#F47FFF"/>
<path d="m36.182 43.197c-0.367-3.273 0.4619-6.0559 1.8477-6.2067l-0.0696-0.6282c-1.6299 0.2138-3.112 1.049-4.1325 2.3288-1.0204 1.2797-1.499 2.9036-1.3346 4.5276 0.1645 1.6241 0.9592 3.1208 2.2159 4.1732 1.2566 1.0525 2.8765 1.578 4.5167 1.4654-1.3351-0.0189-2.6829-2.4877-3.0436-5.6601z" fill="#F47FFF"/>
<path d="m44.212 52.966c0.4019 0.0408 0.8068 0.0408 1.2086 0l20.204-2.2489c0.4321-0.0485 0.8569-0.1476 1.2656-0.2953 0.9259-0.3236 1.7537-0.8757 2.4057-1.6043 0.6519-0.7285 1.1066-1.6097 1.3212-2.5607-2.1234 1.6385-4.6794 2.6313-7.359 2.8583-0.1804 0.0068-0.3567-0.0545-0.4935-0.1714-0.1368-0.117-0.224-0.281-0.244-0.4592-0.0201-0.1781 0.0285-0.3572 0.136-0.5012 0.1075-0.1441 0.2658-0.2424 0.4433-0.2753 1.6983-0.1658 3.3516-0.6384 4.8786-1.3947 1.0235-0.5276 1.9396-1.239 2.7019-2.0982l-0.9618-8.6818c-0.0984-0.881-0.404-1.7267-0.8922-2.4688-0.4477-0.6883-1.0395-1.2729-1.7349-1.7141-0.6955-0.4412-1.4785-0.7286-2.2958-0.8427-0.4811-0.0599-0.9679-0.0599-1.449 0l-20.21 2.2176c-1.1619 0.1288-2.2566 0.606-3.1383 1.368-0.8818 0.7621-1.5087 1.7728-1.7973 2.8975 1.3288 0.0565 2.6576 2.5128 3.012 5.6538 0.3733 3.2793-0.4556 6.0559-1.8414 6.213h-0.1582c0.2858 0.9724 0.8255 1.8525 1.5646 2.5508 0.739 0.6984 1.6509 1.1903 2.6433 1.4257 0.2605 0.0608 0.5247 0.1048 0.7909 0.1319zm14.737-6.282-5.8593 0.6282c-1.2972 0.1447-2.5992-0.2279-3.6197-1.0361-1.0205-0.8081-1.6759-1.9856-1.8221-3.2734l-0.4619-4.0708c-0.0533-0.4837 0.0885-0.9688 0.3944-1.3491 0.3059-0.3802 0.7511-0.6247 1.2381-0.68l11.605-1.2878c0.4873-0.053 0.9759 0.0878 1.3589 0.3916 0.3831 0.3037 0.6293 0.7457 0.685 1.2292l0.4998 4.4351c0.0687 0.5913 0.0192 1.1901-0.1457 1.7624-0.1649 0.5722-0.4419 1.1064-0.8152 1.5721-0.3733 0.4658-0.8354 0.8537-1.36 1.1418-0.5246 0.288-1.1013 0.4704-1.6971 0.5368zm7.4729-6.081c-0.3416 0.0393-0.6873-0.0231-0.9931-0.1793s-0.5579-0.3993-0.7243-0.6981c-0.1663-0.2989-0.2393-0.6401-0.2098-0.9803 0.0296-0.3402 0.1603-0.664 0.3757-0.9301 0.2154-0.2662 0.5057-0.4628 0.8339-0.5648s0.6796-0.1047 1.0094-0.0079c0.3298 0.0969 0.6232 0.2889 0.8428 0.5517 0.2195 0.2628 0.3554 0.5845 0.3904 0.9241 0.0462 0.4501-0.0878 0.9002-0.3732 1.2529-0.2854 0.3526-0.6991 0.5796-1.1518 0.6318zm-24.152 1.1307c-0.0397-0.3391 0.0232-0.6824 0.1806-0.986 0.1573-0.3036 0.4021-0.5539 0.7031-0.719s0.6447-0.2376 0.9874-0.2083c0.3426 0.0293 0.6688 0.1592 0.9369 0.373 0.2681 0.2139 0.4661 0.502 0.5688 0.8279s0.1055 0.6747 8e-3 1.0021c-0.0976 0.3275-0.291 0.6187-0.5557 0.8367s-0.5887 0.3529-0.9308 0.3876c-0.4534 0.046-0.9067-0.0871-1.2619-0.3705-0.3553-0.2833-0.5839-0.6941-0.6364-1.1435z" fill="#7196FF"/>
<path d="m62.468 37.254c-0.0557-0.4835-0.3019-0.9255-0.685-1.2292-0.383-0.3037-0.8716-0.4445-1.3589-0.3915l-11.605 1.2878c-0.487 0.0552-0.9322 0.2997-1.2381 0.68-0.3059 0.3802-0.4477 0.8653-0.3944 1.3491l0.4619 4.0708c0.1462 1.2878 0.8016 2.4652 1.8221 3.2734 1.0205 0.8081 2.3225 1.1808 3.6197 1.036l5.8593-0.6282c1.1995-0.1341 2.2964-0.7354 3.0498-1.6718 0.7533-0.9364 1.1016-2.1313 0.9682-3.3224l-0.4998-4.454zm-7.1312 7.0422-2.5311 0.2764c-0.2106 0.0234-0.4219-0.0373-0.5874-0.1687-0.1656-0.1314-0.2718-0.3226-0.2953-0.5317s0.0377-0.4189 0.17-0.5833c0.1323-0.1643 0.3249-0.2697 0.5355-0.2931l2.2274-0.2512c0.211-0.0213 0.422 0.0405 0.5877 0.172 0.1656 0.1316 0.2727 0.3225 0.2981 0.5315 0.057 0.4335 0.0317 0.8041-0.4049 0.8481zm4.6824-0.446-1.5946 0.1759c-0.1079 0.0184-0.2186 0.0147-0.3251-0.0109-0.1064-0.0256-0.2065-0.0725-0.2941-0.1379-0.0875-0.0654-0.1607-0.1478-0.2149-0.2423-0.0543-0.0945-0.0885-0.199-0.1006-0.3071s-0.0018-0.2175 0.0302-0.3215c0.0321-0.104 0.0852-0.2004 0.1562-0.2833 0.0709-0.0829 0.1582-0.1505 0.2564-0.1986 0.0982-0.0482 0.2053-0.0759 0.3148-0.0815l1.5945-0.1759c0.2046-0.0104 0.4055 0.0572 0.5616 0.1889s0.2556 0.3176 0.2782 0.5198c0.0226 0.2021-0.0334 0.4052-0.1565 0.5677-0.1232 0.1626-0.3042 0.2723-0.5061 0.3067z" fill="#A9C7FF"/>
<path d="m66.049 37.21c-0.3419 0.0345-0.6658 0.1691-0.9305 0.3867-0.2647 0.2177-0.4583 0.5085-0.5562 0.8356-0.0978 0.3271-0.0955 0.6757 0.0066 1.0015s0.2994 0.6141 0.5669 0.8283c0.2675 0.2143 0.5931 0.3447 0.9354 0.3749 0.3424 0.0301 0.686-0.0415 0.9873-0.2056 0.3013-0.1642 0.5466-0.4136 0.7049-0.7165 0.1582-0.3029 0.2222-0.6456 0.1839-0.9847-0.0542-0.4492-0.283-0.8596-0.6376-1.1436-0.3547-0.284-0.8071-0.4192-1.2607-0.3766z" fill="#202225"/>
<path d="m44.187 43.247c0.3403-0.0357 0.6622-0.1709 0.9249-0.3885s0.4545-0.5077 0.5509-0.8336 0.0932-0.6729-0.0093-0.997-0.2995-0.6107-0.5663-0.8234c-0.2667-0.2127-0.5911-0.342-0.9319-0.3715s-0.6828 0.0422-0.9826 0.2059-0.5438 0.4122-0.7012 0.7138-0.221 0.6428-0.1828 0.9803c0.051 0.4501 0.2792 0.8619 0.6348 1.1455 0.3557 0.2837 0.8099 0.4161 1.2635 0.3685z" fill="#202225"/>
<path d="m59.841 42.267-1.5945 0.1759c-0.1094 0.0056-0.2165 0.0333-0.3148 0.0815-0.0982 0.0481-0.1855 0.1157-0.2564 0.1986-0.071 0.0829-0.1241 0.1793-0.1562 0.2833-0.032 0.104-0.0423 0.2134-0.0302 0.3215s0.0463 0.2126 0.1006 0.3071 0.1274 0.1769 0.215 0.2423c0.0875 0.0654 0.1876 0.1123 0.2941 0.1379 0.1064 0.0256 0.2171 0.0293 0.325 0.0109l1.5946-0.1759c0.2019-0.0345 0.3829-0.1441 0.5061-0.3067 0.1232-0.1625 0.1791-0.3656 0.1565-0.5677-0.0226-0.2022-0.1221-0.3881-0.2782-0.5198s-0.357-0.1993-0.5616-0.1889z" fill="#7196FF"/>
<path d="m54.868 42.745-2.2273 0.2513c-0.1043 0.0116-0.2052 0.0434-0.2971 0.0937s-0.1729 0.118-0.2384 0.1994c-0.0656 0.0814-0.1143 0.1748-0.1435 0.2749-0.0291 0.1-0.0381 0.2048-0.0265 0.3084 0.0116 0.1035 0.0437 0.2037 0.0943 0.295 0.0507 0.0912 0.119 0.1716 0.2009 0.2367 0.082 0.065 0.1761 0.1134 0.2769 0.1423 0.1008 0.029 0.2063 0.0379 0.3106 0.0264l2.531-0.2764c0.4366-0.044 0.462-0.4146 0.4177-0.8481-0.0254-0.2115-0.1343-0.4044-0.3027-0.5363-0.1685-0.1319-0.3828-0.1921-0.5959-0.1673z" fill="#7196FF"/>
<path d="m74.123 40.345c0.1012-0.9046-1.3098-1.1308-1.411-0.2199-0.0275 0.2275-0.0741 0.4524-0.1393 0.6722l-0.0379 0.157v0.0315c-0.0443 0.1382-0.0886 0.2701-0.1392 0.402-0.1148 0.3253-0.2522 0.6422-0.4113 0.9486-0.338 0.6703-0.7635 1.2934-1.2655 1.8532-0.7624 0.8591-1.6785 1.5705-2.7019 2.0982-1.527 0.7562-3.1804 1.2289-4.8786 1.3946-0.1913 0.0159-0.3685 0.1065-0.4925 0.252s-0.1847 0.3339-0.1687 0.5239c0.0159 0.1899 0.1072 0.3658 0.2538 0.4889 0.1465 0.1231 0.3363 0.1834 0.5276 0.1675 2.6796-0.227 5.2356-1.2198 7.359-2.8583 0.2152-0.1759 0.4303-0.3581 0.6328-0.5528 0.6873-0.6677 1.2754-1.4292 1.7464-2.2616 0.3876-0.6759 0.6935-1.3949 0.9112-2.1421 0.0977-0.312 0.1696-0.6314 0.2151-0.9549z" fill="#F47FFF"/>
<path d="m38.03 36.99c-1.3857 0.1508-2.2147 2.9337-1.8477 6.2067 0.3607 3.141 1.7085 5.6538 3.0563 5.6538h0.1328c1.3858-0.157 2.2147-2.9337 1.8414-6.2129-0.3544-3.1411-1.6832-5.5911-3.012-5.6539-0.0567-0.0063-0.114-0.0063-0.1708 0v0.0063z" fill="#F47FFF"/>
<path d="m89.201 31.714-8.0171-1.3507c-0.165-0.0297-0.3344-0.0266-0.4982 0.0093-0.1639 0.0358-0.3189 0.1037-0.4561 0.1995-0.1372 0.0959-0.2538 0.2179-0.3431 0.3589-0.0892 0.141-0.1494 0.2983-0.1769 0.4626l-1.6641 9.7435-0.2342 1.6019c-0.055 0.3272 0.0225 0.6628 0.2157 0.9335 0.1933 0.2707 0.4865 0.4545 0.8157 0.5113l2.3855 0.4021 6.9604 1.181c0.1774 0.0285 0.3589 0.0191 0.5324-0.0274 0.1734-0.0466 0.3349-0.1293 0.4737-0.2427l0.0063-13.783z" fill="#D4E4FF"/>
<path d="m83.203 33.931c0.7964 0.7065 1.3749 1.6226 1.6683 2.6422 0.2935 1.0196 0.2898 2.1008-0.0105 3.1184-0.0664 0.2298-0.1814 0.4428-0.3375 0.6249-0.156 0.182-0.3495 0.3288-0.5673 0.4305-0.1827 0.0868-0.3876 0.1164-0.5876 0.085s-0.3856-0.1224-0.5324-0.2609c-0.1371-0.2125-0.1991-0.4643-0.1762-0.7156 0.0229-0.2514 0.1294-0.488 0.3027-0.6727 0.3094-0.3772 0.7162-0.6639 1.177-0.8292 0.5261-0.1923 1.0931-0.2477 1.6469-0.1608 0.5539 0.0869 1.076 0.3131 1.5169 0.6571 0.4682 0.3832 1.1389-0.2765 0.6707-0.6659-0.5273-0.4342-1.1527-0.7352-1.8226-0.8775-0.6699-0.1422-1.3645-0.1213-2.0246 0.0608-1.2655 0.3643-2.6513 1.514-2.4108 2.9777 0.2404 1.4637 2.0122 1.7967 3.0879 0.9925 1.0757-0.8041 1.3224-2.563 1.1706-3.8885-0.1541-1.6062-0.9053-3.0978-2.1071-4.1839-0.4619-0.3958-1.139 0.2701-0.6771 0.6659h0.0127z" fill="#3E70DD"/>
<mask id="x" x="23" y="62" width="67" height="38" style="mask-type:alpha" maskUnits="userSpaceOnUse">
<path d="m23.458 62.769h65.744v36.75h-62.58c-0.8391 0-1.6439-0.3309-2.2372-0.92-0.5933-0.589-0.9266-1.3879-0.9266-2.221v-33.609z" fill="#F7C9F7"/>
</mask>
<g mask="url(#x)">
<path d="m27.458 99.519h57.744c2.2091 0 4-1.7908 4-4v-28.75c0-2.2091-1.7909-4-4-4h-57.744c-2.2091 0-4 1.7909-4 4v28.75c0 2.2092 1.7909 4 4 4z" fill="#F7C9F7"/>
<g style="mix-blend-mode:multiply">
<path d="m56.33 62.769h-32.872l-10.75 30.485 12.781 10.748 30.841-22.861v-18.372z" fill="#F7C9F7"/>
</g>
<g style="mix-blend-mode:multiply">
<path d="m56.33 99.519c10.275 0 18.604-8.2267 18.604-18.375 0-10.148-8.3295-18.375-18.604-18.375-10.275 0-18.604 8.2268-18.604 18.375 0 10.148 8.3295 18.375 18.604 18.375z" fill="#F7C9F7"/>
</g>
<path d="m56.336 64.712c3.2908 0 6.5077 0.9639 9.2439 2.7697 2.7361 1.8059 4.8685 4.3726 6.1276 7.3755s1.5882 6.3072 0.9458 9.4949c-0.6424 3.1876-2.2275 6.1156-4.5549 8.4134-2.3273 2.2979-5.2924 3.8625-8.5201 4.4959s-6.5731 0.3071-9.6131-0.9374c-3.0399-1.2446-5.638-3.3516-7.4654-6.0546-1.8275-2.703-2.8023-5.8806-2.8011-9.1308 6e-3 -4.3557 1.761-8.5313 4.88-11.611 3.1189-3.0795 7.3472-4.8114 11.757-4.8159zm0-1.9428c-3.6801-0.0011-7.2778 1.0758-10.338 3.0944-3.0603 2.0187-5.4458 4.8884-6.8546 8.2462-1.4089 3.3578-1.7778 7.0529-1.0601 10.618s2.4897 6.8396 5.0919 9.4097 5.9177 4.3203 9.5272 5.0291c3.6094 0.7088 7.3506 0.3445 10.75-1.047 3.3997-1.3914 6.3053-3.7475 8.3491-6.7701 2.0439-3.0226 3.1342-6.576 3.1331-10.211 0-4.8719-1.9595-9.5442-5.4475-12.989-3.4879-3.4449-8.2186-5.3803-13.151-5.3803z" fill="#FFF4FF"/>
<g style="mix-blend-mode:multiply">
<path d="m56.33 62.769c-3.4676-1e-4 -6.8662 0.9532-9.8124 2.7524-2.9461 1.7992-5.3225 4.3726-6.8609 7.4299s-2.1777 6.4768-1.8456 9.8725 1.6223 6.6326 3.7249 9.3452l14.794-11.098v-18.302z" fill="#F7C9F7"/>
</g>
<path d="m89.845 80.736h-66.387v0.8167h66.387v-0.8167z" fill="#F47FFF"/>
<path d="m52.286 72.569h-3.2356v17.15h3.2356v-17.15z" fill="#202225"/>
<path d="m61.356 75.828c0.1693-8e-4 0.337 0.0307 0.4936 0.0925 0.1566 0.0619 0.2989 0.1529 0.4188 0.2679 0.12 0.115 0.2152 0.2517 0.2801 0.4022 0.065 0.1505 0.0984 0.3119 0.0984 0.4749v8.1578c0 0.3267-0.1348 0.64-0.3746 0.8711-0.2399 0.231-0.5653 0.3608-0.9045 0.3608h-1.1789c-0.1679 0-0.3343-0.0319-0.4894-0.0938-0.1552-0.0619-0.2962-0.1526-0.415-0.267s-0.213-0.2502-0.2773-0.3997c-0.0643-0.1494-0.0973-0.3096-0.0973-0.4714v-8.1578c0-0.3272 0.1345-0.6411 0.3742-0.8731 0.2397-0.2319 0.5651-0.3629 0.9048-0.3644h1.1789-0.0118zm0.0118-3.2586h-1.1789c-1.2381 0-2.4255 0.4737-3.301 1.3169s-1.3673 1.9868-1.3673 3.1792v8.1578c0.0016 1.192 0.4939 2.3347 1.369 3.1776 0.8752 0.8428 2.0617 1.317 3.2993 1.3185h1.1789c1.2377-0.0015 2.4242-0.4757 3.2993-1.3185 0.8752-0.8429 1.3675-1.9856 1.3691-3.1776v-8.1578c0-1.1924-0.4919-2.336-1.3674-3.1792s-2.0629-1.3169-3.301-1.3169z" fill="#202225"/>
</g>
<path d="m92.213 66.769c0-2.2091 1.7908-4 4-4h57.744c2.209 0 4 1.7909 4 4v29.609c0 0.8331-0.333 1.632-0.927 2.221-0.593 0.5891-1.398 0.92-2.237 0.92h-58.58c-2.2092 0-4-1.7908-4-4v-28.75z" fill="#3E70DD"/>
<path d="m143.65 66.529-41.001 3.2322c-0.696 0.0549-1.216 0.6602-1.161 1.3519l1.853 23.171c0.055 0.6917 0.665 1.2079 1.362 1.153l41-3.2322c0.697-0.0549 1.217-0.6602 1.162-1.3519l-1.854-23.171c-0.055-0.6917-0.665-1.2079-1.361-1.153z" fill="#fff"/>
<path d="m153.16 77.611-3.056-5.037-1.984 1.1862 3.056 5.037 1.984-1.1862z" fill="#F8F9F9"/>
<path d="m153.21 72.446 1.522 2.5077c0.203 0.3354 0.264 0.7373 0.169 1.1173s-0.338 0.707-0.676 0.909l-1.084 0.6482-3.056-5.037 1.084-0.6482c0.338-0.202 0.743-0.2625 1.126-0.1682 0.382 0.0943 0.712 0.3358 0.915 0.6712z" fill="#D954E6"/>
<path d="m148.12 73.763-11.541 6.9103-1.848 4.1336c-0.026 0.0621-0.037 0.1295-0.032 0.1966s0.026 0.1321 0.061 0.1897 0.084 0.1061 0.141 0.1416c0.058 0.0354 0.123 0.0569 0.191 0.0626l4.575 0.3015 11.541-6.9102-3.088-5.0257z" fill="#F7E080"/>
<path d="m149.15 75.438-1.018-1.6789-11.546 6.9036 1.019 1.679 11.545-6.9037z" fill="#F7D036"/>
<path d="m150.17 77.119-1.018-1.679-11.546 6.9036 1.019 1.679 11.545-6.9036z" fill="#FFD01A"/>
<path d="m151.18 78.792-1.019-1.679-11.545 6.9036 1.019 1.679 11.545-6.9036z" fill="#F7D036"/>
<path d="m150.17 77.119-1.018-1.679-11.546 6.9036 1.019 1.679 11.545-6.9036z" fill="#F5B312"/>
<path d="m148.77 73.392 2.715 4.3974 0.386 0.6282c0.297 0.4774 1.057 0.0377 0.759-0.4397l-2.714-4.3975-0.386-0.6282c-0.291-0.4774-1.051-0.0377-0.76 0.4398z" fill="#E3E5E8"/>
<path d="m135.29 83.556-0.557 1.2564c-0.026 0.0621-0.037 0.1295-0.032 0.1967 5e-3 0.0671 0.026 0.1321 0.061 0.1897 0.035 0.0575 0.084 0.1061 0.141 0.1415 0.058 0.0355 0.123 0.057 0.191 0.0626l1.347 0.0943v-0.1508c0.033-0.3826-0.061-0.7654-0.27-1.089-0.208-0.3237-0.518-0.5702-0.881-0.7014z" fill="#36393F"/>
<path d="m106.24 73.229c0.566 1.9179 1.586 3.6734 2.975 5.1195 1.39 1.446 3.108 2.5404 5.011 3.1917 3.739 1.2564 8.858 0.7601 11.643-2.2616 1.227-1.3255 2.208-3.631 0.512-5.0256-1.354-1.0994-3.303-0.7978-4.758-0.0754-0.831 0.4323-1.565 1.0268-2.158 1.7477-0.594 0.7209-1.034 1.5535-1.295 2.4476-0.261 0.8942-0.338 1.8315-0.225 2.7558s0.412 1.8164 0.881 2.6228c2.455 4.1587 9.017 4.8309 13.06 2.8646 1.101-0.534 0.139-2.1611-0.955-1.6334-1.538 0.7029-3.246 0.9536-4.923 0.7225-1.595-0.1822-3.392-0.6282-4.607-1.759-0.511-0.4666-0.92-1.0337-1.199-1.6652-0.28-0.6315-0.424-1.3138-0.424-2.0035 0-0.6898 0.144-1.372 0.424-2.0036 0.279-0.6315 0.688-1.1985 1.199-1.6651 0.842-0.7727 2.234-1.5077 3.405-1.0994 1.537 0.5403-0.266 2.5128-0.962 3.0468-2.531 1.9223-6.201 2.1108-9.112 1.1433-1.59-0.5576-3.024-1.4832-4.183-2.7001s-2.009-2.6902-2.48-4.2981c-0.342-1.1559-2.177-0.6659-1.829 0.5026v0.0251z" fill="#7196FF"/>
<path d="m109.98 85.655c-1.187-1.1777-2.796-1.8393-4.474-1.8393s-3.287 0.6616-4.473 1.8393c-3.7968 3.7693-6.7328 5.5973-8.8146 6.4957v3.3688c0 2.2092 1.7908 4 4 4h8.0226c2.014-1.5251 3.917-3.1898 5.695-4.9817 1.192-1.1722 1.866-2.7665 1.874-4.4323 9e-3 -1.6657-0.65-3.2666-1.83-4.4505z" fill="#F47FFF"/>
<path d="m149.57 82.91c-0.533-0.637-1.188-1.1629-1.927-1.5477-0.739-0.3847-1.547-0.6205-2.378-0.694-0.831-0.0734-1.668 0.017-2.464 0.2661s-1.534 0.6519-2.172 1.1854c-0.638 0.5334-1.164 1.1868-1.547 1.9227s-0.615 1.5397-0.684 2.3652c-0.069 0.8254 0.027 1.6562 0.283 2.4446 0.256 0.7883 0.667 1.5187 1.208 2.149 2.68 3.2159 5.764 6.0785 9.175 8.5184h5.726c0.839 0 1.644-0.3309 2.237-0.9199 0.594-0.5891 0.927-1.388 0.927-2.2211v-6.0622c-3.181-2.0006-6.013-4.5021-8.384-7.4065z" fill="#F47FFF"/>
</g>
<circle cx="9" cy="9" r="3" fill="#36393F"/>
<circle cx="56.5" cy="113.5" r="6.5" fill="#36393F"/>
<circle cx="73.5" cy="113.5" r="6.5" fill="#36393F"/>
<circle cx="90.5" cy="113.5" r="6.5" fill="#36393F"/>
<circle cx="107.24" cy="113.5" r="6.5" fill="#fff"/>
<g clip-path="url(#ai)">
<path d="m107.24 109.17c-2.394 0-4.334 1.94-4.334 4.333s1.94 4.333 4.334 4.333c2.393 0 4.333-1.94 4.333-4.333s-1.94-4.333-4.333-4.333zm-1.734 1.733c0.479 0 0.867 0.388 0.867 0.867 0 0.478-0.388 0.866-0.867 0.866-0.478 0-0.866-0.388-0.866-0.866 0-0.479 0.388-0.867 0.866-0.867zm4.334 3.467c0 1.134-1.24 2.166-2.6 2.166-1.361 0-2.6-1.032-2.6-2.166v-0.434h5.2v0.434zm-0.867-1.734c-0.478 0-0.867-0.388-0.867-0.866 0-0.479 0.389-0.867 0.867-0.867s0.867 0.388 0.867 0.867c0 0.478-0.389 0.866-0.867 0.866z" fill="#4F545C"/>
</g>
<circle cx="124.5" cy="113.5" r="6.5" fill="#36393F"/>
<g clip-path="url(#af)">
<path d="m80.345-5.2125c2.0415 0.73174 4.2228 1.7589 4.4152 4.1732 0.1659 2.0744-2.4957 4.3656-5.524 4.0201s-6.0819-3.2582-5.9732-5.6072c0.111-2.3986 2.6453-4.1764 7.082-2.5862z" fill="url(#g)"/>
<path d="m82.818-1.5937c0.0443 1.8323-0.1086 3.7158-1.5489 4.419-0.6576 0.17969-1.3482 0.23252-2.0331 0.15552-1.3729-0.15643-2.7501-0.83931-3.8366-1.7605 1.3641-1.7516 1.8013-2.6951 1.5778-4.4983l5.8408 1.6843z" fill="#ADFDDC"/>
<path d="m82.818-1.5936c-0.5586 1.7132-1.3426 1.7896-2.0102 1.5755-1.2975-0.41592-2.2754-1.5237-3.8305-3.2599 3.9948-0.08278 5.024 0.31395 5.8407 1.6844z" fill="#9E0960"/>
<path d="m80.805-0.007415c-0.8155-0.26215-1.5002-0.80718-2.2852-1.5979 0.3547-0.43492 1.2721-0.51384 1.6925 0.15088 0.6421-0.07672 1.2897 0.39266 1.4628 1.4562-0.2927 0.10749-0.5935 0.079199-0.8701-0.0092504z" fill="#FF78B9"/>
<path d="m81.308 0.9475c-0.1248 0.14137-0.3585 0.30943-0.7901 0.23718-0.6039-0.1017-0.9989-0.5984-1.0921-0.85204-0.0931-0.25364-0.0412-0.33732 0.1526-0.1841 0.7113 0.56258 1.0724 0.64297 1.4619 0.57436 0.1423-0.024742 0.2545-0.051866 0.3226-0.019378s0.0686 0.10661-0.0549 0.24397z" fill="#2AE5C4" opacity=".58"/>
</g>
<g clip-path="url(#ae)">
<path d="m92.344 38.572-3.1351 3.0054c-0.4259-2.011-0.4724-3.0591 0.1906-3.6425 0.6378-0.5615 1.7052-0.5463 2.9445 0.6371zm2.0375-2.6995c-0.6617 0.2734-0.733 1.1538-0.734 2.3464l3.2286-1.0337c-1.0903-1.2887-1.8335-1.5873-2.4946-1.3127z" fill="#2AE5C4"/>
<path d="m95.848 37.095c-0.3688 0.3056-0.5563 0.4127-0.9597 0.2077-0.1374-0.3386-0.2156-0.5746-0.03-0.6856 0.1856-0.1109 0.487-0.0877 0.9897 0.4779zm-5.4138 1.3265c-0.2664 0.2185 0.0375 0.7368 0.2303 1.0322 0.425 0.133 0.4957-0.3371 0.876-0.6295-0.5287-0.5323-0.8975-0.5723-1.1063-0.4027z" fill="#000"/>
<path d="m92.92 38.064c1.9704-0.9055 4.2477-1.6979 6.0786-0.1093 1.5737 1.3646 1.2807 4.8613-1.1228 6.7327-2.4037 1.8713-6.6263 1.9281-8.1964 0.1755-1.6033-1.7896-1.0416-4.831 3.2406-6.7989z" fill="url(#f)"/>
<path d="m97.223 38.917c1.3169 1.2767 2.529 2.728 1.9943 4.2372-0.3433 0.5882-0.7992 1.1089-1.342 1.5329-1.0896 0.8486-2.5516 1.3243-3.9732 1.4267-0.2551-2.2041-0.6049-3.1834-2.0293-4.3141l5.3502-2.8827z" fill="#ADFDDC"/>
<path d="m97.223 38.917c0.803 1.6134 0.2971 2.2163-0.3295 2.5304-1.2179 0.6106-2.6929 0.5039-5.0207 0.3523 2.7932-2.853 3.8061-3.2896 5.3502-2.8827z" fill="#9E0960"/>
<path d="m94.223 40.4c0.6333-0.3566 1.4825-0.0493 1.7771 0.5097l-1.7473 0.9095c-0.5424-0.3921-0.6407-1.0767-0.0298-1.4192z" fill="#000"/>
<path d="m92.111 41.451c0.0496 0.544-0.255 1.1663-0.6923 1.3738-0.4372 0.2076-0.8355-0.0957-0.8591-0.673s0.3053-1.1441 0.7257-1.3229c0.4205-0.1788 0.7771 0.0966 0.8257 0.6221zm5.9293-2.9533c-0.3364-0.3105-0.8512-0.4399-1.1126-0.3101-0.2273 0.1127-0.1804 0.3879 0.0786 0.6285 0.2589 0.2405 0.6866 0.4021 0.9836 0.3537 0.342-0.0567 0.3868-0.3616 0.0504-0.6721z" fill="#5865F2"/>
<path d="m96.899 41.458c-0.7659 0.3832-1.6369 0.473-2.7519 0.4577-0.0519-0.5585 0.5476-1.2564 1.3139-1.076 0.4045-0.5038 1.1959-0.6217 2.0655 0.0163-0.1335 0.2814-0.368 0.4716-0.6275 0.602z" fill="#FF78B9"/>
<path d="m96.514 41.281c-0.0094 0.0104-0.0209 0.0187-0.0336 0.0246-0.0166 0.0081-0.035 0.0116-0.0531 0.01-0.0182-0.0015-0.0353-8e-3 -0.0496-0.0188-0.3071-0.2418-0.7035-0.4031-0.9703-0.475-0.0121-3e-3 -0.0234-0.0084-0.0332-0.0159-0.0097-0.0075-0.0178-0.0168-0.0238-0.0275-0.0059-0.0106-0.0095-0.0224-0.0106-0.0346-0.0012-0.0123 2e-4 -0.0246 0.0041-0.0365 0.0075-0.0238 0.0243-0.0441 0.0467-0.0564s0.0487-0.0157 0.073-0.0092c0.2854 0.0766 0.7071 0.249 1.0373 0.5076 0.0194 0.0154 0.0317 0.0378 0.0342 0.0624 0.0024 0.0246-0.0051 0.0495-0.0211 0.0693z" fill="#000"/>
<path d="m97.928 41.787c0.0101 0.1882-0.0389 0.4716-0.3976 0.7218-0.5024 0.3499-1.1327 0.2716-1.3771 0.1557s-0.266-0.2119-0.0202-0.2381c0.9023-0.096 1.2163-0.2911 1.4462-0.6125 0.0842-0.1171 0.1453-0.215 0.2167-0.2394s0.1237 0.0281 0.132 0.2125z" fill="#2AE5C4" opacity=".58"/>
<path d="m94.889 36.84c-0.0512 0.0254-0.1433 0.0083-0.2107-0.0415s-0.0992-0.1235-0.051-0.1584 0.1604-0.0168 0.2373 0.0456c0.0769 0.0623 0.0783 0.1276 0.0244 0.1543zm-4.7415 1.6572c-0.0643 0.0319-0.0434 0.1299 0.0453 0.2193 0.0888 0.0895 0.2148 0.1353 0.2792 0.1034 0.0643-0.032 0.0447-0.1306-0.0453-0.2194-0.0901-0.0888-0.2135-0.1359-0.2792-0.1033z" fill="#fff"/>
</g>
<g clip-path="url(#ad)">
<path d="m113.61 83.818-3.136 3.0054c-0.425-2.011-0.472-3.059 0.191-3.6425 0.638-0.5615 1.705-0.5462 2.945 0.6371zm2.037-2.6994c-0.662 0.2734-0.733 1.1537-0.734 2.3463l3.229-1.0336c-1.091-1.2887-1.834-1.5874-2.495-1.3127z" fill="#2AE5C4"/>
<path d="m117.12 82.341c-0.369 0.3055-0.557 0.4127-0.96 0.2077-0.137-0.3386-0.216-0.5747-0.03-0.6856 0.186-0.111 0.487-0.0878 0.99 0.4779zm-5.414 1.3264c-0.266 0.2186 0.037 0.7369 0.23 1.0322 0.425 0.1331 0.496-0.337 0.876-0.6294-0.528-0.5324-0.897-0.5724-1.106-0.4028z" fill="#000"/>
<path d="m114.19 83.31c1.97-0.9056 4.247-1.698 6.078-0.1093 1.574 1.3645 1.281 4.8613-1.122 6.7326-2.404 1.8713-6.627 1.9281-8.197 0.1755-1.603-1.7896-1.041-4.8309 3.241-6.7988z" fill="url(#e)"/>
<path d="m118.49 84.164c1.317 1.2768 2.529 2.728 1.995 4.2373-0.344 0.5881-0.799 1.1088-1.342 1.5329-1.09 0.8485-2.552 1.3243-3.974 1.4266-0.255-2.2041-0.604-3.1833-2.029-4.3141l5.35-2.8827z" fill="#ADFDDC"/>
<path d="m118.49 84.164c0.803 1.6135 0.297 2.2163-0.329 2.5304-1.218 0.6107-2.693 0.5039-5.021 0.3524 2.793-2.853 3.806-3.2897 5.35-2.8828z" fill="#9E0960"/>
<path d="m115.49 85.646c0.634-0.3567 1.483-0.0493 1.777 0.5096l-1.747 0.9095c-0.542-0.392-0.641-1.0767-0.03-1.4191z" fill="#000"/>
<path d="m113.38 86.698c0.049 0.5439-0.255 1.1662-0.692 1.3738-0.438 0.2075-0.836-0.0958-0.86-0.6731-0.023-0.5772 0.306-1.1441 0.726-1.3229 0.421-0.1788 0.777 0.0966 0.826 0.6222zm5.929-2.9534c-0.336-0.3105-0.851-0.4398-1.112-0.3101-0.228 0.1128-0.181 0.3879 0.078 0.6285s0.687 0.4021 0.984 0.3537c0.342-0.0566 0.387-0.3616 0.05-0.6721z" fill="#5865F2"/>
<path d="m118.17 86.704c-0.766 0.3832-1.637 0.473-2.752 0.4578-0.052-0.5585 0.548-1.2565 1.314-1.0761 0.404-0.5038 1.196-0.6217 2.065 0.0163-0.133 0.2814-0.368 0.4717-0.627 0.602z" fill="#FF78B9"/>
<path d="m117.78 86.527c-0.01 0.0103-0.021 0.0187-0.034 0.0245-0.017 0.0081-0.035 0.0116-0.053 0.01-0.018-0.0015-0.036-8e-3 -0.05-0.0187-0.307-0.2418-0.703-0.4032-0.97-0.475-0.012-0.0031-0.023-0.0085-0.033-0.016-0.01-0.0074-0.018-0.0168-0.024-0.0274-6e-3 -0.0107-0.01-0.0225-0.011-0.0347s1e-3 -0.0246 4e-3 -0.0364c8e-3 -0.0239 0.025-0.0442 0.047-0.0565 0.023-0.0123 0.049-0.0156 0.073-0.0092 0.286 0.0766 0.707 0.2491 1.037 0.5077 0.02 0.0154 0.032 0.0377 0.035 0.0624 2e-3 0.0246-6e-3 0.0494-0.021 0.0693z" fill="#000"/>
<path d="m119.2 87.034c0.01 0.1882-0.039 0.4716-0.398 0.7219-0.502 0.3498-1.132 0.2715-1.377 0.1557-0.244-0.1159-0.266-0.212-0.02-0.2382 0.902-0.0959 1.216-0.291 1.446-0.6124 0.084-0.1172 0.145-0.215 0.217-0.2395 0.071-0.0244 0.124 0.0281 0.132 0.2125z" fill="#2AE5C4" opacity=".58"/>
<path d="m116.16 82.087c-0.051 0.0254-0.143 0.0083-0.211-0.0416-0.067-0.0498-0.099-0.1235-0.051-0.1584 0.049-0.0349 0.161-0.0168 0.238 0.0456s0.078 0.1276 0.024 0.1544zm-4.741 1.6571c-0.065 0.0319-0.044 0.1299 0.045 0.2194 0.089 0.0894 0.215 0.1353 0.279 0.1033 0.064-0.0319 0.045-0.1306-0.045-0.2194s-0.214-0.1359-0.279-0.1033z" fill="#fff"/>
</g>
<g clip-path="url(#ac)">
<path d="m95.297 75.035-4.3036 0.605c0.8332-1.8795 1.4097-2.7566 2.2893-2.8423 0.8463-0.0826 1.7029 0.5536 2.0143 2.2373zm3.2342-0.9984c-0.6968-0.165-1.2705 0.5072-1.9703 1.4737l3.2238 1.0484c-0.1288-1.682-0.5565-2.3585-1.2535-2.5221z" fill="#2AE5C4"/>
<path d="m99.004 75.886c-0.4781 0.0322-0.693 0.0096-0.9-0.3924 0.0871-0.3549 0.162-0.592 0.3775-0.5735s0.4464 0.2134 0.5225 0.9659zm-5.1674-2.088c-0.3441 0.0216-0.4014 0.6194-0.4182 0.9716 0.2667 0.3563 0.5995 0.0164 1.0793 0.0015-0.1167-0.7406-0.3924-0.9886-0.6611-0.9731z" fill="#000"/>
<path d="m96.062 74.96c2.1285 0.4171 4.4392 1.1052 4.9932 3.4633 0.476 2.026-1.8104 4.6905-4.8563 4.8033s-6.5032-2.3085-6.7492-4.6472c-0.2513-2.388 1.9867-4.5259 6.6123-3.6194z" fill="url(#d)"/>
<path d="m99.051 78.167c0.3196 1.8048 0.4519 3.6898-0.8662 4.6012-0.6231 0.2763-1.2979 0.4322-1.9866 0.4588-1.3809 0.0514-2.8452-0.4171-4.058-1.1648 1.085-1.9364 1.3753-2.9348 0.8829-4.684l6.0279 0.7888z" fill="#ADFDDC"/>
<path d="m99.052 78.167c-0.2944 1.7775-1.058 1.9707-1.7502 1.8593-1.3454-0.2165-2.4789-1.165-4.2777-2.6481 3.937-0.6813 5.0143-0.4435 6.0279 0.7888z" fill="#9E0960"/>
<path d="m95.75 77.616c0.7226 0.0809 1.231 0.8263 1.1423 1.4517l-1.9499-0.2835c-0.2101-0.6349 0.1115-1.2475 0.8076-1.1682z" fill="#000"/>
<path d="m93.421 77.234c-0.2786 0.47-0.8903 0.7967-1.3665 0.7095s-0.6214-0.566-0.3022-1.0478c0.3192-0.4819 0.9181-0.7494 1.3638-0.6487s0.5735 0.5324 0.3049 0.987zm6.5389 1.0699c-0.0908-0.4484-0.4325-0.854-0.7205-0.9016-0.2504-0.0414-0.3736 0.2091-0.3046 0.5555s0.3211 0.7274 0.5903 0.8616c0.3105 0.154 0.5252-0.0671 0.4348-0.5155z" fill="#5865F2"/>
<path d="m97.299 80.037c-0.8457-0.1368-1.6046-0.5729-2.4997-1.2368 0.2852-0.4832 1.1803-0.6989 1.696-0.1048 0.6233-0.1722 1.3342 0.1947 1.6654 1.2202-0.2732 0.1502-0.5749 0.1674-0.8617 0.1214z" fill="#FF78B9"/>
<path d="m97.091 79.67c-0.0137 0.0028-0.0279 0.0029-0.0417 2e-4 -0.0181-0.0031-0.0351-0.011-0.0489-0.0229-0.0138-0.0118-0.0239-0.0271-0.0292-0.0441-0.1073-0.3756-0.3342-0.7381-0.5084-0.9522-8e-3 -0.0095-0.014-0.0205-0.0176-0.0323-0.0035-0.0118-0.0046-0.0241-0.0032-0.0362 0.0015-0.0121 0.0054-0.0238 0.0117-0.0343 0.0062-0.0106 0.0146-0.0198 0.0247-0.0272 0.0201-0.0149 0.0456-0.0216 0.071-0.0185 0.0254 0.0032 0.0486 0.0158 0.0645 0.0352 0.1866 0.229 0.4274 0.6152 0.5436 1.0178 0.0068 0.0239 0.0036 0.0492-0.0088 0.0706s-0.0332 0.0371-0.0577 0.0439z" fill="#000"/>
<path d="m97.941 80.906c-0.1021 0.1585-0.3079 0.3598-0.7454 0.3531-0.6124-0.0099-1.0776-0.4417-1.2079-0.6785s-0.0915-0.3273 0.1231-0.2049c0.788 0.4494 1.157 0.4748 1.5318 0.3485 0.1369-0.0458 0.2438-0.0895 0.316-0.0676s0.0838 0.0951-0.0176 0.2494z" fill="#2AE5C4" opacity=".58"/>
<path d="m98.376 75.119c-0.0564-0.0093-0.1211-0.077-0.1465-0.1567-0.0255-0.0798-8e-3 -0.1582 0.0515-0.1583 0.0595-2e-4 0.1399 0.0801 0.1657 0.1756s-0.0114 0.1492-0.0707 0.1394zm-4.816-1.4269c-0.0709-0.0117-0.1114 0.08-0.0918 0.2044 0.0195 0.1244 0.0948 0.2352 0.1658 0.2469 0.0709 0.0117 0.1128-0.0797 0.0918-0.2043-0.021-0.1247-0.0934-0.235-0.1658-0.247z" fill="#fff"/>
</g>
<g clip-path="url(#ab)">
<path d="m102.7 24.248-4.3034 0.6051c0.8332-1.8796 1.4097-2.7566 2.2894-2.8423 0.846-0.0826 1.703 0.5535 2.014 2.2372zm3.234-0.9983c-0.696-0.165-1.27 0.5072-1.97 1.4736l3.224 1.0485c-0.129-1.682-0.557-2.3585-1.254-2.5221z" fill="#2AE5C4"/>
<path d="m106.4 25.099c-0.478 0.0323-0.693 0.0096-0.9-0.3924 0.087-0.3548 0.162-0.5919 0.378-0.5734 0.215 0.0185 0.446 0.2134 0.522 0.9658zm-5.167-2.0879c-0.344 0.0216-0.401 0.6194-0.418 0.9716 0.266 0.3562 0.599 0.0163 1.079 0.0015-0.117-0.7407-0.392-0.9886-0.661-0.9731z" fill="#000"/>
<path d="m103.46 24.174c2.129 0.4171 4.44 1.1053 4.993 3.4634 0.476 2.0259-1.81 4.6905-4.856 4.8033s-6.5033-2.3086-6.7493-4.6472c-0.2513-2.388 1.9867-4.526 6.6123-3.6195z" fill="url(#c)"/>
<path d="m106.45 27.38c0.319 1.8048 0.451 3.6899-0.867 4.6013-0.623 0.2763-1.298 0.4321-1.986 0.4588-1.381 0.0513-2.845-0.4172-4.0582-1.1649 1.0852-1.9363 1.3752-2.9348 0.8832-4.684l6.028 0.7888z" fill="#ADFDDC"/>
<path d="m106.45 27.38c-0.295 1.7776-1.058 1.9708-1.751 1.8593-1.345-0.2165-2.478-1.1649-4.277-2.6481 3.937-0.6812 5.014-0.4435 6.028 0.7888z" fill="#9E0960"/>
<path d="m103.15 26.829c0.723 0.0808 1.231 0.8262 1.142 1.4517l-1.95-0.2836c-0.21-0.6348 0.112-1.2475 0.808-1.1681z" fill="#000"/>
<path d="m100.82 26.448c-0.279 0.4701-0.8904 0.7967-1.3666 0.7095s-0.6214-0.5659-0.3022-1.0478c0.3192-0.4818 0.9178-0.7493 1.3638-0.6486s0.573 0.5323 0.305 0.9869zm6.539 1.07c-0.091-0.4484-0.433-0.8541-0.721-0.9017-0.25-0.0413-0.373 0.2092-0.304 0.5556s0.321 0.7273 0.59 0.8616c0.311 0.1539 0.526-0.0672 0.435-0.5155z" fill="#5865F2"/>
<path d="m104.7 29.251c-0.846-0.1368-1.605-0.5729-2.5-1.2368 0.285-0.4832 1.18-0.6989 1.696-0.1048 0.623-0.1722 1.334 0.1947 1.665 1.2202-0.273 0.1502-0.575 0.1673-0.861 0.1214z" fill="#FF78B9"/>
<path d="m104.49 28.883c-0.013 0.0029-0.027 3e-3 -0.041 3e-4 -0.018-0.0031-0.035-0.0111-0.049-0.0229-0.014-0.0119-0.024-0.0272-0.029-0.0442-0.108-0.3755-0.335-0.738-0.509-0.9521-8e-3 -0.0096-0.014-0.0206-0.017-0.0323-4e-3 -0.0118-5e-3 -0.0241-3e-3 -0.0362 1e-3 -0.0121 5e-3 -0.0238 0.011-0.0344s0.015-0.0198 0.025-0.0271c0.02-0.015 0.045-0.0216 0.071-0.0185 0.025 0.0031 0.048 0.0158 0.064 0.0352 0.187 0.2289 0.428 0.6151 0.544 1.0178 7e-3 0.0238 4e-3 0.0492-9e-3 0.0705-0.012 0.0214-0.033 0.0372-0.058 0.0439z" fill="#000"/>
<path d="m105.34 30.119c-0.102 0.1585-0.308 0.3597-0.746 0.353-0.612-0.0099-1.077-0.4417-1.208-0.6784-0.13-0.2368-0.091-0.3274 0.124-0.205 0.788 0.4495 1.157 0.4748 1.531 0.3485 0.137-0.0458 0.244-0.0894 0.316-0.0675 0.073 0.0219 0.084 0.0951-0.017 0.2494z" fill="#2AE5C4" opacity=".58"/>
<path d="m105.77 24.332c-0.056-0.0093-0.121-0.077-0.147-0.1568-0.025-0.0797-8e-3 -0.1581 0.052-0.1583 0.059-1e-4 0.14 0.0802 0.166 0.1757 0.025 0.0955-0.012 0.1492-0.071 0.1394zm-4.816-1.4269c-0.071-0.0117-0.111 0.08-0.092 0.2044 0.02 0.1244 0.095 0.2352 0.166 0.2469s0.113-0.0797 0.092-0.2044c-0.021-0.1246-0.094-0.2349-0.166-0.2469z" fill="#fff"/>
</g>
<g clip-path="url(#aa)">
<path d="m90.673-0.68322-4.3036 0.60506c0.8333-1.8796 1.4097-2.7566 2.2893-2.8423 0.8463-0.08262 1.7029 0.55353 2.0143 2.2372zm3.2342-0.99835c-0.6967-0.16496-1.2705 0.50723-1.9703 1.4737l3.2238 1.0485c-0.1288-1.6821-0.5565-2.3586-1.2535-2.5221z" fill="#2AE5C4"/>
<path d="m94.38 0.16709c-0.4781 0.032225-0.6929 0.009578-0.8999-0.3924 0.087-0.35485 0.1619-0.59194 0.3775-0.57346 0.2155 0.018484 0.4463 0.21343 0.5224 0.96586zm-5.1674-2.088c-0.344 0.02159-0.4014 0.6194-0.4181 0.97161 0.2666 0.35623 0.5994 0.016321 1.0792 0.001463-0.1167-0.74061-0.3924-0.98856-0.6611-0.97307z" fill="#000"/>
<path d="m91.438-0.75792c2.1284 0.4171 4.4395 1.1053 4.9931 3.4633 0.4762 2.026-1.8103 4.6905-4.8563 4.8033-3.0459 0.11281-6.5032-2.3086-6.7492-4.6472-0.2512-2.388 1.9867-4.5259 6.6124-3.6195z" fill="url(#b)"/>
<path d="m94.428 2.4487c0.3196 1.8048 0.4519 3.6899-0.8662 4.6012-0.6231 0.27631-1.2979 0.43217-1.9866 0.45882-1.3809 0.05136-2.8452-0.41713-4.058-1.1648 1.085-1.9364 1.3753-2.9348 0.8829-4.684l6.0279 0.78881z" fill="#ADFDDC"/>
<path d="m94.428 2.4487c-0.2944 1.7775-1.0579 1.9708-1.7502 1.8593-1.3454-0.2165-2.4789-1.165-4.2777-2.6481 3.9371-0.68127 5.0143-0.44349 6.0279 0.78881z" fill="#9E0960"/>
<path d="m91.126 1.8977c0.7226 0.08085 1.231 0.82628 1.1423 1.4517l-1.9499-0.28354c-0.21-0.63485 0.1115-1.2475 0.8076-1.1682z" fill="#000"/>
<path d="m88.797 1.5159c-0.2786 0.47005-0.8902 0.7967-1.3665 0.7095-0.4762-0.08721-0.6214-0.56594-0.3022-1.0478 0.3192-0.48187 0.9181-0.74933 1.3638-0.64863 0.4458 0.1007 0.5735 0.53236 0.3049 0.98695zm6.5389 1.0699c-0.0908-0.44836-0.4324-0.85406-0.7205-0.90162-0.2503-0.04135-0.3736 0.20915-0.3046 0.55555 0.069 0.34641 0.3211 0.72733 0.5903 0.86159 0.3105 0.15393 0.5256-0.06716 0.4348-0.51552z" fill="#5865F2"/>
<path d="m92.676 4.3191c-0.8456-0.13681-1.6046-0.57292-2.4997-1.2368 0.2852-0.4832 1.1804-0.69889 1.696-0.1048 0.6233-0.1722 1.3342 0.19468 1.6654 1.2202-0.2732 0.15019-0.5749 0.16736-0.8617 0.12142z" fill="#FF78B9"/>
<path d="m92.468 3.9511c-0.0137 0.00286-0.0279 0.00295-0.0417 2.5e-4 -0.0181-0.00311-0.0351-0.01104-0.0489-0.0229s-0.0239-0.02717-0.0292-0.04417c-0.1073-0.37554-0.3342-0.73805-0.5084-0.95214-8e-3 -0.00957-0.014-0.02056-0.0175-0.03233-0.0036-0.01176-0.0047-0.02407-0.0033-0.03618 0.0015-0.01212 0.0055-0.0238 0.0117-0.03436 0.0063-0.01056 0.0147-0.01979 0.0247-0.02713 0.0201-0.01496 0.0456-0.02161 0.071-0.01848 0.0254 0.00312 0.0486 0.01576 0.0645 0.03516 0.1866 0.22897 0.4275 0.61516 0.5436 1.0178 0.0068 0.02385 0.0036 0.04917-0.0088 0.07056s-0.0331 0.03715-0.0577 0.0439z" fill="#000"/>
<path d="m93.317 5.1877c-0.102 0.15848-0.3078 0.35971-0.7454 0.35303-0.6124-0.0099-1.0776-0.4417-1.2079-0.67848s-0.0915-0.32731 0.1232-0.2049c0.7879 0.44945 1.1569 0.47476 1.5317 0.34848 0.1369-0.04581 0.2438-0.08946 0.316-0.06756s0.0838 0.09511-0.0176 0.24943z" fill="#2AE5C4" opacity=".58"/>
</g>
<g clip-path="url(#z)">
<path d="m114.72 49.18-4.303 0.6051c0.833-1.8796 1.41-2.7567 2.289-2.8423 0.846-0.0827 1.703 0.5535 2.014 2.2372zm3.235-0.9984c-0.697-0.1649-1.271 0.5073-1.971 1.4737l3.224 1.0485c-0.129-1.6821-0.556-2.3586-1.253-2.5222z" fill="#2AE5C4"/>
<path d="m118.42 50.03c-0.479 0.0322-0.693 0.0096-0.9-0.3924 0.087-0.3548 0.162-0.5919 0.377-0.5735 0.216 0.0185 0.447 0.2135 0.523 0.9659zm-5.168-2.0879c-0.344 0.0215-0.401 0.6194-0.418 0.9716 0.267 0.3562 0.6 0.0163 1.079 0.0014-0.116-0.7406-0.392-0.9885-0.661-0.973z" fill="#000"/>
<path d="m115.48 49.105c2.129 0.4171 4.44 1.1053 4.993 3.4633 0.477 2.026-1.81 4.6905-4.856 4.8034-3.046 0.1128-6.503-2.3086-6.749-4.6472-0.251-2.388 1.987-4.526 6.612-3.6195z" fill="url(#a)"/>
<path d="m118.47 52.312c0.319 1.8048 0.452 3.6899-0.866 4.6012-0.623 0.2763-1.298 0.4322-1.987 0.4589-1.381 0.0513-2.845-0.4172-4.058-1.1649 1.085-1.9364 1.375-2.9348 0.883-4.684l6.028 0.7888z" fill="#ADFDDC"/>
<path d="m118.47 52.312c-0.295 1.7775-1.058 1.9708-1.75 1.8593-1.346-0.2165-2.479-1.165-4.278-2.6481 3.937-0.6813 5.014-0.4435 6.028 0.7888z" fill="#9E0960"/>
<path d="m115.17 51.761c0.723 0.0809 1.231 0.8263 1.142 1.4517l-1.949-0.2835c-0.21-0.6349 0.111-1.2475 0.807-1.1682z" fill="#000"/>
<path d="m112.84 51.379c-0.278 0.4701-0.89 0.7967-1.366 0.7095-0.477-0.0872-0.622-0.5659-0.303-1.0478 0.32-0.4819 0.918-0.7493 1.364-0.6486s0.574 0.5323 0.305 0.9869zm6.539 1.0699c-0.091-0.4483-0.432-0.854-0.72-0.9016-0.251-0.0413-0.374 0.2092-0.305 0.5556s0.321 0.7273 0.59 0.8616c0.311 0.1539 0.526-0.0672 0.435-0.5156z" fill="#5865F2"/>
<path d="m116.72 54.182c-0.846-0.1368-1.605-0.5729-2.5-1.2368 0.285-0.4832 1.18-0.6989 1.696-0.1048 0.623-0.1722 1.334 0.1946 1.665 1.2202-0.273 0.1501-0.574 0.1673-0.861 0.1214z" fill="#FF78B9"/>
<path d="m116.51 53.814c-0.014 0.0029-0.028 3e-3 -0.042 3e-4 -0.018-0.0031-0.035-0.0111-0.049-0.0229-0.014-0.0119-0.024-0.0272-0.029-0.0442-0.107-0.3755-0.334-0.7381-0.508-0.9521-9e-3 -0.0096-0.014-0.0206-0.018-0.0324-4e-3 -0.0117-5e-3 -0.024-3e-3 -0.0362 1e-3 -0.0121 5e-3 -0.0238 0.011-0.0343 7e-3 -0.0106 0.015-0.0198 0.025-0.0271 0.02-0.015 0.046-0.0217 0.071-0.0185 0.025 0.0031 0.049 0.0157 0.065 0.0351 0.186 0.229 0.427 0.6152 0.543 1.0179 7e-3 0.0238 4e-3 0.0491-9e-3 0.0705-0.012 0.0214-0.033 0.0372-0.057 0.0439z" fill="#000"/>
<path d="m117.36 55.051c-0.102 0.1585-0.308 0.3597-0.745 0.353-0.613-0.0099-1.078-0.4417-1.208-0.6785-0.131-0.2368-0.092-0.3273 0.123-0.2049 0.788 0.4495 1.157 0.4748 1.532 0.3485 0.137-0.0458 0.243-0.0895 0.316-0.0676 0.072 0.0219 0.083 0.0951-0.018 0.2495z" fill="#2AE5C4" opacity=".58"/>
<path d="m117.8 49.264c-0.056-0.0094-0.121-0.077-0.146-0.1568-0.026-0.0798-8e-3 -0.1581 0.051-0.1583 0.06-1e-4 0.14 0.0801 0.166 0.1756s-0.011 0.1493-0.071 0.1395zm-4.816-1.4269c-0.071-0.0117-0.111 0.0799-0.092 0.2043 0.02 0.1244 0.095 0.2352 0.166 0.247 0.071 0.0117 0.113-0.0798 0.092-0.2044-0.021-0.1247-0.093-0.235-0.166-0.2469z" fill="#fff"/>
</g>
<g clip-path="url(#y)">
<path d="m98.071 54.72-4.3036 0.6051c0.8333-1.8796 1.4097-2.7566 2.2893-2.8423 0.8463-0.0826 1.7029 0.5535 2.0143 2.2372zm3.2346-0.9983c-0.697-0.165-1.271 0.5072-1.9707 1.4737l3.2237 1.0484c-0.129-1.682-0.556-2.3585-1.253-2.5221z" fill="#2AE5C4"/>
<path d="m101.78 55.571c-0.479 0.0323-0.693 0.0096-0.9-0.3924 0.087-0.3548 0.162-0.5919 0.377-0.5734 0.216 0.0185 0.447 0.2134 0.523 0.9658zm-5.1678-2.0879c-0.344 0.0216-0.4014 0.6194-0.4181 0.9716 0.2666 0.3562 0.5994 0.0163 1.0792 0.0015-0.1167-0.7406-0.3924-0.9886-0.6611-0.9731z" fill="#000"/>
<path d="m98.836 54.646c2.1288 0.4171 4.4398 1.1053 4.9928 3.4634 0.477 2.026-1.81 4.6905-4.8559 4.8033s-6.5032-2.3086-6.7492-4.6472c-0.2513-2.388 1.9867-4.5259 6.6123-3.6195z" fill="url(#v)"/>
<path d="m101.83 57.852c0.319 1.8048 0.452 3.6899-0.866 4.6013-0.623 0.2763-1.2983 0.4321-1.987 0.4588-1.3809 0.0514-2.8452-0.4171-4.058-1.1649 1.085-1.9363 1.3753-2.9347 0.8829-4.684l6.0281 0.7888z" fill="#ADFDDC"/>
<path d="m101.83 57.852c-0.295 1.7776-1.058 1.9708-1.75 1.8593-1.3457-0.2165-2.4792-1.1649-4.278-2.6481 3.9371-0.6812 5.014-0.4435 6.028 0.7888z" fill="#9E0960"/>
<path d="m98.524 57.301c0.7226 0.0808 1.231 0.8263 1.1423 1.4517l-1.9499-0.2836c-0.21-0.6348 0.1115-1.2474 0.8076-1.1681z" fill="#000"/>
<path d="m96.195 56.92c-0.2786 0.47-0.8902 0.7967-1.3665 0.7095-0.4762-0.0872-0.6214-0.566-0.3022-1.0479 0.3192-0.4818 0.9181-0.7493 1.3638-0.6486 0.4458 0.1007 0.5735 0.5324 0.3049 0.987zm6.5389 1.0699c-0.091-0.4484-0.432-0.8541-0.72-0.9016-0.251-0.0414-0.374 0.2091-0.305 0.5555s0.321 0.7273 0.59 0.8616c0.311 0.1539 0.526-0.0672 0.435-0.5155z" fill="#5865F2"/>
<path d="m100.07 59.723c-0.8458-0.1368-1.6048-0.5729-2.4999-1.2368 0.2852-0.4832 1.1803-0.6989 1.696-0.1048 0.6233-0.1722 1.3339 0.1947 1.6649 1.2202-0.273 0.1502-0.574 0.1674-0.861 0.1214z" fill="#FF78B9"/>
<path d="m99.866 59.355c-0.0137 0.0028-0.0279 0.0029-0.0417 2e-4 -0.0181-0.0031-0.0351-0.011-0.0489-0.0229s-0.0239-0.0272-0.0292-0.0442c-0.1073-0.3755-0.3342-0.738-0.5084-0.9521-8e-3 -0.0096-0.014-0.0206-0.0176-0.0323-0.0035-0.0118-0.0046-0.0241-0.0032-0.0362 0.0015-0.0121 0.0055-0.0238 0.0117-0.0344 0.0063-0.0105 0.0147-0.0198 0.0247-0.0271 0.0201-0.015 0.0456-0.0216 0.071-0.0185s0.0486 0.0158 0.0645 0.0352c0.1866 0.2289 0.4274 0.6151 0.5436 1.0178 0.0068 0.0238 0.0036 0.0492-0.0088 0.0706-0.0124 0.0213-0.0331 0.0371-0.0577 0.0439z" fill="#000"/>
<path d="m100.72 60.591c-0.102 0.1585-0.308 0.3597-0.7454 0.3531-0.6124-0.01-1.0776-0.4418-1.2079-0.6785-0.1303-0.2368-0.0915-0.3273 0.1231-0.2049 0.788 0.4494 1.1572 0.4747 1.5322 0.3484 0.137-0.0458 0.243-0.0894 0.316-0.0675 0.072 0.0219 0.083 0.0951-0.018 0.2494z" fill="#2AE5C4" opacity=".58"/>
<path d="m101.15 54.804c-0.056-0.0093-0.121-0.077-0.146-0.1568-0.026-0.0797-8e-3 -0.1581 0.051-0.1582 0.06-2e-4 0.14 0.0801 0.166 0.1756s-0.011 0.1492-0.071 0.1394zm-4.8158-1.4269c-0.0709-0.0117-0.1113 0.08-0.0918 0.2044s0.0949 0.2352 0.1658 0.2469 0.1128-0.0797 0.0918-0.2044c-0.021-0.1246-0.0934-0.2349-0.1658-0.2469z" fill="#fff"/>
</g>
<g clip-path="url(#as)">
<path d="m123.96 7.6273-4.303 0.60506c0.833-1.8796 1.41-2.7566 2.289-2.8423 0.846-0.08262 1.703 0.55353 2.014 2.2372zm3.235-0.99835c-0.697-0.16497-1.271 0.50723-1.971 1.4737l3.224 1.0485c-0.129-1.682-0.556-2.3586-1.253-2.5221z" fill="#2AE5C4"/>
<path d="m127.67 8.4776c-0.478 0.03222-0.693 0.00958-0.9-0.39241 0.087-0.35484 0.162-0.59194 0.377-0.57346 0.216 0.01849 0.447 0.21343 0.523 0.96587zm-5.168-2.088c-0.344 0.02158-0.401 0.6194-0.418 0.97161 0.267 0.35623 0.6 0.01632 1.079 0.00146-0.116-0.74061-0.392-0.98856-0.661-0.97307z" fill="#000"/>
<path d="m124.73 7.5526c2.129 0.4171 4.44 1.1053 4.993 3.4634 0.477 2.026-1.81 4.6905-4.856 4.8033s-6.503-2.3086-6.749-4.6472c-0.251-2.388 1.987-4.526 6.612-3.6195z" fill="url(#u)"/>
<path d="m127.72 10.759c0.319 1.8048 0.452 3.6899-0.866 4.6013-0.623 0.2763-1.298 0.4321-1.987 0.4588-1.381 0.0513-2.845-0.4171-4.058-1.1649 1.085-1.9363 1.375-2.9347 0.883-4.684l6.028 0.78877z" fill="#ADFDDC"/>
<path d="m127.72 10.759c-0.294 1.7776-1.058 1.9708-1.75 1.8593-1.346-0.2165-2.479-1.1649-4.278-2.6481 3.937-0.68127 5.014-0.44349 6.028 0.78877z" fill="#9E0960"/>
<path d="m124.42 10.208c0.723 0.0808 1.231 0.8262 1.143 1.4517l-1.95-0.2836c-0.21-0.6348 0.111-1.2475 0.807-1.1681z" fill="#000"/>
<path d="m122.09 9.8264c-0.278 0.47005-0.89 0.79665-1.366 0.70945-0.477-0.0872-0.622-0.5659-0.303-1.0478 0.32-0.48187 0.919-0.74933 1.364-0.64863 0.446 0.1007 0.574 0.53236 0.305 0.98695zm6.539 1.07c-0.091-0.4484-0.432-0.8541-0.72-0.90165-0.251-0.04135-0.374 0.20915-0.305 0.55555s0.321 0.7273 0.59 0.8616c0.311 0.1539 0.526-0.0672 0.435-0.5155z" fill="#5865F2"/>
<path d="m125.97 12.63c-0.846-0.1368-1.605-0.5729-2.5-1.2368 0.285-0.4832 1.181-0.6989 1.696-0.1048 0.623-0.1722 1.334 0.1947 1.666 1.2202-0.274 0.1502-0.575 0.1673-0.862 0.1214z" fill="#FF78B9"/>
<path d="m125.76 12.262c-0.014 0.0029-0.028 3e-3 -0.042 3e-4 -0.018-0.0031-0.035-0.011-0.049-0.0229s-0.024-0.0272-0.029-0.0442c-0.107-0.3755-0.334-0.738-0.508-0.9521-8e-3 -0.0096-0.014-0.0206-0.018-0.0323-4e-3 -0.0118-5e-3 -0.0241-3e-3 -0.0362 1e-3 -0.0121 5e-3 -0.0238 0.011-0.0344 7e-3 -0.0105 0.015-0.0198 0.025-0.0271 0.02-0.015 0.046-0.0216 0.071-0.0185 0.026 0.0031 0.049 0.0158 0.065 0.0352 0.186 0.2289 0.427 0.6151 0.543 1.0178 7e-3 0.0238 4e-3 0.0492-9e-3 0.0705-0.012 0.0214-0.033 0.0372-0.057 0.0439z" fill="#000"/>
<path d="m126.61 13.498c-0.102 0.1585-0.308 0.3597-0.745 0.353-0.613-0.0099-1.078-0.4417-1.208-0.6784-0.131-0.2368-0.092-0.3274 0.123-0.2049 0.788 0.4494 1.157 0.4747 1.532 0.3484 0.137-0.0458 0.243-0.0894 0.316-0.0675 0.072 0.0219 0.083 0.0951-0.018 0.2494z" fill="#2AE5C4" opacity=".58"/>
<path d="m127.04 7.711c-0.056-0.00932-0.121-0.07701-0.146-0.15677-0.026-0.07976-8e-3 -0.15814 0.051-0.15829 0.06-1.5e-4 0.14 0.08012 0.166 0.17562s-0.011 0.14924-0.071 0.13944zm-4.816-1.4269c-0.071-0.01171-0.111 0.07997-0.092 0.20437 0.02 0.1244 0.095 0.2352 0.166 0.24691 0.071 0.01172 0.113-0.07973 0.092-0.20437s-0.093-0.23496-0.166-0.24691z" fill="#fff"/>
</g>
<g clip-path="url(#ar)">
<path d="m121.9 56.206-1.878 3.9132c-1.106-1.7337-1.518-2.6987-1.103-3.4774 0.4-0.7494 1.405-1.1093 2.981-0.4358zm0.959-3.2418c-0.523 0.4879-0.281 1.3372 0.138 2.4543l2.659-2.0997c-1.474-0.8245-2.275-0.8435-2.797-0.3546z" fill="#2AE5C4"/>
<path d="m124.66 53.595c-0.238 0.4154-0.376 0.5815-0.826 0.5309-0.248-0.2688-0.404-0.4625-0.269-0.6314s0.425-0.2529 1.095 0.1005zm-4.603 3.1399c-0.173 0.298 0.294 0.6768 0.578 0.8858 0.445-0.0244 0.346-0.4894 0.599-0.8965-0.682-0.3131-1.041-0.2213-1.177 0.0107z" fill="#000"/>
<path d="m122.26 55.529c1.526-1.5387 3.38-3.079 5.653-2.2334 1.953 0.7261 2.909 4.1028 1.316 6.6977s-5.527 4.1284-7.613 3.0378c-2.13-1.1136-2.674-4.1583 0.644-7.5021z" fill="url(#t)"/>
<path d="m126.59 54.819c1.681 0.7338 3.327 1.6678 3.357 3.2684-0.115 0.671-0.359 1.3185-0.718 1.9058-0.722 1.1765-1.923 2.1345-3.219 2.7287-1.013-1.9744-1.685-2.7687-3.417-3.3281l3.997-4.5748z" fill="#ADFDDC"/>
<path d="m126.59 54.819c1.32 1.2292 1.058 1.971 0.582 2.4848-0.926 0.9988-2.345 1.4159-4.578 2.09 1.613-3.6506 2.407-4.4145 3.996-4.5748z" fill="#9E0960"/>
<path d="m124.3 57.259c0.467-0.556 1.37-0.5659 1.843-0.1458l-1.317 1.4642c-0.645-0.177-0.978-0.7836-0.526-1.3184z" fill="#000"/>
<path d="m122.69 58.984c0.238 0.4919 0.172 1.1814-0.165 1.529-0.336 0.3477-0.816 0.2033-1.041-0.329-0.225-0.5322-0.116-1.1783 0.214-1.4931 0.331-0.3148 0.762-0.182 0.992 0.2931zm4.514-4.844c-0.424-0.1728-0.952-0.1134-1.151 0.0997-0.173 0.1853-0.033 0.4265 0.294 0.5609 0.327 0.1345 0.785 0.1359 1.046-0.0136 0.3-0.1729 0.235-0.4742-0.189-0.647z" fill="#5865F2"/>
<path d="m127.18 57.312c-0.583 0.6274-1.367 1.0168-2.416 1.3934-0.245-0.5048 0.071-1.3684 0.852-1.4681 0.202-0.6136 0.901-1.0015 1.94-0.7089-0.026 0.3103-0.179 0.5706-0.376 0.7836z" fill="#FF78B9"/>
<path d="m126.76 57.281c-6e-3 0.013-0.013 0.0248-0.023 0.0348-0.013 0.0134-0.029 0.0231-0.046 0.028-0.018 0.0049-0.036 0.0048-0.053-2e-4 -0.373-0.1188-0.801-0.1309-1.076-0.1046-0.012 0.0014-0.025 3e-4 -0.037-0.0033-0.011-0.0035-0.022-0.0095-0.032-0.0174-9e-3 -0.0079-0.016-0.0177-0.022-0.0287-5e-3 -0.011-8e-3 -0.0231-9e-3 -0.0356-1e-3 -0.0249 7e-3 -0.0498 0.024-0.0692s0.04-0.0317 0.065-0.0342c0.294-0.0283 0.75-0.0147 1.15 0.1117 0.024 0.0076 0.043 0.0243 0.054 0.0464 0.011 0.0222 0.013 0.0482 5e-3 0.0723z" fill="#000"/>
<path d="m128.26 57.259c0.076 0.1727 0.13 0.4552-0.118 0.8153-0.348 0.5037-0.965 0.6514-1.235 0.6285-0.27-0.0228-0.324-0.1051-0.103-0.2158 0.811-0.4062 1.037-0.699 1.139-1.0805 0.038-0.1393 0.061-0.2523 0.119-0.3002s0.126-0.017 0.198 0.1527z" fill="#2AE5C4" opacity=".58"/>
<path d="m123.67 53.693c-0.039 0.0418-0.131 0.058-0.212 0.035-0.08-0.023-0.136-0.0809-0.103-0.1305 0.033-0.0495 0.144-0.0719 0.238-0.0405 0.094 0.0315 0.118 0.0921 0.077 0.136zm-3.857 3.2139c-0.049 0.0524 5e-3 0.1369 0.12 0.1895 0.114 0.0527 0.248 0.0514 0.298-0.0011 0.049-0.0524-4e-3 -0.1379-0.12-0.1895s-0.248-0.0525-0.298 0.0011z" fill="#fff"/>
</g>
<g clip-path="url(#aq)">
<path d="m100.63 71.904-1.8789 3.9131c-1.1059-1.7337-1.518-2.6987-1.1023-3.4774 0.3998-0.7494 1.4047-1.1093 2.9812-0.4357zm0.959-3.2419c-0.524 0.4879-0.281 1.3372 0.137 2.4543l2.66-2.0997c-1.474-0.8244-2.275-0.8435-2.797-0.3546z" fill="#2AE5C4"/>
<path d="m103.39 69.292c-0.238 0.4154-0.376 0.5815-0.826 0.531-0.247-0.2689-0.404-0.4625-0.269-0.6315 0.135-0.1689 0.425-0.2529 1.095 0.1005zm-4.6028 3.14c-0.1726 0.298 0.2941 0.6768 0.5786 0.8857 0.4447-0.0244 0.3456-0.4894 0.5989-0.8965-0.6822-0.3131-1.0416-0.2212-1.1775 0.0108z" fill="#000"/>
<path d="m100.99 71.227c1.527-1.5387 3.38-3.079 5.653-2.2333 1.954 0.726 2.909 4.1027 1.316 6.6976-1.592 2.5949-5.526 4.1284-7.613 3.0378-2.13-1.1136-2.6734-4.1583 0.644-7.5021z" fill="url(#s)"/>
<path d="m105.32 70.517c1.682 0.7339 3.327 1.6678 3.357 3.2684-0.115 0.6711-0.358 1.3185-0.717 1.9058-0.722 1.1765-1.924 2.1345-3.219 2.7288-1.014-1.9745-1.686-2.7687-3.417-3.3281l3.996-4.5749z" fill="#ADFDDC"/>
<path d="m105.32 70.517c1.319 1.2292 1.057 1.9711 0.581 2.4849-0.926 0.9987-2.344 1.4158-4.577 2.09 1.612-3.6506 2.407-4.4146 3.996-4.5749z" fill="#9E0960"/>
<path d="m103.03 72.957c0.468-0.556 1.371-0.5659 1.843-0.1458l-1.316 1.4642c-0.646-0.177-0.979-0.7836-0.527-1.3184z" fill="#000"/>
<path d="m101.42 74.682c0.237 0.492 0.171 1.1814-0.165 1.5291-0.337 0.3476-0.817 0.2032-1.042-0.329-0.2246-0.5323-0.116-1.1783 0.215-1.4932 0.331-0.3148 0.761-0.1819 0.992 0.2931zm4.513-4.844c-0.424-0.1728-0.952-0.1134-1.151 0.0997-0.173 0.1853-0.032 0.4265 0.295 0.561 0.327 0.1344 0.784 0.1358 1.045-0.0137 0.301-0.1729 0.235-0.4741-0.189-0.647z" fill="#5865F2"/>
<path d="m105.91 73.009c-0.582 0.6273-1.366 1.0167-2.415 1.3933-0.245-0.5047 0.07-1.3684 0.851-1.4681 0.202-0.6136 0.902-1.0015 1.94-0.7089-0.026 0.3103-0.179 0.5707-0.376 0.7837z" fill="#FF78B9"/>
<path d="m105.49 72.979c-5e-3 0.0129-0.013 0.0248-0.023 0.0347-0.012 0.0134-0.028 0.0231-0.046 0.028s-0.036 0.0049-0.053-2e-4c-0.373-0.1187-0.801-0.1308-1.075-0.1046-0.013 0.0014-0.025 3e-4 -0.037-0.0033-0.012-0.0035-0.023-0.0094-0.032-0.0173-9e-3 -8e-3 -0.017-0.0177-0.022-0.0288-6e-3 -0.011-9e-3 -0.0231-9e-3 -0.0355-2e-3 -0.025 7e-3 -0.0499 0.024-0.0693 0.016-0.0194 0.04-0.0317 0.065-0.0342 0.294-0.0283 0.749-0.0147 1.149 0.1117 0.024 0.0076 0.043 0.0243 0.054 0.0465 0.011 0.0221 0.013 0.0481 5e-3 0.0723z" fill="#000"/>
<path d="m106.99 72.957c0.075 0.1726 0.129 0.4552-0.119 0.8152-0.347 0.5037-0.965 0.6514-1.235 0.6286-0.269-0.0228-0.323-0.1052-0.102-0.2159 0.811-0.4062 1.036-0.699 1.139-1.0805 0.037-0.1392 0.06-0.2522 0.118-0.3001 0.059-0.0479 0.126-0.0171 0.199 0.1527z" fill="#2AE5C4" opacity=".58"/>
<path d="m102.4 69.39c-0.039 0.0418-0.132 0.058-0.212 0.035-0.081-0.023-0.136-0.0809-0.104-0.1304 0.033-0.0496 0.145-0.072 0.239-0.0405 0.094 0.0314 0.118 0.092 0.077 0.1359zm-3.8573 3.2139c-0.049 0.0525 5e-3 0.1369 0.1196 0.1895 0.1145 0.0527 0.2487 0.0514 0.2977-1e-3 0.049-0.0525-4e-3 -0.138-0.1196-0.1896-0.1155-0.0516-0.2476-0.0524-0.2977 0.0011z" fill="#fff"/>
</g>
<g clip-path="url(#ap)">
<path d="m76.584 21.117-1.8788 3.9131c-1.1059-1.7337-1.518-2.6986-1.1023-3.4774 0.3998-0.7494 1.4047-1.1093 2.9811-0.4357zm0.9587-3.2419c-0.5235 0.488-0.2807 1.3373 0.1376 2.4543l2.6597-2.0997c-1.474-0.8244-2.2749-0.8435-2.7973-0.3546z" fill="#2AE5C4"/>
<path d="m79.346 18.506c-0.2379 0.4154-0.3758 0.5815-0.8256 0.531-0.2477-0.2689-0.4039-0.4625-0.2692-0.6315 0.1348-0.1689 0.4252-0.2529 1.0948 0.1005zm-4.6028 3.14c-0.1726 0.298 0.2942 0.6768 0.5786 0.8857 0.4447-0.0244 0.3456-0.4893 0.5989-0.8964-0.6822-0.3132-1.0416-0.2213-1.1775 0.0107z" fill="#000"/>
<path d="m76.945 20.44c1.5266-1.5387 3.3803-3.079 5.6532-2.2333 1.9532 0.726 2.9088 4.1027 1.316 6.6976s-5.5266 4.1284-7.613 3.0378c-2.1304-1.1136-2.6738-4.1583 0.6438-7.5021z" fill="url(#r)"/>
<path d="m81.275 19.73c1.682 0.7338 3.3272 1.6677 3.3571 3.2683-0.1146 0.6711-0.3584 1.3185-0.7175 1.9058-0.722 1.1766-1.9235 2.1345-3.2187 2.7288-1.0138-1.9744-1.6856-2.7687-3.4169-3.3281l3.996-4.5748z" fill="#ADFDDC"/>
<path d="m81.275 19.73c1.3192 1.2292 1.0574 1.9711 0.5811 2.4849-0.9256 0.9987-2.3442 1.4158-4.5772 2.09 1.6123-3.6506 2.4072-4.4146 3.9961-4.5749z" fill="#9E0960"/>
<path d="m78.987 22.17c0.4676-0.556 1.3708-0.5659 1.8432-0.1457l-1.3163 1.4641c-0.6457-0.1769-0.9785-0.7836-0.5269-1.3184z" fill="#000"/>
<path d="m77.378 23.895c0.2377 0.492 0.1713 1.1814-0.1651 1.5291-0.3365 0.3476-0.8161 0.2032-1.0412-0.329-0.225-0.5323-0.1164-1.1783 0.2145-1.4932 0.3308-0.3148 0.7615-0.1819 0.9918 0.2931zm4.5135-4.844c-0.4242-0.1728-0.9517-0.1134-1.1509 0.0997-0.1731 0.1853-0.0325 0.4265 0.2946 0.561s0.7843 0.1358 1.0454-0.0136c0.3003-0.173 0.235-0.4742-0.1891-0.6471z" fill="#5865F2"/>
<path d="m81.864 22.223c-0.5824 0.6273-1.3663 1.0168-2.4157 1.3933-0.245-0.5047 0.0709-1.3684 0.8519-1.4681 0.2016-0.6136 0.9012-1.0014 1.9398-0.7089-0.0261 0.3103-0.1788 0.5707-0.376 0.7837z" fill="#FF78B9"/>
<path d="m81.442 22.192c-0.0052 0.0129-0.013 0.0248-0.0229 0.0348-0.0126 0.0133-0.0286 0.023-0.0462 0.0279-0.0175 5e-3 -0.0359 0.0049-0.053-2e-4 -0.3725-0.1187-0.8005-0.1308-1.0755-0.1046-0.0124 0.0014-0.0249 3e-4 -0.0367-0.0033-0.0118-0.0035-0.0226-0.0094-0.0319-0.0173s-0.0169-0.0177-0.0222-0.0288c-0.0054-0.011-0.0084-0.0231-9e-3 -0.0355-0.0013-0.025 0.0073-0.0499 0.0239-0.0693 0.0167-0.0193 0.0401-0.0316 0.0651-0.0341 0.2943-0.0284 0.7497-0.0147 1.1498 0.1117 0.0236 0.0075 0.043 0.0242 0.0539 0.0464 0.011 0.0222 0.0127 0.0481 0.0047 0.0723z" fill="#000"/>
<path d="m82.943 22.17c0.0757 0.1726 0.1295 0.4552-0.1184 0.8152-0.3474 0.5037-0.9651 0.6514-1.2347 0.6286s-0.3236-0.1052-0.1027-0.2159c0.8112-0.4062 1.0366-0.6989 1.1389-1.0805 0.0376-0.1392 0.0604-0.2522 0.1186-0.3001 0.0583-0.0479 0.1258-0.0171 0.1983 0.1527z" fill="#2AE5C4" opacity=".58"/>
<path d="m78.358 18.604c-0.039 0.0417-0.1312 0.058-0.2118 0.035-0.0807-0.0231-0.1363-0.081-0.1035-0.1305 0.0328-0.0496 0.1443-0.0719 0.2382-0.0405s0.1182 0.0921 0.0771 0.136zm-3.857 3.2138c-0.049 0.0525 5e-3 0.1369 0.1196 0.1896 0.1146 0.0526 0.2487 0.0513 0.2977-0.0011 0.049-0.0525-4e-3 -0.138-0.1196-0.1896-0.1155-0.0515-0.2476-0.0524-0.2977 0.0011z" fill="#fff"/>
</g>
<g clip-path="url(#ao)">
<path d="m73.809 59.9-1.8788 3.9131c-1.1059-1.7337-1.518-2.6987-1.1023-3.4774 0.3998-0.7494 1.4046-1.1093 2.9811-0.4357zm0.9586-3.2419c-0.5234 0.4879-0.2806 1.3372 0.1377 2.4543l2.6597-2.0997c-1.474-0.8245-2.275-0.8435-2.7974-0.3546z" fill="#2AE5C4"/>
<path d="m76.571 57.288c-0.2379 0.4154-0.3758 0.5815-0.8256 0.5309-0.2477-0.2688-0.4039-0.4625-0.2692-0.6314 0.1348-0.1689 0.4252-0.2529 1.0948 0.1005zm-4.6028 3.1399c-0.1726 0.2981 0.2941 0.6768 0.5786 0.8858 0.4447-0.0244 0.3456-0.4894 0.5989-0.8965-0.6822-0.3131-1.0416-0.2213-1.1775 0.0107z" fill="#000"/>
<path d="m74.171 59.222c1.5265-1.5387 3.3803-3.079 5.6532-2.2334 1.9532 0.7261 2.9088 4.1028 1.316 6.6977s-5.5266 4.1284-7.613 3.0378c-2.1304-1.1136-2.6738-4.1583 0.6438-7.5021z" fill="url(#q)"/>
<path d="m78.5 58.513c1.682 0.7338 3.3272 1.6678 3.3571 3.2684-0.1146 0.671-0.3584 1.3185-0.7176 1.9058-0.7219 1.1765-1.9235 2.1345-3.2186 2.7288-1.0138-1.9745-1.6857-2.7688-3.417-3.3281l3.9961-4.5749z" fill="#ADFDDC"/>
<path d="m78.5 58.513c1.3192 1.2292 1.0574 1.971 0.5811 2.4848-0.9256 0.9988-2.3443 1.4159-4.5772 2.09 1.6123-3.6506 2.4071-4.4145 3.9961-4.5748z" fill="#9E0960"/>
<path d="m76.212 60.953c0.4676-0.556 1.3708-0.5659 1.8431-0.1458l-1.3162 1.4642c-0.6458-0.177-0.9786-0.7836-0.5269-1.3184z" fill="#000"/>
<path d="m74.604 62.678c0.2377 0.4919 0.1713 1.1814-0.1651 1.529-0.3365 0.3477-0.8161 0.2033-1.0412-0.329-0.225-0.5322-0.1164-1.1783 0.2144-1.4931 0.3309-0.3148 0.7616-0.182 0.9919 0.2931zm4.5135-4.844c-0.4242-0.1728-0.9517-0.1134-1.1509 0.0997-0.1731 0.1853-0.0325 0.4265 0.2946 0.5609 0.327 0.1345 0.7843 0.1359 1.0453-0.0136 0.3004-0.1729 0.2351-0.4742-0.189-0.647z" fill="#5865F2"/>
<path d="m79.09 61.005c-0.5824 0.6274-1.3664 1.0168-2.4157 1.3934-0.245-0.5048 0.0709-1.3684 0.8519-1.4681 0.2015-0.6136 0.9012-1.0015 1.9398-0.7089-0.0261 0.3103-0.1789 0.5706-0.376 0.7836z" fill="#FF78B9"/>
<path d="m78.668 60.974c-0.0052 0.013-0.013 0.0248-0.0229 0.0348-0.0126 0.0134-0.0286 0.0231-0.0462 0.028-0.0175 0.0049-0.0359 0.0049-0.053-2e-4 -0.3726-0.1188-0.8005-0.1309-1.0755-0.1046-0.0124 0.0014-0.0249 3e-4 -0.0367-0.0033-0.0118-0.0035-0.0226-0.0095-0.0319-0.0174s-0.0169-0.0177-0.0222-0.0287c-0.0054-0.011-0.0084-0.0231-9e-3 -0.0356-0.0013-0.0249 0.0073-0.0498 0.0239-0.0692 0.0167-0.0194 0.0401-0.0317 0.0651-0.0342 0.2943-0.0283 0.7497-0.0147 1.1498 0.1117 0.0236 0.0076 0.043 0.0243 0.0539 0.0464 0.011 0.0222 0.0127 0.0482 0.0047 0.0723z" fill="#000"/>
<path d="m80.169 60.953c0.0756 0.1727 0.1295 0.4552-0.1184 0.8153-0.3474 0.5037-0.9651 0.6514-1.2347 0.6286-0.2696-0.0229-0.3236-0.1052-0.1027-0.2159 0.8112-0.4062 1.0366-0.699 1.1389-1.0805 0.0376-0.1392 0.0604-0.2523 0.1186-0.3002 0.0583-0.0479 0.1258-0.017 0.1983 0.1527z" fill="#2AE5C4" opacity=".58"/>
<path d="m75.584 57.386c-0.039 0.0418-0.1313 0.058-0.2119 0.035s-0.1363-0.0809-0.1034-0.1305c0.0328-0.0495 0.1442-0.0719 0.2382-0.0405 0.0939 0.0315 0.1181 0.0921 0.0771 0.136zm-3.857 3.2139c-0.049 0.0525 5e-3 0.1369 0.1196 0.1895 0.1145 0.0527 0.2487 0.0514 0.2977-0.0011 0.049-0.0524-4e-3 -0.1379-0.1196-0.1895-0.1155-0.0516-0.2476-0.0525-0.2977 0.0011z" fill="#fff"/>
</g>
<g clip-path="url(#an)">
<path d="m119.83 22.591-3.418-2.6799c1.935-0.702 2.968-0.8945 3.639-0.3205 0.646 0.5523 0.78 1.6098-0.221 3.0004zm2.962 1.6374c-0.364-0.616-1.246-0.5635-2.429-0.398l1.476 3.0479c1.125-1.258 1.318-2.0346 0.953-2.6499z" fill="#2AE5C4"/>
<path d="m121.79 25.849c-0.354-0.322-0.487-0.4923-0.34-0.9199 0.317-0.1831 0.54-0.2934 0.676-0.1254s0.155 0.4693-0.336 1.0453zm-2.071-5.1675c-0.254-0.2328-0.726 0.14-0.992 0.3719-0.072 0.4388 0.404 0.443 0.747 0.7782 0.454-0.5971 0.442-0.9673 0.245-1.1501z" fill="#000"/>
<path d="m120.42 23.09c1.173 1.8217 2.277 3.9626 0.958 5.9948-1.134 1.7464-4.642 1.9457-6.834-0.1696-2.191-2.1152-2.837-6.2823-1.319-8.0795 1.551-1.8352 4.646-1.7047 7.195 2.2543z" fill="url(#p)"/>
<path d="m120.17 27.464c-1.082 1.4804-2.352 2.8815-3.923 2.5637-0.631-0.2573-1.211-0.6353-1.708-1.1128-0.993-0.9588-1.669-2.3378-1.97-3.7291 2.151-0.5601 3.073-1.0427 3.995-2.609l3.606 4.8872z" fill="#ADFDDC"/>
<path d="m120.17 27.464c-1.487 1.0193-2.156 0.6033-2.555 0.0276-0.776-1.1188-0.876-2.5921-1.051-4.9149 3.22 2.3632 3.794 3.3037 3.606 4.8873z" fill="#9E0960"/>
<path d="m118.28 24.705c0.442 0.5764 0.256 1.4589-0.257 1.8283l-1.146-1.6005c0.313-0.5911 0.978-0.784 1.403-0.2278z" fill="#000"/>
<path d="m116.95 22.763c-0.532 0.125-1.192-0.0892-1.459-0.4925s-0.022-0.8396 0.548-0.9435c0.569-0.104 1.177 0.142 1.413 0.5328 0.236 0.3907 0.013 0.7817-0.502 0.9032zm3.757 5.45c0.261-0.376 0.317-0.9031 0.152-1.1434-0.143-0.209-0.41-0.1242-0.612 0.1654-0.202 0.2897-0.303 0.7351-0.213 1.022 0.104 0.3302 0.412 0.3319 0.673-0.044z" fill="#5865F2"/>
<path d="m117.61 27.498c-0.487-0.7038-0.698-1.5524-0.839-2.6569 0.547-0.1293 1.323 0.3658 1.251 1.1487 0.556 0.3296 0.784 1.0957 0.272 2.0446-0.297-0.0927-0.519-0.2981-0.684-0.5364z" fill="#FF78B9"/>
<path d="m117.73 27.093c-0.011-0.0079-0.021-0.0181-0.029-0.0299-0.01-0.0152-0.016-0.0329-0.017-0.0511-1e-3 -0.0181 3e-3 -0.036 0.012-0.0516 0.196-0.3374 0.301-0.7519 0.335-1.0257 1e-3 -0.0124 5e-3 -0.0243 0.011-0.035s0.014-0.0201 0.024-0.0274c0.01-0.0074 0.021-0.0126 0.033-0.0154s0.024-0.0032 0.037-1e-3c0.024 0.0041 0.047 0.0178 0.062 0.0383 0.016 0.0204 0.023 0.0459 0.02 0.0708-0.037 0.293-0.149 0.734-0.359 1.0966-0.012 0.0214-0.033 0.0366-0.057 0.0425s-0.05 0.0019-0.072-0.0111z" fill="#000"/>
<path d="m117.42 28.561c-0.185 0.0363-0.473 0.0275-0.771-0.2922-0.417-0.4479-0.427-1.082-0.347-1.3399 0.081-0.2578 0.173-0.2926 0.234-0.0532 0.221 0.8787 0.458 1.162 0.809 1.3444 0.128 0.0669 0.234 0.1136 0.268 0.1807 0.034 0.0672-0.011 0.1263-0.193 0.1602z" fill="#2AE5C4" opacity=".58"/>
<path d="m121.91 24.866c-0.033-0.0471-0.028-0.1406 0.012-0.2141 0.039-0.0736 0.108-0.1153 0.149-0.0726 0.042 0.0427 0.04 0.1562-0.012 0.241-0.051 0.0847-0.115 0.0952-0.149 0.0457zm-2.306-4.4566c-0.041-0.0591-0.135-0.0248-0.211 0.0755-0.076 0.1002-0.104 0.2312-0.064 0.2904 0.041 0.0592 0.136 0.026 0.212-0.0754 0.075-0.1015 0.105-0.2301 0.063-0.2905z" fill="#fff"/>
</g>
<g clip-path="url(#am)">
<path d="m72.672 34.595-3.4182-2.6799c1.9347-0.702 2.9675-0.8945 3.6386-0.3204 0.646 0.5522 0.78 1.6097-0.2204 3.0003zm2.9616 1.6375c-0.3636-0.6161-1.2465-0.5636-2.4293-0.398l1.476 3.0478c1.1256-1.258 1.318-2.0346 0.9533-2.6498z" fill="#2AE5C4"/>
<path d="m74.626 37.854c-0.3545-0.322-0.487-0.4924-0.34-0.92 0.3165-0.1831 0.5397-0.2934 0.6756-0.1254 0.136 0.168 0.1551 0.4693-0.3356 1.0454zm-2.0717-5.1676c-0.2539-0.2328-0.7254 0.14-0.9914 0.372-0.0726 0.4387 0.4035 0.443 0.7466 0.7781 0.454-0.5971 0.4422-0.9673 0.2448-1.1501z" fill="#000"/>
<path d="m73.256 35.094c1.1733 1.8217 2.2772 3.9626 0.9576 5.9948-1.1334 1.7464-4.6418 1.9457-6.8333-0.1696-2.1916-2.1152-2.8378-6.2823-1.3191-8.0795 1.5507-1.8352 4.6452-1.7047 7.1948 2.2543z" fill="url(#o)"/>
<path d="m73.011 39.468c-1.0822 1.4804-2.352 2.8816-3.9234 2.5637-0.6311-0.2573-1.2112-0.6353-1.7076-1.1127-0.9937-0.9589-1.6696-2.3378-1.9698-3.7292 2.1502-0.5601 3.0724-1.0427 3.9947-2.609l3.6061 4.8872z" fill="#ADFDDC"/>
<path d="m73.011 39.468c-1.4878 1.0193-2.1563 0.6034-2.5553 0.0276-0.7757-1.1188-0.8759-2.5921-1.0508-4.9148 3.2194 2.3631 3.7939 3.3036 3.6061 4.8872z" fill="#9E0960"/>
<path d="m71.122 36.709c0.4422 0.5763 0.256 1.4589-0.2572 1.8282l-1.1459-1.6005c0.313-0.5911 0.9782-0.7839 1.4031-0.2277z" fill="#000"/>
<path d="m69.784 34.767c-0.5325 0.125-1.1921-0.0891-1.459-0.4925-0.2669-0.4033-0.0218-0.8395 0.5474-0.9435 0.5691-0.1039 1.1772 0.1421 1.4132 0.5328 0.2361 0.3907 0.0128 0.7817-0.5016 0.9032zm3.7571 5.45c0.2609-0.376 0.3172-0.9031 0.1521-1.1434-0.1436-0.209-0.4099-0.1242-0.6123 0.1655-0.2024 0.2896-0.3029 0.7351-0.2134 1.0219 0.104 0.3303 0.4126 0.332 0.6736-0.044z" fill="#5865F2"/>
<path d="m70.446 39.502c-0.487-0.7037-0.6978-1.5524-0.8384-2.6569 0.5466-0.1293 1.3225 0.3659 1.2506 1.1488 0.5561 0.3295 0.7836 1.0956 0.2724 2.0445-0.2977-0.0927-0.5191-0.298-0.6846-0.5364z" fill="#FF78B9"/>
<path d="m70.568 39.097c-0.0115-0.0079-0.0214-0.0181-0.029-0.0299-0.0104-0.0152-0.0164-0.0329-0.0174-0.051-1e-3 -0.0182 0.0031-0.0361 0.0117-0.0517 0.1969-0.3374 0.3015-0.7519 0.3355-1.0257 0.0013-0.0124 0.0051-0.0243 0.0112-0.035 6e-3 -0.0107 0.0141-0.02 0.0239-0.0274 0.0097-0.0073 0.0209-0.0126 0.0329-0.0154 0.0119-0.0028 0.0244-0.0031 0.0367-1e-3 0.0247 0.0041 0.0472 0.0179 0.0625 0.0383 0.0153 0.0205 0.0223 0.0459 0.0193 0.0708-0.0361 0.293-0.1482 0.734-0.3585 1.0966-0.0126 0.0214-0.033 0.0367-0.0571 0.0425-0.0241 0.0059-0.0498 0.0019-0.0717-0.0111z" fill="#000"/>
<path d="m70.263 40.566c-0.1852 0.0363-0.4731 0.0275-0.7713-0.2922-0.4171-0.4479-0.4276-1.082-0.3468-1.3398 0.0808-0.2579 0.173-0.2927 0.2333-0.0533 0.2212 0.8787 0.4586 1.162 0.8094 1.3444 0.128 0.0669 0.2335 0.1136 0.2677 0.1808 0.0342 0.0671-0.0106 0.1262-0.1923 0.1601z" fill="#2AE5C4" opacity=".58"/>
<path d="m74.744 36.87c-0.0324-0.0471-0.0282-0.1405 0.0117-0.2141 0.04-0.0736 0.1087-0.1153 0.15-0.0726 0.0414 0.0428 0.0391 0.1562-0.012 0.241-0.0511 0.0847-0.1157 0.0952-0.1497 0.0457zm-2.3057-4.4565c-0.0406-0.0592-0.1349-0.0248-0.2112 0.0754s-0.1042 0.2312-0.0635 0.2904 0.1358 0.026 0.2112-0.0754c0.0755-0.1015 0.105-0.2301 0.0635-0.2904z" fill="#fff"/>
</g>
<g clip-path="url(#al)">
<path d="m105.96 95.539-3.418-2.6799c1.935-0.702 2.967-0.8945 3.639-0.3205 0.646 0.5523 0.779 1.6098-0.221 3.0004zm2.962 1.6375c-0.364-0.6161-1.247-0.5636-2.43-0.398l1.476 3.0478c1.126-1.258 1.318-2.0346 0.954-2.6498z" fill="#2AE5C4"/>
<path d="m107.92 98.798c-0.354-0.322-0.487-0.4924-0.34-0.92 0.317-0.1831 0.54-0.2934 0.676-0.1254s0.155 0.4693-0.336 1.0454zm-2.072-5.1676c-0.253-0.2328-0.725 0.14-0.991 0.372-0.073 0.4387 0.404 0.443 0.747 0.7781 0.454-0.5971 0.442-0.9673 0.244-1.1501z" fill="#000"/>
<path d="m106.55 96.038c1.173 1.8217 2.277 3.9631 0.957 5.9951-1.133 1.746-4.641 1.945-6.833-0.17-2.1914-2.1151-2.8376-6.2822-1.319-8.0794 1.551-1.8352 4.645-1.7047 7.195 2.2543z" fill="url(#n)"/>
<path d="m106.3 100.41c-1.082 1.481-2.352 2.882-3.923 2.564-0.632-0.257-1.212-0.635-1.708-1.113-0.9937-0.959-1.6697-2.3377-1.9699-3.729 2.1499-0.5601 3.0719-1.0427 3.9949-2.609l3.606 4.887z" fill="#ADFDDC"/>
<path d="m106.3 100.41c-1.488 1.02-2.156 0.604-2.555 0.028-0.776-1.119-0.876-2.5923-1.051-4.915 3.219 2.3631 3.794 3.3036 3.606 4.887z" fill="#9E0960"/>
<path d="m104.41 97.653c0.442 0.5763 0.256 1.4589-0.258 1.8282l-1.146-1.6005c0.313-0.5911 0.979-0.784 1.404-0.2277z" fill="#000"/>
<path d="m103.08 95.711c-0.533 0.125-1.192-0.0892-1.459-0.4925s-0.022-0.8395 0.547-0.9435 1.177 0.142 1.413 0.5328c0.237 0.3907 0.013 0.7817-0.501 0.9032zm3.757 5.4499c0.261-0.376 0.317-0.903 0.152-1.143-0.144-0.2093-0.41-0.1245-0.612 0.165-0.203 0.29-0.303 0.735-0.214 1.022 0.104 0.33 0.413 0.332 0.674-0.044z" fill="#5865F2"/>
<path d="m103.74 100.45c-0.487-0.7035-0.697-1.5522-0.838-2.6567 0.547-0.1293 1.322 0.3659 1.251 1.1487 0.556 0.3296 0.783 1.096 0.272 2.045-0.298-0.093-0.519-0.298-0.685-0.537z" fill="#FF78B9"/>
<path d="m103.86 100.04c-0.012-8e-3 -0.022-0.018-0.029-0.029-0.01-0.0157-0.016-0.0334-0.017-0.0516-1e-3 -0.0181 3e-3 -0.036 0.011-0.0516 0.197-0.3374 0.302-0.7519 0.336-1.0257 1e-3 -0.0124 5e-3 -0.0243 0.011-0.035s0.014-0.02 0.024-0.0274c0.01-0.0073 0.021-0.0126 0.033-0.0154s0.024-0.0032 0.036-1e-3c0.025 0.0041 0.048 0.0179 0.063 0.0383 0.015 0.0205 0.022 0.0459 0.019 0.0708-0.036 0.293-0.148 0.734-0.358 1.0966-0.013 0.021-0.033 0.037-0.057 0.043-0.024 5e-3 -0.05 1e-3 -0.072-0.012z" fill="#000"/>
<path d="m103.55 101.51c-0.185 0.036-0.473 0.027-0.771-0.293-0.417-0.447-0.428-1.082-0.347-1.3395 0.081-0.2578 0.173-0.2926 0.233-0.0532 0.222 0.8787 0.459 1.1617 0.81 1.3447 0.128 0.067 0.233 0.113 0.267 0.18 0.035 0.068-0.01 0.127-0.192 0.161z" fill="#2AE5C4" opacity=".58"/>
<path d="m108.04 97.814c-0.032-0.0471-0.028-0.1405 0.012-0.2141s0.109-0.1153 0.15-0.0726 0.039 0.1562-0.012 0.241c-0.051 0.0847-0.116 0.0952-0.15 0.0457zm-2.305-4.4566c-0.041-0.0591-0.135-0.0248-0.211 0.0755-0.077 0.1002-0.105 0.2312-0.064 0.2904s0.136 0.026 0.211-0.0754c0.076-0.1015 0.105-0.2301 0.064-0.2905z" fill="#fff"/>
</g>
<g clip-path="url(#ak)">
<path d="m119.84 33.672-3.418-2.6799c1.934-0.7021 2.967-0.8945 3.638-0.3205 0.646 0.5522 0.78 1.6098-0.22 3.0004zm2.962 1.6374c-0.364-0.616-1.247-0.5636-2.43-0.398l1.476 3.0478c1.126-1.258 1.318-2.0346 0.954-2.6498z" fill="#2AE5C4"/>
<path d="m121.79 36.93c-0.355-0.322-0.487-0.4924-0.34-0.9199 0.316-0.1832 0.54-0.2934 0.676-0.1254 0.136 0.1679 0.155 0.4693-0.336 1.0453zm-2.072-5.1675c-0.254-0.2329-0.725 0.1399-0.991 0.3719-0.073 0.4388 0.403 0.443 0.746 0.7782 0.454-0.5971 0.443-0.9674 0.245-1.1501z" fill="#000"/>
<path d="m120.42 34.17c1.173 1.8217 2.277 3.9627 0.957 5.9948-1.133 1.7465-4.642 1.9457-6.833-0.1695-2.192-2.1153-2.838-6.2823-1.319-8.0796 1.551-1.8352 4.645-1.7046 7.195 2.2543z" fill="url(#m)"/>
<path d="m120.17 38.545c-1.082 1.4804-2.352 2.8816-3.924 2.5637-0.631-0.2572-1.211-0.6352-1.707-1.1127-0.994-0.9588-1.67-2.3378-1.97-3.7292 2.15-0.5601 3.072-1.0427 3.995-2.609l3.606 4.8872z" fill="#ADFDDC"/>
<path d="m120.17 38.545c-1.488 1.0194-2.156 0.6034-2.556 0.0277-0.775-1.1189-0.875-2.5922-1.05-4.9149 3.219 2.3632 3.794 3.3036 3.606 4.8872z" fill="#9E0960"/>
<path d="m118.28 35.785c0.443 0.5764 0.256 1.4589-0.257 1.8283l-1.146-1.6006c0.313-0.5911 0.978-0.7839 1.403-0.2277z" fill="#000"/>
<path d="m116.95 33.844c-0.533 0.125-1.192-0.0892-1.459-0.4926-0.267-0.4033-0.022-0.8395 0.547-0.9435 0.569-0.1039 1.177 0.1421 1.413 0.5328 0.236 0.3908 0.013 0.7818-0.501 0.9033zm3.757 5.4499c0.261-0.376 0.317-0.903 0.152-1.1434-0.144-0.2089-0.41-0.1242-0.612 0.1655-0.203 0.2896-0.303 0.7351-0.214 1.0219 0.104 0.3303 0.413 0.332 0.674-0.044z" fill="#5865F2"/>
<path d="m117.61 38.579c-0.487-0.7037-0.698-1.5523-0.838-2.6568 0.546-0.1294 1.322 0.3658 1.25 1.1487 0.557 0.3295 0.784 1.0956 0.273 2.0445-0.298-0.0927-0.519-0.298-0.685-0.5364z" fill="#FF78B9"/>
<path d="m117.73 38.174c-0.012-0.0079-0.022-0.018-0.029-0.0298-0.011-0.0153-0.017-0.033-0.018-0.0511-1e-3 -0.0182 3e-3 -0.0361 0.012-0.0516 0.197-0.3375 0.302-0.752 0.336-1.0257 1e-3 -0.0124 5e-3 -0.0244 0.011-0.0351s0.014-0.02 0.024-0.0274c9e-3 -0.0073 0.021-0.0125 0.033-0.0154 0.011-0.0028 0.024-0.0031 0.036-1e-3 0.025 0.0041 0.047 0.0179 0.063 0.0383 0.015 0.0205 0.022 0.046 0.019 0.0709-0.036 0.293-0.148 0.7339-0.358 1.0965-0.013 0.0214-0.033 0.0367-0.058 0.0426-0.024 0.0058-0.049 0.0018-0.071-0.0112z" fill="#000"/>
<path d="m117.43 39.642c-0.185 0.0362-0.473 0.0274-0.771-0.2922-0.418-0.4479-0.428-1.0821-0.347-1.3399 0.081-0.2579 0.173-0.2926 0.233-0.0533 0.221 0.8788 0.459 1.162 0.81 1.3444 0.127 0.0669 0.233 0.1136 0.267 0.1808s-0.01 0.1263-0.192 0.1602z" fill="#2AE5C4" opacity=".58"/>
<path d="m121.91 35.946c-0.032-0.0471-0.028-0.1405 0.012-0.2141s0.109-0.1153 0.15-0.0726c0.041 0.0428 0.039 0.1563-0.012 0.241-0.051 0.0848-0.116 0.0952-0.15 0.0457zm-2.305-4.4565c-0.041-0.0592-0.135-0.0248-0.212 0.0754-0.076 0.1003-0.104 0.2313-0.063 0.2905 0.041 0.0591 0.136 0.026 0.211-0.0755 0.076-0.1014 0.105-0.23 0.064-0.2904z" fill="#fff"/>
</g>
<g clip-path="url(#aj)">
<path d="m90.242 15.204-3.4183-2.6799c1.9348-0.7021 2.9675-0.8945 3.6387-0.3205 0.646 0.5522 0.7799 1.6098-0.2204 3.0004zm2.9615 1.6374c-0.3635-0.616-1.2464-0.5635-2.4292-0.398l1.476 3.0479c1.1256-1.258 1.3179-2.0346 0.9532-2.6499z" fill="#2AE5C4"/>
<path d="m92.196 18.462c-0.3546-0.322-0.487-0.4924-0.3401-0.9199 0.3166-0.1831 0.5398-0.2934 0.6757-0.1254 0.136 0.168 0.1551 0.4693-0.3356 1.0453zm-2.0717-5.1675c-0.2539-0.2328-0.7255 0.14-0.9914 0.3719-0.0726 0.4388 0.4035 0.443 0.7465 0.7782 0.4541-0.5971 0.4422-0.9673 0.2449-1.1501z" fill="#000"/>
<path d="m90.826 15.703c1.1733 1.8216 2.2772 3.9626 0.9576 5.9948-1.1334 1.7464-4.6418 1.9457-6.8334-0.1696-2.1915-2.1153-2.8377-6.2823-1.319-8.0796 1.5506-1.8351 4.6451-1.7046 7.1948 2.2544z" fill="url(#k)"/>
<path d="m90.581 20.077c-1.0821 1.4804-2.3519 2.8815-3.9233 2.5637-0.6312-0.2573-1.2113-0.6353-1.7076-1.1128-0.9937-0.9588-1.6697-2.3378-1.9698-3.7291 2.1501-0.5601 3.0723-1.0427 3.9946-2.6091l3.6061 4.8873z" fill="#ADFDDC"/>
<path d="m90.581 20.077c-1.4877 1.0193-2.1562 0.6033-2.5553 0.0276-0.7757-1.1188-0.8759-2.5921-1.0507-4.9149 3.2194 2.3632 3.7939 3.3037 3.606 4.8873z" fill="#9E0960"/>
<path d="m88.692 17.318c0.4422 0.5764 0.256 1.4589-0.2572 1.8283l-1.146-1.6006c0.313-0.591 0.9783-0.7839 1.4032-0.2277z" fill="#000"/>
<path d="m87.354 15.376c-0.5325 0.125-1.1921-0.0892-1.4591-0.4925-0.2669-0.4034-0.0217-0.8396 0.5474-0.9435 0.5692-0.104 1.1773 0.142 1.4133 0.5328 0.2361 0.3907 0.0128 0.7817-0.5016 0.9032zm3.757 5.45c0.261-0.376 0.3173-0.9031 0.1521-1.1435-0.1436-0.2089-0.4099-0.1241-0.6123 0.1655-0.2024 0.2897-0.3028 0.7351-0.2133 1.022 0.1039 0.3302 0.4126 0.3319 0.6735-0.044z" fill="#5865F2"/>
<path d="m88.016 20.111c-0.487-0.7038-0.6977-1.5524-0.8383-2.6569 0.5466-0.1294 1.3224 0.3658 1.2506 1.1487 0.5561 0.3296 0.7836 1.0956 0.2724 2.0446-0.2978-0.0927-0.5192-0.2981-0.6847-0.5364z" fill="#FF78B9"/>
<path d="m88.138 19.706c-0.0116-0.0078-0.0215-0.018-0.0291-0.0298-0.0103-0.0152-0.0163-0.0329-0.0173-0.0511-1e-3 -0.0181 3e-3 -0.036 0.0117-0.0516 0.1969-0.3374 0.3015-0.7519 0.3355-1.0257 0.0013-0.0124 0.0051-0.0243 0.0111-0.035 0.0061-0.0108 0.0142-0.0201 0.024-0.0274 0.0097-0.0074 0.0209-0.0126 0.0328-0.0154 0.012-0.0028 0.0245-0.0032 0.0368-1e-3 0.0247 0.0041 0.0471 0.0178 0.0625 0.0383 0.0153 0.0204 0.0222 0.0459 0.0193 0.0708-0.0361 0.293-0.1482 0.734-0.3586 1.0966-0.0125 0.0214-0.033 0.0366-0.057 0.0425-0.0241 0.0059-0.0498 0.0019-0.0717-0.0112z" fill="#000"/>
<path d="m87.833 21.174c-0.1852 0.0363-0.4731 0.0275-0.7714-0.2922-0.4171-0.4479-0.4275-1.082-0.3467-1.3399 0.0807-0.2578 0.173-0.2926 0.2333-0.0532 0.2212 0.8787 0.4585 1.162 0.8094 1.3444 0.1279 0.0669 0.2335 0.1136 0.2677 0.1807 0.0342 0.0672-0.0106 0.1263-0.1923 0.1602z" fill="#2AE5C4" opacity=".58"/>
<path d="m92.314 17.479c-0.0324-0.0471-0.0283-0.1406 0.0117-0.2142 0.04-0.0735 0.1087-0.1153 0.15-0.0725 0.0413 0.0427 0.039 0.1562-0.0121 0.241-0.051 0.0847-0.1156 0.0952-0.1496 0.0457zm-2.3057-4.4566c-0.0407-0.0592-0.1349-0.0248-0.2112 0.0755-0.0763 0.1002-0.1042 0.2312-0.0635 0.2904s0.1357 0.026 0.2112-0.0755c0.0755-0.1014 0.105-0.23 0.0635-0.2904z" fill="#fff"/>
</g>
<g clip-path="url(#ah)">
<path d="m105.29 5.3294-3.135 3.0054c-0.426-2.011-0.473-3.059 0.19-3.6425 0.638-0.56153 1.706-0.54625 2.945 0.63708zm2.038-2.6994c-0.662 0.27338-0.733 1.1537-0.734 2.3463l3.228-1.0336c-1.09-1.2887-1.833-1.5874-2.494-1.3127z" fill="#2AE5C4"/>
<path d="m108.79 3.8526c-0.369 0.30554-0.556 0.4127-0.959 0.2077-0.138-0.3386-0.216-0.57466-0.03-0.6856 0.185-0.11094 0.487-0.08777 0.989 0.4779zm-5.414 1.3264c-0.266 0.21855 0.038 0.73684 0.231 1.0322 0.425 0.13307 0.495-0.33706 0.876-0.62944-0.529-0.53235-0.898-0.57235-1.107-0.40276z" fill="#000"/>
<path d="m105.87 4.8219c1.971-0.90554 4.248-1.698 6.079-0.10931 1.573 1.3646 1.281 4.8613-1.123 6.7326-2.404 1.8714-6.626 1.9282-8.196 0.1756-1.604-1.7896-1.042-4.831 3.24-6.7989z" fill="url(#j)"/>
<path d="m110.17 5.6751c1.317 1.2767 2.529 2.728 1.994 4.2372-0.343 0.58809-0.799 1.1089-1.342 1.5329-1.089 0.8486-2.551 1.3243-3.973 1.4267-0.255-2.2042-0.605-3.1834-2.029-4.3141l5.35-2.8827z" fill="#ADFDDC"/>
<path d="m110.17 5.6751c0.803 1.6134 0.297 2.2163-0.33 2.5304-1.218 0.61064-2.693 0.5039-5.02 0.35233 2.793-2.853 3.806-3.2897 5.35-2.8827z" fill="#9E0960"/>
<path d="m107.17 7.1576c0.633-0.35669 1.482-0.04933 1.777 0.50966l-1.747 0.90948c-0.543-0.39205-0.641-1.0767-0.03-1.4191z" fill="#000"/>
<path d="m105.06 8.209c0.05 0.54394-0.255 1.1662-0.692 1.3738-0.437 0.20756-0.836-0.09579-0.859-0.67305-0.024-0.57726 0.305-1.1441 0.726-1.3229 0.42-0.1788 0.777 0.09658 0.825 0.62215zm5.93-2.9534c-0.337-0.31053-0.852-0.43983-1.113-0.31011-0.227 0.11277-0.18 0.38793 0.079 0.6285 0.259 0.24058 0.686 0.40214 0.983 0.35372 0.342-0.05664 0.387-0.36158 0.051-0.67211z" fill="#5865F2"/>
<path d="m109.84 8.2155c-0.766 0.38322-1.636 0.47305-2.751 0.45778-0.052-0.55849 0.547-1.2564 1.313-1.076 0.405-0.50384 1.196-0.62175 2.066 0.01628-0.134 0.28142-0.368 0.47164-0.628 0.60197z" fill="#FF78B9"/>
<path d="m109.46 8.0388c-9e-3 0.01032-0.021 0.01868-0.034 0.02455-0.016 0.00809-0.035 0.01156-0.053 0.01002-0.018-0.00155-0.035-0.00805-0.049-0.01877-0.307-0.24182-0.704-0.40317-0.971-0.47499-0.012-0.00307-0.023-0.00849-0.033-0.01595-0.01-0.00745-0.018-0.01679-0.024-0.02747-5e-3 -0.01067-9e-3 -0.02246-0.01-0.03467-1e-3 -0.01222 0-0.0246 4e-3 -0.03644 7e-3 -0.02385 0.024-0.04415 0.047-0.05646 0.022-0.0123 0.048-0.01561 0.073-0.0092 0.285 0.07664 0.707 0.24906 1.037 0.50768 0.019 0.01538 0.032 0.03777 0.034 0.06238 3e-3 0.02461-5e-3 0.04949-0.021 0.06932z" fill="#000"/>
<path d="m110.87 8.5452c0.01 0.18816-0.039 0.4716-0.397 0.72184-0.503 0.34983-1.133 0.27155-1.377 0.15568-0.245-0.11587-0.266-0.21195-0.021-0.23812 0.903-0.09596 1.217-0.29107 1.447-0.61247 0.084-0.11717 0.145-0.215 0.216-0.23943 0.072-0.02443 0.124 0.02811 0.132 0.2125z" fill="#2AE5C4" opacity=".58"/>
<path d="m107.84 3.5981c-0.052 0.02542-0.144 0.00829-0.211-0.04152-0.067-0.0498-0.099-0.12355-0.051-0.15844s0.16-0.01676 0.237 0.04559c0.077 0.06236 0.078 0.12764 0.025 0.15437zm-4.742 1.6571c-0.064 0.03194-0.043 0.12993 0.045 0.21938 0.089 0.08946 0.215 0.1353 0.28 0.10335 0.064-0.03194 0.044-0.13058-0.046-0.21938-0.09-0.08881-0.213-0.13595-0.279-0.10335z" fill="#fff"/>
</g>
<g clip-path="url(#ag)">
<path d="m84.021 39.495-3.1351 3.0054c-0.4259-2.011-0.4725-3.0591 0.1905-3.6425 0.6378-0.5615 1.7053-0.5463 2.9446 0.6371zm2.0375-2.6995c-0.6617 0.2734-0.733 1.1538-0.7341 2.3464l3.2286-1.0336c-1.0902-1.2887-1.8335-1.5874-2.4945-1.3128z" fill="#2AE5C4"/>
<path d="m87.525 38.018c-0.3689 0.3056-0.5563 0.4127-0.9598 0.2077-0.1374-0.3386-0.2155-0.5746-0.03-0.6856 0.1856-0.1109 0.4871-0.0877 0.9898 0.4779zm-5.4139 1.3265c-0.2663 0.2185 0.0375 0.7368 0.2304 1.0322 0.4249 0.1331 0.4956-0.3371 0.8759-0.6295-0.5286-0.5323-0.8975-0.5723-1.1063-0.4027z" fill="#000"/>
<path d="m84.597 38.988c1.9704-0.9055 4.2477-1.6979 6.0786-0.1093 1.5736 1.3646 1.281 4.8613-1.1227 6.7327-2.4038 1.8713-6.6264 1.9281-8.1965 0.1755-1.6032-1.7896-1.0415-4.831 3.2406-6.7989z" fill="url(#i)"/>
<path d="m88.901 39.841c1.3169 1.2767 2.529 2.728 1.9942 4.2372-0.3433 0.5882-0.7991 1.1089-1.342 1.5329-1.0896 0.8486-2.5515 1.3243-3.9732 1.4267-0.2551-2.2041-0.6048-3.1834-2.0292-4.3141l5.3502-2.8827z" fill="#ADFDDC"/>
<path d="m88.901 39.841c0.803 1.6134 0.2971 2.2163-0.3296 2.5304-1.2178 0.6106-2.6928 0.5039-5.0206 0.3523 2.7932-2.853 3.806-3.2896 5.3502-2.8827z" fill="#9E0960"/>
<path d="m85.9 41.323c0.6333-0.3566 1.4824-0.0493 1.777 0.5097l-1.7473 0.9095c-0.5424-0.3921-0.6407-1.0767-0.0297-1.4192z" fill="#000"/>
<path d="m83.788 42.375c0.0496 0.544-0.2549 1.1663-0.6922 1.3738-0.4373 0.2076-0.8356-0.0957-0.8592-0.673s0.3053-1.1441 0.7258-1.3229c0.4204-0.1788 0.777 0.0966 0.8256 0.6221zm5.9294-2.9533c-0.3364-0.3105-0.8512-0.4399-1.1127-0.3101-0.2272 0.1127-0.1804 0.3879 0.0786 0.6285 0.259 0.2405 0.6867 0.4021 0.9836 0.3537 0.342-0.0567 0.3869-0.3616 0.0505-0.6721z" fill="#5865F2"/>
<path d="m88.576 42.381c-0.7659 0.3832-1.6369 0.473-2.7518 0.4577-0.0519-0.5584 0.5475-1.2564 1.3138-1.076 0.4045-0.5038 1.196-0.6217 2.0656 0.0163-0.1335 0.2814-0.3681 0.4716-0.6276 0.602z" fill="#FF78B9"/>
<path d="m88.192 42.204c-0.0095 0.0104-0.0209 0.0187-0.0337 0.0246-0.0165 0.0081-0.0349 0.0116-0.0531 0.01-0.0181-0.0015-0.0353-8e-3 -0.0495-0.0188-0.3071-0.2418-0.7036-0.4031-0.9703-0.475-0.0121-3e-3 -0.0234-0.0084-0.0332-0.0159s-0.0179-0.0168-0.0238-0.0275c-0.0059-0.0106-0.0096-0.0224-0.0107-0.0346-0.0011-0.0123 3e-4 -0.0246 0.0041-0.0365 0.0075-0.0238 0.0243-0.0441 0.0468-0.0564 0.0224-0.0123 0.0486-0.0156 0.0729-0.0092 0.2855 0.0766 0.7071 0.249 1.0373 0.5076 0.0195 0.0154 0.0318 0.0378 0.0342 0.0624 0.0025 0.0246-0.0051 0.0495-0.021 0.0693z" fill="#000"/>
<path d="m89.605 42.711c0.0101 0.1882-0.0388 0.4716-0.3975 0.7218-0.5024 0.3499-1.1328 0.2716-1.3772 0.1557s-0.266-0.2119-0.0202-0.2381c0.9023-0.096 1.2164-0.2911 1.4463-0.6125 0.0842-0.1171 0.1452-0.215 0.2166-0.2394s0.1238 0.0281 0.132 0.2125z" fill="#2AE5C4" opacity=".58"/>
<path d="m86.566 37.764c-0.0512 0.0254-0.1433 0.0083-0.2106-0.0415-0.0674-0.0498-0.0992-0.1235-0.0511-0.1584 0.0482-0.0349 0.1604-0.0168 0.2373 0.0456 0.0769 0.0623 0.0783 0.1276 0.0244 0.1543zm-4.7414 1.6572c-0.0644 0.0319-0.0435 0.1299 0.0453 0.2193 0.0887 0.0895 0.2147 0.1353 0.2791 0.1034s0.0448-0.1306-0.0453-0.2194-0.2134-0.1359-0.2791-0.1033z" fill="#fff"/>
</g>
<rect x="14" y="6" width="33" height="6" rx="3" fill="#36393F"/>
</g>
<defs>
<linearGradient id="w" x1="58.532" x2="77.82" y1="57.275" y2="45.625" gradientUnits="userSpaceOnUse">
<stop stop-color="#3E70DD" offset="0"/>
<stop stop-color="#6089F4" offset=".6"/>
<stop stop-color="#7196FF" offset="1"/>
</linearGradient>
<linearGradient id="l" x1="458.44" x2="336.16" y1="325.03" y2="444.54" gradientUnits="userSpaceOnUse">
<stop stop-color="#3E70DD" offset="0"/>
<stop stop-color="#6089F4" offset=".6"/>
<stop stop-color="#7196FF" offset="1"/>
</linearGradient>
<linearGradient id="h" x1="1382.1" x2="1572.7" y1="328.85" y2="-67.464" gradientUnits="userSpaceOnUse">
<stop stop-color="#3E70DD" offset="0"/>
<stop stop-color="#6089F4" offset=".6"/>
<stop stop-color="#7196FF" offset="1"/>
</linearGradient>
<linearGradient id="g" x1="80.007" x2="77.853" y1="-3.3478" y2=".28119" gradientUnits="userSpaceOnUse">
<stop stop-color="#2AE5C4" offset="0"/>
<stop stop-color="#0EC2BC" offset=".9"/>
</linearGradient>
<linearGradient id="f" x1="93.986" x2="94.986" y1="39.631" y2="43.73" gradientUnits="userSpaceOnUse">
<stop stop-color="#2AE5C4" offset="0"/>
<stop stop-color="#0EC2BC" offset=".9"/>
</linearGradient>
<linearGradient id="e" x1="115.26" x2="116.26" y1="84.878" y2="88.976" gradientUnits="userSpaceOnUse">
<stop stop-color="#2AE5C4" offset="0"/>
<stop stop-color="#0EC2BC" offset=".9"/>
</linearGradient>
<linearGradient id="d" x1="96.008" x2="94.424" y1="76.855" y2="80.765" gradientUnits="userSpaceOnUse">
<stop stop-color="#2AE5C4" offset="0"/>
<stop stop-color="#0EC2BC" offset=".9"/>
</linearGradient>
<linearGradient id="c" x1="103.41" x2="101.82" y1="26.068" y2="29.978" gradientUnits="userSpaceOnUse">
<stop stop-color="#2AE5C4" offset="0"/>
<stop stop-color="#0EC2BC" offset=".9"/>
</linearGradient>
<linearGradient id="b" x1="91.385" x2="89.8" y1="1.1362" y2="5.0469" gradientUnits="userSpaceOnUse">
<stop stop-color="#2AE5C4" offset="0"/>
<stop stop-color="#0EC2BC" offset=".9"/>
</linearGradient>
<linearGradient id="a" x1="115.43" x2="113.84" y1="51" y2="54.91" gradientUnits="userSpaceOnUse">
<stop stop-color="#2AE5C4" offset="0"/>
<stop stop-color="#0EC2BC" offset=".9"/>
</linearGradient>
<linearGradient id="v" x1="98.783" x2="97.198" y1="56.54" y2="60.45" gradientUnits="userSpaceOnUse">
<stop stop-color="#2AE5C4" offset="0"/>
<stop stop-color="#0EC2BC" offset=".9"/>
</linearGradient>
<linearGradient id="u" x1="124.68" x2="123.09" y1="9.4468" y2="13.357" gradientUnits="userSpaceOnUse">
<stop stop-color="#2AE5C4" offset="0"/>
<stop stop-color="#0EC2BC" offset=".9"/>
</linearGradient>
<linearGradient id="t" x1="123.81" x2="126.18" y1="56.622" y2="60.111" gradientUnits="userSpaceOnUse">
<stop stop-color="#2AE5C4" offset="0"/>
<stop stop-color="#0EC2BC" offset=".9"/>
</linearGradient>
<linearGradient id="s" x1="102.54" x2="104.91" y1="72.32" y2="75.809" gradientUnits="userSpaceOnUse">
<stop stop-color="#2AE5C4" offset="0"/>
<stop stop-color="#0EC2BC" offset=".9"/>
</linearGradient>
<linearGradient id="r" x1="78.495" x2="80.87" y1="21.533" y2="25.022" gradientUnits="userSpaceOnUse">
<stop stop-color="#2AE5C4" offset="0"/>
<stop stop-color="#0EC2BC" offset=".9"/>
</linearGradient>
<linearGradient id="q" x1="75.72" x2="78.096" y1="60.316" y2="63.805" gradientUnits="userSpaceOnUse">
<stop stop-color="#2AE5C4" offset="0"/>
<stop stop-color="#0EC2BC" offset=".9"/>
</linearGradient>
<linearGradient id="p" x1="119.01" x2="115.09" y1="24.363" y2="25.931" gradientUnits="userSpaceOnUse">
<stop stop-color="#2AE5C4" offset="0"/>
<stop stop-color="#0EC2BC" offset=".9"/>
</linearGradient>
<linearGradient id="o" x1="71.851" x2="67.928" y1="36.368" y2="37.935" gradientUnits="userSpaceOnUse">
<stop stop-color="#2AE5C4" offset="0"/>
<stop stop-color="#0EC2BC" offset=".9"/>
</linearGradient>
<linearGradient id="n" x1="105.14" x2="101.22" y1="97.312" y2="98.88" gradientUnits="userSpaceOnUse">
<stop stop-color="#2AE5C4" offset="0"/>
<stop stop-color="#0EC2BC" offset=".9"/>
</linearGradient>
<linearGradient id="m" x1="119.01" x2="115.09" y1="35.444" y2="37.012" gradientUnits="userSpaceOnUse">
<stop stop-color="#2AE5C4" offset="0"/>
<stop stop-color="#0EC2BC" offset=".9"/>
</linearGradient>
<linearGradient id="k" x1="89.421" x2="85.499" y1="16.976" y2="18.544" gradientUnits="userSpaceOnUse">
<stop stop-color="#2AE5C4" offset="0"/>
<stop stop-color="#0EC2BC" offset=".9"/>
</linearGradient>
<linearGradient id="j" x1="106.93" x2="107.93" y1="6.3891" y2="10.488" gradientUnits="userSpaceOnUse">
<stop stop-color="#2AE5C4" offset="0"/>
<stop stop-color="#0EC2BC" offset=".9"/>
</linearGradient>
<linearGradient id="i" x1="85.664" x2="86.664" y1="40.555" y2="44.654" gradientUnits="userSpaceOnUse">
<stop stop-color="#2AE5C4" offset="0"/>
<stop stop-color="#0EC2BC" offset=".9"/>
</linearGradient>
<clipPath id="at">
<rect width="182" height="126" fill="#fff"/>
</clipPath>
<clipPath id="ai">
<rect transform="translate(102.04 108.3)" width="10.4" height="10.4" fill="#fff"/>
</clipPath>
<clipPath id="af">
<rect transform="matrix(.95101 .30917 -.31 .95074 75.125 -8.7289)" width="11.734" height="9.9831" fill="#fff"/>
</clipPath>
<clipPath id="ae">
<rect transform="matrix(.89577 -.44452 .44557 .89525 86.727 39.205)" width="11.732" height="9.9846" fill="#fff"/>
</clipPath>
<clipPath id="ad">
<rect transform="matrix(.89577 -.44452 .44557 .89525 108 84.452)" width="11.732" height="9.9846" fill="#fff"/>
</clipPath>
<clipPath id="ac">
<rect transform="matrix(.98664 .16294 -.16342 .98656 90.372 72.267)" width="11.735" height="9.982" fill="#fff"/>
</clipPath>
<clipPath id="ab">
<rect transform="matrix(.98664 .16294 -.16342 .98656 97.77 21.48)" width="11.735" height="9.982" fill="#fff"/>
</clipPath>
<clipPath id="aa">
<rect transform="matrix(.98664 .16294 -.16342 .98656 85.748 -3.4511)" width="11.735" height="9.982" fill="#fff"/>
</clipPath>
<clipPath id="z">
<rect transform="matrix(.98664 .16294 -.16342 .98656 109.79 46.412)" width="11.735" height="9.982" fill="#fff"/>
</clipPath>
<clipPath id="y">
<rect transform="matrix(.98664 .16294 -.16342 .98656 93.146 51.952)" width="11.735" height="9.982" fill="#fff"/>
</clipPath>
<clipPath id="as">
<rect transform="matrix(.98664 .16294 -.16342 .98656 119.04 4.8594)" width="11.735" height="9.982" fill="#fff"/>
</clipPath>
<clipPath id="ar">
<rect transform="matrix(.68279 -.73061 .73162 .68171 116.86 58.768)" width="11.726" height="9.9896" fill="#fff"/>
</clipPath>
<clipPath id="aq">
<rect transform="matrix(.68279 -.73061 .73162 .68171 95.592 74.466)" width="11.726" height="9.9896" fill="#fff"/>
</clipPath>
<clipPath id="ap">
<rect transform="matrix(.68279 -.73061 .73162 .68171 71.548 23.679)" width="11.726" height="9.9896" fill="#fff"/>
</clipPath>
<clipPath id="ao">
<rect transform="matrix(.68279 -.73061 .73162 .68171 68.774 62.462)" width="11.726" height="9.9896" fill="#fff"/>
</clipPath>
<clipPath id="an">
<rect transform="matrix(.56635 .82417 -.82495 .56521 118.42 17.126)" width="11.724" height="9.9917" fill="#fff"/>
</clipPath>
<clipPath id="am">
<rect transform="matrix(.56635 .82417 -.82495 .56521 71.259 29.13)" width="11.724" height="9.9917" fill="#fff"/>
</clipPath>
<clipPath id="al">
<rect transform="matrix(.56635 .82417 -.82495 .56521 104.55 90.075)" width="11.724" height="9.9917" fill="#fff"/>
</clipPath>
<clipPath id="ak">
<rect transform="matrix(.56635 .82417 -.82495 .56521 118.42 28.207)" width="11.724" height="9.9917" fill="#fff"/>
</clipPath>
<clipPath id="aj">
<rect transform="matrix(.56635 .82417 -.82495 .56521 88.829 9.7393)" width="11.724" height="9.9917" fill="#fff"/>
</clipPath>
<clipPath id="ah">
<rect transform="matrix(.89577 -.44452 .44557 .89525 99.674 5.963)" width="11.732" height="9.9846" fill="#fff"/>
</clipPath>
<clipPath id="ag">
<rect transform="matrix(.89577 -.44452 .44557 .89525 78.404 40.129)" width="11.732" height="9.9846" fill="#fff"/>
</clipPath>
</defs>
</svg>
