<svg width="120" height="96" viewBox="0 0 120 96" fill="none" xmlns="http://www.w3.org/2000/svg">
<circle cx="60" cy="48" r="40" fill="#7984F5"/>
<path d="M60 45.8C58.78 45.8 57.8 46.78 57.8 48C57.8 49.22 58.78 50.2 60 50.2C61.22 50.2 62.2 49.22 62.2 48C62.2 46.78 61.22 45.8 60 45.8ZM60 28C48.96 28 40 36.96 40 48C40 59.04 48.96 68 60 68C71.04 68 80 59.04 80 48C80 36.96 71.04 28 60 28ZM64.38 52.38L48 60L55.62 43.62L72 36L64.38 52.38Z" fill="white"/>
<path d="M103.671 1.80634C103.671 0.808724 102.863 0 101.865 0C100.868 0 100.059 0.808724 100.059 1.80634V3.64278C100.059 4.64039 100.868 5.44911 101.865 5.44911C102.863 5.44911 103.671 4.64039 103.671 3.64278V1.80634Z" fill="#58F287"/>
<path d="M103.671 16.3576C103.671 15.36 102.862 14.5513 101.865 14.5513C100.867 14.5513 100.058 15.36 100.058 16.3576V18.194C100.058 19.1917 100.867 20.0004 101.865 20.0004C102.862 20.0004 103.671 19.1917 103.671 18.194V16.3576Z" fill="#58F287"/>
<path d="M110.194 11.8412C111.191 11.8412 112 11.0325 112 10.0349C112 9.03724 111.191 8.22852 110.194 8.22852H108.357C107.36 8.22852 106.551 9.03724 106.551 10.0349C106.551 11.0325 107.36 11.8412 108.357 11.8412H110.194Z" fill="#58F287"/>
<path d="M95.6432 11.7411C96.6409 11.7411 97.4496 10.9324 97.4496 9.93475C97.4496 8.93714 96.6409 8.12842 95.6432 8.12842H93.8068C92.8092 8.12842 92.0005 8.93714 92.0005 9.93475C92.0005 10.9324 92.8092 11.7411 93.8068 11.7411H95.6432Z" fill="#58F287"/>
<path d="M19.1501 90.4573L23.3147 89.0684C23.5192 88.9747 23.6925 88.8241 23.814 88.6347C23.9354 88.4454 24 88.225 24 88C24 87.775 23.9354 87.5546 23.814 87.3653C23.6925 87.1759 23.5192 87.0253 23.3147 86.9316L19.1501 85.5427C18.8657 85.4142 18.6378 85.1862 18.5094 84.9016L17.0145 80.7348C16.9442 80.521 16.8083 80.3349 16.6262 80.203C16.444 80.071 16.2249 80 16 80C15.7751 80 15.556 80.071 15.3738 80.203C15.1917 80.3349 15.0558 80.521 14.9855 80.7348L13.4906 84.9016C13.3622 85.1862 13.1343 85.4142 12.8499 85.5427L8.68528 86.9316C8.4808 87.0253 8.30752 87.1759 8.18604 87.3653C8.06457 87.5546 8 87.775 8 88C8 88.225 8.06457 88.4454 8.18604 88.6347C8.30752 88.8241 8.4808 88.9747 8.68528 89.0684L12.8499 90.4573C13.0011 90.5032 13.1387 90.5858 13.2505 90.6976C13.3622 90.8094 13.4447 90.9471 13.4906 91.0984L14.9855 95.2652C15.0558 95.479 15.1917 95.6651 15.3738 95.797C15.556 95.929 15.7751 96 16 96C16.2249 96 16.444 95.929 16.6262 95.797C16.8083 95.6651 16.9442 95.479 17.0145 95.2652L18.5094 91.0984C18.5553 90.9471 18.6378 90.8094 18.7495 90.6976C18.8613 90.5858 18.9989 90.5032 19.1501 90.4573Z" fill="#FFD01A"/>
</svg>
