<svg width="440" height="248" viewBox="0 0 440 248" fill="none" xmlns="http://www.w3.org/2000/svg">
<path d="M396 128C396 128 408 129 416 115H383V127.99H396V128Z" fill="#87D4FF"/>
<path d="M330 128H396C396 128 383 127 395 103C403 87 388 87 388 87H356.95L330 128Z" fill="url(#paint0_linear_3_11989)"/>
<path d="M312.32 161.47C312.32 161.47 353 89 388 87H230.54C226.07 87 221.7 88.27 217.92 90.66C203.55 99.75 168.54 125.18 163 160L312.32 161.47Z" fill="url(#paint1_linear_3_11989)"/>
<path d="M239.26 98.56L179.01 95.58C179.01 95.58 158.27 85.02 139.97 76.97C130.35 72.74 126.12 72.45 123.77 76.15C122.91 77.5 123.08 79.54 123.36 81.37C123.64 83.2 123.09 83.57 121.58 84.12C119.74 84.79 110.46 87.55 111.56 95.38C112.06 98.92 115.4 102.29 120.35 103.48C128.31 105.4 134.22 104.58 137.51 106.23C140.95 107.95 156.12 117.46 172.8 129.71C172.8 129.71 175.01 153.53 187.13 167L271.01 166.01C266.07 127.64 239.27 98.57 239.27 98.57L239.26 98.56Z" fill="url(#paint2_linear_3_11989)"/>
<path d="M176.13 97.6L233.68 98.18C222 108 203.91 115.67 190 113C175.72 110.26 176.13 97.6 176.13 97.6Z" fill="#415BD0"/>
<path d="M228.76 37.02C230.67 35.32 231.83 33.06 231.83 30.58C231.83 26.56 228.77 23.11 224.43 21.7C223.19 21.29 221.85 21.06 220.43 21.02C220.3 21.02 220.16 21.02 220.03 21.02C213.52 21.02 210.7 24.42 205.74 29.08C202.74 31.91 198.3 35.02 194.77 37.32L228.76 37.02V37.02Z" fill="#81EC90"/>
<path d="M210.29 40.08C209.38 40.08 208.48 39.61 207.99 38.76C207.25 37.49 207.68 35.86 208.95 35.12C216.33 30.82 221.47 23.29 223.06 14.45C223.32 13 224.7 12.04 226.15 12.3C227.6 12.56 228.56 13.94 228.3 15.39C226.44 25.77 220.36 34.64 211.63 39.72C211.21 39.97 210.75 40.08 210.29 40.08V40.08Z" fill="#3D8946"/>
<path d="M239.4 102.82C239.4 102.82 274.63 62.01 281.28 56.06C284.73 52.97 288.09 51.84 289.69 54C291 55.77 291.43 58.76 291.43 58.76C300.11 57.42 305.75 61.17 306.44 66.41C307.47 74.21 295.71 79.7 293.94 82.38C289.32 89.38 277.35 105.55 267.73 118.23C261.8 126.05 253.28 133.88 241.96 138.01L239.39 102.82H239.4Z" fill="url(#paint3_linear_3_11989)"/>
<path d="M216.38 37.37L190.44 37.68C181.99 35.67 177.26 29.56 177.76 22.01C178.12 16.5 183.28 11.92 190.09 12.01C197.98 12.11 201.26 17.28 204.48 21.77C211.65 31.75 216.37 37.38 216.37 37.38L216.38 37.37Z" fill="#61C680"/>
<path d="M206.02 44.78C205.55 44.78 205.07 44.65 204.63 44.39C195.49 38.79 188.91 31.21 186.58 23.59C186.15 22.19 186.94 20.7 188.35 20.27C189.75 19.84 191.24 20.63 191.67 22.04C192.59 25.06 195.97 32.85 207.41 39.85C208.66 40.62 209.06 42.25 208.29 43.51C207.79 44.33 206.91 44.78 206.02 44.78V44.78Z" fill="#3D8946"/>
<path d="M152.09 53.53C155.13 53.33 157.49 53.23 160.53 53.23C161.28 53.23 161.89 53.83 161.89 54.55L161.82 87.2C161.82 87.92 161.21 88.51 160.46 88.51C157.42 88.51 155.06 88.39 152.02 88.18C146.78 87.81 142.66 83.76 142.28 78.72C141.88 73.46 141.89 68.21 142.31 62.95C142.73 57.69 146.85 53.88 152.09 53.53Z" fill="#708EF5"/>
<path d="M153.72 59.08C155.97 58.93 156.73 58.85 159.84 58.85C160.97 58.85 161.89 59.61 161.89 60.55L161.86 78.01C161.86 78.95 160.94 79.71 159.81 79.71C156.7 79.69 155.93 79.6 153.69 79.45C151.21 79.27 149.22 77.76 148.98 75.86C148.54 72.37 148.55 66.15 149 62.66C149.25 60.76 151.24 59.26 153.72 59.09V59.08Z" fill="#B9CBF9"/>
<path d="M260.55 67.42C260.55 59.89 260.24 56.67 259.25 50.61C257.86 42.18 251.36 35.74 242.7 34.08C235.69 32.74 218.46 32.15 206.45 32.15C194.44 32.15 177.21 32.74 170.2 34.08C161.55 35.74 155.04 42.18 153.65 50.61C152.65 56.67 152.35 59.88 152.35 67.42C152.35 74.95 152.66 78.17 153.65 84.23C155.04 92.66 161.54 99.1 170.2 100.76C177.21 102.1 194.44 102.69 206.45 102.69C218.46 102.69 235.69 102.1 242.7 100.76C251.35 99.1 257.86 92.66 259.25 84.23C260.25 78.17 260.55 74.96 260.55 67.42Z" fill="#708EF5"/>
<path d="M205.43 46.75C196.42 45.7 186.77 45.63 178.64 47.2C173.49 48.19 169.57 52.19 169.08 57.12C168.85 59.41 168.74 61.74 168.78 64.1C168.95 72.8 176.42 79.77 185.63 80.17C189.99 80.36 194.59 80.43 199.09 80.31C208.85 80.04 216.61 72.35 216.23 63.15C216.13 60.83 215.94 58.53 215.65 56.32C214.98 51.31 210.75 47.38 205.43 46.76V46.75Z" fill="#B5CAFF"/>
<path d="M183.89 66.4H180.34C178.45 66.41 176.92 67.78 176.93 69.47C176.93 71.15 178.47 72.52 180.36 72.51H183.91C185.8 72.5 187.33 71.13 187.32 69.44C187.32 67.76 185.78 66.39 183.89 66.4Z" fill="#708EF5"/>
<path d="M200.54 66.37H196.99C195.1 66.38 193.57 67.75 193.58 69.44C193.59 71.13 195.12 72.49 197.01 72.48H200.56C202.45 72.47 203.98 71.1 203.97 69.41C203.96 67.72 202.43 66.36 200.54 66.37Z" fill="#708EF5"/>
<path d="M224.45 65C227.046 65 229.15 62.4704 229.15 59.35C229.15 56.2296 227.046 53.7 224.45 53.7C221.854 53.7 219.75 56.2296 219.75 59.35C219.75 62.4704 221.854 65 224.45 65Z" fill="black"/>
<path d="M161.85 65C164.446 65 166.55 62.4704 166.55 59.35C166.55 56.2296 164.446 53.7 161.85 53.7C159.254 53.7 157.15 56.2296 157.15 59.35C157.15 62.4704 159.254 65 161.85 65Z" fill="black"/>
<path d="M221.46 92.63C218.34 93.52 215.15 92.87 212.83 91.57C210.54 90.3 209.09 88.41 209.32 86.76C209.71 83.98 223.54 79.2 226.59 80.18C227.75 80.56 228.4 81.75 228.52 83.28C228.76 86.5 226.54 91.19 221.47 92.64L221.46 92.63Z" fill="#CC1580"/>
<path d="M263.26 53.53C260.22 53.33 257.86 53.23 254.82 53.23C254.07 53.23 253.46 53.83 253.46 54.55L253.53 87.2C253.53 87.92 254.14 88.51 254.89 88.51C257.93 88.51 260.29 88.39 263.33 88.18C268.57 87.81 272.69 83.76 273.07 78.72C273.45 73.68 273.46 68.21 273.04 62.95C272.63 57.91 268.5 53.88 263.26 53.53V53.53Z" fill="#708EF5"/>
<path d="M261.64 59.08C259.39 58.93 258.63 58.85 255.52 58.85C254.39 58.85 253.47 59.61 253.47 60.55L253.5 78.01C253.5 78.95 254.42 79.71 255.55 79.71C258.66 79.69 259.43 79.6 261.67 79.45C264.15 79.27 266.14 77.76 266.38 75.86C266.82 72.37 266.81 66.15 266.36 62.66C266.11 60.76 264.12 59.26 261.64 59.09V59.08Z" fill="#B9CBF9"/>
<path d="M221.46 92.63C218.34 93.52 215.15 92.87 212.83 91.57C214.75 89.3 217.7 87.11 221.3 85.47C223.77 84.34 226.24 83.62 228.51 83.28C228.75 86.5 226.53 91.19 221.46 92.64V92.63Z" fill="#F2B0D3"/>
<path d="M298.69 143.01C295.27 146.32 285.61 148.82 278.9 150.23C275.59 150.92 272.69 147.91 273.49 144.63C275.13 137.97 277.96 128.41 281.38 125.1C286.83 119.83 295.12 119.57 299.9 124.52C304.68 129.47 304.13 137.74 298.68 143.01H298.69Z" fill="url(#paint4_linear_3_11989)"/>
<path d="M104.12 145.63C108.23 145.63 114.89 146.96 121.06 149.31C126.48 151.38 130 156.65 130 162.46C130 168.26 126.48 173.54 121.06 175.61C114.9 177.96 108.23 179.29 104.12 179.29C94.83 179.29 87.3 171.76 87.3 162.47C87.3 153.18 94.83 145.65 104.12 145.65V145.63Z" fill="#424D80"/>
<path d="M115.94 160.96H87.37C87.33 161.45 87.29 161.95 87.29 162.46C87.29 162.97 87.32 163.47 87.37 163.96H115.94V160.96Z" fill="#232145"/>
<path d="M116.2 153.86L92.9901 149.87C92.5301 150.28 92.0901 150.71 91.6801 151.17L115.95 155.35L91.6801 151.17C91.2901 151.6 90.9301 152.04 90.5901 152.5L115.7 156.82L116.21 153.86H116.2Z" fill="#232145"/>
<path d="M116.32 168.1L90.8101 172.73C91.1601 173.19 91.5401 173.63 91.9401 174.05L116.58 169.58L91.9401 174.05C92.3701 174.5 92.8101 174.93 93.2901 175.33L116.85 171.05L116.31 168.1H116.32Z" fill="#232145"/>
<path d="M120 175.22C125.523 175.22 130 169.507 130 162.46C130 155.413 125.523 149.7 120 149.7C114.477 149.7 110 155.413 110 162.46C110 169.507 114.477 175.22 120 175.22Z" fill="#6F7CA6"/>
<path d="M120.74 169.58C123.91 169.58 126.48 166.54 126.48 162.79C126.48 159.04 123.91 156 120.74 156C117.57 156 115 159.04 115 162.79C115 166.54 117.57 169.58 120.74 169.58Z" fill="#424D80"/>
<path d="M59 248V236.12C59 234.48 59.8 232.95 61.15 232.01L118.91 185.87C119.62 185.3 120.17 184.55 120.48 183.69L127 166H321V216L341 229V248H59Z" fill="url(#paint5_linear_3_11989)"/>
<path d="M248 248V236.12C248 234.48 248.8 232.95 250.15 232.01L307.91 185.87C308.62 185.3 309.17 184.55 309.48 183.69L316 166H342V213.53C342 215.09 342.73 216.56 343.96 217.5L357.03 227.5C358.27 228.45 358.99 229.91 358.99 231.47V248H247.99H248Z" fill="url(#paint6_linear_3_11989)"/>
<path d="M280.31 191H129.5C126.49 191 123.57 192.02 121.22 193.9L77.52 228.79C75.36 230.52 76.58 234 79.34 234H227.73C231.14 234 234.45 232.84 237.12 230.71L281.74 195.08C283.43 193.73 282.48 191 280.31 191V191Z" fill="black"/>
<path d="M266.3 203.41L276.34 195.35C276.9 194.9 276.58 194 275.86 194H263.19L250.32 204.33H263.68C264.63 204.33 265.56 204 266.31 203.41H266.3Z" fill="#DBE3FF"/>
<path d="M245.53 204.33L258.4 194H243.57L230.7 204.33H245.53Z" fill="#DBE3FF"/>
<path d="M153.67 207.33H138.83L125.96 217.67H140.79L153.67 207.33Z" fill="#DBE3FF"/>
<path d="M225.9 204.33L238.77 194H223.94L211.07 204.33H225.9Z" fill="#DBE3FF"/>
<path d="M192.92 207.33H178.08L165.21 217.67H180.04L192.92 207.33Z" fill="#DBE3FF"/>
<path d="M108.29 217.67H121.17L134.04 207.34H121.14C119.89 207.34 118.68 207.77 117.7 208.55L107.86 216.45C107.35 216.86 107.64 217.67 108.29 217.67V217.67Z" fill="#DBE3FF"/>
<path d="M173.29 207.33H158.46L145.59 217.67H160.42L173.29 207.33Z" fill="#DBE3FF"/>
<path d="M140.65 194H129.5C127.17 194 124.91 194.79 123.1 196.24L114.8 202.86C114.19 203.35 114.54 204.33 115.31 204.33H127.78L140.65 194Z" fill="#DBE3FF"/>
<path d="M147.4 204.33L160.27 194H145.44L132.57 204.33H147.4Z" fill="#DBE3FF"/>
<path d="M167.03 204.33L179.9 194H165.07L152.2 204.33H167.03Z" fill="#DBE3FF"/>
<path d="M206.28 204.33L219.15 194H204.32L191.45 204.33H206.28Z" fill="#DBE3FF"/>
<path d="M186.65 204.33L199.52 194H184.69L171.82 204.33H186.65Z" fill="#DBE3FF"/>
<path d="M212.54 207.33H197.71L184.84 217.67H199.67L212.54 207.33Z" fill="#DBE3FF"/>
<path d="M232.17 207.33H217.33L204.46 217.67H219.29L232.17 207.33Z" fill="#DBE3FF"/>
<path d="M249.81 207.33H236.95L224.08 217.66H237.36C238.37 217.66 239.34 217.32 240.12 216.69L250.24 208.57C250.75 208.16 250.46 207.33 249.8 207.33H249.81Z" fill="#DBE3FF"/>
<path d="M112.23 220.67L101.2 229.53C100.59 230.02 100.94 231 101.72 231H209.36C211.28 231 213.14 230.35 214.63 229.15L225.19 220.67" fill="#DBE3FF"/>
<path d="M225 166H198L175.46 174.67C174.38 175.08 174.23 176.53 175.19 177.17C186.39 184.57 206.54 189.8 245.44 177.87C246.69 177.49 246.8 175.76 245.61 175.23L225 166Z" fill="black"/>
<path d="M241.7 173.48L225 166H198L178.84 173.37C190.49 179.25 209.46 182.32 241.7 173.48V173.48Z" fill="url(#paint7_linear_3_11989)"/>
<path d="M213.146 159.866L203.151 180.869L205.86 182.158L215.855 161.156L213.146 159.866Z" fill="black"/>
<path d="M207.577 160.304L185.581 177.305L187.416 179.678L209.412 162.678L207.577 160.304Z" fill="black"/>
<path d="M219.885 161.935L217.11 163.077L224.109 180.073L226.883 178.931L219.885 161.935Z" fill="black"/>
<path d="M122.5 167.21C120.02 167.21 118.01 165.2 118 162.72C118 160.23 120 158.22 122.49 158.21L327.99 157.71H328C330.48 157.71 332.49 159.72 332.5 162.2C332.5 164.69 330.5 166.7 328.01 166.71L122.51 167.21H122.5V167.21Z" fill="#232145"/>
<path d="M350.88 145.63C346.77 145.63 340.11 146.96 333.94 149.31C328.52 151.38 325 156.65 325 162.46C325 168.26 328.52 173.54 333.94 175.61C340.1 177.96 346.77 179.29 350.88 179.29C360.17 179.29 367.7 171.76 367.7 162.47C367.7 153.18 360.17 145.65 350.88 145.65V145.63Z" fill="#424D80"/>
<path d="M325 162.46C325 162.97 325.04 163.46 325.09 163.96H353.47V160.96H325.09C325.04 161.46 325 161.95 325 162.46Z" fill="#232145"/>
<path d="M353.4 151.64L352.89 148.68L328.74 152.83C327.8 153.85 327.01 155.02 326.4 156.28L353.4 151.64V151.64Z" fill="#232145"/>
<path d="M326.49 168.79C327.13 170.07 327.96 171.25 328.95 172.28L352.23 176.51L352.5 175.03L352.77 173.55L326.49 168.78V168.79Z" fill="#232145"/>
<path d="M353.5 179.28C361.508 179.28 368 171.749 368 162.46C368 153.171 361.508 145.64 353.5 145.64C345.492 145.64 339 153.171 339 162.46C339 171.749 345.492 179.28 353.5 179.28Z" fill="#6F7CA6"/>
<path d="M354.5 171.84C358.968 171.84 362.59 167.64 362.59 162.46C362.59 157.28 358.968 153.08 354.5 153.08C350.032 153.08 346.41 157.28 346.41 162.46C346.41 167.64 350.032 171.84 354.5 171.84Z" fill="#424D80"/>
<path opacity="0.5" d="M359 237H248V242H359V237Z" fill="#FF871C"/>
<path d="M108.13 38.69C104.41 36.29 101.9 32.4 101.24 28.02L100.12 20.56C100.07 20.19 99.7499 19.92 99.3799 19.92C99.0099 19.92 98.6899 20.19 98.6399 20.56L97.5199 28.02C96.8599 32.4 94.3499 36.29 90.6299 38.69L89.66 39.31C89.45 39.45 89.3199 39.69 89.3199 39.94V39.99C89.3199 40.24 89.45 40.48 89.66 40.62L90.6299 41.24C94.3499 43.64 96.8599 47.53 97.5199 51.91L98.6399 59.37C98.6899 59.74 99.0099 60.01 99.3799 60.01C99.7499 60.01 100.07 59.74 100.12 59.37L101.24 51.91C101.9 47.53 104.41 43.64 108.13 41.24L109.1 40.62C109.31 40.48 109.44 40.24 109.44 39.99V39.94C109.44 39.69 109.31 39.45 109.1 39.31L108.13 38.69Z" fill="#E44598"/>
<path d="M79 78.66C76.16 76.83 74.24 73.86 73.74 70.52L72.89 64.83C72.85 64.55 72.61 64.34 72.32 64.34C72.04 64.34 71.8 64.55 71.75 64.83L70.9 70.52C70.4 73.86 68.48 76.83 65.64 78.66L64.9 79.14C64.74 79.25 64.64 79.43 64.64 79.62V79.66C64.64 79.85 64.74 80.04 64.9 80.14L65.64 80.62C68.48 82.45 70.4 85.42 70.9 88.76L71.75 94.45C71.79 94.73 72.03 94.94 72.32 94.94C72.6 94.94 72.84 94.73 72.89 94.45L73.74 88.76C74.24 85.42 76.16 82.45 79 80.62L79.74 80.14C79.9 80.03 80 79.85 80 79.66V79.62C80 79.43 79.9 79.24 79.74 79.14L79 78.66Z" fill="#51ED82"/>
<path d="M325.02 40C322.2 38.18 320.3 35.24 319.8 31.92L318.95 26.27C318.91 25.99 318.67 25.79 318.39 25.79C318.11 25.79 317.87 26 317.83 26.27L316.98 31.92C316.48 35.24 314.58 38.18 311.76 40L311.03 40.47C310.87 40.57 310.77 40.75 310.77 40.95V40.98C310.77 41.17 310.87 41.35 311.03 41.46L311.76 41.93C314.58 43.75 316.48 46.69 316.98 50.01L317.83 55.66C317.87 55.94 318.11 56.14 318.39 56.14C318.67 56.14 318.91 55.93 318.95 55.66L319.8 50.01C320.3 46.69 322.2 43.75 325.02 41.93L325.75 41.46C325.91 41.36 326.01 41.18 326.01 40.98V40.95C326.01 40.76 325.91 40.58 325.75 40.47L325.02 40Z" fill="#FFE25C"/>
<defs>
<linearGradient id="paint0_linear_3_11989" x1="363.67" y1="136.29" x2="363.67" y2="87.76" gradientUnits="userSpaceOnUse">
<stop offset="0.31" stop-color="#66B7FF"/>
<stop offset="0.9" stop-color="#3F94ED"/>
</linearGradient>
<linearGradient id="paint1_linear_3_11989" x1="275.5" y1="161.47" x2="275.5" y2="87" gradientUnits="userSpaceOnUse">
<stop stop-color="#66B7FF"/>
<stop offset="0.59" stop-color="#87D4FF"/>
</linearGradient>
<linearGradient id="paint2_linear_3_11989" x1="221.87" y1="136.8" x2="114.85" y2="87.18" gradientUnits="userSpaceOnUse">
<stop offset="0.09" stop-color="#708EF5"/>
<stop offset="1" stop-color="#5072D6"/>
</linearGradient>
<linearGradient id="paint3_linear_3_11989" x1="278.54" y1="66.89" x2="260.32" y2="128.07" gradientUnits="userSpaceOnUse">
<stop stop-color="#5072D6"/>
<stop offset="0.76" stop-color="#708EF5"/>
</linearGradient>
<linearGradient id="paint4_linear_3_11989" x1="271.09" y1="167.66" x2="298.8" y2="118.82" gradientUnits="userSpaceOnUse">
<stop stop-color="#5072D6"/>
<stop offset="0.76" stop-color="#708EF5"/>
</linearGradient>
<linearGradient id="paint5_linear_3_11989" x1="200" y1="274.03" x2="200" y2="155.17" gradientUnits="userSpaceOnUse">
<stop stop-color="#FFE25C"/>
<stop offset="0.47" stop-color="#FFD13B"/>
<stop offset="0.9" stop-color="#FFC11C"/>
</linearGradient>
<linearGradient id="paint6_linear_3_11989" x1="303.5" y1="268.37" x2="303.5" y2="150.29" gradientUnits="userSpaceOnUse">
<stop stop-color="#FFE25C"/>
<stop offset="0.05" stop-color="#FFDB57"/>
<stop offset="0.48" stop-color="#FFAE37"/>
<stop offset="0.81" stop-color="#FF9123"/>
<stop offset="1" stop-color="#FF871C"/>
</linearGradient>
<linearGradient id="paint7_linear_3_11989" x1="210.86" y1="147.53" x2="210.03" y2="184.09" gradientUnits="userSpaceOnUse">
<stop stop-color="#E85F03"/>
<stop offset="1" stop-color="#FF871C"/>
</linearGradient>
</defs>
</svg>
