<svg width="193" height="113" viewBox="0 0 193 113" fill="none"
  xmlns="http://www.w3.org/2000/svg">
  <path d="M0 8C0 3.58173 3.58172 0 8 0H193V105C193 109.418 189.418 113 185 113H0V8Z" fill="#18191C"/>
  <path d="M0 81.4414H193V105C193 109.418 189.418 113 185 113H0V81.4414Z" fill="#202225"/>
  <path d="M87.4372 30.3863L89.3972 30.0363L86.7792 26.2423C87.9832 25.8223 88.7392 24.9403 88.7392 23.5263C88.7392 21.6503 87.4372 20.6283 85.2812 20.6283H82.2852V30.2883H84.1332V26.5923H84.9172L87.4372 30.3863ZM86.9192 23.6243C86.9192 24.6323 86.2052 25.1783 85.0572 25.1783H84.1192V22.1123H85.1412C86.3032 22.1123 86.9192 22.6583 86.9192 23.6243ZM96.1899 26.9003C96.1899 24.7023 94.8459 23.3863 92.9979 23.3863C91.1639 23.3863 89.8199 24.7163 89.8199 26.9143C89.8199 29.1123 91.1499 30.4283 92.9839 30.4283C94.8319 30.4283 96.1899 29.0983 96.1899 26.9003ZM94.5519 26.9143C94.5519 28.1743 94.0199 29.0563 92.9839 29.0563C92.0039 29.0563 91.4579 28.1463 91.4579 26.9003C91.4579 25.6543 91.9899 24.7583 92.9839 24.7583C93.9919 24.7583 94.5519 25.6683 94.5519 26.9143ZM101.697 30.3863L103.489 30.1203L100.843 26.5783L103.335 23.5263H101.431L99.2327 26.3263V20.1803L97.5527 20.4463V30.2883H99.2327V26.9283L101.697 30.3863ZM108.03 28.4263C107.568 28.8743 107.022 29.1543 106.448 29.1543C105.93 29.1543 105.622 28.8603 105.622 28.3703C105.622 27.7263 106.084 27.1523 108.03 26.9143V28.4263ZM109.71 30.2883V25.6543C109.71 24.0303 108.842 23.3863 107.092 23.3863C106.014 23.3863 105.188 23.6243 104.404 23.9323L104.614 25.2763C105.342 24.9543 106.084 24.7303 106.868 24.7303C107.61 24.7303 108.03 25.0103 108.03 25.7383V25.9343C105.3 26.2003 103.956 26.9143 103.956 28.5523C103.956 29.7283 104.726 30.4283 105.874 30.4283C106.882 30.4283 107.582 29.9803 108.128 29.4063L108.268 30.2883H109.71Z" fill="white"/>
  <path d="M115.321 27.3123H113.305L113.641 25.1523H115.657L115.321 27.3123ZM114.841 30.3123H115.693L116.029 28.2243H117.709L117.553 27.3123H116.173L116.509 25.1523H117.949V24.2403H116.653L116.965 22.2723L116.149 22.0923L115.801 24.2403H113.785L114.121 22.1523H113.269L112.933 24.2403H111.253L111.409 25.1523H112.789L112.453 27.3123H111.013V28.2243H112.309L111.997 30.1923L112.813 30.3723L113.161 28.2243H115.177L114.841 30.3123ZM125.271 26.2323C125.271 23.5443 124.023 22.0203 122.175 22.0203C120.315 22.0203 119.067 23.5443 119.067 26.2323C119.067 28.9203 120.315 30.4443 122.175 30.4443C124.023 30.4443 125.271 28.9203 125.271 26.2323ZM124.167 26.2323C124.167 28.3443 123.423 29.4963 122.175 29.4963C120.927 29.4963 120.171 28.3443 120.171 26.2323C120.171 24.1203 120.927 22.9683 122.175 22.9683C123.423 22.9683 124.167 24.1203 124.167 26.2323ZM132.7 26.2323C132.7 23.5443 131.452 22.0203 129.604 22.0203C127.744 22.0203 126.496 23.5443 126.496 26.2323C126.496 28.9203 127.744 30.4443 129.604 30.4443C131.452 30.4443 132.7 28.9203 132.7 26.2323ZM131.596 26.2323C131.596 28.3443 130.852 29.4963 129.604 29.4963C128.356 29.4963 127.6 28.3443 127.6 26.2323C127.6 24.1203 128.356 22.9683 129.604 22.9683C130.852 22.9683 131.596 24.1203 131.596 26.2323ZM140.13 26.2323C140.13 23.5443 138.882 22.0203 137.034 22.0203C135.174 22.0203 133.926 23.5443 133.926 26.2323C133.926 28.9203 135.174 30.4443 137.034 30.4443C138.882 30.4443 140.13 28.9203 140.13 26.2323ZM139.026 26.2323C139.026 28.3443 138.282 29.4963 137.034 29.4963C135.786 29.4963 135.03 28.3443 135.03 26.2323C135.03 24.1203 135.786 22.9683 137.034 22.9683C138.282 22.9683 139.026 24.1203 139.026 26.2323ZM147.56 26.2323C147.56 23.5443 146.312 22.0203 144.464 22.0203C142.604 22.0203 141.356 23.5443 141.356 26.2323C141.356 28.9203 142.604 30.4443 144.464 30.4443C146.312 30.4443 147.56 28.9203 147.56 26.2323ZM146.456 26.2323C146.456 28.3443 145.712 29.4963 144.464 29.4963C143.216 29.4963 142.46 28.3443 142.46 26.2323C142.46 24.1203 143.216 22.9683 144.464 22.9683C145.712 22.9683 146.456 24.1203 146.456 26.2323Z" fill="#B9BBBE"/>
  <g clip-path="url(#clip0)">
    <mask id="mask0" mask-type="alpha" maskUnits="userSpaceOnUse" x="16" y="16" width="50" height="50">
      <ellipse cx="40.6314" cy="40.7208" rx="24.3789" ry="24.4324" fill="#24193A"/>
    </mask>
    <g mask="url(#mask0)">
      <path d="M23.2958 60.6242C23.1995 60.5878 23.1031 60.5481 23.0061 60.5149C22.7043 60.4132 22.3935 60.3383 22.0916 60.2367C21.3941 60.0013 20.8223 59.6323 20.2543 59.1769C19.5057 60.0569 18.8892 61.0611 18.4253 62.0978H24.5792C24.3227 61.7 24.0859 61.2894 23.8708 60.8679C23.673 60.8532 23.4771 60.7752 23.2958 60.6242Z" fill="#9AFFD8"/>
      <path d="M19.3329 58.3096C18.8185 57.7333 18.4056 57.0701 18.1874 56.3237C17.9238 55.4226 17.9902 54.3884 18.5601 53.6158C19.4631 52.3916 21.0317 52.1319 22.4032 52.5521C22.4593 52.1083 22.5359 51.667 22.6361 51.2308C23.1715 48.8982 24.2602 46.8663 25.7287 45.1465C25.7887 44.5933 26.0337 44.0573 26.3279 43.5962C26.9368 42.6406 27.776 41.8277 28.686 41.1261C27.513 41.0506 26.342 40.9368 25.1754 40.775C24.7804 40.72 24.661 40.0779 24.7829 39.7856C24.9425 39.4037 26.0261 39.2963 26.3892 39.217C27.5743 38.958 28.7977 38.8914 29.9936 38.69C30.3421 38.6311 30.6911 38.5755 31.0415 38.5262C31.6714 38.438 32.3051 38.3734 32.9413 38.3254C33.3434 37.6379 33.6982 36.9292 34.1615 36.2749C35.2969 34.6741 36.8291 33.2555 38.7079 32.4829C40.4629 31.7615 42.6391 31.5472 44.387 32.4055C45.0341 32.7234 45.7559 33.1794 46.4656 33.7013C48.8957 32.6428 51.4855 31.9028 53.9144 30.82C56.0631 29.8626 58.2399 28.4574 59.0178 26.2336C59.9936 23.4438 58.2999 20.2421 55.7778 18.709C53.2558 17.1759 50.1408 16.9936 47.2014 17.2412C45.2013 17.4094 43.1745 17.7554 41.2038 17.3748C39.2331 16.9943 37.2739 15.6704 36.8725 13.6998C36.8406 13.5451 36.8202 13.3896 36.8081 13.2349H23.2768C22.0509 13.8233 20.7477 14.2204 19.5148 14.4098C18.7604 14.5255 18.0119 14.5754 17.2684 14.5735L15.2368 38.1756L17.2684 61.5791C17.786 60.4144 18.4605 59.3227 19.2946 58.3531C19.3074 58.3384 19.3201 58.3243 19.3329 58.3096Z" fill="#9AFFD8"/>
      <path d="M41.1389 19.6033C43.1095 19.9838 45.1364 19.6378 47.1364 19.4696C50.0759 19.2221 53.2552 17.1753 55.7773 18.7084C58.2993 20.2414 59.9931 23.4432 59.0173 26.233C58.2393 28.4568 56.0625 29.8619 53.9138 30.8194C51.4849 31.9022 48.8952 32.6422 46.465 33.7007C47.5557 34.5014 48.6169 35.4563 49.3343 36.3018C49.8244 36.88 50.5091 37.6961 50.654 38.4591C51.0107 38.5461 51.3643 38.6491 51.7159 38.7687C52.0822 38.8928 52.4562 39.0303 52.8295 39.1825C54.0402 38.3805 55.3733 37.7441 56.7058 37.2247C59.6746 36.0671 62.8623 35.7371 66.0251 35.8823V13.2343H36.8075C36.8196 13.389 36.7763 15.7729 36.8076 15.9283C37.2096 17.8988 39.1682 19.2227 41.1389 19.6033Z" fill="#9FA9FF"/>
      <path d="M54.1948 39.8271C55.0251 40.2819 55.7915 40.8409 56.3831 41.5418C56.8969 42.1501 57.2887 42.9022 57.2447 43.7209C57.2115 44.34 56.96 44.9597 56.5695 45.4579C56.5937 45.5021 56.6173 45.5462 56.6403 45.5903C56.7437 45.7893 56.8394 45.9914 56.9262 46.1979C57.5714 47.7297 58.0654 49.4041 58.3576 51.124C58.724 51.0357 59.1101 51.0382 59.4827 51.1246C60.5204 51.3651 61.3009 52.2208 61.65 53.1981C61.6557 53.2141 61.6602 53.2301 61.6653 53.2461C61.8146 53.6426 61.8931 54.0737 61.9116 54.5182C62.0003 56.6902 60.2983 58.2859 58.7686 59.5587C58.4891 59.7908 58.1592 59.8906 57.8433 59.8292C57.8171 59.906 57.7922 59.9827 57.7648 60.0582C57.498 60.7963 57.1757 61.4736 56.8056 62.0965H66.0247V37.1627C61.8982 36.9778 57.7846 37.6679 54.1948 39.8271Z" fill="#9FA9FF"/>
      <path d="M20.2056 59.1385C19.8954 58.8871 19.6006 58.6095 19.3326 58.3096C19.3198 58.3243 19.307 58.3384 19.2943 58.3531C18.4602 59.3227 17.7856 60.4144 17.2681 61.5791V62.0978H18.4251C18.889 61.061 19.5049 60.0569 20.2541 59.1768C20.2381 59.1634 20.2222 59.1512 20.2056 59.1385Z" fill="white"/>
      <path d="M56.7049 37.2248C55.3724 37.7441 54.0392 38.3805 52.8286 39.1825C53.2907 39.3718 53.7521 39.5848 54.1949 39.8278C57.784 37.668 61.8984 36.9785 66.0248 37.1634V35.8829C62.862 35.7371 59.6743 36.0671 56.7049 37.2248Z" fill="white"/>
      <path d="M29.8302 14.6368L10.9241 23.4145L10.8298 34.4818C11.8683 34.2856 17.6819 37.4508 23.7766 33.3788C36.119 25.1325 28.2754 15.787 29.8302 14.6368Z" fill="#FAFFA0"/>
      <path d="M61.9132 54.5188C61.8954 54.075 61.8162 53.6439 61.6669 53.2473C61.6618 53.2314 61.6573 53.2154 61.6516 53.1994C61.3025 52.2221 60.522 51.3664 59.4843 51.1259C59.1116 51.0395 58.7256 51.037 58.3592 51.1252C58.0663 49.4054 57.573 47.7304 56.9278 46.1992C56.841 45.9926 56.7453 45.7905 56.6419 45.5916C56.6189 45.5469 56.5947 45.5027 56.5711 45.4592C56.3777 45.7068 56.1505 45.9242 55.8972 46.0969C54.9699 46.7294 53.7274 46.6674 52.6788 46.4576C51.6603 46.2536 50.6545 45.8647 49.7471 45.3595C49.7005 45.3332 49.6539 45.3064 49.6079 45.2802C49.2238 45.0595 48.8511 44.8184 48.493 44.5574C47.7119 43.9888 46.9978 43.3294 46.3705 42.5952C46.3596 42.7378 46.3475 42.8798 46.3328 43.0212C46.1835 44.4404 45.807 46.0854 44.5555 46.943C43.6084 47.5916 42.1221 47.6447 41.5893 46.4602C41.1942 45.5827 41.2817 44.5216 41.4565 43.5539C41.454 43.5603 41.4514 43.5661 41.4489 43.5725C41.0009 44.6834 40.5854 45.7969 39.9389 46.8119C39.048 48.2094 37.7053 49.7764 36.0371 50.1851C35.5942 50.2938 35.1284 50.3219 34.6414 50.242C33.9439 50.1281 33.3064 49.7725 33.0658 49.0735C32.8673 48.4966 32.9905 47.8385 33.1787 47.2763C33.3568 46.7435 33.5936 46.2299 33.8654 45.7323C33.4066 46.079 32.9228 46.3962 32.4021 46.67C30.7205 47.5545 28.2776 48.5087 26.5896 47.1586C26.0663 46.7397 25.7331 46.1385 25.7146 45.4618C25.7115 45.3569 25.7172 45.252 25.7287 45.1478C24.2602 46.8676 23.1715 48.8995 22.6361 51.232C22.5359 51.6682 22.4593 52.1095 22.4031 52.5534C21.0317 52.1332 19.4637 52.3929 18.5601 53.617C17.9902 54.389 17.9238 55.4238 18.1874 56.325C18.4056 57.0714 18.8192 57.7346 19.3329 58.3109C19.6009 58.6108 19.8958 58.8884 20.2059 59.1398C20.2219 59.1525 20.2385 59.1653 20.2544 59.1781C20.8224 59.6335 21.3942 60.0025 22.0917 60.2379C22.3936 60.3396 22.7044 60.4144 23.0062 60.5161C23.1039 60.5487 23.1996 60.5884 23.296 60.6255C23.4772 60.7764 23.6731 60.8551 23.871 60.8692C24.086 61.2906 24.3228 61.7013 24.5793 62.0991L32.3108 67.1892H33.8654H44.0443H48.6315H49.9245L56.8066 62.0991C57.1767 61.4761 57.499 60.7982 57.7657 60.0607C57.7932 59.9846 57.8187 59.9079 57.8442 59.8318C58.1601 59.8932 58.4901 59.7934 58.7696 59.5612C60.2999 58.2872 62.0019 56.6915 61.9132 54.5188Z" fill="#24193A"/>
      <path d="M56.3831 41.5418C55.7915 40.8408 55.0251 40.2818 54.1948 39.8271C53.7519 39.5841 53.2905 39.3711 52.8285 39.1818C52.4552 39.0289 52.0805 38.892 51.7149 38.7673C51.3632 38.6477 51.0097 38.5447 50.6529 38.4578C50.7353 38.8933 50.6434 39.311 50.2369 39.6576C50.1826 39.7037 50.1233 39.7484 50.0582 39.7919C49.9995 39.8309 49.9363 39.8674 49.8718 39.9026C49.0103 40.3695 47.6637 40.4833 46.3765 40.5242C45.8871 40.5396 45.4059 40.5453 44.9636 40.5556C44.5762 40.5645 44.2189 40.5773 43.9113 40.6042C41.76 40.7929 39.5972 40.9739 37.4312 41.0954C35.1523 41.2226 32.8695 41.2828 30.5932 41.2143C29.9563 41.1951 29.32 41.1664 28.6844 41.1254C27.775 41.827 26.9352 42.6399 26.3263 43.5955C26.0321 44.0566 25.7871 44.5926 25.7271 45.1458C25.7156 45.2501 25.7105 45.3549 25.713 45.4598C25.7316 46.1365 26.0647 46.7383 26.588 47.1566C28.2766 48.5068 30.7195 47.5525 32.4005 46.668C32.9212 46.3943 33.405 46.077 33.8638 45.7304C33.592 46.228 33.3552 46.7415 33.1771 47.2743C32.9889 47.8371 32.8657 48.4946 33.0642 49.0715C33.3048 49.7706 33.9423 50.1255 34.6398 50.24C35.1268 50.32 35.592 50.2918 36.0355 50.1831C37.7044 49.7738 39.0471 48.2075 39.9373 46.81C40.5838 45.7956 40.9993 44.6821 41.4473 43.5705C41.4498 43.5641 41.4524 43.5584 41.4549 43.552C41.2801 44.5197 41.1926 45.5807 41.5877 46.4582C42.1205 47.6433 43.6069 47.5903 44.5539 46.9411C45.8054 46.0834 46.1819 44.4384 46.3312 43.0192C46.3459 42.8779 46.358 42.7359 46.3689 42.5933C46.9956 43.3275 47.7103 43.9869 48.4914 44.5555C48.8501 44.8164 49.2222 45.0575 49.6063 45.2782C49.6529 45.3051 49.6989 45.3319 49.7455 45.3575C50.6529 45.8628 51.6587 46.2516 52.6772 46.4557C53.7258 46.6654 54.9689 46.7275 55.8956 46.0949C56.1483 45.9222 56.3755 45.7042 56.5695 45.4573C56.96 44.9584 57.2115 44.3393 57.2447 43.7202C57.2893 42.9022 56.8969 42.15 56.3831 41.5418Z" fill="#FFCD2E"/>
      <path d="M50.6536 38.4584C50.5088 37.6954 49.8246 36.8793 49.3339 36.3011C48.6166 35.4556 47.5546 34.5007 46.4646 33.6999C45.755 33.1787 45.0332 32.722 44.3861 32.4042C42.6381 31.5459 40.462 31.7601 38.707 32.4816C36.8282 33.2542 35.2959 34.6727 34.1606 36.2736C33.6967 36.9279 33.3425 37.6359 32.9404 38.3241C32.3042 38.372 31.6704 38.4366 31.0406 38.5249C30.6902 38.5742 30.3411 38.6298 29.9927 38.6886C28.7967 38.8907 27.574 38.9573 26.3883 39.2163C26.0245 39.2956 24.9409 39.403 24.782 39.7849C24.6601 40.0772 24.7794 40.7193 25.1745 40.7743C26.341 40.9361 27.5121 41.0506 28.6851 41.1254C29.3207 41.1664 29.9569 41.1951 30.5938 41.2143C32.8702 41.2828 35.153 41.2226 37.4319 41.0954C39.5979 40.9738 41.7606 40.7928 43.9119 40.6042C44.2195 40.5773 44.5769 40.5645 44.9643 40.5556C45.4065 40.5453 45.8871 40.5402 46.3772 40.5242C47.6644 40.4833 49.0103 40.3688 49.8725 39.9026C49.937 39.8674 50.0001 39.8309 50.0588 39.7919C50.1239 39.7484 50.1839 39.7036 50.2375 39.6576C50.6434 39.3116 50.736 38.8939 50.6536 38.4584ZM29.9397 40.2447C30.2626 40.0362 30.5926 39.8386 30.9302 39.6557C30.5926 39.8386 30.2626 40.0362 29.9397 40.2447ZM33.7924 38.6675C33.9073 38.672 34.0011 38.7085 34.0732 38.7654C34.0011 38.7085 33.9073 38.672 33.7924 38.6675Z" fill="#FF5CEF"/>
      <path d="M37.5788 55.856C37.5692 55.7888 37.5584 55.7217 37.5469 55.6552C37.5584 55.7223 37.5692 55.7895 37.5788 55.856Z" fill="white"/>
      <path d="M37.6031 56.0556C37.5967 55.9929 37.589 55.9302 37.5801 55.8676C37.589 55.9302 37.5967 55.9929 37.6031 56.0556Z" fill="white"/>
      <path d="M37.5804 55.8682C37.5797 55.8644 37.5797 55.8605 37.5791 55.8567C37.5797 55.8605 37.5797 55.8644 37.5804 55.8682Z" fill="white"/>
      <path d="M37.603 56.0555C37.603 56.0568 37.603 56.0587 37.6037 56.0599C37.6037 56.0587 37.603 56.0574 37.603 56.0555Z" fill="white"/>
      <path d="M37.6037 56.0607C36.2438 57.1141 34.5686 57.7677 32.8538 57.9429C32.2086 58.0088 31.5583 58.0063 30.9163 57.9327C29.8748 57.8125 28.8563 57.5036 27.9245 56.9861C27.8307 56.9337 27.7376 56.8793 27.6469 56.823C27.3738 56.6542 27.1141 56.4681 26.8671 56.266C26.7165 57.1537 26.8243 58.0773 27.2111 58.8978C27.6329 59.7926 28.4038 60.5044 29.2615 60.9745C30.7172 61.7714 32.5909 62.0471 34.1997 61.5348C34.5201 61.4325 34.8309 61.3001 35.1251 61.1331C35.21 61.0852 35.2923 61.0334 35.374 60.9803C36.9879 59.925 37.7984 57.9538 37.6037 56.0607Z" fill="white"/>
      <path d="M53.504 55.8229C53.4817 55.4104 53.4064 55.012 53.2819 54.6353C52.5697 55.3452 51.7325 55.9317 50.7643 56.3506C50.645 56.4024 50.5238 56.451 50.4012 56.4983C50.0119 56.6474 49.608 56.7727 49.1951 56.8738C47.5294 57.2799 45.7176 57.2844 44.1011 56.8475C43.5625 56.7017 43.0284 56.4868 42.5683 56.1786C42.5446 56.4248 42.5434 56.6736 42.5663 56.9217C42.7252 58.6364 43.8918 59.9885 45.4739 60.5903C45.9002 60.7522 46.3405 60.8359 46.7917 60.8916C46.8925 60.9044 46.9889 60.8737 47.0712 60.8187C48.1836 60.992 49.3718 60.857 50.4102 60.4573C50.8224 60.2987 51.2104 60.0979 51.5614 59.8587C51.6297 59.812 51.6967 59.7647 51.7618 59.7148C52.9916 58.7791 53.587 57.3611 53.504 55.8229Z" fill="white"/>
      <path d="M37.5469 55.6559C37.5456 55.6482 37.5437 55.6406 37.5424 55.6322C37.5316 55.5734 37.5201 55.5146 37.5067 55.4557C37.492 55.3879 37.4754 55.3208 37.4582 55.2543C37.044 53.6835 35.9157 52.7318 34.5411 52.3122C34.2794 52.2323 34.0082 52.1715 33.7319 52.1299C33.5245 52.0986 33.3139 52.0775 33.1014 52.0673C32.9597 52.0602 32.8174 52.0577 32.6744 52.0596C32.3885 52.0634 32.1014 52.0852 31.8155 52.1248C31.744 52.1344 31.6725 52.1453 31.6017 52.1574C31.4593 52.1817 31.317 52.2099 31.1766 52.2419C31.1064 52.2578 31.0362 52.2751 30.966 52.2937C30.8263 52.3301 30.6878 52.3711 30.5506 52.4165C30.3451 52.4843 30.1434 52.561 29.9462 52.6467C29.8148 52.7036 29.6859 52.765 29.5595 52.8303C29.4331 52.8955 29.3093 52.9646 29.1881 53.0375C29.0675 53.1104 28.9494 53.1871 28.8345 53.2677C28.5486 53.4692 28.2838 53.6937 28.0464 53.9412C27.9513 54.0403 27.8613 54.1427 27.7752 54.2488C27.6469 54.4081 27.5288 54.575 27.4235 54.7496C27.3865 54.8104 27.3514 54.8724 27.3176 54.9357C27.287 54.9927 27.2576 55.0509 27.2295 55.1091C27.1408 55.2939 27.0655 55.4858 27.0049 55.6853C26.987 55.7429 26.9711 55.8017 26.9557 55.8599C26.95 55.881 26.9449 55.9021 26.9398 55.9233C26.9302 55.9603 26.9219 55.9981 26.9136 56.0358C26.9079 56.0608 26.9021 56.0857 26.897 56.1113C26.8926 56.1318 26.8894 56.1522 26.8855 56.1733C26.8798 56.2047 26.8734 56.236 26.8677 56.268C27.114 56.4701 27.3737 56.6562 27.6475 56.8251C27.7388 56.8813 27.8313 56.9357 27.9251 56.9881C28.8569 57.5056 29.8754 57.8151 30.9169 57.9347C31.5589 58.0089 32.2092 58.0108 32.8544 57.945C34.5692 57.7697 36.2444 57.1161 37.6043 56.0627C37.5897 55.9252 37.5705 55.7902 37.5469 55.6559Z" fill="#427EFC"/>
      <path d="M53.2811 54.6345C53.2645 54.584 53.2466 54.5335 53.2281 54.4842C53.2256 54.4778 53.2237 54.4721 53.2211 54.4657C53.2052 54.4228 53.1879 54.38 53.1707 54.3378C53.1675 54.3301 53.1643 54.3224 53.1611 54.3154C53.1216 54.2201 53.0782 54.1267 53.0316 54.0352C53.0271 54.0269 53.0233 54.0186 53.0188 54.0103C52.9984 53.97 52.9767 53.9297 52.955 53.8901C52.9518 53.8849 52.9493 53.8792 52.9461 53.8741C52.9205 53.8287 52.895 53.7845 52.8682 53.7398C52.865 53.7346 52.8618 53.7295 52.8586 53.7244C52.835 53.686 52.8114 53.6483 52.7865 53.6112C52.7808 53.6022 52.7744 53.5927 52.768 53.5837C52.7406 53.5428 52.7125 53.5018 52.6831 53.4609C52.6825 53.4603 52.6825 53.4596 52.6819 53.459C52.6519 53.4174 52.6212 53.3771 52.59 53.3362C52.5829 53.3272 52.5759 53.3183 52.5689 53.3093C52.5434 53.2773 52.5179 53.2454 52.4917 53.2134C52.4847 53.2044 52.477 53.1961 52.47 53.1872C52.4374 53.1488 52.4043 53.1104 52.3698 53.0727C52.366 53.0688 52.3621 53.0644 52.3583 53.0605C52.3283 53.0273 52.297 52.9946 52.2658 52.9627C52.2562 52.9531 52.2466 52.9428 52.2364 52.9332C52.2071 52.9032 52.1771 52.8738 52.1464 52.845C52.1401 52.8386 52.133 52.8322 52.1266 52.8258C52.0903 52.7913 52.0526 52.7574 52.0143 52.7235C52.0048 52.7152 51.9958 52.7075 51.9863 52.6992C51.9563 52.6729 51.9256 52.6474 51.8944 52.6218C51.8835 52.6128 51.872 52.6032 51.8612 52.5943C51.821 52.5623 51.7808 52.5303 51.7399 52.499C51.6748 52.4497 51.6091 52.403 51.5421 52.3576C50.939 51.9483 50.2574 51.6803 49.5465 51.5434C49.4884 51.5319 49.4297 51.5217 49.3716 51.5121C49.1917 51.4827 49.0098 51.4622 48.8279 51.4494C48.5861 51.4322 48.3429 51.4296 48.0998 51.4405C48.094 51.4405 48.0883 51.4411 48.0825 51.4418C47.8451 51.4533 47.6084 51.4776 47.3735 51.5147C47.1329 51.553 46.8949 51.6049 46.6607 51.6694C46.5043 51.7123 46.3499 51.7615 46.198 51.8165C45.8942 51.9259 45.5994 52.0583 45.318 52.2124C45.0365 52.3666 44.7691 52.5425 44.5196 52.7395L44.519 52.7401C44.4832 52.7682 44.4481 52.797 44.413 52.8258C44.4015 52.8354 44.3901 52.845 44.3792 52.8546C44.3556 52.875 44.332 52.8949 44.3084 52.916C44.2956 52.9275 44.2822 52.939 44.2694 52.9505C44.2477 52.9697 44.226 52.9895 44.205 53.0094C44.1916 53.0215 44.1788 53.0337 44.1654 53.0465C44.1437 53.0669 44.1227 53.0874 44.1016 53.1085C44.0895 53.12 44.0773 53.1322 44.0652 53.1443C44.0403 53.1686 44.0161 53.1942 43.9918 53.2191C43.9835 53.2275 43.9759 53.2358 43.9676 53.2441C43.9357 53.2773 43.9044 53.3112 43.8731 53.3458C43.8642 53.3554 43.8559 53.365 43.8476 53.3746C43.8253 53.3995 43.8029 53.4251 43.7812 53.4507C43.7697 53.4641 43.7583 53.4775 43.7468 53.491C43.7276 53.5133 43.7091 53.5357 43.6906 53.5588C43.6785 53.5735 43.667 53.5882 43.6555 53.6022C43.6376 53.6246 43.6198 53.647 43.6025 53.67C43.5911 53.6847 43.5796 53.6995 43.5687 53.7142C43.5502 53.7385 43.5323 53.7634 43.5138 53.7877C43.5043 53.8012 43.4947 53.8139 43.4851 53.8274C43.4583 53.8645 43.4322 53.9022 43.406 53.9406C43.4009 53.9476 43.3964 53.9553 43.3913 53.9623C43.3702 53.9937 43.3492 54.0256 43.3288 54.0576C43.3192 54.0723 43.3096 54.0877 43.3 54.103C43.2847 54.1273 43.2694 54.1523 43.2541 54.1772C43.2439 54.1939 43.2337 54.2111 43.2241 54.2278C43.2101 54.2514 43.1967 54.2751 43.1826 54.2987C43.1724 54.316 43.1628 54.3333 43.1533 54.3512C43.1399 54.3755 43.1265 54.4004 43.1131 54.4247C43.1041 54.4414 43.0952 54.458 43.0863 54.4753C43.0716 54.504 43.0569 54.5328 43.0422 54.5616C43.0358 54.5744 43.0288 54.5872 43.0224 54.6006C43.0027 54.6416 42.9835 54.6825 42.965 54.7234C42.958 54.7394 42.951 54.7554 42.9439 54.772C42.9325 54.7989 42.9203 54.8251 42.9095 54.852C42.9018 54.8705 42.8942 54.8897 42.8865 54.9083C42.8763 54.9326 42.8667 54.9575 42.8572 54.9824C42.8495 55.0016 42.8425 55.0215 42.8348 55.0406C42.8259 55.065 42.8169 55.0899 42.808 55.1148C42.801 55.134 42.794 55.1532 42.7876 55.173C42.7787 55.1993 42.7704 55.2255 42.7614 55.2523C42.7557 55.2703 42.7499 55.2882 42.7442 55.3061C42.7308 55.3489 42.7187 55.3911 42.7065 55.434C42.7027 55.4487 42.6989 55.4634 42.6951 55.4788C42.6874 55.5088 42.6791 55.5389 42.6721 55.5689C42.6676 55.5888 42.6631 55.608 42.6587 55.6278C42.6529 55.6534 42.6472 55.6789 42.6415 55.7045C42.637 55.725 42.6332 55.7455 42.6293 55.7666C42.6242 55.7915 42.6198 55.8171 42.6153 55.842C42.6115 55.8625 42.6083 55.8836 42.6044 55.9041C42.6 55.9303 42.5961 55.9559 42.5929 55.9821C42.5904 56.0019 42.5872 56.0218 42.5847 56.0416C42.5808 56.0716 42.5776 56.1023 42.5744 56.133C42.5725 56.1484 42.5706 56.1637 42.5693 56.1797C43.0295 56.488 43.5636 56.7029 44.1022 56.8487C45.7187 57.2856 47.5305 57.2811 49.1961 56.875C49.609 56.7745 50.0124 56.6492 50.4023 56.4995C50.5248 56.4528 50.6461 56.4036 50.7654 56.3518C51.7323 55.9316 52.5695 55.3444 53.2811 54.6345C53.2817 54.6345 53.2811 54.6345 53.2811 54.6345Z" fill="#427EFC"/>
    </g>
  </g>
  <ellipse cx="96.5" cy="48.8649" rx="6.09474" ry="6.10811" fill="white"/>
  <path fill-rule="evenodd" clip-rule="evenodd" d="M83.506 46.9551C83.9391 46.9551 84.2999 46.6006 84.2999 46.1751C84.2999 45.7497 83.9391 45.3952 83.506 45.3952H83.0729C82.6398 45.3952 82.2788 45.7497 82.2788 46.1751C82.2788 46.6006 82.6398 46.9551 83.0729 46.9551H83.506ZM99.8911 56.3863C104.005 54.5426 105.738 49.8625 103.861 45.9624C102.562 43.1969 99.819 41.566 96.9317 41.4241H88.7752C88.0534 41.4241 87.548 41.9915 87.548 42.6297C87.548 43.3387 88.1256 43.8351 88.7752 43.8351H90.8684C91.3015 43.8351 91.6624 44.1896 91.6624 44.615C91.6624 45.0405 91.3015 45.3952 90.8684 45.3952H85.7436C85.3105 45.3952 84.9495 45.7497 84.9495 46.1751C84.9495 46.6006 85.3105 46.9551 85.7436 46.9551H89.4249C89.858 46.9551 90.2188 47.3098 90.2188 47.7352C90.2188 48.1607 89.858 48.5152 89.4249 48.5152H87.115C86.6819 48.5152 86.321 48.8697 86.321 49.2951C86.321 49.7206 86.6819 50.0753 87.115 50.0753H88.703C88.7752 50.9262 88.9918 51.7771 89.3526 52.5571C91.1572 56.4572 95.9212 58.1591 99.8911 56.3863ZM92.5038 51.1044C91.4557 48.8622 92.4565 46.2098 94.7388 45.1802C97.0212 44.1506 99.7211 45.1337 100.769 47.3759C101.817 49.6181 100.817 52.2705 98.5341 53.3001C96.2517 54.3297 93.5518 53.3465 92.5038 51.1044Z" fill="#4F5D7F"/>
  <path d="M98.3429 46.693L99.7865 49.1041C99.8587 49.2458 99.8587 49.3168 99.7865 49.4586L98.3429 51.8696C98.2707 52.0113 98.1264 52.0113 98.0541 52.0113H95.239C95.0947 52.0113 95.0225 51.9404 94.9504 51.8696L93.5067 49.4586C93.4346 49.3168 93.4346 49.2458 93.5067 49.1041L94.9504 46.693C95.0225 46.5513 95.167 46.5513 95.239 46.5513H98.0541C98.1986 46.4803 98.2707 46.5513 98.3429 46.693Z" fill="#C5CEDD"/>
  <path fill-rule="evenodd" clip-rule="evenodd" d="M112.689 40.6487H126.659C126.777 40.6487 126.874 40.7486 126.874 40.8717V50.8504C126.874 50.9201 126.843 50.9846 126.79 51.027L119.805 56.6023C119.766 56.6335 119.72 56.6487 119.674 56.6487C119.627 56.6487 119.581 56.6335 119.542 56.6023L112.557 51.027C112.505 50.9846 112.474 50.9201 112.474 50.8504V40.8717C112.474 40.7486 112.57 40.6487 112.689 40.6487ZM120.713 47.9458L124.905 45.184C125.011 45.1141 125.139 45.2302 125.081 45.3432L123.342 48.7657C123.301 48.8479 123.361 48.9445 123.452 48.9445H124.493C124.612 48.9445 124.662 49.0976 124.564 49.1674L119.865 52.5447C119.823 52.5755 119.765 52.5755 119.722 52.5447L115.022 49.1674C114.926 49.0976 114.975 48.9445 115.094 48.9445H116.134C116.226 48.9445 116.285 48.8479 116.243 48.7657L114.505 45.3422C114.448 45.2302 114.576 45.1152 114.681 45.184L118.875 47.9458C118.948 47.9941 119.006 48.0598 119.045 48.1379L119.684 49.4243C119.729 49.5147 119.858 49.5147 119.903 49.4243L120.543 48.1379C120.582 48.0598 120.64 47.9931 120.713 47.9458Z" fill="#9C84EF"/>
  <path d="M150.666 39.2869C150.666 39.2869 158.338 44.5231 155.423 51.8756C152.507 59.228 146.709 57.1885 148.876 55.0403C151.043 52.8921 146.319 51.4344 143.294 48.6469L150.66 39.2869" fill="#43B581"/>
  <path d="M150.2 46.4858C148.582 48.5445 146.3 49.5739 144.535 49.2031L138.378 57.0478C138.274 57.1802 138.146 57.2908 137.999 57.3733C137.853 57.4559 137.692 57.5088 137.525 57.529C137.358 57.5492 137.189 57.5363 137.027 57.491C136.865 57.4457 136.714 57.369 136.581 57.2652C136.448 57.162 136.336 57.0333 136.252 56.8866C136.168 56.7399 136.115 56.578 136.094 56.4104C136.073 56.2427 136.086 56.0726 136.131 55.9099C136.176 55.7472 136.253 55.595 136.358 55.4622L142.483 47.6303C141.671 46.0063 142.118 43.5193 143.761 41.4414C145.801 38.8585 148.876 37.8931 150.66 39.2868C152.444 40.6806 152.226 43.9029 150.2 46.4858Z" fill="#B4E1CD"/>
  <defs>
    <clipPath id="clip0">
      <rect width="48.7579" height="48.8649" fill="white" transform="translate(16.2524 16.2883)"/>
    </clipPath>
  </defs>
</svg>
