<svg width="134" height="93" viewBox="0 0 134 93" fill="none" xmlns="http://www.w3.org/2000/svg">
<g clip-path="url(#clip0_826_55170)">
<path d="M64.9564 48.5593C65.0681 49.0908 69.1618 52.5264 65.6373 56.2225L60.296 53.871L59.498 49.298L64.9564 48.5593Z" fill="#29CC7A"/>
<path d="M54.6786 35.34C54.9446 35.5207 62.4086 35.6402 64.103 41.2521C65.0047 44.2361 65.965 46.7232 66.9173 48.0199C67.0508 48.2012 67.1361 48.4135 67.165 48.6367C67.1939 48.86 67.1655 49.0869 67.0826 49.2963C66.9996 49.5056 66.8647 49.6904 66.6907 49.8334C66.5166 49.9764 66.309 50.0728 66.0874 50.1137L52.2793 52.6433L54.6786 35.34Z" fill="#808AFF"/>
<path d="M72.7488 49.4468C72.7488 49.4468 72.1184 63.7741 83.1893 67.0371L93.6218 62.868C93.6218 62.868 95.5157 62.9185 91.8635 59.6635C88.4481 56.6211 82.0668 61.2179 81.8353 52.6725L72.7488 49.4468Z" fill="#3F99F2"/>
<path d="M27.4519 12.996C27.4519 12.996 23.6109 13.0784 20.5998 9.21757C18.5622 6.6056 17.7828 15.5947 23.2598 17.2368L27.4519 12.996Z" fill="#FFC619"/>
<path d="M41.543 13.9527C41.543 13.9527 45.267 13.0492 47.1928 8.54272C48.4882 5.49498 51.5579 13.9872 46.6954 16.9738L41.543 13.9527Z" fill="#FFC619"/>
<path d="M103.038 38.324C108.358 40.5161 113.537 47.5522 110.547 56.0498C107.557 64.5473 112.074 68.2726 112.074 68.2726C117.79 61.2551 129.098 63.4047 129.744 68.1876C130.183 71.3948 128.087 72.3221 126.456 72.5666C125.906 72.6501 125.39 72.8905 124.973 73.2591C124.555 73.6276 124.253 74.1086 124.102 74.6445L121.868 82.6159C121.351 84.4566 120.245 86.0779 118.72 87.233C117.195 88.3881 115.334 89.0136 113.42 89.0143H91.1449C89.2793 89.0158 87.4497 88.5015 85.8586 87.5284C84.2675 86.5553 82.9771 85.1613 82.1302 83.5007C81.5184 82.3023 80.8002 80.8914 79.9623 79.2493C76.4059 72.2557 77.3023 67.2629 85.1839 64.0425C93.0654 60.822 92.2967 52.3882 92.2967 52.3882C92.2967 52.3882 87.6816 52.6539 87.9503 44.8924C88.1498 39.1822 90.9428 38.4515 90.9428 38.4515L103.038 38.324Z" fill="url(#paint0_linear_826_55170)"/>
<path d="M27.3662 37.7819L25.983 37.6091C25.1627 37.5069 24.3755 37.2232 23.6789 36.7787C22.9822 36.3342 22.3935 35.7401 21.9557 35.0397L17.0188 27.1373C16.3392 26.0545 16.0663 24.7659 16.2484 23.5009C16.4306 22.2359 17.0561 21.0764 18.0136 20.2288L29.9304 9.66398C31.4866 8.28474 33.5232 7.57191 35.6008 7.67929C37.6784 7.78666 39.6305 8.70563 41.0359 10.2379L50.0932 20.1119C51.138 21.2493 51.8473 22.6534 52.1426 24.1686C52.4379 25.6839 52.3077 27.2512 51.7663 28.6971L50.7954 31.3091C50.3274 32.5659 49.401 33.5996 48.2019 34.2027L47.5396 34.5428L55.8069 37.7952L40.1501 50.4325L23.1793 40.0086L27.3662 37.7819Z" fill="url(#paint1_linear_826_55170)"/>
<path d="M23.32 39.1742L40.6313 44.4433C41.2685 44.6365 41.9463 44.6532 42.5923 44.4918C43.2383 44.3303 43.8283 43.9968 44.2994 43.5266C45.8768 41.9616 48.2415 39.2885 49.8455 35.7678C49.9621 35.5438 50.1413 35.3585 50.3614 35.2344C50.5814 35.1103 50.8329 35.0528 51.0851 35.0689C52.8665 35.2615 54.6048 35.7416 56.2322 36.4905C57.5489 36.0893 60.9191 42.501 60.7542 51.9577C65.4996 57.4607 64.8719 64.3639 64.8719 64.3639L39.7428 82.4325L27.5361 71.5834L28.3341 55.2048L19.979 41.8818C19.8575 41.689 19.8157 41.4566 19.8624 41.2336C19.909 41.0105 20.0405 40.8143 20.2291 40.6861L22.381 39.2114C22.5183 39.1179 22.6791 39.0648 22.8452 39.0582C23.0112 39.0516 23.1757 39.0918 23.32 39.1742Z" fill="url(#paint2_linear_826_55170)"/>
<path d="M28.608 23.2128C28.608 23.2128 41.5676 24.7061 47.2573 21.8577C47.2573 21.8577 42.7353 31.5775 37.2743 31.9708C33.2418 32.2604 28.3926 24.18 28.3926 24.18L28.608 23.2128Z" fill="white"/>
<path d="M41.5995 19.8728C41.6971 19.4321 41.747 18.9823 41.7485 18.5309C41.7485 15.7967 40.0009 13.5807 37.8436 13.5807C35.6864 13.5807 33.9414 15.7967 33.9414 18.5309C33.9416 18.9823 33.9915 19.4323 34.0904 19.8728H41.5995Z" fill="white"/>
<path d="M41.7477 18.5309C41.7522 17.7343 41.5976 16.9447 41.2928 16.2085C41.0166 16.0206 40.6907 15.9189 40.3565 15.9163C39.1835 15.9163 38.2285 17.1811 38.2285 18.7435C38.2281 19.1241 38.2873 19.5025 38.4041 19.8648H41.5961C41.694 19.4268 41.7448 18.9796 41.7477 18.5309V18.5309Z" fill="black"/>
<path d="M36.8193 38.316C35.9909 38.3387 35.1632 38.2493 34.3588 38.0503C34.3029 38.0222 34.2557 37.9794 34.2225 37.9264C34.1892 37.8735 34.171 37.8125 34.1699 37.75C34.1699 37.6619 34.205 37.5775 34.2673 37.5152C34.3297 37.4529 34.4142 37.4179 34.5024 37.4179C34.5553 37.4176 34.6074 37.4303 34.654 37.4551C35.1249 37.5933 38.9366 38.1592 41.2907 36.4374C41.3616 36.395 41.4457 36.3805 41.5266 36.3967C41.6076 36.4129 41.6796 36.4585 41.7288 36.5248C41.7779 36.5911 41.8005 36.6733 41.7923 36.7554C41.7841 36.8374 41.7457 36.9135 41.6844 36.9688C40.2081 38.045 38.3142 38.316 36.8193 38.316ZM34.795 37.5747C34.8204 37.6231 34.834 37.6768 34.8349 37.7314C34.8337 37.6794 34.82 37.6283 34.795 37.5826V37.5747Z" fill="#231F20"/>
<path d="M42.123 78.5053L47.7223 74.9314C52.6907 71.759 57.0814 67.7639 60.7058 63.1177L65.6428 56.7858L75.7774 60.0328C75.7774 60.0328 85.215 79.2785 49.2385 84.2128L42.123 78.5053Z" fill="#0C1AAD"/>
<path d="M45.8496 89.0568H72.2661C72.7153 89.0576 73.1568 88.9396 73.5455 88.7146C73.9343 88.4896 74.2564 88.1658 74.4792 87.7761C76.663 83.9259 81.8314 73.09 67.0578 78.7657C51.8293 84.6114 49.1214 82.8497 49.1214 82.8497L45.8496 89.0568Z" fill="#FF78B9"/>
<path d="M63.9652 64.2789C66.1251 65.1027 66.9444 63.5668 66.9444 63.5668L71.352 64.813C71.8307 64.932 72.3325 64.9208 72.8054 64.7806C73.2783 64.6404 73.705 64.3764 74.0413 64.0159C75.9645 62.0204 79.0368 57.8805 73.7008 53.9745C68.6016 50.2545 60.8291 52.0428 61.3318 56.536C61.4618 57.8088 61.6742 59.0718 61.9676 60.3171C62.3054 61.6935 62.4065 63.6811 63.9652 64.2789Z" fill="#57F287"/>
<path d="M102.772 63.8299C102.705 65.4029 102.609 68.4453 102.636 72.5161C101.122 73.199 98.6274 74.0918 99.1381 78.5292C99.2736 79.7053 99.8156 80.7973 100.671 81.6171C101.526 82.4368 102.64 82.9329 103.822 83.0198L110.454 83.506C110.913 83.5395 111.374 83.4774 111.808 83.3238C112.242 83.1701 112.639 82.9281 112.975 82.6132C113.31 82.2983 113.577 81.9172 113.757 81.4942C113.938 81.0711 114.028 80.6152 114.023 80.1554L113.933 72.0644C113.92 70.0115 113.574 67.9743 112.906 66.0326C112.231 64.0982 111.143 62.031 109.448 61.093C109.448 61.093 106.81 59.3021 104.517 60.737C103.997 61.0726 103.566 61.5295 103.262 62.0683C102.958 62.6071 102.79 63.2117 102.772 63.8299V63.8299Z" fill="url(#paint3_linear_826_55170)"/>
<path d="M72.123 40.176C72.123 40.176 74.517 35.9671 83.2445 36.4294C83.3973 36.4364 83.5469 36.4756 83.6834 36.5445C83.8199 36.6134 83.9403 36.7104 84.0366 36.8292C84.1328 36.9479 84.2028 37.0857 84.2419 37.2334C84.2809 37.3812 84.2882 37.5355 84.2633 37.6862C84.0505 38.8501 82.8721 40.4497 80.7202 41.6533L72.123 40.176Z" fill="#3F99F2"/>
<path d="M105.463 43.1945C105.878 45.9977 104.7 47.1563 103.085 47.3954C101.471 47.6345 100.032 46.864 99.6273 44.0554C99.223 41.2468 100.901 37.0511 100.901 37.0511C100.901 37.0511 105.038 40.3885 105.463 43.1945Z" fill="white"/>
<path d="M102.222 41.773C102.222 39.9688 101.408 38.5047 100.397 38.4755C99.9367 39.9502 99.3569 42.2831 99.6175 44.0555C99.6619 44.3453 99.7214 44.6327 99.7958 44.9164C99.9689 45.0191 100.166 45.0741 100.368 45.0758C101.392 45.0758 102.222 43.5984 102.222 41.773Z" fill="black"/>
<path d="M78.0488 73.6028C78.2616 75.3167 78.9186 77.1926 79.9614 79.2439C80.7966 80.8887 81.5175 82.2996 82.1293 83.4953C82.9754 85.1569 84.2655 86.552 85.8567 87.5261C87.4478 88.5002 89.2778 89.0152 91.144 89.0142H104.21C103.412 88.605 102.853 88.1108 102.601 87.5182C101.428 84.7761 99.6028 85.0577 98.4377 85.6184C98.3162 85.6772 98.1826 85.7069 98.0475 85.7052C97.9125 85.7035 97.7797 85.6704 97.6596 85.6085C97.5396 85.5466 97.4357 85.4577 97.356 85.3487C97.2764 85.2397 97.2233 85.1137 97.2008 84.9807C96.9348 83.3731 96.0969 80.902 93.5779 80.8621C87.9626 80.7718 91.1839 75.88 91.2983 75.5717C91.4127 75.2635 94.3599 69.7765 89.1437 68.068C83.2837 66.1628 79.6289 70.8527 78.0488 73.6028Z" fill="#8CD9FF"/>
<path d="M129.034 71.3098C128.155 71.4858 127.241 71.3113 126.489 70.8235C126.489 70.8235 124.925 69.402 123.563 70.2018C122.352 70.9165 121.828 73.7172 121.608 75.7818C121.538 76.3794 121.329 76.9523 120.997 77.4541C120.664 77.9558 120.219 78.3724 119.695 78.6701C117.33 80.0465 117.009 83.3041 117.009 83.3041C116.743 86.5352 115.133 88.1906 113.346 89.025H113.42C115.334 89.0241 117.196 88.3982 118.721 87.2426C120.246 86.087 121.351 84.4651 121.868 82.6239L124.103 74.6525C124.254 74.1166 124.556 73.6356 124.973 73.2671C125.391 72.8985 125.906 72.6581 126.457 72.5746C127.34 72.4284 128.353 72.0936 129.034 71.3098Z" fill="#8CD9FF"/>
<path d="M94.2088 78.5454C94.6921 77.6788 94.4867 76.6439 93.75 76.234C93.0133 75.8241 92.0244 76.1943 91.5411 77.0609C91.0578 77.9276 91.2632 78.9624 91.9999 79.3724C92.7365 79.7823 93.7255 79.412 94.2088 78.5454Z" fill="#8CD9FF"/>
<path d="M119.163 77.0624C119.896 77.0624 120.491 76.2166 120.491 75.1732C120.491 74.1298 119.896 73.2839 119.163 73.2839C118.43 73.2839 117.836 74.1298 117.836 75.1732C117.836 76.2166 118.43 77.0624 119.163 77.0624Z" fill="#8CD9FF"/>
<path d="M120.546 72.6675C120.897 72.6675 121.182 72.3261 121.182 71.9049C121.182 71.4838 120.897 71.1423 120.546 71.1423C120.195 71.1423 119.91 71.4838 119.91 71.9049C119.91 72.3261 120.195 72.6675 120.546 72.6675Z" fill="#8CD9FF"/>
<path d="M74.7885 30.9081L72.2754 31.2783L73.6311 40.4604L76.1442 40.0901L74.7885 30.9081Z" fill="#FFC069"/>
<path d="M80.4389 30.0746L77.9258 30.4448L79.2815 39.6269L81.7946 39.2566L80.4389 30.0746Z" fill="#FFC069"/>
<path d="M6.23513 68.8678C9.04941 65.3418 13.981 64.2843 18.0748 66.1868C20.9176 67.5398 23.5556 69.2859 25.9111 71.3735C31.8163 76.5098 46.4596 77.1183 52.7186 77.1316C52.9923 77.1328 53.2603 77.209 53.4936 77.3519C53.7269 77.4948 53.9164 77.699 54.0415 77.9421C54.1666 78.1852 54.2225 78.458 54.2032 78.7306C54.1838 79.0033 54.0898 79.2654 53.9316 79.4884L47.1566 89.0542H27.9753C21.9751 89.0705 16.1421 87.08 11.4062 83.3998C6.42665 79.5044 2.05893 74.1051 6.23513 68.8678Z" fill="url(#paint4_linear_826_55170)"/>
<path d="M26.0095 27.4084C25.9536 27.4089 25.8985 27.395 25.8496 27.368C25.8006 27.341 25.7595 27.3018 25.7302 27.2543C25.7061 27.218 25.6895 27.1772 25.6815 27.1344C25.6734 27.0917 25.6739 27.0477 25.6831 27.0051C25.6923 26.9625 25.7099 26.9222 25.7349 26.8865C25.7598 26.8508 25.7917 26.8205 25.8286 26.7973C27.5709 25.6786 28.3875 24.1401 28.2519 22.1978C28.1809 21.2858 27.9314 20.3965 27.5177 19.5805C27.4747 19.5033 27.4641 19.4122 27.4883 19.3273C27.5125 19.2423 27.5695 19.1704 27.6467 19.1274C27.724 19.0844 27.8151 19.0739 27.9002 19.098C27.9853 19.1222 28.0572 19.1791 28.1002 19.2563C28.1268 19.3068 30.864 24.358 26.1877 27.3553C26.1344 27.3893 26.0727 27.4077 26.0095 27.4084V27.4084Z" fill="#231F20"/>
<path d="M33.0428 23.537L32.3645 23.5051C32.5161 24.6504 32.6943 27.0471 31.9043 28.8327C32.0657 29.0098 32.2306 29.1799 32.3991 29.3429C33.362 27.4271 33.2183 24.847 33.0428 23.537Z" fill="#231F20"/>
<path d="M37.541 31.9362C37.8109 31.9019 38.0777 31.8468 38.339 31.7714C39.7861 28.3623 39.2142 25.0622 38.8019 23.5343L38.1156 23.5609C38.5146 24.9771 39.1876 28.4766 37.541 31.9362Z" fill="#231F20"/>
<path d="M43.275 28.0834C43.5596 27.7486 43.831 27.4032 44.089 27.0604C44.1614 25.6869 43.9203 24.3149 43.3841 23.0481C43.158 23.088 42.9319 23.1278 42.7031 23.1624C43.1048 24.087 43.7299 25.9842 43.275 28.0834Z" fill="#231F20"/>
<path d="M46.416 51.5831C46.416 51.5831 48.012 49.678 50.2943 49.0721C51.6802 48.7028 53.614 47.0846 54.6195 46.2423C54.6922 46.1813 54.7796 46.1404 54.873 46.1235C54.9664 46.1067 55.0626 46.1145 55.1521 46.1461C55.2415 46.1778 55.3212 46.2323 55.3831 46.3041C55.4451 46.376 55.4872 46.4627 55.5052 46.5558C55.7207 47.6452 55.8431 49.5292 54.5955 50.9109L46.416 51.5831Z" fill="#29CC7A"/>
<path d="M57.0628 44.6252L53.6191 44.1289L52.2353 53.7097L55.679 54.206L57.0628 44.6252Z" fill="#FFC069"/>
<path d="M57.1022 46.4574L53.1973 45.8968C52.5456 45.8021 51.9581 45.4528 51.5641 44.9257C51.17 44.3985 51.0016 43.7366 51.0959 43.0855L53.4341 26.9168C53.5132 26.3641 53.7777 25.8545 54.1842 25.4713L55.3386 24.3792C55.748 23.9904 56.2402 23.6993 56.7784 23.5278C57.3166 23.3564 57.8867 23.309 58.4459 23.3893C59.005 23.4696 59.5386 23.6755 60.0067 23.9915C60.4747 24.3074 60.8649 24.7253 61.1481 25.2136L61.9461 26.5873C62.2261 27.0688 62.3357 27.6303 62.2573 28.1816L59.9218 44.3503C59.8762 44.6741 59.7669 44.9856 59.6003 45.267C59.4337 45.5484 59.213 45.7941 58.9509 45.9899C58.6888 46.1858 58.3906 46.3279 58.0733 46.4081C57.756 46.4884 57.426 46.5051 57.1022 46.4574V46.4574Z" fill="url(#paint5_linear_826_55170)"/>
<path d="M57.4239 34.3355C57.4239 34.3355 58.5916 34.2425 59.0412 32.441C59.3364 31.2506 60.717 31.0354 61.7384 31.7555L62.2545 28.1896C62.3329 27.6383 62.2233 27.0767 61.9432 26.5953L61.1452 25.2215C60.862 24.7341 60.472 24.3171 60.0044 24.0018C59.5368 23.6864 59.0038 23.4809 58.4454 23.4006C57.887 23.3203 57.3176 23.3674 56.78 23.5383C56.2424 23.7091 55.7505 23.9994 55.3411 24.3872L54.1867 25.4793C53.7808 25.8601 53.5155 26.3666 53.4339 26.9168L52.5508 33.0282C52.9451 32.8848 53.3261 32.707 53.6893 32.4968C57.1579 30.5013 55.1602 34.6916 57.4239 34.3355Z" fill="url(#paint6_linear_826_55170)"/>
<path d="M56.0462 39.5462C56.0462 39.5462 55.195 39.3257 55.1444 37.4205C55.1045 35.9591 53.3383 35.4223 52.0642 36.3762L51.0959 43.0935C51.0016 43.7446 51.17 44.4065 51.5641 44.9337C51.9581 45.4608 52.5456 45.8101 53.1973 45.9048L57.1022 46.4654C57.4248 46.512 57.7534 46.4947 58.0693 46.4145C58.3852 46.3342 58.6822 46.1925 58.9433 45.9976C59.2044 45.8027 59.4245 45.5583 59.591 45.2784C59.7575 44.9985 59.8672 44.6885 59.9138 44.3663L60.6719 39.1237C58.629 37.4232 58.1822 40.2291 56.0462 39.5462Z" fill="white"/>
<path d="M59.0363 32.4411C58.5921 33.9876 57.4589 33.7697 57.4589 33.7697C55.7113 33.4269 57.1451 30.4987 53.6871 32.481C53.3239 32.6911 52.9429 32.8689 52.5486 33.0124L52.0645 36.3551C53.3386 35.4012 55.1048 35.9379 55.1447 37.3993C55.1953 39.3125 56.0465 39.525 56.0465 39.525C58.1745 40.2079 58.5841 37.7448 60.627 39.4374L61.7336 31.7316C60.7121 31.0355 59.3741 31.2613 59.0363 32.4411Z" fill="#8CD9FF"/>
<path d="M15.7129 59.5199L27.1004 53.2571L32.6864 62.0256L42.382 55.5342C43.4838 54.7527 44.4628 53.8115 45.2868 52.7416C46.4279 51.2828 48.7288 49.2873 52.4182 50.1083C55.9135 50.9055 56.7514 49.4148 57.8047 49.2979C60.8877 48.9551 60.4647 52.8027 59.0948 53.6849C58.9592 58.481 55.8656 64.9751 46.3029 61.5739L30.4679 75.4628C29.7543 76.0888 28.8308 76.4233 27.8814 76.3997C26.9319 76.3761 26.0263 75.996 25.3448 75.3353C22.1421 72.253 16.9924 66.3807 15.7129 59.5199Z" fill="#57F287"/>
<path d="M20.142 42.0706C19.9638 42.3655 13.0558 46.0961 13.8831 52.4068C14.2473 54.9534 14.1808 57.5429 13.6862 60.0674C13.6351 60.3063 13.6455 60.5543 13.7166 60.7881C13.7876 61.0219 13.9169 61.2339 14.0924 61.4041C14.2678 61.5743 14.4837 61.6973 14.7197 61.7614C14.9558 61.8255 15.2042 61.8287 15.4418 61.7706C15.4418 61.7706 25.486 62.3499 30.2367 58.1277C30.25 50.0101 20.142 42.0706 20.142 42.0706Z" fill="#808AFF"/>
<path d="M73.8449 38.3797C72.8379 38.72 71.9751 39.3895 71.3959 40.28C70.8167 41.1705 70.555 42.2301 70.6529 43.2875C70.9455 46.4761 71.9829 51.0968 75.4063 52.638C80.8088 55.0639 82.466 55.2154 83.405 53.8071C83.9077 53.0551 82.4234 51.3599 80.9365 49.9489C80.8048 49.825 80.7181 49.6609 80.6899 49.4824C80.6617 49.3039 80.6937 49.1212 80.7807 48.9628C80.8678 48.8044 81.005 48.6793 81.1709 48.6072C81.3368 48.5352 81.5219 48.5202 81.6972 48.5646L83.7534 49.096C83.9647 49.1516 84.1856 49.1601 84.4005 49.1207C84.6153 49.0814 84.8189 48.9952 84.9967 48.8684C85.1744 48.7415 85.322 48.5771 85.429 48.3869C85.5359 48.1966 85.5996 47.9851 85.6154 47.7674C85.7883 45.1741 85.4771 40.4257 81.245 38.6455C78.8981 37.6369 76.2583 37.5422 73.8449 38.3797Z" fill="#66BCFF"/>
<path d="M96.457 33.9424C96.457 33.9424 98.9016 29.117 104.216 29.8477C109.531 30.5785 108.435 30.4297 112.356 29.3163C116.277 28.203 121.11 31.9522 119.035 38.5977C116.96 45.2432 113.327 46.7259 113.327 46.7259C113.327 46.7259 115.412 35.8715 96.457 33.9424Z" fill="#FF78B9"/>
<path d="M88.4827 41.5789C88.4827 41.5789 84.2267 36.2009 95.529 33.4799C106.831 30.759 117.458 41.3132 114.801 48.4822C112.88 53.6609 111.861 53.4696 111.444 52.9648C111.294 52.7779 111.214 52.545 111.218 52.3058C111.218 50.6717 110.515 40.6622 93.0712 38.6561C92.0996 38.5396 91.1173 38.7586 90.2874 39.2767C89.4576 39.7949 88.8301 40.581 88.5093 41.5045C88.5013 41.5284 88.4907 41.5523 88.4827 41.5789Z" fill="#EB459F"/>
<path d="M77.7179 13.1662C76.8101 13.2956 75.9741 13.7315 75.3488 14.4016C74.7235 15.0716 74.3468 15.9353 74.2812 16.849C73.955 15.996 73.3474 15.2797 72.5586 14.8183C71.7698 14.357 70.847 14.1781 69.9428 14.3114V14.3114C68.8894 14.4677 67.941 15.035 67.3058 15.8887C66.6705 16.7425 66.4001 17.8131 66.5539 18.8658L68.509 32.0957C68.5615 32.4275 68.7429 32.7252 69.0138 32.9242C69.2848 33.1232 69.6233 33.2074 69.9561 33.1585L75.3213 32.3348C75.5972 32.2926 75.8524 32.1633 76.0496 31.9659C76.2468 31.7684 76.3756 31.5132 76.4172 31.2374V31.1816L76.473 31.2932C76.5994 31.5327 76.7969 31.7271 77.0384 31.8499C77.2799 31.9727 77.5535 32.0177 77.8217 31.9788L83.1284 31.2135C83.463 31.1642 83.7644 30.9844 83.9663 30.7134C84.1683 30.4423 84.2544 30.1024 84.2057 29.768L82.2665 16.6497C82.117 15.5893 81.5564 14.63 80.7056 13.9784C79.8549 13.3269 78.7819 13.0352 77.7179 13.1662Z" fill="url(#paint7_linear_826_55170)"/>
<path d="M78.3932 27.0763C78.2349 27.0758 78.082 27.0192 77.9617 26.9165C77.8413 26.8138 77.7614 26.6718 77.7362 26.5157L76.7786 20.5265C76.7596 20.4383 76.7587 20.3472 76.7761 20.2586C76.7935 20.1701 76.8288 20.086 76.8798 20.0116C76.9307 19.9371 76.9964 19.8738 77.0727 19.8255C77.1489 19.7772 77.2343 19.7449 77.3234 19.7307C77.4126 19.7164 77.5038 19.7204 77.5913 19.7425C77.6789 19.7645 77.7611 19.8042 77.8328 19.859C77.9045 19.9138 77.9643 19.9827 78.0085 20.0614C78.0527 20.14 78.0805 20.2269 78.09 20.3166L79.0502 26.3058C79.0643 26.392 79.0612 26.4801 79.0411 26.5651C79.021 26.6501 78.9844 26.7303 78.9332 26.8011C78.8821 26.872 78.8175 26.932 78.7431 26.9779C78.6686 27.0237 78.5859 27.0545 78.4996 27.0684L78.3932 27.0763Z" fill="#FF78B9"/>
<path d="M80.6413 24.629C80.4832 24.6292 80.3303 24.5731 80.2099 24.4709C80.0895 24.3686 80.0095 24.2269 79.9842 24.071L79.024 18.0686C78.9961 17.8945 79.0386 17.7165 79.1421 17.5737C79.2456 17.431 79.4017 17.3351 79.5759 17.3073C79.7502 17.2795 79.9284 17.3219 80.0713 17.4253C80.2142 17.5287 80.3102 17.6846 80.338 17.8586L81.2983 23.8505C81.3119 23.9367 81.3084 24.0247 81.288 24.1096C81.2676 24.1944 81.2306 24.2744 81.1792 24.345C81.1279 24.4156 81.0631 24.4753 80.9886 24.5209C80.914 24.5664 80.8313 24.5969 80.745 24.6104C80.7109 24.6193 80.6763 24.6255 80.6413 24.629V24.629Z" fill="#FF78B9"/>
<path d="M70.9108 28.644C70.7525 28.6435 70.5996 28.5868 70.4792 28.4841C70.3589 28.3814 70.279 28.2394 70.2538 28.0833L69.2962 22.0941C69.2771 22.0059 69.2763 21.9148 69.2937 21.8263C69.3111 21.7377 69.3464 21.6537 69.3973 21.5792C69.4483 21.5047 69.514 21.4414 69.5902 21.3931C69.6665 21.3448 69.7519 21.3126 69.841 21.2983C69.9302 21.284 70.0214 21.288 70.1089 21.3101C70.1965 21.3322 70.2786 21.3718 70.3504 21.4267C70.4221 21.4815 70.4819 21.5503 70.5261 21.629C70.5703 21.7076 70.598 21.7945 70.6075 21.8842L71.5678 27.8734C71.5819 27.9596 71.5788 28.0477 71.5587 28.1327C71.5386 28.2177 71.5019 28.2979 71.4508 28.3688C71.3997 28.4396 71.335 28.4996 71.2606 28.5455C71.1862 28.5914 71.1035 28.6221 71.0172 28.636L70.9108 28.644Z" fill="#FF78B9"/>
<path d="M73.1588 26.1968C73.0008 26.1969 72.8479 26.1409 72.7275 26.0386C72.6071 25.9364 72.5271 25.7946 72.5018 25.6388L71.5416 19.6469C71.5137 19.4729 71.5562 19.2949 71.6597 19.1521C71.7632 19.0093 71.9192 18.9135 72.0935 18.8857C72.2678 18.8578 72.4459 18.9003 72.5889 19.0037C72.7318 19.1071 72.8277 19.263 72.8556 19.437L73.8159 25.4289C73.8295 25.5151 73.826 25.6031 73.8056 25.6879C73.7852 25.7728 73.7482 25.8528 73.6968 25.9234C73.6454 25.9939 73.5806 26.0537 73.5061 26.0992C73.4316 26.1448 73.3489 26.1752 73.2626 26.1888C73.2282 26.1941 73.1936 26.1968 73.1588 26.1968V26.1968Z" fill="#FF78B9"/>
<path d="M72.5484 77.2325C71.136 77.4106 69.3351 77.8889 67.0582 78.7657C63.6939 80.0942 60.2549 81.2254 56.7587 82.1536L53.0586 89.0621H71.3115C75.5356 81.4175 73.6656 78.2848 72.5484 77.2325Z" fill="#FF78B9"/>
<path d="M72.5494 77.2325C73.6666 78.2953 75.5366 81.4175 71.3125 89.0568H72.2674C72.7167 89.0576 73.1582 88.9395 73.5469 88.7146C73.9357 88.4896 74.2578 88.1658 74.4806 87.776C76.3266 84.521 80.3006 76.26 72.5494 77.2325Z" fill="#EB459F"/>
<path d="M36.2288 59.6661L32.7016 62.031L32.3931 61.5501L27.2008 65.1452C27.1423 65.1853 27.0982 65.2432 27.0749 65.3102C27.0517 65.3772 27.0506 65.4499 27.0717 65.5176C27.0928 65.5853 27.135 65.6445 27.1922 65.6865C27.2495 65.7285 27.3186 65.7511 27.3896 65.751C27.4579 65.7513 27.5247 65.7309 27.5811 65.6925L36.1437 59.7645C36.1777 59.737 36.2066 59.7037 36.2288 59.6661V59.6661Z" fill="#29CC7A"/>
<path d="M53.0917 55.7335C53.1556 55.7335 53.5466 55.7814 54.1265 55.7814C55.3421 55.7814 57.3903 55.598 59.0395 54.5431C59.0687 54.2562 59.0874 53.9719 59.0953 53.6929C59.232 53.6011 59.354 53.4891 59.4571 53.3607C57.2626 55.505 53.3737 55.0958 53.1689 55.0719C53.081 55.0617 52.9927 55.0868 52.9234 55.1416C52.854 55.1964 52.8093 55.2765 52.7991 55.3642C52.7889 55.4519 52.814 55.5401 52.8688 55.6094C52.9237 55.6787 53.0039 55.7233 53.0917 55.7335V55.7335Z" fill="#29CC7A"/>
<path d="M57.9933 58.3323C55.3093 59.4297 51.3699 58.8398 51.3193 58.8318C51.2334 58.821 51.1467 58.8441 51.0775 58.8962C51.0084 58.9483 50.9623 59.0254 50.9492 59.1109C50.936 59.1964 50.9568 59.2836 51.007 59.3541C51.0573 59.4245 51.1331 59.4726 51.2183 59.4881C52.0835 59.6112 52.9565 59.6716 53.8304 59.6688C55.0696 59.6863 56.3051 59.5307 57.5012 59.2065C57.6822 58.9249 57.8465 58.633 57.9933 58.3323V58.3323Z" fill="#29CC7A"/>
<path d="M67.9399 57.7637C67.924 57.677 67.8743 57.6002 67.8018 57.5501C67.7292 57.5 67.6397 57.4808 67.5529 57.4966C67.4661 57.5125 67.3892 57.5621 67.3391 57.6346C67.2889 57.7071 67.2697 57.7966 67.2856 57.8832C67.2856 57.9204 67.8176 60.9204 66.8945 63.6439C66.9128 63.6192 66.9297 63.5935 66.9451 63.5669L67.5675 63.7423C68.4905 60.9124 67.9692 57.9258 67.9399 57.7637Z" fill="#29CC7A"/>
<path d="M72.1316 58.3481C72.1158 58.2615 72.0661 58.1846 71.9935 58.1346C71.9209 58.0845 71.8314 58.0653 71.7446 58.0811C71.6578 58.097 71.5809 58.1466 71.5308 58.2191C71.4806 58.2916 71.4614 58.381 71.4773 58.4677C71.4773 58.5076 72.0651 61.8529 70.916 64.6908L71.3523 64.813C71.4267 64.8316 71.4986 64.8422 71.573 64.8555C72.7514 61.8795 72.1636 58.5209 72.1316 58.3481Z" fill="#29CC7A"/>
<path d="M47.0048 93.7281L40.541 89.4156L41.3177 86.9683C42.3189 83.8259 44.0508 80.9649 46.3717 78.6196L50.6863 74.2539L57.1527 78.5664L47.0048 93.7281Z" fill="#5865F2"/>
<path d="M109.491 30.1559C108.876 30.2983 108.242 30.336 107.615 30.2675C108.804 30.5624 111.605 31.4473 113.669 33.5597C113.7 33.5915 113.737 33.6168 113.778 33.6342C113.818 33.6515 113.862 33.6605 113.906 33.6607C113.949 33.6608 113.992 33.6524 114.031 33.636C114.071 33.6196 114.107 33.5955 114.138 33.565C114.168 33.5344 114.193 33.4979 114.21 33.4578C114.226 33.4177 114.235 33.3746 114.235 33.3312C114.235 33.2877 114.226 33.2447 114.21 33.2045C114.193 33.1644 114.168 33.128 114.138 33.0973C112.819 31.7936 111.234 30.7902 109.491 30.1559V30.1559Z" fill="#EB459F"/>
<path d="M85.5432 44.9216C83.628 43.508 81.1276 42.5302 78.2867 42.121L78.1351 42.0997C78.0525 42.0798 77.9654 42.0922 77.8917 42.1345C77.818 42.1767 77.7633 42.2455 77.7387 42.3268C77.7142 42.4081 77.7218 42.4956 77.7599 42.5715C77.798 42.6474 77.8637 42.7058 77.9436 42.7348C78.0247 42.7563 78.1074 42.7714 78.1909 42.7799C81.1701 43.2131 83.753 44.2812 85.6389 45.833C85.6203 45.5354 85.5831 45.2325 85.5432 44.9216Z" fill="#3F99F2"/>
<path d="M102.743 69.9174C102.658 69.9174 102.576 69.8846 102.515 69.8256C102.453 69.7667 102.417 69.6862 102.413 69.6012L102.278 66.7819C100.051 66.3143 99.4741 63.9202 99.4502 63.8139C99.4368 63.7703 99.4325 63.7244 99.4377 63.6791C99.4428 63.6338 99.4572 63.59 99.4801 63.5505C99.5029 63.511 99.5336 63.4767 99.5703 63.4495C99.607 63.4224 99.6489 63.4031 99.6934 63.3929C99.7379 63.3826 99.784 63.3817 99.8289 63.39C99.8738 63.3983 99.9164 63.4158 99.9543 63.4414C99.9921 63.4669 100.024 63.5 100.049 63.5385C100.073 63.5769 100.089 63.6201 100.097 63.6651C100.12 63.7581 100.65 65.9104 102.64 66.1708L102.906 66.208L103.065 69.5693C103.067 69.6129 103.061 69.6565 103.046 69.6977C103.031 69.7388 103.009 69.7766 102.979 69.8089C102.95 69.8413 102.914 69.8675 102.875 69.8861C102.835 69.9047 102.792 69.9153 102.749 69.9174H102.743Z" fill="#3F99F2"/>
<path d="M94.6765 14.8029C94.1706 14.4802 93.7408 14.0518 93.4166 13.5473C93.0924 13.0427 92.8815 12.4739 92.7986 11.88L92.4847 9.84997C92.4785 9.80089 92.4549 9.75565 92.4182 9.72243C92.3823 9.68812 92.3349 9.66826 92.2852 9.66663C92.2357 9.66919 92.1887 9.68892 92.1522 9.72243C92.1173 9.75701 92.0941 9.80159 92.0857 9.84997L91.7745 11.88C91.6877 12.4726 91.4752 13.0399 91.1514 13.544C90.8275 14.048 90.3997 14.4772 89.8965 14.8029L89.6305 14.9729C89.6023 14.991 89.5796 15.0164 89.5646 15.0463C89.5496 15.0762 89.543 15.1096 89.5454 15.143C89.5434 15.1759 89.5498 15.2089 89.564 15.2387C89.5795 15.2687 89.6024 15.2943 89.6305 15.3131L89.8965 15.4831C90.3997 15.8088 90.8275 16.238 91.1514 16.742C91.4752 17.2461 91.6877 17.8134 91.7745 18.406L92.0857 20.436C92.0936 20.4836 92.1181 20.5269 92.1549 20.5583C92.1911 20.5895 92.2374 20.6065 92.2852 20.6061C92.3338 20.6064 92.381 20.5895 92.4182 20.5583C92.4552 20.5275 92.4789 20.4837 92.4847 20.436L92.8013 18.3953C92.8842 17.8015 93.095 17.2327 93.4192 16.7281C93.7434 16.2235 94.1733 15.7951 94.6792 15.4725L94.9452 15.3024C94.9726 15.2836 94.9946 15.2579 95.009 15.228C95.0254 15.1989 95.0328 15.1656 95.0303 15.1324C95.0325 15.0991 95.0251 15.0659 95.009 15.0367C94.9946 15.0068 94.9726 14.9812 94.9452 14.9623L94.6765 14.8029Z" fill="#808AFF"/>
<path d="M69.1623 38.9006C68.7746 38.6531 68.445 38.3248 68.1961 37.9381C67.9473 37.5515 67.7851 37.1157 67.7206 36.6606L67.4785 35.1009C67.4733 35.0626 67.4555 35.0271 67.428 34.9999C67.4146 34.9863 67.3987 34.9755 67.3811 34.9682C67.3635 34.9608 67.3446 34.957 67.3256 34.957C67.3065 34.957 67.2876 34.9608 67.2701 34.9682C67.2525 34.9755 67.2365 34.9863 67.2232 34.9999C67.1956 35.0271 67.1779 35.0626 67.1726 35.1009L66.9332 36.6606C66.8651 37.1149 66.7011 37.5495 66.4521 37.9357C66.2031 38.3219 65.8747 38.6508 65.4888 38.9006L65.2814 39.0308C65.2597 39.0456 65.2423 39.0657 65.2308 39.0892C65.2203 39.1117 65.2148 39.1362 65.2149 39.161C65.2145 39.1867 65.2199 39.2121 65.2308 39.2354C65.2423 39.2589 65.2597 39.2791 65.2814 39.2938L65.4888 39.424C65.8747 39.6739 66.2031 40.0028 66.4521 40.3889C66.7011 40.7751 66.8651 41.2097 66.9332 41.664L67.1726 43.2238C67.1778 43.2606 67.1957 43.2944 67.2232 43.3194C67.2519 43.3434 67.2881 43.3566 67.3256 43.3566C67.363 43.3566 67.3993 43.3434 67.428 43.3194C67.4555 43.2944 67.4734 43.2606 67.4785 43.2238L67.7206 41.664C67.7851 41.2089 67.9473 40.7731 68.1961 40.3865C68.445 39.9999 68.7746 39.6715 69.1623 39.424L69.3698 39.2938C69.3914 39.2791 69.4088 39.2589 69.4203 39.2354C69.4312 39.2121 69.4367 39.1867 69.4363 39.161C69.4363 39.1362 69.4309 39.1117 69.4203 39.0892C69.4088 39.0657 69.3914 39.0456 69.3698 39.0308L69.1623 38.9006Z" fill="#57F287"/>
<path d="M13.0795 37.0592C12.5747 36.7385 12.1454 36.3123 11.8212 35.8101C11.497 35.3078 11.2856 34.7413 11.2015 34.1496L10.8877 32.1196C10.8821 32.0695 10.8584 32.0233 10.8212 31.9894C10.804 31.9714 10.7834 31.957 10.7605 31.9472C10.7377 31.9374 10.713 31.9324 10.6882 31.9324C10.6633 31.9324 10.6387 31.9374 10.6158 31.9472C10.5929 31.957 10.5723 31.9714 10.5552 31.9894C10.5179 32.0233 10.4943 32.0695 10.4887 32.1196L10.1748 34.1496C10.086 34.7398 9.87267 35.3045 9.54891 35.8061C9.22515 36.3077 8.79836 36.7348 8.29682 37.0592L8.03082 37.2293C8.0028 37.2474 7.98062 37.2732 7.96698 37.3037C7.9512 37.333 7.94384 37.3661 7.9457 37.3993C7.94348 37.4334 7.95085 37.4675 7.96698 37.4976C7.98133 37.5276 8.00335 37.5533 8.03082 37.572L8.29682 37.7421C8.79989 38.0679 9.22762 38.4971 9.55146 39.0011C9.87529 39.5052 10.0878 40.0724 10.1748 40.6649L10.4887 42.695C10.4943 42.7435 10.518 42.7881 10.5552 42.8199C10.5922 42.8515 10.6394 42.8689 10.6882 42.8689C10.7369 42.8689 10.7841 42.8515 10.8212 42.8199C10.8583 42.7881 10.882 42.7435 10.8877 42.695L11.2015 40.6543C11.2838 40.0603 11.4943 39.4912 11.8186 38.9865C12.1429 38.4818 12.5731 38.0536 13.0795 37.7315L13.3455 37.5614C13.373 37.5426 13.395 37.517 13.4093 37.487C13.4255 37.4568 13.4328 37.4228 13.4306 37.3887C13.4325 37.3555 13.4251 37.3223 13.4093 37.293C13.3957 37.2626 13.3735 37.2368 13.3455 37.2186L13.0795 37.0592Z" fill="#8CD9FF"/>
<path d="M100.103 22.0543C99.7681 21.8398 99.483 21.5558 99.2673 21.2216C99.0516 20.8874 98.9103 20.5108 98.8531 20.1173L98.6536 18.7648C98.649 18.732 98.633 18.7019 98.6084 18.6798C98.585 18.6562 98.5538 18.642 98.5206 18.6399C98.4877 18.643 98.4568 18.657 98.4327 18.6796C98.4086 18.7022 98.3928 18.7322 98.3876 18.7648L98.1801 20.1173C98.1219 20.5105 97.9802 20.8867 97.7646 21.2208C97.549 21.5548 97.2644 21.839 96.9299 22.0543L96.749 22.1686C96.7309 22.1814 96.7163 22.1986 96.7065 22.2186C96.6968 22.2386 96.6922 22.2606 96.6932 22.2828C96.6882 22.3038 96.6882 22.3256 96.6932 22.3466C96.7036 22.3663 96.7181 22.3835 96.7357 22.3971L96.9166 22.5087C97.2506 22.7262 97.5351 23.0114 97.7519 23.3457C97.9689 23.6782 98.1122 24.0533 98.1721 24.4457L98.3876 25.8009C98.3928 25.8327 98.4088 25.8618 98.4328 25.8833C98.4573 25.904 98.4885 25.9155 98.5206 25.9155C98.5528 25.9155 98.5839 25.904 98.6084 25.8833C98.6324 25.8618 98.6484 25.8327 98.6536 25.8009L98.8611 24.4484C98.917 24.0541 99.0586 23.6768 99.276 23.343C99.4914 23.0084 99.7763 22.7238 100.111 22.5087L100.292 22.3971C100.311 22.3843 100.325 22.3669 100.335 22.3466C100.341 22.3258 100.341 22.3036 100.335 22.2828C100.341 22.2621 100.341 22.2398 100.335 22.2191C100.326 22.1983 100.311 22.1807 100.292 22.1686L100.103 22.0543Z" fill="#FFE75C"/>
<path d="M120.305 56.4404C119.97 56.2246 119.685 55.9403 119.468 55.6061C119.252 55.2716 119.111 54.8945 119.055 54.5007L118.848 53.1482C118.843 53.1157 118.827 53.0858 118.803 53.0632C118.791 53.0515 118.778 53.0421 118.762 53.0358C118.747 53.0294 118.731 53.0261 118.715 53.0261C118.698 53.0261 118.682 53.0294 118.667 53.0358C118.652 53.0421 118.638 53.0515 118.627 53.0632C118.603 53.0858 118.587 53.1157 118.582 53.1482L118.374 54.5007C118.315 54.8946 118.173 55.2713 117.957 55.6061C117.74 55.9389 117.457 56.223 117.124 56.4404L116.943 56.552C116.926 56.5656 116.911 56.5828 116.901 56.6025C116.89 56.622 116.885 56.6442 116.887 56.6663C116.885 56.6884 116.89 56.7108 116.901 56.7301C116.91 56.7503 116.925 56.7676 116.943 56.7805L117.124 56.8948C117.458 57.1112 117.741 57.3957 117.957 57.7296C118.172 58.0635 118.315 58.4391 118.374 58.8319L118.582 60.1843C118.587 60.2162 118.603 60.2452 118.627 60.2667C118.652 60.2875 118.683 60.2989 118.715 60.2989C118.747 60.2989 118.778 60.2875 118.803 60.2667C118.827 60.2452 118.843 60.2162 118.848 60.1843L119.055 58.8319C119.111 58.4379 119.252 58.0607 119.468 57.7263C119.684 57.3919 119.969 57.1082 120.305 56.8948L120.486 56.7805C120.505 56.7676 120.519 56.7503 120.529 56.7301C120.54 56.7108 120.545 56.6884 120.542 56.6663C120.544 56.6442 120.54 56.622 120.529 56.6025C120.519 56.5828 120.504 56.5656 120.486 56.552L120.305 56.4404Z" fill="#57F287"/>
<path d="M104.939 83.0995L105.801 83.1633C105.956 83.0039 106.12 82.8285 106.307 82.6319C106.81 82.098 107.184 81.4563 107.4 80.7558C107.617 80.0553 107.671 79.3146 107.557 78.5904L107.166 76.1139C107.152 76.0269 107.104 75.9489 107.033 75.897C106.962 75.8452 106.873 75.8238 106.785 75.8376C106.698 75.8513 106.62 75.8991 106.568 75.9703C106.517 76.0416 106.495 76.1305 106.509 76.2175L106.903 78.6913C107.002 79.3146 106.958 79.9524 106.774 80.5561C106.59 81.1598 106.27 81.7134 105.839 82.1749C105.463 82.5548 105.174 82.8604 104.939 83.0995Z" fill="#3F99F2"/>
<path d="M111.156 79.1669L110.856 76.8977C110.85 76.8544 110.836 76.8127 110.814 76.7749C110.792 76.7371 110.763 76.7041 110.728 76.6775C110.693 76.651 110.654 76.6316 110.611 76.6203C110.569 76.6091 110.525 76.6063 110.482 76.612C110.438 76.6178 110.397 76.632 110.359 76.6539C110.321 76.6758 110.288 76.7049 110.261 76.7395C110.235 76.7742 110.215 76.8138 110.204 76.8559C110.193 76.8981 110.19 76.9421 110.196 76.9854L110.496 79.2546C110.573 79.8252 110.53 80.4056 110.368 80.9584C110.207 81.5113 109.932 82.0242 109.56 82.4644C109.26 82.8178 109.001 83.1207 108.775 83.3811L109.6 83.4422L110.068 82.8922C110.5 82.3816 110.82 81.7864 111.007 81.1447C111.195 80.5031 111.245 79.8293 111.156 79.1669V79.1669Z" fill="#3F99F2"/>
<path d="M99.4512 75.2344L102.46 79.0208C102.514 79.0892 102.594 79.1332 102.681 79.1432C102.769 79.1531 102.856 79.1283 102.925 79.0739C102.994 79.0191 103.039 78.9391 103.049 78.8516C103.06 78.764 103.035 78.6759 102.981 78.6063L99.789 74.5834C99.6574 74.79 99.5443 75.0079 99.4512 75.2344V75.2344Z" fill="#3F99F2"/>
<path d="M94.6964 53.0525C94.6964 53.0525 93.9915 59.7831 97.9842 58.6325C102.091 57.4395 97.2846 54.421 98.7317 52.0402" fill="#FF78B9"/>
<path d="M97.0285 56.6397C96.9814 56.6394 96.9348 56.6293 96.8918 56.6101C96.8487 56.5909 96.8101 56.563 96.7785 56.5281C95.5229 55.1092 96.2465 52.6062 96.2864 52.4999C96.2961 52.4553 96.315 52.4131 96.3418 52.3761C96.3686 52.3391 96.4027 52.308 96.4421 52.2848C96.4815 52.2616 96.5252 52.2467 96.5706 52.2411C96.616 52.2356 96.6621 52.2394 96.7059 52.2524C96.7497 52.2654 96.7904 52.2873 96.8254 52.3167C96.8603 52.3461 96.8889 52.3825 96.9092 52.4234C96.9295 52.4643 96.9411 52.509 96.9433 52.5546C96.9455 52.6002 96.9383 52.6458 96.9221 52.6885C96.9221 52.7124 96.2677 54.9471 97.2759 56.087C97.3172 56.1352 97.344 56.1941 97.3532 56.2569C97.3623 56.3196 97.3534 56.3837 97.3274 56.4416C97.3015 56.4996 97.2597 56.5489 97.2067 56.584C97.1538 56.6191 97.092 56.6384 97.0285 56.6397V56.6397Z" fill="#EB459F"/>
<path d="M93.1906 53.1109C94.8303 53.0947 96.4603 52.8588 98.0372 52.4094C99.0692 52.1278 99.4789 51.4768 99.8779 50.847C100.277 50.2173 100.649 49.6168 101.703 49.3032C101.787 49.2782 101.859 49.2206 101.901 49.1431C101.943 49.0657 101.952 48.9746 101.927 48.89C101.902 48.8055 101.845 48.7343 101.767 48.6922C101.69 48.6501 101.598 48.6405 101.514 48.6655C100.221 49.0508 99.7396 49.8161 99.314 50.4936C98.9389 51.0862 98.6436 51.5565 97.8616 51.7691C96.0559 52.2936 94.1746 52.5101 92.2969 52.4094C92.2969 52.4546 92.3182 52.6937 92.3155 53.0817C92.5762 53.0976 92.8661 53.1109 93.1906 53.1109Z" fill="black"/>
</g>
<defs>
<linearGradient id="paint0_linear_826_55170" x1="103.886" y1="38.324" x2="103.886" y2="89.0223" gradientUnits="userSpaceOnUse">
<stop offset="0.54" stop-color="#66BCFF"/>
<stop offset="1" stop-color="#3F99F2"/>
</linearGradient>
<linearGradient id="paint1_linear_826_55170" x1="36.0032" y1="7.67909" x2="36.0032" y2="50.4192" gradientUnits="userSpaceOnUse">
<stop offset="0.6" stop-color="#57F287"/>
<stop offset="0.94" stop-color="#29CC7A"/>
</linearGradient>
<linearGradient id="paint2_linear_826_55170" x1="39.5354" y1="34.8351" x2="45.1707" y2="68.5456" gradientUnits="userSpaceOnUse">
<stop offset="0.41" stop-color="#5865F2"/>
<stop offset="0.71" stop-color="#4855E7"/>
<stop offset="1" stop-color="#3442D9"/>
</linearGradient>
<linearGradient id="paint3_linear_826_55170" x1="106.735" y1="59.2941" x2="106.419" y2="92.2533" gradientUnits="userSpaceOnUse">
<stop offset="0.22" stop-color="#66BCFF"/>
<stop offset="0.46" stop-color="#76C8FF"/>
<stop offset="0.86" stop-color="#8CD9FF"/>
</linearGradient>
<linearGradient id="paint4_linear_826_55170" x1="29.3319" y1="62.419" x2="29.4407" y2="90.024" gradientUnits="userSpaceOnUse">
<stop stop-color="#0C1AAD"/>
<stop offset="1" stop-color="#3442D9"/>
</linearGradient>
<linearGradient id="paint5_linear_826_55170" x1="56.6713" y1="46.484" x2="56.6713" y2="23.3562" gradientUnits="userSpaceOnUse">
<stop offset="0.27" stop-color="#FF78B9"/>
<stop offset="1" stop-color="#EB459F"/>
</linearGradient>
<linearGradient id="paint6_linear_826_55170" x1="2133.94" y1="1895.96" x2="2133.94" y2="989.788" gradientUnits="userSpaceOnUse">
<stop offset="0.27" stop-color="#FF78B9"/>
<stop offset="1" stop-color="#EB459F"/>
</linearGradient>
<linearGradient id="paint7_linear_826_55170" x1="73.688" y1="8.13622" x2="76.929" y2="39.1591" gradientUnits="userSpaceOnUse">
<stop stop-color="#EB459F"/>
<stop offset="1" stop-color="#FF78B9"/>
</linearGradient>
<clipPath id="clip0_826_55170">
<rect width="133" height="93" fill="white" transform="translate(0.5)"/>
</clipPath>
</defs>
</svg>
