<svg id="orb" xmlns="http://www.w3.org/2000/svg" xmlns:xlink="http://www.w3.org/1999/xlink" viewBox="0 0 624 624">
  <defs>
    <radialGradient id="radial-gradient" cx="312" cy="312" r="240" gradientUnits="userSpaceOnUse">
      <stop offset="0.25" stop-color="#fff" stop-opacity="0"/>
      <stop offset="0.31" stop-color="#f9fefd" stop-opacity="0.02"/>
      <stop offset="0.38" stop-color="#e7fbf9" stop-opacity="0.09"/>
      <stop offset="0.45" stop-color="#c9f7f1" stop-opacity="0.21"/>
      <stop offset="0.54" stop-color="#9ff1e7" stop-opacity="0.37"/>
      <stop offset="0.62" stop-color="#6ae9d9" stop-opacity="0.57"/>
      <stop offset="0.71" stop-color="#2ee0ca" stop-opacity="0.8"/>
      <stop offset="0.92" stop-color="#16bab6" stop-opacity="0.98"/>
      <stop offset="0.94" stop-color="#14b6b4"/>
    </radialGradient>
    <linearGradient id="linear-gradient" x1="432.02" y1="519.88" x2="191.98" y2="104.12" gradientUnits="userSpaceOnUse">
      <stop offset="0" stop-color="#109fb4"/>
      <stop offset="1" stop-color="#109fb4"/>
    </linearGradient>
    <linearGradient id="linear-gradient-2" x1="410.42" y1="427.06" x2="462.22" y2="483.32" gradientUnits="userSpaceOnUse">
      <stop offset="0.35" stop-color="#2ee0ca" stop-opacity="0.8"/>
      <stop offset="0.95" stop-color="#16bab6" stop-opacity="0.98"/>
      <stop offset="1" stop-color="#14b6b4"/>
    </linearGradient>
    <linearGradient id="linear-gradient-3" x1="202.76" y1="414.92" x2="132.22" y2="463.14" gradientUnits="userSpaceOnUse">
      <stop offset="0.71" stop-color="#2ee0ca" stop-opacity="0.8"/>
      <stop offset="0.92" stop-color="#16bab6" stop-opacity="0.98"/>
      <stop offset="0.94" stop-color="#14b6b4"/>
    </linearGradient>
    <linearGradient id="linear-gradient-4" x1="428.84" y1="195.43" x2="503.21" y2="156.21" xlink:href="#linear-gradient-3"/>
  </defs>
  <title>Orb</title>
  <g>
    <g id="Ellipse_1" data-name="Ellipse 1">
      <circle cx="312" cy="312" r="240" style="fill: url(#radial-gradient)"/>
      <circle cx="312" cy="312" r="240" style="fill: none;stroke-miterlimit: 10;stroke-width: 10px;stroke: url(#linear-gradient)"/>
    </g>
    <path d="M445.2,412.5C423.5,441.4,393,463.2,357,473c-16.5,4.5-15.5,28.2,1.3,31.3,30.1,5.5,33.5,28.2-48.1,47.7H312c89.5,0,202.2-57.9,238.3-206.8-31.4-8.3-54.4,79.8-84.1,63.2A16.1,16.1,0,0,0,445.2,412.5Z" style="fill: url(#linear-gradient-2)"/>
    <path d="M192.2,427.3c-17-16.6-24.7-26.3-35.6-53.4a17.6,17.6,0,0,0-26-8.2c-14.3,9.5-35,10.3-57.6-52.8,0,.6-.1,1.2-.1,1.8,0,89.5,57.9,202.3,206.9,238.3C221,520.5,179.3,482.4,196,447.2A17.5,17.5,0,0,0,192.2,427.3Z" style="fill: url(#linear-gradient-3)"/>
    <path d="M459.2,232.5c5.8,9,10.1,18.7,17,50,6,72.9,75.1,12.4,74,3.4-10.3-84.1-70.5-179.4-205.2-212,53.5,27.1,131.1,92,113.2,126.2A32.3,32.3,0,0,0,459.2,232.5Z" style="fill: url(#linear-gradient-4)"/>
    <g id="Ellipse_1-2" data-name="Ellipse 1">
      <circle cx="312" cy="312" r="240" style="fill: none;stroke-miterlimit: 10;stroke-width: 10px;stroke: url(#linear-gradient)"/>
    </g>
    <path d="M429.1,122.9c-26.8-11.2-51,17.8-34.1,40.7,5.9,8,15.2,15,29.6,18.1,21.7,4.7,37.1,10.2,47.2,14.6,5.8,2.5,11.8-2.9,9.5-8.5C472.9,167.4,455.7,133.9,429.1,122.9Z" style="fill: #b1fdef"/>
    <path d="M201.3,502.3c22.6,7.2,38.4-6.9,23.6-19.1-5.8-4.8-14.9-3.3-26.9-5.2-18-2.9-29.9-17.9-36.3-24.2-9.1-9-9.4,2-7.2,5.7C162.6,473.1,178.8,495.2,201.3,502.3Z" style="fill: #b1fdef"/>
    <path d="M385.8,123.8c-8.8,1.7-16.8,1.4-27.4-5.4s-14.8-13.1-11.1-19,21.1-5,32.1,1C398.3,110.8,392.6,122.5,385.8,123.8Z" style="fill: #b1fdef"/>
    <path d="M474.2,428.2c-10.6-17,25.1-40.7,34.7-76.9s3.9-44.6,10.6-47.9c8.8-4.3,12,30.5,2.9,66.9C506.9,432.5,479.1,436,474.2,428.2Z" style="fill: #b1fdef"/>
  </g>
</svg>
