<svg xmlns="http://www.w3.org/2000/svg" xmlns:xlink="http://www.w3.org/1999/xlink" viewBox="0 0 624 624">
  <defs>
    <linearGradient id="linear-gradient" x1="312" y1="156.45" x2="312" y2="584.85" gradientUnits="userSpaceOnUse">
      <stop offset="0" stop-color="#4c9a4e"/>
      <stop offset="1" stop-color="#cfdc4f"/>
    </linearGradient>
  </defs>
  <title>Avatar-Frame-Frog</title>
  <g id="frog">
    <circle cx="485.9" cy="115.7" r="64.4" style="fill: #4c9a4e"/>
    <circle cx="138.1" cy="115.7" r="64.4" style="fill: #4c9a4e"/>
    <path d="M414.6,90.7a265.1,265.1,0,0,0-205.4,0C114.5,130.8,48,224.6,48,334c0,145.8,118.2,264,264,264S576,479.8,576,334C576,224.6,509.4,130.7,414.6,90.7ZM312,478c-110.8,0-200.6,5-200.6-116.3S201.2,142,312,142s200.6,98.4,200.6,219.7S422.8,478,312,478Z" style="fill-rule: evenodd;fill: url(#linear-gradient)"/>
    <path d="M512.6,361.7C512.6,483,422.8,478,312,478s-200.6,5-200.6-116.3c0,48-8.3,83.2-23.8,111.3a263.9,263.9,0,0,0,448.8,0C520.9,444.9,512.6,409.7,512.6,361.7Z" style="fill: #e4ed8b;fill-rule: evenodd"/>
    <circle cx="137.2" cy="114.9" r="39.8"/>
    <ellipse cx="156.3" cy="95.8" rx="12.7" ry="21" transform="translate(-21.9 138.6) rotate(-45)" style="fill: #fff"/>
    <ellipse cx="116.6" cy="135.5" rx="10.8" ry="17.8" transform="translate(-61.7 122.1) rotate(-45)" style="fill: #fff"/>
    <circle cx="486.8" cy="114.9" r="39.8"/>
    <ellipse cx="467.7" cy="95.8" rx="21" ry="12.7" transform="translate(69.2 358.7) rotate(-45)" style="fill: #fff"/>
    <ellipse cx="507.4" cy="135.5" rx="17.8" ry="10.8" transform="translate(52.8 398.5) rotate(-45)" style="fill: #fff"/>
    <path d="M387.1,519c0,20-33.6,36.3-75.1,36.3S236.9,539,236.9,519s33.6-8.8,75.1-8.8S387.1,498.9,387.1,519Z" style="fill: #c3d039;fill-rule: evenodd"/>
    <g>
      <path d="M500.4,186.9a72.7,72.7,0,0,0,24.2-9.4c-1.5-2.1-3.2-4.2-4.8-6.4A63.1,63.1,0,0,1,499,179a4,4,0,0,0,1.4,7.9Z" style="fill: #3d7a3e"/>
      <path d="M417.5,106.7h0a4,4,0,0,0,5-3.1,62.1,62.1,0,0,1,2.1-8.5l-7.4-3.3a71.9,71.9,0,0,0-2.6,10.4A4,4,0,0,0,417.5,106.7Z" style="fill: #3d7a3e"/>
    </g>
    <g>
      <path d="M123.6,186.9a72.7,72.7,0,0,1-24.2-9.4l4.8-6.4A63.1,63.1,0,0,0,125,179a4,4,0,0,1-1.4,7.9Z" style="fill: #3d7a3e"/>
      <path d="M206.5,106.7h0a4,4,0,0,1-5-3.1,62.1,62.1,0,0,0-2.1-8.5l7.4-3.3a71.9,71.9,0,0,1,2.6,10.4A4,4,0,0,1,206.5,106.7Z" style="fill: #3d7a3e"/>
    </g>
    <path d="M352.6,73.1a267.4,267.4,0,0,0-81.2,0c18.2-2.2,9,37,40.6,37S334.4,70.9,352.6,73.1Z" style="fill: #2c5a2e"/>
    <g>
      <path d="M532.1,278.6a15.1,15.1,0,0,0,7.9-2.1,134.4,134.4,0,0,0,25-18.3,278,278,0,0,0-12.7-33.7c-6.6,9.3-15.9,17.2-28.2,24.3a15.9,15.9,0,0,0-5.9,21.8A15.7,15.7,0,0,0,532.1,278.6Z" style="fill: #2c5a2e"/>
      <path d="M572.1,288.8c-4.9,10.7-12.9,21.2-23.9,32.3a15.9,15.9,0,0,0,0,22.6,15.9,15.9,0,0,0,22.6,0c1.8-1.8,3.5-3.5,5.1-5.3s.1-2.9.1-4.4A259.3,259.3,0,0,0,572.1,288.8Z" style="fill: #2c5a2e"/>
    </g>
    <g>
      <path d="M91.9,278.6a15.1,15.1,0,0,1-7.9-2.1,134.4,134.4,0,0,1-25-18.3,278,278,0,0,1,12.7-33.7c6.6,9.3,15.9,17.2,28.2,24.3a15.9,15.9,0,0,1,5.9,21.8A15.7,15.7,0,0,1,91.9,278.6Z" style="fill: #2c5a2e"/>
      <path d="M51.9,288.8c4.9,10.7,12.9,21.2,23.9,32.3a15.9,15.9,0,0,1,0,22.6,15.9,15.9,0,0,1-22.6,0c-1.8-1.8-3.5-3.5-5.1-5.3-.1-1.5-.1-2.9-.1-4.4A259.3,259.3,0,0,1,51.9,288.8Z" style="fill: #2c5a2e"/>
    </g>
  </g>
</svg>
