<svg width="192" height="96" viewBox="0 0 192 96" fill="none" xmlns="http://www.w3.org/2000/svg">
<path d="M176.202 96C184.927 96 192 88.907 192 80.1573C192 71.4077 184.927 64.3146 176.202 64.3146C167.477 64.3146 160.404 71.4077 160.404 80.1573C160.404 88.907 167.477 96 176.202 96Z" fill="#7196FF"/>
<path d="M160.404 80.1573C160.404 88.9236 167.46 96 176.202 96C184.944 96 192 88.9236 192 80.1573H160.404Z" fill="#3E70DD"/>
<path d="M42.9708 11.5056H16.6406V96H42.9708V11.5056Z" fill="#7196FF"/>
<path d="M74.567 32.6292H42.9707V96H74.567V32.6292Z" fill="#3E70DD"/>
<path d="M42.9707 11.5056V32.6292H64.0349L42.9707 11.5056Z" fill="#3E70DD"/>
<path d="M148.292 32.6292H74.5674V96H148.292V32.6292Z" fill="white"/>
<path d="M42.9189 96H74.5151V72.2359H42.9189V96Z" fill="#FF9A15"/>
<path d="M139.34 40.5505H83.5195V72.2359H139.34V40.5505Z" fill="#83DDC5"/>
<path d="M148.24 96H166.145V32.6292H148.24V96Z" fill="#7196FF"/>
<path d="M166.197 32.6292H148.292V37.9101H166.197V32.6292Z" fill="#AEC7FF"/>
<path d="M166.197 43.191H148.292V48.4719H166.197V43.191Z" fill="#AEC7FF"/>
<path d="M166.197 53.7528H148.292V59.0337H166.197V53.7528Z" fill="#AEC7FF"/>
<path d="M166.197 64.3146H148.292V69.5955H166.197V64.3146Z" fill="#AEC7FF"/>
<path d="M166.197 74.8764H148.292V80.1573H166.197V74.8764Z" fill="#AEC7FF"/>
<path d="M166.197 85.4382H148.292V90.7191H166.197V85.4382Z" fill="#AEC7FF"/>
<path d="M91.9452 76.9888H86.6792V88.6068H91.9452V76.9888Z" fill="#202225"/>
<path d="M95.0791 85.4642V80.1833H83.4938V85.4642H95.0791Z" fill="#202225"/>
<path d="M136.18 83.3259C137.925 83.3259 139.34 81.9072 139.34 80.1573C139.34 78.4074 137.925 76.9888 136.18 76.9888C134.435 76.9888 133.021 78.4074 133.021 80.1573C133.021 81.9072 134.435 83.3259 136.18 83.3259Z" fill="#F47FFF"/>
<path d="M129.861 88.6067C131.606 88.6067 133.02 87.1881 133.02 85.4382C133.02 83.6883 131.606 82.2697 129.861 82.2697C128.116 82.2697 126.701 83.6883 126.701 85.4382C126.701 87.1881 128.116 88.6067 129.861 88.6067Z" fill="#F47FFF"/>
<path d="M64.0349 32.6292V40.5506H58.7688V48.4719H53.5028V56.3933H48.2367V64.3146H42.9707V72.2359H74.567V64.3146V56.3933V48.4719V40.5506V32.6292H64.0349Z" fill="#7196FF"/>
<path d="M51.923 90.7191C54.5405 90.7191 56.6625 88.5912 56.6625 85.9663C56.6625 83.3414 54.5405 81.2135 51.923 81.2135C49.3055 81.2135 47.1836 83.3414 47.1836 85.9663C47.1836 88.5912 49.3055 90.7191 51.923 90.7191Z" fill="#FCFCFC"/>
<path d="M63.5085 90.7191C66.126 90.7191 68.2479 88.5912 68.2479 85.9663C68.2479 83.3414 66.126 81.2135 63.5085 81.2135C60.891 81.2135 58.769 83.3414 58.769 85.9663C58.769 88.5912 60.891 90.7191 63.5085 90.7191Z" fill="#FCFCFC"/>
<path d="M56.6625 85.9663H47.1836C47.1836 83.3259 49.29 81.2135 51.923 81.2135C54.5034 81.2135 56.6625 83.3259 56.6625 85.9663Z" fill="#202225"/>
<path d="M68.2479 85.9663H58.769C58.769 83.3259 60.8755 81.2135 63.5085 81.2135C66.0888 81.2135 68.2479 83.3259 68.2479 85.9663Z" fill="#202225"/>
<path d="M59.8223 72.236C59.8223 65.2124 65.4569 59.5618 72.4608 59.5618H96.158C96.158 66.5854 90.5233 72.236 83.5195 72.236H59.8223Z" fill="#FFD836"/>
<path d="M42.9707 88.0787H6.1084V96H42.9707V88.0787Z" fill="#D4E4FF"/>
<path d="M42.9708 80.1573H16.6406V88.0786H42.9708V80.1573Z" fill="#D4E4FF"/>
<path d="M42.971 72.236H27.1729V80.1573H42.971V72.236Z" fill="#D4E4FF"/>
<path d="M42.9711 64.3146H37.7051V72.236H42.9711V64.3146Z" fill="#D4E4FF"/>
<path d="M176.202 87.0225C179.983 87.0225 183.048 83.9488 183.048 80.1573C183.048 76.3658 179.983 73.2921 176.202 73.2921C172.421 73.2921 169.356 76.3658 169.356 80.1573C169.356 83.9488 172.421 87.0225 176.202 87.0225Z" fill="white"/>
<path d="M176.202 83.854C178.238 83.854 179.888 82.1989 179.888 80.1573C179.888 78.1157 178.238 76.4607 176.202 76.4607C174.166 76.4607 172.516 78.1157 172.516 80.1573C172.516 82.1989 174.166 83.854 176.202 83.854Z" fill="#AEC7FF"/>
<path d="M16.6408 54.809L12.9546 58.5056V65.8988L16.6408 69.5955L20.3271 65.8988V58.5056L16.6408 54.809Z" fill="#D4E4FF"/>
<path d="M16.6406 54.809V69.5955L20.3269 65.8988V58.5056L16.6406 54.809Z" fill="#AEC7FF"/>
<path d="M42.9709 38.9663L39.2847 42.6629V50.0562L42.9709 53.7528L46.6571 50.0562V42.6629L42.9709 38.9663Z" fill="#D4E4FF"/>
<path d="M42.9707 38.9663V53.7528L46.6569 50.0562V42.6629L42.9707 38.9663Z" fill="#AEC7FF"/>
<path d="M69.301 12.5618L65.6147 16.2584V23.6517L69.301 27.3483L72.9872 23.6517V16.2584L69.301 12.5618Z" fill="#D4E4FF"/>
<path d="M69.3008 12.5618V27.3483L72.987 23.6517V16.2584L69.3008 12.5618Z" fill="#AEC7FF"/>
<path d="M95.6315 12.5618L91.9453 16.2584V23.6517L95.6315 27.3483L99.3178 23.6517V16.2584L95.6315 12.5618Z" fill="#D4E4FF"/>
<path d="M95.6313 12.5618V27.3483L99.3176 23.6517V16.2584L95.6313 12.5618Z" fill="#AEC7FF"/>
<path d="M121.962 12.5618L118.275 16.2584V23.6517L121.962 27.3483L125.648 23.6517V16.2584L121.962 12.5618Z" fill="#D4E4FF"/>
<path d="M121.961 12.5618V27.3483L125.648 23.6517V16.2584L121.961 12.5618Z" fill="#AEC7FF"/>
<path d="M148.292 12.5618L144.605 16.2584V23.6517L148.292 27.3483L151.978 23.6517V16.2584L148.292 12.5618Z" fill="#D4E4FF"/>
<path d="M148.292 12.5618V27.3483L151.978 23.6517V16.2584L148.292 12.5618Z" fill="#AEC7FF"/>
<path d="M37.7048 2V6.22472H32.4388V2H27.1727V6.22472H21.9067V2H16.6406V11.5056H42.9708V2H37.7048Z" fill="#AEC7FF"/>
<path d="M35.0716 36.8539H24.5396V22.0674C24.5396 19.1629 26.9093 16.7865 29.8056 16.7865C32.7019 16.7865 35.0716 19.1629 35.0716 22.0674V36.8539Z" fill="#202225"/>
<path d="M37.7049 31.5731H21.9067V37.9101H37.7049V31.5731Z" fill="#AEC7FF"/>
<path d="M1.05321 72.4472L0.0526625 74.5595C-0.157979 75.0348 0.315965 75.5629 0.842569 75.3517L2.94899 74.3483C3.10697 74.2955 3.26495 74.2955 3.42293 74.3483L5.52935 75.3517C6.00329 75.5629 6.5299 75.0876 6.31926 74.5595L5.31871 72.4472C5.26605 72.2887 5.26605 72.1303 5.31871 71.9719L6.31926 69.8595C6.5299 69.3842 6.05595 68.8562 5.52935 69.0674L3.42293 70.0708C3.26495 70.1236 3.10697 70.1236 2.94899 70.0708L0.842569 69.0674C0.368625 68.8562 -0.157979 69.3314 0.0526625 69.8595L1.05321 71.9719C1.15853 72.1303 1.15853 72.2887 1.05321 72.4472Z" fill="white"/>
<path d="M179.731 43.9304H179.625C179.309 43.9304 179.099 43.6663 179.099 43.4023V42.082C179.099 41.7652 179.362 41.554 179.625 41.554H179.731C180.047 41.554 180.257 41.818 180.257 42.082V43.4023C180.257 43.7191 180.047 43.9304 179.731 43.9304Z" fill="white"/>
<path d="M179.731 50.0034H179.625C179.309 50.0034 179.099 49.7394 179.099 49.4753V48.1551C179.099 47.8383 179.362 47.627 179.625 47.627H179.731C180.047 47.627 180.257 47.8911 180.257 48.1551V49.4753C180.257 49.7394 180.047 50.0034 179.731 50.0034Z" fill="white"/>
<path d="M181.468 45.8315V45.7258C181.468 45.409 181.732 45.1978 181.995 45.1978H183.311C183.627 45.1978 183.838 45.4618 183.838 45.7258V45.8315C183.838 46.1483 183.575 46.3596 183.311 46.3596H181.995C181.732 46.3596 181.468 46.0955 181.468 45.8315Z" fill="white"/>
<path d="M175.465 45.8315V45.7258C175.465 45.409 175.728 45.1978 175.991 45.1978H177.308C177.624 45.1978 177.835 45.4618 177.835 45.7258V45.8315C177.835 46.1483 177.571 46.3596 177.308 46.3596H175.991C175.728 46.3596 175.465 46.0955 175.465 45.8315Z" fill="white"/>
<path d="M95.1049 50.0562H90.8921V54.2809H95.1049V50.0562Z" fill="#202225"/>
<path d="M103.531 55.337H99.3179V59.5618H103.531V55.337Z" fill="#202225"/>
<path d="M111.956 59.5618H107.744H103.531V63.7865H107.744H111.956H116.169H120.382V59.5618H116.169H111.956Z" fill="#202225"/>
<path d="M124.595 55.337H120.382V59.5618H124.595V55.337Z" fill="#202225"/>
<path d="M133.02 50.0562H128.808V54.2809H133.02V50.0562Z" fill="#202225"/>
</svg>
