<svg width="180" height="150" viewBox="0 0 180 150" fill="none" xmlns="http://www.w3.org/2000/svg">
<path d="M164.381 21.36H60.2208C55.8467 21.36 52.3008 24.9059 52.3008 29.28V99.44C52.3008 103.814 55.8467 107.36 60.2208 107.36H164.381C168.755 107.36 172.301 103.814 172.301 99.44V29.28C172.301 24.9059 168.755 21.36 164.381 21.36Z" fill="#242145"/>
<path d="M164.381 19.36H60.2208C54.7508 19.36 50.3008 23.81 50.3008 29.28V99.44C50.3008 104.91 54.7508 109.36 60.2208 109.36H164.381C169.851 109.36 174.301 104.91 174.301 99.44V29.28C174.301 23.81 169.851 19.36 164.381 19.36ZM170.301 99.44C170.301 102.71 167.641 105.36 164.381 105.36H60.2208C56.9508 105.36 54.3008 102.7 54.3008 99.44V29.28C54.3008 26.01 56.9608 23.36 60.2208 23.36H164.381C167.651 23.36 170.301 26.02 170.301 29.28V99.44Z" fill="#3442D7"/>
<path d="M17.4292 117.84C15.3892 117.84 13.6492 116.29 13.4492 114.22C12.9492 108.98 12.9592 106.58 13.2392 102.44C13.7292 95.1499 18.7192 89.0799 25.9492 86.9699C31.3792 85.3799 44.3092 83.8599 50.3892 83.2799C56.4692 82.6999 69.4592 81.7399 75.0892 82.2699C82.5792 82.9799 88.6292 87.9999 90.4992 95.0599C91.5592 99.0699 92.0192 101.43 92.5192 106.66C92.7292 108.86 91.1192 110.81 88.9192 111.02C86.7392 111.23 84.7692 109.62 84.5592 107.42C84.0992 102.66 83.7292 100.76 82.7592 97.0999C81.7592 93.3199 78.4492 90.6199 74.3392 90.2399C70.2092 89.8499 59.3092 90.4699 51.1493 91.2499C42.9893 92.0299 32.1792 93.4899 28.1892 94.6499C24.2192 95.8099 21.4892 99.0799 21.2192 102.98C20.9592 106.76 20.9592 108.7 21.4092 113.46C21.6192 115.66 20.0092 117.61 17.8092 117.82C17.6792 117.83 17.5492 117.84 17.4192 117.84H17.4292Z" fill="black"/>
<path d="M94.3829 115.999C98.0993 115.705 100.728 110.607 100.254 104.611C99.7797 98.6153 96.3828 93.993 92.6665 94.2868C88.9502 94.5806 86.3217 99.6792 86.7957 105.675C87.2697 111.671 90.6666 116.293 94.3829 115.999Z" fill="#43D88C"/>
<path d="M90.0597 118.927C94.6404 118.565 97.8803 112.282 97.2962 104.893C96.7121 97.5044 92.5252 91.8083 87.9445 92.1704C83.3638 92.5325 80.1239 98.8157 80.708 106.204C81.2921 113.593 85.479 119.289 90.0597 118.927Z" fill="black"/>
<path d="M17.4295 113.84C16.9595 108.89 16.9595 106.76 17.2295 102.71C17.6095 97.0799 21.4795 92.4399 27.0695 90.8099C31.5895 89.4899 42.8795 88.0199 50.7695 87.2599C58.6595 86.5099 70.0295 85.8099 74.7095 86.2499C80.4995 86.7999 85.1795 90.6199 86.6195 96.0799C87.6495 99.9999 88.0595 102.09 88.5295 107.04C88.9995 111.99 88.9995 114.12 88.7295 118.17C88.3495 123.8 84.4795 128.44 78.8895 130.07C74.3695 131.39 63.0795 132.86 55.1895 133.62C47.2995 134.37 35.9295 135.07 31.2495 134.63C25.4595 134.08 20.7795 130.26 19.3395 124.8C18.3095 120.88 17.8995 118.79 17.4295 113.84Z" fill="#698FFF"/>
<path d="M32.9693 111.135C34.7506 110.964 36.0272 109.075 35.8206 106.914C35.6141 104.754 34.0027 103.14 32.2214 103.31C30.4401 103.481 29.1635 105.37 29.37 107.531C29.5766 109.691 31.188 111.305 32.9693 111.135Z" fill="black"/>
<path d="M81.0533 106.55C82.8345 106.379 84.1111 104.49 83.9046 102.329C83.6981 100.169 82.0867 98.555 80.3054 98.7253C78.5241 98.8955 77.2475 100.785 77.454 102.946C77.6605 105.106 79.272 106.72 81.0533 106.55Z" fill="black"/>
<path d="M48.0094 128.68C49.8394 129.02 51.6194 128.47 52.8794 127.6C54.1194 126.75 54.8394 125.59 54.6194 124.67C54.2394 123.1 46.0894 121.13 44.4094 121.85C43.7694 122.13 43.4594 122.84 43.4794 123.72C43.5194 125.57 45.0394 128.13 48.0194 128.68H48.0094Z" fill="black"/>
<path d="M48.0105 128.68C49.8405 129.02 51.6205 128.47 52.8805 127.6C51.6605 126.41 49.8605 125.32 47.7105 124.58C46.2405 124.07 44.7905 123.79 43.4805 123.72C43.5205 125.57 45.0405 128.13 48.0205 128.68H48.0105Z" fill="#FF78B8"/>
<path d="M66.2961 117.502L48.7062 119.183C44.2267 119.611 40.2459 116.325 39.8177 111.846L39.1174 104.519C38.7863 101.055 41.3252 97.9793 44.7894 97.6482L68.0733 95.4226C71.5375 95.0915 74.613 97.6303 74.9441 101.095L75.4522 106.41C75.987 112.005 71.8806 116.968 66.2961 117.502Z" fill="#B8CDFF"/>
<path d="M66.3117 114.359C68.4888 114.151 70.1749 113.157 70.0777 112.14C69.9805 111.123 68.1367 110.467 65.9596 110.675C63.7825 110.884 62.0964 111.877 62.1936 112.894C62.2908 113.911 64.1345 114.567 66.3117 114.359Z" fill="#698FFF"/>
<path d="M54.5324 115.485C56.7095 115.276 58.3956 114.283 58.2984 113.266C58.2012 112.249 56.3574 111.593 54.1803 111.801C52.0032 112.009 50.3171 113.003 50.4143 114.02C50.5115 115.037 52.3552 115.693 54.5324 115.485Z" fill="#698FFF"/>
<path d="M20.2507 125.61C24.9207 125.05 27.9807 118.47 27.0607 110.93C26.1507 103.39 21.6207 97.7299 16.9407 98.2899L12.7207 98.7999L16.0207 126.12L20.2407 125.61H20.2507Z" fill="black"/>
<path d="M16.0178 126.125C20.6948 125.559 23.7472 118.985 22.8355 111.441C21.9239 103.896 17.3934 98.2382 12.7164 98.8034C8.03948 99.3685 4.98709 105.943 5.89875 113.487C6.8104 121.032 11.3409 126.69 16.0178 126.125Z" fill="black"/>
<path d="M14.0497 124.788C18.1948 124.287 20.8998 118.458 20.0915 111.769C19.2833 105.08 15.2677 100.063 11.1226 100.564C6.97747 101.065 4.27244 106.894 5.08074 113.583C5.88904 120.272 9.90458 125.289 14.0497 124.788Z" fill="#43D88C"/>
<path d="M15.2517 112.53C14.6517 107.89 12.2917 104.6 9.74167 104.89C8.95167 104.98 8.23167 105.42 7.65167 106.15C6.41167 107.73 5.91167 110.5 6.30167 113.56C6.87167 118.02 9.07167 121.22 11.5017 121.22C11.6017 121.22 11.7117 121.22 11.8117 121.2C11.9017 121.19 11.9917 121.17 12.0817 121.15C13.2517 120.89 14.2217 119.85 14.7917 118.21C15.3517 116.63 15.5017 114.61 15.2417 112.53H15.2517ZM13.2217 117.61C12.8317 118.73 12.2417 119.41 11.6117 119.48C10.3017 119.62 8.44167 117.04 7.97167 113.36C7.51167 109.74 8.58167 106.91 9.84167 106.63C9.87167 106.63 9.91167 106.62 9.94167 106.61C11.2917 106.46 13.1117 109.05 13.5817 112.73C13.8117 114.54 13.6817 116.27 13.2217 117.6V117.61Z" fill="#107C10"/>
<path d="M38.9205 140.3C32.1405 140.3 25.6805 136.74 22.1005 130.9L18.5105 125.05C18.0805 124.34 18.3005 123.42 19.0105 122.99C19.7205 122.56 20.6405 122.78 21.0705 123.49L24.6605 129.34C27.9705 134.74 34.1805 137.84 40.4805 137.23L57.6605 135.59C58.4705 135.5 59.2205 136.12 59.3005 136.94C59.3805 137.76 58.7705 138.5 57.9505 138.58L40.7705 140.22C40.1605 140.28 39.5405 140.31 38.9305 140.31L38.9205 140.3Z" fill="black"/>
<path d="M59.6799 130.361L52.851 131.014C50.6519 131.224 49.0395 133.178 49.2497 135.377C49.4599 137.576 51.4131 139.188 53.6122 138.978L60.4411 138.325C62.6402 138.115 64.2525 136.162 64.0423 133.963C63.8321 131.764 61.879 130.151 59.6799 130.361Z" fill="black"/>
<path d="M38.8794 80.13C38.8794 80.13 37.7494 79.78 36.1194 79.06C34.9594 78.55 33.5194 77.84 32.1894 77.06C27.3894 74.25 25.8194 68.03 32.3594 65.88C32.3594 65.88 38.4194 61.4 46.5894 69.81C48.9094 72.19 50.3194 71.74 51.9894 71.62L43.5194 79.57L38.8694 80.14L38.8794 80.13Z" fill="#57F287"/>
<path d="M46.24 78.49H46.2C45.77 78.48 35.52 77.96 27.48 58.66C27.16 57.9 27.52 57.02 28.29 56.7C29.05 56.38 29.93 56.74 30.25 57.51C37.47 74.82 46.22 75.49 46.31 75.49C47.13 75.53 47.77 76.23 47.74 77.05C47.71 77.86 47.05 78.49 46.25 78.49H46.24Z" fill="#038E3C"/>
<path d="M36.1206 79.0599C35.7906 78.9099 40.9006 81.2399 47.5906 73.1799C48.5106 72.0699 49.9906 70.2499 50.5006 69.6399C53.1606 66.4999 59.3606 59.6999 66.3306 62.9599C66.3306 62.9599 72.4106 66.2599 68.1606 72.7699C67.0906 74.4099 65.6506 75.7599 63.9806 76.7899C59.6106 79.4799 48.7006 84.6699 36.1206 79.0699V79.0599Z" fill="#29CC7A"/>
<path d="M65.6691 62.6799C65.8891 62.7599 66.1091 62.8599 66.3291 62.9599C66.3291 62.9599 67.3191 63.4999 68.2191 64.5699C67.5891 66.4999 66.5291 69.0099 64.7491 71.5899C62.5291 74.7999 58.8691 78.5099 53.0191 81.0599C49.6191 81.6999 45.7191 81.8199 41.5391 80.8699C59.4491 79.0899 64.3891 67.4899 65.6791 62.6799H65.6691Z" fill="#038E3C"/>
<path d="M112.301 90.1C126.516 90.1 138.041 78.5758 138.041 64.36C138.041 50.1442 126.516 38.62 112.301 38.62C98.0847 38.62 86.5605 50.1442 86.5605 64.36C86.5605 78.5758 98.0847 90.1 112.301 90.1Z" fill="#107C10"/>
<path d="M112.3 61.34C112.3 61.34 112.34 61.35 112.35 61.37C116.91 64.84 124.71 73.41 122.33 75.83C119.55 78.26 115.99 79.6 112.3 79.6C108.61 79.6 105.05 78.26 102.27 75.83C99.89 73.41 107.69 64.83 112.25 61.37C112.26 61.36 112.28 61.35 112.3 61.34ZM120.24 51.35C117.91 49.96 115.38 49.12 112.3 49.12C109.22 49.12 106.7 49.97 104.36 51.35C104.35 51.35 104.34 51.37 104.33 51.38C104.33 51.39 104.33 51.41 104.33 51.42C104.33 51.43 104.35 51.44 104.36 51.45C104.37 51.45 104.39 51.45 104.4 51.45C107.35 50.81 111.83 53.36 112.26 53.62C112.26 53.62 112.28 53.63 112.29 53.63C112.3 53.63 112.31 53.63 112.32 53.62C112.74 53.37 117.23 50.82 120.18 51.45C120.19 51.45 120.21 51.45 120.22 51.45C120.23 51.45 120.24 51.44 120.25 51.42C120.25 51.41 120.25 51.39 120.25 51.38C120.25 51.37 120.24 51.35 120.22 51.35H120.24ZM101.64 53.49C101.64 53.49 101.59 53.52 101.57 53.54C98.95 56.14 97.36 59.61 97.1 63.3C96.84 66.99 97.94 70.64 100.18 73.58C100.18 73.59 100.2 73.6 100.22 73.61C100.24 73.61 100.25 73.61 100.27 73.61C100.28 73.61 100.29 73.59 100.29 73.57C100.29 73.56 100.29 73.54 100.29 73.53C99.13 69.94 105.07 61.23 108.13 57.58C108.14 57.57 108.15 57.55 108.15 57.54C108.15 57.54 108.15 57.52 108.15 57.51C108.15 57.51 108.14 57.49 108.13 57.49C103.48 52.87 101.9 53.36 101.64 53.49ZM116.49 57.49C116.49 57.49 116.48 57.5 116.47 57.51C116.47 57.51 116.47 57.53 116.47 57.54C116.47 57.56 116.47 57.57 116.49 57.58C119.56 61.23 125.5 69.94 124.33 73.53C124.33 73.54 124.33 73.56 124.33 73.57C124.33 73.58 124.34 73.6 124.35 73.61C124.36 73.61 124.38 73.61 124.4 73.61C124.42 73.61 124.43 73.6 124.44 73.58C126.68 70.64 127.77 66.98 127.52 63.3C127.26 59.61 125.68 56.14 123.05 53.54C123.03 53.52 123.01 53.5 122.98 53.49C122.72 53.36 121.14 52.87 116.5 57.49H116.49Z" fill="white"/>
<path fill-rule="evenodd" clip-rule="evenodd" d="M156.561 86.05C156.311 85.95 156.021 86 155.831 86.19L152.971 89.32H150.971C150.601 89.32 150.301 89.62 150.301 89.99V93.98C150.301 94.35 150.601 94.65 150.971 94.65H152.971L155.831 97.78C156.021 97.97 156.311 98.03 156.561 97.92C156.811 97.81 156.971 97.57 156.971 97.3V86.65C156.971 86.38 156.811 86.14 156.561 86.04V86.05ZM158.301 87.33V88.66C160.141 88.66 161.631 90.15 161.631 91.99C161.631 93.83 160.141 95.32 158.301 95.32V96.65C160.871 96.65 162.961 94.56 162.961 91.99C162.961 89.42 160.871 87.33 158.301 87.33ZM158.301 89.99C159.401 89.99 160.301 90.89 160.301 91.99C160.301 93.09 159.401 93.99 158.301 93.99V92.66C158.671 92.66 158.971 92.36 158.971 91.99C158.971 91.62 158.671 91.32 158.301 91.32V89.99Z" fill="#72767D"/>
<path d="M110.979 129.41C109.979 128.77 109.119 127.92 108.479 126.92C107.839 125.92 107.409 124.79 107.249 123.61L106.629 119.56C106.619 119.46 106.569 119.37 106.499 119.3C106.429 119.23 106.329 119.19 106.239 119.19C106.139 119.19 106.049 119.24 105.979 119.3C105.909 119.37 105.859 119.46 105.849 119.56L105.229 123.61C105.049 124.79 104.629 125.91 103.989 126.91C103.349 127.91 102.499 128.76 101.499 129.41L100.959 129.75C100.909 129.79 100.859 129.84 100.829 129.9C100.799 129.96 100.789 130.03 100.789 130.09C100.789 130.16 100.799 130.22 100.829 130.28C100.859 130.34 100.899 130.39 100.959 130.43L101.499 130.77C102.499 131.42 103.349 132.27 103.989 133.27C104.629 134.27 105.059 135.4 105.229 136.57L105.849 140.62C105.859 140.72 105.909 140.8 105.979 140.86C106.049 140.92 106.149 140.96 106.239 140.96C106.339 140.96 106.429 140.93 106.499 140.86C106.569 140.8 106.619 140.71 106.629 140.62L107.249 136.57C107.419 135.39 107.839 134.26 108.479 133.26C109.129 132.26 109.979 131.41 110.979 130.77L111.519 130.43C111.569 130.39 111.619 130.34 111.649 130.28C111.679 130.22 111.689 130.15 111.689 130.09C111.689 130.02 111.679 129.96 111.649 129.9C111.619 129.84 111.579 129.79 111.519 129.75L110.979 129.41Z" fill="#FFE55C"/>
<path d="M15.9791 79.4099C14.9791 78.7699 14.1191 77.9199 13.4791 76.9199C12.8391 75.9199 12.4091 74.7899 12.2491 73.6099L11.6291 69.5599C11.6191 69.4599 11.5691 69.3699 11.4991 69.2999C11.4291 69.2299 11.3291 69.1899 11.2391 69.1899C11.1391 69.1899 11.0491 69.2399 10.9791 69.2999C10.9091 69.3699 10.8591 69.4599 10.8491 69.5599L10.2291 73.6099C10.0491 74.7899 9.62906 75.9099 8.98906 76.9099C8.34906 77.9099 7.49906 78.7599 6.49906 79.4099L5.95906 79.7499C5.90906 79.7899 5.85906 79.8399 5.82906 79.8999C5.79906 79.9599 5.78906 80.0299 5.78906 80.0899C5.78906 80.1599 5.79906 80.2199 5.82906 80.2799C5.85906 80.3399 5.89906 80.3899 5.95906 80.4299L6.49906 80.7699C7.49906 81.4199 8.34906 82.2699 8.98906 83.2699C9.62906 84.2699 10.0591 85.3999 10.2291 86.5699L10.8491 90.6199C10.8591 90.7199 10.9091 90.7999 10.9791 90.8599C11.0491 90.9199 11.1491 90.9599 11.2391 90.9599C11.3391 90.9599 11.4291 90.9299 11.4991 90.8599C11.5691 90.7999 11.6191 90.7099 11.6291 90.6199L12.2491 86.5699C12.4191 85.3899 12.8391 84.2599 13.4791 83.2599C14.1291 82.2599 14.9791 81.4099 15.9791 80.7699L16.5191 80.4299C16.5691 80.3899 16.6191 80.3399 16.6491 80.2799C16.6791 80.2199 16.6891 80.1499 16.6891 80.0899C16.6891 80.0199 16.6791 79.9599 16.6491 79.8999C16.6191 79.8399 16.5791 79.7899 16.5191 79.7499L15.9791 79.4099Z" fill="#66BAFF"/>
<path d="M157.181 15.73C155.991 14.97 154.981 13.96 154.211 12.77C153.441 11.58 152.951 10.24 152.751 8.85L152.011 4.05C152.001 3.93 151.941 3.83 151.851 3.75C151.761 3.67 151.651 3.62 151.541 3.62C151.421 3.62 151.311 3.67 151.231 3.75C151.141 3.83 151.091 3.94 151.071 4.05L150.331 8.85C150.121 10.25 149.621 11.58 148.861 12.77C148.101 13.96 147.091 14.97 145.901 15.73L145.261 16.13C145.201 16.18 145.141 16.24 145.111 16.31C145.071 16.38 145.061 16.46 145.061 16.54C145.061 16.62 145.071 16.7 145.111 16.77C145.151 16.84 145.201 16.9 145.261 16.95L145.901 17.35C147.091 18.12 148.091 19.13 148.861 20.31C149.621 21.5 150.131 22.83 150.331 24.23L151.071 29.03C151.091 29.14 151.141 29.25 151.231 29.32C151.321 29.39 151.431 29.43 151.541 29.43C151.651 29.43 151.761 29.39 151.851 29.32C151.941 29.25 151.991 29.14 152.011 29.03L152.751 24.23C152.951 22.83 153.451 21.49 154.211 20.31C154.981 19.12 155.991 18.11 157.181 17.35L157.821 16.95C157.881 16.9 157.941 16.84 157.971 16.77C158.011 16.7 158.021 16.62 158.021 16.54C158.021 16.46 158.011 16.38 157.971 16.31C157.931 16.24 157.881 16.18 157.821 16.13L157.181 15.73Z" fill="#FF78B7"/>
</svg>
