<svg xmlns="http://www.w3.org/2000/svg" viewBox="0 0 624 624"><path fill="none" d="M0 0h624v624H0z" data-name="Layer 6"/><g data-name="Layer 5"><path d="M213 127.4c-14.9 4.1-36.4 15.5-57.2 35.7 0 0-31-37.5-29.2-47.8 25.7-21.9 51.9-34.8 72.1-40.3 15-4 30.3 4.3 34.4 18.7s-5 29.5-20.1 33.7z" fill="#59beba"/><path d="M137.5 117c-14.5-2.2-31.9-6.2-38.5 2s1.1 19.1 23.1 35.2 29.2 13.2 33.7 8.9z" fill="#59beba"/><path d="M141.1 128.7c-13.2 1.9-36.4 12.5-24.8 21.1l12.2 8.8c17.3 11.1 23.2 8.4 27.3 4.5 20.8-20.2 42.3-31.6 57.2-35.7l1.9-.6 1.8-8.4-44.1-18.3s-18.5 26.7-31.5 28.6z" fill="#2e9aa6"/><path d="M170.2 142.1c-2.7 3.7-8.5 6-13 6s-6.5-1.7-6.4-4.3 4.5-7.5 10.9-8.8c8-1.8 12.2 2.1 8.5 7.1z" fill="#59beba"/><path d="M141.2 113.4c6.5-.5 8.7-4.4 4.9-8.7a23.2 23.2 0 00-2.8-2.4c-4.1 2.9-8.3 6.1-12.4 9.5a26.4 26.4 0 0010.3 1.6z" fill="#2e9aa6"/><path d="M233.1 93.7C229 79.3 213.7 71 198.7 75c-20.2 5.5-46.4 18.4-72.1 40.3-11.4-1.7-22.6-2.5-27.6 3.7-6.6 8.2 1.1 19.1 23.1 35.2s29.2 13.2 33.7 8.9h0c20.8-20.2 42.3-31.6 57.2-35.7s24.1-19.3 20.1-33.7z" fill="none" stroke="#0f1aa5" stroke-linejoin="round" stroke-width="2.5"/><path d="M504.8 142.8l-48.9 39c2.7 6.5 13.5 7.4 37.5 2.1s37.3-15.7 38.6-22.6-1.3-14.8-27.2-18.5zM508.5 71.4c-3.8-19-14.8-26.4-20.9-25.4s-6.5 5.2-7.9 14.3-3.5 20.4-13.7 27.2l10.5 42.6c31.9-16.2 36.2-37.4 32-58.7z" fill="#59beba"/><path d="M507.7 67.9c4.1 17.6-7.9 32.3-29 36.5l-8 2.2 5.8 23.5c31.9-16.2 36.2-37.4 32-58.7-.3-1.2-.5-2.3-.8-3.5z" fill="#2e9aa6"/><path d="M508.5 71.4c-3.8-19-14.8-26.4-20.9-25.4s-6.5 5.2-7.9 14.3-3.5 20.4-13.7 27.2l10.5 42.6c31.9-16.2 36.2-37.4 32-58.7z" fill="none" stroke="#0f1aa5" stroke-miterlimit="10" stroke-width="2.5"/><path d="M491.5 99.8c-.7 38.8-60.8 60-158.8 60S166.5 140 165 99.8 235.4 4.9 323.8 4.9s168.5 53.5 167.7 94.9z" fill="#5896ea"/><path d="M304.1 31.3a152.6 152.6 0 00-26.3 24.5c-8.8 10.4-15.2 13.5-19 9.2s-1.9-18.5 13.4-31.7 37-21.9 41.9-16.2c3.1 3.6-1.8 8.1-10 14.2z" fill="#a5d9fa"/><path d="M319.7 88.6c-3.6 16-17.8 29-31.7 29s-22.1-13-18.3-29 17.9-28.8 31.6-28.8 22 12.9 18.4 28.8zM408.2 46.1c9.4 14.8 5.7 26.9-8.2 26.9s-32.8-12.1-42-26.9-5.4-26.6 8.4-26.6 32.5 11.8 41.8 26.6z" fill="#3b85ea"/><path d="M180.7 62.9c.2 17.4 75.4 35.3 159 36.2 77 .8 131.8-13.8 140.2-29.3M323.8 4.9c-50.9 1.9-94 34.7-113.7 83.1" fill="none" stroke="#0f1aa5" stroke-miterlimit="10" stroke-width="2.5"/><path d="M491.2 94.6c-1.5 6.6-6.7 10.1-13.8 10.9-1-19.3-17.4-35-37.3-35.4s-36.9 15.3-36.9 35.3a36.4 36.4 0 001.4 9.9c1.7 5.9.2 11.3-8.6 12.2-17.8 1.9-37.9 1.7-37.9 1.7-5.8 0-9.3-1.6-8.2-13.4 2-21.2-17.4-39.4-38.1-38.3s-36.6 18.5-36.7 39.1a32.7 32.7 0 001.1 9.4c-7.4-.7-14.3-1.4-20.8-2.3-11.1-1.5-15.2-5.6-7.5-16.2a43.4 43.4 0 006.1-12.4c6.4-21.5-7.1-40.8-31-41.7S175.5 71 171.9 93.2c-.2 1.1-.3 2.3-.4 3.4-4.1-4.5-5.1-9-3.6-13.1a41.7 41.7 0 00-2.9 16.3c1.5 40.2 69.7 60 167.7 60s158.1-21.2 158.8-60a23 23 0 00-.3-5.2z" fill="#fae773"/><path d="M491.2 94.6c-1.5 6.6-6.7 10.1-13.8 10.9-1-19.3-17.4-35-37.3-35.4s-36.9 15.3-36.9 35.3a36.4 36.4 0 001.4 9.9c1.7 5.9.2 11.3-8.6 12.2-17.8 1.9-37.9 1.7-37.9 1.7-5.8 0-9.3-1.6-8.2-13.4 2-21.2-17.4-39.4-38.1-38.3s-36.6 18.5-36.7 39.1a32.7 32.7 0 001.1 9.4c-7.4-.7-14.3-1.4-20.8-2.3-11.1-1.5-15.2-5.6-7.5-16.2a43.4 43.4 0 006.1-12.4c6.4-21.5-7.1-40.8-31-41.7S175.5 71 171.9 93.2c-.2 1.1-.3 2.3-.4 3.4-4.1-4.5-5.1-9-3.6-13.1a41.7 41.7 0 00-2.9 16.3c1.5 40.2 69.7 60 167.7 60s158.1-21.2 158.8-60a23 23 0 00-.3-5.2z" fill="none" stroke="#0f1aa5" stroke-linecap="round" stroke-linejoin="round" stroke-width="2.5"/><path d="M491.5 99.8c-.7 38.8-60.8 60-158.8 60S166.5 140 165 99.8 235.4 4.9 323.8 4.9s168.5 53.5 167.7 94.9z" fill="none" stroke="#0f1aa5" stroke-miterlimit="10" stroke-width="2.5"/><path d="M242.8 93.9c-5.2 17.1-23.7 30-41.9 29.8S169.2 110 172 92.3s23-34.7 44-33.9 32.3 17.3 26.8 35.5z" fill="#59beba"/><path d="M169 5.3c-52.6 1.4-83.8 27.3-82.8 60.2s51.3 48.1 94.3 39.5l52.9-34.5c-.7-41.3-11.9-66.6-64.4-65.2z" fill="#59beba"/><path d="M242.8 93.9c3.7-12.2-.4-23.7-9.7-30.1-1-21.1-5.5-37.5-18.2-47.5-14.5-9.6 7.7 3.4 3.4 18.5-3.4 11.9-19.1 23.6-34.7 32.9-28.9 14.7-42.3 6.4-62.8-2.4-14.1 3.5-24.3 7.4-34.4 2.5 3 29.9 46.6 43.9 86.8 38.4 3.9 10.4 14.4 17.4 27.7 17.5 18.2.2 36.7-12.7 41.9-29.8z" fill="#2e9aa6"/><path d="M233.1 63.8C231.4 26.5 218.6 4 169 5.3c-52.6 1.4-83.8 27.3-82.8 60.2s45.8 46.4 87 40.7c3.9 10.4 14.4 17.4 27.7 17.5 18.2.2 36.7-12.7 41.9-29.8 3.7-12.2-.4-23.7-9.7-30.1z" fill="none" stroke="#0f1aa5" stroke-miterlimit="10" stroke-width="2.5"/><path d="M191.9 30.6c-3.7 8.9-15 16-25.4 15.6s-15.6-8.6-11-17.9 16-15.3 25.7-14.5 14.3 8.2 10.7 16.8z" fill="#fff"/><path d="M180.9 28.7c-2.1 4.4-7.7 8.2-12.4 8.5s-6.8-3.4-4.3-8 8.1-7.9 12.6-7.9 6.2 3.2 4.1 7.4z" fill="#0f1aa5"/><path d="M119.3 30.4c-4.9 7.1-14.2 13.4-21 13.9s-8.6-5.9-2.4-14 15.8-13.4 21.9-12.8 6.2 6.2 1.5 12.9z" fill="#fff"/><path d="M111 29.7c-2.4 3.1-6.5 6-9.3 6.4s-3.2-2.1-.2-5.7 7.1-6 9.6-6 2.2 2.3-.1 5.3z" fill="#0f1aa5"/><path d="M191.9 30.6c-3.7 8.9-15 16-25.4 15.6s-15.6-8.6-11-17.9 16-15.3 25.7-14.5 14.3 8.2 10.7 16.8zM119.3 30.4c-4.9 7.1-14.2 13.4-21 13.9s-8.6-5.9-2.4-14 15.8-13.4 21.9-12.8 6.2 6.2 1.5 12.9z" fill="none" stroke="#0f1aa5" stroke-miterlimit="10" stroke-width="2.5"/><path d="M86.8 55.9c-1.6 10.4 1 20.3 25.8 10.9 6-2.2 9-2.2 14.6.8 21 11.2 35.6 12.7 61.7-2.9" fill="none" stroke="#0f1aa5" stroke-linecap="round" stroke-miterlimit="10" stroke-width="2.5"/><path d="M341.2 122.5l-33.4-2.6-17.4 35.9 10.6 3.3c10.2.5 20.7.7 31.7.7l21.6-.3c-14.2.2-19-12.7-13.1-37z" fill="none" stroke="#0f1aa5" stroke-linejoin="round" stroke-width="2.5"/><path d="M341.2 122.5l-33.4-2.6-17.4 35.9 10.6 3.3c10.2.5 20.7.7 31.7.7l21.6-.3c-14.2.2-19-12.7-13.1-37z" fill="#0f1aa5"/><path d="M338.2 131.1h-.1l-.6 1.2h-.1C327 150.8 320 172 316.2 196.4h-49.9c-.1 0-4.8-27.6-5-35.4 7.6-26.6 18-52.1 24.2-60.4a32.6 32.6 0 0124-12.7c17-.9 31.4 11.6 32.2 28a29.8 29.8 0 01-3.5 15.2z" fill="#59beba"/><path d="M261.6 161.1c-19.9 3.9-31.3 7.2-30.8 19.6.5 14.9 36.4 23.8 53.8 25.3s30 2.7 31.6-9.5z" fill="#59beba"/><path d="M337.5 132.4l.6-1.2h.1a29 29 0 00-20.9-42.5c14.3 2.9 10.7 16.2-1.2 42-5.6 12.2-9.6 21.3-12.3 27.8a30.4 30.4 0 01-17 16.4c-6.3 2.6-10.6 7.2-9.8 16.3.4 4.8.8 9.7 1.2 14.1a55.8 55.8 0 006.4.8c17.5 1.6 30 2.7 31.6-9.5 3.8-24.4 10.8-45.6 21.2-64.1z" fill="#2e9aa6"/><path d="M466 136.3l-22.9-28.1-25.6 13.2c7.3 14.2 7.1 29.7-2.1 31.8 19.6-4.1 39.3-10.3 50.6-16.9z" fill="none" stroke="#0f1aa5" stroke-linejoin="round" stroke-width="2.5"/><path d="M466 136.3l-22.9-28.1-25.6 13.2c7.3 14.2 7.1 29.7-2.1 31.8 19.6-4.1 39.3-10.3 50.6-16.9z" fill="#0f1aa5"/><path d="M504.8 142.8l6.8 23.8-55.7 15.2c-9.3-21.4-20.1-38.8-32.9-52.9l-1.8-1.8a29 29 0 01-6.8-18.5c0-16.1 13.5-29 30.3-29a31 31 0 0122.1 9l1.2 1.3h.2c13.9 15.1 26 32.5 36.6 52.9z" fill="#59beba"/><path d="M459.6 161c-3.1-4.8-10.5-8.7-16.6-8.7l-2.3.2c3.2 5.2 6.3 10.8 9.3 16.6a14.5 14.5 0 004.1.6c6.1 0 8.5-3.9 5.5-8.7zM504.8 142.8c-10.6-20.4-22.7-37.8-36.6-52.8h-.2l-1.2-1.3a31.7 31.7 0 00-34.7-6.4c13.3-4.6 37.2 17 57.3 55.6a9.6 9.6 0 007.5 5.2l8.2 1.1z" fill="#2e9aa6"/><path d="M504.8 142.8h0c-10.6-20.4-22.7-37.8-36.6-52.8h-.2l-1.2-1.3a31 31 0 00-22.1-9c-16.8 0-30.3 12.9-30.3 29a29 29 0 006.8 18.5l1.8 1.8c12.8 14.1 23.6 31.5 32.9 52.9h0c2.7 6.5 13.5 7.4 37.5 2.1s37.3-15.7 38.6-22.6-1.3-14.9-27.2-18.6zM341.7 116c-.8-16.4-15.2-28.9-32.2-28a32.6 32.6 0 00-24 12.7c-6.2 8.3-16.6 33.8-24.2 60.4h0c-19.7 4-31 7.2-30.5 19.6.5 14.9 36.4 23.8 53.8 25.3s30 2.7 31.6-9.5h0c3.8-24.4 10.8-45.6 21.2-64.1h.1l.6-1.2h.1a29.8 29.8 0 003.5-15.2z" fill="none" stroke="#0f1aa5" stroke-linejoin="round" stroke-width="2.5"/><path d="M218.6 146.8c-16-6.6-15.5-24.7-13.1-37.7s1.8-13.9-1.6-12-13.8 6.5-30.7 9.1l-7.4.8c4.5 17.8 23.5 30.9 52.8 39.8z" fill="none" stroke="#0f1aa5" stroke-linecap="round" stroke-linejoin="round" stroke-width="2.5"/><path d="M218.6 146.8c-16-6.6-15.5-24.7-13.1-37.7s1.8-13.9-1.6-12-13.8 6.5-30.7 9.1l-7.4.8c4.5 17.8 23.5 30.9 52.8 39.8z" fill="#0f1aa5"/><path d="M137.1 19.2c-5.2 4.4-7.6 9.8-5.5 12.1s6.4-1.3 11.5-5.7 9.2-8 7.1-10.2-8-.5-13.1 3.8z" fill="#80ffdd"/><path d="M100.4 134.5c-4.3-5.9 6-14.7 21-12.3" fill="none" stroke="#0f1aa5" stroke-linecap="round" stroke-linejoin="round" stroke-width="2.5"/><path d="M264.2 183.9c-27.6-8-34.6-2.4-31.1 2.9 8.3 11.2 36.6 17.9 51.5 19.2 11.3 1 20.5 1.8 26.1-1 3.5-2.8-14.3-11.8-46.5-21.1z" fill="#0f1aa5"/><path d="M264.2 183.9c-27.7-7.5-34.6-2.4-31.1 2.9 8.3 11.2 36.6 17.9 51.5 19.2 11.3 1 20.5 1.8 26.1-1 3.5-2.8-11.6-11.6-46.5-21.1zM507.6 159.8c-21 4.1-58.8 20.5-47.7 26 5.4 2.6 15.9 2 33.5-1.9 20.1-4.5 32.8-12.5 37.1-19.1s-4.2-8.6-22.9-5z" fill="#0f1aa5"/><path d="M248.5 183c.1-9.5 10.2-11.4 19.7-10.9M490.3 147.9c12.1.5 22.3 2.3 19.8 14.4" fill="none" stroke="#0f1aa5" stroke-linecap="round" stroke-linejoin="round" stroke-width="2.5"/><path d="M288.3 113.5c-2.4 5.9-2.1 11.5.6 12.5s4.4-3.9 6.8-9.7 4.3-10.6 1.7-11.6-6.8 3-9.1 8.8zM449.1 99.3c-4.4-4.6-9.7-6.9-11.8-5s1.6 5.5 6.1 10.1 7.9 8.6 10 6.7.2-7.1-4.3-11.8zM288.1 133.9c-.8 2.2-2.2 3.7-3.8 3.2s-1.9-2.5-1.1-4.7 2.2-3.8 3.8-3.3 1.8 2.6 1.1 4.8z" fill="#80ffdd"/><path d="M327.9 4.9c39.1 1.5 63.7 51 58.8 106.9-2.1 23.7-10.7 47.3-32.4 47.7" fill="none" stroke="#0f1aa5" stroke-miterlimit="10" stroke-width="2.5"/><path d="M227.6 27.3c7.6 10.1 48.8 18.6 98.6 19.7 55.4 1.3 100.1-6.9 99.8-18.4" fill="none" stroke="#0f1aa5" stroke-miterlimit="10" stroke-width="2.5"/><path d="M128.9 42.3a7.3 7.3 0 01-6.2 4.4c-2.4 0-3.5-1.9-2.5-4.4a7.5 7.5 0 016.2-4.4c2.4 0 3.6 2 2.5 4.4z" fill="#80ffdd"/><path d="M233.1 63.8c.8 11.3-5.6 17.3-5.6 17.3M114.8 89.9c5.6 2.8 17 2.9 26 1.1M276.9 146.8c4-.6 9.5-.8 13.5 1M497.8 130.1c-5-2.4-12-1.5-15.7.4M145.3 115.5a26.1 26.1 0 0010.5 7.1" fill="none" stroke="#0f1aa5" stroke-linecap="round" stroke-miterlimit="10" stroke-width="2.5"/></g></svg>
