<svg width="150" height="107" fill="none" xmlns="http://www.w3.org/2000/svg">
  <path d="M73.5 92c20.987 0 38-16.79 38-37.5S94.487 17 73.5 17s-38 16.79-38 37.5S52.513 92 73.5 92z" fill="#5865F2"/>
  <path d="M46.5 55.674L73.608 84 100.5 55.674h-7.56V12H54.06v43.674H46.5z" fill="#FFD836"/>
  <path d="M2.985 67.846l-1.4 2.97c-.336.671.392 1.4 1.064 1.064l2.969-1.4a.831.831 0 01.728 0l2.97 1.4c.672.336 1.4-.392 1.064-1.065l-1.4-2.969a.83.83 0 010-.728l1.4-2.969c.336-.672-.392-1.4-1.065-1.064l-2.969 1.4a.831.831 0 01-.728 0l-2.969-1.4c-.672-.336-1.4.392-1.064 1.064l1.4 2.97c.112.28.112.503 0 .727z" fill="#AEFDDC"/>
  <path d="M141.985 43.846l-1.4 2.97c-.336.671.392 1.4 1.064 1.064l2.969-1.4a.83.83 0 01.728 0l2.969 1.4c.673.336 1.401-.393 1.065-1.065l-1.401-2.969a.831.831 0 010-.728l1.401-2.969c.336-.672-.392-1.4-1.065-1.064l-2.969 1.4a.83.83 0 01-.728 0l-2.969-1.4c-.672-.336-1.4.392-1.064 1.064l1.4 2.97a.831.831 0 010 .727z" fill="#FBB848"/>
  <path d="M123.903 23.06a1.124 1.124 0 01-1.121-1.12v-1.12c0-.617.504-1.12 1.121-1.12.616 0 1.12.503 1.12 1.12v1.12c0 .616-.504 1.12-1.12 1.12zM123.903 32.024a1.124 1.124 0 01-1.121-1.12v-1.121c0-.616.504-1.12 1.121-1.12.616 0 1.12.504 1.12 1.12v1.12c0 .617-.504 1.12-1.12 1.12zM126.703 25.861c0-.616.504-1.12 1.121-1.12h1.12c.616 0 1.12.504 1.12 1.12 0 .616-.504 1.12-1.12 1.12h-1.12a1.124 1.124 0 01-1.121-1.12zM117.74 25.86c0-.616.504-1.12 1.121-1.12h1.12c.616 0 1.12.504 1.12 1.12 0 .617-.504 1.121-1.12 1.121h-1.12a1.124 1.124 0 01-1.121-1.12z" fill="#fff"/>
  <path fill-rule="evenodd" clip-rule="evenodd" d="M3.444 13.499c.568 0 1.042-.465 1.042-1.022 0-.557-.474-1.021-1.042-1.021h-.569c-.568 0-1.042.464-1.042 1.021 0 .557.474 1.022 1.042 1.022h.569zM24.95 25.85c5.4-2.415 7.674-8.544 5.211-13.653-1.705-3.622-5.306-5.758-9.095-5.944H10.36c-.947 0-1.61.744-1.61 1.58 0 .928.758 1.578 1.61 1.578h2.748c.568 0 1.042.464 1.042 1.022 0 .557-.474 1.022-1.042 1.022H6.38c-.569 0-1.042.464-1.042 1.021 0 .557.473 1.022 1.042 1.022h4.832c.569 0 1.042.464 1.042 1.021 0 .558-.474 1.022-1.042 1.022H8.181c-.569 0-1.042.464-1.042 1.021 0 .558.473 1.022 1.042 1.022h2.085a9.723 9.723 0 00.852 3.25c2.369 5.109 8.622 7.338 13.833 5.016zm-9.697-6.918c-1.375-2.937-.062-6.41 2.934-7.76 2.996-1.348 6.54-.06 7.916 2.877 1.375 2.936.062 6.41-2.934 7.759-2.996 1.348-6.54.06-7.916-2.876z" fill="url(#paint0_linear)"/>
  <path d="M22.961 13.127l1.895 3.158c.095.186.095.279 0 .464l-1.895 3.158c-.094.186-.284.186-.379.186h-3.695c-.19 0-.284-.093-.379-.186l-1.895-3.158c-.094-.185-.094-.278 0-.464l1.895-3.158c.095-.186.285-.186.38-.186h3.694c.19-.093.285 0 .38.186z" fill="url(#paint1_linear)"/>
  <path fill-rule="evenodd" clip-rule="evenodd" d="M104.733 80.404c.817 0 1.498-.667 1.498-1.468 0-.801-.681-1.469-1.498-1.469h-.818c-.817 0-1.498.668-1.498 1.469 0 .8.681 1.468 1.498 1.468h.818zm30.916 17.757c7.763-3.471 11.032-12.283 7.491-19.626-2.451-5.206-7.627-8.277-13.075-8.544h-15.39c-1.362 0-2.316 1.068-2.316 2.27 0 1.334 1.09 2.269 2.316 2.269h3.95c.817 0 1.498.668 1.498 1.469 0 .8-.681 1.468-1.498 1.468h-9.67c-.818 0-1.499.668-1.499 1.469 0 .8.681 1.468 1.499 1.468h6.946c.817 0 1.498.668 1.498 1.469s-.681 1.468-1.498 1.468h-4.359c-.817 0-1.498.668-1.498 1.469s.681 1.469 1.498 1.469h2.997a13.991 13.991 0 001.225 4.672c3.405 7.343 12.394 10.547 19.885 7.21zm-13.939-9.945c-1.977-4.221-.089-9.215 4.217-11.153 4.307-1.939 9.401-.088 11.379 4.133 1.978 4.222.09 9.216-4.217 11.154-4.307 1.939-9.401.088-11.379-4.134z" fill="url(#paint2_linear)"/>
  <path d="M132.789 79.87l2.724 4.54c.136.267.136.4 0 .667l-2.724 4.54c-.136.266-.409.266-.545.266h-5.312c-.272 0-.408-.133-.544-.267l-2.724-4.539c-.136-.267-.136-.4 0-.667l2.724-4.54c.136-.267.409-.267.544-.267h5.312c.273-.133.409 0 .545.267z" fill="url(#paint3_linear)"/>
  <defs>
    <linearGradient id="paint0_linear" x1="1.833" y1="26.769" x2="21.106" y2="-.776" gradientUnits="userSpaceOnUse">
      <stop stop-color="#738EF5"/>
      <stop offset=".753" stop-color="#B3AEFF"/>
    </linearGradient>
    <linearGradient id="paint1_linear" x1="1.833" y1="26.769" x2="21.106" y2="-.776" gradientUnits="userSpaceOnUse">
      <stop stop-color="#738EF5"/>
      <stop offset=".753" stop-color="#B3AEFF"/>
    </linearGradient>
    <linearGradient id="paint2_linear" x1="102.417" y1="84.736" x2="144.565" y2="84.736" gradientUnits="userSpaceOnUse">
      <stop stop-color="#B473F5"/>
      <stop offset="1" stop-color="#E292AA"/>
    </linearGradient>
    <linearGradient id="paint3_linear" x1="102.417" y1="84.736" x2="144.565" y2="84.736" gradientUnits="userSpaceOnUse">
      <stop stop-color="#B473F5"/>
      <stop offset="1" stop-color="#E292AA"/>
    </linearGradient>
  </defs>
</svg>
