<svg width="21" height="30" viewBox="0 0 21 30" fill="none" xmlns="http://www.w3.org/2000/svg">
<path d="M15.3084 30C15.4121 29.9973 15.5123 29.9648 15.5953 29.9071C15.6783 29.8494 15.7399 29.7693 15.7718 29.6778C16.6985 26.4915 14.6134 23.9138 12.9144 21.8732C12.4202 21.2809 11.9688 20.659 11.563 20.0115C10.3273 17.8634 11.2927 15.071 11.756 13.7105C11.7959 13.6508 11.8207 13.5835 11.8286 13.5136C11.8364 13.4437 11.8271 13.3731 11.8013 13.307C11.7755 13.241 11.734 13.1812 11.6797 13.1322C11.6254 13.0831 11.5599 13.0461 11.488 13.0239C11.4162 13.0017 11.3398 12.9948 11.2646 13.0039C11.1895 13.0129 11.1176 13.0376 11.0542 13.0761C10.9908 13.1146 10.9376 13.1659 10.8987 13.2262C10.8598 13.2865 10.836 13.3541 10.8293 13.4241V13.4241C10.3659 14.7845 9.28478 17.9708 10.7135 20.4411C11.1504 21.1296 11.6408 21.7877 12.1808 22.4102C13.7253 24.3076 15.656 26.7063 14.8451 29.4272C14.8095 29.5459 14.826 29.6728 14.8912 29.7802C14.9563 29.8876 15.0647 29.9666 15.1926 30H15.3084Z" fill="#C5CEDD"/>
<path d="M17.655 9.34344C17.8394 13.3132 14.1203 18.9604 11.3426 19.0802C8.56484 19.2001 4.37923 13.9446 4.19482 9.97484C4.01041 6.00506 6.87411 2.64328 10.5778 2.48352C14.2814 2.32377 17.4706 5.37366 17.655 9.34344Z" fill="#66BCFF"/>
<path d="M9.75008 19.9806C9.72289 19.263 10.6429 18.1696 11.3027 18.1543C11.9625 18.139 12.9751 19.1058 13.0371 19.8463C13.0992 20.5869 9.78917 20.756 9.75008 19.9806Z" fill="#66BCFF"/>
<path d="M7.23036 6.27636C6.25425 7.68264 6.43617 9.15186 7.0849 9.22925C7.73363 9.30663 8.2608 8.35438 9.34318 7.31796C10.4256 6.28154 11.292 5.95252 11.0556 5.09717C10.8193 4.24182 8.70048 4.19586 7.23036 6.27636Z" fill="#8CD9FF"/>
</svg>
