<svg width="110" height="98" viewBox="0 0 110 98" fill="none" xmlns="http://www.w3.org/2000/svg">
<path d="M102.385 0H7.61491C3.40931 0 0 3.40388 0 7.60278V64.6886C0 68.8875 3.40931 72.2914 7.61491 72.2914H102.385C106.591 72.2914 110 68.8875 110 64.6886V7.60278C110 3.40388 106.591 0 102.385 0Z" fill="#5865F2"/>
<path d="M84.2791 25.2673L70.0288 9.29299H52.9929V8.77295H70.2666L70.3402 8.85774L84.6698 24.9225L84.2791 25.2673Z" fill="#808AFF"/>
<path d="M53.7856 7.57446H60.5795C60.7897 7.57446 60.9913 7.65784 61.14 7.80625C61.2886 7.95466 61.3722 8.15595 61.3722 8.36583V9.04414H52.9929V8.36583C52.9929 8.15595 53.0764 7.95466 53.2251 7.80625C53.3737 7.65784 53.5753 7.57446 53.7856 7.57446Z" fill="#808AFF"/>
<path d="M102.362 25.092C102.364 28.0751 101.618 31.0111 100.191 33.6322C98.7643 36.2532 96.7029 38.4758 94.1948 40.097C91.6867 41.7183 88.8118 42.6865 85.8326 42.9134C82.8534 43.1404 79.8647 42.6187 77.1393 41.3961C74.4139 40.1736 72.0386 38.289 70.2302 35.9143C68.4217 33.5397 67.2377 30.7507 66.7863 27.8018C66.3348 24.853 66.6303 21.8382 67.6457 19.0327C68.661 16.2271 70.364 13.7201 72.5992 11.7405C73.3383 11.0838 74.1298 10.4883 74.9658 9.95992C77.7177 8.23528 80.889 7.29324 84.1376 7.23536H84.4717C86.821 7.23387 89.1477 7.69469 91.3186 8.59147C93.4895 9.48826 95.4621 10.8034 97.1237 12.4618C98.7852 14.1201 100.103 16.0892 101.002 18.2564C101.901 20.4235 102.363 22.7463 102.362 25.092Z" fill="#808AFF"/>
<path opacity="0.2" d="M101.23 18.8345L84.4717 25.092V7.23536C88.1164 7.23225 91.6749 8.34164 94.6702 10.4148C97.6655 12.488 99.9544 15.4258 101.23 18.8345Z" fill="white"/>
<path opacity="0.4" d="M84.4717 7.23535V25.092L72.5822 11.7405C73.3214 11.0838 74.1128 10.4883 74.9488 9.95992C77.7007 8.23527 80.872 7.29324 84.1206 7.23535H84.4717Z" fill="white"/>
<path d="M17.8908 33.1865H8.72461C8.12426 33.1865 7.63757 33.6724 7.63757 34.2718V63.9763C7.63757 64.5757 8.12426 65.0616 8.72461 65.0616H17.8908C18.4912 65.0616 18.9778 64.5757 18.9778 63.9763V34.2718C18.9778 33.6724 18.4912 33.1865 17.8908 33.1865Z" fill="#808AFF"/>
<path d="M44.8289 43.4404H35.6627C35.0623 43.4404 34.5756 43.9263 34.5756 44.5257V63.9764C34.5756 64.5758 35.0623 65.0617 35.6627 65.0617H44.8289C45.4292 65.0617 45.9159 64.5758 45.9159 63.9764V44.5257C45.9159 43.9263 45.4292 43.4404 44.8289 43.4404Z" fill="#808AFF"/>
<path d="M71.7726 43.4404H62.6064C62.0061 43.4404 61.5194 43.9263 61.5194 44.5257V63.9764C61.5194 64.5758 62.0061 65.0617 62.6064 65.0617H71.7726C72.373 65.0617 72.8597 64.5758 72.8597 63.9764V44.5257C72.8597 43.9263 72.373 43.4404 71.7726 43.4404Z" fill="#808AFF"/>
<path d="M85.2416 49.3926H76.0754C75.4751 49.3926 74.9884 49.8785 74.9884 50.4779V63.9763C74.9884 64.5757 75.4751 65.0616 76.0754 65.0616H85.2416C85.842 65.0616 86.3287 64.5757 86.3287 63.9763V50.4779C86.3287 49.8785 85.842 49.3926 85.2416 49.3926Z" fill="#808AFF"/>
<path d="M31.3598 17.8679H22.1936C21.5933 17.8679 21.1066 18.3538 21.1066 18.9532V63.9707C21.1066 64.5701 21.5933 65.056 22.1936 65.056H31.3598C31.9602 65.056 32.4468 64.5701 32.4468 63.9707V18.9532C32.4468 18.3538 31.9602 17.8679 31.3598 17.8679Z" fill="#808AFF"/>
<path d="M21.9672 7.57446H8.56608C8.05328 7.57446 7.63757 7.98951 7.63757 8.50149V10.186C7.63757 10.698 8.05328 11.113 8.56608 11.113H21.9672C22.48 11.113 22.8957 10.698 22.8957 10.186V8.50149C22.8957 7.98951 22.48 7.57446 21.9672 7.57446Z" fill="#808AFF"/>
<path d="M32.7866 7.57446H25.5906C25.2905 7.57446 25.0471 7.81742 25.0471 8.11711V9.25329C25.0471 9.55299 25.2905 9.79594 25.5906 9.79594H32.7866C33.0868 9.79594 33.3301 9.55299 33.3301 9.25329V8.11711C33.3301 7.81742 33.0868 7.57446 32.7866 7.57446Z" fill="#808AFF"/>
<path d="M99.3674 65.0561C100.193 65.0561 100.862 64.388 100.862 63.5638C100.862 62.7397 100.193 62.0715 99.3674 62.0715C98.5419 62.0715 97.8727 62.7397 97.8727 63.5638C97.8727 64.388 98.5419 65.0561 99.3674 65.0561Z" fill="#808AFF"/>
<path d="M95.1609 65.0561C95.9864 65.0561 96.6555 64.388 96.6555 63.5638C96.6555 62.7397 95.9864 62.0715 95.1609 62.0715C94.3354 62.0715 93.6662 62.7397 93.6662 63.5638C93.6662 64.388 94.3354 65.0561 95.1609 65.0561Z" fill="#808AFF"/>
<path d="M90.9486 65.0561C91.7741 65.0561 92.4433 64.388 92.4433 63.5638C92.4433 62.7397 91.7741 62.0715 90.9486 62.0715C90.1231 62.0715 89.4539 62.7397 89.4539 63.5638C89.4539 64.388 90.1231 65.0561 90.9486 65.0561Z" fill="#808AFF"/>
<path d="M58.3036 43.4404H49.1374C48.537 43.4404 48.0504 43.9263 48.0504 44.5257V63.9764C48.0504 64.5758 48.537 65.0617 49.1374 65.0617H58.3036C58.9039 65.0617 59.3906 64.5758 59.3906 63.9764V44.5257C59.3906 43.9263 58.9039 43.4404 58.3036 43.4404Z" fill="#808AFF"/>
<path d="M62.0685 20.3098L43.4304 22.0451L43.957 18.7836C44.2117 17.1952 46.1707 15.8668 48.6561 15.6351L55.7332 14.9681C58.2186 14.7307 60.387 15.6746 60.9419 17.1895L62.0685 20.3098Z" fill="url(#paint0_linear_2302_82829)"/>
<path d="M86.34 33.7689L86.8156 38.7658C86.969 40.2784 86.5907 41.7971 85.7455 43.0618C85.2453 43.8592 84.573 44.535 83.7775 45.0396C82.9821 45.5443 82.0838 45.8651 81.1483 45.9785C77.2417 46.346 73.6919 42.587 73.222 37.4996C72.7521 32.4122 75.5263 28.088 79.4498 27.7206C80.3896 27.6551 81.3322 27.8009 82.2081 28.1472C83.0841 28.4935 83.8711 29.0315 84.5113 29.7216C85.5737 30.8173 86.2204 32.2485 86.34 33.7689Z" fill="url(#paint1_linear_2302_82829)"/>
<path d="M85.27 31.9599C84.693 30.9615 83.9655 30.0578 83.1129 29.2806C82.9695 29.1506 82.8013 29.051 82.6182 28.9878C82.4352 28.9246 82.2413 28.8991 82.0481 28.9128C81.855 28.9265 81.6666 28.9792 81.4944 29.0677C81.3223 29.1562 81.1698 29.2786 81.0464 29.4275L81.0181 29.4615C80.9171 29.5857 80.8468 29.732 80.8131 29.8884C80.7793 30.0449 80.783 30.2071 80.8238 30.3618C80.8646 30.5166 80.9414 30.6595 81.048 30.7791C81.1545 30.8986 81.2878 30.9914 81.437 31.0498C82.5042 31.4525 83.5059 32.0106 84.4094 32.7061C84.5175 32.7914 84.653 32.8344 84.7905 32.8271C84.9281 32.8199 85.0583 32.7627 85.1567 32.6665C85.2544 32.5798 85.319 32.4621 85.3396 32.3334C85.3602 32.2046 85.3356 32.0727 85.27 31.9599Z" fill="url(#paint2_linear_2302_82829)"/>
<path d="M22.3804 40.9872L22.8504 45.9841C22.9837 47.4999 23.6401 48.9225 24.7074 50.0088C25.3491 50.6966 26.1365 51.2326 27.0122 51.5778C27.8878 51.923 28.8296 52.0687 29.7689 52.0042C33.6697 51.6367 36.4496 47.256 35.9967 42.2195C35.5438 37.183 31.9713 33.4014 28.0704 33.7688C27.1352 33.8812 26.2371 34.201 25.4416 34.7047C24.6462 35.2084 23.9736 35.8832 23.4731 36.6799C22.6175 37.9447 22.231 39.4682 22.3804 40.9872Z" fill="url(#paint3_linear_2302_82829)"/>
<path d="M23.0938 39.0032C23.4793 37.9183 24.0251 36.8971 24.713 35.9734C24.8294 35.8183 24.9761 35.6885 25.1443 35.5918C25.3124 35.4951 25.4985 35.4335 25.6913 35.4108C25.884 35.388 26.0793 35.4046 26.2654 35.4596C26.4515 35.5145 26.6245 35.6066 26.7739 35.7303L26.8022 35.7586C26.9251 35.8613 27.0221 35.9915 27.0852 36.1387C27.1482 36.2858 27.1756 36.4458 27.1652 36.6055C27.1547 36.7652 27.1066 36.9202 27.0248 37.0579C26.9431 37.1956 26.8299 37.312 26.6946 37.3979C25.7217 37.9906 24.8405 38.7218 24.0789 39.5685C23.9881 39.6718 23.8628 39.7385 23.7263 39.7562C23.5897 39.7739 23.4515 39.7413 23.3373 39.6646C23.2277 39.5981 23.1439 39.4965 23.0997 39.3764C23.0555 39.2562 23.0534 39.1247 23.0938 39.0032Z" fill="url(#paint4_linear_2302_82829)"/>
<path d="M80.8029 26.9743C80.3716 25.1612 79.4402 23.5049 78.1143 22.1931C76.7885 20.8814 75.1211 19.9666 73.3012 19.5524C59.5671 16.3783 45.1728 17.7287 32.2713 23.4019C30.5527 24.1438 29.0779 25.3537 28.0157 26.8931C26.9534 28.4325 26.3465 30.2393 26.2643 32.1069C26 38.268 26.5849 44.4362 28.0025 50.4384C28.4332 52.2518 29.3643 53.9084 30.6903 55.2203C32.0163 56.5321 33.6839 57.4467 35.5041 57.8602C42.3332 59.4368 49.3715 59.9082 56.3503 59.2564C63.3221 58.5944 70.1434 56.8255 76.5567 54.0165C78.2707 53.2692 79.7403 52.0566 80.7982 50.5167C81.8561 48.9768 82.46 47.1714 82.541 45.3058C82.6713 42.2308 82.5919 39.1505 82.3032 36.0863C82.0099 33.0187 81.5086 29.9743 80.8029 26.9743Z" fill="url(#paint5_linear_2302_82829)"/>
<g opacity="0.67">
<path opacity="0.67" d="M48.2598 20.0667L47.8692 20.1854L47.4785 20.2928L46.6972 20.5189L45.1346 20.9542L44.3533 21.169L43.5946 21.3894C43.3399 21.4685 43.0794 21.5307 42.819 21.6042L42.0433 21.8303L41.2394 22.0451L40.4694 22.2712L39.6881 22.4973L38.9125 22.7291L37.3668 23.1756L36.5855 23.3961L36.1949 23.5148L35.7986 23.6165C35.7213 23.6356 35.6396 23.6238 35.5709 23.5837C35.5021 23.5436 35.4518 23.4783 35.4305 23.4017C35.4147 23.3355 35.421 23.2658 35.4486 23.2036C35.4763 23.1413 35.5236 23.0897 35.5834 23.0569C36.0703 22.8082 36.5742 22.5934 37.0724 22.3617L37.8254 22.0451L38.5954 21.7512C39.1049 21.5533 39.6258 21.3838 40.1467 21.1859C40.6676 20.9881 41.1941 20.8637 41.7206 20.7111C42.2472 20.5585 42.7794 20.4285 43.3115 20.3041C43.8437 20.1797 44.3816 20.061 44.9195 19.9593L45.7291 19.818L46.5387 19.6936C47.1048 19.6258 47.6257 19.5523 48.1749 19.5127C48.2436 19.5096 48.3109 19.5331 48.3627 19.5784C48.4144 19.6238 48.4465 19.6873 48.4523 19.7558C48.4573 19.8156 48.4414 19.8753 48.4074 19.9247C48.3733 19.9742 48.3232 20.0104 48.2655 20.0271L48.2598 20.0667Z" fill="white"/>
</g>
<path d="M74.1675 29.1166C73.8886 28.1733 73.3584 27.3233 72.6335 26.6573C71.9086 25.9912 71.0162 25.5342 70.0515 25.335C58.7894 23.0407 47.0986 24.1365 36.461 28.4835C35.5446 28.8614 34.7493 29.4826 34.1614 30.2798C33.5736 31.077 33.2156 32.0197 33.1263 33.0056C32.6921 37.4097 33.0564 41.8559 34.202 46.131C34.4518 47.0906 34.9645 47.9617 35.6826 48.6466C36.4006 49.3315 37.2955 49.8032 38.267 50.0087C43.9414 51.1976 49.7628 51.5253 55.535 50.9809C61.3041 50.4376 66.9588 49.0333 72.3105 46.8149C73.2266 46.43 74.0176 45.7986 74.5954 44.9912C75.1731 44.1837 75.515 43.232 75.5829 42.242C75.8985 37.8176 75.4192 33.3725 74.1675 29.1166Z" fill="#ED5B00"/>
<path d="M74.5581 30.7558C74.2893 29.8016 73.7624 28.9397 73.0354 28.2647C72.3083 27.5897 71.4092 27.1275 70.4365 26.929C59.0035 24.5952 47.1337 25.7089 36.3364 30.1284C35.4182 30.5036 34.6212 31.1241 34.033 31.9218C33.4447 32.7195 33.0879 33.6636 33.0017 34.6505C32.6216 39.061 33.0436 43.5039 34.2473 47.7645C34.5179 48.7178 35.0453 49.5787 35.772 50.2535C36.4988 50.9283 37.397 51.391 38.3689 51.5914C44.055 52.751 49.8818 53.0634 55.6596 52.5184C61.4352 51.9808 67.0995 50.5942 72.469 48.4033C73.3869 48.0275 74.1835 47.4068 74.7716 46.6092C75.3598 45.8116 75.7169 44.8678 75.8037 43.8812C76.0047 41.6812 76.0047 39.4676 75.8037 37.2676C75.5845 35.0642 75.1677 32.8848 74.5581 30.7558Z" fill="black"/>
<path d="M63.1613 57.7189L63.4387 54.7739C63.4574 54.5678 63.4279 54.3602 63.3524 54.1675C63.2769 53.9748 63.1576 53.8023 63.0038 53.6635C62.85 53.5248 62.666 53.4237 62.4664 53.3682C62.2667 53.3127 62.0569 53.3044 61.8534 53.3438C59.8765 53.7346 57.8811 54.0251 55.8747 54.2143C53.8632 54.4055 51.843 54.4923 49.8224 54.4743C49.6156 54.4736 49.4115 54.5208 49.2261 54.6122C49.0406 54.7036 48.879 54.8367 48.7539 55.0011C48.6287 55.1655 48.5435 55.3566 48.505 55.5595C48.4664 55.7623 48.4755 55.9714 48.5316 56.1701L49.3525 58.9964C49.3956 59.1477 49.4869 59.2808 49.6125 59.3757C49.7382 59.4705 49.8914 59.5219 50.0489 59.5221C52.155 59.5221 54.2555 59.4279 56.3503 59.2395C58.4451 59.051 60.521 58.7533 62.5781 58.3463C62.7295 58.3173 62.8677 58.2408 62.9726 58.128C63.0775 58.0151 63.1435 57.8718 63.1613 57.7189Z" fill="url(#paint6_linear_2302_82829)"/>
<path d="M42.6888 40.3992C43.8645 40.3992 44.8176 39.4476 44.8176 38.2738C44.8176 37.1 43.8645 36.1484 42.6888 36.1484C41.5131 36.1484 40.56 37.1 40.56 38.2738C40.56 39.4476 41.5131 40.3992 42.6888 40.3992Z" fill="#57F287"/>
<path d="M64.2709 37.8782C65.4466 37.8782 66.3997 36.9266 66.3997 35.7528C66.3997 34.579 65.4466 33.6274 64.2709 33.6274C63.0952 33.6274 62.1422 34.579 62.1422 35.7528C62.1422 36.9266 63.0952 37.8782 64.2709 37.8782Z" fill="#57F287"/>
<path d="M58.581 41.2019H58.3885C55.39 41.2012 52.4022 41.558 49.4884 42.2646C49.6752 43.8982 51.8663 44.9835 54.3801 44.6896C56.8938 44.3956 58.7735 42.8355 58.581 41.2019Z" fill="#57F287"/>
<path d="M88.633 95.6932C88.5047 95.6922 88.3782 95.6628 88.2626 95.6071C88.1471 95.5514 88.0454 95.4707 87.9649 95.371C86.8219 93.8599 85.931 92.1745 85.3266 90.3797C85.281 90.2711 85.2584 90.1542 85.2602 90.0364C85.2621 89.9187 85.2883 89.8026 85.3373 89.6954C85.3863 89.5883 85.457 89.4924 85.5449 89.4138C85.6328 89.3353 85.736 89.2757 85.8481 89.239C85.9602 89.2022 86.0787 89.189 86.1961 89.2001C86.3135 89.2113 86.4274 89.2466 86.5305 89.3039C86.6336 89.3611 86.7237 89.439 86.7952 89.5327C86.8667 89.6265 86.918 89.7339 86.9458 89.8484C87.4871 91.4511 88.2823 92.9568 89.301 94.3083C89.4011 94.4339 89.4637 94.5851 89.4816 94.7446C89.4995 94.9041 89.472 95.0654 89.4022 95.21C89.3324 95.3546 89.2233 95.4766 89.0872 95.5621C88.9512 95.6476 88.7937 95.693 88.633 95.6932Z" fill="black"/>
<path d="M90.5862 93.0761C90.5039 93.0763 90.4219 93.0649 90.3428 93.0422C88.537 92.4528 86.8391 91.5746 85.3152 90.442C85.1531 90.2995 85.0509 90.1011 85.0293 89.8865C85.0076 89.6719 85.0682 89.4571 85.1987 89.2853C85.3292 89.1135 85.52 88.9973 85.7328 88.9602C85.9456 88.9231 86.1645 88.9678 86.3457 89.0853C87.7052 90.0925 89.217 90.8768 90.824 91.4086C91.0173 91.4693 91.1827 91.5966 91.2907 91.7677C91.3987 91.9389 91.4423 92.1428 91.4138 92.343C91.3852 92.5433 91.2863 92.727 91.1348 92.8612C90.9832 92.9955 90.7888 93.0716 90.5862 93.0761Z" fill="black"/>
<path d="M85.3323 96.6032C85.1414 96.6034 84.9559 96.5394 84.806 96.4214C84.656 96.3035 84.5502 96.1385 84.5057 95.9532C84.1006 94.0974 84.0031 92.1879 84.2169 90.3006C84.2439 90.0757 84.3593 89.8708 84.5377 89.7308C84.7161 89.5909 84.9428 89.5274 85.1681 89.5544C85.3933 89.5814 85.5986 89.6966 85.7387 89.8747C85.8789 90.0528 85.9424 90.2792 85.9154 90.5041C85.733 92.1855 85.8171 93.8852 86.1645 95.5406C86.1922 95.6654 86.1918 95.7947 86.1633 95.9194C86.1349 96.044 86.0792 96.1608 86.0001 96.2613C85.9211 96.3618 85.8207 96.4436 85.7062 96.5008C85.5917 96.558 85.4659 96.5891 85.3379 96.5919L85.3323 96.6032Z" fill="black"/>
<path d="M30.2614 76.8756C28.2891 76.8903 26.3342 76.5057 24.5149 75.7451C19.861 73.7893 16.2489 69.352 13.7578 62.5519C13.576 62.0523 13.4945 61.5219 13.5181 60.9909C13.5416 60.4598 13.6697 59.9387 13.8949 59.4571C14.3499 58.4845 15.1732 57.7321 16.1838 57.3656C17.1943 56.999 18.3093 57.0483 19.2835 57.5025C20.2577 57.9568 21.0112 58.7788 21.3783 59.7877C23.0768 64.3833 25.1546 67.2435 27.6401 68.2667C30.9918 69.6742 35.1757 67.7749 38.2387 66.39L38.6463 66.2035C39.1347 65.9447 39.671 65.7885 40.2222 65.7446C40.7733 65.7008 41.3276 65.7701 41.8509 65.9483C42.3742 66.1265 42.8554 66.4098 43.2648 66.7809C43.6742 67.1519 44.0031 67.6027 44.2313 68.1055C44.4595 68.6083 44.582 69.1525 44.5915 69.7044C44.6009 70.2564 44.497 70.8044 44.2862 71.3147C44.0754 71.825 43.762 72.2868 43.3656 72.6715C42.9691 73.0563 42.4979 73.3559 41.981 73.5519L41.5847 73.7327C38.8388 75.0215 34.7511 76.8756 30.2614 76.8756Z" fill="url(#paint7_linear_2302_82829)"/>
<path d="M84.1942 92.9573C83.4363 92.9585 82.6932 92.7472 82.0496 92.3474C81.406 91.9477 80.8877 91.3756 80.5538 90.6962C78.1646 85.8124 69.9212 74.2245 65.3579 71.8278C64.4075 71.3278 63.6948 70.4713 63.3768 69.4468C63.2194 68.9395 63.1635 68.4061 63.2125 67.8773C63.2615 67.3484 63.4143 66.8344 63.6623 66.3645C63.9102 65.8946 64.2485 65.4781 64.6577 65.1387C65.0668 64.7993 65.539 64.5438 66.0471 64.3866C67.0733 64.0691 68.1838 64.1716 69.1343 64.6716C76.3245 68.4475 85.553 82.4603 87.8177 87.1464C88.2885 88.1104 88.3568 89.2217 88.0075 90.236C87.6583 91.2503 86.92 92.0847 85.955 92.5559C85.4068 92.8232 84.8043 92.9606 84.1942 92.9573Z" fill="url(#paint8_linear_2302_82829)"/>
<path d="M68.9305 78.2098C68.8366 78.208 68.744 78.1869 68.6587 78.1476C68.5828 78.1113 68.5148 78.0604 68.4586 77.9979C68.4024 77.9353 68.3591 77.8623 68.3313 77.783C68.3034 77.7037 68.2915 77.6197 68.2962 77.5358C68.3009 77.4519 68.3221 77.3698 68.3586 77.2941C69.8363 74.2077 75.7924 68.8151 80.3783 69.2108C80.5447 69.228 80.6976 69.3101 80.8036 69.4392C80.9097 69.5684 80.9603 69.7342 80.9445 69.9004C80.9259 70.066 80.8433 70.2177 80.7143 70.3233C80.5852 70.4289 80.42 70.48 80.2538 70.4657C76.5624 70.1322 70.946 74.8182 69.4966 77.8141C69.4507 77.9277 69.3728 78.0255 69.2723 78.0957C69.1718 78.1659 69.0531 78.2056 68.9305 78.2098Z" fill="#3F99F2"/>
<path d="M72.7634 83.5911C72.6188 83.5919 72.4786 83.5418 72.3671 83.4498C72.2348 83.3452 72.1493 83.1927 72.1292 83.0254C72.109 82.8581 72.1559 82.6897 72.2595 82.5567C75.1809 78.8712 80.9162 75.2931 85.0379 74.5809C85.1208 74.5668 85.2056 74.5691 85.2876 74.5877C85.3696 74.6064 85.4471 74.641 85.5157 74.6895C85.5844 74.7381 85.6427 74.7996 85.6875 74.8707C85.7323 74.9418 85.7626 75.021 85.7767 75.1037C85.7908 75.1865 85.7885 75.2712 85.7698 75.3531C85.7511 75.435 85.7165 75.5124 85.6679 75.5809C85.6192 75.6494 85.5576 75.7076 85.4864 75.7523C85.4152 75.797 85.3359 75.8273 85.253 75.8414C81.3974 76.5084 76.0189 79.8717 73.2673 83.3481C73.2064 83.4231 73.1297 83.4839 73.0426 83.5259C72.9555 83.5679 72.8602 83.5902 72.7634 83.5911Z" fill="#3F99F2"/>
<path d="M76.0698 90.1989C75.9019 90.1983 75.741 90.1313 75.6225 90.0124C75.5625 89.9539 75.5147 89.884 75.4821 89.8069C75.4495 89.7297 75.4327 89.6468 75.4327 89.563C75.4327 89.4792 75.4495 89.3963 75.4821 89.3191C75.5147 89.242 75.5625 89.1721 75.6225 89.1136C77.5737 87.126 79.7447 85.3662 82.0938 83.868C84.6982 82.2683 86.9685 81.5278 88.8538 81.6635C88.9379 81.6692 89.02 81.6915 89.0955 81.729C89.1709 81.7665 89.2382 81.8185 89.2934 81.8821C89.3487 81.9456 89.3908 82.0195 89.4174 82.0993C89.4439 82.1792 89.4544 82.2635 89.4483 82.3474C89.4311 82.5125 89.3496 82.6642 89.2215 82.7699C89.0934 82.8757 88.9288 82.9269 88.7632 82.9127C85.202 82.6583 80.0952 86.4004 76.5001 89.9898C76.3892 90.1124 76.2349 90.1874 76.0698 90.1989Z" fill="#3F99F2"/>
<path d="M70.5724 66.8253C70.2135 65.584 69.4599 64.493 68.4252 63.7169C67.3906 62.9409 66.1312 62.5221 64.8371 62.5237H44.4552C43.1616 62.5239 41.9031 62.9435 40.8688 63.7192C39.8345 64.495 39.0805 65.585 38.72 66.8253L34.1906 82.4661C33.08 86.3022 33.4497 90.4145 35.2267 93.9918C35.977 95.494 37.1311 96.758 38.56 97.6425C39.9888 98.527 41.636 98.9971 43.3172 99H65.9638C67.645 98.9971 69.2922 98.527 70.721 97.6425C72.1499 96.758 73.304 95.494 74.0543 93.9918C75.8313 90.4145 76.201 86.3022 75.0903 82.4661L70.5724 66.8253Z" fill="url(#paint9_linear_2302_82829)"/>
<path d="M47.9711 66.0339H60.9929L63.6538 79.962C63.7079 80.2467 63.6985 80.5398 63.6262 80.8205C63.554 81.1011 63.4207 81.3624 63.2358 81.5858C63.051 81.8092 62.8191 81.9892 62.5567 82.1131C62.2943 82.2369 62.0078 82.3014 61.7175 82.3022H47.2464C46.9547 82.3039 46.6663 82.2412 46.4018 82.1185C46.1373 81.9958 45.9032 81.8161 45.7165 81.5924C45.5298 81.3687 45.395 81.1065 45.3218 80.8246C45.2486 80.5427 45.2388 80.2481 45.2931 79.962L47.9711 66.0339Z" fill="url(#paint10_linear_2302_82829)"/>
<path d="M33.7094 88.9102H75.5886V88.9271L75.3564 90.2668V90.2837H33.9472L33.7094 88.9102Z" fill="#ED5700"/>
<path d="M60.8909 65.3952L61.0155 66.034H47.9937L48.1183 65.3952C48.1734 65.1068 48.3272 64.8465 48.5534 64.6588C48.7796 64.4712 49.0641 64.3678 49.3582 64.3665H59.6737C59.9639 64.373 60.243 64.4787 60.4645 64.6659C60.6861 64.8531 60.8366 65.1106 60.8909 65.3952Z" fill="#FF9F19"/>
<path d="M16.7698 46.5946C16.7503 46.4279 16.6968 46.267 16.6126 46.1218C16.5284 45.9766 16.4152 45.8502 16.2801 45.7504C16.1449 45.6507 15.9908 45.5796 15.827 45.5417C15.6633 45.5038 15.4935 45.4998 15.3282 45.5301C15.1629 45.5603 15.0056 45.6241 14.8659 45.7174C14.7263 45.8108 14.6073 45.9318 14.5163 46.0729C14.4254 46.214 14.3644 46.3722 14.3372 46.5378C14.3099 46.7034 14.317 46.8728 14.3579 47.0355C14.6071 48.4035 14.726 48.98 14.9977 50.2745C11.8612 50.7267 10.4684 51.6424 10.1853 53.0329C10.0608 53.6887 10.508 54.8757 11.5328 55.9271C10.8194 58.4595 12.835 59.6522 14.5788 60.5114C14.8279 61.0088 15.9942 61.0766 17.3246 60.6753C18.6551 60.274 19.5893 59.46 19.4931 58.9004C19.5154 58.7618 19.5154 58.6206 19.4931 58.4821C19.3968 58.1033 19.3062 57.7359 19.2156 57.3516L17.6474 50.9189C17.2737 49.2174 17.0869 48.3356 16.7698 46.5946Z" fill="black"/>
<path d="M20.3422 76.4178C20.1912 76.4203 20.0441 76.3694 19.927 76.274C19.81 76.1786 19.7305 76.045 19.7027 75.8967C19.6749 75.7484 19.7006 75.5951 19.7751 75.4639C19.8497 75.3327 19.9684 75.2321 20.1101 75.1799C26.1737 72.8114 27.0683 67.0514 26.7003 65.3387C26.674 65.2541 26.6657 65.1651 26.6758 65.0772C26.6858 64.9893 26.7141 64.9044 26.7587 64.828C26.8033 64.7516 26.8634 64.6852 26.9351 64.6332C27.0067 64.5811 27.0884 64.5445 27.175 64.5257C27.2616 64.5068 27.3512 64.5061 27.438 64.5236C27.5249 64.5411 27.6072 64.5765 27.6796 64.6274C27.7521 64.6783 27.8132 64.7437 27.859 64.8195C27.9048 64.8952 27.9344 64.9796 27.9458 65.0673C28.512 67.6845 26.8984 73.8967 20.5857 76.3726C20.5082 76.4031 20.4255 76.4184 20.3422 76.4178Z" fill="#3F99F2"/>
<path d="M30.6464 80.2674C30.4821 80.2684 30.3237 80.2055 30.2048 80.0922C30.0859 79.9716 30.0192 79.8092 30.0192 79.64C30.0192 79.4707 30.0859 79.3083 30.2048 79.1878C31.2466 78.0911 31.9996 75.587 32.2317 72.4781C32.4355 69.6518 32.1468 66.865 31.507 65.5763C31.459 65.4306 31.4651 65.2726 31.5241 65.131C31.5831 64.9894 31.6912 64.8738 31.8286 64.8052C31.966 64.7367 32.1235 64.7197 32.2723 64.7575C32.4212 64.7953 32.5514 64.8852 32.6393 65.011C34.1623 68.086 33.8906 77.1472 31.1164 80.0696C31.0556 80.1327 30.9826 80.1828 30.9018 80.2168C30.821 80.2508 30.7341 80.268 30.6464 80.2674Z" fill="#3F99F2"/>
<path d="M14.7542 68.3968C14.3466 68.3968 13.9276 68.3968 13.486 68.3459C13.3987 68.3451 13.3124 68.3265 13.2326 68.2911C13.1527 68.2558 13.081 68.2045 13.0217 68.1404C12.9625 68.0763 12.917 68.0008 12.8881 67.9185C12.8592 67.8362 12.8475 67.7489 12.8537 67.6619C12.8599 67.5749 12.8839 67.4901 12.9242 67.4127C12.9644 67.3354 13.0201 67.267 13.0879 67.2119C13.1556 67.1569 13.2339 67.1162 13.3179 67.0925C13.402 67.0688 13.49 67.0625 13.5766 67.0741C18.6381 67.4302 22.0351 65.5648 23.6826 61.5232C23.7107 61.4409 23.7554 61.3652 23.8139 61.3007C23.8723 61.2362 23.9434 61.1843 24.0226 61.1482C24.1019 61.1121 24.1877 61.0925 24.2748 61.0907C24.3619 61.0889 24.4485 61.1049 24.5292 61.1376C24.6099 61.1704 24.683 61.2193 24.7442 61.2813C24.8053 61.3433 24.8531 61.4171 24.8846 61.4982C24.9161 61.5793 24.9307 61.6659 24.9275 61.7529C24.9243 61.8398 24.9033 61.9251 24.8659 62.0037C23.6543 64.9713 20.9481 68.3968 14.7542 68.3968Z" fill="#3F99F2"/>
<defs>
<linearGradient id="paint0_linear_2302_82829" x1="52.1026" y1="14.4511" x2="52.4931" y2="18.6045" gradientUnits="userSpaceOnUse">
<stop stop-color="#66BCFF"/>
<stop offset="1" stop-color="#3F99F2"/>
</linearGradient>
<linearGradient id="paint1_linear_2302_82829" x1="79.041" y1="27.9009" x2="80.122" y2="39.3987" gradientUnits="userSpaceOnUse">
<stop stop-color="#FFE75C"/>
<stop offset="1" stop-color="#FFC619"/>
</linearGradient>
<linearGradient id="paint2_linear_2302_82829" x1="85.698" y1="32.6405" x2="80.2415" y2="28.6989" gradientUnits="userSpaceOnUse">
<stop stop-color="#FFE75C"/>
<stop offset="1" stop-color="#FFF7DE"/>
</linearGradient>
<linearGradient id="paint3_linear_2302_82829" x1="30.3966" y1="36.5103" x2="31.4344" y2="48.0589" gradientUnits="userSpaceOnUse">
<stop stop-color="#FFE75C"/>
<stop offset="1" stop-color="#FFC619"/>
</linearGradient>
<linearGradient id="paint4_linear_2302_82829" x1="21.1405" y1="37.7235" x2="25.7331" y2="32.8338" gradientUnits="userSpaceOnUse">
<stop stop-color="#FFE75C"/>
<stop offset="1" stop-color="#FFF7DE"/>
</linearGradient>
<linearGradient id="paint5_linear_2302_82829" x1="48.0672" y1="21.9504" x2="61.5968" y2="57.9455" gradientUnits="userSpaceOnUse">
<stop stop-color="#FFC618"/>
<stop offset="0.31" stop-color="#FFAD19"/>
<stop offset="1" stop-color="#FF7D12"/>
</linearGradient>
<linearGradient id="paint6_linear_2302_82829" x1="56.3286" y1="59.2534" x2="55.8704" y2="54.3797" gradientUnits="userSpaceOnUse">
<stop offset="0.02" stop-color="#FFB619"/>
<stop offset="1" stop-color="#FFC619"/>
</linearGradient>
<linearGradient id="paint7_linear_2302_82829" x1="13.5313" y1="66.9892" x2="44.3872" y2="66.9892" gradientUnits="userSpaceOnUse">
<stop stop-color="#8CD9FF"/>
<stop offset="1" stop-color="#66BCFF"/>
</linearGradient>
<linearGradient id="paint8_linear_2302_82829" x1="63.1952" y1="78.577" x2="88.248" y2="78.577" gradientUnits="userSpaceOnUse">
<stop stop-color="#8CD9FF"/>
<stop offset="1" stop-color="#66BCFF"/>
</linearGradient>
<linearGradient id="paint9_linear_2302_82829" x1="54.6518" y1="66.3618" x2="54.6518" y2="97.8695" gradientUnits="userSpaceOnUse">
<stop stop-color="#FF5D12"/>
<stop offset="0.5" stop-color="#FF7D12"/>
<stop offset="0.99" stop-color="#FFC619"/>
</linearGradient>
<linearGradient id="paint10_linear_2302_82829" x1="54.4933" y1="72.4723" x2="54.4933" y2="81.8443" gradientUnits="userSpaceOnUse">
<stop offset="0.26" stop-color="#FFB619"/>
<stop offset="1" stop-color="#FFC619"/>
</linearGradient>
</defs>
</svg>
