<svg xmlns="http://www.w3.org/2000/svg" xmlns:xlink="http://www.w3.org/1999/xlink" viewBox="0 0 624 624">
  <defs>
    <linearGradient id="linear-gradient" x1="67.31" y1="440.1" x2="565.02" y2="188.44" gradientUnits="userSpaceOnUse">
      <stop offset="0" stop-color="#e9459d"/>
      <stop offset="0.26" stop-color="#cf1581"/>
      <stop offset="0.64" stop-color="#ec5e40"/>
      <stop offset="1" stop-color="#fdc41a"/>
    </linearGradient>
  </defs>
  <title>Avatar-Frames-Sticky-Hand</title>
  <g style="isolation: isolate">
    <g id="Layer_8" data-name="Layer 8">
      <path d="M565.5,218.6c-19.9-54.6-59.3-100-117.2-135.1-69.2-41.8-144.1-55.3-211-38.1C178.3,60.6,129.9,98.5,97.5,155c-30.2,52.4-49.4,88-53.7,130.2h0v.4a194.6,194.6,0,0,0-.5,30.7c.3,4.8-.8,7.5-2,11.2-4.1,12.2-3.5,20.8.3,34.4a44.7,44.7,0,0,1,.8,21.5c-.8,3.9-1.6,8.7-2.4,14.1a13.1,13.1,0,0,0,9.8,14.6h0a13.1,13.1,0,0,0,15.9-10.4q.5-2.8,1.2-6.3a1.4,1.4,0,0,1,2.7.1,312.4,312.4,0,0,0,6.8,35.2,13.7,13.7,0,0,0,14.5,10.5A13.3,13.3,0,0,0,102.7,425c-1.6-7.7-3.9-18.2-6.8-31.2a1.3,1.3,0,0,1,2.5-.9,199.6,199.6,0,0,0,24.2,35.2c4.3,4.9,12.5,6.5,18.1,3.1a13.9,13.9,0,0,0,3.7-20.3c-8.5-11.1-16.3-23.7-25.1-38.6A3,3,0,0,1,123,368c2.6,1,5.4,2.1,8.4,3a14.2,14.2,0,0,0,18.4-10.5,14.4,14.4,0,0,0-8.4-16.3c-26.5-12-47.8-27.2-46-51.2,2.7-33.3,18.3-61.9,47.1-112.1,25.4-44,62.6-73.5,107.8-85.1,53.2-13.8,114-2.3,171.1,32.2,47.5,28.8,79.5,65.2,95.2,108.3,14.5,40,15,85.1,1.4,134s-29,82.7-49.4,108c-24.7,30.7-57.9,49-101.3,56-78.4,12.6-118.8-14.5-161.6-43.2-27-18-54.8-36.7-91.1-44.5a26,26,0,1,0-11,50.8c26.6,5.7,48.2,20.2,73.1,36.9,22.5,15.1,48,32.1,79.6,43.1a223,223,0,0,0,73.5,12,280.7,280.7,0,0,0,45.7-3.8c56.8-9.1,100.5-33.5,133.6-74.7,25-31,43.2-70.1,59-126.6C584.6,324.7,583.8,268.9,565.5,218.6Z" style="fill: url(#linear-gradient)"/>
      <g style="opacity: 0.51;mix-blend-mode: multiply">
        <path d="M82.1,293a144.8,144.8,0,0,1,2.6-19.5,184.5,184.5,0,0,1,5.2-19,327.2,327.2,0,0,1,14.9-36.4c5.7-11.8,11.7-23.5,17.9-35,3.1-5.8,6.2-11.5,9.7-17.2a165.1,165.1,0,0,1,11.2-16.5,207,207,0,0,1,59.1-52.7,174.2,174.2,0,0,1,36.5-16.6,176.7,176.7,0,0,1,39.5-7.5c26.7-1.8,53.6,1.8,79.2,9.2a300,300,0,0,1,37.4,13.8l9,4.3,8.8,4.6c3,1.5,5.9,3.2,8.8,4.8s5.7,3.3,8.5,5.2c5.6,3.5,11.1,7.2,16.5,11,2.7,1.9,5.5,3.8,8.1,5.8s5.3,4.1,7.8,6.2a228.4,228.4,0,0,1,28.6,27.9,178.3,178.3,0,0,1,22.5,32.8,156.5,156.5,0,0,1,14,37v.2a2.6,2.6,0,0,1-5.1,1.4,174.2,174.2,0,0,0-15.5-34.7,189,189,0,0,0-22.6-30.8c-17.1-19-37.8-34.7-59.7-48.4a285.8,285.8,0,0,0-70-31.7,241.4,241.4,0,0,0-37.6-7.8,203.5,203.5,0,0,0-38.2-1.3A162.4,162.4,0,0,0,242,88.9a172.4,172.4,0,0,0-34.9,15.4,200,200,0,0,0-57.3,49.9,183.5,183.5,0,0,0-10.9,15.7c-3.4,5.3-6.5,11.1-9.7,16.8-6.4,11.4-12.6,22.8-18.4,34.4a323.1,323.1,0,0,0-15.3,35.4,147.4,147.4,0,0,0-5.4,18.3,150,150,0,0,0-3,18.6,2.5,2.5,0,1,1-5-.4Z" style="fill: #cf1581"/>
      </g>
      <g style="opacity: 0.9400000000000001;mix-blend-mode: color-dodge">
        <path d="M106.9,174.3c-5.2,12-10.8,23.8-16.1,35.6l-3.9,8.8c-1.3,3-2.6,5.9-3.8,8.8l-3.7,8.9-3.3,8.9a202.2,202.2,0,0,0-9.5,36.3l-.4,2.3-.3,1.1v1.2l-.6,4.7-.3,2.3a16.4,16.4,0,0,1-.2,2.3l-.4,4.7c-.3,3.2-.4,6.4-.6,9.5s-.2,6.4-.5,9.7v.2a4,4,0,0,1-4.3,3.7,4,4,0,0,1-3.7-3.2c-.7-3.3-1.2-6.6-1.7-9.9l-.5-5.1c-.1-1.6-.4-3.3-.4-5a125.2,125.2,0,0,1,.6-20.3l.6-5.1.9-5c.5-3.4,1.4-6.7,2.2-10,.3-.8.4-1.6.7-2.4l.7-2.5,1.6-4.8c1-3.2,2.2-6.3,3.4-9.5l3.9-9.2,4.3-9.1,4.5-8.8,4.8-8.7q9.8-17.1,21-33.3a2.9,2.9,0,0,1,4-.7,3,3,0,0,1,1.1,3.6Z" style="fill: #fd78b7"/>
      </g>
      <g style="opacity: 0.9400000000000001;mix-blend-mode: color-dodge">
        <path d="M404.5,80.4l-8.4-3.3L387.7,74l-8.5-2.9-8.5-2.6a262,262,0,0,0-34.9-7.7,235.3,235.3,0,0,0-35.5-3.1,249.5,249.5,0,0,0-35.6,2.4,217.5,217.5,0,0,0-34.6,8.2c-2.9.9-5.6,2-8.4,3s-5.6,2.2-8.3,3.3l-8.2,3.7-7.9,4.1a204,204,0,0,0-30,19.7A211.4,211.4,0,0,0,141,126.8h0a4.7,4.7,0,0,1-6.6.4,4.8,4.8,0,0,1-.5-6.4l5.8-7.4,6.3-7.1,6.7-6.9c2.2-2.2,4.6-4.3,6.9-6.5s4.8-4.2,7.2-6.2l7.6-5.8,7.9-5.5,8.1-5.1,8.4-4.6,8.6-4.3,8.8-3.8,8.9-3.4a208.8,208.8,0,0,1,37.2-9.3A223.6,223.6,0,0,1,338,46.2c3.1.7,6.2,1.2,9.2,2l9.2,2.2c3,.9,6.1,1.7,9,2.7l4.5,1.4,2.2.8,2.2.8a232.6,232.6,0,0,1,34.2,15.2h.2a5.1,5.1,0,0,1,2,6.8A4.8,4.8,0,0,1,404.5,80.4Z" style="fill: #fd78b7"/>
      </g>
      <g style="opacity: 0.9400000000000001;mix-blend-mode: color-dodge">
        <path d="M555.5,317.5c1.8-20.1,1.5-40.4-2.1-60.1a184.5,184.5,0,0,0-20.2-56.2c-9.7-17.6-22.1-33.7-36-48.5-6.9-7.4-14.2-14.4-21.8-21.2s-15.5-13.3-23.5-19.6a6.4,6.4,0,0,1-1.2-9.1,6.5,6.5,0,0,1,8.4-1.6l.7.4a212.5,212.5,0,0,1,49.1,40.1,269.1,269.1,0,0,1,20.2,25l4.6,6.6c1.5,2.2,2.9,4.5,4.3,6.8l4.1,6.9,3.8,7.1a183.9,183.9,0,0,1,12.4,29.8,188.8,188.8,0,0,1,7.1,31.3l.9,8c.2,2.6.5,5.3.6,7.9s.2,5.3.2,8V283c0,1.3-.1,2.7-.1,4s-.1,2.6-.1,3.9l-.3,4c-.1,2.6-.4,5.2-.6,7.8-.4,5.3-1.2,10.4-2,15.6v.3a4.1,4.1,0,0,1-4.8,3.5A4.2,4.2,0,0,1,555.5,317.5Z" style="fill: #fd78b7"/>
      </g>
      <g style="opacity: 0.9400000000000001;mix-blend-mode: color-dodge">
        <path d="M330.1,545.5a213.2,213.2,0,0,0,62.8-9.9,190.9,190.9,0,0,0,29-12.2l1.7-.9,1.7-1,3.4-1.9,6.6-4.2a137.6,137.6,0,0,0,12.6-9A182,182,0,0,0,470.4,485l2.5-3,2.5-3c1.7-2,3.2-4.2,4.8-6.2l4.5-6.5,4.3-6.6a251.1,251.1,0,0,0,15.4-27.9c2.3-4.8,4.6-9.6,6.7-14.5s4.3-9.9,6.4-14.9h0a4.5,4.5,0,0,1,8.4,3l-2.4,7.9-2.7,7.9c-.9,2.6-1.8,5.2-2.8,7.7l-3,7.8a266.9,266.9,0,0,1-14.5,30,198.8,198.8,0,0,1-19.1,27.8c-1.8,2.2-3.7,4.3-5.5,6.4L473,504l-3,3.1-3.1,2.9-1.5,1.5-1.6,1.4-3.2,2.8c-1.1,1-2.2,1.8-3.3,2.7-17.6,14.5-38.6,24.7-60.4,30.8-2.7.8-5.5,1.4-8.2,2.1s-5.5,1.2-8.3,1.7-5.5,1-8.3,1.4-2.8.5-4.2.6l-4.1.5-4.2.4-4.2.2q-4.2.1-8.4,0a93.6,93.6,0,0,1-16.7-1.7l-1.1-.3a4.3,4.3,0,0,1-3.4-5.1A4.4,4.4,0,0,1,330.1,545.5Z" style="fill: #fd78b7"/>
      </g>
      <g style="opacity: 0.9400000000000001;mix-blend-mode: color-dodge">
        <path d="M114.5,453.1l9.8,2.2,9.6,2.9,9.4,3.5,9.1,4,8.9,4.5,8.5,4.8,8.4,5.1,8.2,5.2,8.1,5.3,8,5.4c5.2,3.6,10.5,7.1,15.8,10.5l7.9,5.1,8.1,4.9,8,4.8,8.2,4.4a4,4,0,0,1,1.7,5.4,4.2,4.2,0,0,1-4.5,2l-.6-.2-4.7-1.3-4.8-1.4-4.5-1.7-4.6-1.8-4.5-2-4.4-2.1c-2.9-1.4-5.8-3-8.7-4.5s-5.6-3.2-8.4-4.8l-4.2-2.5-4-2.6-8.1-5.1-7.9-5.3-15.8-10.3c-2.7-1.7-5.4-3.2-8-4.9l-8-4.8a257.3,257.3,0,0,0-33.9-16.1l-.7-.3a4.5,4.5,0,0,1-2.5-5.7A4.4,4.4,0,0,1,114.5,453.1Z" style="fill: #fd78b7"/>
      </g>
      <g style="opacity: 0.9;mix-blend-mode: color-dodge">
        <path d="M99.8,324.5l2,1.7,2,1.6c1.3,1.1,2.6,2.2,4,3.2a95.9,95.9,0,0,0,8.5,5.6c2.9,1.8,5.9,3.4,8.9,5l4.6,2.3,4.7,2.3a1.2,1.2,0,0,1,.4,1.6,1.3,1.3,0,0,1-1.1.6h-.1a46.8,46.8,0,0,1-10.4-2.7l-1.2-.5-1.2-.5-2.5-1.1-2.4-1.3-2.3-1.4a49.6,49.6,0,0,1-8.5-6.6,34.5,34.5,0,0,1-6.7-8.5h-.1a1,1,0,0,1,.4-1.3A.9.9,0,0,1,99.8,324.5Z" style="fill: #fd78b7"/>
      </g>
      <path d="M123,368c2.6,1,5.4,2.1,8.4,3a14.2,14.2,0,0,0,18.4-10.5c-1.3,3.6-6.2,8.6-18.3,4.1-10.2-3.7-13.3-3.5-14.6-.4s.1,4.2,2.4,8.1A3,3,0,0,1,123,368Z" style="fill: #a30072"/>
      <path d="M121.8,422.6a93.8,93.8,0,0,1-15.3-24c-3.7-8.9-5.7-12.7-8.1-12.8s-3.8,2-2.5,8a1.3,1.3,0,0,1,2.5-.9,199.6,199.6,0,0,0,24.2,35.2c4.3,4.9,12.5,6.5,18.1,3.1l1.3-.9C136,434.5,126.5,427.5,121.8,422.6Z" style="fill: #a30072"/>
      <path d="M69.6,395.5a312.4,312.4,0,0,0,6.8,35.2,13.7,13.7,0,0,0,14.5,10.5,7,7,0,0,0,2.5-.5c-8.7,2.2-13.9-9.4-15.3-17.7s-3.2-21.1-3.4-29.3-3.7-9.4-5.5-8.8-1.2,4.3-2.3,10.5A1.4,1.4,0,0,1,69.6,395.5Z" style="fill: #a30072"/>
      <g>
        <path d="M41.6,361.9a44.7,44.7,0,0,1,.8,21.5c-.8,3.9-1.6,8.7-2.4,14.1a13.1,13.1,0,0,0,9.8,14.6h.8c-5.8-1.3-9.3-9.9-6.1-18.9s6.9-18.4,2.1-31.9-8.4-22.4-5.3-33.9C37.2,339.7,37.8,348.3,41.6,361.9Z" style="fill: #a30072"/>
        <path d="M51.5,412.4h0Z" style="fill: #a30072"/>
      </g>
      <g style="opacity: 0.9400000000000001;mix-blend-mode: color-dodge">
        <path d="M143.3,412.4a10.8,10.8,0,0,1,1.2,7.5,6.9,6.9,0,0,1-1.8,3.5,6.8,6.8,0,0,1-3.4,2.1,10.2,10.2,0,0,1-7.5-1.1,13.5,13.5,0,0,1-5.4-5.2.7.7,0,0,1,.3-1,.8.8,0,0,1,.8.1l.2.2a17,17,0,0,0,5.3,3.7,9.6,9.6,0,0,0,2.8.7,7.8,7.8,0,0,0,2.7-.2,5.2,5.2,0,0,0,3.4-3.4,8.3,8.3,0,0,0,.6-2.9,20.4,20.4,0,0,0-.3-3.4v-.2c-.1-.3.2-.6.5-.7A.6.6,0,0,1,143.3,412.4Z" style="fill: #fd78b7"/>
      </g>
      <g style="opacity: 0.9400000000000001;mix-blend-mode: color-dodge">
        <path d="M90.4,435.2a7,7,0,0,0,3.3-4.2,19.3,19.3,0,0,0,1.1-5.9,44.2,44.2,0,0,0-.1-6.3c-.1-2.2-.3-4.3-.6-6.4a.8.8,0,0,1,.7-.8.6.6,0,0,1,.7.4h.1a27.7,27.7,0,0,1,2.2,6.3,30.8,30.8,0,0,1,.8,6.8,16.9,16.9,0,0,1-1.3,7.2l-.5.8a4.1,4.1,0,0,0-.5.9l-1.4,1.5a6.3,6.3,0,0,1-3.8,1.5h-.3a1,1,0,0,1-1-1A1.1,1.1,0,0,1,90.4,435.2Z" style="fill: #fd78b7"/>
      </g>
      <g style="opacity: 0.9400000000000001;mix-blend-mode: color-dodge">
        <path d="M57.1,405.5a12.1,12.1,0,0,0,1.1-3c.3-1,.5-2.1.7-3.1s.3-2.1.4-3.2l.3-3.3c.2-2.3.4-4.5.7-6.8a39.3,39.3,0,0,1,1.5-6.8h0a1.3,1.3,0,0,1,2.6.3c.1,2.3.1,4.5,0,6.8a53.4,53.4,0,0,1-.5,6.9,29.5,29.5,0,0,1-1.6,7,12.1,12.1,0,0,1-4.2,6.2.7.7,0,0,1-.9-.2.5.5,0,0,1-.1-.6Z" style="fill: #fd78b7"/>
      </g>
      <g style="opacity: 0.51;mix-blend-mode: multiply">
        <path d="M111.4,485.6a65.2,65.2,0,0,1,13.2,2.3c4.3,1.2,8.6,2.7,12.7,4.3a249.2,249.2,0,0,1,23.8,11.6c7.7,4.3,15.2,8.8,22.7,13.3l22.3,13.4,11.2,6.5c3.7,2.1,7.5,4.1,11.3,6.1,7.6,3.9,15.3,7.6,23,10.8a265.5,265.5,0,0,0,48.9,14,245.2,245.2,0,0,0,50.6,4.1c4.2-.2,8.4-.4,12.7-.8l12.6-1.5c4.1-.7,8.3-1.4,12.5-2.3s8.2-1.9,12.3-3.1,8.1-2.5,12.1-4,7.9-3,11.8-4.7,7.8-3.6,11.5-5.6,7.5-4.1,11.2-6.3a225.3,225.3,0,0,0,40.4-32.1h.2a2.8,2.8,0,0,1,4.1,3.9,213.7,213.7,0,0,1-40.1,35.2,192.7,192.7,0,0,1-48.2,23.1,205.2,205.2,0,0,1-52.6,9.2,243.2,243.2,0,0,1-53.2-3.8,254.8,254.8,0,0,1-51.1-14.7,264.2,264.2,0,0,1-24-11.5c-7.8-4.2-15.4-8.7-22.8-13.3-14.9-9.2-29.4-19-44.1-27.9-7.4-4.4-14.9-8.6-22.5-12.2s-15.5-6.4-23.3-7.5a3.3,3.3,0,0,1-2.8-3.7,3,3,0,0,1,3.4-2.7Z" style="fill: #a30072"/>
      </g>
    </g>
  </g>
</svg>
