<svg width="26" height="31" viewBox="0 0 26 31" fill="none" xmlns="http://www.w3.org/2000/svg">
<path d="M8.18248 29.4858C8.32261 28.2806 7.9949 25.5091 5.56305 24.0647C17.7952 25.9017 31.1378 21.161 19.3163 2.70829C20.0218 3.18213 22.0709 3.63701 24.6233 1.66587" stroke="#232428" stroke-width="2" stroke-linecap="round" stroke-linejoin="round"/>
<path d="M7.02076 18.5788C8.11364 17.0485 7.73166 14.9024 6.16758 13.7854C4.60351 12.6684 2.44963 13.0035 1.35676 14.5338C0.263881 16.0641 0.645863 18.2102 2.20994 19.3272C3.77401 20.4442 5.92789 20.1091 7.02076 18.5788Z" fill="#232428"/>
<path d="M14.6809 6.69071C15.7738 5.1604 15.3918 3.01434 13.8277 1.89736C12.2637 0.780372 10.1098 1.11544 9.0169 2.64575C7.92402 4.17606 8.306 6.32212 9.87008 7.4391C11.4341 8.55609 13.588 8.22102 14.6809 6.69071Z" fill="#232428"/>
</svg>
