<svg width="20" height="20" viewBox="0 0 20 20" fill="none" xmlns="http://www.w3.org/2000/svg">
<g clip-path="url(#clip0_262:50958)">
<path d="M14.2004 1L7.40041 1.1C7.00041 1.1 6.80041 1.7 7.10041 2L8.40041 3.2C8.80041 3.6 8.80041 4.2 8.40041 4.6L7.00041 6.1C5.90041 7.3 5.90041 9.2 7.10041 10.3C7.50041 10.7 8.10041 10.7 8.50041 10.3L10.6004 8.1C11.4004 7.3 12.6004 7.3 13.4004 8.1L14.0004 8.6C14.3004 8.9 14.9004 8.7 14.8004 8.2L14.7004 1.5C14.7004 1.2 14.5004 1 14.2004 1Z" fill="#B9BBBE"/>
<path d="M5.6 19.5L12.4 19.4C12.8 19.4 13.1 18.8 12.7 18.5L11.4 17.3C11 16.9 11 16.3 11.4 15.9L12.8 14.5C14 13.3 13.9 11.4 12.7 10.3C12.3 9.9 11.7 9.9 11.3 10.3L9.2 12.5C8.4 13.3 7.2 13.3 6.4 12.5L5.8 11.9C5.5 11.6 5 11.8 5 12.3L5.1 19C5.1 19.3 5.4 19.5 5.6 19.5Z" fill="#B9BBBE"/>
</g>
<defs>
<clipPath id="clip0_262:50958">
<rect width="9.8" height="18.5" fill="white" transform="translate(5 1)"/>
</clipPath>
</defs>
</svg>
