<svg width="165" height="119" viewBox="0 0 165 119" fill="none" xmlns="http://www.w3.org/2000/svg">
  <g clip-path="url(#clip0_10_1894)">
    <path
      d="M94.5669 73.2436L122.482 5.33014H128.827L160.032 18.9607L162.758 24.0364L158.078 36.4867L136.569 94.6575L131.636 95.236L98.293 83.5957L94.5669 80.5718L92.8719 77.0774L94.5669 73.2436Z"
      fill="#91FFAC" />
    <path
      d="M159.452 14.5483L129.002 2.55317C127.925 2.12941 126.776 1.92502 125.62 1.95179C124.465 1.97856 123.326 2.23594 122.269 2.70913C121.213 3.18232 120.259 3.86197 119.463 4.70896C118.668 5.55595 118.046 6.55356 117.633 7.64436L91.9862 74.1076C91.3365 75.7421 91.1849 77.5354 91.5508 79.2575C91.9168 80.9797 92.7836 82.5521 94.0401 83.7731C94.871 84.5871 95.855 85.2245 96.9339 85.6476L127.384 97.6351C128.463 98.0648 129.615 98.2745 130.775 98.252C131.935 98.2295 133.079 97.9752 134.141 97.5039C136.288 96.5531 137.974 94.7803 138.829 92.5747L164.476 26.1115C164.897 25.018 165.102 23.8519 165.079 22.6788C165.052 21.5048 164.792 20.3481 164.316 19.277C163.852 18.2029 163.182 17.2325 162.345 16.4221C161.507 15.6117 160.519 14.9774 159.437 14.556L159.452 14.5483ZM133.835 91.1091C133.62 91.6872 133.238 92.1867 132.738 92.5429C132.239 92.8991 131.645 93.0956 131.033 93.107C130.629 93.1156 130.227 93.0449 129.85 92.8987L98.3464 80.487C97.6038 80.1787 97.0111 79.5875 96.6968 78.8411C96.3824 78.0947 96.3716 77.2533 96.6667 76.4989L122.696 9.0483C123.003 8.31351 123.576 7.72519 124.299 7.40392C125.021 7.08265 125.838 7.05276 126.582 7.32038L132.69 9.73484C133.127 9.90726 133.479 10.2472 133.67 10.6807C133.86 11.1141 133.873 11.6059 133.706 12.049C133.551 12.5088 133.579 13.0111 133.782 13.451C133.985 13.8908 134.349 14.2343 134.798 14.4095L147.304 19.3541C147.524 19.4374 147.757 19.4792 147.991 19.4775C148.462 19.4655 148.91 19.2658 149.236 18.9221C149.401 18.7535 149.529 18.5509 149.61 18.3282C149.697 18.1006 149.829 17.8935 149.999 17.7196C150.168 17.5458 150.371 17.409 150.595 17.3176C150.838 17.2212 151.098 17.1766 151.359 17.1865C151.598 17.187 151.835 17.2396 152.053 17.3408L158.101 19.7167C158.855 20.0043 159.467 20.5818 159.801 21.3232C160.136 22.0646 160.167 22.9096 159.887 23.6739L133.835 91.1091Z"
      fill="#2CCB7A" />
    <path
      d="M117.61 16.7236C117.653 16.2975 117.783 15.885 117.992 15.5125C119.328 13.1366 123.146 12.5966 125.368 14.0468C127.819 15.5896 128.789 18.5286 126.674 21.9305C122.856 27.9936 120.993 30.6318 119.687 29.6444C117.901 28.333 116.885 22.5784 117.61 16.7236Z"
      fill="black" />
    <path
      d="M125.833 23.7825C126.287 21.8116 124.678 19.7488 122.238 19.1752C119.798 18.6017 117.453 19.7345 116.999 21.7055C116.545 23.6764 118.154 25.7392 120.594 26.3128C123.034 26.8863 125.379 25.7535 125.833 23.7825Z"
      fill="#E9459D" />
    <path
      d="M109.402 57.1986L104.539 66.6945C98.5144 64.28 99.194 61.7267 100.202 60.6159C101.633 59.3708 103.129 58.2043 104.684 57.1215L109.402 57.1986Z"
      fill="#E9459D" />
    <path
      d="M142.998 50.9272C139.615 46.0443 136.767 44.031 122.169 50.4952C108.379 56.6664 100.301 61.4644 100.118 73.4982C100.091 76.2195 100.419 78.9325 101.095 81.5669L129.865 92.8987C130.243 93.0449 130.644 93.1156 131.049 93.107C131.657 93.0926 132.248 92.8947 132.745 92.5387C133.241 92.1827 133.621 91.6848 133.835 91.1091L146.052 59.4434C145.35 55.7021 144.426 53.0331 142.998 50.9272Z"
      fill="#FF78B7" />
    <path
      d="M132.683 46.7617C130.071 47.2785 126.674 48.4973 122.131 50.4952C115.9 53.3031 110.8 55.8101 107.135 58.834C104.569 66.1853 104.31 74.3621 105.844 83.4491L128.682 92.459C128.682 92.459 124.414 71.13 126.2 57.376L132.683 46.7617Z"
      fill="white" />
    <path
      d="M128.903 47.8339L134.637 69.1552C135.981 69.9266 139.669 68.8158 142.563 68.4686L150.198 48.667C145.082 43.2595 140.707 44 128.903 47.8339Z"
      fill="#FF78B7" />
    <path
      d="M107.112 58.834C106.221 60.9505 105.66 63.1935 105.447 65.4834C105.783 71.8165 109.693 73.3979 114.457 71.6545C119.221 69.9112 123.146 65.5759 125.857 61.3873L126.208 57.376L132.683 46.7617C130.071 47.2785 126.674 48.4973 122.131 50.4952C115.9 53.3031 110.8 55.8101 107.112 58.834Z"
      fill="#4A7DFF" />
    <path
      d="M116.877 59.1888L135.118 47.2707C132.515 33.9102 132.515 28.927 126.414 23.5504C120.313 18.1738 111.036 21.5217 106.348 25.6177C101.66 29.7138 101.278 33.9025 102.47 40.6368C100.584 42.789 96.1704 49.0372 100.774 55.0078C106.348 62.3052 110.929 63.0457 116.877 59.1888Z"
      fill="#4A7DFF" />
    <path
      d="M108.639 60.6544C112.647 60.9321 121.367 58.5639 129.407 52.3002C123.39 62.2126 109.639 72.1173 108.639 60.6544Z"
      fill="#2B53F1" />
    <path
      d="M108.165 32.2595C110.151 31.9278 112.105 33.0309 112.395 34.0722C112.686 35.1136 110.952 34.7279 108.876 35.0905C106.799 35.453 105.371 36.425 105.058 35.3682C104.745 34.3114 106.18 32.5603 108.165 32.2595Z"
      fill="black" />
    <path
      d="M140.158 54.2673L133.118 59.937L125.803 62.2975L126.025 59.8676C126.066 59.2883 125.883 58.7154 125.513 58.2708C122.894 55.0233 122.871 54.6376 124.108 53.7273C126.987 51.552 130.804 48.8521 135.859 45.728L140.158 54.2673Z"
      fill="#FF78B7" />
    <path
      d="M124.268 56.6124C123.505 55.5248 123.467 55.0696 123.925 54.6917C124.383 54.3137 125.284 54.5297 129.17 57.2527C130.148 57.9855 131.659 59.0269 132.224 59.0732C132.789 59.1195 133.973 57.0444 135.279 53.6734C136.584 50.3024 136.691 46.8312 136.913 45.4427C136.588 45.1856 136.19 45.0409 135.777 45.0297C135.365 45.0186 134.96 45.1418 134.622 45.3809C130.117 48.6619 126.546 51.4518 123.91 53.7506C122.932 54.6068 122.963 54.8305 124.268 56.6124Z"
      fill="#E9459D" />
    <path
      d="M126.414 23.5505C120.306 18.1507 111.036 21.5217 106.318 25.6178C105.576 26.2559 104.898 26.9664 104.294 27.7391C104.386 29.7525 108.043 31.3647 119.802 25.7027C119.958 25.6276 120.128 25.5863 120.301 25.5813C120.474 25.5764 120.646 25.608 120.806 25.674C120.967 25.7401 121.111 25.8392 121.232 25.965C121.352 26.0908 121.445 26.2405 121.504 26.4046C122.306 28.7188 124.681 32.9538 130.972 31.4958L131.301 29.6059C130.068 27.2914 128.41 25.236 126.414 23.5505Z"
      fill="black" />
    <path
      d="M129.72 38.6158C129.771 38.7553 129.829 38.8919 129.896 39.0246C130.334 39.8994 131.098 40.5628 132.02 40.8694C132.941 41.1759 133.946 41.1006 134.813 40.66C136.439 39.7266 137.103 37.7132 136.195 35.3451C136.048 34.9477 136.024 34.5146 136.126 34.1031C138.279 26.9446 138.959 24.2061 137.783 23.6122C136.607 23.0182 131.377 27.8934 127.261 32.3598L129.72 38.6158Z"
      fill="#4A7DFF" />
    <path
      d="M129.369 36.4173C129.48 36.4988 129.613 36.5427 129.751 36.5427C129.888 36.5427 130.021 36.4988 130.132 36.4173L130.369 36.2553L131.514 34.6045C131.995 35.3219 132.484 36.3093 131.866 37.073C131.786 37.215 131.753 37.379 131.772 37.5411C131.79 37.7033 131.859 37.8554 131.969 37.9754C132.078 38.0955 132.223 38.1773 132.381 38.2092C132.54 38.2411 132.704 38.2214 132.851 38.1529L133.026 38.0295C133.996 36.7567 133.752 35.0905 132.37 33.4011L135.424 28.8808C135.527 28.7194 135.568 28.5247 135.537 28.3349C135.505 28.1451 135.405 27.9739 135.256 27.8548C135.179 27.7985 135.091 27.7581 134.999 27.7362C134.906 27.7142 134.81 27.711 134.717 27.7268C134.623 27.7426 134.533 27.777 134.453 27.8281C134.372 27.8792 134.303 27.946 134.248 28.0245C132.469 30.547 129.285 35.5147 129.231 35.5533C129.158 35.6928 129.132 35.8527 129.157 36.0086C129.181 36.1645 129.256 36.308 129.369 36.4173Z"
      fill="#2B53F1" />
    <path
      d="M105.363 44.2932L105.768 44.2006C106.31 45.8514 108.059 46.0906 110.135 45.8823C112.212 45.674 114.587 44.6789 115.083 42.9124C115.52 43.1558 115.878 43.5224 116.112 43.9676C116.347 44.4127 116.448 44.9172 116.404 45.4194C116.377 45.8185 116.31 46.2138 116.206 46.5997C115.394 46.3544 114.546 46.2552 113.701 46.3065C111.38 46.4258 109.193 47.4421 107.593 49.1453L107.028 47.7799C106.738 46.9622 106.196 46.754 105.844 47.7028C105.701 48.0732 105.598 48.4587 105.539 48.8521C105.111 48.4697 104.752 48.0157 104.478 47.5099C103.577 45.8206 104.462 44.5555 105.363 44.2932Z"
      fill="black" />
    <path
      d="M107.013 47.7799L107.578 49.1453C107.38 49.3896 107.199 49.6474 107.035 49.9166C106.482 49.6468 105.969 49.3016 105.508 48.8907C105.568 48.4973 105.67 48.1118 105.814 47.7413C106.18 46.7539 106.722 46.9622 107.013 47.7799Z"
      fill="white" />
    <path
      d="M113.701 46.3066C114.546 46.2552 115.394 46.3544 116.205 46.5997C115.952 47.4827 115.445 48.2695 114.747 48.8599L114.19 47.5331C113.907 46.7154 113.357 46.5071 113.014 47.4559C112.709 48.2348 112.586 49.0743 112.655 49.909C112.655 49.909 112.655 49.9784 112.655 50.0092C111.912 50.265 111.144 50.4383 110.364 50.5261C109.229 50.6244 108.089 50.4 107.074 49.8781C107.237 49.6088 107.418 49.3511 107.616 49.1067C109.216 47.4232 111.393 46.4214 113.701 46.3066Z"
      fill="#FF2EA1" />
    <path
      d="M112.991 47.4559C113.334 46.5071 113.884 46.6845 114.166 47.533L114.724 48.8598C114.105 49.3652 113.402 49.7545 112.647 50.0092C112.647 50.0092 112.647 49.9475 112.647 49.9089C112.573 49.0754 112.691 48.236 112.991 47.4559Z"
      fill="white" />
    <path
      d="M110.166 45.8823C108.097 46.0905 106.348 45.8823 105.799 44.2006C107.142 43.9692 107.975 44.6557 109.097 44.594C110.586 44.5169 111.792 43.3521 113.235 42.8661C113.843 42.633 114.518 42.6497 115.114 42.9124C114.587 44.6789 112.166 45.674 110.166 45.8823Z"
      fill="white" />
    <path
      d="M106.936 40.1046C106.799 40.1061 106.664 40.0771 106.539 40.0197C106.312 39.9137 106.135 39.7217 106.046 39.4851C105.958 39.2484 105.965 38.9861 106.066 38.7546C106.313 38.222 106.671 37.7494 107.115 37.3688C107.559 36.9881 108.079 36.7084 108.639 36.5484C109.891 36.2707 111.235 36.7413 112.632 37.9601C112.727 38.0431 112.805 38.1443 112.861 38.2576C112.917 38.371 112.95 38.4944 112.959 38.6209C112.968 38.7473 112.952 38.8742 112.912 38.9945C112.873 39.1147 112.81 39.2259 112.728 39.3216C112.645 39.4173 112.545 39.4957 112.433 39.5524C112.321 39.6091 112.199 39.6428 112.074 39.6518C111.948 39.6607 111.823 39.6447 111.704 39.6046C111.585 39.5645 111.475 39.5011 111.38 39.418C110.761 38.878 109.853 38.2532 109.089 38.4306C108.817 38.5221 108.565 38.6684 108.35 38.8606C108.135 39.0529 107.96 39.2871 107.837 39.5491C107.757 39.7204 107.629 39.8641 107.469 39.9628C107.309 40.0615 107.124 40.1108 106.936 40.1046Z"
      fill="black" />
    <path
      d="M102.401 80.6182C101.811 80.0624 101.142 79.5995 100.416 79.2451C99.2703 78.6665 98.8886 78.4274 98.8886 78.2037C99.0348 77.3375 99.2467 76.4838 99.5223 75.6504C99.8354 74.6244 99.8735 74.3622 99.7819 74.1693C99.0655 73.9056 98.3071 73.7774 97.5448 73.7913C95.9719 73.6525 95.6512 73.6448 95.5596 73.4519C95.5689 72.7898 95.6929 72.1345 95.9261 71.5157C96.1099 71.0482 96.2306 70.5578 96.2849 70.0578C96.1933 69.8649 95.9337 69.8264 94.4677 69.5641H94.147C90.1919 72.0634 86.7102 74.3544 86.7102 74.3544L88.787 84.56C88.8477 84.8854 88.9558 85.1999 89.1077 85.4934C89.3212 85.9178 89.6155 86.2956 89.9736 86.6052C90.3316 86.9148 90.7466 87.1501 91.1947 87.2977C91.6428 87.4452 92.1153 87.5022 92.5851 87.4652C93.055 87.4283 93.5131 87.2982 93.9332 87.0824C96.5547 85.6939 99.1405 84.2334 101.691 82.7009C102.477 81.3355 102.584 80.8419 102.401 80.6182Z"
      fill="#4A7DFF" />
    <path
      d="M102.653 63.8558C100.24 65.414 94.1317 69.5332 94.1317 69.5332H94.4524C95.9184 69.7955 96.178 69.8341 96.2696 70.0269C96.2153 70.527 96.0946 71.0173 95.9108 71.4848C95.6776 72.1037 95.5536 72.759 95.5443 73.421C95.6359 73.6139 95.9566 73.6216 97.5295 73.7605C98.2918 73.7466 99.0502 73.8747 99.7666 74.1384C99.8583 74.3313 99.8201 74.5936 99.507 75.6195C99.2314 76.453 99.0196 77.3066 98.8733 78.1728C98.8733 78.3965 99.2474 78.6357 100.4 79.2142C101.127 79.5686 101.796 80.0315 102.386 80.5873C102.569 80.811 102.462 81.3047 101.683 82.67C101.662 82.6992 101.645 82.7302 101.63 82.7626C102.813 82.0452 103.714 82.7009 105.516 83.264C103.294 77.8488 102.531 67.9596 102.653 63.8558Z"
      fill="#FF78B7" />
    <path
      d="M74.3715 58.3248L83.8622 57.1369L95.4832 86.2416L91.6273 88.2935C90.4387 88.9288 89.1197 89.275 87.7753 89.3043C86.431 89.3337 85.0984 89.0455 83.8837 88.4626C82.6691 87.8798 81.606 87.0184 80.779 85.9471C79.9521 84.8758 79.3842 83.6242 79.1206 82.292L74.3715 58.3248Z"
      fill="#4A7DFF" />
    <path
      d="M88.0235 59.3971C88.2372 59.0037 88.451 58.5717 88.6725 58.1012C89.1382 57.0984 89.6116 55.9644 90.0621 54.8382L90.3751 54.0668C90.7798 53.01 91.1387 51.9995 91.4517 51.1818C91.575 50.8329 91.6031 50.4569 91.5333 50.0932C91.4634 49.7295 91.2981 49.3915 91.0547 49.1145C90.9359 48.9714 90.797 48.8466 90.6424 48.7442C90.5295 48.6679 90.4093 48.6033 90.2835 48.5514H90.2301C89.6314 48.3071 88.9691 48.2715 88.3481 48.4504C87.7272 48.6292 87.183 49.0122 86.8018 49.5387C86.7331 49.6313 86.6644 49.7393 86.5956 49.8473L86.5193 49.963L86.3819 50.2021L86.2902 50.3564L86.1528 50.5955L86.0612 50.7653L85.9237 51.0198L85.8321 51.1972L85.7023 51.4595L85.6107 51.6369L85.4733 51.9223C85.4733 51.9763 85.4198 52.0226 85.3969 52.0766C85.374 52.1306 85.2824 52.3235 85.2289 52.4392V52.5009L85.0304 52.9174C84.6334 53.7814 84.3585 54.4602 84.3585 54.4602C84.3585 54.4602 84.4196 53.8045 84.5265 52.8094C84.5265 52.5703 84.5799 52.3003 84.6105 52.0381C84.6147 51.9558 84.6147 51.8734 84.6105 51.7912C84.6105 51.5675 84.6639 51.3284 84.6945 51.0892C84.6902 51.0096 84.6902 50.9298 84.6945 50.8501C84.6945 50.5338 84.7708 50.2021 84.809 49.8704V49.7084L84.9693 48.7596C84.9693 48.6593 84.9693 48.5591 84.9693 48.4665C84.9693 48.1811 85.0533 47.9111 85.0915 47.6334C85.0915 47.5717 85.0915 47.5023 85.0915 47.4405C85.1373 47.1089 85.1907 46.7926 85.2442 46.4763C85.2479 46.4018 85.2479 46.3271 85.2442 46.2526C85.29 46.0135 85.3282 45.7821 85.374 45.5583L85.4198 45.3038C85.4809 45.0261 85.5343 44.7561 85.5954 44.5324C85.6642 44.244 85.6667 43.9436 85.6029 43.6541C85.539 43.3645 85.4104 43.0936 85.2269 42.8621C85.0434 42.6305 84.8098 42.4445 84.5442 42.3182C84.2785 42.1919 83.9878 42.1286 83.6942 42.1334H82.5947C81.4451 45.2518 80.7556 48.5241 80.5485 51.8452C80.5334 52.0849 80.4303 52.3102 80.2594 52.4771C80.0885 52.644 79.8622 52.7405 79.6246 52.7477H79.5635C79.3116 52.7318 79.0762 52.6158 78.9088 52.425C78.7413 52.2341 78.6555 51.9841 78.6702 51.7295C78.8965 48.4745 79.5644 45.2663 80.6554 42.1951L77.1126 42.2722C75.9697 45.3458 75.2728 48.5701 75.0434 51.8452C75.0278 52.0901 74.9205 52.3198 74.7431 52.4875C74.5658 52.6552 74.3319 52.7482 74.089 52.7477H74.0279C73.776 52.728 73.5418 52.6097 73.3749 52.4181C73.2081 52.2265 73.1219 51.9767 73.1345 51.7218C73.3464 48.5245 73.9886 45.3714 75.0434 42.3494C74.341 42.4158 73.6599 42.6286 73.0429 42.9742C72.5535 43.2456 72.1122 43.5975 71.7373 44.0156C71.5453 44.2236 71.3716 44.4482 71.2181 44.6867C70.9051 45.1751 70.673 45.7118 70.5309 46.2757C69.7611 49.2084 69.3332 52.2218 69.2558 55.2548C69.2539 55.977 69.2998 56.6986 69.3932 57.4147C69.6681 59.4589 70.4087 61.1019 71.8824 61.8116C77.502 64.5038 85.3969 62.8838 87.153 60.7394C87.4204 60.4009 87.658 60.0396 87.8631 59.6594L88.0235 59.3971Z"
      fill="#4A7DFF" />
    <path
      d="M79.533 52.7477H79.6246C79.8622 52.7405 80.0886 52.644 80.2594 52.4771C80.4303 52.3102 80.5334 52.0848 80.5485 51.8452C80.7849 48.5276 81.5026 45.2632 82.6788 42.1565L80.6249 42.1951C79.5339 45.2663 78.866 48.4745 78.6397 51.7295C78.625 51.9841 78.7108 52.2341 78.8782 52.4249C79.0457 52.6158 79.2811 52.7318 79.533 52.7477Z"
      fill="black" />
    <path
      d="M73.9897 52.7246H74.0508C74.2965 52.7355 74.5369 52.6501 74.7219 52.4862C74.9068 52.3224 75.022 52.0928 75.0434 51.8452C75.2774 48.5776 75.9769 45.3611 77.1202 42.2953H75.5091C75.3583 42.3027 75.2079 42.3182 75.0587 42.3416C74.0007 45.3555 73.3534 48.5008 73.1346 51.6909C73.1192 51.941 73.1993 52.1876 73.3584 52.3798C73.5174 52.5721 73.7434 52.6955 73.9897 52.7246Z"
      fill="black" />
    <path
      d="M66.6445 100.242C66.4078 100.003 29.4375 112.168 29.4375 112.168L24.2913 110.054L2.34732 36.9418L5.27929 33.1466L40.0124 22.2005L45.7848 27.0448L53.0307 49.1993L66.6445 100.242Z"
      fill="#5765F1" />
    <path
      d="M37.0423 20.0483L6.32533 29.899C4.68484 30.4238 3.23635 31.4306 2.16471 32.7908C1.09308 34.151 0.44691 35.8029 0.308682 37.5358C0.217012 38.6857 0.354618 39.8424 0.713355 40.9376L21.7945 108.049C22.1302 109.152 22.6789 110.176 23.4088 111.063C24.1387 111.951 25.0354 112.683 26.0471 113.218C27.0588 113.753 28.1654 114.08 29.303 114.181C30.4406 114.281 31.5866 114.153 32.6749 113.803L63.4071 103.953C64.5004 103.605 65.515 103.043 66.3927 102.299C67.2704 101.554 67.9939 100.642 68.5217 99.6139C69.0495 98.5862 69.3712 97.4632 69.4684 96.3095C69.5655 95.1558 69.4362 93.994 69.0878 92.891L48.0066 25.7798C47.3008 23.5551 45.7528 21.7028 43.7003 20.6269C42.6842 20.0943 41.5733 19.7718 40.4324 19.678C39.2913 19.5788 38.142 19.7072 37.0499 20.056L37.0423 20.0483ZM64.3539 94.9429C64.4768 95.3258 64.521 95.73 64.4837 96.1308C64.4519 96.5348 64.3403 96.9283 64.1554 97.2879C63.9741 97.6508 63.7235 97.9739 63.4182 98.2386C63.1129 98.5034 62.7589 98.7046 62.3764 98.8307L30.537 109.005C29.7767 109.222 28.9632 109.132 28.267 108.755C27.5708 108.378 27.0462 107.744 26.8033 106.984L5.42436 38.8703C5.20964 38.1113 5.29103 37.298 5.65178 36.5978C6.01253 35.8976 6.6252 35.3636 7.36374 35.1059L13.5407 33.1234C13.9864 32.9831 14.4688 33.0247 14.8845 33.2391C15.29 33.4493 15.5972 33.8123 15.7397 34.2497C15.8981 34.7029 16.2274 35.0745 16.6559 35.2833C17.0885 35.4828 17.5802 35.5076 18.0303 35.3527L30.6821 31.3261C30.9004 31.2512 31.1044 31.139 31.2852 30.9944C31.4607 30.8407 31.6058 30.6549 31.7128 30.4467C31.8185 30.2401 31.8823 30.0144 31.9007 29.7826C31.919 29.5508 31.8915 29.3177 31.8197 29.0967C31.7496 28.8593 31.7288 28.6098 31.7586 28.3639C31.773 28.1219 31.8436 27.8867 31.9648 27.6774C32.0757 27.4652 32.2291 27.2787 32.4153 27.1297C32.6041 26.9836 32.8194 26.8761 33.049 26.8134L39.1573 24.8464C39.9188 24.6013 40.7452 24.6675 41.4589 25.031C42.1726 25.3944 42.7169 26.026 42.975 26.7903L64.3539 94.9429Z"
      fill="#3343D8" />
    <path
      d="M61.7579 86.689C61.7579 86.689 67.2553 88.3629 69.1336 82.2535C69.3321 81.579 69.6936 80.965 70.1854 80.4668C70.6772 79.9685 71.284 79.6017 71.951 79.3993C74.6998 78.6279 78.8229 76.6609 78.4105 72.1945C78.3019 71.245 77.9133 70.3505 77.2952 69.627C76.6771 68.9034 75.8579 68.3843 74.9441 68.137C71.4853 67.1496 65.7053 66.5942 65.3617 73.6987L59.2535 79.9856L61.7579 86.689Z"
      fill="#242145" />
    <path
      d="M58.5663 78.8439L34.6906 82.8551C34.1485 95.0894 35.8817 101.045 37.7448 107.347C57.7875 105.912 63.2162 99.2164 63.2162 99.2164C63.2162 99.2164 69.0802 89.2037 58.5663 78.8439Z"
      fill="#242145" />
    <path
      d="M37.7218 108.666C34.8918 108.577 32.1776 107.51 30.0331 105.642C27.6203 103.451 26.6964 98.6301 29.0328 95.4365C29.8422 94.318 30.9035 92.6903 31.0944 91.4098C32.1939 84.0662 38.4472 84.3902 38.6381 84.205C40.5469 82.3845 41.7838 79.8544 43.5858 81.7829C44.4496 82.7101 44.9138 83.9457 44.8766 85.2185C44.8394 86.4912 44.3037 87.697 43.3873 88.5711C40.5484 91.4468 38.1338 94.7202 36.2177 98.2907C37.394 99.1376 38.6782 99.82 40.0354 100.319H39.9895L37.7218 108.666Z"
      fill="#242145" />
    <path
      d="M37.9051 84.1202C38.0807 84.0739 42.3412 85.5164 41.4708 91.8342L55.955 94.3258L63.934 86.8664C63.934 86.8664 61.9793 81.9295 59.9025 79.6153L37.9051 84.1202Z"
      fill="#59F186" />
    <path
      d="M55.7642 103.05L53.9393 102.495C55.9551 95.7605 54.7029 92.1196 53.7103 90.5459C53.0271 89.4032 52.7572 88.0565 52.9467 86.7352C53.4507 83.0403 51.9236 81.4666 51.8625 81.3972L53.1758 80.001C53.2674 80.0935 55.4664 82.2534 54.8327 86.9975C54.7203 87.8837 54.9116 88.782 55.3748 89.5431C56.7186 91.7956 57.8868 95.9688 55.7642 103.05Z"
      fill="white" />
    <path
      d="M64.2164 97.1182C64.1969 97.1761 64.1739 97.2328 64.1477 97.2879C63.9664 97.6508 63.7159 97.9739 63.4106 98.2387C63.1053 98.5034 62.7512 98.7046 62.3687 98.8307L30.537 109.005C29.7767 109.222 28.9631 109.132 28.267 108.755C27.5708 108.378 27.0462 107.744 26.8033 106.984L5.42436 38.8703C5.20964 38.1113 5.29103 37.298 5.65177 36.5978C6.01252 35.8976 6.6252 35.3637 7.36373 35.1059L13.5407 33.1234C13.9864 32.9832 14.4688 33.0247 14.8845 33.2392C15.29 33.4493 15.5972 33.8124 15.7397 34.2497C15.8981 34.7029 16.2274 35.0745 16.6559 35.2833C17.0885 35.4828 17.5802 35.5077 18.0303 35.3528L30.682 31.3261C30.9004 31.2512 31.1044 31.139 31.2852 30.9944C31.4607 30.8407 31.6058 30.6549 31.7128 30.4467C31.8185 30.2401 31.8823 30.0144 31.9007 29.7826C31.919 29.5508 31.8915 29.3177 31.8197 29.0968C31.7496 28.8594 31.7288 28.6099 31.7586 28.364C31.773 28.1219 31.8436 27.8867 31.9648 27.6774C32.0757 27.4652 32.2291 27.2787 32.4153 27.1297C32.6041 26.9836 32.8194 26.8761 33.049 26.8134L39.1573 24.8464C39.9188 24.6013 40.7451 24.6676 41.4589 25.031C42.1726 25.3944 42.7169 26.026 42.9749 26.7903L44.1355 30.493L48.9534 28.8576L47.9837 25.7721C47.2779 23.5474 45.7299 21.6951 43.6774 20.6192C42.6613 20.0866 41.5504 19.7641 40.4095 19.6703C39.2684 19.5711 38.1191 19.6995 37.027 20.0483L6.32533 29.899C4.68484 30.4238 3.23635 31.4306 2.16471 32.7908C1.09308 34.151 0.44691 35.803 0.308682 37.5358C0.217012 38.6857 0.354618 39.8425 0.713355 40.9377L21.7945 108.049C22.1302 109.152 22.6789 110.176 23.4088 111.063C24.1387 111.951 25.0354 112.683 26.0471 113.218C27.0588 113.753 28.1654 114.08 29.303 114.181C30.4406 114.281 31.5866 114.153 32.6749 113.803L63.4071 103.953C65.6106 103.243 67.4468 101.682 68.5151 99.6098C68.6873 99.2649 68.8377 98.9093 68.9656 98.5453L64.2164 97.1182Z"
      fill="#3343D8" />
    <path
      d="M34.851 95.4365C34.851 95.4365 37.2026 94.8194 38.6686 97.7507C38.8089 98.0173 39.0193 98.2398 39.2766 98.3936C39.5338 98.5473 39.8281 98.6265 40.127 98.6224C42.0893 98.6224 45.9986 99.2703 45.151 104.901C45.151 104.901 39.2184 115.03 34.2707 108.388C34.0393 108.088 33.7479 107.841 33.4155 107.663C32.2015 107.007 29.3382 105.133 29.8269 102.109L34.851 95.4365Z"
      fill="#242145" />
    <path
      d="M43.1124 60.4462C43.1124 60.4462 28.6969 46.106 23.6423 50.4875C15.7779 57.3067 36.6223 58.0626 39.0046 62.6524C39.7146 64.0178 43.1124 60.4462 43.1124 60.4462Z"
      fill="#FF78B8" />
    <path
      d="M42.9063 60.9938C42.9063 60.9938 30.1858 49.9629 28.1777 53.1025C26.4216 55.8332 34.5685 55.9721 41.028 62.0969C41.906 62.9223 42.9063 60.9938 42.9063 60.9938Z"
      fill="#FDA9D1" />
    <path
      d="M48.0295 60.7547C48.0295 60.7547 42.7382 40.8528 36.7369 42.7118C30.7889 45.7974 39.1878 50.3486 43.2269 60.5233C43.2956 61.5801 48.0295 60.7547 48.0295 60.7547Z"
      fill="#FF78B8" />
    <path
      d="M68.6221 67.0262L68.4083 67.8747C68.3206 68.2122 68.3381 68.5689 68.4584 68.896C68.5786 69.2232 68.7957 69.5049 69.0802 69.7029C70.0912 70.4573 71.2805 70.9306 72.5292 71.0754C73.7779 71.2202 75.0424 71.0316 76.1963 70.5283C76.5355 70.3766 76.817 70.118 76.9987 69.7912C77.1803 69.4645 77.2524 69.0871 77.2042 68.7155L76.998 67.1727C76.962 66.9173 76.8696 66.6733 76.7275 66.4588C76.5855 66.2443 76.3976 66.0649 76.1776 65.9338C75.9576 65.8027 75.7113 65.7232 75.4568 65.7013C75.2023 65.6794 74.9462 65.7157 74.7074 65.8074C73.4458 66.2773 72.0597 66.2773 70.7981 65.8074C70.5763 65.7299 70.3409 65.7005 70.1071 65.721C69.8733 65.7415 69.6463 65.8116 69.4411 65.9265C69.2358 66.0415 69.0568 66.1988 68.9157 66.3883C68.7746 66.5777 68.6746 66.7951 68.6221 67.0262Z"
      fill="#59F186" />
    <path
      d="M47.2584 60.7316C47.2584 60.7316 43.2651 46.0211 39.4932 47.3094C36.9507 48.181 42.1121 53.1642 45.151 60.7085C45.5939 61.7961 47.2584 60.7316 47.2584 60.7316Z"
      fill="#FDA9D1" />
    <path
      d="M55.2105 56.5633L32.7793 61.4009C28.9152 62.2343 26.4513 66.0746 27.2762 69.9785L27.3448 70.3029C28.1696 74.2069 31.9709 76.696 35.835 75.8627L58.2662 71.025C62.1303 70.1917 64.5942 66.3513 63.7693 62.4474L63.7007 62.123C62.8759 58.2191 59.0746 55.7299 55.2105 56.5633Z"
      fill="#FF78B8" />
    <path
      d="M57.4556 66.5233L35.0244 71.3609C31.1603 72.1943 28.6964 76.0346 29.5213 79.9386L29.5899 80.263C30.4147 84.1669 34.2159 86.6561 38.0801 85.8227L60.5113 80.9851C64.3754 80.1517 66.8392 76.3114 66.0144 72.4074L65.9458 72.083C65.1209 68.1791 61.3197 65.6899 57.4556 66.5233Z"
      fill="#FF78B8" />
    <path
      d="M48.0524 70.1887C48.6283 69.6826 48.4288 68.4984 47.6068 67.5437C46.7848 66.5891 45.6516 66.2255 45.0758 66.7316C44.4999 67.2377 44.6994 68.4218 45.5214 69.3765C46.3434 70.3311 47.4766 70.6948 48.0524 70.1887Z"
      fill="#1C1927" />
    <path
      d="M54.8632 71.0759C53.5665 71.1833 52.2955 71.5011 51.0989 72.017C51.7021 73.7604 52.4122 74.902 53.2368 74.8712C54.0615 74.8403 54.993 73.9147 54.8632 71.0759Z"
      fill="black" />
    <path
      d="M53.2369 74.8712C53.7713 74.8712 54.2982 74.501 54.6036 73.6062C54.4923 73.3206 54.2827 73.0854 54.0133 72.9436C53.7439 72.8019 53.4329 72.7632 53.1376 72.8348C52.5878 72.8348 51.9847 72.7885 51.664 73.421C52.1374 74.3313 52.6566 74.8944 53.2369 74.8712Z"
      fill="#BA004A" />
    <path
      d="M57.4618 66.7041C57.8059 65.5453 57.5741 64.451 56.944 64.26C56.3139 64.069 55.5242 64.8537 55.18 66.0125C54.8359 67.1714 55.0677 68.2657 55.6978 68.4567C56.3279 68.6477 57.1176 67.863 57.4618 66.7041Z"
      fill="#1C1927" />
    <path
      d="M45.3648 101.037C45.0446 99.9636 44.398 99.0194 43.5168 98.3382C42.6356 97.6569 41.5645 97.2733 40.4553 97.2416C41.246 96.4338 41.7644 95.3945 41.9366 94.2718C41.9625 94.1456 41.9631 94.0154 41.9384 93.889C41.9137 93.7626 41.8642 93.6424 41.7927 93.5356C41.7213 93.4289 41.6293 93.3377 41.5224 93.2674C41.4155 93.1972 41.2957 93.1493 41.1701 93.1266C41.0445 93.1039 40.9157 93.1069 40.7913 93.1353C40.6669 93.1638 40.5494 93.2171 40.4458 93.2923C40.3421 93.3674 40.2544 93.4627 40.1879 93.5727C40.1213 93.6826 40.0772 93.8049 40.0583 93.9324C40.0165 94.3951 39.8737 94.8427 39.64 95.2429C39.4063 95.6431 39.0875 95.9859 38.7068 96.2465C37.8091 95.5414 36.7649 95.0508 35.6527 94.8117C35.4026 94.7698 35.1463 94.8299 34.9401 94.979C34.7339 95.128 34.5947 95.3536 34.5532 95.6063C34.5117 95.8589 34.5712 96.1179 34.7187 96.3262C34.8662 96.5346 35.0895 96.6751 35.3396 96.7171C36.5272 96.9936 37.5968 97.6447 38.3938 98.5761C38.5863 98.8074 38.8312 98.9884 39.1076 99.1039C39.384 99.2194 39.6839 99.2659 39.9819 99.2395C40.7785 99.1572 41.5781 99.3643 42.2372 99.8237C42.8963 100.283 43.3717 100.965 43.5782 101.747C43.6444 101.934 43.7667 102.097 43.928 102.211C44.0893 102.326 44.2819 102.387 44.4791 102.387C44.6322 102.388 44.7832 102.351 44.9191 102.28C45.0551 102.209 45.172 102.106 45.2599 101.979C45.3477 101.853 45.4038 101.706 45.4234 101.553C45.443 101.4 45.4255 101.244 45.3725 101.099L45.3648 101.037Z"
      fill="black" />
    <path
      d="M45.968 104.986L45.4946 104.254C45.3076 103.969 45.0401 103.747 44.727 103.618C44.4138 103.489 44.0694 103.458 43.7385 103.528C42.506 103.775 41.3592 104.345 40.4131 105.18C39.4671 106.015 38.7549 107.087 38.348 108.288C38.2291 108.644 38.2282 109.029 38.3453 109.385C38.4624 109.741 38.6911 110.05 38.997 110.263L40.2339 111.111C40.4422 111.254 40.6795 111.348 40.9283 111.386C41.1772 111.424 41.4314 111.406 41.6723 111.332C41.9132 111.258 42.1346 111.13 42.3204 110.959C42.5061 110.787 42.6515 110.576 42.7459 110.34C43.2505 109.081 44.1814 108.045 45.3725 107.416C45.5771 107.304 45.7564 107.149 45.8988 106.963C46.0412 106.777 46.1436 106.562 46.1997 106.334C46.2557 106.105 46.264 105.867 46.2241 105.635C46.1842 105.404 46.097 105.182 45.968 104.986Z"
      fill="#59F186" />
    <path
      d="M50.1951 114.652C52.4999 112.508 52.8724 109.128 51.0271 107.104C49.1819 105.079 45.8175 105.176 43.5127 107.32C41.2079 109.465 40.8354 112.844 42.6807 114.869C44.5259 116.893 47.8903 116.796 50.1951 114.652Z"
      fill="#FF78B8" />
    <path
      d="M89.2604 24.075C88.5408 23.6017 87.9299 22.9782 87.4689 22.2464C87.008 21.5145 86.7076 20.6913 86.588 19.8323L86.1299 16.8239C86.1299 16.6696 85.9772 16.5925 85.8245 16.5925C85.6718 16.5925 85.5191 16.6696 85.5191 16.8239L85.061 19.8323C84.9395 20.6907 84.6383 21.5131 84.1775 22.2447C83.7167 22.9763 83.1069 23.6003 82.3886 24.075L82.0068 24.3064C81.9305 24.3835 81.8541 24.4607 81.8541 24.5378C81.8541 24.615 81.9305 24.6921 82.0068 24.7692L82.3886 25.0007C83.0994 25.4836 83.7037 26.1098 84.1635 26.8399C84.6234 27.57 84.929 28.3883 85.061 29.2433L85.5191 32.2517C85.5191 32.406 85.6718 32.4832 85.8245 32.4832C85.9772 32.4832 86.1299 32.406 86.1299 32.2517L86.588 29.2433C86.7169 28.3872 87.0211 27.5678 87.4813 26.8372C87.9414 26.1067 88.5474 25.4812 89.2604 25.0007L89.6422 24.7692C89.7185 24.6921 89.7949 24.615 89.7949 24.5378C89.7949 24.4607 89.7185 24.3835 89.6422 24.3064L89.2604 24.075Z"
      fill="#66BBFF" />
    <path
      d="M102.531 99.6715C101.812 99.1976 101.201 98.5738 100.74 97.8421C100.28 97.1104 99.9787 96.2876 99.8582 95.4289L99.4001 92.4204C99.4001 92.2662 99.2474 92.189 99.0947 92.189C98.942 92.189 98.7893 92.2662 98.7893 92.4204L98.3312 95.4289C98.2126 96.2882 97.9126 97.1117 97.4515 97.8437C96.9905 98.5757 96.3791 99.1991 95.6588 99.6715L95.277 99.903C95.2007 99.9801 95.1243 100.057 95.1243 100.134C95.1243 100.212 95.2007 100.289 95.277 100.366L95.6588 100.597C96.3712 101.078 96.9766 101.704 97.4367 102.435C97.8968 103.165 98.2014 103.984 98.3312 104.84L98.7893 107.848C98.7893 108.003 98.942 108.08 99.0947 108.08C99.2474 108.08 99.4001 108.003 99.4001 107.848L99.8582 104.84C99.9911 103.985 100.297 103.167 100.757 102.437C101.217 101.707 101.82 101.081 102.531 100.597L102.912 100.366C102.989 100.289 103.065 100.212 103.065 100.134C103.065 100.057 102.989 99.9801 102.912 99.903L102.531 99.6715Z"
      fill="#FFE65C" />
    <path
      d="M65.9802 36.4559C65.4816 36.1278 65.0581 35.6958 64.7381 35.189C64.4181 34.6821 64.209 34.112 64.1249 33.5168L63.8118 31.4341C63.8118 31.3261 63.7049 31.2721 63.598 31.2721C63.4911 31.2721 63.3842 31.3261 63.3842 31.4341L63.0712 33.5168C62.9856 34.1115 62.7759 34.6811 62.4561 35.1878C62.1362 35.6944 61.7134 36.1267 61.2158 36.4559L60.9486 36.6178C60.9027 36.6718 60.8493 36.7258 60.8493 36.7798C60.8493 36.8338 60.9027 36.8878 60.9486 36.9418L61.2158 37.0961C61.7101 37.4308 62.1302 37.8655 62.4496 38.3727C62.769 38.88 62.9806 39.4487 63.0712 40.0428L63.3842 42.1256C63.3842 42.2336 63.4911 42.2876 63.598 42.2876C63.7049 42.2876 63.8118 42.2336 63.8118 42.1256L64.1249 40.0428C64.2154 39.4487 64.4271 38.88 64.7465 38.3727C65.0658 37.8655 65.486 37.4308 65.9802 37.0961L66.2399 36.9418C66.2933 36.8878 66.3467 36.8338 66.3467 36.7798C66.3467 36.7258 66.2933 36.6718 66.2399 36.6178L65.9802 36.4559Z"
      fill="#FFE65C" />
    <path
      d="M79.2963 60.3844C79.085 60.2512 78.8431 60.1755 78.5942 60.1647C78.3454 60.1539 78.098 60.2083 77.8761 60.3227C77.2042 57.7154 75.3641 55.4012 73.1956 55.4012C70.4545 55.4012 68.2403 59.0885 68.2403 62.3978C68.2403 65.7071 70.4545 67.5044 73.1956 67.5044C73.8744 67.5249 74.5501 67.4039 75.1806 67.1491C75.8112 66.8943 76.383 66.5111 76.8606 66.0233C77.305 65.6598 77.7141 65.2542 78.0823 64.8122C79.5482 63.0303 80.0903 61.0478 79.2963 60.3844Z"
      fill="#FF78B8" />
    <path
      d="M89.9704 72.21L91.6807 76.5838C91.7502 76.7638 91.8719 76.9184 92.03 77.0272C92.1881 77.136 92.3752 77.1939 92.5664 77.1932C92.722 77.1929 92.8751 77.1542 93.0124 77.0805C93.1498 77.0068 93.2672 76.9003 93.3545 76.7702C93.4418 76.6402 93.4964 76.4906 93.5134 76.3344C93.5304 76.1782 93.5094 76.0202 93.4521 75.8741L91.6044 71.13L89.9704 72.21Z"
      fill="#2B53F1" />
  </g>
  <defs>
    <clipPath id="clip0_10_1894">
      <rect width="165" height="119" fill="white" />
    </clipPath>
  </defs>
</svg>