<svg width="1433" height="1168" viewBox="0 0 1433 1168" fill="none" xmlns="http://www.w3.org/2000/svg">
<g clip-path="url(#clip0_624_23165)">
<path d="M1046.6 757.3C1051.1 802.5 1069.9 853.3 1069.9 853.3L1193.6 878.9L1150 754.9L1046.6 757.3Z" fill="#3333D3"/>
<path d="M1162.8 489.5C1162.8 489.5 945.7 491.6 868.3 480.4L784 487C783.9 527.4 827.8 590.2 943.4 596.3C936.4 620.2 933.4 659.5 933.4 659.5C880.2 652.5 853.3 654.8 840.2 671C824 691 827.9 718 827.9 779.6L938 807.3L934.9 759.6C934.9 759.6 1041.6 776.9 1115.1 767.3C1154.1 762.1 1187.1 744.7 1200.3 707.2C1231.1 619.9 1162.8 489.5 1162.8 489.5Z" fill="#698EFD"/>
<path d="M1315.2 744.5C1332 754.6 1338.7 776.3 1328.8 795.8C1318.9 815.3 1297 823.5 1279.4 815.2C1256.9 804.5 1221.3 760 1228.2 746.4C1235.1 732.8 1293.7 731.6 1315.2 744.5Z" fill="#698EFD"/>
<path d="M1029.9 522.2C1091.6 516.7 1139.9 483.9 1139.9 483.9L917.9 475.2C917.9 475.2 935.9 501 960 512.5C980.1 522.2 998.5 524.9 1029.9 522.2Z" fill="#3333D3"/>
<path d="M428.1 1115.9C431.9 1107.6 450.9 1086.7 501.6 1065.7C525.4 1055.8 537.5 1042.8 532.3 1030.2C526.2 1015.4 496.8 1006.4 460.9 1045.3C431.4 1077.3 417.7 1099.3 400.3 1094.3C379.6 1088.4 383.5 1052.6 380.8 1013C377.9 969.2 356.3 958.6 341 964.9C325.7 971.2 324.7 992.9 346.3 1033.5C373.1 1083.8 358.3 1097.7 347.6 1098.9C336.9 1100.1 324.7 1073.4 286.6 1039.9C264.5 1020.5 237.9 1018.7 228.9 1031.6C221.9 1041.6 227.4 1056.5 252.7 1068.4C282.1 1082.3 324.4 1102.6 323.5 1126C323.1 1137.4 312.6 1144.3 300.1 1136.7C285.2 1127.6 265.3 1117.8 251 1119.6C230.4 1122.1 228 1141.1 239.5 1152.3C251 1163.5 279.1 1167.1 311.9 1167.1H458.8C508.2 1167.1 529.1 1154.4 525.6 1135.4C522.7 1119.6 505.7 1114.6 477.7 1128.9C462.3 1136.8 445.6 1138.9 438.3 1136.2C426 1131.6 424.4 1124.2 428.1 1115.9Z" fill="#89D7FD"/>
<path d="M732.6 250.3C770.1 290.1 805.3 332.4 805.3 332.4L798.4 356.8C798.4 356.8 758.4 309.1 722.9 261C718.4 254.9 717.1 252 720.1 248.2C723.1 244.4 726.4 243.7 732.6 250.3Z" fill="#FDBF69"/>
<path d="M829 207.4C815.5 228.9 801.5 253.8 801.5 253.8L805.1 297.9C804.7 288.2 834.9 226.2 844.4 207.6C848.5 199.6 848.5 196 846.3 194.2C844.1 192.4 839.4 191 829 207.4Z" fill="#FDBF69"/>
<path d="M853.801 73.5999C749.601 271.9 843.801 509.3 981.501 651.6C991.001 661.4 996.501 666.5 985.501 675.4C979.201 680.4 972.401 683.3 965.001 675.5C816.501 519.4 719.201 265.3 843.001 68.4999C843.851 67.2357 845.107 66.299 846.561 65.8445C848.016 65.3901 849.582 65.4449 851.001 65.9999C853.801 66.9999 856.101 69.4999 853.801 73.5999Z" fill="#FDBF69"/>
<path d="M833.5 78.3998C839.469 77.9633 845.439 79.2473 850.7 82.0998C856.1 84.8998 854.6 89.8998 850 100.5C845.4 111.1 843.5 112.9 834 112.4C828.8 112.1 822.7 111 818 107C813.3 103 815.8 97.3998 819.7 89.8998C822 85.3998 826.7 78.8998 833.5 78.3998Z" fill="white"/>
<path d="M820.9 109C820.9 109 821.9 106.8 822.2 106.3C822.5 105.8 823.5 104.8 825.7 105C829.103 105.367 832.417 106.314 835.5 107.8C837 108.7 837.1 109.8 836.8 110.6C836.5 111.4 836.1 112.4 836.1 112.4L835.5 113.8L822.6 114.4L820.9 109Z" fill="#FDBF69"/>
<path d="M866.6 506C878.5 460.1 858.9 433.1 837.2 428.5C809.9 422.9 780.9 443.8 784 487C788.1 545.3 846.1 546.5 846.1 546.5C846.1 546.5 861 527.7 866.6 506Z" fill="#698EFD"/>
<path d="M1138.7 556.3C1057.6 540.5 1004.2 527 953.9 537.8C922.8 544.4 879.1 570.1 886.8 604.4C891.7 626.3 915.9 638.3 936.3 633.3C945.4 631.1 951.6 628.1 957.6 625.4C999.9 635.4 1072.8 643.1 1106.6 632.1C1140.4 621.1 1138.7 556.3 1138.7 556.3Z" fill="url(#paint0_linear_624_23165)"/>
<path d="M1100.8 637.5C1091.1 641 1078.7 642.3 1065.1 642.3C1042.4 642.3 1016.5 638.7 993.9 635.5C986.2 634.4 978.8 633.4 972.5 632.7C969.787 632.341 967.03 632.546 964.4 633.3L957.5 625.4C961.8 623 967.6 622 973.7 622.7L995.3 625.6C1028.5 630.3 1073.9 636.6 1097.4 628.1C1124.6 618.2 1137.3 591.1 1135.2 547.8C1135.17 547.144 1135.28 546.488 1135.5 545.871C1135.73 545.254 1136.08 544.688 1136.52 544.205C1136.97 543.722 1137.5 543.332 1138.1 543.056C1138.7 542.781 1139.34 542.626 1140 542.6C1140.65 542.56 1141.3 542.65 1141.92 542.866C1142.54 543.081 1143.1 543.418 1143.59 543.856C1144.07 544.294 1144.47 544.824 1144.74 545.415C1145.02 546.007 1145.17 546.648 1145.2 547.3C1147.5 594.9 1132.2 626 1100.8 637.5Z" fill="#3333D3"/>
<path d="M1008 201.1L1010.1 163.6C1023.4 159.1 1078.8 156.9 1107.1 169.8C1141.5 185.4 1161.1 209.7 1161.2 228.2V241.3L1008 201.1Z" fill="#FDBF69"/>
<path d="M1215 448.8C1214.4 451.1 1213.8 453.2 1213.1 455.2C1201.2 493.8 1181.8 495.8 1145.9 495.8C1070.2 495.8 1019.6 495.2 944.1 495.2C906.7 495.2 887.7 480 867.4 431.5C856.1 404.5 842.9 370.2 852.5 323.7C860.9 283 884.8 248.6 907.4 229.6C930 210.6 991.9 194.9 1037 194.9C1066 194.9 1118.5 197.2 1181.8 233.9C1202 245.6 1216.5 258.9 1221.6 285.2C1221.59 285.406 1221.62 285.611 1221.7 285.8C1230.8 333.6 1227.6 400.8 1215 448.8Z" fill="white"/>
<path d="M1026.2 216.6C1028.2 216.6 1031.2 218.4 1045.9 208.4C1060.6 198.4 1073.1 196.3 1084.6 197.1V187.2L1021.1 183.7L1026.2 216.6Z" fill="#FDBF69"/>
<path d="M1215 448.8C1214.4 451.1 1213.8 453.2 1213.1 455.2C1200.2 445.7 1192.4 408.5 1195.9 351.7C1198.4 309.2 1206 287.3 1221.7 285.8C1230.8 333.6 1227.6 400.8 1215 448.8Z" fill="#C7CCD1"/>
<path d="M1011.6 163.2C1001.2 163.2 989.401 212.4 993.501 215.5C997.601 218.6 1000.4 214.8 1011.6 214.8C1022.8 214.8 1026.2 218.2 1029.8 215.5C1033.4 212.8 1022 163.2 1011.6 163.2Z" fill="#FD8A1A"/>
<path d="M1158 343.7C1156.4 356.8 1150.5 373.2 1133.8 400.7C1117.1 428.2 1106.1 433 1092 433H935.4C923.2 433 907.5 428 891.6 384.2C885.8 368 882.5 354 883.1 340.7C883.7 327.4 889.8 300.6 903 280.2C922.6 249.8 943.6 242.6 952.4 245.2C962.9 248.3 966.3 258.8 975.8 272.6C977.4 274.8 979 277 980.9 279.3C988.4 288.7 996.9 288.1 1007.6 280.1C1010.6 277.8 1013.7 275.2 1016.8 272.6C1031.7 260.1 1047.5 245.6 1068.1 245.5C1079.8 245.4 1102.4 246.5 1130.3 285C1153.7 317.3 1159.7 329.2 1158 343.7Z" fill="#698EFD"/>
<path d="M1222.4 281.7L1239.2 206.8C1239.71 204.789 1240.97 203.047 1242.71 201.924C1244.45 200.802 1246.56 200.382 1248.6 200.75C1250.64 201.117 1252.47 202.245 1253.71 203.906C1254.96 205.567 1255.52 207.637 1255.3 209.7L1244.7 285.8L1222.4 281.7Z" fill="#AEAEAE"/>
<path d="M1229.5 229C1231.5 218.6 1259.5 216.5 1255.6 244.5L1250.6 298.5L1213 293L1229.5 229Z" fill="#C7CCD1"/>
<path d="M1226.5 271.7C1209.6 271.7 1195.9 307.5 1195.9 351.7C1195.9 395.9 1209.6 431.7 1226.5 431.7C1246.3 431.7 1261 402.5 1261 351.7C1261 300.9 1246.3 271.7 1226.5 271.7Z" fill="#E3E5E8"/>
<path d="M1268.3 352.4C1267.9 395.7 1263.1 411.3 1255 412.7C1251.16 413.291 1247.23 412.878 1243.6 411.5C1237.3 408.6 1232.8 383.1 1232.8 351.7C1232.8 320.3 1237.2 299.8 1242.4 295.3C1244.7 293.4 1250.2 292.9 1255 295C1262.2 298.2 1268.7 307.3 1268.3 352.4Z" fill="#FDBF69"/>
<path d="M1268.3 352.4C1268.2 362.8 1267.8 371.6 1267.3 379C1258.3 367.2 1252 360.9 1250.8 357C1248.8 350.9 1250.5 341.6 1251.3 332.2C1252.1 322.8 1255.6 325.4 1268.3 344.1V352.4Z" fill="#FD8A1A"/>
<path d="M1092.7 404.7C1086.5 404.3 1079.9 396.8 1075.4 388.8C1073.36 385.167 1071.75 381.308 1070.6 377.3C1069.3 372.4 1071.6 370.9 1073.1 369.8C1079.7 365 1102.5 359.4 1105.5 364.2C1106.62 366.163 1107.31 368.347 1107.5 370.6C1109 383.1 1104.1 405.4 1092.7 404.7Z" fill="#E9459D"/>
<path d="M1092.7 404.701C1086.5 404.301 1079.9 396.801 1075.4 388.801C1078.6 384.401 1083.5 379.101 1089.9 375.901C1095.43 373.166 1101.38 371.375 1107.5 370.601C1109 383.101 1104.1 405.401 1092.7 404.701Z" fill="#FDABD5"/>
<path d="M916.401 321.1C922.918 321.1 928.201 315.817 928.201 309.3C928.201 302.784 922.918 297.5 916.401 297.5C909.884 297.5 904.601 302.784 904.601 309.3C904.601 315.817 909.884 321.1 916.401 321.1Z" fill="black"/>
<path d="M1087.2 321.1C1093.72 321.1 1099 315.817 1099 309.3C1099 302.784 1093.72 297.5 1087.2 297.5C1080.68 297.5 1075.4 302.784 1075.4 309.3C1075.4 315.817 1080.68 321.1 1087.2 321.1Z" fill="black"/>
<path d="M1064.2 294V334.8C1064.2 343.632 1060.69 352.102 1054.45 358.347C1048.2 364.592 1039.73 368.1 1030.9 368.1H978.801C968.325 368.1 958.278 363.939 950.87 356.531C943.462 349.123 939.301 339.076 939.301 328.6V294C939.301 291.182 939.858 288.391 940.939 285.788C942.021 283.185 943.606 280.821 945.604 278.833C947.602 276.844 949.973 275.27 952.581 274.201C955.189 273.131 957.982 272.587 960.801 272.6H975.801C977.401 274.8 979.001 277 980.901 279.3C988.401 288.7 996.901 288.1 1007.6 280.1C1010.6 277.8 1013.7 275.2 1016.8 272.6H1042.8C1048.48 272.6 1053.92 274.855 1057.93 278.868C1061.95 282.882 1064.2 288.325 1064.2 294Z" fill="#B5CAFD"/>
<path d="M978.801 307.3H964.001C961.375 307.3 958.857 308.343 957 310.2C955.144 312.057 954.101 314.575 954.101 317.2C954.101 319.826 955.144 322.344 957 324.201C958.857 326.057 961.375 327.1 964.001 327.1H978.801C981.426 327.1 983.944 326.057 985.801 324.201C987.658 322.344 988.701 319.826 988.701 317.2C988.701 314.575 987.658 312.057 985.801 310.2C983.944 308.343 981.426 307.3 978.801 307.3Z" fill="#698EFD"/>
<path d="M1030.1 307.3H1015.4C1012.78 307.3 1010.26 308.343 1008.4 310.2C1006.54 312.057 1005.5 314.575 1005.5 317.2C1005.5 319.826 1006.54 322.344 1008.4 324.201C1010.26 326.057 1012.78 327.1 1015.4 327.1H1030.1C1032.73 327.1 1035.24 326.057 1037.1 324.201C1038.96 322.344 1040 319.826 1040 317.2C1040 314.575 1038.96 312.057 1037.1 310.2C1035.24 308.343 1032.73 307.3 1030.1 307.3Z" fill="#698EFD"/>
<path d="M1201.6 903.8L757.399 787L672.699 914.7C672.699 914.7 691.499 988.7 713.199 1046.4C734.199 1102.2 750.599 1129.4 772.499 1158.3C776.699 1164 778.299 1167.1 789.099 1167.1H1298.9C1310.4 1167.1 1311.7 1165.9 1315.3 1159.7C1363.1 1077.8 1378.6 964.7 1381.6 929.2L1201.6 903.8Z" fill="#FDBF69"/>
<path d="M1368.2 1014.2L1365.8 1024.7C1349.6 1026.94 1333.26 1028.04 1316.9 1028C1232.4 1028 1149.5 999.8 1062.7 970.4C972.9 939.9 880 908.4 774.4 902.8C737 932 712.7 990.9 703.1 1017.8C701.3 1012.7 699.7 1007.6 698 1002.5C710.1 971.4 734.1 920.7 769.8 893.7C770.767 893.028 771.922 892.678 773.1 892.7C880.8 898.2 974.9 930.1 1065.9 960.9C1169.4 996.1 1267.5 1029.3 1368.2 1014.2Z" fill="#FD8A1A"/>
<path d="M1339.8 1109C1338.3 1112.7 1336.7 1116.4 1335.1 1120.1C1317.11 1123.53 1298.82 1125.21 1280.5 1125.1C1201.1 1125.1 1115.8 1096.9 1032.7 1069.4C952.1 1042.7 868.9 1015.1 793.9 1014.8C761.5 1032.3 744.3 1075.2 736.6 1101.2C734.5 1097 732.4 1092.5 730.3 1087.9C739.7 1060.1 758 1022 790.4 1005.4C791.101 1005 791.894 1004.79 792.7 1004.8C869.6 1004.8 954.1 1032.8 1035.8 1059.9C1139.5 1094.2 1246.6 1129.7 1339.8 1109Z" fill="#FD8A1A"/>
<path d="M1396.2 946.4L1380 953.6C1322.7 957.7 1257 955.4 1092 897.4C937.8 843.2 869.2 834.2 806.3 825C807.4 868 811.1 943 829.7 1025.2C848.3 1107.4 892.9 1167.1 892.9 1167.1H826.6C826.6 1167.1 787 1118.7 760.9 983.4C754.732 951.907 750.69 920.035 748.8 888C747.9 873 747.5 858.6 747 844.3C739.9 852.8 717.2 886.4 703.3 912C682.2 951 683.3 960.7 683.3 960.7C683.3 960.7 675.1 960.7 672.8 959.5C670.5 958.3 669.7 953.9 667.8 947.2C665.73 940.317 664.324 933.251 663.6 926.1C663.175 922.007 663.242 917.877 663.8 913.8C665.1 906 676.5 874.5 700.6 837.9C716.1 814.3 749.8 775 763.9 764.2L765.2 763.2C769.9 759.8 771.6 759.7 776.8 760.1C843.6 764.6 984 797.4 1118.9 845.8C1271.1 900.4 1317 898.1 1364.6 896.6C1398 895.6 1397.4 896.6 1398.1 907.8C1399.5 931.7 1397.1 941.2 1396.2 946.4Z" fill="white"/>
<path d="M688.099 970.1C675.599 973.1 673.799 962.8 671.899 958.4L680.999 945.5C683.099 952.9 685.399 961.2 688.099 970.1Z" fill="#FD8A1A"/>
<path d="M703.3 912C682.2 951 683.3 960.7 683.3 960.7C683.3 960.7 675.1 960.7 672.8 959.5C670.5 958.3 669.7 953.9 667.8 947.2C675.1 927.2 689.7 895.2 708.9 865.2C728.1 835.2 738.6 822.2 743.2 817.6C745 815.7 746.4 813.3 746.5 817.1C746.6 820.9 747 844.3 747 844.3C739.9 852.8 717.2 886.4 703.3 912Z" fill="#FD8A1A"/>
<path d="M1398.1 932.5C1385.4 934.6 1363.7 935.8 1326.6 934.9C1241.4 932.8 1129 886 1040.1 856.8C911.799 814.7 831.099 806.2 814.799 803.5C805.499 801.9 805.699 804.5 805.799 808.7C805.899 812.9 806.299 825 806.299 825C869.199 834.2 937.799 843.2 1092 897.4C1256.2 955.1 1322.1 957.7 1379.1 953.7C1378.6 956.4 1378.1 959.2 1377.7 962C1391.3 961.4 1395.3 959.2 1398 936.8C1398.04 936.613 1398.05 936.418 1398.01 936.229C1397.98 936.04 1397.91 935.86 1397.8 935.7C1398 934.645 1398.1 933.574 1398.1 932.5Z" fill="#FD8A1A"/>
<path d="M859.8 1167.1H847.8C845.5 1163.4 843.1 1159.4 840.5 1154.9C827.8 1132.8 809.7 1096.1 796.1 1046.6C770.7 954.5 766.6 845.9 766.5 789.4C766.5 778 766.6 768.8 766.7 762.2C770.4 759.8 772.2 759.8 776.8 760.1C776.6 767.1 776.4 778.1 776.5 792C776.8 848.7 781 954.3 805.7 1043.9C822.3 1103.8 845.4 1145.2 859.8 1167.1Z" fill="#FDBF69"/>
<path d="M726.3 1167.1C683.1 1167.1 656.6 1131.8 683.3 1112.8C708 1095.3 737 1116.5 770.5 1138C781.8 1145.3 812 1145.2 844.8 1131.9C877.6 1118.6 941.8 1097.2 972.6 1108.4C1001.6 1118.9 1019.9 1140.1 1043.7 1131.3C1064.4 1123.6 1114.1 1034.2 1172.6 1037.3C1208.2 1039.3 1193.5 1088.8 1211.6 1105.1C1227 1119 1257.7 1102.8 1275.8 1087.6C1304.2 1063.9 1330.8 1046 1358 1036.4C1389.8 1025.2 1423.1 1044.9 1408.5 1074.1C1402.9 1085.3 1384.9 1100 1387.2 1110C1391.1 1127.1 1407.5 1121.8 1422.8 1131.1C1438.1 1140.4 1436.5 1167.1 1407.7 1167.1H726.3Z" fill="#89D7FD"/>
<path d="M289.7 344.8C255.3 369.5 255.3 384.9 292.5 400.8C309.3 408 360 414.7 371 373C376.036 353.785 378.854 334.057 379.4 314.2L327.2 319.7C327.2 319.7 311.2 329.3 289.7 344.8Z" fill="white"/>
<path d="M227.1 83.9C186.1 73.4 179.1 63 206.7 33.5C234.3 4 267.2 -6.8 292.6 28.1C304.255 44.1749 314.051 61.5189 321.8 79.8L271.1 93.7C271.1 93.7 252.8 90.6 227.1 83.9Z" fill="white"/>
<path d="M441.8 110.4C429.647 97.743 414.961 87.7928 398.7 81.2002C383.026 74.7665 366.242 71.4709 349.3 71.5002C336.955 71.4968 324.67 73.2133 312.8 76.6002L311.9 76.9002L206.5 112.2C201.922 113.682 197.683 116.057 194.029 119.188C190.375 122.319 187.378 126.143 185.211 130.439C183.045 134.736 181.751 139.419 181.406 144.218C181.061 149.018 181.67 153.838 183.2 158.4C185.195 164.206 188.596 169.428 193.1 173.6L149.9 188.1C142.256 190.687 135.912 196.135 132.2 203.3C129.809 207.969 128.663 213.175 128.872 218.416C129.081 223.657 130.638 228.755 133.392 233.219C136.147 237.682 140.006 241.36 144.597 243.897C149.187 246.434 154.355 247.744 159.6 247.7C162.933 247.715 166.245 247.174 169.4 246.1L175 244.2C180.2 242.5 194.6 236.1 194.8 236.1C194.225 240.648 194.704 245.267 196.2 249.6C198.229 255.698 202.138 260.996 207.367 264.733C212.595 268.47 218.873 270.454 225.3 270.4C228.624 270.406 231.929 269.9 235.1 268.9L239.5 267.4C243.679 274.026 248.502 280.223 253.9 285.9C265.85 298.66 280.416 308.689 296.6 315.3C312.253 321.814 329.046 325.145 346 325.1C378.809 325.188 410.446 312.905 434.6 290.7C460.8 266.6 475.7 234.3 476.7 199.7C477.186 183.233 474.346 166.838 468.349 151.494C462.353 136.15 453.323 122.174 441.8 110.4Z" fill="white"/>
<path d="M388.6 182.8L359.3 157.6C358.808 157.153 358.202 156.851 357.549 156.728C356.895 156.604 356.221 156.664 355.6 156.9L317.9 169.5C317.262 169.705 316.689 170.069 316.233 170.56C315.778 171.05 315.456 171.649 315.3 172.3L307.1 210.1C306.951 210.792 306.994 211.511 307.223 212.18C307.452 212.85 307.859 213.444 308.4 213.9L337.7 239.1C338.193 239.545 338.794 239.853 339.443 239.994C340.092 240.134 340.767 240.102 341.4 239.9L379.1 227.2C379.737 226.996 380.311 226.631 380.766 226.14C381.221 225.65 381.543 225.051 381.7 224.4L389.9 186.6C390.048 185.908 390.005 185.189 389.776 184.52C389.547 183.85 389.141 183.256 388.6 182.8ZM388.6 182.8L359.3 157.6C358.808 157.153 358.202 156.851 357.549 156.728C356.895 156.604 356.221 156.664 355.6 156.9L317.9 169.5C317.262 169.705 316.689 170.069 316.233 170.56C315.778 171.05 315.456 171.649 315.3 172.3L307.1 210.1C306.951 210.792 306.994 211.511 307.223 212.18C307.452 212.85 307.859 213.444 308.4 213.9L337.7 239.1C338.193 239.545 338.794 239.853 339.443 239.994C340.092 240.134 340.767 240.102 341.4 239.9L379.1 227.2C379.737 226.996 380.311 226.631 380.766 226.14C381.221 225.65 381.543 225.051 381.7 224.4L389.9 186.6C390.048 185.908 390.005 185.189 389.776 184.52C389.547 183.85 389.141 183.256 388.6 182.8ZM427.4 124.3C398.7 94.3001 356.2 85.1001 318.2 95.8001L212.8 131.1C210.726 131.768 208.805 132.841 207.148 134.255C205.491 135.67 204.13 137.398 203.145 139.341C202.159 141.284 201.568 143.404 201.406 145.576C201.244 147.749 201.514 149.932 202.2 152C205.2 161.1 214.8 165 223.2 162.2L250.3 153.2C251.633 152.704 253.053 152.481 254.475 152.545C255.896 152.609 257.29 152.958 258.574 153.572C259.857 154.186 261.004 155.053 261.946 156.12C262.887 157.186 263.604 158.432 264.054 159.782C264.504 161.132 264.678 162.558 264.565 163.977C264.452 165.395 264.054 166.776 263.396 168.038C262.737 169.299 261.832 170.415 260.733 171.32C259.634 172.224 258.364 172.897 257 173.3L190.8 195.5C189.435 195.903 188.165 196.577 187.067 197.481C185.968 198.385 185.062 199.501 184.404 200.762C183.745 202.024 183.348 203.405 183.235 204.823C183.122 206.242 183.295 207.668 183.745 209.018C184.195 210.368 184.912 211.614 185.854 212.681C186.795 213.747 187.942 214.614 189.226 215.228C190.509 215.842 191.903 216.192 193.325 216.256C194.746 216.319 196.166 216.097 197.5 215.6L245.1 199.6C247.793 198.734 250.717 198.948 253.255 200.198C255.793 201.449 257.746 203.637 258.7 206.3C259.585 208.992 259.366 211.925 258.091 214.456C256.817 216.987 254.59 218.909 251.9 219.8L222 229.8C220.635 230.203 219.365 230.877 218.267 231.781C217.168 232.685 216.262 233.801 215.604 235.062C214.945 236.324 214.548 237.705 214.435 239.123C214.322 240.542 214.495 241.968 214.945 243.318C215.395 244.668 216.112 245.914 217.054 246.981C217.995 248.047 219.142 248.914 220.426 249.528C221.709 250.142 223.103 250.492 224.525 250.556C225.946 250.619 227.366 250.397 228.7 249.9L249.3 243C253.887 253.787 260.354 263.674 268.4 272.2C308.6 314.7 377.5 316 421.1 275.9C466.3 234.4 468.5 166.5 427.4 124.3ZM390.2 242C365.2 265.2 326.1 264.2 302.8 239.8C279.5 215.4 281.1 176.9 306.1 153.8C331.1 130.7 370.3 131.6 393.5 156C416.7 180.4 415.3 218.9 390.2 242ZM388.6 182.8L359.3 157.6C358.808 157.153 358.202 156.851 357.549 156.728C356.895 156.604 356.221 156.664 355.6 156.9L317.9 169.5C317.262 169.705 316.689 170.069 316.233 170.56C315.778 171.05 315.456 171.649 315.3 172.3L307.1 210.1C306.951 210.792 306.994 211.511 307.223 212.18C307.452 212.85 307.859 213.444 308.4 213.9L337.7 239.1C338.193 239.545 338.794 239.853 339.443 239.994C340.092 240.134 340.767 240.102 341.4 239.9L379.1 227.2C379.737 226.996 380.311 226.631 380.766 226.14C381.221 225.65 381.543 225.051 381.7 224.4L389.9 186.6C390.048 185.908 390.005 185.189 389.776 184.52C389.547 183.85 389.141 183.256 388.6 182.8ZM175.5 211.8C174.569 209.123 172.614 206.925 170.065 205.687C167.515 204.45 164.578 204.275 161.9 205.2L156.3 207C153.622 207.915 151.406 209.835 150.118 212.354C148.83 214.873 148.573 217.794 149.4 220.5C150.33 223.177 152.285 225.375 154.835 226.613C157.384 227.85 160.321 228.025 163 227.1L168.6 225.3C171.277 224.385 173.494 222.465 174.781 219.946C176.069 217.427 176.327 214.506 175.5 211.8Z" fill="url(#paint1_linear_624_23165)"/>
<path d="M518.1 156.2C508.6 169.7 487.9 167.5 471 159.1C464.098 155.841 457.859 151.331 452.6 145.8C449.8 142.7 448.6 137.4 449.2 130.5C449.428 127.197 449.93 123.919 450.7 120.7C455 100.9 468 79.6998 486.7 79.3998C499.4 79.2998 509.4 87.8998 506.6 102.6C505.209 109.173 501.653 115.089 496.5 119.4C496.5 119.4 503.3 119 508 121.4C509.866 122.331 511.641 123.436 513.3 124.7C521.8 131.2 526.2 144.8 518.1 156.2Z" fill="#FF78B9"/>
<path d="M305.9 700C307.6 742.3 299.6 752.1 263.5 734.1C227.4 716.1 207.5 687.8 233.5 653.4C245.56 637.615 259.346 623.225 274.6 610.5L302.5 655C302.5 655 304.8 673.5 305.9 700Z" fill="white"/>
<path d="M544.6 575.8C577.3 602.7 589.9 602.3 597.4 562.6C604.9 522.9 594.2 490 551.1 490C531.233 490.116 511.442 492.464 492.1 497L510.8 546C510.8 546 524.1 559 544.6 575.8Z" fill="white"/>
<path d="M540.299 622.2L503.199 517.4C503.108 517.083 502.973 516.78 502.799 516.5C484.299 471.5 443.699 440.5 396.699 435.8C392.216 435.317 387.709 435.084 383.199 435.1C351.884 435.103 321.758 447.09 298.999 468.6C275.725 490.629 261.499 520.543 259.099 552.5C256.454 586.28 267.031 619.767 288.599 645.9C310.399 672.5 340.799 688.8 374.299 692C377.899 692.3 381.499 692.5 385.099 692.5C389.343 692.513 393.583 692.28 397.799 691.8L399.299 696.2C401.427 702.219 405.368 707.431 410.579 711.12C415.79 714.809 422.015 716.793 428.399 716.8C431.845 716.794 435.264 716.185 438.499 715C442.796 713.496 446.695 711.034 449.899 707.8C451.199 709.6 455.699 728.4 455.699 728.4L457.699 734C459.857 739.992 463.807 745.175 469.014 748.843C474.22 752.511 480.43 754.486 486.799 754.5C490.235 754.479 493.646 753.905 496.899 752.8C500.721 751.43 504.23 749.308 507.218 746.56C510.207 743.812 512.614 740.494 514.299 736.8C517.707 729.478 518.102 721.11 515.399 713.5L513.399 707.9L503.199 679.2L500.199 670.6C502.15 670.919 504.123 671.087 506.099 671.1C510.255 671.094 514.38 670.384 518.299 669C522.83 667.39 526.997 664.899 530.56 661.67C534.122 658.44 537.009 654.537 539.055 650.186C541.1 645.834 542.264 641.121 542.477 636.317C542.691 631.514 541.951 626.716 540.299 622.2Z" fill="white"/>
<path d="M426.5 569.8L413.3 532.3C413.056 531.679 412.665 531.126 412.159 530.69C411.654 530.255 411.05 529.949 410.4 529.8L372.4 522.3C371.723 522.148 371.017 522.189 370.363 522.419C369.709 522.649 369.133 523.058 368.7 523.6L344 553.3C343.572 553.823 343.283 554.445 343.16 555.11C343.038 555.774 343.086 556.459 343.3 557.1L356.6 594.6C356.843 595.221 357.235 595.773 357.74 596.209C358.245 596.645 358.849 596.951 359.5 597.1L397.4 604.6C398.091 604.748 398.81 604.706 399.48 604.477C400.149 604.248 400.744 603.841 401.2 603.3L425.9 573.6C426.329 573.077 426.611 572.449 426.716 571.781C426.822 571.113 426.747 570.429 426.5 569.8ZM426.5 569.8L413.3 532.3C413.056 531.679 412.665 531.126 412.159 530.69C411.654 530.255 411.05 529.949 410.4 529.8L372.4 522.3C371.723 522.148 371.017 522.189 370.363 522.419C369.709 522.649 369.133 523.058 368.7 523.6L344 553.3C343.572 553.823 343.283 554.445 343.16 555.11C343.038 555.774 343.086 556.459 343.3 557.1L356.6 594.6C356.843 595.221 357.235 595.773 357.74 596.209C358.245 596.645 358.849 596.951 359.5 597.1L397.4 604.6C398.091 604.748 398.81 604.706 399.48 604.477C400.149 604.248 400.744 603.841 401.2 603.3L425.9 573.6C426.329 573.077 426.611 572.449 426.716 571.781C426.822 571.113 426.747 570.429 426.5 569.8ZM521.5 628.9L484.3 524.1C469.4 487.7 436 459.8 394.6 455.7C336.1 449.3 284 492.9 279.1 554.1C274.4 613.1 317.9 666.6 376.2 672.1C387.853 673.16 399.602 672.145 410.9 669.1L418.2 689.5C419.132 692.179 421.082 694.384 423.626 695.637C426.171 696.891 429.107 697.093 431.8 696.2C434.439 695.167 436.577 693.155 437.77 690.584C438.962 688.013 439.116 685.082 438.2 682.4L427.6 652.8C426.683 650.118 426.837 647.186 428.03 644.615C429.222 642.044 431.361 640.033 434 639C436.692 638.107 439.628 638.309 442.173 639.562C444.718 640.816 446.667 643.021 447.6 645.7L464.4 693C465.341 695.652 467.298 697.822 469.839 699.031C472.38 700.241 475.298 700.391 477.95 699.45C480.602 698.508 482.771 696.552 483.981 694.011C485.191 691.47 485.341 688.552 484.4 685.9L461.1 620C460.472 618.659 460.132 617.201 460.103 615.72C460.073 614.24 460.354 612.77 460.927 611.404C461.5 610.039 462.353 608.809 463.43 607.793C464.508 606.778 465.786 605.999 467.183 605.508C468.58 605.016 470.064 604.823 471.54 604.94C473.016 605.058 474.452 605.483 475.753 606.189C477.055 606.895 478.194 607.865 479.098 609.039C480.002 610.212 480.649 611.561 481 613L490.6 639.8C493.5 648.2 502.5 653.4 511.6 650.1C513.653 649.374 515.542 648.247 517.155 646.783C518.768 645.32 520.074 643.549 520.995 641.576C521.917 639.602 522.436 637.465 522.523 635.289C522.609 633.112 522.262 630.94 521.5 628.9ZM446.2 569.3C443.4 603.3 413.9 628.3 380.4 625C346.9 621.7 322 591.5 324.8 557.5C327.6 523.5 357.1 498.6 390.6 501.9C424.1 505.2 449 535.3 446.2 569.3ZM413.3 532.3C413.056 531.679 412.665 531.126 412.159 530.69C411.654 530.255 411.05 529.949 410.4 529.8L372.4 522.3C371.723 522.148 371.017 522.189 370.363 522.419C369.709 522.649 369.133 523.058 368.7 523.6L344 553.3C343.572 553.823 343.283 554.445 343.16 555.11C343.038 555.774 343.086 556.459 343.3 557.1L356.6 594.6C356.843 595.221 357.235 595.773 357.74 596.209C358.245 596.645 358.849 596.951 359.5 597.1L397.4 604.6C398.091 604.748 398.81 604.706 399.48 604.477C400.149 604.248 400.744 603.841 401.2 603.3L425.9 573.6C426.329 573.077 426.611 572.449 426.716 571.781C426.822 571.113 426.747 570.429 426.5 569.8L413.3 532.3ZM496.6 720.2L494.6 714.6C493.647 711.939 491.689 709.758 489.147 708.524C486.604 707.29 483.679 707.102 481 708C478.336 708.97 476.165 710.957 474.965 713.526C473.765 716.094 473.634 719.034 474.6 721.7L476.6 727.3C477.53 729.977 479.485 732.175 482.035 733.412C484.584 734.65 487.521 734.825 490.2 733.9C492.831 732.887 494.968 730.895 496.162 728.34C497.355 725.785 497.512 722.868 496.6 720.2Z" fill="url(#paint2_linear_624_23165)"/>
<path d="M320.8 403.5C320.933 396.83 322.981 390.339 326.7 384.8C332.9 375.6 346.9 372.6 356.4 381C372.9 395.5 361.7 428.1 349.5 445C345.5 450.7 341.1 453.9 337 454.4C314.4 457.2 279.7 440.2 281.9 416.6C283.3 402.6 296.1 397.2 306.7 397.8C311.893 398.121 316.842 400.122 320.8 403.5Z" fill="#FF78B9"/>
<path d="M325.499 434.8C324.772 434.801 324.054 434.64 323.397 434.328C322.739 434.017 322.16 433.563 321.699 433C309.299 418.6 310.699 405.5 310.799 404.9C311.044 403.662 311.747 402.562 312.769 401.821C313.79 401.08 315.054 400.753 316.306 400.905C317.559 401.056 318.708 401.676 319.523 402.64C320.338 403.603 320.758 404.84 320.699 406.1C320.699 406.4 319.999 415.7 329.299 426.5C330.158 427.515 330.586 428.825 330.493 430.152C330.399 431.478 329.792 432.715 328.799 433.6C327.872 434.371 326.705 434.795 325.499 434.8Z" fill="#E40085"/>
<path d="M283.6 388.4C283.6 388.4 287.4 399 292.5 400.8C300.2 403.5 312.3 406.1 320.8 406.1C320.62 402.807 320.923 399.505 321.7 396.3L316.7 384.3L290.4 386.2L283.6 388.4Z" fill="white"/>
<path d="M478.6 139.9C477.404 139.877 476.257 139.426 475.365 138.63C474.474 137.833 473.897 136.744 473.74 135.559C473.583 134.373 473.855 133.171 474.508 132.17C475.161 131.168 476.152 130.434 477.3 130.1C490.3 126.5 495.6 119.5 495.6 119.4C496.396 118.345 497.571 117.641 498.877 117.436C500.183 117.231 501.518 117.541 502.6 118.3C503.14 118.679 503.601 119.161 503.954 119.719C504.307 120.277 504.547 120.899 504.658 121.55C504.77 122.201 504.751 122.867 504.604 123.511C504.457 124.155 504.183 124.763 503.8 125.3C503.5 125.7 496.5 135.1 480 139.7C479.552 139.864 479.075 139.932 478.6 139.9Z" fill="#E40085"/>
<path d="M489.199 119.3C562.899 130.8 697.199 65.6001 801.499 31.1001C964.199 -22.7999 1044 16.7001 1041.9 60.4001C1039.6 108.1 967.199 136.6 846.299 97.3001" stroke="white" stroke-width="10" stroke-linecap="round" stroke-linejoin="round"/>
<path d="M466.1 120.7C472.6 127.6 489.7 124.5 489.7 124.5C493.718 121.649 497.467 118.435 500.9 114.9L481.1 105L466.1 120.7Z" fill="#FF78B9"/>
<path d="M31.9 111.1C28.7821 109.081 26.1274 106.424 24.1108 103.304C22.0942 100.184 20.7613 96.6724 20.2 93.0003L18.3 80.3003C18.2551 80.0077 18.1117 79.7392 17.8935 79.5392C17.6753 79.3392 17.3954 79.2196 17.1 79.2003C16.7872 79.1966 16.4836 79.3057 16.2448 79.5078C16.006 79.7098 15.8481 79.9912 15.8 80.3003L13.9 93.0003C13.3387 96.6724 12.0058 100.184 9.9892 103.304C7.97255 106.424 5.31788 109.081 2.2 111.1L0.6 112.1C0.421419 112.224 0.274217 112.388 0.17007 112.579C0.0659226 112.77 0.0076934 112.983 0 113.2H0C0.0076934 113.418 0.0659226 113.63 0.17007 113.821C0.274217 114.012 0.421419 114.176 0.6 114.3L2.2 115.3C5.31788 117.32 7.97255 119.977 9.9892 123.097C12.0058 126.217 13.3387 129.728 13.9 133.4L15.8 146.1C15.8493 146.401 16.0111 146.671 16.2525 146.857C16.4939 147.043 16.7969 147.13 17.1 147.1C17.3865 147.104 17.6649 147.006 17.885 146.822C18.1051 146.639 18.2523 146.383 18.3 146.1L20.2 133.4C20.7613 129.728 22.0942 126.217 24.1108 123.097C26.1274 119.977 28.7821 117.32 31.9 115.3L33.6 114.3C33.904 114.013 34.0835 113.618 34.1 113.2C34.0835 112.782 33.904 112.388 33.6 112.1L31.9 111.1Z" fill="#FFE75C"/>
<path d="M589.9 292.4C586.765 290.4 584.097 287.748 582.078 284.625C580.059 281.502 578.737 277.98 578.2 274.3L576.3 261.7C576.255 261.408 576.112 261.139 575.894 260.939C575.676 260.739 575.396 260.62 575.1 260.6C574.788 260.596 574.484 260.706 574.245 260.908C574.006 261.11 573.848 261.391 573.8 261.7L571.9 274.3C571.364 277.98 570.041 281.502 568.022 284.625C566.004 287.748 563.336 290.4 560.2 292.4L558.6 293.5C558.4 293.601 558.236 293.76 558.128 293.956C558.021 294.153 557.977 294.378 558 294.6C557.977 294.823 558.021 295.047 558.128 295.244C558.236 295.441 558.4 295.6 558.6 295.7L560.2 296.8C563.336 298.8 566.004 301.452 568.022 304.575C570.041 307.699 571.364 311.22 571.9 314.9L573.8 327.5C573.848 327.809 574.006 328.091 574.245 328.293C574.484 328.495 574.788 328.604 575.1 328.6C575.396 328.581 575.676 328.461 575.894 328.261C576.112 328.061 576.255 327.793 576.3 327.5L578.2 314.9C578.737 311.22 580.059 307.699 582.078 304.575C584.097 301.452 586.765 298.8 589.9 296.8L591.6 295.7C591.767 295.571 591.899 295.403 591.986 295.212C592.073 295.02 592.112 294.81 592.1 294.6C592.112 294.39 592.073 294.18 591.986 293.989C591.899 293.797 591.767 293.629 591.6 293.5L589.9 292.4Z" fill="#91FFAD"/>
<path d="M163.7 521.6C160.595 519.567 157.95 516.906 155.935 513.788C153.92 510.671 152.58 507.167 152 503.5L150.1 490.9C150.101 490.747 150.069 490.595 150.008 490.455C149.947 490.315 149.856 490.189 149.743 490.085C149.631 489.981 149.497 489.903 149.352 489.854C149.207 489.805 149.053 489.787 148.9 489.8C148.587 489.797 148.284 489.906 148.045 490.108C147.806 490.31 147.648 490.591 147.6 490.9L145.7 503.5C145.157 507.179 143.832 510.697 141.814 513.82C139.796 516.942 137.131 519.595 134 521.6L132.4 522.7C132.216 522.794 132.063 522.938 131.957 523.114C131.851 523.291 131.796 523.494 131.8 523.7C131.776 523.923 131.821 524.148 131.928 524.344C132.035 524.541 132.2 524.7 132.4 524.8L134 525.8C137.143 527.816 139.814 530.485 141.833 533.626C143.852 536.766 145.171 540.305 145.7 544L147.6 556.6C147.666 556.901 147.829 557.172 148.064 557.371C148.299 557.57 148.593 557.686 148.9 557.7C149.202 557.702 149.493 557.589 149.715 557.385C149.938 557.181 150.075 556.901 150.1 556.6L152 544C152.566 540.316 153.901 536.792 155.916 533.657C157.932 530.522 160.584 527.845 163.7 525.8L165.4 524.8C165.579 524.676 165.726 524.512 165.83 524.321C165.934 524.13 165.992 523.918 166 523.7C165.985 523.499 165.923 523.303 165.819 523.129C165.714 522.956 165.571 522.809 165.4 522.7L163.7 521.6Z" fill="#808AFF"/>
<path d="M535.9 361.9C534.184 360.784 532.725 359.315 531.622 357.591C530.518 355.866 529.795 353.926 529.5 351.9L528.4 345C528.4 344.841 528.337 344.689 528.224 344.576C528.112 344.464 527.959 344.4 527.8 344.4C527.631 344.399 527.466 344.459 527.337 344.569C527.209 344.679 527.124 344.833 527.1 345L526 351.9C525.706 353.926 524.982 355.866 523.879 357.591C522.775 359.315 521.316 360.784 519.6 361.9L518.7 362.5C518.604 362.542 518.523 362.612 518.47 362.702C518.416 362.792 518.392 362.896 518.4 363C518.419 363.232 518.527 363.447 518.7 363.6L519.6 364.2C521.323 365.286 522.788 366.734 523.893 368.444C524.998 370.154 525.717 372.084 526 374.1L527.1 381C527.1 381.4 527.4 381.6 527.8 381.6C527.959 381.6 528.112 381.537 528.224 381.425C528.337 381.312 528.4 381.16 528.4 381L529.5 374.1C529.783 372.084 530.502 370.154 531.607 368.444C532.713 366.734 534.178 365.286 535.9 364.2L536.8 363.6C536.974 363.447 537.081 363.232 537.1 363C537.109 362.896 537.084 362.792 537.031 362.702C536.977 362.612 536.896 362.542 536.8 362.5L535.9 361.9Z" fill="#8CD9FF"/>
</g>
<defs>
<linearGradient id="paint0_linear_624_23165" x1="885.88" y1="585.7" x2="1138.76" y2="585.7" gradientUnits="userSpaceOnUse">
<stop stop-color="#A0BAFD"/>
<stop offset="0.76" stop-color="#698EFD"/>
</linearGradient>
<linearGradient id="paint1_linear_624_23165" x1="211.925" y1="295.818" x2="419.001" y2="115.845" gradientUnits="userSpaceOnUse">
<stop stop-color="#B273F3"/>
<stop offset="1" stop-color="#E090A8"/>
</linearGradient>
<linearGradient id="paint2_linear_624_23165" x1="396.889" y1="759.287" x2="410.436" y2="486.41" gradientUnits="userSpaceOnUse">
<stop stop-color="#B273F3"/>
<stop offset="1" stop-color="#E090A8"/>
</linearGradient>
<clipPath id="clip0_624_23165">
<rect width="1433" height="1167.1" fill="white"/>
</clipPath>
</defs>
</svg>
