<svg width="74" height="90" viewBox="0 0 74 90" fill="none" xmlns="http://www.w3.org/2000/svg">
    <g clip-path="url(#clip0_272_816)">
        <path d="M11.3917 57.0788C11.2842 57.081 11.1794 57.0451 11.0955 56.9773C11.0115 56.9096 10.9538 56.8142 10.9323 56.7079L7.9466 41.8702C7.93326 41.8092 7.93226 41.7461 7.94365 41.6847C7.95505 41.6234 7.97862 41.5649 8.01294 41.513C8.04726 41.461 8.09162 41.4166 8.14337 41.3823C8.19512 41.3481 8.25318 41.3248 8.31408 41.3138C8.37449 41.3003 8.43697 41.2993 8.49778 41.3108C8.55859 41.3223 8.61647 41.3461 8.66795 41.3807C8.71943 41.4154 8.76344 41.4602 8.79735 41.5124C8.83126 41.5646 8.85437 41.6232 8.86529 41.6847L11.851 56.5224C11.8664 56.6443 11.8377 56.7677 11.7702 56.8699C11.7027 56.9721 11.6009 57.0463 11.4835 57.0788H11.3917Z" fill="#DAE2ED"/>
        <path d="M47.45 34.2195H38.5847C33.0266 34.2195 30.3165 31.5302 30.3165 31.5302V43.2148H35.8746C36.3798 40.2937 38.9062 38.9954 41.9838 38.9954H47.404C47.7418 39.0463 48.0865 39.0234 48.4148 38.9285C48.7431 38.8335 49.0474 38.6685 49.3072 38.4447C49.567 38.2209 49.7762 37.9435 49.9207 37.6312C50.0653 37.3188 50.1418 36.9788 50.1451 36.6341C50.1484 36.2893 50.0785 35.9479 49.94 35.6328C49.8014 35.3177 49.5976 35.0362 49.3422 34.8073C49.0867 34.5785 48.7857 34.4076 48.4593 34.3062C48.1328 34.2048 47.7887 34.1752 47.45 34.2195Z" fill="#80A7FF"/>
        <path d="M40.4221 58.3308H38.2632C37.9952 58.3308 37.7381 58.4382 37.5486 58.6295C37.3591 58.8208 37.2526 59.0803 37.2526 59.3508V63.8949C37.2409 64.4938 37 65.0648 36.5804 65.4883C36.1608 65.9119 35.5951 66.1551 35.0019 66.1669C34.4086 66.1551 33.8429 65.9119 33.4233 65.4883C33.0038 65.0648 32.7628 64.4938 32.7511 63.8949V44.7913C32.7631 44.123 33.0346 43.4862 33.5071 43.018C33.9796 42.5497 34.6153 42.2874 35.2775 42.2875H42.9026C43.5604 42.2875 44.1913 42.5513 44.6565 43.0208C45.1217 43.4904 45.383 44.1273 45.383 44.7913V53.2767C45.3891 53.9382 45.2652 54.5943 45.0186 55.2073C44.7721 55.8202 44.4076 56.3777 43.9463 56.8477C43.4851 57.3176 42.9361 57.6906 42.3312 57.9452C41.7263 58.1997 41.0775 58.3308 40.4221 58.3308Z" fill="#80A7FF"/>
        <path d="M43.27 36.0742C42.2579 34.6697 40.9317 33.5261 39.3992 32.7365C37.8667 31.9469 36.1713 31.5336 34.4507 31.5302H19.7058C17.9637 31.5302 16.293 32.2287 15.0611 33.4722C13.8293 34.7157 13.1372 36.4022 13.1372 38.1608V50.3091C13.1371 51.4817 13.5954 52.6069 14.4125 53.4404C15.2296 54.2739 16.3394 54.7482 17.501 54.7604H38.8604C40.5945 54.7482 42.2535 54.0442 43.4754 52.8021C44.6973 51.5599 45.3831 49.8804 45.383 48.1298V42.5657C45.3864 40.2291 44.6456 37.9534 43.27 36.0742Z" fill="#9CB8FF"/>
        <path fill-rule="evenodd" clip-rule="evenodd" d="M60.4953 87.8671C56.3332 89.7951 51.6981 90.4337 47.1765 89.7022C42.6548 88.9707 38.4496 86.9019 35.0927 83.7576C31.7359 80.6133 29.3783 76.5347 28.3181 72.0376C27.2579 67.5406 27.5427 62.8272 29.1365 58.4936C30.7304 54.16 33.5616 50.4009 37.2722 47.6917C40.9827 44.9826 45.4058 43.4452 49.9821 43.2739C54.5583 43.1026 59.0821 44.3051 62.9812 46.7294C66.8803 49.1537 69.9796 52.6909 71.887 56.8934C74.4183 62.5293 74.6415 68.9464 72.5079 74.7476C70.3743 80.5487 66.0568 85.2642 60.4953 87.8671Z" fill="#4F5D7F"/>
        <path fill-rule="evenodd" clip-rule="evenodd" d="M26.6878 71.1746H19.1546C18.8459 71.1626 18.5538 71.0303 18.3396 70.8055C18.1255 70.5807 18.006 70.2809 18.0062 69.9691V65.8887C18.0062 65.5813 18.1272 65.2864 18.3426 65.069C18.5579 64.8516 18.85 64.7295 19.1546 64.7295H26.6878C26.9924 64.7295 27.2844 64.8516 27.4998 65.069C27.7152 65.2864 27.8361 65.5813 27.8361 65.8887V69.9691C27.8364 70.2809 27.7169 70.5807 27.5027 70.8055C27.2886 71.0303 26.9965 71.1626 26.6878 71.1746Z" fill="#FF5C5C"/>
        <path fill-rule="evenodd" clip-rule="evenodd" d="M41.4327 73.493H23.3346C22.4088 73.493 21.5208 73.1217 20.8661 72.4609C20.2114 71.8 19.8436 70.9036 19.8436 69.969V63.7557C19.8556 63.1981 20.0835 62.6675 20.4785 62.2774C20.8735 61.8874 21.4041 61.6691 21.9566 61.6692H41.4327V73.493Z" fill="#B7C2CE"/>
        <path fill-rule="evenodd" clip-rule="evenodd" d="M12.4022 61.0665H15.5717C17.3266 61.0672 19.0104 61.767 20.257 63.0139L21.7269 64.5441C24.0863 66.9054 27.2697 68.2374 30.5922 68.2535H43.3159V58.5162H12.4022V61.0665Z" fill="black"/>
        <path d="M11.5754 54.7604H40.8815V61.0664H11.5754C10.747 61.0664 9.95254 60.7342 9.36676 60.1429C8.78099 59.5516 8.4519 58.7496 8.4519 57.9134C8.4519 57.0772 8.78099 56.2752 9.36676 55.6839C9.95254 55.0926 10.747 54.7604 11.5754 54.7604Z" fill="black"/>
        <path fill-rule="evenodd" clip-rule="evenodd" d="M57.0962 80.4483C54.388 81.7095 51.3699 82.1309 48.4242 81.6592C45.4785 81.1875 42.7378 79.8438 40.5492 77.7985C38.3607 75.7532 36.8227 73.0981 36.1302 70.1697C35.4376 67.2414 35.6217 64.1714 36.659 61.3487C37.6964 58.526 39.5403 56.0776 41.9573 54.3136C44.3742 52.5496 47.2555 51.5494 50.236 51.4398C53.2165 51.3301 56.1623 52.1159 58.7 53.6976C61.2378 55.2792 63.2534 57.5856 64.4916 60.3246C66.1335 63.9859 66.2777 68.1534 64.8929 71.9214C63.5082 75.6895 60.7063 78.7537 57.0962 80.4483Z" fill="#7687B2"/>
        <path d="M25.815 53.2767V41.221C25.815 40.4328 25.4476 35.6105 24.8964 31.5302H19.7058C18.0288 31.5386 16.4176 32.1897 15.1981 33.3519C13.9786 34.514 13.242 36.1003 13.1372 37.7898V63.8949C13.149 64.4938 13.3899 65.0648 13.8094 65.4884C14.229 65.9119 14.7947 66.1551 15.388 66.1669C15.9812 66.1551 16.5469 65.9119 16.9665 65.4884C17.3861 65.0648 17.627 64.4938 17.6388 63.8949V59.3509C17.6388 59.0803 17.7452 58.8209 17.9347 58.6296C18.1243 58.4382 18.3813 58.3308 18.6493 58.3308H20.8082C22.1361 58.3308 23.4096 57.7983 24.3486 56.8505C25.2875 55.9026 25.815 54.6171 25.815 53.2767Z" fill="#80A7FF"/>
        <path d="M52.7325 52.9057L46.4395 37.2333H48.1391C48.2092 37.2398 48.2799 37.2314 48.3466 37.2087C48.4133 37.1859 48.4746 37.1494 48.5264 37.1014C48.5783 37.0534 48.6197 36.9949 48.6479 36.9298C48.6762 36.8647 48.6906 36.7943 48.6903 36.7233C48.6903 36.6502 48.676 36.5779 48.6483 36.5104C48.6206 36.4428 48.58 36.3815 48.5288 36.3298C48.4777 36.2782 48.4169 36.2372 48.35 36.2092C48.2831 36.1813 48.2115 36.1669 48.1391 36.1669H35.4612C35.3151 36.1669 35.1749 36.2255 35.0715 36.3298C34.9681 36.4342 34.91 36.5757 34.91 36.7233C34.9216 36.8627 34.9847 36.9926 35.0869 37.0871C35.189 37.1816 35.3227 37.2338 35.4612 37.2333H44.4643C44.7118 37.2341 44.9534 37.3095 45.1581 37.45C45.3627 37.5905 45.521 37.7895 45.6127 38.0216L51.722 53.323C51.7609 53.4244 51.8309 53.5106 51.9218 53.569C52.0127 53.6274 52.1197 53.6549 52.2272 53.6475H52.411C52.5494 53.5764 52.662 53.4628 52.7325 53.323C52.778 53.1877 52.778 53.041 52.7325 52.9057Z" fill="#EBEFF7"/>
        <path d="M37.3904 34.2195H28.4792C28.1314 34.2195 27.7872 34.1497 27.4665 34.014C27.1458 33.8782 26.8551 33.6794 26.6114 33.4291C26.3676 33.1787 26.1757 32.8818 26.0469 32.5558C25.918 32.2298 25.8548 31.8811 25.8609 31.5302H20.257V43.2148H25.815C26.3203 40.2937 28.8467 38.9954 31.9242 38.9954H37.2985C37.6357 39.0492 37.9803 39.0295 38.3092 38.9375C38.6382 38.8455 38.9438 38.6835 39.2054 38.4622C39.4671 38.241 39.6787 37.9657 39.8261 37.6549C39.9735 37.3442 40.0532 37.0051 40.0598 36.6607C40.0664 36.3162 39.9998 35.9743 39.8645 35.658C39.7292 35.3417 39.5283 35.0583 39.2753 34.827C39.0224 34.5956 38.7233 34.4217 38.3981 34.3169C38.073 34.2122 37.7294 34.1789 37.3904 34.2195Z" fill="#80A7FF"/>
        <path fill-rule="evenodd" clip-rule="evenodd" d="M18.4655 31.6692H37.4823C39.119 31.6693 40.6893 31.0161 41.851 29.8522C43.0126 28.6883 43.6713 27.108 43.6834 25.4559V13.9567C43.6713 12.3046 43.0126 10.7243 41.851 9.5604C40.6893 8.39649 39.119 7.74336 37.4823 7.74341H18.4655C16.8288 7.74336 15.2585 8.39649 14.0968 9.5604C12.9352 10.7243 12.2765 12.3046 12.2644 13.9567V25.4559C12.2765 27.108 12.9352 28.6883 14.0968 29.8522C15.2585 31.0161 16.8288 31.6693 18.4655 31.6692Z" fill="#80A7FF"/>
        <path fill-rule="evenodd" clip-rule="evenodd" d="M22.4619 31.6692H41.5246C43.157 31.6692 44.7226 31.0146 45.8769 29.8494C47.0312 28.6842 47.6797 27.1038 47.6797 25.4559V13.9567C47.6797 12.3088 47.0312 10.7285 45.8769 9.56324C44.7226 8.39802 43.157 7.74341 41.5246 7.74341H22.4619C20.8251 7.74336 19.2548 8.39649 18.0932 9.5604C16.9315 10.7243 16.2729 12.3046 16.2607 13.9567V25.4559C16.2729 27.108 16.9315 28.6883 18.0932 29.8522C19.2548 31.0161 20.8251 31.6693 22.4619 31.6692Z" fill="#9CB8FF"/>
        <path fill-rule="evenodd" clip-rule="evenodd" d="M14.1018 24.0185H18.6493V12.8439H14.1018C13.5611 12.8438 13.0257 12.9521 12.5267 13.1624C12.0277 13.3727 11.5749 13.6808 11.1947 14.0689C10.8145 14.457 10.5143 14.9175 10.3116 15.4235C10.1089 15.9295 10.0076 16.4712 10.0137 17.017V19.8918C10.0137 20.9863 10.4444 22.0359 11.2111 22.8098C11.9778 23.5837 13.0176 24.0185 14.1018 24.0185Z" fill="#9CB8FF"/>
        <path fill-rule="evenodd" clip-rule="evenodd" d="M18.6493 21.561V15.3477C18.6493 15.2371 18.6057 15.1309 18.5282 15.0526C18.4507 14.9744 18.3455 14.9304 18.2359 14.9304H14.1018C13.5616 14.9425 13.0475 15.1677 12.6698 15.5577C12.292 15.9477 12.0806 16.4715 12.0807 17.017V19.8918C12.0806 20.4372 12.292 20.961 12.6698 21.351C13.0475 21.741 13.5616 21.9662 14.1018 21.9783H18.2359C18.3455 21.9783 18.4507 21.9344 18.5282 21.8561C18.6057 21.7778 18.6493 21.6717 18.6493 21.561Z" fill="#80A7FF"/>
        <path fill-rule="evenodd" clip-rule="evenodd" d="M25.8151 20.4019C26.2148 20.4019 26.6055 20.2822 26.9379 20.0581C27.2703 19.8339 27.5293 19.5153 27.6823 19.1425C27.8353 18.7697 27.8753 18.3595 27.7973 17.9637C27.7193 17.5679 27.5268 17.2044 27.2442 16.9191C26.9615 16.6338 26.6014 16.4395 26.2094 16.3607C25.8173 16.282 25.4109 16.3224 25.0416 16.4768C24.6723 16.6313 24.3566 16.8927 24.1346 17.2283C23.9125 17.5638 23.7939 17.9582 23.7939 18.3617C23.8056 18.8991 24.0223 19.4112 24.3989 19.7913C24.7754 20.1713 25.2827 20.3901 25.8151 20.4019Z" fill="black"/>
        <path fill-rule="evenodd" clip-rule="evenodd" d="M47.8634 13.9567H33.8535C33.1956 13.9567 32.5647 14.2205 32.0996 14.69C31.6344 15.1596 31.373 15.7965 31.373 16.4605V19.3353C31.3852 20.9875 32.0438 22.5677 33.2055 23.7316C34.3671 24.8955 35.9375 25.5487 37.5742 25.5486H44.1428C45.7795 25.5487 47.3498 24.8955 48.5114 23.7316C49.6731 22.5677 50.3317 20.9875 50.3439 19.3353V16.4605C50.3439 15.7965 50.0825 15.1596 49.6174 14.69C49.1522 14.2205 48.5213 13.9567 47.8634 13.9567Z" fill="#B8D0FF"/>
        <path fill-rule="evenodd" clip-rule="evenodd" d="M40.4222 25.5486H44.1428C45.7795 25.5487 47.3499 24.8955 48.5115 23.7316C49.6731 22.5677 50.3318 20.9875 50.3439 19.3353V16.4605C50.3439 15.7965 50.0826 15.1596 49.6174 14.69C49.1523 14.2205 48.5213 13.9567 47.8635 13.9567H36.7474C36.0896 13.9567 35.4586 14.2205 34.9935 14.69C34.5283 15.1596 34.267 15.7965 34.267 16.4605V19.3353C34.267 20.9832 34.9155 22.5636 36.0698 23.7288C37.2241 24.894 38.7897 25.5486 40.4222 25.5486Z" fill="#CBDAF7"/>
        <path fill-rule="evenodd" clip-rule="evenodd" d="M42.1216 20.8655H39.4115C39.2788 20.8655 39.1474 20.8919 39.0248 20.9431C38.9022 20.9944 38.7908 21.0695 38.6969 21.1643C38.6031 21.259 38.5287 21.3714 38.4779 21.4952C38.4271 21.619 38.4009 21.7516 38.4009 21.8856C38.3947 22.0234 38.4163 22.161 38.4643 22.2902C38.5123 22.4194 38.5857 22.5374 38.6802 22.6371C38.7747 22.7367 38.8882 22.8161 39.0139 22.8702C39.1396 22.9243 39.2748 22.9522 39.4115 22.952H42.1216C42.2583 22.9522 42.3936 22.9243 42.5193 22.8702C42.645 22.8161 42.7585 22.7367 42.8529 22.6371C42.9474 22.5374 43.0208 22.4194 43.0688 22.2902C43.1168 22.161 43.1384 22.0234 43.1322 21.8856C43.1322 21.7516 43.106 21.619 43.0552 21.4952C43.0045 21.3714 42.93 21.259 42.8362 21.1643C42.7423 21.0695 42.6309 20.9944 42.5083 20.9431C42.3857 20.8919 42.2543 20.8655 42.1216 20.8655ZM46.9447 20.8655H45.8882C45.7555 20.8655 45.6241 20.8919 45.5015 20.9431C45.3789 20.9944 45.2675 21.0695 45.1737 21.1643C45.0798 21.259 45.0054 21.3714 44.9546 21.4952C44.9038 21.619 44.8777 21.7516 44.8777 21.8856C44.8715 22.0234 44.893 22.161 44.941 22.2902C44.989 22.4194 45.0624 22.5374 45.1569 22.6371C45.2514 22.7367 45.3649 22.8161 45.4906 22.8702C45.6163 22.9243 45.7516 22.9522 45.8882 22.952H46.9447C47.0814 22.9522 47.2166 22.9243 47.3423 22.8702C47.468 22.8161 47.5816 22.7367 47.676 22.6371C47.7705 22.5374 47.8439 22.4194 47.8919 22.2902C47.9399 22.161 47.9615 22.0234 47.9553 21.8856C47.9553 21.7516 47.9291 21.619 47.8783 21.4952C47.8276 21.3714 47.7531 21.259 47.6593 21.1643C47.5654 21.0695 47.454 20.9944 47.3314 20.9431C47.2088 20.8919 47.0774 20.8655 46.9447 20.8655Z" fill="#9CB8FF"/>
        <path fill-rule="evenodd" clip-rule="evenodd" d="M40.9733 28.0062H42.6269C42.8097 28.0062 42.9849 27.9329 43.1141 27.8025C43.2434 27.672 43.316 27.4951 43.316 27.3107C43.3043 27.1343 43.2266 26.9691 43.0986 26.8486C42.9706 26.728 42.802 26.6611 42.6269 26.6615H40.9733C40.7983 26.6611 40.6296 26.728 40.5017 26.8486C40.3737 26.9691 40.296 27.1343 40.2843 27.3107C40.2843 27.4951 40.3569 27.672 40.4861 27.8025C40.6153 27.9329 40.7906 28.0062 40.9733 28.0062Z" fill="#80A7FF"/>
        <path fill-rule="evenodd" clip-rule="evenodd" d="M28.8926 0.973755C28.8926 0.973755 21.4512 17.5734 19.9813 21.2829C17.9143 26.6615 9.00305 26.0124 9.00305 18.3617L28.8926 0.973755Z" fill="#D0D9EA"/>
        <path fill-rule="evenodd" clip-rule="evenodd" d="M46.1639 7.46522C46.1639 7.46522 41.0192 0 27.4227 0C13.8262 0 7.5332 9.73725 7.5332 17.3879C7.5332 25.0386 16.4444 25.6878 18.5574 20.3091C19.9814 16.5997 22.5996 10.711 22.5996 10.711H46.1639V7.46522Z" fill="#EBEFF7"/>
        <path fill-rule="evenodd" clip-rule="evenodd" d="M36.9771 6.81603L40.514 6.67692C40.514 6.67692 38.2632 1.99377 30.6381 0.139057C29.6276 0.0463211 28.5711 -4.67333e-05 27.4227 -4.67333e-05C26.4717 -0.00225705 25.5212 0.0441703 24.5748 0.139057C28.0199 0.556367 33.6698 1.99377 36.9771 6.81603Z" fill="#D0D9EA"/>
        <path fill-rule="evenodd" clip-rule="evenodd" d="M22.5996 10.711H54.8914C54.8914 10.711 49.8845 6.35244 38.9062 6.49154C27.928 6.63064 22.5996 10.711 22.5996 10.711Z" fill="black"/>
        <path fill-rule="evenodd" clip-rule="evenodd" d="M14.7908 16.8316C14.6071 18.6399 13.1831 19.9382 11.6673 19.7527C10.1514 19.5673 9.14089 17.9907 9.32463 16.1824C9.50836 14.3741 10.9783 13.0294 12.4941 13.2149C14.0099 13.4003 15.0205 15.0232 14.7908 16.8316Z" fill="#D0D9EA"/>
        <path fill-rule="evenodd" clip-rule="evenodd" d="M12.9994 13.3539C12.4484 13.6078 11.9723 14.0021 11.6179 14.498C11.2636 14.9939 11.0431 15.5744 10.9783 16.1823C10.7945 17.7588 11.5754 19.1962 12.7697 19.6599C13.3292 19.418 13.8129 19.0269 14.1689 18.5287C14.525 18.0304 14.7399 17.4437 14.7908 16.8315C15.0205 15.255 14.2396 13.8176 12.9994 13.3539Z" fill="#7687B2"/>
        <path fill-rule="evenodd" clip-rule="evenodd" d="M71.0602 53.7404C70.0037 57.1716 58.5202 62.5967 51.2626 65.3787C45.8883 63.7095 32.7511 58.8872 30.6381 54.8069C30.4155 54.4651 30.3331 54.0495 30.4084 53.6477L30.5922 53.2303C34.5884 47.1562 40.6058 43.2613 47.5419 42.2875C56.3153 41.082 65.0428 45.0232 70.9224 52.813C71.0138 52.9468 71.0738 53.0999 71.0977 53.2606C71.1216 53.4213 71.1087 53.5854 71.0602 53.7404Z" fill="#FF7F14"/>
        <path fill-rule="evenodd" clip-rule="evenodd" d="M51.3085 66.5843C51.3085 66.5843 34.1292 46.9707 37.1149 45.0232C40.2213 42.9813 43.7336 41.6518 47.4041 41.1283C57.28 39.7836 66.1912 44.6059 71.8411 52.1175C75.8374 57.4498 51.3085 66.5843 51.3085 66.5843Z" fill="#FF903E"/>
        <path fill-rule="evenodd" clip-rule="evenodd" d="M69.4525 49.3817C69.4708 50.4679 69.0951 51.5234 68.396 52.3493C64.905 56.9861 52.2731 62.1793 48.6443 63.5703C49.6089 65.9814 50.4817 67.5579 50.9869 67.7434L51.3544 67.8361L51.7219 67.697C52.365 67.4652 68.3501 61.4374 72.3923 56.1051C74.0918 53.8331 73.3569 52.1638 72.7597 51.4219C71.0602 49.1499 69.3606 48.6399 69.4525 49.3817Z" fill="#DAE2ED"/>
        <path fill-rule="evenodd" clip-rule="evenodd" d="M56.1316 78.3153C53.8447 79.378 51.297 79.7319 48.8109 79.3324C46.3247 78.9329 44.0118 77.7979 42.1648 76.071C40.3179 74.3441 39.02 72.103 38.4353 69.6312C37.8506 67.1594 38.0055 64.5681 38.8803 62.1852C39.755 59.8023 41.3104 57.7349 43.3496 56.2446C45.3888 54.7544 47.8201 53.9082 50.3358 53.8133C52.8515 53.7183 55.3386 54.3789 57.4823 55.7113C59.626 57.0437 61.33 58.988 62.3786 61.2983C63.7826 64.3916 63.9133 67.9208 62.7421 71.1112C61.5709 74.3017 59.1934 76.8926 56.1316 78.3153Z" fill="#EBEFF7"/>
        <path fill-rule="evenodd" clip-rule="evenodd" d="M55.2588 76.4606C52.6747 77.6425 49.7325 77.7452 47.0736 76.7464C44.4148 75.7475 42.255 73.728 41.0651 71.1283C40.1858 69.1852 39.8968 67.0226 40.2348 64.9138C40.5727 62.805 41.5224 60.8446 42.9638 59.2805C44.4052 57.7164 46.2736 56.6188 48.3329 56.1263C50.3921 55.6339 52.5498 55.7687 54.5331 56.5138C56.5165 57.2589 58.2365 58.5808 59.4757 60.3125C60.715 62.0441 61.4179 64.1078 61.4956 66.2425C61.5732 68.3773 61.0222 70.4874 59.9121 72.3062C58.802 74.1249 57.1827 75.5706 55.2588 76.4606Z" fill="#DAE2ED"/>
        <path fill-rule="evenodd" clip-rule="evenodd" d="M55.4426 60.2782L58.7958 66.1669C58.9065 66.3396 58.9654 66.5408 58.9654 66.7465C58.9654 66.9522 58.9065 67.1535 58.7958 67.3261L55.4426 73.2148C55.3398 73.3946 55.1927 73.5446 55.0157 73.6502C54.8387 73.7558 54.6376 73.8135 54.432 73.8176H47.6337C47.4281 73.8135 47.2271 73.7558 47.05 73.6502C46.873 73.5446 46.726 73.3946 46.6232 73.2148L43.27 67.3261C43.1593 67.1535 43.1003 66.9522 43.1003 66.7465C43.1003 66.5408 43.1593 66.3396 43.27 66.1669L46.6232 60.2782C46.726 60.0984 46.873 59.9484 47.05 59.8428C47.2271 59.7372 47.4281 59.6796 47.6337 59.6754H54.432C54.6376 59.6796 54.8387 59.7372 55.0157 59.8428C55.1927 59.9484 55.3398 60.0984 55.4426 60.2782Z" fill="#C5CEDD"/>
        <path d="M50.8032 70.3863C52.8581 70.3863 54.5239 68.7048 54.5239 66.6305C54.5239 64.5563 52.8581 62.8748 50.8032 62.8748C48.7483 62.8748 47.0825 64.5563 47.0825 66.6305C47.0825 68.7048 48.7483 70.3863 50.8032 70.3863Z" fill="white"/>
        <path d="M8.03848 42.2874C5.14463 41.5455 4.40968 43.9103 0 44.1421C4.13408 46.6924 4.91496 45.1622 9.14091 47.8979L8.03848 42.2874Z" fill="#FF903E"/>
        <path d="M50.8032 90H30.2246C29.0022 89.9878 27.8339 89.489 26.9738 88.612C26.1136 87.7351 25.6312 86.5509 25.6312 85.3168C25.6312 84.0871 26.1152 82.9077 26.9766 82.0381C27.838 81.1686 29.0064 80.68 30.2246 80.68H32.8429C34.0344 80.6715 35.2158 80.9006 36.3194 81.3541C37.423 81.8077 38.4269 82.4768 39.2737 83.323L40.3761 84.4822C41.8356 85.9292 43.7966 86.7443 45.8423 86.7542H47.5878C48.4405 86.7542 49.2584 87.0962 49.8614 87.7049C50.4644 88.3136 50.8032 89.1392 50.8032 90Z" fill="#EBEFF7"/>
        <path d="M23.1509 80.6801H17.455C16.7193 80.6801 16.1229 81.2821 16.1229 82.0247V82.0665C16.1229 82.8091 16.7193 83.4111 17.455 83.4111H23.1509C23.8866 83.4111 24.483 82.8091 24.483 82.0665V82.0247C24.483 81.2821 23.8866 80.6801 23.1509 80.6801Z" fill="#EBEFF7"/>
        <path d="M29.3979 87.4961H24.8964C24.2114 87.4961 23.6561 88.0525 23.6561 88.7388C23.6561 89.4251 24.2114 89.9814 24.8964 89.9814H29.3979C30.0829 89.9814 30.6381 89.4251 30.6381 88.7388C30.6381 88.0525 30.0829 87.4961 29.3979 87.4961Z" fill="#EBEFF7"/>
    </g>
    <defs>
        <clipPath id="clip0_272_816">
            <rect width="74" height="90" fill="white"/>
        </clipPath>
    </defs>
</svg>
