<svg width="178" height="112" viewBox="0 0 178 112" fill="none" xmlns="http://www.w3.org/2000/svg">
<path d="M111.954 25.8438L108.417 27.1793L111.124 37.9355L115.527 36.5639L111.954 25.8438Z" fill="#E0E8FF"/>
<path d="M109.536 80.8881C112.46 65.9449 122.855 53.5284 132.745 53.4923C142.635 53.4562 147.905 65.8367 144.548 80.816C141.191 95.7952 131.012 107.021 121.556 107.021C112.099 107.021 106.721 95.4704 109.536 80.8881Z" fill="#8A91FF"/>
<path d="M100.476 80.9956C103.905 63.4536 116.105 48.9074 127.692 48.8352C139.278 48.763 145.523 63.3453 141.588 80.9234C137.654 98.5015 125.707 111.676 114.589 111.676C103.472 111.676 97.1557 98.1045 100.476 80.9956Z" fill="#424D80"/>
<path d="M129.027 70.9967L128.883 70.1305C133.9 67.6038 138.701 66.4849 142.563 66.8819L142.671 68.0009C138.917 67.4234 134.08 68.434 129.027 70.9967Z" fill="#232145"/>
<path d="M113.759 105.72C116.106 108.571 120.148 109.437 124.66 108.246C123.874 108.781 123.054 109.263 122.206 109.69C121.595 109.773 120.981 109.821 120.365 109.835C117.188 109.835 114.481 108.716 112.713 106.55L113.759 105.72Z" fill="#232145"/>
<path d="M127.403 60.3494L126.97 59.6276C132.059 56.0903 136.355 55.5489 139.387 56.0903C139.639 56.5234 139.892 56.9926 140.108 57.4619C137.365 56.5234 132.853 56.4873 127.403 60.3494Z" fill="#232145"/>
<path d="M120.545 55.9451L119.823 55.4758C123.108 52.2273 126.681 50.1338 130.146 49.4119L131.012 49.2676C131.904 49.4847 132.765 49.8121 133.575 50.2421C132.334 50.1053 131.079 50.1662 129.857 50.4226C126.681 51.0723 123.541 52.9492 120.545 55.9451Z" fill="#232145"/>
<path d="M129.28 98.429C126.709 98.4297 124.166 97.9014 121.808 96.8769L122.639 95.9023C126.665 97.6065 131.164 97.8366 135.344 96.5521L134.622 97.7071C132.879 98.1738 131.084 98.4164 129.28 98.429Z" fill="#232145"/>
<path d="M140.975 83.3402C139.675 83.4123 138.267 83.4845 136.896 83.4845C134.15 83.5009 131.408 83.2713 128.702 82.7987L129.388 81.7881C132.565 82.4017 137.221 82.5461 141.263 82.2934C141.155 82.6183 141.083 82.9792 140.975 83.3402Z" fill="#232145"/>
<path d="M97.4445 80.9234C100.657 65.0417 111.594 51.8311 121.772 51.795C131.951 51.7589 137.149 64.9335 133.431 80.8512C129.713 96.769 119.065 108.752 109.32 108.752C99.5741 108.752 94.2682 96.4441 97.4445 80.9234Z" fill="#67729E"/>
<path d="M103.328 80.8503C104.664 74.0645 109.717 68.2893 114.518 68.1088C119.318 67.9283 121.953 73.4148 120.401 80.2367C118.849 87.0585 113.904 92.2923 109.284 92.4367C104.664 92.581 101.993 87.4556 103.328 80.8503Z" fill="#424D80"/>
<path d="M104.591 80.9597C105.493 75.7621 109.175 71.4668 112.748 71.4668C116.322 71.4668 118.343 75.726 117.26 80.9236C116.177 86.1212 112.568 89.9834 109.139 89.9834C105.71 89.9834 103.689 86.013 104.591 80.9597Z" fill="black"/>
<path d="M105.313 81.4288C105.927 77.9276 108.417 75.0039 110.872 75.0039C113.326 75.0039 114.662 77.8915 113.904 81.4288C113.146 84.966 110.727 87.6009 108.417 87.6009C106.107 87.6009 104.663 84.8938 105.313 81.4288Z" fill="#FDE55C"/>
<path d="M114.588 28.8754C123.287 34.831 120.652 39.9564 112.928 50.0629L105.637 44.8292C104.843 30.9688 105.89 22.9197 114.588 28.8754Z" fill="#E0E8FF"/>
<path d="M117.765 27.6845C126.464 33.6762 123.829 38.7656 116.104 48.8721L108.813 43.6745C107.983 29.778 109.03 21.7289 117.765 27.6845Z" fill="white"/>
<path d="M57.4146 96.6258C47.5607 96.6258 37.8874 88.7211 36.227 79.0477C32.7258 58.6542 48.1022 40.2098 80.5152 39.0548C95.6028 38.5134 116.429 41.7258 142.201 63.9601C149.673 70.385 151.694 75.6548 148.373 84.2453C145.053 92.8359 142.815 96.6258 134.693 96.6258H57.4146Z" fill="#E0E8FF"/>
<path d="M54.9244 44.8651C57.0192 44.394 59.1704 44.2238 61.3132 44.3598C69.6872 45.0095 74.957 51.3261 80.299 60.6385C87.6984 73.5965 94.015 75.9066 108.164 75.9066H144.042C144.764 75.9066 146.064 75.8344 146.424 75.1486C146.785 74.4628 146.605 73.1634 145.233 70.9255C145.063 70.6428 145.007 70.306 145.076 69.9833C145.145 69.6606 145.334 69.3763 145.605 69.188C145.876 68.9997 146.208 68.9216 146.535 68.9694C146.861 69.0172 147.157 69.1875 147.363 69.4456L147.543 69.6622C149.204 72.4415 149.637 74.7876 148.698 76.4119C148.157 77.3864 146.93 78.5415 144.042 78.5415H108.164C93.8706 78.5415 86.1103 76.1231 78.025 61.9379C72.9718 53.1308 68.3878 47.5361 61.0966 46.9586C54.6357 46.4533 46.9836 50.0628 43.9517 52.806C47.1114 49.5316 50.8265 46.8431 54.9244 44.8651Z" fill="black"/>
<path d="M80.5152 39.0548C95.6027 38.5134 116.429 41.7258 142.201 63.9601C144.728 66.1258 146.641 68.1832 147.904 70.2767C150.286 74.1027 148.59 77.243 144.042 77.243H108.164C93.798 77.243 86.8678 74.7886 79.1436 61.2891C74.0542 52.4098 69.1453 46.2738 61.2045 45.6601C54.0577 45.1187 47.7773 49.0891 44.7092 52.0128C52.1808 44.6134 64.1643 39.6323 80.5152 39.0548Z" fill="#232145"/>
<path d="M137.003 86.0851C137.534 86.0806 138.057 86.2075 138.526 86.4545C138.996 86.7015 139.397 87.0608 139.693 87.5005C139.99 87.9401 140.173 88.4464 140.227 88.9741C140.28 89.5018 140.202 90.0346 139.999 90.5247C138.592 94.1342 137.292 95.9028 134.693 96.6247H127.366C130.543 95.7584 131.878 93.4123 134.008 88.1064C134.258 87.5161 134.675 87.0112 135.206 86.6525C135.738 86.2938 136.362 86.0967 137.003 86.0851Z" fill="#7B88BD"/>
<path d="M104.699 86.085C105.226 86.0892 105.744 86.2218 106.209 86.4712C106.673 86.7205 107.07 87.0792 107.365 87.5163C107.66 87.9533 107.844 88.4556 107.901 88.9797C107.959 89.5039 107.888 90.0341 107.694 90.5246C106.251 94.1341 104.987 95.9027 102.388 96.6246H95.0251C98.2376 95.7583 99.537 93.4122 101.703 88.1063C101.946 87.5105 102.36 87.0004 102.894 86.6405C103.427 86.2807 104.055 86.0873 104.699 86.085Z" fill="#7B88BD"/>
<path d="M39.8364 58.2931L40.4861 57.2463C42.4876 57.1707 44.4878 57.4269 46.4057 58.0043C52.4335 59.8812 57.2341 64.8984 60.6631 72.9475C66.6548 87.0244 71.4915 92.8718 78.5299 96.6256H76.4003C70.0116 92.7635 65.3193 86.6274 59.6885 73.3446C54.0577 60.0617 46.2613 57.8599 39.8364 58.2931Z" fill="#A4B4EB"/>
<path d="M97.9128 95.0015C99.3205 93.6299 100.331 91.4643 101.703 88.1074C101.834 87.7798 102.017 87.4752 102.244 87.2051C103.905 87.566 104.771 89.2625 104.266 91.356C103.76 93.4495 101.595 95.5069 99.5732 95.5069C98.9803 95.5175 98.3993 95.3406 97.9128 95.0015Z" fill="black"/>
<path d="M108.814 101.354C108.149 101.356 107.496 101.188 106.914 100.866C106.333 100.543 105.844 100.078 105.493 99.5135C103.075 95.5431 101.812 95.11 97.9134 95.11C96.8891 95.11 95.9068 94.7031 95.1825 93.9788C94.4582 93.2545 94.0513 92.2722 94.0513 91.2479C94.0513 90.2236 94.4582 89.2412 95.1825 88.5169C95.9068 87.7926 96.8891 87.3857 97.9134 87.3857C103.905 87.3857 107.948 88.6852 112.099 95.471C112.362 95.9047 112.537 96.3859 112.614 96.8873C112.691 97.3887 112.669 97.9004 112.548 98.3931C112.427 98.8858 112.211 99.3499 111.911 99.7589C111.611 100.168 111.233 100.514 110.799 100.777C110.208 101.159 109.518 101.36 108.814 101.354Z" fill="#A7B8F0"/>
<path d="M105.493 99.5135C105.204 99.0082 104.879 98.539 104.626 98.142L110.871 93.6662C111.268 94.2076 111.665 94.8213 112.098 95.471L105.493 99.5135ZM99.862 95.1822C99.2144 95.1178 98.5634 95.0938 97.9128 95.11V87.3857C98.9235 87.3857 99.7898 87.4218 100.584 87.494L99.862 95.1822Z" fill="#94A5E3"/>
<path d="M130.218 95.0006C131.625 93.629 132.636 91.4633 134.008 88.1065C134.145 87.7928 134.327 87.501 134.549 87.2402C136.173 87.5651 137.076 89.2976 136.57 91.355C136.065 93.4124 133.899 95.5059 131.878 95.5059C131.285 95.5165 130.704 95.3397 130.218 95.0006Z" fill="black"/>
<path d="M76.7615 39.2708C86.6875 38.4045 94.9171 41.4726 103.363 49.6661C104.879 51.1459 106.576 52.8063 110.366 52.4814C112.567 52.2649 111.918 50.8572 110.51 49.7021C97.5159 39.0903 87.8786 38.1519 76.7615 39.2708Z" fill="#5765F0"/>
<path d="M139.71 73.0922C139.515 73.0924 139.328 73.0175 139.187 72.883C139.045 72.7486 138.962 72.565 138.952 72.3703C138.942 72.2706 138.952 72.17 138.981 72.0742C139.01 71.9785 139.058 71.8894 139.122 71.8122C139.186 71.735 139.264 71.6712 139.353 71.6245C139.441 71.5778 139.538 71.5491 139.638 71.5401L151.982 70.6377C152.166 70.6561 152.337 70.7376 152.467 70.8684C152.596 70.9991 152.677 71.1709 152.694 71.3543C152.711 71.5377 152.664 71.7213 152.56 71.8738C152.457 72.0262 152.304 72.1379 152.127 72.1898L139.746 73.0922H139.71Z" fill="#7C8CC2"/>
<path d="M140.324 69.0128C140.166 69.0143 140.012 68.9664 139.882 68.8758C139.753 68.7852 139.655 68.6565 139.602 68.5075C139.531 68.3207 139.537 68.1136 139.618 67.9312C139.699 67.7487 139.849 67.6056 140.035 67.5329L150.214 63.6347C150.309 63.6006 150.409 63.5857 150.51 63.5908C150.61 63.596 150.709 63.6212 150.8 63.6649C150.89 63.7086 150.972 63.7699 151.038 63.8453C151.105 63.9207 151.156 64.0086 151.189 64.1039C151.229 64.1959 151.249 64.2952 151.249 64.3955C151.249 64.4959 151.228 64.5951 151.187 64.6868C151.146 64.7785 151.087 64.8607 151.012 64.9281C150.938 64.9956 150.851 65.0468 150.755 65.0785L140.613 68.9406L140.324 69.0128Z" fill="#7C8CC2"/>
<path d="M105.854 73.0918H105.745L94.9529 71.9007C94.7485 71.8736 94.5627 71.7681 94.4347 71.6064C94.3067 71.4447 94.2466 71.2396 94.2671 71.0344C94.2804 70.9345 94.3134 70.8381 94.3644 70.7511C94.4153 70.6641 94.4831 70.5881 94.5638 70.5276C94.6444 70.4671 94.7364 70.4233 94.8342 70.3987C94.932 70.3742 95.0337 70.3694 95.1334 70.3847L105.926 71.5397C106.102 71.5857 106.257 71.6907 106.365 71.8374C106.473 71.984 106.527 72.1632 106.519 72.345C106.51 72.5269 106.439 72.7003 106.318 72.8363C106.197 72.9722 106.033 73.0625 105.854 73.0918Z" fill="#7C8CC2"/>
<path d="M105.421 69.0124C105.293 69.0107 105.168 68.9732 105.06 68.9041L95.4586 63.4177C95.37 63.3689 95.292 63.3029 95.2293 63.2234C95.1665 63.144 95.1204 63.0528 95.0934 62.9552C95.0665 62.8577 95.0594 62.7557 95.0726 62.6554C95.0857 62.555 95.1188 62.4583 95.1699 62.371C95.2187 62.2823 95.2847 62.2043 95.3642 62.1416C95.4436 62.0789 95.5348 62.0327 95.6323 62.0058C95.7299 61.9789 95.8319 61.9718 95.9322 61.9849C96.0326 61.998 96.1293 62.0311 96.2166 62.0822L105.818 67.5686C105.982 67.6431 106.115 67.7738 106.191 67.9372C106.268 68.1006 106.284 68.286 106.236 68.4601C106.188 68.6342 106.08 68.7854 105.93 68.8867C105.781 68.9879 105.6 69.0325 105.421 69.0124Z" fill="#7C8CC2"/>
<path d="M49.9071 72.0447C51.0982 77.7115 55.8266 82.1151 60.6994 82.1151C65.5722 82.1151 69.2178 77.4589 68.3515 71.4311C67.4852 65.4033 62.2154 60.2056 56.8734 60.5666C51.5314 60.9275 48.6799 66.1612 49.9071 72.0447Z" fill="#7F88FD"/>
<path d="M52.3979 71.7558C53.1198 75.2209 56.0435 77.9641 59.0393 77.9641C62.0352 77.9641 64.237 75.0766 63.6955 71.3949C63.1541 67.7132 59.9417 64.5008 56.6571 64.7174C53.3725 64.934 51.6399 68.1464 52.3979 71.7558Z" fill="black"/>
<path d="M54.1303 71.5028C54.5995 73.8129 56.5487 75.6537 58.57 75.6537C60.5913 75.6537 62.0711 73.7046 61.7102 71.2501C61.3492 68.7957 59.1836 66.63 56.9818 66.7744C54.78 66.9188 53.625 69.0845 54.1303 71.5028Z" fill="#FDE55C"/>
<path d="M55.4305 68.4353C55.6347 68.5717 55.8803 68.632 56.1245 68.6056C56.3686 68.5792 56.5957 68.4678 56.766 68.2909C56.9693 68.0932 57.087 67.8237 57.0937 67.5403C57.1005 67.2568 56.9958 66.982 56.8021 66.7749L48.5725 58.3288C48.3715 58.1229 48.0969 58.0054 47.8092 58.002C47.5216 57.9986 47.2443 58.1097 47.0385 58.3107C46.8327 58.5117 46.7151 58.7863 46.7117 59.074C46.7084 59.3617 46.8194 59.6389 47.0204 59.8447L55.25 68.2909L55.4305 68.4353Z" fill="#424D80"/>
<path d="M46.8031 61.3603C46.3546 61.2977 45.9439 61.075 45.6467 60.7334C45.3495 60.3918 45.1858 59.9543 45.1858 59.5015C45.1858 59.0487 45.3495 58.6111 45.6467 58.2695C45.9439 57.9279 46.3546 57.7052 46.8031 57.6426H48.3912V61.3603H46.8031Z" fill="#424D80"/>
<path d="M24.3885 62.154L24.569 62.2623C33.9175 66.1966 42.1471 65.5469 47.7418 60.4214C47.9105 60.2208 48.0008 59.9657 47.9957 59.7036C47.9906 59.4414 47.8907 59.1901 47.7143 58.9961C47.5379 58.8021 47.2972 58.6786 47.0367 58.6487C46.7763 58.6187 46.5138 58.6843 46.298 58.8333C41.353 63.3451 33.9536 63.8504 25.3992 60.277C25.2694 60.2184 25.129 60.1869 24.9865 60.1844C24.8441 60.1819 24.7027 60.2085 24.5709 60.2625C24.4391 60.3166 24.3198 60.397 24.2201 60.4988C24.1205 60.6006 24.0427 60.7216 23.9915 60.8546C23.8994 61.0839 23.8886 61.3379 23.9608 61.5743C24.0331 61.8107 24.184 62.0152 24.3885 62.154Z" fill="#A4B4EB"/>
<path d="M48.3913 61.3603C49.4279 61.3603 50.2682 60.52 50.2682 59.4834C50.2682 58.4468 49.4279 57.6064 48.3913 57.6064C47.3547 57.6064 46.5144 58.4468 46.5144 59.4834C46.5144 60.52 47.3547 61.3603 48.3913 61.3603Z" fill="#424D80"/>
<path d="M48.6081 60.6386C49.1463 60.6386 49.5827 60.2022 49.5827 59.664C49.5827 59.1258 49.1463 58.6895 48.6081 58.6895C48.0699 58.6895 47.6335 59.1258 47.6335 59.664C47.6335 60.2022 48.0699 60.6386 48.6081 60.6386Z" fill="#232145"/>
<path d="M21.4648 77.6382C21.4789 78.4046 21.6927 79.154 22.0852 79.8124C22.4777 80.4707 23.0352 81.0153 23.7027 81.3921C24.4645 81.7615 25.3178 81.8995 26.1571 81.7891L57.9927 77.3134H58.0288C59.3643 77.169 60.6637 76.0501 61.3495 74.2453C62.324 71.6465 61.4938 68.7589 59.5447 67.9288C59.0994 67.7462 58.614 67.6839 58.137 67.7483H57.9927L25.8323 72.224C23.3418 72.585 21.3926 75.0033 21.4648 77.6382Z" fill="#FDE55C"/>
<path d="M49.7991 68.9034L53.8056 68.362H53.95C54.4269 68.2976 54.9124 68.3599 55.3577 68.5425L55.5742 68.6508C57.379 69.5892 58.1009 72.3685 57.1624 74.859C56.4766 76.6638 55.1772 77.7827 53.8417 77.9632H53.8056L49.8352 78.5046C50.2446 78.9373 50.7196 79.3027 51.2429 79.5875C51.8822 79.9224 52.5922 80.1004 53.314 80.1067C54.0357 80.113 54.7486 79.9474 55.3937 79.6235C56.2397 79.2044 56.9943 78.6217 57.6138 77.9093C58.2334 77.1968 58.7056 76.3687 59.0032 75.4727C60.3387 71.9354 59.2559 68.0733 56.5849 66.7017L56.26 66.5573C55.5925 66.283 54.8707 66.1663 54.1508 66.2164C53.4309 66.2665 52.7322 66.4819 52.1091 66.846C51.1822 67.3322 50.3889 68.0387 49.7991 68.9034Z" fill="#424D80"/>
<path d="M45.7566 69.4804L48.7163 69.0833H48.8607C49.3377 69.019 49.8232 69.0812 50.2684 69.2638L50.485 69.336C52.2897 70.2745 53.0116 73.0538 52.0732 75.5804C51.3874 77.3851 50.0879 78.5041 48.7524 78.6484H48.7163L45.7927 79.0816C46.3788 79.5804 47.0994 79.8946 47.8638 79.9845C48.6282 80.0744 49.4021 79.9361 50.088 79.5869C51.4596 78.9733 52.6146 77.6378 53.2282 75.9774C54.4193 72.8011 53.4809 69.3721 51.0986 68.1449L50.8459 68.0005C50.2753 67.7736 49.6609 67.6785 49.0484 67.7223C48.4359 67.766 47.8412 67.9475 47.3087 68.2532C46.7237 68.5687 46.1985 68.984 45.7566 69.4804Z" fill="#424D80"/>
<path d="M40.7754 70.1667L43.7352 69.7697H43.8795C44.3565 69.7018 44.8429 69.7641 45.2872 69.9501L45.5038 70.0584C47.3085 70.9608 48.0304 73.7401 47.092 76.2667C46.4062 78.0715 45.1068 79.1904 43.7713 79.3348H43.7352L40.8115 79.7679C41.3982 80.2641 42.1164 80.5794 42.8788 80.6755C43.6413 80.7716 44.4152 80.6444 45.1068 80.3093C46.5838 79.5438 47.7087 78.2379 48.247 76.6638C49.4381 73.4874 48.4997 70.0584 46.1174 68.8312L45.8647 68.7229C45.2986 68.4826 44.6845 68.3771 44.0706 68.4146C43.4568 68.4522 42.86 68.6319 42.3275 68.9395C41.7502 69.2665 41.2267 69.6804 40.7754 70.1667Z" fill="#424D80"/>
<path d="M35.7949 70.8529L38.7547 70.4558H38.8991C39.376 70.3879 39.8624 70.4503 40.3068 70.6363L40.5233 70.7446C42.3281 71.683 43.05 74.4623 42.1115 76.9528C41.4257 78.7576 40.1263 79.8765 38.7908 80.057L35.831 80.454C36.0542 80.663 36.3103 80.8338 36.589 80.9594C37.1349 81.2411 37.7391 81.3911 38.3534 81.3974C38.9676 81.4036 39.5748 81.266 40.1263 80.9955C41.6105 80.239 42.7383 78.9298 43.2665 77.3499C44.4577 74.1736 43.5192 70.7446 41.173 69.5174L40.8843 69.4091C40.3164 69.1768 39.7033 69.0756 39.0909 69.1131C38.4784 69.1506 37.8823 69.3258 37.347 69.6256C36.7697 69.9526 36.2462 70.3665 35.7949 70.8529Z" fill="#424D80"/>
<path d="M69.1457 48.3311C71.2753 46.9234 71.6002 47.934 68.4599 37.7914C65.3197 27.6488 60.4469 23.9672 52.3256 30.0672C44.7457 35.8062 43.4102 41.9784 54.3469 50.2441C60.3386 54.7559 61.3493 57.2465 63.551 54.6838C65.7528 52.121 67.6297 49.3056 69.1457 48.3311Z" fill="#B9C7F7"/>
<path d="M71.6721 48.0063C73.8017 46.5986 74.1987 45.7323 71.0585 35.5536C67.9183 25.3749 62.9372 22.6317 55.0325 27.9376C47.1277 33.2435 46.0449 39.7406 56.9816 48.0063C62.9733 52.5181 63.4064 55.0808 65.6082 52.5181C67.81 49.9554 70.1561 48.9808 71.6721 48.0063Z" fill="white"/>
<path d="M13.4514 78.9752C11.4301 63.0936 18.2881 49.919 28.7556 49.8829C39.223 49.8468 49.0769 62.9853 50.5929 78.903C52.1088 94.8208 45.1426 106.732 35.0722 106.732C25.0017 106.732 15.3645 94.4598 13.4514 78.9752Z" fill="#6F7CAB"/>
<path d="M3.85027 79.0843C1.50412 60.4594 9.55323 44.9748 21.8615 44.9026C34.1698 44.8304 45.684 60.315 47.4887 79.0121C49.2935 97.7091 41.0639 111.678 29.2609 111.678C17.458 111.678 6.12424 97.276 3.85027 79.0843Z" fill="#424D80"/>
<path d="M30.7769 68.4728L30.3076 67.5344C34.7834 64.8273 39.5479 63.6362 43.7709 64.0693C43.9514 64.4663 44.0958 64.8634 44.2402 65.2604C40.0532 64.6468 35.2887 65.7296 30.7769 68.4728Z" fill="#232145"/>
<path d="M26.3373 105.361C28.0089 106.826 30.0265 107.84 32.1992 108.307C34.3719 108.774 36.6279 108.68 38.7538 108.032C38.0957 108.601 37.3959 109.12 36.6603 109.584L34.7473 109.693C31.347 109.707 28.0595 108.474 25.5071 106.228L26.3373 105.361Z" fill="#232145"/>
<path d="M25.4351 57.1396L24.7493 56.3816C28.9002 52.5917 33.3398 52.0503 36.7327 52.6278C37.1297 53.097 37.5629 53.5663 37.9599 54.0716C34.7114 53.097 29.9108 53.0609 25.4351 57.1396Z" fill="#232145"/>
<path d="M16.6277 52.4818L15.7253 51.9764C18.1076 48.5113 21.1756 46.2735 24.6046 45.5155L25.507 45.3711C26.5551 45.6002 27.5727 45.9516 28.539 46.4178C27.2506 46.2606 25.9449 46.3216 24.6768 46.5983C21.5366 47.2841 18.8295 49.2693 16.6277 52.4818Z" fill="#232145"/>
<path d="M40.3419 97.6016C37.4472 97.584 34.5818 97.0207 31.8958 95.9413L32.4372 94.8945C37.8875 96.988 42.652 96.7715 46.1532 95.6164C46.0449 96.0135 45.9005 96.4466 45.7561 96.8437C43.9967 97.3528 42.1735 97.608 40.3419 97.6016Z" fill="#232145"/>
<path d="M47.6691 81.5383C46.2975 81.6466 44.8537 81.7188 43.3738 81.7188C40.3749 81.7338 37.3801 81.4923 34.4224 80.9969L34.8194 79.9141C38.3928 80.5638 43.4099 80.7442 47.5969 80.4555C47.633 80.8164 47.633 81.1774 47.6691 81.5383Z" fill="#232145"/>
<path d="M0.565465 79.0123C-1.38365 62.12 5.7631 48.0791 16.5193 48.043C27.2755 48.0069 37.3459 62.0117 38.8258 78.9401C40.3057 95.8685 33.0146 108.574 22.6554 108.574C12.2962 108.574 2.47848 95.5075 0.565465 79.0123Z" fill="#8A91FF"/>
<path d="M6.30453 78.9038C5.69092 71.6849 9.30039 65.5488 14.3897 65.3683C19.4791 65.1879 23.8826 71.0352 24.2436 78.2902C24.6045 85.5453 20.959 91.0677 16.1223 91.2482C11.2856 91.4287 6.88205 85.9423 6.30453 78.9038Z" fill="white"/>
<path d="M8.00084 77.0991C7.89256 72.6956 10.1304 69.2305 13.018 69.2305C15.9056 69.2305 18.4683 72.6956 18.721 77.063C18.9736 81.4305 16.6997 85.2926 13.7038 85.2926C10.7079 85.2926 8.14522 81.5748 8.00084 77.0991Z" fill="#55F085"/>
<path d="M7.13452 80.7443L8.75878 82.4047L19.3345 72.4064L17.7464 70.7461L7.13452 80.7443Z" fill="white"/>
<path d="M127.728 95.1102C126.704 95.1293 125.714 94.7408 124.976 94.03C124.238 93.3193 123.813 92.3445 123.794 91.3202C123.774 90.2959 124.163 89.306 124.874 88.5681C125.585 87.8303 126.559 87.4051 127.584 87.3859C138.051 86.9167 148.41 85.509 153.175 78.5427C157.29 72.551 157.037 62.661 152.489 49.1616C152.264 48.2238 152.399 47.2358 152.866 46.3921C153.333 45.5484 154.099 44.9099 155.013 44.6022C155.927 44.2945 156.923 44.3399 157.805 44.7295C158.687 45.119 159.392 45.8245 159.78 46.7072C165.23 62.8415 165.158 74.6806 159.563 82.8741C151.948 94.0273 136.319 94.7131 127.908 95.0741L127.728 95.1102Z" fill="#B1C0F2"/>
<path d="M127.908 95.0734L127.583 87.3853L129.821 87.277L130.255 94.9652L127.908 95.0734ZM139.82 93.9184L138.448 86.3385C139.17 86.1941 139.856 86.0859 140.541 85.9054L142.238 93.4492L139.82 93.9184ZM151.839 89.8758L148.049 83.1622C148.591 82.8373 149.132 82.5125 149.637 82.1515L154.113 88.3959C153.389 88.9388 152.629 89.4332 151.839 89.8758ZM161.188 80.0581L154.257 76.7013C154.523 76.1515 154.752 75.5847 154.943 75.0048L162.234 77.5314C161.945 78.397 161.595 79.2413 161.188 80.0581ZM156.098 67.2805C156.098 66.6308 156.062 65.945 156.026 65.2231L163.714 64.7178C163.75 65.5841 163.786 66.4143 163.786 67.2444L156.098 67.2805ZM154.691 56.8131C154.546 56.1273 154.366 55.4415 154.149 54.7196L161.621 52.7344C161.837 53.5285 162.018 54.2865 162.198 55.0444L154.691 56.8131Z" fill="#94A5E3"/>
<path d="M95.0258 96.6257C98.2382 95.7594 99.5376 93.4133 101.703 88.1074C101.946 87.5116 102.361 87.0015 102.894 86.6417C103.428 86.2818 104.056 86.0884 104.699 86.0861V84.3535H89.395L95.0258 96.6257Z" fill="#E0E8FF"/>
<path d="M127.367 96.6257C130.543 95.7594 131.878 93.4133 134.008 88.1074C134.336 87.3165 134.957 86.6829 135.741 86.3387C136.126 86.1725 136.452 85.8944 136.678 85.5404C136.903 85.1864 137.017 84.7729 137.004 84.3535H126.789L118.957 93.3411V96.6257H127.367Z" fill="#E0E8FF"/>
<path d="M108.019 105.253C107.86 105.251 107.703 105.215 107.56 105.147C107.417 105.078 107.29 104.979 107.189 104.856C107.032 104.64 106.967 104.371 107.007 104.107C107.048 103.843 107.191 103.606 107.406 103.448C108.741 102.473 108.958 102.112 109.138 99.5858C109.166 99.321 109.293 99.0765 109.494 98.9022C109.695 98.7279 109.955 98.6367 110.221 98.6473C110.354 98.6565 110.484 98.6918 110.603 98.7512C110.722 98.8106 110.828 98.8931 110.915 98.9937C111.003 99.0943 111.069 99.2112 111.111 99.3375C111.153 99.4639 111.169 99.5974 111.16 99.7302C110.943 102.546 110.582 103.592 108.597 105.072C108.423 105.181 108.224 105.243 108.019 105.253Z" fill="black"/>
<path d="M111.051 106.046C110.9 106.044 110.752 106.007 110.618 105.938C110.374 105.828 110.184 105.625 110.089 105.375C109.994 105.124 110.003 104.847 110.113 104.603C110.835 103.05 110.618 101.679 109.391 100.307C109.303 100.209 109.235 100.094 109.192 99.9692C109.15 99.8442 109.133 99.7119 109.143 99.5802C109.153 99.4486 109.19 99.3203 109.251 99.2033C109.313 99.0863 109.397 98.983 109.499 98.8996C109.697 98.7259 109.955 98.6363 110.218 98.6498C110.481 98.6632 110.728 98.7788 110.907 98.9718C112.603 100.957 112.964 103.195 111.954 105.433C111.878 105.611 111.752 105.763 111.592 105.872C111.432 105.981 111.245 106.041 111.051 106.046Z" fill="black"/>
<path d="M113.903 104.999C113.655 104.993 113.417 104.899 113.232 104.733C113.047 104.568 112.927 104.342 112.893 104.097C112.712 102.508 111.702 101.353 109.752 100.559C109.614 100.52 109.486 100.451 109.377 100.358C109.268 100.265 109.179 100.15 109.118 100.02C109.056 99.8904 109.023 99.749 109.021 99.6054C109.018 99.4618 109.046 99.3194 109.103 99.1875C109.16 99.0556 109.244 98.9374 109.351 98.8407C109.457 98.744 109.582 98.671 109.719 98.6266C109.855 98.5822 110 98.5675 110.143 98.5833C110.285 98.5991 110.423 98.6452 110.547 98.7184C113.145 99.8013 114.625 101.534 114.878 103.88C114.909 104.143 114.835 104.407 114.673 104.616C114.511 104.826 114.274 104.963 114.012 104.999H113.903Z" fill="black"/>
<path d="M31.4986 12.6693C30.2513 11.869 29.1902 10.8105 28.387 9.56516C27.5837 8.31981 27.057 6.91662 26.8424 5.45032L26.0844 0.433145C26.0669 0.31199 26.0061 0.201298 25.9131 0.121635C25.8202 0.0419716 25.7015 -0.00122801 25.5791 2.65777e-05C25.4567 -0.00122801 25.338 0.0419716 25.2451 0.121635C25.1521 0.201298 25.0913 0.31199 25.0738 0.433145L24.3158 5.45032C24.1012 6.91662 23.5745 8.31981 22.7712 9.56516C21.968 10.8105 20.9069 11.869 19.6596 12.6693L19.0099 13.1024C18.9432 13.145 18.8885 13.2037 18.8506 13.2731C18.8127 13.3425 18.793 13.4204 18.7933 13.4994C18.7902 13.584 18.8085 13.668 18.8463 13.7436C18.8842 13.8193 18.9404 13.8843 19.0099 13.9326L19.6596 14.3657C20.9059 15.1585 21.9668 16.2104 22.7703 17.4498C23.5737 18.6893 24.1009 20.0872 24.3158 21.5485L25.0738 26.6018C25.0913 26.7229 25.1521 26.8336 25.2451 26.9133C25.338 26.993 25.4567 27.0362 25.5791 27.0349C25.7015 27.0362 25.8202 26.993 25.9131 26.9133C26.0061 26.8336 26.0669 26.7229 26.0844 26.6018L26.8424 21.5485C27.0573 20.0872 27.5845 18.6893 28.3879 17.4498C29.1914 16.2104 30.2523 15.1585 31.4986 14.3657L32.1483 13.9326C32.2178 13.8843 32.274 13.8193 32.3119 13.7436C32.3497 13.668 32.368 13.584 32.3649 13.4994C32.3652 13.4204 32.3455 13.3425 32.3076 13.2731C32.2697 13.2037 32.215 13.145 32.1483 13.1024L31.4986 12.6693Z" fill="#FDF0A4"/>
<path d="M42.9046 29.8497C42.458 29.5605 42.0787 29.1789 41.7922 28.7305C41.5058 28.2822 41.3189 27.7776 41.2442 27.2509L40.9555 25.41C40.9555 25.3378 40.8472 25.2657 40.775 25.2657C40.7328 25.2648 40.6916 25.2788 40.6586 25.3052C40.6256 25.3315 40.603 25.3686 40.5945 25.41L40.3058 27.2509C40.2311 27.7776 40.0442 28.2822 39.7578 28.7305C39.4713 29.1789 39.092 29.5605 38.6454 29.8497L38.3928 29.9941C38.3486 30.0441 38.323 30.1078 38.3206 30.1745C38.3206 30.2025 38.3271 30.2302 38.3396 30.2552C38.3521 30.2803 38.3703 30.3021 38.3928 30.3189L38.6454 30.4633C39.093 30.7598 39.4725 31.1481 39.7587 31.6023C40.045 32.0566 40.2314 32.5664 40.3058 33.0982L40.5945 34.9029C40.5945 34.9508 40.6135 34.9967 40.6474 35.0305C40.6812 35.0644 40.7271 35.0834 40.775 35.0834C40.8229 35.0834 40.8688 35.0644 40.9026 35.0305C40.9365 34.9967 40.9555 34.9508 40.9555 34.9029L41.2442 33.0982C41.3185 32.5664 41.505 32.0566 41.7912 31.6023C42.0775 31.1481 42.457 30.7598 42.9046 30.4633L43.1572 30.3189C43.1797 30.3021 43.1979 30.2803 43.2104 30.2552C43.2229 30.2302 43.2294 30.2025 43.2294 30.1745C43.227 30.1078 43.2014 30.0441 43.1572 29.9941L42.9046 29.8497Z" fill="#E9459D"/>
<path d="M144.583 38.9827C143.883 38.5334 143.286 37.9408 142.832 37.244C142.378 36.5471 142.077 35.7619 141.948 34.9401L141.551 32.1247C141.542 32.0546 141.508 31.9901 141.455 31.9435C141.402 31.8969 141.333 31.8715 141.263 31.8721C141.192 31.8715 141.123 31.8969 141.07 31.9435C141.017 31.9901 140.983 32.0546 140.974 32.1247L140.541 34.9401C140.419 35.7596 140.124 36.5438 139.676 37.2408C139.228 37.9377 138.637 38.5315 137.942 38.9827L137.581 39.2354C137.542 39.2577 137.508 39.2889 137.483 39.3265C137.458 39.3641 137.442 39.4071 137.437 39.452C137.442 39.5018 137.457 39.55 137.482 39.5935C137.507 39.637 137.541 39.6748 137.581 39.7046L137.942 39.9212C138.637 40.3724 139.228 40.9662 139.676 41.6632C140.124 42.3601 140.419 43.1443 140.541 43.9638L140.974 46.7792C140.983 46.8493 141.017 46.9138 141.07 46.9604C141.123 47.007 141.192 47.0324 141.263 47.0318C141.333 47.0324 141.402 47.007 141.455 46.9604C141.508 46.9138 141.542 46.8493 141.551 46.7792L141.948 43.9638C142.077 43.142 142.378 42.3568 142.832 41.6599C143.286 40.9631 143.883 40.3705 144.583 39.9212L144.944 39.7046C144.98 39.673 145.008 39.634 145.026 39.5903C145.045 39.5467 145.054 39.4994 145.053 39.452C145.054 39.4097 145.045 39.3677 145.026 39.3298C145.007 39.292 144.979 39.2595 144.944 39.2354L144.583 38.9827Z" fill="#8088FD"/>
<path d="M177.069 93.7027C176.123 93.0928 175.318 92.2878 174.708 91.3417C174.098 90.3955 173.697 89.3299 173.532 88.2163L172.954 84.3902C172.938 84.2942 172.89 84.2064 172.818 84.1409C172.746 84.0754 172.654 84.0361 172.557 84.0293C172.46 84.0361 172.368 84.0754 172.296 84.1409C172.224 84.2064 172.176 84.2942 172.16 84.3902L171.619 88.2163C171.441 89.3301 171.031 90.3941 170.415 91.3392C169.8 92.2844 168.992 93.0896 168.045 93.7027L167.54 94.0275C167.49 94.0646 167.45 94.114 167.425 94.1709C167.4 94.2279 167.39 94.2904 167.396 94.3524C167.393 94.414 167.404 94.4755 167.43 94.5318C167.455 94.5882 167.492 94.638 167.54 94.6772L168.045 95.0021C168.995 95.6117 169.805 96.416 170.421 97.3617C171.037 98.3075 171.445 99.3732 171.619 100.488L172.16 104.315C172.183 104.404 172.234 104.484 172.306 104.542C172.377 104.6 172.465 104.635 172.557 104.639C172.649 104.635 172.738 104.6 172.809 104.542C172.88 104.484 172.931 104.404 172.954 104.315L173.532 100.488C173.692 99.3734 174.091 98.306 174.702 97.3592C175.312 96.4124 176.12 95.6084 177.069 95.0021L177.574 94.6772C177.627 94.6399 177.67 94.5913 177.701 94.5351C177.733 94.4789 177.751 94.4165 177.755 94.3524C177.754 94.2876 177.736 94.2242 177.705 94.1675C177.674 94.1109 177.629 94.0628 177.574 94.0275L177.069 93.7027Z" fill="#67BAFD"/>
<path d="M164.616 26.0964C164.321 25.8993 164.069 25.6438 163.877 25.3459C163.685 25.0479 163.555 24.7137 163.497 24.3639L163.316 23.1366C163.316 23.1006 163.28 23.0645 163.208 23.0645C163.136 23.0645 163.1 23.1006 163.1 23.1366L162.919 24.3639C162.861 24.7137 162.731 25.0479 162.539 25.3459C162.347 25.6438 162.095 25.8993 161.8 26.0964L161.62 26.2047C161.584 26.2047 161.584 26.2408 161.584 26.313C161.582 26.3325 161.584 26.3522 161.591 26.3708C161.597 26.3895 161.607 26.4066 161.62 26.4213L161.8 26.4934C162.092 26.6937 162.342 26.9499 162.534 27.2474C162.726 27.5448 162.857 27.8775 162.919 28.226L163.1 29.4532C163.1 29.4819 163.111 29.5095 163.131 29.5298C163.152 29.5501 163.179 29.5615 163.208 29.5615C163.237 29.5615 163.264 29.5501 163.285 29.5298C163.305 29.5095 163.316 29.4819 163.316 29.4532L163.497 28.226C163.559 27.8775 163.69 27.5448 163.882 27.2474C164.074 26.9499 164.324 26.6937 164.616 26.4934L164.796 26.4213C164.809 26.4066 164.819 26.3895 164.825 26.3708C164.832 26.3522 164.834 26.3325 164.832 26.313C164.832 26.2408 164.832 26.2047 164.796 26.2047L164.616 26.0964Z" fill="white"/>
<path d="M110.871 70.2045H110.763C110.539 70.1773 110.335 70.0641 110.194 69.8889C110.052 69.7137 109.984 69.4903 110.005 69.2661C110.185 67.317 111.124 66.5229 111.882 66.198C113.542 65.4761 115.96 66.3424 118.812 68.6525C118.903 68.7229 118.979 68.8108 119.035 68.911C119.092 69.0111 119.128 69.1216 119.141 69.2358C119.155 69.35 119.145 69.4658 119.114 69.5764C119.082 69.6869 119.028 69.79 118.956 69.8797C118.886 69.9668 118.8 70.0389 118.701 70.0918C118.603 70.1446 118.495 70.177 118.384 70.1871C118.273 70.1972 118.16 70.1848 118.054 70.1506C117.948 70.1164 117.85 70.0611 117.765 69.988C115.094 67.8584 113.326 67.4613 112.568 67.7862C111.81 68.111 111.81 68.5081 111.701 69.4105C111.692 69.6243 111.6 69.8263 111.446 69.9743C111.291 70.1222 111.085 70.2047 110.871 70.2045Z" fill="#55F085"/>
<path d="M127.583 85.1112L126.753 85.039C125.309 84.6887 124.033 83.8463 123.143 82.6567C120.653 85.0029 117.476 85.7609 115.636 84.281C115.13 83.884 114.011 82.6206 115.13 80.2023C115.216 80.0156 115.373 79.8708 115.566 79.7998C115.759 79.7287 115.972 79.7371 116.159 79.8233C116.346 79.9095 116.49 80.0663 116.562 80.2592C116.633 80.4521 116.624 80.6653 116.538 80.852C116.213 81.5739 115.924 82.5484 116.61 83.0899C118.054 84.2088 120.942 82.8733 122.674 80.9242C122.752 80.8306 122.853 80.7584 122.966 80.7142C123.08 80.6701 123.203 80.6554 123.324 80.6715C123.444 80.6724 123.562 80.7066 123.664 80.7703C123.766 80.834 123.848 80.9248 123.901 81.0325C124.659 82.2958 125.887 83.2703 127.042 83.523C127.398 83.6002 127.767 83.5981 128.122 83.5171C128.478 83.436 128.811 83.2778 129.099 83.0538C129.785 82.5124 130.471 81.5739 131.084 80.2023C131.17 80.0156 131.327 79.8708 131.52 79.7998C131.713 79.7287 131.926 79.7371 132.113 79.8233C132.3 79.9095 132.444 80.0663 132.515 80.2592C132.586 80.4521 132.578 80.6653 132.492 80.852C131.734 82.4763 130.94 83.5952 130.001 84.281C129.31 84.8193 128.459 85.1114 127.583 85.1112Z" fill="white"/>
<path d="M127.475 70.2039H127.294C127.069 70.1602 126.871 70.0294 126.743 69.84C126.614 69.6507 126.566 69.4182 126.608 69.1933C127.041 67.172 128.124 66.4501 128.954 66.1613C130.687 65.5838 132.925 66.4862 135.451 68.724C135.537 68.7997 135.607 68.8915 135.657 68.9942C135.707 69.097 135.736 69.2086 135.743 69.3226C135.75 69.4367 135.734 69.551 135.696 69.6589C135.658 69.7668 135.6 69.8661 135.524 69.9513C135.372 70.1137 135.164 70.2117 134.942 70.2252C134.721 70.2386 134.502 70.1664 134.333 70.0235C132.311 68.2548 130.579 67.4246 129.496 67.7856C128.413 68.1465 128.521 68.5797 128.305 69.5542C128.257 69.7388 128.15 69.9024 128 70.0199C127.85 70.1374 127.665 70.202 127.475 70.2039Z" fill="#55F085"/>
<path d="M155.845 46.4899C155.65 46.4927 155.457 46.4442 155.286 46.3492C155.115 46.2542 154.972 46.1161 154.871 45.9485L150.864 39.5597C150.757 39.305 150.744 39.0201 150.829 38.7569C150.914 38.4937 151.09 38.2697 151.326 38.1255C151.562 37.9813 151.842 37.9266 152.115 37.9712C152.388 38.0158 152.636 38.1568 152.813 38.3686L156.82 44.7574C156.97 45.0129 157.017 45.3167 156.95 45.6056C156.883 45.8946 156.707 46.1466 156.459 46.3095C156.279 46.4345 156.064 46.4978 155.845 46.4899Z" fill="black"/>
<path d="M155.845 46.4903H155.521C155.279 46.4196 155.068 46.272 154.918 46.0701C154.768 45.8681 154.688 45.6228 154.69 45.3714L154.799 37.5027C154.817 37.2056 154.945 36.926 155.159 36.7189C155.373 36.5118 155.656 36.3923 155.954 36.3838C156.105 36.3838 156.256 36.4137 156.396 36.4717C156.536 36.5298 156.663 36.6148 156.771 36.7221C156.878 36.8293 156.963 36.9567 157.021 37.0968C157.079 37.2369 157.109 37.3871 157.109 37.5388L157.037 41.1483L157.614 40.1737C157.772 39.9105 158.028 39.7207 158.326 39.6463C158.624 39.5718 158.939 39.6187 159.202 39.7767C159.466 39.9346 159.655 40.1907 159.73 40.4885C159.804 40.7864 159.757 41.1016 159.599 41.3649L156.82 45.985C156.715 46.1458 156.57 46.2769 156.399 46.3654C156.228 46.4539 156.038 46.4969 155.845 46.4903Z" fill="black"/>
</svg>
