<svg width="30" height="34" viewBox="0 0 30 34" fill="none" xmlns="http://www.w3.org/2000/svg">
<path d="M27.6003 11.1865C27.2003 10.0865 30.1003 7.08651 28.0003 4.28651C25.9003 1.48651 22.6003 3.18651 21.6003 2.68651C20.6003 2.18651 19.0003 -0.513493 15.4003 0.0865068C11.8003 0.686507 11.8003 4.68651 11.2003 5.28651C10.6003 5.88651 7.60027 5.68651 6.90027 8.68651C6.20027 11.6865 6.80028 12.2865 10.2003 14.6865L19.4003 19.3865C24.3003 21.7865 28.5003 20.1865 29.2003 17.0865C29.9003 13.9865 28.0003 12.2865 27.6003 11.1865Z" fill="#D11583"/>
<path d="M16 32.5L17 33.5C18.2185 30.0344 19.0413 26.8332 19.4845 23.1865C18.3845 17.0865 15.6845 14.2865 12.1845 12.5865C8.96965 14.5995 6.34156 16.4874 3.5 19C8.1 21 14.2 26.1 16 32.5Z" fill="#FF78B9"/>
<path d="M19.4846 23.1865C20.3846 16.6865 20.2846 10.6865 19.4846 9.98648C18.6846 9.28648 15.8846 10.3865 12.1846 12.5865C15.6846 14.2865 18.3846 17.0865 19.4846 23.1865Z" fill="#EB459F"/>
<path d="M3.5 19C1.34117 20.7912 0 22 0 22L17 33.5C15.2 27.1 8.40001 20.6135 3.5 19Z" fill="#EB459F"/>
</svg>
