<svg width="320" height="228" viewBox="0 0 320 228" fill="none" xmlns="http://www.w3.org/2000/svg">
<rect width="320" height="228" rx="8" fill="#2F3136"/>
<rect x="16" y="16" width="288" height="40" rx="8" fill="#202225"/>
<path d="M30.6002 33.5065H29.3335V38.1959H30.6002V33.5065Z" fill="white"/>
<path d="M40.7335 30.6665V31.4176L31.2335 33.5095V40.0783C31.2335 40.3663 31.4311 40.6166 31.7136 40.6875L34.2469 41.315C34.2976 41.3269 34.3495 41.3332 34.4002 41.3332C34.5971 41.3332 34.7852 41.2422 34.9068 41.0822L36.4712 39.016L40.7335 39.9534V40.7057H42.0002V30.6665H40.7335ZM34.1456 39.9961L32.5002 39.5882V38.1407L35.1139 38.7167L34.1456 39.9961Z" fill="white"/>
<path d="M53.472 42L53.312 40.992C53.0027 41.3227 52.64 41.6 52.224 41.824C51.808 42.048 51.312 42.16 50.736 42.16C50.0747 42.16 49.5413 41.9733 49.136 41.6C48.7413 41.216 48.544 40.688 48.544 40.016C48.544 39.0773 48.928 38.384 49.696 37.936C50.464 37.4773 51.632 37.1733 53.2 37.024V36.8C53.2 36.384 53.0827 36.0907 52.848 35.92C52.624 35.7387 52.2987 35.648 51.872 35.648C51.424 35.648 50.9867 35.7067 50.56 35.824C50.1333 35.9413 49.712 36.0907 49.296 36.272L49.056 34.736C49.504 34.5547 49.9733 34.4053 50.464 34.288C50.9547 34.1707 51.5093 34.112 52.128 34.112C53.1307 34.112 53.8773 34.3147 54.368 34.72C54.8693 35.1147 55.12 35.776 55.12 36.704V42H53.472ZM53.2 38.144C52.6453 38.208 52.1867 38.2987 51.824 38.416C51.472 38.5333 51.1947 38.6667 50.992 38.816C50.7893 38.9547 50.6453 39.1093 50.56 39.28C50.4853 39.4507 50.448 39.6267 50.448 39.808C50.448 40.0853 50.528 40.304 50.688 40.464C50.8587 40.624 51.0933 40.704 51.392 40.704C51.7227 40.704 52.0373 40.6347 52.336 40.496C52.6453 40.3467 52.9333 40.1387 53.2 39.872V38.144ZM61.6949 42V36.944C61.6949 36.6027 61.6149 36.3307 61.4549 36.128C61.3055 35.9147 61.0549 35.808 60.7029 35.808C60.3935 35.808 60.0895 35.8987 59.7909 36.08C59.5029 36.2507 59.2202 36.4853 58.9429 36.784V42H57.0229V34.272H58.6549L58.8309 35.36C59.1935 35.0187 59.5829 34.7253 59.9989 34.48C60.4149 34.2347 60.8842 34.112 61.4069 34.112C62.1322 34.112 62.6815 34.32 63.0549 34.736C63.4282 35.1413 63.6149 35.7067 63.6149 36.432V42H61.6949ZM70.2105 42V36.944C70.2105 36.6027 70.1305 36.3307 69.9705 36.128C69.8212 35.9147 69.5705 35.808 69.2185 35.808C68.9092 35.808 68.6052 35.8987 68.3065 36.08C68.0185 36.2507 67.7358 36.4853 67.4585 36.784V42H65.5385V34.272H67.1705L67.3465 35.36C67.7092 35.0187 68.0985 34.7253 68.5145 34.48C68.9305 34.2347 69.3998 34.112 69.9225 34.112C70.6478 34.112 71.1972 34.32 71.5705 34.736C71.9438 35.1413 72.1305 35.7067 72.1305 36.432V42H70.2105ZM80.9341 38.144C80.9341 38.7733 80.8435 39.3387 80.6621 39.84C80.4808 40.3307 80.2248 40.752 79.8941 41.104C79.5635 41.4453 79.1741 41.7067 78.7261 41.888C78.2781 42.0693 77.7928 42.16 77.2701 42.16C76.7475 42.16 76.2621 42.0693 75.8141 41.888C75.3768 41.7067 74.9981 41.4453 74.6781 41.104C74.3581 40.752 74.1075 40.3307 73.9261 39.84C73.7448 39.3387 73.6541 38.7733 73.6541 38.144C73.6541 37.5147 73.7448 36.9547 73.9261 36.464C74.1075 35.9627 74.3581 35.5413 74.6781 35.2C75.0088 34.848 75.3928 34.5813 75.8301 34.4C76.2781 34.208 76.7635 34.112 77.2861 34.112C77.8088 34.112 78.2941 34.208 78.7421 34.4C79.1901 34.5813 79.5741 34.848 79.8941 35.2C80.2248 35.5413 80.4808 35.9627 80.6621 36.464C80.8435 36.9547 80.9341 37.5147 80.9341 38.144ZM79.0621 38.144C79.0621 37.4293 78.9075 36.8427 78.5981 36.384C78.2888 35.9147 77.8461 35.68 77.2701 35.68C76.6941 35.68 76.2568 35.9093 75.9581 36.368C75.6701 36.8267 75.5261 37.4187 75.5261 38.144C75.5261 38.848 75.6755 39.4347 75.9741 39.904C76.2728 40.3627 76.7048 40.592 77.2701 40.592C77.8675 40.592 78.3155 40.368 78.6141 39.92C78.9128 39.4613 79.0621 38.8693 79.0621 38.144ZM87.4196 42L87.2436 40.912C86.881 41.2533 86.4863 41.5467 86.0596 41.792C85.6436 42.0373 85.1796 42.16 84.6676 42.16C83.9316 42.16 83.377 41.9573 83.0036 41.552C82.641 41.136 82.4596 40.56 82.4596 39.824V34.272H84.3796V39.328C84.3796 39.6693 84.4543 39.9413 84.6036 40.144C84.7636 40.3467 85.0143 40.448 85.3556 40.448C85.665 40.448 85.969 40.3627 86.2676 40.192C86.5663 40.0107 86.8543 39.776 87.1316 39.488V34.272H89.0516V42H87.4196ZM95.6793 42V36.944C95.6793 36.6027 95.5993 36.3307 95.4393 36.128C95.2899 35.9147 95.0393 35.808 94.6873 35.808C94.3779 35.808 94.0739 35.8987 93.7753 36.08C93.4873 36.2507 93.2046 36.4853 92.9273 36.784V42H91.0073V34.272H92.6393L92.8153 35.36C93.1779 35.0187 93.5673 34.7253 93.9833 34.48C94.3993 34.2347 94.8686 34.112 95.3913 34.112C96.1166 34.112 96.6659 34.32 97.0393 34.736C97.4126 35.1413 97.5993 35.7067 97.5993 36.432V42H95.6793ZM105.347 41.408C104.974 41.6533 104.579 41.84 104.163 41.968C103.758 42.0853 103.299 42.144 102.787 42.144C102.254 42.144 101.763 42.0587 101.315 41.888C100.867 41.7067 100.478 41.4507 100.147 41.12C99.8269 40.7787 99.5762 40.3627 99.3949 39.872C99.2135 39.3707 99.1229 38.8053 99.1229 38.176C99.1229 37.504 99.2189 36.9173 99.4109 36.416C99.6135 35.904 99.8855 35.4773 100.227 35.136C100.568 34.7947 100.968 34.5387 101.427 34.368C101.886 34.1973 102.376 34.112 102.899 34.112C103.411 34.112 103.864 34.176 104.259 34.304C104.654 34.432 104.99 34.5867 105.267 34.768L104.995 36.496C104.686 36.2613 104.371 36.0853 104.051 35.968C103.731 35.84 103.379 35.776 102.995 35.776C102.419 35.776 101.95 35.9787 101.587 36.384C101.235 36.7787 101.059 37.36 101.059 38.128C101.059 38.928 101.251 39.5253 101.635 39.92C102.019 40.304 102.494 40.496 103.059 40.496C103.4 40.496 103.736 40.4427 104.067 40.336C104.398 40.2293 104.739 40.0373 105.091 39.76L105.347 41.408ZM113.206 41.216C112.79 41.504 112.326 41.7333 111.814 41.904C111.312 42.0747 110.747 42.16 110.118 42.16C109.574 42.16 109.072 42.0853 108.614 41.936C108.155 41.776 107.755 41.5307 107.414 41.2C107.083 40.8693 106.822 40.4533 106.63 39.952C106.438 39.44 106.342 38.8373 106.342 38.144C106.342 37.5147 106.427 36.9547 106.598 36.464C106.779 35.9627 107.024 35.5413 107.334 35.2C107.654 34.848 108.027 34.5813 108.454 34.4C108.891 34.208 109.36 34.112 109.862 34.112C110.438 34.112 110.939 34.2133 111.366 34.416C111.792 34.6187 112.139 34.9013 112.406 35.264C112.683 35.616 112.886 36.032 113.014 36.512C113.152 36.992 113.222 37.504 113.222 38.048C113.222 38.1333 113.216 38.2187 113.206 38.304C113.206 38.3893 113.206 38.4587 113.206 38.512H108.23C108.283 39.28 108.496 39.8347 108.87 40.176C109.243 40.5067 109.728 40.672 110.326 40.672C110.827 40.672 111.286 40.5867 111.702 40.416C112.128 40.2453 112.555 40.0107 112.982 39.712L113.206 41.216ZM109.814 35.44C109.43 35.44 109.094 35.5947 108.806 35.904C108.518 36.2133 108.336 36.6827 108.262 37.312H111.35C111.286 36.704 111.131 36.24 110.886 35.92C110.64 35.6 110.283 35.44 109.814 35.44ZM123.941 42V36.944C123.941 36.6027 123.872 36.3307 123.733 36.128C123.594 35.9147 123.349 35.808 122.997 35.808C122.698 35.808 122.405 35.8987 122.117 36.08C121.84 36.2507 121.562 36.48 121.285 36.768V42H119.365V36.944C119.365 36.6027 119.29 36.3307 119.141 36.128C119.002 35.9147 118.757 35.808 118.405 35.808C118.106 35.808 117.813 35.8987 117.525 36.08C117.248 36.2507 116.97 36.48 116.693 36.768V42H114.773V34.272H116.405L116.581 35.36C116.944 35.0187 117.328 34.7253 117.733 34.48C118.138 34.2347 118.602 34.112 119.125 34.112C119.68 34.112 120.112 34.2293 120.421 34.464C120.73 34.688 120.96 34.9867 121.109 35.36C121.45 35.0187 121.834 34.7253 122.261 34.48C122.688 34.2347 123.162 34.112 123.685 34.112C124.421 34.112 124.965 34.32 125.317 34.736C125.68 35.1413 125.861 35.7067 125.861 36.432V42H123.941ZM134.253 41.216C133.837 41.504 133.373 41.7333 132.861 41.904C132.359 42.0747 131.794 42.16 131.165 42.16C130.621 42.16 130.119 42.0853 129.661 41.936C129.202 41.776 128.802 41.5307 128.461 41.2C128.13 40.8693 127.869 40.4533 127.677 39.952C127.485 39.44 127.389 38.8373 127.389 38.144C127.389 37.5147 127.474 36.9547 127.645 36.464C127.826 35.9627 128.071 35.5413 128.381 35.2C128.701 34.848 129.074 34.5813 129.501 34.4C129.938 34.208 130.407 34.112 130.909 34.112C131.485 34.112 131.986 34.2133 132.413 34.416C132.839 34.6187 133.186 34.9013 133.453 35.264C133.73 35.616 133.933 36.032 134.061 36.512C134.199 36.992 134.269 37.504 134.269 38.048C134.269 38.1333 134.263 38.2187 134.253 38.304C134.253 38.3893 134.253 38.4587 134.253 38.512H129.277C129.33 39.28 129.543 39.8347 129.917 40.176C130.29 40.5067 130.775 40.672 131.373 40.672C131.874 40.672 132.333 40.5867 132.749 40.416C133.175 40.2453 133.602 40.0107 134.029 39.712L134.253 41.216ZM130.861 35.44C130.477 35.44 130.141 35.5947 129.853 35.904C129.565 36.2133 129.383 36.6827 129.309 37.312H132.397C132.333 36.704 132.178 36.24 131.933 35.92C131.687 35.6 131.33 35.44 130.861 35.44ZM140.492 42V36.944C140.492 36.6027 140.412 36.3307 140.252 36.128C140.102 35.9147 139.852 35.808 139.5 35.808C139.19 35.808 138.886 35.8987 138.588 36.08C138.3 36.2507 138.017 36.4853 137.74 36.784V42H135.82V34.272H137.452L137.628 35.36C137.99 35.0187 138.38 34.7253 138.796 34.48C139.212 34.2347 139.681 34.112 140.204 34.112C140.929 34.112 141.478 34.32 141.852 34.736C142.225 35.1413 142.412 35.7067 142.412 36.432V42H140.492ZM148.495 42C148.346 42.032 148.175 42.0587 147.983 42.08C147.791 42.112 147.557 42.128 147.279 42.128C146.895 42.128 146.549 42.0907 146.239 42.016C145.93 41.9413 145.663 41.8133 145.439 41.632C145.215 41.4507 145.039 41.2107 144.911 40.912C144.794 40.6133 144.735 40.2453 144.735 39.808V35.84H143.647V34.272H144.735V31.824L146.623 31.536V34.272H148.207L148.447 35.84H146.623V39.488C146.623 39.7973 146.698 40.0373 146.847 40.208C147.007 40.368 147.274 40.448 147.647 40.448C147.893 40.448 148.095 40.4267 148.255 40.384L148.495 42ZM155.657 39.728C155.657 40.496 155.39 41.0933 154.857 41.52C154.334 41.9467 153.561 42.16 152.537 42.16C151.972 42.16 151.422 42.0853 150.889 41.936C150.356 41.7867 149.902 41.6107 149.529 41.408L149.785 39.808C150.201 40.0853 150.654 40.3093 151.145 40.48C151.636 40.64 152.121 40.72 152.601 40.72C153.017 40.72 153.332 40.6507 153.545 40.512C153.769 40.3627 153.881 40.16 153.881 39.904C153.881 39.7653 153.854 39.648 153.801 39.552C153.758 39.4453 153.678 39.3547 153.561 39.28C153.444 39.1947 153.284 39.12 153.081 39.056C152.878 38.9813 152.622 38.9067 152.313 38.832C151.844 38.7147 151.438 38.5867 151.097 38.448C150.766 38.3093 150.494 38.1493 150.281 37.968C150.068 37.776 149.908 37.5573 149.801 37.312C149.705 37.056 149.657 36.752 149.657 36.4C149.657 35.728 149.902 35.1787 150.393 34.752C150.894 34.3253 151.598 34.112 152.505 34.112C153.017 34.112 153.497 34.16 153.945 34.256C154.404 34.352 154.825 34.4853 155.209 34.656L154.953 36.256C154.569 36.0427 154.158 35.872 153.721 35.744C153.294 35.616 152.889 35.552 152.505 35.552C152.142 35.552 151.87 35.616 151.689 35.744C151.518 35.872 151.433 36.0427 151.433 36.256C151.433 36.3627 151.454 36.4587 151.497 36.544C151.54 36.6293 151.614 36.7093 151.721 36.784C151.828 36.8587 151.972 36.9333 152.153 37.008C152.345 37.072 152.585 37.1413 152.873 37.216C153.374 37.344 153.801 37.4773 154.153 37.616C154.505 37.7547 154.793 37.92 155.017 38.112C155.241 38.304 155.401 38.5333 155.497 38.8C155.604 39.056 155.657 39.3653 155.657 39.728Z" fill="white"/>
<rect x="270" y="26" width="20" height="20" rx="4" fill="#5865F2"/>
<path d="M277.75 39.1274L274.623 35.9999L273.558 37.0574L277.75 41.2499L286.75 32.2499L285.693 31.1924L277.75 39.1274Z" fill="white"/>
<rect x="16" y="68" width="288" height="40" rx="8" fill="#202225"/>
<path fill-rule="evenodd" clip-rule="evenodd" d="M32.1232 94C31.8121 94 31.5765 93.7189 31.6309 93.4126L31.9999 91.3333H29.9284C29.6177 91.3333 29.3823 91.0531 29.4358 90.7471L29.4942 90.4138C29.536 90.1746 29.7438 90 29.9867 90H32.2333L32.9399 86H30.8684C30.5577 86 30.3223 85.7198 30.3758 85.4138L30.4342 85.0805C30.476 84.8412 30.6838 84.6667 30.9267 84.6667H33.1733L33.5734 82.4126C33.6157 82.1739 33.8232 82 34.0657 82H34.3834C34.6945 82 34.93 82.2811 34.8757 82.5874L34.5066 84.6667H38.5066L38.9067 82.4126C38.9491 82.1739 39.1566 82 39.399 82H39.7167C40.0278 82 40.2634 82.2811 40.209 82.5874L39.8399 84.6667H41.9115C42.2221 84.6667 42.4576 84.9469 42.404 85.2529L42.3457 85.5862C42.3038 85.8254 42.0961 86 41.8532 86H39.6066L38.8999 90H40.9715C41.2821 90 41.5176 90.2802 41.464 90.5862L41.4057 90.9195C41.3638 91.1588 41.1561 91.3333 40.9132 91.3333H38.6666L38.2665 93.5874C38.2241 93.8261 38.0166 94 37.7742 94H37.4565C37.1454 94 36.9098 93.7189 36.9642 93.4126L37.3333 91.3333H33.3333L32.9332 93.5874C32.8908 93.8261 32.6833 94 32.4409 94H32.1232ZM34.2736 86L33.5669 90H37.5669L38.2736 86H34.2736Z" fill="white"/>
<path d="M51.168 83.888C51.168 84.208 51.056 84.4693 50.832 84.672C50.608 84.8747 50.3413 84.976 50.032 84.976C49.712 84.976 49.44 84.8747 49.216 84.672C48.992 84.4693 48.88 84.208 48.88 83.888C48.88 83.5573 48.992 83.2907 49.216 83.088C49.44 82.8747 49.712 82.768 50.032 82.768C50.3413 82.768 50.608 82.8747 50.832 83.088C51.056 83.2907 51.168 83.5573 51.168 83.888ZM49.056 94V86.272H50.976V94H49.056ZM57.6793 94V88.944C57.6793 88.6027 57.5993 88.3307 57.4393 88.128C57.2899 87.9147 57.0393 87.808 56.6873 87.808C56.3779 87.808 56.0739 87.8987 55.7753 88.08C55.4873 88.2507 55.2046 88.4853 54.9273 88.784V94H53.0073V86.272H54.6393L54.8153 87.36C55.1779 87.0187 55.5673 86.7253 55.9833 86.48C56.3993 86.2347 56.8686 86.112 57.3913 86.112C58.1166 86.112 58.6659 86.32 59.0393 86.736C59.4126 87.1413 59.5993 87.7067 59.5993 88.432V94H57.6793ZM65.6829 94C65.5335 94.032 65.3629 94.0587 65.1709 94.08C64.9789 94.112 64.7442 94.128 64.4669 94.128C64.0829 94.128 63.7362 94.0907 63.4269 94.016C63.1175 93.9413 62.8509 93.8133 62.6269 93.632C62.4029 93.4507 62.2269 93.2107 62.0989 92.912C61.9815 92.6133 61.9229 92.2453 61.9229 91.808V87.84H60.8349V86.272H61.9229V83.824L63.8109 83.536V86.272H65.3949L65.6349 87.84H63.8109V91.488C63.8109 91.7973 63.8855 92.0373 64.0349 92.208C64.1949 92.368 64.4615 92.448 64.8349 92.448C65.0802 92.448 65.2829 92.4267 65.4429 92.384L65.6829 94ZM71.7726 88.016C71.1646 88.0587 70.626 88.224 70.1566 88.512C69.6873 88.8 69.314 89.152 69.0366 89.568V94H67.1166V86.272H68.7486L68.9886 87.824C69.2446 87.376 69.57 86.9867 69.9646 86.656C70.3593 86.3253 70.8606 86.144 71.4686 86.112L71.7726 88.016ZM79.6685 90.144C79.6685 90.7733 79.5778 91.3387 79.3965 91.84C79.2152 92.3307 78.9592 92.752 78.6285 93.104C78.2978 93.4453 77.9085 93.7067 77.4605 93.888C77.0125 94.0693 76.5272 94.16 76.0045 94.16C75.4818 94.16 74.9965 94.0693 74.5485 93.888C74.1112 93.7067 73.7325 93.4453 73.4125 93.104C73.0925 92.752 72.8418 92.3307 72.6605 91.84C72.4792 91.3387 72.3885 90.7733 72.3885 90.144C72.3885 89.5147 72.4792 88.9547 72.6605 88.464C72.8418 87.9627 73.0925 87.5413 73.4125 87.2C73.7432 86.848 74.1272 86.5813 74.5645 86.4C75.0125 86.208 75.4978 86.112 76.0205 86.112C76.5432 86.112 77.0285 86.208 77.4765 86.4C77.9245 86.5813 78.3085 86.848 78.6285 87.2C78.9592 87.5413 79.2152 87.9627 79.3965 88.464C79.5778 88.9547 79.6685 89.5147 79.6685 90.144ZM77.7965 90.144C77.7965 89.4293 77.6418 88.8427 77.3325 88.384C77.0232 87.9147 76.5805 87.68 76.0045 87.68C75.4285 87.68 74.9912 87.9093 74.6925 88.368C74.4045 88.8267 74.2605 89.4187 74.2605 90.144C74.2605 90.848 74.4098 91.4347 74.7085 91.904C75.0072 92.3627 75.4392 92.592 76.0045 92.592C76.6018 92.592 77.0498 92.368 77.3485 91.92C77.6472 91.4613 77.7965 90.8693 77.7965 90.144ZM86.282 94L86.122 92.928C85.8447 93.2587 85.514 93.5467 85.13 93.792C84.7567 94.0373 84.298 94.16 83.754 94.16C83.3487 94.16 82.97 94.0853 82.618 93.936C82.266 93.776 81.9567 93.5413 81.69 93.232C81.4233 92.9227 81.2153 92.528 81.066 92.048C80.9167 91.568 80.842 91.0027 80.842 90.352C80.842 89.6373 80.9327 89.0187 81.114 88.496C81.2953 87.9627 81.5407 87.5307 81.85 87.2C82.17 86.8587 82.5327 86.608 82.938 86.448C83.3433 86.2773 83.77 86.192 84.218 86.192C84.5913 86.192 84.922 86.2187 85.21 86.272C85.5087 86.3253 85.7753 86.3947 86.01 86.48V82.752L87.93 82.448V94H86.282ZM86.01 88.064C85.7647 87.9467 85.5353 87.8613 85.322 87.808C85.1087 87.7547 84.8367 87.728 84.506 87.728C83.994 87.728 83.5727 87.936 83.242 88.352C82.922 88.7573 82.762 89.3867 82.762 90.24C82.762 90.9973 82.9007 91.5573 83.178 91.92C83.466 92.272 83.8233 92.448 84.25 92.448C84.602 92.448 84.9167 92.352 85.194 92.16C85.482 91.968 85.754 91.712 86.01 91.392V88.064ZM94.8103 94L94.6343 92.912C94.2716 93.2533 93.8769 93.5467 93.4503 93.792C93.0343 94.0373 92.5703 94.16 92.0583 94.16C91.3223 94.16 90.7676 93.9573 90.3943 93.552C90.0316 93.136 89.8503 92.56 89.8503 91.824V86.272H91.7703V91.328C91.7703 91.6693 91.8449 91.9413 91.9943 92.144C92.1543 92.3467 92.4049 92.448 92.7463 92.448C93.0556 92.448 93.3596 92.3627 93.6583 92.192C93.9569 92.0107 94.2449 91.776 94.5223 91.488V86.272H96.4423V94H94.8103ZM104.222 93.408C103.849 93.6533 103.454 93.84 103.038 93.968C102.633 94.0853 102.174 94.144 101.662 94.144C101.129 94.144 100.638 94.0587 100.19 93.888C99.7419 93.7067 99.3525 93.4507 99.0219 93.12C98.7019 92.7787 98.4512 92.3627 98.2699 91.872C98.0885 91.3707 97.9979 90.8053 97.9979 90.176C97.9979 89.504 98.0939 88.9173 98.2859 88.416C98.4885 87.904 98.7605 87.4773 99.1019 87.136C99.4432 86.7947 99.8432 86.5387 100.302 86.368C100.761 86.1973 101.251 86.112 101.774 86.112C102.286 86.112 102.739 86.176 103.134 86.304C103.529 86.432 103.865 86.5867 104.142 86.768L103.87 88.496C103.561 88.2613 103.246 88.0853 102.926 87.968C102.606 87.84 102.254 87.776 101.87 87.776C101.294 87.776 100.825 87.9787 100.462 88.384C100.11 88.7787 99.9339 89.36 99.9339 90.128C99.9339 90.928 100.126 91.5253 100.51 91.92C100.894 92.304 101.369 92.496 101.934 92.496C102.275 92.496 102.611 92.4427 102.942 92.336C103.273 92.2293 103.614 92.0373 103.966 91.76L104.222 93.408ZM109.917 94C109.768 94.032 109.597 94.0587 109.405 94.08C109.213 94.112 108.979 94.128 108.701 94.128C108.317 94.128 107.971 94.0907 107.661 94.016C107.352 93.9413 107.085 93.8133 106.861 93.632C106.637 93.4507 106.461 93.2107 106.333 92.912C106.216 92.6133 106.157 92.2453 106.157 91.808V87.84H105.069V86.272H106.157V83.824L108.045 83.536V86.272H109.629L109.869 87.84H108.045V91.488C108.045 91.7973 108.12 92.0373 108.269 92.208C108.429 92.368 108.696 92.448 109.069 92.448C109.315 92.448 109.517 92.4267 109.677 92.384L109.917 94ZM113.543 83.888C113.543 84.208 113.431 84.4693 113.207 84.672C112.983 84.8747 112.716 84.976 112.407 84.976C112.087 84.976 111.815 84.8747 111.591 84.672C111.367 84.4693 111.255 84.208 111.255 83.888C111.255 83.5573 111.367 83.2907 111.591 83.088C111.815 82.8747 112.087 82.768 112.407 82.768C112.716 82.768 112.983 82.8747 113.207 83.088C113.431 83.2907 113.543 83.5573 113.543 83.888ZM111.431 94V86.272H113.351V94H111.431ZM122.262 90.144C122.262 90.7733 122.172 91.3387 121.99 91.84C121.809 92.3307 121.553 92.752 121.222 93.104C120.892 93.4453 120.502 93.7067 120.054 93.888C119.606 94.0693 119.121 94.16 118.598 94.16C118.076 94.16 117.59 94.0693 117.142 93.888C116.705 93.7067 116.326 93.4453 116.006 93.104C115.686 92.752 115.436 92.3307 115.254 91.84C115.073 91.3387 114.982 90.7733 114.982 90.144C114.982 89.5147 115.073 88.9547 115.254 88.464C115.436 87.9627 115.686 87.5413 116.006 87.2C116.337 86.848 116.721 86.5813 117.158 86.4C117.606 86.208 118.092 86.112 118.614 86.112C119.137 86.112 119.622 86.208 120.07 86.4C120.518 86.5813 120.902 86.848 121.222 87.2C121.553 87.5413 121.809 87.9627 121.99 88.464C122.172 88.9547 122.262 89.5147 122.262 90.144ZM120.39 90.144C120.39 89.4293 120.236 88.8427 119.926 88.384C119.617 87.9147 119.174 87.68 118.598 87.68C118.022 87.68 117.585 87.9093 117.286 88.368C116.998 88.8267 116.854 89.4187 116.854 90.144C116.854 90.848 117.004 91.4347 117.302 91.904C117.601 92.3627 118.033 92.592 118.598 92.592C119.196 92.592 119.644 92.368 119.942 91.92C120.241 91.4613 120.39 90.8693 120.39 90.144ZM128.492 94V88.944C128.492 88.6027 128.412 88.3307 128.252 88.128C128.102 87.9147 127.852 87.808 127.5 87.808C127.19 87.808 126.886 87.8987 126.588 88.08C126.3 88.2507 126.017 88.4853 125.74 88.784V94H123.82V86.272H125.452L125.628 87.36C125.99 87.0187 126.38 86.7253 126.796 86.48C127.212 86.2347 127.681 86.112 128.204 86.112C128.929 86.112 129.478 86.32 129.852 86.736C130.225 87.1413 130.412 87.7067 130.412 88.432V94H128.492ZM138.063 91.728C138.063 92.496 137.797 93.0933 137.263 93.52C136.741 93.9467 135.967 94.16 134.943 94.16C134.378 94.16 133.829 94.0853 133.295 93.936C132.762 93.7867 132.309 93.6107 131.935 93.408L132.191 91.808C132.607 92.0853 133.061 92.3093 133.551 92.48C134.042 92.64 134.527 92.72 135.007 92.72C135.423 92.72 135.738 92.6507 135.951 92.512C136.175 92.3627 136.287 92.16 136.287 91.904C136.287 91.7653 136.261 91.648 136.207 91.552C136.165 91.4453 136.085 91.3547 135.967 91.28C135.85 91.1947 135.69 91.12 135.487 91.056C135.285 90.9813 135.029 90.9067 134.719 90.832C134.25 90.7147 133.845 90.5867 133.503 90.448C133.173 90.3093 132.901 90.1493 132.687 89.968C132.474 89.776 132.314 89.5573 132.207 89.312C132.111 89.056 132.063 88.752 132.063 88.4C132.063 87.728 132.309 87.1787 132.799 86.752C133.301 86.3253 134.005 86.112 134.911 86.112C135.423 86.112 135.903 86.16 136.351 86.256C136.81 86.352 137.231 86.4853 137.615 86.656L137.359 88.256C136.975 88.0427 136.565 87.872 136.127 87.744C135.701 87.616 135.295 87.552 134.911 87.552C134.549 87.552 134.277 87.616 134.095 87.744C133.925 87.872 133.839 88.0427 133.839 88.256C133.839 88.3627 133.861 88.4587 133.903 88.544C133.946 88.6293 134.021 88.7093 134.127 88.784C134.234 88.8587 134.378 88.9333 134.559 89.008C134.751 89.072 134.991 89.1413 135.279 89.216C135.781 89.344 136.207 89.4773 136.559 89.616C136.911 89.7547 137.199 89.92 137.423 90.112C137.647 90.304 137.807 90.5333 137.903 90.8C138.01 91.056 138.063 91.3653 138.063 91.728Z" fill="white"/>
<rect x="270" y="78" width="20" height="20" rx="4" fill="#5865F2"/>
<path d="M277.75 91.1274L274.623 87.9999L273.558 89.0574L277.75 93.2499L286.75 84.2499L285.693 83.1924L277.75 91.1274Z" fill="white"/>
<rect x="16" y="120" width="288" height="40" rx="8" fill="#292B2F"/>
<path fill-rule="evenodd" clip-rule="evenodd" d="M32.1232 146C31.8121 146 31.5765 145.719 31.6309 145.413L31.9999 143.333H29.9284C29.6177 143.333 29.3823 143.053 29.4358 142.747L29.4942 142.414C29.536 142.175 29.7438 142 29.9867 142H32.2333L32.9399 138H30.8684C30.5577 138 30.3223 137.72 30.3758 137.414L30.4342 137.08C30.476 136.841 30.6838 136.667 30.9267 136.667H33.1733L33.5734 134.413C33.6157 134.174 33.8232 134 34.0657 134H34.3834C34.6945 134 34.93 134.281 34.8757 134.587L34.5066 136.667H38.5066L38.9067 134.413C38.9491 134.174 39.1566 134 39.399 134H39.7167C40.0278 134 40.2634 134.281 40.209 134.587L39.8399 136.667H41.9115C42.2221 136.667 42.4576 136.947 42.404 137.253L42.3457 137.586C42.3038 137.825 42.0961 138 41.8532 138H39.6066L38.8999 142H40.9715C41.2821 142 41.5176 142.28 41.464 142.586L41.4057 142.92C41.3638 143.159 41.1561 143.333 40.9132 143.333H38.6666L38.2665 145.587C38.2241 145.826 38.0166 146 37.7742 146H37.4565C37.1454 146 36.9098 145.719 36.9642 145.413L37.3333 143.333H33.3333L32.9332 145.587C32.8908 145.826 32.6833 146 32.4409 146H32.1232ZM34.2736 138L33.5669 142H37.5669L38.2736 138H34.2736Z" fill="#A3A6AA"/>
<path d="M55.856 142.144C55.856 142.773 55.7653 143.339 55.584 143.84C55.4027 144.331 55.1467 144.752 54.816 145.104C54.4853 145.445 54.096 145.707 53.648 145.888C53.2 146.069 52.7147 146.16 52.192 146.16C51.6693 146.16 51.184 146.069 50.736 145.888C50.2987 145.707 49.92 145.445 49.6 145.104C49.28 144.752 49.0293 144.331 48.848 143.84C48.6667 143.339 48.576 142.773 48.576 142.144C48.576 141.515 48.6667 140.955 48.848 140.464C49.0293 139.963 49.28 139.541 49.6 139.2C49.9307 138.848 50.3147 138.581 50.752 138.4C51.2 138.208 51.6853 138.112 52.208 138.112C52.7307 138.112 53.216 138.208 53.664 138.4C54.112 138.581 54.496 138.848 54.816 139.2C55.1467 139.541 55.4027 139.963 55.584 140.464C55.7653 140.955 55.856 141.515 55.856 142.144ZM53.984 142.144C53.984 141.429 53.8293 140.843 53.52 140.384C53.2107 139.915 52.768 139.68 52.192 139.68C51.616 139.68 51.1787 139.909 50.88 140.368C50.592 140.827 50.448 141.419 50.448 142.144C50.448 142.848 50.5973 143.435 50.896 143.904C51.1947 144.363 51.6267 144.592 52.192 144.592C52.7893 144.592 53.2373 144.368 53.536 143.92C53.8347 143.461 53.984 142.869 53.984 142.144ZM61.5735 136.176C61.4775 136.155 61.3602 136.139 61.2215 136.128C61.0828 136.117 60.9335 136.112 60.7735 136.112C60.4428 136.112 60.1922 136.187 60.0215 136.336C59.8508 136.485 59.7655 136.731 59.7655 137.072V138.272H61.2375L61.4775 139.84H59.7655V146H57.8615V139.84H56.7415V138.272H57.8615V136.88C57.8615 136.453 57.9255 136.091 58.0535 135.792C58.1815 135.493 58.3628 135.253 58.5975 135.072C58.8322 134.891 59.1148 134.757 59.4455 134.672C59.7762 134.587 60.1388 134.544 60.5335 134.544C60.8322 134.544 61.0935 134.56 61.3175 134.592L61.5735 136.176ZM66.8855 136.176C66.7895 136.155 66.6722 136.139 66.5335 136.128C66.3948 136.117 66.2455 136.112 66.0855 136.112C65.7548 136.112 65.5042 136.187 65.3335 136.336C65.1628 136.485 65.0775 136.731 65.0775 137.072V138.272H66.5495L66.7895 139.84H65.0775V146H63.1735V139.84H62.0535V138.272H63.1735V136.88C63.1735 136.453 63.2375 136.091 63.3655 135.792C63.4935 135.493 63.6748 135.253 63.9095 135.072C64.1442 134.891 64.4268 134.757 64.7575 134.672C65.0882 134.587 65.4508 134.544 65.8455 134.544C66.1442 134.544 66.4055 134.56 66.6295 134.592L66.8855 136.176ZM67.5333 142.32V140.48H71.6933V142.32H67.5333ZM77.5735 146C77.4242 146.032 77.2535 146.059 77.0615 146.08C76.8695 146.112 76.6348 146.128 76.3575 146.128C75.9735 146.128 75.6268 146.091 75.3175 146.016C75.0082 145.941 74.7415 145.813 74.5175 145.632C74.2935 145.451 74.1175 145.211 73.9895 144.912C73.8722 144.613 73.8135 144.245 73.8135 143.808V139.84H72.7255V138.272H73.8135V135.824L75.7015 135.536V138.272H77.2855L77.5255 139.84H75.7015V143.488C75.7015 143.797 75.7762 144.037 75.9255 144.208C76.0855 144.368 76.3522 144.448 76.7255 144.448C76.9708 144.448 77.1735 144.427 77.3335 144.384L77.5735 146ZM85.8248 142.144C85.8248 142.773 85.7341 143.339 85.5528 143.84C85.3714 144.331 85.1154 144.752 84.7848 145.104C84.4541 145.445 84.0648 145.707 83.6168 145.888C83.1688 146.069 82.6834 146.16 82.1608 146.16C81.6381 146.16 81.1528 146.069 80.7048 145.888C80.2674 145.707 79.8888 145.445 79.5688 145.104C79.2488 144.752 78.9981 144.331 78.8168 143.84C78.6354 143.339 78.5448 142.773 78.5448 142.144C78.5448 141.515 78.6354 140.955 78.8168 140.464C78.9981 139.963 79.2488 139.541 79.5688 139.2C79.8994 138.848 80.2834 138.581 80.7208 138.4C81.1688 138.208 81.6541 138.112 82.1768 138.112C82.6994 138.112 83.1848 138.208 83.6328 138.4C84.0808 138.581 84.4648 138.848 84.7848 139.2C85.1154 139.541 85.3714 139.963 85.5528 140.464C85.7341 140.955 85.8248 141.515 85.8248 142.144ZM83.9528 142.144C83.9528 141.429 83.7981 140.843 83.4888 140.384C83.1794 139.915 82.7368 139.68 82.1608 139.68C81.5848 139.68 81.1474 139.909 80.8488 140.368C80.5608 140.827 80.4168 141.419 80.4168 142.144C80.4168 142.848 80.5661 143.435 80.8648 143.904C81.1634 144.363 81.5954 144.592 82.1608 144.592C82.7581 144.592 83.2061 144.368 83.5048 143.92C83.8034 143.461 83.9528 142.869 83.9528 142.144ZM94.4703 141.92C94.4703 142.645 94.3743 143.269 94.1823 143.792C94.0009 144.315 93.7556 144.747 93.4463 145.088C93.1369 145.419 92.7796 145.669 92.3743 145.84C91.9689 146 91.5423 146.08 91.0943 146.08C90.7209 146.08 90.3849 146.053 90.0863 146C89.7983 145.936 89.5369 145.861 89.3023 145.776V148.688L87.3823 148.976V138.272H89.0143L89.1903 139.328C89.4676 139.019 89.7929 138.741 90.1663 138.496C90.5503 138.24 91.0143 138.112 91.5583 138.112C91.9636 138.112 92.3423 138.192 92.6943 138.352C93.0463 138.501 93.3556 138.736 93.6223 139.056C93.8889 139.365 94.0969 139.76 94.2463 140.24C94.3956 140.709 94.4703 141.269 94.4703 141.92ZM92.5343 142.032C92.5343 141.285 92.3956 140.731 92.1183 140.368C91.8409 139.995 91.4836 139.808 91.0463 139.808C90.7049 139.808 90.3903 139.909 90.1023 140.112C89.8249 140.304 89.5583 140.565 89.3023 140.896V144.208C89.5369 144.325 89.7609 144.411 89.9743 144.464C90.1876 144.517 90.4596 144.544 90.7903 144.544C91.2916 144.544 91.7076 144.341 92.0383 143.936C92.3689 143.52 92.5343 142.885 92.5343 142.032ZM98.2305 135.888C98.2305 136.208 98.1185 136.469 97.8945 136.672C97.6705 136.875 97.4038 136.976 97.0945 136.976C96.7745 136.976 96.5025 136.875 96.2785 136.672C96.0545 136.469 95.9425 136.208 95.9425 135.888C95.9425 135.557 96.0545 135.291 96.2785 135.088C96.5025 134.875 96.7745 134.768 97.0945 134.768C97.4038 134.768 97.6705 134.875 97.8945 135.088C98.1185 135.291 98.2305 135.557 98.2305 135.888ZM96.1185 146V138.272H98.0385V146H96.1185ZM105.894 145.408C105.52 145.653 105.126 145.84 104.71 145.968C104.304 146.085 103.846 146.144 103.334 146.144C102.8 146.144 102.31 146.059 101.862 145.888C101.414 145.707 101.024 145.451 100.694 145.12C100.374 144.779 100.123 144.363 99.9418 143.872C99.7604 143.371 99.6698 142.805 99.6698 142.176C99.6698 141.504 99.7658 140.917 99.9578 140.416C100.16 139.904 100.432 139.477 100.774 139.136C101.115 138.795 101.515 138.539 101.974 138.368C102.432 138.197 102.923 138.112 103.446 138.112C103.958 138.112 104.411 138.176 104.806 138.304C105.2 138.432 105.536 138.587 105.814 138.768L105.542 140.496C105.232 140.261 104.918 140.085 104.598 139.968C104.278 139.84 103.926 139.776 103.542 139.776C102.966 139.776 102.496 139.979 102.134 140.384C101.782 140.779 101.606 141.36 101.606 142.128C101.606 142.928 101.798 143.525 102.182 143.92C102.566 144.304 103.04 144.496 103.606 144.496C103.947 144.496 104.283 144.443 104.614 144.336C104.944 144.229 105.286 144.037 105.638 143.76L105.894 145.408Z" fill="#A3A6AA"/>
<rect x="271" y="131" width="18" height="18" rx="3" stroke="#B9BBBE" stroke-width="2"/>
<rect x="16" y="172" width="288" height="40" rx="8" fill="#202225"/>
<path fill-rule="evenodd" clip-rule="evenodd" d="M33.2554 195.75H29.875C29.5766 195.75 29.2905 195.631 29.0795 195.42C28.8685 195.209 28.75 194.923 28.75 194.625V190.499C28.75 189.107 29.3031 187.772 30.2877 186.787C31.2723 185.803 32.6076 185.25 34 185.25C35.3924 185.25 36.7277 185.803 37.7123 186.787C38.1563 187.231 38.5125 187.746 38.7699 188.306C39.9281 188.478 41.001 189.033 41.8124 189.89C42.7355 190.865 43.25 192.157 43.25 193.499V197.625C43.25 197.923 43.1315 198.209 42.9205 198.42C42.7095 198.631 42.4234 198.75 42.125 198.75H38C36.9142 198.749 35.8552 198.413 34.9686 197.786C34.2297 197.264 33.6408 196.562 33.2554 195.75ZM31.3483 187.848C32.0516 187.145 33.0054 186.75 34 186.75C34.9946 186.75 35.9484 187.145 36.6517 187.848C37.3549 188.551 37.75 189.505 37.75 190.5C37.75 191.494 37.3549 192.448 36.6517 193.151C35.9484 193.854 34.9946 194.25 34 194.25H33.7621C33.7581 194.249 33.7541 194.249 33.7501 194.25H30.25V190.5C30.25 189.505 30.6451 188.551 31.3483 187.848ZM34.9376 195.665C35.1821 196.011 35.4847 196.314 35.8344 196.561C36.4678 197.009 37.2244 197.25 38 197.25H41.75V193.5C41.75 192.54 41.3825 191.618 40.7231 190.921C40.3043 190.479 39.788 190.149 39.2216 189.954C39.2404 190.134 39.25 190.316 39.25 190.5C39.25 191.892 38.6969 193.227 37.7123 194.212C36.9516 194.972 35.9816 195.476 34.9376 195.665Z" fill="white"/>
<path d="M53.696 200.976V197.136C53.44 197.392 53.1307 197.627 52.768 197.84C52.416 198.053 51.9947 198.16 51.504 198.16C51.0987 198.16 50.7147 198.085 50.352 197.936C50 197.776 49.6907 197.541 49.424 197.232C49.168 196.923 48.9653 196.528 48.816 196.048C48.6667 195.568 48.592 195.003 48.592 194.352C48.592 193.637 48.6827 193.019 48.864 192.496C49.056 191.973 49.3173 191.541 49.648 191.2C49.9893 190.859 50.3947 190.603 50.864 190.432C51.344 190.261 51.872 190.176 52.448 190.176C53.056 190.176 53.616 190.224 54.128 190.32C54.64 190.405 55.136 190.528 55.616 190.688V200.688L53.696 200.976ZM53.696 191.968C53.4933 191.893 53.3067 191.84 53.136 191.808C52.976 191.765 52.7573 191.744 52.48 191.744C51.872 191.744 51.392 191.941 51.04 192.336C50.688 192.72 50.512 193.355 50.512 194.24C50.512 194.997 50.6507 195.557 50.928 195.92C51.2053 196.272 51.5627 196.448 52 196.448C52.32 196.448 52.6187 196.357 52.896 196.176C53.184 195.984 53.4507 195.744 53.696 195.456V191.968ZM62.4978 198L62.3218 196.912C61.9591 197.253 61.5644 197.547 61.1378 197.792C60.7218 198.037 60.2578 198.16 59.7458 198.16C59.0098 198.16 58.4551 197.957 58.0818 197.552C57.7191 197.136 57.5378 196.56 57.5378 195.824V190.272H59.4578V195.328C59.4578 195.669 59.5324 195.941 59.6818 196.144C59.8418 196.347 60.0924 196.448 60.4338 196.448C60.7431 196.448 61.0471 196.363 61.3458 196.192C61.6444 196.011 61.9324 195.776 62.2098 195.488V190.272H64.1298V198H62.4978ZM72.5494 197.216C72.1334 197.504 71.6694 197.733 71.1574 197.904C70.656 198.075 70.0907 198.16 69.4614 198.16C68.9174 198.16 68.416 198.085 67.9574 197.936C67.4987 197.776 67.0987 197.531 66.7574 197.2C66.4267 196.869 66.1654 196.453 65.9734 195.952C65.7814 195.44 65.6854 194.837 65.6854 194.144C65.6854 193.515 65.7707 192.955 65.9414 192.464C66.1227 191.963 66.368 191.541 66.6774 191.2C66.9974 190.848 67.3707 190.581 67.7974 190.4C68.2347 190.208 68.704 190.112 69.2054 190.112C69.7814 190.112 70.2827 190.213 70.7094 190.416C71.136 190.619 71.4827 190.901 71.7494 191.264C72.0267 191.616 72.2294 192.032 72.3574 192.512C72.496 192.992 72.5654 193.504 72.5654 194.048C72.5654 194.133 72.56 194.219 72.5494 194.304C72.5494 194.389 72.5494 194.459 72.5494 194.512H67.5734C67.6267 195.28 67.84 195.835 68.2134 196.176C68.5867 196.507 69.072 196.672 69.6694 196.672C70.1707 196.672 70.6294 196.587 71.0454 196.416C71.472 196.245 71.8987 196.011 72.3254 195.712L72.5494 197.216ZM69.1574 191.44C68.7734 191.44 68.4374 191.595 68.1494 191.904C67.8614 192.213 67.68 192.683 67.6054 193.312H70.6934C70.6294 192.704 70.4747 192.24 70.2294 191.92C69.984 191.6 69.6267 191.44 69.1574 191.44ZM79.8446 195.728C79.8446 196.496 79.578 197.093 79.0446 197.52C78.522 197.947 77.7486 198.16 76.7246 198.16C76.1593 198.16 75.61 198.085 75.0766 197.936C74.5433 197.787 74.09 197.611 73.7166 197.408L73.9726 195.808C74.3886 196.085 74.842 196.309 75.3326 196.48C75.8233 196.64 76.3086 196.72 76.7886 196.72C77.2046 196.72 77.5193 196.651 77.7326 196.512C77.9566 196.363 78.0686 196.16 78.0686 195.904C78.0686 195.765 78.042 195.648 77.9886 195.552C77.946 195.445 77.866 195.355 77.7486 195.28C77.6313 195.195 77.4713 195.12 77.2686 195.056C77.066 194.981 76.81 194.907 76.5006 194.832C76.0313 194.715 75.626 194.587 75.2846 194.448C74.954 194.309 74.682 194.149 74.4686 193.968C74.2553 193.776 74.0953 193.557 73.9886 193.312C73.8926 193.056 73.8446 192.752 73.8446 192.4C73.8446 191.728 74.09 191.179 74.5806 190.752C75.082 190.325 75.786 190.112 76.6926 190.112C77.2046 190.112 77.6846 190.16 78.1326 190.256C78.5913 190.352 79.0126 190.485 79.3966 190.656L79.1406 192.256C78.7566 192.043 78.346 191.872 77.9086 191.744C77.482 191.616 77.0766 191.552 76.6926 191.552C76.33 191.552 76.058 191.616 75.8766 191.744C75.706 191.872 75.6206 192.043 75.6206 192.256C75.6206 192.363 75.642 192.459 75.6846 192.544C75.7273 192.629 75.802 192.709 75.9086 192.784C76.0153 192.859 76.1593 192.933 76.3406 193.008C76.5326 193.072 76.7726 193.141 77.0606 193.216C77.562 193.344 77.9886 193.477 78.3406 193.616C78.6926 193.755 78.9806 193.92 79.2046 194.112C79.4286 194.304 79.5886 194.533 79.6846 194.8C79.7913 195.056 79.8446 195.365 79.8446 195.728ZM85.4954 198C85.346 198.032 85.1754 198.059 84.9834 198.08C84.7914 198.112 84.5567 198.128 84.2794 198.128C83.8954 198.128 83.5487 198.091 83.2394 198.016C82.93 197.941 82.6634 197.813 82.4394 197.632C82.2154 197.451 82.0394 197.211 81.9114 196.912C81.794 196.613 81.7354 196.245 81.7354 195.808V191.84H80.6474V190.272H81.7354V187.824L83.6234 187.536V190.272H85.2074L85.4474 191.84H83.6234V195.488C83.6234 195.797 83.698 196.037 83.8474 196.208C84.0074 196.368 84.274 196.448 84.6474 196.448C84.8927 196.448 85.0954 196.427 85.2554 196.384L85.4954 198ZM89.1211 187.888C89.1211 188.208 89.0091 188.469 88.7851 188.672C88.5611 188.875 88.2945 188.976 87.9851 188.976C87.6651 188.976 87.3931 188.875 87.1691 188.672C86.9451 188.469 86.8331 188.208 86.8331 187.888C86.8331 187.557 86.9451 187.291 87.1691 187.088C87.3931 186.875 87.6651 186.768 87.9851 186.768C88.2945 186.768 88.5611 186.875 88.7851 187.088C89.0091 187.291 89.1211 187.557 89.1211 187.888ZM87.0091 198V190.272H88.9291V198H87.0091ZM97.8404 194.144C97.8404 194.773 97.7497 195.339 97.5684 195.84C97.387 196.331 97.131 196.752 96.8004 197.104C96.4697 197.445 96.0804 197.707 95.6324 197.888C95.1844 198.069 94.699 198.16 94.1764 198.16C93.6537 198.16 93.1684 198.069 92.7204 197.888C92.283 197.707 91.9044 197.445 91.5844 197.104C91.2644 196.752 91.0137 196.331 90.8324 195.84C90.651 195.339 90.5604 194.773 90.5604 194.144C90.5604 193.515 90.651 192.955 90.8324 192.464C91.0137 191.963 91.2644 191.541 91.5844 191.2C91.915 190.848 92.299 190.581 92.7364 190.4C93.1844 190.208 93.6697 190.112 94.1924 190.112C94.715 190.112 95.2004 190.208 95.6484 190.4C96.0964 190.581 96.4804 190.848 96.8004 191.2C97.131 191.541 97.387 191.963 97.5684 192.464C97.7497 192.955 97.8404 193.515 97.8404 194.144ZM95.9684 194.144C95.9684 193.429 95.8137 192.843 95.5044 192.384C95.195 191.915 94.7524 191.68 94.1764 191.68C93.6004 191.68 93.163 191.909 92.8644 192.368C92.5764 192.827 92.4324 193.419 92.4324 194.144C92.4324 194.848 92.5817 195.435 92.8804 195.904C93.179 196.363 93.611 196.592 94.1764 196.592C94.7737 196.592 95.2217 196.368 95.5204 195.92C95.819 195.461 95.9684 194.869 95.9684 194.144ZM104.07 198V192.944C104.07 192.603 103.99 192.331 103.83 192.128C103.681 191.915 103.43 191.808 103.078 191.808C102.769 191.808 102.465 191.899 102.166 192.08C101.878 192.251 101.595 192.485 101.318 192.784V198H99.3979V190.272H101.03L101.206 191.36C101.569 191.019 101.958 190.725 102.374 190.48C102.79 190.235 103.259 190.112 103.782 190.112C104.507 190.112 105.057 190.32 105.43 190.736C105.803 191.141 105.99 191.707 105.99 192.432V198H104.07ZM107.69 194.32V192.48H111.85V194.32H107.69ZM118.066 198L117.906 196.992C117.596 197.323 117.234 197.6 116.818 197.824C116.402 198.048 115.906 198.16 115.33 198.16C114.668 198.16 114.135 197.973 113.73 197.6C113.335 197.216 113.138 196.688 113.138 196.016C113.138 195.077 113.522 194.384 114.29 193.936C115.058 193.477 116.226 193.173 117.794 193.024V192.8C117.794 192.384 117.676 192.091 117.442 191.92C117.218 191.739 116.892 191.648 116.466 191.648C116.018 191.648 115.58 191.707 115.154 191.824C114.727 191.941 114.306 192.091 113.89 192.272L113.65 190.736C114.098 190.555 114.567 190.405 115.058 190.288C115.548 190.171 116.103 190.112 116.722 190.112C117.724 190.112 118.471 190.315 118.962 190.72C119.463 191.115 119.714 191.776 119.714 192.704V198H118.066ZM117.794 194.144C117.239 194.208 116.78 194.299 116.418 194.416C116.066 194.533 115.788 194.667 115.586 194.816C115.383 194.955 115.239 195.109 115.154 195.28C115.079 195.451 115.042 195.627 115.042 195.808C115.042 196.085 115.122 196.304 115.282 196.464C115.452 196.624 115.687 196.704 115.986 196.704C116.316 196.704 116.631 196.635 116.93 196.496C117.239 196.347 117.527 196.139 117.794 195.872V194.144ZM126.289 198V192.944C126.289 192.603 126.209 192.331 126.049 192.128C125.899 191.915 125.649 191.808 125.297 191.808C124.987 191.808 124.683 191.899 124.385 192.08C124.097 192.251 123.814 192.485 123.537 192.784V198H121.617V190.272H123.249L123.425 191.36C123.787 191.019 124.177 190.725 124.593 190.48C125.009 190.235 125.478 190.112 126.001 190.112C126.726 190.112 127.275 190.32 127.649 190.736C128.022 191.141 128.209 191.707 128.209 192.432V198H126.289ZM135.86 195.728C135.86 196.496 135.594 197.093 135.06 197.52C134.538 197.947 133.764 198.16 132.74 198.16C132.175 198.16 131.626 198.085 131.092 197.936C130.559 197.787 130.106 197.611 129.732 197.408L129.988 195.808C130.404 196.085 130.858 196.309 131.348 196.48C131.839 196.64 132.324 196.72 132.804 196.72C133.22 196.72 133.535 196.651 133.748 196.512C133.972 196.363 134.084 196.16 134.084 195.904C134.084 195.765 134.058 195.648 134.004 195.552C133.962 195.445 133.882 195.355 133.764 195.28C133.647 195.195 133.487 195.12 133.284 195.056C133.082 194.981 132.826 194.907 132.516 194.832C132.047 194.715 131.642 194.587 131.3 194.448C130.97 194.309 130.698 194.149 130.484 193.968C130.271 193.776 130.111 193.557 130.004 193.312C129.908 193.056 129.86 192.752 129.86 192.4C129.86 191.728 130.106 191.179 130.596 190.752C131.098 190.325 131.802 190.112 132.708 190.112C133.22 190.112 133.7 190.16 134.148 190.256C134.607 190.352 135.028 190.485 135.412 190.656L135.156 192.256C134.772 192.043 134.362 191.872 133.924 191.744C133.498 191.616 133.092 191.552 132.708 191.552C132.346 191.552 132.074 191.616 131.892 191.744C131.722 191.872 131.636 192.043 131.636 192.256C131.636 192.363 131.658 192.459 131.7 192.544C131.743 192.629 131.818 192.709 131.924 192.784C132.031 192.859 132.175 192.933 132.356 193.008C132.548 193.072 132.788 193.141 133.076 193.216C133.578 193.344 134.004 193.477 134.356 193.616C134.708 193.755 134.996 193.92 135.22 194.112C135.444 194.304 135.604 194.533 135.7 194.8C135.807 195.056 135.86 195.365 135.86 195.728ZM145.226 198.016H143.466L142.042 192.912L140.65 198.016H138.89L136.586 190.416L138.538 190.16L139.898 195.392L141.29 190.272H142.986L144.378 195.376L145.706 190.272H147.53L145.226 198.016ZM155.065 197.216C154.649 197.504 154.185 197.733 153.673 197.904C153.172 198.075 152.606 198.16 151.977 198.16C151.433 198.16 150.932 198.085 150.473 197.936C150.014 197.776 149.614 197.531 149.273 197.2C148.942 196.869 148.681 196.453 148.489 195.952C148.297 195.44 148.201 194.837 148.201 194.144C148.201 193.515 148.286 192.955 148.457 192.464C148.638 191.963 148.884 191.541 149.193 191.2C149.513 190.848 149.886 190.581 150.313 190.4C150.75 190.208 151.22 190.112 151.721 190.112C152.297 190.112 152.798 190.213 153.225 190.416C153.652 190.619 153.998 190.901 154.265 191.264C154.542 191.616 154.745 192.032 154.873 192.512C155.012 192.992 155.081 193.504 155.081 194.048C155.081 194.133 155.076 194.219 155.065 194.304C155.065 194.389 155.065 194.459 155.065 194.512H150.089C150.142 195.28 150.356 195.835 150.729 196.176C151.102 196.507 151.588 196.672 152.185 196.672C152.686 196.672 153.145 196.587 153.561 196.416C153.988 196.245 154.414 196.011 154.841 195.712L155.065 197.216ZM151.673 191.44C151.289 191.44 150.953 191.595 150.665 191.904C150.377 192.213 150.196 192.683 150.121 193.312H153.209C153.145 192.704 152.99 192.24 152.745 191.92C152.5 191.6 152.142 191.44 151.673 191.44ZM161.288 192.016C160.68 192.059 160.142 192.224 159.672 192.512C159.203 192.8 158.83 193.152 158.552 193.568V198H156.632V190.272H158.264L158.504 191.824C158.76 191.376 159.086 190.987 159.48 190.656C159.875 190.325 160.376 190.144 160.984 190.112L161.288 192.016ZM168.126 195.728C168.126 196.496 167.859 197.093 167.326 197.52C166.803 197.947 166.03 198.16 165.006 198.16C164.441 198.16 163.891 198.085 163.358 197.936C162.825 197.787 162.371 197.611 161.998 197.408L162.254 195.808C162.67 196.085 163.123 196.309 163.614 196.48C164.105 196.64 164.59 196.72 165.07 196.72C165.486 196.72 165.801 196.651 166.014 196.512C166.238 196.363 166.35 196.16 166.35 195.904C166.35 195.765 166.323 195.648 166.27 195.552C166.227 195.445 166.147 195.355 166.03 195.28C165.913 195.195 165.753 195.12 165.55 195.056C165.347 194.981 165.091 194.907 164.782 194.832C164.313 194.715 163.907 194.587 163.566 194.448C163.235 194.309 162.963 194.149 162.75 193.968C162.537 193.776 162.377 193.557 162.27 193.312C162.174 193.056 162.126 192.752 162.126 192.4C162.126 191.728 162.371 191.179 162.862 190.752C163.363 190.325 164.067 190.112 164.974 190.112C165.486 190.112 165.966 190.16 166.414 190.256C166.873 190.352 167.294 190.485 167.678 190.656L167.422 192.256C167.038 192.043 166.627 191.872 166.19 191.744C165.763 191.616 165.358 191.552 164.974 191.552C164.611 191.552 164.339 191.616 164.158 191.744C163.987 191.872 163.902 192.043 163.902 192.256C163.902 192.363 163.923 192.459 163.966 192.544C164.009 192.629 164.083 192.709 164.19 192.784C164.297 192.859 164.441 192.933 164.622 193.008C164.814 193.072 165.054 193.141 165.342 193.216C165.843 193.344 166.27 193.477 166.622 193.616C166.974 193.755 167.262 193.92 167.486 194.112C167.71 194.304 167.87 194.533 167.966 194.8C168.073 195.056 168.126 195.365 168.126 195.728Z" fill="white"/>
<rect x="270" y="182" width="20" height="20" rx="4" fill="#5865F2"/>
<path d="M277.75 195.127L274.623 192L273.558 193.057L277.75 197.25L286.75 188.25L285.693 187.192L277.75 195.127Z" fill="white"/>
</svg>
