<svg width="219" height="150" viewBox="0 0 219 150" fill="none" xmlns="http://www.w3.org/2000/svg">
<g clip-path="url(#clip0_657_35315)">
<path d="M147.754 13.5778C148.749 13.5778 149.556 12.7643 149.556 11.7608C149.556 10.7573 148.749 9.94385 147.754 9.94385C146.759 9.94385 145.952 10.7573 145.952 11.7608C145.952 12.7643 146.759 13.5778 147.754 13.5778Z" fill="#FFD736"/>
<path d="M170.312 14.5804C167.688 11.226 163.892 9.01001 159.701 8.38609C155.511 7.76218 151.242 8.7776 147.769 11.2244C144.323 13.717 141.954 17.4455 141.148 21.6443C140.342 25.8432 141.161 30.1938 143.437 33.8028C144.629 35.7225 146.198 37.377 148.046 38.665C149.894 39.9531 151.982 40.8477 154.185 41.2942C156.387 41.7407 158.657 41.7297 160.855 41.2619C163.053 40.7942 165.133 39.8795 166.969 38.5736C168.802 37.26 170.351 35.5829 171.519 33.645C172.688 31.7071 173.452 29.5491 173.765 27.303C174.078 25.057 173.933 22.7702 173.339 20.5826C172.745 18.395 171.715 16.3526 170.312 14.5804Z" fill="#1D2CC2"/>
<path d="M178.705 18.8302C186.661 8.78209 187.646 2.86941 179.434 0.908453C174.251 -0.278909 168.873 -0.302629 163.68 0.838958C161.619 1.32799 159.679 2.24206 157.985 3.52363C156.29 4.8052 154.877 6.42654 153.834 8.28565C147.607 19.1032 146.839 22.7968 146.839 22.7968L178.705 18.8302Z" fill="#FF78B9"/>
<path d="M172.31 13.2402C176.869 13.2402 176.785 14.7891 176.529 16.6161C176.273 18.443 172.31 13.2402 172.31 13.2402Z" fill="black"/>
<path d="M179.438 0.908213C174.256 -0.278178 168.878 -0.301897 163.685 0.838718C161.623 1.32776 159.684 2.24182 157.989 3.52339C156.295 4.80496 154.882 6.4263 153.839 8.28541C147.611 19.103 146.843 22.7965 146.843 22.7965L178.705 18.825C186.661 8.78683 187.645 2.86917 179.438 0.908213ZM177.627 18.115L148.581 21.7738C148.581 21.7738 149.566 18.4328 155.862 8.78185C157.959 5.55664 161.231 3.2935 164.97 2.48195C169.554 1.48587 174.298 1.50789 178.872 2.54649C186.213 4.1798 184.396 8.33008 177.627 18.115Z" fill="#EB459F"/>
<path d="M179.625 49.9178C190.683 48.7214 199.372 50.1809 195.817 72.3522C194.887 78.1606 194.074 83.3683 193.356 87.891C200.248 94.1214 199.445 104.874 194.084 110.727C188.723 116.581 182.028 112.058 178.247 104.621C174.466 97.1844 171.438 89.3704 171.438 89.3704L179.625 49.9178Z" fill="#459FF7"/>
<path d="M139.567 47.9267C142.151 42.4013 142.265 37.2184 142.161 32.5965C142.078 29.8097 142.559 27.0349 143.575 24.4418C144.59 21.8487 146.12 19.4916 148.069 17.5144C152.992 12.5996 158.491 11.8599 163.517 11.5571C172.517 10.9862 190.919 18.7456 184.637 49.7834C180.753 68.8966 175.072 91.2367 175.072 91.2367C175.072 91.2367 194.045 126.236 156.561 126.236C128.446 126.236 121.504 122.761 117.925 112.832C115.442 105.795 115.411 98.1152 117.837 91.058C126.944 64.1059 133.359 61.2067 139.567 47.9267Z" fill="#459FF7"/>
<path d="M163.522 11.5374C158.988 11.8303 154.085 12.4707 149.536 16.204L149.566 16.2288C171.596 20.9252 171.754 26.1875 180.379 19.4855C175.411 13.1955 168.199 11.2445 163.522 11.5374Z" fill="#2A88E6"/>
<path d="M127.712 71.6222L135.791 63.0337C135.873 62.9357 135.985 62.8683 136.11 62.8424C136.234 62.8164 136.364 62.8335 136.477 62.8908C136.591 62.9482 136.682 63.0424 136.736 63.1583C136.79 63.2743 136.804 63.4053 136.776 63.5301C134.314 77.2072 133.955 83.1 133.955 83.1L127.732 71.6172" fill="black"/>
<path d="M162.439 18.2591C162.688 17.4569 162.792 16.616 162.744 15.7769" stroke="black" stroke-width="0.871974" stroke-linecap="round" stroke-linejoin="round"/>
<path d="M163.144 18.4829C163.628 17.8005 163.989 17.0376 164.212 16.229" stroke="black" stroke-width="0.871974" stroke-linecap="round" stroke-linejoin="round"/>
<path d="M163.208 18.4778C164.015 18.2751 164.78 17.9288 165.467 17.4551" stroke="black" stroke-width="0.871974" stroke-linecap="round" stroke-linejoin="round"/>
<path d="M174.663 19.3364C174.836 18.6694 174.889 17.9768 174.821 17.291" stroke="black" stroke-width="0.871974" stroke-linecap="round" stroke-linejoin="round"/>
<path d="M175.372 19.4856C175.745 18.9092 176.014 18.2704 176.165 17.5991" stroke="black" stroke-width="0.871974" stroke-linecap="round" stroke-linejoin="round"/>
<path d="M175.426 19.4756C176.082 19.2815 176.698 18.9686 177.243 18.5522" stroke="black" stroke-width="0.871974" stroke-linecap="round" stroke-linejoin="round"/>
<path d="M156.561 126.236C181.718 126.236 181.447 110.484 178.548 100.118C158.969 94.8458 133.994 93.6196 116.163 99.0706C115.749 103.734 116.351 108.432 117.926 112.837C121.505 122.771 128.446 126.236 156.561 126.236Z" fill="#3442D9"/>
<path d="M167.431 132.779C166.539 132.517 165.756 131.971 165.197 131.223C164.638 130.475 164.334 129.565 164.329 128.629C164.3 120.383 164.384 97.5514 165.954 82.6927C168.544 62.676 179.832 63.7633 184.42 64.9597C191.992 66.9455 193.636 73.8411 191.396 86.0189C188.927 99.4694 188.142 113.179 189.058 126.827C189.134 128.084 188.795 129.33 188.094 130.372C187.393 131.414 186.37 132.193 185.183 132.586C179.025 134.641 173.678 134.651 167.431 132.779Z" fill="#3442D9"/>
<path d="M189.058 126.827C189.014 126.137 188.979 125.447 188.945 124.767C188.615 123.655 183.672 123.193 180.241 124.474C173.55 126.956 169.479 128.267 164.325 127.621C164.325 127.974 164.325 128.316 164.325 128.614C164.329 129.551 164.633 130.461 165.192 131.209C165.751 131.957 166.535 132.502 167.426 132.765C173.673 134.636 179.02 134.626 185.198 132.571C186.379 132.176 187.398 131.399 188.096 130.36C188.794 129.322 189.132 128.079 189.058 126.827Z" fill="#1D2CC2"/>
<path d="M166.181 130.595V137.476C166.177 138.203 166.399 138.913 166.816 139.506C168.51 141.879 170.996 142.366 173.132 142.485C174.12 142.539 175.065 142.91 175.83 143.542C179.444 146.521 180.852 147.41 189.073 147.36C198.171 147.3 196.211 143.781 195.773 141.274C196.841 138.161 197.595 132.551 187.621 133.033C186.859 131.327 185.97 129.683 184.962 128.113C179.444 127.974 175.161 132.213 166.181 130.595Z" fill="#FFC619"/>
<path d="M170.415 142.867C172.612 143.172 174.712 143.979 176.554 145.225C180.193 147.67 184.578 148.726 188.92 148.204C198.274 147.256 196.192 143.781 195.734 141.284C195.872 141.929 192.514 144.659 185.139 143.994C178.74 143.413 176.682 140.767 172.615 140.474C168.549 140.182 166.329 140.087 164.822 137.992C164.81 138.799 165.069 139.586 165.556 140.226C166.153 140.967 166.89 141.582 167.724 142.035C168.558 142.488 169.472 142.771 170.415 142.867Z" fill="black"/>
<path d="M187.153 132.114C184.199 132.248 179.68 132.655 179.635 132.655C179.515 132.667 179.404 132.725 179.326 132.818C179.248 132.911 179.209 133.03 179.217 133.152C179.227 133.268 179.279 133.376 179.364 133.455C179.448 133.534 179.559 133.578 179.675 133.579H179.719C179.768 133.579 184.726 133.127 187.596 133.023C187.433 132.705 187.281 132.407 187.153 132.114Z" fill="black"/>
<path d="M167.461 88.258C168.672 80.7468 171.444 75.1966 173.718 73.1016" stroke="black" stroke-width="0.871974" stroke-linecap="round" stroke-linejoin="round"/>
<path d="M168.381 131.618C168.965 131.202 169.428 130.637 169.723 129.981C170.018 129.325 170.134 128.601 170.06 127.885C168.465 111.71 168.091 91.1476 167.943 78.3244C167.81 66.1516 161.809 64.9601 157.068 64.9601C152.327 64.9601 148.158 64.8509 143.904 71.1408C139.651 77.4308 130.804 87.3945 120.274 117.534L146.011 114.059C146.011 120.557 145.519 125.631 145.923 132.124C145.962 132.748 146.187 133.346 146.568 133.839C146.949 134.332 147.469 134.698 148.059 134.889C155.645 137.372 163.581 135.004 168.381 131.618Z" fill="#3442D9"/>
<path d="M145.8 128.639C145.8 129.766 145.864 130.923 145.932 132.114C145.972 132.738 146.197 133.336 146.578 133.829C146.959 134.322 147.479 134.688 148.069 134.879C155.69 137.362 163.606 134.989 168.406 131.603C168.989 131.187 169.452 130.622 169.748 129.966C170.043 129.31 170.159 128.586 170.085 127.87C169.952 126.499 169.824 125.099 169.706 123.68C166.679 123.509 163.653 124.018 160.844 125.169C154.208 127.84 150.432 129.175 145.8 128.639Z" fill="#1D2CC2"/>
<path d="M168.869 131.618C169.454 131.203 169.918 130.639 170.213 129.982C170.508 129.326 170.624 128.601 170.547 127.884C169.144 113.627 168.701 96.1417 168.514 83.3682" stroke="black" stroke-width="0.871974" stroke-linecap="round" stroke-linejoin="round"/>
<path d="M120.259 97.8245C121.308 109.61 123.705 113.651 127.712 111.492C133.261 108.478 144.062 92.8302 150.107 79.2227C148.768 86.3913 149.723 115.741 150.476 128.118C150.688 131.548 150.792 134.924 153.194 135.976" stroke="#1573D1" stroke-width="0.871974" stroke-linecap="round" stroke-linejoin="round"/>
<path d="M165.521 28.6556C167.327 28.1539 168.111 25.2551 167.271 22.1808C166.431 19.1066 164.286 17.0212 162.48 17.5228C160.674 18.0245 159.891 20.9233 160.731 23.9975C161.57 27.0717 163.715 29.1572 165.521 28.6556Z" fill="white"/>
<path d="M154.365 24.4995C159.028 23.0797 164.472 24.5888 168.81 28.2824L165.491 30.437L154.365 24.4995Z" fill="#459FF7"/>
<path d="M165.547 24.8928C166.346 24.6707 166.693 23.3849 166.32 22.021C165.947 20.657 164.997 19.7313 164.198 19.9534C163.398 20.1754 163.052 21.4612 163.425 22.8252C163.797 24.1891 164.748 25.1148 165.547 24.8928Z" fill="black"/>
<path d="M178.487 28.6822C179.851 28.1364 180.032 25.3386 178.889 22.433C177.747 19.5275 175.714 17.6145 174.349 18.1603C172.984 18.706 172.804 21.5038 173.947 24.4094C175.089 27.3149 177.122 29.2279 178.487 28.6822Z" fill="white"/>
<path d="M172.655 36.5581C172.8 36.6582 172.971 36.7118 173.147 36.7118C173.323 36.7118 173.494 36.6582 173.639 36.5581C179.547 32.244 182.53 31.9213 182.53 36.9304C182.53 42.0835 178.676 49.6395 172.123 49.6395C165.571 49.6395 159.402 45.9707 157.231 39.507C155.06 33.0433 159.2 30.6603 163.35 31.7327C166.777 32.5915 171.188 35.5305 172.655 36.5581Z" fill="black"/>
<path d="M166.476 40.5398C168.224 39.2093 171.06 39.5916 172.876 40.927C174.693 42.2625 177.115 44.8539 175.013 47.217C172.911 49.5801 168.15 48.3638 165.61 46.1844C163.07 44.005 160.992 42.3171 161.263 40.7235C161.534 39.1299 163.06 38.8519 166.476 40.5398Z" fill="#FF78B9"/>
<path d="M177.372 24.8664C177.938 24.6401 178.012 23.4772 177.538 22.269C177.063 21.0608 176.219 20.2649 175.653 20.4911C175.086 20.7174 175.012 21.8803 175.487 23.0885C175.962 24.2967 176.806 25.0927 177.372 24.8664Z" fill="black"/>
<path d="M151.215 28.0742C148.635 29.7969 145.391 33.2869 145.416 40.1428" stroke="#2A88E6" stroke-width="0.871974" stroke-linecap="round" stroke-linejoin="round"/>
<path d="M145.8 126.018C146.356 103.494 148.296 74.3872 148.296 74.3872" stroke="black" stroke-width="0.871974" stroke-linecap="round" stroke-linejoin="round"/>
<path d="M148.182 134.155V139.358C148.17 140.164 148.429 140.952 148.916 141.592C150.131 143.076 151.88 144.015 153.78 144.203C155.977 144.503 158.076 145.31 159.914 146.561C162.671 148.462 164.866 149.043 172.088 148.855C181.605 148.596 179.384 145.24 179.094 142.619C180.211 139.482 180.999 133.857 170.572 134.562C169.774 132.871 168.845 131.246 167.796 129.702C162.045 129.702 157.57 135.58 148.182 134.155Z" fill="#FFE75C"/>
<path d="M150.516 134.368C152.062 136.23 152.377 139.169 152.421 142.192C152.421 142.324 152.473 142.45 152.565 142.543C152.658 142.636 152.783 142.689 152.913 142.689C153.044 142.689 153.169 142.636 153.261 142.543C153.354 142.45 153.406 142.324 153.406 142.192C153.376 140.206 153.327 136.836 151.727 134.378C151.333 134.378 150.929 134.378 150.516 134.368Z" fill="#FFC619"/>
<path d="M147.606 86.3069C148.76 82.0677 150.44 77.9926 152.608 74.1787" stroke="black" stroke-width="0.871974" stroke-linecap="round" stroke-linejoin="round"/>
<path d="M153.78 144.203C155.977 144.503 158.076 145.31 159.914 146.561C163.556 149.003 167.942 150.059 172.285 149.54C181.639 148.586 179.552 145.116 179.094 142.589C179.237 143.235 175.879 145.97 168.5 145.305C162.1 144.724 160.047 142.078 155.976 141.785C151.904 141.492 149.689 141.398 148.182 139.328C148.182 139.983 148.182 140.747 148.232 141.358C148.247 141.756 148.375 142.141 148.6 142.468C148.825 142.795 149.138 143.051 149.502 143.205C150.884 143.706 152.32 144.041 153.78 144.203Z" fill="black"/>
<path d="M170.11 133.648C167.156 133.778 162.636 134.185 162.592 134.19C162.471 134.2 162.359 134.257 162.28 134.35C162.2 134.443 162.161 134.564 162.169 134.686C162.186 134.799 162.241 134.903 162.325 134.98C162.41 135.057 162.518 135.102 162.632 135.108H162.671C162.725 135.108 167.683 134.656 170.572 134.552C170.415 134.234 170.257 133.931 170.11 133.648Z" fill="black"/>
<path d="M180.856 83.1896C183.104 82.1394 185.498 81.4445 187.955 81.1294" stroke="#4653DB" stroke-width="0.871974" stroke-miterlimit="10" stroke-linecap="round"/>
<path d="M157.226 82.1569C159.474 81.1091 161.868 80.4143 164.325 80.0967" stroke="#4653DB" stroke-width="0.871974" stroke-miterlimit="10" stroke-linecap="round"/>
<path d="M175.072 13.25C175.072 9.57629 169.11 10.4947 165.994 10.6933C161.494 10.9812 154.695 11.2841 149.644 16.1194L149.571 16.2287C153.263 12.7982 166.968 13.25 175.072 13.25Z" fill="#FF78B9"/>
<path d="M149.571 16.2289C150.308 15.6045 151.161 15.1352 152.081 14.8488C152.273 14.5211 152.475 14.1736 152.692 13.8212C152.692 12.8779 152.199 12.719 151.801 13.007C151.18 13.4538 150.457 14.7793 149.644 16.1197L149.571 16.2289Z" fill="#EB459F"/>
<path d="M184.691 49.6198C184.129 52.5581 183.336 55.4466 182.319 58.2579C182.286 58.3274 182.275 58.4055 182.288 58.4814C182.301 58.5573 182.337 58.6272 182.391 58.6817C182.445 58.7361 182.514 58.7723 182.589 58.7854C182.665 58.7984 182.742 58.7876 182.811 58.7544C185.243 57.7615 188.142 52.8616 189.521 50.2801C187.949 49.8352 186.324 49.613 184.691 49.6198Z" fill="black"/>
<path d="M12.3024 124.355C15.0839 125.184 18.786 125.492 22.5521 125.115C24.3216 124.929 26.0999 124.843 27.8788 124.856C29.4237 124.915 30.9701 124.791 32.4867 124.489C32.7304 124.42 32.9459 124.275 33.1017 124.074C33.2576 123.873 33.3457 123.627 33.3532 123.372V119.4L34.771 114.932C34.8488 114.681 34.839 114.411 34.7432 114.166C34.6473 113.921 34.4712 113.717 34.2442 113.587C30.2172 111.254 26.6923 110.445 21.9367 110.435C21.6435 110.432 21.3568 110.521 21.1155 110.689C20.8741 110.857 20.6899 111.096 20.5878 111.373C19.5146 114.302 18.786 116.039 18.3823 116.943C18.2664 117.201 18.0896 117.426 17.8673 117.6C17.645 117.773 17.3841 117.888 17.1072 117.936C14.4291 118.432 12.4205 118.125 11.5787 119.505C10.7369 120.885 10.7516 120.994 11.0864 122.955C11.1388 123.28 11.2806 123.583 11.4955 123.831C11.7105 124.078 11.9901 124.26 12.3024 124.355Z" fill="#29CC7A"/>
<path d="M11.0667 122.766C14.5128 123.576 19.9281 124.608 19.7804 123.084C19.5392 120.85 18.2297 120.771 14.9854 120.652C11.7411 120.532 11.2636 120.066 11.5787 119.54C10.8009 120.805 10.7516 121.024 11.0667 122.766Z" fill="#57F287"/>
<path d="M54.1136 98.4055L40.5409 93.9375C37.5609 92.9547 34.3197 93.1697 31.493 94.5376C28.6664 95.9055 26.4723 98.3208 25.3681 101.28L19.5393 116.853L31.261 121.321L36.9717 106.076L50.2638 110.424C51.8418 110.935 53.5559 110.795 55.0318 110.035C56.5077 109.275 57.6254 107.957 58.1406 106.368C58.6526 104.774 58.5161 103.04 57.761 101.547C57.0059 100.054 55.6941 98.9239 54.1136 98.4055Z" fill="#FFD736"/>
<path d="M36.1495 108.27L35.3865 110.3L31.261 121.322L19.5393 116.853L24.5362 103.524C24.3491 104.02 26.0672 105.634 29.0161 106.855C32.0782 108.116 35.8689 109.02 36.1495 108.27Z" fill="white"/>
<path d="M28.253 108.891C25.2992 107.669 23.586 106.056 23.7731 105.56L22.9756 107.679C22.7934 108.176 24.5116 109.789 27.4604 111.011C30.5078 112.272 34.3133 113.17 34.5939 112.42L35.3865 110.301C35.1059 111.05 31.3053 110.152 28.253 108.891Z" fill="#5865F2"/>
<path d="M33.9639 115.533L33.511 115.305C33.3879 115.637 31.9258 115.747 26.7665 114.62C21.6072 113.493 21.2527 112.282 21.3905 111.909L20.6373 112.262L19.2983 115.737C19.034 116.424 18.9304 117.163 18.9955 117.898C19.0605 118.632 19.2926 119.341 19.6735 119.97C20.0545 120.599 20.5741 121.131 21.1921 121.525C21.8101 121.919 22.5097 122.163 23.2367 122.24L31.0052 123.084L33.9639 115.533Z" fill="#29CC7A"/>
<path d="M27.8787 124.856C29.4236 124.914 30.97 124.791 32.4866 124.489C32.7303 124.42 32.9458 124.275 33.1017 124.074C33.2575 123.873 33.3456 123.627 33.3531 123.372V122.568C31.7826 122.9 27.9772 122.568 25.9095 122.568C23.8418 122.568 19.5096 123.312 16.1964 123.129C13.0063 122.955 11.1503 122.439 10.9485 122.076C10.9485 122.285 11.0026 122.424 11.106 123.005C11.1627 123.321 11.3041 123.615 11.515 123.856C11.7259 124.096 11.9982 124.274 12.3023 124.37C15.0838 125.184 18.7859 125.492 22.552 125.114C24.3215 124.929 26.0998 124.843 27.8787 124.856Z" fill="black"/>
<path d="M144.628 26.2524C144.601 27.3709 144.778 28.4848 145.15 29.5389C145.75 31.3396 145.939 33.2541 145.701 35.1388C145.646 35.6357 145.447 36.1053 145.129 36.4893C144.811 36.8732 144.389 37.1546 143.914 37.2983L132.355 40.704C131.936 40.8297 131.488 40.8155 131.078 40.6634C130.668 40.5112 130.318 40.2294 130.08 39.86C128.569 37.4622 127.067 32.3537 127.998 27.295C128.079 26.8534 128.28 26.4431 128.578 26.1093C128.876 25.7756 129.26 25.5313 129.686 25.4035L134.506 23.9688C134.698 22.2759 134.777 19.5007 134.811 17.4802C134.818 16.4689 135.186 15.4938 135.848 14.7341C136.51 13.9744 137.421 13.4811 138.415 13.3448C138.862 13.2874 139.313 13.2559 139.764 13.2505C140.361 13.2402 140.951 13.3918 141.47 13.6896C141.99 13.9874 142.421 14.4204 142.718 14.9434C144.377 17.9518 144.776 21.1936 144.628 26.2524Z" fill="#29CC7A"/>
<path d="M139.749 13.2502C139.298 13.2556 138.848 13.2871 138.4 13.3445C137.431 13.4741 136.54 13.9497 135.889 14.6849C136.707 13.692 138.843 14.7544 139.055 16.2289C139.267 17.7033 139.572 20.9054 140.202 22.1862C140.457 22.682 140.889 23.0609 141.412 23.2454C141.935 23.43 142.507 23.4063 143.013 23.1791C143.579 22.9706 143.19 18.3785 142.851 15.2012C142.806 15.1168 142.762 15.0275 142.713 14.9431C142.415 14.4186 141.983 13.9846 141.461 13.6867C140.94 13.3889 140.348 13.2381 139.749 13.2502Z" fill="#57F287"/>
<path d="M111.624 71.2253C111.195 71.226 110.768 71.1777 110.349 71.0814C108.856 70.7422 107.558 69.8204 106.738 68.5177C105.917 67.2151 105.642 65.6378 105.973 64.1311L111.88 37.6954C112.349 35.6461 113.376 33.7698 114.846 32.2785C116.316 30.7871 118.171 29.7401 120.2 29.2558L134.152 25.9743C134.892 25.7996 135.659 25.7738 136.409 25.8981C137.158 26.0224 137.877 26.2945 138.522 26.6988C139.168 27.1031 139.728 27.6318 140.171 28.2545C140.614 28.8772 140.931 29.5818 141.103 30.3281C141.276 31.0743 141.301 31.8473 141.177 32.6032C141.053 33.3591 140.782 34.0829 140.381 34.7334C139.98 35.3839 139.455 35.9482 138.837 36.3943C138.22 36.8403 137.521 37.1593 136.781 37.333L123.105 40.5499L117.246 66.668C116.96 67.9575 116.247 69.1106 115.226 69.9386C114.205 70.7665 112.935 71.2202 111.624 71.2253Z" fill="#FFD736"/>
<path d="M123.863 40.3317L136.761 37.2934C137.501 37.1197 138.2 36.8008 138.817 36.3547C139.435 35.9087 139.96 35.3443 140.361 34.6939C140.762 34.0434 141.033 33.3195 141.157 32.5637C141.281 31.8078 141.256 31.0347 141.083 30.2886C140.911 29.5423 140.594 28.8377 140.151 28.2149C139.708 27.5922 139.148 27.0636 138.502 26.6593C137.857 26.2549 137.138 25.9828 136.389 25.8585C135.639 25.7342 134.872 25.7601 134.132 25.9347L121.495 28.9134C123.016 28.556 125.463 31.7878 125.285 35.9133C125.108 40.0388 124.301 40.2274 123.863 40.3317Z" fill="white"/>
<path d="M126.556 27.7165L124.138 28.2824C125.66 27.925 128.111 31.1569 127.934 35.2823C127.757 39.4078 126.949 39.6014 126.506 39.7057L128.914 39.1397C129.352 39.0355 130.164 38.8419 130.341 34.7164C130.519 30.5909 128.077 27.3591 126.556 27.7165Z" fill="#5865F2"/>
<path d="M122.386 75.9665C125.295 100.903 105.411 122.742 77.7343 122.742C50.0572 122.742 28.5535 100.898 29.6119 75.9665C30.5965 52.996 50.6578 35.665 74.5048 35.665C98.3519 35.665 119.708 53.0109 122.386 75.9665Z" fill="#FF78B9"/>
<path d="M112.185 135.535C110.825 135.533 109.508 135.048 108.468 134.164C107.427 133.281 106.728 132.056 106.494 130.704C106.002 127.855 103.89 120.681 100.616 110.708C99.2524 112.629 98.0217 114.535 97.17 115.93C96.7779 116.586 96.2615 117.158 95.6503 117.613C95.039 118.068 94.3449 118.397 93.6075 118.582C92.8701 118.766 92.1039 118.802 91.3526 118.688C90.6014 118.574 89.8798 118.311 89.2292 117.916C88.5784 117.521 88.0113 117 87.5601 116.383C87.1089 115.767 86.7826 115.067 86.5997 114.323C86.4169 113.58 86.3811 112.807 86.4944 112.05C86.6076 111.292 86.8678 110.564 87.26 109.908C89.4198 106.317 91.8265 102.884 94.4623 99.6319C95.5038 98.379 96.8568 97.4277 98.3827 96.8756C99.9087 96.3234 101.553 96.1901 103.147 96.4894C104.734 96.7928 106.214 97.5163 107.434 98.5857C108.653 99.6551 109.569 101.032 110.088 102.576C113.16 111.765 116.98 123.759 117.861 128.714C118.123 130.238 117.774 131.804 116.892 133.069C116.01 134.334 114.666 135.194 113.155 135.46C112.834 135.513 112.51 135.538 112.185 135.535Z" fill="#FFD736"/>
<path d="M110.118 102.561C109.599 101.017 108.683 99.6403 107.464 98.5709C106.244 97.5014 104.764 96.778 103.176 96.4745C101.762 96.2099 100.306 96.2856 98.9262 96.6953C97.5464 97.1051 96.2819 97.8373 95.2356 98.8326C98.1303 99.3291 99.6663 100.53 101.084 103.013C101.569 103.848 102.26 104.543 103.09 105.029C103.92 105.515 104.86 105.777 105.82 105.788C107.76 105.784 109.685 106.12 111.511 106.781C111.038 105.326 110.566 103.916 110.118 102.561Z" fill="black"/>
<path d="M87.2894 109.894C83.8876 115.121 86.7971 119.981 89.9281 120.081C94.8512 120.239 96.7761 116.521 98.3219 114.123L87.2894 109.894Z" fill="#FFD736"/>
<path d="M112.185 135.535C112.515 135.533 112.845 135.504 113.17 135.445C114.68 135.179 116.024 134.319 116.907 133.054C117.789 131.789 118.138 130.223 117.876 128.699C117.256 125.129 115.095 117.916 112.781 110.727C112.53 109.938 111.398 108.89 107.858 109.481C104.318 110.072 101.261 112.658 101.586 113.671C104.308 122.111 106.056 128.143 106.509 130.699C106.741 132.049 107.438 133.274 108.475 134.158C109.513 135.042 110.827 135.529 112.185 135.535Z" fill="white"/>
<path d="M113.736 113.672C113.48 112.882 112.348 111.835 108.789 112.426C105.229 113.016 102.192 115.603 102.522 116.616L103.437 119.559C103.107 118.567 106.145 115.96 109.704 115.369C113.264 114.779 114.396 115.826 114.627 116.616L113.736 113.672Z" fill="#5865F2"/>
<path d="M120.466 143.969C112.855 143.969 110.846 141.532 108.911 137.664C108.911 137.664 105.687 137.247 104.54 135.316C104.381 135.033 104.303 134.712 104.313 134.388C104.348 132.899 104.525 130.719 104.525 130.719C104.525 130.719 104.279 129.463 103.462 126.484C103.35 126.082 103.388 125.653 103.57 125.278C103.751 124.902 104.063 124.608 104.446 124.449C107.602 123.203 113.248 121.649 116.995 122.602C117.331 122.69 117.637 122.87 117.879 123.121C118.121 123.372 118.29 123.686 118.368 124.027C118.718 125.516 119.353 128.306 119.781 130.044C120.372 132.526 120.5 132.601 123.917 134.725C127.333 136.85 127.53 138.201 126.984 140.961C126.437 143.721 124.995 143.969 120.466 143.969Z" fill="#29CC7A"/>
<path d="M127.018 140.946C127.382 139.094 127.412 137.878 126.368 136.642C126.713 137.173 126.186 137.525 124.724 137.635C122.961 137.779 119.707 138.042 116.709 136.935C113.711 135.828 112.096 135.222 110.826 138.479L109.595 138.935C110.277 140.23 111.254 141.343 112.446 142.182L122.71 143.92C125.516 143.786 126.57 143.19 127.018 140.946Z" fill="#57F287"/>
<path d="M100.109 110.663L98.2383 105.257" stroke="black" stroke-width="0.871974" stroke-linecap="round" stroke-linejoin="round"/>
<path d="M127.018 140.946C127.063 140.708 127.102 140.485 127.136 140.271C126.866 141.468 125.827 141.567 119.22 141.482C114.484 141.418 112.028 139.581 110.659 137.913C109.805 136.87 108.645 136.128 107.346 135.793C104.939 135.173 104.328 133.932 104.348 133.435C104.348 133.768 104.323 134.095 104.313 134.398C104.303 134.721 104.382 135.041 104.54 135.322C105.19 136.419 106.509 137.024 107.533 137.347C108.407 137.612 109.15 138.199 109.615 138.99C111.407 142.083 113.761 143.955 120.446 143.955C124.995 143.97 126.467 143.712 127.018 140.946Z" fill="black"/>
<path d="M38.1134 86.5057C35.9079 80.7718 36.7645 74.591 37.5916 69.4727L29.7689 73.7322C29.7 74.4719 29.6458 75.2215 29.6114 75.9662C29.5261 78.0603 29.5969 80.1578 29.8231 82.2412C34.2882 86.0093 39.4032 89.8667 38.1134 86.5057Z" fill="black"/>
<path d="M103.461 67.9043C103.862 70.0858 103.642 72.3374 102.826 74.3978" stroke="#F5479B" stroke-width="0.871974" stroke-linecap="round" stroke-linejoin="round"/>
<path d="M113.017 91.9321C112.984 85.8706 112.422 79.8239 111.339 73.8615C111.038 72.1874 111.386 70.4606 112.311 69.0379C113.236 67.6152 114.668 66.6051 116.311 66.2162C117.465 65.9445 118.678 66.1305 119.7 66.7358C120.722 67.3411 121.473 68.3192 121.8 69.468C124.153 77.6544 125.098 87.6726 124.926 95.5363C124.724 104.81 118.728 105.699 112.594 104.472C108.419 103.633 92.9905 99.7661 83.5481 97.3831C82.5882 97.1408 81.6886 96.7001 80.9064 96.0887C80.1243 95.4774 79.4766 94.7089 79.0045 93.8319C78.5324 92.9548 78.2461 91.9884 78.1639 90.994C78.0816 89.9995 78.2052 88.9987 78.5267 88.0549C78.8393 87.1362 79.3327 86.2905 79.9773 85.5688C80.6219 84.847 81.4044 84.264 82.2779 83.8546C83.1514 83.4452 84.0979 83.218 85.0606 83.1865C86.0233 83.155 86.9824 83.3199 87.8804 83.6713C97.4458 87.4046 105.923 90.3832 113.017 91.9321Z" fill="#FFD736"/>
<path d="M77.3402 82.8721C77.3402 82.8721 69.7292 88.889 66.9231 91.2769C64.117 93.6648 68.5969 97.0754 71.275 99.3293C73.9531 101.583 74.3962 99.9101 74.8442 97.2889C75.2922 94.6676 77.3402 82.8721 77.3402 82.8721Z" fill="#D11583"/>
<path d="M69.2271 91.7583C70.6808 92.064 72.0351 92.7331 73.1655 93.7044" stroke="black" stroke-width="0.871974" stroke-miterlimit="10" stroke-linecap="round"/>
<path d="M90.4403 89.3904C90.2781 88.2271 89.8283 87.1236 89.1323 86.1814C88.4363 85.2393 87.5166 84.4888 86.4576 83.999C83.5481 82.6239 79.2061 80.5934 78.1378 80.231C76.4984 79.68 74.6917 79.2778 73.9631 81.3877C72.8497 84.9782 72.0022 88.6471 71.4277 92.3642C70.9354 95.8393 71.28 96.3754 73.6135 97.7307C75.947 99.086 78.9845 101.241 80.6239 101.241C82.2632 101.241 83.2478 100.119 85.3401 97.1449C87.7622 97.7655 89.5247 96.0478 90.1154 93.9081C90.5125 92.4376 90.6228 90.9034 90.4403 89.3904Z" fill="#D11583"/>
<path d="M69.291 77.8328C67.8141 77.0732 65.9336 77.2023 64.7126 77.4853C63.4917 77.7682 62.7041 79.064 60.6364 82.6384C58.5687 86.2128 59.2875 86.9078 60.1047 87.6674C60.9219 88.4269 61.3945 88.4766 62.6548 88.4815C64.4468 88.4815 65.456 86.9426 67.504 83.3483C70.2363 85.1504 73.2294 86.8234 73.2294 86.8234L74.7063 81.3079C74.7063 81.3079 70.763 78.5923 69.291 77.8328Z" fill="#D11583"/>
<path d="M68.8974 78.8258C68.8318 78.8296 68.7676 78.8465 68.7086 78.8757C68.6496 78.9048 68.597 78.9456 68.5539 78.9955C68.5108 79.0455 68.478 79.1037 68.4575 79.1666C68.437 79.2295 68.4292 79.296 68.4346 79.362C68.5972 80.766 68.268 82.1831 67.5042 83.3683L68.3411 83.9144C69.2153 82.5496 69.5945 80.9219 69.4143 79.3074C69.4124 79.2413 69.3974 79.1763 69.3703 79.1161C69.3432 79.0559 69.3044 79.0018 69.2562 78.957C69.2081 78.9121 69.1515 78.8774 69.0899 78.8549C69.0283 78.8324 68.9628 78.8225 68.8974 78.8258Z" fill="black"/>
<path d="M77.7538 100.198C77.3993 100.009 77.0449 99.8006 76.6806 99.5871C76.3989 99.4229 76.1696 99.1811 76.0196 98.89C75.8696 98.5989 75.8051 98.2706 75.8338 97.9439C75.8879 97.363 76.011 96.7027 76.1538 95.9581L76.2522 95.4616C76.5132 94.0666 77.2368 90.0454 77.8621 86.0937C77.873 86.0141 77.903 85.9384 77.9494 85.873C77.9957 85.8077 78.0572 85.7547 78.1283 85.7185C78.1995 85.6824 78.2783 85.6642 78.358 85.6656C78.4377 85.667 78.5158 85.6878 78.5858 85.7263C78.6783 85.7743 78.7534 85.8505 78.8002 85.9442C78.8471 86.0378 78.8634 86.144 78.8467 86.2476C78.2362 90.2192 77.4928 94.2453 77.2319 95.6503L77.1384 96.1467C76.6805 98.5247 76.5132 99.3836 77.7538 100.198Z" fill="black"/>
<path d="M81.9138 98.4255C82.709 97.0271 83.3338 95.5369 83.7747 93.9873C84.4238 94.6668 85.2414 95.1587 86.1427 95.4121" stroke="black" stroke-width="0.871974" stroke-linecap="round" stroke-linejoin="round"/>
<path d="M84.006 131.871H58.8297C57.2306 131.874 55.6666 131.397 54.3374 130.501C53.0081 129.604 51.9739 128.329 51.3665 126.837C50.7511 125.348 50.5897 123.708 50.9027 122.126C51.2157 120.544 51.9891 119.092 53.124 117.956L58.9774 112.088C60.0629 110.994 61.5343 110.38 63.0684 110.38C64.6026 110.38 66.074 110.994 67.1595 112.088C68.223 113.163 68.8288 114.614 68.8481 116.132C68.8674 117.651 68.2987 119.117 67.2629 120.219H84.0011C85.5335 120.218 87.0039 120.83 88.0893 121.921C89.1748 123.012 89.7866 124.492 89.7905 126.038C89.7892 127.584 89.1794 129.067 88.0948 130.161C87.0103 131.255 85.5397 131.87 84.006 131.871Z" fill="#FFD736"/>
<path d="M43.0025 85.8903L31.2217 76.9542L34.6285 75.1621C35.2395 74.8442 35.7777 74.4008 36.2084 73.8604C36.6391 73.32 36.9529 72.6946 37.1294 72.0245C37.7817 69.6524 37.8661 67.158 37.3755 64.7466C37.25 64.172 36.9071 63.6695 36.4199 63.3459C35.9326 63.0224 35.3393 62.9033 34.7663 63.014C34.0869 63.1481 33.442 63.2821 32.8513 63.4112C27.6723 64.548 18.2102 66.1813 16.3247 73.9607C14.646 80.8811 18.2004 84.8477 22.2323 88.0448C24.6003 89.9363 30.1436 94.2454 34.2937 97.4773C35.6941 98.5642 37.4416 99.0944 39.2042 98.9672C40.9668 98.84 42.6216 98.0642 43.8542 96.7872C45.1518 95.4313 45.8726 93.6177 45.8628 91.7334C45.8714 90.6019 45.6172 89.4841 45.1205 88.4694C44.6238 87.4548 43.8985 86.5715 43.0025 85.8903Z" fill="#FFD736"/>
<path d="M45.016 85.8802L48.2062 84.0036C48.6435 83.7446 49.1414 83.6075 49.6486 83.6065H50.1852C50.8558 83.6041 51.5058 83.8402 52.0209 84.2733C52.5359 84.7064 52.883 85.3088 53.0012 85.9745C53.331 87.9603 53.2178 90.1695 54.3747 92.7063L50.5643 95.2332L39.9552 94.6027L36.2334 92.885L43.357 85.6171L45.016 85.8802Z" fill="#D11583"/>
<path d="M48.2009 89.1816C44.8434 91.0483 44.6367 91.1178 45.0157 94.7071L48.8311 92.4085L48.2009 89.1816Z" fill="#FF78B9"/>
<path d="M47.8958 86.5059C48.1911 88.3725 48.5308 90.4774 49.7665 92.3341" stroke="black" stroke-width="0.871974" stroke-miterlimit="10" stroke-linecap="round"/>
<path d="M45.6607 94.4888C43.1549 93.7292 42.0964 93.4214 42.0964 93.4214" stroke="black" stroke-width="0.871974" stroke-miterlimit="10" stroke-linecap="round"/>
<path d="M99.2082 49.2226C97.3276 44.1638 92.6311 39.8447 88.6926 39.6064C88.5302 39.6064 88.3727 39.6064 88.2003 39.6064C86.3887 39.6064 85.2465 40.5547 83.6663 42.5057C83.3011 42.9556 82.7816 43.2507 82.2108 43.3326C81.64 43.4144 81.0595 43.277 80.5845 42.9475C78.379 41.3837 74.9427 39.661 71.2554 39.661C66.8247 39.661 63.7872 43.8411 64.5207 48.9992C65.2542 54.1573 69.4437 58.3324 73.9039 58.3324C74.1501 58.3324 74.3962 58.3324 74.6572 58.2877H74.8147C77.5273 57.9452 80.4712 56.1232 83.3118 53.3679C83.6475 53.0551 84.0781 52.8658 84.5338 52.8306C84.9895 52.7955 85.4436 52.9166 85.8225 53.1743C90.4551 56.6048 93.8815 57.965 95.5061 57.965C99.4445 58.1735 101.094 54.2864 99.2082 49.2226Z" fill="white"/>
<path d="M76.8203 57.6379C80.6841 55.7258 81.9276 50.2947 79.5978 45.5074C77.268 40.72 72.2471 38.3892 68.3832 40.3014C64.5194 42.2135 63.2759 47.6446 65.6057 52.4319C67.9356 57.2193 72.9565 59.5501 76.8203 57.6379Z" fill="white"/>
<path d="M98.3168 57.1804C100.999 55.1749 100.397 49.7749 96.9735 45.1192C93.5498 40.4635 88.6003 38.3152 85.9184 40.3208C83.2366 42.3263 83.838 47.7263 87.2617 52.382C90.6854 57.0376 95.635 59.186 98.3168 57.1804Z" fill="white"/>
<path d="M93.9897 41.9795C92.8022 41.2952 91.4824 40.877 90.1202 40.7532C89.9331 40.7532 89.7559 40.7532 89.5787 40.7532C87.5406 40.7532 86.2261 41.7809 84.4784 43.9007C84.0598 44.3884 83.4806 44.7072 82.8474 44.7984C82.2142 44.8896 81.5696 44.7471 81.0323 44.3971C78.5708 42.7043 74.6767 40.8376 70.5267 40.8376C68.9361 40.819 67.3821 41.3187 66.0959 42.2624C66.6989 41.4467 67.4847 40.7862 68.389 40.335C69.2933 39.8837 70.2906 39.6545 71.2996 39.666C74.9869 39.666 78.4231 41.3837 80.6287 42.9475C81.1037 43.277 81.6842 43.4144 82.255 43.3326C82.8258 43.2507 83.3453 42.9556 83.7105 42.5057C85.2661 40.5547 86.4329 39.6064 88.2445 39.6064C88.4021 39.6064 88.5596 39.6064 88.7368 39.6064C90.4156 39.7008 92.2765 40.5993 93.9897 41.9795Z" fill="#C9EDFF"/>
<path d="M76.289 50.2216C77.4435 49.6503 77.7288 47.8502 76.9262 46.2011C76.1237 44.552 74.5372 43.6783 73.3827 44.2496C72.2282 44.821 71.9428 46.621 72.7454 48.2702C73.548 49.9193 75.1345 50.793 76.289 50.2216Z" fill="black"/>
<path d="M92.3527 50.1154C93.3876 49.6033 93.576 47.8512 92.7734 46.2021C91.9708 44.553 90.4813 43.6313 89.4464 44.1434C88.4115 44.6556 88.2231 46.4077 89.0257 48.0568C89.8282 49.7059 91.3178 50.6276 92.3527 50.1154Z" fill="black"/>
<path d="M68.0653 66.3653C61.5473 64.2454 58.2882 61.1476 56.4077 57.3746C56.2547 57.0692 56.0338 56.8036 55.7623 56.5985C55.4907 56.3935 55.1758 56.2545 54.8421 56.1925C54.5085 56.1305 54.1651 56.1471 53.8389 56.2411C53.5126 56.3351 53.2124 56.5038 52.9615 56.7342C52.7368 56.9321 52.5545 57.1742 52.4258 57.4457C52.2971 57.7171 52.2248 58.0122 52.2133 58.3129C51.9179 66.405 59.2335 74.8148 65.3675 75.5297C69.2124 75.9814 70.9748 74.3332 71.4819 72.3226C71.7627 71.0781 71.5666 69.7726 70.9329 68.6678C70.2993 67.563 69.275 66.7405 68.0653 66.3653Z" fill="white"/>
<path d="M75.2823 100.809V106.766C75.2823 110.306 72.747 112.445 69.6208 111.547C67.3316 110.886 65.264 108.727 64.3877 106.086L63.4819 103.35L59.1742 102.109L58.2684 104.328C57.3921 106.473 55.3146 107.446 53.0352 106.786C49.9091 105.887 47.3738 102.288 47.3738 98.7484V92.791C47.3738 90.4925 49.0181 89.1024 51.0513 89.6833L71.6048 95.5959C73.638 96.1718 75.2823 98.5101 75.2823 100.809Z" fill="white"/>
<path d="M70.389 113.314L73.4167 110.961L72.4862 106.414L69.8081 108.856L70.389 113.314Z" fill="white"/>
<path d="M45.5278 92.4087L48.5555 90.0605L52.2231 91.0733L49.545 93.5208L45.5278 92.4087Z" fill="white"/>
<path d="M53.8183 108.533L56.8459 106.18L55.9155 101.633L53.2324 104.075L53.8183 108.533Z" fill="white"/>
<path d="M72.2202 103.187V109.144C72.2202 112.684 69.6849 114.823 66.5588 113.925C64.2646 113.264 62.2019 111.105 61.3256 108.464L60.4198 105.723L56.1121 104.487L55.2162 106.672C54.3399 108.821 52.2623 109.789 49.983 109.129C46.8569 108.23 44.3215 104.631 44.3215 101.092V95.1342C44.3215 92.8357 45.9658 91.4456 47.999 92.0314L68.5526 97.9441C70.5759 98.5498 72.2202 100.883 72.2202 103.187Z" fill="#8CD9FF"/>
<path d="M78.1579 59.8048C83.2796 56.517 84.2274 48.7761 80.275 42.5151C76.3226 36.254 68.9667 33.8436 63.8451 37.1314C58.7234 40.4192 57.7756 48.1601 61.728 54.4212C65.6804 60.6822 73.0363 63.0926 78.1579 59.8048Z" stroke="#5865F2" stroke-width="0.871974" stroke-miterlimit="10"/>
<path d="M102.425 60.5482C107.562 58.1116 109.218 50.7581 106.123 44.1238C103.029 37.4895 96.3559 34.0865 91.2187 36.5232C86.0815 38.9598 84.4255 46.3133 87.5199 52.9476C90.6143 59.5819 97.2874 62.9848 102.425 60.5482Z" stroke="#5865F2" stroke-width="0.871974" stroke-miterlimit="10"/>
<path d="M48.6046 95.7396L42.1111 93.873L37.6164 92.5375L45.001 85.8802L43.337 85.6171C41.8564 85.3831 40.3407 85.5557 38.9492 86.1168C37.5577 86.6779 36.3419 87.6068 35.4296 88.8057C34.5172 90.0046 33.9421 91.4293 33.7647 92.9299C33.5873 94.4305 33.8142 95.9516 34.4214 97.3332L34.8842 98.3857V101.523C34.8815 102.534 35.1319 103.529 35.6121 104.415C36.0923 105.302 36.7868 106.053 37.6312 106.597C40.2503 108.275 42.3819 109.322 44.553 112.847C45.2766 114.029 45.8723 114.108 46.724 114.108C47.5757 114.108 48.2994 113.279 48.2994 111.988C48.2994 111.115 48.1714 110.241 47.0883 108.97C46.7585 108.583 46.4434 108.215 46.1579 107.873L47.8957 108.369C48.2073 108.457 48.534 108.477 48.8539 108.428C49.1738 108.379 49.4796 108.261 49.7508 108.083C50.022 107.905 50.2524 107.67 50.4266 107.395C50.6008 107.12 50.7147 106.811 50.7609 106.488C51.2926 102.943 51.1843 99.8452 50.5393 97.6857C50.4051 97.2234 50.1575 96.8028 49.8193 96.4626C49.4811 96.1225 49.0633 95.8738 48.6046 95.7396Z" fill="#D11583"/>
<path d="M46.0149 108.201C43.3944 107.199 40.8364 106.039 38.3547 104.726" stroke="black" stroke-width="0.871974" stroke-miterlimit="10" stroke-linecap="round"/>
<path d="M48.0436 102.338C47.5907 102.169 47.0048 101.926 46.2565 101.613C44.3464 100.824 41.4615 99.6271 37.8185 98.4406C37.7649 98.4228 37.7082 98.4159 37.6519 98.4202C37.5956 98.4246 37.5407 98.4401 37.4904 98.466C37.4401 98.4918 37.3953 98.5274 37.3587 98.5708C37.322 98.6141 37.2943 98.6644 37.277 98.7186C37.2412 98.8285 37.2501 98.9483 37.3018 99.0516C37.3535 99.1549 37.4437 99.2333 37.5527 99.2696C41.1662 100.441 44.0313 101.633 45.9218 102.422C46.675 102.735 47.2707 102.983 47.7384 103.157C48.2233 103.349 48.7386 103.452 49.2596 103.46C49.6549 103.462 50.0466 103.384 50.4116 103.231C50.6222 103.136 50.8004 102.98 50.9238 102.783C51.0473 102.586 51.1105 102.357 51.1057 102.124C51.1057 101.96 51.1057 101.802 51.1057 101.628C50.0719 102.834 49.0331 102.71 48.0436 102.338Z" fill="black"/>
<path d="M31.2213 76.9543L32.1321 76.4578L29.3309 74.3578C29.2306 74.2896 29.1089 74.261 28.9891 74.2775C28.8692 74.294 28.7595 74.3544 28.681 74.4472C28.6443 74.4963 28.6176 74.5523 28.6024 74.6119C28.5873 74.6715 28.5839 74.7336 28.5926 74.7945C28.6013 74.8554 28.6219 74.914 28.6531 74.9668C28.6843 75.0197 28.7256 75.0658 28.7746 75.1025L31.2213 76.9543Z" fill="black"/>
<path d="M67.6666 119.728C64.0679 119.728 60.5578 119.728 57.7517 121.406" stroke="black" stroke-width="0.871974" stroke-linecap="round" stroke-linejoin="round"/>
<path d="M129.554 27.0119C131.075 26.6544 133.522 29.8813 133.349 34.0118C133.177 38.1422 132.365 38.3259 131.922 38.4301C131.479 38.5344 131.877 39.1252 131.877 39.1252L138.952 37.8443L142.491 34.3444V25.7807L136.352 24.1821L130.346 25.7807L129.554 27.0119Z" fill="#29CC7A"/>
<path d="M123.085 40.5102L121.293 39.1201" stroke="black" stroke-width="0.871974" stroke-miterlimit="10" stroke-linecap="round"/>
<path d="M113.017 91.9272L116.237 92.5279" stroke="black" stroke-width="0.871974" stroke-linecap="round" stroke-linejoin="round"/>
<path d="M81.7561 44.606H85.98" stroke="#5865F2" stroke-width="0.871974" stroke-miterlimit="10"/>
<path d="M68.0947 66.3751C67.5621 69.5889 66.3899 72.6607 64.6486 75.4055C64.3336 75.3409 64.0185 75.2565 63.6985 75.1572C65.5017 72.4186 66.6973 69.3197 67.2037 66.0723L68.0652 66.3652L68.0947 66.3751Z" fill="#B3E5FF"/>
<path d="M56.5949 57.737C54.9349 58.3676 53.4764 59.4419 52.3758 60.8448C52.3168 60.4228 52.2725 59.9909 52.2429 59.5689C53.3164 58.4039 54.6377 57.4993 56.1075 56.9229C56.2254 57.0606 56.3262 57.2123 56.4078 57.3746L56.5949 57.737Z" fill="#B3E5FF"/>
<path d="M58.7852 60.8746C57.0651 62.5051 55.522 64.3157 54.1822 66.2759C54.0149 65.9582 53.8622 65.6355 53.6899 65.3078C55.019 63.4532 56.519 61.7295 58.1699 60.1597C58.3668 60.4029 58.5736 60.6412 58.7852 60.8746Z" fill="#B3E5FF"/>
<path d="M63.2064 64.3001L58.4606 71.9106C58.2292 71.6971 58.0028 71.4787 57.7812 71.2503L62.404 63.8384C62.6649 63.9923 62.9307 64.1511 63.2064 64.3001Z" fill="#B3E5FF"/>
<path d="M51.2288 56.1285C52.8815 55.8089 54.5866 55.9009 56.1961 56.3966" stroke="black" stroke-width="0.871974" stroke-miterlimit="10" stroke-linecap="round"/>
<path d="M143.914 37.2782C144.386 37.1357 144.807 36.8574 145.124 36.4773C145.442 36.0972 145.642 35.6319 145.701 35.1385C145.936 33.2603 145.747 31.3529 145.15 29.5584C144.778 28.5043 144.601 27.3904 144.628 26.272C144.776 21.2132 144.377 17.9714 142.713 14.9629C142.416 14.4399 141.985 14.0069 141.466 13.7091C140.946 13.4113 140.357 13.2597 139.759 13.27C139.308 13.2755 138.858 13.307 138.41 13.3644C138.072 13.4071 137.741 13.4939 137.426 13.6225C139.139 12.992 141 14.2977 141.787 18.1799C142.92 23.7649 142.063 24.9762 142.609 27.7116C143.102 30.1393 144.126 33.7534 143.304 37.4718L143.914 37.2782Z" fill="black"/>
<path d="M82.9081 120.781C83.069 120.373 83.347 120.022 83.7067 119.775C84.0663 119.527 84.4911 119.393 84.9266 119.391H90.5043C91.1375 119.361 91.7644 119.529 92.2992 119.872C92.8341 120.215 93.2509 120.716 93.4926 121.307C93.4926 121.366 93.5271 121.421 93.5418 121.481C94.0216 122.991 95.0133 124.283 96.343 125.13C99.031 126.907 100.813 128.967 101.158 131.449C101.65 134.805 101.315 137.67 98.0218 138.638C95.1713 139.472 94.2507 137.6 89.436 134.413C88.5238 133.813 87.4581 133.494 86.369 133.495H84.8921C84.4976 133.495 84.1104 133.387 83.7721 133.183C83.4339 132.978 83.1573 132.684 82.9721 132.333C81.3722 129.255 81.2442 124.901 82.9081 120.781Z" fill="#29CC7A"/>
<path d="M94.6788 138.171C95.1588 138.511 95.7112 138.734 96.2917 138.82C96.8722 138.906 97.4646 138.854 98.0216 138.668C101.217 137.729 101.601 135.009 101.197 131.787C99.6314 129.186 97.4849 126.177 95.9145 126.142C93.1527 126.083 94.7133 128.257 95.629 129.533C96.84 131.221 96.904 133.192 96.8843 135.078C96.8646 136.965 96.0474 138.995 94.6788 138.171Z" fill="#57F287"/>
<path d="M92.631 121.942C92.7188 122.772 92.991 123.571 93.4274 124.28C93.8638 124.989 94.4531 125.59 95.1516 126.038C96.3703 126.876 97.3929 127.972 98.1479 129.249C98.903 130.527 99.3724 131.955 99.5232 133.435C99.8629 136.414 99.0309 138.37 97.7608 138.732C101.483 137.883 101.596 134.492 101.172 131.469C100.828 128.952 99.0506 126.917 96.3577 125.139C95.028 124.292 94.0363 123.001 93.5565 121.49C93.5565 121.431 93.5221 121.376 93.5073 121.317C93.2656 120.726 92.8488 120.225 92.314 119.882C91.7791 119.539 91.1522 119.37 90.519 119.4C91.415 119.505 92.4932 120.527 92.631 121.942Z" fill="black"/>
<path d="M71.9545 126.132C71.9545 129.86 70.4776 131.871 69.493 131.871H85.7389C87.2727 131.87 88.7432 131.255 89.8277 130.161C90.9123 129.067 91.5221 127.585 91.5234 126.038C91.5234 124.491 90.914 123.007 89.8292 121.913C88.7444 120.819 87.2731 120.205 85.7389 120.205H69.4536C70.3644 120.205 71.9545 122.404 71.9545 126.132Z" fill="white"/>
<path d="M75.4745 120.205H71.9546C72.8653 120.205 74.4161 122.404 74.4161 126.132C74.4161 129.86 72.9392 131.871 71.9546 131.871H75.4992C76.4838 131.871 77.9607 129.885 77.9607 126.132C77.9607 122.379 76.3853 120.205 75.4745 120.205Z" fill="#5865F2"/>
<path d="M84.3555 120.204C85.5075 120.204 87.4816 122.404 87.4816 126.132C87.4816 129.86 85.5862 131.871 84.3555 131.871V132.516H94.0686L92.8821 124.737L90.8588 120.204L85.8127 119.708L84.3555 120.204Z" fill="#29CC7A"/>
<path d="M131.951 14.407C129.805 13.9106 127.176 13.2305 127.176 13.2305" stroke="#8CD9FF" stroke-width="0.871974" stroke-linecap="round" stroke-linejoin="round"/>
<path d="M134.831 10.8425L133.049 9.04541" stroke="#8CD9FF" stroke-width="0.871974" stroke-linecap="round" stroke-linejoin="round"/>
<path d="M197.058 118.1C195.445 116.265 194.047 114.247 192.893 112.088L187.38 111.949C189.482 116.581 191.663 119.162 192.893 120.418C194.124 121.674 195.98 122.468 197.058 121.337C198.136 120.205 198.141 119.271 197.058 118.1Z" fill="#FF78B9"/>
<path d="M145.8 52.3997C137.145 46.2388 129.554 36.8212 120.264 47.2912C110.975 57.7613 105.431 66.6129 101.916 72.9476C98.4012 79.2822 103.639 83.502 110.881 88.7296C116.449 92.7508 127.531 102.67 134.945 96.628C137.263 94.7366 140.119 89.5239 141.236 84.3063C142.354 79.0886 138.504 75.5241 127.713 71.6221L145.8 52.3997Z" fill="#459FF7"/>
<path d="M141.236 84.2868C142.349 79.0691 138.514 75.465 127.713 71.6026C120.2 68.9317 119.708 68.897 119.708 68.897" stroke="black" stroke-width="0.871974" stroke-linecap="round" stroke-linejoin="round"/>
<path d="M140.163 47.9268L148.01 54.0132" stroke="black" stroke-width="0.871974" stroke-linecap="round" stroke-linejoin="round"/>
<path d="M140.877 80.0669C135.791 81.025 131.169 85.7115 129.948 91.4107C129.936 91.4717 129.936 91.5345 129.948 91.5955C129.96 91.6565 129.985 91.7143 130.02 91.7657C130.055 91.817 130.099 91.8608 130.151 91.8945C130.203 91.9282 130.261 91.951 130.322 91.9617C130.44 91.9822 130.562 91.9553 130.662 91.8867C130.761 91.8182 130.83 91.7133 130.854 91.5944C132.015 86.198 136.407 81.7697 141.192 80.9506C141.11 80.6481 141.005 80.3526 140.877 80.0669Z" fill="black"/>
<path d="M149.933 98.1154C153.744 92.5869 153.246 85.5904 148.82 82.4882C144.394 79.386 137.717 81.3529 133.907 86.8814C130.096 92.4099 130.594 99.4064 135.02 102.509C139.445 105.611 146.122 103.644 149.933 98.1154Z" fill="#459FF7"/>
<path d="M159.362 97.7504L154.715 104.145C157.359 108.255 157.797 109.809 157.797 109.809C162.37 110.534 163.705 110.757 163.252 113.036C162.799 115.315 162.139 115.459 159.673 115.201C158.166 115.042 156.054 114.878 154.75 114.808C153.445 114.739 152.672 114.143 151.353 111.715C150.033 109.288 148.94 107.247 148.94 107.247C149.536 112.837 150.132 115.33 148.182 117.027C146.233 118.725 144.456 117.693 143.83 116.66C143.205 115.627 143.402 114.535 143.565 111.571C143.629 110.425 143.663 109.472 143.683 108.712C143.713 107.275 143.25 105.873 142.373 104.74C141.327 103.444 140.155 102.256 138.873 101.196C138.384 100.773 138.02 100.223 137.82 99.6059C137.62 98.9886 137.593 98.3278 137.741 97.6958C138.765 93.4909 140.694 90.6215 143.249 89.0875C144.284 88.4813 145.453 88.148 146.65 88.1185C147.846 88.089 149.03 88.3642 150.092 88.9187L153.942 90.9044C154.473 91.1785 155.074 91.2841 155.665 91.2073C159.294 90.7108 160.977 89.7527 162.242 88.8938C163.793 87.8414 165.196 87.3747 166.673 89.574C168.15 91.7732 165.861 93.6349 163.074 95.5313C160.288 97.4277 159.362 97.7504 159.362 97.7504Z" fill="#FF78B9"/>
<path d="M157.615 98.0677C157.003 97.2245 156.346 96.4157 155.646 95.645" stroke="black" stroke-width="0.871974" stroke-linecap="round" stroke-linejoin="round"/>
<path d="M192.115 114.739C193.814 114.972 194.351 115.126 195.232 113.89C196.113 112.654 196.152 110.33 196.152 110.33C198.491 110.484 198.717 107.848 198.757 106.001C198.796 104.154 197.226 103.41 194.543 101.672C194.543 96.4893 194.616 95.2183 192.549 94.3247C190.481 93.4311 188.98 92.6567 187.832 94.0914C186.685 95.5261 183.894 99.5176 183.894 99.5176L192.115 114.739Z" fill="#FF78B9"/>
<path d="M190.825 102.764C192.893 103.087 195.399 103.464 195.399 103.464" stroke="black" stroke-width="0.871974" stroke-linecap="round" stroke-linejoin="round"/>
<path d="M189.615 100.818C190.717 99.0261 192.037 96.8467 192.037 96.8467" stroke="black" stroke-width="0.871974" stroke-linecap="round" stroke-linejoin="round"/>
<path d="M189.299 101.33L187.202 106.979C185.893 110.504 181.91 113.026 178.311 112.619C175.23 112.266 173.349 109.849 173.812 106.825L174.068 105.167L168.687 104.552L167.737 106.13C166.004 109.015 162.558 110.822 159.476 110.474C155.872 110.062 154.016 106.87 155.326 103.345L157.428 97.6908C157.876 96.5718 158.662 95.6236 159.675 94.981C160.688 94.3384 161.876 94.0341 163.07 94.1114L186.661 96.8071C188.955 97.0652 190.131 99.0907 189.299 101.33Z" fill="white"/>
<path d="M156.084 108.806L157.901 110.866L159.363 107.684L156.325 107.496L156.084 108.806Z" fill="white"/>
<path d="M174.998 111.035L176.795 113.08L178.08 110.404L175.102 109.357L174.998 111.035Z" fill="white"/>
<path d="M190.604 99.8949L188.782 97.8247H186.247L188.078 102.089L190.604 99.8949Z" fill="white"/>
<path d="M191.131 103.41L189.034 109.054C187.719 112.579 183.741 115.106 180.138 114.699C177.056 114.346 175.18 111.929 175.643 108.9L175.899 107.247L170.518 106.627L169.568 108.205C167.835 111.085 164.389 112.897 161.302 112.549C157.704 112.137 155.848 108.945 157.157 105.42L159.254 99.7707C159.704 98.653 160.49 97.7064 161.503 97.0648C162.516 96.4233 163.703 96.1194 164.896 96.1963L188.502 98.882C190.786 99.1451 191.963 101.166 191.131 103.41Z" fill="#8CD9FF"/>
<path d="M155.922 96.7422C157.3 98.2247 158.547 99.8261 159.648 101.528C164.035 102.054 166.437 102.417 167.264 102.918C168.091 103.419 168.613 103.697 168.037 105.698C167.461 107.699 166.654 108.235 164.557 107.927C162.459 107.619 158.324 107.257 157.28 106.87C156.237 106.482 155.734 105.951 153.47 103.305C151.205 100.659 152.323 98.0727 155.922 96.7422Z" fill="#FF78B9"/>
<path d="M194.971 103.921C192.436 103.362 189.851 103.067 187.256 103.042C185.036 103.107 184.741 104.035 184.101 105.872C183.362 107.992 184.809 108.762 187.158 109.01C189.506 109.258 194.05 109.973 194.05 109.973L194.971 103.921Z" fill="#FF78B9"/>
<path d="M192.893 109.531C190.714 109.052 188.492 108.801 186.262 108.781C184.352 108.831 184.096 109.635 183.544 111.214C182.914 113.036 184.155 113.696 186.173 113.91C188.192 114.123 192.115 114.739 192.115 114.739L192.893 109.531Z" fill="#FF78B9"/>
<path d="M166.476 40.0234C169.034 41.1495 171.305 42.8471 173.117 44.9879" stroke="black" stroke-width="0.871974" stroke-linecap="round" stroke-linejoin="round"/>
<path d="M104.491 78.1607C102.522 72.1437 97.7464 67.2637 93.8474 67.2637L104.013 87.6577C105.544 85.7761 105.83 82.2365 104.491 78.1607Z" fill="#FF78B9"/>
<path d="M97.4314 68.4399C100.316 70.242 103.093 73.9009 104.491 78.1604C105.628 81.6355 105.594 84.7184 104.614 86.7141" stroke="#F5479B" stroke-width="0.871974" stroke-linecap="round" stroke-linejoin="round"/>
<path d="M154.405 104.72C152.935 102.818 151.356 101.004 149.674 99.2891" stroke="black" stroke-width="0.871974" stroke-linecap="round" stroke-linejoin="round"/>
<path d="M148.817 108.007C147.956 106.572 147.148 105.376 146.435 104.417" stroke="black" stroke-width="0.871974" stroke-linecap="round" stroke-linejoin="round"/>
<path d="M151.604 91.9717C150.181 92.0263 148.611 92.5476 147.823 95.6106C147.755 95.8651 147.614 96.0942 147.42 96.2703C147.225 96.4465 146.984 96.5622 146.726 96.6035C145.249 96.8617 144.456 97.8496 144.358 100.079C144.359 100.199 144.316 100.316 144.239 100.407C144.161 100.499 144.052 100.558 143.934 100.575C142.989 100.729 142.265 101.479 142.846 103.718" stroke="#F5479B" stroke-width="0.871974" stroke-linecap="round" stroke-linejoin="round"/>
<path d="M186.784 109.109C188.881 109.506 193.548 110.246 195.251 110.266" stroke="black" stroke-width="0.871974" stroke-linecap="round" stroke-linejoin="round"/>
<path d="M217.612 80.8111C216.846 80.3151 216.194 79.6599 215.699 78.8894C215.204 78.119 214.877 77.2509 214.742 76.3431L214.249 73.2105C214.239 73.1351 214.202 73.066 214.145 73.0159C214.088 72.9657 214.015 72.9379 213.939 72.9375C213.864 72.9389 213.792 72.9671 213.735 73.017C213.678 73.067 213.641 73.1355 213.629 73.2105L213.166 76.3431C213.029 77.2504 212.702 78.1179 212.207 78.8881C211.713 79.6584 211.061 80.3139 210.296 80.8111L209.893 81.0742C209.849 81.1025 209.813 81.1414 209.788 81.1874C209.763 81.2334 209.75 81.285 209.75 81.3374C209.749 81.3899 209.762 81.4416 209.787 81.4876C209.812 81.5337 209.848 81.5725 209.893 81.6005L210.296 81.8636C211.061 82.3608 211.713 83.0163 212.207 83.7866C212.702 84.5569 213.029 85.4243 213.166 86.3316L213.629 89.4642C213.64 89.5396 213.677 89.6087 213.734 89.6588C213.791 89.709 213.864 89.7368 213.939 89.7372C214.015 89.7368 214.088 89.709 214.145 89.6588C214.202 89.6087 214.239 89.5396 214.249 89.4642L214.742 86.3316C214.877 85.4239 215.204 84.5558 215.699 83.7853C216.194 83.0148 216.846 82.3596 217.612 81.8636L218.016 81.6005C218.06 81.5725 218.096 81.5337 218.121 81.4876C218.146 81.4416 218.159 81.3899 218.158 81.3374C218.158 81.285 218.145 81.2334 218.12 81.1874C218.095 81.1414 218.059 81.1025 218.016 81.0742L217.612 80.8111Z" fill="#5865F2"/>
<path d="M6.70497 105.956C6.04754 105.531 5.48779 104.969 5.06326 104.308C4.63873 103.647 4.35922 102.902 4.24347 102.124L3.8447 99.4427C3.8352 99.3787 3.80305 99.3203 3.75418 99.2784C3.70532 99.2364 3.64305 99.2137 3.57886 99.2144C3.51552 99.2149 3.45444 99.2381 3.4066 99.28C3.35876 99.3218 3.32732 99.3796 3.31794 99.4427L2.91918 102.124C2.8025 102.902 2.52262 103.647 2.09817 104.307C1.67372 104.968 1.11447 105.53 0.457676 105.956L0.113065 106.18C0.0756536 106.205 0.0448843 106.238 0.0234342 106.278C0.0019841 106.318 -0.00949693 106.363 -0.0100098 106.408C-0.00908285 106.453 0.00257635 106.497 0.0239901 106.537C0.0454038 106.577 0.0759484 106.611 0.113065 106.636L0.457676 106.86C1.1149 107.285 1.67447 107.847 2.09898 108.508C2.52348 109.169 2.80312 109.913 2.91918 110.692L3.31794 113.373C3.32825 113.436 3.35995 113.493 3.40759 113.535C3.45523 113.576 3.5158 113.6 3.57886 113.601C3.64277 113.601 3.70452 113.578 3.75317 113.536C3.80182 113.494 3.83425 113.437 3.8447 113.373L4.24347 110.692C4.35861 109.913 4.63787 109.168 5.06245 108.507C5.48704 107.846 6.0471 107.284 6.70497 106.86L7.04958 106.636C7.0867 106.611 7.11724 106.577 7.13866 106.537C7.16007 106.497 7.17173 106.453 7.17266 106.408C7.17214 106.363 7.16066 106.318 7.13921 106.278C7.11776 106.238 7.08699 106.205 7.04958 106.18L6.70497 105.956Z" fill="#57F287"/>
<path d="M203.606 23.9037C203.21 23.6444 202.874 23.3031 202.619 22.9025C202.364 22.5019 202.197 22.0512 202.129 21.5803L201.888 19.952C201.883 19.9134 201.864 19.8779 201.835 19.8523C201.806 19.8267 201.769 19.8127 201.73 19.813C201.691 19.8125 201.653 19.8264 201.623 19.8519C201.593 19.8774 201.574 19.913 201.568 19.952L201.326 21.5803C201.258 22.0512 201.091 22.5019 200.836 22.9025C200.581 23.3031 200.245 23.6444 199.849 23.9037L199.643 24.0427C199.62 24.0573 199.602 24.0771 199.589 24.1005C199.576 24.1238 199.569 24.15 199.569 24.1768C199.569 24.2043 199.575 24.2315 199.588 24.2558C199.601 24.2801 199.62 24.3007 199.643 24.3158L199.849 24.4548C200.245 24.7141 200.581 25.0554 200.836 25.456C201.091 25.8566 201.258 26.3073 201.326 26.7781L201.568 28.4065C201.574 28.4455 201.593 28.4811 201.623 28.5066C201.653 28.5321 201.691 28.5459 201.73 28.5455C201.769 28.5458 201.806 28.5318 201.835 28.5062C201.864 28.4806 201.883 28.4451 201.888 28.4065L202.129 26.7781C202.197 26.3073 202.364 25.8566 202.619 25.456C202.874 25.0554 203.21 24.7141 203.606 24.4548L203.817 24.3158C203.84 24.3007 203.859 24.2801 203.872 24.2558C203.885 24.2315 203.892 24.2043 203.891 24.1768C203.891 24.15 203.884 24.1238 203.871 24.1005C203.858 24.0771 203.84 24.0573 203.817 24.0427L203.606 23.9037Z" fill="#FF78B9"/>
<path d="M34.9384 38.8964C34.3042 38.4844 33.7647 37.9403 33.3563 37.3006C32.9479 36.661 32.6799 35.9406 32.5704 35.1879L32.1815 32.5965C32.1732 32.535 32.1433 32.4786 32.0972 32.4376C32.0511 32.3966 31.9919 32.3737 31.9304 32.373C31.8684 32.3735 31.8085 32.3963 31.7616 32.4372C31.7147 32.4781 31.6838 32.5346 31.6744 32.5965L31.2855 35.1879C31.1755 35.941 30.9067 36.6617 30.4974 37.3013C30.0881 37.941 29.5478 38.4849 28.9126 38.8964L28.5779 39.1098C28.5414 39.1344 28.5116 39.1676 28.491 39.2066C28.4704 39.2455 28.4596 39.2891 28.4597 39.3332C28.4596 39.3767 28.4703 39.4196 28.491 39.4577C28.5116 39.4959 28.5415 39.5282 28.5779 39.5517L28.9126 39.7701C29.5472 40.181 30.0872 40.7241 30.4965 41.3629C30.9058 42.0017 31.1748 42.7213 31.2855 43.4736L31.6744 46.065C31.6828 46.1273 31.7135 46.1844 31.7606 46.2255C31.8077 46.2666 31.8681 46.289 31.9304 46.2884C31.9922 46.2889 32.052 46.2663 32.0983 46.2251C32.1446 46.1839 32.1742 46.1269 32.1815 46.065L32.5704 43.4736C32.6812 42.7213 32.9502 42.0017 33.3595 41.3629C33.7687 40.7241 34.3088 40.181 34.9433 39.7701L35.2781 39.5517C35.3144 39.5282 35.3443 39.4959 35.365 39.4577C35.3856 39.4196 35.3964 39.3767 35.3962 39.3332C35.3963 39.2891 35.3856 39.2455 35.365 39.2066C35.3443 39.1676 35.3145 39.1344 35.2781 39.1098L34.9384 38.8964Z" fill="#66BCFF"/>
</g>
<defs>
<clipPath id="clip0_657_35315">
<rect width="218.158" height="149.649" fill="white"/>
</clipPath>
</defs>
</svg>
