<svg width="647" height="126" viewBox="0 0 647 126" fill="none" xmlns="http://www.w3.org/2000/svg">
<path opacity="0.1" d="M251 65.9773H344C344 57.8914 337.232 51.3234 328.899 51.3234H309.268C307.824 51.3234 306.651 50.185 306.651 48.7838C306.651 38.9464 298.439 30.9773 288.301 30.9773H287.579C277.442 30.9773 269.23 38.9464 269.23 48.7838V54.1258C269.23 56.9281 266.883 59.2342 263.965 59.2342H257.979C254.129 59.205 251 62.2408 251 65.9773Z" fill="white"/>
<path opacity="0.3" d="M710.33 99.776C710.33 86.0698 699.349 74.9773 685.78 74.9773H660.188C646.62 74.9773 635.638 86.0698 635.638 99.776C635.638 102.517 633.429 104.749 630.716 104.749H623.048C611.404 104.717 602 114.247 602 125.977H635.67H710.362H744C744 116.574 736.458 108.988 727.181 108.988H719.481C714.432 108.988 710.33 104.844 710.33 99.776Z" fill="white"/>
<path opacity="0.2" d="M474 129.977H386C386 121.429 393.257 114.486 402.191 114.486H411.528C413.076 114.486 414.334 113.283 414.334 111.801C414.334 101.402 423.138 92.9773 434.007 92.9773H434.781C445.65 92.9773 454.455 101.402 454.455 111.801V117.449C454.455 120.411 456.971 122.849 460.099 122.849H466.518C470.646 122.818 474 126.027 474 129.977Z" fill="white"/>
<path opacity="0.2" d="M655 81.9773H563C563 72.7363 570.587 65.23 579.927 65.23H589.688C591.306 65.23 592.621 63.9289 592.621 62.3276C592.621 51.0849 601.826 41.9773 613.189 41.9773H613.999C625.362 41.9773 634.567 51.0849 634.567 62.3276V68.4327C634.567 71.6353 637.197 74.2709 640.467 74.2709H647.177C651.493 74.2375 655 77.7071 655 81.9773Z" fill="white"/>
<path opacity="0.1" d="M69 53.9773H-26C-26 44.7363 -18.166 37.23 -8.52152 37.23H1.55819C3.22944 37.23 4.58733 35.9289 4.58733 34.3276C4.58733 23.0849 14.0925 13.9773 25.8261 13.9773H26.6617C38.3953 13.9773 47.9005 23.0849 47.9005 34.3276V40.4327C47.9005 43.6353 50.6163 46.2709 53.9936 46.2709H60.9223C65.379 46.2375 69 49.7071 69 53.9773Z" fill="white"/>
</svg>
