<svg width="21" height="20" viewBox="0 0 21 20" fill="none" xmlns="http://www.w3.org/2000/svg">
<path d="M15.7383 10C15.5083 10 15.3183 9.85 15.2583 9.63L14.8083 7.98C14.6683 7.47 14.2683 7.07 13.7583 6.93L12.1083 6.48C11.8883 6.42 11.7383 6.23 11.7383 6C11.7383 5.77 11.8883 5.58 12.1083 5.52L13.7583 5.07C14.2683 4.93 14.6683 4.53 14.8083 4.02L15.2583 2.37C15.3183 2.15 15.5083 2 15.7383 2C15.9683 2 16.1583 2.15 16.2183 2.37L16.6683 4.02C16.8083 4.53 17.2083 4.93 17.7183 5.07L19.3683 5.52C19.5883 5.58 19.7383 5.77 19.7383 6C19.7383 6.23 19.5883 6.42 19.3683 6.48L17.7183 6.93C17.2083 7.07 16.8083 7.47 16.6683 7.98L16.2183 9.63C16.1583 9.85 15.9683 10 15.7383 10Z" fill="url(#paint0_linear_171_49830)"/>
<path fill-rule="evenodd" clip-rule="evenodd" d="M10.7383 6.83333H7.87174L8.35914 4.08738C8.41351 3.78107 8.17794 3.5 7.86684 3.5H7.2158C6.97337 3.5 6.76587 3.67391 6.7235 3.91262L6.20507 6.83333H3.29184C3.04895 6.83333 2.84119 7.00789 2.79932 7.24714L2.68265 7.91381C2.62911 8.21977 2.86456 8.5 3.17517 8.5H5.9134L5.03007 13.5H2.11684C1.87395 13.5 1.66619 13.6746 1.62432 13.9138L1.50765 14.5805C1.45411 14.8864 1.68956 15.1667 2.00017 15.1667H4.7384L4.251 17.9126C4.19663 18.2189 4.4322 18.5 4.7433 18.5H5.39434C5.63677 18.5 5.84427 18.3261 5.88664 18.0874L6.40507 15.1667H11.4051L10.9177 17.9126C10.8633 18.2189 11.0989 18.5 11.41 18.5H12.061C12.3034 18.5 12.5109 18.3261 12.5533 18.0874L13.0717 15.1667H15.985C16.2279 15.1667 16.4356 14.9921 16.4775 14.7529L16.5942 14.0862C16.6477 13.7802 16.4123 13.5 16.1016 13.5H13.3634L13.8051 11H12.1388L11.6971 13.5H6.6971L7.58044 8.5H10.7383V6.83333Z" fill="#B5BAC1"/>
<defs>
<linearGradient id="paint0_linear_171_49830" x1="11.7383" y1="10" x2="19.7383" y2="2" gradientUnits="userSpaceOnUse">
<stop stop-color="#0B875E"/>
<stop offset="1" stop-color="#0075A8"/>
</linearGradient>
</defs>
</svg>
