<svg xmlns="http://www.w3.org/2000/svg" width="200" height="166" fill="none">
  <path fill="#5765F1"
    d="M188.916 15.194c-.377-4.898-6.09-5.023-11.364-8.162C172.278 3.892 170.52 0 165.435 0c-7.22 0-8.602 5.902-12.996 8.539-4.395 2.636-12.181 3.453-12.871 6.655h49.348ZM0 140.635c0-3.892 4.27-4.143 5.964-5.964 1.696-1.821 2.135-4.332 5.149-4.583 3.013-.251 5.148 2.448 7.157 5.336 2.01 2.888 10.736 2.323 10.736 5.149L0 140.635Z" />
  <path fill="#8089FF"
    d="M29.132 101.71c0-2.7 3.767-2.951 5.336-4.71 1.57-1.757 2.826-3.39 5.714-3.64 2.888-.252 4.709.816 7.722 3.139 3.014 2.323 8.915 1.946 8.915 5.148l-27.687.063Z" />
  <path fill="#FF78B8"
    d="M147.793 105.037c1.381.565 3.139 1.005 4.458.628 1.318-.377 3.453-1.821 2.323-4.646a7.288 7.288 0 0 0-2.323-2.825l-4.458 6.843Z" />
  <path fill="#8089FF"
    d="M54.37 145.407c0-5.525-5.713-6.467-9.04-8.539-2.323-1.506-3.265-5.587-8.288-5.587-2.825 0-5.713 1.82-9.731 5.085-4.018 3.265-17.768 5.776-17.768 8.978l44.828.063Z" />
  <path fill="url(#a)"
    d="m200.908 120.545-145.47-2.449s1.256 6.278 12.368 8.853c6.844 1.883 9.167 2.825 11.301 4.959 2.135 2.135 4.27 5.212 7.786 4.709 3.516-.502 7.345-1.632 8.287 1.444 2.135 6.844 4.018 12.055 6.153 12.055 3.327 0 5.085-6.279 6.404-8.978 1.318-2.7 4.709-2.826 7.534-1.695 2.825 1.13 4.96-.44 7.785-3.077s5.902-4.018 8.287 4.521c2.386 8.538 4.709 13.435 6.844 13.435 2.134 0 3.767-4.206 5.211-9.166 1.444-4.96 3.767-7.095 6.153-4.521 2.385 2.575 4.018 1.444 5.399-.941 1.381-2.386 5.902-8.727 10.171-2.135 4.269 6.592 5.399 7.785 9.418 5.211 4.018-2.574 8.287-7.095 12.556 1.193 4.27 8.287 8.288 19.588 13.813 22.037v-45.455Z" />
  <path fill="#8089FF"
    d="M200.908 110.248c-17.957.126-81.682.691-114.832.691-13.247 0-28.127 1.444-30.261 5.211-2.135 3.767 2.825 6.906 17.956 8.036 11.677.879 21.534 4.458 31.643 4.897 14.314.628 18.458-3.139 53.868 1.381 19.965 2.575 34.28 3.077 41.626 3.077v-23.293ZM161.668 19.777c-.314-2.95-10.924-3.642-13.624-6.341-4.897-4.709-8.539-6.153-12.055-5.337-3.515.816-5.901 3.516-10.736 6.718-2.762 1.82-8.224 2.888-8.224 4.834l44.639.126Z" />
  <path fill="url(#b)"
    d="M180.189 96.184a4.272 4.272 0 0 1 4.269-4.331h.816a.251.251 0 0 0 .063-.189c.942-3.83-.753-5.337-.314-8.476.44-3.139 2.512-4.269 2.449-7.22-.063-2.95-2.009-4.144-2.26-6.53-.252-2.385 1.758-3.955 1.506-6.592-.251-2.636-2.197-3.453-2.762-5.587-.565-2.135.753-4.207.314-5.776-.44-1.57-2.888-2.951-4.018-4.71-2.009-3.076-.691-4.834-1.947-7.157a8.536 8.536 0 0 0-3.515-3.704 8.493 8.493 0 0 1 1.067 3.516c.125 1.695-1.319 2.637-1.821 4.897-.502 2.26.377 2.637-.188 4.332-.565 1.696-2.763 2.826-3.579 5.337-.816 2.511.565 5.839.251 7.785-.628 3.14-2.197 3.579-2.574 7.471-.377 3.893 2.072 5.086 2.135 7.409.063 2.323-2.135 4.018-1.695 6.843.439 2.826 2.511 4.018 2.825 5.714.314 1.695-1.13 3.578-.251 5.838.879 2.26 2.637 1.947 3.202 3.39 1.506 4.019 2.26 5.526 3.767 5.526 1.507 0 2.134-1.821 3.264-5.086a4.398 4.398 0 0 1-1.004-2.7Z" />
  <path fill="#3343D8"
    d="M177.615 93.862c2.115 0 3.83-8.995 3.83-20.091 0-11.096-1.715-20.091-3.83-20.091s-3.83 8.995-3.83 20.09c0 11.097 1.715 20.092 3.83 20.092Z" />
  <path fill="#FAA819"
    d="M184.835 93.548c.253.345.385.764.376 1.192a2.197 2.197 0 0 1-2.134 2.197 2.007 2.007 0 0 1-1.193-.439 2.572 2.572 0 0 0 2.574 2.323 2.645 2.645 0 0 0 .377-5.273Z" />
  <path fill="#5765F1"
    d="M186.655 115.773c0 .942-4.018 1.319-9.04 1.319-5.023 0-9.041-.377-9.041-1.319s4.018-1.13 9.041-1.13c5.022 0 9.04.251 9.04 1.13Z" />
  <path fill="#FF78B8"
    d="m128.204 44.702 2.449-1.444c.439-3.328.188-4.332 1.444-4.52 1.255-.189 1.067.44 1.506 2.888 2.951-2.01 4.27-2.763 4.898-2.323.627.44.69 1.067-1.319 2.825 2.825-.879 3.579-.69 3.893.063.314.753-.314 1.13-3.202 2.386 1.632.627 2.386.941 1.946 1.82-.439.88-.879.69-3.704.377-.565.063-5.902 3.014-5.902 3.014l-2.009-5.086Z" />
  <path fill="#000"
    d="m89.027 111.567-.125 5.964c-1.695.502-3.956.754-5.776 1.507-1.821.753-1.193 1.004-.565 1.381.627.377 6.404-.063 7.785-.377 1.381-.313 1.695-.753 1.695-2.574v-8.601l-3.014 2.7ZM104.095 111.504l1.445 5.964c1.883.44 4.645.942 6.403 1.507s1.319 1.632-1.318 1.507a54.172 54.172 0 0 1-5.964-.565c-1.193-.251-1.947-.502-2.261-2.26-.314-1.758-1.82-8.539-1.82-8.539l3.515 2.386Z" />
  <path fill="#5765F1"
    d="M84.507 46.711c1.193-7.032 5.839-10.108 11.3-9.983 4.333.063 9.356 3.202 9.921 10.925.376 5.462 5.085 42.253 5.525 46.962.251 2.7-.252 3.014-1.57 3.014H78.417c-1.319 0-2.072-.628-1.758-3.454 1.255-11.614 4.646-29.194 7.848-47.464Z" />
  <path fill="url(#c)"
    d="m100.266 68.811-10.736.502c-3.265 9.041-6.593 25.302-7.597 42.379-.063.816-.063 1.884 1.067 2.135 1.13.251 7.91.188 9.669 0 1.758-.188 1.381-.377 1.381-2.26 0-1.884 1.193-30.01 1.193-30.01s2.26 25.929 2.511 29.821c.126 2.386.88 3.328 1.758 3.328 1.947 0 8.225.251 9.481-.063a1.379 1.379 0 0 0 1.255-1.758c-2.072-17.705-6.906-36.352-9.982-44.074Z" />
  <path fill="#FF78B8"
    d="M88.462 77.852a2.26 2.26 0 0 0-1.004-1.695l-4.144-2.637-.628 4.646s.502 1.067 2.386 2.26c1.883 1.193 3.453-1.319 3.39-2.574Z" />
  <path fill="#FFC518"
    d="M131.155 54.057c-.879 1.067-6.341 4.96-18.961 7.596-3.767.754-6.843 1.13-6.843 1.507s.44 3.202.188 4.458c-.251 1.256-.439 1.318-1.506 1.381-1.068.063-15.257.314-17.078.314-1.82 0-1.695-1.507-1.444-2.95L78.793 69.5l-.627.252h-.063l1.067.753 5.148 3.579c.314 1.318-1.318 9.103-4.269 9.48-2.95.377-2.448-2.197-7.66-7.66-5.21-5.462-4.896-9.48-.753-11.05 4.144-1.57 7.785-2.323 9.606-3.515 3.328-2.135 5.086-3.202 6.655-3.642.816 2.198 2.574 4.834 6.78 4.834 4.207 0 7.598-3.39 6.907-6.655a2.251 2.251 0 0 0-.251-.565c4.081-1.695 8.036-1.883 11.678-3.327 3.641-1.444 6.843-2.951 8.915-4.018l6.278-3.328c2.637 1.758 4.835 7.346 2.951 9.418Z" />
  <path fill="#FF78B8"
    d="M92.23 75.09c-.315-.817-2.575-1.508-2.575-1.508 1.444-1.067 2.01-1.255 1.507-1.883-.502-.628-3.516-.377-4.458.377-.941.753-.816 2.386-.565 4.395.251 2.009.942 1.632 2.072 2.071 1.13.44 2.511.628 3.077-.125.565-.754 1.318-2.449.941-3.328Z" />
  <path fill="#FF8B18"
    d="M79.17 70.569a7.22 7.22 0 0 1-4.583 1.758h-.69a.626.626 0 0 1-.565-.69.564.564 0 0 1 .69-.566 5.902 5.902 0 0 0 4.081-1.255l1.067.753Z" />
  <path fill="#FF78B8"
    d="M94.678 62.595c-4.207 0-5.965-2.637-6.781-4.834a9.858 9.858 0 0 1 4.27.063l.313-2.7h4.897v2.511a22.413 22.413 0 0 1 3.893-2.197c.109.176.194.366.251.565.753 3.202-2.637 6.592-6.843 6.592Z" />
  <path fill="#FF78B8"
    d="M102.463 49.097c0 4.395-3.077 6.278-7.471 6.592-4.395.314-7.597-1.946-7.723-6.34a8.915 8.915 0 0 1 7.534-9.042c4.332-.628 7.66 3.893 7.66 8.79Z" />
  <path fill="#5765F1"
    d="M99.512 45.016h-9.04c-1.068 0-.44-2.7 1.004-5.023l7.471-.25c1.193 2.26 2.009 5.273.565 5.273Z" />
  <path fill="#D01582"
    d="m98.382 48.092-2.888.754-3.264-.816-.503.313c-1.067 1.005.314 4.52 3.39 4.71 3.077.188 4.772-3.705 3.705-4.71l-.44-.25Z" />
  <path fill="#fff"
    d="M95.055 49.662a3.514 3.514 0 0 0 3.327-1.57c-1.318-.565-4.709-.627-6.153-.062a3.39 3.39 0 0 0 2.826 1.632Z" />
  <path fill="#59F186"
    d="M108.176 36.917c-1.444 1.381-5.211 1.13-9.668 1.381-4.458.251-7.66 1.507-11.05 2.763-8.413 3.013-9.983.753-9.732-1.005.251-1.758 2.323-3.641 8.162-5.023-1.193-4.143-3.892-9.292-5.085-11.615-1.193-2.323-1.382-3.013 1.13-2.51 1.8.399 3.519 1.1 5.085 2.07a31.267 31.267 0 0 1 6.153 5.086l1.318 1.382a42.179 42.179 0 0 1 3.014 3.767 28.32 28.32 0 0 1 5.902-.189c4.332.377 6.278 2.386 4.771 3.893Z" />
  <path fill="#91FFAC"
    d="M94.49 29.446a10.553 10.553 0 0 1-1.947 1.695 1.822 1.822 0 0 1-2.072.063 53.927 53.927 0 0 1-5.148-5.714 1.13 1.13 0 0 1 0-1.318c.49-.496 1.064-.9 1.695-1.193a31.264 31.264 0 0 1 6.153 5.085l1.319 1.382Z" />
  <path fill="#2CCB7A"
    d="M88.023 31.266a.691.691 0 0 1-.503-.188.69.69 0 0 1 .063-.879l1.57-1.318a.69.69 0 0 1 .879.062.627.627 0 0 1-.063.88c-.49.476-1.015.917-1.57 1.318a.44.44 0 0 1-.376.125ZM85.072 27.5a.628.628 0 0 1-.565-.377.69.69 0 0 1 .314-.88l2.072-.69a.567.567 0 0 1 .753.44.628.628 0 0 1-.44.753l-1.883.69-.251.063ZM93.61 32.46a.628.628 0 0 1-.564-.44l-.691-1.57a.627.627 0 0 1 .251-.879.628.628 0 0 1 .816.251c.3.564.552 1.152.754 1.758a.627.627 0 0 1-.377.816l-.188.063Z" />
  <path fill="#5765F1"
    d="M26.934 3.328H25.24v7.144h1.695V3.328ZM33.464 3.328h-1.695v7.144h1.695V3.328ZM30.2 3.328h-1.696v7.144h1.695V3.328Z" />
  <path fill="#5765F1" d="M25.24 8.036H33.4v2.386H25.24V8.036Z" />
  <path fill="url(#d)"
    d="M0 51.734c0 2.448 4.458 3.704 7.974 5.65 3.515 1.947 5.21 9.857 7.722 10.234 2.511.377 4.395-2.825 5.964-1.381 1.57 1.444 4.27 11.74 7.283 11.74 3.014 0 5.023-6.153 8.664-13.247.691-1.444 1.319-2.512 2.575-2.26 1.255.25 1.695 5.838 4.332 5.838 2.636 0 4.143-6.34 7.22-9.73 3.076-3.391 7.345-4.96 7.345-6.719L0 51.734Z" />
  <path fill="#8089FF"
    d="M59.08 51.86c0 .816-2.386 1.883-8.414 1.946-2.323.062-7.534 1.883-12.054 2.134-3.077.189-8.664-.816-11.176-1.193-4.645-.69-6.466-.314-18.584-.314-6.278 0-8.852-1.57-8.852-2.7 0-1.13.628-.816 3.579-.941 5.085-.188 44.89-.377 52.047-.063 2.763.126 3.453.69 3.453 1.13Z" />
  <path fill="#8089FF" d="M20.53 51.169h17.58l-3.328-37.545H23.858L20.53 51.169Z" />
  <path fill="#5765F1"
    d="M23.544 4.646h11.615V3.139L29.32 0l-5.776 3.14v1.506ZM22.54 9.606v2.197l1.318 1.821h10.924l1.381-1.82V9.605H22.54ZM34.97 51.169h-3.076v-4.71a1.507 1.507 0 0 1 1.507-1.506 1.508 1.508 0 0 1 1.57 1.507v4.709ZM23.418 18.647l-.69 7.534h13.184l-.628-7.534H23.418ZM21.598 39.365h15.507l-.69-7.534h-14.19l-.627 7.534Z" />
  <path fill="#FF78B8"
    d="M122.93 95.62c-2.385 2.51-5.838 2.887-7.282 5.462-1.445 2.574.816 3.139 2.448 3.453 2.697.442 5.43.631 8.162.565l4.458-4.27v-7.408s-2.449-1.067-3.767-.816c-1.319.251-1.821.628-4.019 3.013Z" />
  <path fill="#000"
    d="m120.419 103.028-1.004-.753c-1.444 0-2.574.062-2.386.502.188.439 2.009.816 2.888.816l.502-.565ZM124.374 119.603c-1.255.69-2.825 1.318-3.453 1.758-.627.439-.816 1.255-.439 1.695.377.439 2.637.502 6.09-.691 1.758-.753 2.197-1.82 2.448-3.955.252-2.135.503-4.646.503-4.646l-3.579.314s-.251 3.265-.377 3.955a2.126 2.126 0 0 1-1.193 1.57ZM149.111 119.603c1.131.816 2.575 1.758 3.077 2.26.502.502.565 1.381.188 1.758-.377.377-2.323.44-5.525-1.318-1.632-1.131-2.386-1.884-3.013-3.956a22.691 22.691 0 0 1-.691-4.206l4.206-.189a30.98 30.98 0 0 0 .503 3.956c.215.69.657 1.288 1.255 1.695Z" />
  <path fill="#FF78B8"
    d="M152.753 111.692c-.565-2.323-1.633-5.023-3.956-9.92 0 0-24.36-7.471-25.301-5.21-2.449 5.964-3.705 13.121-4.144 15.57-.44 2.448.314 3.453 1.883 3.767 3.14.565 5.777-1.256 7.723-1.068 3.076.314 4.709 1.13 6.969 1.382 3.704.502 5.462-1.068 8.099-1.068 3.767 0 4.771 1.381 7.471.628 1.13-.314 1.695-2.386 1.256-4.081Z" />
  <path fill="#5765F1"
    d="M143.209 75.78c1.131-.942 2.512-2.449 3.705-1.82 1.193.627 1.444 2.008.565 2.26-.879.25-3.328.564-3.328.564l-.942-1.004Z" />
  <path fill="#5765F1"
    d="M142.895 74.524c-.879-1.507-2.071-4.018-3.013-5.148-2.386-2.888-4.583-3.265-6.906-2.449-3.705 1.256-5.839 7.66-.942 11.49s11.615 5.525 14.126 4.646a2.694 2.694 0 0 0 1.632-1.65 2.708 2.708 0 0 0-.251-2.306c-1.004-1.57-3.264-2.448-4.646-4.583Z" />
  <path fill="#FFC518"
    d="M124.5 86.641c0 6.028 4.395 7.597 10.422 7.974 6.027.377 11.678-2.449 10.485-8.602-1.193-6.152-5.023-10.108-10.234-10.484-5.211-.377-10.673 5.148-10.673 11.112Z" />
  <path fill="#FFC518"
    d="M125.944 82.121c-2.637-4.206-3.265-7.346-1.57-8.539 1.695-1.192 5.274.566 7.534 3.893l-5.964 4.646Z" />
  <path fill="#fff"
    d="M136.391 77.387c.7-1.586.084-3.394-1.376-4.037-1.459-.644-3.209.12-3.909 1.706-.699 1.587-.084 3.394 1.376 4.038 1.459.644 3.209-.12 3.909-1.707Z" />
  <path fill="#000"
    d="M134.178 75.734c.364-.825.067-1.754-.662-2.076-.73-.322-1.617.086-1.98.91-.364.825-.068 1.755.662 2.077.73.322 1.616-.086 1.98-.911Z" />
  <path fill="#fff"
    d="M141.258 78.826c.7-1.586.084-3.394-1.375-4.038-1.46-.643-3.21.12-3.91 1.707-.699 1.586-.083 3.394 1.376 4.038 1.459.643 3.21-.12 3.909-1.707Z" />
  <path fill="#000"
    d="M139.02 77.23c.364-.825.067-1.754-.663-2.076-.729-.322-1.616.086-1.98.91-.363.826-.067 1.755.663 2.077.73.322 1.616-.086 1.98-.91ZM132.976 84.381c-.063 1.13-1.57 1.632-2.512.942-.941-.69-1.004-1.758-1.381-2.95a19.29 19.29 0 0 0-.879-1.947c-.125-.251.063-.377.251-.189a10.73 10.73 0 0 0 2.575 1.884c1.569.942 1.946 1.444 1.946 2.26Z" />
  <path fill="#91FFAC"
    d="M154.574 90.66c-.252.879-5.588 16.198-5.777 16.826-.188.627-.502.941-1.255.627l-2.512-1.067c-.439-.188-.69.063-1.067.565l-2.888 3.516-.502.251a.818.818 0 0 1-.503-.125l-4.206-4.019c-.502-.502-.691-.314-1.13-.125l-4.646 2.134c-.377.252-.754-.251-.754-.879 0-4.143.503-15.633.566-17.014.062-1.381.062-.879.502-1.004l5.713-2.135c1.067-.377 1.256-.188 2.009.377l4.458 2.7c.161.134.357.22.565.25a.755.755 0 0 0 .502-.25l2.449-2.135a2.07 2.07 0 0 1 1.695-.628s5.274.44 6.027.628c.754.188 1.193.44.754 1.506Z" />
  <path fill="#59F186"
    d="M154.574 90.66c-.252.879-5.588 16.198-5.777 16.826-.188.627-.502.941-1.255.627l-2.512-1.067c-.439-.188-.69.063-1.067.565l-2.888 3.516-.502.251 2.574-19.84a.755.755 0 0 0 .502-.25l2.449-2.135a2.069 2.069 0 0 1 1.695-.628s5.274.44 6.027.628c.754.188 1.193.44.754 1.507Z" />
  <path fill="#FFC518"
    d="M153.318 99.512s.062 2.009-.628 2.951c-.691.942-1.256 1.444-2.512 1.004a3.888 3.888 0 0 1-2.762-2.574 3.943 3.943 0 0 1 .126-1.883c.113-.419.282-.82.502-1.193.241-.433.537-.834.879-1.193.502-.377 2.511.251 2.511.251l-.942-1.883c-.439-.754.565-1.758 1.507-1.633.942.126 2.135 1.633 2.386 2.449.251.816-1.067 3.704-1.067 3.704ZM133.98 99.7c.011.42-.01.84-.063 1.256-.062.188-.062.44-.125.565-.314 1.193-.816 1.57-2.637 2.072-.816.251-3.076 2.511-5.965 2.888-1.946.251-3.829.063-4.897-1.004a3.774 3.774 0 0 1-.879-3.202c1.789.074 3.572.263 5.337.565a8.49 8.49 0 0 0 3.955-.126s-1.444-3.202-1.067-5.148c.377-1.947 2.009-2.135 2.574-2.449.565-.314 1.758-.753 2.26.189.503.941-.251 1.444-1.13 2.448 1.068 0 2.261.251 2.512.816.083.371.125.75.125 1.13Z" />
  <path fill="#FF8B18"
    d="M133.98 99.7c.011.42-.01.84-.062 1.256a12.24 12.24 0 0 0-2.386-.188.635.635 0 0 1-.504-.113.616.616 0 0 1-.25-.452.638.638 0 0 1 .139-.463.622.622 0 0 1 .426-.228 9.354 9.354 0 0 1 2.637.188ZM150.555 99.889a.692.692 0 0 1-.565.314h-.251l-2.197-1.13c.113-.419.282-.82.502-1.193l2.26 1.255a.63.63 0 0 1 .251.754Z" />
  <path fill="#59F186"
    d="M156.08 55.5a3.57 3.57 0 0 1-1.695-2.636l-.314-1.884a.19.19 0 0 0-.188-.188c-.084 0-.147.063-.188.188l-.252 1.884a3.879 3.879 0 0 1-1.758 2.637l-.251.188a.19.19 0 0 0-.062.126v.125l.251.189a3.9 3.9 0 0 1 1.758 2.637l.251 1.883c.042.126.104.188.188.188a.187.187 0 0 0 .188-.188l.314-1.883a3.576 3.576 0 0 1 1.696-2.637l.251-.189c.062 0 .062-.063.062-.125 0-.063 0-.126-.062-.126l-.189-.188Z" />
  <path fill="#FF78B8"
    d="M191.929 31.455a4.027 4.027 0 0 1-1.758-2.7l-.251-1.884-.188-.125c-.126 0-.188.063-.188.125l-.314 1.884a3.699 3.699 0 0 1-1.695 2.7l-.252.125a.248.248 0 0 0-.062.189c0 .062 0 .125.062.125l.252.189a3.575 3.575 0 0 1 1.695 2.7l.314 1.82c0 .025.004.05.014.072a.175.175 0 0 0 .041.061.187.187 0 0 0 .266 0 .19.19 0 0 0 .055-.133l.251-1.82a3.834 3.834 0 0 1 1.758-2.7l.252-.189c.062 0 .062-.063.062-.125a.248.248 0 0 0-.062-.188l-.252-.126Z" />
  <path fill="#FFE65C"
    d="M68.371 24.36a2.951 2.951 0 0 1-1.13-1.758l-.188-1.256c0-.062 0-.062-.063-.062s-.125 0-.125.063l-.189 1.255a2.951 2.951 0 0 1-1.13 1.758h-.188c0 .063-.063.063-.063.126 0 .062.063.062.063.125h.188c.579.429.98 1.054 1.13 1.758l.189 1.256h.188l.188-1.256c.15-.704.552-1.33 1.13-1.758h.189c0-.063.063-.063.063-.125 0-.063-.063-.063-.063-.126h-.189Z" />
  <path fill="#8BD8FF"
    d="M60.65 82.749a2.573 2.573 0 0 1-1.131-1.758l-.188-1.193-.126-.126-.125.126-.189 1.193a2.385 2.385 0 0 1-1.13 1.758l-.126.126h-.062c0 .062 0 .125.063.125l.125.126a2.26 2.26 0 0 1 1.13 1.695l.189 1.255.125.126a.125.125 0 0 0 .126-.126l.188-1.255a2.45 2.45 0 0 1 1.13-1.695l.188-.126v-.126h-.062l-.126-.125Z" />
  <path fill="#8089FF"
    d="M163.049 40.684a2.258 2.258 0 0 1-1.13-1.758l-.188-1.193a.128.128 0 0 0-.037-.089.128.128 0 0 0-.089-.037.128.128 0 0 0-.089.037.128.128 0 0 0-.037.089l-.188 1.193a2.455 2.455 0 0 1-1.13 1.758l-.188.125v.126l.188.125a2.448 2.448 0 0 1 1.13 1.758l.188 1.193.126.126.126-.126.188-1.193a2.258 2.258 0 0 1 1.13-1.758l.126-.125h.062c0-.063 0-.126-.062-.126l-.126-.125Z" />
  <defs>
    <linearGradient id="a" x1="128.16" x2="128.16" y1="116.589" y2="177.106" gradientUnits="userSpaceOnUse">
      <stop stop-color="#5765F1" />
      <stop offset="1" stop-color="#3343D8" />
    </linearGradient>
    <linearGradient id="b" x1="177.885" x2="177.546" y1="42.228" y2="104.911" gradientUnits="userSpaceOnUse">
      <stop stop-color="#8089FF" />
      <stop offset="1" stop-color="#5765F1" />
    </linearGradient>
    <linearGradient id="c" x1="96.072" x2="96.072" y1="73.319" y2="106.456" gradientUnits="userSpaceOnUse">
      <stop stop-color="#6BF" />
      <stop offset="1" stop-color="#8BD8FF" />
    </linearGradient>
    <linearGradient id="d" x1="2779.69" x2="2779.69" y1="2584.76" y2="3534.52" gradientUnits="userSpaceOnUse">
      <stop stop-color="#5765F1" />
      <stop offset="1" stop-color="#3343D8" />
    </linearGradient>
  </defs>
</svg>
