<svg width="103" height="100" viewBox="0 0 103 100" fill="none" xmlns="http://www.w3.org/2000/svg">
<path d="M45.5289 0.14209C28.5861 0.14209 17.2412 15.2935 19.7042 31.0421C21.6448 43.5812 38.5876 64.4051 44.7079 66.4203L42.0955 69.9283C41.8182 70.3095 41.6525 70.7603 41.617 71.2304C41.5816 71.7004 41.6777 72.171 41.8947 72.5895C42.1117 73.0079 42.4409 73.3577 42.8455 73.5996C43.2501 73.8414 43.7141 73.9658 44.1854 73.9588H46.947C47.412 73.952 47.8662 73.8176 48.26 73.5703C48.6537 73.323 48.972 72.9722 49.18 72.5562C49.3879 72.1403 49.4776 71.6752 49.4392 71.2118C49.4008 70.7483 49.2358 70.3043 48.9622 69.9283L46.4245 66.4203C52.4702 64.4051 69.4129 43.5812 71.4281 31.0421C73.8912 15.2935 62.4716 0.14209 45.5289 0.14209Z" fill="#FF52D2"/>
<path d="M20.3016 33.7292H20.6747C20.8987 33.7292 20.9733 33.9531 21.1226 34.0277L21.4211 34.3263V34.7741C21.1226 34.9234 21.2718 35.3712 20.9733 35.4458H20.824C21.7078 37.8412 22.781 40.1623 24.0334 42.3871L24.4813 41.8647H24.8545C25.0037 42.0886 25.3023 42.0886 25.4516 42.2379C25.6008 42.3871 25.5262 42.6857 25.7501 42.7603V43.1335L25.0784 43.8799H24.8545C26.0487 45.9698 27.3921 48.1342 28.8103 50.1495C29.2437 50.2528 29.6347 50.4874 29.9298 50.8212V51.5676H29.8552L32.2436 54.7024L32.5421 54.4038H33.5124C33.7224 54.538 33.9007 54.7163 34.0349 54.9263V55.8966L33.5871 56.3444L36.1994 59.3299V59.0313C36.3699 58.8475 36.5722 58.6958 36.7965 58.5835H37.6175L38.14 58.8074V59.0313L38.2892 59.2553V60.0016L37.6175 60.6734H37.3936C38.3027 61.6563 39.2751 62.5788 40.3045 63.435C40.3791 63.2111 40.5284 63.1364 40.6776 62.9871L41.2001 62.6886H41.5733C41.7226 62.8379 41.8718 62.8379 42.0211 62.9125L42.4689 63.435V64.4053L41.8718 64.9277C42.7459 65.59 43.6985 66.1416 44.7081 66.5698L42.0958 70.0777C41.884 70.3958 41.7323 70.75 41.6479 71.1226C41.7047 71.1554 41.769 71.1726 41.8345 71.1726C41.9 71.1726 41.9644 71.1554 42.0211 71.1226L42.4689 71.7198C42.5436 71.869 42.4689 72.0929 42.6182 72.1676L42.4689 72.8393L42.1704 73.1379C42.4016 73.4518 42.7061 73.7043 43.0574 73.8735C43.4087 74.0426 43.796 74.1232 44.1856 74.1082H46.9472C47.3349 74.1111 47.7181 74.0252 48.0675 73.857C48.4168 73.6888 48.723 73.4428 48.9624 73.1379L48.5892 72.69C48.5146 72.69 48.7385 72.3915 48.3653 72.3169L48.5892 72.0183V71.4958L49.1117 71.048H49.4103C49.3592 70.6427 49.205 70.2572 48.9624 69.9284L46.4247 66.4205C47.4176 66.0051 48.3472 65.4524 49.1863 64.7784L48.6639 64.256V63.2857L49.1117 62.7632L49.4849 62.614H49.9327L50.4552 62.9125C50.62 63.0539 50.748 63.2332 50.8284 63.435C51.724 62.6886 52.6197 61.7183 53.6646 60.748L53.2168 60.5241L52.9929 60.0016V59.106L53.4407 58.5835H54.411L54.6349 58.8074H54.7842L55.0081 59.2553L57.5458 56.419L57.0979 55.8966V54.9263L57.6204 54.4784H58.516L58.8146 54.777L61.2776 51.5676C61.2173 51.453 61.1914 51.3234 61.203 51.1944V50.8958C61.3523 50.6719 61.5762 50.5227 61.5762 50.448L62.2479 50.1495C63.704 48.1084 65.0495 45.9906 66.2784 43.8053H65.9798L65.532 43.2082V42.6857L66.353 41.8647C66.5769 41.79 66.8008 42.0886 67.0247 42.1632H67.174C68.3691 39.9564 69.3921 37.6607 70.2342 35.2966H70.1595C69.861 35.1473 69.9356 34.7741 69.6371 34.6248V34.2516L70.3834 33.5799H70.8313C71.0552 32.6096 71.2791 31.714 71.4284 30.8929C72.0756 26.7238 71.7694 22.4622 70.5327 18.4284H70.1595L69.861 17.906C69.861 17.6821 70.0103 17.6074 70.1595 17.5328C68.8736 13.8264 66.7602 10.4618 63.9797 7.6942C61.1992 4.92664 57.8247 2.82893 54.1124 1.56033C54.0378 1.56033 53.8885 1.48569 53.8139 1.56033L53.6646 1.41106C51.0366 0.561929 48.2909 0.133694 45.5291 0.142215C42.8232 0.151104 40.133 0.55338 37.5429 1.33642C37.4682 1.56033 37.2443 1.41105 37.095 1.48569H37.0204C33.3161 2.76891 29.9492 4.87168 27.1707 7.63725C24.3922 10.4028 22.2738 13.7599 20.9733 17.4582L21.2718 17.8313L20.9733 18.4284L20.6001 18.5777C19.3634 22.6115 19.0572 26.8731 19.7045 31.0422C19.8478 31.9493 20.0472 32.8467 20.3016 33.7292ZM69.861 21.7125L70.1595 21.414H70.9805L71.2791 21.7125V22.5335L70.9805 22.7574H70.3834L69.861 22.235V21.7125ZM69.861 25.8176L70.1595 25.5937H70.9805L71.503 26.1161C71.5776 26.4147 71.1298 26.564 71.2045 26.9371H70.9805L70.7566 27.0864H70.3834L69.861 26.6386V25.8176ZM70.0103 29.7734L70.6074 29.4748C70.682 29.7734 70.9805 29.6241 71.1298 29.6987L71.4284 30.2212V30.7437L70.9805 31.2661H70.3834L69.861 30.9676C69.7863 30.8183 70.0103 30.5198 69.7117 30.4451C69.7657 30.2036 69.8672 29.9753 70.0103 29.7734ZM67.3233 39.2524C67.1527 39.4363 66.9505 39.5879 66.7262 39.7002H66.2784L65.7559 39.4763C65.7591 39.3888 65.7402 39.302 65.7011 39.2238C65.662 39.1455 65.6038 39.0784 65.532 39.0284V38.506C65.6066 38.2821 65.9052 38.1328 65.9798 37.9835H67.0247L67.3233 38.2074V39.2524ZM67.3233 26.34L67.0247 26.8625H66.8008L66.6516 27.0118H66.2037L65.7559 26.564V25.8176L65.9798 25.5937H66.8755L67.3233 26.1161V26.34ZM65.7559 22.3096V21.7125L66.0545 21.414H66.8008L67.0994 21.7125V22.5335L66.7262 22.7574H66.2037L65.7559 22.3096ZM65.9798 13.4277L66.2784 13.1292H66.8008L67.0994 13.4277V13.8755L66.5769 14.3234H66.2037L65.9798 14.0248V13.4277ZM66.2037 17.3089H66.8008L67.0994 17.5328V18.2045L66.4276 18.6524L66.2784 18.5031H65.9798L65.7559 17.906C65.8305 17.6074 66.0545 17.4582 66.2037 17.3089ZM65.7559 29.9973C65.7559 29.9181 65.7874 29.8422 65.8433 29.7862C65.8993 29.7302 65.9753 29.6987 66.0545 29.6987C66.1323 29.7051 66.2101 29.687 66.2771 29.6468C66.344 29.6066 66.3967 29.5465 66.4276 29.4748L66.6516 29.6987H67.0247L67.3233 30.2212V30.8183L66.6516 31.2661H66.2784L65.7559 30.9676V30.5944L65.532 30.3705C65.6037 30.3395 65.6638 30.2868 65.704 30.2199C65.7441 30.153 65.7623 30.0751 65.7559 29.9973ZM65.532 34.4009C65.7617 34.1337 66.0112 33.8842 66.2784 33.6545C66.3221 33.6285 66.3707 33.6117 66.4212 33.6051C66.4716 33.5985 66.5229 33.6024 66.5718 33.6163C66.6208 33.6303 66.6663 33.6542 66.7057 33.6864C66.7451 33.7186 66.7775 33.7586 66.8008 33.8038C67.0247 33.8038 67.0994 33.9531 67.3233 34.1024V34.9234L66.8008 35.3712H66.0545C65.7559 35.2966 65.7559 34.9234 65.6066 34.6995C65.5473 34.6119 65.5208 34.5061 65.532 34.4009ZM63.3675 42.7603V43.1335L62.6958 43.8799H61.8747L61.4269 43.3574V42.5364L62.0987 41.8647H62.3972L62.7704 42.0886C62.9943 42.0886 63.0689 42.2379 63.1436 42.3871C63.2182 42.5364 63.2182 42.6857 63.3675 42.7603ZM61.4269 39.0284V38.506C61.5016 38.2821 61.7255 38.1328 61.8747 37.9835H62.845L63.1436 38.2074V39.2524L62.6211 39.7002H62.1733L61.6508 39.4763C61.5916 39.3198 61.5166 39.1697 61.4269 39.0284ZM63.1436 26.34L62.9197 26.8625H62.6958L62.4718 27.0118H62.0987L61.5762 26.564V25.8176L61.8747 25.5937H62.6958C62.8803 25.7342 63.0329 25.9123 63.1436 26.1161V26.34ZM61.5762 22.0857V21.7125L61.8747 21.414H62.6958L62.9943 21.7125V22.4589L62.6958 22.7574H62.024L61.5762 22.0857ZM61.8001 9.32265L62.1733 9.0241H62.4718L62.9197 9.47192L62.6958 9.99439H62.4718L62.3226 10.2183L61.8001 9.69584V9.32265ZM61.8001 13.4277L62.0987 13.1292H62.6958L62.9943 13.4277V13.8009L62.4718 14.3234H62.0987L61.8001 14.0248V13.4277ZM62.0987 17.3089H62.6958L62.9943 17.5328V18.2045L62.3226 18.6524L61.8747 18.4284C61.7905 18.2221 61.6907 18.0225 61.5762 17.8313L62.0987 17.3089ZM61.5762 30.0719L61.7255 29.848C61.7602 29.8017 61.8053 29.764 61.8571 29.7381C61.9089 29.7122 61.9661 29.6987 62.024 29.6987L62.3226 29.4748L62.4718 29.6987H62.845L63.1436 30.2212V30.7437L62.5465 31.2661H62.1733L61.6508 30.9676C61.5016 30.8183 61.7255 30.5198 61.4269 30.4451C61.1284 30.3705 61.5762 30.2212 61.5762 30.0719ZM61.4269 34.3263L62.1733 33.6545H62.4718L63.1436 34.0277V34.9234L62.6958 35.3712H61.8747C61.8001 35.2966 61.6508 35.2219 61.6508 35.1473C61.6508 35.0726 61.2776 34.6995 61.4269 34.3263ZM61.203 46.94C61.4269 46.7161 61.4269 46.3429 61.7255 46.1937H62.6958L63.1436 46.7908V47.6864L62.9943 47.8357L62.4718 48.2089H61.8747L61.203 47.4625V46.94ZM55.0827 55.7473C54.8588 55.8966 54.9334 56.1951 54.7842 56.3444C54.6349 56.4937 54.3363 56.419 54.1871 56.6429H53.6646L52.9182 55.9712V55.0009L53.4407 54.4784H54.411L55.0827 55.1502V55.7473ZM58.516 52.314H57.8443L57.3218 52.09V51.7915L57.1726 51.6422V50.8212C57.3218 50.6719 57.4711 50.448 57.6204 50.3734C57.7697 50.2987 57.9189 50.1495 58.1429 50.1495L58.4414 50.3734H58.8146L59.1132 50.6719V51.0451L59.3371 51.269C59.1844 51.6974 58.8961 52.0643 58.516 52.314ZM59.0385 46.7908V47.6864C58.8892 47.8357 58.8146 47.985 58.6653 47.985C58.516 47.985 58.4414 48.1342 58.3668 48.2089H57.7697C57.5851 47.9488 57.358 47.7217 57.0979 47.5371V46.94C57.3218 46.7161 57.2472 46.3429 57.5458 46.1937H58.5907L59.0385 46.7908ZM59.0385 39.0284L58.74 39.5509C58.516 39.4763 58.4414 39.6255 58.3668 39.7002H57.7697L57.2472 39.2524V38.2074L57.5458 37.9835H58.5907L59.0385 38.5806V39.0284ZM59.0385 30.3705L58.8146 30.5944V30.9676L58.2921 31.2661H57.7697L57.3218 30.7437V30.2212L57.5458 29.6987H57.9936L58.1429 29.5495C58.2921 29.6987 58.516 29.6987 58.74 29.848C58.9639 29.9973 58.74 30.2958 59.0385 30.3705ZM57.695 5.14294L57.9936 4.84439H58.3668L58.5907 5.44149L58.1429 5.81468L57.695 5.59076V5.14294ZM57.9936 9.0241H58.3668L58.6653 9.24801V9.69584L58.1429 10.1437L57.695 9.91975L57.4711 9.47192L57.9936 9.0241ZM57.4711 13.4277L57.7697 13.1292H58.3668L58.5907 13.4277V14.0248L58.3668 14.3234H57.9936C57.7836 14.1892 57.6053 14.0109 57.4711 13.8009V13.4277ZM57.4711 17.6074L57.7697 17.3089H58.3668L58.8146 17.906C58.7126 18.0671 58.637 18.2435 58.5907 18.4284L57.9936 18.6524C57.7697 18.5777 57.695 18.3538 57.4711 18.1299V17.6074ZM58.8146 21.7125V22.3096L58.3668 22.7574H57.7697L57.4711 22.4589V21.7125L57.7697 21.414H58.516L58.8146 21.7125ZM57.8443 25.5937H58.5907L58.8146 25.8176C58.8892 25.8922 58.8146 26.1161 58.8146 26.2654C58.8146 26.4147 58.8146 26.4893 58.8146 26.6386L58.3668 27.0864H57.9936L57.5458 26.8625C57.3895 26.6129 57.2878 26.3331 57.2472 26.0415L57.8443 25.5937ZM57.3965 34.0277C57.3965 33.9881 57.4122 33.9502 57.4402 33.9222C57.4682 33.8942 57.5062 33.8784 57.5458 33.8784L57.9936 33.6545H58.2175L59.0385 34.4755C58.9837 34.8293 58.797 35.1493 58.516 35.3712H57.7697L57.2472 34.8487V34.177C57.3218 34.1024 57.3218 34.0277 57.3965 34.0277ZM57.3218 42.3871C57.3197 42.3193 57.3407 42.2528 57.3814 42.1986C57.4221 42.1443 57.4801 42.1055 57.5458 42.0886C57.8443 42.0886 57.9936 41.7154 58.4414 41.9393L59.0385 42.5364V43.3574L58.5907 43.8799H57.8443L57.0979 43.2082C56.9487 42.835 57.2472 42.6111 57.3218 42.3871ZM54.411 52.314H53.7392L53.2168 52.09C53.1421 51.9408 53.1421 51.7169 52.9182 51.6422V50.8212L53.366 50.448L53.9631 50.1495L54.6349 50.3734L54.9334 50.6719V51.0451L55.0827 51.269C55.0574 51.4828 54.9837 51.6879 54.8673 51.869C54.751 52.05 54.5949 52.2022 54.411 52.314ZM54.9334 46.7161V47.6864C54.7842 47.985 54.411 47.9103 54.2617 48.2089H53.6646L52.9182 47.3879V46.94L53.366 46.1937H54.411C54.5451 46.4037 54.7234 46.582 54.9334 46.7161ZM54.9334 38.9538C54.8063 39.1107 54.7055 39.2871 54.6349 39.4763L54.1871 39.7002H53.59L53.1421 39.1777V38.2074L53.5153 37.9835H54.411L54.9334 38.4313V38.9538ZM54.9334 30.3705L54.7095 30.5944V30.9676L54.1871 31.2661H53.59C53.4719 31.0455 53.3209 30.8442 53.1421 30.669V30.2212L53.4407 29.6987H53.8139L54.0378 29.4748C54.1124 29.6987 54.411 29.6241 54.5603 29.848C54.7095 30.0719 54.6349 30.2958 54.9334 30.3705ZM54.7095 22.3096L54.1871 22.7574H53.59L53.366 22.4589V21.7125L53.59 21.414H54.411L54.7095 21.7125V22.3096ZM53.59 5.14294L53.8139 4.84439H54.1871L54.4856 5.44149L53.9631 5.81468L53.59 5.59076V5.14294ZM53.8139 9.0241H54.1871L54.4856 9.32265V9.69584L53.9631 10.1437L53.59 9.91975V9.69584L53.4407 9.47192L53.8139 9.0241ZM54.4856 13.4277V14.0248L54.2617 14.3234H53.8139L53.366 13.8009V13.4277L53.59 13.1292H54.1871L54.4856 13.4277ZM53.366 17.6074L53.59 17.3089H54.2617L54.7095 17.906L54.4856 18.4284L53.8885 18.6524C53.6635 18.5378 53.4806 18.3549 53.366 18.1299V17.6074ZM53.1421 26.0415C53.2965 25.8486 53.4718 25.6734 53.6646 25.519H54.411L54.7095 25.8176V26.6386L54.1871 27.0118C53.8885 27.3103 53.6646 26.9371 53.366 26.8625C53.0675 26.7879 53.0675 26.4147 53.1421 26.0415ZM53.1421 34.1024C53.2168 34.0277 53.2914 33.8784 53.366 33.8784C53.4407 33.8784 53.8885 33.5053 54.1871 33.6545L54.9334 34.4009V34.6248L54.4856 35.3712H53.59L53.1421 34.9234V34.1024ZM52.9929 42.7603C53.1421 42.5364 53.1421 42.1632 53.366 42.1632C53.59 42.1632 53.8885 41.79 54.1871 41.8647L54.9334 42.6111V43.3574L54.3363 43.8799H53.6646L52.9182 43.0589C52.9182 43.0589 52.9182 42.835 52.9929 42.7603ZM42.4689 60.0763L41.7972 60.748H41.0508L40.8269 60.5987H40.603L40.3045 60.0016V59.106L40.9762 58.6582H41.7972L42.245 58.8821L42.4689 59.4045V60.0763ZM40.3045 55.9712V55.0009L40.8269 54.4784H41.7972L42.4689 55.2248V55.7473C42.245 55.8966 42.3197 56.1205 42.1704 56.3444C42.0211 56.5683 41.7226 56.419 41.6479 56.6429H41.0508L40.3045 55.9712ZM46.7979 72.4661C46.6487 72.6154 46.7233 72.914 46.4994 73.0632L45.9023 73.3618H45.1559L44.4842 72.69V72.3169L44.2603 72.0929L44.4842 71.869V71.4958L44.932 71.048H45.3052L45.5291 70.8241L45.753 71.048H46.1262L46.7979 71.7198V72.4661ZM46.574 67.3161C46.6487 67.4654 46.6487 67.6893 46.7979 67.764V68.3611C46.7065 68.4645 46.6538 68.5963 46.6487 68.7342C46.574 68.8835 46.4247 69.0328 46.3501 69.0328C46.2723 69.0264 46.1944 69.0446 46.1275 69.0847C46.0605 69.1249 46.0079 69.185 45.9769 69.2567H45.4545C45.0615 69.1145 44.7224 68.8537 44.4842 68.5103V67.6147L44.7081 67.0922H45.0066L45.1559 66.8683H46.1262L46.574 67.3161ZM50.7537 60.0763L50.5298 60.5241L50.0074 60.748H49.3356L48.5892 60.0016V59.3299L48.8878 58.8821H49.1117L49.3356 58.6582H50.3059L50.7537 59.1806V60.0763ZM50.7537 55.8219L49.9327 56.6429H49.5595L48.9624 56.2697C48.8215 56.0816 48.6966 55.8818 48.5892 55.6727V55.2995L49.4103 54.4784H50.3059L50.7537 55.1502V55.8219ZM49.261 25.5937H50.082L50.6045 26.1161V26.4893L50.3805 26.7132V26.9371C50.082 27.0118 49.8581 27.2357 49.4849 27.1611C49.3004 27.0205 49.1478 26.8424 49.0371 26.6386V25.9669L49.261 25.5937ZM49.0371 22.1603V21.7125L49.261 21.414H50.082C50.1566 21.5632 50.3059 21.6379 50.3805 21.7125V22.5335L50.082 22.7574H49.4849C49.301 22.5869 49.1493 22.3846 49.0371 22.1603ZM49.4103 1.03787L49.6342 0.739316L50.1566 1.18714L49.8581 1.56033H49.4849C49.3356 1.41106 49.4103 1.18714 49.4103 1.03787ZM49.4849 4.91903H49.9327L50.1566 5.14294V5.59076L49.6342 5.81468L49.261 5.36685L49.4849 4.91903ZM49.1863 9.24801L49.4849 9.0241H49.8581L50.3059 9.54656L50.1566 9.91975L49.6342 10.1437L49.1863 9.69584V9.24801ZM49.1863 13.4277L49.4849 13.1292H50.082L50.3805 13.4277V13.8009L49.8581 14.3234H49.4849L49.1863 14.0248V13.4277ZM49.4849 17.3089H50.082L50.3805 17.6074V18.2045L49.7088 18.6524L49.4849 18.5031C49.4849 18.4284 49.3356 18.4284 49.261 18.4284L48.9624 17.8313C49.1173 17.6389 49.2924 17.4637 49.4849 17.3089ZM49.1863 29.7734L49.7088 29.4748C49.8581 29.7734 50.082 29.6241 50.3059 29.6987C50.5298 29.7734 50.2313 30.1466 50.6045 30.1466V30.7437L50.082 31.2661H49.4849C49.4103 31.1169 49.1863 31.0422 49.0371 30.9676C48.8878 30.8929 49.1117 30.5198 48.8132 30.3705C48.5146 30.2212 48.9624 29.9226 49.1863 29.7734ZM50.6045 38.2074V39.2524L50.082 39.7002H49.4849C49.4103 39.6255 49.3356 39.4763 49.1117 39.5509C49.0274 39.3446 48.9276 39.145 48.8132 38.9538V38.4313L49.4849 37.9835H50.3059L50.6045 38.2074ZM48.8132 34.3263L49.4849 33.6545H49.7834C50.0074 33.8038 50.3805 33.8038 50.5298 34.1024V34.9234L49.9327 35.3712H49.261C49.0371 35.2219 49.0371 34.9234 48.8132 34.6995V34.3263ZM48.8132 42.6111L49.5595 41.8647H49.9327C50.082 42.014 50.4552 42.014 50.5298 42.2379C50.6045 42.4618 50.903 42.7603 50.7537 43.0589L50.0074 43.8053H49.261L48.8132 43.2082V42.6111ZM50.7537 46.8654V47.4625L50.0074 48.1342H49.4849L48.8132 47.7611V46.7161L49.261 46.1937H50.2313C50.5298 46.3429 50.5298 46.7161 50.7537 46.8654ZM48.8132 51.0451V50.6719L49.1117 50.3734H49.4849L49.7088 50.1495C49.8581 50.0748 49.9327 50.2987 50.082 50.3734C50.1515 50.3675 50.2215 50.3779 50.2863 50.4038C50.3511 50.4297 50.4089 50.4704 50.4552 50.5226L50.7537 50.8212V51.5676L50.5298 52.09L50.0074 52.314H49.3356C48.9833 52.0526 48.7222 51.687 48.5892 51.269L48.8132 51.0451ZM46.7233 64.1067C46.6639 64.1943 46.6375 64.3 46.6487 64.4053L46.2008 64.9277H45.1559L44.4842 64.256V63.2111L44.932 62.7632L45.3052 62.614C45.4545 62.4647 45.6784 62.5393 45.8276 62.614L46.4247 62.9871C46.574 63.2111 46.574 63.435 46.7979 63.5842C46.8424 63.668 46.8592 63.7637 46.8458 63.8576C46.8323 63.9515 46.7895 64.0387 46.7233 64.1067ZM44.6334 58.9567L45.2305 58.6582H46.2008L46.6487 59.1806V60.0763L46.3501 60.5241H46.1262L45.9769 60.6734H45.1559L44.4842 60.0016V59.2553C44.5588 59.1806 44.7827 59.106 44.6334 58.9567ZM44.4842 55.7473V55.2248L45.1559 54.4784H46.1262L46.6487 55.0009V55.8966L45.9023 56.6429H45.4545C45.2305 56.4937 44.932 56.4937 44.7827 56.2697L44.4842 55.7473ZM46.6487 42.7603V43.1335L45.9769 43.8799H45.1559L44.6334 43.3574V42.5364L45.3798 41.8647H45.753C45.8276 42.0886 46.1262 42.0886 46.2755 42.2379C46.4247 42.3871 46.4247 42.6857 46.6487 42.7603ZM46.6487 46.8654V47.4625L45.9023 48.2089H45.3798L44.7081 47.7611V46.7161L45.1559 46.1937H46.1262C46.4247 46.3429 46.4247 46.7161 46.6487 46.8654ZM44.6334 39.0284V38.4313L45.1559 37.9835H46.1262L46.4247 38.2074V39.2524L45.9023 39.7002H45.4545L44.932 39.4763V39.1777L44.6334 39.0284ZM45.0813 25.5937H45.9769L46.4247 26.1161V26.4893L46.2755 26.7132V26.9371C45.9769 27.0118 45.753 27.2357 45.3052 27.1611L44.8574 26.6386V25.9669L45.0813 25.5937ZM44.8574 22.3096V21.7125L45.1559 21.414H45.9769L46.2008 21.7125V22.4589L45.9769 22.7574H45.3798L44.8574 22.3096ZM46.2755 13.8009L45.753 14.3234H45.3052L45.0813 14.0248V13.4277L45.3052 13.2038H45.9769L46.2755 13.4277V13.8009ZM45.2305 1.03787L45.6037 0.739316L45.9769 1.26178L45.753 1.48569H45.3052C45.1559 1.41105 45.3052 1.18714 45.2305 1.03787ZM45.2305 4.91903H45.753L46.0516 5.21758V5.59076L45.5291 5.81468L45.0813 5.36685C45.1559 5.21758 45.4545 5.14294 45.2305 4.91903ZM45.0813 9.32265L45.3798 9.0241H45.753L46.2008 9.47192C46.2008 9.6212 45.9769 9.69584 46.0516 9.84511L45.5291 10.1437L45.0813 9.54656V9.32265ZM45.4545 17.3089H45.9769L46.2755 17.6821V18.2045L45.753 18.6524C45.6037 18.6524 45.5291 18.6524 45.4545 18.5031H45.1559C45.1289 18.4728 45.1084 18.4373 45.0955 18.3988C45.0827 18.3603 45.0778 18.3196 45.0813 18.2792L44.932 18.1299C44.932 18.0553 44.8574 17.9806 44.8574 17.8313L45.4545 17.3089ZM45.0066 29.848C45.1559 29.6241 45.4545 29.6987 45.5291 29.4748L45.753 29.6987H46.1262L46.4247 30.2212V30.8183L45.8276 31.2661H45.3798L44.8574 30.9676V30.5944C44.7827 30.5198 44.7081 30.4451 44.7081 30.3705C44.7081 30.2958 44.8574 29.9973 45.0066 29.848ZM44.6334 34.4755L45.4545 33.5799C45.6429 33.5978 45.8258 33.6533 45.9924 33.743C46.1591 33.8328 46.3061 33.9549 46.4247 34.1024V34.9234L45.9023 35.3712H45.0813C45.0066 35.2966 44.932 35.2966 44.932 35.2219L44.7081 34.6995C44.6334 34.6248 44.6334 34.4755 44.6334 34.4755ZM44.7081 51.0451V50.6719L44.932 50.3734H45.3798L45.5291 50.1495C45.8276 50.1495 45.9023 50.448 46.1262 50.3734L46.6487 50.8212V51.5676L46.3501 52.09L45.9023 52.314H45.1559C44.8493 52.0564 44.6173 51.7213 44.4842 51.3437C44.4095 51.1944 44.6334 51.1197 44.7081 51.0451ZM42.3197 51.6422C42.3197 51.7002 42.3062 51.7573 42.2803 51.8091C42.2544 51.8609 42.2167 51.906 42.1704 51.9408C42.0211 52.09 41.9465 52.2393 41.7972 52.314H41.1255L40.603 52.09L40.3045 51.5676V50.8212C40.5996 50.4874 40.9906 50.2528 41.424 50.1495L41.6479 50.3734H42.0211L42.3197 50.6719V51.0451L42.4689 51.1944C42.5436 51.4183 42.3197 51.4929 42.3197 51.6422ZM40.3045 47.5371V46.94C40.603 46.7161 40.5284 46.3429 40.8269 46.1937H41.7972L42.3197 46.7908V47.6864C42.1704 47.8357 42.0958 47.985 41.8718 47.985L41.5733 48.2089H41.0508C40.8407 47.9454 40.5885 47.7184 40.3045 47.5371ZM42.3197 30.3705L42.0958 30.5944V30.9676L41.5733 31.2661H40.9762L40.5284 30.5944V30.2212L40.8269 29.6987H41.2001L41.424 29.4748C41.4987 29.6987 41.7972 29.6241 41.9465 29.848C42.0958 30.0719 42.0958 30.2958 42.3197 30.3705ZM42.0958 22.3096L41.5733 22.7574H41.0508L40.7523 22.5335V21.7125L41.0508 21.414H41.7972L42.0958 21.7125V22.3096ZM41.8718 18.4284H41.5733C41.527 18.4807 41.4692 18.5214 41.4044 18.5473C41.3396 18.5732 41.2696 18.5836 41.2001 18.5777L40.7523 17.9806V17.4582L41.0508 17.2342H41.6479C41.7972 17.3835 42.0211 17.5328 42.0958 17.7567L41.8718 18.4284ZM41.4987 0.813954L41.7226 1.1125V1.41106C41.5733 1.63497 41.424 1.48569 41.2001 1.56033L40.9762 1.18714L41.4987 0.813954ZM40.9016 5.14294L41.2001 4.91903H41.6479L41.8718 5.36685L41.424 5.81468L40.9016 5.59076V5.14294ZM41.2747 9.09874H41.6479L41.9465 9.47192V9.77048L41.424 10.2183L40.9762 9.99439L40.7523 9.54656L41.2747 9.09874ZM40.7523 13.4277L41.0508 13.1292H41.6479L41.8718 13.4277V14.0248L41.6479 14.3234H41.2001L40.7523 13.8009V13.4277ZM40.5284 26.0415L41.0508 25.519H41.7972L42.0958 25.8176V26.6386L41.6479 27.0118C41.2747 27.3103 41.1255 26.9371 40.8269 26.8625C40.754 26.6971 40.653 26.5456 40.5284 26.4147V26.0415ZM40.5284 34.1024C40.6554 33.9461 40.8144 33.8186 40.9945 33.7285C41.1747 33.6384 41.372 33.5878 41.5733 33.5799L42.3197 34.4009C42.2187 34.7445 42.0678 35.0714 41.8718 35.3712H41.0508L40.5284 34.7741V34.1024ZM40.5284 38.2821L40.7523 37.9835C40.9496 37.947 41.152 37.947 41.3494 37.9835C41.4987 37.9089 41.6479 37.9835 41.7972 37.9835L42.3197 38.4313V39.0284L42.0958 39.2524V39.4016L41.5733 39.7002H40.9762L40.5284 39.1031V38.2821ZM40.3791 42.7603C40.5284 42.5364 40.5284 42.1632 40.8269 42.1632C41.1255 42.1632 41.2747 41.79 41.5733 41.8647C41.803 42.1319 42.0525 42.3814 42.3197 42.6111V43.3574L41.7226 43.8799H41.0508L40.3045 43.0589C40.3791 43.0589 40.3045 42.835 40.3791 42.7603ZM29.9298 47.4625L29.1834 48.2089H28.661L27.9892 47.7611V46.7161L28.4371 46.1937H29.4074C29.7059 46.3429 29.6313 46.7161 29.9298 46.8654V47.4625ZM38.3639 55.7473L37.9907 56.2697C37.916 56.419 37.6921 56.4937 37.4682 56.6429H36.8711L36.1994 55.8966V55.0009L36.7218 54.4784H37.6921L38.3639 55.2248V55.7473ZM37.6921 52.314H36.9458L36.4979 52.09L36.1994 51.5676V50.8212C36.4233 50.6719 36.4979 50.448 36.7965 50.3734L37.2443 50.1495L37.4682 50.3734H37.916L38.14 50.6719V51.0451L38.3639 51.269C38.2605 51.6815 38.0245 52.0487 37.6921 52.314ZM37.6921 35.3712H36.8711L36.4233 34.8487V34.1024C36.5726 33.8038 36.9458 33.8784 37.095 33.6545H37.4682L38.14 34.3263V34.6995C37.916 34.8487 38.0653 35.2966 37.6921 35.3712ZM38.2146 30.3705L37.9907 30.5944V30.9676L37.3936 31.2661H36.8711L36.4233 30.7437V30.2212C36.4939 30.032 36.5947 29.8556 36.7218 29.6987H37.095L37.2443 29.5495C37.3936 29.6987 37.6175 29.6987 37.8414 29.848C38.0653 29.9973 37.916 30.2958 38.2146 30.3705ZM37.1697 4.91903H37.4682L37.7668 5.36685L37.3189 5.81468L36.7965 5.59076V5.14294L37.1697 4.91903ZM37.095 9.0241H37.4682L37.7668 9.32265V9.69584L37.2443 10.1437L36.7965 9.91975C36.8711 9.69584 36.6472 9.6212 36.6472 9.47192L37.095 9.0241ZM36.5726 13.4277L36.8711 13.1292H37.4682L37.7668 13.5024V14.0248L37.3936 14.3234H37.095C36.9022 14.169 36.727 13.9937 36.5726 13.8009V13.4277ZM36.5726 17.6074L36.8711 17.3089H37.4682L37.9907 17.906L37.6921 18.4284L37.095 18.727L36.5726 17.906V17.6074ZM36.5726 21.7125C36.7218 21.6379 36.7965 21.4886 36.8711 21.414H37.6921L37.9907 21.7125V22.3096L37.4682 22.7574H36.8711L36.5726 22.5335V21.7125ZM36.4233 25.9669L37.0204 25.5937H37.6921L37.9907 25.8176V26.6386L37.4682 27.0864C37.3171 27.119 37.1599 27.1082 37.0147 27.0554C36.8695 27.0026 36.7421 26.9099 36.6472 26.7879C36.6472 26.6386 36.3487 26.4147 36.4233 25.9669ZM36.4233 38.2074L36.7218 37.9835H37.6921C37.8414 38.0582 37.916 38.2821 38.14 38.5806V39.0284L37.9907 39.1777C38.0019 39.2829 37.9754 39.3887 37.916 39.4763H37.6921C37.6175 39.4763 37.5429 39.6255 37.5429 39.6255H36.8711L36.4233 39.1777V38.2074ZM36.3487 42.6111C36.4233 42.4618 36.4233 42.1632 36.6472 42.0886C36.8711 42.014 37.1697 41.79 37.4682 41.8647L38.14 42.6111V43.3574L37.6175 43.8799H36.8711C36.6898 43.5958 36.4629 43.3436 36.1994 43.1335C36.174 43.0411 36.1744 42.9435 36.2008 42.8514C36.2271 42.7592 36.2783 42.6761 36.3487 42.6111ZM36.1994 47.0147C36.301 46.7011 36.4808 46.4185 36.7218 46.1937H37.6921L38.14 46.7161V47.6864C38.0653 47.985 37.6921 47.985 37.4682 48.2089H37.0204L36.1994 47.3879V47.0147ZM34.2588 51.269L33.9603 51.9408L33.5124 52.314H32.766L32.3182 52.0154L32.0943 51.5676V50.8212C32.3665 50.4966 32.7309 50.2623 33.1392 50.1495L33.3632 50.3734H33.7363L34.0349 50.6719C34.0349 50.8958 33.9603 51.1198 34.2588 51.269ZM32.0943 47.4625V46.94L32.5421 46.2683H33.5871L34.0349 46.7908V47.6864C33.8856 47.985 33.5124 47.9103 33.3632 48.2089H32.766L32.0943 47.4625ZM33.811 39.2524V39.4016L33.2885 39.7002H32.766L32.2436 39.1777V38.2821L32.4675 37.9835H33.5124L34.0349 38.4313V39.0284L33.811 39.2524ZM33.8856 34.8487C33.8856 35.0726 33.7363 35.2219 33.5124 35.3712H32.766L32.2436 34.9234V34.1024C32.3929 33.8038 32.766 33.8784 32.9153 33.6545H33.2885L34.0349 34.4755C34.0408 34.5451 34.0304 34.615 34.0045 34.6798C33.9786 34.7446 33.9379 34.8025 33.8856 34.8487ZM33.811 30.9676L33.2885 31.2661H32.766L32.2436 30.7437V30.2212L32.5421 29.6987C32.6914 29.5495 32.99 29.848 33.0646 29.5495C33.1392 29.2509 33.5871 29.6241 33.7363 29.848C33.8069 30.0372 33.9078 30.2136 34.0349 30.3705C33.7363 30.5198 33.8856 30.7437 33.811 30.9676ZM32.6914 5.14294L32.99 4.91903H33.3632L33.5871 5.36685L33.1392 5.81468C33.0646 5.6654 32.8407 5.6654 32.6914 5.59076V5.14294ZM32.9153 9.0241H33.3632L33.6617 9.32265V9.69584L33.1392 10.1437L32.6914 9.91975C32.6948 9.87931 32.69 9.8386 32.6772 9.80011C32.6643 9.76161 32.6438 9.72613 32.6168 9.69584L32.4675 9.47192L32.9153 9.0241ZM32.4675 13.4277L32.766 13.1292H33.3632L33.5871 13.4277V14.0248L33.3632 14.3234H32.99L32.4675 13.8009V13.4277ZM32.4675 17.5328L32.766 17.3089H33.3632L33.811 17.7567C33.8856 17.9806 33.7363 18.0553 33.6617 18.1299C33.6133 18.1945 33.5871 18.2731 33.5871 18.3538L32.99 18.6524C32.766 18.5777 32.6914 18.3538 32.4675 18.2045V17.5328ZM32.4675 21.7125L32.766 21.414H33.5871L33.811 21.7125V22.3096C33.6704 22.4941 33.4923 22.6467 33.2885 22.7574H32.766L32.4675 22.5335V21.7125ZM32.4675 25.8176C32.5421 25.7429 32.6914 25.6683 32.766 25.519H33.5871L33.811 25.8176V26.6386L33.2885 27.0118C33.0646 27.3103 32.8407 26.9371 32.5421 26.8625C32.2436 26.7879 32.1689 26.4147 32.2436 26.1161C32.3182 25.8176 32.3929 25.8922 32.4675 25.8176ZM32.0943 42.7603C32.3182 42.6111 32.2436 42.1632 32.6168 42.0886C32.99 42.014 33.0646 41.79 33.2885 41.8647L34.0349 42.5364V43.3574L33.5124 43.8799H32.766L32.0943 43.1335V42.7603ZM29.8552 43.2828L29.2581 43.8053H28.4371L27.9146 43.3574C27.9514 43.11 27.9514 42.8585 27.9146 42.6111C28.1781 42.4009 28.4051 42.1488 28.5863 41.8647C28.9595 41.7154 29.1834 42.0886 29.4074 42.0886C29.6313 42.0886 29.7059 42.3125 29.7059 42.3871C29.7059 42.4618 30.0791 42.835 29.8552 43.2828ZM27.9146 38.9538V38.4313L28.5117 37.9835H29.4074L29.7059 38.2074V39.2524L29.1834 39.7002H28.661C28.5117 39.6255 28.4371 39.4763 28.2132 39.5509C28.1289 39.3446 28.0291 39.145 27.9146 38.9538ZM29.482 26.8625C29.1834 26.9371 29.0342 27.1611 28.5863 27.0864L28.1385 26.6386V25.8176L28.4371 25.519H29.2581C29.3954 25.7693 29.5718 25.996 29.7805 26.1908C29.8552 26.34 29.482 26.564 29.482 26.8625ZM28.1385 22.3096V21.7125L28.4371 21.414H29.1834L29.482 21.7125V22.4589L29.2581 22.7574H28.5863L28.1385 22.3096ZM29.482 13.8755L28.9595 14.3234H28.5863L28.3624 14.0248V13.4277L28.5863 13.1292H29.1834L29.482 13.4277V13.8755ZM28.7356 9.0241H29.0342L29.482 9.47192L29.1834 9.99439L28.8103 10.1437C28.6258 10.0031 28.4731 9.82503 28.3624 9.6212C28.3554 9.49389 28.3303 9.36824 28.2878 9.24801L28.7356 9.0241ZM28.5863 17.3089H29.1834L29.482 17.5328C29.5196 17.7551 29.5196 17.9822 29.482 18.2045L29.0342 18.6524C28.8849 18.727 28.8103 18.6524 28.661 18.5031H28.4371L28.1385 17.9806C28.1385 17.6074 28.5117 17.5328 28.5863 17.3089ZM28.2878 29.848L28.8103 29.4748L29.0342 29.6987H29.4074L29.7059 30.2212V30.8183L29.1834 31.2661H28.661L28.1385 30.9676V30.5944L27.9146 30.3705C28.1385 30.2958 28.0639 29.9973 28.2878 29.848ZM28.8103 33.6545H28.9595L29.6313 33.9531C29.6313 34.1024 29.7059 34.1024 29.7059 34.1024V34.9234L29.1834 35.3712H28.4371C28.1385 35.2966 28.2132 34.9234 27.9892 34.6995C27.9183 34.5889 27.8917 34.4556 27.9146 34.3263L28.8103 33.6545ZM25.6008 39.2524L25.0037 39.7002H24.5559L24.0334 39.4763C24.0366 39.3888 24.0177 39.302 23.9786 39.2238C23.9395 39.1455 23.8814 39.0784 23.8095 39.0284V38.506C23.8842 38.2821 24.1827 38.1328 24.2574 37.9835H25.3023L25.6008 38.2074V39.2524ZM24.2574 25.5937H25.0784C25.2125 25.8037 25.3908 25.982 25.6008 26.1161V26.4893L25.3769 26.7132V26.9371C25.0784 27.0118 24.8545 27.2357 24.4813 27.1611C24.2968 27.0205 24.1441 26.8424 24.0334 26.6386V25.9669L24.2574 25.5937ZM24.0334 22.1603V21.7125L24.2574 21.414H25.0784C25.2276 21.4886 25.3023 21.6379 25.3769 21.7125V22.5335L25.0784 22.7574H24.4813L24.0334 22.1603ZM24.1827 13.4277L24.4813 13.1292H25.0784L25.3769 13.4277V13.8755L24.8545 14.3234H24.4813L24.1827 14.0248V13.4277ZM24.4813 17.3089H25.0784L25.3769 17.5328V18.2045L24.7798 18.6524L24.2574 18.4284C24.1731 18.2221 24.0733 18.0225 23.9588 17.8313C24.0334 17.6074 24.332 17.5328 24.4813 17.3089ZM24.0334 29.9973C24.0313 29.9295 24.0523 29.863 24.093 29.8087C24.1337 29.7544 24.1917 29.7157 24.2574 29.6987C24.4299 29.6846 24.5903 29.6044 24.7052 29.4748L24.8545 29.6987H25.3023L25.5262 30.2212V30.8183L24.9291 31.2661H24.5559L24.0334 30.9676V30.5944L23.8095 30.3705C23.8812 30.3395 23.9413 30.2868 23.9815 30.2199C24.0217 30.153 24.0398 30.0751 24.0334 29.9973ZM23.8095 34.4755L24.6305 33.5799C25.0066 33.6309 25.3513 33.8165 25.6008 34.1024V34.9234L25.0784 35.3712H24.1827C24.1081 35.2966 24.0334 35.2966 24.0334 35.2219L23.8095 34.6995C23.7349 34.6248 23.8095 34.4755 23.8095 34.4755ZM21.4211 30.3705C21.3465 30.4451 21.2718 30.5198 21.2718 30.5944V30.9676L20.6747 31.2661H20.1523L19.7045 30.5944V30.2212L19.9284 29.6987H20.3762L20.5255 29.4748C20.6747 29.6987 20.9733 29.6241 21.1226 29.848C21.2718 30.0719 21.1972 30.2958 21.4211 30.3705ZM19.8537 21.7125L20.1523 21.414H20.9733L21.1972 21.6379C21.2718 21.8618 21.1972 22.0111 21.2718 22.235L20.7494 22.7574H20.1523L19.8537 22.5335V21.7125ZM19.7045 26.0415L20.1523 25.519H20.9733L21.1972 25.8176V26.6386L20.7494 27.0118C20.4508 27.3103 20.2269 26.9371 19.9284 26.8625C19.6298 26.7879 19.6298 26.4147 19.7045 26.0415Z" fill="#A4EF00"/>
<path d="M76.4715 26.2485C61.8194 26.2485 52.0083 39.3078 54.1384 52.8818C55.8166 63.6895 70.4686 81.638 75.7615 83.3749L73.5023 86.3985C73.2625 86.727 73.1192 87.1156 73.0885 87.5208C73.0579 87.9259 73.141 88.3315 73.3286 88.6922C73.5163 89.0529 73.801 89.3544 74.1509 89.5628C74.5008 89.7713 74.902 89.8785 75.3096 89.8724H77.6979C78.1 89.8666 78.4928 89.7508 78.8333 89.5376C79.1739 89.3244 79.4491 89.022 79.6289 88.6635C79.8088 88.305 79.8864 87.9042 79.8531 87.5047C79.8199 87.1053 79.6772 86.7226 79.4406 86.3985L77.246 83.3749C82.4743 81.638 97.1264 63.6895 98.8691 52.8818C100.999 39.3078 91.1236 26.2485 76.4715 26.2485Z" fill="#A4EF00"/>
<path d="M54.6547 55.1978H54.9774C55.171 55.1978 55.2356 55.3908 55.3647 55.4551L55.6229 55.7125V56.0985C55.3647 56.2271 55.4938 56.6131 55.2356 56.6774H55.1065C55.8708 58.742 56.7989 60.7426 57.882 62.6603L58.2693 62.21H58.592C58.7211 62.403 58.9793 62.403 59.1084 62.5316C59.2375 62.6603 59.1729 62.9176 59.3666 62.9819V63.3036L58.7857 63.9469H58.592C59.6248 65.7482 60.7866 67.6138 62.013 69.3508C62.3878 69.4398 62.7259 69.642 62.9812 69.9297V70.5731H62.9166L64.9821 73.275L65.2403 73.0177H66.0794C66.261 73.1333 66.4152 73.287 66.5312 73.468V74.3043L66.144 74.6903L68.4031 77.2635V77.0062C68.5506 76.8477 68.7255 76.717 68.9195 76.6202H69.6295L70.0813 76.8132V77.0062L70.2104 77.1992V77.8425L69.6295 78.4215H69.4358C70.2221 79.2687 71.063 80.0638 71.9532 80.8018C72.0177 80.6088 72.1468 80.5444 72.2759 80.4158L72.7277 80.1584H73.0504C73.1795 80.2871 73.3086 80.2871 73.4377 80.3514L73.825 80.8018V81.6381L73.3086 82.0884C74.0645 82.6592 74.8883 83.1346 75.7614 83.5037L73.5023 86.5273C73.3192 86.8014 73.1879 87.1067 73.115 87.4279C73.1641 87.4561 73.2197 87.471 73.2764 87.471C73.333 87.471 73.3887 87.4561 73.4377 87.4279L73.825 87.9426C73.8896 88.0712 73.825 88.2642 73.9541 88.3286L73.825 88.9075L73.5668 89.1649C73.7668 89.4354 74.0301 89.6531 74.3339 89.7989C74.6377 89.9447 74.9727 90.0141 75.3096 90.0012H77.6978C78.0331 90.0037 78.3645 89.9297 78.6666 89.7847C78.9687 89.6397 79.2335 89.4277 79.4406 89.1649L79.1178 88.7789C79.0533 88.7789 79.2469 88.5215 78.9242 88.4572L79.1178 88.1999V87.7496L79.5697 87.3636H79.8278C79.7837 87.0142 79.6503 86.682 79.4406 86.3986L77.246 83.375C78.1046 83.017 78.9085 82.5406 79.6342 81.9597L79.1824 81.5094V80.6731L79.5697 80.2228L79.8924 80.0941H80.2797L80.7315 80.3514C80.874 80.4733 80.9847 80.6279 81.0542 80.8018C81.8288 80.1584 82.6033 79.3221 83.507 78.4858L83.1197 78.2928L82.9261 77.8425V77.0705L83.3134 76.6202H84.1525L84.3461 76.8132H84.4752L84.6688 77.1992L86.8634 74.7546L86.4761 74.3043V73.468L86.928 73.082H87.7025L87.9607 73.3393L90.0907 70.5731C90.0386 70.4743 90.0162 70.3626 90.0262 70.2514V69.9941C90.1553 69.8011 90.3489 69.6724 90.3489 69.6081L90.9299 69.3508C92.1891 67.5915 93.3526 65.7662 94.4154 63.8826H94.1572L93.7699 63.3679V62.9176L94.4799 62.21C94.6736 62.1456 94.8672 62.403 95.0608 62.4673H95.1899C96.2234 60.5652 97.1082 58.5865 97.8363 56.5488H97.7718C97.5136 56.4201 97.5782 56.0985 97.32 55.9698V55.6481L97.9654 55.0692H98.3527C98.5464 54.2329 98.74 53.4609 98.8691 52.7532C99.4288 49.1598 99.164 45.4866 98.0945 42.0099H97.7718L97.5136 41.5595C97.5136 41.3665 97.6427 41.3022 97.7718 41.2379C96.6598 38.0433 94.8321 35.1432 92.4275 32.7578C90.0229 30.3724 87.1047 28.5644 83.8943 27.4709C83.8297 27.4709 83.7006 27.4066 83.6361 27.4709L83.507 27.3423C81.2343 26.6104 78.8598 26.2413 76.4714 26.2486C74.1314 26.2563 71.8049 26.603 69.5649 27.2779C69.5004 27.4709 69.3067 27.3423 69.1777 27.4066H69.1131C65.9096 28.5126 62.9979 30.325 60.5951 32.7087C58.1923 35.0924 56.3602 37.9859 55.2356 41.1736L55.4938 41.4952L55.2356 42.0099L54.9129 42.1385C53.8434 45.6153 53.5786 49.2884 54.1383 52.8819C54.2623 53.6638 54.4347 54.4372 54.6547 55.1978ZM97.5136 44.8404L97.7718 44.5831H98.4818L98.74 44.8404V45.5481L98.4818 45.7411H97.9654L97.5136 45.2908V44.8404ZM97.5136 48.3787L97.7718 48.1857H98.4818L98.9336 48.636C98.9982 48.8933 98.6109 49.022 98.6754 49.3437H98.4818L98.2882 49.4723H97.9654L97.5136 49.0863V48.3787ZM97.6427 51.7883L98.1591 51.5309C98.2236 51.7883 98.4818 51.6596 98.6109 51.7239L98.8691 52.1742V52.6246L98.4818 53.0749H97.9654L97.5136 52.8176C97.4491 52.6889 97.6427 52.4316 97.3845 52.3672C97.4312 52.1591 97.519 51.9623 97.6427 51.7883ZM95.319 59.9584C95.1715 60.1169 94.9966 60.2476 94.8027 60.3443H94.4154L93.9635 60.1513C93.9663 60.076 93.95 60.0012 93.9161 59.9337C93.8823 59.8663 93.832 59.8084 93.7699 59.7654V59.315C93.8345 59.122 94.0926 58.9934 94.1572 58.8647H95.0608L95.319 59.0577V59.9584ZM95.319 48.829L95.0608 49.2793H94.8672L94.7381 49.408H94.3508L93.9635 49.022V48.3787L94.1572 48.1857H94.9317L95.319 48.636V48.829ZM93.9635 45.3551V44.8404L94.2217 44.5831H94.8672L95.1254 44.8404V45.5481L94.8027 45.7411H94.3508L93.9635 45.3551ZM94.1572 37.6997L94.4154 37.4423H94.8672L95.1254 37.6997V38.0856L94.6736 38.4716H94.3508L94.1572 38.2143V37.6997ZM94.3508 41.0449H94.8672L95.1254 41.2379V41.8169L94.5445 42.2029L94.4154 42.0742H94.1572L93.9635 41.5595C94.0281 41.3022 94.2217 41.1736 94.3508 41.0449ZM93.9635 51.9812C93.9635 51.913 93.9907 51.8475 94.0392 51.7993C94.0876 51.751 94.1533 51.7239 94.2217 51.7239C94.289 51.7294 94.3563 51.7138 94.4142 51.6792C94.4721 51.6445 94.5177 51.5927 94.5445 51.5309L94.7381 51.7239H95.0608L95.319 52.1742V52.6889L94.7381 53.0749H94.4154L93.9635 52.8176V52.4959L93.7699 52.3029C93.8319 52.2762 93.8839 52.2308 93.9186 52.1731C93.9534 52.1154 93.9691 52.0483 93.9635 51.9812ZM93.7699 55.7768C93.9685 55.5465 94.1843 55.3315 94.4154 55.1335C94.4532 55.111 94.4952 55.0965 94.5389 55.0909C94.5825 55.0852 94.6268 55.0885 94.6692 55.1006C94.7115 55.1126 94.7509 55.1332 94.7849 55.161C94.819 55.1888 94.847 55.2232 94.8672 55.2622C95.0608 55.2622 95.1254 55.3908 95.319 55.5195V56.2271L94.8672 56.6131H94.2217C93.9635 56.5488 93.9635 56.2271 93.8345 56.0341C93.7831 55.9587 93.7602 55.8675 93.7699 55.7768ZM91.8981 62.9819V63.3036L91.3171 63.9469H90.6071L90.2198 63.4966V62.7889L90.8008 62.21H91.0589L91.3817 62.403C91.5753 62.403 91.6399 62.5316 91.7044 62.6603C91.769 62.7889 91.769 62.9176 91.8981 62.9819ZM90.2198 59.7654V59.315C90.2844 59.122 90.478 58.9934 90.6071 58.8647H91.4462L91.7044 59.0577V59.9584L91.2526 60.3443H90.8653L90.4135 60.1513C90.3623 60.0165 90.2974 59.8871 90.2198 59.7654ZM91.7044 48.829L91.5108 49.2793H91.3171L91.1235 49.408H90.8008L90.3489 49.022V48.3787L90.6071 48.1857H91.3171C91.4767 48.3068 91.6087 48.4603 91.7044 48.636V48.829ZM90.3489 45.1621V44.8404L90.6071 44.5831H91.3171L91.5753 44.8404V45.4838L91.3171 45.7411H90.7362L90.3489 45.1621ZM90.5426 34.1614L90.8653 33.9041H91.1235L91.5108 34.2901L91.3171 34.7404H91.1235L90.9944 34.9334L90.5426 34.4831V34.1614ZM90.5426 37.6997L90.8008 37.4423H91.3171L91.5753 37.6997V38.0213L91.1235 38.4716H90.8008L90.5426 38.2143V37.6997ZM90.8008 41.0449H91.3171L91.5753 41.2379V41.8169L90.9944 42.2029L90.6071 42.0099C90.5343 41.832 90.4479 41.66 90.3489 41.4952L90.8008 41.0449ZM90.3489 52.0456L90.478 51.8526C90.5081 51.8126 90.5471 51.7802 90.5919 51.7579C90.6367 51.7355 90.6861 51.7239 90.7362 51.7239L90.9944 51.5309L91.1235 51.7239H91.4462L91.7044 52.1742V52.6246L91.188 53.0749H90.8653L90.4135 52.8176C90.2844 52.6889 90.478 52.4316 90.2198 52.3672C89.9617 52.3029 90.3489 52.1742 90.3489 52.0456ZM90.2198 55.7125L90.8653 55.1335H91.1235L91.7044 55.4551V56.2271L91.3171 56.6131H90.6071C90.5426 56.5488 90.4135 56.4845 90.4135 56.4201C90.4135 56.3558 90.0907 56.0341 90.2198 55.7125ZM90.0262 66.5845C90.2198 66.3915 90.2198 66.0698 90.478 65.9412H91.3171L91.7044 66.4558V67.2278L91.5753 67.3565L91.1235 67.6781H90.6071L90.0262 67.0348V66.5845ZM84.7334 74.1756C84.5397 74.3043 84.6043 74.5616 84.4752 74.6903C84.3461 74.8189 84.0879 74.7546 83.9588 74.9476H83.507L82.8615 74.3686V73.5323L83.3134 73.082H84.1525L84.7334 73.661V74.1756ZM87.7025 71.2164H87.1216L86.6698 71.0234V70.766L86.5407 70.6374V69.9297C86.6698 69.8011 86.7989 69.6081 86.928 69.5437C87.0571 69.4794 87.1862 69.3508 87.3798 69.3508L87.638 69.5437H87.9607L88.2189 69.8011V70.1227L88.4125 70.3157C88.2805 70.6849 88.0312 71.0011 87.7025 71.2164ZM88.1544 66.4558V67.2278C88.0253 67.3565 87.9607 67.4851 87.8316 67.4851C87.7025 67.4851 87.638 67.6138 87.5734 67.6781H87.0571C86.8975 67.454 86.7011 67.2582 86.4761 67.0992V66.5845C86.6698 66.3915 86.6052 66.0698 86.8634 65.9412H87.7671L88.1544 66.4558ZM88.1544 59.7654L87.8962 60.2157C87.7025 60.1514 87.638 60.28 87.5734 60.3443H87.0571L86.6052 59.9584V59.0577L86.8634 58.8647H87.7671L88.1544 59.3794V59.7654ZM88.1544 52.3029L87.9607 52.4959V52.8176L87.5089 53.0749H87.0571L86.6698 52.6246V52.1742L86.8634 51.7239H87.2507L87.3798 51.5953C87.5089 51.7239 87.7025 51.7239 87.8962 51.8526C88.0898 51.9812 87.8962 52.2386 88.1544 52.3029ZM86.9925 30.5589L87.2507 30.3015H87.5734L87.7671 30.8162L87.3798 31.1378L86.9925 30.9448V30.5589ZM87.2507 33.9041H87.5734L87.8316 34.0971V34.4831L87.3798 34.8691L86.9925 34.6761L86.7989 34.2901L87.2507 33.9041ZM86.7989 37.6997L87.0571 37.4423H87.5734L87.7671 37.6997V38.2143L87.5734 38.4716H87.2507C87.0691 38.356 86.9149 38.2023 86.7989 38.0213V37.6997ZM86.7989 41.3022L87.0571 41.0449H87.5734L87.9607 41.5595C87.8725 41.6984 87.8072 41.8504 87.7671 42.0099L87.2507 42.2029C87.0571 42.1385 86.9925 41.9455 86.7989 41.7525V41.3022ZM87.9607 44.8404V45.3551L87.5734 45.7411H87.0571L86.7989 45.4838V44.8404L87.0571 44.5831H87.7025L87.9607 44.8404ZM87.1216 48.1857H87.7671L87.9607 48.3787C88.0253 48.443 87.9607 48.636 87.9607 48.7647C87.9607 48.8933 87.9607 48.9577 87.9607 49.0863L87.5734 49.4723H87.2507L86.8634 49.2793C86.7283 49.0642 86.6403 48.8231 86.6052 48.5717L87.1216 48.1857ZM86.7343 55.4551C86.7343 55.421 86.7479 55.3883 86.7721 55.3642C86.7963 55.34 86.8292 55.3265 86.8634 55.3265L87.2507 55.1335H87.4443L88.1544 55.8411C88.1069 56.1461 87.9455 56.4219 87.7025 56.6131H87.0571L86.6052 56.1628V55.5838C86.6698 55.5195 86.6698 55.4551 86.7343 55.4551ZM86.6698 62.6603C86.6679 62.6018 86.6861 62.5445 86.7213 62.4977C86.7565 62.451 86.8066 62.4175 86.8634 62.403C87.1216 62.403 87.2507 62.0813 87.638 62.2743L88.1544 62.7889V63.4966L87.7671 63.9469H87.1216L86.4761 63.3679C86.347 63.0463 86.6052 62.8533 86.6698 62.6603ZM84.1525 71.2164H83.5715L83.1197 71.0234C83.0552 70.8947 83.0552 70.7017 82.8615 70.6374V69.9297L83.2488 69.6081L83.7652 69.3508L84.3461 69.5437L84.6043 69.8011V70.1227L84.7334 70.3157C84.7115 70.4999 84.6478 70.6768 84.5471 70.8328C84.4465 70.9889 84.3115 71.12 84.1525 71.2164ZM84.6043 66.3915V67.2278C84.4752 67.4851 84.1525 67.4208 84.0234 67.6781H83.507L82.8615 66.9705V66.5845L83.2488 65.9412H84.1525C84.2685 66.1222 84.4227 66.2759 84.6043 66.3915ZM84.6043 59.701C84.4943 59.8362 84.4072 59.9883 84.3461 60.1513L83.9588 60.3443H83.4424L83.0552 59.894V59.0577L83.3779 58.8647H84.1525L84.6043 59.2507V59.701ZM84.6043 52.3029L84.4106 52.4959V52.8176L83.9588 53.0749H83.4424C83.3403 52.8847 83.2097 52.7112 83.0552 52.5602V52.1742L83.3134 51.7239H83.6361L83.8297 51.5309C83.8943 51.7239 84.1525 51.6596 84.2816 51.8526C84.4106 52.0456 84.3461 52.2386 84.6043 52.3029ZM84.4106 45.3551L83.9588 45.7411H83.4424L83.2488 45.4838V44.8404L83.4424 44.5831H84.1525L84.4106 44.8404V45.3551ZM83.4424 30.5589L83.6361 30.3015H83.9588L84.217 30.8162L83.7652 31.1378L83.4424 30.9448V30.5589ZM83.6361 33.9041H83.9588L84.217 34.1614V34.4831L83.7652 34.8691L83.4424 34.6761V34.4831L83.3134 34.2901L83.6361 33.9041ZM84.217 37.6997V38.2143L84.0234 38.4716H83.6361L83.2488 38.0213V37.6997L83.4424 37.4423H83.9588L84.217 37.6997ZM83.2488 41.3022L83.4424 41.0449H84.0234L84.4106 41.5595L84.217 42.0099L83.7006 42.2029C83.5061 42.1041 83.3479 41.9465 83.2488 41.7525V41.3022ZM83.0552 48.5717C83.1887 48.4055 83.3402 48.2544 83.507 48.1214H84.1525L84.4106 48.3787V49.0863L83.9588 49.408C83.7006 49.6653 83.507 49.3437 83.2488 49.2793C82.9906 49.215 82.9906 48.8933 83.0552 48.5717ZM83.0552 55.5195C83.1197 55.4552 83.1843 55.3265 83.2488 55.3265C83.3134 55.3265 83.7006 55.0048 83.9588 55.1335L84.6043 55.7768V55.9698L84.217 56.6131H83.4424L83.0552 56.2271V55.5195ZM82.9261 62.9819C83.0552 62.7889 83.0552 62.4673 83.2488 62.4673C83.4425 62.4673 83.7006 62.1456 83.9588 62.21L84.6043 62.8533V63.4966L84.0879 63.9469H83.507L82.8615 63.2393C82.8615 63.2393 82.8615 63.0463 82.9261 62.9819ZM73.825 77.9068L73.2441 78.4858H72.5986L72.405 78.3572H72.2113L71.9532 77.8425V77.0705L72.5341 76.6846H73.2441L73.6314 76.8775L73.825 77.3279V77.9068ZM71.9532 74.3686V73.5323L72.405 73.082H73.2441L73.825 73.7253V74.1756C73.6314 74.3043 73.6959 74.4973 73.5668 74.6903C73.4377 74.8833 73.1795 74.7546 73.115 74.9476H72.5986L71.9532 74.3686ZM77.5687 88.5859C77.4396 88.7145 77.5042 88.9719 77.3105 89.1005L76.7942 89.3579H76.1487L75.5678 88.7789V88.4572L75.3741 88.2642L75.5678 88.0712V87.7496L75.955 87.3636H76.2778L76.4714 87.1706L76.6651 87.3636H76.9878L77.5687 87.9426V88.5859ZM77.3751 84.147C77.4396 84.2757 77.4396 84.4687 77.5687 84.533V85.0476C77.4897 85.1368 77.4441 85.2504 77.4396 85.3693C77.3751 85.498 77.246 85.6266 77.1814 85.6266C77.1141 85.6211 77.0468 85.6368 76.9889 85.6714C76.931 85.706 76.8855 85.7579 76.8587 85.8196H76.4069C76.067 85.6971 75.7738 85.4723 75.5678 85.1763V84.4043L75.7614 83.954H76.0196L76.1487 83.761H76.9878L77.3751 84.147ZM80.9897 77.9068L80.796 78.2928L80.3442 78.4858H79.7633L79.1178 77.8425V77.2635L79.376 76.8775H79.5697L79.7633 76.6846H80.6024L80.9897 77.1349V77.9068ZM80.9897 74.24L80.2797 74.9476H79.9569L79.4406 74.6259C79.3187 74.4637 79.2107 74.2916 79.1178 74.1113V73.7896L79.8278 73.082H80.6024L80.9897 73.661V74.24ZM79.6987 48.1857H80.4088L80.8606 48.636V48.9577L80.6669 49.1507V49.3437C80.4088 49.408 80.2151 49.601 79.8924 49.5366C79.7328 49.4155 79.6008 49.262 79.5051 49.0863V48.5073L79.6987 48.1857ZM79.5051 45.2264V44.8404L79.6987 44.5831H80.4088C80.4733 44.7118 80.6024 44.7761 80.6669 44.8404V45.5481L80.4088 45.7411H79.8924C79.7334 45.5941 79.6022 45.4198 79.5051 45.2264ZM79.8278 27.0206L80.0215 26.7633L80.4733 27.1493L80.2151 27.4709H79.8924C79.7633 27.3423 79.8278 27.1493 79.8278 27.0206ZM79.8924 30.3659H80.2797L80.4733 30.5589V30.9448L80.0215 31.1378L79.6987 30.7518L79.8924 30.3659ZM79.6342 34.0971L79.8924 33.9041H80.2151L80.6024 34.3544L80.4733 34.6761L80.0215 34.8691L79.6342 34.4831V34.0971ZM79.6342 37.6997L79.8924 37.4423H80.4088L80.6669 37.6997V38.0213L80.2151 38.4716H79.8924L79.6342 38.2143V37.6997ZM79.8924 41.0449H80.4088L80.6669 41.3022V41.8169L80.086 42.2029L79.8924 42.0742C79.8924 42.0099 79.7633 42.0099 79.6987 42.0099L79.4406 41.4952C79.5745 41.3293 79.726 41.1784 79.8924 41.0449ZM79.6342 51.7883L80.086 51.5309C80.2151 51.7883 80.4088 51.6596 80.6024 51.7239C80.796 51.7883 80.5379 52.1099 80.8606 52.1099V52.6246L80.4088 53.0749H79.8924C79.8278 52.9462 79.6342 52.8819 79.5051 52.8176C79.376 52.7532 79.5697 52.4316 79.3115 52.3029C79.0533 52.1742 79.4406 51.9169 79.6342 51.7883ZM80.8606 59.0577V59.9584L80.4088 60.3443H79.8924C79.8278 60.28 79.7633 60.1514 79.5697 60.2157C79.4968 60.0379 79.4105 59.8658 79.3115 59.701V59.2507L79.8924 58.8647H80.6024L80.8606 59.0577ZM79.3115 55.7125L79.8924 55.1335H80.1506C80.3442 55.2622 80.6669 55.2622 80.796 55.5195V56.2271L80.2797 56.6131H79.6987C79.5051 56.4845 79.5051 56.2271 79.3115 56.0341V55.7125ZM79.3115 62.8533L79.9569 62.21H80.2797C80.4088 62.3386 80.7315 62.3386 80.796 62.5316C80.8606 62.7246 81.1188 62.9819 80.9897 63.2393L80.3442 63.8826H79.6987L79.3115 63.3679V62.8533ZM80.9897 66.5202V67.0348L80.3442 67.6138H79.8924L79.3115 67.2921V66.3915L79.6987 65.9412H80.5379C80.796 66.0698 80.796 66.3915 80.9897 66.5202ZM79.3115 70.1227V69.8011L79.5697 69.5437H79.8924L80.086 69.3508C80.2151 69.2864 80.2797 69.4794 80.4088 69.5437C80.4689 69.5386 80.5294 69.5476 80.5854 69.57C80.6415 69.5923 80.6915 69.6274 80.7315 69.6724L80.9897 69.9297V70.5731L80.796 71.0234L80.3442 71.2164H79.7633C79.4586 70.9911 79.2328 70.676 79.1178 70.3157L79.3115 70.1227ZM77.5042 81.3807C77.4528 81.4562 77.43 81.5474 77.4396 81.6381L77.0523 82.0884H76.1487L75.5678 81.5094V80.6088L75.955 80.2228L76.2778 80.0941C76.4069 79.9655 76.6005 80.0298 76.7296 80.0941L77.246 80.4158C77.3751 80.6088 77.3751 80.8018 77.5687 80.9304C77.6072 81.0026 77.6217 81.0851 77.6101 81.1661C77.5985 81.247 77.5614 81.3222 77.5042 81.3807ZM75.6969 76.9419L76.2132 76.6846H77.0523L77.4396 77.1349V77.9068L77.1814 78.2928H76.9878L76.8587 78.4215H76.1487L75.5678 77.8425V77.1992C75.6323 77.1349 75.826 77.0705 75.6969 76.9419ZM75.5678 74.1756V73.7253L76.1487 73.082H76.9878L77.4396 73.5323V74.3043L76.7942 74.9476H76.4069C76.2132 74.8189 75.955 74.8189 75.826 74.6259L75.5678 74.1756ZM77.4396 62.9819V63.3036L76.8587 63.9469H76.1487L75.6969 63.4966V62.7889L76.3423 62.21H76.6651C76.7296 62.403 76.9878 62.403 77.1169 62.5316C77.246 62.6603 77.246 62.9176 77.4396 62.9819ZM77.4396 66.5202V67.0348L76.7942 67.6781H76.3423L75.7614 67.2921V66.3915L76.1487 65.9412H76.9878C77.246 66.0698 77.246 66.3915 77.4396 66.5202ZM75.6969 59.7654V59.2507L76.1487 58.8647H76.9878L77.246 59.0577V59.9584L76.7942 60.3443H76.4069L75.955 60.1513V59.894L75.6969 59.7654ZM76.0841 48.1857H76.8587L77.246 48.636V48.9577L77.1169 49.1507V49.3437C76.8587 49.408 76.6651 49.601 76.2778 49.5366L75.8905 49.0863V48.5073L76.0841 48.1857ZM75.8905 45.3551V44.8404L76.1487 44.5831H76.8587L77.0523 44.8404V45.4838L76.8587 45.7411H76.3423L75.8905 45.3551ZM77.1169 38.0213L76.6651 38.4716H76.2778L76.0841 38.2143V37.6997L76.2778 37.5067H76.8587L77.1169 37.6997V38.0213ZM76.2132 27.0206L76.536 26.7633L76.8587 27.2136L76.6651 27.4066H76.2778C76.1487 27.3423 76.2778 27.1493 76.2132 27.0206ZM76.2132 30.3659H76.6651L76.9232 30.6232V30.9448L76.4714 31.1378L76.0841 30.7518C76.1487 30.6232 76.4069 30.5589 76.2132 30.3659ZM76.0841 34.1614L76.3423 33.9041H76.6651L77.0523 34.2901C77.0523 34.4187 76.8587 34.4831 76.9232 34.6117L76.4714 34.8691L76.0841 34.3544V34.1614ZM76.4069 41.0449H76.8587L77.1169 41.3665V41.8169L76.6651 42.2029C76.536 42.2029 76.4714 42.2029 76.4069 42.0742H76.1487C76.1253 42.0481 76.1076 42.0175 76.0965 41.9843C76.0854 41.9511 76.0812 41.9161 76.0841 41.8812L75.955 41.7525C75.955 41.6882 75.8905 41.6239 75.8905 41.4952L76.4069 41.0449ZM76.0196 51.8526C76.1487 51.6596 76.4069 51.7239 76.4714 51.5309L76.6651 51.7239H76.9878L77.246 52.1742V52.6889L76.7296 53.0749H76.3423L75.8905 52.8176V52.4959C75.826 52.4316 75.7614 52.3672 75.7614 52.3029C75.7614 52.2386 75.8905 51.9812 76.0196 51.8526ZM75.6969 55.8411L76.4069 55.0692C76.5698 55.0846 76.728 55.1324 76.8721 55.2098C77.0162 55.2871 77.1433 55.3924 77.246 55.5195V56.2271L76.7942 56.6131H76.0841C76.0196 56.5488 75.955 56.5488 75.955 56.4845L75.7614 56.0341C75.6969 55.9698 75.6969 55.8411 75.6969 55.8411ZM75.7614 70.1227V69.8011L75.955 69.5437H76.3423L76.4714 69.3508C76.7296 69.3508 76.7942 69.6081 76.9878 69.5437L77.4396 69.9297V70.5731L77.1814 71.0234L76.7942 71.2164H76.1487C75.8835 70.9944 75.6829 70.7056 75.5678 70.3801C75.5032 70.2514 75.6969 70.1871 75.7614 70.1227ZM73.6959 70.6374C73.6959 70.6873 73.6842 70.7366 73.6618 70.7812C73.6394 70.8259 73.6069 70.8648 73.5668 70.8947C73.4377 71.0234 73.3732 71.152 73.2441 71.2164H72.6632L72.2113 71.0234L71.9532 70.5731V69.9297C72.2084 69.642 72.5465 69.4398 72.9214 69.3508L73.115 69.5437H73.4377L73.6959 69.8011V70.1227L73.825 70.2514C73.8896 70.4444 73.6959 70.5087 73.6959 70.6374ZM71.9532 67.0992V66.5845C72.2113 66.3915 72.1468 66.0698 72.405 65.9412H73.2441L73.6959 66.4558V67.2278C73.5668 67.3565 73.5023 67.4851 73.3086 67.4851L73.0504 67.6781H72.5986C72.4169 67.451 72.1988 67.2554 71.9532 67.0992ZM73.6959 52.3029L73.5023 52.4959V52.8176L73.0504 53.0749H72.5341L72.1468 52.4959V52.1742L72.405 51.7239H72.7277L72.9214 51.5309C72.9859 51.7239 73.2441 51.6596 73.3732 51.8526C73.5023 52.0456 73.5023 52.2386 73.6959 52.3029ZM73.5023 45.3551L73.0504 45.7411H72.5986L72.3404 45.5481V44.8404L72.5986 44.5831H73.2441L73.5023 44.8404V45.3551ZM73.3086 42.0099H73.0504C73.0104 42.0549 72.9604 42.09 72.9044 42.1123C72.8483 42.1346 72.7878 42.1436 72.7277 42.1385L72.3404 41.6239V41.1736L72.5986 40.9806H73.115C73.2441 41.1092 73.4377 41.2379 73.5023 41.4309L73.3086 42.0099ZM72.9859 26.8276L73.1795 27.085V27.3423C73.0504 27.5353 72.9214 27.4066 72.7277 27.4709L72.5341 27.1493L72.9859 26.8276ZM72.4695 30.5589L72.7277 30.3659H73.115L73.3086 30.7518L72.9214 31.1378L72.4695 30.9448V30.5589ZM72.7923 33.9684H73.115L73.3732 34.2901V34.5474L72.9214 34.9334L72.5341 34.7404L72.3404 34.3544L72.7923 33.9684ZM72.3404 37.6997L72.5986 37.4423H73.115L73.3086 37.6997V38.2143L73.115 38.4716H72.7277L72.3404 38.0213V37.6997ZM72.1468 48.5717L72.5986 48.1214H73.2441L73.5023 48.3787V49.0863L73.115 49.408C72.7923 49.6653 72.6632 49.3437 72.405 49.2793C72.3419 49.1368 72.2545 49.0062 72.1468 48.8933V48.5717ZM72.1468 55.5195C72.2567 55.3848 72.3941 55.2749 72.5499 55.1973C72.7057 55.1196 72.8764 55.0759 73.0504 55.0692L73.6959 55.7768C73.6086 56.073 73.4781 56.3547 73.3086 56.6131H72.5986L72.1468 56.0985V55.5195ZM72.1468 59.122L72.3404 58.8647C72.5111 58.8333 72.6861 58.8333 72.8568 58.8647C72.9859 58.8004 73.115 58.8647 73.2441 58.8647L73.6959 59.2507V59.7654L73.5023 59.9584V60.087L73.0504 60.3443H72.5341L72.1468 59.8297V59.122ZM72.0177 62.9819C72.1468 62.7889 72.1468 62.4673 72.405 62.4673C72.6632 62.4673 72.7923 62.1456 73.0504 62.21C73.2491 62.4402 73.4649 62.6553 73.6959 62.8533V63.4966L73.1795 63.9469H72.5986L71.9532 63.2393C72.0177 63.2393 71.9532 63.0463 72.0177 62.9819ZM62.9812 67.0348L62.3357 67.6781H61.8839L61.303 67.2921V66.3915L61.6902 65.9412H62.5294C62.7875 66.0698 62.723 66.3915 62.9812 66.5202V67.0348ZM70.2749 74.1756L69.9522 74.6259C69.8877 74.7546 69.694 74.8189 69.5004 74.9476H68.984L68.4031 74.3043V73.5323L68.8549 73.082H69.694L70.2749 73.7253V74.1756ZM69.694 71.2164H69.0486L68.6613 71.0234L68.4031 70.5731V69.9297C68.5967 69.8011 68.6613 69.6081 68.9195 69.5437L69.3067 69.3508L69.5004 69.5437H69.8877L70.0813 69.8011V70.1227L70.2749 70.3157C70.1855 70.6713 69.9814 70.9877 69.694 71.2164ZM69.694 56.6131H68.984L68.5967 56.1628V55.5195C68.7258 55.2622 69.0486 55.3265 69.1777 55.1335H69.5004L70.0813 55.7125V56.0341C69.8877 56.1628 70.0168 56.5488 69.694 56.6131ZM70.1459 52.3029L69.9522 52.4959V52.8176L69.4358 53.0749H68.984L68.5967 52.6246V52.1742C68.6578 52.0112 68.745 51.8591 68.8549 51.7239H69.1777L69.3067 51.5953C69.4358 51.7239 69.6295 51.7239 69.8231 51.8526C70.0168 51.9812 69.8877 52.2386 70.1459 52.3029ZM69.2422 30.3659H69.5004L69.7586 30.7518L69.3713 31.1378L68.9195 30.9448V30.5589L69.2422 30.3659ZM69.1777 33.9041H69.5004L69.7586 34.1614V34.4831L69.3067 34.8691L68.9195 34.6761C68.984 34.4831 68.7904 34.4187 68.7904 34.2901L69.1777 33.9041ZM68.7258 37.6997L68.984 37.4423H69.5004L69.7586 37.764V38.2143L69.4358 38.4716H69.1777C69.0109 38.3385 68.8594 38.1875 68.7258 38.0213V37.6997ZM68.7258 41.3022L68.984 41.0449H69.5004L69.9522 41.5595L69.694 42.0099L69.1777 42.2672L68.7258 41.5595V41.3022ZM68.7258 44.8404C68.8549 44.7761 68.9195 44.6475 68.984 44.5831H69.694L69.9522 44.8404V45.3551L69.5004 45.7411H68.984L68.7258 45.5481V44.8404ZM68.5967 48.5073L69.1131 48.1857H69.694L69.9522 48.3787V49.0863L69.5004 49.4723C69.3697 49.5004 69.2338 49.4911 69.1082 49.4456C68.9826 49.4001 68.8724 49.3201 68.7904 49.215C68.7904 49.0863 68.5322 48.8933 68.5967 48.5073ZM68.5967 59.0577L68.8549 58.8647H69.694C69.8231 58.9291 69.8877 59.122 70.0813 59.3794V59.7654L69.9522 59.894C69.9619 59.9847 69.939 60.0759 69.8877 60.1513H69.694C69.6295 60.1513 69.5649 60.28 69.5649 60.28H68.984L68.5967 59.894V59.0577ZM68.5322 62.8533C68.5967 62.7246 68.5967 62.4673 68.7904 62.403C68.984 62.3386 69.2422 62.1456 69.5004 62.21L70.0813 62.8533V63.4966L69.6295 63.9469H68.984C68.8272 63.7021 68.631 63.4847 68.4031 63.3036C68.3811 63.224 68.3815 63.1398 68.4043 63.0604C68.427 62.981 68.4713 62.9093 68.5322 62.8533ZM68.4031 66.6488C68.491 66.3785 68.6464 66.135 68.8549 65.9412H69.694L70.0813 66.3915V67.2278C70.0168 67.4851 69.694 67.4851 69.5004 67.6781H69.1131L68.4031 66.9705V66.6488ZM66.7249 70.3157L66.4667 70.8947L66.0794 71.2164H65.4339L65.0467 70.959L64.853 70.5731V69.9297C65.0884 69.6499 65.4035 69.448 65.7567 69.3508L65.9503 69.5437H66.2731L66.5312 69.8011C66.5312 69.9941 66.4667 70.1871 66.7249 70.3157ZM64.853 67.0348V66.5845L65.2403 66.0055H66.144L66.5312 66.4558V67.2278C66.4021 67.4851 66.0794 67.4208 65.9503 67.6781H65.4339L64.853 67.0348ZM66.3376 59.9584V60.087L65.8858 60.3443H65.4339L64.9821 59.894V59.122L65.1758 58.8647H66.0794L66.5312 59.2507V59.7654L66.3376 59.9584ZM66.4021 56.1628C66.4021 56.3558 66.2731 56.4845 66.0794 56.6131H65.4339L64.9821 56.2271V55.5195C65.1112 55.2622 65.434 55.3265 65.563 55.1335H65.8858L66.5312 55.8411C66.5364 55.9011 66.5274 55.9614 66.5049 56.0172C66.4825 56.0731 66.4473 56.1229 66.4021 56.1628ZM66.3376 52.8176L65.8858 53.0749H65.4339L64.9821 52.6246V52.1742L65.2403 51.7239C65.3694 51.5953 65.6276 51.8526 65.6921 51.5953C65.7567 51.3379 66.144 51.6596 66.2731 51.8526C66.3341 52.0156 66.4213 52.1677 66.5312 52.3029C66.2731 52.4316 66.4021 52.6246 66.3376 52.8176ZM65.3694 30.5589L65.6276 30.3659H65.9503L66.144 30.7518L65.7567 31.1378C65.6921 31.0092 65.4985 31.0092 65.3694 30.9448V30.5589ZM65.563 33.9041H65.9503L66.2085 34.1614V34.4831L65.7567 34.8691L65.3694 34.6761C65.3724 34.6412 65.3682 34.6061 65.3571 34.5729C65.346 34.5398 65.3282 34.5092 65.3049 34.4831L65.1758 34.2901L65.563 33.9041ZM65.1758 37.6997L65.4339 37.4423H65.9503L66.144 37.6997V38.2143L65.9503 38.4716H65.6276L65.1758 38.0213V37.6997ZM65.1758 41.2379L65.4339 41.0449H65.9503L66.3376 41.4309C66.4021 41.6239 66.2731 41.6882 66.2085 41.7525C66.1666 41.8082 66.144 41.8759 66.144 41.9455L65.6276 42.2029C65.434 42.1385 65.3694 41.9455 65.1758 41.8169V41.2379ZM65.1758 44.8404L65.4339 44.5831H66.144L66.3376 44.8404V45.3551C66.216 45.5141 66.062 45.6457 65.8858 45.7411H65.4339L65.1758 45.5481V44.8404ZM65.1758 48.3787C65.2403 48.3144 65.3694 48.25 65.4339 48.1214H66.144L66.3376 48.3787V49.0863L65.8858 49.408C65.6921 49.6653 65.4985 49.3437 65.2403 49.2793C64.9821 49.215 64.9176 48.8933 64.9821 48.636C65.0467 48.3787 65.1112 48.443 65.1758 48.3787ZM64.853 62.9819C65.0467 62.8533 64.9821 62.4673 65.3049 62.403C65.6276 62.3386 65.6921 62.1456 65.8858 62.21L66.5312 62.7889V63.4966L66.0794 63.9469H65.4339L64.853 63.3036V62.9819ZM62.9166 63.4323L62.4003 63.8826H61.6902L61.2384 63.4966C61.2702 63.2833 61.2702 63.0665 61.2384 62.8533C61.4663 62.6722 61.6626 62.4548 61.8193 62.21C62.1421 62.0813 62.3357 62.403 62.5294 62.403C62.723 62.403 62.7875 62.5959 62.7875 62.6603C62.7875 62.7246 63.1103 63.0463 62.9166 63.4323ZM61.2384 59.701V59.2507L61.7548 58.8647H62.5294L62.7875 59.0577V59.9584L62.3357 60.3443H61.8839C61.7548 60.28 61.6902 60.1514 61.4966 60.2157C61.4237 60.0379 61.3374 59.8658 61.2384 59.701ZM62.5939 49.2793C62.3357 49.3437 62.2066 49.5367 61.8193 49.4723L61.4321 49.0863V48.3787L61.6902 48.1214H62.4003C62.5191 48.337 62.6716 48.5325 62.8521 48.7003C62.9166 48.829 62.5939 49.022 62.5939 49.2793ZM61.4321 45.3551V44.8404L61.6902 44.5831H62.3357L62.5939 44.8404V45.4838L62.4003 45.7411H61.8193L61.4321 45.3551ZM62.5939 38.0856L62.1421 38.4716H61.8193L61.6257 38.2143V37.6997L61.8193 37.4423H62.3357L62.5939 37.6997V38.0856ZM61.9484 33.9041H62.2066L62.5939 34.2901L62.3357 34.7404L62.013 34.8691C61.8534 34.7479 61.7214 34.5944 61.6257 34.4187C61.6196 34.309 61.5979 34.2007 61.5612 34.0971L61.9484 33.9041ZM61.8193 41.0449H62.3357L62.5939 41.2379C62.6264 41.4295 62.6264 41.6252 62.5939 41.8169L62.2066 42.2029C62.0775 42.2672 62.013 42.2029 61.8839 42.0742H61.6902L61.4321 41.6239C61.4321 41.3022 61.7548 41.2379 61.8193 41.0449ZM61.5612 51.8526L62.013 51.5309L62.2066 51.7239H62.5294L62.7875 52.1742V52.6889L62.3357 53.0749H61.8839L61.4321 52.8176V52.4959L61.2384 52.3029C61.4321 52.2386 61.3675 51.9812 61.5612 51.8526ZM62.013 55.1335H62.1421L62.723 55.3908C62.723 55.5195 62.7875 55.5195 62.7875 55.5195V56.2271L62.3357 56.6131H61.6902C61.4321 56.5488 61.4966 56.2271 61.303 56.0341C61.2416 55.9388 61.2186 55.824 61.2384 55.7125L62.013 55.1335ZM59.2375 59.9584L58.7211 60.3443H58.3338L57.882 60.1513C57.8847 60.076 57.8684 60.0012 57.8346 59.9337C57.8008 59.8663 57.7505 59.8084 57.6884 59.7654V59.315C57.7529 59.122 58.0111 58.9934 58.0756 58.8647H58.9793L59.2375 59.0577V59.9584ZM58.0756 48.1857H58.7857C58.9017 48.3667 59.0559 48.5204 59.2375 48.636V48.9577L59.0438 49.1507V49.3437C58.7857 49.408 58.592 49.601 58.2693 49.5366C58.1097 49.4155 57.9777 49.262 57.882 49.0863V48.5073L58.0756 48.1857ZM57.882 45.2264V44.8404L58.0756 44.5831H58.7857C58.9147 44.6475 58.9793 44.7761 59.0438 44.8404V45.5481L58.7857 45.7411H58.2693L57.882 45.2264ZM58.0111 37.6997L58.2693 37.4423H58.7857L59.0438 37.6997V38.0856L58.592 38.4716H58.2693L58.0111 38.2143V37.6997ZM58.2693 41.0449H58.7857L59.0438 41.2379V41.8169L58.5275 42.2029L58.0756 42.0099C58.0028 41.832 57.9165 41.66 57.8175 41.4952C57.882 41.3022 58.1402 41.2379 58.2693 41.0449ZM57.882 51.9812C57.8801 51.9228 57.8983 51.8655 57.9335 51.8187C57.9687 51.7719 58.0188 51.7385 58.0756 51.7239C58.2249 51.7117 58.3636 51.6426 58.4629 51.5309L58.592 51.7239H58.9793L59.1729 52.1742V52.6889L58.6566 53.0749H58.3338L57.882 52.8176V52.4959L57.6884 52.3029C57.7503 52.2762 57.8024 52.2308 57.8371 52.1731C57.8718 52.1154 57.8875 52.0483 57.882 51.9812ZM57.6884 55.8411L58.3984 55.0692C58.7235 55.1131 59.0217 55.2731 59.2375 55.5195V56.2271L58.7857 56.6131H58.0111C57.9465 56.5488 57.882 56.5488 57.882 56.4845L57.6884 56.0341C57.6238 55.9698 57.6884 55.8411 57.6884 55.8411ZM55.6229 52.3029C55.5583 52.3672 55.4938 52.4316 55.4938 52.4959V52.8176L54.9774 53.0749H54.5256L54.1383 52.4959V52.1742L54.3319 51.7239H54.7192L54.8483 51.5309C54.9774 51.7239 55.2356 51.6596 55.3647 51.8526C55.4938 52.0456 55.4292 52.2386 55.6229 52.3029ZM54.2674 44.8404L54.5256 44.5831H55.2356L55.4292 44.7761C55.4938 44.9691 55.4292 45.0978 55.4938 45.2908L55.0419 45.7411H54.5256L54.2674 45.5481V44.8404ZM54.1383 48.5717L54.5256 48.1214H55.2356L55.4292 48.3787V49.0863L55.0419 49.408C54.7838 49.6653 54.5901 49.3437 54.3319 49.2793C54.0738 49.215 54.0738 48.8933 54.1383 48.5717Z" fill="#FF52D2"/>
<path d="M22.7368 41.2432C10.1483 41.2432 1.71911 52.4368 3.54914 64.0717C4.99099 73.3354 17.5794 88.7198 22.1267 90.2086L20.1858 92.8003C19.9797 93.0819 19.8566 93.415 19.8303 93.7622C19.8039 94.1095 19.8754 94.4572 20.0366 94.7663C20.1978 95.0755 20.4424 95.3339 20.743 95.5125C21.0436 95.6912 21.3884 95.7831 21.7386 95.7779H23.7904C24.1359 95.7729 24.4733 95.6736 24.7659 95.4909C25.0585 95.3082 25.295 95.049 25.4495 94.7417C25.604 94.4344 25.6707 94.0908 25.6421 93.7485C25.6136 93.4061 25.491 93.0781 25.2877 92.8003L23.4022 90.2086C27.8941 88.7198 40.4825 73.3354 41.9798 64.0717C43.8098 52.4368 35.3252 41.2432 22.7368 41.2432Z" fill="#FF52D2"/>
<path d="M3.99287 66.0568H4.27014C4.43651 66.0568 4.49197 66.2223 4.60288 66.2774L4.8247 66.498V66.8288C4.60288 66.9391 4.71379 67.2699 4.49197 67.3251H4.38105C5.03768 69.0947 5.83507 70.8095 6.76564 72.4532L7.09837 72.0672H7.37565C7.48656 72.2327 7.70838 72.2327 7.8193 72.3429C7.93021 72.4532 7.87475 72.6738 8.04112 72.7289V73.0046L7.54202 73.5561H7.37565C8.26294 75.1 9.26114 76.6991 10.3148 78.1879C10.6368 78.2643 10.9273 78.4376 11.1466 78.6842V79.2356H11.0912L12.8657 81.5515L13.0876 81.331H13.8085C13.9645 81.4301 14.097 81.5618 14.1967 81.717V82.4338L13.8639 82.7646L15.8049 84.9703V84.7497C15.9316 84.6139 16.0819 84.5018 16.2485 84.4189H16.8585L17.2467 84.5843V84.7497L17.3576 84.9152V85.4666L16.8585 85.9628H16.6922C17.3677 86.689 18.0901 87.3705 18.8549 88.0031C18.9104 87.8376 19.0213 87.7825 19.1322 87.6722L19.5204 87.4517H19.7977C19.9086 87.5619 20.0195 87.5619 20.1304 87.6171L20.4632 88.0031V88.7199L20.0195 89.1059C20.6689 89.5952 21.3767 90.0027 22.1268 90.319L20.1859 92.9106C20.0286 93.1457 19.9158 93.4073 19.8531 93.6826C19.8953 93.7068 19.9431 93.7196 19.9918 93.7196C20.0405 93.7196 20.0883 93.7068 20.1304 93.6826L20.4632 94.1238C20.5186 94.234 20.4632 94.3995 20.5741 94.4546L20.4632 94.9509L20.2413 95.1714C20.4131 95.4034 20.6394 95.59 20.9004 95.7149C21.1614 95.8399 21.4492 95.8994 21.7386 95.8883H23.7905C24.0785 95.8905 24.3633 95.827 24.6228 95.7027C24.8824 95.5785 25.1099 95.3967 25.2878 95.1714L25.0105 94.8406C24.955 94.8406 25.1214 94.62 24.8441 94.5649L25.0105 94.3443V93.9583L25.3987 93.6275H25.6205C25.5826 93.328 25.468 93.0432 25.2878 92.8004L23.4023 90.2087C24.14 89.9019 24.8307 89.4935 25.4541 88.9956L25.066 88.6096V87.8928L25.3987 87.5068L25.676 87.3965H26.0087L26.3969 87.6171C26.5193 87.7216 26.6145 87.854 26.6742 88.0031C27.3396 87.4517 28.0051 86.7348 28.7815 86.018L28.4487 85.8526L28.2824 85.4666V84.8049L28.6151 84.4189H29.336L29.5024 84.5843H29.6133L29.7797 84.9152L31.6652 82.8198L31.3324 82.4338V81.717L31.7206 81.3861H32.3861L32.6079 81.6067L34.4379 79.2356C34.3931 79.1509 34.3739 79.0552 34.3825 78.9599V78.7393C34.4934 78.5739 34.6598 78.4636 34.6598 78.4085L35.1589 78.1879C36.2407 76.68 37.2404 75.1154 38.1535 73.5009H37.9316L37.5989 73.0598V72.6738L38.2089 72.0672C38.3753 72.0121 38.5417 72.2327 38.708 72.2878H38.8189C39.7068 70.6574 40.467 68.9614 41.0926 67.2148H41.0371C40.8153 67.1045 40.8708 66.8288 40.649 66.7185V66.4428L41.2035 65.9466H41.5362C41.7026 65.2297 41.869 64.568 41.9799 63.9615C42.4608 60.8814 42.2333 57.733 41.3144 54.7529H41.0371L40.8153 54.3669C40.8153 54.2015 40.9262 54.1463 41.0371 54.0912C40.0817 51.353 38.5115 48.8672 36.4456 46.8226C34.3797 44.7779 31.8724 43.2282 29.1142 42.2909C29.0588 42.2909 28.9478 42.2358 28.8924 42.2909L28.7815 42.1807C26.8289 41.5533 24.7888 41.237 22.7368 41.2433C20.7264 41.2498 18.7275 41.547 16.8031 42.1255C16.7476 42.2909 16.5813 42.1807 16.4704 42.2358H16.4149C13.6626 43.1838 11.161 44.7373 9.09662 46.7805C7.0322 48.8237 5.45821 51.3038 4.49197 54.036L4.71379 54.3117L4.49197 54.7529L4.21469 54.8632C3.29584 57.8432 3.06832 60.9917 3.54922 64.0718C3.65574 64.7419 3.80391 65.4049 3.99287 66.0568ZM40.8153 57.1791L41.0371 56.9585H41.6472L41.869 57.1791V57.7856L41.6472 57.9511H41.2035L40.8153 57.5651V57.1791ZM40.8153 60.2119L41.0371 60.0464H41.6472L42.0353 60.4324C42.0908 60.653 41.7581 60.7633 41.8135 61.039H41.6472L41.4808 61.1493H41.2035L40.8153 60.8184V60.2119ZM40.9262 63.1343L41.3699 62.9138C41.4253 63.1343 41.6472 63.0241 41.7581 63.0792L41.9799 63.4652V63.8512L41.6472 64.2372H41.2035L40.8153 64.0166C40.7599 63.9063 40.9262 63.6858 40.7044 63.6306C40.7445 63.4522 40.8199 63.2835 40.9262 63.1343ZM38.9298 70.1373C38.8031 70.2732 38.6528 70.3852 38.4862 70.4681H38.1535L37.7653 70.3027C37.7676 70.2381 37.7536 70.174 37.7245 70.1162C37.6955 70.0584 37.6523 70.0088 37.5989 69.9719V69.5859C37.6544 69.4205 37.8762 69.3102 37.9316 69.1999H38.708L38.9298 69.3653V70.1373ZM38.9298 60.5978L38.708 60.9838H38.5416L38.4307 61.0941H38.098L37.7653 60.7633V60.2119L37.9316 60.0464H38.5971L38.9298 60.4324V60.5978ZM37.7653 57.6202V57.1791L37.9871 56.9585H38.5416L38.7635 57.1791V57.7856L38.4862 57.9511H38.098L37.7653 57.6202ZM37.9316 51.0584L38.1535 50.8378H38.5416L38.7635 51.0584V51.3893L38.3753 51.7201H38.098L37.9316 51.4995V51.0584ZM38.098 53.9258H38.5416L38.7635 54.0912V54.5874L38.2644 54.9183L38.1535 54.808H37.9316L37.7653 54.3669C37.8207 54.1463 37.9871 54.036 38.098 53.9258ZM37.7653 63.2998C37.7653 63.2413 37.7886 63.1852 37.8302 63.1438C37.8718 63.1024 37.9283 63.0792 37.9871 63.0792C38.0449 63.0839 38.1028 63.0705 38.1525 63.0408C38.2022 63.0112 38.2414 62.9667 38.2644 62.9138L38.4307 63.0792H38.708L38.9298 63.4652V63.9063L38.4307 64.2372H38.1535L37.7653 64.0166V63.7409L37.5989 63.5755C37.6522 63.5526 37.6968 63.5137 37.7267 63.4642C37.7565 63.4148 37.77 63.3573 37.7653 63.2998ZM37.5989 66.5531C37.7696 66.3557 37.9549 66.1714 38.1535 66.0017C38.186 65.9825 38.2221 65.97 38.2596 65.9652C38.2971 65.9603 38.3351 65.9632 38.3715 65.9735C38.4079 65.9838 38.4417 66.0014 38.471 66.0252C38.5002 66.0491 38.5243 66.0786 38.5416 66.112C38.708 66.112 38.7635 66.2223 38.9298 66.3325V66.9391L38.5416 67.2699H37.9871C37.7653 67.2148 37.7653 66.9391 37.6544 66.7737C37.6103 66.709 37.5906 66.6308 37.5989 66.5531ZM35.9907 72.7289V73.0046L35.4916 73.5561H34.8816L34.5489 73.1701V72.5635L35.048 72.0672H35.2698L35.5471 72.2327C35.7134 72.2327 35.7689 72.3429 35.8243 72.4532C35.8798 72.5635 35.8798 72.6738 35.9907 72.7289ZM34.5489 69.9719V69.5859C34.6043 69.4205 34.7707 69.3102 34.8816 69.1999H35.6025L35.8243 69.3653V70.1373L35.4361 70.4681H35.1034L34.7152 70.3027C34.6712 70.1871 34.6155 70.0762 34.5489 69.9719ZM35.8243 60.5978L35.658 60.9838H35.4916L35.3252 61.0941H35.048L34.6598 60.7633V60.2119L34.8816 60.0464H35.4916C35.6287 60.1503 35.7421 60.2818 35.8243 60.4324V60.5978ZM34.6598 57.4548V57.1791L34.8816 56.9585H35.4916L35.7134 57.1791V57.7305L35.4916 57.9511H34.9925L34.6598 57.4548ZM34.8261 48.0256L35.1034 47.8051H35.3252L35.658 48.1359L35.4916 48.5219H35.3252L35.2143 48.6873L34.8261 48.3013V48.0256ZM34.8261 51.0584L35.048 50.8378H35.4916L35.7134 51.0584V51.3341L35.3252 51.7201H35.048L34.8261 51.4995V51.0584ZM35.048 53.9258H35.4916L35.7134 54.0912V54.5874L35.2143 54.9183L34.8816 54.7529C34.819 54.6005 34.7448 54.453 34.6598 54.3117L35.048 53.9258ZM34.6598 63.3549L34.7707 63.1895C34.7965 63.1552 34.83 63.1275 34.8685 63.1083C34.907 63.0892 34.9495 63.0792 34.9925 63.0792L35.2143 62.9138L35.3252 63.0792H35.6025L35.8243 63.4652V63.8512L35.3807 64.2372H35.1034L34.7152 64.0166C34.6043 63.9063 34.7707 63.6858 34.5489 63.6306C34.327 63.5755 34.6598 63.4652 34.6598 63.3549ZM34.5489 66.498L35.1034 66.0017H35.3252L35.8243 66.2774V66.9391L35.4916 67.2699H34.8816C34.8261 67.2148 34.7152 67.1597 34.7152 67.1045C34.7152 67.0494 34.4379 66.7737 34.5489 66.498ZM34.3825 75.8168C34.5489 75.6514 34.5489 75.3757 34.7707 75.2654H35.4916L35.8243 75.7066V76.3683L35.7134 76.4785L35.3252 76.7543H34.8816L34.3825 76.2028V75.8168ZM29.8351 82.3235C29.6688 82.4338 29.7242 82.6544 29.6133 82.7646C29.5024 82.8749 29.2806 82.8198 29.1697 82.9852H28.7815L28.2269 82.4889V81.7721L28.6151 81.3861H29.336L29.8351 81.8824V82.3235ZM32.3861 79.787H31.887L31.4988 79.6216V79.401L31.3879 79.2907V78.6842C31.4988 78.5739 31.6097 78.4085 31.7206 78.3533C31.8315 78.2982 31.9424 78.1879 32.1088 78.1879L32.3306 78.3533H32.6079L32.8297 78.5739V78.8496L32.9961 79.015C32.8826 79.3315 32.6685 79.6025 32.3861 79.787ZM32.7743 75.7066V76.3683C32.6634 76.4785 32.6079 76.5888 32.497 76.5888C32.3861 76.5888 32.3306 76.6991 32.2752 76.7543H31.8315C31.6944 76.5621 31.5257 76.3943 31.3324 76.258V75.8168C31.4988 75.6514 31.4433 75.3757 31.6652 75.2654H32.4415L32.7743 75.7066ZM32.7743 69.9719L32.5525 70.3579C32.3861 70.3027 32.3306 70.413 32.2752 70.4681H31.8315L31.4433 70.1373V69.3653L31.6652 69.1999H32.4415L32.7743 69.641V69.9719ZM32.7743 63.5755L32.6079 63.7409V64.0166L32.2197 64.2372H31.8315L31.4988 63.8512V63.4652L31.6652 63.0792H31.9979L32.1088 62.9689C32.2197 63.0792 32.3861 63.0792 32.5525 63.1895C32.7188 63.2998 32.5525 63.5203 32.7743 63.5755ZM31.7761 44.9377L31.9979 44.7172H32.2752L32.4415 45.1583L32.1088 45.434L31.7761 45.2686V44.9377ZM31.9979 47.8051H32.2752L32.497 47.9705V48.3013L32.1088 48.6322L31.7761 48.4668L31.6097 48.1359L31.9979 47.8051ZM31.6097 51.0584L31.8315 50.8378H32.2752L32.4415 51.0584V51.4995L32.2752 51.7201H31.9979C31.8419 51.621 31.7094 51.4893 31.6097 51.3341V51.0584ZM31.6097 54.1463L31.8315 53.9258H32.2752L32.6079 54.3669C32.5321 54.4859 32.476 54.6162 32.4415 54.7529L31.9979 54.9183C31.8315 54.8632 31.7761 54.6977 31.6097 54.5323V54.1463ZM32.6079 57.1791V57.6202L32.2752 57.9511H31.8315L31.6097 57.7305V57.1791L31.8315 56.9585H32.3861L32.6079 57.1791ZM31.887 60.0464H32.4415L32.6079 60.2119C32.6634 60.267 32.6079 60.4324 32.6079 60.5427C32.6079 60.653 32.6079 60.7081 32.6079 60.8184L32.2752 61.1493H31.9979L31.6652 60.9838C31.5491 60.7995 31.4735 60.5927 31.4433 60.3773L31.887 60.0464ZM31.5543 66.2774C31.5543 66.2482 31.5659 66.2201 31.5867 66.1994C31.6075 66.1787 31.6358 66.1671 31.6652 66.1671L31.9979 66.0017H32.1643L32.7743 66.6083C32.7335 66.8696 32.5948 67.106 32.3861 67.2699H31.8315L31.4433 66.884V66.3877C31.4988 66.3325 31.4988 66.2774 31.5543 66.2774ZM31.4988 72.4532C31.4972 72.4031 31.5128 72.354 31.5431 72.3139C31.5733 72.2738 31.6164 72.2452 31.6652 72.2327C31.887 72.2327 31.9979 71.957 32.3306 72.1224L32.7743 72.5635V73.1701L32.4415 73.5561H31.887L31.3324 73.0598C31.2215 72.7841 31.4433 72.6187 31.4988 72.4532ZM29.336 79.787H28.8369L28.4487 79.6216C28.3933 79.5113 28.3933 79.3459 28.2269 79.2907V78.6842L28.5597 78.4085L29.0033 78.1879L29.5024 78.3533L29.7242 78.5739V78.8496L29.8351 79.015C29.8163 79.1729 29.7616 79.3245 29.6751 79.4583C29.5886 79.592 29.4727 79.7044 29.336 79.787ZM29.7242 75.6514V76.3683C29.6133 76.5888 29.336 76.5337 29.2251 76.7543H28.7815L28.2269 76.1477V75.8168L28.5597 75.2654H29.336C29.4357 75.4206 29.5682 75.5523 29.7242 75.6514ZM29.7242 69.9167C29.6298 70.0326 29.5549 70.163 29.5024 70.3027L29.1697 70.4681H28.726L28.3933 70.0822V69.3653L28.6706 69.1999H29.336L29.7242 69.5307V69.9167ZM29.7242 63.5755L29.5579 63.7409V64.0166L29.1697 64.2372H28.726C28.6383 64.0742 28.5261 63.9254 28.3933 63.796V63.4652L28.6151 63.0792H28.8924L29.0588 62.9138C29.1142 63.0792 29.336 63.0241 29.4469 63.1895C29.5579 63.3549 29.5024 63.5203 29.7242 63.5755ZM29.5579 57.6202L29.1697 57.9511H28.726L28.5597 57.7305V57.1791L28.726 56.9585H29.336L29.5579 57.1791V57.6202ZM28.726 44.9377L28.8924 44.7172H29.1697L29.3915 45.1583L29.0033 45.434L28.726 45.2686V44.9377ZM28.8924 47.8051H29.1697L29.3915 48.0256V48.3013L29.0033 48.6322L28.726 48.4668V48.3013L28.6151 48.1359L28.8924 47.8051ZM29.3915 51.0584V51.4995L29.2251 51.7201H28.8924L28.5597 51.3341V51.0584L28.726 50.8378H29.1697L29.3915 51.0584ZM28.5597 54.1463L28.726 53.9258H29.2251L29.5579 54.3669L29.3915 54.7529L28.9478 54.9183C28.7807 54.8337 28.6448 54.6985 28.5597 54.5323V54.1463ZM28.3933 60.3773C28.508 60.2348 28.6382 60.1054 28.7815 59.9913H29.336L29.5579 60.2119V60.8184L29.1697 61.0941C28.9478 61.3147 28.7815 61.039 28.5597 60.9838C28.3378 60.9287 28.3378 60.653 28.3933 60.3773ZM28.3933 66.3325C28.4487 66.2774 28.5042 66.1671 28.5597 66.1671C28.6151 66.1671 28.9478 65.8914 29.1697 66.0017L29.7242 66.5531V66.7185L29.3915 67.2699H28.726L28.3933 66.9391V66.3325ZM28.2824 72.7289C28.3933 72.5635 28.3933 72.2878 28.5597 72.2878C28.726 72.2878 28.9478 72.0121 29.1697 72.0672L29.7242 72.6187V73.1701L29.2806 73.5561H28.7815L28.2269 72.9495C28.2269 72.9495 28.2269 72.7841 28.2824 72.7289ZM20.4632 85.5217L19.9641 86.018H19.4095L19.2431 85.9077H19.0768L18.8549 85.4666V84.8049L19.354 84.474H19.9641L20.2968 84.6395L20.4632 85.0254V85.5217ZM18.8549 82.4889V81.7721L19.2431 81.3861H19.9641L20.4632 81.9375V82.3235C20.2968 82.4338 20.3522 82.5992 20.2413 82.7646C20.1304 82.9301 19.9086 82.8198 19.8531 82.9852H19.4095L18.8549 82.4889ZM23.6796 94.6752C23.5687 94.7855 23.6241 95.006 23.4578 95.1163L23.0141 95.3369H22.4596L21.9605 94.8406V94.5649L21.7941 94.3995L21.9605 94.234V93.9583L22.2932 93.6275H22.5705L22.7368 93.4621L22.9032 93.6275H23.1805L23.6796 94.1238V94.6752ZM23.5132 90.8704C23.5687 90.9807 23.5687 91.1461 23.6796 91.2013V91.6424C23.6117 91.7188 23.5725 91.8162 23.5687 91.9181C23.5132 92.0284 23.4023 92.1387 23.3468 92.1387C23.289 92.1339 23.2312 92.1474 23.1814 92.177C23.1317 92.2067 23.0926 92.2511 23.0696 92.3041H22.6814C22.3894 92.1991 22.1374 92.0064 21.9605 91.7527V91.091L22.1268 90.705H22.3486L22.4596 90.5396H23.1805L23.5132 90.8704ZM26.6187 85.5217L26.4523 85.8526L26.0642 86.018H25.5651L25.0105 85.4666V84.9703L25.2323 84.6395H25.3987L25.5651 84.474H26.286L26.6187 84.86V85.5217ZM26.6187 82.3787L26.0087 82.9852H25.7314L25.2878 82.7095C25.183 82.5705 25.0903 82.4229 25.0105 82.2684V81.9927L25.6205 81.3861H26.286L26.6187 81.8824V82.3787ZM25.5096 60.0464H26.1196L26.5078 60.4324V60.7081L26.3414 60.8736V61.039C26.1196 61.0941 25.9532 61.2595 25.676 61.2044C25.5389 61.1006 25.4255 60.969 25.3432 60.8184V60.3221L25.5096 60.0464ZM25.3432 57.5099V57.1791L25.5096 56.9585H26.1196C26.1751 57.0688 26.286 57.1239 26.3414 57.1791V57.7856L26.1196 57.9511H25.676C25.5393 57.8251 25.4266 57.6756 25.3432 57.5099ZM25.6205 41.905L25.7869 41.6844L26.1751 42.0152L25.9532 42.2909H25.676C25.5651 42.1807 25.6205 42.0152 25.6205 41.905ZM25.676 44.7723H26.0087L26.1751 44.9377V45.2686L25.7869 45.434L25.5096 45.1031L25.676 44.7723ZM25.4541 47.9705L25.676 47.8051H25.9532L26.286 48.1911L26.1751 48.4668L25.7869 48.6322L25.4541 48.3013V47.9705ZM25.4541 51.0584L25.676 50.8378H26.1196L26.3414 51.0584V51.3341L25.9532 51.7201H25.676L25.4541 51.4995V51.0584ZM25.676 53.9258H26.1196L26.3414 54.1463V54.5874L25.8423 54.9183L25.676 54.808C25.676 54.7529 25.5651 54.7529 25.5096 54.7529L25.2878 54.3117C25.4028 54.1696 25.533 54.0402 25.676 53.9258ZM25.4541 63.1343L25.8423 62.9138C25.9532 63.1343 26.1196 63.0241 26.286 63.0792C26.4523 63.1343 26.2305 63.4101 26.5078 63.4101V63.8512L26.1196 64.2372H25.676C25.6205 64.1269 25.4541 64.0718 25.3432 64.0166C25.2323 63.9615 25.3987 63.6858 25.1769 63.5755C24.9551 63.4652 25.2878 63.2446 25.4541 63.1343ZM26.5078 69.3653V70.1373L26.1196 70.4681H25.676C25.6205 70.413 25.5651 70.3027 25.3987 70.3579C25.3361 70.2054 25.2619 70.058 25.1769 69.9167V69.5307L25.676 69.1999H26.286L26.5078 69.3653ZM25.1769 66.498L25.676 66.0017H25.8978C26.0642 66.112 26.3414 66.112 26.4523 66.3325V66.9391L26.0087 67.2699H25.5096C25.3432 67.1597 25.3432 66.9391 25.1769 66.7737V66.498ZM25.1769 72.6187L25.7314 72.0672H26.0087C26.1196 72.1775 26.3969 72.1775 26.4523 72.3429C26.5078 72.5084 26.7296 72.7289 26.6187 72.9495L26.0642 73.5009H25.5096L25.1769 73.0598V72.6187ZM26.6187 75.7617V76.2028L26.0642 76.6991H25.676L25.1769 76.4234V75.6514L25.5096 75.2654H26.2305C26.4523 75.3757 26.4523 75.6514 26.6187 75.7617ZM25.1769 78.8496V78.5739L25.3987 78.3533H25.676L25.8423 78.1879C25.9532 78.1328 26.0087 78.2982 26.1196 78.3533C26.1713 78.349 26.2233 78.3567 26.2714 78.3758C26.3195 78.395 26.3625 78.425 26.3969 78.4636L26.6187 78.6842V79.2356L26.4523 79.6216L26.0642 79.787H25.5651C25.3033 79.5939 25.1093 79.3239 25.0105 79.015L25.1769 78.8496ZM23.6241 88.4993C23.58 88.564 23.5604 88.6422 23.5687 88.7199L23.2359 89.1059H22.4596L21.9605 88.6096V87.8377L22.2932 87.5068L22.5705 87.3965C22.6814 87.2862 22.8477 87.3414 22.9587 87.3965L23.4023 87.6722C23.5132 87.8376 23.5132 88.0031 23.6796 88.1134C23.7126 88.1752 23.7251 88.246 23.7151 88.3153C23.7051 88.3847 23.6733 88.4491 23.6241 88.4993ZM22.0714 84.6946L22.515 84.474H23.2359L23.5687 84.86V85.5217L23.3468 85.8526H23.1805L23.0696 85.9628H22.4596L21.9605 85.4666V84.9152C22.0159 84.86 22.1823 84.8049 22.0714 84.6946ZM21.9605 82.3235V81.9375L22.4596 81.3861H23.1805L23.5687 81.7721V82.4338L23.0141 82.9852H22.6814C22.515 82.8749 22.2932 82.8749 22.1823 82.7095L21.9605 82.3235ZM23.5687 72.7289V73.0046L23.0696 73.5561H22.4596L22.0714 73.1701V72.5635L22.6259 72.0672H22.9032C22.9587 72.2327 23.1805 72.2327 23.2914 72.3429C23.4023 72.4532 23.4023 72.6738 23.5687 72.7289ZM23.5687 75.7617V76.2028L23.0141 76.7543H22.6259L22.1268 76.4234V75.6514L22.4596 75.2654H23.1805C23.4023 75.3757 23.4023 75.6514 23.5687 75.7617ZM22.0714 69.9719V69.5307L22.4596 69.1999H23.1805L23.4023 69.3653V70.1373L23.0141 70.4681H22.6814L22.2932 70.3027V70.0822L22.0714 69.9719ZM22.4041 60.0464H23.0696L23.4023 60.4324V60.7081L23.2914 60.8736V61.039C23.0696 61.0941 22.9032 61.2595 22.5705 61.2044L22.2377 60.8184V60.3221L22.4041 60.0464ZM22.2377 57.6202V57.1791L22.4596 56.9585H23.0696L23.2359 57.1791V57.7305L23.0696 57.9511H22.6259L22.2377 57.6202ZM23.2914 51.3341L22.9032 51.7201H22.5705L22.4041 51.4995V51.0584L22.5705 50.893H23.0696L23.2914 51.0584V51.3341ZM22.515 41.905L22.7923 41.6844L23.0696 42.0704L22.9032 42.2358H22.5705C22.4596 42.1807 22.5705 42.0152 22.515 41.905ZM22.515 44.7723H22.9032L23.125 44.9929V45.2686L22.7368 45.434L22.4041 45.1031C22.4596 44.9929 22.6814 44.9377 22.515 44.7723ZM22.4041 48.0256L22.6259 47.8051H22.9032L23.2359 48.1359C23.2359 48.2462 23.0696 48.3013 23.125 48.4116L22.7368 48.6322L22.4041 48.1911V48.0256ZM22.6814 53.9258H23.0696L23.2914 54.2015V54.5874L22.9032 54.9183C22.7923 54.9183 22.7368 54.9183 22.6814 54.808H22.4596C22.4395 54.7856 22.4242 54.7594 22.4147 54.731C22.4051 54.7025 22.4015 54.6725 22.4041 54.6426L22.2932 54.5323C22.2932 54.4772 22.2377 54.422 22.2377 54.3117L22.6814 53.9258ZM22.3486 63.1895C22.4596 63.0241 22.6814 63.0792 22.7368 62.9138L22.9032 63.0792H23.1805L23.4023 63.4652V63.9063L22.9587 64.2372H22.6259L22.2377 64.0166V63.7409C22.1823 63.6858 22.1268 63.6306 22.1268 63.5755C22.1268 63.5203 22.2377 63.2998 22.3486 63.1895ZM22.0714 66.6083L22.6814 65.9466C22.8214 65.9598 22.9573 66.0008 23.0811 66.0671C23.2049 66.1334 23.3141 66.2236 23.4023 66.3325V66.9391L23.0141 67.2699H22.4041C22.3486 67.2148 22.2932 67.2148 22.2932 67.1597L22.1268 66.7737C22.0714 66.7185 22.0714 66.6083 22.0714 66.6083ZM22.1268 78.8496V78.5739L22.2932 78.3533H22.6259L22.7368 78.1879C22.9587 78.1879 23.0141 78.4085 23.1805 78.3533L23.5687 78.6842V79.2356L23.3468 79.6216L23.0141 79.787H22.4596C22.2317 79.5968 22.0594 79.3492 21.9605 79.0702C21.905 78.9599 22.0714 78.9048 22.1268 78.8496ZM20.3522 79.2907C20.3522 79.3336 20.3422 79.3758 20.323 79.414C20.3037 79.4523 20.2758 79.4856 20.2413 79.5113C20.1304 79.6216 20.075 79.7319 19.9641 79.787H19.465L19.0768 79.6216L18.8549 79.2356V78.6842C19.0742 78.4376 19.3647 78.2643 19.6868 78.1879L19.8531 78.3533H20.1304L20.3522 78.5739V78.8496L20.4632 78.9599C20.5186 79.1253 20.3522 79.1805 20.3522 79.2907ZM18.8549 76.258V75.8168C19.0768 75.6514 19.0213 75.3757 19.2431 75.2654H19.9641L20.3522 75.7066V76.3683C20.2413 76.4785 20.1859 76.5888 20.0195 76.5888L19.7977 76.7543H19.4095C19.2534 76.5596 19.066 76.3919 18.8549 76.258ZM20.3522 63.5755L20.1859 63.7409V64.0166L19.7977 64.2372H19.354L19.0213 63.7409V63.4652L19.2431 63.0792H19.5204L19.6868 62.9138C19.7422 63.0792 19.9641 63.0241 20.075 63.1895C20.1859 63.3549 20.1859 63.5203 20.3522 63.5755ZM20.1859 57.6202L19.7977 57.9511H19.4095L19.1877 57.7856V57.1791L19.4095 56.9585H19.9641L20.1859 57.1791V57.6202ZM20.0195 54.7529H19.7977C19.7633 54.7915 19.7203 54.8215 19.6722 54.8407C19.624 54.8598 19.5721 54.8675 19.5204 54.8632L19.1877 54.422V54.036L19.4095 53.8706H19.8531C19.9641 53.9809 20.1304 54.0912 20.1859 54.2566L20.0195 54.7529ZM19.7422 41.7395L19.9086 41.9601V42.1807C19.7977 42.3461 19.6868 42.2358 19.5204 42.2909L19.354 42.0152L19.7422 41.7395ZM19.2986 44.9377L19.5204 44.7723H19.8531L20.0195 45.1031L19.6868 45.434L19.2986 45.2686V44.9377ZM19.5759 47.8602H19.8531L20.075 48.1359V48.3565L19.6868 48.6873L19.354 48.5219L19.1877 48.1911L19.5759 47.8602ZM19.1877 51.0584L19.4095 50.8378H19.8531L20.0195 51.0584V51.4995L19.8531 51.7201H19.5204L19.1877 51.3341V51.0584ZM19.0213 60.3773L19.4095 59.9913H19.9641L20.1859 60.2119V60.8184L19.8531 61.0941C19.5759 61.3147 19.465 61.039 19.2431 60.9838C19.1889 60.8617 19.1139 60.7497 19.0213 60.653V60.3773ZM19.0213 66.3325C19.1157 66.2171 19.2338 66.1229 19.3677 66.0564C19.5015 65.9898 19.6481 65.9524 19.7977 65.9466L20.3522 66.5531C20.2772 66.807 20.1651 67.0485 20.0195 67.2699H19.4095L19.0213 66.8288V66.3325ZM19.0213 69.4205L19.1877 69.1999C19.3343 69.1729 19.4847 69.1729 19.6313 69.1999C19.7422 69.1447 19.8531 69.1999 19.9641 69.1999L20.3522 69.5307V69.9719L20.1859 70.1373V70.2476L19.7977 70.4681H19.354L19.0213 70.027V69.4205ZM18.9104 72.7289C19.0213 72.5635 19.0213 72.2878 19.2431 72.2878C19.465 72.2878 19.5759 72.0121 19.7977 72.0672C19.9684 72.2646 20.1537 72.449 20.3522 72.6187V73.1701L19.9086 73.5561H19.4095L18.8549 72.9495C18.9104 72.9495 18.8549 72.7841 18.9104 72.7289ZM11.1466 76.2028L10.5921 76.7543H10.2039L9.70478 76.4234V75.6514L10.0375 75.2654H10.7584C10.9803 75.3757 10.9248 75.6514 11.1466 75.7617V76.2028ZM17.4131 82.3235L17.1358 82.7095C17.0804 82.8198 16.914 82.8749 16.7476 82.9852H16.304L15.8049 82.4338V81.7721L16.1931 81.3861H16.914L17.4131 81.9375V82.3235ZM16.914 79.787H16.3594L16.0267 79.6216L15.8049 79.2356V78.6842C15.9713 78.5739 16.0267 78.4085 16.2485 78.3533L16.5813 78.1879L16.7476 78.3533H17.0804L17.2467 78.5739V78.8496L17.4131 79.015C17.3363 79.3198 17.1609 79.591 16.914 79.787ZM16.914 67.2699H16.304L15.9713 66.884V66.3325C16.0822 66.112 16.3594 66.1671 16.4704 66.0017H16.7476L17.2467 66.498V66.7737C17.0804 66.884 17.1913 67.2148 16.914 67.2699ZM17.3022 63.5755L17.1358 63.7409V64.0166L16.6922 64.2372H16.304L15.9713 63.8512V63.4652C16.0237 63.3254 16.0986 63.1951 16.1931 63.0792H16.4704L16.5813 62.9689C16.6922 63.0792 16.8585 63.0792 17.0249 63.1895C17.1913 63.2998 17.0804 63.5203 17.3022 63.5755ZM16.5258 44.7723H16.7476L16.9695 45.1031L16.6367 45.434L16.2485 45.2686V44.9377L16.5258 44.7723ZM16.4704 47.8051H16.7476L16.9695 48.0256V48.3013L16.5813 48.6322L16.2485 48.4668C16.304 48.3013 16.1376 48.2462 16.1376 48.1359L16.4704 47.8051ZM16.0822 51.0584L16.304 50.8378H16.7476L16.9695 51.1135V51.4995L16.6922 51.7201H16.4704C16.3271 51.606 16.1969 51.4766 16.0822 51.3341V51.0584ZM16.0822 54.1463L16.304 53.9258H16.7476L17.1358 54.3669L16.914 54.7529L16.4704 54.9734L16.0822 54.3669V54.1463ZM16.0822 57.1791C16.1931 57.1239 16.2485 57.0137 16.304 56.9585H16.914L17.1358 57.1791V57.6202L16.7476 57.9511H16.304L16.0822 57.7856V57.1791ZM15.9713 60.3221L16.4149 60.0464H16.914L17.1358 60.2119V60.8184L16.7476 61.1493C16.6354 61.1733 16.5186 61.1654 16.4107 61.1264C16.3028 61.0873 16.2081 61.0188 16.1376 60.9287C16.1376 60.8184 15.9158 60.653 15.9713 60.3221ZM15.9713 69.3653L16.1931 69.1999H16.914C17.0249 69.255 17.0804 69.4205 17.2467 69.641V69.9719L17.1358 70.0822C17.1441 70.1599 17.1245 70.238 17.0804 70.3027H16.914C16.8585 70.3027 16.8031 70.413 16.8031 70.413H16.304L15.9713 70.0822V69.3653ZM15.9158 72.6187C15.9713 72.5084 15.9713 72.2878 16.1376 72.2327C16.304 72.1775 16.5258 72.0121 16.7476 72.0672L17.2467 72.6187V73.1701L16.8585 73.5561H16.304C16.1693 73.3462 16.0007 73.1599 15.8049 73.0046C15.786 72.9364 15.7863 72.8643 15.8059 72.7962C15.8255 72.7281 15.8635 72.6667 15.9158 72.6187ZM15.8049 75.872C15.8804 75.6403 16.014 75.4316 16.1931 75.2654H16.914L17.2467 75.6514V76.3683C17.1913 76.5888 16.914 76.5888 16.7476 76.7543H16.4149L15.8049 76.1477V75.872ZM14.363 79.015L14.1412 79.5113L13.8085 79.787H13.2539L12.9212 79.5665L12.7548 79.2356V78.6842C12.9571 78.4444 13.2278 78.2713 13.5312 78.1879L13.6976 78.3533H13.9749L14.1967 78.5739C14.1967 78.7393 14.1412 78.9048 14.363 79.015ZM12.7548 76.2028V75.8168L13.0876 75.3206H13.8639L14.1967 75.7066V76.3683C14.0858 76.5888 13.8085 76.5337 13.6976 76.7543H13.2539L12.7548 76.2028ZM14.0303 70.1373V70.2476L13.6421 70.4681H13.2539L12.8657 70.0822V69.4205L13.0321 69.1999H13.8085L14.1967 69.5307V69.9719L14.0303 70.1373ZM14.0858 66.884C14.0858 67.0494 13.9749 67.1597 13.8085 67.2699H13.2539L12.8657 66.9391V66.3325C12.9767 66.112 13.2539 66.1671 13.3648 66.0017H13.6421L14.1967 66.6083C14.2011 66.6596 14.1933 66.7113 14.1741 66.7592C14.1548 66.807 14.1246 66.8498 14.0858 66.884ZM14.0303 64.0166L13.6421 64.2372H13.2539L12.8657 63.8512V63.4652L13.0876 63.0792C13.1985 62.9689 13.4203 63.1895 13.4758 62.9689C13.5312 62.7484 13.8639 63.0241 13.9749 63.1895C14.0273 63.3292 14.1022 63.4596 14.1967 63.5755C13.9749 63.6858 14.0858 63.8512 14.0303 64.0166ZM13.1985 44.9377L13.4203 44.7723H13.6976L13.8639 45.1031L13.5312 45.434C13.4758 45.3237 13.3094 45.3237 13.1985 45.2686V44.9377ZM13.3648 47.8051H13.6976L13.9194 48.0256V48.3013L13.5312 48.6322L13.1985 48.4668C13.201 48.4369 13.1974 48.4068 13.1879 48.3784C13.1784 48.3499 13.1631 48.3237 13.143 48.3013L13.0321 48.1359L13.3648 47.8051ZM13.0321 51.0584L13.2539 50.8378H13.6976L13.8639 51.0584V51.4995L13.6976 51.7201H13.4203L13.0321 51.3341V51.0584ZM13.0321 54.0912L13.2539 53.9258H13.6976L14.0303 54.2566C14.0858 54.422 13.9749 54.4772 13.9194 54.5323C13.8834 54.58 13.8639 54.6381 13.8639 54.6977L13.4203 54.9183C13.2539 54.8632 13.1985 54.6977 13.0321 54.5874V54.0912ZM13.0321 57.1791L13.2539 56.9585H13.8639L14.0303 57.1791V57.6202C13.9259 57.7565 13.7936 57.8693 13.6421 57.9511H13.2539L13.0321 57.7856V57.1791ZM13.0321 60.2119C13.0876 60.1567 13.1985 60.1016 13.2539 59.9913H13.8639L14.0303 60.2119V60.8184L13.6421 61.0941C13.4758 61.3147 13.3094 61.039 13.0876 60.9838C12.8657 60.9287 12.8103 60.653 12.8657 60.4324C12.9212 60.2119 12.9767 60.267 13.0321 60.2119ZM12.7548 72.7289C12.9212 72.6187 12.8657 72.2878 13.143 72.2327C13.4203 72.1775 13.4758 72.0121 13.6421 72.0672L14.1967 72.5635V73.1701L13.8085 73.5561H13.2539L12.7548 73.0046V72.7289ZM11.0912 73.1149L10.6475 73.5009H10.0375L9.64933 73.1701C9.67666 72.9873 9.67666 72.8015 9.64933 72.6187C9.84509 72.4634 10.0137 72.2771 10.1484 72.0672C10.4257 71.957 10.5921 72.2327 10.7584 72.2327C10.9248 72.2327 10.9803 72.3981 10.9803 72.4532C10.9803 72.5084 11.2575 72.7841 11.0912 73.1149ZM9.64933 69.9167V69.5307L10.093 69.1999H10.7584L10.9803 69.3653V70.1373L10.5921 70.4681H10.2039C10.093 70.413 10.0375 70.3027 9.87115 70.3579C9.80854 70.2054 9.73439 70.058 9.64933 69.9167ZM10.8139 60.9838C10.5921 61.039 10.4812 61.2044 10.1484 61.1493L9.81569 60.8184V60.2119L10.0375 59.9913H10.6475C10.7496 60.1762 10.8806 60.3437 11.0357 60.4876C11.0912 60.5978 10.8139 60.7633 10.8139 60.9838ZM9.81569 57.6202V57.1791L10.0375 56.9585H10.5921L10.8139 57.1791V57.7305L10.6475 57.9511H10.1484L9.81569 57.6202ZM10.8139 51.3893L10.4257 51.7201H10.1484L9.98206 51.4995V51.0584L10.1484 50.8378H10.5921L10.8139 51.0584V51.3893ZM10.2593 47.8051H10.4812L10.8139 48.1359L10.5921 48.5219L10.3148 48.6322C10.1777 48.5283 10.0643 48.3968 9.98206 48.2462C9.97683 48.1521 9.95815 48.0593 9.92661 47.9705L10.2593 47.8051ZM10.1484 53.9258H10.5921L10.8139 54.0912C10.8418 54.2554 10.8418 54.4232 10.8139 54.5874L10.4812 54.9183C10.3702 54.9734 10.3148 54.9183 10.2039 54.808H10.0375L9.81569 54.422C9.81569 54.1463 10.093 54.0912 10.1484 53.9258ZM9.92661 63.1895L10.3148 62.9138L10.4812 63.0792H10.7584L10.9803 63.4652V63.9063L10.5921 64.2372H10.2039L9.81569 64.0166V63.7409L9.64933 63.5755C9.81569 63.5203 9.76024 63.2998 9.92661 63.1895ZM10.3148 66.0017H10.4257L10.9248 66.2223C10.9248 66.3325 10.9803 66.3325 10.9803 66.3325V66.9391L10.5921 67.2699H10.0375C9.81569 67.2148 9.87115 66.9391 9.70478 66.7737C9.6521 66.692 9.6323 66.5935 9.64933 66.498L10.3148 66.0017ZM7.93021 70.1373L7.48656 70.4681H7.15383L6.76564 70.3027C6.76798 70.2381 6.75398 70.174 6.72491 70.1162C6.69584 70.0584 6.65264 70.0088 6.59927 69.9719V69.5859C6.65473 69.4205 6.87655 69.3102 6.93201 69.1999H7.70838L7.93021 69.3653V70.1373ZM6.93201 60.0464H7.54202C7.6417 60.2016 7.77417 60.3333 7.93021 60.4324V60.7081L7.76384 60.8736V61.039C7.54202 61.0941 7.37565 61.2595 7.09837 61.2044C6.96129 61.1006 6.84789 60.969 6.76564 60.8184V60.3221L6.93201 60.0464ZM6.76564 57.5099V57.1791L6.93201 56.9585H7.54202C7.65293 57.0137 7.70838 57.1239 7.76384 57.1791V57.7856L7.54202 57.9511H7.09837L6.76564 57.5099ZM6.87655 51.0584L7.09837 50.8378H7.54202L7.76384 51.0584V51.3893L7.37565 51.7201H7.09837L6.87655 51.4995V51.0584ZM7.09837 53.9258H7.54202L7.76384 54.0912V54.5874L7.3202 54.9183L6.93201 54.7529C6.8694 54.6005 6.79525 54.453 6.71019 54.3117C6.76564 54.1463 6.98746 54.0912 7.09837 53.9258ZM6.76564 63.2998C6.76405 63.2497 6.77965 63.2005 6.80989 63.1605C6.84013 63.1204 6.8832 63.0917 6.93201 63.0792C7.06021 63.0688 7.17941 63.0095 7.26474 62.9138L7.37565 63.0792H7.70838L7.87475 63.4652V63.9063L7.43111 64.2372H7.15383L6.76564 64.0166V63.7409L6.59927 63.5755C6.65252 63.5526 6.69722 63.5137 6.72706 63.4642C6.75691 63.4148 6.7704 63.3573 6.76564 63.2998ZM6.59927 66.6083L7.20928 65.9466C7.48866 65.9842 7.74481 66.1214 7.93021 66.3325V66.9391L7.54202 67.2699H6.87655C6.8211 67.2148 6.76564 67.2148 6.76564 67.1597L6.59927 66.7737C6.54382 66.7185 6.59927 66.6083 6.59927 66.6083ZM4.8247 63.5755C4.76924 63.6306 4.71379 63.6858 4.71379 63.7409V64.0166L4.27014 64.2372H3.88195L3.54922 63.7409V63.4652L3.71559 63.0792H4.04832L4.15923 62.9138C4.27014 63.0792 4.49197 63.0241 4.60288 63.1895C4.71379 63.3549 4.65833 63.5203 4.8247 63.5755ZM3.66013 57.1791L3.88195 56.9585H4.49197L4.65833 57.1239C4.71379 57.2894 4.65833 57.3997 4.71379 57.5651L4.3256 57.9511H3.88195L3.66013 57.7856V57.1791ZM3.54922 60.3773L3.88195 59.9913H4.49197L4.65833 60.2119V60.8184L4.3256 61.0941C4.10378 61.3147 3.93741 61.039 3.71559 60.9838C3.49377 60.9287 3.49377 60.653 3.54922 60.3773Z" fill="#3241E0"/>
</svg>
