<svg width="569" height="172" fill="none" xmlns="http://www.w3.org/2000/svg">
  <g clip-path="url(#clip0)">
    <path d="M228.707 123.289c13.738 17.679 31.001 33.014 43.835 42.575a13.396 13.396 0 0015.184.632 13.433 13.433 0 005.982-8.529 13.423 13.423 0 00-1.915-10.233c-17.263-25.979-34.706-51.596-34.706-51.596l-28.38 27.151z" fill="url(#paint0_linear)"/>
    <path d="M270.373 158.558a.808.808 0 01-.723-.361l-22.596-34.457a.904.904 0 01-.126-.688.916.916 0 011.663-.304l22.505 34.457a.913.913 0 01-.012 1.016.888.888 0 01-.26.247l-.451.09z" fill="#0EC2BC"/>
    <path d="M178.094 115.892c-17.986 2.977-25.577 12.809-31.091 27.602-6.326 16.688-7.953 31.932 16.63 46.725l21.33-2.977c30.549-.811 61.73-9.02 72.124-64.946l-78.993-6.404z" fill="#0EC2BC"/>
    <path d="M178.094 62.221c1.808-20.566 4.971-28.323 14.1-30.398 9.128-2.074 13.557 5.863 17.443 18.131l-31.543 12.267zM233.678 31.011c-7.953.361-11.749 6.856-15.365 16.778l25.669 5.142c1.265-14.072-2.26-22.28-10.304-21.92z" fill="#2AE5C4"/>
    <path d="M209.727 135.195c48.354 3.338 54.59-17.228 58.657-30.939 5.604-19.033 10.575-27.512 3.163-35.63-4.428-4.871-11.026-5.412-17.804-3.518-5.694-11.997-14.552-20.476-38.954-18.762-18.348 1.353-46.998 11.005-57.392 42.936-10.394 31.932 29.193 44.38 52.33 45.913z" fill="url(#paint1_linear)"/>
    <path d="M259.708 74.85l-1.446-4.15-7.14 20.206-8.496 6.675-12.202-1.443L196.713 75.3l-1.537 2.706a36.604 36.604 0 0110.123 7.216c11.388 10.915 15.997 30.94 3.976 49.972h.452c31.995 2.256 45.552-6.043 52.24-15.875-6.236-26.25-3.434-37.344-2.259-44.47z" fill="#ADFDDC"/>
    <path d="M192.826 78.007a.812.812 0 01-.723-.36c-2.711-3.7-5.965-5.233-11.026-5.142a.91.91 0 01-.667-.2.905.905 0 01-.327-.612.987.987 0 01.903-.992c5.694-.09 9.581 1.714 12.563 5.953a.988.988 0 01-.181 1.263l-.542.09z" fill="#0EC2BC"/>
    <path d="M239.914 98.844c-8.857 0-21.691-8.75-35.248-18.04l-3.977-2.797a1.269 1.269 0 01-.736-.792 1.272 1.272 0 01.147-1.07 1.264 1.264 0 011.945-.213l4.067 2.706c13.467 9.201 27.295 18.672 35.068 17.59 7.772-1.082 10.393-10.554 13.466-20.566.362-1.263.814-2.526 1.175-3.789a1.173 1.173 0 011.122-.914c.174-.004.346.031.505.102a1.264 1.264 0 01.814 1.533c-.362 1.264-.814 2.526-1.175 3.79-3.164 10.373-6.417 21.016-15.546 22.37l-1.627.09z" fill="#000"/>
    <path d="M256.092 67.183c3.345-.451 9.671 2.074 10.394 6.675.723 4.6-6.688 3.969-10.665.631-1.898-1.624-2.711-3.518-2.621-4.78a2.979 2.979 0 012.892-2.526z" fill="#5865F2"/>
    <path d="M204.847 47.97a42.125 42.125 0 00-4.248-6.766 4.347 4.347 0 00-4.971-1.804c-1.536.451-5.242 2.706-5.694 13.17a.796.796 0 00.173.602.803.803 0 00.55.3h.181a.811.811 0 00.813-.632c1.537-5.502 4.158-9.741 6.417-10.102h.904c1.627.721 3.706 3.608 5.242 6.404.271.541.633.541.814.451.18-.09.361-.36-.181-1.623zM241.903 50.495a42.296 42.296 0 00-.994-8.028c-.362-2.165-1.718-3.608-3.435-3.878-1.717-.271-5.513.18-9.942 9.741a.989.989 0 00.362 1.173h.09a.815.815 0 00.994-.18c3.344-4.42 7.231-7.217 9.219-6.585l.723.45c1.085 1.354 1.717 4.962 1.989 8.21 0 .63.361.811.542.811.181 0 .452-.27.452-1.714z" fill="#000"/>
    <path d="M169.327 83.69a15.882 15.882 0 015.095-5.892 15.923 15.923 0 017.287-2.768 26.73 26.73 0 013.796-.09l1.898.18 1.898.361a28.217 28.217 0 017.14 2.616 38.29 38.29 0 0111.462 9.63 38.238 38.238 0 016.886 13.282.454.454 0 01-.066.347.463.463 0 01-.296.194c-.181.09-.452-.09-.542-.271a36.782 36.782 0 00-6.835-12.769 36.86 36.86 0 00-11.241-9.15 26.522 26.522 0 00-6.779-2.435l-1.807-.361h-1.718a15.928 15.928 0 00-3.615.18 14.478 14.478 0 00-6.507 2.526 14.083 14.083 0 00-4.429 5.322 1.085 1.085 0 01-1.265.36.818.818 0 01-.449-.503.816.816 0 01.087-.669v-.09z" fill="#0EC2BC"/>
    <path d="M189.211 87.478c8.948-.54 14.19 4.15 16.178 12.268 1.988 8.118 2.802 12.538 6.056 16.597 3.253 4.059 6.688 10.915 1.626 22.821-4.519 10.464-16.268 31.752-27.294 48.078a15.201 15.201 0 01-12.473 6.495c-2.771 0-5.488-.766-7.85-2.212a14.993 14.993 0 01-5.53-5.985 14.947 14.947 0 011.269-15.617c17.986-24.715 25.849-36.351 26.12-43.026.271-8.479-6.507-16.327-9.49-20.025-2.982-3.698-1.627-6.405.452-7.126 2.079-.722 4.609.361 6.146 2.796-2.35-7.757-3.344-14.613 4.79-15.064z" fill="#2AE5C4"/>
    <path d="M200.508 70.25c4.339 2.706 6.146 7.667 3.977 11.004-2.169 3.338-3.796 1.804-5.784.27a31.12 31.12 0 00-7.592-4.148c-2.983-.993-3.706-3.518-2.26-5.954 1.447-2.435 7.321-3.879 11.659-1.172z" fill="#5865F2"/>
    <path d="M291.793 147.734c-6.688-10.193-13.467-20.206-19.251-28.775a189.062 189.062 0 017.14-29.677c1.627-4.69.452-8.569-5.152-8.93-5.604-.36-8.767 3.97-12.292 12.719-3.525 8.75-5.603 11.546-9.219 16.146-3.615 4.6-5.513 10.103 1.085 21.288 3.796 6.585 15.365 24.174 24.403 37.885 3.2.456 6.459-.213 9.219-1.894a13.433 13.433 0 005.982-8.529 13.423 13.423 0 00-1.915-10.233z" fill="#2AE5C4"/>
    <path d="M188.759 87.478l-1.536.27a2.619 2.619 0 00-1.898 2.527 13.31 13.31 0 00.361 3.066c1.09 4.941 2.447 9.819 4.067 14.613a1.085 1.085 0 00.904.632h.271a.898.898 0 00.519-.473.888.888 0 00.023-.7c-1.265-3.879-2.801-9.02-3.976-14.432-.543-2.436-.452-4.06.09-4.871a2.892 2.892 0 011.175-.632z" fill="#000"/>
    <path d="M186.68 114.99a.815.815 0 00.814.631h.361a.887.887 0 00.519-.472.889.889 0 00.024-.7c-.995-2.887-2.35-6.495-4.068-11.997a6.771 6.771 0 00-2.621-2.436c2.17 7.217 3.796 11.637 4.971 14.974z" fill="#0EBABA"/>
    <path d="M197.707 107.593a.808.808 0 00.813.632h.362a.908.908 0 00.601-.82.908.908 0 00-.059-.353c-.09-.09-3.886-11.005-4.881-15.334-.361-1.714-.361-2.977.181-3.338a1.45 1.45 0 011.085-.18l-2.441-.541a.991.991 0 00-.632.54 7.197 7.197 0 000 3.97c1.084 4.42 4.79 14.973 4.971 15.424zM271.728 103.985h.271a1.087 1.087 0 00.904-.631c1.537-4.78 4.248-13.35 5.152-16.507.363-1.202.576-2.444.633-3.698a2.35 2.35 0 00-1.447-2.346 7.054 7.054 0 00-2.078-.45c.994.18 1.265.45 1.446.72.181.272.452 2.346-.362 5.233-.813 2.886-3.796 12.628-5.061 16.507a.805.805 0 00.208 1.012.822.822 0 00.334.16z" fill="#000"/>
    <path d="M272.542 118.959c-3.073.09-6.598.451-6.779.451a.907.907 0 00-.592.388.899.899 0 00-.131.694.817.817 0 00.301.55.808.808 0 00.603.172h.09a64.89 64.89 0 017.683-.451h.09l-1.265-1.804zM253.743 65.108l-.814-1.624a13.086 13.086 0 00-4.067 4.6.8.8 0 00-.087.669.812.812 0 00.449.504h.451a1.089 1.089 0 00.814-.45 12.36 12.36 0 013.344-3.79l-.09.091z" fill="#0EC2BC"/>
    <path opacity=".58" d="M249.766 105.699a10.738 10.738 0 01-6.688 7.487c-5.965 2.165-11.207-1.894-12.834-4.6-1.627-2.706-1.446-3.969.903-3.157 8.315 3.067 12.021 2.074 15.455-.993 1.266-1.172 2.17-2.164 2.893-2.074.723.09.994.902.271 3.337z" fill="#2AE5C4"/>
    <path d="M185.686 38.588c0 .902.633 1.353 1.717 1.083a4.518 4.518 0 003.073-2.796c.362-1.444-.813-1.985-2.35-1.263a4.422 4.422 0 00-2.44 2.976zM226.177 36.333c-.091.903.632 1.354 1.626 1.173a4.795 4.795 0 003.073-2.796c.452-1.534-.723-2.075-2.35-1.263a4.235 4.235 0 00-2.349 2.886z" fill="#2FFFDA"/>
  </g>
  <g clip-path="url(#clip1)">
    <path d="M126.026 69.456a57.708 57.708 0 01-2.864 18.296 19.576 19.576 0 00-11.807 6.7 19.885 19.885 0 00-4.684 12.822c.006 1.773.239 3.539.694 5.252-9.804 9.148-22.431 14.614-35.76 15.478a57.793 57.793 0 01-37.431-10.732c-10.885-7.806-18.774-19.154-22.34-32.135a59.119 59.119 0 012.753-39.15c5.348-12.343 14.746-22.454 26.615-28.633A57.712 57.712 0 0179.76 12.06c13.074 2.753 24.81 9.962 33.235 20.414 8.426 10.452 13.027 23.511 13.031 36.982z" fill="#2E91F2"/>
    <path d="M107.539 101.408a18.78 18.78 0 00-.868 5.866c.006 1.773.239 3.539.694 5.252-1.562 1.401-3.124 2.801-4.774 4.027-8.679-3.064-19.615-7.179-30.465-11.818l6.25-17.858 29.163 14.531z" fill="#0EC2BC"/>
    <path d="M104.327 101.058l1.042-.7-26.993-13.481-6.25 17.858c8.94 3.764 17.88 7.266 25.605 10.067-2.43-1.401-.868-9.104 6.596-13.744z" fill="#FFE75C"/>
    <path d="M96.429 114.277l1.302.525c-2.43-1.401-.868-9.104 6.596-13.744l1.042-.7-1.736-.876-.434.175c-11.023 5.866-9.634 13.657-6.77 14.62z" fill="#fff"/>
    <path d="M82.368 92.917l-5.207-2.451-5.035 14.269c5.729 2.451 11.544 4.727 17.012 6.828-3.385-5.865-5.815-11.293-6.77-18.646z" fill="#000"/>
    <path d="M15.015 93.88A58.513 58.513 0 0036.36 118.74a57.804 57.804 0 0031.254 9.367c8.332-10.067 13.887-24.861 15.797-36.067 0 0-20.83-8.14-68.394 1.839z" fill="#0EC2BC"/>
    <path d="M79.504 95.718c-3.993 11.205-5.815 12.256-15.45 11.818-12.238-.613-17.011-3.939-12.324-17.07l6.51-1.576c-10.676 0-24.998 1.138-43.224 4.99a58.512 58.512 0 0021.343 24.861 57.804 57.804 0 0031.254 9.367c8.332-10.067 13.887-24.861 15.797-36.067l-3.646-1.05-.26 4.727z" fill="#FFE75C"/>
    <path d="M101.81 57.901c.695 6.303-3.124 11.468-8.419 11.555-5.294.088-10.068-4.99-10.415-11.292-.347-6.303 3.385-10.943 8.506-11.03 5.12-.088 9.721 4.727 10.328 10.767z" fill="#FF78B9"/>
    <path d="M98.338 58.514c.521 7.003-4.079 12.868-10.328 12.868-6.25 0-11.457-5.865-11.717-12.868-.26-7.004 4.426-12.256 10.415-12.256 5.989 0 11.11 5.428 11.63 12.256z" fill="#000"/>
    <path d="M87.663 35.316a7.562 7.562 0 00-1.49-3.533 7.472 7.472 0 00-3.024-2.332l-5.902 2.276c2.865.175 3.472 1.575 3.906 4.464.868 5.69 2.17 13.919 2.777 16.983l6.857-.7-3.124-17.158z" fill="#000"/>
    <path d="M91.482 53.787a1.64 1.64 0 01-1.137-.361 1.666 1.666 0 01-.6-1.04c-.346-1.926-.954-4.727-1.648-7.791-.695-3.064-1.042-5.165-1.563-7.441-.868-4.202-1.041-4.552-8.332-5.34-7.29-.788-23.521-1.313-29.857-1.313-1.997 0-3.212.35-3.82.963-.607.613-.694 1.75-.52 3.677.173 1.925 1.215 11.03 1.91 16.195a1.765 1.765 0 01-.383 1.291 1.739 1.739 0 01-1.18.634 1.636 1.636 0 01-1.276-.325 1.66 1.66 0 01-.633-1.163c-.695-5.165-1.563-13.13-1.823-16.282-.26-3.152-.26-4.64 1.389-6.39 1.649-1.752 3.298-2.102 6.336-2.102 5.728 0 22.393.526 30.204 1.401 7.812.875 10.069 1.313 11.37 8.054.521 2.276 1.042 4.902 1.65 7.44.607 2.54 1.215 5.866 1.649 7.792a1.85 1.85 0 01-.28 1.329c-.259.39-.655.666-1.11.772h-.346z" fill="#FF78B9"/>
    <path d="M87.142 41.706c-4.687-.438-9.981 1.313-14.148 12.868l20.57 5.603c1.476-12.956-1.735-18.033-6.422-18.47z" fill="#2AE5C4"/>
    <path d="M110.837 79.26c-.955 12.431-20.57 20.835-43.745 18.91-23.174-1.927-41.921-13.307-42.182-25.825-.26-12.518 19.268-21.972 43.484-20.047 24.216 1.926 43.398 14.094 42.443 26.963z" fill="#2AE5C4"/>
    <path d="M95.474 67.093l-6.77 5.515-26.559-7.967c3.385 11.03 2.777 34.141-8.68 31.252a82.064 82.064 0 0013.627 2.276c10.416.876 20.05-.35 27.688-3.064 12.672-4.552 10.155-19.609.694-28.012z" fill="#ADFDDC"/>
    <path d="M59.802 38.38c-4.167-.7-11.37 1.05-17.62 19.608l24.476-4.64c-.347-9.804-2.69-14.268-6.856-14.968z" fill="#2AE5C4"/>
    <path d="M95.474 67.093c-10.936.35-19.876-.35-33.329-2.452 10.242 6.566 18.314 12.606 28.295 12.256 8.593-.263 6.423-6.828 5.034-9.804z" fill="#9E0960"/>
    <path d="M107.696 96.777c4.821-5.574 4.747-13.597-.165-17.919-4.913-4.322-12.804-3.308-17.625 2.267-4.821 5.574-4.747 13.597.165 17.919 4.913 4.322 12.804 3.308 17.625-2.267z" fill="#0C1AAD"/>
    <path d="M103.459 80.136a9.48 9.48 0 013.972.914 9.552 9.552 0 013.232 2.5 7.957 7.957 0 00-2.692-3.674 7.858 7.858 0 00-4.251-1.578h-.174a14.94 14.94 0 00-9.97 3.701 15.182 15.182 0 00-5.045 9.43c-.868 7.266 3.819 9.629 6.596 10.154a9.68 9.68 0 01-3.935-4.236 9.792 9.792 0 01-.839-5.743 13.339 13.339 0 014.421-8.213 13.126 13.126 0 018.685-3.255z" fill="#000"/>
    <path d="M62.136 71.978c2.408-1.302 2.91-5.087 1.12-8.453-1.79-3.366-5.192-5.039-7.6-3.737-2.408 1.303-2.91 5.087-1.12 8.453 1.79 3.366 5.192 5.04 7.6 3.737zM102.336 71.092c1.187-1.33.185-4.19-2.237-6.39-2.423-2.2-5.348-2.906-6.535-1.576-1.187 1.329-.185 4.19 2.237 6.39 2.422 2.2 5.348 2.905 6.535 1.576z" fill="#5865F2"/>
    <path d="M51.903 55.012c.521 7.003-4.166 12.868-10.328 12.868-6.163 0-11.544-5.865-11.718-12.868-.173-7.003 4.427-12.168 10.329-12.168 5.902 0 11.197 5.34 11.717 12.168z" fill="#000"/>
    <path d="M37.322 52.036a161.946 161.946 0 01-1.476-16.283c0-4.29 2.604-6.128 8.42-8.14l-1.65 6.477 1.65 17.333-6.944.613z" fill="#FF78B9"/>
    <path d="M46.956 55.275c.607 5.865-3.038 10.767-7.985 10.855-4.947.087-9.46-4.727-9.808-10.68-.347-5.953 3.211-10.33 7.985-10.33 4.774 0 9.2 4.377 9.808 10.155z" fill="#FF78B9"/>
    <path d="M48.345 27c-3.038 0-5.034.7-6.336 2.1-1.302 1.401-1.65 4.29-1.39 6.39.261 2.102 1.13 11.118 1.824 16.283a1.676 1.676 0 00.633 1.163 1.642 1.642 0 001.276.325c.955-.087 1.476 4.29 2.604 2.014-1.302-8.842-2.604-16.983-2.951-20.134-.347-3.152 0-3.064.52-3.677.522-.613 1.823-.963 3.82-.963 6.336 0 22.653.613 29.857 1.313l.347-3.414c-7.811-.875-24.476-1.4-30.204-1.4z" fill="#FF78B9"/>
    <path d="M41.488 55.012c.434 3.94-1.823 7.353-5.121 7.353-3.298 0-6.162-3.239-6.336-7.178-.174-3.94 2.17-6.828 5.208-6.915 3.038-.088 5.815 2.888 6.249 6.74z" fill="#fff"/>
    <path d="M38.19 55.187c.26 2.014-.955 3.852-2.691 3.852-1.736 0-3.298-1.75-3.385-3.764-.087-2.014 1.215-3.59 2.778-3.677 1.562-.087 3.124 1.576 3.298 3.59z" fill="#2AE5C4"/>
    <path d="M36.714 52.298l-1.562 3.064 2.777-1.4v-1.664h-1.215z" fill="#fff"/>
    <path d="M54.334 126.532a57.34 57.34 0 0013.54 1.576l4.426-.175c-.347-1.751-.694-3.502-1.041-4.727l-11.457-.876-5.468 4.202z" fill="#FFE75C"/>
    <path d="M91.995 51.946c.19-2.506-.971-4.64-2.596-4.767-1.625-.126-3.098 1.804-3.289 4.31-.191 2.507.971 4.641 2.596 4.767 1.625.127 3.097-1.803 3.289-4.31zM64.188 49.21c.082-2.803-1.327-5.119-3.147-5.174-1.821-.054-3.364 2.174-3.447 4.977-.082 2.803 1.327 5.12 3.148 5.174 1.82.054 3.364-2.174 3.446-4.977z" fill="#000"/>
    <path d="M72.387 71.12c5.989 3.589 11.63 6.04 18.053 5.777a7.246 7.246 0 004.774-1.4c-5.208-3.415-11.544-5.516-22.827-4.377z" fill="#FF78B9"/>
    <path d="M67.874 1a67.494 67.494 0 00-31.58 7.723A68.143 68.143 0 0011.879 30.35 68.892 68.892 0 00.211 60.938a69.092 69.092 0 003.746 32.555 68.58 68.58 0 0018.303 27.08 67.77 67.77 0 0028.676 15.413 67.4 67.4 0 0032.494.224 67.753 67.753 0 0028.882-15.018 18.811 18.811 0 01-3.124-4.202c-11.4 10.069-26.023 15.644-41.176 15.698-15.153.054-29.815-5.416-41.285-15.403C15.257 107.299 7.75 93.468 5.59 78.341a63.818 63.818 0 019.385-43.376C23.187 22.12 35.724 12.7 50.276 8.44a62.347 62.347 0 0143.895 3.345c13.753 6.417 24.744 17.63 30.948 31.572a63.876 63.876 0 012.816 44.307 16.8 16.8 0 015.121 1.138 70.847 70.847 0 002.778-19.347c-.023-18.164-7.193-35.575-19.936-48.411C103.156 8.21 85.883 1 67.874 1z" fill="#1FF0A7"/>
    <path d="M11.717 84.426c19.963-6.566 29.337-9.805 34.458-3.502 5.12 6.303.087 17.508-4.947 28.275-6.597.876-10.416 1.839-15.624.438-13.54-3.589-22.393-5.515-23.26-12.78-.695-5.778 1.735-9.98 9.373-12.431z" fill="#FFE75C"/>
    <path d="M38.884 98.432s-10.676 6.39-10.762 13.043v.788a59.01 59.01 0 0012.585 9.017c8.506-.263 9.373-3.327 8.419-7.529-2.257-10.329-1.823-12.168-10.242-15.32z" fill="#2AE5C4"/>
    <path d="M43.05 100.27c7.117 3.94 8.072 5.778 7.378 10.067a6.239 6.239 0 01-1.519 3.291 6.149 6.149 0 01-3.081 1.874L43.05 100.27z" fill="#2AE5C4"/>
    <path d="M5.815 87.402l5.468 18.033c1.823.7 3.82 1.313 6.076 2.014 2.604-1.401 5.642-4.202 7.117-9.63 2.517-9.367-2.343-14.619-8.072-14.97l-4.687 1.577a18.6 18.6 0 00-5.902 2.976z" fill="#fff"/>
    <path d="M2.343 96.856c.608 4.465 4.167 6.916 10.069 9.017 5.034-1.926 9.46-4.902 9.894-9.367 1.042-11.03-7.377-13.13-10.589-12.08-7.638 2.45-10.068 6.653-9.374 12.43z" fill="#0EC2BC"/>
    <path d="M26.993 96.594a.863.863 0 01-.868-.613.882.882 0 01.372-.921.864.864 0 01.323-.13 130.7 130.7 0 0013.019-3.764.948.948 0 01.681.087.96.96 0 01.447.526.795.795 0 01-.23.9.78.78 0 01-.29.15 135.639 135.639 0 01-13.28 3.765h-.174zM106.778 96.004c2.301-2.66 2.467-6.31.372-8.154-2.095-1.843-5.658-1.181-7.959 1.478-2.3 2.66-2.466 6.31-.371 8.154 2.095 1.843 5.658 1.181 7.958-1.478z" fill="#000"/>
    <path d="M112.486 93.267a20.18 20.18 0 00-5.468 9.98l-8.159-5.778 8.333-9.804 5.294 5.602z" fill="#000"/>
    <path d="M44.178 110.162a8.458 8.458 0 00-1.619-9.5 8.328 8.328 0 00-2.807-1.88c-4.34-1.838-11.89-4.727-26.125-9.717l-1.476-.438a7.49 7.49 0 00-6.823 1.109 7.6 7.6 0 00-2.286 2.747 7.67 7.67 0 00-.785 3.498c.347 7.441 8.94 10.067 22.045 14.882 9.895 3.589 17.533 4.727 19.877-.701z" fill="url(#paint2_linear)"/>
    <path d="M126.2 121.192c7.621 0 13.8-6.231 13.8-13.919 0-7.687-6.179-13.918-13.8-13.918-7.622 0-13.801 6.231-13.801 13.918 0 7.688 6.179 13.919 13.801 13.919z" fill="#1FF0A7"/>
    <path d="M53.441 42.506c.752-.6 1.167-1.333.93-1.636-.239-.303-1.041-.062-1.792.538-.752.601-1.168 1.334-.93 1.637.239.303 1.04.062 1.792-.539zM81.322 45.313c.751-.6 1.167-1.333.93-1.636-.24-.303-1.041-.062-1.793.539-.751.6-1.167 1.333-.929 1.636.238.303 1.04.062 1.792-.539z" fill="#2FFFDA"/>
    <path d="M109.882 65.43c-.26 0-.434-.176-.607-.438a.705.705 0 01.347-.876 48.085 48.085 0 007.725-4.464.774.774 0 01.954.175.797.797 0 01-.173.963 58.77 58.77 0 01-7.985 4.552l-.261.087zM121.252 73.308h-.173a49.006 49.006 0 00-8.767-1.4.784.784 0 01-.607-.788.701.701 0 01.694-.613 52.26 52.26 0 019.027 1.4c.176.06.324.181.42.342.095.16.131.35.101.534a.791.791 0 01-.695.525z" fill="#3072FF"/>
    <path d="M50.254 111.213c-.52-1.488-.955-2.977-1.475-4.465a.87.87 0 00-.477-.449.857.857 0 00-.652.012.78.78 0 00-.575.726.795.795 0 00.055.324c.694 1.926 1.388 4.027 1.909 6.04a4.821 4.821 0 001.215-2.188z" fill="#0EC2BC"/>
    <path d="M71.606 122.593c-2.865 1.838-8.853 3.589-21.352 2.801a56.443 56.443 0 007.812 1.839c6.51-.175 11.37-1.226 14.494-3.152a.876.876 0 00.382-.558.895.895 0 00-.36-.915.872.872 0 00-.976-.015zM63.434 112.222c.793-.773.896-1.963.23-2.658-.666-.696-1.85-.633-2.642.139-.793.772-.896 1.962-.23 2.658s1.848.633 2.642-.139zM61.527 121.208c.793-.772.896-1.962.23-2.658-.666-.695-1.849-.633-2.642.139-.793.773-.896 1.963-.23 2.658.666.696 1.849.634 2.642-.139z" fill="#fff"/>
  </g>
  <path d="M556.997 107.035a51.198 51.198 0 01-2.46 15.582 16.848 16.848 0 00-14.24 16.625 14.774 14.774 0 00.671 4.473 49.947 49.947 0 01-62.867 4.043 49.955 49.955 0 01-16.825-60.71 49.95 49.95 0 0195.721 19.987z" fill="#FF78B9"/>
  <path d="M541.416 128.954c-.15-6.71-2.461-10.214-5.145-9.17-2.683 1.044-5.442 6.486-6.56 13.345-1.417 8.797.298 17.072 4.398 15.88l2.162-1.492c1.715-1.863 3.132-5.144 4.101-8.797-.001-1.65.276-3.288.82-4.846.221-1.63.296-3.277.224-4.92zM503.99 128.432c1.715-6.933 5.219-12.152 8.275-12.823 3.057-.671 5.666 3.355 5.368 10.587-.373 9.319-4.92 19.234-9.841 19.458-4.92.223-5.889-8.499-3.802-17.222z" fill="#000"/>
  <path d="M534.482 146.623l-1.789 2.386.969.298c1.193-.746 2.311-1.566 3.429-2.386l-2.609-.298z" fill="#000"/>
  <path d="M540.297 139.242a16.786 16.786 0 014.995-11.928c-.596-4.772-2.311-7.157-4.324-6.263-2.013.895-4.622 5.89-5.666 12.525-1.044 6.635-.596 11.183.746 14.091a49.816 49.816 0 004.92-3.952 14.774 14.774 0 01-.671-4.473z" fill="#0C1AAD"/>
  <path d="M506.45 145.43a20.284 20.284 0 0010.512 1.789l-2.162-5.815-2.907-.522-5.443 4.548z" fill="#000"/>
  <path d="M513.384 129.849c1.565-6.71 4.622-11.631 7.231-12.302 2.61-.671 4.846 2.983 4.772 9.618 0 8.871-3.802 19.234-8.276 20.054-4.473.82-5.666-8.35-3.727-17.37z" fill="#0C1AAD"/>
  <path d="M517.111 132.16c.97-5.144 2.535-9.394 3.803-10.214 1.267-.82 1.938 1.789 1.416 6.71-.522 4.92-2.535 12.748-4.324 13.866-1.789 1.119-2.013-4.1-.895-10.362z" fill="#5865F2"/>
  <path d="M456.276 123.363c1.268-6.859 5.219-12.749 9.021-13.644 3.802-.894 6.785 3.653 6.188 10.885-.596 7.232-5.368 15.582-9.99 16.103-4.622.522-6.635-5.889-5.219-13.344z" fill="#000"/>
  <path d="M470.814 139.317a16.999 16.999 0 01-11.63-3.057l4.249-5.293 6.188 1.342 1.193 7.008z" fill="#000"/>
  <path d="M465.745 124.854c1.118-6.561 4.473-11.78 7.679-12.525 3.205-.746 6.113 3.131 6.113 9.841 0 8.2-3.877 16.55-8.499 17.147-4.622.596-6.635-6.635-5.293-14.463z" fill="#0C1AAD"/>
  <path d="M540.297 139.242a11.24 11.24 0 00.298 2.759c-32.877-2.088-67.768-9.319-91.177-17.893-5.294-1.938-7.232-3.28-6.337-8.648.894-5.368 1.491-8.275 6.411-7.679l21.322-11.034c11.258-27.659 17.296-35.114 30.418-35.114 14.314 0 29.597 2.982 37.276 10.96 6.188 6.336 7.753 16.102 7.828 29.597.075 6.709 1.491 8.722 3.579 13.643a26.752 26.752 0 011.938 7.455 16.852 16.852 0 00-11.556 15.954z" fill="#2AE5C4"/>
  <path d="M535.078 135.515l-4.249-.522v-.373c.596-4.1 2.013-17.52-5.666-19.235a89.422 89.422 0 00-10.214-1.416.897.897 0 01-.745-.671c-.299-3.231.223-7.256 1.565-12.078.075-.223.298-.372.448-.298a.452.452 0 01.298.448c-1.342 4.771-1.864 8.722-1.566 11.853 3.479.273 6.939.746 10.363 1.417 8.126 1.789 7.008 15.06 6.337 19.682l2.758.373c1.044-7.232 2.386-17.297 3.132-25.497a.519.519 0 01.447-.299c.149 0 .298.224.298.373-.745 8.35-2.162 18.638-3.206 25.87v.373z" fill="#0EC2BC"/>
  <path d="M509.06 105.023l-1.79 33.325c-21.023-3.281-41.003-8.201-56.361-13.718l-.448-.149c-4.696-1.939-3.131-7.232-.969-16.7s10.214-14.09 22.068-12.45a160.893 160.893 0 0137.5 9.692z" fill="#2AE5C4"/>
  <path d="M488.781 110.316h-.149l-26.242-6.114a.964.964 0 01-.522-.447 1.042 1.042 0 010-.671c3.131-6.411 9.766-6.635 12.45-6.411a.444.444 0 01.373.447c0 .224-.224.373-.373.298-2.609-.149-8.797 0-11.779 6.039l26.242 6.113c.075 0 .15 0 .15-.074 1.416-3.952 4.771-6.71 8.499-6.934a.373.373 0 010 .746c-3.43.224-6.487 2.758-7.828 6.411a.823.823 0 01-.821.597z" fill="#0EC2BC"/>
  <path d="M513.98 132.756c-.373 3.728-.671 6.486-7.306 5.517-21.471-3.355-41.824-8.499-57.256-14.165-5.294-1.938-7.232-3.28-6.337-8.648.894-5.368 1.491-8.275 6.411-7.679l-.596 2.46c15.656 4.697 41.078 10.885 60.686 14.687 4.547.82 4.995 2.013 4.398 7.828z" fill="#fff"/>
  <path d="M463.955 110.167c-3.504-.149-4.92 1.416-4.92 4.249 0 2.833 3.355 8.052 10.586 9.841 7.232 1.789 12.823.671 14.911-2.684 2.087-3.355 1.715-5.517-2.311-7.082-6.114-2.386-12.451-4.101-18.266-4.324z" fill="#9E0960"/>
  <path d="M521.137 68.79c-8.946-2.833-18.414-3.802-24.975-3.206a9.84 9.84 0 00-6.262 3.206c-5.443 6.188-10.289 14.836-15.582 28.255 10.661 2.162 26.541 5.666 32.803 7.008 4.772-14.09 9.394-23.856 15.209-31.684 1.566-2.088.522-2.983-1.193-3.579z" fill="#1E5EE8"/>
  <path d="M503.99 100.177s-20.129-2.237-29.523-3.504c0 .149-.074.223-.149.372l27.734 5.89 1.938-2.758z" fill="#000"/>
  <path d="M506.599 105.395c1.342-3.802 2.535-7.306 3.803-10.512-3.281.597-4.846 2.684-7.381 6.71l-1.417 2.535 4.995 1.267zM508.836 70.057c-8.872 12.078-15.656 35.562-15.656 35.562l4.25 1.193c8.051-24.752 16.401-37.425 16.401-37.425l-4.995.67z" fill="#000"/>
  <path d="M521.137 68.79c-8.946-2.833-18.414-3.802-24.975-3.206a10.662 10.662 0 00-4.697 1.79c12.078-.299 22.142 3.429 29.449 7.008l1.416-2.013c1.566-2.088.522-2.983-1.193-3.579z" fill="#000"/>
  <path d="M533.811 108.75c-.671 3.131-2.833 2.61-5.293 2.237l-11.108-1.64c-3.206-.522-3.43-1.193-2.013-6.71 1.938-8.052 8.051-20.95 11.704-25.497 3.653-4.548 5.368-4.548 6.561-3.802 1.193.745 2.535 5.815 2.087 17.147-.151 6.13-.799 12.239-1.938 18.265zM538.657 81.911c.364 9.21-.01 18.435-1.118 27.585-.298 2.162-.149 2.833.82 2.982l4.249.596c.895.149 1.119-1.043 1.119-5.367-.075-12.45-.224-20.13-3.132-27.212-.596-1.342-1.416-2.759-1.789-2.759s-.223 2.237-.149 4.175z" fill="#1E5EE8"/>
  <path d="M513.085 71.25c.075 1.118-1.192 1.79-2.833 1.566l-6.187-1.044c-1.641-.224-3.057-1.342-3.132-2.386-.074-1.043 1.193-1.789 2.833-1.565l6.188 1.044c1.64.223 3.057 1.342 3.131 2.385z" fill="#fff"/>
  <path d="M504.288 84.819a4.995 4.995 0 100-9.99 4.995 4.995 0 000 9.99z" fill="#0EC2BC"/>
  <path d="M470.218 95.33c-2.535-5.367-4.697-9.393-9.319-8.796-4.622.596-4.921 6.56-4.697 12.375.224 5.815 14.016-3.578 14.016-3.578zM508.016 104.65c-2.758-6.263-5.07-10.96-10.065-10.81-4.995.149-5.367 6.635-5.144 13.195.224 6.561 15.209-2.385 15.209-2.385z" fill="#2AE5C4"/>
  <path d="M457.402 104.241c1.086-1.346 1.109-3.129.051-3.982-1.057-.853-2.795-.454-3.881.892-1.086 1.346-1.109 3.128-.051 3.982 1.057.853 2.795.454 3.881-.892zM502.6 114.789c.901-2.122.249-4.43-1.457-5.154-1.705-.724-3.818.41-4.719 2.532-.901 2.123-.249 4.43 1.457 5.154 1.705.724 3.818-.41 4.719-2.532z" fill="#5865F2"/>
  <path d="M459.706 96.374c1.447-.059 2.891.17 4.249.672a.598.598 0 00.746-.672c-.447-2.832-1.566-4.622-3.057-4.92-1.491-.298-2.46.522-2.609 4.175a.745.745 0 00.671.745zM496.237 104.053c1.602.2 3.162.653 4.622 1.342a.591.591 0 00.576-.07.6.6 0 00.244-.526c-.522-3.206-1.715-5.293-3.355-5.89-1.64-.596-2.684.224-2.833 4.25a.826.826 0 00.186.602.817.817 0 00.56.292zM538.433 98.984c-.149 3.28-.447 6.859-.894 10.512-.298 2.162-.149 2.833.82 2.982l4.249.596c.895.149 1.119-1.044 1.119-5.368v-3.056c-.149-2.908-.895-4.399-5.294-5.666zM517.41 109.347l11.108 1.64c2.46.373 4.622.894 5.293-2.237a103.037 103.037 0 001.417-10.586l-2.535-.448c-6.486-1.192-11.258-2.087-14.911-2.609a57.347 57.347 0 00-2.385 7.53c-1.417 5.517-1.193 6.188 2.013 6.71z" fill="#000"/>
  <path d="M523.821 100.624c.671-6.71 1.193-13.867.746-19.607a51.059 51.059 0 00-3.057 5.74c-.075 4.026-.373 8.35-.895 13.42l3.206.447z" fill="#000"/>
  <path d="M499.592 77.14l4.696 2.684-2.013-4.995a5.438 5.438 0 00-2.683 2.31z" fill="#1E5EE8"/>
  <path d="M538.806 77.736c-.224 0-.298.597-.224 1.491l1.566.299c-.522-.97-1.044-1.79-1.342-1.79zM546.858 125.897c-.596-3.131-2.013-4.473-3.504-4.696-3.206-.373-5.517 9.393-6.561 20.576l3.803.298a18.322 18.322 0 01-.299-2.833 16.842 16.842 0 016.561-13.345zM526.43 140.808c2.759-8.126 3.355-21.546-.521-22.217-3.877-.671-7.754 9.617-9.17 21.099 3.205.447 6.411.82 9.691 1.118zM527.101 77.14c2.61.373 5.816.97 8.499 1.491-.372-3.131-1.043-4.771-1.938-5.293-.895-.522-2.982-.671-6.561 3.802z" fill="#000"/>
  <path d="M540.297 139.242a16.786 16.786 0 014.995-11.928c-.372-3.131-1.267-5.293-2.46-6.039-2.907.522-5.069 9.841-6.039 20.502l3.803.298a18.322 18.322 0 01-.299-2.833zM522.852 140.435a36.91 36.91 0 002.535-13.27c.074-3.579-.597-6.263-1.566-7.903-3.057 2.535-5.964 11.108-7.082 20.427 2.162 1.492 3.802 1.492 6.113.746z" fill="#0C1AAD"/>
  <path d="M519.348 140.808c1.342-2.609 2.535-7.679 2.982-12.152.447-4.473.075-6.039-.596-6.71-2.237 3.877-4.101 10.587-4.995 17.744.298 1.938 2.162 2.012 2.609 1.118zM542.012 125.003c-1.193.82-2.609 4.846-3.28 9.691-.671 4.846-.373 10.14.969 10.065l1.267-1.044a14.774 14.774 0 01-.671-4.473 16.773 16.773 0 013.504-10.214c-.149-3.131-.82-4.696-1.789-4.025z" fill="#5865F2"/>
  <path d="M529.934 113.521l-2.609-.447a.45.45 0 01-.373-.447.598.598 0 01.597-.522l2.609.447a.448.448 0 01.373.448.522.522 0 01-.597.521z" fill="#ADFDDC"/>
  <path d="M480.804 122.02c-1.118 1.566-4.622 2.312-8.35 1.864-3.727-.447-7.902-2.46-7.604-4.547.298-2.088 5.666-3.579 10.81-2.312 5.144 1.268 6.337 3.355 5.144 4.995z" fill="#FF78B9"/>
  <path d="M489.08 132.607h-.149c-13.494-2.237-28.629-6.71-34.742-8.723a.746.746 0 01-.447-.969.671.671 0 01.894-.447 268.452 268.452 0 0034.518 8.648.75.75 0 01.507.27.742.742 0 01.164.55.818.818 0 01-.745.671z" fill="#8CD9FF"/>
  <path d="M569 139.242a11.854 11.854 0 01-23.708 0v-.522a7.82 7.82 0 005.815 2.535 8.052 8.052 0 008.052-8.052 7.834 7.834 0 00-2.535-5.815h.522A11.854 11.854 0 01569 139.242z" fill="#FFE75C"/>
  <g clip-path="url(#clip2)">
    <path d="M426.534 80.277h-32.956c-6.332 0-11.466 5.103-11.466 11.397v.007c0 6.294 5.134 11.396 11.466 11.396h32.956c6.332 0 11.466-5.102 11.466-11.396v-.007c0-6.294-5.134-11.397-11.466-11.397z" fill="#D4F0FF"/>
    <path d="M393.579 97.551c3.265 0 5.913-2.631 5.913-5.877s-2.648-5.878-5.913-5.878c-3.266 0-5.914 2.632-5.914 5.878s2.648 5.877 5.914 5.877z" fill="#82B5CF"/>
    <path d="M410.092 97.551c3.266 0 5.913-2.631 5.913-5.877s-2.647-5.878-5.913-5.878c-3.266 0-5.913 2.632-5.913 5.878s2.647 5.877 5.913 5.877z" fill="#47738A"/>
    <path d="M426.534 97.551c3.266 0 5.914-2.631 5.914-5.877s-2.648-5.878-5.914-5.878c-3.266 0-5.913 2.632-5.913 5.878s2.647 5.877 5.913 5.877z" fill="#82B5CF"/>
    <path d="M393.434 60.781a46.902 46.902 0 01-2.379 14.98 16.253 16.253 0 00-9.804 5.445 16.075 16.075 0 00-3.898 10.468c.005 1.476.199 2.945.577 4.372a48.465 48.465 0 01-29.711 12.673 48.527 48.527 0 01-31.099-8.787 48.027 48.027 0 01-18.562-26.312 47.748 47.748 0 012.288-32.055 48.143 48.143 0 0122.112-23.444 48.578 48.578 0 0132.036-4.335 48.363 48.363 0 0127.614 16.715 47.843 47.843 0 0110.826 30.28z" fill="#FFE75C"/>
    <path d="M377.353 91.674c.005 1.476.199 2.945.577 4.372A48.347 48.347 0 01353.94 108a48.524 48.524 0 01-26.705-2.636 60.014 60.014 0 01-2.813-16.342c-5.624 1.218-10.672 2.437-16.009 2.938-2.131.231-4.274.35-6.418.359l3.245-4.444 13.63-18.564h54.301l5.048 17.202a15.53 15.53 0 00-.866 5.16z" fill="#fff"/>
    <path d="M324.422 78.127s-1.802 6.666-3.677 11.683l3.677-.788c-.216-4.73 0-10.895 0-10.895z" fill="#000"/>
    <path d="M338.268 94.47c0 1.074.721 2.078 1.587 2.15.865.071 1.586-.86 1.442-2.008a1.931 1.931 0 00-.56-1.164 1.951 1.951 0 00-1.171-.556 1.444 1.444 0 00-1.245 1.017 1.416 1.416 0 00-.053.56zM366.392 96.404c-.505-2.508-1.01-4.802-1.514-7.167a1.15 1.15 0 00-1.082-.932c-4.327-.072-10.312-.932-12.692-6.81a.711.711 0 00-.377-.41.728.728 0 00-.56-.02.712.712 0 00-.361.932c2.957 7.311 10.817 7.67 13.702 7.742.504 2.293.937 4.515 1.442 6.952.505 2.437.937 4.731 1.442 7.168l1.37-.645c-.505-2.366-.937-4.588-1.37-6.81z" fill="#8CD9FF"/>
    <path d="M305.24 87.875l-3.245 4.444c2.145.027 4.29-.092 6.418-.359 2.38-.215 4.616-.573 6.923-1.003a68.327 68.327 0 01-4.11-11.181l-5.986 8.099z" fill="#0EC2BC"/>
    <path d="M375.478 13.403l-29.783-7.669-12.98 33.544 37.643 9.677 5.12-35.552z" fill="#fff"/>
    <path d="M375.565 13.258c1.215-4.88-4.507-10.485-12.78-12.52-8.273-2.036-15.965.27-17.18 5.151-1.215 4.88 4.506 10.486 12.78 12.521 8.273 2.035 15.965-.271 17.18-5.152z" fill="#fff"/>
    <path d="M349.517 6.738l-10.24 28.383-1.442-.43 10.24-28.312 1.803-5.017 1.803-.717-2.164 6.093zM373.963 7.383l-.865 5.447-4.976 29.746-1.514-.43 5.048-29.674 1.082-6.523c.446.444.856.924 1.225 1.434zM347.859 37.343l-1.442-.43 8.653-28.742L357.522 0h1.514l-2.524 8.53-8.653 28.813zM367.906 2.58l-1.875 8.386-6.49 29.388-1.442-.359 6.562-29.387 1.875-8.601 1.37.573z" fill="#8CD9FF"/>
    <path d="M338.628 27.667c-3.101-.717-6.778.502-8.797 9.82h15.288c-.938-5.52-3.029-9.103-6.491-9.82z" fill="#2AE5C4"/>
    <path d="M337.258 31.18c-2.38-.36-3.966 1.433-4.543 4.658h7.572c.144-2.365-.938-4.444-3.029-4.659z" fill="#000"/>
    <path d="M337.691 33.76c-3.534-.359-5.913 2.006-6.634 5.519h9.663c.937-2.58.144-5.233-3.029-5.52zM360.046 26.879c-3.534-.43-7.356 2.58-8.221 9.246l16.081 1.935c-.721-7.526-3.678-10.68-7.86-11.181z" fill="#2AE5C4"/>
    <path d="M358.964 31.108c-2.379-.359-3.894 1.576-4.471 5.017h7.572c.072-2.509-1.009-4.73-3.101-5.017z" fill="#000"/>
    <path d="M358.459 33.616c-3.605-.358-5.697 2.007-5.913 5.806l10.529-.143c.216-2.724-1.371-5.376-4.616-5.663z" fill="#2AE5C4"/>
    <path d="M344.974 34.548c-13.341.502-20.841 2.724-26.105 8.028a16.679 16.679 0 00-4.205 7.715 16.603 16.603 0 00.311 8.77c3.389 11.325 12.836 23.295 31.658 24.155 18.821.86 32.595-10.536 35.984-22.291 3.389-11.755-6.13-27.524-37.643-26.377z" fill="#2AE5C4"/>
    <path d="M343.604 44.583l-15.793-.574c-6.562 13.762-5.624 24.227-1.009 32.541 4.976 3.727 11.466 6.308 19.831 6.666a39.436 39.436 0 0017.956-3.369c3.894-20.284 1.082-30.82-1.298-35.408l-19.687.144z" fill="#ADFDDC"/>
    <path d="M361.56 44.367c-15.144-2.15-19.687-2.221-33.749-.358-2.019 10.68 4.904 17.274 12.692 17.99 9.663.86 17.596-6.88 21.057-17.632z" fill="#9E0960"/>
    <path d="M330.263 42.862a7.124 7.124 0 01-2.507 2.238 7.176 7.176 0 01-3.262.844c-2.235-.143-2.884-1.863-1.442-3.799 1.442-1.935 4.038-2.938 5.913-2.652 1.875.287 2.38 1.72 1.298 3.37zM360.19 43.722c1.154 2.437 4.327 4.086 6.779 3.513 2.452-.574 2.812-2.58 1.586-4.588a6.9 6.9 0 00-2.471-2.342 6.955 6.955 0 00-3.298-.883c-2.307.143-3.605 2.007-2.596 4.3z" fill="#5865F2"/>
    <path d="M358.892 50.603a8.484 8.484 0 00-2.766-2.772 8.544 8.544 0 00-3.724-1.242c-5.048-.501-9.735 3.37-10.312 8.602a9 9 0 001.875 6.738c6.201-.79 11.393-5.09 14.927-11.326z" fill="#000"/>
    <path d="M328.893 79.919a13.992 13.992 0 003.754 10.575 14.122 14.122 0 004.703 3.309 14.207 14.207 0 0011.283 0 14.122 14.122 0 004.703-3.309 13.992 13.992 0 003.754-10.576h-28.197z" fill="#0C1AAD"/>
    <path d="M317.067 57.986c-2.092-2.724-3.822-4.587-5.986-6.02a11.517 11.517 0 00-6.778-1.936h-2.236a.575.575 0 00-.396.83.572.572 0 00.252.245c5.264 1.434 7.86 3.01 11.322 7.24 3.461 4.228 11.321 15.051 17.451 24.226l5.697.573c-6.779-9.461-14.928-19.496-19.326-25.158z" fill="#0C1AAD"/>
    <path d="M295.649 88.448a6.743 6.743 0 001.587 2.16 6.787 6.787 0 002.307 1.375 6.82 6.82 0 005.264-.31c6.13-3.01 13.341-6.808 16.586-8.457 4.904-2.509 5.697-4.73 5.409-8.458 5.192-2.222 6.202-5.232 4.471-8.243-1.731-3.01-2.74-5.017-5.264-5.017 0-4.014-1.731-5.376-7.068-3.584-2.523.86-4.038 1.29-4.975 2.222-.938.932-1.154 3.226-1.298 9.175-.072 2.723-.289 3.44-2.452 4.587l-11.394 5.59a6.824 6.824 0 00-3.418 3.84 6.772 6.772 0 00.245 5.12z" fill="#2AE5C4"/>
    <path d="M377.353 91.674a16.75 16.75 0 00.577 4.3 50.363 50.363 0 01-4.832 3.942l-5.913-21.359c5.408-13.26 12.331-15.339 18.245-6.737.937 1.433 1.874 3.01 2.812 4.659a16.22 16.22 0 00-7.88 5.873 16.064 16.064 0 00-3.009 9.322z" fill="#fff"/>
    <path d="M345.191 54.115c-4.038-2.867-6.995-2.508-9.231 1.649a12.586 12.586 0 00-1.153 2.795 12.8 12.8 0 007.571 3.154c.959.108 1.927.108 2.885 0a18.408 18.408 0 0010.168-6.236c-1.442-2.652-5.264-5.304-10.24-1.361z" fill="#FF78B9"/>
    <path d="M339.061 72.465c-7.283-2.437-5.409-12.544-3.101-16.701a7.751 7.751 0 011.731-2.365l5.913 2.508 7.86-1.72a33.203 33.203 0 01-.288 3.727c-1.01 11.827-4.832 16.987-12.115 14.55z" fill="#FF78B9"/>
    <path d="M345.19 54.115l-.504-.501c-.217-.144-.649-.359-.794-.287-2.235 2.294-3.749 6.308-4.975 13.188a.794.794 0 00.649.788h.072a.794.794 0 00.721-.644c1.226-6.81 2.668-10.608 4.831-12.615v.072z" fill="#000"/>
    <path d="M330.696 82.643l5.697.573c-2.884-3.942-5.913-8.028-8.87-11.827l-1.37.86c.369.79.589 1.64.649 2.51v2.078c1.298 1.935 2.668 3.87 3.894 5.806z" fill="#0C1AAD"/>
    <path d="M377.786 95.4l-5.481-10.034a.646.646 0 01.066-.77.651.651 0 01.223-.162.719.719 0 01.825.062.704.704 0 01.184.225c.866 1.72 2.308 4.3 3.75 6.953a15.968 15.968 0 00.433 3.727z" fill="#000"/>
    <path d="M358.748 94.47c0 1.074.721 2.078 1.586 2.15.866.071 1.587-.86 1.442-2.008a1.93 1.93 0 00-.559-1.164 1.951 1.951 0 00-1.171-.556 1.454 1.454 0 00-.98.52 1.433 1.433 0 00-.318 1.057zM340.648 105.436c-.721 0-1.298.645-1.298 1.648.024.517.199 1.015.504 1.434l2.236.143c.293-.444.396-.985.288-1.505a1.93 1.93 0 00-.559-1.164 1.947 1.947 0 00-1.171-.556zM361.848 104.504a1.516 1.516 0 00-1.312 1.061c-.058.19-.078.39-.058.587 0 .072.072.072.072.144l2.596-.932a1.724 1.724 0 00-1.298-.86z" fill="#8CD9FF"/>
    <path d="M325.936 59.993a20.06 20.06 0 00-6.273 1.792.79.79 0 00-.361 1.003.933.933 0 00.721.43h.289a17.378 17.378 0 015.696-1.792 9.039 9.039 0 00-.072-1.433zM330.768 65.584l-.793-1.362a17.9 17.9 0 00-6.635 1.792.717.717 0 00-.36.931.717.717 0 00.649.43h.288a17.248 17.248 0 016.851-1.72v-.071z" fill="#000"/>
    <path d="M345.159 36.067c1.671-.084 3.015-.345 3.003-.582-.012-.237-1.376-.361-3.047-.277-1.67.084-3.015.345-3.003.582.012.237 1.377.361 3.047.277z" fill="#2FFFDA"/>
    <path d="M339.156 54.835c.409-.536.509-1.145.224-1.36-.286-.216-.849.044-1.258.58-.41.536-.51 1.145-.224 1.36.285.216.848-.044 1.258-.58z" fill="#FFABD3"/>
    <path d="M306.898 50.962c-.504 0-.793.071-.721.215.072.143.289.215 1.37.645a10.456 10.456 0 013.678 2.365c.793.717.793.645 1.587.645.793 0 .577-.215.432-.358a14.698 14.698 0 00-4.182-3.082 6.526 6.526 0 00-2.164-.43z" fill="#5865F2"/>
    <path d="M342.955 81.28c7.766 0 14.062-.609 14.062-1.361s-6.296-1.362-14.062-1.362c-7.766 0-14.062.61-14.062 1.362 0 .752 6.296 1.362 14.062 1.362z" fill="#0C1AAD"/>
    <path d="M330.551 80.206c-.432.573 5.12 1.075 12.404 1.075 7.283 0 12.908-.502 12.475-1.075-.432-.574-5.985-1.004-12.475-1.004-6.49 0-12.043.43-12.404 1.004z" fill="#000"/>
    <path d="M351.825 82.356c-2.163.215-4.182.358-5.48.358a.576.576 0 00-.505.574c-.433 4.802-.866 8.816-2.885 10.68 6.13 0 8.87-5.735 9.303-11.182a.43.43 0 00-.433-.43z" fill="#5865F2"/>
  </g>
  <path d="M130.296 151.987c-3.212-2.21-5.347-5.756-5.854-9.73l-1.107-6.597c0-.363-.285-.66-.633-.66-.317 0-.475.33-.633.66l-.949 6.597c-.507 3.974-2.642 7.52-5.854 9.73l-.95.495a.803.803 0 00-.316.66l.316.494.95.66c3.196 2.144 5.347 5.641 5.854 9.566l.949 6.762c.158.329.316.494.633.494.316 0 .633-.165.633-.494l1.107-6.762c.507-3.925 2.658-7.422 5.854-9.566l.791-.66c.317-.164.317-.329.317-.494 0-.33 0-.495-.317-.66l-.791-.495z" fill="#FFE75C"/>
  <path d="M414.081 128.678c-2.721-1.896-4.556-4.881-5.063-8.246l-.949-5.937a.476.476 0 00-.475-.495c-.316 0-.474.33-.632.495l-.792 5.937c-.506 3.365-2.341 6.35-5.062 8.246l-.792.495c-.158.165-.316.33-.316.495 0 .33.158.495.316.495l.792.494c2.721 1.963 4.556 4.998 5.062 8.412l.792 5.772c.158.33.316.495.632.495a.477.477 0 00.475-.495l.949-5.772c.507-3.414 2.342-6.449 5.063-8.412l.791-.494c.159 0 .317-.165.317-.495 0-.165-.158-.33-.317-.495l-.791-.495z" fill="#8CD9FF"/>
  <defs>
    <linearGradient id="paint0_linear" x1="288.991" y1="154.454" x2="251.299" y2="119.201" gradientUnits="userSpaceOnUse">
      <stop offset=".04" stop-color="#2AE5C4"/>
      <stop offset=".27" stop-color="#25DFC3"/>
      <stop offset=".56" stop-color="#19CFBF"/>
      <stop offset=".73" stop-color="#0EC2BC"/>
    </linearGradient>
    <linearGradient id="paint1_linear" x1="207.224" y1="53.264" x2="222.495" y2="119.883" gradientUnits="userSpaceOnUse">
      <stop stop-color="#2AE5C4"/>
      <stop offset=".9" stop-color="#0EC2BC"/>
    </linearGradient>
    <linearGradient id="paint2_linear" x1="42.096" y1="107.609" x2="5.145" y2="95.647" gradientUnits="userSpaceOnUse">
      <stop offset=".12" stop-color="#2AE5C4"/>
      <stop offset=".23" stop-color="#25DFC3"/>
      <stop offset=".69" stop-color="#14CABE"/>
      <stop offset="1" stop-color="#0EC2BC"/>
    </linearGradient>
    <clipPath id="clip0">
      <path fill="#fff" transform="translate(143 31)" d="M0 0h151v127H0z"/>
    </clipPath>
    <clipPath id="clip1">
      <path fill="#fff" transform="translate(0 1)" d="M0 0h140v137H0z"/>
    </clipPath>
    <clipPath id="clip2">
      <path fill="#fff" transform="translate(295)" d="M0 0h143v108.804H0z"/>
    </clipPath>
  </defs>
</svg>
