<svg width="88" height="72" viewBox="0 0 88 72" fill="none" xmlns="http://www.w3.org/2000/svg">
<rect x="16" y="8" width="56" height="56" rx="8" fill="#18191C"/>
<path d="M40 50C40 44.4772 44.4772 40 50 40H60V52H40V50Z" fill="#18191C"/>
<path d="M58.3167 46V47.7084H61.2282L56.693 52.4799L53.4454 49.0631L48 54.793L49.148 56L53.4454 51.4788L56.693 54.8955L62.3762 48.9162V51.9793H64V46H58.3167Z" fill="#ED4245"/>
<path d="M83.0026 1.0838C83.0026 0.485233 82.5173 0 81.9188 0C81.3202 0 80.835 0.485233 80.835 1.0838V2.18566C80.835 2.78422 81.3202 3.26946 81.9188 3.26946C82.5173 3.26946 83.0026 2.78422 83.0026 2.18566V1.0838Z" fill="#58F287"/>
<path d="M83.0025 9.81423C83.0025 9.21567 82.5173 8.73043 81.9187 8.73043C81.3202 8.73043 80.8349 9.21567 80.8349 9.81423V10.9161C80.8349 11.5147 81.3202 11.9999 81.9187 11.9999C82.5173 11.9999 83.0025 11.5147 83.0025 10.9161V9.81423Z" fill="#58F287"/>
<path d="M86.9162 7.1053C87.5148 7.1053 88 6.62007 88 6.0215C88 5.42294 87.5148 4.93771 86.9162 4.93771H85.8144C85.2158 4.93771 84.7306 5.42294 84.7306 6.0215C84.7306 6.62007 85.2158 7.1053 85.8144 7.1053H86.9162Z" fill="#58F287"/>
<path d="M78.1856 7.04524C78.7842 7.04524 79.2694 6.56001 79.2694 5.96144C79.2694 5.36288 78.7842 4.87765 78.1856 4.87765H77.0838C76.4852 4.87765 76 5.36288 76 5.96144C76 6.56001 76.4852 7.04524 77.0838 7.04524H78.1856Z" fill="#58F287"/>
<path d="M8.36261 66.843L11.486 65.8013C11.6394 65.731 11.7694 65.6181 11.8605 65.4761C11.9516 65.334 12 65.1688 12 65C12 64.8312 11.9516 64.666 11.8605 64.5239C11.7694 64.3819 11.6394 64.269 11.486 64.1987L8.36261 63.157C8.14925 63.0606 7.97838 62.8897 7.88207 62.6762L6.76084 59.5511C6.70818 59.3908 6.60626 59.2512 6.46964 59.1522C6.33302 59.0533 6.16866 59 5.99999 59C5.83133 59 5.66698 59.0533 5.53036 59.1522C5.39374 59.2512 5.29182 59.3908 5.23916 59.5511L4.11793 62.6762C4.02162 62.8897 3.85075 63.0606 3.63739 63.157L0.513957 64.1987C0.360602 64.269 0.230643 64.3819 0.139534 64.5239C0.0484247 64.666 0 64.8312 0 65C0 65.1688 0.0484247 65.334 0.139534 65.4761C0.230643 65.6181 0.360602 65.731 0.513957 65.8013L3.63739 66.843C3.75083 66.8774 3.85403 66.9393 3.93785 67.0232C4.02167 67.107 4.08352 67.2103 4.11793 67.3238L5.23916 70.4489C5.29182 70.6092 5.39374 70.7488 5.53036 70.8478C5.66698 70.9467 5.83133 71 5.99999 71C6.16866 71 6.33302 70.9467 6.46964 70.8478C6.60626 70.7488 6.70818 70.6092 6.76084 70.4489L7.88207 67.3238C7.91648 67.2103 7.97834 67.107 8.06215 67.0232C8.14597 66.9393 8.24917 66.8774 8.36261 66.843Z" fill="#FFD01A"/>
<path fill-rule="evenodd" clip-rule="evenodd" d="M52 36V42.6667C52 44.876 53.792 46.6667 56 46.6667V48H32V46.6667C34.208 46.6667 36 44.876 36 42.6667V36C36 31.5813 39.5813 28 44 28C48.4187 28 52 31.5813 52 36ZM43.9999 52C42.0319 52 40.3306 50.92 39.4066 49.3333H48.5932C47.6692 50.92 45.9679 52 43.9999 52Z" fill="#B9BBBE"/>
</svg>
