<svg width="717" height="224" viewBox="0 0 717 224" fill="none" xmlns="http://www.w3.org/2000/svg">
<g clip-path="url(#clip0)">
<path d="M45.9488 486.845C129.627 453.731 257.797 468.395 338.21 515.05C423.49 481.021 525.41 484.702 588.413 504.13C625.853 454.938 682.866 423.342 742 412.61V137.259C558.71 234.499 412.902 313.518 412.902 313.518C457.227 274.123 543.152 208.728 634.506 144.04H519.44C540.781 131.435 578.117 128.898 596.171 136.531C605.095 130.978 615.098 127.388 625.516 126C635.935 124.612 646.529 125.458 656.595 128.482C685.195 108.451 714.003 88.712 742 70.0336V-39H460.638C374.506 17.3264 277.931 81.64 180.608 147.181C185.587 148.309 190.408 150.049 194.96 152.36H172.912C101.61 200.366 30.0368 248.872 -38 295.194V428.002C-3.16 433.701 27.4784 451.88 45.9488 486.845ZM570.754 110.76H494.48C531.92 83.72 570.754 110.76 570.754 110.76Z" fill="url(#paint0_linear)"/>
<path d="M56.4736 -39C26.8544 -16.8827 -4.6368 6.8848 -38 32.3024V95.6384L129.107 -39H56.4736Z" fill="url(#paint1_linear)"/>
<path d="M74.32 152.36C91.1888 136.51 119.664 136.802 137.989 147.347C147.91 143.582 165.632 143.541 180.608 147.181C277.931 81.64 374.506 17.3264 460.638 -39H129.107L-38 95.6384V295.194C30.0368 248.872 101.61 200.366 172.912 152.36H74.32Z" fill="url(#paint2_linear)"/>
<path d="M74.32 152.36C91.1888 136.51 119.664 136.802 137.989 147.347C147.91 143.582 165.632 143.541 180.608 147.181C277.931 81.64 374.506 17.3264 460.638 -39H129.107L-38 95.6384V295.194C30.0368 248.872 101.61 200.366 172.912 152.36H74.32Z" fill="url(#paint3_linear)"/>
<path d="M681.93 144.04H634.506C543.152 208.728 457.227 274.123 412.902 313.518C412.902 313.518 558.71 234.478 742 137.259V70.0336C714.003 88.7536 685.195 108.451 656.595 128.482C666.228 131.425 674.948 136.78 681.93 144.04V144.04Z" fill="url(#paint4_linear)"/>
<path d="M681.93 144.04H634.506C543.152 208.728 457.227 274.123 412.902 313.518C412.902 313.518 558.71 234.478 742 137.259V70.0336C714.003 88.7536 685.195 108.451 656.595 128.482C666.228 131.425 674.948 136.78 681.93 144.04V144.04Z" fill="url(#paint5_linear)"/>
<path d="M656.595 128.482C646.529 125.458 635.935 124.612 625.516 126C615.098 127.388 605.095 130.978 596.171 136.531C578.117 128.898 540.781 131.435 519.44 144.04H681.93C674.948 136.78 666.227 131.425 656.595 128.482V128.482Z" fill="#7466FF"/>
<path d="M137.989 147.347C119.664 136.802 91.1886 136.511 74.3198 152.36H194.96C190.408 150.049 185.587 148.309 180.608 147.181C165.632 143.541 147.91 143.583 137.989 147.347Z" fill="#7466FF"/>
<path d="M-38 -39V32.3024C-4.72 6.95413 26.7712 -16.8133 56.4736 -39H-38Z" fill="url(#paint6_linear)"/>
<path d="M-38 -39V32.3024C-4.72 6.95413 26.7712 -16.8133 56.4736 -39H-38Z" fill="url(#paint7_linear)"/>
<path d="M494.48 110.76H570.754C570.754 110.76 531.92 83.72 494.48 110.76Z" fill="#7466FF"/>
</g>
<defs>
<linearGradient id="paint0_linear" x1="352" y1="2.5168" x2="352" y2="677.997" gradientUnits="userSpaceOnUse">
<stop stop-color="#4E1BF5"/>
<stop offset="0.58" stop-color="#5E4EEE"/>
<stop offset="0.92" stop-color="#6668EB"/>
</linearGradient>
<linearGradient id="paint1_linear" x1="6674.7" y1="37934.4" x2="6674.7" y2="-5789.41" gradientUnits="userSpaceOnUse">
<stop stop-color="#4E1BF5"/>
<stop offset="0.58" stop-color="#5E4EEE"/>
<stop offset="0.92" stop-color="#6668EB"/>
</linearGradient>
<linearGradient id="paint2_linear" x1="59728.8" y1="94217" x2="59728.8" y2="-14312.4" gradientUnits="userSpaceOnUse">
<stop stop-color="#4E1BF5"/>
<stop offset="0.58" stop-color="#5E4EEE"/>
<stop offset="0.92" stop-color="#6668EB"/>
</linearGradient>
<linearGradient id="paint3_linear" x1="266.533" y1="-17.3056" x2="-422.051" y2="509.829" gradientUnits="userSpaceOnUse">
<stop stop-color="#5625F7"/>
<stop offset="0.3" stop-color="#5930F9"/>
<stop offset="0.81" stop-color="#624DFD"/>
<stop offset="1" stop-color="#6659FF"/>
</linearGradient>
<linearGradient id="paint4_linear" x1="97789.6" y1="68742.5" x2="97789.6" y2="-10329.2" gradientUnits="userSpaceOnUse">
<stop stop-color="#4E1BF5"/>
<stop offset="0.58" stop-color="#5E4EEE"/>
<stop offset="0.92" stop-color="#6668EB"/>
</linearGradient>
<linearGradient id="paint5_linear" x1="937.354" y1="-20.0096" x2="450.779" y2="287.997" gradientUnits="userSpaceOnUse">
<stop stop-color="#5323F5"/>
<stop offset="1" stop-color="#5946F5"/>
</linearGradient>
<linearGradient id="paint6_linear" x1="2107.5" y1="20071.1" x2="2107.5" y2="-3084.33" gradientUnits="userSpaceOnUse">
<stop stop-color="#4E1BF5"/>
<stop offset="0.58" stop-color="#5E4EEE"/>
<stop offset="0.92" stop-color="#6668EB"/>
</linearGradient>
<linearGradient id="paint7_linear" x1="68816.7" y1="-56155.9" x2="32116.9" y2="-26224.9" gradientUnits="userSpaceOnUse">
<stop stop-color="#5323F5"/>
<stop offset="1" stop-color="#5330F5"/>
</linearGradient>
<clipPath id="clip0">
<rect width="717" height="224" rx="8" fill="white"/>
</clipPath>
</defs>
</svg>
