<svg width="142" height="129" viewBox="0 0 142 129" fill="none" xmlns="http://www.w3.org/2000/svg">
<g clip-path="url(#clip0_300_172527)">
<path d="M0.5 105.78L27.8668 122.74H114.127L140.859 105.78L135.732 80.8198L118.427 90.0998L55.7784 90.0038L35.75 80.8198L0.5 105.78Z" fill="#FFE65C"/>
<path d="M55.5926 89.9207L54.08 89.2295L26.4633 121.869L27.8348 122.721L55.5926 89.9207Z" fill="#FFC518"/>
<path d="M120.1 89.2041L118.427 90.1001H118.37L114.236 122.676L115.992 121.562L120.1 89.2041Z" fill="#FFC518"/>
<path d="M87.7405 117.012C87.7425 116.437 87.7082 115.862 87.638 115.291C87.6077 115.082 87.4971 114.892 87.3296 114.763C87.1621 114.634 86.9509 114.576 86.7407 114.599C86.636 114.612 86.5348 114.645 86.4431 114.697C86.3514 114.749 86.271 114.819 86.2066 114.903C86.1422 114.986 86.095 115.081 86.0679 115.183C86.0407 115.285 86.0342 115.391 86.0485 115.495C86.1081 115.999 86.1381 116.505 86.1383 117.012C86.105 118.873 85.7895 120.718 85.2025 122.484C85.1867 122.569 85.1867 122.656 85.2025 122.74H86.8176C87.403 120.886 87.7139 118.956 87.7405 117.012V117.012Z" fill="#FFC518"/>
<path d="M35.1796 118.311C35.8205 118.311 36.4229 118.356 37.0574 118.356C38.9653 118.356 40.8709 118.228 42.7615 117.972C42.9723 117.944 43.1633 117.834 43.2925 117.665C43.4217 117.496 43.4785 117.283 43.4505 117.073C43.4225 116.862 43.3118 116.672 43.143 116.543C42.9741 116.414 42.7608 116.357 42.55 116.385C40.1315 116.713 37.6883 116.822 35.2501 116.711C35.0376 116.702 34.8301 116.777 34.6733 116.921C34.5164 117.064 34.423 117.264 34.4137 117.476C34.4043 117.688 34.4798 117.895 34.6234 118.052C34.767 118.209 34.9671 118.302 35.1796 118.311V118.311Z" fill="#FFC518"/>
<path d="M21.3808 111.649C21.2895 111.7 21.2094 111.77 21.1453 111.853C21.0812 111.936 21.0343 112.031 21.0074 112.132C20.9806 112.233 20.9743 112.339 20.9889 112.443C21.0034 112.547 21.0387 112.647 21.0924 112.737C22.1756 114.612 24.4444 116.122 27.6361 117.101C27.7137 117.121 27.7932 117.132 27.8732 117.133C28.0447 117.133 28.2117 117.079 28.3499 116.977C28.4882 116.876 28.5906 116.733 28.6423 116.57C28.7043 116.367 28.6831 116.148 28.5833 115.961C28.4836 115.774 28.3135 115.634 28.1104 115.572C25.3032 114.708 23.3612 113.453 22.4768 111.937C22.4238 111.846 22.3534 111.766 22.2696 111.703C22.1858 111.639 22.0903 111.593 21.9886 111.566C21.8868 111.539 21.7807 111.533 21.6765 111.547C21.5722 111.561 21.4717 111.596 21.3808 111.649V111.649Z" fill="#FFC518"/>
<path d="M55.945 111.367C54.0439 112.831 51.9098 113.964 49.6321 114.721C49.453 114.783 49.302 114.907 49.2058 115.07C49.1097 115.234 49.0746 115.426 49.1069 115.612C49.1392 115.799 49.2368 115.968 49.3822 116.09C49.5277 116.211 49.7116 116.277 49.9012 116.276C49.9905 116.274 50.079 116.259 50.164 116.231C52.6124 115.412 54.9064 114.19 56.9512 112.615C57.0354 112.549 57.1057 112.467 57.1582 112.374C57.2107 112.281 57.2443 112.179 57.2571 112.073C57.2699 111.966 57.2616 111.859 57.2328 111.756C57.204 111.653 57.1551 111.557 57.089 111.473C57.023 111.389 56.941 111.319 56.8477 111.266C56.7545 111.214 56.6518 111.18 56.5456 111.167C56.4393 111.155 56.3316 111.163 56.2286 111.192C56.1255 111.221 56.0292 111.269 55.945 111.335V111.367Z" fill="#FFC518"/>
<path d="M76.8963 105.121C76.7904 105.09 76.6792 105.082 76.5697 105.096C76.4603 105.11 76.355 105.147 76.2604 105.204C76.1658 105.26 76.084 105.336 76.0201 105.426C75.9562 105.516 75.9115 105.618 75.889 105.726C75.8664 105.834 75.8664 105.945 75.8889 106.053C75.9114 106.161 75.9561 106.263 76.02 106.353C76.0838 106.442 76.1656 106.518 76.2602 106.575C76.3548 106.632 76.4601 106.668 76.5695 106.683C78.8957 107.102 81.0781 108.102 82.9145 109.588C83.0586 109.713 83.243 109.781 83.4336 109.78C83.5978 109.781 83.7583 109.732 83.8935 109.639C84.0286 109.546 84.1318 109.413 84.1892 109.26C84.2465 109.106 84.2552 108.939 84.2141 108.78C84.1729 108.621 84.0839 108.479 83.9592 108.372C81.916 106.713 79.4869 105.595 76.8963 105.121Z" fill="#FFC518"/>
<path d="M61.7709 106.529C61.6034 106.604 61.4668 106.734 61.3841 106.898C61.3014 107.062 61.2776 107.249 61.3167 107.428C61.3557 107.608 61.4553 107.768 61.5986 107.883C61.742 107.997 61.9205 108.059 62.1042 108.058C62.217 108.06 62.3288 108.036 62.431 107.988C64.6423 107.054 66.9909 106.486 69.3849 106.305C69.5941 106.283 69.7863 106.18 69.9201 106.018C70.0539 105.856 70.1186 105.648 70.1001 105.439C70.0815 105.229 69.9814 105.036 69.8212 104.9C69.661 104.764 69.4537 104.696 69.2439 104.711C66.6711 104.911 64.1475 105.525 61.7709 106.529V106.529Z" fill="#FFC518"/>
<path d="M22.4191 106.1C22.5485 106.185 22.7001 106.229 22.8549 106.228C22.9832 106.223 23.1084 106.187 23.2199 106.124C23.3314 106.06 23.4261 105.971 23.4958 105.863C25.348 103.009 26.2517 100.743 26.2517 98.8999C26.2517 98.7719 26.2517 98.6503 26.2517 98.5223C26.2364 98.3101 26.1373 98.1127 25.9763 97.9735C25.8152 97.8343 25.6054 97.7646 25.3929 97.7799C25.1804 97.7952 24.9827 97.8941 24.8433 98.0549C24.7039 98.2158 24.6341 98.4253 24.6494 98.6375C24.6494 98.7271 24.6494 98.8103 24.6494 98.8999C24.6494 100.391 23.8098 102.439 22.1499 104.993C22.0388 105.175 22.0047 105.394 22.0551 105.602C22.1056 105.809 22.2365 105.989 22.4191 106.1Z" fill="#FFC518"/>
<path d="M19.7273 95.9242C19.9398 95.9242 20.1435 95.8399 20.2938 95.6899C20.444 95.5399 20.5284 95.3364 20.5284 95.1242C20.5284 94.912 20.444 94.7086 20.2938 94.5585C20.1435 94.4085 19.9398 94.3242 19.7273 94.3242H19.6183C18.5203 94.3326 17.4241 94.4138 16.3369 94.5674L13.1964 96.7946C15.2943 96.2706 17.4436 95.9788 19.6055 95.9242H19.7273Z" fill="#FFC518"/>
<path d="M129.637 111.277C129.637 110.772 129.689 110.268 129.791 109.773L129.848 109.453C129.873 109.252 129.821 109.048 129.701 108.884C129.582 108.72 129.404 108.607 129.204 108.569C129.004 108.53 128.798 108.569 128.626 108.678C128.454 108.786 128.329 108.956 128.278 109.153L128.214 109.46C128.097 110.059 128.037 110.667 128.034 111.277C128.031 112.097 128.15 112.912 128.387 113.697L129.81 112.794C129.696 112.297 129.638 111.788 129.637 111.277V111.277Z" fill="#FFC518"/>
<path d="M93.0665 106.164C92.86 106.114 92.642 106.148 92.4605 106.258C92.279 106.369 92.1489 106.547 92.0987 106.753C92.0486 106.959 92.0825 107.177 92.1931 107.358C92.3037 107.539 92.4818 107.669 92.6884 107.719C94.5573 108.16 96.4723 108.375 98.3925 108.359C99.0334 108.359 99.6743 108.359 100.315 108.283C100.519 108.257 100.705 108.154 100.835 107.996C100.965 107.838 101.029 107.635 101.014 107.431C100.999 107.227 100.907 107.036 100.755 106.898C100.604 106.76 100.405 106.685 100.2 106.689C97.8092 106.885 95.4025 106.708 93.0665 106.164V106.164Z" fill="#FFC518"/>
<path d="M114.191 102.484C112.749 103.035 111.159 103.675 109.461 104.404C108.743 104.711 108.019 104.993 107.295 105.236C107.119 105.302 106.972 105.426 106.878 105.589C106.784 105.751 106.75 105.941 106.781 106.125C106.812 106.31 106.906 106.478 107.048 106.601C107.19 106.724 107.37 106.793 107.557 106.798C107.647 106.798 107.736 106.783 107.82 106.753C108.576 106.491 109.339 106.196 110.089 105.876C111.768 105.159 113.338 104.519 114.761 103.956C114.96 103.881 115.121 103.729 115.208 103.535C115.295 103.342 115.302 103.121 115.226 102.923C115.15 102.724 114.999 102.564 114.805 102.477C114.611 102.39 114.39 102.383 114.191 102.459V102.484Z" fill="#FFC518"/>
<path d="M88.5097 99.5145C88.7204 99.4831 88.9101 99.3693 89.0369 99.1983C89.1637 99.0273 89.2173 98.8129 89.1858 98.6024C89.1544 98.392 89.0405 98.2026 88.8692 98.076C88.6979 97.9493 88.4833 97.8958 88.2725 97.9272C84.5873 98.4712 84.1899 100.391 84.1899 101.191C84.2329 101.772 84.3903 102.338 84.6532 102.858C84.9161 103.377 85.2792 103.84 85.7217 104.218C85.7946 104.299 85.8832 104.365 85.9822 104.41C86.0812 104.456 86.1884 104.481 86.2973 104.483C86.4063 104.486 86.5146 104.467 86.6158 104.426C86.7169 104.386 86.8087 104.325 86.8855 104.248C86.9624 104.17 87.0226 104.078 87.0626 103.977C87.1027 103.876 87.1216 103.768 87.1182 103.659C87.1149 103.55 87.0893 103.443 87.0431 103.345C86.997 103.246 86.9312 103.158 86.8497 103.086C86.2655 102.603 85.8873 101.917 85.7922 101.166C85.7922 100.033 87.6637 99.6297 88.5097 99.5145Z" fill="#FFC518"/>
<path d="M121.42 100.244C121.212 100.288 121.03 100.413 120.914 100.591C120.798 100.769 120.758 100.986 120.802 101.194C120.846 101.402 120.971 101.584 121.15 101.7C121.328 101.816 121.545 101.856 121.754 101.812C124.997 101.127 127.028 101.364 127.951 102.561C128.015 102.645 128.094 102.715 128.185 102.768C128.276 102.821 128.377 102.855 128.481 102.868C128.585 102.882 128.691 102.875 128.793 102.847C128.895 102.82 128.99 102.772 129.073 102.708C129.241 102.579 129.351 102.388 129.378 102.178C129.406 101.968 129.349 101.756 129.22 101.588C127.874 99.8344 125.426 99.3992 121.42 100.244Z" fill="#FFC518"/>
<path d="M103.968 97.9591C103.906 97.7563 103.766 97.5864 103.579 97.4868C103.391 97.3872 103.172 97.366 102.969 97.4279C100.652 98.0538 98.2491 98.2959 95.8545 98.1447C95.7492 98.1405 95.6442 98.157 95.5454 98.1933C95.4466 98.2296 95.3559 98.285 95.2786 98.3563C95.2012 98.4277 95.1387 98.5135 95.0945 98.609C95.0504 98.7044 95.0255 98.8076 95.0213 98.9127C95.0171 99.0177 95.0336 99.1226 95.07 99.2212C95.1064 99.3199 95.1618 99.4105 95.2333 99.4877C95.3047 99.565 95.3906 99.6274 95.4862 99.6715C95.5818 99.7156 95.6852 99.7405 95.7904 99.7447C96.2582 99.7447 96.7069 99.7447 97.1427 99.7447C99.2668 99.7794 101.385 99.5056 103.43 98.9319C103.628 98.8696 103.794 98.7339 103.894 98.5529C103.994 98.3718 104.021 98.1592 103.968 97.9591V97.9591Z" fill="#FFC518"/>
<path d="M108.602 94.5354C108.718 94.5978 108.848 94.6308 108.98 94.6314C109.125 94.6319 109.268 94.5928 109.392 94.5183C109.516 94.4439 109.618 94.3369 109.685 94.209C110.36 92.9329 110.753 91.5277 110.839 90.0874H109.224C109.147 91.2614 108.824 92.4061 108.275 93.4474C108.175 93.6351 108.153 93.8548 108.214 94.0586C108.276 94.2624 108.415 94.4338 108.602 94.5354V94.5354Z" fill="#FFC518"/>
<path d="M58.2202 98.7977C58.1288 98.6073 57.9655 98.4607 57.7662 98.39C57.5669 98.3192 57.3477 98.3301 57.1563 98.4201C55.5541 99.1434 53.4263 98.8553 50.6703 97.5689C50.5748 97.5244 50.4714 97.4991 50.3661 97.4944C50.2608 97.4898 50.1556 97.5059 50.0565 97.5419C49.9574 97.5778 49.8664 97.6329 49.7886 97.704C49.7108 97.7751 49.6478 97.8608 49.6032 97.9561C49.5586 98.0515 49.5333 98.1548 49.5286 98.26C49.524 98.3651 49.5401 98.4702 49.5761 98.5691C49.6121 98.6681 49.6673 98.759 49.7385 98.8367C49.8096 98.9143 49.8955 98.9772 49.991 99.0218C51.6144 99.8597 53.4014 100.334 55.2272 100.411C56.1097 100.416 56.9834 100.235 57.7908 99.8794C57.8916 99.8383 57.983 99.7773 58.0596 99.7001C58.1361 99.6228 58.1963 99.531 58.2364 99.4299C58.2765 99.3289 58.2957 99.2208 58.293 99.1122C58.2902 99.0036 58.2655 98.8966 58.2202 98.7977V98.7977Z" fill="#FFC518"/>
<path d="M37.6215 90.5734C38.4667 91.1049 39.278 91.6884 40.0505 92.3206C41.2618 93.3062 42.4283 94.2406 43.5242 95.0214C43.6625 95.1205 43.8283 95.1742 43.9985 95.175C44.1678 95.1755 44.3328 95.1224 44.47 95.0234C44.6072 94.9244 44.7095 94.7846 44.7621 94.624C44.8148 94.4633 44.8152 94.2902 44.7632 94.1293C44.7112 93.9685 44.6095 93.8282 44.4728 93.7286C43.396 92.9414 42.2488 92.0518 41.0631 91.079C40.2466 90.4096 39.3905 89.7898 38.4995 89.223C38.3203 89.1141 38.1054 89.0798 37.9011 89.1274C37.6967 89.175 37.5193 89.3007 37.4068 89.4776C37.2943 89.6544 37.2558 89.8683 37.2995 90.0732C37.3433 90.2781 37.4658 90.4577 37.6407 90.5734H37.6215Z" fill="#FFC518"/>
<path d="M61.6555 91.4502C61.4568 91.9686 61.2582 92.487 61.0531 92.9926C61.0053 93.1142 60.9878 93.2456 61.0022 93.3754C61.0165 93.5052 61.0622 93.6296 61.1353 93.7379C61.2085 93.8462 61.3069 93.9352 61.422 93.9971C61.5372 94.059 61.6657 94.0921 61.7965 94.0934C61.9571 94.094 62.1141 94.046 62.2468 93.9557C62.3795 93.8655 62.4817 93.7372 62.54 93.5878C62.7515 93.0758 62.9502 92.551 63.1809 92.0198C63.4373 91.3798 63.6936 90.6758 63.9692 90.0166H62.2388C62.0273 90.4966 61.835 90.9766 61.6555 91.4502Z" fill="#FFC518"/>
<path d="M31.0457 87.6617C31.1166 87.6822 31.1899 87.6929 31.2636 87.6937C31.4595 87.6963 31.6495 87.6272 31.7978 87.4994C31.9461 87.3716 32.0423 87.194 32.0684 87.0001C32.0944 86.8063 32.0484 86.6096 31.9391 86.4473C31.8298 86.285 31.6647 86.1683 31.4751 86.1193C30.6227 85.8825 29.8088 85.7033 29.0525 85.5625L27.181 86.9001C28.4869 87.0548 29.7789 87.3094 31.0457 87.6617V87.6617Z" fill="#FFC518"/>
<path d="M132.175 92.7754H132.207C134.163 92.6427 136.092 92.2488 137.943 91.6042L137.622 90.0298C135.856 90.6565 134.013 91.044 132.143 91.1818C131.93 91.1818 131.726 91.2661 131.576 91.4161C131.426 91.5661 131.342 91.7696 131.342 91.9818C131.342 92.194 131.426 92.3974 131.576 92.5475C131.726 92.6975 131.93 92.7818 132.143 92.7818L132.175 92.7754Z" fill="#FFC518"/>
<path d="M126.118 85.9657C126.058 86.4176 126.025 86.8729 126.022 87.3289C126.022 87.6041 126.022 87.8729 126.054 88.1353C126.075 88.3333 126.168 88.5168 126.316 88.6503C126.464 88.7838 126.656 88.858 126.855 88.8585H126.932C127.037 88.8481 127.139 88.8171 127.232 88.7674C127.324 88.7177 127.406 88.6502 127.473 88.5688C127.54 88.4873 127.59 88.3936 127.62 88.2928C127.65 88.1921 127.661 88.0864 127.65 87.9817C127.65 87.7705 127.65 87.5529 127.65 87.3417C127.66 86.5622 127.75 85.7859 127.919 85.0249L126.118 85.9657Z" fill="#FFC518"/>
<path d="M80.4085 67.9434L75.0249 88.4554C74.9274 88.8271 74.7387 89.1686 74.4757 89.4491C74.2127 89.7296 73.8838 89.9402 73.5188 90.0618C70.8782 90.9322 64.8921 93.121 66.9302 94.3434C69.4939 95.8922 76.7746 93.6202 77.8257 91.7834C79.1075 89.4538 86.3241 67.6426 86.3241 67.6426L80.4085 67.9434Z" fill="url(#paint0_linear_300_172527)"/>
<path d="M78.9729 73.4215C79.3318 74.7399 81.8954 75.3799 83.9848 74.5735C85.1961 70.9767 86.1383 68.1287 86.2857 67.6743L80.3893 68.0071L78.9729 73.4215Z" fill="#D01582"/>
<path d="M94.7649 68.02L101.418 93.3832C101.538 93.8427 101.772 94.2649 102.098 94.6114C102.424 94.9578 102.831 95.2176 103.283 95.3672C106.545 96.4488 113.954 99.1496 111.429 100.66C108.224 102.58 99.2513 99.764 97.9695 97.46C96.3672 94.58 87.4714 67.6104 87.4714 67.6104L94.7649 68.02Z" fill="url(#paint1_linear_300_172527)"/>
<path d="M96.3288 73.9656L94.7649 68.02L87.4714 67.6104C87.4714 67.6104 88.4584 70.5992 89.8299 74.6888C91.5091 76.02 95.3546 74.74 96.3288 73.9656Z" fill="#D01582"/>
<path d="M36.9421 19.7002C36.9421 19.7002 44.9086 23.1114 51.5804 20.385C51.9654 20.2292 52.3918 20.2081 52.7902 20.3251C53.1887 20.4421 53.5358 20.6903 53.775 21.0293C54.0142 21.3684 54.1315 21.7783 54.1077 22.1923C54.084 22.6064 53.9206 23.0003 53.6442 23.3098C52.7538 24.258 51.6844 25.021 50.4976 25.5548C49.3108 26.0886 48.0299 26.3827 46.7288 26.4202L36.9421 19.7002Z" fill="#3343D8"/>
<path d="M33.5581 55.8602C33.5581 55.8602 9.15228 57.1402 6.9091 37.6202C4.64028 17.8698 27.7899 11.0602 39.9672 21.3002C46.2737 26.5994 57.855 24.8202 64.2577 22.2602C64.624 22.109 65.0283 22.0746 65.415 22.1616C65.8018 22.2487 66.1521 22.453 66.4181 22.7466C66.684 23.0402 66.8526 23.4088 66.9007 23.8017C66.9488 24.1947 66.874 24.5929 66.6867 24.9418C64.0333 29.8634 57.6435 36.0842 42.5308 32.8202C27.0336 29.473 39.9672 44.3402 47.0172 43.0602L33.5581 55.8602Z" fill="url(#paint2_linear_300_172527)"/>
<path d="M19.8106 35.4122C19.8106 35.4122 22.6114 30.9322 29.4242 33.4922C37.6471 36.6154 43.3576 35.1434 46.9595 32.993C47.2637 32.81 47.4985 32.5313 47.6269 32.2006C47.7552 31.87 47.7699 31.5061 47.6687 31.1662C47.5675 30.8263 47.356 30.5296 47.0675 30.3227C46.7791 30.1159 46.43 30.0106 46.0751 30.0234C43.1525 30.1194 39.3519 29.2618 35.1796 25.8122C31.1227 22.433 27.2195 22.497 24.3547 23.3418" fill="#5765F1"/>
<path d="M19.8106 36.2055C19.6688 36.2046 19.5298 36.1662 19.4078 36.0941C19.2857 36.0221 19.185 35.9189 19.1159 35.7953C19.0468 35.6716 19.0119 35.5319 19.0145 35.3903C19.0172 35.2488 19.0575 35.1105 19.1312 34.9895C19.7872 34.0476 20.6684 33.2842 21.6949 32.7687C23.2587 31.9623 25.9185 31.2967 29.7127 32.7687C37.8458 35.8599 43.3576 34.2407 46.5493 32.3335C46.7021 32.2418 46.8198 32.1019 46.8839 31.9359C46.9481 31.7698 46.955 31.5872 46.9035 31.4168C46.852 31.2465 46.7451 31.0981 46.5997 30.9952C46.4543 30.8923 46.2787 30.8408 46.1007 30.8487C42.204 30.9767 38.3521 29.4983 34.6797 26.4519C31.5713 23.8919 28.1745 23.0791 24.5918 24.1351C24.4908 24.1645 24.385 24.1738 24.2804 24.1624C24.1758 24.151 24.0745 24.1191 23.9823 24.0686C23.89 24.0181 23.8086 23.9499 23.7428 23.868C23.6769 23.786 23.6278 23.692 23.5984 23.5911C23.5689 23.4903 23.5596 23.3846 23.5711 23.2802C23.5825 23.1757 23.6144 23.0746 23.665 22.9825C23.7156 22.8903 23.7839 22.8091 23.8659 22.7433C23.9479 22.6775 24.0422 22.6285 24.1432 22.5991C28.2065 21.4087 32.2058 22.3111 35.6795 25.2231C39.0699 28.0199 42.5437 29.3447 46.043 29.2231H46.1327C46.6654 29.2146 47.1857 29.383 47.6121 29.7019C48.0384 30.0208 48.3466 30.4721 48.4882 30.9849C48.6297 31.4977 48.5967 32.0429 48.3943 32.5349C48.1918 33.027 47.8314 33.4379 47.3697 33.7031C43.8767 35.7895 37.8778 37.5431 29.1422 34.2535C23.0664 31.9495 20.5925 35.6935 20.49 35.8535C20.416 35.965 20.3148 36.0558 20.1959 36.1174C20.0771 36.179 19.9445 36.2093 19.8106 36.2055V36.2055Z" fill="#0A1BAC"/>
<path d="M37.6022 49.9464C37.4612 50.4392 37.4035 50.74 37.4035 50.74C26.5081 59.06 36.7626 73.78 36.7626 73.78C38.8585 71.2183 41.3958 69.0509 44.2548 67.38C45.9212 52.7176 41.3579 49.9272 37.6022 49.9464Z" fill="#FF78B8"/>
<path d="M120.722 0.81985C111.39 1.19105 107.904 9.77985 109.826 16.1798C111.832 22.8614 114.845 26.2406 115.447 29.703C116.05 33.1654 113.646 36.3718 110.217 36.5382C104.558 36.8262 96.0339 31.0982 88.0354 32.1798C76.1786 33.7798 79.7036 41.7798 60.4763 38.5798C42.9859 35.6998 38.5059 46.8294 37.6022 49.9462C41.358 49.9462 45.9341 52.7174 44.2549 67.3606C50.8434 63.5974 60.111 62.5158 73.2945 68.6406C92.5217 77.6006 110.467 62.2406 110.467 62.2406L115.915 45.9206C115.915 45.9206 139.757 38.5926 135.142 13.2806C133.86 6.25985 128.733 0.49985 120.722 0.81985Z" fill="url(#paint3_linear_300_172527)"/>
<path d="M127.496 47.8215C127.764 47.4868 127.92 47.0764 127.941 46.6485C127.962 46.2206 127.848 45.7968 127.615 45.4372C127.382 45.0776 127.041 44.8004 126.641 44.6448C126.242 44.4892 125.803 44.4632 125.388 44.5703C121.685 45.5245 117.826 45.7123 114.047 45.1224C110.269 44.5325 106.652 43.1772 103.417 41.1399C89.9581 32.8199 74.9865 43.2647 78.4217 55.8599C82.2672 69.9399 107.904 75.6999 116.235 60.3399C116.235 60.3399 123.285 58.4199 122.644 51.3799C124.546 50.6397 126.22 49.4124 127.496 47.8215Z" fill="#5765F1"/>
<path d="M53.7788 60.0198C55.7397 60.0198 57.3294 57.5126 57.3294 54.4198C57.3294 51.327 55.7397 48.8198 53.7788 48.8198C51.8178 48.8198 50.2281 51.327 50.2281 54.4198C50.2281 57.5126 51.8178 60.0198 53.7788 60.0198Z" fill="white"/>
<path d="M53.6955 52.9287C52.2342 52.9287 51.0485 54.7975 51.0485 57.1015C51.0463 57.4595 51.0742 57.817 51.1318 58.1703C51.7727 59.3031 52.7277 60.0199 53.7788 60.0199C54.2742 59.9865 54.7538 59.8318 55.1752 59.5695C55.5966 59.3072 55.9468 58.9454 56.195 58.5159C56.2968 58.0513 56.3484 57.5771 56.3488 57.1015C56.3488 54.7975 55.1632 52.9287 53.6955 52.9287Z" fill="black"/>
<path d="M41.249 46.2599C35.4808 44.9799 34.8399 53.2999 34.8399 53.2999C34.8399 53.2999 38.0445 48.1799 41.8899 53.4663C43.0243 55.0151 43.2999 57.0375 43.4601 58.9511C43.7531 62.0565 43.5366 65.1888 42.8192 68.2247V68.2247C43.4153 67.8279 44.037 67.4567 44.6779 67.1047C46.5557 60.3847 48.2157 47.8023 41.249 46.2599Z" fill="#D01582"/>
<path d="M122.651 51.3994C119.981 52.2568 117.178 52.6296 114.377 52.5002C114.272 52.4915 114.166 52.5037 114.066 52.536C113.966 52.5684 113.873 52.6204 113.793 52.6888C113.713 52.7573 113.648 52.841 113.601 52.9349C113.553 53.0289 113.525 53.1313 113.518 53.2362C113.502 53.4482 113.57 53.6578 113.708 53.8196C113.846 53.9814 114.043 54.0823 114.255 54.1002C114.332 54.1002 114.774 54.1002 115.473 54.1002C117.902 54.1027 120.318 53.7491 122.644 53.0506C122.696 52.5015 122.698 51.9489 122.651 51.3994V51.3994Z" fill="#0A1BAC"/>
<path d="M114.947 62.3431C115.419 61.7072 115.847 61.0401 116.229 60.3463C109.948 62.3239 103.103 60.9159 98.9821 59.6423C98.8815 59.6112 98.7758 59.6002 98.6709 59.6099C98.5661 59.6196 98.4642 59.6498 98.371 59.6988C98.2779 59.7479 98.1954 59.8147 98.1281 59.8956C98.0608 59.9765 98.0102 60.0698 97.979 60.1703C97.9479 60.2707 97.9369 60.3763 97.9466 60.481C97.9563 60.5857 97.9866 60.6874 98.0357 60.7804C98.0848 60.8734 98.1518 60.9559 98.2328 61.023C98.3138 61.0902 98.4072 61.1408 98.5078 61.1719C102.034 62.2889 105.705 62.8819 109.403 62.9319C111.267 62.9402 113.127 62.7427 114.947 62.3431V62.3431Z" fill="#0A1BAC"/>
<path d="M116.652 60.2056L116.299 60.3208L116.652 60.2056Z" fill="#0A1BAC"/>
<path d="M19.4389 78.8871C19.0255 78.6247 18.6739 78.2761 18.4084 77.8651C18.1429 77.4541 17.9697 76.9905 17.9007 76.5063L17.6443 74.8487C17.6439 74.8289 17.639 74.8094 17.6302 74.7917C17.6213 74.774 17.6086 74.7585 17.5931 74.7463C17.5798 74.7302 17.5632 74.7172 17.5444 74.7083C17.5255 74.6994 17.5049 74.6948 17.4841 74.6948C17.4633 74.6948 17.4427 74.6994 17.4239 74.7083C17.405 74.7172 17.3884 74.7302 17.3752 74.7463C17.3596 74.7585 17.3469 74.774 17.3381 74.7917C17.3292 74.8094 17.3243 74.8289 17.3239 74.8487L17.0675 76.5063C16.9954 76.9898 16.8206 77.4524 16.5548 77.8631C16.2889 78.2726 15.9395 78.6216 15.5293 78.8871L15.3114 79.0215C15.2891 79.038 15.2714 79.06 15.2602 79.0855C15.2544 79.1107 15.2544 79.137 15.2602 79.1623C15.2543 79.1897 15.2543 79.218 15.2602 79.2455C15.2718 79.2689 15.2895 79.2887 15.3114 79.3031L15.5293 79.4439C15.9409 79.7077 16.2906 80.0569 16.5548 80.4679C16.8195 80.8766 16.9943 81.3369 17.0675 81.8183L17.3239 83.4823C17.3256 83.5009 17.3311 83.5189 17.3399 83.5354C17.3487 83.5519 17.3607 83.5664 17.3752 83.5783C17.406 83.6032 17.4444 83.6168 17.4841 83.6168C17.5238 83.6168 17.5622 83.6032 17.5931 83.5783C17.6076 83.5664 17.6196 83.5519 17.6284 83.5354C17.6372 83.5189 17.6426 83.5009 17.6443 83.4823L17.9007 81.8183C17.9728 81.3356 18.1452 80.8735 18.407 80.4615C18.6738 80.0522 19.0257 79.7051 19.4389 79.4439L19.6568 79.3031C19.6901 79.2853 19.7153 79.2556 19.7273 79.2199C19.7332 79.1924 19.7332 79.1641 19.7273 79.1367C19.7331 79.1114 19.7331 79.0851 19.7273 79.0599C19.7161 79.0344 19.6984 79.0124 19.676 78.9959L19.4389 78.8871Z" fill="#FFE65C"/>
<path d="M12.5042 70.6758C11.8588 70.2679 11.3101 69.7245 10.8961 69.0835C10.4822 68.4425 10.213 67.7192 10.1072 66.9638L9.70343 64.4038C9.69722 64.3418 9.66739 64.2845 9.62011 64.2438C9.57529 64.1995 9.51631 64.1723 9.45347 64.167C9.38878 64.1724 9.32781 64.1995 9.28043 64.2438C9.23315 64.2845 9.20332 64.3418 9.19711 64.4038L8.79975 66.9638C8.68559 67.7185 8.41254 68.4405 7.99861 69.0822C7.58834 69.7224 7.04386 70.2661 6.40275 70.6758L6.05666 70.8934C6.02236 70.9191 5.99395 70.9518 5.97334 70.9894C5.96426 71.0294 5.96426 71.071 5.97334 71.111C5.96372 71.1531 5.96372 71.1969 5.97334 71.239C5.99225 71.276 6.0211 71.307 6.05666 71.3286L6.40275 71.5462C7.04861 71.9584 7.59923 72.5032 8.01803 73.1443C8.43683 73.7854 8.71423 74.5082 8.83179 75.2646L9.22916 77.8566C9.23692 77.9163 9.26661 77.9711 9.31247 78.0102C9.36158 78.0499 9.42237 78.0724 9.48552 78.0742C9.54674 78.0724 9.60552 78.0498 9.65215 78.0102C9.69802 77.9711 9.72771 77.9163 9.73547 77.8566L10.1392 75.2646C10.2448 74.5097 10.5138 73.7868 10.9276 73.1462C11.3424 72.5036 11.8911 71.9579 12.5362 71.5462L12.8759 71.3286C12.913 71.309 12.9424 71.2774 12.9592 71.239C12.9721 71.1973 12.9721 71.1527 12.9592 71.111C12.9712 71.0713 12.9712 71.029 12.9592 70.9894C12.9407 70.9504 12.9119 70.9172 12.8759 70.8934L12.5042 70.6758Z" fill="#FF78B8"/>
<path d="M138.122 62.3878C137.479 61.9769 136.932 61.4318 136.519 60.7899C136.107 60.1481 135.838 59.4247 135.732 58.6694L135.328 56.1094C135.32 56.0459 135.291 55.9871 135.245 55.943C135.223 55.9206 135.197 55.9029 135.169 55.8908C135.14 55.8787 135.109 55.8725 135.078 55.8726C135.013 55.8728 134.951 55.898 134.905 55.943C134.859 55.9871 134.829 56.0459 134.822 56.1094L134.424 58.6694C134.311 59.4231 134.038 60.1441 133.625 60.7851C133.212 61.426 132.667 61.9722 132.027 62.3878L131.681 62.6054C131.647 62.6311 131.619 62.6638 131.598 62.7014C131.588 62.7413 131.588 62.783 131.598 62.823C131.589 62.863 131.589 62.9045 131.598 62.9446C131.619 62.9821 131.647 63.0148 131.681 63.0406L132.027 63.2582C132.669 63.6703 133.213 64.2161 133.623 64.8582C134.038 65.497 134.311 66.2172 134.424 66.9702L134.822 69.5302C134.83 69.5899 134.859 69.6446 134.905 69.6838C134.952 69.7263 135.014 69.7492 135.078 69.7478C135.14 69.7489 135.2 69.726 135.245 69.6838C135.291 69.6446 135.32 69.5899 135.328 69.5302L135.732 66.9702C135.838 66.2148 136.107 65.4915 136.521 64.8504C136.935 64.2094 137.483 63.6661 138.129 63.2582L138.469 63.0406C138.505 63.0167 138.533 62.9835 138.552 62.9446C138.564 62.9049 138.564 62.8626 138.552 62.823C138.565 62.7834 138.565 62.7409 138.552 62.7014C138.533 62.6624 138.505 62.6292 138.469 62.6054L138.122 62.3878Z" fill="#8BD8FF"/>
<path d="M119.389 22.1H119.485C119.695 22.0744 119.887 21.9663 120.018 21.7995C120.149 21.6327 120.209 21.4208 120.183 21.2104C119.01 11.444 114.729 7.38638 111.377 5.69678C111.086 6.12411 110.825 6.57105 110.595 7.03438C113.531 8.46798 117.453 12.116 118.568 21.396C118.592 21.5945 118.69 21.7768 118.842 21.9071C118.993 22.0374 119.189 22.1062 119.389 22.1V22.1Z" fill="#2CCB7A"/>
<path d="M125.182 1.33191C124.519 1.14662 123.841 1.01183 123.157 0.928711C125.721 5.44071 129.675 14.8807 125.721 25.4983C125.648 25.697 125.656 25.9164 125.743 26.1092C125.831 26.302 125.991 26.4526 126.189 26.5287C126.279 26.5612 126.374 26.5785 126.471 26.5799C126.634 26.5799 126.793 26.5303 126.927 26.4377C127.061 26.345 127.163 26.2138 127.221 26.0615C131.066 15.7319 127.842 6.46471 125.182 1.33191Z" fill="#2CCB7A"/>
</g>
<defs>
<linearGradient id="paint0_linear_300_172527" x1="83.8438" y1="60.0522" x2="68.1683" y2="104.386" gradientUnits="userSpaceOnUse">
<stop stop-color="#EA459E"/>
<stop offset="0.04" stop-color="#EB489F"/>
<stop offset="0.71" stop-color="#FF78B8"/>
</linearGradient>
<linearGradient id="paint1_linear_300_172527" x1="96.9504" y1="71.0024" x2="102.473" y2="96.612" gradientUnits="userSpaceOnUse">
<stop stop-color="#EA459E"/>
<stop offset="0.07" stop-color="#EB489F"/>
<stop offset="0.71" stop-color="#FF78B8"/>
</linearGradient>
<linearGradient id="paint2_linear_300_172527" x1="42.2616" y1="64.2442" x2="35.5699" y2="22.2573" gradientUnits="userSpaceOnUse">
<stop offset="0.3" stop-color="#3343D8"/>
<stop offset="0.34" stop-color="#3949DC"/>
<stop offset="0.55" stop-color="#4F5DEB"/>
<stop offset="0.68" stop-color="#5765F1"/>
</linearGradient>
<linearGradient id="paint3_linear_300_172527" x1="95.0149" y1="78.5415" x2="80.9408" y2="1.90074" gradientUnits="userSpaceOnUse">
<stop offset="0.09" stop-color="#59F186"/>
<stop offset="0.18" stop-color="#60F38B"/>
<stop offset="0.3" stop-color="#74F898"/>
<stop offset="0.43" stop-color="#91FFAC"/>
</linearGradient>
<clipPath id="clip0_300_172527">
<rect width="141" height="128" fill="white" transform="translate(0.5 0.5)"/>
</clipPath>
</defs>
</svg>