<svg width="94" height="81" viewBox="0 0 94 81" fill="none" xmlns="http://www.w3.org/2000/svg">
<path d="M78.1233 46.1939C77.9366 46.1936 77.7535 46.1418 77.5943 46.0442C77.4351 45.9466 77.3058 45.8071 77.2206 45.6409C76.1267 43.5304 76.4724 41.2004 78.0339 40.2164C78.2614 40.0713 78.5373 40.0226 78.8008 40.0809C79.0642 40.1393 79.2938 40.2999 79.4388 40.5274C79.5839 40.755 79.6326 41.0308 79.5742 41.2943C79.5159 41.5578 79.3553 41.7873 79.1277 41.9324C78.5056 42.339 78.469 43.5955 79.0423 44.7097C79.1226 44.8647 79.1616 45.0377 79.1557 45.2121C79.1497 45.3865 79.0989 45.5565 79.0082 45.7056C78.9175 45.8547 78.79 45.978 78.6379 46.0635C78.4857 46.149 78.3141 46.1939 78.1396 46.1939H78.1233Z" fill="black"/>
<path d="M79.5669 46.1533C79.3752 46.1511 79.188 46.0947 79.0269 45.9906C78.8659 45.8865 78.7375 45.739 78.6568 45.5651C78.576 45.3912 78.546 45.198 78.5704 45.0078C78.5947 44.8176 78.6723 44.6381 78.7943 44.4902C79.4817 43.7119 80.0679 42.8498 80.5388 41.9243C80.5894 41.7979 80.6649 41.683 80.7607 41.5864C80.8566 41.4897 80.9709 41.4133 81.0969 41.3617C81.2228 41.31 81.3579 41.2842 81.494 41.2858C81.6301 41.2873 81.7645 41.3162 81.8893 41.3707C82.014 41.4251 82.1266 41.5041 82.2202 41.6029C82.3139 41.7017 82.3868 41.8183 82.4345 41.9458C82.4822 42.0733 82.5039 42.209 82.4982 42.3451C82.4924 42.4811 82.4595 42.6145 82.4012 42.7376C81.8595 43.8348 81.1759 44.8561 80.368 45.7751C80.2722 45.8952 80.1503 45.9918 80.0114 46.0573C79.8725 46.1229 79.7205 46.1557 79.5669 46.1533Z" fill="black"/>
<path d="M92.471 20.0567L72.8469 19.954C72.0025 19.9495 71.3144 20.6305 71.31 21.4749L71.2072 41.099C71.2028 41.9434 71.8838 42.6315 72.7282 42.6359L92.3522 42.7387C93.1966 42.7431 93.8848 42.0621 93.8892 41.2177L93.9919 21.5937C93.9963 20.7492 93.3154 20.0611 92.471 20.0567Z" fill="#D5D8DC"/>
<path d="M89.7877 27.7534L75.8326 27.617C75.4104 27.6129 75.0648 27.9518 75.0606 28.374L74.9854 36.0713C74.9813 36.4935 75.3202 36.8391 75.7424 36.8432L89.6975 36.9796C90.1197 36.9837 90.4653 36.6448 90.4694 36.2226L90.5447 28.5253C90.5488 28.1031 90.2099 27.7576 89.7877 27.7534Z" fill="#5A65E9"/>
<path d="M85.7314 24.9228C84.9674 24.9152 84.2314 25.2103 83.6843 25.7436C83.1372 26.277 82.8235 27.0053 82.8117 27.7692C82.8183 27.0055 82.5228 26.2702 81.9896 25.7233C81.4565 25.1765 80.7289 24.8624 79.9653 24.8496L77.0049 24.8211L76.9073 34.7756L88.6104 34.8895L88.708 24.935L85.7314 24.9228Z" fill="#8189F6"/>
<path d="M87.3824 39.2771L88.1672 38.7891C86.5406 37.9758 85.7274 37.1625 85.6908 34.987L84.0642 35.0236C84.1293 37.984 85.4834 39.273 87.5044 40.2774L87.3824 39.2771Z" fill="#5A65E9"/>
<path d="M54.7538 57.5636C56.9213 57.7562 59.1057 57.6081 61.2274 57.1244C63.3938 56.6546 65.4876 55.8969 67.4531 54.8717C69.3816 53.8854 71.1357 52.5901 72.6458 51.0371C74.0873 49.5707 75.1725 47.7927 75.8176 45.8402C75.9182 45.5049 76.0843 45.1929 76.3065 44.9224C76.5286 44.6518 76.8023 44.4281 77.1116 44.2642C77.4209 44.1002 77.7597 43.9994 78.1083 43.9675C78.4569 43.9355 78.8084 43.9732 79.1423 44.0782C79.4763 44.1832 79.786 44.3536 80.0536 44.5793C80.3212 44.805 80.5412 45.0816 80.701 45.3931C80.8608 45.7046 80.9572 46.0447 80.9844 46.3937C81.0117 46.7427 80.9694 47.0936 80.8599 47.4261V47.4505C79.9584 50.1624 78.4494 52.6325 76.4479 54.6724C74.5256 56.6312 72.2963 58.2629 69.8482 59.5033C67.4637 60.734 64.9255 61.6407 62.301 62.1993C59.6392 62.7868 56.9015 62.9515 54.1885 62.6872C53.5153 62.6078 52.9005 62.2664 52.4772 61.737C52.0538 61.2076 51.856 60.5327 51.9266 59.8585C51.9972 59.1843 52.3304 58.5651 52.8542 58.1348C53.378 57.7045 54.0502 57.4979 54.7253 57.5595L54.7538 57.5636Z" fill="url(#paint0_linear_220_16957)"/>
<path d="M62.2074 59.2918C62.4719 60.2636 62.4293 61.2934 62.0854 62.2399C61.752 62.305 61.4226 62.3701 61.0891 62.4229C61.7682 61.3047 61.5324 59.9628 61.4185 59.487C61.2357 58.6596 60.8111 57.9052 60.1986 57.3196C60.5185 57.2681 60.8357 57.2071 61.1501 57.1366C61.6596 57.7668 62.0209 58.5033 62.2074 59.2918ZM66.595 55.3068C66.2738 55.4613 65.9444 55.6036 65.611 55.7459C66.3121 55.9848 66.8992 56.4763 67.2578 57.1244C67.5435 57.6655 67.7023 58.2645 67.722 58.8761C67.7417 59.4877 67.6219 60.0957 67.3717 60.6541C67.7051 60.5199 68.0345 60.3775 68.3639 60.2474C68.6946 59.0697 68.5486 57.8091 67.9573 56.7381C67.633 56.1524 67.164 55.6596 66.595 55.3068ZM71.1534 52.4603C70.885 52.6799 70.6126 52.8995 70.3402 53.1069C70.7609 53.1539 71.1677 53.2864 71.5354 53.4962C71.9032 53.7059 72.2243 53.9886 72.4791 54.3268C72.8264 54.7768 73.0679 55.2993 73.1854 55.8554C73.303 56.4116 73.2937 56.9871 73.1582 57.5392C73.4672 57.3196 73.7722 57.0919 74.069 56.8601C74.136 55.7638 73.7973 54.6811 73.1175 53.8185C72.612 53.1674 71.9196 52.6864 71.1331 52.44L71.1534 52.4603ZM76.761 49.256C76.1221 48.7993 75.3585 48.5495 74.5732 48.5403C74.3862 48.8453 74.1869 49.1381 73.9755 49.4309C74.3749 49.3376 74.79 49.3334 75.1912 49.4184C75.5925 49.5035 75.9701 49.6757 76.2974 49.9229C76.792 50.2711 77.1938 50.7353 77.4674 51.2748C77.741 51.8142 77.8782 52.4126 77.867 53.0174C78.1191 52.6962 78.3591 52.3627 78.5868 52.0211C78.3511 50.9011 77.6984 49.9126 76.761 49.256Z" fill="#5896EA"/>
<path d="M78.8594 45.7385C78.7261 45.739 78.594 45.7132 78.4706 45.6625C78.3473 45.6119 78.2352 45.5374 78.1408 45.4433C78.0463 45.3493 77.9714 45.2375 77.9202 45.1143C77.8691 44.9912 77.8428 44.8592 77.8428 44.7259C77.8428 44.6283 77.8428 42.2861 79.3433 40.7612C79.437 40.6659 79.5486 40.59 79.6716 40.5378C79.7947 40.4856 79.9268 40.4581 80.0605 40.457C80.1942 40.4558 80.3267 40.481 80.4507 40.5312C80.5746 40.5813 80.6874 40.6553 80.7828 40.749C80.8781 40.8427 80.954 40.9543 81.0062 41.0774C81.0584 41.2004 81.0859 41.3326 81.087 41.4662C81.0881 41.5999 81.0629 41.7325 81.0128 41.8564C80.9627 41.9803 80.8887 42.0932 80.795 42.1885C79.8922 43.1034 79.876 44.7015 79.876 44.7178C79.8765 44.8513 79.8507 44.9836 79.8001 45.1071C79.7495 45.2307 79.6751 45.343 79.5811 45.4378C79.4871 45.5326 79.3753 45.6079 79.2522 45.6595C79.129 45.7111 78.9969 45.7379 78.8634 45.7385H78.8594Z" fill="black"/>
<path d="M56.669 72.4953C56.6667 73.0784 56.6082 73.6598 56.4942 74.2316C56.4453 74.4829 56.3828 74.7313 56.3071 74.9758C55.0872 78.9405 51.0737 80.7907 47.292 80.38C47.292 80.38 39.2853 79.2617 34.8733 78.4037C30.8069 77.6149 26.9804 76.2486 27.1227 70.8078C27.138 70.4688 27.1802 70.1316 27.2488 69.7993C27.2935 69.5675 27.3505 69.3195 27.4155 69.0551C28.3386 65.4523 31.1444 59.4178 32.2952 56.9211C33.6818 53.9445 35.3653 51.9154 39.3097 52.4481C43.2541 52.9807 48.7477 53.8754 51.5088 54.6398C54.2699 55.4043 55.807 57.6246 56.0672 60.3328C56.5099 64.3713 56.7109 68.4327 56.669 72.4953Z" fill="url(#paint1_linear_220_16957)"/>
<path d="M42.9736 54.5909L43.0265 54.7089C43.1378 54.9685 43.213 55.2421 43.2501 55.5221C43.303 55.8412 43.303 56.1668 43.2501 56.4859L41.7903 64.9846C41.7616 65.3602 41.874 65.733 42.1057 66.0301C42.3373 66.3272 42.6715 66.5271 43.0427 66.5908L50.7689 67.9083C50.9904 67.9464 51.2177 67.9347 51.4342 67.8742C51.6508 67.8136 51.8511 67.7057 52.0208 67.5582C52.1905 67.4107 52.3253 67.2273 52.4154 67.0213C52.5055 66.8153 52.5487 66.5919 52.5418 66.3672L52.2531 58.4784C52.2289 57.7463 51.9526 57.0449 51.471 56.493C50.9894 55.941 50.332 55.5722 49.6099 55.449L43.1729 54.351C43.1419 54.3466 43.1103 54.3502 43.0811 54.3614C43.0519 54.3727 43.0261 54.3912 43.0061 54.4153C42.9861 54.4393 42.9727 54.4681 42.967 54.4989C42.9613 54.5296 42.9636 54.5613 42.9736 54.5909Z" fill="#ED5F00"/>
<path d="M43.2501 55.5101C43.303 55.8292 43.303 56.1548 43.2501 56.4739L41.7903 64.9848C41.7616 65.3604 41.874 65.7332 42.1057 66.0303C42.3373 66.3273 42.6715 66.5273 43.0427 66.591L50.167 67.8109C50.3826 67.6752 50.5593 67.4857 50.6798 67.2612C50.8002 67.0367 50.8604 66.7847 50.8542 66.53L50.716 59.3244C50.6916 57.5311 49.7848 56.6284 48.329 56.3803L43.2501 55.5101Z" fill="url(#paint2_linear_220_16957)"/>
<path d="M56.4944 74.2315C56.4455 74.4827 56.3831 74.7312 56.3074 74.9757L27.249 69.7992C27.2938 69.5674 27.3507 69.3193 27.4157 69.055L56.4944 74.2315Z" fill="#ED3700"/>
<path d="M32.4374 57.9945C31.9941 59.4746 32.4374 60.4343 33.4377 60.3652C34.5397 60.3083 35.7149 58.9013 36.1053 57.4496C36.4956 55.9979 36.0402 54.8268 35.0439 55.0098C34.0477 55.1928 32.8887 56.5103 32.4374 57.9945Z" fill="black"/>
<path d="M50.5572 24.3982L40.7979 25.4351C40.7979 25.4351 42.1194 23.3653 43.7744 23.0725C45.4741 22.7791 47.191 22.5957 48.9143 22.5236C49.9228 22.4911 50.5572 23.5077 50.5572 24.3982Z" fill="#9CD6FA"/>
<path d="M63.4028 40.3465C62.6953 42.9368 59.5316 45.4498 58.1816 46.072C57.2142 46.5099 56.22 46.8861 55.205 47.1984C54.774 47.3326 54.3267 47.4627 53.8712 47.5806C50.9951 48.3127 48.0623 48.801 45.1041 49.0405L44.665 49.0771C42.2943 49.2722 39.83 49.3617 37.3455 49.3292C35.17 49.3088 33.7915 48.3288 32.7424 46.4054C31.178 43.4819 30.1727 40.2921 29.778 36.9999C29.5258 34.4056 30.7376 31.6445 33.7467 28.0092C35.6417 25.7239 37.7237 25.0488 48.0482 24.2071C54.6927 23.6622 57.5879 23.6541 59.1657 25.3335C61.8576 28.1759 64.2608 37.2276 63.4028 40.3465Z" fill="url(#paint3_linear_220_16957)"/>
<path d="M48.4019 26.1385C55.5384 25.5245 57.0796 25.7685 58.1978 27.8383C59.5182 30.456 60.3597 33.2888 60.6824 36.2028C60.8491 38.1506 60.3774 38.9435 52.7733 39.8056L42.1275 39.399L38.5735 29.721C38.7321 28.2205 39.1224 27.8545 40.383 27.4154C41.8673 26.8827 44.4779 26.472 48.4019 26.1385Z" fill="#ED5F00"/>
<path d="M56.1607 44.3356C55.9574 45.1692 54.8472 46.7022 53.8713 47.5887C50.9952 48.3208 48.0624 48.8091 45.1042 49.0485L44.665 49.0851C45.6761 48.1099 46.5675 47.0179 47.3204 45.832C48.4264 44.2665 49.0039 44.1486 52.2651 43.7135C55.9167 43.2296 56.4657 43.0913 56.1607 44.3356Z" fill="#F5C749"/>
<path d="M35.3613 38.3255C36.077 41.1719 35.5037 44.3803 33.6657 44.9008C32.0391 45.3603 30.0059 43.4532 29.4041 40.5742C28.7128 37.3902 30.0059 34.9951 31.665 34.621C33.2509 34.255 34.6457 35.475 35.3613 38.3255Z" fill="url(#paint4_linear_220_16957)"/>
<path d="M31.9494 39.6674C32.2706 40.9442 32.0145 42.3756 31.1931 42.6074C30.4652 42.8147 29.595 42.0055 29.3185 40.7206C29.0094 39.2933 29.5177 38.0083 30.1643 37.8741C30.8799 37.7399 31.6241 38.3946 31.9494 39.6674Z" fill="#FAE773"/>
<path d="M47.8899 27.391C54.8596 26.7933 56.2625 26.9112 57.2141 28.6963C58.5018 31.2546 59.3277 34.0202 59.6539 36.8657C59.8165 38.7687 58.9911 39.0981 51.5659 39.9399C43.7218 40.8304 41.9814 40.5051 40.8916 38.4434C40.0133 36.7803 38.586 31.9738 38.586 29.9528C38.5738 28.4971 40.8144 27.9806 47.8899 27.391Z" fill="black"/>
<path d="M46.0515 32.6895C46.1979 33.3523 45.8767 33.9338 45.3358 33.9867C44.795 34.0395 44.2379 33.5434 44.0915 32.8725C43.9451 32.2015 44.2664 31.62 44.8072 31.5713C45.1118 31.5855 45.4021 31.7046 45.6288 31.9084C45.8556 32.1122 46.005 32.3882 46.0515 32.6895ZM55.0708 31.8478C55.0166 31.5542 54.8628 31.2884 54.6354 31.095C54.4079 30.9017 54.1208 30.7927 53.8224 30.7864C53.2856 30.8312 52.9644 31.3883 53.1148 32.0308C53.1645 32.3257 53.3164 32.5936 53.544 32.7877C53.7715 32.9818 54.0601 33.0895 54.3591 33.0921C54.9 33.0392 55.209 32.4821 55.0708 31.8478ZM50.0854 34.5926C49.4434 34.6463 48.8085 34.7648 48.1904 34.9463C48.332 35.4327 48.6434 35.852 49.068 36.1282C49.4926 36.4043 50.0023 36.5188 50.5042 36.4509C51.5696 36.3289 52.2609 35.475 52.0494 34.5397C51.3946 34.4949 50.7369 34.5126 50.0854 34.5926Z" fill="#84EE91"/>
<path d="M15.1309 31.3597C14.9483 31.3591 14.7693 31.3093 14.6126 31.2156C14.4559 31.1218 14.3273 30.9876 14.2404 30.827C13.5369 29.6278 12.7199 28.499 11.8005 27.456C11.644 27.2512 11.5711 26.9946 11.5965 26.7381C11.622 26.4816 11.7439 26.2444 11.9377 26.0744C12.1315 25.9044 12.3826 25.8143 12.6402 25.8225C12.8979 25.8306 13.1428 25.9363 13.3254 26.1182C14.346 27.2692 15.2505 28.5182 16.0255 29.847C16.0899 29.9644 16.1305 30.0934 16.1449 30.2266C16.1593 30.3597 16.1473 30.4944 16.1095 30.6228C16.0717 30.7513 16.0089 30.871 15.9247 30.9752C15.8405 31.0793 15.7366 31.1658 15.6189 31.2296C15.4704 31.3149 15.3021 31.3597 15.1309 31.3597Z" fill="black"/>
<path d="M16.3387 30.7825C16.1435 30.7827 15.9525 30.7268 15.7883 30.6214C15.624 30.516 15.4936 30.3656 15.4126 30.1881C15.3316 30.0106 15.3033 29.8135 15.3313 29.6204C15.3592 29.4273 15.4421 29.2463 15.5701 29.099C15.8551 28.7206 16.0365 28.2744 16.0964 27.8044C16.1563 27.3345 16.0926 26.8571 15.9117 26.4193C15.847 26.2924 15.8097 26.1535 15.8022 26.0113C15.7946 25.8692 15.817 25.727 15.8679 25.5941C15.9188 25.4611 15.997 25.3403 16.0975 25.2395C16.198 25.1388 16.3186 25.0602 16.4514 25.009C16.5842 24.9577 16.7263 24.9349 16.8685 24.9421C17.0107 24.9493 17.1498 24.9862 17.2767 25.0506C17.4037 25.1149 17.5158 25.2052 17.6057 25.3156C17.6955 25.4259 17.7612 25.554 17.7985 25.6914C18.1096 26.4713 18.2087 27.3196 18.0859 28.1502C17.9631 28.9808 17.6226 29.7641 17.0991 30.4206C17.0059 30.5321 16.8897 30.6222 16.7584 30.6847C16.6272 30.7472 16.484 30.7805 16.3387 30.7825Z" fill="black"/>
<path d="M28.7036 0.354092L1.4874 6.83288C0.665929 7.02843 0.158524 7.85288 0.354073 8.67435L5.04272 28.3705C5.23827 29.1919 6.06272 29.6993 6.88419 29.5038L34.1003 23.025C34.9218 22.8294 35.4292 22.005 35.2337 21.1835L30.545 1.48741C30.3495 0.665949 29.525 0.158543 28.7036 0.354092Z" fill="#D5D8DC"/>
<path d="M19.6569 21.1817C19.5968 21.1813 19.5376 21.1676 19.4834 21.1416C19.4293 21.1156 19.3816 21.0779 19.3438 21.0312L13.3255 13.6101L9.13715 20.4823C9.08147 20.5743 8.99158 20.6406 8.88716 20.6665C8.78275 20.6924 8.67232 20.6759 8.58006 20.6205C8.53393 20.5929 8.49373 20.5565 8.46177 20.5133C8.42982 20.4701 8.40674 20.421 8.39389 20.3688C8.38103 20.3166 8.37865 20.2624 8.38687 20.2093C8.39509 20.1562 8.41376 20.1052 8.4418 20.0594L12.9148 12.6952C12.9487 12.6392 12.9956 12.5922 13.0515 12.5582C13.1075 12.5242 13.1708 12.5043 13.2361 12.5C13.3009 12.496 13.3657 12.5075 13.4251 12.5337C13.4846 12.5599 13.5368 12.5999 13.5776 12.6504L19.3682 19.7707L20.7182 8.10015C20.7268 8.02439 20.7565 7.95257 20.804 7.89289C20.8514 7.83321 20.9147 7.78808 20.9866 7.76264C21.0561 7.73952 21.1306 7.73563 21.2022 7.75138C21.2738 7.76713 21.3398 7.80193 21.3932 7.8521L27.5578 13.7931C27.6336 13.8693 27.6761 13.9723 27.6761 14.0798C27.6761 14.1872 27.6336 14.2903 27.5578 14.3664C27.52 14.4046 27.4751 14.4348 27.4255 14.4554C27.376 14.4761 27.3228 14.4867 27.2691 14.4867C27.2154 14.4867 27.1623 14.4761 27.1127 14.4554C27.0632 14.4348 27.0182 14.4046 26.9804 14.3664L21.4298 9.00695L20.0635 20.7994C20.0545 20.8796 20.0218 20.9553 19.9697 21.0168C19.9176 21.0784 19.8483 21.123 19.7707 21.1451C19.7352 21.1637 19.6966 21.1761 19.6569 21.1817Z" fill="#5A65E9"/>
<path d="M8.79152 22.6333C10.0963 22.6333 11.1541 21.5756 11.1541 20.2708C11.1541 18.966 10.0963 17.9082 8.79152 17.9082C7.48671 17.9082 6.42896 18.966 6.42896 20.2708C6.42896 21.5756 7.48671 22.6333 8.79152 22.6333Z" fill="#8189F6"/>
<path d="M21.263 10.4831C22.5678 10.4831 23.6255 9.42531 23.6255 8.1205C23.6255 6.81569 22.5678 5.75793 21.263 5.75793C19.9581 5.75793 18.9004 6.81569 18.9004 8.1205C18.9004 9.42531 19.9581 10.4831 21.263 10.4831Z" fill="#8189F6"/>
<path d="M19.6936 22.9505C20.9984 22.9505 22.0562 21.8927 22.0562 20.5879C22.0562 19.2831 20.9984 18.2253 19.6936 18.2253C18.3888 18.2253 17.3311 19.2831 17.3311 20.5879C17.3311 21.8927 18.3888 22.9505 19.6936 22.9505Z" fill="#8189F6"/>
<path d="M27.2813 16.6111C28.5861 16.6111 29.6438 15.5533 29.6438 14.2485C29.6438 12.9437 28.5861 11.8859 27.2813 11.8859C25.9765 11.8859 24.9187 12.9437 24.9187 14.2485C24.9187 15.5533 25.9765 16.6111 27.2813 16.6111Z" fill="#8189F6"/>
<path d="M13.2603 15.2692C14.5651 15.2692 15.6228 14.2115 15.6228 12.9067C15.6228 11.6019 14.5651 10.5441 13.2603 10.5441C11.9555 10.5441 10.8977 11.6019 10.8977 12.9067C10.8977 14.2115 11.9555 15.2692 13.2603 15.2692Z" fill="#8189F6"/>
<path d="M33.5964 59.125C33.2649 59.124 32.9366 59.0606 32.6286 58.938C21.2427 54.465 14.273 44.8154 12.988 31.7908C12.9541 31.4453 12.9885 31.0965 13.0894 30.7644C13.1903 30.4322 13.3557 30.1231 13.576 29.8549C13.7963 29.5866 14.0673 29.3643 14.3735 29.2008C14.6798 29.0372 15.0152 28.9356 15.3607 28.9017C15.7062 28.8678 16.055 28.9022 16.3872 29.0031C16.7194 29.104 17.0284 29.2694 17.2967 29.4897C17.565 29.71 17.7872 29.981 17.9508 30.2872C18.1143 30.5935 18.216 30.9289 18.2499 31.2744C19.6324 45.3075 27.8872 51.3867 34.5682 54.0217C35.1418 54.247 35.6185 54.6656 35.9162 55.205C36.2138 55.7445 36.3137 56.3711 36.1984 56.9764C36.0831 57.5816 35.76 58.1276 35.2849 58.52C34.8098 58.9123 34.2125 59.1263 33.5964 59.125Z" fill="url(#paint5_linear_220_16957)"/>
<path d="M31.6689 52.6839C31.6474 53.5224 31.3848 54.337 30.9126 55.0302C30.3129 55.9184 29.441 56.5877 28.428 56.9374C28.0986 56.7503 27.7733 56.5551 27.4521 56.3599C28.0117 56.2622 28.5461 56.054 29.0244 55.7476C29.5026 55.4411 29.915 55.0424 30.2376 54.5748C30.7181 53.887 30.9227 53.0438 30.8109 52.2122C31.0996 52.379 31.3843 52.5335 31.6689 52.6839ZM24.4511 50.4596C24.1174 50.8631 23.7004 51.1897 23.2288 51.417C22.7572 51.6444 22.242 51.7673 21.7185 51.7771C21.9544 52.0211 22.1983 52.261 22.4423 52.4969C23.3967 52.3571 24.272 51.8878 24.9167 51.1704C25.5613 50.453 25.9347 49.5326 25.9719 48.5688C25.6832 48.2923 25.3986 48.0035 25.1221 47.7026C25.2031 48.1837 25.1855 48.6762 25.0701 49.1501C24.9548 49.6241 24.7442 50.0697 24.4511 50.4596ZM19.852 44.1405C19.0431 44.8505 17.9962 45.2295 16.9202 45.2018C17.0625 45.4702 17.2089 45.7386 17.3634 46.0151C18.4867 45.951 19.5556 45.5097 20.3969 44.7626C20.9552 44.2625 21.3907 43.6406 21.6697 42.945C21.4827 42.6034 21.3037 42.2537 21.1248 41.8958C20.958 42.7633 20.5109 43.552 19.852 44.1405ZM19.3112 37.0731C19.219 36.7343 19.1296 36.3886 19.0428 36.0362C18.6593 36.7011 18.0954 37.2439 17.4163 37.6018C16.8995 37.8644 16.3353 38.021 15.7571 38.0622C15.1788 38.1034 14.5981 38.0284 14.0493 37.8417C14.1266 38.1466 14.2079 38.4516 14.2933 38.7485C14.6855 38.8392 15.0863 38.8869 15.4888 38.8908C16.2206 38.8954 16.9438 38.7342 17.6044 38.4194C18.265 38.1046 18.8457 37.6444 19.3031 37.0731H19.3112Z" fill="#5896EA"/>
<path d="M15.6719 30.6442H15.5296C15.2632 30.6058 15.0227 30.4638 14.8605 30.2491C14.6983 30.0343 14.6274 29.7642 14.6634 29.4974C14.7285 29.0257 14.7651 27.6472 14.1714 26.9031C14.0878 26.7984 14.0257 26.6783 13.9885 26.5496C13.9514 26.421 13.9399 26.2862 13.9548 26.1531C13.985 25.8843 14.1206 25.6385 14.332 25.4697C14.5434 25.3009 14.8132 25.223 15.082 25.2531C15.2151 25.2681 15.3439 25.309 15.4612 25.3738C15.5785 25.4385 15.6818 25.5257 15.7654 25.6303C17.0097 27.1918 16.721 29.5137 16.6803 29.774C16.6459 30.0164 16.5248 30.2382 16.3393 30.3982C16.1539 30.5582 15.9168 30.6456 15.6719 30.6442Z" fill="black"/>
<defs>
<linearGradient id="paint0_linear_220_16957" x1="76.8261" y1="41.9081" x2="56.9049" y2="65.6028" gradientUnits="userSpaceOnUse">
<stop stop-color="#9CD6FA"/>
<stop offset="1" stop-color="#7BB9F8"/>
</linearGradient>
<linearGradient id="paint1_linear_220_16957" x1="44.0795" y1="59.064" x2="40.0945" y2="82.4498" gradientUnits="userSpaceOnUse">
<stop offset="0.11" stop-color="#EF913C"/>
<stop offset="0.32" stop-color="#EF8A34"/>
<stop offset="0.65" stop-color="#EE791F"/>
<stop offset="1" stop-color="#ED5F00"/>
</linearGradient>
<linearGradient id="paint2_linear_220_16957" x1="46.4138" y1="65.1678" x2="47.5889" y2="57.0676" gradientUnits="userSpaceOnUse">
<stop stop-color="#F5C749"/>
<stop offset="1" stop-color="#F5C749"/>
</linearGradient>
<linearGradient id="paint3_linear_220_16957" x1="48.8045" y1="32.1609" x2="43.567" y2="45.0757" gradientUnits="userSpaceOnUse">
<stop stop-color="#F5C749"/>
<stop offset="1" stop-color="#EF913C"/>
</linearGradient>
<linearGradient id="paint4_linear_220_16957" x1="32.2018" y1="34.6861" x2="32.6531" y2="44.486" gradientUnits="userSpaceOnUse">
<stop stop-color="#FAE773"/>
<stop offset="1" stop-color="#F5C749"/>
</linearGradient>
<linearGradient id="paint5_linear_220_16957" x1="17.1861" y1="28.2789" x2="30.4112" y2="61.0175" gradientUnits="userSpaceOnUse">
<stop stop-color="#9CD6FA"/>
<stop offset="0.8" stop-color="#7BB9F8"/>
</linearGradient>
</defs>
</svg>
