<svg width="197" height="59" viewBox="0 0 197 59" fill="none" xmlns="http://www.w3.org/2000/svg">
<path d="M162.955 20.0927L163.142 20.0426L170.366 17.4739C170.653 17.3717 170.917 17.2137 171.143 17.0091C171.368 16.8045 171.552 16.5571 171.682 16.2813C171.813 16.0054 171.888 15.7063 171.903 15.4012C171.918 15.0961 171.873 14.7908 171.771 14.5029C171.557 13.9251 171.128 13.453 170.574 13.1864C170.02 12.9198 169.384 12.8797 168.802 13.0746L161.578 15.6433C160.994 15.8512 160.516 16.2826 160.248 16.8433C159.98 17.404 159.944 18.0486 160.148 18.6364C160.35 19.1872 160.75 19.6425 161.27 19.9122C161.79 20.1818 162.391 20.2463 162.955 20.0927Z" fill="#F7E080"/>
<path d="M1.61057 34.9502L1.72143 35.1086L6.6059 41.018C6.8001 41.2527 7.0388 41.4467 7.30836 41.589C7.57791 41.7313 7.87305 41.819 8.17692 41.8473C8.48079 41.8756 8.78744 41.8437 9.07936 41.7536C9.37128 41.6635 9.64275 41.517 9.87828 41.3222C10.3482 40.9239 10.645 40.359 10.706 39.7472C10.767 39.1354 10.5874 38.5245 10.2051 38.044L5.32067 32.1346C4.92544 31.6565 4.3565 31.3546 3.73797 31.2946C3.11944 31.2347 2.50152 31.4216 2.01902 31.8145C1.57032 32.1923 1.27939 32.7242 1.20376 33.3048C1.12813 33.8854 1.2733 34.4726 1.61057 34.9502Z" fill="#FFCDF9"/>
<path d="M39.206 42.0528C39.7485 42.0514 40.2739 41.8616 40.6928 41.5157L45.8967 37.1749C46.3699 36.7792 46.6671 36.2112 46.7229 35.5958C46.7786 34.9803 46.5884 34.3679 46.1941 33.8931C45.7998 33.4184 45.2336 33.1202 44.6202 33.0643C44.0067 33.0083 43.3963 33.1991 42.9231 33.5948L37.7043 37.9356C37.337 38.2417 37.0729 38.6539 36.9478 39.1162C36.8228 39.5784 36.843 40.0681 37.0056 40.5184C37.1682 40.9687 37.4654 41.3577 37.8565 41.6323C38.2476 41.9069 38.7137 42.0538 39.1911 42.0528H39.206Z" fill="#60CFAC"/>
<path d="M189.206 42.0528C189.749 42.0514 190.274 41.8616 190.693 41.5157L195.897 37.1749C196.37 36.7792 196.667 36.2112 196.723 35.5958C196.779 34.9803 196.588 34.3679 196.194 33.8931C195.8 33.4184 195.234 33.1202 194.62 33.0643C194.007 33.0083 193.396 33.1991 192.923 33.5948L187.704 37.9356C187.337 38.2417 187.073 38.6539 186.948 39.1162C186.823 39.5784 186.843 40.0681 187.006 40.5184C187.168 40.9687 187.465 41.3577 187.856 41.6323C188.248 41.9069 188.714 42.0538 189.191 42.0528H189.206Z" fill="#60CFAC"/>
<path d="M55.7259 58.0117C56.0325 58.0124 56.3363 57.9522 56.6196 57.8344C56.9029 57.7166 57.1601 57.5436 57.3763 57.3255L60.6473 54.0288C60.8747 53.816 61.0572 53.5595 61.1838 53.2746C61.3104 52.9897 61.3786 52.6821 61.3844 52.3702C61.3901 52.0583 61.3333 51.7484 61.2173 51.4589C61.1013 51.1695 60.9285 50.9064 60.7091 50.6853C60.4897 50.4642 60.2283 50.2896 59.9403 50.1719C59.6524 50.0543 59.3437 49.9959 59.0328 50.0002C58.7219 50.0046 58.415 50.0716 58.1305 50.1974C57.8459 50.3231 57.5894 50.505 57.3763 50.7321L54.0904 54.0288C53.8741 54.245 53.7025 54.5019 53.5855 54.7847C53.4684 55.0676 53.4081 55.3709 53.4081 55.6771C53.4081 55.9834 53.4684 56.2867 53.5855 56.5695C53.7025 56.8524 53.8741 57.1093 54.0904 57.3255C54.3028 57.5446 54.5572 57.7183 54.8383 57.8362C55.1193 57.9541 55.4212 58.0138 55.7259 58.0117Z" fill="#98B7F7"/>
<path d="M28.9523 7.2909C29.4109 7.28791 29.8584 7.14947 30.2391 6.89286C30.6197 6.63625 30.9166 6.27284 31.0926 5.848C31.2687 5.42315 31.3161 4.95569 31.229 4.50398C31.1418 4.05226 30.924 3.6363 30.6027 3.30802L28.9672 1.66714C28.7514 1.45068 28.4953 1.27897 28.2134 1.16182C27.9315 1.04467 27.6294 0.984375 27.3242 0.984375C27.0191 0.984375 26.717 1.04467 26.4351 1.16182C26.1532 1.27897 25.897 1.45068 25.6813 1.66714C25.4655 1.8836 25.2944 2.14058 25.1776 2.4234C25.0608 2.70623 25.0007 3.00936 25.0007 3.31548C25.0007 3.62161 25.0608 3.92474 25.1776 4.20756C25.2944 4.49038 25.4655 4.74736 25.6813 4.96382L27.3168 6.60471C27.5292 6.82378 27.7836 6.99749 28.0647 7.11541C28.3457 7.23333 28.6477 7.29302 28.9523 7.2909Z" fill="#60CFAC"/>
<path d="M168.952 47.2909C169.411 47.2879 169.858 47.1495 170.239 46.8929C170.62 46.6363 170.917 46.2728 171.093 45.848C171.269 45.4232 171.316 44.9557 171.229 44.504C171.142 44.0523 170.924 43.6363 170.603 43.308L168.967 41.6671C168.751 41.4507 168.495 41.279 168.213 41.1618C167.931 41.0447 167.629 40.9844 167.324 40.9844C167.019 40.9844 166.717 41.0447 166.435 41.1618C166.153 41.279 165.897 41.4507 165.681 41.6671C165.466 41.8836 165.294 42.1406 165.178 42.4234C165.061 42.7062 165.001 43.0094 165.001 43.3155C165.001 43.6216 165.061 43.9247 165.178 44.2076C165.294 44.4904 165.466 44.7474 165.681 44.9638L167.317 46.6047C167.529 46.8238 167.784 46.9975 168.065 47.1154C168.346 47.2333 168.648 47.293 168.952 47.2909Z" fill="#FFCDF9"/>
</svg>
