<svg width="248" height="125" fill="none" xmlns="http://www.w3.org/2000/svg">
  <path d="M27.137 44.882h-.126c-.375 0-.626-.251-.626-.627v-1.629c0-.375.25-.626.626-.626h.126c.376 0 .626.25.626.626v1.63c0 .375-.25.626-.626.626ZM27.137 52.023h-.126c-.375 0-.626-.25-.626-.627v-1.628c0-.376.25-.627.626-.627h.126c.376 0 .626.25.626.627v1.628c0 .376-.25.627-.626.627ZM29.141 47.137v-.126c0-.375.25-.626.627-.626h1.628c.376 0 .627.25.627.626v.126c0 .376-.25.626-.627.626h-1.628c-.25 0-.627-.25-.627-.626ZM22 47.137v-.126c0-.375.25-.626.626-.626h1.63c.375 0 .626.25.626.626v.126c0 .376-.251.626-.627.626h-1.629c-.25 0-.626-.25-.626-.626Z" fill="#fff"/>
  <path opacity=".2" d="M35.813 124.214H0v-5.474c0-8.726 7.131-15.866 15.847-15.866h3.169a3.18 3.18 0 0 0 3.17-3.173V80.265c0-13.17 10.617-23.8 23.77-23.8H87.87c4.04 0 7.29-3.252 7.29-7.298v-.317c0-8.806 7.13-15.867 15.846-15.867h43.578c8.716 0 15.847 7.14 15.847 15.867v31.732h33.991c24.087 0 43.578 19.516 43.578 43.632H35.813Z" fill="#AEC7FF"/>
  <path d="M228.225 90.198H228c-.675 0-1.125-.45-1.125-1.125v-2.925c0-.675.45-1.125 1.125-1.125h.225c.675 0 1.125.45 1.125 1.125v2.925c0 .675-.45 1.125-1.125 1.125ZM228.224 103.023h-.225c-.675 0-1.125-.45-1.125-1.125v-2.925c0-.675.45-1.125 1.125-1.125h.225c.675 0 1.125.45 1.125 1.125v2.925c0 .675-.45 1.125-1.125 1.125ZM231.826 94.248v-.225c0-.675.45-1.125 1.125-1.125h2.925c.675 0 1.125.45 1.125 1.125v.225c0 .675-.45 1.125-1.125 1.125h-2.925c-.45 0-1.125-.45-1.125-1.125ZM219 94.248v-.225c0-.675.45-1.125 1.125-1.125h2.925c.675 0 1.125.45 1.125 1.125v.225c0 .675-.45 1.125-1.125 1.125h-2.925c-.45 0-1.125-.45-1.125-1.125Z" fill="#FF9A15"/>
  <path d="m15.751 84.677-1.666 3.496c-.35.786.439 1.66 1.316 1.31l3.507-1.66a1.22 1.22 0 0 1 .79 0l3.507 1.66c.79.35 1.666-.437 1.315-1.31l-1.666-3.496a1.208 1.208 0 0 1 0-.786l1.666-3.495c.351-.787-.438-1.66-1.315-1.311l-3.508 1.66a1.22 1.22 0 0 1-.789 0l-3.507-1.66c-.79-.35-1.666.437-1.316 1.31l1.666 3.496a.654.654 0 0 1 0 .786Z" fill="#EE5DFC"/>
  <path d="m217.157 63.751-1.101 2.31c-.231.519.29 1.096.869.865l2.318-1.097a.806.806 0 0 1 .521 0l2.318 1.097c.521.231 1.1-.288.869-.866l-1.101-2.309a.798.798 0 0 1 0-.52l1.101-2.309c.231-.52-.29-1.097-.869-.866l-2.318 1.097a.804.804 0 0 1-.521 0l-2.318-1.097c-.521-.23-1.1.289-.869.866l1.101 2.31a.431.431 0 0 1 0 .519Z" fill="#7CE2C2"/>
  <rect x="38" y="5" width="174" height="120" rx="8" fill="#18191C"/>
  <path d="M64.376 17.416c0-.492-.384-.84-.852-.84-.48 0-.864.348-.864.84 0 .48.384.816.864.816.468 0 .852-.336.852-.816Zm-.144 8.028v-6.24h-1.44v6.12c0 .504-.24.684-.636.684-.168 0-.336-.012-.468-.048l.192 1.176c.096.036.348.048.564.048 1.068 0 1.788-.492 1.788-1.74Zm1.511-6.24v4.164c0 1.092.564 1.752 1.656 1.752.768 0 1.392-.42 1.932-.936l.132.816h1.224v-5.796h-1.44v3.912c-.42.432-.876.72-1.32.72-.528 0-.744-.336-.744-.84v-3.792h-1.44Zm10.707 4.092c0-1.092-.588-1.5-2.088-1.884-.864-.228-1.08-.408-1.08-.72s.264-.528.804-.528c.576 0 1.26.204 1.836.528l.192-1.2a5.09 5.09 0 0 0-2.028-.408c-1.344 0-2.136.708-2.136 1.716 0 1.056.588 1.464 1.992 1.824.924.228 1.176.396 1.176.804 0 .384-.336.612-.96.612-.72 0-1.488-.276-2.112-.684l-.192 1.2a5.04 5.04 0 0 0 2.256.564c1.524 0 2.34-.684 2.34-1.824ZM80.688 25l-.18-1.212a1.774 1.774 0 0 1-.456.048c-.552 0-.756-.252-.756-.72V20.38h1.356l-.18-1.176h-1.176v-2.052l-1.428.216v1.836h-.816v1.176h.816v2.976c0 1.32.768 1.74 1.908 1.74.42 0 .684-.048.912-.096Zm3.875-2.76v-1.392h-3.12v1.392h3.12Zm5.658 2.316-.192-1.236c-.528.408-1.02.552-1.524.552-.84 0-1.5-.576-1.5-1.776 0-1.152.6-1.764 1.452-1.764.576 0 1.032.192 1.5.54l.204-1.296a3.32 3.32 0 0 0-1.776-.492c-1.572 0-2.832 1.032-2.832 3.048 0 1.896 1.14 2.976 2.748 2.976.768 0 1.368-.18 1.92-.552Zm6.096.444v-4.176c0-1.08-.576-1.74-1.656-1.74-.768 0-1.368.408-1.848.852v-3.6l-1.44.228V25h1.44v-3.912c.42-.444.876-.732 1.32-.732.528 0 .744.348.744.852V25h1.44Zm3.086-7.584c0-.492-.384-.84-.852-.84-.48 0-.864.348-.864.84 0 .48.384.816.864.816.468 0 .852-.336.852-.816ZM99.26 25v-5.796h-1.44V25h1.44Zm3.024 0v-8.664l-1.44.228V25h1.44Zm3.023 0v-8.664l-1.44.228V25h1.44Zm3.168-7.584c0-.492-.384-.84-.852-.84-.48 0-.864.348-.864.84 0 .48.384.816.864.816.468 0 .852-.336.852-.816ZM108.33 25v-5.796h-1.44V25h1.44Zm6.467 0v-4.176c0-1.08-.576-1.74-1.656-1.74-.78 0-1.392.42-1.932.936l-.132-.816h-1.224V25h1.44v-3.912c.42-.444.876-.732 1.32-.732.528 0 .744.348.744.852V25h1.44Z" fill="#fff"/>
  <path fill-rule="evenodd" clip-rule="evenodd" d="M51.193 16.914a.562.562 0 0 0-.604.116l-2.376 2.484h-1.66a.543.543 0 0 0-.553.525v3.172c0 .287.248.526.552.526h1.661l2.376 2.484c.159.154.398.201.604.116a.521.521 0 0 0 .342-.488v-8.452a.523.523 0 0 0-.342-.483Zm1.45 1.018v1.047c1.525 0 2.77 1.189 2.77 2.638 0 1.458-1.24 2.646-2.77 2.646v1.048c2.137 0 3.875-1.65 3.875-3.698 0-2.031-1.738-3.681-3.874-3.681Zm0 2.107c.917 0 1.662.71 1.662 1.582 0 .88-.745 1.59-1.661 1.59v-1.055c.304 0 .552-.24.552-.535a.543.543 0 0 0-.552-.526V20.04Z" fill="#B9BBBE"/>
  <g clip-path="url(#a)">
    <path d="M151 40H46v64.985h105V40Z" fill="#A8BFFF"/>
    <path d="M106.792 85.527c3.622-10.638 13.809-12.328 19.089-9.672-.733-5.686 6.629-17.486 20.579-10.286H151v37.462h-43.709l-.499-17.504ZM60.856 86.286c-.991-2.773-5.382-9.72-14.856-8.538v20.431h36.464c-.093-10.317-11.586-15.926-21.608-11.893Z" fill="#C2D2FF"/>
    <path d="M46 104.985h105v-23.81h-18.07v18.875h-6.593v-5.934h-15.083l-27.293-12.65H71.933v-4.2h-5.954v14.96l-3.05-.978-4.158 4.461H46v9.276Z" fill="#648AE8"/>
    <path d="M58.773 98.71H46v1.34h12.773v-1.34Z" fill="#7B6EB3"/>
    <path d="m63.486 105 4.727-4.73h10.293v4.715l-15.02.015ZM146.461 103.031h-26.939V105h26.939v-1.969Z" fill="#6273E3"/>
    <path d="M106.035 54.824a1.414 1.414 0 1 0 0-2.828 1.414 1.414 0 0 0 0 2.828ZM96.378 58.093a1.414 1.414 0 1 0 0-2.828 1.414 1.414 0 0 0 0 2.828ZM83.949 61.416a1.414 1.414 0 1 0-.001-2.829 1.414 1.414 0 0 0 0 2.829ZM75.046 63.077a1.414 1.414 0 1 0 0-2.828 1.414 1.414 0 0 0 0 2.828ZM65.34 64.145a1.414 1.414 0 1 0-.001-2.829 1.414 1.414 0 0 0 0 2.829ZM56.136 63.893a1.414 1.414 0 1 0 0-2.828 1.414 1.414 0 0 0 0 2.828ZM143.645 85.438a1.414 1.414 0 1 0 0-2.828 1.414 1.414 0 0 0 0 2.828Z" fill="#7D2952"/>
    <path d="M149.047 40H46v18.88c20.736 5.516 55.12-2.851 74.11-14.756C126.559 75.659 151 85.46 151 85.46V41.954c0-1.08-.874-1.954-1.953-1.954Z" fill="#7D2952"/>
    <path d="M46 40v3.828c24.319 13.613 56.336 6.31 69.771-3.828H46ZM151 40h-20.853c.813 18.87 9.479 33.59 20.853 41.175V40Z" fill="#70254A"/>
    <path d="M117.19 80.56c-1.223 2.882-3.426 8.39-3.426 8.39l5.587 3.485c2.247-5.252 3.008-8.04 3.375-9.498.364-1.461.598-2.888-1.294-4.048-1.893-1.16-2.953-1.364-4.242 1.67Z" fill="#F073AB"/>
    <path d="m122.089 89.382-3.353 7.708a4.981 4.981 0 0 1-6.639 2.548L99.599 93.94l6.232-9.81 7.616 4.243 1.113-3.333c3.927 1.576 6.032 2.954 7.529 4.342Z" fill="#F7E5BC"/>
    <path d="M107.552 85.644c5.05.828 5.501 1.88 6.854 4.512l-5.411-.601-1.443-3.911Z" fill="#F7E5BC"/>
    <path d="M83.863 43.794A4.112 4.112 0 0 0 81.09 48.7l5.005 20.438 8.95-1.851-6.02-20.715a4.107 4.107 0 0 0-5.162-2.778Z" fill="#D6569B"/>
    <path d="m88.865 64.355 3.523-.151-3.746-12.318a1.338 1.338 0 0 0-2.578.698l2.8 11.771Z" fill="#E374B0"/>
    <path d="M86.957 64.203a2650.606 2650.606 0 0 0-5.098-19.026 4.104 4.104 0 0 0-.77 3.525l3.82 15.59 2.048-.089Z" fill="#F06EA8"/>
    <path d="M104.612 43.694a4.112 4.112 0 0 1 2.825 4.876l-4.793 20.49-8.969-1.756 5.802-20.776a4.11 4.11 0 0 1 5.135-2.834Z" fill="#D6569B"/>
    <path d="m94.85 63.1.83 1.614s3.184-14.055 4.679-19.798a4.114 4.114 0 0 0-.882 1.612L94.85 63.099Z" fill="#F06EA8"/>
    <path d="m101.22 64.306-3.523-.115 3.616-12.357a1.337 1.337 0 0 1 2.586.672l-2.679 11.8Z" fill="#E374B0"/>
    <path d="m106.622 76.267-25.855 1.107a6.725 6.725 0 0 1-7.005-6.435l-.01-.203a6.726 6.726 0 0 1 6.432-7.009l25.854-1.107a6.725 6.725 0 0 1 7.006 6.435l.01.203a6.73 6.73 0 0 1-6.432 7.01Z" fill="#F06EA8"/>
    <path d="M83.854 100.901c-1.529-1.407-3.001-2.739-3.321-3.257-.32-.518.215-.684.984-.95.77-.266 1.428.66 2.2 2.262.772 1.605 1.524 3.223.137 1.945Z" fill="#F2C591"/>
    <path d="m111.254 94.116-1.477 4.635-.186.586-1.804 5.663H74.189c-.34-1.226.064-1.473.923-2.861.73-1.18.408-1.035.542-4.412.093-2.355.933-4.56 4-7.3.923-.81 1.153-1.13 2.105-2.01l.278-.254.161-.144.174-.157 22.958-3.628.003.003 4.622 7.712 1.299 2.167Z" fill="#F7E5BC"/>
    <path d="M108.998 94.133c1.418-3.772 1.474-4.099 1.968-3.007.493 1.092.764 1.038-1.585 4.1-2.352 3.063-.999.542-.383-1.093Z" fill="#E8C282"/>
    <path d="M109.777 98.75a104.58 104.58 0 0 1-.579 6.25H84.496a847.562 847.562 0 0 0 .125-4.232 32.107 32.107 0 0 0 0-1.89c-.152-4.462-1.441-7.52-4.967-8.451a47.35 47.35 0 0 1 2.105-2.01c.093-.086.185-.172.278-.255.11-.098.222-.198.337-.298l22.958-3.628c1.81.677 3.014 1.139 4.386 2.531.142 1.752.215 3.487.237 5.182a90.765 90.765 0 0 1-.178 6.801Z" fill="#1F3A70"/>
    <path d="m105.332 84.236-.32.051c-.18.196-.298.335-.298.335-1.172 4.894-3.658 10.02-3.658 10.02s.13 1.26 1.829-1.173c1.456-2.087 3.194-5.26 3.907-7.943-.483-.435-.969-.865-1.46-1.29ZM84.945 87.88c4.434 5.352 5.953 6.562 7.604 7.66 1.511 1.007.271-.541-1.448-3.077-1.72-2.536-3.712-5.705-3.712-5.705l-2.444 1.121ZM109.691 99.303a104.988 104.988 0 0 1-.506 5.697h-24.69a851.026 851.026 0 0 0 .125-4.231c.01-.325.015-.645.015-.956 0-.239-.005-.474-.012-.708-.003-.076-.003-.152-.005-.227h.002c5.34 1.29 12.366 3.623 13.963 4.17l11.008-3.711.1-.034Z" fill="#172E5C"/>
    <path d="M86.708 90.984s-.222.452-1.18 1.1c-.956.647-1.21.95-1.323.73-.776-1.542-2.002-2.604-3.843-3.09.635-.65 1.336-1.31 2.09-2.004 3.419 1.456 4.256 3.264 4.256 3.264Z" fill="#244AB0"/>
    <path d="m103.308 84.234-4.627 17.37L86.8 84.747l16.507-.513Z" fill="#D4BF9B"/>
    <path d="m101.137 92.379-7.91-2.074c-1.425-.374-.705.122 0 1.001.594.74 4.921 5.7 6.267 7.244l1.643-6.171Z" fill="#CCAC89"/>
    <path d="M89.382 87.532s9.619 1.303 10.849 1.452c1.231.148 1.246-1.163 1.876-3.74l-11.682.85-1.043 1.438Z" fill="#CF518A"/>
    <path d="m108.153 87.063-26.595 1.138a6.357 6.357 0 0 1-.544-12.701l26.594-1.138a6.356 6.356 0 0 1 6.62 6.078 6.353 6.353 0 0 1-6.075 6.623Z" fill="#F06EA8"/>
    <path d="M108.006 87.07c3.409-.146 6.21-2.9 6.229-6.313a6.351 6.351 0 0 0-3.821-5.868 6.712 6.712 0 0 0 2.637-5.63l-.01-.204a6.724 6.724 0 0 0-7.003-6.435l-23.088.987c-2.075 3.975-1.79 8.25-.261 11.326a3.75 3.75 0 0 1 .134 2.995c-2.23 5.922.71 10.188.708 10.188l24.475-1.046Z" fill="#E05FA3"/>
    <path d="M94.947 105H79.92a5.864 5.864 0 0 1 .01-.808c.002-.02.005-.037.005-.057l.031-.239c.023-.149.054-.291.09-.425.025-.083.052-.166.081-.244a2.597 2.597 0 0 1 .493-.819c.028-.029.054-.059.081-.085.354-.369.823-.65 1.395-.892a3.952 3.952 0 0 1 2.185-.244l.315.051c2.923.471 5.45.86 7.587 1.414.105.027.207.059.305.101.298.107.562.256.806.439.049.037.095.074.144.113a7.354 7.354 0 0 1 .276.244l.134.132c.044.046.088.09.132.139l.13.142c.214.244.427.508.644.787.069.087.13.171.183.251Z" fill="#FF8FB1"/>
    <path d="M89.355 75.057c.59-.388.627-1.378.08-2.212-.546-.834-1.468-1.196-2.06-.808-.59.387-.626 1.378-.08 2.212.546.834 1.469 1.195 2.06.808ZM100.936 73.305c.253-.903-.052-1.778-.681-1.953-.628-.176-1.342.413-1.595 1.316-.252.903.053 1.778.681 1.954.629.176 1.343-.414 1.595-1.317Z" fill="#1B1926"/>
    <path d="M77.876 75.657c-1.445-.56-1.81-.709-2.825-1.036a6.766 6.766 0 0 0 2.503 2.086c-.103.076-.195.161-.293.242.786.054 1.294.132 2.007.105 1.39-.049 1.624-.232-1.392-1.397Z" fill="#E05FA3"/>
    <path d="M78.34 67.726c1.072-.977 1.633-2.106 1.255-2.522-.379-.415-1.555.04-2.626 1.016-1.072.977-1.634 2.106-1.255 2.522.378.415 1.554-.04 2.626-1.016Z" fill="#F792C0"/>
    <path d="M76.633 101.563c2.042-.836 2.747-1.168 3.443-1.417.696-.25.098-.506-1.465-1.188-1.563-.681-1.934-.938-2.046.399-.112 1.336-.603 2.482.068 2.206Z" fill="#FAD596"/>
    <path d="M80.667 100.866c-3.497.951-3.531 1.425-3.621 2.033-.142.96-.01 1.16 1.294.183 1.304-.977 2.771-1.805 3.438-2.098.666-.291.322-.506-1.111-.118Z" fill="#F7D08D"/>
    <path d="M85.211 100.84c.67-3.528.582-4.486.894-4.544.313-.059.847.791 1.385 1.908.537 1.116-2.279 2.636-2.279 2.636Z" fill="#172E5C"/>
    <path d="M84.29 101.187c-1.118.139-3.269.168-3.513 3.813h-.855c-.031-.603.015-1.104.135-1.529.024-.083.05-.166.08-.244a2.597 2.597 0 0 1 .493-.819c.027-.029.054-.059.081-.085.354-.369.823-.65 1.394-.892a3.952 3.952 0 0 1 2.186-.244ZM92.561 105c.501-1.104.665-1.837-.063-2.248.474.176.867.455 1.226.797l.134.132c.044.046.088.09.132.139.044.046.086.093.13.142.214.244.427.508.644.786.069.088.13.171.183.252h-2.386Z" fill="#F278B0"/>
    <path d="M91.914 78.046c1.614 2.733 3.975 3.354 5.567-.171a.207.207 0 0 0-.193-.293l-5.203.151a.207.207 0 0 0-.171.313Z" fill="#751B40"/>
    <path d="M87.138 75.674c1.126-2.16 3.306-1.251 3.306-1.251l-1.077 2.401-2.23-1.15ZM98.124 73.917c2.254-.916 3.33 1.188 3.33 1.188l-2.375 1.133-.955-2.32Z" fill="#E05FA3"/>
    <path d="m95.157 77.643-3.079.088a.205.205 0 0 0-.169.31c1.385 2.348 3.321 3.14 4.85 1.09-.271-.47-.752-1.024-1.602-1.488Z" fill="#9C2455"/>
    <path d="M113.464 89.677s1.597 3.84 2.129 5.402c.533 1.563-.217 1.358-1.064 1.224-.848-.137-.94-1.234-1.065-3.267-.122-2.035-.486-4.353 0-3.359ZM115.141 88.646c.257 1.669 1.114 3.203 1.287 3.62.174.418 1.426.14 2.54-.139 1.113-.278.417-.662-.94-1.776-1.355-1.114-3.094-3.063-2.887-1.705Z" fill="#FAD596"/>
    <path d="m65.671 97.659-1.63-.726c-.03-.012-.03-.054 0-.069l1.63-.725a.049.049 0 0 0 .02-.02l.725-1.632c.012-.029.054-.029.069 0l.725 1.632c.005.008.01.015.02.02l1.63.726c.03.012.03.053 0 .068l-1.63.725a.05.05 0 0 0-.02.02l-.725 1.632c-.013.03-.054.03-.069 0l-.725-1.632c-.005-.01-.01-.017-.02-.02Z" fill="#3366E0"/>
    <path d="m118.11 64.663-.766-.342c-.015-.007-.015-.025 0-.032l.766-.342c.005-.002.008-.005.01-.01l.342-.767c.005-.014.025-.014.032 0l.342.767a.02.02 0 0 0 .009.01l.767.342c.015.007.015.025 0 .032l-.767.342a.02.02 0 0 0-.009.01l-.342.767c-.005.015-.025.015-.032 0l-.342-.767c-.002-.005-.005-.01-.01-.01Z" fill="#FAFAFA"/>
    <path d="m71.803 55.133-.767-.343c-.014-.007-.014-.024 0-.031l.767-.342a.019.019 0 0 0 .01-.01l.341-.767c.008-.015.025-.015.032 0l.342.767a.02.02 0 0 0 .01.01l.767.342c.014.007.014.024 0 .032l-.767.342a.02.02 0 0 0-.01.01l-.342.766c-.005.015-.024.015-.032 0l-.341-.767c-.003-.005-.005-.01-.01-.01Z" fill="#F7E5BC"/>
    <path d="M143.647 40h-3.809v65h3.809V40ZM55.87 40h-3.81v65h3.81V40Z" fill="#783837"/>
    <path d="M143.647 40h-3.809v49.516h3.809V40ZM55.87 40h-3.81v29.549h3.81V40Z" fill="#571E2F"/>
    <path d="M119.825 52.677a1.414 1.414 0 1 0 0-2.828 1.414 1.414 0 0 0 0 2.828ZM111.686 52.408a1.414 1.414 0 1 0 0-2.828 1.414 1.414 0 0 0 0 2.828ZM46 60.001v2.827a1.413 1.413 0 1 0 0-2.827ZM121.524 58.714a1.414 1.414 0 1 0 0-2.829 1.414 1.414 0 0 0 0 2.829ZM130.146 72.923a1.414 1.414 0 1 0 0-2.828 1.414 1.414 0 0 0 0 2.828ZM135.182 78.681a1.414 1.414 0 1 0-.002-2.828 1.414 1.414 0 0 0 .002 2.828ZM125.052 65.293a1.414 1.414 0 1 0 0-2.828 1.414 1.414 0 0 0 0 2.828Z" fill="#7D2952"/>
    <path d="M137.074 85.666h-.967v1.918h.967v-1.918ZM147.427 91.956h-.967v1.918h.967v-1.918ZM139.03 93.493h-.967v1.918h.967v-1.918ZM136.59 98.71h-.967v1.917h.967v-1.918ZM122.474 99.667h-.967v1.918h.967v-1.918ZM74.116 88.48h-.967v1.918h.967V88.48ZM60.769 99.667H59.8v1.918h.968v-1.918Z" fill="#5177D6"/>
    <path d="M72.387 76.382H65.5v.887h6.886v-.887ZM130.969 98.71h-4.632v1.34h4.632v-1.34Z" fill="#8F80CF"/>
  </g>
  <g clip-path="url(#b)">
    <path d="M204 44h-49v28h49V44Z" fill="#5E87F9"/>
    <path d="M155 58c4.552-1.21 9.923.38 11.556 3.946 4.889-1.515 10.544 1.297 13.205 4.598H155V58Z" fill="#6E94FF"/>
    <path d="M204 52.895c-2.975-.488-6.485.152-7.553 1.592-3.195-.611-6.891.523-8.63 1.854H204v-3.446Z" fill="#7A9DFF"/>
    <path d="M192.344 68.143c-.919-1.882-.891-1.962-2.512-2.528l2.155 2.997.357-.469Z" fill="#FF707E"/>
    <path d="M167.346 51.474c.03.03.065.06.099.09.07.067.145.13.216.194.029.022.054.047.082.069.063.052.12.102.171.146 3.797 3.167 8.681 4.512 11.981 5.473 4.261 1.241 7.808 1.6 10.468 1.612 3.447-.034 4.145-1.783 2.691-3.86l-.828-.979-4.213-4.975c-.068-.083-.139-.163-.207-.243-2.774-3.201-5.274-4.634-10.525-3.53l-7.987 1.679c-.008.002-.017.002-.025.006-2.791.595-4.099 2.234-1.923 4.318Z" fill="url(#c)"/>
    <path d="M176.541 46.085c-3.192.764-8.661 2.312-8.661 2.312l-1.324.184c.461-.657 1.43-1.152 2.713-1.427.008-.002.017-.002.025-.005l7.987-1.678c2.479-.521 4.341-.471 5.912.057-2.433-.563-3.842-.115-6.652.557ZM179.663 57.85c-2.804-.817-8.798-3.122-11.124-5.379.545.529.007-.423 1.056.073 5.516 2.609 18.045 6.136 20.767 6.515-2.67.151-7.845-.378-10.699-1.21Z" fill="#FFFDC4"/>
    <path d="M166.7 48.398c2.464-.713 8.014-.068 14.163 1.8 6.419 1.95 11.518 4.635 12.882 6.613.161 1.296-.888 2.222-3.383 2.247-2.66-.011-6.206-.37-10.468-1.612-3.299-.961-8.183-2.304-11.981-5.473-.051-.044-.108-.094-.171-.146-.029-.022-.054-.047-.082-.069-.071-.063-.145-.127-.217-.193a2.965 2.965 0 0 1-.099-.09c-1.269-1.217-1.35-2.282-.644-3.077Z" fill="url(#d)"/>
    <path d="M190.406 57.434c.359-1.111-4.193-3.484-10.167-5.3-5.974-1.815-11.108-2.386-11.466-1.275-.359 1.112 4.193 3.484 10.167 5.3 5.974 1.815 11.108 2.386 11.466 1.275Z" fill="#6B3143"/>
    <path d="M168.825 51.264c-.074-.15-.094-.284-.054-.406a.43.43 0 0 1 .105-.171l6.17 2.566-4.624-2.955c.188-.008.387-.008.601 0l4.286 2.777c.173-.032.435-.03.764.001l-2.347-2.494c.285.044.58.096.882.151l1.804 2.382c.365.05.787.126 1.254.23l-1.34-2.256c.262.061.527.122.797.188l.881 2.144c.27.064.552.136.843.216l-.612-2.076c.316.083.637.172.962.266l.29 1.973h-.067a18 18 0 0 1 .229.068l.65-1.718c.245.074.483.149.722.226l-1.126 1.568c.193.06.382.12.566.182l1.619-1.403c.29.1.578.2.856.299l-1.999 1.268c.206.073.402.146.593.219l2.475-1.09c.359.138.708.276 1.043.413l-3.064.86c.263.108.508.215.724.319l4.332-.292c.373.18.72.36 1.042.535h-4.9c.13.073.241.143.336.208l5.969.672c.298.224.532.436.692.63l-6.37-1.047c.043.06.059.114.044.16-.014.04-.055.073-.114.097l6.599 1.587c-.108.14-.313.248-.606.322h-.002l-6.618-1.854a8.894 8.894 0 0 1-1.064-.13l5.274 2.047c-.257-.018-.527-.05-.81-.082h-.006l-5.134-2.096-.185-.042 3.304 1.82a46.12 46.12 0 0 1-1.572-.328h-.003l-2.38-1.647a27.127 27.127 0 0 1-1.29-.36 27.603 27.603 0 0 1-1.525-.51l-2.029.366a46.098 46.098 0 0 1-1.917-.753l3.104.058a.13.13 0 0 0-.016-.007l-4.747-.8-.002-.001a21.707 21.707 0 0 1-1.44-.762l5.249 1.13a6.357 6.357 0 0 1-.338-.19l-6.76-2.478Z" fill="#7A384C"/>
    <path d="M196.366 72h-27.621c.484-.479 1.084-.774 2.024-1.204l2.139-.28.786-.106 1.708-.225 1.293-.17h.003l.771-.101.338-.045 3.195-.42.746-.1 1.205-.158.476-.065.937-.122.225-.029 2.072-.272 4.924-.649.259-.035c.154-.004.298-.004.44 0 2.33.06 3.149 1.071 4.08 3.981Z" fill="#2347A1"/>
    <path d="M192.213 70.948 191.349 72h-5.048l2.81-2.735 1.223.663 1.879 1.02Z" fill="#2A52C2"/>
    <path d="m191.846 68.02-.145.192-.132.172c-.046.056-.093.12-.15.193-.259.33-.629.795-1.084 1.35a110.014 110.014 0 0 1-1.421 1.66c-.121.134-.24.271-.367.412h-17.578c-.142-.733-.199-1.204-.199-1.204v-.004c0-.233.13-.453.341-.569l1.602-.891v-.003h.004l-.01-.114a1.434 1.434 0 0 1-.005-.11 19.026 19.026 0 0 1-.03-.48l-.009-.145c-.006-.091-.009-.159-.013-.2-.003-.032-.003-.05-.003-.05l-.057-.92a1.12 1.12 0 0 1 .451-.968l2.127-1.604.189-.146.584-.438 1.47-1.11.84-.12h.004l1.111-.163h.012l1.498-.213.436-.064 1.124-.16.535-.08.09-.011.292.044.383.058.795.123a2.468 2.468 0 0 1 1.683 1.067l.862 1.3h.003l.063.02h.003l.543.155 1.785.512.362.105c.084.029.165.059.24.087.006 0 .013.004.018.006.479.201.871.564 1.102 1.023l.651 1.288Z" fill="#EF6270"/>
    <path d="M187.686 65c-.427-1.028-.648-2.249-3.323-2.768l-1.969-.285.156 1.557 3.732 2.387 1.404-.89Z" fill="#FF707E"/>
    <path d="m191.846 68.02-.145.192-.132.172c-.045.056-.093.12-.15.193-.259.33-.629.795-1.084 1.35a110.014 110.014 0 0 1-1.421 1.66c-.121.134-.244.274-.37.412H180.3c.193-.655.479-1.65.612-2.218a4.96 4.96 0 0 1 .09-.333c.198-.699.361-1.122-.84-1.306l.123-.604.545-2.691c.004.003.004 0 .004 0l.141-.71v-.006l.108-.514v-.003l.181-.888v-.003l.048-.24 1.124-.16.535-.08.09-.011.292.044.383.058.795.123a2.468 2.468 0 0 1 1.683 1.067l.864 1.3.063.02h.003l.543.155 1.785.512.362.105c.084.029.165.059.24.087.006 0 .013.004.018.006.479.201.871.564 1.102 1.023l.652 1.288Z" fill="#E05164"/>
    <path d="M184.248 65.149c1.344-.981 1.253-.905.51-1.379-.742-.474-1.523-.477-1.523-.477l1.013 1.856Z" fill="#BD3C53"/>
    <path d="M184.59 68.976 182.398 72h-1.659c.903-.941 1.846-1.946 2.689-2.873 1.202-1.323 2.196-2.48 2.569-3.045l-.114.717-.081.508-1.212 1.669ZM187.424 70.846c-.313.292-.786.669-1.442 1.154h-2.061c.974-.391 2.244-.967 3.073-1.473 1.261-.771 1.096-.291.43.319Z" fill="#E05164"/>
    <path d="M174.766 65.456c-1.484 1.263-2.233.926 1.291 5.608l.849-.538 2.454-2.678-3.121-3.813-1.473 1.421Z" fill="#C74153"/>
    <path d="M175.227 52.886c.086-.283 2.11.052 4.519.748 2.409.697 4.291 1.49 4.205 1.774-.494 3.894-.422 7.342.297 9.74l-7.341 5.38c-3.083-7.186-2.144-13.556-1.68-17.642Z" fill="#FFB685"/>
    <path d="m178.469 62.778 2.838-.05.313 1.612c-1.114 1.09-2.752.656-3.577-.058-1.1.918-2.164.91-2.916.1a.489.489 0 0 0-.022-.024 28.467 28.467 0 0 1-.187-1.33c1.168-.33 3.551-.25 3.551-.25Z" fill="#FE9B77"/>
    <path d="M181.307 67.113c-.704-4.683-.541-10.309-.449-13.138 1.849.597 3.165 1.195 3.092 1.433-.494 3.894-.422 7.343.297 9.74l-2.94 1.965Z" fill="#FE9B77"/>
    <path opacity=".4" d="M175.227 52.886c.086-.283 2.11.052 4.519.748 2.409.697 4.292 1.49 4.205 1.774-.063.498-.117.99-.162 1.472-2.622-.305-6.263.089-9.023.91.092-1.86.303-3.514.461-4.904Z" fill="#A8387E"/>
    <path d="m177.916 46.982-1.37.255.402.625.968-.88Z" fill="#FFCD8F"/>
    <path d="M180.261 60.638c.162-.28.123-.6-.088-.715-.21-.114-.512.021-.674.302-.161.281-.122.602.089.715.21.114.512-.02.673-.302Z" fill="#543247"/>
    <path d="M181.617 45.68s-.698-.053-1.01.179c.348.392 1.01-.178 1.01-.178Z" fill="#FFD08F"/>
    <path d="M179.363 45.673c-1.508-.347-1.635.417-1.635.417l1.635-.417Z" fill="#FFFDC4"/>
    <path d="M190.425 54.69c-.074.53-1.3.875-1.3.875l.502.372c1.271-.029 1.595-.65 1.595-.65s-.222-.267-.797-.597ZM193.661 56.993c-.204.579-2.809.231-2.809.231l-.086.298c1.924.33 2.758.165 2.758.165s.113-.17.137-.694Z" fill="#D4655B"/>
    <path d="M184.058 51.567c-.145.685-1.016 1.143-1.016 1.143l-1.413-.422c.398-.545.572-1.306.572-1.306s.969.25 1.857.585Z" fill="#DC7363"/>
    <path d="M174.727 71.98a.781.781 0 0 0-.03.02h-1.446a44.918 44.918 0 0 1-.343-1.485 10.458 10.458 0 0 1-.196-1.183v-.003a1.506 1.506 0 0 1-.006-.114 1.432 1.432 0 0 1-.005-.11 18.997 18.997 0 0 1-.03-.48l-.009-.145c-.006-.091-.009-.159-.013-.2-.003-.031-.003-.05-.003-.05.256.746.647 1.511 1.048 2.181a20.8 20.8 0 0 0 1.033 1.569Z" fill="#D14658"/>
    <path d="M189.472 65.51c-.687.912-1.714 2.06-2.81 3.194A62.276 62.276 0 0 1 183.241 72h-1.168a72.28 72.28 0 0 0 2.292-2.995 54.91 54.91 0 0 0 1.517-2.206c.241-.365.47-.73.684-1.087v-.003c.181-.3.352-.593.512-.882.012.012.029.017.063.017h.003l.542.155 1.786.51Z" fill="#CC4355"/>
    <path d="m185.649 64.825-3.637 3.406-.705 2.98 3.993-4.903.349-1.483Z" fill="#E65568"/>
    <path d="m176.681 69.981 7.494-5.086.128-.105c.218-.187.39-.181-.056.357l-7.341 5.38c-.078-.182-.151-.364-.225-.546Z" fill="#BD3C53"/>
    <path d="m195.066 49.397-.945-.408c-.017-.008-.017-.031 0-.038l.945-.408a.024.024 0 0 0 .012-.011l.42-.917c.008-.016.032-.016.039 0l.42.917c.003.004.006.009.012.011l.944.408c.017.008.017.03 0 .038l-.944.408a.024.024 0 0 0-.012.01l-.42.917c-.008.017-.032.017-.039 0l-.42-.916c-.004-.005-.007-.01-.012-.011Z" fill="#FF99B9"/>
    <path d="m162.598 63.72-.944-.408c-.017-.008-.017-.031 0-.038l.944-.408a.024.024 0 0 0 .012-.01l.42-.917c.008-.017.032-.017.039 0l.42.916c.003.005.006.01.012.011l.945.408c.017.008.017.031 0 .038l-.945.408a.024.024 0 0 0-.012.01l-.42.917c-.008.017-.032.017-.039 0l-.42-.916c-.004-.006-.007-.01-.012-.011Z" fill="#5580F9"/>
    <path d="M190.337 51.99c-1.512-1.335-2.784-1.889-2.784-1.889 1.421.278 2.429.73 2.784 1.889Z" fill="#EB9363"/>
    <path d="m174.958 46.09-2.412.504c.283-.525.604-.622 2.412-.504Z" fill="#FFFDC4"/>
    <path d="M179.304 64.065c-.984.007-1.929-.017-2.232.227-.305.244.174.805.905 1.339.31.226.462.25 1.231-.402.556-.47.857-1.17.096-1.164Z" fill="#C74153"/>
    <path d="m178.902 64.112.831.13c.115.239-.145.665-.525.987-.769.651-.92.628-1.23.401a5.607 5.607 0 0 1-.34-.268c.128-.283.528-1.023 1.264-1.25Z" fill="#A82C3C"/>
    <path d="M177.412 64.154c.44-.097 1.155-.083 1.892-.089.419-.003.515.208.425.477-.453.01-2.083.05-2.26.05-.127 0-.098-.248-.057-.438Z" fill="#fff"/>
    <path d="M174.119 62.798c-.223-.394-.097-1.012.39-1.328a.524.524 0 0 0 .41.705c.269.049.777-.052.989-.13.61-.227 1.288-.236 2.115.172 1.11-.58 1.868-.07 2.884-.07.278 0 .553-.041.82-.112.854-.242.834-.642.649-1.066 1.216.282 1.162 1.538.623 2.094-.313.384-.911.56-1.697.378-1.23 1.009-1.839 1.085-3.278.178-1.177.961-2.307.853-2.975-.334-.002 0-.688-.06-.93-.487Z" fill="#6B3143"/>
    <path d="M178.022 63.62c-1.177.96-2.308.852-2.975-.334 0 0-1.064-.088-1.034-.88.127.311.686.61 1.215.497.846.672 1.744.468 2.591-.157 0 0 1.779.925 3.051-.097 1.445.351 2.472-.297 2.298-1.179.342.5.201 1.212-.17 1.593-.313.384-.911.56-1.698.378-1.229 1.009-1.839 1.085-3.278.178Z" fill="#5E2737"/>
    <path d="M176.88 60.95c.211-.088.282-.387.159-.667-.124-.281-.395-.438-.605-.351-.211.087-.282.386-.159.666.124.281.395.438.605.351Z" fill="#543247"/>
  </g>
  <g clip-path="url(#e)">
    <path d="M204 74h-49v28.982h49V74Z" fill="#F7E5BC"/>
    <path d="M204 90.197v12.785h-49V87.863c5.538-4.64 12.763-1.182 13.254 2.781 6.521-2.376 11.508.063 12.837 3.42 4.974-3.05 10.373-2.865 13.179 0 2.383-3.307 7.54-4.684 9.73-3.867Z" fill="#6ADBC6"/>
    <path d="M185.099 93.315c5.395.03 10.008 2.618 12.232 9.685h-16.24l4.008-9.685Z" fill="#44C9C5"/>
    <path d="M190.664 102.981H204v-6.213c-3.236.323-9.101 1.567-13.336 6.213Z" fill="#44C9C5"/>
    <path d="M194.022 100.049h-29.104c-1.839 1.753-1.934 2.933-1.934 2.933h33.208s-.896-1.938-2.17-2.933Z" fill="#FAFAFA"/>
    <path d="M194.699 101.327a.524.524 0 0 0 .115-.673c-.425-.701-.561-1.247-1.513-1.75-1.112-.588-1.58-1.118-4.498-1.493-.594-1.535-.475-1.995-4.882-2.347h-12.195c-1.999.33-2.139.33-2.488 1.513-.348 1.183-.348 1.042-1.397 1.463-1.048.421-2.672.51-3.302 1.905-.206.454-.288.782.906 3.036h26.874a15.957 15.957 0 0 0 2.38-1.654Z" fill="#CC4F79"/>
    <path d="M185.099 95.557c2.102.37 2.029.37.596 2.048-1.434 1.679-3.232 3.247-5.274 4.078-3.187 1.297-5.925.081-7.583-1.862-2.415-2.831-3.459-4.266-1.415-4.266 2.737.002 13.676.002 13.676.002Z" fill="#590942"/>
    <path d="m191.395 79.636-.945-.422c-.017-.008-.017-.032 0-.039l.945-.422c.004-.002.009-.006.011-.011l.42-.95c.008-.016.032-.016.039 0l.421.95a.02.02 0 0 0 .011.01l.945.423c.017.008.017.032 0 .04l-.945.421a.02.02 0 0 0-.011.012l-.421.949c-.008.017-.032.017-.039 0l-.42-.95a.02.02 0 0 0-.011-.01Z" fill="#FAFAFA"/>
    <path d="m164.844 80.985-.62-.277a.014.014 0 0 1 0-.025l.62-.277a.01.01 0 0 0 .007-.007l.276-.622c.004-.012.02-.012.025 0l.276.622a.01.01 0 0 0 .007.007l.619.277a.013.013 0 0 1 0 .025l-.619.277a.01.01 0 0 0-.007.007l-.276.623c-.005.011-.021.011-.025 0l-.276-.623a.015.015 0 0 0-.007-.007Z" fill="#F7D78D"/>
    <path d="M173.103 86.273c-.821-2.29-2.246-3.968-2.934-4.275-.689-.307-.512.082.129 2.012.642 1.93.649 5.11 1.833 5.128 1.184.018.972-2.865.972-2.865Z" fill="#2E64E8"/>
    <path d="M171.603 86.868c-.489-.983-.523-1.46-.715-2.204a99.42 99.42 0 0 0-.379-1.404c.596 1.067 1.628 3.435 1.846 4.183.221.778-.259.41-.752-.575Z" fill="#1C4BBA"/>
    <path d="M183.925 86.419c1.156-2.44 3.013-4.171 3.875-4.459.863-.287.621.124-.293 2.183-.914 2.058-1.134 5.521-2.584 5.462-1.45-.06-.998-3.186-.998-3.186Z" fill="#2E64E8"/>
    <path d="M179.591 79.884a2.407 2.407 0 0 0 2.402-2.412 2.407 2.407 0 0 0-2.402-2.412 2.408 2.408 0 0 0-2.402 2.412 2.408 2.408 0 0 0 2.402 2.412Z" fill="#201E2F"/>
    <path d="M181.896 78.106c.082-.62-.918-1.265-2.233-1.44-1.315-.176-2.448.185-2.53.806-.082.62.918 1.265 2.233 1.44 1.315.175 2.448-.186 2.53-.806Z" fill="#41314A"/>
    <path d="M183.61 79.405c-2.479-2.338-6.562-2.638-9.362-.616-2.675 1.932-2.223 5.186-1.763 8.656l11.859.343c.489-1.889 1.746-6.044-.734-8.383Z" fill="#4D7AE8"/>
    <path d="m184.612 86.756-11.982-.347c-2.198 4.852-4.385 13.877 5.497 14.163 9.414.272 8.689-8.337 6.485-13.816Z" fill="#4D7AE8"/>
    <path d="M184.612 86.757c.522-2.109 1.092-5.378-1.001-7.351-.072-.068-.151-.128-.225-.193l-.626-.019s.267 4.088.045 5.707c-.223 1.62-.14 1.797.355 2.021.623.282.95.48.852 2.56-.097 2.079-.218 2.357.237 4.827.453 2.463-.152 4.05-1.445 5.36 4.361-2.317 3.548-8.587 1.808-12.912Z" fill="#2E64E8"/>
    <path d="M175.358 96.112c1.29 1.748 4.802 2.197 6.232.065.714-1.066-1.176-1.124-3.089-1.112-1.912.011-3.849.091-3.143 1.047Z" fill="#3366E0"/>
    <path d="M180.28 87.012c.029-1.029-.736-1.885-1.709-1.913-.973-.029-1.786.782-1.816 1.81-.029 1.03.736 1.886 1.709 1.914.973.028 1.786-.783 1.816-1.811Z" fill="#DBE7FF"/>
    <path d="M179.189 87.254c.019-.396-.271-.73-.646-.748-.375-.018-.694.288-.713.683-.019.395.271.73.646.748.375.018.695-.288.713-.683ZM176.615 83.732c.746-1.56 3.474-1.4 4.108.119l-4.108-.12Z" fill="#201E2F"/>
    <path d="M175.93 90.237c.116.033.228.069.334.11l.332.089.33.078c.11.02.223.03.332.05.444.052.894.069 1.338-.004.45-.034.888-.163 1.315-.315l.319-.126.309-.151.309-.16c.096-.063.196-.124.303-.181l.038-.02a.847.847 0 0 1 1.149.35.857.857 0 0 1-.025.848 4.15 4.15 0 0 1-1.476 1.422 5.177 5.177 0 0 1-1.959.661 5.029 5.029 0 0 1-2.074-.18 4.008 4.008 0 0 1-1.763-1.074.854.854 0 0 1 .844-1.41l.045.013Z" fill="#400015"/>
    <path d="M175.569 92.088c.371.271.789.488 1.234.62a5.03 5.03 0 0 0 2.074.179 5.158 5.158 0 0 0 1.959-.662c.429-.246.813-.57 1.13-.948-.588-.563-1.164-.942-1.715-1.17l-.023.01-.319.126c-.428.154-.866.283-1.315.315-.444.073-.894.056-1.338.003-.109-.017-.222-.028-.332-.049l-.036-.008a4.416 4.416 0 0 0-1.319 1.584Z" fill="#590942"/>
    <path d="m181.727 90.69.033-1.164a.845.845 0 0 0-.572.08l-.038.02a3.942 3.942 0 0 0-.303.18l-.309.16-.309.152-.319.126c-.428.153-.866.282-1.315.315-.444.073-.894.056-1.337.003-.11-.017-.223-.029-.333-.05l-.33-.077-.332-.088a3.173 3.173 0 0 0-.334-.111l-.045-.013a.85.85 0 0 0-.34-.017l-.017.596c2.266 1.103 4.827.483 6.2-.112Z" fill="#DBE7FF"/>
    <path d="m176.364 90.374-.1-.026a3.173 3.173 0 0 0-.334-.111l-.044-.013a.856.856 0 0 0-.341-.017l-.017.596c.237.116.477.207.718.287l.118-.716ZM180.459 91.123c.485-.126.915-.28 1.269-.433l.033-1.163a.845.845 0 0 0-.572.079l-.038.02a3.91 3.91 0 0 0-.303.181l-.309.16-.118.059.038 1.097Z" fill="#B5CDFF"/>
    <path d="m181.333 88.578 1.752.877c.032-1.062-.854-1.181-1.752-.877ZM173.676 90.927l1.624-1.605c-1.236-.03-1.724.796-1.624 1.605ZM174.641 92.565a64.033 64.033 0 0 0 1.112 1.498c-1.12-.096-1.112-1.498-1.112-1.498Z" fill="#3366E0"/>
    <path d="M183.61 79.405c-2.48-2.338-6.563-2.638-9.362-.616-1.288.93-1.848 2.17-2.033 3.59 1.547 1.182 1.717-.887 2.361-3.04 2.3 1.882 5.79 1.898 8.024.231l.096 1.819c.092 1.768 1.282 1.968 2.345 1.035-.137-1.114-.544-2.183-1.431-3.02Z" fill="#201E2F"/>
    <path d="M175.909 82.214c.292-.298.402-.664.248-.816-.155-.153-.517-.036-.809.262-.291.298-.402.664-.247.817.155.152.516.035.808-.263Z" fill="#618AED"/>
    <path d="M187.093 83.133c-.973 1.43-1.357 2.217-1.651 2.806-.294.59.003.668.099 1.39.094.722.313.38.614-.84s.457-1.666.75-2.331c.293-.666.8-1.923.188-1.025Z" fill="#1C4BBA"/>
    <path d="M188.588 97.989c-.559 1.499-2.038 4.993-2.038 4.993h-4.34c2.3-1.611 4.048-3.424 4.835-4.829.748-1.336.943-2.222 1.538-.666a.71.71 0 0 1 .005.502ZM187.786 102.982c2.087-2.48 2.77-3.326 3.332-3.649.561-.322 1.486-.806.482.726s-2.691 2.923-2.691 2.923h-1.123ZM173.391 102.982c-1.621-1.96-2.732-3.886-3.152-4.949-.42-1.063-.552-1.328-.652-.73-.099.597-.33.865-.132 1.695.198.83.885 3.054 1.302 3.985h2.634v-.001ZM166.725 102.985l-.641-.003c-.73-1.86-1.028-2.699-1.055-3.312-.026-.61.701 1.44 1.696 3.315ZM169.38 103l-1.347-.006c-.352-2.687-.352-3.214-.27-3.97.082-.755.46-.103.734 1.256.269 1.358.883 2.72.883 2.72Z" fill="#BA3B66"/>
    <path d="M163.98 97.731c1.192-1.94 2.479-2.893 4.051-3.746 1.571-.854 1.765-1.352.604-1.75-1.162-.395-2.139-.233-3.516.334-1.376.566-2.363.909-2.78 2.535-.419 1.626.166 2.605 1.641 2.627Z" fill="#542113"/>
    <path d="M164.375 95.699c.744-3.13 1.25-5.49 1.73-7.619.479-2.128 1.014-3.372.185-3.752-.83-.38-1.258-.237-2.348 2.188-1.089 2.425-1.555 4.18-1.912 5.432-.358 1.255-1.538 4.691 2.345 3.75Z" fill="#542113"/>
    <path d="m162.828 90.805-.714-.112c.379-4.14.592-5.903.681-7.092.089-1.19-.401-1.213-1.151-1.251-.75-.038-1.025.284-1.361 1.84-.338 1.558-.73 4.25-.869 5.311-.139 1.06-.404 3.513-.385 4.298.018.785 3.798 1.137 3.799-2.995Z" fill="#542113"/>
    <path d="M159.342 91.842c.116-1.615-.131-5.915-.151-6.713-.019-.798-.31-.72-.988-.74-.678-.019-.968.292-1.065 2.18-.097 1.887-.233 3.93-.213 4.884a9.595 9.595 0 0 0-.543 4.182c.136 1.5.33 1.907.601 2.374.271.467 1.898.992 3.991 1.206 2.092.214 2.271-.091 3.004-1.485.734-1.394-.641-5.111-.641-5.111l-3.995-.777Z" fill="#542113"/>
    <path d="M156.52 96.715c-.309.716-.922 2.433-1.505 4.115a2.408 2.408 0 0 0 2.389 2.151h5.847c-.011-.184-.174-2.941.372-4.602 0 0-6.41-3.27-7.103-1.664Z" fill="#542113"/>
    <path d="M163.623 93.487c-1.347.855-1.713 1.277-2.043 1.864-.332.587-.659.657-1.874.68-1.215.025-1.238.048-1.588-1.407-.35-1.454.171-2.071 1.495-2.017 1.752.07 4.82.424 4.01.88ZM157.49 90.982h4.502c-1.392-.637-3.353-.558-4.502 0ZM162.809 91.184c.664.25 1.985.808 1.985.808-.96-1.416-1.985-.808-1.985-.808ZM163.535 88.144c.696.14 2.09.475 2.09.475-1.175-1.24-2.09-.475-2.09-.475ZM160.135 87.16c.653.056 1.968.223 1.968.223-1.264-1.084-1.968-.224-1.968-.224ZM157.377 88.163c.545-.071 1.651-.17 1.651-.17-1.24-.67-1.651.17-1.651.17Z" fill="#4A1A0D"/>
    <path d="M169.259 92.566c-1.055.8-2.611.958-4.1 1.724-1.491.767-1.756 1.573-2.175 2.7-.264.71-.504 1.662-.646 2.268.87-.09 1.114-.527 1.641-1.528 1.192-1.941 2.48-2.893 4.051-3.747 1.168-.633 1.574-1.071 1.229-1.417Z" fill="#732D1A"/>
    <path d="M163.623 98.38c.11-.184.224-.398.355-.649.072-.116.144-.23.217-.34l-.001.002c-.736.99-2.677 1.206-4.336 1.313-1.659.107-3.036-.417-3.339-1.989-.197.46-.892 2.227-1.519 3.88v2.385h8.251c-.011-.184-.174-2.94.372-4.603Z" fill="#4A1A0D"/>
    <path d="M166.304 84.337c.092.293.131.7.02 1.223-.218 1.043-.699 3.06-1.744 7.23l.516-.199c.384-1.692.702-3.15 1.009-4.51.475-2.114 1.005-3.354.199-3.744ZM162.795 83.6c-.09 1.184-.303 3.01-.682 7.102l-.307-.07.499-8.2c.355.109.547.383.49 1.169Z" fill="#732D1A"/>
    <path d="m197.484 95.557 3.613-2.634c-1.143-.116-3.384 0-3.613 2.634Z" fill="#44C9C5"/>
  </g>
  <path d="m193.636 11.38-.091.087c-.273.259-.627.25-.886-.023l-1.121-1.181c-.259-.273-.25-.627.023-.886l.091-.086c.272-.259.626-.25.885.023l1.122 1.181c.258.273.249.627-.023.886ZM198.553 16.56l-.091.085c-.272.26-.627.25-.886-.023l-1.121-1.18c-.259-.273-.25-.627.023-.886l.091-.086c.272-.26.627-.25.885.022l1.122 1.182c.259.272.25.626-.023.885ZM196.642 11.636l-.086-.091c-.259-.273-.25-.627.023-.886l1.181-1.121c.272-.26.627-.25.885.023l.087.09c.259.273.249.627-.023.886l-1.181 1.121c-.182.173-.627.25-.886-.022ZM191.463 16.553l-.086-.09c-.259-.274-.249-.628.023-.887l1.181-1.121c.273-.259.627-.25.886.023l.086.09c.259.273.25.628-.023.886l-1.181 1.122c-.182.172-.627.25-.886-.023Z" fill="#7984F5"/>
  <path d="m162.982 6.424-1.886 3.955c-.396.89.497 1.878 1.489 1.483l3.969-1.879c.297-.099.595-.099.892 0l3.969 1.879c.893.395 1.885-.495 1.489-1.483l-1.886-3.955a1.37 1.37 0 0 1 0-.89l1.886-3.955c.396-.89-.497-1.878-1.489-1.483l-3.969 1.879a1.378 1.378 0 0 1-.892 0L162.585.096c-.893-.395-1.885.494-1.489 1.483l1.886 3.955c.198.297.198.593 0 .89Z" fill="#FFD836"/>
  <defs>
    <clipPath id="a">
      <path fill="#fff" transform="translate(46 40)" d="M0 0h105v65H0z"/>
    </clipPath>
    <clipPath id="b">
      <path fill="#fff" transform="translate(155 44)" d="M0 0h49v28H0z"/>
    </clipPath>
    <clipPath id="e">
      <path fill="#fff" transform="translate(155 74)" d="M0 0h49v29H0z"/>
    </clipPath>
    <linearGradient id="c" x1="177.235" y1="46.283" x2="181.956" y2="58.819" gradientUnits="userSpaceOnUse">
      <stop stop-color="#FFC285"/>
      <stop offset="1" stop-color="#DB8D6B"/>
    </linearGradient>
    <linearGradient id="d" x1="193.762" y1="53.586" x2="166.256" y2="53.586" gradientUnits="userSpaceOnUse">
      <stop stop-color="#D67569"/>
      <stop offset="1" stop-color="#E39E7F"/>
    </linearGradient>
  </defs>
</svg>
