<svg width="382" height="240" fill="none" xmlns="http://www.w3.org/2000/svg"><path d="M99.232 20.275c4.171-3.168 5.09-8.99 2.053-13.005-3.038-4.015-8.882-4.702-13.053-1.535-4.171 3.168-5.09 8.99-2.053 13.005 3.038 4.015 8.882 4.702 13.053 1.535Z" fill="#EB459F"/><path d="M123.124 19.215c.79-8.88-6.28-16.767-15.79-17.615-9.51-.85-17.86 5.662-18.65 14.542-.789 8.88 6.28 16.766 15.791 17.615 9.51.849 17.86-5.662 18.649-14.542Z" fill="#8CD9FF"/><path d="M107.284 1.59a18.086 18.086 0 0 1 9.819 3.964c-.327.417-1.294 3.056.67 6.603l-4.091 1.953s-6.948-13.027-19.46-8.526a17.832 17.832 0 0 1 13.062-3.995Z" fill="#3F99F2"/><path d="m126.446 3.26-2.023 15.292 5.4 4.144-20.412-2.325 17.035-17.112Z" fill="#000"/><path d="M111.39 15.825a13.407 13.407 0 0 1 4.895-5.843l10.191-6.723-15.562 16.396 18.939 3.086-8.227 1.132c-2.45.36-4.952-.018-7.186-1.088l-5.029-2.414 1.979-4.546Z" fill="#FFE75C"/><path d="M100.336 10.534c-.49.163-.937.223-1.28.313-.259.063-.513.148-.758.253-.213.063-.41.17-.58.313-.268.194-.536.507-.938.864l-.06.09a.684.684 0 0 1-.966 0 .971.971 0 0 1-.134-.239 2.613 2.613 0 0 1 0-1.893 2.89 2.89 0 0 1 1.488-1.624 3.09 3.09 0 0 1 2.112-.164 2.975 2.975 0 0 1 1.488 1.058.671.671 0 0 1-.327 1.028h-.045Z" fill="#000"/><path d="M98.625 17.166c.61 2.713.982 5.68 2.276 5.38 1.294-.297 2.976-3.725 2.395-6.438a4.32 4.32 0 0 0-4.627-3.384c-1.294.284-.654 1.73-.044 4.442Z" fill="#fff"/><path d="M114.927 13.967c.338-.668.373-1.33.08-1.48-.294-.148-.805.273-1.143.942-.337.668-.373 1.33-.079 1.48.293.148.805-.273 1.142-.942Z" fill="#FFAB18"/><mask id="a" style="mask-type:alpha" maskUnits="userSpaceOnUse" x="86" y="2" width="14" height="23"><path d="M99.413 2.604s-12.036 8.944-9.268 21.509a5.745 5.745 0 0 1-3.318-5.232 18.93 18.93 0 0 1 1.855-8.526 18.892 18.892 0 0 1 5.48-6.782 5.754 5.754 0 0 1 4.463-1.103l.788.134Z" fill="#FF78B9"/></mask><g mask="url(#a)"><path d="M99.413 2.604s-12.036 8.944-9.268 21.509a5.745 5.745 0 0 1-3.318-5.232 18.93 18.93 0 0 1 1.855-8.526 18.892 18.892 0 0 1 5.48-6.782 5.754 5.754 0 0 1 4.463-1.103l.788.134Z" fill="#FF78B9"/><path d="M98.029 6.078s-4.18-2.147-7.439 0M94.815 10.58l-5.802-2.132M92.422 15.676c-.268-.104-3.958-1.237-5.356-3.696M86.306 16.274a15.246 15.246 0 0 0 5.326 4.889" stroke="#EB459F" stroke-width=".82" stroke-miterlimit="10" stroke-linecap="round"/></g><path d="M103.4 17.509c-.312-.835-.788-1.386-1.339-1.386-.952 0-1.711 1.58-1.711 3.532a5.207 5.207 0 0 0 .7 2.817c1.041-.417 2.276-2.698 2.35-4.963Z" fill="#000"/><path d="M45.586 109.295a35.41 35.41 0 0 1 12.025 7.64 35.477 35.477 0 0 1 8.05 11.767 35.53 35.53 0 0 1-.184 27.947 33.527 33.527 0 0 1-8.001 11.566 33.407 33.407 0 0 1-39.384 4.711 35.76 35.76 0 0 1-16.223-19.694 35.835 35.835 0 0 1 1.018-25.514 33.744 33.744 0 0 1 17.673-17.764 33.656 33.656 0 0 1 25.026-.659Z" fill="#FF78B8"/><path d="M30.737 120.788c1.423-3.508-1.256-7.912-5.984-9.836-4.727-1.924-9.713-.64-11.135 2.868-1.423 3.509 1.256 7.912 5.983 9.836 4.728 1.924 9.713.64 11.136-2.868ZM23.87 137.48c1.5-3.699-1.185-8.285-5.996-10.243-4.811-1.958-9.927-.547-11.427 3.152-1.5 3.699 1.184 8.285 5.995 10.243 4.811 1.958 9.927.547 11.427-3.152Z" fill="#fff" stroke="#5865F2" stroke-width="1.79" stroke-miterlimit="10"/><path d="M20.308 132.77c.172-1.056-.807-2.095-2.186-2.319-1.379-.224-2.635.45-2.807 1.506-.171 1.056.808 2.095 2.187 2.319 1.378.225 2.635-.45 2.806-1.506ZM28.136 118.895c.432-.86-.229-2.067-1.476-2.697-1.248-.629-2.61-.442-3.042.418-.432.86.228 2.068 1.476 2.697 1.248.63 2.61.443 3.042-.418Z" fill="#000"/><path d="m15.741 126.302 1.666-3.86" stroke="#5865F2" stroke-width="1.79" stroke-miterlimit="10"/><path d="m26.795 131.489 3.08-5.962a1.228 1.228 0 0 1 .808-.613 1.226 1.226 0 0 1 .992.211c2.484 1.878 7.245 6.483-3.645 8.108a1.19 1.19 0 0 1-1.235-1.744Z" fill="#000"/><path d="M31.824 129.239a9.381 9.381 0 0 0-2.336 3.727c6.04-1.222 5.951-3.578 4.538-5.515-.807.5-1.547 1.101-2.202 1.788Z" fill="#E53794"/><path d="M363.105 25.364H47.895C41.325 25.364 36 30.703 36 37.288v190.788C36 234.661 41.325 240 47.895 240h315.21c6.57 0 11.895-5.339 11.895-11.924V37.289c0-6.586-5.325-11.925-11.895-11.925Z" fill="#292B2F"/><path d="M174.368 25.364h-88.79v214.635h88.79V25.364Z" fill="#202225"/><path d="M85.71 25.364H46.88a11.89 11.89 0 0 0-8.416 3.492 11.935 11.935 0 0 0-3.486 8.432v190.787c0 3.163 1.254 6.196 3.486 8.432a11.891 11.891 0 0 0 8.416 3.492h38.83V25.364Z" fill="#18191C"/><path d="M34.978 87.579h1.978A1.961 1.961 0 0 1 38.79 88.8c.098.242.148.5.146.761v27.784a1.984 1.984 0 0 1-1.979 1.922h-1.978V87.579Z" fill="#fff"/><path d="M68.35 87.579H52.52c-4.38 0-7.93 3.557-7.93 7.944v15.859c0 4.388 3.55 7.945 7.93 7.945h15.83c4.38 0 7.93-3.557 7.93-7.945V95.523c0-4.387-3.55-7.944-7.93-7.944Z" fill="#EB459E"/><path d="M60.435 78.8c8.75 0 15.844-7.108 15.844-15.874 0-8.768-7.093-15.875-15.844-15.875S44.59 54.158 44.59 62.925 51.684 78.8 60.435 78.8ZM200.255 70.096c8.751 0 15.845-7.108 15.845-15.875s-7.094-15.874-15.845-15.874c-8.751 0-15.845 7.107-15.845 15.874s7.094 15.875 15.845 15.875ZM60.435 159.839c8.75 0 15.844-7.107 15.844-15.874s-7.093-15.875-15.844-15.875-15.845 7.108-15.845 15.875 7.094 15.874 15.845 15.874ZM46.88 25.364c-.759-.002-1.516.073-2.26.223a15.872 15.872 0 0 0 4.873 10.873 15.814 15.814 0 0 0 11.057 4.401 15.815 15.815 0 0 0 10.993-4.556 15.873 15.873 0 0 0 4.721-10.941H46.881Z" fill="#2F3136"/><path d="M81.844 79.574h92.494" stroke="#18191C" stroke-width="3" stroke-miterlimit="10"/><path d="M358.093 197.982H191.016c-3.55 0-6.427 2.883-6.427 6.439v18.304c0 3.556 2.877 6.439 6.427 6.439h167.077c3.55 0 6.427-2.883 6.427-6.439v-18.304c0-3.556-2.877-6.439-6.427-6.439ZM315.126 38.332h-84.015a5.67 5.67 0 0 0-5.668 5.671 5.67 5.67 0 0 0 5.668 5.672h84.015a5.67 5.67 0 0 0 5.668-5.672 5.67 5.67 0 0 0-5.668-5.671ZM315.126 112.694h-84.015a5.67 5.67 0 0 0-5.668 5.671 5.67 5.67 0 0 0 5.668 5.672h84.015a5.67 5.67 0 0 0 5.668-5.672 5.67 5.67 0 0 0-5.668-5.671ZM156.752 46.067h-34.65c-3.608 0-6.532 2.93-6.532 6.543v.015c0 3.614 2.924 6.544 6.532 6.544h34.65c3.607 0 6.531-2.93 6.531-6.544v-.015c0-3.613-2.924-6.543-6.531-6.543ZM156.99 95.3h-53.292c-3.607 0-6.531 2.929-6.531 6.543v.015c0 3.614 2.924 6.543 6.531 6.543h53.292c3.607 0 6.532-2.929 6.532-6.543v-.015c0-3.614-2.925-6.544-6.532-6.544ZM156.99 121.547h-53.292c-3.607 0-6.531 2.93-6.531 6.544v.015c0 3.614 2.924 6.543 6.531 6.543h53.292c3.607 0 6.532-2.929 6.532-6.543v-.015c0-3.614-2.925-6.544-6.532-6.544ZM156.99 147.796h-53.292c-3.607 0-6.531 2.929-6.531 6.543v.015c0 3.614 2.924 6.543 6.531 6.543h53.292c3.607 0 6.532-2.929 6.532-6.543v-.015c0-3.614-2.925-6.543-6.532-6.543Z" fill="#fff" fill-opacity=".06"/><path d="M200.255 144.442c8.751 0 15.845-7.107 15.845-15.874s-7.094-15.874-15.845-15.874c-8.751 0-15.845 7.107-15.845 15.874s7.094 15.874 15.845 15.874Z" fill="#2F3136"/><path d="M103.535 59.229c3.649 0 6.606-2.963 6.606-6.618 0-3.655-2.957-6.618-6.606-6.618-3.648 0-6.605 2.963-6.605 6.618 0 3.655 2.957 6.618 6.605 6.618Z" fill="#fff" fill-opacity=".06"/><path opacity=".2" d="M44.59 102.961 61.7 87.579h-5.833L44.59 97.714v5.247ZM68.364 87.579h-4.375l-19.34 17.379v6.424c.011.375.046.748.104 1.118L71.68 88.294a7.947 7.947 0 0 0-3.317-.715Z" fill="#fff"/><path d="M165.361 15.868 77.987 30.83l8.986 52.671 87.375-14.963-8.987-52.671ZM327.534 134.65h-93.09c-3.977 0-7.201 3.23-7.201 7.214v41.124c0 3.984 3.224 7.214 7.201 7.214h93.09c3.977 0 7.201-3.23 7.201-7.214v-41.124c0-3.984-3.224-7.214-7.201-7.214Z" fill="#EB459E"/><path d="m290.295 159.512-15.607-6.976a2.577 2.577 0 0 0-2.466.192 2.594 2.594 0 0 0-1.179 2.178v13.951a2.581 2.581 0 0 0 1.179 2.178 2.574 2.574 0 0 0 2.466.177l15.607-6.961a2.591 2.591 0 0 0 1.537-2.369 2.598 2.598 0 0 0-1.537-2.37Z" fill="#FEE75C"/><path opacity=".2" d="m227.243 163.104 31.66-28.454h-5.847l-25.813 23.207v5.247ZM227.243 172.748l42.372-38.098h-8.495l-33.877 30.466v7.632ZM302.51 190.186l32.225-28.961v-7.646l-40.72 36.607h8.495ZM142.396 74.014l27.048-34.148-.878-5.172-31.943 40.304 5.773-.984ZM152.973 72.197l18.091-22.85-1.279-7.512-25.203 31.807 8.391-1.445ZM81.71 52.597l2.068 12.147 31.987-40.393-13.509 2.325-20.546 25.92Z" fill="#fff"/><path d="M7.246 156.635c.67 5.783 3.913 22.521 5.698 26.263 1.785 3.741 6.606 5.872 11.605 2.31 2.737-1.938 22.108-17.171 31.63-24.668a7.628 7.628 0 0 0-.318-12.294 7.59 7.59 0 0 0-8.98.235l-23.954 18.572a129.764 129.764 0 0 1-4.24-15.501c-.818-3.801-4.091-6.752-8.525-3.965-3.734 2.385-3.288 5.828-2.916 9.048Z" fill="#FFD635"/><path d="M50.749 156.53a5.47 5.47 0 0 0 7.2-.164l6.25-5.738-8.466-7.095-5.133 4.695a5.483 5.483 0 0 0-1.822 4.185 5.493 5.493 0 0 0 1.97 4.117Z" fill="#D01582"/><path d="M55.375 144.948s9.686-5.694 10.638-5.753a2.973 2.973 0 0 1 3.065 1.967c.937 2.609 1.353 4.114 1.785 5.336.506 1.491-.417 3.384-2.589 5.098s-2.455 2.504-7.215 2.415l-5.044-.462a3.35 3.35 0 0 1-3.076-3.262 3.361 3.361 0 0 1 .353-1.583 26.714 26.714 0 0 1 2.083-3.756Z" fill="#D01582"/><path d="m58.778 150.164-5.146-.094a.758.758 0 0 1-.745-.774l.182-10.089a2.981 2.981 0 0 1 3.03-2.926c.789.014 1.54.342 2.087.911.548.569.848 1.333.834 2.123l-.197 10.85-.045-.001Z" fill="#D01582"/><path d="M70.223 144.606c-.223-.716-.491-1.491-.863-2.579-.296.453-.657.86-1.071 1.207l-2.812 2.34a1.18 1.18 0 0 0-.149 1.64 1.17 1.17 0 0 0 1.24.369c.145-.046.28-.121.397-.22l2.871-2.385.387-.372Z" fill="#000"/><path d="m146.725 19.402-.402-.79a4.62 4.62 0 0 0-4.969-2.46l-6.769 1.387a6.524 6.524 0 0 0-2.893 1.458 6.551 6.551 0 0 0-1.839 2.67c-.55 1.714 0 2.49 1.206 2.803.773.208 1.577-.18 2.276-1.49v1.624a3.61 3.61 0 0 0 2.589 3.945 3.596 3.596 0 0 0 1.696.064l5.222-1.103a5.672 5.672 0 0 0 4.463-5.127 5.722 5.722 0 0 0-.58-2.981ZM79.18 29.716l.104-.88a4.61 4.61 0 0 1 1.267-2.674 4.595 4.595 0 0 1 2.63-1.35l6.83-1.028a6.52 6.52 0 0 1 5.861 2.25c1.101 1.417.789 2.356-.178 2.982-.655.462-1.488.372-2.634-.641 0 .194.491 1.356.58 1.49a3.613 3.613 0 0 1-1.081 4.588c-.464.337-1 .557-1.567.644l-5.326.805a5.659 5.659 0 0 1-3.523-.654 5.675 5.675 0 0 1-2.428-2.64 5.615 5.615 0 0 1-.536-2.892Z" fill="#FFE75C"/><path d="M230.278 84.375a21.02 21.02 0 0 1 3.295-15.722A20.951 20.951 0 0 1 247 59.87a20.92 20.92 0 0 1 15.693 3.302 20.993 20.993 0 0 1 8.766 13.452c.379 1.994.465 4.033.253 6.051l-22.644 18.706a20.91 20.91 0 0 1-12.253-5.334 20.983 20.983 0 0 1-6.537-11.672Z" fill="#EB459E"/><path d="M227.244 84.985a24.126 24.126 0 0 1 3.766-18.052 24.048 24.048 0 0 1 15.404-10.097 24.015 24.015 0 0 1 18.018 3.773 24.1 24.1 0 0 1 10.078 15.433c.237 1.314.371 2.644.402 3.98l-3.199 2.638a20.783 20.783 0 0 0-.253-6.052 20.995 20.995 0 0 0-5.125-10.292 20.939 20.939 0 0 0-9.769-6.04 20.91 20.91 0 0 0-11.48.025 20.943 20.943 0 0 0-9.743 6.084 21.015 21.015 0 0 0-3.969 21.762 20.979 20.979 0 0 0 6.966 9.142 20.93 20.93 0 0 0 10.729 4.092l-3.199 2.653a24.046 24.046 0 0 1-12.182-6.709 24.11 24.11 0 0 1-6.444-12.34Z" fill="#fff"/><path d="m269.734 80.395 5.252-.432-3.616 2.98-21.245 17.589-4.359 3.607 2.232-6.707a25.083 25.083 0 0 1 8.313-11.79 25.015 25.015 0 0 1 13.423-5.247Z" fill="#fff"/><path opacity=".2" d="M246.985 59.87c-.906.184-1.8.423-2.678.715L230.01 78.472a20.995 20.995 0 0 0 .253 5.857c0 .343.148.671.238.999l20.62-25.86a21.643 21.643 0 0 0-4.136.402ZM231.112 87.46a20.954 20.954 0 0 0 3.586 6.379l25.574-32.076a20.941 20.941 0 0 0-6.977-2.117L231.112 87.46Z" fill="#fff"/><path d="M184.5 37.72a5.407 5.407 0 0 1-2.425-3.756l-.358-2.638a.265.265 0 0 0-.267-.224.266.266 0 0 0-.253.224l-.402 2.638a5.321 5.321 0 0 1-2.425 3.756l-.327.224a.239.239 0 0 0-.101.091.243.243 0 0 0-.033.132.243.243 0 0 0 .033.132.24.24 0 0 0 .101.092l.327.223a5.39 5.39 0 0 1 2.425 3.757l.402 2.638a.268.268 0 0 0 .253.223.267.267 0 0 0 .267-.223l.387-2.638a5.477 5.477 0 0 1 2.396-3.742l.342-.223a.267.267 0 0 0 .119-.224.268.268 0 0 0-.119-.223l-.342-.239ZM351.13 144.368a5.47 5.47 0 0 1-2.425-3.771l-.387-2.623a.254.254 0 0 0-.268-.224.25.25 0 0 0-.169.064.25.25 0 0 0-.084.16l-.402 2.623a5.388 5.388 0 0 1-2.425 3.771l-.327.209a.262.262 0 0 0-.134.223.235.235 0 0 0 .034.132c.024.04.058.072.1.092l.327.224a5.363 5.363 0 0 1 2.41 3.83l.402 2.638a.254.254 0 0 0 .253.224.258.258 0 0 0 .179-.058.26.26 0 0 0 .089-.166l.387-2.638a5.473 5.473 0 0 1 2.44-3.816l.342-.223a.288.288 0 0 0 .134-.224.29.29 0 0 0-.042-.127.282.282 0 0 0-.092-.096l-.342-.224Z" fill="#FFE75C"/><path d="M202.427 155.352a5.427 5.427 0 0 1-2.425-3.756l-.387-2.638a.266.266 0 0 0-.268-.224.266.266 0 0 0-.268.224l-.386 2.638a5.428 5.428 0 0 1-2.425 3.756l-.343.224a.268.268 0 0 0-.087.35.28.28 0 0 0 .087.097l.343.223a5.363 5.363 0 0 1 2.425 3.756l.386 2.624a.281.281 0 0 0 .268.238.281.281 0 0 0 .268-.238l.387-2.624a5.378 5.378 0 0 1 2.425-3.756l.342-.223a.273.273 0 0 0 .088-.097.28.28 0 0 0 0-.254.262.262 0 0 0-.088-.096l-.342-.224Z" fill="#fff"/><path d="M81.159 80.334a5.42 5.42 0 0 1-2.425-3.756l-.402-2.638a.254.254 0 0 0-.253-.224.252.252 0 0 0-.268.224l-.431 2.638a5.477 5.477 0 0 1-2.425 3.756l-.342.224a.268.268 0 0 0-.086.349c.02.039.05.072.086.098l.342.208a5.465 5.465 0 0 1 2.425 3.771l.387 2.624a.254.254 0 0 0 .267.223.253.253 0 0 0 .253-.223l.447-2.624a5.432 5.432 0 0 1 2.425-3.77l.342-.21a.283.283 0 0 0 .12-.223.27.27 0 0 0-.12-.224l-.342-.223Z" fill="#91FFAD"/><path d="M178.98 14.141a7.357 7.357 0 0 1-3.288-5.097l-.52-3.563a.374.374 0 0 0-.357-.298.371.371 0 0 0-.357.298l-.536 3.563a7.344 7.344 0 0 1-3.273 5.097l-.461.298a.362.362 0 0 0-.164.299.345.345 0 0 0 .164.298l.461.298a7.344 7.344 0 0 1 3.273 5.098l.536 3.562a.359.359 0 0 0 .357.298.355.355 0 0 0 .357-.298l.52-3.563a7.372 7.372 0 0 1 3.288-5.097l.462-.298a.34.34 0 0 0 .163-.298.348.348 0 0 0-.044-.17.368.368 0 0 0-.119-.129l-.462-.298ZM344.495 126.243a7.34 7.34 0 0 1-3.288-5.097l-.491-3.563a.373.373 0 0 0-.357-.313.37.37 0 0 0-.357.313l-.521 3.563a7.46 7.46 0 0 1-3.288 5.097l-.461.298a.345.345 0 0 0-.164.298.373.373 0 0 0 .164.313l.461.298a7.336 7.336 0 0 1 3.288 5.083l.521 3.562a.373.373 0 0 0 .357.313.373.373 0 0 0 .357-.313l.536-3.562a7.282 7.282 0 0 1 3.288-5.083l.461-.298a.396.396 0 0 0 .163-.313.382.382 0 0 0-.163-.298l-.506-.298Z" fill="#3F99F2"/><path d="M215.579 170.258a7.35 7.35 0 0 1-3.288-5.098l-.535-3.562a.373.373 0 0 0-.357-.313.37.37 0 0 0-.357.313l-.521 3.562a7.445 7.445 0 0 1-1.103 2.899 7.436 7.436 0 0 1-2.185 2.199l-.461.298a.34.34 0 0 0-.164.298.365.365 0 0 0 .043.177c.028.055.07.101.121.136l.461.298a7.354 7.354 0 0 1 3.288 5.083l.521 3.562a.373.373 0 0 0 .357.313.374.374 0 0 0 .357-.313l.535-3.562a7.339 7.339 0 0 1 3.288-5.083l.462-.298a.404.404 0 0 0 .163-.313.396.396 0 0 0-.163-.298l-.462-.298Z" fill="#FF78B8"/><path d="M380.886 180.229a18.799 18.799 0 0 0-4.984-1.953 2.246 2.246 0 0 0-2.158.641 15.206 15.206 0 0 1-5.862 4.189l.908-2.981a1.375 1.375 0 0 0-.617-1.841 1.37 1.37 0 0 0-1.838.618l-2.722 4.204-1.488 2.101s-21.573 24.072-23.805 27.754l3.571 8.391 25.441-30.451.863-.864a9.729 9.729 0 0 0 8.748-1.491 24.89 24.89 0 0 0 4.731-5.232 2.213 2.213 0 0 0 .256-1.709 2.207 2.207 0 0 0-1.044-1.376ZM309.473 211.68l-7.156 5.694a2.741 2.741 0 0 1-2.976.328 4342.366 4342.366 0 0 0-14.877-7.11l-2.381-.968-4.552-2.072a1.366 1.366 0 0 0-1.828.505 1.37 1.37 0 0 0 .429 1.85l1.176.909a3.097 3.097 0 0 1-2.976 0 29.897 29.897 0 0 0-4.463-2.534.974.974 0 0 0-.565-.043.975.975 0 0 0-.492.282 9.614 9.614 0 0 0-2.38 3.696c-.179.581-1.369 4.352-.461 4.964.907.611 2.678 1.49 8.629 2.28.845.097 1.699.097 2.544 0a7.432 7.432 0 0 0 3.6-1.341 1.87 1.87 0 0 1 2.336.089c4.211 3.622 11.634 9.584 16.366 9.837 6.338.358 17.02-9.688 25.292-18.944-7.603-4.01-9.314-2.146-15.265 2.578Z" fill="#FFD635"/><path d="M301.438 153.817a5.417 5.417 0 0 1-2.381-3.771l-.401-2.623a.259.259 0 0 0-.084-.16.258.258 0 0 0-.169-.064.254.254 0 0 0-.268.224l-.387 2.623a5.47 5.47 0 0 1-2.425 3.771l-.342.209a.28.28 0 0 0-.119.224.264.264 0 0 0 .119.223l.342.224a5.471 5.471 0 0 1 2.425 3.756l.387 2.638a.254.254 0 0 0 .268.224.252.252 0 0 0 .253-.224l.401-2.638a5.437 5.437 0 0 1 2.425-3.756l.342-.224a.265.265 0 0 0 .086-.349.27.27 0 0 0-.086-.098l-.386-.209Z" fill="#D01582"/><path d="m320.407 207.834 17.57-.596c7.9 10.523 4.598 15.382 1.652 21.985h-26.081s-.878-3.19-1.592-5.962c-1.398-5.619-.119-9.957 8.451-15.427Z" fill="#fff"/><path d="m325.346 190.111 24.965-5.455c-7.736 17.469-14.104 20.778-18.657 20.122-4.552-.656-6.918-6.901-6.308-14.667Z" fill="#D11583"/><path d="m325.347 190.112-14.223-14.577c-.446 19.168 3.273 23.267 6.561 24.415 3.288 1.147 6.07-2.311 7.662-9.838Z" fill="#D11583"/><path d="M309.978 189.546c3.095-8.019 22.614-13.802 26.676-12.312 4.062 1.491 14.773 14.801 12.973 23.372-1.8 8.57-11.902 12.64-23.626 9.748-11.723-2.892-19.356-12.178-16.023-20.808Z" fill="#FFE75C"/><path d="M335.613 183.806c6.695-5.44 13.003-7.989 21.394-10.523 6.353-1.922 6.248-7.855-1.057-8.138-7.305-.283-15.874 5.679-20.828 11.924-4.464-12.118-4.88-16.291-10.876-16.157-5.996.134-9.194 5.962-10.221 8.675-.803 2.176-.789 3.95 2.47 4.755 3.258.804 5.713-1.327 7.439-4.159a85.083 85.083 0 0 0 6.204 12.789c1.651 2.593 2.454 3.368 5.475.834Z" fill="#FFE75C"/><path d="m330.479 176.801-3.823-9.316" stroke="#FFC619" stroke-width=".82" stroke-miterlimit="10" stroke-linecap="round"/><path d="M325.333 190.111c-.61 7.766 1.771 14.011 6.323 14.667 4.002.581 9.418-1.923 15.934-14.444a37.821 37.821 0 0 0-2.603-4.471l-19.654 4.248ZM311.481 187.086c.982 9.449 3.719 11.998 6.204 12.863 3.288 1.147 6.07-2.311 7.647-9.838l-7.632-7.84a21.729 21.729 0 0 0-6.219 4.815Z" fill="#FF8C19"/><path d="m318.043 189.993-1.102-2.116M317.596 191.11l-2.068-1.952M334.422 194.36l1.964-2.206M334.244 195.597l4.27-1.58" stroke="#000" stroke-width=".82" stroke-linecap="round" stroke-linejoin="round"/><path d="M334.118 199.407c1.791-.922 2.349-3.409 1.248-5.554-1.101-2.145-3.445-3.136-5.235-2.213-1.791.922-2.349 3.409-1.248 5.554 1.101 2.145 3.445 3.136 5.235 2.213ZM316.673 191.542c-.253-2.221.937-4.024 2.663-4.099a4.355 4.355 0 0 1 2.662 1.232 4.37 4.37 0 0 1 1.28 2.643c.447 2.37-.758 4.472-2.678 4.472-1.919 0-3.689-1.908-3.927-4.248Z" fill="#fff"/><path d="M320.657 191.271c.191-.859-.187-1.675-.845-1.822-.657-.147-1.346.431-1.537 1.291-.191.86.187 1.676.845 1.822.658.147 1.346-.431 1.537-1.291ZM332.563 194.189c.192-.859-.187-1.675-.844-1.822-.658-.147-1.346.431-1.537 1.291-.191.86.187 1.675.844 1.822.658.147 1.346-.431 1.537-1.291ZM320.407 202.603c1.488 5.098 4.211 2.579 5.505.909a.82.82 0 0 0-.521-1.297l-4.076-.655a.805.805 0 0 0-.908 1.043ZM326.925 165.89a.647.647 0 0 1 .688-.196.639.639 0 0 1 .444.561.65.65 0 0 1-.15.47 48.312 48.312 0 0 0-3.363 4.874l-.565-1.49a49.207 49.207 0 0 1 2.946-4.219Z" fill="#000"/><path d="M356.277 170.346a34.41 34.41 0 0 0-20.248 9.733" stroke="#FFC619" stroke-width=".82" stroke-miterlimit="10" stroke-linecap="round"/><path d="M325.719 197.357c-.818-4.278-.58-4.919-2.485-.805l-.372-.105 1.563-6.379h.907l1.8.939-.937 6.335-.476.015Z" fill="#FF8C19"/><path d="M322.863 203.317a3.509 3.509 0 0 0-1.964.551c1.324 2.788 3.139 1.7 4.374.388a3.239 3.239 0 0 0-1.107-.722 3.207 3.207 0 0 0-1.303-.217Z" fill="#FF78B8"/></svg>
