<svg width="20" height="20" viewBox="0 0 20 20" fill="none" xmlns="http://www.w3.org/2000/svg">
<path fill-rule="evenodd" clip-rule="evenodd" d="M11.0749 1.66667H5.00002C3.15907 1.66667 1.66669 3.15906 1.66669 5.00001V15C1.66669 16.841 3.15907 18.3333 5.00002 18.3333H15C16.841 18.3333 18.3334 16.841 18.3334 15V8.92511C17.8053 9.08227 17.2458 9.16667 16.6667 9.16667C13.445 9.16667 10.8334 6.555 10.8334 3.33334C10.8334 2.75419 10.9178 2.19476 11.0749 1.66667ZM6.66669 5.00001C7.58602 5.00001 8.33335 5.74601 8.33335 6.66667C8.33335 7.58801 7.58602 8.33334 6.66669 8.33334C5.74535 8.33334 5.00002 7.58801 5.00002 6.66667C5.00002 5.74601 5.74535 5.00001 6.66669 5.00001ZM5.00002 15L7.50002 11.6667L9.16669 13.3333L12.5 9.16667L15 15H5.00002Z" fill="#B9BBBE"/>
<path d="M17.5 0V2.5H20V4.16667H17.5V6.66667H15.8333V4.16667H13.3333V2.5H15.8333V0H17.5Z" fill="#B9BBBE"/>
</svg>
