<svg width="240" height="52" viewBox="0 0 240 52" fill="none" xmlns="http://www.w3.org/2000/svg">
<rect width="240" height="52" rx="8" fill="#F2F3F4"/>
<path d="M15.56 23.28V19.248H12.092L12.332 20.772H13.772V22.248C13.436 22.416 13.112 22.512 12.656 22.512C11.228 22.512 10.508 21.42 10.508 19.86C10.508 18.312 11.204 17.256 12.632 17.256C13.484 17.256 14.216 17.568 14.84 17.964L15.116 16.176C14.456 15.804 13.604 15.564 12.584 15.564C10.028 15.564 8.456 17.304 8.456 19.872C8.456 22.428 9.908 24.156 12.536 24.156C13.676 24.156 14.696 23.844 15.56 23.28ZM24.5437 19.848C24.5437 17.292 22.9957 15.564 20.5957 15.564C18.1957 15.564 16.6357 17.304 16.6357 19.872C16.6357 22.428 18.1957 24.156 20.5717 24.156C22.9837 24.156 24.5437 22.404 24.5437 19.848ZM22.4797 19.86C22.4797 21.504 21.7837 22.548 20.5837 22.548C19.3957 22.548 18.6877 21.504 18.6877 19.86C18.6877 18.216 19.3957 17.172 20.5837 17.172C21.7837 17.172 22.4797 18.216 22.4797 19.86ZM30.8795 24.084L32.9555 23.748L30.0755 15.684H27.8195L24.8435 24H26.8595L27.4115 22.284H30.2795L30.8795 24.084ZM28.8395 17.796L29.7635 20.676H27.9035L28.8395 17.796ZM38.7413 24L38.4653 22.224H35.9213V15.72H33.8693V24H38.7413ZM41.5527 20.16V18.12H39.6087V20.16H41.5527ZM41.5527 24V21.96H39.6087V24H41.5527ZM50.3194 24L50.0434 22.224H47.4994V15.72H45.4474V24H50.3194ZM57.7616 15.72H55.6256L53.8376 21.444L51.9536 15.636L49.7576 15.972L52.6136 24.048H54.8216L57.7616 15.72ZM63.5382 24L63.2622 22.224H60.7182V15.72H58.6662V24H63.5382ZM70.3453 24V15.876H68.5573L66.4813 16.836L66.7093 18.396L68.3293 17.76V24H70.3453Z" fill="#4F5660"/>
<path d="M182.633 19.944C182.633 17.232 181.289 15.732 179.273 15.732C177.245 15.732 175.889 17.232 175.889 19.944C175.889 22.656 177.245 24.156 179.273 24.156C181.289 24.156 182.633 22.656 182.633 19.944ZM180.653 19.944C180.653 21.672 180.209 22.632 179.273 22.632C178.337 22.632 177.881 21.672 177.881 19.944C177.881 18.216 178.337 17.256 179.273 17.256C180.209 17.256 180.653 18.216 180.653 19.944ZM188.962 15.936L187.462 15.612L182.302 25.2L183.802 25.524L188.962 15.936ZM189.367 24H195.091L194.839 22.404H191.779L193.399 20.844C194.383 19.908 194.935 19.188 194.935 18.084C194.935 16.632 193.903 15.756 192.235 15.756C191.095 15.756 190.243 16.092 189.547 16.56L189.787 18.264C190.483 17.76 191.215 17.436 191.935 17.436C192.595 17.436 192.979 17.748 192.979 18.3C192.979 18.84 192.703 19.224 192.163 19.776L189.367 22.572V24ZM204.181 21.576C204.181 20.484 203.557 19.86 202.633 19.584C203.377 19.272 203.821 18.708 203.821 17.868C203.821 16.596 202.969 15.72 201.145 15.72H199.141V24H201.121C203.029 24 204.181 23.232 204.181 21.576ZM202.717 17.904C202.717 18.72 202.129 19.2 201.037 19.2H200.245V16.68H201.121C202.249 16.68 202.717 17.148 202.717 17.904ZM203.077 21.6C203.077 22.56 202.393 23.04 201.205 23.04H200.245V20.124H201.169C202.405 20.124 203.077 20.64 203.077 21.6ZM210.492 21.144C210.492 19.26 209.364 18.156 207.828 18.156C206.304 18.156 205.2 19.26 205.2 21.144C205.2 23.028 206.304 24.12 207.828 24.12C209.364 24.12 210.492 23.028 210.492 21.144ZM209.412 21.144C209.412 22.344 208.884 23.232 207.828 23.232C206.82 23.232 206.28 22.32 206.28 21.144C206.28 19.944 206.796 19.044 207.828 19.044C208.86 19.044 209.412 19.968 209.412 21.144ZM216.82 21.144C216.82 19.26 215.692 18.156 214.156 18.156C212.632 18.156 211.528 19.26 211.528 21.144C211.528 23.028 212.632 24.12 214.156 24.12C215.692 24.12 216.82 23.028 216.82 21.144ZM215.74 21.144C215.74 22.344 215.212 23.232 214.156 23.232C213.148 23.232 212.608 22.32 212.608 21.144C212.608 19.944 213.124 19.044 214.156 19.044C215.188 19.044 215.74 19.968 215.74 21.144ZM222.176 22.404C222.176 21.312 221.54 20.904 220.124 20.544C219.224 20.316 218.936 20.1 218.936 19.716C218.936 19.308 219.272 19.056 219.92 19.056C220.52 19.056 221.156 19.26 221.66 19.548L221.828 18.54C221.288 18.3 220.652 18.156 219.944 18.156C218.696 18.156 217.928 18.828 217.928 19.74C217.928 20.76 218.468 21.168 219.812 21.504C220.844 21.756 221.168 21.948 221.168 22.476C221.168 22.956 220.736 23.232 220.004 23.232C219.224 23.232 218.528 22.944 217.988 22.572L217.832 23.58C218.324 23.856 219.164 24.12 219.92 24.12C221.396 24.12 222.176 23.448 222.176 22.404ZM226.236 24.024L226.092 23.112C225.96 23.136 225.792 23.148 225.6 23.148C225 23.148 224.808 22.86 224.808 22.392V19.176H226.188L226.044 18.276H224.808V16.212L223.764 16.368V18.276H222.9V19.176H223.764V22.584C223.764 23.736 224.424 24.096 225.432 24.096C225.804 24.096 226.056 24.06 226.236 24.024ZM231.527 22.404C231.527 21.312 230.891 20.904 229.475 20.544C228.575 20.316 228.287 20.1 228.287 19.716C228.287 19.308 228.623 19.056 229.271 19.056C229.871 19.056 230.507 19.26 231.011 19.548L231.179 18.54C230.639 18.3 230.003 18.156 229.295 18.156C228.047 18.156 227.279 18.828 227.279 19.74C227.279 20.76 227.819 21.168 229.163 21.504C230.195 21.756 230.519 21.948 230.519 22.476C230.519 22.956 230.087 23.232 229.355 23.232C228.575 23.232 227.879 22.944 227.339 22.572L227.183 23.58C227.675 23.856 228.515 24.12 229.271 24.12C230.747 24.12 231.527 23.448 231.527 22.404Z" fill="#4F5660"/>
<rect x="8" y="40" width="224" height="4" rx="2" fill="#E3E5E8"/>
</svg>
