<svg xmlns="http://www.w3.org/2000/svg" xmlns:xlink="http://www.w3.org/1999/xlink" viewBox="0 0 624 624">
  <defs>
    <radialGradient id="radial-gradient" cx="312" cy="312" r="210.03" gradientUnits="userSpaceOnUse">
      <stop offset="0" stop-color="#fd8a1a" stop-opacity="0"/>
      <stop offset="0.17" stop-color="#fd8a1a" stop-opacity="0.01"/>
      <stop offset="0.29" stop-color="#fd8a1a" stop-opacity="0.05"/>
      <stop offset="0.39" stop-color="#fd8a1a" stop-opacity="0.11"/>
      <stop offset="0.48" stop-color="#fd8a1a" stop-opacity="0.19"/>
      <stop offset="0.56" stop-color="#fd8a1a" stop-opacity="0.3"/>
      <stop offset="0.64" stop-color="#fd8a1a" stop-opacity="0.43"/>
      <stop offset="0.71" stop-color="#fd8a1a" stop-opacity="0.59"/>
      <stop offset="0.78" stop-color="#fd8a1a" stop-opacity="0.77"/>
      <stop offset="0.85" stop-color="#fd8a1a" stop-opacity="0.98"/>
      <stop offset="0.85" stop-color="#fd8a1a"/>
      <stop offset="0.91" stop-color="#fc8819"/>
      <stop offset="0.94" stop-color="#fa8016"/>
      <stop offset="0.96" stop-color="#f77211"/>
      <stop offset="0.98" stop-color="#f25f09"/>
      <stop offset="1" stop-color="#ec4700"/>
    </radialGradient>
  </defs>
  <title>Avatar-Frame-Egg</title>
  <g id="Layer_6" data-name="Layer 6">
    <path d="M576.9,229.1c-17.1-11.9-39.3-27.4-33-61s.7-72.2-24-90.9C460.8,32.6,387,77.7,312,63.6S156.9,3.7,84.5,78.2c-47,48.4.2,89.8-39.6,168.7-32.3,64-20.9,97.1-3,117.5C54.8,379.2,72,406.2,67.3,484.6c-4.2,68.9,49.8,83.5,90.2,78.4,46.3-5.8,90.7-5.5,161.5,10,88.8,19.4,161.5,16,208.8-16.4s45.3-76.2,41.3-118.1S565.9,359.3,583,324C607.8,272.7,600,245.2,576.9,229.1ZM312,522c-116,0-210-94-210-210s94-210,210-210,210,94,210,210S428,522,312,522Z" style="fill: #ede9e2"/>
    <path d="M211.4,71.6c0,7.1-10.5,6.3-24.1,3.4a49,49,0,0,0-29.5,2.9c-18,7.7-28.1,1.8-28.1-6.3,0-10,18.3-18,40.9-18S211.4,61.6,211.4,71.6Z" style="fill: #fff"/>
    <ellipse cx="100.2" cy="126.2" rx="6.2" ry="10.4" transform="translate(-37.2 42) rotate(-20.1)" style="fill: #fff"/>
    <circle cx="312" cy="312" r="210" style="opacity: 0.4;fill: url(#radial-gradient)"/>
    <g style="opacity: 0.7000000000000001">
      <path d="M305.8,484.4a180.1,180.1,0,0,0,127.1-52.6,179.4,179.4,0,0,0,52.6-127.2,6.3,6.3,0,0,1,12.5-1.3l.3,1.3c5.6,25.3,3.4,52.5-5,77.7a174.1,174.1,0,0,1-17,36.3c-1.8,2.8-3.8,5.6-5.6,8.4s-4,5.4-6.1,8-4.3,5.2-6.5,7.7l-6.9,7.3a174,174,0,0,1-67.9,41.9,162,162,0,0,1-38.8,7.8l-4.9.2-4.9.2c-3.2-.1-6.5-.1-9.7-.3l-9.7-.9-9.5-1.7-1.3-.3a6.3,6.3,0,0,1-4.9-7.5A6.2,6.2,0,0,1,305.8,484.4Z" style="fill: #fff"/>
    </g>
    <g style="opacity: 0.7000000000000001">
      <path d="M208.1,170.8a179.6,179.6,0,0,0-73.6,145.1,6.2,6.2,0,0,1-6.2,6.2,6.2,6.2,0,0,1-6-4.4l-.6-1.8c-4.6-15.1-5.3-31.1-3.4-46.8a143.3,143.3,0,0,1,13.8-45.6,135.2,135.2,0,0,1,28.2-38.4c2.9-2.7,6-5.2,9-7.8s6.4-4.6,9.7-6.7a117.6,117.6,0,0,1,10.4-5.7,87.8,87.8,0,0,1,11.1-4.3l1.9-.7a6.2,6.2,0,0,1,5.7,10.9Z" style="fill: #fff"/>
    </g>
    <path d="M570.7,480c-1.4,32.2-53.3,101.3-166.6,77.3C298.7,534.9,222,543.4,169.2,552s-96.1-.7-101.6-49.2c5.7,53.3,53.3,64.8,89.9,60.2,46.3-5.8,90.7-5.5,161.5,10,88.8,19.4,161.5,16,208.8-16.4C559.6,534.9,569.1,508,570.7,480Z" style="fill: #c2c6cc"/>
    <path d="M149.4,517.2c19.8,24.8,66.5,37.2,113.6,42.4l37-16.1c-57.6-3-110.2-14.6-145.7-32.3C146.4,507.3,146.2,513.2,149.4,517.2Z" style="fill: #c2c6cc"/>
    <g>
      <path d="M83.7,153.1c-12-29.2-13.3-61.6,9.7-83.4a117.3,117.3,0,0,0-8.9,8.5C39.9,124.1,80.1,163.7,50.4,235h0C66.7,198.5,96.5,184.4,83.7,153.1Z" style="fill: #c2c6cc"/>
      <path d="M98.2,65.6h0Z" style="fill: #c2c6cc"/>
    </g>
    <path d="M551.5,310.2c-4,62.8-21.2,123.6-68.7,171.3-4.1,4.1-5.5,9.7,3.6,5.9,10.7-4.5,20.7-11.1,30.1-18.8,36.9-30.4,55-78,49.4-125.5a243.9,243.9,0,0,0-5.9-33.4C555.9,294.3,552.4,296.1,551.5,310.2Z" style="fill: #c2c6cc"/>
    <path d="M48,310.8c-2.5,21.9,7.2,42.4,21.1,61.3s17.2,30.4,14.3,49,1.5,19.4,4.3,18.3,22.6-29.1,9.7-64.1S61.7,342.1,53,312C51.3,305.9,48.8,304.1,48,310.8Z" style="fill: #c2c6cc"/>
    <path d="M518,116.4c8.6,23.6,2.6,47.2-10.1,51.8-9.7,3.6-19.7,1-19.7-20.2a69.9,69.9,0,0,0-24.4-53.3c-3.5-3-5.7-6.1-5.3-10.5a8.5,8.5,0,0,1,9.1-7.4C484.2,77.9,510.4,95.9,518,116.4Z" style="fill: #fff"/>
    <ellipse cx="98.9" cy="500.4" rx="13.2" ry="24.3" transform="translate(-208.9 93.7) rotate(-25.9)" style="fill: #fff"/>
    <path d="M502.4,514.8c2.9,12.8-19.2,20.8-44.3,21.9s-45.8-4.4-46.2-12.4c-.3-5.9,6.5-7.5,23.8-5.1,12.7,1.7,26,.5,37.3-5.5C491.8,503.7,501,508.8,502.4,514.8Z" style="fill: #fff"/>
    <ellipse cx="528.4" cy="496.2" rx="14.5" ry="11.1" transform="translate(-192.1 575.8) rotate(-49.5)" style="fill: #fff"/>
  </g>
</svg>
