<svg xmlns="http://www.w3.org/2000/svg" xmlns:xlink="http://www.w3.org/1999/xlink" viewBox="0 0 624 624">
  <defs>
    <linearGradient id="linear-gradient" x1="312" y1="274.75" x2="312" y2="627.27" gradientUnits="userSpaceOnUse">
      <stop offset="0" stop-color="#517787"/>
      <stop offset="0.04" stop-color="#5c8191"/>
      <stop offset="0.17" stop-color="#7ea3b1"/>
      <stop offset="0.28" stop-color="#93b8c5"/>
      <stop offset="0.35" stop-color="#9bc0cc"/>
      <stop offset="0.69" stop-color="#6c899c"/>
      <stop offset="1" stop-color="#3c516b"/>
    </linearGradient>
    <linearGradient id="linear-gradient-2" x1="312" y1="6.76" x2="312" y2="271.33" gradientUnits="userSpaceOnUse">
      <stop offset="0" stop-color="#78a6c2"/>
      <stop offset="0.08" stop-color="#8ab3c7"/>
      <stop offset="0.17" stop-color="#97bdcb"/>
      <stop offset="0.26" stop-color="#9bc0cc"/>
      <stop offset="0.38" stop-color="#93b7c3"/>
      <stop offset="0.77" stop-color="#7c9eaa"/>
      <stop offset="1" stop-color="#7395a1"/>
    </linearGradient>
    <linearGradient id="linear-gradient-3" x1="312" y1="52.39" x2="312" y2="196.56" gradientUnits="userSpaceOnUse">
      <stop offset="0" stop-color="#d0f0e9"/>
      <stop offset="1" stop-color="#517787"/>
    </linearGradient>
  </defs>
  <title>Avatar-Frame-Knight-Helmet</title>
  <g id="Layer_12" data-name="Layer 12">
    <path d="M312.6,172.4,123.8,155.5v16.9c38.9,0,116.3,20,188.8,104.1C385,192.4,462.4,172.4,501.4,172.4V155.5Z" style="fill: #121c33"/>
    <path d="M503.9,231.7c-8.4,92.8-11.6,199.3-57.1,219.4l17.1-3.8,30.6-28.8,20.9-80.3,4.1-47.3,2.4-59.2Z" style="fill: #121c33"/>
    <path d="M120.1,231.7c8.4,92.8,11.6,199.3,57.1,219.4l-17.1-3.8-30.6-28.8-20.9-80.3-4.1-47.3-2.4-59.2Z" style="fill: #121c33"/>
    <path d="M111.3,264.2c23.1,14.2,37.2,16.3,40.7,17.1s4.6.5,5.9-7l-47.8-34Z" style="fill: #121c33"/>
    <path d="M512.7,264.2c-23.1,14.2-37.2,16.3-40.7,17.1s-4.6.5-5.9-7l47.8-34Z" style="fill: #121c33"/>
    <path d="M312,624c154.6,0,232.1-97.3,301-133.9-72.5-67.5-60.1-157.4-51.2-263.7h-43c-7.2,82.9-5.2,194.9-67.3,222.6-83.2,37.2-107.8,43.2-139.5,99.4-31.7-56.2-56.3-62.2-139.5-99.4-62.1-27.7-60.1-139.7-67.3-222.6h-43C71.1,332.7,83.5,422.6,11,490.1,79.9,526.7,157.4,624,312,624Z" style="fill: url(#linear-gradient)"/>
    <path d="M513.9,294.2h0c1.1-15,17-19.8,35.7-28.7a41,41,0,0,0,9.4-6.4c.9-10.7,1.9-21.6,2.8-32.7h-43C517,247.7,515.7,270.9,513.9,294.2Z" style="fill: #254757"/>
    <path d="M110.1,294.2h0c-1.1-15-17-19.8-35.7-28.7a41,41,0,0,1-9.4-6.4c-.9-10.7-1.9-21.6-2.8-32.7h43C107,247.7,108.3,270.9,110.1,294.2Z" style="fill: #254757"/>
    <path d="M621.2,0c-37.5,0-86.4,21.2-128.8,81.8a4.7,4.7,0,0,0-.7,4.3c6.2,20.8-5.5,31.8-20.6,31.8s-27.3-13.6-24.9-31.6,7.3-41.2,8.6-50.6c.2-2-.7-1.4-1.4-.9-15.8,10-18.5,43.2-40.5,43.3S386,61.6,383.7,50.3c-2.8-13.7-7.5-33.8-10.8-35.5-1.6-.9-2,.9-2.7,3.6s-2.4,6.6-4.3,8C339.5,8,338.3,18,312,0c-26.3,18-27.5,8-53.9,26.4-1.9-1.4-3.6-5.2-4.3-8s-1.1-4.5-2.7-3.6c-3.3,1.7-8,21.8-10.8,35.5-2.3,11.3-7.9,27.8-29.2,27.8s-24.7-33.3-40.5-43.3c-.7-.5-1.6-1.1-1.4.9,1.3,9.4,6,32.1,8.6,50.6s-9.3,31.6-24.9,31.6-26.8-11-20.6-31.8a4.7,4.7,0,0,0-.7-4.3C89.2,21.2,40.3,0,2.8,0,.4,0,.6.5,1.9,1.9,35.8,36.1,68.8,82.6,81.1,152.7c-9.2-17.4-26.4-34.9-48.3-38.9-1.3-.2-2-.2-1,1.6,17.4,31.8,29,74.3,30.4,111,38.5,7.4,50.9,37.5,91.9,48.1,4.2,1,4.6.3,2.7-2.6-27.9-41.9-31.9-78-12.1-109.8,63.7,5.4,105.6,35,167.3,97,61.7-62,103.6-91.6,167.3-97,19.8,31.8,15.8,67.9-12.1,109.8-1.9,2.9-1.5,3.6,2.7,2.6,41-10.6,53.4-40.7,91.9-48.1,1.4-36.7,13-79.2,30.4-111,1-1.8.3-1.8-1-1.6-21.9,4-39.1,21.5-48.3,38.9C555.2,82.6,588.2,36.1,622.1,1.9,623.4.5,623.6,0,621.2,0Z" style="fill: url(#linear-gradient-2)"/>
    <path d="M312,55.1c-29.4,0-49.9,38.8-31.1,55.1,24.9,21.4,31.1,27.1,31.1,51.5Z" style="fill: #121c33"/>
    <path d="M312,55.1c29.4,0,49.9,38.8,31.1,55.1-24.9,21.4-31.1,27.1-31.1,51.5Z" style="fill: #121c33"/>
    <path d="M336.5,132.9c0,9.1,3.1,16.2,9,27.8s9,20.8-14.1,38c-14.8,11.1-18.6,16.1-19.4,25.6-.8-9.5-4.6-14.5-19.4-25.6-23.1-17.2-20-26.5-14.1-38s9-18.7,9-27.8l-45.6,39L312,246.2l70.1-74.3Z" style="fill: #121c33"/>
    <path d="M381.9,149.4c15.9,12.7,23.7,22.4,10.6,45.6L365,204.6Z" style="fill: #121c33"/>
    <path d="M242.1,149.4c-15.9,12.7-23.7,22.4-10.6,45.6l27.5,9.6Z" style="fill: #121c33"/>
    <path d="M105.8,170.3a1.7,1.7,0,0,0-.9-1.9C82.6,156.7,80,138.7,72.2,115.9h0a295.8,295.8,0,0,1,8.9,36.8c-9.2-17.4-26.4-34.9-48.3-38.9-1.3-.2-2-.2-1,1.6,17.4,31.8,29,75.7,30.4,112.5,33.2,6.3,47,28.2,76.5,41.2C99.6,249.5,98.4,203.8,105.8,170.3Z" style="fill: #517787"/>
    <path d="M94.1,116.1c17.4,34.4,18.7,20,18.7,6.1s-1-31.7-11-52.6-22.1-48.3,14.6-7.7C77.8,16.5,35.8,0,2.8,0,.4,0,.6.5,1.9,1.9,40,23,76.7,81.6,94.1,116.1Z" style="fill: #7495ab"/>
    <g>
      <polygon points="138.7 113.7 138.7 113.7 138.7 113.7 138.7 113.7" style="fill: #6d89a1"/>
      <path d="M182.7,130.2c-10,5.4-24.9,14.1-38,31.9,21.4,1.8,40.3,6.3,58.3,13.9h0c-22.3-19.3-14.8-33.2-4.7-40.8s10.6-8.5-3.4-22.8c-12.6-12.7-17.5-31.4-21-50,1.4,7.9,2.8,16.3,3.9,23.9,2.4,18-9.3,31.6-24.9,31.6a25.4,25.4,0,0,1-13.6-3.7c12,8.2,34.1,11.5,40.2,12.8S185.5,128.7,182.7,130.2Z" style="fill: #587880"/>
    </g>
    <path d="M518.2,170.3a1.7,1.7,0,0,1,.9-1.9c22.3-11.7,24.9-29.7,32.7-52.5h0a295.8,295.8,0,0,0-8.9,36.8c9.2-17.4,26.4-34.9,48.3-38.9,1.3-.2,2-.2,1,1.6-17.4,31.8-29,75.7-30.4,112.5-33.2,6.3-47,28.2-76.5,41.2C524.4,249.5,525.6,203.8,518.2,170.3Z" style="fill: #517787"/>
    <path d="M529.9,116.1c-17.4,34.4-18.7,20-18.7,6.1s1-31.7,11-52.6,22.1-48.3-14.6-7.7C546.2,16.5,588.2,0,621.2,0c2.4,0,2.2.5.9,1.9C584,23,547.3,81.6,529.9,116.1Z" style="fill: #7495ab"/>
    <g>
      <polygon points="485.3 113.7 485.3 113.7 485.3 113.7 485.3 113.7" style="fill: #6d89a1"/>
      <path d="M441.3,130.2c10,5.4,24.9,14.1,38,31.9-21.4,1.8-40.3,6.3-58.3,13.9h0c22.3-19.3,14.8-33.2,4.7-40.8s-10.6-8.5,3.4-22.8c12.6-12.7,17.5-31.4,21-50-1.4,7.9-2.8,16.3-3.9,23.9-2.4,18,9.3,31.6,24.9,31.6a25.4,25.4,0,0,0,13.6-3.7c-12,8.2-34.1,11.5-40.2,12.8S438.5,128.7,441.3,130.2Z" style="fill: #587880"/>
    </g>
    <path d="M392.5,96.2c0,14.4-4.7,23.2-15.8,30.6s-11.5,8.4-9.2,12.9-13.4-9.8-13.4-9.8Z" style="fill: #121c33"/>
    <path d="M231.5,96.2c0,14.4,4.7,23.2,15.8,30.6s11.5,8.4,9.2,12.9,13.4-9.8,13.4-9.8Z" style="fill: #121c33"/>
    <path d="M381.9,149.4c-17.8-13.4-19.6-16.7-13.4-21.4s37.9-22.2,17.1-48.3c-4.2-5.1-2.9-.5-3.4,7s-1,14.5-14.7,21.2-32,12.6-31,25,18.9,21.9,19.1,37.2c.4,30.1-35.8,34.8-43.6,54.2-7.8-19.4-44-24.1-43.6-54.2.2-15.3,18.1-24.8,19.1-37.2s-17.3-18.3-31-25-14.2-13.7-14.7-21.2.8-12.1-3.4-7c-20.8,26.1,10.9,43.7,17.1,48.3s4.4,8-13.4,21.4c-10.1,7.6-14.5,16-12.6,27.3a35.3,35.3,0,0,0,14.6,22.6c21.2,15,42.9,34.7,67.9,59.8,25-25.1,46.7-44.8,67.9-59.8a35.3,35.3,0,0,0,14.6-22.6C396.4,165.4,392,157,381.9,149.4Z" style="fill: #b3dfed"/>
    <path d="M340.9,68.8C324.8,46,314.3,30.4,312,17.6c-2.3,12.8-12.8,28.4-28.9,51.2s-3.1,31.5,9.3,44.2,22.8,20.1,13.3,40.8-9.9,29.1,6.3,42.7c16.2-13.6,15.9-22,6.3-42.7s1-28.1,13.3-40.8S357,91.7,340.9,68.8Z" style="fill: url(#linear-gradient-3)"/>
    <path d="M253.8,18.4c-.7-2.7-1.1-4.5-2.7-3.6-3.3,1.7-8,21.8-10.8,35.5,3.1-14,9.5-17.3,17.8-23.9C256.2,25,254.5,21.2,253.8,18.4Z" style="fill: #65949e"/>
    <path d="M370.2,18.4c.7-2.7,1.1-4.5,2.7-3.6,3.3,1.7,8,21.8,10.8,35.5-3.1-14-9.5-17.3-17.8-23.9C367.8,25,369.5,21.2,370.2,18.4Z" style="fill: #65949e"/>
    <path d="M226.9,575.5c-17.3,7.4-19.8,6.7-17.6-4.8,5.9-30.6,1.9-49.1-28.5-59s-62.9-22.5-78.6-50S66.9,387.9,84.1,333.1s18.1-77.9,0-102.6-35.6-32.6-50.5-31.7c-7.1.4-7.9,1.3-5.4,5.9s36.2,43.5,39,83.4h0c5.4,79.6,1.8,148-56.2,202C79.9,526.7,157.4,624,312,624,278.5,550.8,244.2,568.1,226.9,575.5Z" style="fill: #7ea2ba"/>
    <path d="M397.1,575.5c17.3,7.4,19.8,6.7,17.6-4.8-5.9-30.6-1.9-49.1,28.5-59s62.9-22.5,78.6-50,35.3-73.8,18.1-128.6-18.1-77.9,0-102.6,35.6-32.6,50.5-31.7c7.1.4,7.9,1.3,5.4,5.9s-36.2,43.5-39,83.4h0c-5.4,79.6-1.8,148,56.2,202C544.1,526.7,466.6,624,312,624,345.5,550.8,379.8,568.1,397.1,575.5Z" style="fill: #7ea2ba"/>
    <path d="M226.9,575.5c-17.3,7.4-19.8,6.7-17.6-4.8a118.9,118.9,0,0,0,2.1-15.5c.9-18.7-5-18.9-33.2-2S149,569.7,150,554.9s-6-24.4-21.8-26.5-30.1,5.4-30.8,4,4.4-11.8,9-30.1c6.8-26.8-19-24.6-37.4-20.4s-27.5,6.9-28.6,3c-1.5-5.7,3.1-27.1,16.4-64.5h0C48,445.7,33.6,469,11,490.1,79.9,526.7,157.4,624,312,624,278.5,550.8,244.2,568.1,226.9,575.5Z" style="fill: #517787"/>
    <path d="M397.1,575.5c17.3,7.4,19.8,6.7,17.6-4.8a118.9,118.9,0,0,1-2.1-15.5c-.9-18.7,5-18.9,33.2-2s29.2,16.5,28.2,1.7,6-24.4,21.8-26.5,30.1,5.4,30.8,4-4.4-11.8-9-30.1c-6.8-26.8,19-24.6,37.4-20.4s27.5,6.9,28.6,3c1.5-5.7-3.1-27.1-16.4-64.5h0c8.8,25.3,23.2,48.6,45.8,69.7C544.1,526.7,466.6,624,312,624,345.5,550.8,379.8,568.1,397.1,575.5Z" style="fill: #517787"/>
    <path d="M397.1,583.5c17.3,7.4,24,6.7,21.8-4.8a140.6,140.6,0,0,1-2.2-15.5c-.8-18.7.9-18.9,29.1-2s32.1,16.5,31,1.7,3.2-24.4,19-26.5,31.9,4.8,33.3,4c2.9-1.5-.7-10.8-7.6-30.2-9.3-26.1,15.1-24.5,33.5-20.3s26.5,6.5,28.6,3c3.9-6.4-.4-27.5-13.7-64.9h0c11.2,32.7,15.1,51.6,13.7,56.9s-10.2,1.1-28.6-3-44.2-6.4-37.4,20.4c4.6,18.3,9.7,28.7,9,30.1s-15-6.1-30.8-4-22.9,11.7-21.8,26.5.1,15.1-28.2-1.7-34.1-16.7-33.2,2a118.9,118.9,0,0,0,2.1,15.5c2.2,11.5-.3,12.2-17.6,4.8S345.5,550.8,312,624h3.4c3.9-6.8,8.4-15.3,9.8-17.6C355.3,557.2,381.5,576.9,397.1,583.5Z" style="fill: #254757"/>
    <path d="M226.9,583.5c-17.3,7.4-24,6.7-21.8-4.8a140.6,140.6,0,0,0,2.2-15.5c.8-18.7-.9-18.9-29.1-2s-32.1,16.5-31,1.7-3.2-24.4-19-26.5-31.9,4.8-33.3,4c-2.9-1.5.7-10.8,7.6-30.2,9.3-26.1-15.1-24.5-33.5-20.3s-26.5,6.5-28.6,3c-3.9-6.4.4-27.5,13.7-64.9h0C42.9,460.7,39,479.6,40.4,484.9s10.2,1.1,28.6-3,44.2-6.4,37.4,20.4c-4.6,18.3-9.7,28.7-9,30.1s15-6.1,30.8-4,22.9,11.7,21.8,26.5-.1,15.1,28.2-1.7,34.1-16.7,33.2,2a118.9,118.9,0,0,1-2.1,15.5c-2.2,11.5.3,12.2,17.6,4.8S278.5,550.8,312,624h-3.4c-3.9-6.8-8.4-15.3-9.8-17.6C268.7,557.2,242.5,576.9,226.9,583.5Z" style="fill: #254757"/>
    <path d="M73.9,186.9c6.6,17.2,9.6,15.5,10,10.1s.5-24.4-2.8-44.3c-9.2-17.4-26.4-34.9-48.3-38.9H31.7C49.3,132.5,68,171.7,73.9,186.9Z" style="fill: #254757"/>
    <path d="M550.1,186.9c-6.6,17.2-9.6,15.5-10,10.1s-.5-24.4,2.8-44.3c9.2-17.4,26.4-34.9,48.3-38.9h1.1C574.7,132.5,556,171.7,550.1,186.9Z" style="fill: #254757"/>
    <path d="M443.2,511.7c30.5-10,62.9-22.5,78.6-50s35.3-73.8,18.1-128.6c13.6,51.7-6.4,118.9-46.1,146.9s-90,23.2-81.2,75.2C411.1,533.7,418.3,519.8,443.2,511.7Z" style="fill: #b3dfed"/>
    <path d="M180.8,511.7c-30.5-10-62.9-22.5-78.6-50S66.9,387.9,84.1,333.1C70.5,384.8,90.5,452,130.2,480s90,23.2,81.2,75.2C212.9,533.7,205.7,519.8,180.8,511.7Z" style="fill: #b3dfed"/>
    <path d="M542.9,152.7c-3.3,19.9-3.3,39-2.8,44.3a7.4,7.4,0,0,0,.6,2.9c1.6-19.6,5.3-35.4,10.9-60.5A89.1,89.1,0,0,0,542.9,152.7Z" style="fill: #121c33"/>
    <path d="M81.1,152.7c3.3,19.9,3.3,39,2.8,44.3a7.4,7.4,0,0,1-.6,2.9c-1.6-19.6-5.3-35.4-10.9-60.5A89.1,89.1,0,0,1,81.1,152.7Z" style="fill: #121c33"/>
    <path d="M312,39.4c-1.7-7.3.9-3.9-10.2,12.9-5.7,8.7-14.5,13.5-20.4,19.2-5.9,9.2-6.8,15.9-4.9,21.7-2.7-8.6,9.6-13.3,20.2-18.2s14-9.1,15.3-12.6S313.7,46.6,312,39.4Z" style="fill: #f7fbff"/>
    <path d="M173.5,138c10.7-7.5,11-7.6,11-9.1-.1.3-.8.7-1.8,1.3-10,5.4-24.9,14.1-38,31.9,0,2.4.5,3.5,1.8,3.6s2.3-.7,3.9-3.1h0C154.6,154.8,162.6,145.6,173.5,138Z" style="fill: #121c33"/>
    <path d="M450.5,138c-10.7-7.5-11-7.6-11-9.1.1.3.8.7,1.8,1.3,10,5.4,24.9,14.1,38,31.9,0,2.4-.5,3.5-1.8,3.6s-2.3-.7-3.9-3.1h0C469.4,154.8,461.4,145.6,450.5,138Z" style="fill: #121c33"/>
    <path d="M309.2,116.1c2.9,2.8,12.5-.3,18.9-5.6s12-13.8,8.2-18.7-10.9-2.4-14.1,5-6.5,9.8-10.3,11.7S307,114,309.2,116.1Z" style="fill: #f7fbff"/>
  </g>
</svg>
