<svg fill="none" height="113" viewBox="0 0 193 113" width="193" xmlns="http://www.w3.org/2000/svg" xmlns:xlink="http://www.w3.org/1999/xlink"><clipPath id="a"><path d="m16.2524 16.2883h48.7579v48.8649h-48.7579z"/></clipPath><mask id="b" height="50" maskUnits="userSpaceOnUse" width="50" x="16" y="16"><ellipse cx="40.6314" cy="40.7208" fill="#24193a" rx="24.3789" ry="24.4324"/></mask><path d="m0 8c0-4.41827 3.58172-8 8-8h185v105c0 4.418-3.582 8-8 8h-185z" fill="#18191c"/><path d="m0 81.4414h193v23.5586c0 4.418-3.582 8-8 8h-185z" fill="#202225"/><path d="m87.4372 30.3863 1.96-.35-2.618-3.794c1.204-.42 1.96-1.302 1.96-2.716 0-1.876-1.302-2.898-3.458-2.898h-2.996v9.66h1.848v-3.696h.784zm-.518-6.762c0 1.008-.714 1.554-1.862 1.554h-.938v-3.066h1.022c1.162 0 1.778.546 1.778 1.512zm9.2707 3.276c0-2.198-1.344-3.514-3.192-3.514-1.834 0-3.178 1.33-3.178 3.528s1.33 3.514 3.164 3.514c1.848 0 3.206-1.33 3.206-3.528zm-1.638.014c0 1.26-.532 2.142-1.568 2.142-.98 0-1.526-.91-1.526-2.156s.532-2.142 1.526-2.142c1.008 0 1.568.91 1.568 2.156zm7.1451 3.472 1.792-.266-2.646-3.542 2.492-3.052h-1.904l-2.1983 2.8v-6.146l-1.68.266v9.842h1.68v-3.36zm6.333-1.96c-.462.448-1.008.728-1.582.728-.518 0-.826-.294-.826-.784 0-.644.462-1.218 2.408-1.456zm1.68 1.862v-4.634c0-1.624-.868-2.268-2.618-2.268-1.078 0-1.904.238-2.688.546l.21 1.344c.728-.322 1.47-.546 2.254-.546.742 0 1.162.28 1.162 1.008v.196c-2.73.266-4.074.98-4.074 2.618 0 1.176.77 1.876 1.918 1.876 1.008 0 1.708-.448 2.254-1.022l.14.882z" fill="#fff"/><path d="m115.321 27.3123h-2.016l.336-2.16h2.016zm-.48 3h.852l.336-2.088h1.68l-.156-.912h-1.38l.336-2.16h1.44v-.912h-1.296l.312-1.968-.816-.18-.348 2.148h-2.016l.336-2.088h-.852l-.336 2.088h-1.68l.156.912h1.38l-.336 2.16h-1.44v.912h1.296l-.312 1.968.816.18.348-2.148h2.016zm10.43-4.08c0-2.688-1.248-4.212-3.096-4.212-1.86 0-3.108 1.524-3.108 4.212s1.248 4.212 3.108 4.212c1.848 0 3.096-1.524 3.096-4.212zm-1.104 0c0 2.112-.744 3.264-1.992 3.264s-2.004-1.152-2.004-3.264.756-3.264 2.004-3.264 1.992 1.152 1.992 3.264zm8.533 0c0-2.688-1.248-4.212-3.096-4.212-1.86 0-3.108 1.524-3.108 4.212s1.248 4.212 3.108 4.212c1.848 0 3.096-1.524 3.096-4.212zm-1.104 0c0 2.112-.744 3.264-1.992 3.264s-2.004-1.152-2.004-3.264.756-3.264 2.004-3.264 1.992 1.152 1.992 3.264zm8.534 0c0-2.688-1.248-4.212-3.096-4.212-1.86 0-3.108 1.524-3.108 4.212s1.248 4.212 3.108 4.212c1.848 0 3.096-1.524 3.096-4.212zm-1.104 0c0 2.112-.744 3.264-1.992 3.264s-2.004-1.152-2.004-3.264.756-3.264 2.004-3.264 1.992 1.152 1.992 3.264zm8.534 0c0-2.688-1.248-4.212-3.096-4.212-1.86 0-3.108 1.524-3.108 4.212s1.248 4.212 3.108 4.212c1.848 0 3.096-1.524 3.096-4.212zm-1.104 0c0 2.112-.744 3.264-1.992 3.264s-2.004-1.152-2.004-3.264.756-3.264 2.004-3.264 1.992 1.152 1.992 3.264z" fill="#b9bbbe"/><g clip-path="url(#a)"><g mask="url(#b)"><path d="m23.2958 60.6242c-.0963-.0364-.1927-.0761-.2897-.1093-.3018-.1017-.6126-.1766-.9145-.2782-.6975-.2354-1.2693-.6044-1.8373-1.0598-.7486.88-1.3651 1.8842-1.829 2.9209h6.1539c-.2565-.3978-.4933-.8084-.7084-1.2299-.1978-.0147-.3937-.0927-.575-.2437z" fill="#9affd8"/><path d="m19.3329 58.3096c-.5144-.5763-.9273-1.2395-1.1455-1.9859-.2636-.9011-.1972-1.9353.3727-2.7079.903-1.2242 2.4716-1.4839 3.8431-1.0637.0561-.4438.1327-.8851.2329-1.3213.5354-2.3326 1.6241-4.3645 3.0926-6.0843.06-.5532.305-1.0892.5992-1.5503.6089-.9556 1.4481-1.7685 2.3581-2.4701-1.173-.0755-2.344-.1893-3.5106-.3511-.395-.055-.5144-.6971-.3925-.9894.1596-.3819 1.2432-.4893 1.6063-.5686 1.1851-.259 2.4085-.3256 3.6044-.527.3485-.0589.6975-.1145 1.0479-.1638.6299-.0882 1.2636-.1528 1.8998-.2008.4021-.6875.7569-1.3962 1.2202-2.0505 1.1354-1.6008 2.6676-3.0194 4.5464-3.792 1.755-.7214 3.9312-.9357 5.6791-.0774.6471.3179 1.3689.7739 2.0786 1.2958 2.4301-1.0585 5.0199-1.7985 7.4488-2.8813 2.1487-.9574 4.3255-2.3626 5.1034-4.5864.9758-2.7898-.7179-5.9915-3.24-7.5246-2.522-1.5331-5.637-1.7154-8.5764-1.4678-2.0001.1682-4.0269.5142-5.9976.1336-1.9707-.3805-3.9299-1.7044-4.3313-3.675-.0319-.1547-.0523-.3102-.0644-.4649h-13.5313c-1.2259.5884-2.5291.9855-3.762 1.1749-.7544.1157-1.5029.1656-2.2464.1637l-2.0316 23.6021 2.0316 23.4035c.5176-1.1647 1.1921-2.2564 2.0262-3.226.0128-.0147.0255-.0288.0383-.0435z" fill="#9affd8"/><path d="m41.1389 19.6033c1.9706.3805 3.9975.0345 5.9975-.1337 2.9395-.2475 6.1188-2.2943 8.6409-.7612 2.522 1.533 4.2158 4.7348 3.24 7.5246-.778 2.2238-2.9548 3.6289-5.1035 4.5864-2.4289 1.0828-5.0186 1.8228-7.4488 2.8813 1.0907.8007 2.1519 1.7556 2.8693 2.6011.4901.5782 1.1748 1.3943 1.3197 2.1573.3567.087.7103.19 1.0619.3096.3663.1241.7403.2616 1.1136.4138 1.2107-.802 2.5438-1.4384 3.8763-1.9578 2.9688-1.1576 6.1565-1.4876 9.3193-1.3424v-22.648h-29.2176c.0121.1547-.0312 2.5386.0001 2.694.402 1.9705 2.3606 3.2944 4.3313 3.675z" fill="#9fa9ff"/><path d="m54.1948 39.8271c.8303.4548 1.5967 1.0138 2.1883 1.7147.5138.6083.9056 1.3604.8616 2.1791-.0332.6191-.2847 1.2388-.6752 1.737.0242.0442.0478.0883.0708.1324.1034.199.1991.4011.2859.6076.6452 1.5318 1.1392 3.2062 1.4314 4.9261.3664-.0883.7525-.0858 1.1251.0006 1.0377.2405 1.8182 1.0962 2.1673 2.0735.0057.016.0102.032.0153.048.1493.3965.2278.8276.2463 1.2721.0887 2.172-1.6133 3.7677-3.143 5.0405-.2795.2321-.6094.3319-.9253.2705-.0262.0768-.0511.1535-.0785.229-.2668.7381-.5891 1.4154-.9592 2.0383h9.2191v-24.9338c-4.1265-.1849-8.2401.5052-11.8299 2.6644z" fill="#9fa9ff"/><path d="m20.2056 59.1385c-.3102-.2514-.605-.529-.873-.8289-.0128.0147-.0256.0288-.0383.0435-.8341.9696-1.5087 2.0613-2.0262 3.226v.5187h1.157c.4639-1.0368 1.0798-2.0409 1.829-2.921-.016-.0134-.0319-.0256-.0485-.0383z" fill="#fff"/><path d="m56.7049 37.2248c-1.3325.5193-2.6657 1.1557-3.8763 1.9577.4621.1893.9235.4023 1.3663.6453 3.5891-2.1598 7.7035-2.8493 11.8299-2.6644v-1.2805c-3.1628-.1458-6.3505.1842-9.3199 1.3419z" fill="#fff"/><path d="m29.8302 14.6368-18.9061 8.7777-.0943 11.0673c1.0385-.1962 6.8521 2.969 12.9468-1.103 12.3424-8.2463 4.4988-17.5918 6.0536-18.742z" fill="#faffa0"/><path d="m61.9132 54.5188c-.0178-.4438-.097-.8749-.2463-1.2715-.0051-.0159-.0096-.0319-.0153-.0479-.3491-.9773-1.1296-1.833-2.1673-2.0735-.3727-.0864-.7587-.0889-1.1251-.0007-.2929-1.7198-.7862-3.3948-1.4314-4.926-.0868-.2066-.1825-.4087-.2859-.6076-.023-.0447-.0472-.0889-.0708-.1324-.1934.2476-.4206.465-.6739.6377-.9273.6325-2.1698.5705-3.2184.3607-1.0185-.204-2.0243-.5929-2.9317-1.0981-.0466-.0263-.0932-.0531-.1392-.0793-.3841-.2207-.7568-.4618-1.1149-.7228-.7811-.5686-1.4952-1.228-2.1225-1.9622-.0109.1426-.023.2846-.0377.426-.1493 1.4192-.5258 3.0642-1.7773 3.9218-.9471.6486-2.4334.7017-2.9662-.4828-.3951-.8775-.3076-1.9386-.1328-2.9063-.0025.0064-.0051.0122-.0076.0186-.448 1.1109-.8635 2.2244-1.51 3.2394-.8909 1.3975-2.2336 2.9645-3.9018 3.3732-.4429.1087-.9087.1368-1.3957.0569-.6975-.1139-1.335-.4695-1.5756-1.1685-.1985-.5769-.0753-1.235.1129-1.7972.1781-.5328.4149-1.0464.6867-1.544-.4588.3467-.9426.6639-1.4633.9377-1.6816.8845-4.1245 1.8387-5.8125.4886-.5233-.4189-.8565-1.0201-.875-1.6968-.0031-.1049.0026-.2098.0141-.314-1.4685 1.7198-2.5572 3.7517-3.0926 6.0842-.1002.4362-.1768.8775-.233 1.3214-1.3714-.4202-2.9394-.1605-3.843 1.0636-.5699.772-.6363 1.8068-.3727 2.708.2182.7464.6318 1.4096 1.1455 1.9859.268.2999.5629.5775.873.8289.016.0127.0326.0255.0485.0383.568.4554 1.1398.8244 1.8373 1.0598.3019.1017.6127.1765.9145.2782.0977.0326.1934.0723.2898.1094.1812.1509.3771.2296.575.2437.215.4214.4518.8321.7083 1.2299l7.7315 5.0901h1.5546 10.1789 4.5872 1.293l6.8821-5.0901c.3701-.623.6924-1.3009.9591-2.0384.0275-.0761.053-.1528.0785-.2289.3159.0614.6459-.0384.9254-.2706 1.5303-1.274 3.2323-2.8697 3.1436-5.0424z" fill="#24193a"/><path d="m56.3831 41.5418c-.5916-.701-1.358-1.26-2.1883-1.7147-.4429-.243-.9043-.456-1.3663-.6453-.3733-.1529-.748-.2898-1.1136-.4145-.3517-.1196-.7052-.2226-1.062-.3095.0824.4355-.0095.8532-.416 1.1998-.0543.0461-.1136.0908-.1787.1343-.0587.039-.1219.0755-.1864.1107-.8615.4669-2.2081.5807-3.4953.6216-.4894.0154-.9706.0211-1.4129.0314-.3874.0089-.7447.0217-1.0523.0486-2.1513.1887-4.3141.3697-6.4801.4912-2.2789.1272-4.5617.1874-6.838.1189-.6369-.0192-1.2732-.0479-1.9088-.0889-.9094.7016-1.7492 1.5145-2.3581 2.4701-.2942.4611-.5392.9971-.5992 1.5503-.0115.1043-.0166.2091-.0141.314.0186.6767.3517 1.2785.875 1.6968 1.6886 1.3502 4.1315.3959 5.8125-.4886.5207-.2737 1.0045-.591 1.4633-.9376-.2718.4976-.5086 1.0111-.6867 1.5439-.1882.5628-.3114 1.2203-.1129 1.7972.2406.6991.8781 1.054 1.5756 1.1685.487.08.9522.0518 1.3957-.0569 1.6689-.4093 3.0116-1.9756 3.9018-3.3731.6465-1.0144 1.062-2.1279 1.51-3.2395.0025-.0064.0051-.0121.0076-.0185-.1748.9677-.2623 2.0287.1328 2.9062.5328 1.1851 2.0192 1.1321 2.9662.4829 1.2515-.8577 1.628-2.5027 1.7773-3.9219.0147-.1413.0268-.2833.0377-.4259.6267.7342 1.3414 1.3936 2.1225 1.9622.3587.2609.7308.502 1.1149.7227.0466.0269.0926.0537.1392.0793.9074.5053 1.9132.8941 2.9317 1.0982 1.0486.2097 2.2917.2718 3.2184-.3608.2527-.1727.4799-.3907.6739-.6376.3905-.4989.642-1.118.6752-1.7371.0446-.818-.3478-1.5702-.8616-2.1784z" fill="#ffcd2e"/><path d="m50.6536 38.4584c-.1448-.763-.829-1.5791-1.3197-2.1573-.7173-.8455-1.7793-1.8004-2.8693-2.6012-.7096-.5212-1.4314-.9779-2.0785-1.2957-1.748-.8583-3.9241-.6441-5.6791.0774-1.8788.7726-3.4111 2.1911-4.5464 3.792-.4639.6543-.8181 1.3623-1.2202 2.0505-.6362.0479-1.27.1125-1.8998.2008-.3504.0493-.6995.1049-1.0479.1637-1.196.2021-2.4187.2687-3.6044.5277-.3638.0793-1.4474.1867-1.6063.5686-.1219.2923-.0026.9344.3925.9894 1.1665.1618 2.3376.2763 3.5106.3511.6356.041 1.2718.0697 1.9087.0889 2.2764.0685 4.5592.0083 6.8381-.1189 2.166-.1216 4.3287-.3026 6.48-.4912.3076-.0269.665-.0397 1.0524-.0486.4422-.0103.9228-.0154 1.4129-.0314 1.2872-.0409 2.6331-.1554 3.4953-.6216.0645-.0352.1276-.0717.1863-.1107.0651-.0435.1251-.0883.1787-.1343.4059-.346.4985-.7637.4161-1.1992zm-20.7139 1.7863c.3229-.2085.6529-.4061.9905-.589-.3376.1829-.6676.3805-.9905.589zm3.8527-1.5772c.1149.0045.2087.041.2808.0979-.0721-.0569-.1659-.0934-.2808-.0979z" fill="#ff5cef"/><g fill="#fff"><path d="m37.5788 55.856c-.0096-.0672-.0204-.1343-.0319-.2008.0115.0671.0223.1343.0319.2008z"/><path d="m37.6031 56.0556c-.0064-.0627-.0141-.1254-.023-.188.0089.0626.0166.1253.023.188z"/><path d="m37.5804 55.8682c-.0007-.0038-.0007-.0077-.0013-.0115.0006.0038.0006.0077.0013.0115z"/><path d="m37.603 56.0555c0 .0013 0 .0032.0007.0044 0-.0012-.0007-.0025-.0007-.0044z"/><path d="m37.6037 56.0607c-1.3599 1.0534-3.0351 1.707-4.7499 1.8822-.6452.0659-1.2955.0634-1.9375-.0102-1.0415-.1202-2.06-.4291-2.9918-.9466-.0938-.0524-.1869-.1068-.2776-.1631-.2731-.1688-.5328-.3549-.7798-.557-.1506.8877-.0428 1.8113.344 2.6318.4218.8948 1.1927 1.6066 2.0504 2.0767 1.4557.7969 3.3294 1.0726 4.9382.5603.3204-.1023.6312-.2347.9254-.4017.0849-.0479.1672-.0997.2489-.1528 1.6139-1.0553 2.4244-3.0265 2.2297-4.9196z"/><path d="m53.504 55.8229c-.0223-.4125-.0976-.8109-.2221-1.1876-.7122.7099-1.5494 1.2964-2.5176 1.7153-.1193.0518-.2405.1004-.3631.1477-.3893.1491-.7932.2744-1.2061.3755-1.6657.4061-3.4775.4106-5.094-.0263-.5386-.1458-1.0727-.3607-1.5328-.6689-.0237.2462-.0249.495-.002.7431.1589 1.7147 1.3255 3.0668 2.9076 3.6686.4263.1619.8666.2456 1.3178.3013.1008.0128.1972-.0179.2795-.0729 1.1124.1733 2.3006.0383 3.339-.3614.4122-.1586.8002-.3594 1.1512-.5986.0683-.0467.1353-.094.2004-.1439 1.2298-.9357 1.8252-2.3537 1.7422-3.8919z"/></g><path d="m37.5469 55.6559c-.0013-.0077-.0032-.0153-.0045-.0237-.0108-.0588-.0223-.1176-.0357-.1765-.0147-.0678-.0313-.1349-.0485-.2014-.4142-1.5708-1.5425-2.5225-2.9171-2.9421-.2617-.0799-.5329-.1407-.8092-.1823-.2074-.0313-.418-.0524-.6305-.0626-.1417-.0071-.284-.0096-.427-.0077-.2859.0038-.573.0256-.8589.0652-.0715.0096-.143.0205-.2138.0326-.1424.0243-.2847.0525-.4251.0845-.0702.0159-.1404.0332-.2106.0518-.1397.0364-.2782.0774-.4154.1228-.2055.0678-.4072.1445-.6044.2302-.1314.0569-.2603.1183-.3867.1836-.1264.0652-.2502.1343-.3714.2072-.1206.0729-.2387.1496-.3536.2302-.2859.2015-.5507.426-.7881.6735-.0951.0991-.1851.2015-.2712.3076-.1283.1593-.2464.3262-.3517.5008-.037.0608-.0721.1228-.1059.1861-.0306.057-.06.1152-.0881.1734-.0887.1848-.164.3767-.2246.5762-.0179.0576-.0338.1164-.0492.1746-.0057.0211-.0108.0422-.0159.0634-.0096.037-.0179.0748-.0262.1125-.0057.025-.0115.0499-.0166.0755-.0044.0205-.0076.0409-.0115.062-.0057.0314-.0121.0627-.0178.0947.2463.2021.506.3882.7798.5571.0913.0562.1838.1106.2776.163.9318.5175 1.9503.827 2.9918.9466.642.0742 1.2923.0761 1.9375.0103 1.7148-.1753 3.39-.8289 4.7499-1.8823-.0146-.1375-.0338-.2725-.0574-.4068z" fill="#427efc"/><path d="m53.2811 54.6345c-.0166-.0505-.0345-.101-.053-.1503-.0025-.0064-.0044-.0121-.007-.0185-.0159-.0429-.0332-.0857-.0504-.1279-.0032-.0077-.0064-.0154-.0096-.0224-.0395-.0953-.0829-.1887-.1295-.2802-.0045-.0083-.0083-.0166-.0128-.0249-.0204-.0403-.0421-.0806-.0638-.1202-.0032-.0052-.0057-.0109-.0089-.016-.0256-.0454-.0511-.0896-.0779-.1343-.0032-.0052-.0064-.0103-.0096-.0154-.0236-.0384-.0472-.0761-.0721-.1132-.0057-.009-.0121-.0185-.0185-.0275-.0274-.0409-.0555-.0819-.0849-.1228-.0006-.0006-.0006-.0013-.0012-.0019-.03-.0416-.0607-.0819-.0919-.1228-.0071-.009-.0141-.0179-.0211-.0269-.0255-.032-.051-.0639-.0772-.0959-.007-.009-.0147-.0173-.0217-.0262-.0326-.0384-.0657-.0768-.1002-.1145-.0038-.0039-.0077-.0083-.0115-.0122-.03-.0332-.0613-.0659-.0925-.0978-.0096-.0096-.0192-.0199-.0294-.0295-.0293-.03-.0593-.0594-.09-.0882-.0063-.0064-.0134-.0128-.0198-.0192-.0363-.0345-.074-.0684-.1123-.1023-.0095-.0083-.0185-.016-.028-.0243-.03-.0263-.0607-.0518-.0919-.0774-.0109-.009-.0224-.0186-.0332-.0275-.0402-.032-.0804-.064-.1213-.0953-.0651-.0493-.1308-.096-.1978-.1414-.6031-.4093-1.2847-.6773-1.9956-.8142-.0581-.0115-.1168-.0217-.1749-.0313-.1799-.0294-.3618-.0499-.5437-.0627-.2418-.0172-.485-.0198-.7281-.0089-.0058 0-.0115.0006-.0173.0013-.2374.0115-.4741.0358-.709.0729-.2406.0383-.4786.0902-.7128.1547-.1564.0429-.3108.0921-.4627.1471-.3038.1094-.5986.2418-.88.3959-.2815.1542-.5489.3301-.7984.5271l-.0006.0006c-.0358.0281-.0709.0569-.106.0857-.0115.0096-.0229.0192-.0338.0288-.0236.0204-.0472.0403-.0708.0614-.0128.0115-.0262.023-.039.0345-.0217.0192-.0434.039-.0644.0589-.0134.0121-.0262.0243-.0396.0371-.0217.0204-.0427.0409-.0638.062-.0121.0115-.0243.0237-.0364.0358-.0249.0243-.0491.0499-.0734.0748-.0083.0084-.0159.0167-.0242.025-.0319.0332-.0632.0671-.0945.1017-.0089.0096-.0172.0192-.0255.0288-.0223.0249-.0447.0505-.0664.0761-.0115.0134-.0229.0268-.0344.0403-.0192.0223-.0377.0447-.0562.0678-.0121.0147-.0236.0294-.0351.0434-.0179.0224-.0357.0448-.053.0678-.0114.0147-.0229.0295-.0338.0442-.0185.0243-.0364.0492-.0549.0735-.0095.0135-.0191.0262-.0287.0397-.0268.0371-.0529.0748-.0791.1132-.0051.007-.0096.0147-.0147.0217-.0211.0314-.0421.0633-.0625.0953-.0096.0147-.0192.0301-.0288.0454-.0153.0243-.0306.0493-.0459.0742-.0102.0167-.0204.0339-.03.0506-.014.0236-.0274.0473-.0415.0709-.0102.0173-.0198.0346-.0293.0525-.0134.0243-.0268.0492-.0402.0735-.009.0167-.0179.0333-.0268.0506-.0147.0287-.0294.0575-.0441.0863-.0064.0128-.0134.0256-.0198.039-.0197.041-.0389.0819-.0574.1228-.007.016-.014.032-.0211.0486-.0114.0269-.0236.0531-.0344.08-.0077.0185-.0153.0377-.023.0563-.0102.0243-.0198.0492-.0293.0741-.0077.0192-.0147.0391-.0224.0582-.0089.0244-.0179.0493-.0268.0742-.007.0192-.014.0384-.0204.0582-.0089.0263-.0172.0525-.0262.0793-.0057.018-.0115.0359-.0172.0538-.0134.0428-.0255.085-.0377.1279-.0038.0147-.0076.0294-.0114.0448-.0077.03-.016.0601-.023.0901-.0045.0199-.009.0391-.0134.0589-.0058.0256-.0115.0511-.0172.0767-.0045.0205-.0083.041-.0122.0621-.0051.0249-.0095.0505-.014.0754-.0038.0205-.007.0416-.0109.0621-.0044.0262-.0083.0518-.0115.078-.0025.0198-.0057.0397-.0082.0595-.0039.03-.0071.0607-.0103.0914-.0019.0154-.0038.0307-.0051.0467.4602.3083.9943.5232 1.5329.669 1.6165.4369 3.4283.4324 5.0939.0263.4129-.1005.8163-.2258 1.2062-.3755.1225-.0467.2438-.0959.3631-.1477.9669-.4202 1.8041-1.0074 2.5157-1.7173z" fill="#427efc"/></g></g><ellipse cx="96.5" cy="48.8649" fill="#fff" rx="6.09474" ry="6.10811"/><path clip-rule="evenodd" d="m83.506 46.9551c.4331 0 .7939-.3545.7939-.78 0-.4254-.3608-.7799-.7939-.7799h-.4331c-.4331 0-.7941.3545-.7941.7799 0 .4255.361.78.7941.78zm16.3851 9.4312c4.1139-1.8437 5.8469-6.5238 3.9699-10.4239-1.299-2.7655-4.042-4.3964-6.9293-4.5383h-8.1565c-.7218 0-1.2272.5674-1.2272 1.2056 0 .709.5776 1.2054 1.2272 1.2054h2.0932c.4331 0 .794.3545.794.7799 0 .4255-.3609.7802-.794.7802h-5.1248c-.4331 0-.7941.3545-.7941.7799 0 .4255.361.78.7941.78h3.6813c.4331 0 .7939.3547.7939.7801 0 .4255-.3608.78-.7939.78h-2.3099c-.4331 0-.794.3545-.794.7799 0 .4255.3609.7802.794.7802h1.588c.0722.8509.2888 1.7018.6496 2.4818 1.8046 3.9001 6.5686 5.602 10.5385 3.8292zm-7.3873-5.2819c-1.0481-2.2422-.0473-4.8946 2.235-5.9242 2.2824-1.0296 4.9823-.0465 6.0302 2.1957 1.048 2.2422.048 4.8946-2.2349 5.9242-2.2824 1.0296-4.9823.0464-6.0303-2.1957z" fill="#4f5d7f" fill-rule="evenodd"/><path d="m98.3429 46.693 1.4436 2.4111c.0722.1417.0722.2127 0 .3545l-1.4436 2.411c-.0722.1417-.2165.1417-.2888.1417h-2.8151c-.1443 0-.2165-.0709-.2886-.1417l-1.4437-2.411c-.0721-.1418-.0721-.2128 0-.3545l1.4437-2.4111c.0721-.1417.2166-.1417.2886-.1417h2.8151c.1445-.071.2166 0 .2888.1417z" fill="#c5cedd"/><path clip-rule="evenodd" d="m112.689 40.6487h13.97c.118 0 .215.0999.215.223v9.9787c0 .0697-.031.1342-.084.1766l-6.985 5.5753c-.039.0312-.085.0464-.131.0464-.047 0-.093-.0152-.132-.0464l-6.985-5.5753c-.052-.0424-.083-.1069-.083-.1766v-9.9787c0-.1231.096-.223.215-.223zm8.024 7.2971 4.192-2.7618c.106-.0699.234.0462.176.1592l-1.739 3.4225c-.041.0822.019.1788.11.1788h1.041c.119 0 .169.1531.071.2229l-4.699 3.3773c-.042.0308-.1.0308-.143 0l-4.7-3.3773c-.096-.0698-.047-.2229.072-.2229h1.04c.092 0 .151-.0966.109-.1788l-1.738-3.4235c-.057-.112.071-.227.176-.1582l4.194 2.7618c.073.0483.131.114.17.1921l.639 1.2864c.045.0904.174.0904.219 0l.64-1.2864c.039-.0781.097-.1448.17-.1921z" fill="#9c84ef" fill-rule="evenodd"/><path d="m150.666 39.2869s7.672 5.2362 4.757 12.5887c-2.916 7.3524-8.714 5.3129-6.547 3.1647s-2.557-3.6059-5.582-6.3934l7.366-9.36" fill="#43b581"/><path d="m150.2 46.4858c-1.618 2.0587-3.9 3.0881-5.665 2.7173l-6.157 7.8447c-.104.1324-.232.243-.379.3255-.146.0826-.307.1355-.474.1557s-.336.0073-.498-.038-.313-.122-.446-.2258c-.133-.1032-.245-.2319-.329-.3786s-.137-.3086-.158-.4762c-.021-.1677-.008-.3378.037-.5005s.122-.3149.227-.4477l6.125-7.8319c-.812-1.624-.365-4.111 1.278-6.1889 2.04-2.5829 5.115-3.5483 6.899-2.1546 1.784 1.3938 1.566 4.6161-.46 7.199z" fill="#b4e1cd"/></svg>