<svg width="173" height="34" viewBox="0 0 173 34" fill="none" xmlns="http://www.w3.org/2000/svg">
<path d="M146.5 26.0001L173 39.0001L-1 43.3036V0.853035C4.68756 0.50241 13.2946 1.3914 18.3556 3.44542C22.2949 5.04437 25.9923 8.02718 28.449 10.0824C31.5136 12.6462 35.8351 14.3098 40.3861 13.7304C42.0401 13.5203 43.7138 13.5203 45.3677 13.7304C45.6816 13.7702 45.9955 13.8175 46.3057 13.8747C50.9535 14.7177 55.0046 17.3486 56.9029 20.7541C61.6363 19.3516 67.4008 20.8014 70.4518 23.8936L71.8054 24.0018L72.1665 24.0105L72.1975 23.9943C75.1062 23.9311 70.6249 21.201 73.5 20.7541C76.3615 20.3095 77.2261 17.333 80 16.5001C78.5 13.3114 81.0273 15.6427 82 11.2872C85.0475 11.4115 105.769 12.217 108.617 13.3114C112.687 14.8905 116.23 11.4395 121.064 12.1253C127.246 13.0022 135.002 19.2511 135.5 19.0001C138.563 17.4497 142.915 25.4667 146.5 26.0001Z" fill="white"/>
</svg>
