<svg id="Layer_1" data-name="Layer 1" xmlns="http://www.w3.org/2000/svg" viewBox="0 0 20 20"><defs><style>.cls-1{fill:#ff73fa;}.cls-2{fill:#8086ff;}.cls-3{fill:#05124a;}.cls-4{fill:#373be1;}.cls-5{fill:none;}.cls-6{fill:#ffb54b;}.cls-7{fill:#ffd836;}.cls-8{fill:#aec7ff;}.cls-9{fill:#a5f7de;}</style></defs><path class="cls-1" d="M19.15,17c.26.11.45,0,.36-.27l-.62-1.58-.61-1.59a.61.61,0,0,0-.61-.37l-4,1.09c-.27.08-.11.51.25.65Z"/><path class="cls-2" d="M9.8,14,7.08,8.67.44,18a.82.82,0,0,0,.66,1.3H12.52Z"/><path class="cls-3" d="M12.27,19c-.7,0-2.34-1.69-3.74-4.43a15.31,15.31,0,0,1-1.46-3.9C6.84,9.55,7,9,7.2,8.9l.13,0c.71,0,2.34,1.69,3.74,4.42,1.61,3.14,1.86,5.44,1.33,5.71A.28.28,0,0,1,12.27,19Z"/><path class="cls-4" d="M7.33,9.15c.53,0,2.09,1.52,3.5,4.28,1.62,3.14,1.69,5.12,1.44,5.34-.53,0-2.09-1.52-3.5-4.28C7.15,11.35,7.08,9.36,7.32,9.15h0m0-.54a.51.51,0,0,0-.25.06c-.84.42-.29,3.14,1.21,6.07,1.37,2.66,3.06,4.57,4,4.57a.51.51,0,0,0,.25-.06c.84-.43.3-3.14-1.21-6.07-1.36-2.66-3.06-4.57-4-4.57Z"/><path class="cls-4" d="M3.54,17.22a12.62,12.62,0,0,1-.91-2.33L1.41,16.6A13.28,13.28,0,0,0,2,18a12.78,12.78,0,0,0,.73,1.25H4.85A12,12,0,0,1,3.54,17.22Z"/><path class="cls-4" d="M6.83,19.25h2.4a11.69,11.69,0,0,1-2.76-3.53A11.77,11.77,0,0,1,5.19,11.3l-1.41,2A13.63,13.63,0,0,0,5,16.5,13.44,13.44,0,0,0,6.83,19.25Z"/><path class="cls-5" d="M10.83,13.43C9.39,10.62,7.9,9.21,7.35,9.15h0l0,0,5,9.58h0C12.52,18.52,12.44,16.54,10.83,13.43Z"/><path class="cls-5" d="M8.77,14.49c1.44,2.81,2.93,4.21,3.48,4.28h0l-5-9.58C7.1,9.57,7.23,11.5,8.77,14.49Z"/><polygon class="cls-6" points="7.35 9.15 7.35 9.15 7.35 9.15 7.35 9.15"/><path class="cls-4" d="M12.27,18.77h0c-.55-.07-2-1.47-3.48-4.28-1.54-3-1.67-4.92-1.47-5.3L7,8.69c-.78.5-.23,3.17,1.25,6.05,1.32,2.57,3,4.45,3.89,4.56a.55.55,0,0,0,.34-.05Z"/><path class="cls-7" d="M15.59,9.23,14.62,8a.43.43,0,0,0-.4-.16l-3.36.44a.44.44,0,0,0-.34.26l-1.3,3.14a.4.4,0,0,0,.06.42l1,1.27a.43.43,0,0,0,.4.16L14,13.05a.44.44,0,0,0,.34-.26l1.3-3.14A.4.4,0,0,0,15.59,9.23Z"/><path class="cls-8" d="M12.68,10.21l-1.27-.47a.31.31,0,0,1-.13-.5l3.44-4a.31.31,0,0,1,.35-.09l1.27.46a.33.33,0,0,1,.13.51l-3.44,4A.31.31,0,0,1,12.68,10.21Z"/><path class="cls-8" d="M11.61,17.25l-.26-.92a.22.22,0,0,1,.24-.28l3.72.32a.21.21,0,0,1,.19.16l.26.92a.23.23,0,0,1-.24.29l-3.72-.32A.22.22,0,0,1,11.61,17.25Z"/><path class="cls-1" d="M10.51,4.87l-1-.07a.23.23,0,0,1-.2-.33L10.93.9a.22.22,0,0,1,.23-.13l1,.07a.23.23,0,0,1,.2.33L10.74,4.73A.23.23,0,0,1,10.51,4.87Z"/><path class="cls-9" d="M9.12,3.16l.27.73A.2.2,0,0,0,9.56,4l.81,0c.19,0,.24.26.08.41l-.68.66a.37.37,0,0,0-.1.23l0,.83a.31.31,0,0,1-.38.3l-.69-.33a.25.25,0,0,0-.23,0l-.79.47c-.19.12-.37,0-.31-.22l.25-.86a.22.22,0,0,0,0-.21L7,4.81c-.13-.13,0-.39.19-.44L8,4.17A.35.35,0,0,0,8.22,4l.47-.8C8.8,3,9.06,3,9.12,3.16Z"/></svg>