<svg width="221" height="195" viewBox="0 0 221 195" fill="none" xmlns="http://www.w3.org/2000/svg">
<path d="M90.7583 9.31719C79.7254 11.7721 68.1985 19.6716 65.177 35.8046L96.7094 20.463L90.7583 9.31719Z" fill="#FFC619"/>
<path d="M90.7767 9.883L86.728 20.9531L99.2319 18.7976L90.7767 9.883Z" fill="#FFAF19"/>
<path d="M91.2232 11.7587L87.9248 20.7274L98.0786 18.9832L91.2232 11.7587Z" fill="#FF7700"/>
<path d="M90.8494 12.7805L87.5727 21.7877L97.7035 20.0037L90.8494 12.7805Z" fill="#FF8C00"/>
<path d="M142.486 56.3597L72.2325 90.2093C65.2796 79.8209 58.5734 68.9295 60.5405 48.9933C62.5076 29.0571 81.9661 13.3831 103.833 16.3884C109.929 17.205 114.847 18.7904 119.055 21.2237L118.522 23.0299C126.069 28.9519 131.265 35.4979 136.496 47.7194C137.478 48.0642 136.32 50.2108 137.273 50.6542L140.152 50.6871C141.165 53.0457 141.419 53.7413 142.486 56.3597Z" fill="white"/>
<path d="M61.2009 54.0635L57.7826 59.3014L39.2779 47.5938C38.9589 47.392 38.6872 47.1244 38.4784 46.8064C38.2696 46.4883 38.1277 46.126 38.0609 45.7401C37.994 45.3542 38.0035 44.9523 38.0888 44.5573C38.1741 44.1623 38.3335 43.782 38.5579 43.4381C39.0112 42.7435 39.7019 42.2393 40.4779 42.0363C41.254 41.8334 42.0519 41.9484 42.6962 42.356L61.2009 54.0635Z" fill="white"/>
<path d="M57.2461 52.3855L54.5923 56.4332C54.4026 56.7225 54.1136 56.9326 53.7889 57.0171C53.4641 57.1016 53.1302 57.0537 52.8607 56.884L49.3833 54.694C48.61 54.207 48.0845 53.4103 47.9225 52.4791C47.7604 51.5479 47.975 50.5586 48.5191 49.7287C49.0632 48.8988 49.8922 48.2964 50.8237 48.0539C51.7552 47.8114 52.713 47.9488 53.4863 48.4358L56.9636 50.6257C57.0994 50.7112 57.2147 50.825 57.3027 50.9604C57.3907 51.0958 57.4496 51.25 57.4759 51.4141C57.5023 51.5781 57.4955 51.7485 57.456 51.9154C57.4165 52.0822 57.3452 52.2421 57.2461 52.3855Z" fill="#CCDAFF"/>
<path d="M60.8343 54.717L58.1806 58.7648C57.9909 59.0541 57.7019 59.2641 57.3771 59.3486C57.0524 59.4332 56.7185 59.3853 56.4489 59.2155L52.9715 57.0255C52.1982 56.5385 51.6728 55.7418 51.5107 54.8106C51.3486 53.8795 51.5633 52.8901 52.1074 52.0602C52.6514 51.2303 53.4804 50.6279 54.412 50.3854C55.3435 50.1429 56.3012 50.2803 57.0745 50.7673L60.5519 52.9573C60.8215 53.127 61.0047 53.4048 61.0612 53.7294C61.1177 54.0541 61.0428 54.399 60.8532 54.6883L60.8343 54.717Z" fill="#98AAD9"/>
<path d="M136.217 48.3501C125.121 45.214 105.556 48.4749 87.0601 60.0349L70.5349 49.2422L72.8236 35.7166C84.5093 22.2092 104.338 18.0524 118.63 21.5776L118.093 23.4028C125.703 29.3866 130.942 36.0009 136.217 48.3501Z" fill="#7196FF"/>
<path d="M71.1158 55.2983C73.5498 62.1811 72.2015 70.4121 67.7013 73.6467C63.2011 76.8813 56.5114 73.3977 54.0584 65.2525C51.6053 57.1073 54.0597 49.3208 58.9275 47.0493C63.7953 44.7779 68.7857 48.6156 71.1158 55.2983Z" fill="#CCDAFF"/>
<path d="M57.8602 48.0667C58.1721 47.8349 58.5067 47.642 58.8567 47.4922C59.2171 47.3601 59.5876 47.2715 59.9605 47.2283C60.7423 47.1257 61.5225 47.195 62.2508 47.4319C62.9606 47.671 63.6126 48.047 64.1753 48.5418C64.7268 48.9974 65.2293 49.5131 65.6755 50.0815C66.5882 51.1657 67.3419 52.3909 67.9152 53.7218C68.2034 54.3652 68.4499 55.0312 68.653 55.7154C68.8792 56.4046 69.0578 57.1136 69.1876 57.8372L69.1681 57.9035C69.1864 57.9962 69.1864 58.0934 69.1678 58.1893C69.1493 58.2851 69.1127 58.3776 69.0603 58.4612C69.0079 58.5448 68.9407 58.6177 68.8628 58.6755C68.785 58.7334 68.698 58.775 68.6072 58.7978C68.4352 58.8378 68.2603 58.8115 68.1154 58.7238C67.9706 58.636 67.8657 58.4929 67.8205 58.3212C67.502 56.9964 67.0708 55.7132 66.5318 54.4864C65.9985 53.2683 65.3201 52.1355 64.5116 51.113C63.7333 50.0597 62.772 49.1749 61.672 48.4996C61.1082 48.1778 60.4873 47.9661 59.8369 47.8737C59.1897 47.7767 58.5139 47.8836 57.8927 48.1813L57.831 48.1662L57.8602 48.0667Z" fill="white"/>
<path d="M63.9367 59.0952C65.3986 63.1866 65.0262 67.8776 62.986 69.5088C60.9457 71.14 57.5362 68.8071 56.0329 63.9725C54.5295 59.138 55.4207 54.7831 57.721 53.704C60.0214 52.6249 62.537 55.1236 63.9367 59.0952Z" fill="#FFAF19"/>
<path d="M87.9282 40.6277C87.7996 41.4856 87.3853 42.2922 86.7601 42.9016C86.135 43.511 85.3403 43.883 84.5197 43.9504C82.5706 44.2146 80.528 43.013 80.0897 40.9351C79.6513 38.8573 81.5523 36.0824 84.3027 36.3302C87.0531 36.5781 88.1718 38.5753 87.9282 40.6277Z" fill="black"/>
<path d="M159.17 129.226L79.2704 110.57L69.6579 129.051C66.4345 135.26 65.2413 142.237 66.2918 148.733C67.3423 155.229 70.568 160.82 75.3916 164.506C91.0703 176.524 111.107 181.203 131.581 177.626C137.871 176.529 143.87 173.09 148.505 167.924C153.141 162.757 156.113 156.199 156.89 149.419L159.17 129.226Z" fill="url(#paint0_linear_1166_6700)"/>
<path d="M114.718 131.489C137.321 136.984 156.868 137.298 158.377 132.189C159.886 127.08 142.785 118.483 120.181 112.988C97.5771 107.492 78.0302 107.178 76.5215 112.287C75.0129 117.396 92.1139 125.993 114.718 131.489Z" fill="#7090FF"/>
<path d="M107.982 157.203C83.4002 151.157 64.9653 140.745 66.2834 133.811C65.9483 135.051 65.694 136.307 65.5227 137.568C65.4905 137.679 65.5004 137.76 65.4682 137.87C65.4359 137.981 65.4028 138.209 65.3912 138.364C64.9106 145.307 82.9191 155.338 106.811 161.215C130.703 167.092 151.794 166.678 155.159 160.445C155.212 160.285 155.28 160.13 155.362 159.982L155.448 159.688L155.479 159.696C156.003 158.519 156.466 157.315 156.867 156.092C154.232 162.702 132.595 163.258 107.982 157.203Z" fill="#5865F2"/>
<path d="M152.773 128.589C151.539 132.795 134.987 132.35 115.821 127.66C96.6545 122.97 82.1083 115.805 83.3422 111.6L85.177 105.346L154.608 122.336L152.773 128.589Z" fill="#DBE5FF"/>
<path d="M117.426 121.669C136.59 126.358 153.033 127.065 154.153 123.248C155.273 119.431 140.645 112.535 121.481 107.846C102.317 103.157 85.8741 102.45 84.7541 106.267C83.6341 110.084 98.2616 116.98 117.426 121.669Z" fill="white"/>
<path d="M117.99 119.771C136.034 124.231 151.356 125.46 152.211 122.516C153.066 119.572 139.131 113.57 121.087 109.11C103.042 104.65 87.7205 103.421 86.8654 106.365C86.0102 109.309 99.945 115.311 117.99 119.771Z" fill="url(#paint1_linear_1166_6700)"/>
<path d="M188.265 118.448C186.879 117.533 185.718 116.295 184.86 114.816C184.002 113.338 183.467 111.653 183.291 109.876L182.671 103.762C182.662 103.612 182.601 103.475 182.499 103.379C182.397 103.282 182.262 103.232 182.12 103.238C181.98 103.25 181.844 103.313 181.735 103.418C181.626 103.522 181.552 103.66 181.525 103.809L180.426 109.994C180.101 111.791 179.425 113.525 178.441 115.079C177.458 116.633 176.19 117.97 174.724 119.002L173.948 119.548C173.868 119.616 173.803 119.702 173.757 119.799C173.711 119.896 173.686 120.001 173.684 120.105C173.683 120.205 173.701 120.302 173.739 120.389C173.777 120.476 173.834 120.552 173.904 120.611L174.637 121.095C176.023 122.01 177.184 123.248 178.042 124.727C178.9 126.205 179.435 127.89 179.611 129.667L180.201 135.782C180.216 135.929 180.279 136.062 180.379 136.158C180.48 136.253 180.611 136.306 180.751 136.306C180.893 136.301 181.033 136.24 181.143 136.134C181.253 136.029 181.326 135.886 181.347 135.735L182.476 129.549C182.801 127.752 183.477 126.018 184.461 124.464C185.444 122.91 186.712 121.573 188.178 120.541L188.954 119.995C189.029 119.93 189.092 119.85 189.138 119.759C189.183 119.668 189.21 119.569 189.216 119.47C189.223 119.365 189.207 119.261 189.169 119.168C189.131 119.075 189.072 118.994 188.998 118.932L188.265 118.448Z" fill="#FF51A4"/>
<path d="M42.6303 116.67C41.9376 116.21 41.3584 115.588 40.9319 114.845C40.5053 114.103 40.2414 113.258 40.158 112.368L39.8321 109.328C39.8339 109.291 39.8284 109.255 39.8158 109.222C39.8032 109.189 39.7839 109.16 39.7592 109.137C39.7345 109.113 39.705 109.096 39.6725 109.087C39.6401 109.077 39.6056 109.075 39.5713 109.081C39.5008 109.083 39.4309 109.11 39.3738 109.16C39.3167 109.209 39.2761 109.277 39.2589 109.351L38.7099 112.427C38.5523 113.327 38.2174 114.197 37.7278 114.976C37.2382 115.756 36.6054 116.428 35.8722 116.946L35.4693 117.22C35.3968 117.289 35.3497 117.383 35.338 117.483C35.3415 117.581 35.3809 117.672 35.448 117.735L35.8295 117.977C36.5216 118.43 37.101 119.046 37.5279 119.783C37.9549 120.52 38.2193 121.361 38.3031 122.247L38.5975 125.32C38.6086 125.393 38.6437 125.458 38.6969 125.503C38.7501 125.548 38.8179 125.57 38.8885 125.565C38.9225 125.568 38.9573 125.564 38.9906 125.552C39.0239 125.539 39.055 125.52 39.0817 125.494C39.1084 125.469 39.1302 125.438 39.1455 125.404C39.1609 125.37 39.1695 125.333 39.1707 125.297L39.7513 122.187C39.9089 121.292 40.244 120.427 40.7335 119.652C41.2231 118.878 41.8556 118.212 42.5876 117.7L42.9905 117.427C43.0631 117.358 43.1101 117.264 43.1218 117.164C43.1183 117.065 43.0789 116.975 43.0118 116.912L42.6303 116.67Z" fill="#00FFFF"/>
<path d="M164.264 36.2906C163.597 35.8694 163.039 35.2857 162.629 34.5819C162.219 33.8781 161.968 33.0718 161.895 32.2214L161.6 29.3073C161.603 29.2414 161.581 29.1793 161.54 29.1344C161.498 29.0896 161.441 29.0659 161.379 29.0684C161.313 29.0701 161.248 29.0972 161.195 29.1449C161.142 29.1925 161.106 29.2575 161.092 29.3281L160.555 32.2763C160.41 33.1292 160.096 33.9533 159.635 34.6915C159.174 35.4297 158.577 36.0644 157.886 36.5516L157.506 36.8152C157.461 36.8376 157.422 36.8742 157.395 36.9198C157.369 36.9653 157.355 37.0176 157.357 37.0693C157.351 37.1212 157.36 37.1726 157.383 37.2161C157.406 37.2597 157.442 37.2932 157.485 37.312L157.845 37.5453C158.494 37.9825 159.037 38.5719 159.438 39.2739C159.838 39.976 160.087 40.7746 160.168 41.6163L160.463 44.5304C160.471 44.6001 160.502 44.6623 160.551 44.7058C160.6 44.7493 160.663 44.7711 160.73 44.7674C160.791 44.7649 160.851 44.7364 160.896 44.688C160.941 44.6396 160.968 44.5755 160.971 44.5096L161.508 41.5614C161.659 40.704 161.98 39.8769 162.449 39.1381C162.918 38.3992 163.523 37.7665 164.223 37.2842L164.557 37.0225C164.602 37.0001 164.641 36.9635 164.667 36.9179C164.694 36.8724 164.708 36.8201 164.706 36.7684C164.712 36.7165 164.703 36.6651 164.68 36.6216C164.657 36.578 164.621 36.5445 164.577 36.5257L164.264 36.2906Z" fill="#68FFA4"/>
<path d="M117.475 23.2799L118.007 21.4726C103.826 17.9817 83.8395 21.7052 72.2442 35.0809L70.2846 48.8674L71.4154 49.6008L73.7218 36.5327C88.6613 22.8449 103.661 21.217 117.475 23.2799Z" fill="#CCDAFF"/>
<path d="M93.0146 35.3685C92.7298 34.7885 92.5828 34.1355 92.5851 33.461C92.5874 32.7864 92.739 32.1086 93.028 31.4811C94.6496 27.8798 96.7223 26.9231 101.716 26.0739C108.803 24.8796 113.294 24.7282 116.168 25.7879C119.042 26.8476 121.831 29.7784 124.124 32.4806C126.416 35.1827 126.044 35.7701 125.595 37.302C124.842 39.8664 123.553 40.3009 117.357 41.963C111.162 43.625 105.676 44.5681 101.226 43.3373C96.7764 42.1065 95.8249 41.0529 93.0146 35.3685Z" fill="#B8CDFF"/>
<path d="M112.671 35.4819C113.009 36.0315 113.182 37.2586 111.835 37.5387C110.489 37.8188 109.635 38.0045 108.555 38.1705C106.641 38.4551 104.956 38.1856 104.209 37.2128C103.462 36.2399 103.773 35.634 105.872 35.2869C107.352 35.0038 108.371 34.8226 109.657 34.6353C111.468 34.3613 112.323 34.9657 112.671 35.4819Z" fill="#7196FF"/>
<path d="M121.243 35.881C120.53 36.0734 119.81 36.2199 119.086 36.32C117.73 36.525 116.77 36.3974 116.065 35.401C115.36 34.4046 116.238 33.9034 117.152 33.7333C117.94 33.5627 118.732 33.4339 119.526 33.3476C120.657 33.2306 121.434 33.5283 121.968 34.0888C122.502 34.6493 122.617 35.5013 121.243 35.881Z" fill="#7196FF"/>
<path d="M141.395 52.6906C142.315 62.3 125.328 77.0714 104.59 85.1423C85.0071 92.7538 69.4386 91.4294 68.8674 82.646C68.2961 73.8626 82.7332 60.375 101.998 51.9449C122.357 43.0406 140.496 43.1216 141.395 52.6906Z" fill="white"/>
<path d="M143.848 57.8358C144.478 66.4287 127.474 80.2224 106.944 88.2131C87.5701 95.744 72.3688 95.1463 72.0768 87.3066C71.7848 79.467 86.2159 66.9177 105.304 58.6814C125.486 49.9704 143.22 49.3491 143.848 57.8358Z" fill="#DBE5FF"/>
<path d="M141.487 59.0298C141.688 65.6187 125.917 78.8832 106.789 86.3099C88.707 93.3198 74.4047 92.3077 74.4764 86.245C74.5482 80.1823 88.3271 69.5429 106.176 61.9813C125.009 53.9879 141.285 52.441 141.487 59.0298Z" fill="url(#paint2_linear_1166_6700)"/>
<path d="M59.8854 66.4206L58.8317 65.4706C58.7318 65.3732 58.6552 65.2518 58.6074 65.1148C58.5596 64.9779 58.5418 64.8289 58.5551 64.6784L59.6826 57.4099C59.6944 57.3445 59.7226 57.2824 59.7639 57.2301C59.8053 57.1778 59.8584 57.1373 59.9174 57.113C59.9765 57.0886 60.0394 57.0814 60.0993 57.092C60.1592 57.1026 60.214 57.1306 60.2577 57.1731L61.2912 58.0837C61.3948 58.1873 61.4748 58.315 61.526 58.4583C61.5771 58.6016 61.5983 58.7574 61.588 58.9154L60.4699 66.1517C60.4639 66.2211 60.4393 66.2889 60.3992 66.347C60.3591 66.4051 60.305 66.4511 60.2435 66.4794C60.1819 66.5077 60.1155 66.5172 60.052 66.5068C59.9885 66.4964 59.9307 66.4665 59.8854 66.4206Z" fill="#FF8C00"/>
<path d="M59.9658 58.3481L58.8694 65.5291L58.8003 65.4431C58.7015 65.3461 58.6258 65.225 58.5785 65.0885C58.5312 64.952 58.5136 64.8035 58.5268 64.6535L59.6324 57.4404C59.6383 57.3712 59.6626 57.3036 59.7022 57.2457C59.7419 57.1878 59.7954 57.142 59.8562 57.1138C59.9171 57.0856 59.9828 57.0761 60.0455 57.0865C60.1083 57.0968 60.1655 57.1267 60.2102 57.1724L61.2321 58.08C61.3346 58.1833 61.4137 58.3105 61.4643 58.4534C61.5148 58.5963 61.5357 58.7515 61.5256 58.909L61.4426 59.1975L60.3024 58.1572C60.272 58.137 60.2365 58.126 60.1995 58.1254C60.1625 58.1248 60.1251 58.1346 60.0912 58.1539C60.0572 58.1732 60.0278 58.2012 60.0058 58.2352C59.9838 58.2693 59.97 58.3082 59.9658 58.3481Z" fill="#FF7700"/>
<path d="M128.402 110.377C126.418 112.37 124.127 113.964 121.667 115.062C119.206 116.161 116.625 116.742 114.075 116.773C111.353 116.858 108.724 116.283 106.382 115.092C103.214 113.55 100.646 110.997 98.9848 107.739C97.3239 104.482 96.6409 100.659 97.0178 96.7281C97.1664 95.1745 97.4936 93.623 97.9917 92.1091L96.6772 91.4446C95.8027 91.0078 95.1685 90.1939 94.9125 89.18C94.6565 88.1661 94.7994 87.0341 95.3101 86.0301C95.6046 85.4823 95.996 84.993 96.459 84.5937C96.9221 84.1944 97.4465 83.894 97.9985 83.7119L92.7 81.0805C91.8217 80.6478 91.1843 79.8343 90.9279 78.8189C90.6715 77.8035 90.8172 76.6694 91.3329 75.666C91.8486 74.6626 92.6921 73.8722 93.6778 73.4686C94.6635 73.0651 95.7107 73.0814 96.589 73.514L104.667 77.5095C104.571 77.3121 104.495 77.102 104.441 76.8826C104.106 75.6282 104.269 74.22 104.892 72.9659C105.516 71.7119 106.55 70.714 107.768 70.1907C108.387 69.919 109.036 69.782 109.674 69.7882C110.312 69.7945 110.925 69.9438 111.476 70.2269L126.478 77.6625L126.568 77.6836C129.528 79.3348 131.903 81.8892 133.436 85.0683C134.969 88.2474 135.599 91.929 135.26 95.7118C135.043 98.4061 134.324 101.093 133.145 103.613C131.967 106.132 130.354 108.433 128.402 110.377Z" fill="white"/>
<path d="M95.2385 78.0563C95.4658 77.61 95.5352 77.1094 95.432 76.6607C95.3288 76.212 95.0611 75.8503 94.6857 75.6523L93.9131 75.2599C93.7244 75.1649 93.5148 75.1142 93.2961 75.1108C93.0775 75.1074 92.854 75.1513 92.6386 75.2401C92.4232 75.3289 92.22 75.4607 92.0406 75.6282C91.8612 75.7956 91.7092 75.9954 91.5932 76.216C91.4772 76.4366 91.3994 76.6738 91.3644 76.914C91.3294 77.1542 91.3378 77.3928 91.3891 77.616C91.4405 77.8392 91.5337 78.0428 91.6636 78.2151C91.7935 78.3873 91.9574 78.5249 92.146 78.62L92.9485 79.0192C93.3278 79.2017 93.7805 79.203 94.2089 79.0229C94.6372 78.8428 95.007 78.4957 95.2385 78.0563Z" fill="url(#paint3_linear_1166_6700)"/>
<path d="M133.021 95.7533C133.768 88.6523 130.621 82.6825 125.54 79.8013L110.801 72.495C110.212 72.2039 109.506 72.1978 108.838 72.478C108.169 72.7583 107.594 73.3019 107.237 73.9893C106.88 74.6768 106.771 75.4517 106.935 76.1436C107.099 76.8356 107.521 77.3878 108.11 77.6789L111.916 79.551C112.295 79.7421 112.566 80.1015 112.669 80.5502C112.772 80.9988 112.699 81.5 112.466 81.9435C112.233 82.3869 111.858 82.7363 111.426 82.9147C110.993 83.0932 110.536 83.0861 110.157 82.895L100.899 78.3092C100.711 78.2168 100.502 78.1686 100.285 78.1674C100.067 78.1663 99.8452 78.2121 99.6317 78.3023C99.4182 78.3926 99.2173 78.5254 99.0403 78.6933C98.8633 78.8612 98.7138 79.0609 98.6003 79.2809C98.4868 79.5009 98.4115 79.737 98.3788 79.9756C98.346 80.2142 98.3564 80.4507 98.4093 80.6717C98.4623 80.8926 98.5568 81.0936 98.6874 81.2631C98.818 81.4327 98.9822 81.5676 99.1706 81.66L105.806 84.9663C106.179 85.1633 106.446 85.5232 106.548 85.9698C106.651 86.4164 106.582 86.9145 106.356 87.3588C106.125 87.796 105.757 88.1415 105.331 88.3207C104.905 88.5 104.454 88.4987 104.077 88.317L99.8865 86.2497C99.5056 86.0664 99.0517 86.0633 98.6208 86.2409C98.1899 86.4185 97.8159 86.7629 97.5779 87.2012C97.4615 87.4231 97.384 87.6618 97.3501 87.9034C97.3162 88.1449 97.3266 88.3844 97.3806 88.6078C97.4346 88.8313 97.5312 89.0341 97.6646 89.2046C97.7981 89.375 97.9658 89.5096 98.1578 89.6005L101.017 91.0415C100.182 92.9407 99.6379 94.9356 99.4069 96.9388C98.3134 106.949 105.046 114.884 114.181 114.619C123.316 114.354 132.036 105.824 133.021 95.7533Z" fill="url(#paint4_linear_1166_6700)"/>
<path d="M113.454 106.559C118.496 107.732 123.984 104.144 125.713 98.5461C127.441 92.9482 124.755 87.4598 119.714 86.2875C114.672 85.1152 109.184 88.7028 107.455 94.3007C105.727 99.8987 108.412 105.387 113.454 106.559Z" fill="white"/>
<path d="M122.579 92.5384L122.587 98.9608C122.595 99.1068 122.561 99.2574 122.491 99.3935C122.42 99.5295 122.316 99.6448 122.191 99.7246L116.904 103.525C116.799 103.609 116.677 103.659 116.553 103.669C116.429 103.678 116.311 103.647 116.213 103.578L111.088 101.031C110.986 100.982 110.899 100.907 110.833 100.812C110.768 100.716 110.726 100.602 110.712 100.48L110.713 94.0245C110.706 93.8784 110.739 93.7278 110.81 93.5917C110.88 93.4557 110.985 93.3404 111.11 93.2606L116.396 89.4603C116.494 89.373 116.611 89.3197 116.731 89.3088C116.851 89.2978 116.966 89.3299 117.057 89.4L122.213 91.954C122.492 92.0902 122.602 92.1514 122.579 92.5384Z" fill="url(#paint5_linear_1166_6700)"/>
<path d="M165.9 92.4974C164.225 96.3813 161.568 99.7843 158.266 102.277C154.964 104.769 151.164 106.239 147.346 106.501C143.529 106.763 139.864 105.805 136.815 103.749C133.767 101.692 131.47 98.6294 130.216 94.9465C129.761 93.5336 129.467 92.0485 129.34 90.5206L127.841 90.5327C126.822 90.5554 125.886 90.1419 125.237 89.3824C124.589 88.623 124.281 87.5793 124.38 86.4797C124.446 85.874 124.629 85.2741 124.917 84.7194C125.206 84.1648 125.594 83.6678 126.056 83.2611L119.899 83.4161C118.945 83.3476 118.095 82.8911 117.516 82.1369C116.937 81.3827 116.672 80.3857 116.773 79.3433C116.874 78.3008 117.334 77.2887 118.062 76.5073C118.789 75.7258 119.732 75.2319 120.703 75.1233L130.059 74.9189L129.607 74.4889C129.189 74.0186 128.875 73.4494 128.685 72.8159C128.495 72.1824 128.433 71.4978 128.502 70.8036C128.562 70.1256 128.746 69.4504 129.044 68.8173C129.342 68.1843 129.748 67.6059 130.237 67.1156C130.727 66.6254 131.291 66.2332 131.897 65.9616C132.503 65.69 133.139 65.5445 133.767 65.5336L151.192 65.1863L151.283 65.2075C154.791 65.2944 158.09 66.4233 160.821 68.4712C163.552 70.5192 165.61 73.4078 166.772 76.8229C167.608 79.2367 167.961 81.8669 167.812 84.5587C167.662 87.2506 167.012 89.9498 165.9 92.4974Z" fill="white"/>
<path d="M121.921 78.1948C121.968 77.7095 121.838 77.251 121.56 76.9174C121.283 76.5838 120.878 76.4015 120.434 76.4095L119.522 76.4556C119.295 76.4463 119.062 76.4884 118.838 76.5794C118.613 76.6704 118.402 76.8083 118.217 76.9845C118.031 77.1607 117.876 77.3714 117.761 77.6037C117.646 77.8359 117.573 78.0847 117.547 78.3347C117.521 78.5846 117.542 78.8303 117.609 79.0565C117.676 79.2827 117.788 79.4847 117.938 79.6498C118.087 79.8149 118.271 79.9397 118.478 80.0164C118.685 80.0932 118.911 80.1202 119.141 80.0958L120.042 80.0835C120.488 80.0642 120.934 79.8557 121.285 79.5028C121.636 79.1498 121.864 78.6804 121.921 78.1948Z" fill="url(#paint6_linear_1166_6700)"/>
<path d="M164.747 77.7588C163.761 74.7221 161.98 72.1607 159.596 70.3535C157.211 68.5463 154.316 67.5625 151.225 67.5093L133.945 68.0405C133.257 68.062 132.565 68.381 132.022 68.9272C131.479 69.4733 131.13 70.2021 131.05 70.953C130.97 71.7039 131.167 72.4156 131.597 72.9314C132.027 73.4471 132.655 73.7248 133.343 73.7033L137.779 73.5876C138.009 73.5632 138.235 73.5902 138.443 73.6671C138.65 73.7439 138.834 73.8689 138.984 74.0344C139.134 74.1998 139.246 74.4021 139.313 74.6287C139.38 74.8553 139.402 75.1015 139.375 75.3518C139.349 75.6022 139.276 75.8514 139.161 76.0841C139.045 76.3168 138.89 76.5279 138.705 76.7044C138.519 76.8809 138.307 77.0191 138.082 77.1102C137.857 77.2013 137.624 77.2436 137.397 77.2343L126.539 77.5578C126.095 77.5856 125.652 77.7969 125.302 78.1487C124.952 78.5004 124.722 78.9659 124.657 79.4499C124.61 79.936 124.74 80.3953 125.019 80.7295C125.297 81.0637 125.702 81.2463 126.147 81.2383L133.924 81.012C134.148 80.9987 134.365 81.035 134.563 81.1189C134.76 81.2027 134.934 81.3322 135.073 81.4995C135.213 81.6669 135.315 81.8685 135.373 82.0922C135.432 82.3159 135.446 82.5568 135.414 82.8004C135.39 83.0404 135.322 83.2796 135.214 83.5039C135.107 83.7282 134.961 83.9331 134.787 84.1063C134.612 84.2796 134.412 84.4178 134.198 84.5127C133.985 84.6076 133.762 84.6572 133.542 84.6587L128.675 84.8212C128.229 84.8305 127.78 85.0329 127.425 85.3839C127.07 85.7349 126.839 86.2058 126.783 86.693C126.727 87.1801 126.851 87.6437 127.126 87.9816C127.402 88.3195 127.807 88.5042 128.253 88.4949L131.625 88.3912C131.562 90.4049 131.823 92.3648 132.395 94.1845C135.218 103.235 144.875 106.916 153.716 102.509C162.557 98.1029 167.741 86.7759 164.747 77.7588Z" fill="url(#paint7_linear_1166_6700)"/>
<path d="M145.734 96.2837C150.776 97.4566 156.265 93.8698 157.992 88.2724C159.72 82.6751 157.033 77.1867 151.991 76.0138C146.948 74.8409 141.46 78.4277 139.732 84.0251C138.004 89.6225 140.691 95.1108 145.734 96.2837Z" fill="white"/>
<path d="M153.109 80.1167L155.607 85.6532C155.671 85.7698 155.699 85.9078 155.689 86.0509C155.679 86.1939 155.631 86.3359 155.551 86.4601L151.974 92.1166C151.904 92.2361 151.803 92.3338 151.686 92.396C151.569 92.4582 151.441 92.4819 151.32 92.4638L145.375 92.5783C145.257 92.5791 145.144 92.5514 145.044 92.4973C144.944 92.4432 144.86 92.364 144.797 92.2656L142.288 86.7624C142.226 86.6391 142.202 86.494 142.219 86.3456C142.236 86.1973 142.294 86.0523 142.384 85.9292L145.962 80.2727C146.124 79.954 146.444 79.9572 146.615 79.9255L152.53 79.804C152.851 79.8072 152.981 79.8018 153.109 80.1167Z" fill="url(#paint8_linear_1166_6700)"/>
<defs>
<linearGradient id="paint0_linear_1166_6700" x1="81.5454" y1="119.647" x2="123.104" y2="149.13" gradientUnits="userSpaceOnUse">
<stop stop-color="#6688FF"/>
<stop offset="1" stop-color="#5278FF"/>
</linearGradient>
<linearGradient id="paint1_linear_1166_6700" x1="86.8968" y1="106.361" x2="151.453" y2="125.113" gradientUnits="userSpaceOnUse">
<stop stop-color="#242145"/>
<stop offset="1"/>
</linearGradient>
<linearGradient id="paint2_linear_1166_6700" x1="134.037" y1="59.5469" x2="81.597" y2="82.4988" gradientUnits="userSpaceOnUse">
<stop/>
<stop offset="1" stop-color="#242145"/>
</linearGradient>
<linearGradient id="paint3_linear_1166_6700" x1="91.4103" y1="76.6778" x2="95.316" y2="77.9128" gradientUnits="userSpaceOnUse">
<stop stop-color="#B473F5"/>
<stop offset="1" stop-color="#E292AA"/>
</linearGradient>
<linearGradient id="paint4_linear_1166_6700" x1="95.2259" y1="89.8474" x2="131.697" y2="101.379" gradientUnits="userSpaceOnUse">
<stop stop-color="#B473F5"/>
<stop offset="1" stop-color="#E292AA"/>
</linearGradient>
<linearGradient id="paint5_linear_1166_6700" x1="110.352" y1="95.0266" x2="122.679" y2="98.8334" gradientUnits="userSpaceOnUse">
<stop stop-color="#B473F5"/>
<stop offset="1" stop-color="#E292AA"/>
</linearGradient>
<linearGradient id="paint6_linear_1166_6700" x1="117.674" y1="77.7917" x2="121.688" y2="79.06" gradientUnits="userSpaceOnUse">
<stop stop-color="#B473F5"/>
<stop offset="1" stop-color="#E292AA"/>
</linearGradient>
<linearGradient id="paint7_linear_1166_6700" x1="124.312" y1="80.4348" x2="163.528" y2="92.8249" gradientUnits="userSpaceOnUse">
<stop stop-color="#B473F5"/>
<stop offset="1" stop-color="#E292AA"/>
</linearGradient>
<linearGradient id="paint8_linear_1166_6700" x1="142.705" y1="84.7231" x2="154.954" y2="88.5047" gradientUnits="userSpaceOnUse">
<stop stop-color="#B473F5"/>
<stop offset="1" stop-color="#E292AA"/>
</linearGradient>
</defs>
</svg>
