<svg xmlns="http://www.w3.org/2000/svg" viewBox="0 0 624 624"><g data-name="Floppy Cat"><path d="M242.8 28.1l-16.7 15.8-27.2 26-51.8-30.8-21.7-12.8C156.1-4.8 208-2.6 242.8 28.1z" fill="#f5c749"/><path d="M199.4 74.9L119 27.1l3.6-3.6C138 7.8 159.4-.5 182.7 0a99.3 99.3 0 0162.7 25.1l3.3 2.9zM132 25.6l66.3 39.3 38.5-36.6C204.3 2.1 160 1.1 132 25.6z"/><path d="M255.4 166.3h-.3l12.9-64.7-35.2-7-12.9 64.7h-.4a16.5 16.5 0 10-6.5 32.4l1.9.3-.3.9a16.5 16.5 0 1032.4 6.5c.1-.3.1-.6.2-1l1.8.5a16.6 16.6 0 006.4-32.5z" fill="#f5c749"/><path d="M230.8 216.6a18.7 18.7 0 01-4-.4 20.5 20.5 0 01-13.1-8.7 21.2 21.2 0 01-3.4-12.4 20.5 20.5 0 016.4-40.2l12.9-65 43.1 8.6-13 64.9a20.8 20.8 0 0112.7 23.2 20.6 20.6 0 01-22.2 16.4 20.7 20.7 0 01-19.4 13.6zm-14.5-53.7a12.5 12.5 0 00-2.5 24.8l1.4.2 4.7.4-1.3 4.9a.6.6 0 01-.1.4 12.7 12.7 0 009.9 14.8 12.5 12.5 0 0014.7-9.9.6.6 0 00.1-.4l.7-5 4.5 1.4 1.4.4a12.5 12.5 0 004.9-24.6h-.3l-4.1-.7 13-64.7-27.4-5.5-12.9 64.7-4-.9h-.3a10.6 10.6 0 00-2.4-.3z"/><path d="M433 166.9a16.5 16.5 0 00-19.4-13h-.4l-12.9-64.6-35.2 7L378 161h-.4a16.5 16.5 0 106.5 32.4l1.8-.5a3.1 3.1 0 00.1 1 16.5 16.5 0 1032.4-6.4 3 3 0 00-.2-1l1.8-.3a16.5 16.5 0 0013-19.3z" fill="#f5c749"/><path d="M402.2 211.3a20.5 20.5 0 01-19.3-13.6 20.6 20.6 0 01-22.2-16.4 20.9 20.9 0 0112.6-23.2l-12.9-64.9 43-8.6 13 65a21 21 0 0111.8 3.4 20.1 20.1 0 018.7 13.1 20.7 20.7 0 01-14.2 23.7 20.4 20.4 0 01-16.5 21.1 18.1 18.1 0 01-4 .4zm-13-23.5l.7 5v.4a12.7 12.7 0 0014.8 9.9 12.3 12.3 0 007.9-5.4 12 12 0 001.9-9.4c0-.1-.1-.3-.1-.4l-1.3-4.9 4.7-.4 1.4-.2a12.5 12.5 0 00-4.8-24.6h-.4l-3.9.9-13-64.7-27.3 5.5 12.9 64.7-4 .7h-.4a12.6 12.6 0 005 24.6l1.3-.4z"/><path d="M198.9 69.9l-51.8-30.8c24.9-20.1 61-10.2 79 4.8z" fill="#ed80b6"/><path d="M199.4 74.9l-59.3-35.3 4.5-3.6c15.3-12.4 33-13.1 45.1-11.6 14.2 1.8 28.8 8 39 16.5l3.4 2.8zm-45-36.1l43.9 26.1L220 44.3c-15.9-11-44-18.6-65.6-5.5z"/><path d="M498.6 40.2l-23.1 10L420.1 74l-23.7-29.2-14.5-17.9C420.3 1 472.2 5.4 498.6 40.2z" fill="#f5c749"/><path d="M418.9 78.9l-42.8-52.8 3.6-2.5c19.6-13.2 42.8-19.2 65.5-16.8s43.2 13.4 56.6 31l3.1 4zm-31-51l33.4 41.2 70.8-30.5c-11.9-13.4-28.6-21.8-47.8-23.8a89.9 89.9 0 00-56.4 13.1z"/><path d="M475.5 50.2L420.1 74l-23.7-29.2c19.8-12.6 56.9-17.8 79.1 5.4z" fill="#ed80b6"/><path d="M418.9 78.9l-28.4-35.1 3.8-2.4c11.2-7.1 26.4-11.3 40.7-11.3h.1c12.2 0 29.6 3 43.2 17.3l4 4.1zm-16.4-33l18.8 23.2 46.9-20.2c-19.7-15.8-48.6-11.8-65.7-3z"/><path d="M349.9 104.9l-58.3 2c2 22.5 12.1 38.4 28.4 40.8 20 3 33.5-22.1 29.9-42.8z" fill="#ed80b6"/><path d="M323.2 152a23.1 23.1 0 01-3.7-.3c-17.7-2.7-29.6-19.3-31.8-44.5l-.4-4.2 66-2.2.6 3.4c2.4 14-2.3 29.8-11.6 39.3-5.4 5.5-12.1 8.5-19.1 8.5zm-27.1-41.3c2.7 18.9 11.7 31.2 24.5 33.1 7.4 1.1 12.8-2.6 16-5.9 6.7-6.9 10.5-18.3 9.8-28.9z"/><g><path d="M438.9 64.5C421 34.6 375.1 4 308.2 4S200 34.6 182.1 64.5s-11.1 56 5.7 65.3c35.9 19.9 86.7-17.9 127.9-19.7s87.6 36.7 117.5 19.7c16.7-9.5 24.5-34 5.7-65.3z" fill="#f5c749"/><path d="M211.8 139.6a52.3 52.3 0 01-25.9-6.3 36.2 36.2 0 01-17.3-22.6c-2.6-9.9-3.1-26.4 10-48.3 7.2-12 21.1-29.2 46.3-42.9S276.7 0 308.2 0c71.4 0 116.9 33.6 134.1 62.4 13.1 21.7 12.7 38.1 10.1 48a36.6 36.6 0 01-17.2 22.9c-18.4 10.4-40.9 2.2-64.8-6.6-18-6.6-36.6-13.4-54.5-12.6-15.2.7-32.5 6.7-49.1 12.4-18.5 6.5-37.5 13.1-55 13.1zM308.2 8c-81.3 0-114.5 44.8-122.7 58.6s-12.4 30.1-9.1 42.1a27.9 27.9 0 0013.3 17.6c20.6 11.4 46.8 2.3 74.5-7.3 17.2-6 34.9-12.2 51.3-12.9 19.5-.8 38.9 6.3 57.7 13.1 22 8.1 42.9 15.7 58 7.1a28.3 28.3 0 0013.4-17.9c2.3-8.4 2.5-22.5-9.1-41.8C419.3 39.5 376.2 8 308.2 8z"/></g><path d="M342.2 74.1c-7.2-8.9-32.9-9-40.6-1.2-3.8 3.9-2.1 8.1.5 9.5 4.6 2.5 12.8-.3 19.4-.1s14.5 3.5 19.2 1.2c2.6-1.3 5-5.2 1.5-9.4z"/><g><circle cx="258.3" cy="66.4" r="23.8" fill="#fff"/><circle cx="258.3" cy="66.4" r="9.7" transform="matrix(.96 -.27 .27 .96 -8.35 70.99)"/></g><g><circle cx="381" cy="69.4" r="23.8" fill="#fff"/><circle cx="381" cy="69.4" r="9.7" transform="rotate(-15.4 381.14 69.231)"/></g><path d="M322.5 112.4h-.3a3.9 3.9 0 01-3.6-4.3c0-.2 1.4-16.6.9-27.4a4 4 0 018-.3c.5 11.3-.9 27.7-1 28.4a4 4 0 01-4 3.6zM137.9 125.4a4.2 4.2 0 01-3.3-1.7 4.1 4.1 0 011.1-5.6c1.4-1 30.5-20.6 62.3-30.9-34-5.9-63.7 3.2-64 3.3a3.9 3.9 0 01-5-2.6 4 4 0 012.6-5c1.6-.5 41.6-12.8 84 .2a4 4 0 012.8 4 3.9 3.9 0 01-3.2 3.7c-35.7 7.4-74.6 33.7-75 33.9a3.9 3.9 0 01-2.3.7zM480.2 127.8a3.8 3.8 0 01-2.5-.9c-.3-.3-31.8-25.7-67-35a4 4 0 01.1-7.7c43-10.7 76.5 1 77.9 1.5a4.1 4.1 0 012.4 5.1 4 4 0 01-5.1 2.4c-.4-.1-25.1-8.6-58.2-4.1 30.1 11.5 53.8 30.7 55 31.6a4 4 0 01.5 5.6 3.9 3.9 0 01-3.1 1.5z"/></g></svg>
