<svg width="99" height="40" viewBox="0 0 99 40" fill="none" xmlns="http://www.w3.org/2000/svg">
<g clip-path="url(#clip0_423_84733)">
<path d="M90.4968 15.6047L77.871 15.6006C77.5492 15.6006 77.2762 15.837 77.2273 16.1549L76.6121 20.3526C76.5551 20.7439 76.8606 21.0984 77.2558 21.0984H79.5618C79.794 21.0984 79.9529 21.3348 79.8592 21.5467C79.5699 22.2233 79.3622 22.9528 79.244 23.7434L78.0707 31.8537C77.3006 37.2822 81.8229 40.0006 86.7486 40.0006C91.9105 40.0006 96.9706 37.2863 97.7406 31.8537L98.914 23.7434C99.6717 18.4208 95.3083 15.7065 90.4968 15.6047ZM92.9209 23.7434L91.7475 31.6866C91.4786 33.5654 89.3683 34.4375 87.4249 34.4375C85.616 34.4375 83.8396 33.5654 84.0719 31.8577L85.2452 23.7475C85.5141 21.9706 87.6245 21.0658 89.5679 21.0658C91.5112 21.0618 93.1898 21.9665 92.9209 23.7434Z" fill="white"/>
<path d="M21.3749 15.9351H16.7222C16.3963 15.9351 16.1234 16.1755 16.0785 16.4934L14.6526 26.6781C14.6526 26.6862 14.6526 26.6944 14.6526 26.7066L14.7178 30.6435C14.7178 30.725 14.6648 30.7943 14.5874 30.8147L13.2429 26.0667C13.2429 26.0586 13.2389 26.0504 13.2348 26.0464L9.08731 16.3304C8.98546 16.0899 8.74916 15.9351 8.48841 15.9351H3.78685C3.46092 15.9351 3.18795 16.1755 3.14314 16.4934L0.00604909 38.9249C-0.0469147 39.3162 0.254572 39.6667 0.649763 39.6667H5.33503C5.66096 39.6667 5.93392 39.4262 5.97874 39.1043L7.20506 30.1912C7.20506 30.183 7.20506 30.1749 7.20506 30.1667L7.13987 25.5858L7.27432 25.5532L8.6799 30.3053C8.6799 30.3134 8.68397 30.3175 8.68804 30.3256L12.5707 39.2754C12.6726 39.5118 12.9089 39.6667 13.1655 39.6667H18.2378C18.5638 39.6667 18.8367 39.4262 18.8815 39.1083L22.0186 16.6768C22.0716 16.2856 21.7701 15.9351 21.3749 15.9351Z" fill="white"/>
<path d="M31.5358 15.9351H26.8506C26.5246 15.9351 26.2517 16.1755 26.2069 16.4934L23.0698 38.9249C23.0168 39.3162 23.3183 39.6667 23.7135 39.6667H28.3987C28.7247 39.6667 28.9976 39.4262 29.0425 39.1083L32.1795 16.6768C32.2325 16.2856 31.931 15.9351 31.5358 15.9351Z" fill="white"/>
<path d="M53.5402 15.9023H35.9848C35.6629 15.9023 35.3899 16.1387 35.3411 16.4566L34.7259 20.6544C34.6688 21.0456 34.9744 21.4002 35.3696 21.4002H40.2708C40.666 21.4002 40.9674 21.7466 40.9145 22.1379L38.6044 38.9289C38.5515 39.3202 38.853 39.6666 39.2482 39.6666H44.0027C44.3286 39.6666 44.6016 39.4261 44.6464 39.1042L47.0053 21.9585C47.0501 21.6366 47.3231 21.3961 47.649 21.3961H52.925C53.2469 21.3961 53.5199 21.1597 53.5688 20.8418L54.184 16.6441C54.241 16.2528 53.9354 15.9023 53.5402 15.9023Z" fill="white"/>
<path d="M66.9156 15.9351H57.9973C57.6714 15.9351 57.3984 16.1755 57.3536 16.4934L54.2165 38.9249C54.1636 39.3162 54.4651 39.6667 54.8602 39.6667H59.6107C59.9366 39.6667 60.2096 39.4262 60.2544 39.1043L61.1752 32.4042C61.1955 32.2452 61.3341 32.1229 61.497 32.1229H62.1081C62.2181 32.1229 62.3241 32.18 62.3811 32.2737L66.9197 39.3651C67.0378 39.5526 67.2456 39.6667 67.4656 39.6667H73.3365C73.862 39.6667 74.1717 39.0757 73.8702 38.6437L69.1075 31.8336C68.9934 31.6706 69.0505 31.4423 69.2297 31.3567C72.269 29.8692 74.0372 28.349 74.6157 24.1146C75.2921 18.5515 71.8087 15.9351 66.9156 15.9351ZM68.5575 24.2124C68.3905 25.5858 67.319 26.9593 65.4734 26.9593H62.703C62.3078 26.9593 62.0022 26.6088 62.0592 26.2175L62.6459 22.0891C62.6907 21.7671 62.9678 21.5307 63.2896 21.5307H66.2434C68.0238 21.5307 68.7245 22.7737 68.5575 24.2124Z" fill="white"/>
<path d="M21.0383 2.48584H24.3921C25.2009 2.48584 25.8914 2.60421 26.4438 2.86067C26.9567 3.07768 27.3907 3.45251 27.7064 3.92598C27.9825 4.39945 28.1404 4.9321 28.1206 5.46475C28.1206 6.01713 27.9825 6.54978 27.6866 7.02325C27.371 7.51645 26.8975 7.89128 26.3649 8.12802C25.773 8.40421 25.0234 8.5423 24.1553 8.5423H21.0383V2.48584ZM24.1356 6.9838C24.688 6.9838 25.1023 6.8457 25.3982 6.56951C25.6941 6.27359 25.8519 5.87904 25.8322 5.44502C25.8519 5.05047 25.7138 4.67564 25.4377 4.39944C25.1812 4.14298 24.7866 4.00489 24.254 4.00489H23.2084V6.96407H24.1356V6.9838Z" fill="white"/>
<path d="M33.1716 8.5223C32.7376 8.40393 32.3036 8.22638 31.909 7.98965V6.54951C32.2444 6.80597 32.639 6.98352 33.0335 7.08216C33.4873 7.22026 33.941 7.27944 34.4145 7.29917C34.5723 7.29917 34.7301 7.27944 34.8879 7.22026C34.9866 7.16107 35.0458 7.10189 35.0458 7.02298C35.0458 6.94407 35.026 6.86516 34.9668 6.80597C34.8682 6.72706 34.7498 6.68761 34.6315 6.66788L33.6056 6.43114C33.0138 6.29305 32.5995 6.09577 32.343 5.85903C32.0866 5.60257 31.9485 5.24747 31.9682 4.89237C31.9682 4.57672 32.0866 4.26108 32.3036 4.02434C32.56 3.74815 32.8757 3.55087 33.2308 3.45223C33.6845 3.31414 34.158 3.23523 34.6512 3.25495C35.1049 3.25495 35.539 3.29441 35.973 3.41278C36.3281 3.49169 36.6635 3.62978 36.9791 3.80733V5.16856C36.6832 4.99101 36.3675 4.87264 36.0519 4.79373C35.6968 4.69509 35.322 4.65563 34.9668 4.65563C34.4342 4.65563 34.158 4.75427 34.158 4.93182C34.158 5.01074 34.1975 5.08965 34.2764 5.1291C34.4145 5.18829 34.5723 5.22774 34.7301 5.2672L35.5981 5.42502C36.1505 5.52366 36.5845 5.70121 36.8607 5.93795C37.1369 6.17468 37.275 6.54951 37.275 7.02298C37.275 7.5359 37.0186 8.00937 36.5845 8.26584C36.1308 8.56176 35.4798 8.71958 34.6315 8.71958C34.1383 8.69985 33.6451 8.64067 33.1716 8.5223Z" fill="white"/>
<path d="M39.2878 8.34508C38.834 8.12807 38.4395 7.7927 38.1633 7.35868C37.9068 6.9444 37.7885 6.4512 37.7885 5.958C37.7885 5.46481 37.9068 4.99134 38.183 4.57705C38.4592 4.14304 38.8538 3.82739 39.3272 3.61038C39.8993 3.37365 40.5109 3.23555 41.1225 3.25528C41.9905 3.25528 42.7007 3.43283 43.2728 3.80766V5.38589C43.0558 5.2478 42.8191 5.12943 42.5626 5.05052C42.2864 4.97161 41.9905 4.91242 41.6946 4.91242C41.1619 4.91242 40.7476 5.01106 40.432 5.20834C39.998 5.44508 39.8599 5.97773 40.0966 6.41174C40.1755 6.54984 40.2939 6.66821 40.432 6.74712C40.7279 6.9444 41.1422 7.04304 41.7143 7.04304C42.0102 7.04304 42.2864 7.00358 42.5626 6.92467C42.8191 6.84576 43.0558 6.74712 43.2728 6.60902V8.12807C42.6021 8.52263 41.8524 8.71991 41.083 8.70018C40.4714 8.71991 39.8402 8.60154 39.2878 8.34508Z" fill="white"/>
<path d="M45.4235 8.34482C44.9501 8.12782 44.5555 7.79244 44.2793 7.35843C44.0229 6.94414 43.8848 6.45094 43.8848 5.95775C43.8848 5.46455 44.0031 4.99108 44.2793 4.5768C44.5555 4.16251 44.9501 3.82714 45.4235 3.62986C46.548 3.17612 47.8303 3.17612 48.9548 3.62986C49.4086 3.82714 49.8031 4.16251 50.0793 4.5768C50.3358 4.99108 50.4739 5.48428 50.4739 5.95775C50.4739 6.45094 50.3358 6.94414 50.0793 7.35843C49.8031 7.79244 49.4086 8.12782 48.9548 8.34482C47.8106 8.81829 46.548 8.81829 45.4235 8.34482ZM48.0276 6.80605C48.2446 6.58904 48.363 6.27339 48.3433 5.97748C48.363 5.66183 48.2446 5.36591 48.0276 5.1489C47.7909 4.9319 47.4752 4.83326 47.1596 4.83326C46.8439 4.81353 46.5283 4.9319 46.2916 5.1489C46.0746 5.36591 45.9562 5.66183 45.9759 5.97748C45.9562 6.29312 46.0746 6.58904 46.2916 6.80605C46.5283 7.02305 46.8439 7.14142 47.1596 7.12169C47.495 7.14142 47.8106 7.02305 48.0276 6.80605Z" fill="white"/>
<path d="M55.643 3.57071V5.44486C55.3865 5.28704 55.0906 5.20813 54.7947 5.22785C54.3409 5.22785 53.9858 5.36595 53.7294 5.64214C53.4926 5.91833 53.3545 6.35234 53.3545 6.94418V8.52241H51.2437V3.47207H53.3151V5.07003C53.4334 4.47819 53.611 4.04418 53.8675 3.76799C54.1239 3.4918 54.479 3.33398 54.8539 3.35371C55.1301 3.35371 55.4062 3.43262 55.643 3.57071Z" fill="white"/>
<path d="M62.6666 2.30762V8.5219H60.5557V7.39741C60.3979 7.79197 60.102 8.14707 59.7469 8.36408C59.3326 8.60081 58.8788 8.71918 58.4054 8.69945C57.9714 8.71918 57.5373 8.58108 57.1625 8.34435C56.8074 8.10762 56.5115 7.77224 56.3339 7.37768C56.1367 6.94367 56.038 6.4702 56.038 5.99673C56.0183 5.50353 56.1367 5.01034 56.3339 4.57632C56.5312 4.16204 56.8469 3.82666 57.2217 3.58993C57.6163 3.3532 58.07 3.23483 58.5237 3.23483C59.5299 3.23483 60.2006 3.66884 60.5557 4.53687V2.30762H62.6666ZM60.2401 6.76612C60.4571 6.54911 60.5754 6.25319 60.5557 5.95728C60.5557 5.66136 60.4373 5.36544 60.2401 5.16816C59.7469 4.75388 59.0367 4.75388 58.5237 5.16816C58.3067 5.38517 58.1884 5.66136 58.2081 5.95728C58.1884 6.25319 58.3067 6.54911 58.5237 6.76612C58.7605 6.98313 59.0564 7.08177 59.372 7.08177C59.7074 7.10149 60.0033 6.98313 60.2401 6.76612Z" fill="white"/>
<path d="M13.2651 0.986394C12.2392 0.532653 11.1541 0.197279 10.0295 0C9.87171 0.27619 9.7336 0.552381 9.61523 0.848299C8.43148 0.670748 7.20827 0.670748 6.02451 0.848299C5.90614 0.552381 5.76804 0.27619 5.6102 0C4.50537 0.197279 3.42026 0.532653 2.37462 1.00612C0.342509 4.02449 -0.209908 6.96394 0.0663003 9.88367C1.26978 10.7714 2.61137 11.4422 4.03187 11.8762C4.34753 11.4422 4.64347 10.9884 4.88022 10.515C4.42645 10.3374 3.97268 10.1204 3.53864 9.88367C3.65701 9.80476 3.75566 9.72585 3.87403 9.64694C6.37964 10.8306 9.27983 10.8306 11.8052 9.64694C11.9038 9.72585 12.0222 9.82449 12.1406 9.88367C11.7065 10.1401 11.2725 10.3571 10.799 10.515C11.0357 10.9884 11.3317 11.4422 11.6473 11.8762C13.0678 11.4422 14.4094 10.7714 15.6129 9.88367C15.9286 6.5102 15.0408 3.59048 13.2651 0.986394ZM5.21562 8.08843C4.44618 8.08843 3.79512 7.37823 3.79512 6.52993C3.79512 5.68163 4.40672 4.9517 5.19589 4.9517C5.98506 4.9517 6.61639 5.6619 6.61639 6.52993C6.61639 7.39796 6.00479 8.08843 5.21562 8.08843ZM10.4241 8.08843C9.65469 8.08843 9.02335 7.37823 9.02335 6.52993C9.02335 5.68163 9.63496 4.9517 10.4241 4.9517C11.2133 4.9517 11.8446 5.6619 11.8249 6.52993C11.8249 7.39796 11.2133 8.08843 10.4241 8.08843Z" fill="white"/>
<path d="M29.9164 4.02425C30.4939 4.02425 30.962 3.60029 30.962 3.07731C30.962 2.55433 30.4939 2.13037 29.9164 2.13037C29.3389 2.13037 28.8708 2.55433 28.8708 3.07731C28.8708 3.60029 29.3389 4.02425 29.9164 4.02425Z" fill="white"/>
<path d="M28.8708 4.67529C29.5416 4.95148 30.311 4.95148 30.9817 4.67529V8.56169H28.8708V4.67529Z" fill="white"/>
</g>
<defs>
<clipPath id="clip0_423_84733">
<rect width="99" height="40.0006" fill="white"/>
</clipPath>
</defs>
</svg>
