<svg width="226" height="60" fill="none" xmlns="http://www.w3.org/2000/svg">
  <path d="M15.59 6.497l-1.9 4c-.4.9.5 1.9 1.5 1.5l4-1.9c.3-.1.6-.1.9 0l4 1.9c.9.4 1.9-.5 1.5-1.5l-1.9-4c-.1-.3-.1-.6 0-.9l1.9-4c.3-1-.7-1.9-1.6-1.5l-4 1.9c-.3.1-.6.1-.9 0l-4-1.9c-.9-.4-1.9.5-1.5 1.5l1.9 4c.2.2.2.6.1.9z" fill="#FFE75C"/>
  <path d="M5.595 52.83h-.126a.63.63 0 01-.63-.629V50.63A.63.63 0 015.47 50h.126a.63.63 0 01.628.629V52.2c0 .315-.314.63-.628.63zM5.595 60h-.126a.63.63 0 01-.63-.629V57.8a.63.63 0 01.63-.63h.126a.63.63 0 01.628.63v1.572a.63.63 0 01-.628.63zM7.67 55.032v-.126a.63.63 0 01.629-.63H9.87a.63.63 0 01.63.63v.126a.63.63 0 01-.63.629H8.3c-.378.062-.63-.252-.63-.63zM.5 55.032v-.126a.63.63 0 01.629-.63H2.7a.63.63 0 01.63.63v.126a.63.63 0 01-.63.629H1.13c-.377.062-.629-.252-.629-.63z" fill="#2AE5C4"/>
  <path d="M209.779 40.127l-.15.15c-.45.45-1.124.375-1.498 0l-1.873-1.873a1.06 1.06 0 010-1.498l.15-.15a1.061 1.061 0 011.498 0l1.873 1.873c.374.375.374 1.124 0 1.498zM218.318 48.667l-.15.15a1.061 1.061 0 01-1.498 0l-1.873-1.873a1.06 1.06 0 010-1.498l.15-.15a1.061 1.061 0 011.498 0l1.873 1.873c.449.45.374 1.124 0 1.498zM214.872 40.277l-.15-.15a1.06 1.06 0 010-1.498l1.873-1.872a1.061 1.061 0 011.498 0l.15.15c.449.449.374 1.123 0 1.498l-1.873 1.872c-.375.525-1.049.45-1.498 0zM206.333 48.817l-.15-.15a1.06 1.06 0 010-1.498l1.872-1.873a1.062 1.062 0 011.499 0l.15.15c.449.45.374 1.124 0 1.498l-1.873 1.873c-.375.524-1.049.45-1.498 0z" fill="#FF78B9"/>
</svg>
