<svg width="300" height="120" fill="none" xmlns="http://www.w3.org/2000/svg">
  <path d="M0 120s9.1-10.9 38.8-15.6c35.6-5.6 59.4 7.3 75.9 3.9 18.5-3.9 40-16.9 86.6-16.9 34.3 0 72.6 8.4 98.7 28.6H0Z" fill="#57F287"/>
  <path d="M246.1 120a85.931 85.931 0 0 0-4.1-14.7l-1.1-2.7a101.01 101.01 0 0 0-11.7-21.5l-45.1-4.2c-5.2 9.8-7.1 28.3-3.6 43.1h65.6Z" fill="#6990FF"/>
  <path d="M244.4 11.2c-.4-1.1 2.5-4.1.4-6.9-2.1-2.8-5.4-1.1-6.4-1.6s-2.6-3.2-6.2-2.6c-3.6.6-3.6 4.6-4.2 5.2-.6.6-3.6.4-4.3 3.4-.7 3-.1 3.6 3.3 6l9.2 4.7c4.9 2.4 9.1.8 9.8-2.3.7-3.1-1.2-4.8-1.6-5.9Z" fill="#D11583"/>
  <path d="m232.3 33.6 1.5.3a50.656 50.656 0 0 0 2.5-10.7c-1.1-6.1-3.8-8.9-7.3-10.6a69.12 69.12 0 0 0-9.1 6.8c4.6 2 10.6 7.8 12.4 14.2Z" fill="#FF78B9"/>
  <path d="M236.3 23.2c.9-6.5.8-12.5 0-13.2-.8-.7-3.6.4-7.3 2.6 3.5 1.7 6.2 4.5 7.3 10.6ZM219.9 19.4a46.699 46.699 0 0 0-9.6 10.9l22 3.3c-1.8-6.4-7.8-12.2-12.4-14.2Z" fill="#EB459F"/>
  <path d="M147 71.9c-8.8 1.5-13.2 7.6-10.7 12.5s10.4 2.7 11.9 3.3c7.3 2.6 31.5 10.6 31.5 10.6l6.5-20.7S163 69.2 147 71.9Z" fill="url(#a)"/>
  <path d="m182.4 77.2 45.1-1.4c-6.6 11.2-23.4 15.7-33.1 13.5-9.7-2.2-12-12.1-12-12.1Z" fill="#456DDD"/>
  <path d="M276.4 101.1c1.2-4.8-2.9-7.8-7.3-9.7-22-9.3-39.2-12-39.2-12l-3.1 20.6s28.4 5 30.7 6c2.3 1 6 3.8 8.9 3.5 2.9-.3 2.7-3.3 3-3.6.3-.3 6-.4 7-4.8Z" fill="#6990FF"/>
  <path d="M164 39.9c2.74.014 5.478.181 8.2.5l-2.7 28.3a74.618 74.618 0 0 1-8.1-1 8.302 8.302 0 0 1-6.8-8.3c.102-4.256.503-8.5 1.2-12.7a8.2 8.2 0 0 1 8.2-6.8Z" fill="#456DDD"/>
  <path d="M165.1 43.9c2.1 0 4.3.2 6.4.4l-1.6 16.8a48.576 48.576 0 0 1-6.4-.8 3.802 3.802 0 0 1-3.3-3.7 53.05 53.05 0 0 1 .9-9.7 4 4 0 0 1 4-3Z" fill="#B8CDFF"/>
  <path d="M230.1 82.8a293.407 293.407 0 0 1-52.9-5 15.896 15.896 0 0 1-13.1-14.5 83.894 83.894 0 0 1 2.5-25.9 15.898 15.898 0 0 1 15.5-11.8 303.895 303.895 0 0 1 53 5 16.1 16.1 0 0 1 13.1 14.5c.524 8.71-.32 17.45-2.5 25.9a16 16 0 0 1-15.6 11.8Z" fill="#6990FF"/>
  <path d="m190.593 36.956 22.002 2.08a7.1 7.1 0 0 1 6.4 7.736l-.339 3.584a13.403 13.403 0 0 1-14.502 12.09l-9.557-.904a13.4 13.4 0 0 1-12.08-14.602l.339-3.584a7.1 7.1 0 0 1 7.737-6.4Z" fill="#B8CDFF"/>
  <path d="M225.1 66.5c-.3 2.5-2.2 5.9-5.5 6.7A8.1 8.1 0 0 1 213 72c-1.6-1-2.4-2.4-2.2-3.5.2-1.1 10.1-5.2 13-5 1 .1 1.5 1.4 1.3 3Z" fill="#D11583"/>
  <path d="M225.1 66.5c-.3 2.5-2.2 5.9-5.5 6.7A8.1 8.1 0 0 1 213 72c1.5-2.6 5.9-4.9 11.2-5.4l.9-.1Z" fill="#FF78B9"/>
  <path d="M253.9 48.3c-2.7-.4-5.4-.8-8.1-1l-2.7 28.4c2.7.3 5.5.4 8.2.5a8.2 8.2 0 0 0 8.2-6.9 89.376 89.376 0 0 0 1.2-12.7 8.302 8.302 0 0 0-6.8-8.3Z" fill="#6990FF"/>
  <path d="m252.1 52.1-5.2-.7a2.101 2.101 0 0 0-2.3 1.9l-1.2 12.6a2.202 2.202 0 0 0 1.9 2.4l5.3.2a4.002 4.002 0 0 0 4-3c.601-3.198.903-6.446.9-9.7a3.897 3.897 0 0 0-3.4-3.7Z" fill="#B8CDFF"/>
  <path d="m193.3 44-3.3-.3a2.698 2.698 0 0 0-2.9 2.4 2.798 2.798 0 0 0 2.4 2.9l3.3.3a2.698 2.698 0 0 0 2.9-2.4 2.701 2.701 0 0 0-2.4-2.9ZM206.7 45.3l-3.3-.3a2.596 2.596 0 0 0-2.619 1.393 2.604 2.604 0 0 0-.281 1.007 2.605 2.605 0 0 0 .618 1.9 2.597 2.597 0 0 0 1.782.9l3.3.3a2.5 2.5 0 0 0 2.8-2.3 2.501 2.501 0 0 0-2.3-2.9Z" fill="#6990FF"/>
  <path d="M174 42.8c-2.9-.3-5.7 3-4.6 4.4 1.1 1.4 2.7-.5 4.2-.3s2.6 2.3 4 1.1c1.4-1.2-.8-4.9-3.6-5.2ZM227.9 47.9c-2.8-.3-5.7 3-4.6 4.4 1.1 1.4 2.7-.5 4.2-.3s2.7 2.3 4.1 1.1c1.4-1.2-.8-5-3.7-5.2Z" fill="#000"/>
  <path d="m242 105.3-8.4-1.5a1.202 1.202 0 0 1-1-1.4 1.097 1.097 0 0 1 .911-1.026c.163-.028.33-.019.489.026l6.9 1.2c.4.9.8 1.8 1.1 2.7ZM141.6 81.5h-.2a1.401 1.401 0 0 1-1.1-1.5 9.205 9.205 0 0 1 2.3-4.3 1.3 1.3 0 0 1 1.8-.1 1.191 1.191 0 0 1 .404.83 1.208 1.208 0 0 1-.304.87 7.501 7.501 0 0 0-1.7 3.1 1.3 1.3 0 0 1-1.2 1.1Z" fill="#3442D9"/>
  <path d="M156.6 110a1.202 1.202 0 0 1-1.2-1.1c-1.3-7.9-6-19-13.7-25.9l-2.8-2.5c-4.5-3.7-9.6-8-11.5-14.2-3.9-12.5 3.4-24.4 7.7-31.5a1.225 1.225 0 0 1 .767-.552 1.238 1.238 0 0 1 1.285.48 1.228 1.228 0 0 1 .217.92 1.24 1.24 0 0 1-.169.452c-4.1 6.7-11 18-7.4 29.5 1.7 5.4 6.3 9.3 10.7 13l2.8 2.5c8.2 7.3 13.2 19.1 14.5 27.5a1.21 1.21 0 0 1-.204.911 1.202 1.202 0 0 1-.796.489h-.2Z" fill="#C5CEDD"/>
  <path d="M160 23.3c-4.2 8-17.9 14.8-23.5 11.8-5.6-3-7.8-18.2-3.5-26.1 4.3-7.9 13.7-11.3 21.1-7.3 7.4 4 10.2 13.6 5.9 21.6Z" fill="#FFC619"/>
  <path d="M132.3 35.1c.8-1.5 3.8-2.6 5.2-1.9 1.4.7 2.1 3.8 1.4 5.3-.7 1.5-7.4-2-6.6-3.4Z" fill="#FFC619"/>
  <path d="M143.2 5.3c-3.6 1.5-4.9 4.7-3.7 5.6 1.2.9 3.3-.4 6.6-1.1 3.3-.7 5.4-.5 5.9-2.5s-3.5-4.4-8.8-2Z" fill="#FFF2A6"/>
  <path d="M145 112.6h-.3a1.3 1.3 0 0 1-.9-1.6c3.1-10.1 3.9-23.9-3.9-29.3-14.3-9.9-29-2.6-44.7 5.1-9.3 4.7-19 9.5-28.8 10.5-16.8 1.7-30-1.9-37.1-10.3a1.2 1.2 0 0 1 .2-1.7 1.3 1.3 0 0 1 1.8.1c6.4 7.7 18.8 11 34.9 9.4 9.3-1 18.8-5.7 27.9-10.2 15.6-7.7 31.7-15.7 47.2-5 8.9 6.2 8.2 21.2 4.9 32.1a1.098 1.098 0 0 1-1.2.9Z" fill="#C5CEDD"/>
  <path d="M29.6 57.5c5.6 7.7 5.6 23.9.2 27.8-5.4 3.9-20.7-1.1-26.3-8.8-5.6-7.7-4.3-18.2 2.9-23.4 7.2-5.2 17.6-3.3 23.2 4.4Z" fill="#66BCFF"/>
  <path d="M27.8 89.2c-1-1.4-.6-4.8.7-5.7 1.3-.9 4.6-.3 5.7 1.1 1.1 1.4-5.3 6.1-6.4 4.6Z" fill="#66BCFF"/>
  <path d="M4.7 65.1c-.1 4.1 2.2 6.8 3.6 6.1 1.4-.7 1.2-3.3 2-6.8s2.1-5.3.5-6.7c-1.6-1.4-5.9 1.3-6.1 7.4Z" fill="#8CD9FF"/>
  <path d="M109.1 88h-.4C93 87.7 89.6 76.9 88.9 73.6a1.225 1.225 0 1 1 2.4-.5c.8 3.7 4 12.1 17.4 12.4 4.7.1 9.5-1.9 14.2-3.9 7-2.9 14.2-5.9 19.9-.8a1.302 1.302 0 0 1-.841 2.065c-.297.046-.6-.012-.859-.165-4.5-4.1-10.4-1.6-17.3 1.2-4.8 2-9.7 4.1-14.7 4.1Z" fill="#C5CEDD"/>
  <path d="M85.5 77.3c-.6-2.5 1.8-6.6 4-7.2 2.2-.6 6.3 2.1 6.8 4.6.5 2.5-10.2 5.1-10.8 2.6Z" fill="#B473F5"/>
  <path d="M118.6 40.4a37.398 37.398 0 0 1-27.043 30.992A37.4 37.4 0 0 1 52.4 58.8a34.201 34.201 0 0 1-3.7-6.1 2 2 0 0 0-2.3-1l-1.8.4a7 7 0 0 1-8.3-5.2 6.7 6.7 0 0 1 .7-4.8 1 1 0 0 0-1.1-1.4l-9 2-1.7.4a6.83 6.83 0 0 1-7.348-10.256A6.829 6.829 0 0 1 22.1 29.8l1.8-.4L38.8 26a1 1 0 0 0 .3-1.9 8.201 8.201 0 0 1-4-5.5 8.502 8.502 0 0 1 6.6-10.3L75 .6h.1a37.2 37.2 0 0 1 36 13.3 35.1 35.1 0 0 1 7.5 26.5Z" fill="url(#b)"/>
  <path d="M94.7 52.6a20.5 20.5 0 0 0 3.9-29 21.2 21.2 0 0 0-29.5-3.7 20.5 20.5 0 0 0-3.9 29 21.2 21.2 0 0 0 29.5 3.7Z" fill="#fff"/>
  <path d="m87 23 9 9.4a1.6 1.6 0 0 1 .4 1.6l-4.1 12.3a1.5 1.5 0 0 1-1.1 1l-12.8 2.9a1.7 1.7 0 0 1-1.4-.4l-9-9.3a1.4 1.4 0 0 1-.4-1.6l4-12.4a1.3 1.3 0 0 1 1.2-.9l12.7-2.9c.8-.2 1-.3 1.5.3Z" fill="#C5CEDD"/>
  <g opacity=".5" fill="#fff">
    <path opacity=".5" d="M42.2 11.3c-3.9 1.2-5 4.7-3.4 6.3 1.6 1.6 3.1.2 6-1.6s5.2-3.8 4.8-5c-.4-1.2-3.4-.8-7.4.3ZM27.9 31.6c-.7-.6-4.7.1-6.6 1.5-1.9 1.4-2.8 3.8-1.5 4.7 1.3.9 2.1-.3 3.8-1.7 1.7-1.4 5.3-3.5 4.3-4.5ZM40.4 42c-1.1.8-2.3 2.8-1.1 3.7 1.2.9 2.3.1 4-1.4 1.7-1.5 3-2.9 2.5-3.8-.5-.9-3.4.1-5.4 1.5Z"/>
  </g>
  <path style="mix-blend-mode:multiply" d="M94.7 52.6a20.5 20.5 0 0 0 3.9-29 21.2 21.2 0 0 0-29.5-3.7 20.5 20.5 0 0 0-3.9 29 21.2 21.2 0 0 0 29.5 3.7Z" fill="url(#c)"/>
  <path d="M282.1 80.9a1.302 1.302 0 0 1-1.2-.9c-2.4-8.9 3-16.1 7.4-21.8a47.5 47.5 0 0 0 3.5-5.2c3.2-6 .7-13.8-.5-17.6a1.3 1.3 0 1 1 2.4-.8c1.2 3.8 4 12.7.3 19.6a46.094 46.094 0 0 1-3.8 5.5c-4 5.3-9 12-6.9 19.6a1.302 1.302 0 0 1-.9 1.6h-.3Z" fill="#C5CEDD"/>
  <path d="M299.6 12.8c1.8 7.1-2.7 18.8-7.6 20.1-4.9 1.3-14.7-6.6-16.6-13.7-1.9-7.1 2-14.3 8.7-16.1 6.7-1.8 13.6 2.6 15.5 9.7Z" fill="#57F287"/>
  <path d="M289.4 35.2c-.3-1.3.9-3.6 2.1-3.9 1.2-.3 3.4 1 3.8 2.4.4 1.4-5.5 2.8-5.9 1.5Z" fill="#57F287"/>
  <path d="M279.5 11.3c-1.3 3-.3 5.6.9 5.5 1.2-.1 1.8-2.1 3.4-4.4 1.6-2.3 2.9-3.2 2.2-4.7-.7-1.5-4.6-.7-6.5 3.6Z" fill="#91FFAD"/>
  <path d="M145.5 76.3c-3.1 2.8-3.4 5.4-1.9 7.3 1.5 1.9 4.5 2 4.5 2" fill="#456DDD"/>
  <defs>
    <linearGradient id="a" x1="137.82" y1="74.96" x2="183.43" y2="88.43" gradientUnits="userSpaceOnUse">
      <stop offset=".3" stop-color="#456DDD"/>
      <stop offset=".9" stop-color="#6990FF"/>
    </linearGradient>
    <linearGradient id="b" x1="77.87" y1="72.41" x2="60.54" y2="6.95" gradientUnits="userSpaceOnUse">
      <stop offset=".02" stop-color="#B473F5"/>
      <stop offset="1" stop-color="#E292AA"/>
    </linearGradient>
    <linearGradient id="c" x1="70.86" y1="1.55" x2="92.42" y2="69.32" gradientUnits="userSpaceOnUse">
      <stop stop-color="#C5CEDD" stop-opacity="0"/>
      <stop offset="1" stop-color="#C5CEDD" stop-opacity=".5"/>
    </linearGradient>
  </defs>
</svg>
