<?xml version="1.0" encoding="UTF-8"?>
<svg fill="none" viewBox="0 0 120 112" xmlns="http://www.w3.org/2000/svg">
<path d="m80.775 24.08-0.3375 0.56h-19.2s15.675-13.627 15.9-13.589c0.1212 0.0025 0.2389 0.0415 0.3375 0.112l0.2625 0.1493h0.1125l0.15 0.112c0.2678 0.1759 0.5188 0.3758 0.75 0.5973 0.1181 0.0798 0.2199 0.1811 0.3 0.2987 0.1931 0.1551 0.3691 0.3304 0.525 0.5227h0.0375l0.1875 0.2613 0.15 0.112h-0.0375c1.2385 1.5076 1.9848 3.356 2.139 5.2976 0.1541 1.9416-0.2913 3.8838-1.2765 5.5664z" fill="#60CFAC"/>
<path d="m79.95 13.403h-0.0375c-2.9175 3.7559-6.0872 7.3107-9.4875 10.64-0.1808 0.2173-0.3817 0.4173-0.6 0.5973h-5.325l0.675-0.6347c0.8625-0.784 1.8375-1.68 2.8875-2.7253 3.2343-3.2199 6.2651-6.6362 9.075-10.229 0.1213 0.0025 0.2389 0.0415 0.3375 0.112l0.2625 0.1493h0.1125l0.15 0.112 0.75 0.5973c0.1181 0.0797 0.2199 0.1811 0.3 0.2987 0.1931 0.1551 0.3691 0.3303 0.525 0.5227h0.0375l0.1875 0.2613 0.15 0.2987z" fill="#3DAD8B"/>
<path d="m95.85 41.963h16.088c2.131 0 4.177 0.8405 5.687 2.3377 1.511 1.4972 2.365 3.5293 2.375 5.6516v18.032c0 2.1288-0.849 4.1704-2.361 5.6757s-3.563 2.351-5.701 2.351h-16.088v-34.048z" fill="#7196FF"/>
<path d="m102.41 47.936h8.063c1.064 0 2.085 0.4208 2.837 1.17 0.753 0.7491 1.175 1.7652 1.175 2.8247v14c0 1.0595-0.422 2.0756-1.175 2.8247-0.752 0.7491-1.773 1.17-2.837 1.17h-8.063v-22.027 0.0373z" fill="#AEC7FF"/>
<path d="m21.525 56.485v19.488h-16.088c-1.9304 0.0186-3.7999-0.6726-5.25-1.9414l5.25-4.3306 3.2625-2.6507 6.2625-5.1894 6.5625-5.3759z" fill="#6592FF"/>
<path d="m108.68 41.963v28.187c3e-3 1.9818-0.327 3.9502-0.975 5.824-1.22 3.5503-3.524 6.6322-6.59 8.8145-3.0663 2.1822-6.741 3.3557-10.51 3.3561h-63.825c-3.7691-4e-4 -7.4438-1.1739-10.51-3.3561-3.0661-2.1823-5.3703-5.2642-6.5901-8.8145-0.64826-1.8738-0.97778-3.8422-0.975-5.824l54.263-46.069h27.638c4.7743-1e-4 9.3548 1.8804 12.741 5.2309 3.387 3.3504 5.304 7.8987 5.334 12.652z" fill="#7196FF"/>
<path d="m82.8 45.173v14.336c0 3.6967-1.4724 7.2425-4.0945 9.86-2.6221 2.6174-6.1798 4.0928-9.893 4.1027h-20.212c-3.7196 0-7.2869-1.4711-9.9171-4.0896s-4.1079-6.1699-4.1079-9.8731v-5.8613l17.7-14.224h24.75c0.7584 0 1.5094 0.1487 2.21 0.4377 0.7007 0.2889 1.3373 0.7124 1.8736 1.2463 0.5362 0.5338 0.9616 1.1676 1.2518 1.8652 0.2903 0.6975 0.4396 1.4451 0.4396 2.2001z" fill="#AEC7FF"/>
<path d="m93.9 54.843c3.0031 0 5.4375-2.4237 5.4375-5.4134s-2.4344-5.4133-5.4375-5.4133c-3.003 0-5.4375 2.4236-5.4375 5.4133s2.4345 5.4134 5.4375 5.4134z" fill="#202225"/>
<path d="m74.363 59.584h-7.7625c-1.3876 0-2.5125 1.1199-2.5125 2.5014v0.0037c0 1.3815 1.1249 2.5013 2.5125 2.5013h7.7625c1.3876 0 2.5124-1.1198 2.5124-2.5013v-0.0037c0-1.3815-1.1248-2.5014-2.5124-2.5014z" fill="#7196FF"/>
<path d="m50.775 59.584h-7.7625c-1.3876 0-2.5125 1.1199-2.5125 2.5014v0.0037c0 1.3815 1.1249 2.5013 2.5125 2.5013h7.7625c1.3876 0 2.5125-1.1198 2.5125-2.5013v-0.0037c0-1.3815-1.1249-2.5014-2.5125-2.5014z" fill="#7196FF"/>
<g style="mix-blend-mode:multiply">
<path d="m1.3875 75.04c0 4.4053-0.1125 8.512 4.275 13.701 3.675 4.2933 9.9375 11.611 11.662 13.328 0.6147 0.611 1.3978 1.027 2.25 1.195 3 0.485 6.075-2.277 7.425-6.9814l1.125-4.1067c7.725 4.5174 16.762-1.904 20.288-14.373l2.2125-7.84c1.725 0.8587 3.675 0.8214 5.5875-0.3733 1.0877 2.8617 2.4966 5.5919 4.2 8.1387 0.5625 0.8586 1.5375 0.7466 2.175-0.2614s0.6-2.5386 0-3.3973c-1.4986-2.2137-2.7319-4.5943-3.675-7.0933 2.625-3.6587 3.75-9.4454 2.5875-14.597-0.7265-3.0543-1.2898-6.1449-1.6875-9.2586 8.6625-6.5334 16.65-9.4827 16.65-20.645 0-0.8586-0.075-8.2506-0.075-8.2506l-75 60.816z" fill="#C7CCD1"/>
</g>
<path d="m6.5626 84.635 11.362 6.5334c3.4125 1.9786 7.5-0.7467 9.075-6.0854l1.125-3.9573c7.725 4.3307 16.762-1.792 20.288-13.776l2.2125-7.5413c1.725 0.8586 3.675 0.8213 5.5875-0.336 1.0874 2.756 2.4972 5.3749 4.2 7.8026 0.5625 0.8214 1.5375 0.7094 2.175-0.2613s0.6-2.4267 0-3.248c-1.4839-2.1163-2.7171-4.3964-3.675-6.7947 2.625-3.5093 3.75-9.0347 2.5875-13.963-0.7242-2.929-1.2875-5.8952-1.6875-8.8853 2.1375-2.0907 5.5125-4.7787 10.8-7.8027h0.075l0.675-0.448 0.2625-0.224 0.4875-0.4106 0.3-0.2987 0.375-0.3733 0.3375-0.448c0.1066-0.0813 0.1958-0.1828 0.2625-0.2987 2.1375-2.8373 3.525-5.6373 3.525-10.64 0-0.8214-0.075-1.5307 0.225-1.7547s0.375-0.112 0.675 0.0373c-0.8625-0.7093-1.1625-0.224-1.5375 0.0374l-76.087 62.533c-0.75 3.5466 0.7125 7.3546 6.375 10.603z" fill="#E3E5E8"/>
<path d="m42.562 78.027 7.5374-45.024-11.925 9.7813-6.4875 39.611c3.7875 0.5974 7.65-1.008 10.875-4.368z" fill="#F5F6F7"/>
<path d="m18.6 58.912-4.9125 29.829 4.2375 2.4266 0.675 0.336 6.375-37.856-6.375 5.264z" fill="#F5F6F7"/>
<path d="m106.42 12.32 6.3-2.8c0.024-0.01292 0.043-0.03185 0.057-0.05483 0.013-0.02298 0.021-0.04917 0.021-0.07584 0-0.02668-8e-3 -0.05286-0.021-0.07584-0.014-0.02298-0.033-0.04191-0.057-0.05483l-6.3-2.8c-0.02 0-0.039-0.00786-0.053-0.02187-0.014-0.014-0.022-0.03299-0.022-0.05279l-2.812-6.3093c-0.075-0.112-0.225-0.112-0.263 0l-2.812 6.3093c-0.038 0.03733-0.038 0.07466-0.075 0.07466l-6.3379 2.8c-0.0234 0.01292-0.043 0.03185-0.0566 0.05483s-0.0208 0.04916-0.0208 0.07584c0 0.02667 0.0072 0.05286 0.0208 0.07584s0.0332 0.04191 0.0566 0.05483l6.3379 2.8c0.037 0 0.037 0.0374 0.075 0.0747l2.812 6.3093c0.038 0.112 0.188 0.112 0.263 0l2.812-6.3093c0-0.0198 8e-3 -0.0388 0.022-0.0528s0.033-0.0219 0.053-0.0219z" fill="#F7E080"/>
<path d="m52.912 108.16 3.7875-1.68c0.0184-0.021 0.0286-0.047 0.0286-0.075s-0.0102-0.054-0.0286-0.075l-3.7875-1.68c-0.01 0-0.0195-4e-3 -0.0265-0.011-0.0071-7e-3 -0.011-0.016-0.011-0.026l-1.6875-3.771c0-0.019-0.0079-0.038-0.022-0.052s-0.0331-0.022-0.053-0.022-0.039 8e-3 -0.0531 0.022c-0.014 0.014-0.0219 0.033-0.0219 0.052l-1.6875 3.771h-0.0375l-3.7875 1.68c-0.0199 0-0.039 8e-3 -0.0531 0.022-0.014 0.014-0.0219 0.033-0.0219 0.053 0 0.019 0.0079 0.038 0.0219 0.052 0.0141 0.014 0.0332 0.022 0.0531 0.022l3.7875 1.68c0.0099 0 0.0195 4e-3 0.0265 0.011s0.011 0.017 0.011 0.027l1.6875 3.77c0.0206 0.019 0.0473 0.029 0.075 0.029s0.0544-0.01 0.075-0.029l1.6875-3.77h0.0375z" fill="#FF88DE"/>
<path d="m16.162 39.573 3.1125-1.3813c0.0199 0 0.039-0.0079 0.0531-0.0219 0.014-0.014 0.0219-0.033 0.0219-0.0528s-0.0079-0.0388-0.0219-0.0528c-0.0141-0.014-0.0332-0.0218-0.0531-0.0218l-3.1125-1.3814c-0.0375 0-0.0375 0-0.0375-0.0373l-1.425-3.0987c0-0.0746-0.075-0.0746-0.1125 0l-1.3875 3.0987c0 0.0099-0.0039 0.0194-0.0109 0.0264-0.0071 7e-3 -0.0166 0.0109-0.0266 0.0109l-3.15 1.3814c-0.01841 0.0205-0.02861 0.0471-0.02861 0.0746 0 0.0276 0.0102 0.0542 0.02861 0.0747l3.15 1.3813h0.0375l1.3875 3.136h0.1125l1.425-3.136h0.0375z" fill="#fff"/>
</svg>
