<svg id="candy_planet" data-name="candy planet" xmlns="http://www.w3.org/2000/svg" xmlns:xlink="http://www.w3.org/1999/xlink" viewBox="0 0 624 624">
  <defs>
    <linearGradient id="linear-gradient" x1="168.31" y1="592.27" x2="481.18" y2="-17.97" gradientUnits="userSpaceOnUse">
      <stop offset="0" stop-color="#ed80b5"/>
      <stop offset="0.21" stop-color="#ed83b3"/>
      <stop offset="0.38" stop-color="#ef8eac"/>
      <stop offset="0.54" stop-color="#f19fa1"/>
      <stop offset="0.69" stop-color="#f4b791"/>
      <stop offset="0.71" stop-color="#f5bc8e"/>
      <stop offset="0.8" stop-color="#f7cd83"/>
      <stop offset="0.9" stop-color="#fae673"/>
    </linearGradient>
    <linearGradient id="linear-gradient-2" x1="133.36" y1="660.18" x2="434.22" y2="165.41" gradientUnits="userSpaceOnUse">
      <stop offset="0.37" stop-color="#ed80b5"/>
      <stop offset="0.62" stop-color="#fcf1ad"/>
      <stop offset="0.85" stop-color="#f7d58d"/>
      <stop offset="1" stop-color="#f4c177"/>
    </linearGradient>
  </defs>
  <title>Planet</title>
  <g>
    <g id="Ellipse_1" data-name="Ellipse 1" style="opacity: 0.30000000000000004">
      <circle cx="312" cy="312" r="240" style="fill: #ed80b5"/>
    </g>
    <path d="M99.5,198.5s90.2-162,250-117.6l2.1,33.1-45.7,34.5-103.6,9.1-79.5,33.1Z" style="fill: #d7529a;opacity: 0.30000000000000004"/>
    <path d="M297.4,551.3s119-150,232.4-152.8C529.8,398.5,491.8,556.2,297.4,551.3Z" style="fill: #d7529a;opacity: 0.30000000000000004"/>
    <path d="M558.5,269.4a242.3,242.3,0,0,0-42.1-101.6C468.1,100.6,393.6,62,312,62a267.1,267.1,0,0,0-42.6,3.5,243.6,243.6,0,0,0-101.6,42.1c-39,28-69,65.6-86.9,108.7S57.7,307.2,65.5,354.6a242.3,242.3,0,0,0,42.1,101.6C155.9,523.4,230.4,562,312,562a267.1,267.1,0,0,0,42.6-3.5,242.3,242.3,0,0,0,101.6-42.1c39-28,69-65.6,86.9-108.7S566.3,316.8,558.5,269.4ZM508.4,431.9l-.2.3a21.4,21.4,0,0,1-16.6,10,303,303,0,0,0-83,16.9c30.3-20,61-33.2,91.3-39.4h1.7a8,8,0,0,1,7,4.1A8.1,8.1,0,0,1,508.4,431.9ZM318.6,540.1A207.6,207.6,0,0,1,353,509.5c23.2-16.8,62.7-38.4,119-46h.9a5.3,5.3,0,0,1,4.9,3.4,5.2,5.2,0,0,1-1.2,5.8l-2,2A227.7,227.7,0,0,1,317,541.9ZM434,422.3c-25.6,12.6-51.1,29.6-75.8,50.7A459.3,459.3,0,0,0,304,527.5h-.1a34.6,34.6,0,0,1-25.6,11.5,28.4,28.4,0,0,1-5.8-.5A230.2,230.2,0,0,1,82,312a235.6,235.6,0,0,1,4.4-45.2s7.7-29,29-52.8c12.7-14.3,28.5-25.8,46.9-34.4,23.3-10.8,51-16.8,82.2-17.9,53.9-1.8,91.2-15.4,110.9-40.2a68.7,68.7,0,0,0,7-10.8,27.8,27.8,0,0,1,34.5-12.6A230.8,230.8,0,0,1,542,312c0,7-.3,14-.9,20.8-3.1,34-26.9,62.7-59.5,71.5A272,272,0,0,0,434,422.3Zm-92.1-330a15.9,15.9,0,0,1-2.1,16.6l-.2.3c-15.7,19.7-48.9,30.9-95.8,32.5-72.8,2.5-111.6,32.7-131,48.7,2.1-3.1,4.9-6.9,8.4-11.3a363,363,0,0,1,27.2-31.5C190.8,105.3,248.9,82,312,82c5.3,0,10.7.2,16,.5A16.3,16.3,0,0,1,341.9,92.3Z" style="fill: url(#linear-gradient)"/>
    <path d="M516.2,184.1c50.2-5.3,85.5,2.1,95.8,23.7,22.8,47.9-86.9,147.8-245.1,223.1S62,528.3,39.1,480.4c-10.5-22.2,7.3-55.6,45.3-92.4l7,22.3C78.7,425.4,73.6,438.1,77.8,447c14.5,30.6,135,3.6,269.1-60.2s231-140.3,216.5-170.9c-4.3-8.9-16.8-14.2-36.9-13.8Z" style="fill: url(#linear-gradient-2)"/>
    <path d="M49.4,462.9c-4.7,11-3.9,29.7,54,30.6a3.1,3.1,0,0,0,.6-6.1c-20.3-3.8-41.3-10.9-47.8-24.7A3.7,3.7,0,0,0,49.4,462.9Z" style="fill: #fff"/>
    <path d="M311.7,428.9c25.1,16.4,144.8-59.9,174.4-88.4,16.3-15.7,2-18.9-12.2-9.7-69.6,44.6-102.9,59.5-154.8,82.4C311,416.9,305.2,424.7,311.7,428.9Z" style="fill: #fff"/>
    <path d="M422.7,441c2,4.4-10.5,7.4-21.7,15.2s-14.2,14.7-18.9,13,2.9-12,14.1-19.8S420.7,436.5,422.7,441Z" style="fill: #fff"/>
    <path d="M187.3,161.4c1.2,4.7-11.6,5.7-23.9,11.6s-16.3,12.2-20.8,9.8,4.9-11.4,17.2-17.3S186,156.7,187.3,161.4Z" style="fill: #fff"/>
    <path d="M468.9,454.7c-.3,2.6-6.1,3.2-10.2,4.2s-8.3.6-9-1.2,4.1-4.6,8.5-5.6C464.2,450.6,469.2,452,468.9,454.7Z" style="fill: #fff"/>
    <path d="M572.1,240.3c-3.2-2.1,1-7.2,2.4-11.7s3.3-9,6.1-8.4,3.3,7,1.9,11.9C580.5,238.6,575.4,242.4,572.1,240.3Z" style="fill: #fff"/>
    <path d="M347.2,79.1c-2.2,3.9-9.2-2.2-14.9-3.6s-11.2-1.3-10.8-4.6,8.2-4.4,14.3-3.1C344.1,69.5,349.4,75.1,347.2,79.1Z" style="fill: #fff"/>
    <path d="M508.8,403c-.3-2.1,5.7-4.7,10-8.9s4.8-8.4,7.5-7.9,1.2,10.2-3.4,14.8C516.8,407.3,509.1,405.7,508.8,403Z" style="fill: #fff"/>
    <path d="M310.6,138.5c.9-2.6,10.8-6.4,19.6-12.3s11.9-11.1,15.5-10.7-4.7,12.7-14,19.1C319.2,143.2,309.3,142,310.6,138.5Z" style="fill: #fff"/>
    <path d="M571,203.2c-2.1,1-8.3-3.7-15.5-6.2s-11.8-1.5-12.9-4.3,10.1-4.9,17.8-2.3C570.8,193.9,573.7,201.9,571,203.2Z" style="fill: #fff"/>
  </g>
</svg>
