<svg width="53" height="32" viewBox="0 0 53 32" fill="none" xmlns="http://www.w3.org/2000/svg">
<path d="M53 0H0V32H53V0Z" fill="white"/>
<path fill-rule="evenodd" clip-rule="evenodd" d="M37.088 10.5268C37.088 11.4905 36.3791 11.9951 35.6782 11.9951C34.7626 11.9951 34.2684 11.2296 34.2684 10.5108C34.2684 9.79448 34.7534 9.06832 35.6782 9.06832C36.3778 9.06832 37.088 9.56801 37.088 10.5268ZM38.0327 8.16494H37.3398C37.273 8.16494 37.209 8.18957 37.1618 8.23343C37.1145 8.27728 37.088 8.33676 37.088 8.39878V9.06832C37.0204 8.64986 36.4467 8.09109 35.4636 8.09109C34.0697 8.09109 33.056 9.10894 33.056 10.5108C33.056 11.9139 34.0829 12.9723 35.4463 12.9723C36.2943 12.9723 36.823 12.5145 37.0893 12.256V12.6646C37.0893 12.7926 37.1993 12.8985 37.3398 12.8985H38.0327C38.0657 12.8985 38.0984 12.8924 38.1289 12.8807C38.1594 12.8689 38.187 12.8516 38.2103 12.8299C38.2336 12.8082 38.252 12.7824 38.2645 12.754C38.277 12.7257 38.2833 12.6953 38.2832 12.6646V8.39878C38.2832 8.33698 38.2568 8.27768 38.2099 8.23386C38.163 8.19004 38.0993 8.16526 38.0327 8.16494V8.16494ZM41.4062 10.0825C40.8497 9.93971 40.3687 9.8154 40.3687 9.4794C40.3687 9.20124 40.6403 9.04248 41.116 9.04248C41.5559 9.04248 41.854 9.2234 41.9375 9.53724C41.964 9.64186 42.0634 9.71571 42.18 9.71571H42.8716C42.9076 9.71537 42.9431 9.70787 42.9757 9.69371C43.0083 9.67956 43.0373 9.65908 43.0606 9.63365C43.084 9.60823 43.1012 9.57845 43.1111 9.54632C43.121 9.51419 43.1234 9.48046 43.1181 9.4474C42.9763 8.59817 42.2423 8.09109 41.1505 8.09109C40.0043 8.09109 39.1736 8.6794 39.1736 9.48924C39.1736 10.5169 40.1845 10.768 40.9954 10.9699C41.5519 11.1089 42.0329 11.2283 42.0329 11.5483C42.0329 11.8376 41.7202 12.0185 41.2141 12.0185C40.7808 12.0185 40.4257 11.8154 40.3356 11.5126C40.3215 11.4625 40.2899 11.4182 40.2458 11.3866C40.2017 11.355 40.1475 11.3378 40.0918 11.3379H39.363C39.3266 11.3378 39.2906 11.345 39.2575 11.3592C39.2244 11.3734 39.1951 11.394 39.1715 11.4198C39.1479 11.4456 39.1307 11.4758 39.1209 11.5085C39.1112 11.5411 39.1093 11.5753 39.1153 11.6086C39.2743 12.4111 40.1448 12.9711 41.2326 12.9711C42.3907 12.9711 43.2016 12.3816 43.2016 11.5372C43.1698 10.5354 42.1906 10.2843 41.4049 10.0825H41.4062ZM46.7194 8.16863C46.151 8.16863 45.6343 8.3434 45.2739 8.65724V6.82832C45.2739 6.79773 45.2673 6.76744 45.2547 6.7392C45.242 6.71097 45.2234 6.68535 45.2 6.66383C45.1766 6.64231 45.1488 6.62532 45.1183 6.61384C45.0877 6.60236 45.0551 6.59661 45.0221 6.59694H44.3371C44.3043 6.59677 44.2717 6.60264 44.2414 6.6142C44.211 6.62575 44.1834 6.64277 44.1601 6.66427C44.1368 6.68577 44.1184 6.71134 44.1058 6.73949C44.0932 6.76764 44.0867 6.79783 44.0867 6.82832V12.6646C44.0867 12.7926 44.198 12.8985 44.3371 12.8985H45.0221C45.0889 12.8985 45.1529 12.8738 45.2001 12.83C45.2474 12.7861 45.2739 12.7266 45.2739 12.6646V10.3385C45.2739 9.58032 45.6965 9.06709 46.4319 9.06709C47.1633 9.06709 47.5847 9.58032 47.5847 10.3397V12.6646C47.5847 12.7926 47.6947 12.8985 47.8338 12.8985H48.5095C48.5426 12.8986 48.5754 12.8927 48.6061 12.881C48.6367 12.8693 48.6645 12.8521 48.6879 12.8303C48.7113 12.8086 48.7299 12.7828 48.7425 12.7543C48.7551 12.7259 48.7614 12.6954 48.7613 12.6646V10.1969C48.7613 8.96617 47.9583 8.16863 46.7181 8.16863H46.7194ZM32.3564 11.3526L31.7695 11.0425C31.7147 11.0125 31.6496 11.0034 31.5878 11.0172C31.526 11.031 31.4724 11.0665 31.4382 11.1163C31.2911 11.3305 31.0858 11.5065 30.8287 11.6406C30.5185 11.8007 30.1687 11.883 29.8138 11.8794C29.1817 11.8794 28.6637 11.6923 28.2741 11.3219C27.8846 10.9514 27.6858 10.4726 27.6858 9.90401C27.6858 9.33171 27.8846 8.8554 28.2741 8.48494C28.6637 8.11324 29.1831 7.92617 29.8138 7.92617C30.1848 7.92617 30.5253 8.00617 30.8247 8.16494C31.0791 8.30032 31.2845 8.47755 31.4342 8.69171C31.457 8.7239 31.4881 8.75025 31.5247 8.76832C31.5613 8.78639 31.6022 8.7956 31.6436 8.79509C31.6879 8.79506 31.7313 8.78401 31.7695 8.76309L32.3578 8.44555C32.3876 8.42997 32.4136 8.4088 32.4341 8.38337C32.4547 8.35794 32.4693 8.32882 32.477 8.29786C32.485 8.26713 32.4861 8.23519 32.4802 8.20405C32.4743 8.17291 32.4615 8.14325 32.4426 8.11694C32.1762 7.74837 31.8187 7.44449 31.3998 7.23078C30.915 6.9801 30.3686 6.85035 29.8138 6.85417C28.8677 6.85417 28.0714 7.14955 27.446 7.73294C26.8232 8.31509 26.5052 9.04617 26.5052 9.90401C26.5052 10.7619 26.8232 11.4917 27.446 12.0739C28.0714 12.6548 28.8677 12.9514 29.8138 12.9514C30.3888 12.9514 30.9268 12.8234 31.4104 12.5699C31.8397 12.3434 32.1855 12.0456 32.4439 11.6825C32.4626 11.6561 32.4752 11.6264 32.481 11.5953C32.4867 11.5641 32.4853 11.5322 32.477 11.5016C32.4687 11.4705 32.4537 11.4413 32.433 11.4157C32.4123 11.3901 32.3863 11.3687 32.3564 11.3526V11.3526ZM22.8787 9.42278C22.7962 9.42311 22.7172 9.45368 22.6589 9.50785C22.6006 9.56203 22.5677 9.6354 22.5673 9.71201V10.1305C22.5673 10.2892 22.7065 10.4197 22.8787 10.4197H24.6449C24.4435 11.5311 23.1861 11.9089 22.6389 11.9089C22.0029 11.9089 21.4663 11.7096 21.0449 11.3219C20.6448 10.9514 20.4394 10.4763 20.4394 9.9114C20.4394 9.34524 20.6408 8.86894 21.0409 8.49355C21.4384 8.11817 21.9552 7.9274 22.5766 7.9274C22.9609 7.9274 23.3107 8.00863 23.6194 8.1674C23.8658 8.29417 24.0659 8.4554 24.2156 8.64494C24.2449 8.68111 24.283 8.71034 24.3267 8.73024C24.3705 8.75013 24.4187 8.76012 24.4674 8.7594C24.5244 8.7594 24.5787 8.74586 24.6251 8.72124L25.0968 8.46771C25.1749 8.42709 25.2293 8.35694 25.2478 8.27817C25.2567 8.23931 25.2569 8.19918 25.2485 8.16024C25.24 8.1213 25.2231 8.08436 25.1988 8.05171C24.9357 7.71186 24.5932 7.43164 24.1971 7.23201C23.7022 6.9791 23.1454 6.84896 22.5806 6.85417C21.6451 6.85417 20.8501 7.15201 20.2168 7.74032C19.9081 8.02121 19.6642 8.35763 19.5002 8.72901C19.3362 9.1004 19.2554 9.49895 19.2628 9.90032C19.2628 10.7532 19.5834 11.4831 20.2168 12.0665C20.8501 12.6523 21.661 12.9489 22.6323 12.9489C23.4405 12.9489 24.376 12.5822 24.9643 12.0382C25.477 11.5619 25.7036 10.88 25.7672 10.4997H25.7699L25.7805 10.4074C25.7937 10.3052 25.803 10.0357 25.8096 9.80186C25.811 9.7519 25.8017 9.70219 25.7821 9.65565C25.7625 9.60911 25.733 9.5667 25.6955 9.53091C25.6579 9.49511 25.613 9.46667 25.5635 9.44725C25.5139 9.42784 25.4606 9.41784 25.4068 9.41786H22.8761V9.42278H22.8787Z" fill="#002CB9"/>
<path fill-rule="evenodd" clip-rule="evenodd" d="M15.3965 9.90403C15.3965 10.7865 15.1752 11.6394 14.7565 12.4037C14.719 12.4685 14.6958 12.5396 14.6882 12.6128C14.6806 12.686 14.6887 12.7599 14.7122 12.8302C14.7357 12.9004 14.774 12.9656 14.8249 13.022C14.8758 13.0784 14.9383 13.1247 15.0087 13.1584C15.0791 13.1921 15.156 13.2124 15.2349 13.2182C15.3139 13.2239 15.3933 13.215 15.4685 13.192C15.5437 13.1689 15.6132 13.1322 15.673 13.0839C15.7327 13.0356 15.7815 12.9768 15.8165 12.9108C16.3271 11.9796 16.5928 10.9491 16.5916 9.90403C16.5916 8.82219 16.3134 7.80311 15.8205 6.90096C15.7881 6.83105 15.7405 6.76808 15.6808 6.71596C15.6211 6.66385 15.5505 6.62369 15.4733 6.598C15.3962 6.57231 15.3142 6.56163 15.2324 6.56663C15.1507 6.57162 15.0709 6.59218 14.998 6.62703C14.9252 6.66188 14.8608 6.71027 14.809 6.7692C14.7571 6.82813 14.7189 6.89634 14.6966 6.96959C14.6743 7.04283 14.6685 7.11956 14.6795 7.19498C14.6905 7.27041 14.718 7.34293 14.7605 7.40804C15.1765 8.17234 15.3965 9.02157 15.3965 9.90403V9.90403Z" fill="#6FBBF8"/>
<path fill-rule="evenodd" clip-rule="evenodd" d="M13.4647 9.90397C13.4647 10.4517 13.3388 10.9809 13.099 11.4646C13.0662 11.5309 13.0478 11.6025 13.0447 11.6754C13.0417 11.7482 13.0542 11.821 13.0815 11.8894C13.1087 11.9578 13.1502 12.0205 13.2036 12.074C13.2569 12.1275 13.3211 12.1707 13.3925 12.2012C13.5365 12.2627 13.701 12.2686 13.8498 12.2175C13.9234 12.1921 13.9909 12.1536 14.0485 12.104C14.1061 12.0545 14.1527 11.9949 14.1855 11.9286C14.5003 11.2942 14.6627 10.6037 14.6612 9.9052C14.6612 9.19628 14.4969 8.51074 14.1881 7.88674C14.1554 7.82047 14.109 7.76084 14.0514 7.71124C13.9939 7.66165 13.9264 7.62306 13.8529 7.59769C13.7793 7.57232 13.7011 7.56066 13.6226 7.56337C13.5442 7.56609 13.4671 7.58312 13.3958 7.61351C13.3244 7.64389 13.2602 7.68703 13.2068 7.74047C13.1535 7.7939 13.1119 7.85658 13.0846 7.92492C13.0573 7.99326 13.0447 8.06594 13.0477 8.13879C13.0506 8.21164 13.0689 8.28324 13.1016 8.34951C13.3401 8.82951 13.4647 9.35874 13.4647 9.90397V9.90397Z" fill="#6FBBF8"/>
<path fill-rule="evenodd" clip-rule="evenodd" d="M9.45123 13.6344C8.37798 13.6344 7.36965 13.2455 6.61308 12.5415C6.23905 12.1962 5.94248 11.7853 5.74051 11.3328C5.53855 10.8803 5.43521 10.3951 5.43648 9.9052C5.43648 8.90828 5.85253 7.97289 6.61308 7.26766C6.98486 6.92024 7.42714 6.64475 7.91431 6.45715C8.40147 6.26955 8.92386 6.17356 9.45123 6.17474C10.608 6.17474 11.4334 6.61166 11.9025 6.95012C11.9639 6.99809 12.0351 7.03406 12.1118 7.05587C12.1885 7.07767 12.2692 7.08488 12.349 7.07704C12.4287 7.06921 12.506 7.04649 12.5761 7.01027C12.6462 6.97404 12.7077 6.92504 12.757 6.86621C12.8062 6.80737 12.8422 6.73991 12.8627 6.66787C12.8832 6.59582 12.8879 6.52067 12.8764 6.44691C12.8649 6.37316 12.8375 6.30232 12.7958 6.23863C12.7541 6.17495 12.6991 6.11973 12.6339 6.07628C11.7238 5.41925 10.6039 5.06282 9.45123 5.06336C8.05733 5.06336 6.75088 5.56797 5.76773 6.4812C5.2822 6.92938 4.89719 7.46254 4.63495 8.04985C4.37272 8.63715 4.23848 9.26693 4.24 9.90274C4.23948 10.5383 4.37383 11.1678 4.63537 11.7552C4.8969 12.3425 5.2805 12.8762 5.76423 13.3258C6.24796 13.7753 6.82234 14.1319 7.45452 14.3752C8.08671 14.6184 8.76431 14.7435 9.44858 14.7434C10.6199 14.7434 11.7302 14.3864 12.6405 13.7304C12.7062 13.6826 12.7602 13.6224 12.7989 13.5538C12.8377 13.4851 12.8603 13.4096 12.8653 13.3323C12.8703 13.2549 12.8576 13.1775 12.828 13.105C12.7984 13.0325 12.7525 12.9668 12.6935 12.912L12.6816 12.8997C12.5803 12.8056 12.4456 12.749 12.3026 12.7407C12.1597 12.7323 12.0183 12.7726 11.9051 12.8541C11.2036 13.3609 10.3399 13.6356 9.45123 13.6344V13.6344Z" fill="#007CFF"/>
<path fill-rule="evenodd" clip-rule="evenodd" d="M12.5729 9.50763C12.4605 9.40303 12.308 9.34415 12.1489 9.34394L10.0554 9.3464C9.90092 9.35314 9.75517 9.41489 9.64841 9.51883C9.54165 9.62276 9.48208 9.7609 9.48208 9.90455C9.48208 10.0482 9.54165 10.1863 9.64841 10.2903C9.75517 10.3942 9.90092 10.456 10.0554 10.4627H11.4573C11.323 10.8745 11.046 11.2334 10.6692 11.4836C10.2925 11.7339 9.83721 11.8613 9.37436 11.8461C8.82863 11.8256 8.31299 11.6084 7.93694 11.2404C7.56089 10.8725 7.35405 10.3829 7.36036 9.87563C7.36449 9.53009 7.4678 9.19183 7.65963 8.89575C7.85146 8.59967 8.12486 8.35649 8.45163 8.1913C8.77839 8.02612 9.14669 7.94491 9.51852 7.95606C9.89034 7.9672 10.2522 8.0703 10.5669 8.25471C10.7011 8.32441 10.8591 8.34367 11.0082 8.30854C11.1573 8.27341 11.2862 8.18656 11.3685 8.06583C11.4508 7.94511 11.4802 7.79969 11.4506 7.65947C11.421 7.51925 11.3347 7.39489 11.2095 7.31194C10.4739 6.8822 9.58612 6.73769 8.73703 6.90948C7.47166 7.15563 6.48453 8.08363 6.22483 9.26025C6.12265 9.70689 6.12912 10.1691 6.24377 10.6131C6.35842 11.0571 6.57836 11.4718 6.88753 11.8268C7.1967 12.1818 7.58731 12.4682 8.03084 12.6651C8.47437 12.862 8.95963 12.9644 9.45121 12.9649C10.3248 12.9639 11.1624 12.6411 11.7802 12.0673C12.3979 11.4934 12.7454 10.7154 12.7465 9.90394C12.7471 9.8304 12.732 9.75749 12.7019 9.68945C12.6719 9.6214 12.6276 9.5596 12.5716 9.50763H12.5729Z" fill="#002CB9"/>
<path d="M48.76 18.4702H4.23999V18.7656H48.76V18.4702V18.4702Z" fill="#D8D8D8"/>
<path fill-rule="evenodd" clip-rule="evenodd" d="M16.112 24.48C16.112 24.3951 16.1306 24.3089 16.2035 24.2412C16.3201 24.1341 16.548 24.0529 17.07 23.9384V24.6695C16.813 24.8012 16.6646 24.8529 16.4923 24.8529C16.2591 24.8529 16.1107 24.7101 16.1107 24.4812L16.112 24.48ZM13.2447 22.9907C13.6065 22.9907 13.8966 23.2591 13.8966 23.8314C13.8966 24.5624 13.4726 24.8886 12.9983 24.8886C12.8855 24.8897 12.7733 24.8744 12.6657 24.8431V23.184C12.8684 23.0523 13.0367 22.9907 13.2447 22.9907V22.9907ZM21.5048 22.3557L21.5114 22.3495H20.5945L20.0168 24.2117H19.9863L19.3212 22.3507H18.232L19.5425 25.424L18.9952 26.3606V26.3827H19.8512L21.5048 22.3557V22.3557ZM10.07 25.4129H11.0426V22.3507H10.07V25.4129ZM17.1879 25.4129H18.1592L18.0426 24.6474V23.3674C18.0426 22.6695 17.5987 22.288 16.8183 22.288C16.3214 22.288 15.9756 22.3667 15.3475 22.544L15.5198 23.248C16.0922 23.008 16.3439 22.9046 16.6089 22.9046C16.9282 22.9046 17.07 23.1163 17.07 23.4424V23.4646C15.957 23.6578 15.6125 23.7674 15.3979 23.9667C15.2362 24.1157 15.17 24.3274 15.17 24.5723C15.17 25.1606 15.6602 25.4744 16.124 25.4744C16.4685 25.4744 16.7467 25.3551 17.1204 25.0929L17.1866 25.4129H17.1879ZM13.2328 25.4523C14.0994 25.4523 14.8824 24.8591 14.8824 23.8018C14.8824 22.8541 14.3167 22.288 13.6144 22.288C13.2593 22.288 12.9824 22.4135 12.667 22.6535V22.3507H11.6958V26.384H12.667V25.3846C12.8525 25.4289 13.0235 25.4523 13.2328 25.4523V25.4523ZM5.31593 23.9667L5.89495 22.1107H5.9188L6.46603 23.9667H5.31593ZM3.96973 25.4129H4.86808L5.11453 24.624H6.65815L6.89268 25.4117H8.04145L6.73103 21.3846H5.42723L3.96973 25.4129V25.4129ZM8.43498 25.4129H9.4062V21.2418H8.43498V25.4129Z" fill="#3E3A3A"/>
<path fill-rule="evenodd" clip-rule="evenodd" d="M9.99707 21.6123C9.99707 21.9102 10.2303 22.1096 10.5562 22.1096C10.8822 22.1096 11.1167 21.9102 11.1167 21.6123C11.1167 21.3219 10.8822 21.1163 10.5562 21.1163C10.2303 21.1163 9.99707 21.3219 9.99707 21.6123V21.6123ZM25.4081 21.2419C25.6996 21.2419 25.9381 21.4634 25.9381 21.7342V23.2923H27.6143C27.684 23.2922 27.753 23.3048 27.8175 23.3295C27.882 23.3541 27.9405 23.3904 27.9899 23.4361C28.0392 23.4818 28.0784 23.5361 28.1051 23.596C28.1318 23.6558 28.1456 23.7199 28.1456 23.7846V24.3139H25.9381C25.7356 24.3145 25.5369 24.2625 25.3644 24.1637L25.3339 24.1453C25.2424 24.0895 25.1606 24.021 25.0915 23.9422L25.0689 23.9176C25.0636 23.9126 25.061 23.9053 25.0557 23.9016C24.9876 23.8152 24.934 23.7198 24.8967 23.6185L24.8768 23.5594C24.8523 23.4726 24.8394 23.3833 24.8384 23.2936V21.2419H25.4081V21.2419Z" fill="#1677FF"/>
<path fill-rule="evenodd" clip-rule="evenodd" d="M24.3045 24.3139H23.1637C23.0231 24.3139 22.8883 24.262 22.7889 24.1697C22.6895 24.0774 22.6337 23.9522 22.6337 23.8216V23.2924H24.3032V24.3139H24.3058H24.3045ZM24.8385 25.8696V24.8148H25.9382V26.3631H25.3685C25.2988 26.3631 25.2297 26.3504 25.1653 26.3255C25.1009 26.3007 25.0425 26.2643 24.9932 26.2185C24.944 26.1727 24.905 26.1182 24.8784 26.0584C24.8519 25.9985 24.8383 25.9343 24.8385 25.8696V25.8696Z" fill="#00B6FF"/>
<path fill-rule="evenodd" clip-rule="evenodd" d="M31.1083 23.0351V23.8634H31.686C31.8099 23.8686 31.9316 23.8314 32.0279 23.7588C32.1153 23.6898 32.1577 23.5865 32.1577 23.4474C32.1577 23.3083 32.114 23.2049 32.0279 23.1372C31.9308 23.0663 31.8095 23.0301 31.686 23.0351H31.1083V23.0351ZM31.7046 22.8357C31.804 22.8357 31.8967 22.8505 31.9828 22.88C32.0676 22.9095 32.1418 22.9514 32.2028 23.0031C32.2652 23.0565 32.314 23.1221 32.3459 23.1951C32.379 23.2689 32.3962 23.3551 32.3962 23.4486C32.3976 23.5354 32.3805 23.6215 32.3459 23.7022C32.3142 23.776 32.2653 23.8424 32.2028 23.8966C32.1389 23.9513 32.0636 23.9932 31.9815 24.0197C31.8924 24.0499 31.7981 24.0649 31.7033 24.064H31.107V24.9231H30.8672V22.8357H31.7033H31.7046ZM33.7345 24.256H34.5692L34.1532 23.152L33.7358 24.256H33.7345ZM35.0794 24.9206H34.8236L34.6434 24.4505H33.6629L33.4827 24.9206H33.2283L34.0538 22.8357H34.2552L35.0794 24.9206V24.9206ZM36.5037 23.0351V23.8006H37.1C37.2325 23.8006 37.3411 23.7686 37.4233 23.7071C37.5068 23.6455 37.5478 23.5495 37.5478 23.4203C37.5478 23.2923 37.5068 23.1963 37.4233 23.1323C37.3311 23.066 37.2165 23.0324 37.1 23.0375H36.5011V23.0351H36.5037ZM37.1238 22.8357C37.2206 22.8357 37.3093 22.848 37.3928 22.8751C37.4712 22.8969 37.5433 22.935 37.6036 22.9863C37.6639 23.0377 37.711 23.1011 37.7413 23.1717C37.7745 23.2488 37.7911 23.3311 37.7903 23.4142C37.7969 23.5501 37.7487 23.6835 37.6552 23.7883C37.5631 23.8849 37.4391 23.9503 37.3027 23.9742L37.8354 24.9194H37.5545L37.043 23.9951H36.5037V24.9194H36.2652V22.8357H37.1238V22.8357ZM40.3847 23.0351H39.7354V24.9206H39.4943V23.0351H38.845V22.8357H40.3847V23.0351V23.0351ZM43.2798 24.9206H43.0519L41.8607 23.2492V24.9206H41.6222V22.8357H41.8475L43.04 24.5022V22.8357H43.2785V24.9206H43.2798ZM46.1418 23.0351H44.989V23.7686H45.9709V23.968H44.989V24.7212H46.1418V24.9206H44.7492V22.8357H46.1405V23.0351H46.1418ZM47.7 23.0351V23.8006H48.3002C48.4327 23.8006 48.5387 23.7686 48.6222 23.7071C48.7057 23.6455 48.7467 23.5495 48.7467 23.4203C48.7467 23.2923 48.7043 23.1963 48.6222 23.1323C48.5303 23.0663 48.4162 23.0327 48.3002 23.0375H47.7V23.0351V23.0351ZM48.3227 22.8357C48.4181 22.8357 48.5082 22.848 48.5904 22.8751C48.6688 22.8969 48.7408 22.935 48.8012 22.9863C48.8615 23.0377 48.9086 23.1011 48.9389 23.1717C48.972 23.2488 48.9887 23.3311 48.9879 23.4142C48.9938 23.5501 48.9457 23.6832 48.8527 23.7883C48.7607 23.8849 48.6367 23.9503 48.5003 23.9742L49.0329 24.9194H48.752L48.2419 23.9951H47.7026V24.9194H47.4641V22.8357H48.3214H48.3227Z" fill="#3E3A3A"/>
</svg>
