<svg width="81" height="60" viewBox="0 0 81 60" fill="none" xmlns="http://www.w3.org/2000/svg">
<g clip-path="url(#clip0_535_193994)">
<path fill-rule="evenodd" clip-rule="evenodd" d="M47.7413 16.0196L16.8267 4.76758L22.0092 14.886C23.0217 16.8629 24.7443 18.3836 26.8314 19.1432L51.4368 28.0989L52.286 25.7657L47.7413 16.0196Z" fill="#DAE2ED"/>
<path fill-rule="evenodd" clip-rule="evenodd" d="M54.8464 14.9726L13.7632 0.0195711C13.5003 -0.076211 13.2549 0.197644 13.3788 0.448538L14.9471 3.62552C15.124 3.98384 15.4323 4.26013 15.8078 4.39681L16.8267 4.7677L47.7414 16.0197L52.2861 25.7658L51.4369 28.099L50.7999 29.8488L61.1535 33.6172L62.6396 29.5341L56.5977 16.5774C56.2499 15.8314 55.6199 15.2541 54.8464 14.9726Z" fill="#ECEFF6"/>
<path fill-rule="evenodd" clip-rule="evenodd" d="M52.2857 25.7658L47.7413 16.0194L16.8269 4.76758L17.8661 6.79738L46.6271 17.2656L50.8475 26.3154L50.3429 27.7008L51.4367 28.0992L52.2857 25.7658Z" fill="#C5CEDD"/>
<path fill-rule="evenodd" clip-rule="evenodd" d="M63.8229 24.9468C68.5008 34.8166 64.292 46.6099 54.4222 51.2878C44.5524 55.9658 32.7591 51.7569 28.0812 41.887C23.4033 32.0173 27.6121 20.224 37.4819 15.546C47.3517 10.8681 59.145 15.0769 63.8229 24.9468Z" fill="#4F5D7F"/>
<path fill-rule="evenodd" clip-rule="evenodd" d="M57.5653 27.9119C60.6052 34.3257 57.8702 41.9894 51.4564 45.0294C45.0426 48.0693 37.3787 45.3343 34.3388 38.9204C31.2989 32.5066 34.034 24.8428 40.4478 21.8029C46.8616 18.763 54.5254 21.4981 57.5653 27.9119Z" fill="#7687B2"/>
<path fill-rule="evenodd" clip-rule="evenodd" d="M59.1566 17.786C59.1932 20.813 51.2227 28.1788 46.0086 32.2697C41.2064 32.3054 29.2593 31.8107 26.4612 29.0833C26.0591 28.6913 26.0095 28.3899 26.0072 28.1972C26.0058 28.0855 26.0232 27.9645 26.0589 27.8377C27.7285 21.9053 31.6348 17.2225 37.0584 14.6517C43.8867 11.4155 52.0159 12.3297 58.8034 17.0976C59.0506 17.271 59.1527 17.4705 59.1566 17.786Z" fill="#FF7F14"/>
<path fill-rule="evenodd" clip-rule="evenodd" d="M46.3533 33.2548C46.3533 33.2548 27.329 21.8913 29.2628 19.5224C31.1964 17.1536 33.6663 15.1653 36.635 13.7583C44.3313 10.1105 52.8465 11.7049 59.3718 16.2884C63.9999 19.5392 46.3533 33.2548 46.3533 33.2548Z" fill="#FF903E"/>
<path fill-rule="evenodd" clip-rule="evenodd" d="M55.7786 28.7596C58.3509 34.1866 56.0365 40.6713 50.6094 43.2436C45.1824 45.8159 38.6976 43.5016 36.1254 38.0745C33.5531 32.6474 35.8675 26.1627 41.2945 23.5904C46.7216 21.0182 53.2064 23.3325 55.7786 28.7596Z" fill="#EBEFF7"/>
<path fill-rule="evenodd" clip-rule="evenodd" d="M54.2153 29.4996C56.3783 34.0633 54.4322 39.5164 49.8685 41.6794C45.3048 43.8424 39.8517 41.8963 37.6887 37.3327C35.5257 32.769 37.4718 27.3158 42.0355 25.1528C46.5991 22.9898 52.0523 24.936 54.2153 29.4996Z" fill="#DAE2ED"/>
<path fill-rule="evenodd" clip-rule="evenodd" d="M40.4929 29.5333L45.4632 26.5829C45.7669 26.4026 46.1439 26.3979 46.4519 26.5709L51.4922 29.4001C51.8002 29.573 51.9926 29.8971 51.9969 30.2504L52.0668 36.03C52.0711 36.3833 51.8866 36.7119 51.5828 36.8922L46.6125 39.8426C46.3088 40.023 45.9318 40.0275 45.6238 39.8545L40.5836 37.0254C40.2755 36.8524 40.0831 36.5284 40.0788 36.1751L40.0089 30.3956C40.0046 30.0423 40.1891 29.7136 40.4929 29.5333Z" fill="#C5CEDD"/>
<path fill-rule="evenodd" clip-rule="evenodd" d="M48.8158 32.0596C49.5654 33.6412 48.891 35.5311 47.3094 36.2807C45.7277 37.0302 43.838 36.3558 43.0883 34.7743C42.3387 33.1927 43.0132 31.3028 44.5948 30.5532C46.1763 29.8036 48.0661 30.478 48.8158 32.0596Z" fill="#B7C2CE"/>
<path fill-rule="evenodd" clip-rule="evenodd" d="M70.6405 52.0522H68.9236C68.4824 52.0522 68.1248 52.4099 68.1248 52.8511V56.4463C68.1248 57.4349 67.3158 58.2439 66.3271 58.2439C65.3385 58.2439 64.5295 57.4349 64.5295 56.4463V51.6527V41.0513V41.3351C64.5295 40.2321 65.4238 39.3379 66.5269 39.3379H72.6378C73.7409 39.3379 74.6351 40.2321 74.6351 41.3351V48.0576C74.6351 50.2637 72.8467 52.0522 70.6405 52.0522ZM74.7961 32.959H71.3234C71.3215 34.2266 71.3174 35.4942 71.3107 36.7618H74.7335C74.7056 35.4942 74.7063 34.2135 74.7961 32.959Z" fill="#80A7FF"/>
<path fill-rule="evenodd" clip-rule="evenodd" d="M73.5489 41.2067H58.9618C58.7903 41.2067 58.6514 41.0678 58.6514 40.8963C58.6514 40.725 58.7903 40.586 58.9618 40.586H73.5489C73.7201 40.586 73.8593 40.4468 73.8593 40.2756V37.9413C73.8593 37.7698 73.9982 37.6309 74.1697 37.6309C74.341 37.6309 74.48 37.7698 74.48 37.9413V40.2756C74.48 40.7891 74.0623 41.2067 73.5489 41.2067Z" fill="#E4E9F7"/>
<path fill-rule="evenodd" clip-rule="evenodd" d="M75.2559 39.3444H73.0833C72.9119 39.3444 72.7729 39.2054 72.7729 39.034V32.3612C72.7729 32.1898 72.9119 32.0508 73.0833 32.0508H75.2559C75.4273 32.0508 75.5663 32.1898 75.5663 32.3612V39.034C75.5663 39.2054 75.4273 39.3444 75.2559 39.3444Z" fill="black"/>
<path fill-rule="evenodd" clip-rule="evenodd" d="M74.764 32.959H76.0231C76.1951 32.959 76.3341 33.0988 76.3333 33.2706C76.328 34.3311 76.3246 35.3916 76.3227 36.4521C76.3224 36.6233 76.1837 36.7618 76.0125 36.7618H74.8233C73.8859 36.7618 73.0448 36.1087 72.8897 35.1843C72.6907 33.9973 73.612 32.959 74.764 32.959Z" fill="#80A7FF"/>
<path fill-rule="evenodd" clip-rule="evenodd" d="M68.1176 39.3444H65.9451C65.7737 39.3444 65.6348 39.2054 65.6348 39.034V32.3612C65.6348 32.1898 65.7737 32.0508 65.9451 32.0508H68.1176C68.289 32.0508 68.428 32.1898 68.428 32.3612V39.034C68.428 39.2054 68.289 39.3444 68.1176 39.3444Z" fill="black"/>
<path d="M67.0311 37.9404V40.2749C67.0311 40.6177 66.7533 40.8957 66.4104 40.8957H51.8232" stroke="#2F3849" stroke-width="8"/>
<path fill-rule="evenodd" clip-rule="evenodd" d="M72.9391 34.4224C71.3437 32.2526 68.7742 30.8379 65.8904 30.8379H56.0988H56.0986H54.0872C51.2015 30.8379 48.8403 33.199 48.8403 36.0848V45.7213C48.8403 47.6532 50.4064 49.2193 52.3383 49.2193H55.3965H69.3883C72.2742 49.2193 74.6353 46.8581 74.6353 43.9724V39.5828C74.6353 37.6569 74.0044 35.8714 72.9391 34.4224Z" fill="#9CB8FF"/>
<path fill-rule="evenodd" clip-rule="evenodd" d="M57.6231 30.8379H54.0872C51.2014 30.8379 48.8403 33.199 48.8403 36.0848V44.4799C48.8403 46.4118 50.4063 47.9779 52.3382 47.9779H57.6756C57.5869 42.2693 57.5896 36.5525 57.6231 30.8379ZM46.4008 43.3138L42.7093 44.3905C41.6565 44.6976 40.9042 45.6252 40.821 46.7186C40.6987 48.3272 42.038 49.6666 43.6465 49.5442C44.7401 49.461 45.6676 48.7087 45.9747 47.6559L47.0514 43.9644C47.1673 43.5668 46.7985 43.1978 46.4008 43.3138Z" fill="#80A7FF"/>
<path fill-rule="evenodd" clip-rule="evenodd" d="M54.9671 52.0519H53.2503C52.8091 52.0519 52.4514 52.4097 52.4514 52.8509V56.4461C52.4514 57.4347 51.6424 58.2436 50.6538 58.2436C49.6651 58.2436 48.8562 57.4347 48.8562 56.4461V51.6524V38.2271V38.511C48.8562 37.4079 49.7504 36.5137 50.8535 36.5137H56.9644C58.0675 36.5137 58.9618 37.4079 58.9618 38.511V48.0573C58.9618 50.2635 57.1733 52.0519 54.9671 52.0519Z" fill="#80A7FF"/>
<path fill-rule="evenodd" clip-rule="evenodd" d="M66.4105 41.2067H51.8232C51.6519 41.2067 51.5129 41.0678 51.5129 40.8963C51.5129 40.725 51.6519 40.586 51.8232 40.586H66.4105C66.5816 40.586 66.7208 40.4468 66.7208 40.2756V37.9413C66.7208 37.7698 66.8598 37.6309 67.0312 37.6309C67.2026 37.6309 67.3415 37.7698 67.3415 37.9413V40.2756C67.3415 40.7891 66.9239 41.2067 66.4105 41.2067Z" fill="#E4E9F7"/>
<path fill-rule="evenodd" clip-rule="evenodd" d="M68.1176 39.3444H65.9451C65.7737 39.3444 65.6348 39.2054 65.6348 39.034V32.3612C65.6348 32.1898 65.7737 32.0508 65.9451 32.0508H68.1176C68.289 32.0508 68.428 32.1898 68.428 32.3612V39.034C68.428 39.2054 68.289 39.3444 68.1176 39.3444Z" fill="black"/>
<path fill-rule="evenodd" clip-rule="evenodd" d="M68.2261 32.9589H61.1173C59.9458 32.9589 58.9962 32.0093 58.9962 30.8379H54.5251V40.0932H58.9625C59.3733 37.76 61.4055 36.7617 63.8563 36.7617H68.1668C69.1041 36.7617 69.9453 36.1086 70.1003 35.1842C70.2994 33.9972 69.3781 32.9589 68.2261 32.9589Z" fill="#80A7FF"/>
<path fill-rule="evenodd" clip-rule="evenodd" d="M51.8479 30.9455H68.0952C70.993 30.9455 73.3638 28.5747 73.3638 25.6769V15.9277C73.3638 13.03 70.993 10.6592 68.0952 10.6592H51.8479C48.9502 10.6592 46.5793 13.03 46.5793 15.9277V25.6769C46.5793 28.5747 48.9502 30.9455 51.8479 30.9455Z" fill="#80A7FF"/>
<path fill-rule="evenodd" clip-rule="evenodd" d="M55.2701 30.9455H71.5173C74.4151 30.9455 76.7859 28.5747 76.7859 25.6769V15.9277C76.7859 13.03 74.4151 10.6592 71.5174 10.6592H55.2701C52.3724 10.6592 50.0015 13.03 50.0015 15.9277V25.6769C50.0015 28.5747 52.3724 30.9455 55.2701 30.9455Z" fill="#9CB8FF"/>
<path fill-rule="evenodd" clip-rule="evenodd" d="M48.1606 24.4766H52.038V14.9932H48.1606C46.2208 14.9932 44.6482 16.5657 44.6482 18.5056V20.9642C44.6482 22.904 46.2208 24.4766 48.1606 24.4766Z" fill="#9CB8FF"/>
<path fill-rule="evenodd" clip-rule="evenodd" d="M52.0378 22.3688V17.1002C52.0378 16.9062 51.8806 16.749 51.6866 16.749H48.1606C47.1907 16.749 46.4043 17.5353 46.4043 18.5052V20.9639C46.4043 21.9338 47.1907 22.72 48.1606 22.72H51.6866C51.8806 22.72 52.0378 22.5628 52.0378 22.3688Z" fill="#80A7FF"/>
<path fill-rule="evenodd" clip-rule="evenodd" d="M58.1478 21.3986C59.1014 21.3986 59.8818 20.6183 59.8818 19.6646C59.8818 18.711 59.1014 17.9307 58.1478 17.9307C57.1941 17.9307 56.4138 18.711 56.4138 19.6646C56.4138 20.6183 57.1941 21.3986 58.1478 21.3986Z" fill="black"/>
<path fill-rule="evenodd" clip-rule="evenodd" d="M76.9305 15.9277H74.823H67.4471H64.9883C63.8293 15.9277 62.8809 16.8761 62.8809 18.0351V20.4939C62.8809 23.3915 65.2518 25.7624 68.1495 25.7624H70.6082H71.6619H73.7693C76.667 25.7624 79.038 23.3915 79.038 20.4939V18.0351C79.038 16.8761 78.0896 15.9277 76.9305 15.9277Z" fill="#B8D0FF"/>
<path fill-rule="evenodd" clip-rule="evenodd" d="M70.608 25.7624H73.7691C76.6669 25.7624 79.0377 23.3915 79.0377 20.4938V18.0351C79.0377 16.8761 78.0894 15.9277 76.9303 15.9277H67.4468C66.2877 15.9277 65.3394 16.8761 65.3394 18.0352V20.4938C65.3394 23.3915 67.7102 25.7624 70.608 25.7624Z" fill="#CBDAF7"/>
<path fill-rule="evenodd" clip-rule="evenodd" d="M72.0256 21.7881H71.1475H70.6207H69.7425C69.2596 21.7881 68.8645 22.1832 68.8645 22.6662C68.8645 23.1492 69.2596 23.5443 69.7425 23.5443H70.6207H71.1475H72.0256C72.5086 23.5443 72.9038 23.1492 72.9038 22.6662C72.9038 22.1832 72.5086 21.7881 72.0256 21.7881ZM76.1527 21.7881H75.6259H75.8015H75.2746C74.7916 21.7881 74.3965 22.1832 74.3965 22.6662C74.3965 23.1492 74.7916 23.5443 75.2746 23.5443H75.8015H75.6259H76.1527C76.6356 23.5443 77.0308 23.1492 77.0308 22.6662C77.0308 22.1832 76.6356 21.7881 76.1527 21.7881Z" fill="#9CB8FF"/>
<path fill-rule="evenodd" clip-rule="evenodd" d="M71.0619 27.8503H72.4671C72.7897 27.8503 73.0514 27.5888 73.0514 27.266C73.0514 26.9432 72.7897 26.6816 72.4671 26.6816H71.0619C70.7392 26.6816 70.4775 26.9432 70.4775 27.266C70.4775 27.5888 70.7392 27.8503 71.0619 27.8503Z" fill="#80A7FF"/>
<path fill-rule="evenodd" clip-rule="evenodd" d="M77.8661 12.7851C77.8661 12.7851 82.9264 20.3344 77.486 29.0449L74.3966 30.8378L54.5252 29.9816L49.6943 23.5443L54.5252 10.6504L71.5172 10.6597L77.8661 12.7851Z" fill="#4871E5" fill-opacity="0.4"/>
<path fill-rule="evenodd" clip-rule="evenodd" d="M62.0162 5.67285C50.4404 5.67285 44.0459 13.4756 44.0459 19.9525C44.0459 26.4294 51.6356 26.9847 53.4166 22.433L57.1698 12.5181L73.7043 14.6599L77.8663 12.7848C76.3134 10.2589 70.6026 5.67285 62.0162 5.67285Z" fill="#EBEFF7"/>
<path fill-rule="evenodd" clip-rule="evenodd" d="M52.1742 23.5439L62.6394 29.0447H77.4858L76.0374 31.4495H51.8478L49.7544 26.6747L52.1742 23.5439Z" fill="#EBEFF7"/>
<path fill-rule="evenodd" clip-rule="evenodd" d="M49.7547 15.9656L46.6481 16.9498L45.2834 11.4543C45.1214 10.8023 45.4941 10.1366 46.1345 9.93373C46.7749 9.73086 47.4628 10.0605 47.7059 10.6868L49.7547 15.9656Z" fill="#DAE2ED"/>
<path fill-rule="evenodd" clip-rule="evenodd" d="M45.7683 13.4074L46.6481 16.9502L49.7547 15.966L48.4338 12.5625C47.5458 12.8456 46.6578 13.129 45.7683 13.4074Z" fill="#B7C2CE"/>
<path fill-rule="evenodd" clip-rule="evenodd" d="M51.5928 41.9751L39.5016 44.7483L38.4492 40.1613L50.5398 37.3887L51.5928 41.9751Z" fill="#B7C2CE"/>
<path fill-rule="evenodd" clip-rule="evenodd" d="M41.529 45.5494L26.3375 50.7457C26.0483 50.8446 25.7288 50.7973 25.4838 50.6147C24.8427 50.137 23.6668 48.9169 23.025 46.12C22.3831 43.3228 22.9097 41.7121 23.2784 41.0029C23.4192 40.7319 23.6859 40.5499 23.989 40.5127L39.9239 38.5564C40.2396 38.5176 40.5335 38.7237 40.6046 39.0338L41.9331 44.8232C42.0041 45.1331 41.8298 45.4465 41.529 45.5494Z" fill="#C5CEDD"/>
<path fill-rule="evenodd" clip-rule="evenodd" d="M37.3257 41.2174C37.4173 41.6166 37.1679 42.0144 36.7687 42.1061C36.3697 42.1976 35.9718 41.9483 35.8802 41.5491C35.7886 41.15 36.0379 40.7522 36.4371 40.6605C36.8363 40.569 37.2341 40.8183 37.3257 41.2174ZM33.8211 41.7078C33.9127 42.107 33.6634 42.5048 33.2642 42.5964C32.8651 42.688 32.4672 42.4386 32.3756 42.0395C32.284 41.6404 32.5334 41.2425 32.9326 41.1509C33.3317 41.0594 33.7295 41.3087 33.8211 41.7078Z" fill="#B7C2CE"/>
<path fill-rule="evenodd" clip-rule="evenodd" d="M51.4284 41.1852L41.6862 48.7326L38.8032 45.0132L48.5454 37.4658L51.4284 41.1852Z" fill="#D0D9EA"/>
<path fill-rule="evenodd" clip-rule="evenodd" d="M43.8625 48.6083L32.2611 59.7074C32.0402 59.9186 31.7304 60.01 31.4313 59.9472C30.6489 59.7831 29.0692 59.1701 27.3115 56.902C25.5535 54.6334 25.3545 52.9504 25.391 52.1521C25.4049 51.847 25.5704 51.5698 25.8298 51.4086L39.4674 42.9372C39.7376 42.7694 40.0909 42.833 40.2856 43.0843L43.9241 47.7795C44.1188 48.0308 44.0922 48.3885 43.8625 48.6083Z" fill="#EBEFF7"/>
<path fill-rule="evenodd" clip-rule="evenodd" d="M38.2278 46.4436C38.4786 46.7673 38.4196 47.2331 38.0959 47.4839C37.7722 47.7347 37.3064 47.6757 37.0555 47.352C36.8047 47.0283 36.8638 46.5625 37.1875 46.3116C37.5112 46.0608 37.9769 46.1199 38.2278 46.4436ZM35.4302 48.7453C35.6811 49.0691 35.622 49.5348 35.2983 49.7856C34.9746 50.0364 34.5088 49.9774 34.258 49.6537C34.0071 49.33 34.0662 48.8643 34.3899 48.6135C34.7136 48.3626 35.1794 48.4216 35.4302 48.7453Z" fill="#B7C2CE"/>
<path fill-rule="evenodd" clip-rule="evenodd" d="M54.3957 21.8462C53.9556 25.4194 51.1594 28.0157 48.1504 27.645C45.1413 27.2744 43.0588 24.0773 43.4989 20.5039C43.939 16.9308 46.7351 14.3345 49.7442 14.7051C52.7532 15.0757 54.8358 18.2729 54.3957 21.8462Z" fill="#DAE2ED"/>
<path fill-rule="evenodd" clip-rule="evenodd" d="M52.1323 21.6526C51.8195 24.1914 49.8329 26.0362 47.6949 25.7728C45.5568 25.5094 44.0771 23.2378 44.3899 20.699C44.7026 18.1601 46.6893 16.3154 48.8273 16.5787C50.9653 16.842 52.4449 19.1137 52.1323 21.6526Z" fill="#B7C2CE"/>
<path fill-rule="evenodd" clip-rule="evenodd" d="M50.8991 21.5168C50.6752 23.3351 49.2523 24.6561 47.7212 24.4676C46.1901 24.2789 45.1303 22.6521 45.3543 20.834C45.5783 19.0157 47.001 17.6946 48.5322 17.8832C50.0633 18.0718 51.123 19.6987 50.8991 21.5168Z" fill="#FF903E"/>
<path fill-rule="evenodd" clip-rule="evenodd" d="M47.5054 22.8362L47.1491 22.6906C47.0506 22.6505 47.0034 22.5381 47.0437 22.4397L48.2814 19.4108C48.3215 19.3123 48.434 19.2652 48.5323 19.3054L48.8887 19.451C48.987 19.4912 49.0342 19.6035 48.994 19.702L47.7564 22.7309C47.7161 22.8293 47.6038 22.8765 47.5054 22.8362Z" fill="#FF7F14"/>
<path fill-rule="evenodd" clip-rule="evenodd" d="M51.6253 44.1871H47.6147V30.8379H53.1772V42.6352C53.1772 43.4923 52.4824 44.1871 51.6253 44.1871Z" fill="black"/>
<path fill-rule="evenodd" clip-rule="evenodd" d="M34.3956 16.0196L3.48096 4.76758L8.6635 14.886C9.67604 16.8629 11.3986 18.3836 13.4857 19.1432L38.0911 28.0989L38.9403 25.7657L34.3956 16.0196Z" fill="#DAE2ED"/>
<path fill-rule="evenodd" clip-rule="evenodd" d="M41.5007 14.9726L0.417527 0.0195711C0.154566 -0.076211 -0.0907972 0.197644 0.0330576 0.448538L1.60135 3.62552C1.77825 3.98384 2.08655 4.26013 2.46205 4.39681L3.48105 4.7677L34.3957 16.0197L38.9404 25.7658L38.0912 28.099L37.4543 29.8488L47.8078 33.6172L49.2939 29.5341L43.252 16.5774C42.9042 15.8314 42.2741 15.2541 41.5007 14.9726Z" fill="#ECEFF6"/>
<path fill-rule="evenodd" clip-rule="evenodd" d="M38.9406 25.7658L34.3956 16.0194L3.4812 4.76758L4.521 6.79738L33.2814 17.2656L37.5018 26.3154L36.9978 27.7008L38.091 28.0992L38.9406 25.7658Z" fill="#C5CEDD"/>
<path fill-rule="evenodd" clip-rule="evenodd" d="M3.26931 3.53491C2.94853 3.41809 2.7816 3.0601 2.89833 2.73932C3.01506 2.41846 3.37314 2.25153 3.69392 2.36834C4.01478 2.48508 4.18171 2.84307 4.0649 3.16393C3.94816 3.48471 3.59018 3.65164 3.26931 3.53491ZM5.74833 4.43718C5.42747 4.32036 5.26054 3.96238 5.37735 3.64159C5.49409 3.32073 5.85207 3.1538 6.17294 3.27062C6.49372 3.38735 6.66073 3.74542 6.54392 4.0662C6.42719 4.38698 6.06911 4.554 5.74833 4.43718ZM41.0377 17.2814C40.7169 17.1646 40.5499 16.8066 40.6668 16.4859C40.7835 16.1651 41.1416 15.9982 41.4623 16.1149C41.7832 16.2316 41.9501 16.5897 41.8333 16.9105C41.7166 17.2313 41.3586 17.3983 41.0377 17.2814Z" fill="#DAE2ED"/>
<path fill-rule="evenodd" clip-rule="evenodd" d="M50.874 33.7071H44.4466C43.9005 33.7071 43.4578 33.2644 43.4578 32.7183V29.2574C43.4578 28.7113 43.9005 28.2686 44.4466 28.2686H50.874C51.4201 28.2686 51.8628 28.7113 51.8628 29.2574V32.7183C51.8628 33.2644 51.4201 33.7071 50.874 33.7071Z" fill="#FF5C5C"/>
<path fill-rule="evenodd" clip-rule="evenodd" d="M53.2119 35.4375H48.1561C46.7847 35.4375 45.6731 34.3259 45.6731 32.9547V29.021C45.6731 27.6498 46.7847 26.5381 48.1561 26.5381H53.2119C53.7262 26.5381 54.143 26.955 54.143 27.4692V34.5064C54.143 35.0206 53.7262 35.4375 53.2119 35.4375Z" fill="#D0D9EA"/>
<path fill-rule="evenodd" clip-rule="evenodd" d="M67.5335 4.72266L67.2551 6.60813C68.7518 7.80981 70.1427 9.24771 71.3345 10.9777L73.0399 7.0459C71.6585 6.05632 69.7707 5.46696 67.5335 4.72266Z" fill="#FF7F14"/>
<path fill-rule="evenodd" clip-rule="evenodd" d="M71.3347 10.9777L73.0399 7.0459L74.5207 10.9777H71.3347Z" fill="#FF903E"/>
</g>
<defs>
<clipPath id="clip0_535_193994">
<rect width="80.4" height="60" fill="white" transform="matrix(-1 0 0 1 80.3999 0)"/>
</clipPath>
</defs>
</svg>
