<svg width="48" height="45" viewBox="0 0 48 45" fill="none" xmlns="http://www.w3.org/2000/svg">
<path d="M40.1518 40.2959L40.9694 38.66C41.002 38.5722 41.0087 38.4768 40.9887 38.3852C40.9687 38.2937 40.9228 38.2097 40.8565 38.1435C40.7903 38.0772 40.7063 38.0313 40.6148 38.0113C40.5232 37.9913 40.4278 37.998 40.34 38.0306L38.7041 38.8482C38.5824 38.8942 38.4482 38.8941 38.3265 38.8481L36.6587 38.0611C36.5751 38.0188 36.4802 38.004 36.3877 38.0188C36.2952 38.0336 36.2097 38.0772 36.1435 38.1435C36.0772 38.2097 36.0336 38.2952 36.0188 38.3877C36.004 38.4802 36.0188 38.5751 36.0611 38.6587L36.8481 40.3265C36.8941 40.4482 36.8942 40.5824 36.8482 40.7041L36.0306 42.34C35.998 42.4278 35.9913 42.5232 36.0113 42.6148C36.0313 42.7063 36.0772 42.7903 36.1435 42.8565C36.2097 42.9228 36.2937 42.9687 36.3852 42.9887C36.4768 43.0087 36.5722 43.002 36.66 42.9694L38.2959 42.1518C38.354 42.1208 38.4188 42.1045 38.4847 42.1045C38.5506 42.1046 38.6154 42.1208 38.6735 42.1519L40.3413 42.9389C40.4249 42.9812 40.5198 42.996 40.6123 42.9812C40.7048 42.9664 40.7903 42.9228 40.8565 42.8565C40.9228 42.7903 40.9664 42.7048 40.9812 42.6123C40.996 42.5198 40.9812 42.4249 40.9389 42.3413L40.1519 40.6735C40.1208 40.6154 40.1046 40.5506 40.1045 40.4847C40.1045 40.4188 40.1208 40.354 40.1518 40.2959Z" fill="#FFE65C"/>
<path d="M34.1518 8.29592L34.9694 6.66004C35.002 6.57219 35.0087 6.47681 34.9887 6.38523C34.9687 6.29366 34.9228 6.20974 34.8565 6.14345C34.7903 6.07716 34.7063 6.03129 34.6148 6.01128C34.5232 5.99127 34.4278 5.99798 34.34 6.03059L32.7041 6.84821C32.5824 6.89416 32.4482 6.89413 32.3265 6.84811L30.6587 6.06108C30.5751 6.0188 30.4802 6.004 30.3877 6.01879C30.2952 6.03358 30.2097 6.07721 30.1435 6.14346C30.0772 6.2097 30.0336 6.29518 30.0188 6.3877C30.004 6.48023 30.0188 6.57508 30.0611 6.65873L30.8481 8.32651C30.8941 8.44818 30.8942 8.58243 30.8482 8.70408L30.0306 10.34C29.998 10.4278 29.9913 10.5232 30.0113 10.6148C30.0313 10.7063 30.0772 10.7903 30.1435 10.8565C30.2097 10.9228 30.2937 10.9687 30.3852 10.9887C30.4768 11.0087 30.5722 11.002 30.66 10.9694L32.2959 10.1518C32.354 10.1208 32.4188 10.1045 32.4847 10.1045C32.5506 10.1046 32.6154 10.1208 32.6735 10.1519L34.3413 10.9389C34.4249 10.9812 34.5198 10.996 34.6123 10.9812C34.7048 10.9664 34.7903 10.9228 34.8565 10.8565C34.9228 10.7903 34.9664 10.7048 34.9812 10.6123C34.996 10.5198 34.9812 10.4249 34.9389 10.3413L34.1519 8.67349C34.1208 8.6154 34.1046 8.55055 34.1045 8.4847C34.1045 8.41884 34.1208 8.354 34.1518 8.29592Z" fill="#A2F3C6"/>
<path d="M12.9543 7.41198C12.2305 6.93749 11.6146 6.31606 11.1466 5.58803C10.6786 4.86001 10.3689 4.04168 10.2378 3.1862L9.80177 0.234858C9.7863 0.166893 9.74779 0.106375 9.69277 0.0635814C9.63775 0.0207875 9.56962 -0.00164403 9.49994 9.39035e-05C9.43423 -0.000421253 9.37061 0.0231973 9.32116 0.0664702C9.2717 0.109743 9.23986 0.16966 9.23164 0.234858L8.7621 3.1862C8.64357 4.04566 8.33912 4.86895 7.86996 5.59875C7.40081 6.32855 6.77822 6.94732 6.04554 7.41198L5.67661 7.64674C5.6328 7.67589 5.59738 7.71598 5.57385 7.76305C5.55032 7.81011 5.53951 7.86251 5.54247 7.91504C5.53951 7.96758 5.55032 8.01998 5.57385 8.06704C5.59738 8.11411 5.6328 8.1542 5.67661 8.18335L6.04554 8.41811C6.77822 8.88277 7.40081 9.50154 7.86996 10.2313C8.33912 10.9611 8.64357 11.7844 8.7621 12.6439L9.23164 15.5617C9.23164 15.6329 9.25991 15.7011 9.31023 15.7514C9.36054 15.8017 9.42878 15.83 9.49994 15.83C9.57451 15.8305 9.64662 15.8033 9.70235 15.7538C9.75808 15.7042 9.79349 15.6358 9.80177 15.5617L10.2378 12.6439C10.3689 11.7884 10.6786 10.9701 11.1466 10.2421C11.6146 9.51403 12.2305 8.8926 12.9543 8.41811L13.3568 8.18335C13.4344 8.11454 13.4825 8.01842 13.4909 7.91504C13.4825 7.81166 13.4344 7.71554 13.3568 7.64674L12.9543 7.41198Z" fill="#FFBADB"/>
<path d="M5.94385 43.9375C5.85159 43.879 5.77308 43.8013 5.71374 43.7096C5.6544 43.6178 5.61563 43.5144 5.6001 43.4063L5.54385 43.0313C5.54236 43.0224 5.53776 43.0144 5.53088 43.0087C5.52401 43.003 5.5153 42.9999 5.50635 43C5.4974 42.9999 5.4887 43.003 5.48182 43.0087C5.47494 43.0144 5.47034 43.0224 5.46885 43.0313L5.4126 43.4063C5.39707 43.5144 5.3583 43.6178 5.29896 43.7096C5.23962 43.8013 5.16112 43.879 5.06885 43.9375L5.01885 43.9688C5.01285 43.9713 5.00781 43.9758 5.00445 43.9814C5.00109 43.987 4.99957 43.9935 5.00011 44C4.99957 44.0065 5.00109 44.013 5.00445 44.0186C5.00781 44.0242 5.01285 44.0287 5.01885 44.0312L5.06885 44.0625C5.16112 44.121 5.23962 44.1987 5.29896 44.2904C5.3583 44.3822 5.39707 44.4856 5.4126 44.5937L5.46885 44.9687C5.47034 44.9776 5.47494 44.9856 5.48182 44.9913C5.4887 44.997 5.4974 45.0001 5.50635 45C5.5153 45.0001 5.52401 44.997 5.53088 44.9913C5.53776 44.9856 5.54236 44.9776 5.54385 44.9687L5.6001 44.5937C5.61563 44.4856 5.6544 44.3822 5.71374 44.2904C5.77308 44.1987 5.85159 44.121 5.94385 44.0625L5.9876 44.0312C5.9936 44.0287 5.99864 44.0242 6.002 44.0186C6.00537 44.013 6.00689 44.0065 6.00635 44C6.00689 43.9935 6.00537 43.987 6.002 43.9814C5.99864 43.9758 5.9936 43.9713 5.9876 43.9688L5.94385 43.9375Z" fill="#FFE65C"/>
<path d="M11.6607 36.9184L11.9878 36.264C12.0008 36.2289 12.0035 36.1907 11.9955 36.1541C11.9875 36.1175 11.9691 36.0839 11.9426 36.0574C11.9161 36.0309 11.8825 36.0125 11.8459 36.0045C11.8093 35.9965 11.7711 35.9992 11.736 36.0122L11.0816 36.3393C11.033 36.3577 10.9793 36.3577 10.9306 36.3392L10.2635 36.0244C10.23 36.0075 10.1921 36.0016 10.1551 36.0075C10.1181 36.0134 10.0839 36.0309 10.0574 36.0574C10.0309 36.0839 10.0134 36.1181 10.0075 36.1551C10.0016 36.1921 10.0075 36.23 10.0244 36.2635L10.3392 36.9306C10.3577 36.9793 10.3577 37.033 10.3393 37.0816L10.0122 37.736C9.99919 37.7711 9.99651 37.8093 10.0045 37.8459C10.0125 37.8825 10.0309 37.9161 10.0574 37.9426C10.0839 37.9691 10.1175 37.9875 10.1541 37.9955C10.1907 38.0035 10.2289 38.0008 10.264 37.9878L10.9184 37.6607C10.9416 37.6483 10.9675 37.6418 10.9939 37.6418C11.0202 37.6418 11.0462 37.6483 11.0694 37.6608L11.7365 37.9756C11.77 37.9925 11.8079 37.9984 11.8449 37.9925C11.8819 37.9866 11.9161 37.9691 11.9426 37.9426C11.9691 37.9161 11.9866 37.8819 11.9925 37.8449C11.9984 37.8079 11.9925 37.77 11.9756 37.7365L11.6608 37.0694C11.6483 37.0462 11.6418 37.0202 11.6418 36.9939C11.6418 36.9675 11.6483 36.9416 11.6607 36.9184Z" fill="#66BBFF"/>
</svg>
