<svg width="27" height="36" viewBox="0 0 27 36" fill="none" xmlns="http://www.w3.org/2000/svg">
<path d="M13.9999 35.6196C13.9053 35.6621 13.8009 35.6763 13.7011 35.6604C13.6013 35.6444 13.511 35.599 13.4426 35.5304C11.225 33.0618 11.9851 29.8347 12.6303 27.2589C12.8185 26.5108 12.9554 25.7546 13.04 24.9952C13.2211 22.5237 11.1397 20.4267 10.1319 19.4021C10.07 19.3656 10.0185 19.3157 9.98109 19.2562C9.94371 19.1966 9.92146 19.129 9.91602 19.0583C9.91059 18.9876 9.92211 18.9157 9.94971 18.8479C9.97731 18.7802 10.0203 18.7184 10.0754 18.6672C10.1305 18.616 10.1964 18.5767 10.268 18.5523C10.3396 18.5278 10.4152 18.5188 10.489 18.526C10.5628 18.5332 10.6329 18.5564 10.6942 18.5938C10.7554 18.6312 10.8061 18.6818 10.8425 18.742V18.742C11.8503 19.7666 14.207 22.1681 13.9918 25.0136C13.8969 25.8235 13.7406 26.6292 13.5243 27.4244C12.9561 29.8041 12.2575 32.8029 14.1688 34.9024C14.2524 34.9939 14.2925 35.1155 14.2804 35.2405C14.2683 35.3655 14.205 35.4837 14.1042 35.5693L13.9999 35.6196Z" fill="#C5CEDD"/>
<path d="M21.2335 12.2201C21.4001 17.4115 16.4753 24.6951 12.8244 24.7817C9.17339 24.8683 3.7654 17.8897 3.67712 12.72C3.58885 7.55028 7.32659 3.18584 12.1612 3.08923C16.9958 2.99262 21.1169 7.00042 21.2335 12.2201Z" fill="#FFC619"/>
<path d="M10.7236 25.9719C10.6986 24.995 11.8872 23.5947 12.7858 23.548C13.6844 23.5013 14.913 24.8534 14.988 25.802C15.063 26.7506 10.7202 26.8989 10.7236 25.9719Z" fill="#FFC619"/>
<path d="M7.73007 7.9788C6.35467 9.74925 6.61138 11.7181 7.4666 11.8282C8.32183 11.9382 9.0037 10.6929 10.4558 9.40756C11.9079 8.12224 13.0148 7.62713 12.6981 6.48515C12.3814 5.34318 9.70064 5.27645 7.73007 7.9788Z" fill="#FFF2A6"/>
</svg>
