<svg xmlns="http://www.w3.org/2000/svg" viewBox="0 0 624 624">
  <title>Avatar-Frame-HotDog</title>
  <g id="Layer_8" data-name="Layer 8">
    <path d="M111.1,141.6a145,145,0,0,1-16.6,44.8A141,141,0,0,1,64,223.2" style="fill: none;stroke: #e6ad63;stroke-linecap: round;stroke-miterlimit: 10;stroke-width: 45.54108358973603px"/>
    <path d="M139.7,126.4a176.8,176.8,0,0,1-23.1,72.8,175.9,175.9,0,0,1-51.5,56.4" style="fill: none;stroke: #bd262f;stroke-linecap: round;stroke-miterlimit: 10;stroke-width: 52.04695267398403px"/>
    <path d="M49.9,270.7a14.8,14.8,0,0,1-2.8-5.6,18,18,0,0,1-.4-6.1,20.5,20.5,0,0,1,1.5-5.9,17,17,0,0,1,3.5-5.2,2.4,2.4,0,0,1,3.3.2,2.3,2.3,0,0,1,.1,2.9l-.2.2a12.4,12.4,0,0,0-2,3.8,18.8,18.8,0,0,0-.7,9,12.3,12.3,0,0,0,1.4,4.2h.1a2.4,2.4,0,0,1-1,3.1A2.2,2.2,0,0,1,49.9,270.7Z" style="fill: #8c2027"/>
    <path d="M45.3,253.5a11.9,11.9,0,0,0,6.8,5.1,20,20,0,0,0,9.1.3h0a2.6,2.6,0,0,1,3.1,2,2.6,2.6,0,0,1-2,3.1h-.1a24.2,24.2,0,0,1-11.6-.9,19.1,19.1,0,0,1-5.2-2.9,13.1,13.1,0,0,1-3.9-4.8,2.1,2.1,0,0,1,3.8-2Z" style="fill: #8c2027"/>
    <path d="M60.4,224.9c22.8-15.8,36.7,8.6,44.7-2.4s-15.5-24.9-8.8-39.4,30.8-5.1,37.7-14c14.2-18.2-22.7-27-21.8-39" style="fill: none;stroke: #fed21a;stroke-linecap: round;stroke-linejoin: round;stroke-width: 8px"/>
    <path d="M162.6,154.6a177,177,0,0,1-21.2,58.9A175.8,175.8,0,0,1,101,261.3" style="fill: none;stroke: #e6ad63;stroke-linecap: round;stroke-miterlimit: 10;stroke-width: 45.54108358973603px"/>
    <path d="M512.9,482.4a145,145,0,0,1,16.6-44.8A141,141,0,0,1,560,400.8" style="fill: none;stroke: #e6ad63;stroke-linecap: round;stroke-miterlimit: 10;stroke-width: 45.54108358973603px"/>
    <path d="M484.3,497.6a177.9,177.9,0,0,1,74.6-129.2" style="fill: none;stroke: #bd262f;stroke-linecap: round;stroke-miterlimit: 10;stroke-width: 52.04695267398403px"/>
    <path d="M574.1,353.3a14.8,14.8,0,0,1,2.8,5.6,18,18,0,0,1,.4,6.1,20.5,20.5,0,0,1-1.5,5.9,17,17,0,0,1-3.5,5.2,2.4,2.4,0,0,1-3.3-.2,2.3,2.3,0,0,1-.1-2.9l.2-.2a12.4,12.4,0,0,0,2-3.8,18.8,18.8,0,0,0,.7-9,12.3,12.3,0,0,0-1.4-4.2h-.1a2.4,2.4,0,0,1,1-3.1A2.2,2.2,0,0,1,574.1,353.3Z" style="fill: #8c2027"/>
    <path d="M578.7,370.5a11.9,11.9,0,0,0-6.8-5.1,20,20,0,0,0-9.1-.3h0a2.6,2.6,0,0,1-3.1-2,2.6,2.6,0,0,1,2-3.1h.1a24.2,24.2,0,0,1,11.6.9,19.1,19.1,0,0,1,5.2,2.9,13.1,13.1,0,0,1,3.9,4.8,2.1,2.1,0,0,1-3.8,2Z" style="fill: #8c2027"/>
    <path d="M563.6,399.1c-22.8,15.8-36.7-8.6-44.7,2.4s15.5,24.9,8.8,39.4c-7.5,16-30.8,5.1-37.7,14-14.2,18.2,22.7,27,21.8,39" style="fill: none;stroke: #fed21a;stroke-linecap: round;stroke-linejoin: round;stroke-width: 8px"/>
    <path d="M461.4,469.4A176.7,176.7,0,0,1,523,362.7" style="fill: none;stroke: #e6ad63;stroke-linecap: round;stroke-miterlimit: 10;stroke-width: 45.54108358973603px"/>
    <path d="M64,400.8a141,141,0,0,1,30.5,36.8,145,145,0,0,1,16.6,44.8" style="fill: none;stroke: #e6ad63;stroke-linecap: round;stroke-miterlimit: 10;stroke-width: 45.54108358973603px"/>
    <path d="M65.1,368.5a174.5,174.5,0,0,1,51.5,56.3,175.4,175.4,0,0,1,23.1,72.8" style="fill: none;stroke: #bd262f;stroke-linecap: round;stroke-miterlimit: 10;stroke-width: 52.04695267398403px"/>
    <path d="M145.2,518.4a14.4,14.4,0,0,1-6.2-.5,15.7,15.7,0,0,1-5.5-2.7,17.6,17.6,0,0,1-4.4-4.2,14.4,14.4,0,0,1-2.7-5.7,2.3,2.3,0,0,1,1.7-2.7,2.4,2.4,0,0,1,2.6,1.4v.2a14.9,14.9,0,0,0,2.3,3.7,16.3,16.3,0,0,0,3.4,3,17.1,17.1,0,0,0,4,2.1,16.4,16.4,0,0,0,4.4.9h.1a2.2,2.2,0,0,1,2.1,2.4A2.2,2.2,0,0,1,145.2,518.4Z" style="fill: #8c2027"/>
    <path d="M128,513.7a11.1,11.1,0,0,0,7.8-3.4,17.7,17.7,0,0,0,4.8-7.7h0a2.6,2.6,0,0,1,5,1.6h-.1a22.5,22.5,0,0,1-6.5,9.6,17.1,17.1,0,0,1-5.2,3.1,12.7,12.7,0,0,1-6.1,1,2.1,2.1,0,0,1-2-2.3,2.1,2.1,0,0,1,2.2-2Z" style="fill: #8c2027"/>
    <path d="M110.8,486.3c-2.3-27.6,25.8-27.4,20.2-39.8s-29.3.9-38.5-12.1,11-29.3,6.8-39.7c-8.7-21.4-34.8,6.2-44.8-.6" style="fill: none;stroke: #fed21a;stroke-linecap: round;stroke-linejoin: round;stroke-width: 8px"/>
    <path d="M101,362.7a175.8,175.8,0,0,1,40.4,47.8,177,177,0,0,1,21.2,58.9" style="fill: none;stroke: #e6ad63;stroke-linecap: round;stroke-miterlimit: 10;stroke-width: 45.54108358973603px"/>
    <path d="M560,223.2a141,141,0,0,1-30.5-36.8,145,145,0,0,1-16.6-44.8" style="fill: none;stroke: #e6ad63;stroke-linecap: round;stroke-miterlimit: 10;stroke-width: 45.54108358973603px"/>
    <path d="M558.9,255.5a174.5,174.5,0,0,1-51.5-56.3,175.4,175.4,0,0,1-23.1-72.8" style="fill: none;stroke: #bd262f;stroke-linecap: round;stroke-miterlimit: 10;stroke-width: 52.04695267398403px"/>
    <path d="M478.8,105.6a14.4,14.4,0,0,1,6.2.5,15.7,15.7,0,0,1,5.5,2.7,17.6,17.6,0,0,1,4.4,4.2,14.4,14.4,0,0,1,2.7,5.7,2.3,2.3,0,0,1-1.7,2.7,2.4,2.4,0,0,1-2.6-1.4v-.2a14.9,14.9,0,0,0-2.3-3.7,16.3,16.3,0,0,0-3.4-3,17.1,17.1,0,0,0-4-2.1,16.4,16.4,0,0,0-4.4-.9H479a2.2,2.2,0,0,1-2.1-2.4A2.2,2.2,0,0,1,478.8,105.6Z" style="fill: #8c2027"/>
    <path d="M496,110.3a11.1,11.1,0,0,0-7.8,3.4,17.7,17.7,0,0,0-4.8,7.7h0a2.6,2.6,0,1,1-5-1.6h.1a22.5,22.5,0,0,1,6.5-9.6,17.1,17.1,0,0,1,5.2-3.1,12.7,12.7,0,0,1,6.1-1,2.1,2.1,0,0,1,2,2.3,2.1,2.1,0,0,1-2.2,2Z" style="fill: #8c2027"/>
    <path d="M513.2,137.7c2.3,27.6-25.8,27.4-20.2,39.8s29.3-.9,38.5,12.1c10.1,14.5-11,29.3-6.8,39.7,8.7,21.4,34.8-6.2,44.8.6" style="fill: none;stroke: #fed21a;stroke-linecap: round;stroke-linejoin: round;stroke-width: 8px"/>
    <path d="M523,261.3a176.7,176.7,0,0,1-61.6-106.7" style="fill: none;stroke: #e6ad63;stroke-linecap: round;stroke-miterlimit: 10;stroke-width: 45.54108358973603px"/>
    <path d="M264.9,571.2a142.7,142.7,0,0,1,94.2,0" style="fill: none;stroke: #e6ad63;stroke-linecap: round;stroke-miterlimit: 10;stroke-width: 45.54108358973603px"/>
    <path d="M237.5,554a177.6,177.6,0,0,1,149.1,0" style="fill: none;stroke: #bd262f;stroke-linecap: round;stroke-miterlimit: 10;stroke-width: 52.04695267398403px"/>
    <path d="M407.3,559.7a13.7,13.7,0,0,1-3.5,5.1,17.5,17.5,0,0,1-5.1,3.4,21.7,21.7,0,0,1-5.8,1.7,15.3,15.3,0,0,1-6.3-.5,2.3,2.3,0,0,1-1.5-2.8,2.3,2.3,0,0,1,2.5-1.6h.2a13.1,13.1,0,0,0,4.4-.1,19.7,19.7,0,0,0,4.3-1.4,16.7,16.7,0,0,0,3.8-2.5,15,15,0,0,0,2.9-3.3h.1a2.3,2.3,0,0,1,3.2-.7A2.3,2.3,0,0,1,407.3,559.7Z" style="fill: #8c2027"/>
    <path d="M394.6,572.2a11.5,11.5,0,0,0,1.1-8.4,19.3,19.3,0,0,0-4.3-8.1h0a2.6,2.6,0,0,1,.2-3.7,2.6,2.6,0,0,1,3.6.2h.1a22.8,22.8,0,0,1,5,10.5,17.3,17.3,0,0,1,.2,6,14.2,14.2,0,0,1-2.2,5.8,2.2,2.2,0,0,1-3,.6,2.2,2.2,0,0,1-.7-3Z" style="fill: #8c2027"/>
    <path d="M362.4,573.4c-25.1-11.8-10.9-36-24.4-37.4s-13.9,25.9-29.7,27.2c-17.7,1.6-19.9-24.1-31.1-25.6-22.9-3.2-12,33.2-22.9,38.4" style="fill: none;stroke: #fed21a;stroke-linecap: round;stroke-linejoin: round;stroke-width: 8px"/>
    <path d="M250.4,520a178,178,0,0,1,123.2,0" style="fill: none;stroke: #e6ad63;stroke-linecap: round;stroke-miterlimit: 10;stroke-width: 45.54108358973603px"/>
    <path d="M359.1,52.8a140.3,140.3,0,0,1-47.1,8,140.3,140.3,0,0,1-47.1-8" style="fill: none;stroke: #e6ad63;stroke-linecap: round;stroke-miterlimit: 10;stroke-width: 45.54108358973603px"/>
    <path d="M386.5,70A176.6,176.6,0,0,1,312,86.4,177.4,177.4,0,0,1,237.4,70" style="fill: none;stroke: #bd262f;stroke-linecap: round;stroke-miterlimit: 10;stroke-width: 52.04695267398403px"/>
    <path d="M216.7,64.3a13.7,13.7,0,0,1,3.5-5.1,17.5,17.5,0,0,1,5.1-3.4,21.7,21.7,0,0,1,5.8-1.7,15.3,15.3,0,0,1,6.3.5,2.3,2.3,0,0,1,1.5,2.8,2.3,2.3,0,0,1-2.5,1.6h-.2a13.1,13.1,0,0,0-4.4.1,19.7,19.7,0,0,0-4.3,1.4,16.7,16.7,0,0,0-3.8,2.5,15,15,0,0,0-2.9,3.3h-.1a2.3,2.3,0,0,1-3.2.7A2.3,2.3,0,0,1,216.7,64.3Z" style="fill: #8c2027"/>
    <path d="M229.4,51.8a11.5,11.5,0,0,0-1.1,8.4,19.3,19.3,0,0,0,4.3,8.1h0a2.6,2.6,0,0,1-.2,3.7,2.6,2.6,0,0,1-3.6-.2h-.1a22.8,22.8,0,0,1-5-10.5,17.3,17.3,0,0,1-.2-6,14.2,14.2,0,0,1,2.2-5.8,2.2,2.2,0,0,1,3-.6,2.2,2.2,0,0,1,.7,3Z" style="fill: #8c2027"/>
    <path d="M261.6,50.6c25.1,11.8,10.9,36,24.4,37.4s13.9-25.9,29.7-27.2c17.7-1.6,19.9,24.1,31.1,25.6,22.9,3.2,12-33.2,22.9-38.4" style="fill: none;stroke: #fed21a;stroke-linecap: round;stroke-linejoin: round;stroke-width: 8px"/>
    <path d="M373.6,104A177,177,0,0,1,312,115a177,177,0,0,1-61.6-11" style="fill: none;stroke: #e6ad63;stroke-linecap: round;stroke-miterlimit: 10;stroke-width: 45.54108358973603px"/>
  </g>
</svg>
