<svg width="175" height="153" viewBox="0 0 175 153" fill="none" xmlns="http://www.w3.org/2000/svg">
<g clip-path="url(#clip0_1347_140516)">
<path d="M175 131.07L161.219 139.82L159.447 140.936L144.003 150.758L141.794 152.158L141.662 152.245H34.125L34.0812 152.223L32.375 151.151L0 131.07L15.8156 119.848L19.7531 117.07L33.2719 107.467L35.6125 105.805L43.9469 99.8984L66.8063 110.398L68.6875 111.273L68.9062 111.361L76.9344 111.383H79.1L135.559 111.47H137.572L146.956 111.492H147.022L149.122 110.376L156.625 106.33L158.856 105.126L168.613 99.8984L170.953 111.405L171.369 113.373L175 131.07Z" fill="#FFE55C"/>
<path d="M68.6873 111.273L34.0811 152.223L32.3748 151.151L66.8061 110.398L68.6873 111.273ZM146.956 111.492L141.794 152.158L144.003 150.758L149.122 110.376L147.022 111.492H146.956ZM69.1248 138.026C67.0467 139.711 64.3998 141.111 61.2498 142.226C61.0319 142.309 60.8494 142.465 60.7334 142.667C60.6174 142.869 60.5752 143.105 60.6139 143.335C60.6527 143.565 60.7699 143.774 60.9458 143.927C61.1216 144.08 61.345 144.167 61.5779 144.173C61.6978 144.175 61.8168 144.153 61.9279 144.108C65.2748 142.926 68.1186 141.395 70.3717 139.601C70.475 139.521 70.561 139.42 70.6248 139.305C70.6885 139.19 70.7287 139.064 70.743 138.934C70.7573 138.803 70.7453 138.671 70.7079 138.546C70.6704 138.42 70.6081 138.303 70.5248 138.201C70.361 137.995 70.1225 137.86 69.8606 137.828C69.5987 137.795 69.3345 137.866 69.1248 138.026ZM52.4123 144.305C50.1502 144.611 47.87 144.764 45.5873 144.764C44.8436 144.786 44.0779 144.742 43.3342 144.72C43.2031 144.711 43.0716 144.729 42.9473 144.772C42.8231 144.814 42.7087 144.882 42.6109 144.969C42.513 145.057 42.4337 145.163 42.3776 145.282C42.3215 145.401 42.2897 145.53 42.2842 145.661C42.2783 145.793 42.2986 145.925 42.3438 146.049C42.389 146.174 42.4583 146.288 42.5477 146.385C42.6371 146.483 42.7448 146.562 42.8648 146.618C42.9847 146.674 43.1145 146.705 43.2467 146.711C43.9904 146.755 44.7779 146.755 45.5217 146.755H45.5873C47.9653 146.758 50.3408 146.597 52.6967 146.273C52.9577 146.236 53.1931 146.096 53.3511 145.885C53.509 145.673 53.5766 145.408 53.5389 145.147C53.5012 144.886 53.3613 144.65 53.15 144.492C52.9387 144.334 52.6734 144.267 52.4123 144.305ZM85.7061 129.736C82.2936 130.042 78.9686 130.83 76.3873 131.989C76.1765 132.083 76.0045 132.247 75.9001 132.453C75.7957 132.659 75.7654 132.894 75.8141 133.12C75.8628 133.346 75.9877 133.548 76.1677 133.692C76.3478 133.837 76.572 133.915 76.8029 133.914C76.9451 133.906 77.0852 133.876 77.2186 133.826C79.6029 132.755 82.6654 132.011 85.8811 131.726C86.1461 131.699 86.39 131.569 86.5614 131.365C86.7328 131.161 86.8183 130.899 86.7998 130.633C86.7722 130.369 86.6418 130.128 86.4371 129.96C86.2324 129.792 85.9697 129.711 85.7061 129.736ZM34.1248 145.245C34.3652 145.243 34.5969 145.155 34.7779 144.997C34.959 144.839 35.0774 144.621 35.1117 144.383C35.1461 144.145 35.0942 143.903 34.9653 143.7C34.8364 143.497 34.6391 143.347 34.4092 143.276C30.9311 142.205 28.5029 140.651 27.3873 138.748C27.2539 138.522 27.036 138.358 26.7817 138.292C26.5273 138.227 26.2573 138.265 26.0311 138.398C25.8048 138.532 25.6408 138.75 25.5752 139.004C25.5095 139.258 25.5476 139.528 25.6811 139.755C27.0373 142.095 29.8592 143.976 33.8404 145.201L34.1248 145.245ZM27.3217 131.442C27.486 131.543 27.6755 131.597 27.8686 131.595C28.0354 131.599 28.2003 131.559 28.3464 131.478C28.4925 131.397 28.6145 131.279 28.6998 131.136C31.0186 127.57 32.1561 124.748 32.1561 122.451C32.1561 122.298 32.1342 122.145 32.1342 121.992C32.1437 121.849 32.1225 121.706 32.0721 121.571C32.0217 121.437 31.9432 121.315 31.8418 121.214C31.7405 121.113 31.6187 121.034 31.4845 120.984C31.3504 120.933 31.207 120.912 31.0639 120.921C30.9209 120.931 30.7815 120.971 30.6552 121.038C30.5288 121.106 30.4183 121.2 30.3312 121.314C30.2441 121.427 30.1822 121.559 30.1499 121.698C30.1175 121.838 30.1154 121.983 30.1436 122.123V122.451C30.1436 124.311 29.0936 126.87 27.0373 130.064C26.9641 130.173 26.9133 130.295 26.888 130.424C26.8626 130.552 26.8632 130.684 26.8897 130.813C26.9162 130.941 26.968 131.063 27.0422 131.171C27.1164 131.279 27.2114 131.371 27.3217 131.442ZM23.9748 116.764H23.8436C22.4747 116.775 21.1081 116.877 19.7529 117.07L15.8154 119.848C17.3029 119.476 20.6936 118.755 23.8436 118.755H23.9748C24.2134 118.719 24.4313 118.599 24.5889 118.416C24.7464 118.234 24.8331 118.001 24.8331 117.759C24.8331 117.518 24.7464 117.285 24.5889 117.102C24.4313 116.919 24.2134 116.799 23.9748 116.764ZM95.2435 130.239C94.9862 130.192 94.7208 130.246 94.5014 130.388C94.2819 130.53 94.1249 130.751 94.0623 131.005C94.0101 131.263 94.0611 131.531 94.2042 131.751C94.3473 131.972 94.5712 132.128 94.8279 132.186C98.0873 132.886 100.756 134.111 102.747 135.817C102.932 135.97 103.163 136.055 103.403 136.058C103.549 136.061 103.693 136.032 103.826 135.971C103.959 135.91 104.076 135.82 104.169 135.708C104.336 135.506 104.419 135.247 104.398 134.986C104.378 134.724 104.256 134.481 104.059 134.308C101.806 132.361 98.831 131.005 95.2435 130.239ZM107.515 142.073C107.386 142.089 107.26 142.131 107.147 142.196C107.034 142.261 106.934 142.348 106.855 142.452C106.775 142.556 106.718 142.675 106.684 142.801C106.651 142.928 106.644 143.06 106.662 143.189C106.733 143.821 106.769 144.456 106.772 145.092C106.772 147.148 106.378 149.445 105.612 151.917C105.57 152.021 105.547 152.133 105.547 152.245H107.603C108.332 149.929 108.722 147.52 108.762 145.092C108.764 144.375 108.72 143.659 108.631 142.948C108.598 142.685 108.463 142.445 108.254 142.281C108.045 142.117 107.779 142.042 107.515 142.073ZM143.04 127.526C142.943 127.281 142.753 127.085 142.511 126.978C142.27 126.872 141.997 126.864 141.75 126.958C139.956 127.636 137.965 128.445 135.844 129.342C134.969 129.736 134.05 130.086 133.153 130.392C132.935 130.475 132.752 130.63 132.637 130.832C132.521 131.034 132.478 131.271 132.517 131.5C132.556 131.73 132.673 131.939 132.849 132.092C133.025 132.245 133.248 132.332 133.481 132.339C133.594 132.338 133.705 132.316 133.809 132.273C134.75 131.945 135.712 131.573 136.631 131.18C138.731 130.283 140.7 129.495 142.472 128.817C142.717 128.719 142.914 128.53 143.02 128.288C143.126 128.047 143.134 127.773 143.04 127.526ZM127.75 120.636C125.344 121.358 122.412 121.664 118.89 121.533C118.625 121.527 118.367 121.623 118.172 121.803C117.976 121.982 117.857 122.23 117.84 122.495C117.834 122.758 117.932 123.014 118.112 123.206C118.292 123.398 118.54 123.512 118.803 123.523L120.487 123.567C123.462 123.567 126.109 123.217 128.34 122.539C128.56 122.435 128.734 122.256 128.832 122.034C128.929 121.812 128.943 121.563 128.872 121.331C128.8 121.099 128.647 120.902 128.441 120.774C128.234 120.646 127.989 120.597 127.75 120.636ZM159.709 127.439C159.932 127.436 160.147 127.359 160.322 127.22C160.524 127.053 160.655 126.815 160.687 126.555C160.72 126.295 160.652 126.032 160.497 125.82C158.812 123.633 155.75 123.108 150.762 124.158C150.634 124.184 150.512 124.235 150.403 124.309C150.295 124.383 150.202 124.477 150.131 124.587C150.06 124.697 150.011 124.82 149.988 124.95C149.965 125.079 149.968 125.211 149.997 125.339C150.02 125.469 150.069 125.593 150.142 125.703C150.215 125.813 150.31 125.907 150.421 125.979C150.532 126.05 150.656 126.099 150.786 126.12C150.917 126.142 151.05 126.137 151.178 126.105C155.225 125.251 157.762 125.558 158.9 127.045C158.995 127.169 159.118 127.269 159.258 127.338C159.398 127.406 159.553 127.441 159.709 127.439ZM160.475 134.483C160.347 134.457 160.215 134.458 160.087 134.484C159.96 134.51 159.838 134.561 159.73 134.634C159.623 134.707 159.53 134.801 159.459 134.911C159.388 135.02 159.339 135.142 159.315 135.27L159.228 135.664C159.09 136.407 159.017 137.161 159.009 137.917C159.004 138.94 159.152 139.957 159.447 140.936L161.219 139.82C161.076 139.196 161.003 138.558 161 137.917C161 137.292 161.066 136.669 161.197 136.058L161.284 135.664C161.329 135.401 161.27 135.13 161.119 134.909C160.968 134.689 160.737 134.536 160.475 134.483ZM134.772 117.026C134.924 117.094 135.087 117.131 135.253 117.136C135.432 117.134 135.608 117.085 135.762 116.993C135.916 116.9 136.042 116.768 136.128 116.611C136.977 115.022 137.469 113.268 137.572 111.47H135.559C135.463 112.937 135.061 114.368 134.378 115.67C134.252 115.903 134.223 116.175 134.297 116.429C134.371 116.683 134.541 116.897 134.772 117.026ZM109.44 121.27C104.825 121.926 104.344 124.333 104.344 125.339C104.344 126.345 105 127.876 106.247 129.123C106.342 129.216 106.455 129.289 106.579 129.338C106.703 129.387 106.835 129.41 106.969 129.408C107.1 129.409 107.23 129.382 107.351 129.329C107.472 129.276 107.58 129.199 107.669 129.101C107.761 129.01 107.835 128.901 107.885 128.781C107.935 128.661 107.961 128.532 107.961 128.401C107.961 128.271 107.935 128.142 107.885 128.022C107.835 127.902 107.761 127.793 107.669 127.701C106.815 126.848 106.334 126.017 106.334 125.339C106.334 123.895 108.697 123.392 109.725 123.239C109.989 123.201 110.227 123.06 110.387 122.847C110.547 122.633 110.615 122.365 110.578 122.101C110.559 121.972 110.515 121.847 110.447 121.734C110.38 121.622 110.29 121.524 110.184 121.446C110.078 121.369 109.958 121.313 109.83 121.283C109.702 121.253 109.57 121.249 109.44 121.27ZM124.337 132.23C121.345 132.474 118.333 132.245 115.412 131.551C115.286 131.519 115.154 131.512 115.025 131.53C114.896 131.549 114.772 131.593 114.66 131.66C114.548 131.728 114.45 131.816 114.373 131.922C114.295 132.027 114.24 132.146 114.209 132.273C114.143 132.532 114.181 132.806 114.317 133.035C114.452 133.265 114.673 133.431 114.931 133.498C117.261 134.048 119.647 134.32 122.04 134.308C122.85 134.308 123.681 134.286 124.49 134.22C124.754 134.198 124.997 134.073 125.169 133.872C125.341 133.672 125.427 133.412 125.409 133.148C125.401 133.017 125.366 132.889 125.308 132.771C125.249 132.653 125.167 132.548 125.067 132.463C124.967 132.377 124.851 132.312 124.726 132.272C124.601 132.232 124.468 132.218 124.337 132.23ZM46.2873 112.083C47.3385 112.74 48.3468 113.463 49.3061 114.248C50.8154 115.495 52.2811 116.633 53.6373 117.639C53.8117 117.756 54.0178 117.817 54.2279 117.814C54.3841 117.816 54.5386 117.781 54.6791 117.713C54.8196 117.644 54.9422 117.544 55.0373 117.42C55.1172 117.315 55.175 117.194 55.2073 117.066C55.2396 116.938 55.2457 116.804 55.2253 116.674C55.2049 116.543 55.1583 116.418 55.0885 116.306C55.0186 116.193 54.9268 116.096 54.8186 116.02C53.4842 115.036 52.0623 113.92 50.5748 112.717C49.5554 111.874 48.4812 111.099 47.3592 110.398C47.2501 110.323 47.1267 110.271 46.9966 110.246C46.8666 110.22 46.7326 110.222 46.6033 110.251C46.4739 110.279 46.3518 110.335 46.2448 110.413C46.1377 110.491 46.0479 110.59 45.9811 110.705C45.841 110.929 45.7947 111.199 45.852 111.456C45.9092 111.714 46.0656 111.939 46.2873 112.083ZM38.3467 108.473C38.6002 108.501 38.8547 108.43 39.0566 108.274C39.2584 108.118 39.3918 107.89 39.4287 107.637C39.4655 107.385 39.403 107.128 39.2542 106.921C39.1054 106.714 38.882 106.572 38.6311 106.526C37.5665 106.22 36.5602 105.98 35.6123 105.805L33.2717 107.467C34.8991 107.669 36.5082 107.998 38.0842 108.451L38.3467 108.473ZM76.431 116.48C76.6304 116.479 76.825 116.419 76.9891 116.305C77.1531 116.192 77.2789 116.032 77.3498 115.845C77.6123 115.189 77.8748 114.555 78.1154 113.876C78.3561 113.198 78.7498 112.214 79.0998 111.383H76.9342L76.2561 113.176C75.9936 113.811 75.7529 114.467 75.4904 115.101C75.4412 115.223 75.417 115.354 75.419 115.485C75.4211 115.617 75.4495 115.747 75.5025 115.867C75.5555 115.987 75.6321 116.096 75.7277 116.186C75.8233 116.276 75.936 116.346 76.0592 116.392C76.173 116.454 76.3015 116.484 76.431 116.48ZM70.6342 121.861C68.6436 122.758 65.9748 122.386 62.5623 120.789C62.4417 120.72 62.3081 120.677 62.17 120.662C62.0319 120.647 61.8922 120.661 61.7597 120.703C61.6273 120.745 61.5049 120.814 61.4004 120.905C61.2958 120.997 61.2114 121.109 61.1523 121.235C61.0932 121.36 61.0608 121.497 61.0571 121.636C61.0534 121.775 61.0785 121.913 61.1308 122.042C61.1831 122.17 61.2615 122.287 61.3611 122.384C61.4606 122.481 61.5791 122.556 61.7092 122.605C64.2029 123.764 66.3248 124.333 68.2279 124.333C69.3414 124.346 70.445 124.122 71.4654 123.676C71.7056 123.562 71.8921 123.36 71.9859 123.111C72.0798 122.862 72.0735 122.586 71.9686 122.342C71.8548 122.102 71.6506 121.917 71.4006 121.826C71.1506 121.736 70.8751 121.749 70.6342 121.861ZM170.953 111.405C168.284 112.28 165.987 112.761 164.128 112.826C163.89 112.867 163.674 112.992 163.52 113.178C163.367 113.364 163.285 113.599 163.29 113.841C163.295 114.082 163.387 114.314 163.549 114.493C163.711 114.672 163.932 114.787 164.172 114.817H164.215C166.184 114.751 168.59 114.248 171.369 113.373L170.953 111.405ZM157.565 109.939H157.653C157.916 109.911 158.158 109.781 158.326 109.576C158.494 109.372 158.574 109.109 158.55 108.845C158.528 108.583 158.528 108.298 158.528 108.036C158.54 107.058 158.65 106.083 158.856 105.126L156.625 106.33C156.556 106.896 156.519 107.465 156.515 108.036C156.515 108.364 156.537 108.692 156.559 109.042C156.591 109.288 156.71 109.514 156.895 109.678C157.08 109.843 157.318 109.936 157.565 109.939Z" fill="#FFC419"/>
<path d="M99.6185 83.8203L92.9248 109.436C92.7987 109.897 92.5612 110.319 92.2331 110.666C91.905 111.014 91.4964 111.275 91.0436 111.427C87.7404 112.52 80.2811 115.255 82.8186 116.786C86.0561 118.711 95.1123 115.889 96.4029 113.548C98.0217 110.639 106.99 83.4046 106.99 83.4046L99.6185 83.8203Z" fill="url(#paint0_linear_1347_140516)"/>
<path d="M117.535 83.9078L125.825 115.583C125.976 116.155 126.267 116.68 126.672 117.112C127.077 117.543 127.583 117.867 128.144 118.055C132.213 119.411 141.444 122.78 138.316 124.661C134.313 127.067 123.135 123.545 121.538 120.68C119.525 117.07 108.435 83.4046 108.435 83.4046L117.535 83.9078Z" fill="url(#paint1_linear_1347_140516)"/>
<path d="M97.8252 90.6671C98.2846 92.3077 101.478 93.1171 104.081 92.1109L106.969 83.4921L99.5971 83.9078L97.8252 90.6671Z" fill="#CF1581"/>
<path d="M119.481 91.3453L117.535 83.9078L108.435 83.4046C108.435 83.4046 109.66 87.1453 111.366 92.2421C113.466 93.9046 118.256 92.3078 119.481 91.3453Z" fill="#CF1581"/>
<path d="M45.4346 23.5765C45.4346 23.5765 55.3658 27.8421 63.6783 24.4296C65.9533 23.5109 67.9002 26.289 66.2596 28.0828C64.6189 29.8765 61.7314 31.714 57.6408 31.9765L45.4346 23.5765Z" fill="#3442D7"/>
<path d="M79.494 26.7484C71.5096 29.964 57.0721 32.1953 49.219 25.589C34.0377 12.7921 5.16274 21.3015 7.98462 45.9546C10.8065 70.6078 41.2127 68.7265 41.2127 68.7265L57.9909 52.7578C49.219 54.3546 33.0752 35.7828 52.4127 39.9609C71.2471 44.0515 79.2096 36.264 82.5127 30.0953C83.5846 28.1046 81.5721 25.9171 79.494 26.7484Z" fill="url(#paint2_linear_1347_140516)"/>
<path d="M24.084 43.1984C24.084 43.1984 27.5621 37.5765 36.0715 40.814C46.309 44.7078 53.4402 42.8703 57.9246 40.1796C59.7184 39.1296 58.8871 36.3953 56.809 36.4828C53.1777 36.5921 48.4309 35.5203 43.2465 31.2109C38.0621 26.9015 33.3371 27.0765 29.7496 28.1265" fill="#5865F0"/>
<path d="M24.084 44.2046C23.8986 44.2009 23.7174 44.148 23.559 44.0515C23.3337 43.9115 23.1728 43.6881 23.1114 43.43C23.0499 43.1719 23.0929 42.9 23.2309 42.6734C24.05 41.4981 25.1472 40.5437 26.4246 39.8953C28.3715 38.889 31.6746 38.0578 36.4215 39.8734C46.5715 43.7234 53.4403 41.7109 57.4215 39.3265C57.6176 39.2197 57.7693 39.0466 57.8494 38.8382C57.9296 38.6298 57.933 38.3997 57.859 38.189C57.7958 37.9737 57.6624 37.7857 57.4801 37.6549C57.2978 37.5241 57.077 37.458 56.8528 37.4671C51.9746 37.6421 47.184 35.7828 42.6121 31.9765C38.7403 28.7609 34.4965 27.7765 30.034 29.089C29.7856 29.1433 29.5258 29.1015 29.3069 28.972C29.088 28.8425 28.9263 28.635 28.8542 28.3911C28.7822 28.1472 28.8051 27.8851 28.9185 27.6574C29.0318 27.4298 29.2272 27.2535 29.4653 27.164C34.5403 25.6765 39.5278 26.814 43.9028 30.4453C48.2778 34.0765 52.4121 35.6296 56.7871 35.4765C57.4498 35.453 58.1016 35.6498 58.6404 36.0363C59.1792 36.4229 59.5747 36.9771 59.7647 37.6124C59.9548 38.2477 59.9288 38.9281 59.6909 39.547C59.4529 40.1659 59.0164 40.6885 58.4496 41.0328C54.0746 43.6359 46.5934 45.889 35.6996 41.7328C28.1309 38.8671 25.0465 43.5265 24.9153 43.7234C24.831 43.8694 24.7098 43.9907 24.564 44.0751C24.4181 44.1596 24.2526 44.2042 24.084 44.2046Z" fill="#0C1AAB"/>
<path d="M46.266 61.3546C46.091 61.9671 46.0035 62.339 46.0035 62.339C32.4192 72.7296 45.216 91.1046 45.216 91.1046C47.7317 88.1078 50.7942 85.2421 54.5567 83.0984C56.6348 64.8109 50.9473 61.3328 46.266 61.3546Z" fill="#FF78B7"/>
<path d="M149.888 0.0171435C138.25 0.476519 133.919 11.1953 136.303 19.1796C138.819 27.5359 142.559 31.7578 143.303 36.0671C144.047 40.3765 141.072 44.4015 136.806 44.6203C129.741 44.9703 119.109 37.8171 109.134 39.1734C94.3687 41.164 98.7437 51.1609 74.7906 47.1578C52.9812 43.5265 47.3813 57.4609 46.2656 61.3546C50.9469 61.3328 56.6344 64.8109 54.5562 83.0984C62.7594 78.3953 74.3312 77.039 90.7594 84.7171C114.734 95.8953 137.112 76.7328 137.112 76.7328L143.894 56.3453C143.894 56.3453 173.622 47.2015 167.869 15.5921C166.272 6.79839 159.884 -0.398481 149.888 0.0171435Z" fill="url(#paint3_linear_1347_140516)"/>
<path d="M158.331 58.7078C158.661 58.2888 158.852 57.7772 158.877 57.2444C158.903 56.7115 158.761 56.1841 158.472 55.7359C158.182 55.2877 157.76 54.941 157.265 54.7443C156.769 54.5477 156.224 54.5108 155.706 54.639C149.647 56.1703 139.234 57.1109 128.318 50.3515C111.54 39.9609 92.8591 53.0203 97.1466 68.7265C101.959 86.314 133.918 93.5109 144.309 74.3265C144.309 74.3265 153.081 71.9203 152.293 63.1484C154.659 62.2209 156.741 60.6899 158.331 58.7078Z" fill="#5865F0"/>
<path d="M66.4344 73.9328C68.8748 73.9328 70.8531 70.7988 70.8531 66.9328C70.8531 63.0668 68.8748 59.9328 66.4344 59.9328C63.994 59.9328 62.0156 63.0668 62.0156 66.9328C62.0156 70.7988 63.994 73.9328 66.4344 73.9328Z" fill="white"/>
<path d="M66.3246 65.0734C64.509 65.0734 63.0215 67.414 63.0215 70.2796C63.0235 70.7266 63.06 71.1727 63.1309 71.614C63.9621 73.0359 65.1215 73.9328 66.434 73.9328C67.7465 73.9328 68.6434 73.2109 69.4309 72.0515C69.5659 71.4707 69.6319 70.8759 69.6277 70.2796C69.6277 67.414 68.1621 65.0734 66.3246 65.0734Z" fill="black"/>
<path d="M50.8158 56.739C43.6189 55.1421 42.8096 65.5328 42.8096 65.5328C42.8096 65.5328 46.8127 59.1453 51.6252 65.7515C53.0471 67.6765 53.3752 70.1921 53.5721 72.5984C53.8127 75.4859 53.9002 79.9921 52.8064 84.1703C53.5502 83.689 54.3377 83.2078 55.1252 82.7703C57.4221 74.3921 59.4783 58.6859 50.8158 56.739Z" fill="#CF1581"/>
<path d="M152.294 65.2703C149.391 66.1406 146.377 66.5828 143.347 66.5828C142.472 66.5828 141.925 66.539 141.837 66.539C141.706 66.5308 141.578 66.4963 141.46 66.4376C141.342 66.3789 141.237 66.2971 141.151 66.1972C141.066 66.0972 141.001 65.9811 140.961 65.8558C140.921 65.7304 140.907 65.5982 140.919 65.4671C140.924 65.3347 140.956 65.2048 141.014 65.0854C141.072 64.9661 141.153 64.86 141.254 64.7738C141.355 64.6875 141.472 64.623 141.599 64.5842C141.725 64.5454 141.859 64.5332 141.99 64.5484C142.056 64.5484 147.175 64.8984 152.294 63.1703C152.359 63.8687 152.359 64.5718 152.294 65.2703ZM122.806 73.4515C122.551 73.3732 122.275 73.3995 122.039 73.5246C121.803 73.6497 121.627 73.8634 121.548 74.1187C121.47 74.374 121.496 74.6499 121.621 74.8858C121.746 75.1217 121.96 75.2982 122.215 75.3765C125.628 76.4265 130.506 77.564 135.756 77.564C138.102 77.5741 140.443 77.3246 142.734 76.8203C143.31 76.022 143.836 75.1892 144.309 74.3265L145.053 74.064C137.003 76.9078 128.1 75.0921 122.806 73.4515Z" fill="#0C1AAB"/>
<path d="M23.6035 97.4921C23.0918 97.1592 22.6589 96.7188 22.3348 96.2015C22.0059 95.6916 21.7896 95.1173 21.7004 94.5171L21.3723 92.439C21.3681 92.3884 21.3446 92.3414 21.3066 92.3078L21.1754 92.264L21.0441 92.3078C21.0062 92.3414 20.9827 92.3884 20.9785 92.439L20.6504 94.5171C20.5611 95.1173 20.3449 95.6916 20.016 96.2015C19.6857 96.7139 19.2539 97.1531 18.7473 97.4921L18.4629 97.6671C18.441 97.6671 18.4191 97.7109 18.3973 97.7328C18.3765 97.7652 18.3687 97.8042 18.3754 97.8421C18.3721 97.873 18.3799 97.904 18.3973 97.9296C18.4191 97.9515 18.441 97.9953 18.4629 97.9953L18.7473 98.1703C19.2539 98.5093 19.6857 98.9485 20.016 99.4609C20.3449 99.9708 20.5611 100.545 20.6504 101.145L20.9785 103.223C20.9827 103.274 21.0062 103.321 21.0441 103.355L21.1754 103.398L21.3066 103.355C21.3446 103.321 21.3681 103.274 21.3723 103.223L21.7004 101.145C21.7896 100.545 22.0059 99.9708 22.3348 99.4609C22.6589 98.9436 23.0918 98.5032 23.6035 98.1703L23.8879 97.9953C23.9098 97.9953 23.9316 97.9515 23.9535 97.9296C23.9709 97.904 23.9787 97.873 23.9754 97.8421C23.9821 97.8042 23.9743 97.7652 23.9535 97.7328C23.9316 97.7109 23.9098 97.6671 23.8879 97.6671L23.6035 97.4921Z" fill="#FFE55C"/>
<path d="M14.9625 87.2328C14.1531 86.7258 13.4658 86.046 12.95 85.2421C12.4466 84.4354 12.1117 83.535 11.9656 82.5953L11.4844 79.3578C11.4614 79.2855 11.4242 79.2186 11.375 79.1609C11.3127 79.1101 11.2364 79.0796 11.1563 79.0734C11.077 79.083 11.0016 79.1132 10.9375 79.1609C10.887 79.2148 10.8562 79.2842 10.85 79.3578L10.3469 82.5953C10.1996 83.538 9.85684 84.4396 9.34065 85.2421C8.83283 86.045 8.15288 86.7249 7.35002 87.2328L6.93439 87.5171C6.88778 87.5418 6.84967 87.5799 6.82502 87.6265C6.7958 87.6722 6.78027 87.7254 6.78027 87.7796C6.78027 87.8339 6.7958 87.887 6.82502 87.9328L6.93439 88.0421L7.35002 88.3265C8.15288 88.8343 8.83283 89.5143 9.34065 90.3171C9.85684 91.1197 10.1996 92.0212 10.3469 92.964L10.85 96.2015C10.8606 96.2749 10.8975 96.342 10.9538 96.3903C11.0102 96.4386 11.0821 96.4648 11.1563 96.464C11.2343 96.4656 11.3108 96.4427 11.375 96.3984C11.4196 96.3376 11.4564 96.2715 11.4844 96.2015L11.9656 92.964C12.1152 92.0252 12.4498 91.1255 12.95 90.3171C13.4658 89.5133 14.1531 88.8335 14.9625 88.3265L15.4 88.0421C15.4404 88.0163 15.4711 87.9778 15.4875 87.9328C15.5167 87.887 15.5323 87.8339 15.5323 87.7796C15.5323 87.7254 15.5167 87.6722 15.4875 87.6265C15.4711 87.5815 15.4404 87.543 15.4 87.5171L14.9625 87.2328Z" fill="#FF78B7"/>
<path d="M171.588 76.8859C170.788 76.3668 170.103 75.6893 169.575 74.8953C169.066 74.0913 168.731 73.1897 168.591 72.2484L168.088 69.0109C168.085 68.9363 168.054 68.8656 168 68.814C167.971 68.7849 167.937 68.7618 167.9 68.746C167.862 68.7302 167.822 68.7221 167.781 68.7221C167.741 68.7221 167.7 68.7302 167.663 68.746C167.625 68.7618 167.591 68.7849 167.562 68.814C167.509 68.8656 167.477 68.9363 167.475 69.0109L166.972 72.2484C166.825 73.1912 166.482 74.0927 165.966 74.8953C165.452 75.6933 164.773 76.372 163.975 76.8859L163.559 77.1484L163.45 77.2796C163.422 77.3259 163.407 77.3788 163.406 77.4328C163.411 77.4862 163.426 77.5382 163.45 77.5859C163.475 77.6325 163.513 77.6706 163.559 77.6953L163.975 77.9796C164.783 78.4815 165.464 79.1627 165.966 79.9703C166.485 80.771 166.828 81.6734 166.972 82.6172L167.475 85.8328C167.477 85.9073 167.509 85.978 167.562 86.0296C167.591 86.058 167.626 86.0803 167.663 86.0953C167.701 86.1103 167.741 86.1177 167.781 86.1172C167.822 86.119 167.862 86.1122 167.9 86.0971C167.938 86.082 167.972 86.059 168 86.0296C168.054 85.978 168.085 85.9073 168.088 85.8328L168.591 82.6172C168.723 81.6739 169.059 80.7707 169.575 79.9703C170.091 79.1664 170.778 78.4866 171.588 77.9796L172.025 77.6953L172.112 77.5859C172.137 77.5382 172.152 77.4862 172.156 77.4328C172.155 77.3788 172.14 77.3259 172.112 77.2796L172.025 77.1484L171.588 76.8859Z" fill="#8AD7FF"/>
<path d="M149.231 25.4578C149.262 25.7216 149.188 25.9869 149.024 26.1959C148.86 26.4049 148.62 26.5406 148.356 26.5734H148.225C147.982 26.5749 147.747 26.4863 147.565 26.3248C147.383 26.1632 147.268 25.9401 147.241 25.6984C145.841 14.1265 140.963 9.55465 137.31 7.7609C137.592 7.18564 137.914 6.6302 138.272 6.0984C142.428 8.1984 147.766 13.2734 149.231 25.4578ZM155.444 0.651526C154.614 0.405246 153.766 0.229619 152.906 0.126526C156.122 5.77028 161.066 17.5609 156.078 30.8171C156.022 30.9691 156.003 31.1324 156.023 31.2932C156.044 31.454 156.103 31.6075 156.195 31.7406C156.287 31.8738 156.41 31.9827 156.554 32.058C156.697 32.1334 156.857 32.173 157.019 32.1734C157.225 32.176 157.426 32.1141 157.595 31.9964C157.763 31.8787 157.891 31.7111 157.96 31.5172C162.794 18.6328 158.769 7.03903 155.444 0.651526Z" fill="#29CA7A"/>
</g>
<defs>
<linearGradient id="paint0_linear_1347_140516" x1="89.3132" y1="116.009" x2="97.7307" y2="90.2428" gradientUnits="userSpaceOnUse">
<stop offset="0.18" stop-color="#FF78B7"/>
<stop offset="0.97" stop-color="#F25AA8"/>
</linearGradient>
<linearGradient id="paint1_linear_1347_140516" x1="127.822" y1="119.407" x2="120.271" y2="90.4112" gradientUnits="userSpaceOnUse">
<stop offset="0.26" stop-color="#FF78B7"/>
<stop offset="0.51" stop-color="#F96BB0"/>
<stop offset="0.97" stop-color="#EB4A9F"/>
<stop offset="1" stop-color="#EA489E"/>
</linearGradient>
<linearGradient id="paint2_linear_1347_140516" x1="46.1849" y1="41.9668" x2="50.6606" y2="67.4862" gradientUnits="userSpaceOnUse">
<stop offset="0.15" stop-color="#5865F0"/>
<stop offset="0.89" stop-color="#3442D7"/>
</linearGradient>
<linearGradient id="paint3_linear_1347_140516" x1="105.801" y1="31.714" x2="116.336" y2="87.8781" gradientUnits="userSpaceOnUse">
<stop offset="0.42" stop-color="#8FFFAB"/>
<stop offset="0.92" stop-color="#58F086"/>
</linearGradient>
<clipPath id="clip0_1347_140516">
<rect width="175" height="152.25" fill="white"/>
</clipPath>
</defs>
</svg>
