<svg width="160" height="106" viewBox="0 0 160 106" fill="none" xmlns="http://www.w3.org/2000/svg">
<path d="M0 8C0 3.58172 3.58172 0 8 0H152C156.418 0 160 3.58172 160 8V98C160 102.418 156.418 106 152 106H8C3.58172 106 0 102.418 0 98V8Z" fill="#202225"/>
<path fill-rule="evenodd" clip-rule="evenodd" d="M16.1236 26C15.8125 26 15.577 25.7189 15.6313 25.4126L16.0004 23.3333H13.9288C13.6182 23.3333 13.3828 23.0531 13.4363 22.7471L13.4947 22.4138C13.5365 22.1746 13.7443 22 13.9872 22H16.2337L16.9404 18H14.8688C14.5582 18 14.3228 17.7198 14.3763 17.4138L14.4347 17.0805C14.4765 16.8412 14.6843 16.6667 14.9272 16.6667H17.1737L17.5738 14.4126C17.6162 14.1739 17.8237 14 18.0661 14H18.3838C18.695 14 18.9305 14.2811 18.8762 14.5874L18.5071 16.6667H22.5071L22.9072 14.4126C22.9495 14.1739 23.157 14 23.3995 14H23.7172C24.0283 14 24.2639 14.2811 24.2095 14.5874L23.8404 16.6667H25.912C26.2226 16.6667 26.458 16.9469 26.4045 17.2529L26.3462 17.5862C26.3043 17.8254 26.0965 18 25.8536 18H23.6071L22.9004 22H24.972C25.2826 22 25.518 22.2802 25.4645 22.5862L25.4062 22.9195C25.3643 23.1588 25.1565 23.3333 24.9136 23.3333H22.6671L22.267 25.5874C22.2246 25.8261 22.0171 26 21.7747 26H21.457C21.1459 26 20.9103 25.7189 20.9647 25.4126L21.3337 23.3333H17.3337L16.9337 25.5874C16.8913 25.8261 16.6838 26 16.4413 26H16.1236ZM18.274 18L17.5674 22H21.5674L22.274 18H18.274Z" fill="white"/>
<rect x="36" y="17" width="75" height="6" rx="3" fill="white"/>
<path fill-rule="evenodd" clip-rule="evenodd" d="M16.1236 48C15.8125 48 15.577 47.7189 15.6313 47.4126L16.0004 45.3333H13.9288C13.6182 45.3333 13.3828 45.0531 13.4363 44.7471L13.4947 44.4138C13.5365 44.1746 13.7443 44 13.9872 44H16.2337L16.9404 40H14.8688C14.5582 40 14.3228 39.7198 14.3763 39.4138L14.4347 39.0805C14.4765 38.8412 14.6843 38.6667 14.9272 38.6667H17.1737L17.5738 36.4126C17.6162 36.1739 17.8237 36 18.0661 36H18.3838C18.695 36 18.9305 36.2811 18.8762 36.5874L18.5071 38.6667H22.5071L22.9072 36.4126C22.9495 36.1739 23.157 36 23.3995 36H23.7172C24.0283 36 24.2639 36.2811 24.2095 36.5874L23.8404 38.6667H25.912C26.2226 38.6667 26.458 38.9469 26.4045 39.2529L26.3462 39.5862C26.3043 39.8254 26.0965 40 25.8536 40H23.6071L22.9004 44H24.972C25.2826 44 25.518 44.2802 25.4645 44.5862L25.4062 44.9195C25.3643 45.1588 25.1565 45.3333 24.9136 45.3333H22.6671L22.267 47.5874C22.2246 47.8261 22.0171 48 21.7747 48H21.457C21.1459 48 20.9103 47.7189 20.9647 47.4126L21.3337 45.3333H17.3337L16.9337 47.5874C16.8913 47.8261 16.6838 48 16.4413 48H16.1236ZM18.274 40L17.5674 44H21.5674L22.274 40H18.274Z" fill="#A3A6AA"/>
<rect x="36" y="39" width="75" height="6" rx="3" fill="#A3A6AA"/>
<path fill-rule="evenodd" clip-rule="evenodd" d="M32.1236 70C31.8125 70 31.577 69.7189 31.6313 69.4126L32.0004 67.3333H29.9288C29.6182 67.3333 29.3828 67.0531 29.4363 66.7471L29.4947 66.4138C29.5365 66.1746 29.7443 66 29.9872 66H32.2337L32.9404 62H30.8688C30.5582 62 30.3228 61.7198 30.3763 61.4138L30.4347 61.0805C30.4765 60.8412 30.6843 60.6667 30.9272 60.6667H33.1737L33.5738 58.4126C33.6162 58.1739 33.8237 58 34.0661 58H34.3838C34.695 58 34.9305 58.2811 34.8762 58.5874L34.5071 60.6667H38.5071L38.9072 58.4126C38.9495 58.1739 39.157 58 39.3995 58H39.7172C40.0283 58 40.2639 58.2811 40.2095 58.5874L39.8404 60.6667H41.912C42.2226 60.6667 42.458 60.9469 42.4045 61.2529L42.3462 61.5862C42.3043 61.8254 42.0965 62 41.8536 62H39.6071L38.9004 66H40.972C41.2826 66 41.518 66.2802 41.4645 66.5862L41.4062 66.9195C41.3643 67.1588 41.1565 67.3333 40.9136 67.3333H38.6671L38.267 69.5874C38.2246 69.8261 38.0171 70 37.7747 70H37.457C37.1459 70 36.9103 69.7189 36.9647 69.4126L37.3337 67.3333H33.3337L32.9337 69.5874C32.8913 69.8261 32.6838 70 32.4413 70H32.1236ZM34.274 62L33.5674 66H37.5674L38.274 62H34.274Z" fill="#4F545C"/>
<rect x="52" y="61" width="75" height="6" rx="3" fill="#4F545C"/>
<path fill-rule="evenodd" clip-rule="evenodd" d="M16.1236 92C15.8125 92 15.577 91.7189 15.6313 91.4126L16.0004 89.3333H13.9288C13.6182 89.3333 13.3828 89.0531 13.4363 88.7471L13.4947 88.4138C13.5365 88.1746 13.7443 88 13.9872 88H16.2337L16.9404 84H14.8688C14.5582 84 14.3228 83.7198 14.3763 83.4138L14.4347 83.0805C14.4765 82.8412 14.6843 82.6667 14.9272 82.6667H17.1737L17.5738 80.4126C17.6162 80.1739 17.8237 80 18.0661 80H18.3838C18.695 80 18.9305 80.2811 18.8762 80.5874L18.5071 82.6667H22.5071L22.9072 80.4126C22.9495 80.1739 23.157 80 23.3995 80H23.7172C24.0283 80 24.2639 80.2811 24.2095 80.5874L23.8404 82.6667H25.912C26.2226 82.6667 26.458 82.9469 26.4045 83.2529L26.3462 83.5862C26.3043 83.8254 26.0965 84 25.8536 84H23.6071L22.9004 88H24.972C25.2826 88 25.518 88.2802 25.4645 88.5862L25.4062 88.9195C25.3643 89.1588 25.1565 89.3333 24.9136 89.3333H22.6671L22.267 91.5874C22.2246 91.8261 22.0171 92 21.7747 92H21.457C21.1459 92 20.9103 91.7189 20.9647 91.4126L21.3337 89.3333H17.3337L16.9337 91.5874C16.8913 91.8261 16.6838 92 16.4413 92H16.1236ZM18.274 84L17.5674 88H21.5674L22.274 84H18.274Z" fill="#A3A6AA"/>
<rect x="36" y="83" width="75" height="6" rx="3" fill="#A3A6AA"/>
<path d="M127 16.0005C126.203 16.0005 125.465 16.419 125 17.0405C124.535 16.419 123.797 16.0005 123 16.0005C121.622 16.0005 120.5 17.122 120.5 18.5005C120.5 21.246 124.562 23.8165 124.735 23.9245C124.816 23.975 124.909 24.0005 125 24.0005C125.091 24.0005 125.184 23.975 125.265 23.9245C125.438 23.8165 129.5 21.246 129.5 18.5005C129.5 17.122 128.378 16.0005 127 16.0005Z" fill="#46C46D"/>
<path d="M146.2 58.9395L148.061 60.8001L144.861 64.0001L148.061 67.2001L146.2 69.0608L143 65.8608L139.8 69.0608L137.939 67.2001L141.139 64.0001L137.939 60.8001L139.8 58.9395L143 62.1395L146.2 58.9395Z" fill="#ED4245"/>
<path opacity="0.25" d="M144 53.326C144 52.5937 143.552 52 143 52C142.448 52 142 52.5937 142 53.326V54.674C142 55.4063 142.448 56 143 56C143.552 56 144 55.4063 144 54.674V53.326Z" fill="white" fill-opacity="0.5"/>
<path opacity="0.25" d="M144 73.326C144 72.5937 143.552 72 143 72C142.448 72 142 72.5937 142 73.326V74.674C142 75.4063 142.448 76 143 76C143.552 76 144 75.4063 144 74.674V73.326Z" fill="white" fill-opacity="0.5"/>
<path opacity="0.25" d="M153.674 65C154.406 65 155 64.5523 155 64C155 63.4477 154.406 63 153.674 63H152.326C151.594 63 151 63.4477 151 64C151 64.5523 151.594 65 152.326 65H153.674Z" fill="white" fill-opacity="0.5"/>
<path opacity="0.25" d="M133.674 65C134.406 65 135 64.5523 135 64C135 63.4477 134.406 63 133.674 63H132.326C131.594 63 131 63.4477 131 64C131 64.5523 131.594 65 132.326 65H133.674Z" fill="white" fill-opacity="0.5"/>
<path opacity="0.25" d="M135.352 54.9374C134.834 54.4196 134.098 54.3164 133.707 54.707C133.317 55.0975 133.42 55.8338 133.938 56.3517L134.891 57.3049C135.409 57.8227 136.145 57.9259 136.536 57.5354C136.926 57.1449 136.823 56.4085 136.305 55.8907L135.352 54.9374Z" fill="white" fill-opacity="0.5"/>
<path opacity="0.25" d="M152.305 56.3518C152.823 55.834 152.926 55.0976 152.535 54.7071C152.145 54.3166 151.408 54.4198 150.891 54.9376L149.937 55.8908C149.419 56.4086 149.316 57.145 149.707 57.5355C150.097 57.9261 150.834 57.8229 151.352 57.305L152.305 56.3518Z" fill="white" fill-opacity="0.5"/>
<path opacity="0.25" d="M133.937 70.8909C133.42 71.4087 133.316 72.145 133.707 72.5356C134.097 72.9261 134.834 72.8229 135.352 72.3051L136.305 71.3518C136.823 70.834 136.926 70.0977 136.535 69.7071C136.145 69.3166 135.408 69.4198 134.891 69.9376L133.937 70.8909Z" fill="white" fill-opacity="0.5"/>
<path opacity="0.25" d="M151.352 69.9374C150.834 69.4196 150.098 69.3164 149.707 69.707C149.317 70.0975 149.42 70.8338 149.938 71.3517L150.891 72.3049C151.409 72.8227 152.145 72.9259 152.536 72.5354C152.926 72.1449 152.823 71.4085 152.305 70.8907L151.352 69.9374Z" fill="white" fill-opacity="0.5"/>
</svg>
