<svg xmlns="http://www.w3.org/2000/svg" viewBox="0 0 18 18">
    <g fill="B9BBBE" fillRule="evenodd" style="fill:#B9BBBE">
        <path fill="B9BBBE" d="M8.25 13.5h1.5V12h-1.5v1.5zM9 1.5C4.86 1.5 1.5 4.86 1.5 9c0 4.14 3.36 7.5 7.5 7.5 4.14 0 7.5-3.36 7.5-7.5 0-4.14-3.36-7.5-7.5-7.5zM9 15c-3.3075 0-6-2.6925-6-6s2.6925-6 6-6 6 2.6925 6 6-2.6925 6-6 6zM9 4.5c-1.6575 0-3 1.3425-3 3h1.5C7.5 6.675 8.175 6 9 6s1.5.675 1.5 1.5c0 1.5-2.25 1.3125-2.25 3.75h1.5C9.75 9.5625 12 9.375 12 7.5c0-1.6575-1.3425-3-3-3z" style="fill:#B9BBBE"/>
    </g>
</svg>