<svg xmlns="http://www.w3.org/2000/svg" viewBox="0 0 24 24">
    <path d="M21 12C20.0883 13.2206 19.0407 14 17 14V15H15V14H9.00001V15H7.00001V14C4.95933 14 3.9117 13.2206 3.00001 12L2.30001 16.9C2.11115 18.222 2.55574 19.5557 3.50001 20.5C4.46044 21.4604 5.76307 22 7.12133 22H16.8787C18.2369 22 19.5396 21.4604 20.5 20.5C21.4443 19.5557 21.8889 18.222 21.7 16.9L21 12ZM7.00001 18V16H9.00001V18H7.00001ZM9.00001 12H15V9H17V12C18.6569 12 20 10.6569 20 9V5C20 3.34315 18.6569 2 17 2H7.00001C5.34315 2 4.00001 3.34315 4.00001 5V9C4.00001 10.6569 5.34315 12 7.00001 12V9H9.00001V12ZM17 16H15V18H17V16Z" fill="B9BBBE" style="fill:#B9BBBE"/>
</svg>